<svg xmlns="http://www.w3.org/2000/svg" viewBox="0 0 138.83 215.65"><path fill="#fff" d="M0 0h138.82v215.65H0z"/><path fill="none" stroke="#7f664a" stroke-miterlimit="10" stroke-width=".5" d="M27.76 208.74H6.94V8.91h20.82m34.71 199.83H41.66m55.52 0H76.36M111.07 8.91h20.81v199.83h-20.81M76.36 8.91h20.82m-55.52 0h20.81"/><path d="m9.13 18.71 5.81-7.89h1.11v7.89h1.12v1.87h-1.12v2.75h-2.49v-2.75H9.13zm.87 0h3.56v-4.83zm110.79 180.67 5.82-7.89h1.1v7.89h1.12v1.87h-1.12V204h-2.48v-2.74h-4.44zm.88 0h3.56v-4.84z" fill="#7f664a"/><path d="M31.05 42.3c.15.21.3.43.44.66l29.16 52.32-3.95 2.88-3.7-3.92-.82-.87L49 90l-.83-.87-3.22-3.4-.83-.87-3.22-3.41-.9-.91-3.22-3.41-.78-.87-3.23-3.41-.83-.85-3.23-3.4-.82-.87-3.22-3.43-.82-.87L20.63 60l-.83-.87-3.22-3.41-.82-.87-.21-.22a9.92 9.92 0 1 1 15.5-12.33z" fill="#a3af31"/><path d="M17.9 39.7c-.24.15-.47.3-.7.47a9.91 9.91 0 0 0-1.65 14.49l41.15 43.5 1.35-1L16.9 53.67a9.92 9.92 0 0 1 1-13.97z" fill="#bbc144"/><path d="M17.2 40.17a10 10 0 0 0-1.2 1.08 9.93 9.93 0 0 1 12.83 3.65L58 97.22l2.66-1.94L31.49 43a9.91 9.91 0 0 0-14.29-2.83z" fill="#969b2c"/><circle cx="41.35" cy="59.85" r="3.09" fill="#bc1b21"/><path d="M39.53 57.35a2.52 2.52 0 0 0-.35.3 3.09 3.09 0 0 1 3.61 4.93l.39-.24a3.09 3.09 0 0 0-3.65-5z" fill="#96151f"/><circle cx="41.35" cy="59.85" r="1.67" fill="#cc2935"/><path d="m40.37 58.49-.18.15a1.68 1.68 0 0 1 2 2.68l.19-.12a1.68 1.68 0 0 0-2-2.71z" fill="#c11b30"/><path d="M66.22 93.26a13.11 13.11 0 0 1-4.8 7.4c-3 2.3-7.57 3.62-8.51 2.33s1.69-5.2 4.8-7.4a13.2 13.2 0 0 1 8.51-2.33z" fill="#ffb21a"/><path d="M53.58 102.5c-.88-1.21 1.4-4.76 4.27-7l-.14.09c-3.11 2.2-5.74 6.12-4.8 7.4s5.47 0 8.51-2.33l.13-.1c-3 2.05-7.08 3.15-7.97 1.94z" fill="#fdd224"/><path d="M57.71 95.59c-.29.21-.57.43-.85.66a13 13 0 0 1 8-2 13.16 13.16 0 0 1-4.35 7c.3-.2.6-.4.88-.62a13.11 13.11 0 0 0 4.8-7.4 13.2 13.2 0 0 0-8.48 2.36z" fill="#ff990b"/><path d="M63.81 98.06a7 7 0 0 1-2.18 2.6c-1.22.91-2.9 1.62-3.14 1.29s.94-1.72 2.18-2.61a6.81 6.81 0 0 1 3.14-1.28z" fill="#484349"/><path fill="#7c7c21" d="m24.02 48.84.7.95-8.14 5.95-.82-.87 8.26-6.03zm3.45 4.71.7.96-7.54 5.51-.83-.87 7.67-5.6zm3.44 4.72.7.96-6.94 5.07-.82-.87 7.06-5.16zm3.45 4.71.7.96-6.35 4.64-.82-.87 6.47-4.73zm3.44 4.72.71.96-5.75 4.2-.82-.88 5.86-4.28zm3.45 4.71.7.96-5.14 3.76-.82-.87 5.26-3.85zm3.45 4.72.7.96-4.55 3.32-.82-.87 4.67-3.41zm3.44 4.71.7.96-3.94 2.89-.83-.87 4.07-2.98zm3.45 4.72.7.96-3.34 2.44-.83-.87 3.47-2.53zm3.45 4.72.7.95-2.75 2.01-.82-.87 2.87-2.09z"/><circle cx="20.48" cy="61.46" r="3.09" fill="#bc1b21"/><path d="M18.66 59a3.37 3.37 0 0 0-.35.29 3.09 3.09 0 0 1 3.61 4.94l.39-.24a3.09 3.09 0 1 0-3.65-5z" fill="#96151f"/><circle cx="20.48" cy="61.46" r="1.67" fill="#cc2935"/><path d="m19.49 60.11-.17.15a1.67 1.67 0 0 1 2 2.67 1 1 0 0 0 .19-.12 1.67 1.67 0 0 0-2-2.7z" fill="#c11b30"/><circle cx="44.95" cy="85.83" r="3.09" fill="#bc1b21"/><path d="M43.13 83.34a3.37 3.37 0 0 0-.35.29 3.09 3.09 0 0 1 3.61 4.94 4.11 4.11 0 0 0 .39-.24 3.09 3.09 0 0 0-3.65-5z" fill="#96151f"/><circle cx="44.95" cy="85.83" r="1.67" fill="#cc2935"/><path d="m44 84.48-.18.15a1.67 1.67 0 0 1 2 2.67 1 1 0 0 0 .19-.12 1.67 1.67 0 0 0-2-2.7z" fill="#c11b30"/><path d="M107.77 42.3c-.15.21-.29.43-.43.66L78.17 95.28l4 2.88 3.71-3.92.82-.87L89.88 90l.82-.87 3.22-3.4.83-.87L98 81.41l.82-.87 3.18-3.41.82-.87 3.22-3.41.82-.87 3.23-3.4.82-.87 3.22-3.41.83-.87L118.2 60l.82-.87 3.23-3.41.82-.87.21-.22a9.92 9.92 0 1 0-15.51-12.33z" fill="#a3af31"/><path d="M120.93 39.7c.23.15.47.3.69.47a9.91 9.91 0 0 1 1.66 14.49l-41.16 43.5-1.35-1 41.16-43.51a9.93 9.93 0 0 0-1-13.95z" fill="#bbc144"/><path d="M121.62 40.17a9.33 9.33 0 0 1 1.25 1.08A9.91 9.91 0 0 0 110 44.9L80.83 97.22l-2.66-1.94L107.34 43a9.9 9.9 0 0 1 14.28-2.83z" fill="#969b2c"/><circle cx="97.47" cy="59.85" r="3.09" fill="#bc1b21"/><path d="M99.3 57.35a3.17 3.17 0 0 1 .34.3A3.08 3.08 0 0 0 96 62.58a2.55 2.55 0 0 1-.39-.24 3.09 3.09 0 0 1 3.65-5z" fill="#96151f"/><circle cx="97.47" cy="59.85" r="1.67" fill="#cc2935"/><path d="m98.46 58.49.17.15a1.67 1.67 0 0 0-1.95 2.68l-.19-.12a1.68 1.68 0 1 1 2-2.71z" fill="#c11b30"/><path d="M72.6 93.26a13.14 13.14 0 0 0 4.81 7.4c3 2.3 7.57 3.62 8.51 2.33s-1.69-5.2-4.81-7.4a13.19 13.19 0 0 0-8.51-2.33z" fill="#ffb21a"/><path d="M85.24 102.5c.89-1.21-1.4-4.76-4.27-7l.14.09c3.12 2.2 5.75 6.12 4.81 7.4s-5.48 0-8.51-2.33l-.14-.1c3.01 2.05 7.09 3.15 7.97 1.94z" fill="#fdd224"/><path d="M81.11 95.59c.29.21.58.43.86.66a13.07 13.07 0 0 0-8-2 13.27 13.27 0 0 0 4.36 7c-.31-.2-.6-.4-.88-.62a13.14 13.14 0 0 1-4.81-7.4 13.19 13.19 0 0 1 8.47 2.36z" fill="#ff990b"/><path d="M75 98.06a6.78 6.78 0 0 0 2.18 2.6c1.22.91 2.89 1.62 3.14 1.29s-.94-1.72-2.18-2.61A6.89 6.89 0 0 0 75 98.06z" fill="#484349"/><path fill="#7c7c21" d="m114.81 48.84-.7.95 8.14 5.95.82-.87-8.26-6.03zm-3.45 4.71-.7.96 7.54 5.51.82-.87-7.66-5.6zm-3.45 4.72-.7.96 6.94 5.07.83-.87-7.07-5.16zm-3.44 4.71-.7.96 6.34 4.64.82-.87-6.46-4.73zm-3.45 4.72-.7.96 5.74 4.2.82-.88-5.86-4.28zm-3.44 4.71-.71.96 5.15 3.76.82-.87-5.26-3.85zm-3.45 4.72-.7.96 4.54 3.32.82-.87-4.66-3.41zm-3.45 4.71-.7.96 3.94 2.89.83-.87-4.07-2.98zm-3.45 4.72-.7.96 3.35 2.44.82-.87-3.47-2.53zm-3.44 4.72-.7.95 2.75 2.01.82-.87-2.87-2.09z"/><circle cx="118.34" cy="61.46" r="3.09" fill="#bc1b21"/><path d="M120.17 59a3.24 3.24 0 0 1 .34.29 3.09 3.09 0 0 0-3.6 4.94 2.55 2.55 0 0 1-.39-.24 3.09 3.09 0 0 1 3.65-5z" fill="#96151f"/><circle cx="118.34" cy="61.46" r="1.67" fill="#cc2935"/><path d="m119.33 60.11.17.15a1.67 1.67 0 0 0-2 2.67.76.76 0 0 1-.19-.12 1.67 1.67 0 1 1 2-2.7z" fill="#c11b30"/><circle cx="93.87" cy="85.83" r="3.09" fill="#bc1b21"/><path d="M95.7 83.34c.12.09.23.19.34.29a3.09 3.09 0 0 0-3.6 4.94 2.55 2.55 0 0 1-.39-.24 3.09 3.09 0 0 1 3.65-5z" fill="#96151f"/><circle cx="93.87" cy="85.83" r="1.67" fill="#cc2935"/><path d="m94.86 84.48.17.15a1.67 1.67 0 0 0-2 2.67.76.76 0 0 1-.19-.12 1.67 1.67 0 1 1 2-2.7z" fill="#c11b30"/><path d="M107.77 173.35c-.15-.21-.29-.43-.43-.66l-29.17-52.32 4-2.88 3.71 3.92.82.87 3.22 3.41.82.87 3.22 3.4.83.87 3.21 3.41.82.87 3.23 3.41.82.87 3.22 3.41.82.87 3.23 3.4.82.87 3.22 3.41.83.87 3.22 3.41.82.87 3.23 3.41.82.87.21.22a9.92 9.92 0 1 1-15.51 12.35z" fill="#a3af31"/><path d="M120.93 176c.23-.15.47-.3.69-.47a9.91 9.91 0 0 0 1.66-14.53l-41.16-43.5-1.35 1 41.16 43.5a9.93 9.93 0 0 1-1 14z" fill="#bbc144"/><path d="M121.62 175.48a9.33 9.33 0 0 0 1.25-1.08 9.91 9.91 0 0 1-12.87-3.65l-29.17-52.32-2.66 1.94 29.17 52.32a9.9 9.9 0 0 0 14.28 2.79z" fill="#969b2c"/><circle cx="97.47" cy="155.8" r="3.09" fill="#bc1b21"/><path d="M99.3 158.3a3.17 3.17 0 0 0 .34-.3 3.08 3.08 0 0 1-3.6-4.93 2.55 2.55 0 0 0-.39.24 3.09 3.09 0 0 0 3.65 5z" fill="#96151f"/><circle cx="97.47" cy="155.8" r="1.67" fill="#cc2935"/><path d="m98.46 157.16.17-.15a1.67 1.67 0 0 1-1.95-2.68l-.19.12a1.68 1.68 0 1 0 2 2.71z" fill="#c11b30"/><path d="M72.6 122.39a13.14 13.14 0 0 1 4.81-7.4c3-2.3 7.57-3.62 8.51-2.33s-1.69 5.2-4.81 7.4a13.19 13.19 0 0 1-8.51 2.33z" fill="#ffb21a"/><path d="M85.24 113.15c.89 1.21-1.4 4.76-4.27 7l.14-.09c3.12-2.2 5.75-6.12 4.81-7.4s-5.48 0-8.51 2.33l-.14.1c3.01-2.09 7.09-3.15 7.97-1.94z" fill="#fdd224"/><path d="M81.11 120.06c.29-.21.58-.43.86-.66a13.07 13.07 0 0 1-8 2 13.27 13.27 0 0 1 4.36-7c-.31.2-.6.4-.88.62a13.14 13.14 0 0 0-4.81 7.4 13.19 13.19 0 0 0 8.47-2.36z" fill="#ff990b"/><path d="M75 117.59a6.78 6.78 0 0 1 2.2-2.59c1.22-.91 2.89-1.62 3.14-1.29s-.94 1.72-2.18 2.61a6.89 6.89 0 0 1-3.16 1.27z" fill="#484349"/><path fill="#7c7c21" d="m114.81 166.81-.7-.95 8.14-5.95.82.87-8.26 6.03zm-3.45-4.71-.7-.96 7.54-5.51.82.87-7.66 5.6zm-3.45-4.72-.7-.96 6.94-5.07.83.87-7.07 5.16zm-3.44-4.71-.7-.96 6.34-4.64.82.87-6.46 4.73zm-3.45-4.72-.7-.96 5.74-4.2.82.87-5.86 4.29zm-3.44-4.71-.71-.96 5.15-3.76.82.87-5.26 3.85zm-3.45-4.72-.7-.96 4.54-3.32.82.87-4.66 3.41zm-3.45-4.71-.7-.96 3.94-2.89.83.87-4.07 2.98zm-3.45-4.72-.7-.96 3.35-2.44.82.87-3.47 2.53zm-3.44-4.72-.7-.95 2.75-2.01.82.87-2.87 2.09z"/><circle cx="118.34" cy="154.19" r="3.09" fill="#bc1b21"/><path d="M120.17 156.68a3.24 3.24 0 0 0 .34-.29 3.09 3.09 0 0 1-3.6-4.94 2.55 2.55 0 0 0-.39.24 3.09 3.09 0 0 0 3.65 5z" fill="#96151f"/><circle cx="118.34" cy="154.19" r="1.67" fill="#cc2935"/><path d="m119.33 155.54.17-.15a1.67 1.67 0 0 1-2-2.67.76.76 0 0 0-.19.12 1.67 1.67 0 1 0 2 2.7z" fill="#c11b30"/><circle cx="93.87" cy="129.82" r="3.09" fill="#bc1b21"/><path d="M95.7 132.31c.12-.09.23-.19.34-.29a3.09 3.09 0 0 1-3.6-4.94 2.55 2.55 0 0 0-.39.24 3.09 3.09 0 0 0 3.65 5z" fill="#96151f"/><circle cx="93.87" cy="129.82" r="1.67" fill="#cc2935"/><path d="M94.86 131.17 95 131a1.67 1.67 0 0 1-2-2.67.76.76 0 0 0-.19.12 1.67 1.67 0 1 0 2 2.7z" fill="#c11b30"/><path d="M31.05 173.35c.15-.21.3-.43.44-.66l29.16-52.32-3.95-2.88-3.7 3.92-.82.87-3.18 3.41-.83.87L44.9 130l-.83.87-3.22 3.41-.82.87-3.22 3.41-.82.87-3.23 3.41-.82.87-3.23 3.4-.82.87-3.22 3.41-.82.87-3.22 3.41-.83.87-3.22 3.41-.82.87-.21.22a9.92 9.92 0 1 0 15.5 12.35z" fill="#a3af31"/><path d="M17.9 176c-.24-.15-.47-.3-.7-.47A9.91 9.91 0 0 1 15.55 161l41.15-43.5 1.35 1L16.9 162a9.92 9.92 0 0 0 1 14z" fill="#bbc144"/><path d="M17.2 175.48a10 10 0 0 1-1.2-1.08 9.93 9.93 0 0 0 12.88-3.65L58 118.43l2.66 1.94-29.17 52.32a9.91 9.91 0 0 1-14.29 2.79z" fill="#969b2c"/><circle cx="41.35" cy="155.8" r="3.09" fill="#bc1b21"/><path d="M39.53 158.3a2.52 2.52 0 0 1-.35-.3 3.09 3.09 0 0 0 3.61-4.93 4.11 4.11 0 0 1 .39.24 3.09 3.09 0 1 1-3.65 5z" fill="#96151f"/><circle cx="41.35" cy="155.8" r="1.67" fill="#cc2935"/><path d="m40.37 157.16-.18-.15a1.68 1.68 0 0 0 2-2.68l.19.12a1.68 1.68 0 0 1-2 2.71z" fill="#c11b30"/><path d="M66.22 122.39a13.11 13.11 0 0 0-4.8-7.4c-3-2.3-7.57-3.62-8.51-2.33s1.69 5.2 4.8 7.4a13.2 13.2 0 0 0 8.51 2.33z" fill="#ffb21a"/><path d="M53.58 113.15c-.88 1.21 1.4 4.76 4.27 7l-.14-.09c-3.11-2.2-5.74-6.12-4.8-7.4s5.47 0 8.51 2.33l.13.1c-3-2.09-7.08-3.15-7.97-1.94z" fill="#fdd224"/><path d="M57.71 120.06c-.29-.21-.57-.43-.85-.66a13 13 0 0 0 8 2 13.16 13.16 0 0 0-4.35-7c.3.2.6.4.88.62a13.11 13.11 0 0 1 4.8 7.4 13.2 13.2 0 0 1-8.48-2.36z" fill="#ff990b"/><path d="M63.81 117.59a7 7 0 0 0-2.18-2.6c-1.22-.91-2.9-1.62-3.14-1.29s.94 1.72 2.18 2.61a6.81 6.81 0 0 0 3.14 1.28z" fill="#484349"/><path fill="#7c7c21" d="m24.02 166.81.7-.95-8.14-5.95-.82.87 8.26 6.03zm3.45-4.71.7-.96-7.54-5.51-.83.87 7.67 5.6zm3.44-4.72.7-.96-6.94-5.07-.82.87 7.06 5.16zm3.45-4.71.7-.96-6.35-4.64-.82.87 6.47 4.73zm3.44-4.72.71-.96-5.75-4.2-.82.87 5.86 4.29zm3.45-4.71.7-.96-5.14-3.76-.82.87 5.26 3.85zm3.45-4.72.7-.96-4.55-3.32-.82.87 4.67 3.41zm3.44-4.71.7-.96-3.94-2.89-.83.87 4.07 2.98zm3.45-4.72.7-.96-3.34-2.44-.83.87 3.47 2.53zm3.45-4.72.7-.95-2.75-2.01-.82.87 2.87 2.09z"/><circle cx="20.48" cy="154.19" r="3.09" fill="#bc1b21"/><path d="M18.66 156.68a3.37 3.37 0 0 1-.35-.29 3.09 3.09 0 0 0 3.61-4.94l.39.24a3.09 3.09 0 1 1-3.65 5z" fill="#96151f"/><circle cx="20.48" cy="154.19" r="1.67" fill="#cc2935"/><path d="m19.49 155.54-.17-.15a1.67 1.67 0 0 0 2-2.67 1 1 0 0 1 .19.12 1.67 1.67 0 0 1-2 2.7z" fill="#c11b30"/><circle cx="44.95" cy="129.82" r="3.09" fill="#bc1b21"/><path d="M43.13 132.31a3.37 3.37 0 0 1-.35-.29 3.09 3.09 0 0 0 3.61-4.94l.39.24a3.09 3.09 0 1 1-3.65 5z" fill="#96151f"/><circle cx="44.95" cy="129.82" r="1.67" fill="#cc2935"/><path d="m44 131.17-.18-.15a1.67 1.67 0 0 0 2-2.67 1 1 0 0 1 .19.12 1.67 1.67 0 0 1-2 2.7z" fill="#c11b30"/></svg>