<svg xmlns="http://www.w3.org/2000/svg" viewBox="0 0 138.83 215.65"><defs><clipPath id="a"><path fill="none" d="M-153 252h138.82v215.65H-153z"/></clipPath><clipPath id="b"><path fill="#fff" d="M6.5 259.52h126.17v201.67H6.5z"/></clipPath><clipPath id="c"><path fill="none" d="M6.5 259.52h126.17v201.67H6.5z"/></clipPath></defs><path fill="#fff" d="M0 0h138.82v215.65H0z"/><path fill="none" stroke="#7f664a" stroke-miterlimit="10" stroke-width=".5" d="M27.76 208.74H6.94V8.91h20.82m34.71 199.83H41.66m55.52 0H76.36M111.07 8.91h20.81v199.83h-20.81M76.36 8.91h20.82m-55.52 0h20.81"/><path d="M16.33 23.33H9.12v-.2a40 40 0 0 0 4-5.31 5.68 5.68 0 0 0 .71-2.67 2.2 2.2 0 0 0-.59-1.58 1.91 1.91 0 0 0-1.41-.57 2.36 2.36 0 0 0-2.16 1.39l-.34-.12a5 5 0 0 1 1.49-2.57 3.47 3.47 0 0 1 2.29-.83 3.39 3.39 0 0 1 1.7.44A3.16 3.16 0 0 1 16 12.44a2.88 2.88 0 0 1 .43 1.42 5.18 5.18 0 0 1-.66 2.44 23.24 23.24 0 0 1-4 4.66h2.65a6.44 6.44 0 0 0 1.27-.08 1.15 1.15 0 0 0 .48-.28 3.55 3.55 0 0 0 .5-.82H17zm112 180.33h-7.21v-.2a39.28 39.28 0 0 0 4-5.31 5.68 5.68 0 0 0 .71-2.67 2.17 2.17 0 0 0-.59-1.57 1.88 1.88 0 0 0-1.43-.63 2.36 2.36 0 0 0-2.16 1.39l-.34-.12a5 5 0 0 1 1.49-2.56 3.42 3.42 0 0 1 2.29-.83 3.38 3.38 0 0 1 1.7.43 3.19 3.19 0 0 1 1.2 1.19 2.82 2.82 0 0 1 .43 1.41 5.15 5.15 0 0 1-.66 2.44 23 23 0 0 1-4 4.66h2.65a5.72 5.72 0 0 0 1.27-.08 1 1 0 0 0 .48-.27 3.79 3.79 0 0 0 .5-.82h.34z" fill="#7f664a"/><path d="M79.85 153.94c0-.43 0-.87.06-1.31l12.23-99.22h8.17l1.14 8.93.25 2 1 7.77.26 2 1 7.76.26 2 1 7.76.25 2 1 7.77.25 2 1 7.77.25 2 1 7.77.25 2 1 7.76.26 2 1 7.76.26 2 1 7.78.26 2 .06.49A16.56 16.56 0 1 1 80 154.11z" fill="#a3af31"/><path d="M95 170.4c.46 0 .92.06 1.39.06a16.55 16.55 0 0 0 16.5-17.89L100.3 53.4h-2.79l12.61 99.17A16.55 16.55 0 0 1 95 170.4z" fill="#bbc144"/><path d="M96.41 170.46a16.55 16.55 0 0 0 2.75-.23 16.56 16.56 0 0 1-13.75-17.6L97.64 53.4h-5.5l-12.23 99.23a16.55 16.55 0 0 0 16.5 17.83z" fill="#969b2c"/><circle cx="83.25" cy="120.16" r="5.16" fill="#bc1b21"/><path d="M83.25 125.32a6.32 6.32 0 0 0 .76-.06 5.15 5.15 0 0 1 0-10.2 4.77 4.77 0 0 0-.76-.06 5.16 5.16 0 0 0 0 10.32z" fill="#96151f"/><circle cx="83.25" cy="120.16" r="2.79" fill="#cc2935"/><path d="M83.25 123a2.43 2.43 0 0 0 .38 0 2.79 2.79 0 0 1 0-5.53h-.38a2.8 2.8 0 0 0 0 5.59z" fill="#c11b30"/><path d="M82.65 50.63a22 22 0 0 1 13.76-5.24c6.36-.11 13.77 2.58 13.77 5.24s-7.41 5.37-13.77 5.24a22 22 0 0 1-13.76-5.24z" fill="#ffb21a"/><path d="M108.78 50.63c0 2.51-6.58 5-12.66 5.23h.29c6.36.11 13.77-2.58 13.77-5.24s-7.41-5.35-13.77-5.24h-.29c6.08.21 12.66 2.74 12.66 5.25z" fill="#fdd224"/><path d="M96.41 55.87h1.79a22 22 0 0 1-12.8-5.2 22 22 0 0 1 12.8-5.2h-1.79a22 22 0 0 0-13.76 5.24 22 22 0 0 0 13.76 5.16z" fill="#ff990b"/><path d="M90.62 46.55a11.47 11.47 0 0 1 5.5-1.36c2.54 0 5.5.67 5.5 1.36s-3 1.39-5.5 1.36a11.73 11.73 0 0 1-5.5-1.36z" fill="#484349"/><path fill="#7c7c21" d="M95.77 152.07v-1.98h16.82l.26 1.98H95.77zm0-9.76v-1.98h15.58l.26 1.98H95.77zm0-9.74v-1.99h14.34l.26 1.99h-14.6zm0-9.75v-1.98h13.11l.25 1.98H95.77zm0-9.75v-1.98h11.87l.25 1.98H95.77zm0-9.75v-1.98h10.63l.25 1.98H95.77zm0-9.75v-1.98h9.39l.25 1.98h-9.64zm0-9.74v-1.99h8.15l.25 1.99h-8.4zm0-9.75v-1.99h6.91l.26 1.99h-7.17zm0-9.76v-1.98h5.68l.24 1.98h-5.92z"/><circle cx="112.97" cy="138.53" r="5.16" fill="#bc1b21"/><path d="M113 143.69a4.56 4.56 0 0 0 .75-.06 5.16 5.16 0 0 1 0-10.2 6 6 0 0 0-.75-.06 5.16 5.16 0 0 0 0 10.32z" fill="#96151f"/><circle cx="112.97" cy="138.53" r="2.79" fill="#cc2935"/><path d="M113 141.33h.38a2.79 2.79 0 0 1 0-5.53 2.43 2.43 0 0 0-.38 0 2.8 2.8 0 0 0 0 5.59z" fill="#c11b30"/><circle cx="103.99" cy="81.59" r="5.16" fill="#bc1b21"/><path d="M104 86.75a4.77 4.77 0 0 0 .76-.06 5.15 5.15 0 0 1 0-10.2 6.32 6.32 0 0 0-.76-.06 5.16 5.16 0 1 0 0 10.32z" fill="#96151f"/><circle cx="103.99" cy="81.59" r="2.79" fill="#cc2935"/><path d="M104 84.38h.38a2.79 2.79 0 0 1 0-5.53 2.34 2.34 0 0 0-.38 0 2.79 2.79 0 1 0 0 5.58z" fill="#c11b30"/><path d="M59 61.71v1.31l-12.31 99.22h-8.17l-1.14-8.93-.25-2-1-7.77-.26-2-1-7.76-.26-2-1-7.76-.25-2-1-7.77-.25-2-1-7.77-.25-2-1-7.77-.25-2-1-7.76-.25-2-1-7.76-.25-2-1-7.78-.25-2-.06-.49A16.55 16.55 0 1 1 59 61.71z" fill="#a3af31"/><path d="M43.81 45.25c-.46 0-.93-.06-1.4-.06a16.55 16.55 0 0 0-16.5 17.89l12.61 99.17h2.79l-12.6-99.17a16.54 16.54 0 0 1 15.1-17.83z" fill="#bbc144"/><path d="M42.41 45.19a16.55 16.55 0 0 0-2.75.23A16.56 16.56 0 0 1 53.42 63l-12.23 99.25h5.5L58.92 63a16.56 16.56 0 0 0-16.51-17.81z" fill="#969b2c"/><circle cx="55.58" cy="95.49" r="5.16" fill="#bc1b21"/><path d="M55.58 90.33a6.32 6.32 0 0 0-.76.06 5.16 5.16 0 0 1 0 10.2 4.77 4.77 0 0 0 .76.06 5.16 5.16 0 0 0 0-10.32z" fill="#96151f"/><circle cx="55.58" cy="95.49" r="2.79" fill="#cc2935"/><path d="M55.58 92.7a2.34 2.34 0 0 0-.38 0 2.79 2.79 0 0 1 0 5.53h.38a2.8 2.8 0 0 0 0-5.59z" fill="#c11b30"/><path d="M56.17 165a21.93 21.93 0 0 1-13.76 5.24c-6.36.11-13.76-2.58-13.76-5.24s7.4-5.35 13.76-5.24A21.93 21.93 0 0 1 56.17 165z" fill="#ffb21a"/><path d="M30.05 165c0-2.51 6.57-5 12.65-5.23h-.29c-6.36-.11-13.76 2.58-13.76 5.24s7.4 5.35 13.76 5.24h.29c-6.08-.19-12.65-2.72-12.65-5.25z" fill="#fdd224"/><path d="M42.41 159.78h-1.79a22 22 0 0 1 12.8 5.2 22 22 0 0 1-12.8 5.2c.6 0 1.2.05 1.79 0A21.93 21.93 0 0 0 56.17 165a21.93 21.93 0 0 0-13.76-5.22z" fill="#ff990b"/><path d="M48.2 169.1a11.47 11.47 0 0 1-5.5 1.36c-2.54 0-5.5-.67-5.5-1.36s3-1.39 5.5-1.36a11.73 11.73 0 0 1 5.5 1.36z" fill="#484349"/><path fill="#7c7c21" d="M43.06 63.58v1.98H26.23l-.25-1.98h17.08zm0 9.75v1.99H27.47l-.25-1.99h15.84zm0 9.75v1.99H28.71l-.25-1.99h14.6zm0 9.75v1.98H29.95l-.25-1.98h13.36zm0 9.75v1.98H31.19l-.25-1.98h12.12zm0 9.75v1.98H32.43l-.25-1.98h10.88zm0 9.75v1.98h-9.39l-.25-1.98h9.64zm0 9.74v1.99h-8.15l-.26-1.99h8.41zm0 9.75v1.99h-6.91l-.26-1.99h7.17zm0 9.76v1.98h-5.68l-.25-1.98h5.93z"/><circle cx="25.86" cy="77.12" r="5.16" fill="#bc1b21"/><path d="M25.86 72a4.77 4.77 0 0 0-.76.06 5.15 5.15 0 0 1 0 10.2 6.32 6.32 0 0 0 .76.06 5.16 5.16 0 0 0 0-10.32z" fill="#96151f"/><circle cx="25.86" cy="77.12" r="2.79" fill="#cc2935"/><path d="M25.86 74.32h-.38a2.79 2.79 0 0 1 0 5.53 2.34 2.34 0 0 0 .38 0 2.8 2.8 0 0 0 0-5.59z" fill="#c11b30"/><circle cx="34.83" cy="134.06" r="5.16" fill="#bc1b21"/><path d="M34.83 128.9a4.65 4.65 0 0 0-.75.06 5.16 5.16 0 0 1 0 10.2 6.15 6.15 0 0 0 .75.06 5.16 5.16 0 1 0 0-10.32z" fill="#96151f"/><circle cx="34.83" cy="134.06" r="2.79" fill="#cc2935"/><path d="M34.83 131.27h-.38a2.79 2.79 0 0 1 0 5.53 2.43 2.43 0 0 0 .38 0 2.79 2.79 0 1 0 0-5.58z" fill="#c11b30"/><g clip-path="url(#a)"><path fill="none" d="M-310.04 134.82h410.49v414.22h-410.49z"/><path fill="#96151f" d="m-107.508 135.53.707-.706L87.024 328.649l-.707.707zm-6.75 6.747.707-.707L80.274 335.395l-.707.707zm-6.75 6.746.707-.708L73.524 342.141l-.707.707zm-6.75 6.756.707-.708L66.774 348.896l-.707.708zm-6.75 6.745.707-.707L60.024 355.642l-.707.707zm-6.75 6.746.707-.707L53.274 362.388l-.707.707zm-6.757 6.763.707-.707L46.517 369.151l-.707.707zm-6.753 6.753.707-.707L39.764 375.904l-.707.707zm-6.75 6.756.707-.707L33.014 382.66l-.707.707zm-6.75 6.746.707-.707L26.264 389.406l-.707.707zm-6.75 6.746.707-.707L19.514 396.152l-.707.707zm-6.75 6.756.707-.707L12.764 402.908l-.707.707zm35.136 4.943.354-.354L27.189 387.847l-.353.353zm6.75-6.746.354-.354L33.939 381.101l-.353.353zm6.743-6.763.354-.354L40.682 374.338l-.353.353zm6.75-6.746.354-.354L47.432 367.592l-.353.353zm6.757-6.763.354-.354 173.46 173.46-.353.354zm6.75-6.746.354-.354L60.939 354.083l-.353.353zm6.75-6.746.354-.354 173.46 173.46-.353.354zm6.75-6.756.354-.354L74.439 340.581l-.353.353zm-26.238 46.286.354-.354L77.928 416.594l-.353.353zm7.347-6.208.353-.354L85.274 410.385l-.353.354z"/><path fill="#96151f" d="m-118.273 207.545.353-.354L85.274 410.385l-.353.354z"/></g><path fill="#fff" d="M6.5 259.52h126.17v201.67H6.5z"/><g clip-path="url(#b)" fill="#fff"><path d="M-131.99 159.7H241.1v387.36h-373.09z"/><path d="M228.26 341.62 52.09 160.36l.64-.66L228.9 340.96l-.64.66zm-6.14 6.32L45.96 166.68l.64-.66 176.16 181.25-.64.67zm-6.13 6.31L39.82 172.99l.64-.66 176.17 181.26-.64.66zm-6.14 6.31L33.68 179.31l.65-.67L210.49 359.9l-.64.66zm-6.14 6.32L27.55 185.62l.64-.66 176.17 181.26-.65.66zm-6.13 6.31L21.41 191.93l.64-.66 176.17 181.26-.64.66zm-6.14 6.31L15.28 198.25l.64-.67 176.16 181.26-.64.66zm-6.13 6.32L9.14 204.56l.64-.66 176.17 181.26-.64.66zm-6.14 6.31L3 210.87l.65-.66 176.16 181.26-.64.66z"/><path d="m-106.8 366.88-.65-.66L68.72 184.96l.64.66-176.16 181.26zm6.13 6.31-.64-.66L74.86 191.27l.64.66-176.17 181.26zm6.14 6.31-.64-.66L80.99 197.58l.65.67L-94.53 379.5zm6.14 6.32-.65-.66L87.13 203.9l.64.66-176.16 181.26zm6.13 6.31-.64-.66L93.26 210.21l.65.66-176.17 181.26zm-17.18-17.88-.32-.33L69.47 199.79l.33.33-169.24 174.13zm6.13 6.31-.32-.33L75.61 206.1l.32.33-169.24 174.13zm6.14 6.31-.32-.33L81.75 212.41l.32.33-169.24 174.13z"/><path d="M192.59 377.71 34.93 215.49l.33-.33 157.65 162.22-.32.33zm6.14-6.31L41.07 209.18l.32-.33 157.66 162.21-.32.34zm6.13-6.32L47.21 202.87l.32-.33 157.66 162.21-.33.33zm6.14-6.31L53.34 196.55l.32-.33 157.66 162.22-.32.33zm6.14-6.31L59.48 190.24l.32-.33 157.66 162.22-.32.33z"/><path d="m-72.71 378.94-.33-.33L85.51 215.47l.32.34-158.54 163.13zm-6.05-6.22-.32-.34L79.47 209.25l.32.33-158.55 163.14z"/></g><g clip-path="url(#c)"><path fill="none" d="M-136.23 149.94h373.09V537.3h-373.09z"/><path fill="#96151f" d="M224.02 331.86 47.85 150.6l.64-.66 176.17 181.25-.64.67zm-6.14 6.31L41.72 156.91l.64-.66 176.16 181.26-.64.66zm-6.14 6.31L35.58 163.22l.64-.66 176.17 181.26-.65.66zm-6.13 6.32L29.44 169.54l.65-.66 176.16 181.26-.64.66zm-6.14 6.31L23.31 175.85l.64-.66 176.17 181.26-.65.66zm-6.13 6.31L17.17 182.16l.64-.66 176.17 181.26-.64.66zm-6.14 6.32L11.03 188.48l.65-.66 176.16 181.26-.64.66zm-6.14 6.31L4.9 194.79l.64-.66 176.17 181.26-.65.66zm-6.13 6.32L-1.24 201.11l.65-.67L175.57 381.7l-.64.67zm-6.14 6.31L-7.37 207.42l.64-.66 176.16 181.26-.64.66zm-6.13 6.31L-13.51 213.73l.64-.66L163.3 394.33l-.64.66z"/><path fill="#96151f" d="m-111.05 357.11-.64-.66L64.48 175.19l.64.66-176.17 181.26zm6.14 6.31-.64-.66L70.61 181.5l.65.66-176.17 181.26zm6.14 6.32-.65-.66L76.75 187.82l.64.66-176.16 181.26zm6.13 6.31-.64-.66L82.89 194.13l.64.66-176.17 181.26zm6.14 6.32-.64-.67L89.02 200.44l.65.67L-86.5 382.37zm6.14 6.31-.65-.66L95.16 206.76l.64.66-176.16 181.26zm6.13 6.31-.64-.66L101.3 213.07l.64.66-176.17 181.26zm-29.45-30.51-.32-.33L65.23 190.02l.32.33-169.23 174.13zm6.13 6.31-.32-.33L71.37 196.33l.32.33-169.24 174.13zm6.14 6.32-.32-.33L77.5 202.65l.33.33-169.24 174.13zm6.13 6.31-.32-.33L83.64 208.96l.32.33-169.24 174.13zm6.14 6.32-.32-.34L89.78 215.27l.32.33-169.24 174.14z"/><path fill="#96151f" d="M182.22 374.26 24.56 212.04l.32-.33 157.66 162.22-.32.33zm6.13-6.32L30.69 205.73l.32-.33 157.66 162.21-.32.33zm6.14-6.31L36.83 199.41l.32-.33L194.81 361.3l-.32.33zm6.13-6.31L42.97 193.1l.32-.33 157.65 162.22-.32.33zm6.14-6.32L49.1 186.79l.32-.33 157.66 162.21-.32.33zm6.14-6.31L55.24 180.47l.32-.33 157.66 162.22-.32.33z"/><path fill="#96151f" d="m-70.64 375.59-.33-.33L87.58 212.13l.33.33-158.55 163.13zm-6.32-6.42-.32-.33L81.27 205.71l.32.33-158.55 163.13zm-6.04-6.22-.32-.33L75.22 199.49l.33.33L-83 362.95z"/></g></svg>