<svg xmlns="http://www.w3.org/2000/svg" viewBox="0 0 138.83 215.65"><path fill="#fff" d="M0 0h138.82v215.65H0z"/><path fill="none" stroke="#7f664a" stroke-miterlimit="10" stroke-width=".5" d="M27.76 208.74H6.94V8.91h20.82m34.71 199.83H41.66m55.52 0H76.36M111.07 8.91h20.81v199.83h-20.81M76.36 8.91h20.82m-55.52 0h20.81"/><path d="M14.69 10.82v10a5.89 5.89 0 0 0 .1 1.44.94.94 0 0 0 .42.51 1.87 1.87 0 0 0 1 .2h.28v.34h-6.44V23h.32a2.5 2.5 0 0 0 1.12-.18.91.91 0 0 0 .46-.49 6.16 6.16 0 0 0 .11-1.48v-6.36a3.79 3.79 0 0 0-.06-1.06.73.73 0 0 0-.3-.36.9.9 0 0 0-.51-.15 2.94 2.94 0 0 0-1.12.29l-.16-.33 4.5-2.06zm11.8 6.38a11.2 11.2 0 0 1-.49 3.43 4.59 4.59 0 0 1-.83 1.59 4.07 4.07 0 0 1-1.18 1 2.86 2.86 0 0 1-1.44.37 3 3 0 0 1-1.6-.45 4.32 4.32 0 0 1-1.26-1.29A6.2 6.2 0 0 1 19 20.2a10.42 10.42 0 0 1-.38-2.85 11.3 11.3 0 0 1 .56-3.67 4.28 4.28 0 0 1 1.4-2.12 3.15 3.15 0 0 1 2-.74 3.22 3.22 0 0 1 2 .73 4.2 4.2 0 0 1 1.35 2 10.66 10.66 0 0 1 .56 3.65zm-2.78 0v-3.75a3.32 3.32 0 0 0-.43-1.69.86.86 0 0 0-.73-.29.88.88 0 0 0-.62.21 2 2 0 0 0-.45 1.12q-.12.8-.12 5.58a21.49 21.49 0 0 0 .18 3.49 1.53 1.53 0 0 0 .39.85 1 1 0 0 0 .67.22.82.82 0 0 0 .68-.29 2.85 2.85 0 0 0 .43-1.56zM118 191.16v10a6.86 6.86 0 0 0 .09 1.44 1 1 0 0 0 .42.51 2 2 0 0 0 1 .2h.28v.33h-6.45v-.33h.33a2.56 2.56 0 0 0 1.12-.18 1 1 0 0 0 .45-.5 5.36 5.36 0 0 0 .12-1.47v-6.36a3.64 3.64 0 0 0-.09-1.06.73.73 0 0 0-.3-.36.9.9 0 0 0-.51-.15 2.94 2.94 0 0 0-1.12.29l-.16-.32 4.51-2.06zm11.82 6.38a11.14 11.14 0 0 1-.51 3.42 4.73 4.73 0 0 1-.83 1.6 4.27 4.27 0 0 1-1.18 1 3 3 0 0 1-3-.09 4.23 4.23 0 0 1-1.27-1.29 6.57 6.57 0 0 1-.69-1.64 10.43 10.43 0 0 1-.39-2.85 11.62 11.62 0 0 1 .56-3.67 4.35 4.35 0 0 1 1.4-2.12 3.09 3.09 0 0 1 4 0 4.21 4.21 0 0 1 1.36 2 11 11 0 0 1 .55 3.64zm-2.78 0v-3.75a3.33 3.33 0 0 0-.43-1.7.87.87 0 0 0-.73-.29.86.86 0 0 0-.62.22 1.92 1.92 0 0 0-.45 1.11c-.07.54-.11 2.4-.11 5.58a21.4 21.4 0 0 0 .18 3.49 1.64 1.64 0 0 0 .38.86 1 1 0 0 0 .67.21.78.78 0 0 0 .68-.29 2.79 2.79 0 0 0 .43-1.56z" fill="#7f664a"/><path d="M36.25 28.58a4.47 4.47 0 0 0-2.51 1.84 2.42 2.42 0 0 0 .31 2.93c1.53 1.36 4.39-.25 5.84 1.2a9 9 0 0 1 .93 1.45 3 3 0 0 0 3 1.21c1.31-.27 2.49-1.42 3.79-1.1 1.7.4 2.17 3 3.89 3.34 1 .19 2-.49 3-.17 1.38.45 1.59 2.55 2.94 3.06 1.54.59 3-1.34 4.68-1.12.9.12 1.58.87 2.43 1.2 1.88.75 4.08-1 4.39-3a2.86 2.86 0 0 0-1.31-3c-1.07-.51-2.47-.05-3.44-.74A4.12 4.12 0 0 1 63 33.31a7.51 7.51 0 0 0-3.33-4.49 5.1 5.1 0 0 0-5.42.18c-.59.44-1.12 1.06-1.86 1.14-1.36.15-2.16-1.59-3.46-2-1.13-.38-2.3.3-3.4.78-1.53.67-2.74.17-4.21-.28a8.3 8.3 0 0 0-5.07-.06z" fill="#a3af31"/><path d="M36.25 31.83a8.3 8.3 0 0 1 5.1 0c1.47.45 2.68 1 4.21.28 1.1-.48 2.27-1.16 3.4-.78 1.3.44 2.1 2.18 3.46 2 .74-.08 1.27-.7 1.86-1.14a5.1 5.1 0 0 1 5.42-.18 7.51 7.51 0 0 1 3.3 4.55A4.12 4.12 0 0 0 64.21 39c1 .69 2.37.23 3.44.74a2.2 2.2 0 0 1 .93.88 3.4 3.4 0 0 0 .42-1.15 2.86 2.86 0 0 0-1.31-3c-1.07-.51-2.47-.05-3.44-.74A4.12 4.12 0 0 1 63 33.31a7.51 7.51 0 0 0-3.33-4.49 5.1 5.1 0 0 0-5.42.18c-.59.44-1.12 1.06-1.86 1.14-1.36.15-2.16-1.59-3.46-2-1.13-.38-2.3.3-3.4.78-1.53.67-2.74.17-4.21-.28a8.3 8.3 0 0 0-5.1 0 4.47 4.47 0 0 0-2.51 1.84 2.41 2.41 0 0 0 .29 2.83 4.68 4.68 0 0 1 2.25-1.48z" fill="#969b2c"/><path d="M82.16 84.77s3 5.67 4.17 8.67-6.5 15.67-6.5 15.67l1.83 6s10.5-11.5 10.67-21.17-6.34-13-6.34-13-4.66 1.17-3.83 3.83z" fill="#63abe5"/><path d="M86 80.94a9.93 9.93 0 0 0-1.6.59c1.78 1.32 5.57 5 5.44 12.41-.12 7.1-5.82 15.19-8.84 19l.67 2.19s10.5-11.5 10.67-21.17S86 80.94 86 80.94z" fill="#3790b7"/><circle cx="83.37" cy="81.34" r="7.2" fill="#bc1b21"/><path d="M83.37 74.15h-.6a3.62 3.62 0 0 0-.66.09 7 7 0 0 0-2.47.94h.85a7.19 7.19 0 0 1 7.2 7.19 7.08 7.08 0 0 1-.69 3.12 5.59 5.59 0 0 1-.47.82 7.06 7.06 0 0 1-2.28 2.17 6.45 6.45 0 0 0 1.08-.21 4 4 0 0 0 .49-.15 7.15 7.15 0 0 0 3.59-2.81 5.59 5.59 0 0 0 .47-.82 7.08 7.08 0 0 0 .73-3.15 7.19 7.19 0 0 0-7.24-7.19z" fill="#96151f"/><path d="M89.84 84.49a5.59 5.59 0 0 1-.47.82 20.54 20.54 0 0 0-7.26-11 3.62 3.62 0 0 1 .66-.09 12.72 12.72 0 0 1 7.07 10.27zm-4.06 3.63a4 4 0 0 1-.49.15 20.46 20.46 0 0 0-7.53-11.41 1.64 1.64 0 0 1 .21-.25 12.87 12.87 0 0 1 7.81 11.51z" fill="#63abe5"/><path d="M62.35 135.56c0 2.38 0 4.84.11 7.37.22 5.44.72 10.52 1.38 15.21l4.22 7.2 3.28-6.41.66-24.36z" fill="#bc1b21"/><path d="M69.65 134.81 69 158.93q-1.08 2.13-2.17 4.24l1.27 2.17 3.28-6.41.62-24.36z" fill="#96151f"/><path d="M64.83 175s-.24 5.46-2.72 7-4.22 2.23-5.71 2.23-1.74 7.94 11.66-.25l1.24.75 2.48-.5s.75-5 .25-6.7 1.24-15.63 1.49-19.6c0 0-7.44.5-11.41-.74 0-.04 2.23 12.12 2.72 17.81z" fill="#68442e"/><path d="M66.44 183.94c-3.93 2.4-6.67 3.41-8.57 3.65 1.71.27 4.63-.38 9.37-3.16zM69.26 158a28 28 0 0 1-7.15-.83s0 .14.07.4a40.77 40.77 0 0 0 7.08.43zm4.26-.11s-.64 0-1.63.07c-.26 4.06-2 17.81-1.48 19.53s-.25 6.7-.25 6.7l-1.27.25.41.25 2.48-.5s.75-5 .25-6.7 1.24-15.63 1.49-19.6z" fill="#5b352d"/><path d="M83.1 133.52a66.33 66.33 0 0 1-.87 22.76q-2 3.47-4.06 6.93c-1-2.13-2-4.27-3-6.4l-.86-23.22z" fill="#bc1b21"/><path d="M83.1 133.52h-2.25a65.57 65.57 0 0 1 .49 12.64A66.51 66.51 0 0 1 80 156.28l-2.8 4.78 1 2.15q2-3.47 4.06-6.93a66.33 66.33 0 0 0 .87-22.76z" fill="#96151f"/><path d="M81.65 173.53s.24 5.25 2.62 6.68 4.06 2.15 5.5 2.15 1.67 7.65-11.23-.24l-1.19.72-2.35-.48s-.72-4.77-.24-6.45-1.19-15-1.43-18.86c0 0 7.16.47 11-.72-.06 0-2.21 11.67-2.68 17.2z" fill="#68442e"/><path d="M75.58 157.13c-1.36 0-2.29-.08-2.29-.08v.07c.71.02 1.44.03 2.29.01zm14.19 25.23c-1.44 0-3.11-.71-5.5-2.15s-2.62-6.68-2.62-6.68c.47-5.5 2.62-17.2 2.62-17.2a14.28 14.28 0 0 1-2.08.45c-.4 2.2-2.12 11.89-2.54 16.75 0 0 .24 5.25 2.62 6.68s4.06 2.15 5.5 2.15c.85 0 1.28 2.71-1.23 3.24 4.67.73 4.26-3.24 3.23-3.24zm-13.23-.24-.69.42 1.5.3.2-.12c-.33-.19-.66-.38-1.01-.6z" fill="#5b352d"/><path d="M89.4 134.06c-22.08 11.71-35 1.56-35 1.56l.86-3.11 4.5-16.24 1.34-4.85 1.61-.28 1.67-.3 18.38-3.29h.18v.12l1.62 6.7 4.14 17z" fill="#3d3635"/><path d="m88.74 131.36-4.14-17-1.6-6.72v-.12h-.18l-4 .71 1.47 6.08 4.14 17 .66 2.7a45.06 45.06 0 0 1-18.18 5.56c5.74.39 13.33-.69 22.51-5.56z" fill="#2d2726"/><path d="M79.31 47.73a18.37 18.37 0 0 1 2.17 8.85c0 3.53-1.33 6-2.38 9.22-.5 1.56-1.17 1.62.29 2.78 1.22 1 3.68.76 5 .23a6.35 6.35 0 0 0 3.91-6 4.93 4.93 0 0 0-.44-1.89 9.77 9.77 0 0 0-1-1.61 24.29 24.29 0 0 1-4.48-12.36" fill="#593927"/><path d="M89.4 134.32c-22.08 11.17-35 1.49-35 1.49l.86-3c4.69 1.77 14.63 3.45 33.47-1.1z" fill="#f8a201"/><path d="M82.77 107.56v.16q-.22 1.36-.54 2.79l-13.34 1.76-3.28.43-2.23.29s-.26-.66-.63-1.85c0-.09-.07-.19-.1-.29-1.38-4.4-4.19-15-3.24-26.15l.71-5.7a3.16 3.16 0 0 1 1.37-2.35 5.87 5.87 0 0 1 2.5-1 11 11 0 0 1 1.84-.14c4.49 0 8.81-1.25 11.27-.81a3 3 0 0 1 .57.16 1.31 1.31 0 0 1 .77.63c.08.16.17.36.27.59 1.09 2.53 3 8.61 3 8.61a52.09 52.09 0 0 1 1.06 22.87z" fill="#3d3635"/><path d="M81.71 84.7s-1.91-6.08-3-8.61c-.1-.23-.19-.43-.27-.59a1.31 1.31 0 0 0-.77-.63 3 3 0 0 0-.57-.16 14.33 14.33 0 0 0-3.91.12h.15a1.31 1.31 0 0 1 .77.63c.08.16.17.36.27.59 1.09 2.53 3 8.61 3 8.61a52.09 52.09 0 0 1 1.06 22.86v.16q-.22 1.36-.54 2.79l-13.34 1.76-1.38.18.2.54 2.23-.29 3.28-.43 13.34-1.76q.31-1.42.54-2.79v-.16a52.09 52.09 0 0 0-1.06-22.82z" fill="#2d2726"/><path fill="#f9c18a" d="M64.83 70.8V77l10.18-.49-.5-8.93-9.68 3.22z"/><path fill="#ef9e62" d="m74.51 67.58-3.27 1.09.43 7.84-6.84.33V77l10.18-.49-.5-8.93z"/><path d="M75.09 79.23s5 17.37 2 34.74l3.72-.75s1.74-25.55-4-36.22zm-5.67 33.03-3.28.43c-1.89-9-3.93-23.37-1.11-34.21h3s-2.34 10.64 1.39 33.78z" fill="#f8a201"/><path d="M84.6 114.34a44.33 44.33 0 0 1-24.83 1.93l1.34-4.85 1.61-.28-.1-.3h1.77a63.54 63.54 0 0 0 18.35-3.13l.24-.07z" fill="#bc1b21"/><path d="M80.1 115.34c-1 .41-2.29.84-3.71 1.25a40 40 0 0 0 8.21-2.25l-1.6-6.7-.24.07c-1.44.47-2.83.85-4.2 1.2zM61 111.8a62.71 62.71 0 0 0 13.41-2 61.45 61.45 0 0 1-10 1h-1.79l.1.3-1.61.28z" fill="#96151f"/><ellipse cx="68.92" cy="56.98" rx="12.92" ry="15.68" fill="#f9c18a"/><path d="M68.92 41.3a10.59 10.59 0 0 0-1.5.12c6.43.9 11.42 7.52 11.42 15.56s-5 14.66-11.42 15.57a10.59 10.59 0 0 0 1.5.11c7.13 0 12.92-7 12.92-15.68S76.05 41.3 68.92 41.3z" fill="#ef9e62"/><path d="M53.74 58.71c-1.26 3.4-3.05 6.71-3.16 10.32-.06 2.25.76 4.76 2.8 5.71s4.69-.16 6.09-2 1.86-4.21 2.22-6.49a112.81 112.81 0 0 0 1.24-12.16c.11-2.29.12-4.73-1.07-6.7-1.38-2.29-4.89-3.46-5.93-.79-.62 1.59-.24 4.27-.54 6a35.7 35.7 0 0 1-1.65 6.11z" fill="#68442e"/><path d="M61.86 47.38c-1-1.74-3.34-2.83-4.83-2.07a5.09 5.09 0 0 1 2.5 2.07c1.18 2 1.18 4.41 1.07 6.7a112.81 112.81 0 0 1-1.24 12.16 14.25 14.25 0 0 1-2.22 6.49 6.11 6.11 0 0 1-3.24 2.18 5.44 5.44 0 0 0 5.57-2.18c1.4-1.84 1.86-4.21 2.22-6.49a112.81 112.81 0 0 0 1.24-12.16c.07-2.29.12-4.73-1.07-6.7z" fill="#593927"/><circle cx="55.9" cy="84.18" r="8.19" fill="#bc1b21"/><path d="M49.7 103.45a19.64 19.64 0 0 0 .46 5.83 6.62 6.62 0 0 0 3.34 4.36 6.31 6.31 0 0 0 3 .42 12.85 12.85 0 0 0 5.6-1.66 5.09 5.09 0 0 0 1.7-1.4 7.18 7.18 0 0 0 .85-4.23 2.28 2.28 0 0 0-.35-1.45 1.76 1.76 0 0 0-1.6-.32l-3.76.37a1 1 0 0 1-.94-.24 1.2 1.2 0 0 1-.2-.62c-.55-4.52.05-9.09.39-13.64a4.6 4.6 0 0 0-.19-2.29 2.82 2.82 0 0 0-3.38-1.17C48.9 89 49.85 98.59 49.7 103.45z" fill="#63abe5"/><path d="M64.28 105.32a1.76 1.76 0 0 0-1.58-.32l-3.76.37a1 1 0 0 1-.94-.24 1.2 1.2 0 0 1-.2-.62c-.55-4.52.05-9.09.39-13.64a4.6 4.6 0 0 0-.19-2.29 2.82 2.82 0 0 0-3.38-1.17 5.2 5.2 0 0 0-3.1 2.43 5 5 0 0 1 1.18-.51A2.81 2.81 0 0 1 56 90.5a4.6 4.6 0 0 1 .23 2.25c-.33 4.54-.93 9.12-.39 13.63a1.34 1.34 0 0 0 .2.63 1 1 0 0 0 1 .23l3.76-.37a1.78 1.78 0 0 1 1.57.37 2.15 2.15 0 0 1 .35 1.45 8.64 8.64 0 0 1-.52 3.64 4.74 4.74 0 0 0 1.58-1.33 7.18 7.18 0 0 0 .85-4.23 2.28 2.28 0 0 0-.35-1.45z" fill="#3790b7"/><path d="M46.14 49.92c.15.23.29.48.42.73l27.93 58.08-4.43 2.85-3.73-4.45-.83-1-3.24-3.87-.83-1-3.23-3.85-.84-1-3.23-3.86-.83-1-3.24-3.85-.83-1L46 82.84l-.82-1L41.92 78l-.82-1-3.24-3.87-.83-1-3.24-3.87-.83-1-3.24-3.88-.83-1-.2-.25a10.67 10.67 0 1 1 17.45-12.21z" fill="#a3af31"/><path d="M32.18 46.27q-.39.21-.78.45a10.68 10.68 0 0 0-2.72 15.46l41.38 49.4 1.51-1L30.2 61.21a10.67 10.67 0 0 1 1.98-14.94z" fill="#bbc144"/><path d="M31.4 46.72a10.17 10.17 0 0 0-1.4 1.09 10.66 10.66 0 0 1 13.59 4.76l27.93 58.08 3-1.92-27.96-58.08a10.67 10.67 0 0 0-15.16-3.93z" fill="#969b2c"/><circle cx="56.06" cy="69.43" r="3.33" fill="#bc1b21"/><path d="M54.26 66.63a2.79 2.79 0 0 0-.38.3 3.32 3.32 0 0 1 3.55 5.53 4.5 4.5 0 0 0 .43-.23 3.33 3.33 0 0 0-3.6-5.6z" fill="#96151f"/><circle cx="56.06" cy="69.43" r="1.8" fill="#cc2935"/><path d="m55.09 67.91-.2.15a1.8 1.8 0 0 1 1.93 3 1.13 1.13 0 0 0 .21-.12 1.8 1.8 0 1 0-1.94-3z" fill="#c11b30"/><path d="M80.6 106.93a14.12 14.12 0 0 1-5.6 7.64c-3.41 2.27-8.36 3.4-9.29 2s2.16-5.48 5.64-7.64a14.24 14.24 0 0 1 9.25-2z" fill="#ffb21a"/><path d="M66.43 116c-.88-1.37 1.81-5 5-7.25l-.16.09c-3.48 2.16-6.57 6.2-5.64 7.64s5.88.32 9.29-2l.16-.1c-3.33 2.1-7.78 3.02-8.65 1.62z" fill="#fdd224"/><path d="M71.31 108.88c-.32.2-.64.42-1 .65a14.21 14.21 0 0 1 8.76-1.64 14.13 14.13 0 0 1-5.07 7.28c.34-.19.67-.39 1-.6a14.12 14.12 0 0 0 5.64-7.64 14.24 14.24 0 0 0-9.33 1.95z" fill="#ff990b"/><path d="M77.7 111.93a7.59 7.59 0 0 1-2.51 2.65c-1.37.9-3.22 1.55-3.46 1.18s1.12-1.79 2.51-2.66a7.52 7.52 0 0 1 3.46-1.17z" fill="#484349"/><path fill="#7c7c21" d="m38.16 56.48.69 1.07-9.13 5.86-.83-.98 9.27-5.95zm3.4 5.29.69 1.07-8.46 5.43-.83-.98 8.6-5.52zm3.39 5.28.69 1.08-7.78 5-.83-.99 7.92-5.09zm3.4 5.29.69 1.08-7.12 4.57-.82-.99 7.25-4.66zm3.39 5.29.69 1.08-6.44 4.13-.82-.98 6.57-4.23zm3.4 5.29.69 1.07-5.77 3.71-.83-.99 5.91-3.79zm3.39 5.29.69 1.07-5.09 3.28-.83-.99 5.23-3.36zm3.4 5.29.69 1.07-4.42 2.84-.84-.99 4.57-2.92zm3.39 5.28.69 1.08-3.75 2.41-.83-.99 3.89-2.5zm3.4 5.29.69 1.08-3.08 1.98-.83-.99 3.22-2.07z"/><circle cx="33.54" cy="69.81" r="3.33" fill="#bc1b21"/><path d="M31.74 67a3.68 3.68 0 0 0-.39.3 3.32 3.32 0 0 1 3.56 5.53 4.5 4.5 0 0 0 .43-.23 3.33 3.33 0 1 0-3.6-5.6z" fill="#96151f"/><circle cx="33.54" cy="69.81" r="1.8" fill="#cc2935"/><path d="m32.57 68.3-.2.14a1.8 1.8 0 0 1 1.93 3l.21-.11a1.8 1.8 0 1 0-1.94-3z" fill="#c11b30"/><circle cx="58.24" cy="97.57" r="3.33" fill="#bc1b21"/><path d="M56.44 94.77a2.79 2.79 0 0 0-.38.3 3.32 3.32 0 0 1 3.55 5.53 3 3 0 0 0 .43-.23 3.33 3.33 0 0 0-3.6-5.6z" fill="#96151f"/><circle cx="58.24" cy="97.57" r="1.8" fill="#cc2935"/><path d="M57.27 96.06a1.3 1.3 0 0 0-.2.15 1.79 1.79 0 0 1 1.93 3l.21-.11a1.8 1.8 0 1 0-1.94-3z" fill="#c11b30"/><ellipse cx="67.32" cy="107.65" rx="3.97" ry="5.83" fill="#f9c18a"/><path d="M67.32 101.82a2.91 2.91 0 0 0-1.09.22c1.67.7 2.89 2.94 2.89 5.61s-1.22 4.91-2.89 5.6a2.73 2.73 0 0 0 1.09.23c2.19 0 4-2.61 4-5.83s-1.81-5.83-4-5.83z" fill="#ef9e62"/><path d="M81.05 50.07a23.19 23.19 0 0 0-21.14 0l-2-4.69 4.07-3 5-1.1 7.67 1.1L77 43.65l3.14 2.2z" fill="#68442e"/><path d="M52.43 50.82A3 3 0 0 1 51 47.59c.41-1.26 1.79-1.85 2.94-2.51 2.91-1.68 4.88-4.57 7.2-7s5.49-4.58 8.81-4c4 .64 6.57 4.82 10.48 5.74 1.2.28 2.56.27 3.51 1.06a5.07 5.07 0 0 1 1.38 2.72c.44 1.61.81 3.56-.35 4.77a3.53 3.53 0 0 1-3.74.52 19.53 19.53 0 0 1-3.41-2.05 15 15 0 0 0-18 1.94c-2.46 2.35-3.92 4.22-7.39 2.04z" fill="#f8a201"/><path d="M85.31 43.55a5.07 5.07 0 0 0-1.38-2.72c-1-.79-2.31-.78-3.51-1.06-3.91-.92-6.51-5.1-10.48-5.74a7.26 7.26 0 0 0-3.58.39c3.21 1.24 5.64 4.58 9.06 5.35 1.2.28 2.56.27 3.51 1.06a5.07 5.07 0 0 1 1.38 2.72c.43 1.58.78 3.48-.29 4.69a6.72 6.72 0 0 0 1.2.6 3.53 3.53 0 0 0 3.78-.52c1.12-1.21.75-3.16.31-4.77z" fill="#f48b0c"/><path d="M69.38 76.68s3.94.19 5.63-2c0 0 2.65-.16 3.06.63s-4.25 3.25-8.94 3-6.37-2.38-6.37-2.38a1.9 1.9 0 0 1 2.06-.87s2.37 1.94 4.56 1.62z" fill="#3d3635"/><path d="M78.71 76.09c-8.17 8.59-17.22 2.09-17.22.55 0-.51 2-1.35 2-1.35a5.71 5.71 0 0 0 .52.38c5.44 3.88 11.18.93 13.68-.79a1.31 1.31 0 0 1 .77.63c.06.15.15.35.25.58z" fill="#f8a201"/></svg>