<svg xmlns="http://www.w3.org/2000/svg" viewBox="0 0 138.83 215.65"><defs><clipPath id="a"><path fill="none" d="M3.11 252h138.82v215.65H3.11z"/></clipPath><clipPath id="b"><path fill="#fff" d="M162.61 259.52h126.17v201.67H162.61z"/></clipPath><clipPath id="c"><path fill="none" d="M162.61 259.52h126.17v201.67H162.61z"/></clipPath></defs><g clip-path="url(#a)"><path fill="none" d="M-153.94 134.82h410.49v414.22h-410.49z"/><path fill="#96151f" d="m48.608 135.524.708-.707L243.14 328.642l-.707.707zm-6.76 6.746.708-.707L236.38 335.388l-.707.707zm-6.75 6.756.708-.707L229.63 342.144l-.707.707zm-6.757 6.754.708-.708 193.825 193.825-.708.707zm-6.75 6.745.708-.707 193.825 193.825-.708.707zm-6.75 6.756.708-.707 193.825 193.825-.708.707zm-6.75 6.746.708-.707 193.825 193.825-.708.707zm-6.743 6.753.708-.707L195.88 375.898l-.707.707zm-6.75 6.756.708-.707L189.13 382.654l-.707.707zm-6.76 6.746.708-.707L182.37 389.4l-.707.707zm-6.75 6.756.708-.707L175.62 396.156l-.707.707zm-6.757 6.752.708-.706 193.825 193.825-.708.707z"/><path fill="#96151f" d="M-126.928 355.65 66.897 161.825l.707.707-193.825 193.825zm6.746 6.75L73.643 168.575l.707.707-193.825 193.825zm6.756 6.75L80.399 175.325l.707.707-193.825 193.825zm6.746 6.75L87.145 182.075l.707.707-193.825 193.825zm6.746 6.75L93.89 188.825l.707.707-193.825 193.825zm6.77 6.76L100.66 195.585l.707.707-193.825 193.825zm6.746 6.75 193.825-193.825.707.707-193.825 193.825zm6.746 6.75 193.825-193.825.707.707-193.825 193.825zm-38.811-39.025L67.719 177.682l.354.354-186.202 186.202zm6.756 6.75L74.475 184.432l.354.354-186.202 186.202zm6.753 6.743L81.228 191.175l.354.354L-104.62 377.73zm6.746 6.76L87.974 197.935l.354.354L-97.875 384.49zm6.756 6.75L94.73 204.685l.354.354L-91.12 391.24zm6.746 6.75 186.202-186.203.354.354L-84.373 397.99z"/><path fill="#96151f" d="m9.475 214.726.353-.353L183.296 387.84l-.354.354zm6.75-6.746.353-.353 173.468 173.467-.354.354zm6.743-6.753.353-.353L196.79 374.34l-.354.354zm6.75-6.756.353-.353L203.54 367.585l-.354.354zm6.75-6.746.353-.353 173.46 173.46-.353.354zm6.75-6.745.353-.354L217.04 354.093l-.354.354zm6.76-6.756.353-.354 173.46 173.46-.353.354zm6.757-6.754.353-.353 173.468 173.467-.354.354z"/><path fill="#96151f" d="M-68.616 389.354 105.827 214.91l.353.353-174.443 174.443zm-6.906-6.894L98.922 208.019l.353.353-174.443 174.443zm-6.604-6.696L92.317 201.321l.354.354-174.444 174.443zm-6.945-6.87L85.372 194.45l.354.353-174.444 174.443zm-6.652-6.644L78.72 187.809l.354.353-174.443 174.443z"/><path fill="#96151f" d="m30.487 213.747.353-.354 203.195 203.194-.354.354zm7.346-6.209.354-.353L241.38 410.379l-.354.353z"/><path fill="#96151f" d="m37.833 207.538.354-.353L241.38 410.379l-.354.353z"/></g><path fill="#fff" d="M0 0h138.82v215.65H0z"/><path fill="none" stroke="#7f664a" stroke-miterlimit="10" stroke-width=".5" d="M27.76 208.74H6.94V8.91h20.82m34.71 199.83H41.66m55.52 0H76.36M111.07 8.91h20.81v199.83h-20.81M76.36 8.91h20.82m-55.52 0h20.81"/><path d="M14.69 10.82v10a6.48 6.48 0 0 0 .1 1.44.94.94 0 0 0 .42.51 1.89 1.89 0 0 0 1 .2h.28v.34h-6.44V23h.32a2.5 2.5 0 0 0 1.12-.18.91.91 0 0 0 .46-.49 6.16 6.16 0 0 0 .11-1.48v-6.36a3.79 3.79 0 0 0-.06-1.06.73.73 0 0 0-.3-.36.9.9 0 0 0-.51-.15 2.94 2.94 0 0 0-1.12.29l-.16-.33 4.5-2.06zm111.2 180.34v10a6.61 6.61 0 0 0 .1 1.44 1 1 0 0 0 .42.51 2 2 0 0 0 1 .2h.28v.33h-6.45v-.33h.32a2.5 2.5 0 0 0 1.12-.18.93.93 0 0 0 .46-.5 6 6 0 0 0 .11-1.47v-6.36a3.79 3.79 0 0 0-.08-1.06.73.73 0 0 0-.3-.36.9.9 0 0 0-.51-.15 2.94 2.94 0 0 0-1.12.29l-.16-.32 4.5-2.06z" fill="#7f664a"/><path d="M50 62.9c.3.3.59.62.87 1l60.72 77.79-5.7 5.7-7-5.44-1.56-1.21-6.17-4.74-1.56-1.2-6.11-4.8-1.56-1.21-6.11-4.73-1.55-1.21-6.12-4.73-1.56-1.21-6.1-4.73-1.56-1.18-6.12-4.73-1.55-1.21-6.11-4.73-1.56-1.21-6.11-4.73-1.56-1.2-6.11-4.74-1.56-1.2-.39-.31A16.34 16.34 0 1 1 50 62.9z" fill="#a3af31"/><path d="M27.9 62q-.52.44-1 .93a16.33 16.33 0 0 0 1 24l78 60.41 2-2L29.81 85a16.33 16.33 0 0 1-1.91-23z" fill="#bbc144"/><path d="M26.88 62.93A16.43 16.43 0 0 0 25.12 65 16.34 16.34 0 0 1 47 67.69l60.71 77.79 3.84-3.84-60.7-77.79a16.34 16.34 0 0 0-23.97-.92z" fill="#969b2c"/><circle cx="71.18" cy="88.85" r="5.09" fill="#bc1b21"/><path d="M67.57 85.25a5.17 5.17 0 0 0-.48.57 5.09 5.09 0 0 1 7.12 7.11 4.26 4.26 0 0 0 .57-.48 5.09 5.09 0 1 0-7.21-7.2z" fill="#96151f"/><circle cx="71.18" cy="88.85" r="2.76" fill="#cc2935"/><path d="M69.23 86.9a3.33 3.33 0 0 0-.25.28A2.75 2.75 0 0 1 72.84 91a1.61 1.61 0 0 0 .28-.24 2.75 2.75 0 1 0-3.89-3.9z" fill="#c11b30"/><path d="M120.12 137a21.73 21.73 0 0 1-6 13.27c-4.36 4.51-11.4 7.8-13.26 5.94s1.43-8.9 5.94-13.26a21.71 21.71 0 0 1 13.32-5.95z" fill="#ffb21a"/><path d="M101.88 155.19c-1.75-1.75 1.07-8.11 5.18-12.49l-.21.2c-4.51 4.36-7.8 11.4-5.94 13.26s8.9-1.43 13.26-5.94l.2-.21c-4.37 4.1-10.74 6.93-12.49 5.18z" fill="#fdd224"/><path d="M106.85 142.9c-.42.4-.82.83-1.22 1.28a21.7 21.7 0 0 1 12.57-5.31 21.7 21.7 0 0 1-5.31 12.57c.45-.4.88-.81 1.28-1.22a21.73 21.73 0 0 0 6-13.27 21.71 21.71 0 0 0-13.32 5.95z" fill="#ff990b"/><path d="M117.4 145.36a11.25 11.25 0 0 1-2.89 4.79c-1.75 1.8-4.3 3.38-4.79 2.89s1.1-3 2.9-4.78a11.49 11.49 0 0 1 4.78-2.9z" fill="#484349"/><path fill="#7c7c21" d="m40.17 75.31 1.38 1.39-11.74 11.74-1.56-1.2 11.92-11.93zm6.81 6.81 1.38 1.38-10.88 10.88-1.56-1.2 11.06-11.06zm6.8 6.8 1.39 1.39-10.02 10.01-1.56-1.21 10.19-10.19zm6.8 6.8 1.39 1.39-9.16 9.15-1.55-1.21 9.32-9.33zm6.81 6.81 1.38 1.38-8.29 8.29-1.55-1.21 8.46-8.46zm6.8 6.8 1.38 1.38-7.42 7.43-1.56-1.21 7.6-7.6zm6.81 6.81 1.38 1.38-6.56 6.56-1.55-1.21 6.73-6.73zm6.8 6.8 1.38 1.39-5.69 5.69-1.56-1.21 5.87-5.87zm6.8 6.8 1.38 1.39-4.82 4.82-1.56-1.2 5-5.01zm6.81 6.81 1.38 1.38-3.96 3.97-1.56-1.21 4.14-4.14z"/><circle cx="37.61" cy="96.76" r="5.09" fill="#bc1b21"/><path d="M34 93.16a5.27 5.27 0 0 0-.49.57 5.09 5.09 0 0 1 7.12 7.12 5.17 5.17 0 0 0 .57-.48 5.09 5.09 0 0 0-7.2-7.21z" fill="#96151f"/><circle cx="37.61" cy="96.76" r="2.76" fill="#cc2935"/><path d="M35.66 94.82a2.09 2.09 0 0 0-.24.28 2.75 2.75 0 0 1 3.86 3.9l.28-.25a2.75 2.75 0 1 0-3.9-3.89z" fill="#c11b30"/><circle cx="83.61" cy="130.24" r="5.09" fill="#bc1b21"/><path d="M80 126.64a5.17 5.17 0 0 0-.48.57 5.09 5.09 0 0 1 7.12 7.12 6.44 6.44 0 0 0 .57-.49 5.09 5.09 0 0 0-7.21-7.2z" fill="#96151f"/><circle cx="83.61" cy="130.24" r="2.76" fill="#cc2935"/><path d="M81.67 128.29c-.09.09-.17.19-.25.28a2.75 2.75 0 0 1 3.86 3.86 2.09 2.09 0 0 0 .28-.24 2.75 2.75 0 0 0-3.89-3.9z" fill="#c11b30"/><path fill="#fff" d="M162.61 259.52h126.17v201.67H162.61z"/><g clip-path="url(#b)" fill="#fff"><path d="M24.12 159.7h373.09v387.36H24.12z"/><path d="m49.3 366.88-.64-.66 176.17-181.26.64.66L49.3 366.88zm6.14 6.31-.64-.66 176.16-181.26.64.66L55.44 373.19zm6.14 6.31-.65-.66L237.1 197.58l.64.67L61.58 379.5zm6.13 6.32-.64-.66L243.23 203.9l.65.66L67.71 385.82zm6.14 6.31-.65-.66 176.17-181.26.64.66L73.85 392.13zm-17.19-17.88-.32-.33 169.24-174.13.32.33L56.66 374.25zm6.14 6.31-.32-.33L231.72 206.1l.32.33L62.8 380.56zm6.14 6.31-.33-.33 169.24-174.13.32.33L68.94 386.87zm14.45-7.93-.32-.33 158.55-163.14.32.34L83.39 378.94zm-6.05-6.22-.32-.34 158.55-163.13.32.33L77.34 372.72z"/></g><g clip-path="url(#c)"><path fill="none" d="M19.87 149.94h373.09V537.3H19.87z"/><path fill="#96151f" d="m45.06 357.11-.64-.66 176.16-181.26.65.66L45.06 357.11zm6.14 6.31-.65-.66L226.72 181.5l.64.66L51.2 363.42zm6.13 6.32-.64-.66 176.17-181.26.64.66L57.33 369.74zm6.14 6.31-.64-.66 176.16-181.26.64.66L63.47 376.05zm6.14 6.32-.65-.67 176.17-181.26.64.67L69.61 382.37zm6.13 6.31-.64-.66 176.16-181.26.65.66L75.74 388.68zm6.14 6.31-.65-.66L257.4 213.07l.64.66L81.88 394.99zm-29.46-30.51-.32-.33 169.24-174.13.32.33L52.42 364.48zm6.14 6.31-.32-.33 169.23-174.13.33.33L58.56 370.79zm6.13 6.32-.32-.33 169.24-174.13.32.33L64.69 377.11zm6.14 6.31-.32-.33 169.24-174.13.32.33L70.83 383.42zm6.14 6.32-.32-.34 169.23-174.13.32.33L76.97 389.74zm8.49-14.15-.32-.33 158.55-163.13.32.33L85.46 375.59zm-6.31-6.42-.32-.33 158.55-163.13.32.33L79.15 369.17zm-6.05-6.22-.32-.33 158.55-163.13.32.33L73.1 362.95z"/></g></svg>