<svg xmlns="http://www.w3.org/2000/svg" viewBox="0 0 138.83 215.65"><path fill="#fff" d="M0 0h138.82v215.65H0z"/><path fill="none" stroke="#7f664a" stroke-miterlimit="10" stroke-width=".5" d="M27.76 208.74H6.94V8.91h20.82m34.71 199.83H41.66m55.52 0H76.36M111.07 8.91h20.81v199.83h-20.81M76.36 8.91h20.82m-55.52 0h20.81"/><path d="M34.61 94.05h1l74.88 9.23v6.16l-6.74.86-1.5.19-5.86.74-1.5.2-5.86.74-1.5.19-5.86.75-1.49.18-5.86.75-1.5.19L67 115l-1.49.19-5.87.74-1.49.19-5.86.74-1.5.2-5.86.74-1.5.19-5.86.75L36 119h-.37a12.49 12.49 0 1 1-1-24.94z" fill="#a3af31"/><path d="M22.19 105.49c0 .35-.05.7-.05 1.05A12.5 12.5 0 0 0 35.65 119l74.83-9.52v-2.11l-74.83 9.52a12.49 12.49 0 0 1-13.46-11.4z" fill="#bbc144"/><path d="M22.14 106.54a12.85 12.85 0 0 0 .17 2.07A12.5 12.5 0 0 1 35.6 98.24l74.88 9.23v-4.15L35.6 94.09a12.49 12.49 0 0 0-13.46 12.45z" fill="#969b2c"/><circle cx="60.11" cy="96.61" r="3.89" fill="#bc1b21"/><path d="M56.21 96.61a3.45 3.45 0 0 0 0 .57 3.89 3.89 0 0 1 7.69 0 3.45 3.45 0 0 0 0-.57 3.9 3.9 0 0 0-7.79 0z" fill="#96151f"/><circle cx="60.11" cy="96.61" r="2.11" fill="#cc2935"/><path d="M58 96.61a2.83 2.83 0 0 0 0 .29 2.1 2.1 0 0 1 4.17 0 2.83 2.83 0 0 0 0-.29 2.11 2.11 0 1 0-4.21 0z" fill="#c11b30"/><path d="M112.58 96.16a16.52 16.52 0 0 1 4 10.39c.08 4.79-1.94 10.38-4 10.38s-4-5.59-4-10.38a16.5 16.5 0 0 1 4-10.39z" fill="#ffb21a"/><path d="M112.58 115.88c-1.9 0-3.81-5-4-9.55a1.55 1.55 0 0 0 0 .22c-.08 4.79 1.95 10.38 4 10.38s4-5.59 4-10.38v-.22c-.2 4.58-2.11 9.55-4 9.55z" fill="#fdd224"/><path d="M108.62 106.55v1.35a16.61 16.61 0 0 1 3.93-9.67 16.62 16.62 0 0 1 3.92 9.67v-1.35a16.52 16.52 0 0 0-4-10.39 16.5 16.5 0 0 0-3.85 10.39z" fill="#ff990b"/><path d="M115.66 102.17a8.84 8.84 0 0 1 1 4.16c0 1.91-.5 4.15-1 4.15s-1-2.24-1-4.15a8.92 8.92 0 0 1 1-4.16z" fill="#484349"/><path fill="#7c7c21" d="M36.02 106.06h1.5v12.69l-1.5.2v-12.89zm7.36 0h1.5v11.76l-1.5.19v-11.95zm7.36 0h1.5v10.82l-1.5.2v-11.02zm7.36 0h1.49v9.89l-1.49.19v-10.08zm7.36 0h1.49v8.96l-1.49.18v-9.14zm7.35 0h1.5v8.02l-1.5.19v-8.21zm7.36 0h1.5v7.09l-1.5.18v-7.27zm7.35 0h1.5v6.15l-1.5.19v-6.34zm7.36 0h1.5v5.21l-1.5.2v-5.41zm7.36 0h1.5v4.28l-1.5.19v-4.47z"/><circle cx="46.24" cy="119.04" r="3.89" fill="#bc1b21"/><path d="M42.34 119a3.66 3.66 0 0 0 0 .57 3.89 3.89 0 0 1 7.7 0 5.46 5.46 0 0 0 0-.57 3.9 3.9 0 1 0-7.79 0z" fill="#96151f"/><circle cx="46.24" cy="119.04" r="2.11" fill="#cc2935"/><path d="M44.13 119a2.46 2.46 0 0 0 0 .28 2.1 2.1 0 0 1 4.17 0 1.27 1.27 0 0 0 0-.28 2.11 2.11 0 0 0-4.22 0z" fill="#c11b30"/><circle cx="89.21" cy="112.27" r="3.89" fill="#bc1b21"/><path d="M85.32 112.27a3.64 3.64 0 0 0 0 .57 3.89 3.89 0 0 1 7.7 0 3.66 3.66 0 0 0 0-.57 3.9 3.9 0 1 0-7.79 0z" fill="#96151f"/><circle cx="89.21" cy="112.27" r="2.11" fill="#cc2935"/><path d="M87.1 112.27a2.64 2.64 0 0 0 0 .28 2.11 2.11 0 0 1 4.18 0 2.64 2.64 0 0 0 0-.28 2.11 2.11 0 0 0-4.22 0z" fill="#c11b30"/><path d="M31.72 31.1v.72L25 86.44h-4.53l-.63-4.92-.14-1.09-.54-4.28-.16-1.09-.54-4.27-.14-1.1-.55-4.27-.13-1.09-.55-4.28L17 59l-.54-4.27-.14-1.09-.54-4.28-.14-1.09-.57-4.27-.14-1.1-.54-4.27-.15-1.09-.54-4.28-.14-1.09v-.27a9.11 9.11 0 1 1 18.19-.76z" fill="#a3af31"/><path d="M23.38 22h-.77a9.11 9.11 0 0 0-9.08 9.85l6.94 54.58H22l-6.94-54.57A9.12 9.12 0 0 1 23.38 22z" fill="#bbc144"/><path d="M22.61 22a9.54 9.54 0 0 0-1.52.12 9.11 9.11 0 0 1 7.57 9.69l-6.73 54.63h3l6.73-54.62A9.11 9.11 0 0 0 22.61 22z" fill="#969b2c"/><circle cx="29.85" cy="49.7" r="2.84" fill="#bc1b21"/><path d="M29.85 46.86a2.73 2.73 0 0 0-.41 0 2.84 2.84 0 0 1 0 5.61 2.71 2.71 0 0 0 .41 0 2.84 2.84 0 0 0 0-5.68z" fill="#96151f"/><circle cx="29.85" cy="49.7" r="1.54" fill="#cc2935"/><path d="M29.85 48.16h-.2a1.54 1.54 0 0 1 0 3h.2a1.54 1.54 0 1 0 0-3.07z" fill="#c11b30"/><path d="M30.18 88a12 12 0 0 1-7.57 2.89C19.11 90.91 15 89.43 15 88s4.08-2.94 7.58-2.88a12 12 0 0 1 7.6 2.88z" fill="#ffb21a"/><path d="M15.8 88c0-1.38 3.62-2.77 7-2.88h-.16C19.11 85 15 86.5 15 88s4.08 3 7.58 2.89h.16c-3.32-.15-6.94-1.54-6.94-2.89z" fill="#fdd224"/><path d="M22.61 85.08h-1A12.17 12.17 0 0 1 28.67 88a12.09 12.09 0 0 1-7 2.87h1A12 12 0 0 0 30.18 88a12 12 0 0 0-7.57-2.92z" fill="#ff990b"/><path d="M25.8 90.21a6.41 6.41 0 0 1-3 .75c-1.4 0-3-.37-3-.75s1.63-.76 3-.75a6.41 6.41 0 0 1 3 .75z" fill="#484349"/><path fill="#7c7c21" d="M22.96 32.13v1.09H13.7l-.14-1.09h9.4zm0 5.37v1.09h-8.57l-.15-1.09h8.72zm0 5.36v1.1h-7.89l-.14-1.1h8.03zm0 5.37v1.09h-7.21l-.14-1.09h7.35zm0 5.37v1.09h-6.53l-.14-1.09h6.67zm0 5.36v1.09h-5.85l-.13-1.09h5.98zm0 5.37v1.09H17.8l-.14-1.09h5.3zm0 5.36v1.1h-4.48l-.14-1.1h4.62zm0 5.37v1.09h-3.8l-.14-1.09h3.94zm0 5.37v1.09h-3.12l-.14-1.09h3.26z"/><circle cx="13.5" cy="39.58" r="2.84" fill="#bc1b21"/><path d="M13.5 36.74a2.85 2.85 0 0 0-.42 0 2.84 2.84 0 0 1 0 5.61 2.84 2.84 0 1 0 .42-5.65z" fill="#96151f"/><circle cx="13.5" cy="39.58" r="1.54" fill="#cc2935"/><path d="M13.5 38.05h-.21a1.53 1.53 0 0 1 0 3h.21a1.54 1.54 0 0 0 0-3.07z" fill="#c11b30"/><circle cx="18.44" cy="70.92" r="2.84" fill="#bc1b21"/><path d="M18.44 68.08a3 3 0 0 0-.42 0 2.83 2.83 0 0 1 0 5.61 3 3 0 0 0 .42 0 2.84 2.84 0 0 0 0-5.68z" fill="#96151f"/><circle cx="18.44" cy="70.92" r="1.54" fill="#cc2935"/><path d="M18.44 69.39h-.21a1.53 1.53 0 0 1 0 3h.21a1.54 1.54 0 0 0 0-3.07z" fill="#c11b30"/><path d="M95.37 31.1v.72l-6.76 54.62h-4.49l-.63-4.92-.14-1.09-.54-4.28-.14-1.09-.54-4.27-.13-1.1-.55-4.27-.13-1.09-.55-4.28-.15-1.05-.54-4.27-.14-1.09-.54-4.28-.14-1.09-.54-4.27-.14-1.1-.58-4.31-.15-1.09-.54-4.28-.14-1.09v-.27a9.11 9.11 0 1 1 18.19-.76z" fill="#a3af31"/><path d="M87 22h-.77a9.11 9.11 0 0 0-9.08 9.85l6.94 54.58h1.53l-6.91-54.57A9.12 9.12 0 0 1 87 22z" fill="#bbc144"/><path d="M86.26 22a9.54 9.54 0 0 0-1.52.12 9.11 9.11 0 0 1 7.57 9.69l-6.73 54.63h3l6.73-54.62A9.11 9.11 0 0 0 86.26 22z" fill="#969b2c"/><circle cx="93.5" cy="49.7" r="2.84" fill="#bc1b21"/><path d="M93.5 46.86a2.73 2.73 0 0 0-.41 0 2.84 2.84 0 0 1 0 5.61 2.71 2.71 0 0 0 .41 0 2.84 2.84 0 1 0 0-5.68z" fill="#96151f"/><circle cx="93.5" cy="49.7" r="1.54" fill="#cc2935"/><path d="M93.5 48.16h-.2a1.54 1.54 0 0 1 0 3h.2a1.54 1.54 0 1 0 0-3.07z" fill="#c11b30"/><path d="M93.83 88a12 12 0 0 1-7.57 2.89c-3.5.06-7.58-1.42-7.58-2.89s4.08-2.94 7.58-2.88A12.07 12.07 0 0 1 93.83 88z" fill="#ffb21a"/><path d="M79.45 88c0-1.38 3.62-2.77 7-2.88h-.16C82.76 85 78.68 86.5 78.68 88s4.08 3 7.58 2.89h.16c-3.35-.15-6.97-1.54-6.97-2.89z" fill="#fdd224"/><path d="M86.26 85.08h-1a12.17 12.17 0 0 1 7 2.86 12.09 12.09 0 0 1-7 2.87h1A12 12 0 0 0 93.83 88a12.07 12.07 0 0 0-7.57-2.92z" fill="#ff990b"/><path d="M89.45 90.21a6.41 6.41 0 0 1-3 .75c-1.4 0-3-.37-3-.75s1.63-.76 3-.75a6.41 6.41 0 0 1 3 .75z" fill="#484349"/><path fill="#7c7c21" d="M86.61 32.13v1.09h-9.26l-.14-1.09h9.4zm0 5.37v1.09h-8.57l-.15-1.09h8.72zm0 5.36v1.1h-7.89l-.14-1.1h8.03zm0 5.37v1.09H79.4l-.14-1.09h7.35zm0 5.37v1.09h-6.53l-.14-1.09h6.67zm0 5.36v1.09h-5.85l-.13-1.09h5.98zm0 5.37v1.09h-5.17l-.13-1.09h5.3zm0 5.36v1.1h-4.48l-.14-1.1h4.62zm0 5.37v1.09h-3.8l-.14-1.09h3.94zm0 5.37v1.09h-3.12l-.14-1.09h3.26z"/><circle cx="77.15" cy="39.58" r="2.84" fill="#bc1b21"/><path d="M77.15 36.74a2.85 2.85 0 0 0-.42 0 2.84 2.84 0 0 1 0 5.61 2.84 2.84 0 1 0 .42-5.65z" fill="#96151f"/><circle cx="77.15" cy="39.58" r="1.54" fill="#cc2935"/><path d="M77.15 38.05h-.21a1.53 1.53 0 0 1 0 3h.21a1.54 1.54 0 0 0 0-3.07z" fill="#c11b30"/><circle cx="82.09" cy="70.92" r="2.84" fill="#bc1b21"/><path d="M82.09 68.08a2.85 2.85 0 0 0-.42 0 2.84 2.84 0 0 1 0 5.61 2.84 2.84 0 1 0 .42-5.65z" fill="#96151f"/><circle cx="82.09" cy="70.92" r="1.54" fill="#cc2935"/><path d="M82.09 69.39h-.21a1.53 1.53 0 0 1 0 3h.21a1.54 1.54 0 0 0 0-3.07z" fill="#c11b30"/><path d="M43.45 81.87v-.72l6.73-54.62h4.5l.63 4.92.13 1.09.56 4.28.14 1.09.54 4.27.14 1.1.54 4.27.14 1.09.54 4.28.16 1.08.55 4.27.13 1.09.55 4.28.14 1.09.54 4.27.14 1.09.54 4.28.14 1.09.54 4.27.14 1.09v.28a9.11 9.11 0 1 1-18.2.76z" fill="#a3af31"/><path d="M51.8 90.93h.77a9.11 9.11 0 0 0 9.08-9.85l-6.94-54.55h-1.54l6.94 54.58a9.12 9.12 0 0 1-8.31 9.82z" fill="#bbc144"/><path d="M52.57 91a8.4 8.4 0 0 0 1.51-.13 9.11 9.11 0 0 1-7.57-9.69l6.73-54.61h-3l-6.76 54.57A9.12 9.12 0 0 0 52.57 91z" fill="#969b2c"/><circle cx="45.32" cy="63.27" r="2.84" fill="#bc1b21"/><path d="M45.32 66.11a3 3 0 0 0 .42 0 2.83 2.83 0 0 1 0-5.61 3 3 0 0 0-.42 0 2.84 2.84 0 0 0 0 5.68z" fill="#96151f"/><circle cx="45.32" cy="63.27" r="1.54" fill="#cc2935"/><path d="M45.32 64.81h.21a1.53 1.53 0 0 1 0-3h-.21a1.54 1.54 0 1 0 0 3.08z" fill="#c11b30"/><path d="M45 25a12.11 12.11 0 0 1 7.58-2.88c3.5-.06 7.57 1.42 7.57 2.88s-4.08 3-7.58 2.89A12 12 0 0 1 45 25z" fill="#ffb21a"/><path d="M59.37 25c0 1.39-3.62 2.78-7 2.88h.16c3.5.06 7.57-1.42 7.57-2.89s-4.07-2.94-7.57-2.88h-.16c3.38.12 7 1.51 7 2.89z" fill="#fdd224"/><path d="M52.57 27.89h1a12 12 0 0 1-7-2.87 12.1 12.1 0 0 1 7-2.86h-1A12.11 12.11 0 0 0 45 25a12 12 0 0 0 7.57 2.89z" fill="#ff990b"/><path d="M49.38 22.76a6.41 6.41 0 0 1 3-.75c1.4 0 3 .37 3 .75s-1.62.76-3 .75a6.41 6.41 0 0 1-3-.75z" fill="#484349"/><path fill="#7c7c21" d="M52.21 80.83v-1.09h9.26l.14 1.09h-9.4zm0-5.36v-1.09h8.58l.14 1.09h-8.72zm0-5.37v-1.09h7.9l.14 1.09h-8.04zm0-5.36v-1.09h7.22l.13 1.09h-7.35zm0-5.37v-1.09h6.54l.13 1.09h-6.67zm0-5.36v-1.09h5.85l.14 1.09h-5.99zm0-5.37v-1.09h5.17l.14 1.09h-5.31zm0-5.37v-1.09h4.49l.14 1.09h-4.63zm0-5.36v-1.09h3.81l.14 1.09h-3.95zm0-5.37v-1.09h3.13l.13 1.09h-3.26z"/><circle cx="61.68" cy="73.39" r="2.84" fill="#bc1b21"/><path d="M61.68 76.23a2.71 2.71 0 0 0 .41 0 2.84 2.84 0 0 1 0-5.61 2.73 2.73 0 0 0-.41 0 2.84 2.84 0 1 0 0 5.68z" fill="#96151f"/><circle cx="61.68" cy="73.39" r="1.54" fill="#cc2935"/><path d="M61.68 74.92h.21a1.54 1.54 0 0 1 0-3h-.21a1.54 1.54 0 1 0 0 3.07z" fill="#c11b30"/><circle cx="56.74" cy="42.05" r="2.84" fill="#bc1b21"/><path d="M56.74 44.89a2.71 2.71 0 0 0 .41 0 2.84 2.84 0 0 1 0-5.61 2.71 2.71 0 0 0-.41 0 2.85 2.85 0 0 0 0 5.69z" fill="#96151f"/><circle cx="56.74" cy="42.05" r="1.54" fill="#cc2935"/><path d="M56.74 43.58H57a1.54 1.54 0 0 1 0-3h-.21a1.54 1.54 0 1 0 0 3.07z" fill="#c11b30"/><path d="M107.1 81.87v-.72l6.73-54.62h4.5l.63 4.92.13 1.09.55 4.28.14 1.09.54 4.27.14 1.1.54 4.27.14 1.09.54 4.28.14 1.09.55 4.27.13 1.09.55 4.28.14 1.09.54 4.27.14 1.09.54 4.28.14 1.09.54 4.27.14 1.09v.28a9.11 9.11 0 1 1-18.2.76z" fill="#a3af31"/><path d="M115.45 90.93h.77a9.11 9.11 0 0 0 9.08-9.85l-6.94-54.58h-1.54l6.94 54.58a9.12 9.12 0 0 1-8.31 9.85z" fill="#bbc144"/><path d="M116.22 91a8.4 8.4 0 0 0 1.51-.13 9.11 9.11 0 0 1-7.57-9.69l6.73-54.61h-3l-6.73 54.61a9.12 9.12 0 0 0 9.06 9.82z" fill="#969b2c"/><circle cx="108.97" cy="63.27" r="2.84" fill="#bc1b21"/><path d="M109 66.11a3 3 0 0 0 .42 0 2.83 2.83 0 0 1 0-5.61 3 3 0 0 0-.42 0 2.84 2.84 0 0 0 0 5.68z" fill="#96151f"/><circle cx="108.97" cy="63.27" r="1.54" fill="#cc2935"/><path d="M109 64.81h.21a1.53 1.53 0 0 1 0-3H109a1.54 1.54 0 1 0 0 3.08z" fill="#c11b30"/><path d="M108.64 25a12.11 12.11 0 0 1 7.58-2.88c3.5-.06 7.57 1.42 7.57 2.88s-4.07 2.95-7.57 2.89a12 12 0 0 1-7.58-2.89z" fill="#ffb21a"/><path d="M123 25c0 1.39-3.62 2.78-7 2.88h.16c3.5.06 7.57-1.42 7.57-2.89s-4.07-2.94-7.57-2.88H116c3.4.12 7 1.51 7 2.89z" fill="#fdd224"/><path d="M116.22 27.89h1a12 12 0 0 1-7-2.87 12.1 12.1 0 0 1 7-2.86h-1a12.11 12.11 0 0 0-7.58 2.84 12 12 0 0 0 7.58 2.89z" fill="#ff990b"/><path d="M113 22.76a6.41 6.41 0 0 1 3-.75c1.4 0 3 .37 3 .75s-1.62.76-3 .75a6.41 6.41 0 0 1-3-.75z" fill="#484349"/><path fill="#7c7c21" d="M115.86 80.83v-1.09h9.26l.14 1.09h-9.4zm0-5.36v-1.09h8.58l.14 1.09h-8.72zm0-5.37v-1.09h7.9l.14 1.09h-8.04zm0-5.36v-1.09h7.22l.14 1.09h-7.36zm0-5.37v-1.09h6.53l.14 1.09h-6.67zm0-5.36v-1.09h5.85l.14 1.09h-5.99zm0-5.37v-1.09h5.17l.14 1.09h-5.31zm0-5.37v-1.09h4.49l.14 1.09h-4.63zm0-5.36v-1.09h3.81l.14 1.09h-3.95zm0-5.37v-1.09h3.13l.13 1.09h-3.26z"/><circle cx="125.33" cy="73.39" r="2.84" fill="#bc1b21"/><path d="M125.33 76.23a2.71 2.71 0 0 0 .41 0 2.84 2.84 0 0 1 0-5.61 2.73 2.73 0 0 0-.41 0 2.84 2.84 0 0 0 0 5.68z" fill="#96151f"/><circle cx="125.33" cy="73.39" r="1.54" fill="#cc2935"/><path d="M125.33 74.92h.21a1.54 1.54 0 0 1 0-3h-.21a1.54 1.54 0 1 0 0 3.07z" fill="#c11b30"/><circle cx="120.39" cy="42.05" r="2.84" fill="#bc1b21"/><path d="M120.39 44.89a2.71 2.71 0 0 0 .41 0 2.84 2.84 0 0 1 0-5.61 2.71 2.71 0 0 0-.41 0 2.85 2.85 0 0 0 0 5.69z" fill="#96151f"/><circle cx="120.39" cy="42.05" r="1.54" fill="#cc2935"/><path d="M120.39 43.58h.21a1.54 1.54 0 0 1 0-3h-.21a1.54 1.54 0 1 0 0 3.07z" fill="#c11b30"/><path d="M31.72 133.78v.72L25 189.12h-4.53l-.63-4.92-.14-1.09-.54-4.28-.16-1.09-.54-4.27-.14-1.1-.55-4.27-.11-1.1-.55-4.28-.11-1.08-.54-4.27-.14-1.09-.57-4.28-.14-1.09-.54-4.27-.14-1.09-.54-4.28-.15-1.09-.54-4.27-.14-1.09v-.28a9.11 9.11 0 1 1 18.19-.76z" fill="#a3af31"/><path d="M23.38 124.72h-.77a9.11 9.11 0 0 0-9.08 9.85l6.94 54.58H22l-6.94-54.58a9.12 9.12 0 0 1 8.32-9.85z" fill="#bbc144"/><path d="M22.61 124.69a8.51 8.51 0 0 0-1.52.13 9.1 9.1 0 0 1 7.57 9.69l-6.73 54.61h3l6.73-54.61a9.11 9.11 0 0 0-9.05-9.82z" fill="#969b2c"/><circle cx="29.85" cy="152.38" r="2.84" fill="#bc1b21"/><path d="M29.85 149.54a2.73 2.73 0 0 0-.41 0 2.84 2.84 0 0 1 0 5.61 2.71 2.71 0 0 0 .41 0 2.84 2.84 0 0 0 0-5.68z" fill="#96151f"/><circle cx="29.85" cy="152.38" r="1.54" fill="#cc2935"/><path d="M29.85 150.84h-.2a1.54 1.54 0 0 1 0 3h.2a1.54 1.54 0 1 0 0-3.08z" fill="#c11b30"/><path d="M30.18 190.65a12 12 0 0 1-7.57 2.88c-3.5.06-7.58-1.42-7.58-2.88s4.08-3 7.58-2.89a12 12 0 0 1 7.57 2.89z" fill="#ffb21a"/><path d="M15.8 190.65c0-1.39 3.62-2.78 7-2.88h-.16c-3.5-.06-7.58 1.42-7.58 2.89s4.08 2.94 7.58 2.88h.16c-3.38-.12-7-1.54-7-2.89z" fill="#fdd224"/><path d="M22.61 187.76h-1a12.09 12.09 0 0 1 7.05 2.87 12.17 12.17 0 0 1-7 2.86h1a12 12 0 0 0 7.57-2.88 12 12 0 0 0-7.62-2.85z" fill="#ff990b"/><path d="M25.8 192.89a6.41 6.41 0 0 1-3 .75c-1.4 0-3-.37-3-.75s1.63-.76 3-.75a6.41 6.41 0 0 1 3 .75z" fill="#484349"/><path fill="#7c7c21" d="M22.96 134.81v1.1H13.7l-.14-1.1h9.4zm0 5.37v1.09h-8.57l-.15-1.09h8.72zm0 5.37v1.09h-7.89l-.14-1.09h8.03zm0 5.36V152h-7.21l-.14-1.09h7.35zm0 5.37v1.09h-6.53l-.14-1.09h6.67zm0 5.36v1.09h-5.85l-.13-1.09h5.98zm0 5.37v1.09H17.8l-.14-1.09h5.3zm0 5.37v1.09h-4.48l-.14-1.09h4.62zm0 5.36v1.09h-3.8l-.14-1.09h3.94zm0 5.37v1.09h-3.12l-.14-1.09h3.26z"/><circle cx="13.5" cy="142.26" r="2.84" fill="#bc1b21"/><path d="M13.5 139.42a2.85 2.85 0 0 0-.42 0 2.84 2.84 0 0 1 0 5.61 2.84 2.84 0 1 0 .42-5.65z" fill="#96151f"/><circle cx="13.5" cy="142.26" r="1.54" fill="#cc2935"/><path d="M13.5 140.73h-.21a1.54 1.54 0 0 1 0 3h.21a1.54 1.54 0 0 0 0-3.07z" fill="#c11b30"/><circle cx="18.44" cy="173.6" r="2.84" fill="#bc1b21"/><path d="M18.44 170.76a3 3 0 0 0-.42 0 2.83 2.83 0 0 1 0 5.61 3 3 0 0 0 .42 0 2.85 2.85 0 0 0 0-5.69z" fill="#96151f"/><circle cx="18.44" cy="173.6" r="1.54" fill="#cc2935"/><path d="M18.44 172.07h-.21a1.54 1.54 0 0 1 0 3h.21a1.54 1.54 0 0 0 0-3.07z" fill="#c11b30"/><path d="M95.37 133.78v.72l-6.73 54.62h-4.52l-.63-4.92-.14-1.09-.54-4.28-.14-1.09-.54-4.27-.14-1.1-.55-4.27-.13-1.1-.55-4.28-.14-1.09-.54-4.27-.14-1.09-.54-4.27-.14-1.09-.54-4.27-.14-1.09-.58-4.28-.15-1.09-.54-4.27-.14-1.09v-.28a9.11 9.11 0 1 1 18.19-.76z" fill="#a3af31"/><path d="M87 124.72h-.77a9.11 9.11 0 0 0-9.08 9.85l6.94 54.58h1.53l-6.94-54.58a9.12 9.12 0 0 1 8.32-9.85z" fill="#bbc144"/><path d="M86.26 124.69a8.51 8.51 0 0 0-1.52.13 9.1 9.1 0 0 1 7.57 9.69l-6.73 54.61h3l6.73-54.61a9.11 9.11 0 0 0-9.05-9.82z" fill="#969b2c"/><circle cx="93.5" cy="152.38" r="2.84" fill="#bc1b21"/><path d="M93.5 149.54a2.73 2.73 0 0 0-.41 0 2.84 2.84 0 0 1 0 5.61 2.71 2.71 0 0 0 .41 0 2.84 2.84 0 0 0 0-5.68z" fill="#96151f"/><circle cx="93.5" cy="152.38" r="1.54" fill="#cc2935"/><path d="M93.5 150.84h-.2a1.54 1.54 0 0 1 0 3h.2a1.54 1.54 0 1 0 0-3.08z" fill="#c11b30"/><path d="M93.83 190.65a12.07 12.07 0 0 1-7.57 2.88c-3.5.06-7.58-1.42-7.58-2.88s4.08-3 7.58-2.89a12 12 0 0 1 7.57 2.89z" fill="#ffb21a"/><path d="M79.45 190.65c0-1.39 3.62-2.78 7-2.88h-.16c-3.5-.06-7.58 1.42-7.58 2.89s4.08 2.94 7.58 2.88h.16c-3.38-.12-7-1.54-7-2.89z" fill="#fdd224"/><path d="M86.26 187.76h-1a12.09 12.09 0 0 1 7 2.87 12.17 12.17 0 0 1-7 2.86h1a12.07 12.07 0 0 0 7.57-2.88 12 12 0 0 0-7.57-2.85z" fill="#ff990b"/><path d="M89.45 192.89a6.41 6.41 0 0 1-3 .75c-1.4 0-3-.37-3-.75s1.63-.76 3-.75a6.41 6.41 0 0 1 3 .75z" fill="#484349"/><path fill="#7c7c21" d="M86.61 134.81v1.1h-9.26l-.14-1.1h9.4zm0 5.37v1.09h-8.57l-.15-1.09h8.72zm0 5.37v1.09h-7.89l-.14-1.09h8.03zm0 5.36V152H79.4l-.14-1.09h7.35zm0 5.37v1.09h-6.53l-.14-1.09h6.67zm0 5.36v1.09h-5.85l-.13-1.09h5.98zm0 5.37v1.09h-5.17l-.13-1.09h5.3zm0 5.37v1.09h-4.48l-.14-1.09h4.62zm0 5.36v1.09h-3.8l-.14-1.09h3.94zm0 5.37v1.09h-3.12l-.14-1.09h3.26z"/><circle cx="77.15" cy="142.26" r="2.84" fill="#bc1b21"/><path d="M77.15 139.42a2.85 2.85 0 0 0-.42 0 2.84 2.84 0 0 1 0 5.61 2.84 2.84 0 1 0 .42-5.65z" fill="#96151f"/><circle cx="77.15" cy="142.26" r="1.54" fill="#cc2935"/><path d="M77.15 140.73h-.21a1.54 1.54 0 0 1 0 3h.21a1.54 1.54 0 0 0 0-3.07z" fill="#c11b30"/><circle cx="82.09" cy="173.6" r="2.84" fill="#bc1b21"/><path d="M82.09 170.76a2.85 2.85 0 0 0-.42 0 2.84 2.84 0 0 1 0 5.61 2.84 2.84 0 1 0 .42-5.65z" fill="#96151f"/><circle cx="82.09" cy="173.6" r="1.54" fill="#cc2935"/><path d="M82.09 172.07h-.21a1.54 1.54 0 0 1 0 3h.21a1.54 1.54 0 0 0 0-3.07z" fill="#c11b30"/><path d="M43.45 184.55v-.72l6.73-54.62h4.5l.63 4.92.13 1.09.56 4.28.14 1.09.54 4.27.14 1.1.54 4.27.14 1.09.54 4.28.14 1.09.55 4.27.13 1.09.55 4.28.14 1.09.54 4.27.14 1.1.54 4.27.14 1.09.54 4.28.14 1.09v.27a9.11 9.11 0 1 1-18.2.76z" fill="#a3af31"/><path d="M51.8 193.61h.77a9.11 9.11 0 0 0 9.08-9.85l-6.94-54.58h-1.54l6.94 54.58a9.12 9.12 0 0 1-8.31 9.85z" fill="#bbc144"/><path d="M52.57 193.64a9.42 9.42 0 0 0 1.51-.12 9.12 9.12 0 0 1-7.57-9.69l6.73-54.62h-3l-6.73 54.62a9.11 9.11 0 0 0 9.06 9.81z" fill="#969b2c"/><circle cx="45.32" cy="165.95" r="2.84" fill="#bc1b21"/><path d="M45.32 168.79a3 3 0 0 0 .42 0 2.83 2.83 0 0 1 0-5.61 3 3 0 0 0-.42 0 2.84 2.84 0 1 0 0 5.68z" fill="#96151f"/><circle cx="45.32" cy="165.95" r="1.54" fill="#cc2935"/><path d="M45.32 167.49h.21a1.53 1.53 0 0 1 0-3h-.21a1.54 1.54 0 1 0 0 3.07z" fill="#c11b30"/><path d="M45 127.69a12 12 0 0 1 7.58-2.89c3.5-.06 7.57 1.42 7.57 2.89s-4.07 2.94-7.57 2.88a12.11 12.11 0 0 1-7.58-2.88z" fill="#ffb21a"/><path d="M59.37 127.69c0 1.38-3.62 2.77-7 2.88h.16c3.5.06 7.57-1.42 7.57-2.88s-4.07-3-7.57-2.89h-.16c3.38.11 7 1.5 7 2.89z" fill="#fdd224"/><path d="M52.57 130.57h1a12.1 12.1 0 0 1-7-2.86 12 12 0 0 1 7-2.87h-1a12 12 0 0 0-7.57 2.85 12.11 12.11 0 0 0 7.57 2.88z" fill="#ff990b"/><path d="M49.38 125.44a6.41 6.41 0 0 1 3-.75c1.4 0 3 .37 3 .75s-1.62.76-3 .75a6.41 6.41 0 0 1-3-.75z" fill="#484349"/><path fill="#7c7c21" d="M52.21 183.52v-1.09h9.26l.14 1.09h-9.4zm0-5.37v-1.09h8.58l.14 1.09h-8.72zm0-5.36v-1.1h7.9l.14 1.1h-8.04zm0-5.37v-1.09h7.22l.13 1.09h-7.35zm0-5.37v-1.09h6.54l.13 1.09h-6.67zm0-5.36v-1.09h5.85l.14 1.09h-5.99zm0-5.37v-1.09h5.17l.14 1.09h-5.31zm0-5.36v-1.1h4.49l.14 1.1h-4.63zm0-5.37v-1.09h3.81l.14 1.09h-3.95zm0-5.37v-1.09h3.13l.13 1.09h-3.26z"/><circle cx="61.68" cy="176.07" r="2.84" fill="#bc1b21"/><path d="M61.68 178.91a2.71 2.71 0 0 0 .41 0 2.84 2.84 0 0 1 0-5.61 2.73 2.73 0 0 0-.41 0 2.84 2.84 0 1 0 0 5.68z" fill="#96151f"/><circle cx="61.68" cy="176.07" r="1.54" fill="#cc2935"/><path d="M61.68 177.6h.21a1.53 1.53 0 0 1 0-3h-.21a1.54 1.54 0 1 0 0 3.07z" fill="#c11b30"/><circle cx="56.74" cy="144.73" r="2.84" fill="#bc1b21"/><path d="M56.74 147.57a2.71 2.71 0 0 0 .41 0 2.84 2.84 0 0 1 0-5.61 2.73 2.73 0 0 0-.41 0 2.84 2.84 0 1 0 0 5.68z" fill="#96151f"/><circle cx="56.74" cy="144.73" r="1.54" fill="#cc2935"/><path d="M56.74 146.26H57a1.53 1.53 0 0 1 0-3h-.21a1.54 1.54 0 1 0 0 3.07z" fill="#c11b30"/><path d="M107.1 184.55v-.72l6.73-54.62h4.5l.63 4.92.13 1.09.55 4.28.14 1.09.54 4.27.14 1.1.54 4.27.14 1.09.54 4.28.14 1.09.55 4.27.13 1.09.55 4.28.14 1.09.54 4.27.14 1.1.54 4.27.14 1.09.54 4.28.14 1.09v.27a9.11 9.11 0 1 1-18.2.76z" fill="#a3af31"/><path d="M115.45 193.61h.77a9.11 9.11 0 0 0 9.08-9.85l-6.94-54.58h-1.54l6.94 54.58a9.12 9.12 0 0 1-8.31 9.85z" fill="#bbc144"/><path d="M116.22 193.64a9.42 9.42 0 0 0 1.51-.12 9.12 9.12 0 0 1-7.57-9.69l6.73-54.62h-3l-6.73 54.62a9.11 9.11 0 0 0 9.06 9.81z" fill="#969b2c"/><circle cx="108.97" cy="165.95" r="2.84" fill="#bc1b21"/><path d="M109 168.79a3 3 0 0 0 .42 0 2.83 2.83 0 0 1 0-5.61 3 3 0 0 0-.42 0 2.84 2.84 0 0 0 0 5.68z" fill="#96151f"/><circle cx="108.97" cy="165.95" r="1.54" fill="#cc2935"/><path d="M109 167.49h.21a1.53 1.53 0 0 1 0-3H109a1.54 1.54 0 1 0 0 3.07z" fill="#c11b30"/><path d="M108.64 127.69a12 12 0 0 1 7.58-2.89c3.5-.06 7.57 1.42 7.57 2.89s-4.07 2.94-7.57 2.88a12.11 12.11 0 0 1-7.58-2.88z" fill="#ffb21a"/><path d="M123 127.69c0 1.38-3.62 2.77-7 2.88h.16c3.5.06 7.57-1.42 7.57-2.88s-4.07-3-7.57-2.89H116c3.4.11 7 1.5 7 2.89z" fill="#fdd224"/><path d="M116.22 130.57h1a12.1 12.1 0 0 1-7-2.86 12 12 0 0 1 7-2.87h-1a12 12 0 0 0-7.58 2.89 12.11 12.11 0 0 0 7.58 2.84z" fill="#ff990b"/><path d="M113 125.44a6.41 6.41 0 0 1 3-.75c1.4 0 3 .37 3 .75s-1.62.76-3 .75a6.41 6.41 0 0 1-3-.75z" fill="#484349"/><path fill="#7c7c21" d="M115.86 183.52v-1.09h9.26l.14 1.09h-9.4zm0-5.37v-1.09h8.58l.14 1.09h-8.72zm0-5.36v-1.1h7.9l.14 1.1h-8.04zm0-5.37v-1.09h7.22l.14 1.09h-7.36zm0-5.37v-1.09h6.53l.14 1.09h-6.67zm0-5.36v-1.09h5.85l.14 1.09h-5.99zm0-5.37v-1.09h5.17l.14 1.09h-5.31zm0-5.36v-1.1h4.49l.14 1.1h-4.63zm0-5.37v-1.09h3.81l.14 1.09h-3.95zm0-5.37v-1.09h3.13l.13 1.09h-3.26z"/><circle cx="125.33" cy="176.07" r="2.84" fill="#bc1b21"/><path d="M125.33 178.91a2.71 2.71 0 0 0 .41 0 2.84 2.84 0 0 1 0-5.61 2.73 2.73 0 0 0-.41 0 2.84 2.84 0 0 0 0 5.68z" fill="#96151f"/><circle cx="125.33" cy="176.07" r="1.54" fill="#cc2935"/><path d="M125.33 177.6h.21a1.53 1.53 0 0 1 0-3h-.21a1.54 1.54 0 1 0 0 3.07z" fill="#c11b30"/><circle cx="120.39" cy="144.73" r="2.84" fill="#bc1b21"/><path d="M120.39 147.57a2.71 2.71 0 0 0 .41 0 2.84 2.84 0 0 1 0-5.61 2.73 2.73 0 0 0-.41 0 2.84 2.84 0 0 0 0 5.68z" fill="#96151f"/><circle cx="120.39" cy="144.73" r="1.54" fill="#cc2935"/><path d="M120.39 146.26h.21a1.53 1.53 0 0 1 0-3h-.21a1.54 1.54 0 1 0 0 3.07z" fill="#c11b30"/><path d="M9.86 23.15v-.25a8.07 8.07 0 0 0 2.54-1 5.13 5.13 0 0 0 1.65-1.66 6.62 6.62 0 0 0 .86-2.24 5.36 5.36 0 0 1-1 .41 3.12 3.12 0 0 1-.82.11 3 3 0 0 1-2.32-1 3.9 3.9 0 0 1-.93-2.75 4.83 4.83 0 0 1 .51-2.22A3.66 3.66 0 0 1 11.82 11a3.62 3.62 0 0 1 4 .06 4.27 4.27 0 0 1 1.53 1.78 6 6 0 0 1 .57 2.65 7.88 7.88 0 0 1-.92 3.66A6.91 6.91 0 0 1 14.19 22a9.12 9.12 0 0 1-4.33 1.15zM15 17.21c.06-.68.09-1.27.09-1.78a11.58 11.58 0 0 0-.38-3.07 2.19 2.19 0 0 0-.64-1.15.8.8 0 0 0-.58-.2.8.8 0 0 0-.71.39 4.06 4.06 0 0 0-.35 2 7.1 7.1 0 0 0 .59 3.45 1.2 1.2 0 0 0 1 .62 2.24 2.24 0 0 0 .98-.26z" fill="#7f664a"/><path fill="none" stroke="#7f664a" stroke-miterlimit="10" stroke-width=".5" d="M9.25 24.51h9.17"/><path d="M121.36 202.9v-.25a8.07 8.07 0 0 0 2.54-1 5.13 5.13 0 0 0 1.65-1.66 6.62 6.62 0 0 0 .86-2.27 5.36 5.36 0 0 1-1 .41 3.12 3.12 0 0 1-.82.11 3 3 0 0 1-2.32-1 3.9 3.9 0 0 1-.93-2.75 4.83 4.83 0 0 1 .51-2.22 3.66 3.66 0 0 1 1.43-1.56 3.62 3.62 0 0 1 4 .06 4.27 4.27 0 0 1 1.53 1.78 6 6 0 0 1 .57 2.65 7.88 7.88 0 0 1-.93 3.71 6.91 6.91 0 0 1-2.76 2.84 9.12 9.12 0 0 1-4.33 1.15zm5.18-5.94c.06-.68.09-1.27.09-1.78a11.58 11.58 0 0 0-.38-3.07 2.19 2.19 0 0 0-.64-1.15.8.8 0 0 0-.58-.2.8.8 0 0 0-.71.39 4.06 4.06 0 0 0-.35 2 7.1 7.1 0 0 0 .59 3.45 1.2 1.2 0 0 0 1 .62 2.24 2.24 0 0 0 .98-.22z" fill="#7f664a"/><path fill="none" stroke="#7f664a" stroke-miterlimit="10" stroke-width=".5" d="M120.75 204.26h9.17"/></svg>