<svg xmlns="http://www.w3.org/2000/svg" viewBox="0 0 138.83 215.65"><defs><clipPath id="a"><path fill="#fff" d="M-154.5 259.52h126.17v201.67H-154.5z"/></clipPath><clipPath id="b"><path fill="none" d="M-154.5 259.52h126.17v201.67H-154.5z"/></clipPath></defs><path fill="#fff" d="M0 0h138.82v215.65H0z"/><path fill="none" stroke="#7f664a" stroke-miterlimit="10" stroke-width=".5" d="M27.76 208.74H6.94V8.91h20.82m34.71 199.83H41.66m55.52 0H76.36M111.07 8.91h20.81v199.83h-20.81M76.36 8.91h20.82m-55.52 0h20.81"/><path d="M11.4 17.18v-.31a5.88 5.88 0 0 0 1.43-.56 2.13 2.13 0 0 0 .69-.78 2.27 2.27 0 0 0 .29-1.08 1.75 1.75 0 0 0-.55-1.28 1.85 1.85 0 0 0-1.36-.54A2.56 2.56 0 0 0 9.75 14l-.33-.12a5.46 5.46 0 0 1 1.66-2.27 3.74 3.74 0 0 1 2.27-.76 3 3 0 0 1 2.1.78 2.42 2.42 0 0 1 .44 3.12 3.37 3.37 0 0 1-1.21 1.11 4.16 4.16 0 0 1 1.62 1.24 3.09 3.09 0 0 1 .55 1.9 4.36 4.36 0 0 1-1.39 3.26 5.12 5.12 0 0 1-3.71 1.34 3.86 3.86 0 0 1-2.27-.52 1.1 1.1 0 0 1-.48-.94 1 1 0 0 1 1-1 1.21 1.21 0 0 1 .56.13 8.83 8.83 0 0 1 1 .79 2.69 2.69 0 0 0 1.65.72 1.51 1.51 0 0 0 1.15-.53 1.94 1.94 0 0 0 .48-1.35 3.5 3.5 0 0 0-.87-2.28 4.6 4.6 0 0 0-2.57-1.44zm113 180.34v-.32a5.49 5.49 0 0 0 1.43-.56 2.13 2.13 0 0 0 .69-.78 2.24 2.24 0 0 0 .29-1.07 1.77 1.77 0 0 0-.55-1.29 1.85 1.85 0 0 0-1.36-.54 2.56 2.56 0 0 0-2.15 1.34l-.33-.12a5.42 5.42 0 0 1 1.66-2.26 3.67 3.67 0 0 1 2.27-.76 3 3 0 0 1 2.1.77 2.43 2.43 0 0 1 .82 1.82 2.39 2.39 0 0 1-.38 1.3 3.37 3.37 0 0 1-1.21 1.11 4.26 4.26 0 0 1 1.62 1.27 3.09 3.09 0 0 1 .55 1.89 4.34 4.34 0 0 1-1.39 3.26 5.12 5.12 0 0 1-3.71 1.34 4 4 0 0 1-2.27-.51 1.1 1.1 0 0 1-.52-.93 1 1 0 0 1 1-1 1.35 1.35 0 0 1 .56.13 10.38 10.38 0 0 1 1 .79 2.69 2.69 0 0 0 1.65.72 1.51 1.51 0 0 0 1.15-.53 1.91 1.91 0 0 0 .48-1.34 3.46 3.46 0 0 0-.87-2.28 4.48 4.48 0 0 0-2.53-1.45z" fill="#7f664a"/><path d="M23.67 178.06v-1.12L34.18 92h7l1 7.65.21 1.7.81 6.65.22 1.69.84 6.65.22 1.7.85 6.65.21 1.69.85 6.65.21 1.7.85 6.64.21 1.7.85 6.65.21 1.7.85 6.64.21 1.7.85 6.65.22 1.69.84 6.65.22 1.7.05.43a14.17 14.17 0 1 1-28.29 1.17z" fill="#a3af31"/><path d="M36.64 192.15c.4 0 .8.06 1.2.06A14.17 14.17 0 0 0 52 176.89L41.17 92h-2.39l10.79 84.88a14.16 14.16 0 0 1-12.93 15.27z" fill="#bbc144"/><path d="M37.84 192.21a14 14 0 0 0 2.35-.2 14.18 14.18 0 0 1-11.77-15.07L38.89 92h-4.71l-10.47 84.94a14.17 14.17 0 0 0 14.13 15.27z" fill="#969b2c"/><circle cx="26.57" cy="149.15" r="4.42" fill="#bc1b21"/><path d="M26.57 153.57a4.62 4.62 0 0 0 .65-.06 4.41 4.41 0 0 1 0-8.73 4.62 4.62 0 0 0-.65-.05 4.42 4.42 0 0 0 0 8.84z" fill="#96151f"/><circle cx="26.57" cy="149.15" r="2.39" fill="#cc2935"/><path d="M26.57 151.54a1.84 1.84 0 0 0 .33 0 2.39 2.39 0 0 1 0-4.73h-.33a2.39 2.39 0 0 0 0 4.78z" fill="#c11b30"/><path d="M26.06 89.64a18.77 18.77 0 0 1 11.78-4.49c5.44-.09 11.78 2.21 11.78 4.49s-6.34 4.58-11.78 4.48a18.78 18.78 0 0 1-11.78-4.48z" fill="#ffb21a"/><path d="M48.42 89.64c0 2.15-5.63 4.31-10.83 4.48h.25c5.44.1 11.78-2.2 11.78-4.48s-6.34-4.58-11.78-4.49h-.25c5.2.17 10.83 2.34 10.83 4.49z" fill="#fdd224"/><path d="M37.84 94.12h1.53a18.92 18.92 0 0 1-11-4.45 18.84 18.84 0 0 1 11-4.46h-1.53a18.77 18.77 0 0 0-11.78 4.49 18.78 18.78 0 0 0 11.78 4.42z" fill="#ff990b"/><path d="M32.88 86.14A10 10 0 0 1 37.59 85c2.18 0 4.71.57 4.71 1.16s-2.53 1.19-4.71 1.17a9.92 9.92 0 0 1-4.71-1.19z" fill="#484349"/><path fill="#7c7c21" d="M37.28 176.46v-1.7h14.41l.22 1.7H37.28zm0-8.35v-1.69h13.35l.22 1.69H37.28zm0-8.34v-1.7h12.28l.22 1.7h-12.5zm0-8.34v-1.7h11.23l.21 1.7H37.28zm0-8.35v-1.7h10.17l.21 1.7H37.28zm0-8.34v-1.7h9.11l.21 1.7h-9.32zm0-8.35v-1.69h8.05l.21 1.69h-8.26zm0-8.34v-1.7h6.98l.22 1.7h-7.2zm0-8.35v-1.69h5.92l.22 1.69h-6.14zm0-8.34v-1.7h4.87l.21 1.7h-5.08z"/><circle cx="52.01" cy="164.88" r="4.42" fill="#bc1b21"/><path d="M52 169.29a4.74 4.74 0 0 0 .65 0 4.41 4.41 0 0 1 0-8.73 4.74 4.74 0 0 0-.65 0 4.42 4.42 0 1 0 0 8.83z" fill="#96151f"/><circle cx="52.01" cy="164.88" r="2.39" fill="#cc2935"/><path d="M52 167.27a1.66 1.66 0 0 0 .32 0 2.39 2.39 0 0 1 0-4.73H52a2.39 2.39 0 1 0 0 4.78z" fill="#c11b30"/><circle cx="44.33" cy="116.14" r="4.42" fill="#bc1b21"/><path d="M44.33 120.56a4.48 4.48 0 0 0 .64-.06 4.41 4.41 0 0 1 0-8.73 4.48 4.48 0 0 0-.64 0 4.42 4.42 0 0 0 0 8.84z" fill="#96151f"/><circle cx="44.33" cy="116.14" r="2.39" fill="#cc2935"/><path d="M44.33 118.53a1.73 1.73 0 0 0 .32 0 2.39 2.39 0 0 1 0-4.73h-.32a2.39 2.39 0 0 0 0 4.78z" fill="#c11b30"/><path d="M83.91 178.06v-1.12L94.42 92h7l1 7.65.21 1.7.85 6.65.22 1.69.84 6.65.22 1.7.84 6.65.21 1.69.85 6.65.21 1.7.85 6.64.21 1.7.85 6.65.22 1.7.84 6.64.22 1.7.84 6.65.22 1.69.84 6.65.22 1.7v.43a14.17 14.17 0 1 1-28.29 1.17z" fill="#a3af31"/><path d="M96.89 192.15c.39 0 .79.06 1.19.06a14.18 14.18 0 0 0 14.13-15.32L101.41 92H99l10.79 84.88a14.16 14.16 0 0 1-12.9 15.27z" fill="#bbc144"/><path d="M98.08 192.21a14.09 14.09 0 0 0 2.36-.2 14.18 14.18 0 0 1-11.78-15.07L99.13 92h-4.71L84 176.94a14.17 14.17 0 0 0 14.08 15.27z" fill="#969b2c"/><circle cx="86.82" cy="149.15" r="4.42" fill="#bc1b21"/><path d="M86.82 153.57a4.48 4.48 0 0 0 .64-.06 4.41 4.41 0 0 1 0-8.73 4.48 4.48 0 0 0-.64-.05 4.42 4.42 0 0 0 0 8.84z" fill="#96151f"/><circle cx="86.82" cy="149.15" r="2.39" fill="#cc2935"/><path d="M86.82 151.54a1.73 1.73 0 0 0 .32 0 2.39 2.39 0 0 1 0-4.73h-.32a2.39 2.39 0 0 0 0 4.78z" fill="#c11b30"/><path d="M86.3 89.64a18.8 18.8 0 0 1 11.78-4.49c5.44-.09 11.78 2.21 11.78 4.49s-6.34 4.58-11.78 4.48a18.81 18.81 0 0 1-11.78-4.48z" fill="#ffb21a"/><path d="M108.67 89.64c0 2.15-5.63 4.31-10.84 4.48h.25c5.44.1 11.78-2.2 11.78-4.48s-6.34-4.58-11.78-4.49h-.25c5.17.17 10.84 2.34 10.84 4.49z" fill="#fdd224"/><path d="M98.08 94.12h1.54a18.88 18.88 0 0 1-11-4.45 18.8 18.8 0 0 1 11-4.46h-1.54a18.8 18.8 0 0 0-11.78 4.43 18.81 18.81 0 0 0 11.78 4.48z" fill="#ff990b"/><path d="M93.12 86.14A10 10 0 0 1 97.83 85c2.18 0 4.71.57 4.71 1.16s-2.53 1.19-4.71 1.17a10 10 0 0 1-4.71-1.19z" fill="#484349"/><path fill="#7c7c21" d="M97.53 176.46v-1.7h14.4l.22 1.7H97.53zm0-8.35v-1.69h13.34l.22 1.69H97.53zm0-8.34v-1.7h12.28l.22 1.7h-12.5zm0-8.34v-1.7h11.22l.22 1.7H97.53zm0-8.35v-1.7h10.16l.22 1.7H97.53zm0-8.34v-1.7h9.1l.21 1.7h-9.31zm0-8.35v-1.69h8.04l.21 1.69h-8.25zm0-8.34v-1.7h6.98l.22 1.7h-7.2zm0-8.35v-1.69h5.92l.22 1.69h-6.14zm0-8.34v-1.7h4.86l.21 1.7h-5.07z"/><circle cx="112.25" cy="164.88" r="4.42" fill="#bc1b21"/><path d="M112.25 169.29a4.62 4.62 0 0 0 .65 0 4.41 4.41 0 0 1 0-8.73 4.62 4.62 0 0 0-.65 0 4.42 4.42 0 0 0 0 8.83z" fill="#96151f"/><circle cx="112.25" cy="164.88" r="2.39" fill="#cc2935"/><path d="M112.25 167.27h.33a2.39 2.39 0 0 1 0-4.73h-.33a2.39 2.39 0 1 0 0 4.78z" fill="#c11b30"/><circle cx="104.57" cy="116.14" r="4.42" fill="#bc1b21"/><path d="M104.57 120.56a4.62 4.62 0 0 0 .65-.06 4.41 4.41 0 0 1 0-8.73 4.62 4.62 0 0 0-.65 0 4.42 4.42 0 1 0 0 8.84z" fill="#96151f"/><circle cx="104.57" cy="116.14" r="2.39" fill="#cc2935"/><path d="M104.57 118.53a1.66 1.66 0 0 0 .32 0 2.39 2.39 0 0 1 0-4.73h-.32a2.39 2.39 0 1 0 0 4.78z" fill="#c11b30"/><path d="M85 37.59c0 .37 0 .74-.05 1.12l-10.43 84.93h-7l-1-7.65-.22-1.7-.84-6.65-.18-1.64-.84-6.65-.22-1.7-.84-6.65-.22-1.69-.84-6.65-.22-1.7-.84-6.64-.26-1.75-.85-6.65-.15-1.7-.84-6.64-.22-1.7-.84-6.65-.22-1.69-.88-6.65-.22-1.7-.06-.43A14.17 14.17 0 1 1 85 37.59z" fill="#a3af31"/><path d="M72.06 23.5c-.39 0-.79-.06-1.2-.06a14.18 14.18 0 0 0-14.12 15.32l10.79 84.88h2.39L59.13 38.76A14.16 14.16 0 0 1 72.06 23.5z" fill="#bbc144"/><path d="M70.86 23.44a14 14 0 0 0-2.35.2 14.17 14.17 0 0 1 11.77 15.07l-10.47 84.93h4.71L85 38.71a14.17 14.17 0 0 0-14.14-15.27z" fill="#969b2c"/><circle cx="82.13" cy="66.5" r="4.42" fill="#bc1b21"/><path d="M82.13 62.08a4.76 4.76 0 0 0-.65.06 4.41 4.41 0 0 1 0 8.73 4.74 4.74 0 0 0 .65 0 4.42 4.42 0 0 0 0-8.84z" fill="#96151f"/><circle cx="82.13" cy="66.5" r="2.39" fill="#cc2935"/><path d="M82.13 64.11a1.66 1.66 0 0 0-.32 0 2.39 2.39 0 0 1 0 4.73h.32a2.39 2.39 0 0 0 0-4.78z" fill="#c11b30"/><path d="M82.64 126a18.77 18.77 0 0 1-11.78 4.49c-5.44.09-11.78-2.21-11.78-4.49s6.34-4.58 11.78-4.48A18.78 18.78 0 0 1 82.64 126z" fill="#ffb21a"/><path d="M60.28 126c0-2.15 5.63-4.31 10.83-4.48h-.25c-5.44-.1-11.78 2.2-11.78 4.48s6.34 4.58 11.78 4.49h.25c-5.2-.16-10.83-2.33-10.83-4.49z" fill="#fdd224"/><path d="M70.86 121.53h-1.53a18.92 18.92 0 0 1 11 4.45 18.84 18.84 0 0 1-11 4.46h1.53A18.77 18.77 0 0 0 82.64 126a18.78 18.78 0 0 0-11.78-4.47z" fill="#ff990b"/><path d="M75.82 129.51a10 10 0 0 1-4.71 1.16c-2.17 0-4.71-.57-4.71-1.16s2.54-1.19 4.71-1.17a9.92 9.92 0 0 1 4.71 1.17z" fill="#484349"/><path fill="#7c7c21" d="M71.42 39.19v1.7h-14.4l-.22-1.7h14.62zm0 8.35v1.69H58.08l-.22-1.69h13.56zm0 8.34v1.7H59.14l-.22-1.7h12.5zm0 8.34v1.7H60.19l-.21-1.7h11.44zm0 8.35v1.7H61.26l-.22-1.7h10.38zm0 8.34v1.7h-9.1l-.22-1.7h9.32zm0 8.35v1.69h-8.04l-.22-1.69h8.26zm0 8.34v1.7h-6.98l-.22-1.7h7.2zm0 8.35v1.69H65.5l-.22-1.69h6.14zm0 8.34v1.7h-4.86l-.22-1.7h5.08z"/><circle cx="56.69" cy="50.77" r="4.42" fill="#bc1b21"/><path d="M56.69 46.36a4.48 4.48 0 0 0-.64 0 4.41 4.41 0 0 1 0 8.73 4.48 4.48 0 0 0 .64 0 4.42 4.42 0 1 0 0-8.83z" fill="#96151f"/><circle cx="56.69" cy="50.77" r="2.39" fill="#cc2935"/><path d="M56.69 48.38a1.73 1.73 0 0 0-.32 0 2.39 2.39 0 0 1 0 4.73h.32a2.39 2.39 0 1 0 0-4.78z" fill="#c11b30"/><circle cx="64.38" cy="99.51" r="4.42" fill="#bc1b21"/><path d="M64.38 95.09a4.62 4.62 0 0 0-.65.06 4.41 4.41 0 0 1 0 8.73 4.62 4.62 0 0 0 .65.05 4.42 4.42 0 0 0 0-8.84z" fill="#96151f"/><circle cx="64.38" cy="99.51" r="2.39" fill="#cc2935"/><path d="M64.38 97.12a1.84 1.84 0 0 0-.33 0 2.39 2.39 0 0 1 0 4.73h.33a2.39 2.39 0 0 0 0-4.78z" fill="#c11b30"/><path fill="#fff" d="M-154.5 259.52h126.17v201.67H-154.5z"/><g clip-path="url(#a)" fill="#fff"><path d="M-292.99 159.7H80.1v387.36h-373.09z"/><path d="m67.26 341.62-176.17-181.26.64-.66L67.9 340.96l-.64.66zm-6.14 6.32-176.16-181.26.64-.66L61.77 347.27l-.65.67zm-6.13 6.31-176.17-181.26.64-.66L55.63 353.59l-.64.66zm-6.14 6.31-176.17-181.25.65-.67L49.49 359.9l-.64.66zm-6.14 6.32-176.16-181.26.64-.66L43.36 366.22l-.65.66zm-6.13 6.31-176.17-181.26.65-.66L37.22 372.53l-.64.66zm-6.14 6.31-176.16-181.25.64-.67L31.08 378.84l-.64.66zm-6.13 6.32-176.17-181.26.64-.66L24.95 385.16l-.64.66zm-6.14 6.31L-158 210.87l.65-.66L18.81 391.47l-.64.66zm13.42-14.42-157.66-162.22.32-.33L31.91 377.38l-.32.33zm6.14-6.31-157.66-162.22.32-.33L38.05 371.06l-.32.34zm6.13-6.32-157.65-162.21.32-.33L44.19 364.75l-.33.33zm6.14-6.31-157.66-162.22.32-.33L50.32 358.44l-.32.33zm6.14-6.31-157.66-162.22.32-.33L56.46 352.13l-.32.33z"/></g><g clip-path="url(#b)"><path fill="none" d="M-297.23 149.94H75.86V537.3h-373.09z"/><path fill="#96151f" d="M63.02 331.86-113.15 150.6l.64-.66L63.66 331.19l-.64.67zm-6.14 6.31-176.16-181.26.64-.66L57.52 337.51l-.64.66zm-6.14 6.31-176.16-181.26.64-.66L51.39 343.82l-.65.66zm-6.13 6.32-176.17-181.26.65-.66L45.25 350.14l-.64.66zm-6.14 6.31-176.16-181.26.64-.66L39.12 356.45l-.65.66zm-6.13 6.31-176.17-181.26.64-.66L32.98 362.76l-.64.66zm-6.14 6.32-176.17-181.26.65-.66L26.84 369.08l-.64.66zm-6.14 6.31L-156.1 194.79l.64-.66L20.71 375.39l-.65.66zm-6.13 6.32-176.17-181.26.65-.67L14.57 381.7l-.64.67zm-6.14 6.31-176.16-181.26.64-.66L8.43 388.02l-.64.66zm-6.13 6.31-176.17-181.26.64-.66L2.3 394.33l-.64.66zm19.55-20.73-157.65-162.22.32-.33L21.54 373.93l-.33.33zm6.14-6.32-157.66-162.21.32-.33L27.67 367.61l-.32.33zm6.14-6.31-157.66-162.22.32-.33L33.81 361.3l-.32.33zm6.13-6.31L-118.03 193.1l.32-.33L39.94 354.99l-.32.33zm6.14-6.32L-111.9 186.79l.32-.33L46.08 348.67l-.32.33zm6.14-6.31-157.66-162.22.32-.33L52.22 342.36l-.32.33z"/></g></svg>