<svg xmlns="http://www.w3.org/2000/svg" viewBox="0 0 138.83 215.65"><path fill="#fff" d="M0 0h138.82v215.65H0z"/><path fill="none" stroke="#7f664a" stroke-miterlimit="10" stroke-width=".5" d="M27.76 209.45H6.94V9.63h20.82m34.71 199.82H41.66m55.52 0H76.36M111.07 9.63h20.81v199.82h-20.81M76.36 9.63h20.82m-55.52 0h20.81"/><path d="M11.48 12.08h5.74l-.91 2.33h-4.83L11 15.63a7.58 7.58 0 0 1 4.8 1.55 3.73 3.73 0 0 1 1.38 2.95 4.23 4.23 0 0 1-.64 2.2A4.3 4.3 0 0 1 14.75 24a5.69 5.69 0 0 1-2.55.58A4.06 4.06 0 0 1 9.89 24a1.14 1.14 0 0 1-.56-.9 1 1 0 0 1 .3-.69.91.91 0 0 1 .68-.3 1.85 1.85 0 0 1 .71.15 7.43 7.43 0 0 1 1.24.75 4.53 4.53 0 0 0 1 .53 1.81 1.81 0 0 0 .63.11 1.64 1.64 0 0 0 1.26-.55 1.79 1.79 0 0 0 .52-1.3A3 3 0 0 0 14 19.24a7.47 7.47 0 0 0-4-1h-.71zm112.34 179.33h5.73l-.91 2.33h-4.82l-.46 1.22a7.67 7.67 0 0 1 4.79 1.55 3.71 3.71 0 0 1 1.39 3 4.36 4.36 0 0 1-.64 2.21 4.28 4.28 0 0 1-1.81 1.66 5.63 5.63 0 0 1-2.56.58 3.93 3.93 0 0 1-2.3-.56 1.09 1.09 0 0 1-.56-.9 1 1 0 0 1 .29-.69.93.93 0 0 1 .68-.3 1.86 1.86 0 0 1 .72.15 7.76 7.76 0 0 1 1.23.76 4.42 4.42 0 0 0 1 .52 1.83 1.83 0 0 0 .64.11 1.69 1.69 0 0 0 1.26-.54 1.85 1.85 0 0 0 .52-1.3 3 3 0 0 0-1.59-2.59 7.49 7.49 0 0 0-4-1h-.73z" fill="#7f664a"/><path d="M30.32 130.72c.16.21.31.44.45.66l29.71 53.32-4 2.94-3.78-4-.84-.89-3.28-3.48-.84-.88-3.29-3.47-.84-.89-3.28-3.47-.84-.89-3.28-3.47-.84-.89-3.28-3.47-.84-.89-3.29-3.47-.84-.89-3.28-3.47-.84-.89-3.28-3.47-.84-.88-3.29-3.48-.84-.88-.2-.23a10.1 10.1 0 1 1 15.79-12.58z" fill="#a3af31"/><path d="M16.92 128.07c-.24.15-.48.3-.71.47a10.11 10.11 0 0 0-1.69 14.77l41.94 44.33 1.38-1L15.9 142.3a10.11 10.11 0 0 1 1.02-14.23z" fill="#bbc144"/><path d="M16.21 128.54a10.45 10.45 0 0 0-1.27 1.1 10.11 10.11 0 0 1 13.12 3.73l29.71 53.31 2.72-2-29.72-53.3a10.11 10.11 0 0 0-14.56-2.84z" fill="#969b2c"/><circle cx="40.82" cy="148.59" r="3.15" fill="#bc1b21"/><path d="M39 146.05a3.44 3.44 0 0 0-.35.3 3.15 3.15 0 0 1 3.67 5 3.26 3.26 0 0 0 .4-.24 3.15 3.15 0 0 0-3.72-5.06z" fill="#96151f"/><circle cx="40.82" cy="148.59" r="1.7" fill="#cc2935"/><path d="M39.81 147.22a.8.8 0 0 0-.17.15 1.7 1.7 0 0 1 2 2.72 1.06 1.06 0 0 0 .2-.12 1.71 1.71 0 1 0-2-2.75z" fill="#c11b30"/><path d="M66.16 182.65a13.37 13.37 0 0 1-4.89 7.54c-3.1 2.34-7.72 3.69-8.68 2.37s1.73-5.3 4.9-7.54a13.37 13.37 0 0 1 8.67-2.37z" fill="#ffb21a"/><path d="M53.28 192.06c-.9-1.24 1.43-4.85 4.36-7.14l-.15.1c-3.17 2.24-5.86 6.23-4.9 7.54s5.58 0 8.68-2.37l.14-.11c-3.07 2.1-7.22 3.22-8.13 1.98z" fill="#fdd224"/><path d="M57.49 185c-.3.21-.59.43-.87.67a13.42 13.42 0 0 1 8.18-2.05 13.41 13.41 0 0 1-4.43 7.18q.47-.3.9-.63a13.37 13.37 0 0 0 4.89-7.54 13.37 13.37 0 0 0-8.67 2.37z" fill="#ff990b"/><path d="M63.7 187.53a7 7 0 0 1-2.22 2.65c-1.24.93-2.95 1.66-3.2 1.32s1-1.75 2.22-2.66a7.17 7.17 0 0 1 3.2-1.31z" fill="#484349"/><path fill="#7c7c21" d="m23.16 137.37.71.98-8.3 6.06-.84-.88 8.43-6.16zm3.51 4.81.71.98-7.68 5.61-.84-.88 7.81-5.71zm3.51 4.8.71.98-7.07 5.17-.84-.88 7.2-5.27zm3.51 4.81.72.98-6.47 4.72-.83-.89 6.58-4.81zm3.51 4.81.72.97-5.86 4.28-.83-.88 5.97-4.37zm3.52 4.8.71.98-5.24 3.83-.84-.89 5.37-3.92zm3.51 4.81.71.97-4.63 3.39-.84-.89 4.76-3.47zm3.51 4.8.71.98-4.01 2.94-.85-.89 4.15-3.03zm3.51 4.81.72.97-3.41 2.49-.84-.88 3.53-2.58zm3.51 4.8.72.98-2.8 2.05-.84-.89 2.92-2.14z"/><circle cx="19.55" cy="150.24" r="3.15" fill="#bc1b21"/><path d="M17.69 147.7a3.27 3.27 0 0 0-.35.3 3.15 3.15 0 0 1 3.66 5 4.11 4.11 0 0 0 .39-.24 3.15 3.15 0 1 0-3.72-5.09z" fill="#96151f"/><circle cx="19.55" cy="150.24" r="1.7" fill="#cc2935"/><path d="M18.55 148.87a.65.65 0 0 0-.18.15 1.7 1.7 0 0 1 2 2.72l.2-.12a1.7 1.7 0 0 0-2-2.75z" fill="#c11b30"/><circle cx="44.49" cy="175.08" r="3.15" fill="#bc1b21"/><path d="M42.63 172.53a3.44 3.44 0 0 0-.35.3 3.15 3.15 0 0 1 3.67 5 3.26 3.26 0 0 0 .4-.24 3.15 3.15 0 0 0-3.72-5.09z" fill="#96151f"/><circle cx="44.49" cy="175.08" r="1.7" fill="#cc2935"/><path d="m43.48 173.7-.17.15a1.7 1.7 0 0 1 2 2.72 1 1 0 0 0 .19-.12 1.7 1.7 0 0 0-2-2.75z" fill="#c11b30"/><path d="M108.5 130.72c-.15.21-.3.44-.44.66L78.34 184.7l4 2.94 3.78-4 .83-.89 3.29-3.48.84-.88 3.28-3.47.84-.89 3.28-3.47.84-.89 3.29-3.47.83-.89 3.29-3.47.84-.89 3.28-3.47.84-.89 3.28-3.47.84-.89 3.29-3.47.84-.88 3.28-3.48.84-.88.21-.23a10.11 10.11 0 1 0-15.8-12.58z" fill="#a3af31"/><path d="M121.9 128.07c.25.15.48.3.72.47a10.12 10.12 0 0 1 1.68 14.77l-41.93 44.33-1.38-1 41.94-44.33a10.1 10.1 0 0 0-1.03-14.24z" fill="#bbc144"/><path d="M122.62 128.54a11.27 11.27 0 0 1 1.27 1.1 10.11 10.11 0 0 0-13.12 3.73l-29.72 53.31-2.71-2 29.72-53.32a10.11 10.11 0 0 1 14.56-2.82z" fill="#969b2c"/><circle cx="98.01" cy="148.59" r="3.15" fill="#bc1b21"/><path d="M99.87 146.05c.12.09.24.2.35.3a3.15 3.15 0 0 0-3.68 5 3.15 3.15 0 1 1 3.33-5.33z" fill="#96151f"/><circle cx="98.01" cy="148.59" r="1.7" fill="#cc2935"/><path d="M99 147.22a.84.84 0 0 1 .18.15 1.7 1.7 0 0 0-2 2.72.82.82 0 0 1-.18-.09 1.7 1.7 0 1 1 2-2.75z" fill="#c11b30"/><path d="M72.66 182.65a13.46 13.46 0 0 0 4.9 7.54c3.09 2.34 7.71 3.69 8.67 2.37s-1.72-5.3-4.89-7.54a13.4 13.4 0 0 0-8.68-2.37z" fill="#ffb21a"/><path d="M85.54 192.06c.91-1.24-1.42-4.85-4.35-7.14l.15.1c3.17 2.24 5.85 6.23 4.89 7.54s-5.58 0-8.67-2.37l-.14-.11c3.07 2.1 7.22 3.22 8.12 1.98z" fill="#fdd224"/><path d="M81.34 185c.29.21.58.43.87.67a13.44 13.44 0 0 0-8.21-2.03 13.45 13.45 0 0 0 4.44 7.18q-.46-.3-.9-.63a13.46 13.46 0 0 1-4.9-7.54 13.4 13.4 0 0 1 8.7 2.35z" fill="#ff990b"/><path d="M75.12 187.53a7 7 0 0 0 2.22 2.65c1.25.93 3 1.66 3.21 1.32s-1-1.75-2.23-2.66a7.09 7.09 0 0 0-3.2-1.31z" fill="#484349"/><path fill="#7c7c21" d="m115.67 137.37-.71.98 8.29 6.06.84-.88-8.42-6.16zm-3.51 4.81-.72.98 7.69 5.61.84-.88-7.81-5.71zm-3.51 4.8-.72.98 7.07 5.17.84-.88-7.19-5.27zm-3.52 4.81-.71.98 6.46 4.72.84-.89-6.59-4.81zm-3.51 4.81-.71.97 5.85 4.28.84-.88-5.98-4.37zm-3.51 4.8-.71.98 5.24 3.83.83-.89-5.36-3.92zm-3.51 4.81-.72.97 4.63 3.39.84-.89-4.75-3.47zm-3.51 4.8-.72.98 4.02 2.94.84-.89-4.14-3.03zm-3.52 4.81-.71.97 3.41 2.49.84-.88-3.54-2.58zm-3.51 4.8-.71.98 2.8 2.05.83-.89-2.92-2.14z"/><circle cx="119.27" cy="150.24" r="3.15" fill="#bc1b21"/><path d="M121.13 147.7a2.52 2.52 0 0 1 .35.3 3.15 3.15 0 0 0-3.67 5 3.26 3.26 0 0 1-.4-.24 3.15 3.15 0 0 1 3.72-5.09z" fill="#96151f"/><circle cx="119.27" cy="150.24" r="1.7" fill="#cc2935"/><path d="M120.28 148.87a1.19 1.19 0 0 1 .18.15 1.7 1.7 0 0 0-2 2.72 2 2 0 0 1-.19-.12 1.7 1.7 0 1 1 2-2.75z" fill="#c11b30"/><circle cx="94.34" cy="175.08" r="3.15" fill="#bc1b21"/><path d="M96.2 172.53c.12.09.24.2.35.3a3.15 3.15 0 0 0-3.68 5l-.39-.24a3.15 3.15 0 1 1 3.72-5.09z" fill="#96151f"/><circle cx="94.34" cy="175.08" r="1.7" fill="#cc2935"/><path d="m95.34 173.7.18.15a1.72 1.72 0 0 0-2.19.49 1.69 1.69 0 0 0 .2 2.23.82.82 0 0 1-.2-.12 1.7 1.7 0 1 1 2-2.75z" fill="#c11b30"/><path d="M108.5 84.93c-.15-.21-.3-.44-.44-.66L78.34 31l4-2.94 3.78 4 .83.89 3.29 3.48.84.88 3.28 3.47.84.89 3.28 3.47.84.89 3.29 3.47.83.89 3.29 3.47.84.89 3.28 3.47.84.89 3.31 3.41.84.89 3.29 3.47.84.88 3.28 3.48.84.88.21.23a10.11 10.11 0 1 1-15.8 12.58z" fill="#a3af31"/><path d="M121.9 87.58c.25-.15.48-.3.72-.47a10.12 10.12 0 0 0 1.68-14.77L82.37 28 81 29l41.94 44.33a10.1 10.1 0 0 1-1.04 14.25z" fill="#bbc144"/><path d="M122.62 87.11a11.27 11.27 0 0 0 1.27-1.1 10.11 10.11 0 0 1-13.12-3.73L81.05 29l-2.71 2 29.72 53.32a10.11 10.11 0 0 0 14.56 2.79z" fill="#969b2c"/><circle cx="98.01" cy="67.06" r="3.15" fill="#bc1b21"/><path d="M99.87 69.6c.12-.09.24-.2.35-.3a3.15 3.15 0 0 1-3.68-5 3.15 3.15 0 1 0 3.33 5.33z" fill="#96151f"/><circle cx="98.01" cy="67.06" r="1.7" fill="#cc2935"/><path d="M99 68.43a.84.84 0 0 0 .18-.15 1.7 1.7 0 0 1-2-2.72.82.82 0 0 0-.2.12 1.7 1.7 0 1 0 2 2.75z" fill="#c11b30"/><path d="M72.66 33a13.46 13.46 0 0 1 4.9-7.54c3.09-2.34 7.71-3.69 8.67-2.37s-1.72 5.3-4.89 7.54A13.4 13.4 0 0 1 72.66 33z" fill="#ffb21a"/><path d="M85.54 23.59c.91 1.24-1.42 4.85-4.35 7.14l.15-.1c3.17-2.24 5.85-6.23 4.89-7.54s-5.58 0-8.67 2.37l-.14.11c3.07-2.1 7.22-3.22 8.12-1.98z" fill="#fdd224"/><path d="M81.34 30.63c.29-.21.58-.43.87-.67A13.44 13.44 0 0 1 74 32a13.45 13.45 0 0 1 4.44-7.18q-.46.3-.9.63A13.46 13.46 0 0 0 72.66 33a13.4 13.4 0 0 0 8.68-2.37z" fill="#ff990b"/><path d="M75.12 28.12a7 7 0 0 1 2.22-2.65c1.25-.93 3-1.66 3.21-1.32s-1 1.75-2.23 2.66a7.09 7.09 0 0 1-3.2 1.31z" fill="#484349"/><path fill="#7c7c21" d="m115.67 78.28-.71-.98 8.29-6.06.84.88-8.42 6.16zm-3.51-4.81-.72-.98 7.69-5.61.84.88-7.81 5.71zm-3.51-4.8-.72-.98 7.07-5.17.84.89-7.19 5.26zm-3.52-4.81-.71-.98 6.46-4.72.84.89-6.59 4.81zm-3.51-4.81-.71-.97 5.85-4.28.84.89-5.98 4.36zm-3.51-4.8-.71-.98 5.24-3.83.83.89-5.36 3.92zm-3.51-4.81-.72-.97 4.63-3.39.84.89-4.75 3.47zm-3.51-4.8-.72-.98 4.02-2.94.84.89-4.14 3.03zm-3.52-4.81-.71-.97 3.41-2.49.84.88-3.54 2.58zm-3.51-4.8-.71-.98 2.8-2.05.83.89-2.92 2.14z"/><circle cx="119.27" cy="65.41" r="3.15" fill="#bc1b21"/><path d="M121.13 68a2.52 2.52 0 0 0 .35-.3 3.15 3.15 0 0 1-3.67-5 3.26 3.26 0 0 0-.4.24 3.15 3.15 0 0 0 3.72 5.06z" fill="#96151f"/><circle cx="119.27" cy="65.41" r="1.7" fill="#cc2935"/><path d="M120.28 66.78a1.19 1.19 0 0 0 .18-.15 1.7 1.7 0 0 1-2-2.72 2 2 0 0 0-.19.12 1.7 1.7 0 1 0 2 2.75z" fill="#c11b30"/><circle cx="94.34" cy="40.57" r="3.15" fill="#bc1b21"/><path d="M96.2 43.12c.12-.09.24-.2.35-.3a3.15 3.15 0 0 1-3.68-5 4.11 4.11 0 0 0-.39.24 3.15 3.15 0 1 0 3.72 5.09z" fill="#96151f"/><circle cx="94.34" cy="40.57" r="1.7" fill="#cc2935"/><path d="m95.34 42 .18-.15a1.72 1.72 0 0 1-2.19-.49 1.69 1.69 0 0 1 .2-2.23.82.82 0 0 0-.2.12 1.7 1.7 0 1 0 2 2.75z" fill="#c11b30"/><path d="M30.32 84.93c.16-.21.31-.44.45-.66L60.48 31l-4-2.94-3.78 4-.84.89-3.28 3.48-.84.88-3.29 3.47-.84.89-3.28 3.47-.84.89-3.28 3.47-.84.89-3.3 3.41-.84.89-3.29 3.47-.84.89-3.28 3.47-.84.89-3.28 3.47-.84.88-3.29 3.48-.84.88-.2.23a10.1 10.1 0 1 0 15.79 12.58z" fill="#a3af31"/><path d="M16.92 87.58c-.24-.15-.48-.3-.71-.47a10.11 10.11 0 0 1-1.69-14.77L56.46 28l1.38 1L15.9 73.35a10.11 10.11 0 0 0 1.02 14.23z" fill="#bbc144"/><path d="M16.21 87.11A10.45 10.45 0 0 1 14.94 86a10.11 10.11 0 0 0 13.12-3.73L57.77 29l2.72 2-29.72 53.27a10.11 10.11 0 0 1-14.56 2.84z" fill="#969b2c"/><circle cx="40.82" cy="67.06" r="3.15" fill="#bc1b21"/><path d="M39 69.6a3.44 3.44 0 0 1-.35-.3 3.15 3.15 0 0 0 3.67-5 3.26 3.26 0 0 1 .4.24A3.15 3.15 0 0 1 39 69.6z" fill="#96151f"/><circle cx="40.82" cy="67.06" r="1.7" fill="#cc2935"/><path d="M39.81 68.43a.8.8 0 0 1-.17-.15 1.7 1.7 0 0 0 2-2.72 1.06 1.06 0 0 1 .2.12 1.71 1.71 0 1 1-2 2.75z" fill="#c11b30"/><path d="M66.16 33a13.37 13.37 0 0 0-4.89-7.54c-3.1-2.34-7.72-3.69-8.68-2.37s1.73 5.3 4.9 7.54A13.37 13.37 0 0 0 66.16 33z" fill="#ffb21a"/><path d="M53.28 23.59c-.9 1.24 1.43 4.85 4.36 7.14l-.15-.1c-3.17-2.24-5.86-6.23-4.9-7.54s5.58 0 8.68 2.37l.14.11c-3.07-2.1-7.22-3.22-8.13-1.98z" fill="#fdd224"/><path d="M57.49 30.63c-.3-.21-.59-.43-.87-.67a13.42 13.42 0 0 0 8.18 2 13.41 13.41 0 0 0-4.43-7.18q.47.3.9.63A13.37 13.37 0 0 1 66.16 33a13.37 13.37 0 0 1-8.67-2.37z" fill="#ff990b"/><path d="M63.7 28.12a7 7 0 0 0-2.22-2.65c-1.24-.93-2.95-1.66-3.2-1.32s1 1.75 2.22 2.66a7.17 7.17 0 0 0 3.2 1.31z" fill="#484349"/><path fill="#7c7c21" d="m23.16 78.28.71-.98-8.3-6.06-.84.88 8.43 6.16zm3.51-4.81.71-.98-7.68-5.61-.84.88 7.81 5.71zm3.51-4.8.71-.98-7.07-5.17-.84.89 7.2 5.26zm3.51-4.81.72-.98-6.47-4.72-.83.89 6.58 4.81zm3.51-4.81.72-.97-5.86-4.28-.83.89 5.97 4.36zm3.52-4.8.71-.98-5.24-3.83-.84.89 5.37 3.92zm3.51-4.81.71-.97-4.63-3.39-.84.89 4.76 3.47zm3.51-4.8.71-.98-4.01-2.94-.85.89 4.15 3.03zm3.51-4.81.72-.97-3.41-2.49-.84.88 3.53 2.58zm3.51-4.8.72-.98-2.8-2.05-.84.89 2.92 2.14z"/><circle cx="19.55" cy="65.41" r="3.15" fill="#bc1b21"/><path d="M17.69 68a3.27 3.27 0 0 1-.35-.3 3.15 3.15 0 0 0 3.68-5l.39.24A3.15 3.15 0 1 1 17.69 68z" fill="#96151f"/><circle cx="19.55" cy="65.41" r="1.7" fill="#cc2935"/><path d="M18.55 66.78a.65.65 0 0 1-.18-.15 1.7 1.7 0 0 0 2-2.72l.2.12a1.7 1.7 0 0 1-2 2.75z" fill="#c11b30"/><circle cx="44.49" cy="40.57" r="3.15" fill="#bc1b21"/><path d="M42.63 43.12a3.44 3.44 0 0 1-.35-.3 3.15 3.15 0 0 0 3.67-5 3.26 3.26 0 0 1 .4.24 3.15 3.15 0 0 1-3.72 5.09z" fill="#96151f"/><circle cx="44.49" cy="40.57" r="1.7" fill="#cc2935"/><path d="m43.48 42-.17-.15a1.7 1.7 0 0 0 2-2.72 1 1 0 0 1 .19.12 1.7 1.7 0 1 1-2 2.75z" fill="#c11b30"/><path d="M28.35 91.57c.38 0 .77 0 1.16.05l88.36 10.89v7.27l-8 1-1.76.22-6.92.87-1.76.23-6.92.88-1.77.23-6.91.87-1.76.23-6.92.88-1.77.22-6.91.88-1.77.22-6.92.89-1.76.22-6.91.87-1.77.23-6.92.88-1.76.23-6.92.87-1.74.3h-.45a14.74 14.74 0 1 1-1.22-29.43z" fill="#a3af31"/><path d="M13.69 105.07c0 .41-.06.83-.06 1.24A14.75 14.75 0 0 0 29.57 121l88.3-11.23v-2.49l-88.3 11.23a14.74 14.74 0 0 1-15.88-13.44z" fill="#bbc144"/><path d="M13.63 106.31a15.09 15.09 0 0 0 .21 2.45 14.74 14.74 0 0 1 15.67-12.24l88.36 10.89v-4.9L29.51 91.62a14.73 14.73 0 0 0-15.88 14.69z" fill="#969b2c"/><circle cx="58.43" cy="94.59" r="4.6" fill="#bc1b21"/><path d="M53.83 94.59a5.05 5.05 0 0 0 .06.68 4.59 4.59 0 0 1 9.08 0 5.05 5.05 0 0 0 .06-.68 4.6 4.6 0 0 0-9.2 0z" fill="#96151f"/><circle cx="58.43" cy="94.59" r="2.49" fill="#cc2935"/><path d="M55.94 94.59a1.87 1.87 0 0 0 0 .34 2.48 2.48 0 0 1 4.92 0 1.87 1.87 0 0 0 0-.34 2.49 2.49 0 0 0-5 0z" fill="#c11b30"/><path d="M120.34 94.06a19.49 19.49 0 0 1 4.66 12.25c.1 5.67-2.3 12.26-4.67 12.26s-4.76-6.59-4.66-12.26a19.56 19.56 0 0 1 4.67-12.25z" fill="#ffb21a"/><path d="M120.34 117.33c-2.23 0-4.48-5.86-4.66-11.27v.25c-.1 5.67 2.29 12.26 4.66 12.26s4.77-6.59 4.67-12.26a2.09 2.09 0 0 0 0-.25c-.18 5.41-2.43 11.27-4.67 11.27z" fill="#fdd224"/><path d="M115.68 106.31v1.6a19.57 19.57 0 0 1 4.63-11.4 19.56 19.56 0 0 1 4.64 11.4v-1.6a19.49 19.49 0 0 0-4.67-12.25 19.56 19.56 0 0 0-4.6 12.25z" fill="#ff990b"/><path d="M124 101.16a10.28 10.28 0 0 1 1.21 4.9c0 2.26-.59 4.9-1.21 4.9s-1.24-2.64-1.21-4.9a10.28 10.28 0 0 1 1.21-4.9z" fill="#484349"/><path fill="#7c7c21" d="M30.02 105.74h1.76v14.98l-1.76.23v-15.21zm8.68 0h1.76v13.88l-1.76.23v-14.11zm8.68 0h1.77v12.77l-1.77.23v-13zm8.68 0h1.77v11.68l-1.77.22v-11.9zm8.68 0h1.77v10.57l-1.77.22v-10.79zm8.68 0h1.77v9.47l-1.77.22v-9.69zm8.69 0h1.76v8.36l-1.76.23v-8.59zm8.67 0h1.77V113l-1.77.23v-7.49zm8.69 0h1.76v6.15l-1.76.23v-6.38zm8.68 0h1.76v5.06l-1.76.22v-5.28z"/><circle cx="42.07" cy="121.06" r="4.6" fill="#bc1b21"/><path d="M37.47 121.06a3.71 3.71 0 0 0 .06.67 4.59 4.59 0 0 1 9.08 0 4.91 4.91 0 0 0 0-.67 4.6 4.6 0 1 0-9.19 0z" fill="#96151f"/><circle cx="42.07" cy="121.06" r="2.49" fill="#cc2935"/><path d="M39.58 121.06a1.84 1.84 0 0 0 0 .33 2.48 2.48 0 0 1 4.92 0v-.33a2.49 2.49 0 1 0-5 0z" fill="#c11b30"/><circle cx="92.77" cy="113.06" r="4.6" fill="#bc1b21"/><path d="M88.18 113.06a5.06 5.06 0 0 0 0 .68 4.59 4.59 0 0 1 9.08 0 3.82 3.82 0 0 0 .06-.68 4.6 4.6 0 0 0-9.19 0z" fill="#96151f"/><circle cx="92.77" cy="113.06" r="2.49" fill="#cc2935"/><path d="M90.29 113.06v.34a2.48 2.48 0 0 1 4.92 0 1.87 1.87 0 0 0 0-.34 2.49 2.49 0 0 0-5 0z" fill="#c11b30"/></svg>