<svg xmlns="http://www.w3.org/2000/svg" viewBox="0 0 138.83 215.65"><path fill="#fff" d="M0 0h138.82v215.65H0z"/><path fill="none" stroke="#7f664a" stroke-miterlimit="10" stroke-width=".5" d="M27.76 208.74H6.94V8.91h20.82m34.71 199.83H41.66m55.52 0H76.36M111.07 8.91h20.81v199.83h-20.81M76.36 8.91h20.82m-55.52 0h20.81"/><path d="M14.69 10.82v10a6.48 6.48 0 0 0 .1 1.44.94.94 0 0 0 .42.51 1.87 1.87 0 0 0 1 .2h.28v.34h-6.44V23h.32a2.5 2.5 0 0 0 1.12-.18.91.91 0 0 0 .46-.49 6.16 6.16 0 0 0 .11-1.48v-6.36a3.79 3.79 0 0 0-.06-1.06.73.73 0 0 0-.3-.36.9.9 0 0 0-.51-.15 2.94 2.94 0 0 0-1.12.29l-.16-.33 4.5-2.06zm8.23 0v10a6.48 6.48 0 0 0 .1 1.44.94.94 0 0 0 .42.51 1.89 1.89 0 0 0 1 .2h.28v.34h-6.44V23h.32a2.5 2.5 0 0 0 1.12-.18.91.91 0 0 0 .46-.49 6.16 6.16 0 0 0 .11-1.48v-6.36a3.79 3.79 0 0 0-.08-1.06.73.73 0 0 0-.3-.36.9.9 0 0 0-.51-.15 2.94 2.94 0 0 0-1.12.29l-.16-.33 4.5-2.06zm96.77 180.34v10a6.61 6.61 0 0 0 .1 1.44 1 1 0 0 0 .42.51 2 2 0 0 0 1 .2h.28v.33h-6.45v-.33h.32a2.5 2.5 0 0 0 1.12-.18.93.93 0 0 0 .46-.5 6 6 0 0 0 .11-1.47v-6.36a3.79 3.79 0 0 0-.08-1.06.73.73 0 0 0-.3-.36.9.9 0 0 0-.51-.15 2.94 2.94 0 0 0-1.12.29l-.16-.32 4.5-2.06zm8.23 0v10a6.61 6.61 0 0 0 .1 1.44 1 1 0 0 0 .42.51 2 2 0 0 0 1 .2h.28v.33h-6.45v-.33h.32a2.5 2.5 0 0 0 1.12-.18.93.93 0 0 0 .46-.5 6 6 0 0 0 .11-1.47v-6.36a3.79 3.79 0 0 0-.08-1.06.73.73 0 0 0-.3-.36.9.9 0 0 0-.51-.15 2.94 2.94 0 0 0-1.12.29l-.16-.32 4.5-2.06z" fill="#7f664a"/><path d="M32 110.86c-2.94 1.07-4.93 3.8-6.34 6.59s-2.47 5.79-4.41 8.24-5.1 4.28-8.13 3.51a9.39 9.39 0 0 0 8.43.84c-2.92 1.69-3.9 5.45-4 8.82s.48 6.85-.52 10.07-4.35 6.11-7.56 5c2.38 1.39 5.55.56 7.65-1.22s3.38-4.32 4.59-6.8a18.28 18.28 0 0 0 2.51 6.59l.11-9.12a4.22 4.22 0 0 1 .52-2.41 5 5 0 0 1 2.5-1.44c3.93-1.5 6.91-4.77 9.52-8.08 1.56-2 3.1-4.15 3.37-6.65.55-5.12-.05-16.92-8.24-13.94z" fill="#5b352d"/><path d="M56.35 174.71a9.49 9.49 0 0 0 .36 5.95s6.86 1.63 10.83 0c0 0 .18-5.23-6.14-8.66zm-19.76 5.75s-2.39 2.18-1.59 6.75c0 0 2.18 3.18 11.32 1.19 0 0 1.59-3.77-5-9.14z" fill="#484949"/><path d="M60.14 132.32s5 10.1-1.44 16.59c-3.68 3.68-3.25 10.83 1.26 17.5s2.53 7 1.08 7.94-4.69 2.16-5.59-1.81-1.26-4.87-1.8-5.59-3.25-7.21-4.15-8.29-3.07-5.06-1.8-6.5 3.6-3.06-.18-14.61 12.62-5.23 12.62-5.23z" fill="#5b352d"/><path d="M87.35 178.73s-.87 3.5 0 5.09c0 0 4.37 2.17 10.57-1.54 0 0-3.8-5.3-5.48-6.73z" fill="#484949"/><path d="M90.35 129.47s-4.17 12.71-5.35 15.16-2.59 6.48-1.55 10.27 4.18 12.76 3.88 14.73-2.66 9.1 1.86 9 5.85.68 5.29-2-1.18-7-2-7.17S89 155.59 89.22 154s.46-2 2-5.58S100 124 100 124z" fill="#5b352d"/><path d="M81.87 165.76s-4-1.95-5.75-1c0 0-3.18 5.36 1.43 12.3a18.52 18.52 0 0 0 4.32-5z" fill="#484949"/><path d="M114.38 76.53s4.75.4 7.51-2.41c0 0-1 7-8.12 7.21zm-64.17 63.91c18.36 4.29 27.42-5.17 27.42-5.17-.44 3.8 4.17 6.19 7.7 8.61l.89.62a41 41 0 0 1 4.88 4.29c1 1 1.55 1.68 1.55 1.68a29.24 29.24 0 0 1-3.14 6.53c-1.34 2.27-2.78 4.52-3.66 5.85l-.85 1.2a4.58 4.58 0 0 0-3.15 1.71c-2.44 3.15 0 7.11 0 7.11 2.69 0 4.6-2.43 5.48-3.82a8.89 8.89 0 0 0 .53-.94 23.2 23.2 0 0 0 3.32-2.64c5.81-5.45 8-12.53 8.37-13.34.48-1 .72-2.39 0-5.41-.33-1.4-2.54-4.69-4.79-7.78-2.57-3.54-5.23-6.84-5.23-6.84A15 15 0 0 0 100 124a15.61 15.61 0 0 0 .81-1.84 21.16 21.16 0 0 0 1.1-4 29 29 0 0 0 .3-8.44s-.76-10.45 5.28-15.86l-4.61-12.56-1.9-3-7.32 1.28-22.91 22.25-13.67 11.61-9.22 9.38-4 7.31z" fill="#70463a"/><path d="M104.69 72.66C93.14 70.25 82.41 87.26 76 96c-7.15 9.68-29.57 9.63-29.57 9.63-18.12 9.77-15 23.38-11.58 27.92 0 0 1.39 3.31 3.89 4.52l39-15.05s10-10.87 10.35-11.58 13-19.81 13-19.81l4.21-14.21z" fill="#70463a"/><path d="M101.89 118.18a21.16 21.16 0 0 1-1.1 4c-3.37.75-15.65 2.74-26-5l.24-4.35a38.49 38.49 0 0 0 26.86 5.35z" fill="#ff990b"/><ellipse cx="94.32" cy="120.58" rx="3.08" ry="2.01" transform="rotate(-85.67 94.31 120.584)" fill="#484949"/><path d="M128.31 98.34a6.72 6.72 0 0 1-5.78 3 12.24 12.24 0 0 1-5.2-1.79l-1.39-.73-.65-.33a15.53 15.53 0 0 0-1.75-.74 8.07 8.07 0 0 0-2.18-.4c-1.06 0-2.12.16-3.19.15h-.31a8.86 8.86 0 0 1-2.78-.64 13.67 13.67 0 0 1-1.72-.84 18.44 18.44 0 0 1-3.49-2.57c-3-2.81-5.31-6.68-5.43-10.57a9.58 9.58 0 0 1 .06-1.51 9.31 9.31 0 0 1 .46-2 6.85 6.85 0 0 1 .38-.94A10.44 10.44 0 0 1 97 75.88a10 10 0 0 1 5.82-3.18l.56-.07q.42 0 .84-.06a9 9 0 0 1 4.46 1 7.17 7.17 0 0 1 .75.46l.21.14a12.59 12.59 0 0 1 2.45 2.28c.28.31.54.63.8 1s.67.88 1 1.33l.18.24 1 1.37.53.7c.14.19.28.37.43.55s.36.45.55.66a13.18 13.18 0 0 0 2 1.93 17.33 17.33 0 0 0 2.3 1.53c1 .56 2 1.07 2.92 1.61a20.08 20.08 0 0 1 2.2 1.43 9 9 0 0 1 2.22 2.29 6.1 6.1 0 0 1 .41.7 6.71 6.71 0 0 1-.32 6.55z" fill="#70463a"/><path d="M123.73 87.39a15.93 15.93 0 0 0-4.16 6.49 28.07 28.07 0 0 0-.93 2.94c-.26 1-.43 1.94-.55 2.65l-.73.08-1.39-.73-.65-.33a20.45 20.45 0 0 1 .22-6.16c.67-3.32 2.31-6.15 5.33-6.54.9.55 1.9 1.06 2.86 1.6z" fill="#ff990b"/><ellipse cx="117.3" cy="94.52" rx="2.01" ry="3.08" transform="rotate(-60.07 117.295 94.517)" fill="#484949"/><path fill="#ff990b" d="m100.82 86.38-2.08-.79-5.85-5.84 3.22-1.79 4.2 5.25v1.23l.51 1.94zM115.59 78c-3.6 1.68-11.78 5.79-15 9.7l1.27-4s.38-5.57 8.86-7.76c1.12.45 2.23 1 3.36 1.44.53.22 1.02.42 1.51.62z"/><ellipse cx="100.3" cy="85.59" rx="3.64" ry="2.37" transform="rotate(-53.42 100.29 85.592)" fill="#484949"/><path d="M32.11 124.93s2.09 16.38 2.47 19.07 1.15 5 1 6.5-1.34 4.58-1.91 4.77 0 5 1.72 9.56a29.68 29.68 0 0 1 1.72 10.32c0 1.34-2.49 8.41 2.86 7.45s3.63-5 2.49-6.3-.19-15.68-.38-19.12a16 16 0 0 1 3.82-5.73c2.67-2.48 11.63-5.49 8-15.81z" fill="#70463a"/><path d="M50.36 130.42a5.25 5.25 0 0 1 2.24 2 8.19 8.19 0 0 1 1.16 2.8 13.33 13.33 0 0 1-.26 5.9c-.31-2-.33-3.88-.72-5.69a10.29 10.29 0 0 0-2.42-5.01zm26.49-1.28a10.32 10.32 0 0 1 .66 3.33v1.62a6.78 6.78 0 0 0 .27 1.61 2.57 2.57 0 0 1-1-1.46 6.12 6.12 0 0 1-.28-1.72 10.57 10.57 0 0 1 .35-3.38zm8.21-2.14a7.82 7.82 0 0 1 2.94 2 7.6 7.6 0 0 1 1.83 3.08 21.77 21.77 0 0 1-2.56-2.4 20.77 20.77 0 0 1-2.21-2.68zm16.7-33.56a19.12 19.12 0 0 0 1.58 1.36 13.6 13.6 0 0 0 1.66 1.07 12.43 12.43 0 0 0 1.82.81c.64.25 1.3.42 2 .66a6 6 0 0 1-4.28-.59 6.35 6.35 0 0 1-1.74-1.39 4.58 4.58 0 0 1-1.04-1.92z" fill="#5b352d"/><path d="M46.39 105.62s-2.49 17.2 3.7 27.24c0 0 18.72-10.38 28.26-10.7 0 0-6.84-20.67-5.25-26.55 0 0-16.54 10.79-26.71 10.01z" fill="#bc1b21"/><path d="M52.23 104.1s-5.84 11.42 1.19 22.39l20.75-7.27s-6.3-14.25-5.53-21z" fill="#96151f"/><path d="M96.83 69.47c-1.7 1.15-2.69 3-3.83 4.75s-2.73 3.37-4.77 3.57a21.45 21.45 0 0 0 2.21.78c-2.28.86-4.69 1.82-6.09 3.8-1 1.44-1.42 3.33-2.81 4.4-.91.7-2.17 1-2.76 2-.39.63-.42 1.42-.83 2A4.58 4.58 0 0 1 76.3 92a11.16 11.16 0 0 0-5.18 7.91 13.28 13.28 0 0 0 2.25 9.28 7.46 7.46 0 0 1 1.79-9.19 8.9 8.9 0 0 0 6.54 6 18.86 18.86 0 0 1-1.18-5.52 6.32 6.32 0 0 1 2.13-5A3.29 3.29 0 0 0 85.91 99a8.42 8.42 0 0 1 2.38-9.4A4.57 4.57 0 0 0 91 93.09a12.73 12.73 0 0 1 .56-7.09 4.89 4.89 0 0 0 2 2.19 8.3 8.3 0 0 1 3.7-8.37 12.83 12.83 0 0 0 1.93-1.22 7.41 7.41 0 0 0 1.21-1.6c1-1.6 4.55-5.37 3.3-7.31s-5.28-1.31-6.87-.22z" fill="#5b352d"/><path d="M102.69 74.07s-.69-6.23 8.6-7.59c0 0-2.3 5.32-1.5 9 0 .01-6 2.46-7.1-1.41z" fill="#70463a"/><path d="M102.29 102.77S77 94.84 73.32 88.88l.26 4s13 13.11 28.71 12.52z" fill="#ff990b"/><path d="M115 79a4.58 4.58 0 0 0 3.66 3.86 13.89 13.89 0 0 1-4.29-1.51 1.92 1.92 0 0 0 .37 2.17 2.09 2.09 0 0 1-2.45-1.77 7.44 7.44 0 0 0-.31 2 7.86 7.86 0 0 1-2.12-4.06c-.49-1.86-1.73-7.21 1.55-7.26S114.77 76.9 115 79z" fill="#5b352d"/><path d="M54.6 106.28a14.25 14.25 0 0 0 7.79 10.19s-3.58 3.45-2.65 10.53-.47 8.45-.47 8.45-3 3.63-1.56 5.53 5.31 5.69 12.95 3.28c0 0 .93-.87 0-1.56s-6.87-3.45-6.87-5.86 4.37-15.71 5.31-19.84-4.68-12.42-8.74-15.88z" fill="#a3af31"/><path d="M70.66 142.7c-.94-.69-6.87-3.45-6.87-5.86s4.37-15.71 5.31-19.84-4.68-12.42-8.74-15.88l-1.62 1.46c3.79 4 8 10.78 7.2 14.42-.94 4.15-5.3 17.44-5.3 19.86s5.92 5.17 6.86 5.86 0 1.56 0 1.56a17.17 17.17 0 0 1-3.08.67 14.36 14.36 0 0 0 6.24-.67s.93-.89 0-1.58z" fill="#969b2c"/><path d="M73.65 75.09s10.29 15-.2 19.71l.79-4.6-4.58-15 2.07-2.66z" fill="#a3af31"/><path d="m73.65 75.09-1.92-2.51-1.33 1.71.62.8s7.89 11.49 2.8 17.52l-.37 2.19c10.49-4.73.2-19.71.2-19.71z" fill="#969b2c"/><path d="M55.32 32.93a5 5 0 0 1 5-1.82 4.92 4.92 0 0 1 7-2.73 5.16 5.16 0 0 1 7.19-.6 5.43 5.43 0 0 1 5.73.49 4.39 4.39 0 0 0 1.07.75 3.42 3.42 0 0 0 1.15.18 8.43 8.43 0 0 1 3.47.79 31.82 31.82 0 0 0 3.19 2c.71.26 1.48.31 2.2.56a2.15 2.15 0 0 1 1.52 1.54A1.89 1.89 0 0 1 95.05 36a2 2 0 0 1 1.57 2c-.91 1.52-2.89 1.94-4.65 2.22-1.26.19-2.71.34-3.66-.51A4.21 4.21 0 0 1 83.85 41a4.92 4.92 0 0 1-5.12 1.48 5.21 5.21 0 0 1-6.43.49 16.84 16.84 0 0 1-4.63.68 2.86 2.86 0 0 1-1.42-.26 1.09 1.09 0 0 1-.55-1.23q-2.53.34-5.1.51a3.67 3.67 0 0 1-1.71-.19 1.24 1.24 0 0 1-.73-1.48 4.28 4.28 0 0 1-3.26 0c-1.46-.84-.28-2.21-.22-3.31.1-1.78-.68-3.03.64-4.76z" fill="#a3af31"/><path d="M95.05 36a1.89 1.89 0 0 0-2.27-1.92 2.13 2.13 0 0 0-1.52-1.54c-.72-.25-1.49-.3-2.2-.56a31.82 31.82 0 0 1-3.19-2 6.23 6.23 0 0 0-1.52-.53 2 2 0 0 1 1.33 1.44 1.89 1.89 0 0 1 2.26 1.93 2 2 0 0 1 1.58 2c-.91 1.53-2.9 2-4.65 2.22-1.26.2-2.71.34-3.66-.51a4.25 4.25 0 0 1-4.47 1.32 4.94 4.94 0 0 1-5.11 1.48 5.21 5.21 0 0 1-6.43.48 16.84 16.84 0 0 1-4.63.68 2.74 2.74 0 0 1-1.42-.26A1.06 1.06 0 0 1 58.6 39c-1.45.2-2.9.34-4.36.45a1.32 1.32 0 0 0 .66 1.64 4.28 4.28 0 0 0 3.26 0 1.24 1.24 0 0 0 .73 1.41 3.67 3.67 0 0 0 1.71.19q2.57-.16 5.1-.51a1.09 1.09 0 0 0 .55 1.23 2.86 2.86 0 0 0 1.42.26 16.84 16.84 0 0 0 4.63-.68 5.21 5.21 0 0 0 6.43-.49 4.92 4.92 0 0 0 5.12-1.5 4.21 4.21 0 0 0 4.46-1.31c1 .85 2.4.7 3.66.51 1.76-.28 3.74-.7 4.65-2.22A2 2 0 0 0 95.05 36z" fill="#969b2c"/><path d="M48.53 51.23c-.33.61-.74 1.17-1.08 1.77a8.91 8.91 0 0 0-1.11 3.29 5.92 5.92 0 0 0 .66 3.84 3.56 3.56 0 0 0 3.31 1.78 3.76 3.76 0 0 0 2.52-1.66 8.43 8.43 0 0 0 1.12-2.88 20.89 20.89 0 0 0-2.07-14.5c-1.32-2.41-2.46-.72-2.4 1.14.08 2.48.27 4.99-.95 7.22z" fill="#68442e"/><path d="M45.86 66.52S49.7 89.58 37 99a55.61 55.61 0 0 0 34.88-1.47l-4.44-28.64-16.55-4.14z" fill="#96151f"/><path d="m56.06 61.5.15 4.13s4.73 1 7.53-.29l.45-5.91z" fill="#f9c18a"/><path d="m61.91 60-.4 5.33a7.74 7.74 0 0 1-2.72.63 10.56 10.56 0 0 0 5-.63l.45-5.91z" fill="#ef9e62"/><ellipse cx="58.65" cy="50.78" rx="9.38" ry="11.75" fill="#f9c18a"/><path d="M58.65 39a8.19 8.19 0 0 0-1.49.16c4.47.9 7.89 5.74 7.89 11.59s-3.42 10.69-7.89 11.59a7.39 7.39 0 0 0 1.49.16c5.18 0 9.38-5.26 9.38-11.75S63.83 39 58.65 39z" fill="#ef9e62"/><path d="M64.37 53.48a7.37 7.37 0 0 0 1.43 3.83A6.48 6.48 0 0 0 68.64 59a6.56 6.56 0 0 0 3.57.44 3.84 3.84 0 0 0 2.43-5.78A14.06 14.06 0 0 0 71.76 51a8.92 8.92 0 0 1-2.87-5.25c-.2-1.26-.18-2.68-1-3.62a3.7 3.7 0 0 0-2.55-1 3.13 3.13 0 0 0-1.71.3c-2.12 1.13.37 9.96.74 12.05z" fill="#68442e"/><path d="M74.64 53.61A14.06 14.06 0 0 0 71.76 51a8.92 8.92 0 0 1-2.87-5.25c-.2-1.26-.17-2.68-1-3.62a3.7 3.7 0 0 0-2.55-1 3.13 3.13 0 0 0-1.71.3h-.06a2.84 2.84 0 0 1 1 .65c.86.94.83 2.36 1 3.62a8.93 8.93 0 0 0 2.86 5.3 14.06 14.06 0 0 1 2.88 2.66 3.91 3.91 0 0 1 .27 3.52 3.87 3.87 0 0 1-2.15 2.07 5.72 5.72 0 0 0 2.78.19 3.84 3.84 0 0 0 2.43-5.78z" fill="#5b3b29"/><path d="M43.32 44.21a6.8 6.8 0 0 1-.56-2.07v-.15a6.2 6.2 0 0 1 2.24-5.1 6.58 6.58 0 0 1 3.95-1.31c4.27-.29 5.15 2.35 8.81 2.23 2.9-.09 2.78-1.75 7.1-2.5a12.2 12.2 0 0 1 6.69.4c1.19.46 4.23 1.56 4.57 4 .28 2-1 3.63-1.73 4.47a9.19 9.19 0 0 1-5.19 3c-.7-2.53-1.68-4.29-2.42-4.7a2.25 2.25 0 0 0-1-.28 2 2 0 0 0-1 .31c-1.32.8-8.79-1.3-12.12.26-1.19.57-2.41 2-3.15 5.79C46 47.13 43.7 45 43.32 44.21z" fill="#f8a201"/><path d="M76.08 39.72c-.34-2.45-3.38-3.55-4.57-4a10.42 10.42 0 0 0-4.26-.72c1.38.54 3.79 1.65 4.1 3.83.27 2-1 3.63-1.74 4.46a8 8 0 0 1-1.37 1.31 17 17 0 0 1 .92 2.58 9.19 9.19 0 0 0 5.19-3c.65-.83 2.01-2.51 1.73-4.46z" fill="#f48b0c"/><path d="M72.85 75.59a3 3 0 0 1-.51.31 1.27 1.27 0 0 1-.31.15l-.2.07h-.06c-2.42.76-5.19-1.26-6.19-4.5s.14-6.46 2.56-7.21a2.15 2.15 0 0 1 .44-.09h.06a2.09 2.09 0 0 1 .36 0 2.94 2.94 0 0 1 .42 0c2 .14 4.08 2 4.9 4.66s.18 5.35-1.47 6.61z" fill="#63abe5"/><path d="M74.33 68.93c-1-3.23-3.78-5.25-6.19-4.5a6.54 6.54 0 0 1 4.09 4.5c1 3.24-.14 6.46-2.55 7.22a3.75 3.75 0 0 0 2.1 0c2.4-.75 3.55-3.98 2.55-7.22z" fill="#3790b7"/><path d="M65.22 99.93a9.24 9.24 0 0 1-1 4.25l-.22.39a8.1 8.1 0 0 1-1 1.31 5.68 5.68 0 0 1-.47.51 9 9 0 0 1-2.34 1.7 9.38 9.38 0 0 1-2.89.91c-.26 0-.54.06-.81.07h-.43a9 9 0 0 1-2.22-.27 9.16 9.16 0 0 1-7-8.88 9.06 9.06 0 0 1 .62-3.31 8.21 8.21 0 0 1 .76-1.51v-.07a9.13 9.13 0 0 1 6.16-4.14 8.25 8.25 0 0 1 1.59-.14 8.9 8.9 0 0 1 2.08.24 9.17 9.17 0 0 1 7.17 8.94z" fill="#63abe5"/><path d="M56.06 90.76a9.58 9.58 0 0 0-2.35.32 9.18 9.18 0 0 1 5.73 13.1 8.28 8.28 0 0 1-1.17 1.7 9.1 9.1 0 0 1-4.56 2.88 9.13 9.13 0 0 0 2.35.32h.44a9.29 9.29 0 0 0 7.68-4.89 9.18 9.18 0 0 0-8.12-13.42z" fill="#3790b7"/><path d="M57.31 109c-.26 0-.54.06-.81.07h-.43a9 9 0 0 1-2.22-.27c-2.08-1.91-4.63-5.51-6.33-12.19a8.21 8.21 0 0 1 .76-1.51v-.07A23.08 23.08 0 0 0 57.31 109zm6.69-4.43a8.1 8.1 0 0 1-1 1.31 5.68 5.68 0 0 1-.47.51c-1.78-10.76-7-14.51-7-14.51a5.26 5.26 0 0 0-1-1 8.25 8.25 0 0 1 1.59-.14 8.9 8.9 0 0 1 2.08.24c3.8 4.18 5.22 9.83 5.8 13.59z" fill="#f8a201"/><path d="m65.22 95.34-2-.62-6.59-2-3-.9-2.63-.77a39 39 0 0 0-.73-13l.44-12.27a36.79 36.79 0 0 1 12.12-1.33s3.25.15 4.58 4.43 6.83 16.55-2.19 26.46z" fill="#3d3635"/><path d="M67.44 68.88c-1.33-4.28-4.58-4.43-4.58-4.43a33.14 33.14 0 0 0-3.58 0h.82s3.25.15 4.58 4.43 6.55 16-1.65 25.79h.14l2 .62c9.07-9.86 3.6-22.11 2.27-26.41z" fill="#2d2726"/><path d="M66.8 94.68s3.4-17.58-1.33-28.81l-1.63.88s4 14.19.91 27.31zm-10.22-1.95-3-.9c-1.16-5.49-2-13.77.69-21.17l.44-4.28 2.81.44s-2.8 14.23-.94 25.91z" fill="#f8a201"/><path d="M53.92 65.19s4.21 2 10.65 0l1.84.92s-1.71 3.29-11 .79zm-8.65 10.05S41 86.18 43.65 89.58s10.19 8 21.13 7.53c0 0 2.22-.29 2.07-2.21s-.44-2.07-2.22-2.07S50.89 87.65 50 86.18s.89-6.21 1.63-8.13-6.36-2.81-6.36-2.81z" fill="#a3af31"/><path d="M49.13 80c-.74 1.92-2.52 6.65-1.63 8.13s12.86 6.67 14.63 6.67 3.77 0 4.18 1.58a1.78 1.78 0 0 0 .54-1.48c-.15-1.92-.44-2.07-2.22-2.07S50.89 87.65 50 86.18s.89-6.21 1.63-8.13-6.36-2.81-6.36-2.81-.35.9-.79 2.26c2.05.39 5.15 1.22 4.65 2.5z" fill="#969b2c"/><path d="M56 76a9.53 9.53 0 0 1-6.8 5.43 6 6 0 0 1-.94.08 6.38 6.38 0 0 1-3-.63 6.27 6.27 0 0 1-2.45-2.11 3.82 3.82 0 0 1-.4-.64A10.11 10.11 0 0 1 49.2 64a6.77 6.77 0 0 1 1-.08 6.32 6.32 0 0 1 3 .62 7.92 7.92 0 0 1 .95.56l.21.16C57.15 67.5 57.92 72 56 76z" fill="#63abe5"/><path d="m54.33 65.27-.21-.16a7.92 7.92 0 0 0-.95-.56 6.32 6.32 0 0 0-3-.62 6.77 6.77 0 0 0-1 .08h-.22a5.76 5.76 0 0 1 1.43.49 8.79 8.79 0 0 1 1 .56l.21.16C54.39 67.5 55.16 72 53.21 76a9.6 9.6 0 0 1-6.55 5.37 6.33 6.33 0 0 0 1.57.14 6 6 0 0 0 .94-.08A9.53 9.53 0 0 0 56 76c1.92-4 1.15-8.5-1.67-10.73z" fill="#3790b7"/><path d="M50.22 63.93c-3.6 4.19-6.16 10.9-7.44 14.86a3.82 3.82 0 0 1-.4-.64A28.5 28.5 0 0 1 49.2 64a6.77 6.77 0 0 1 1.02-.07zm-1.05 17.52a6 6 0 0 1-.94.08 36.26 36.26 0 0 0 5.89-16.42l.21.16c1.44 7.02-2.13 12.73-5.16 16.18z" fill="#f8a201"/><path d="m46 55.39.36.47 24.7 37.31-2.59 2.18-2.94-2.77-.65-.58-2.55-2.41-.65-.59-2.55-2.4-.66-.61-2.55-2.41-.65-.61-2.55-2.4-.65-.62-2.56-2.4-.65-.61-2.55-2.4-.65-.62-2.55-2.4-.66-.61-2.55-2.46-.65-.61-2.56-2.4-.69-.62-.16-.15c-3-3.1-3-8 .06-10.54A7.17 7.17 0 0 1 46 55.39z" fill="#a3af31"/><path d="m36.41 53.78-.47.35c-3.06 2.58-3.09 7.44-.06 10.54l32.59 30.68.89-.75-32.6-30.67a7.27 7.27 0 0 1-.35-10.15z" fill="#bbc144"/><path d="M35.94 54.13a6.8 6.8 0 0 0-.8.81 7.34 7.34 0 0 1 9.44 2.38l24.74 37.32 1.74-1.47-24.74-37.31c-2.54-3.5-7.32-4.3-10.38-1.73z" fill="#969b2c"/><ellipse cx="54.63" cy="67.89" rx="2.14" ry="2.31" transform="rotate(-40.04 54.632 67.891)" fill="#bc1b21"/><path d="M53.14 66.12a2.28 2.28 0 0 0-.22.22 2.35 2.35 0 0 1 2.94 3.51l.25-.19a2.32 2.32 0 0 0-3-3.54z" fill="#96151f"/><ellipse cx="54.63" cy="67.89" rx="1.16" ry="1.25" transform="rotate(-40.04 54.632 67.891)" fill="#cc2935"/><path d="m53.82 66.93-.11.12a1.26 1.26 0 0 1 1.59 1.89.38.38 0 0 0 .13-.09 1.26 1.26 0 0 0-1.61-1.92z" fill="#c11b30"/><path d="M74.87 91.6A8.74 8.74 0 0 1 72 97.06c-2 1.73-5.11 2.78-5.88 1.87S67 95.12 69 93.46a8.76 8.76 0 0 1 5.87-1.86z" fill="#ffb21a"/><path d="M66.59 98.56c-.73-.86.63-3.49 2.5-5.17l-.1.07c-2 1.66-3.61 4.55-2.85 5.47S70 98.79 72 97.06l.09-.08c-1.96 1.55-4.78 2.44-5.5 1.58z" fill="#fdd224"/><path d="m69 93.46-.55.49A8.84 8.84 0 0 1 74 92.33a8.86 8.86 0 0 1-2.56 5.2c.2-.15.39-.31.58-.47a8.74 8.74 0 0 0 2.85-5.46A8.76 8.76 0 0 0 69 93.46z" fill="#ff990b"/><path d="M73.52 95.12a4.45 4.45 0 0 1-1.35 1.93c-.8.69-1.94 1.24-2.14 1s.54-1.26 1.35-1.93a4.63 4.63 0 0 1 2.14-1z" fill="#484349"/><path fill="#7c7c21" d="m41.46 60.27.57.68-5.34 4.49-.65-.62 5.42-4.55zm2.81 3.35.57.68-4.94 4.15-.65-.61 5.02-4.22zm2.81 3.35.57.68-4.55 3.82-.65-.61 4.63-3.89zm2.81 3.34.57.68-4.15 3.5-.65-.62 4.23-3.56zm2.81 3.35.57.68-3.76 3.16-.65-.61 3.84-3.23zM55.52 77l.57.69-3.37 2.83-.66-.62 3.46-2.9zm2.81 3.35.57.68-2.98 2.5-.65-.61 3.06-2.57zm2.81 3.35.57.68-2.58 2.17-.66-.61 2.67-2.24zm2.81 3.34.57.68-2.19 1.84-.65-.61 2.27-1.91zm2.81 3.35.57.68-1.8 1.51-.65-.61 1.88-1.58z"/><ellipse cx="39.91" cy="69.5" rx="2.14" ry="2.31" transform="rotate(-40.04 39.9 69.503)" fill="#bc1b21"/><path d="M38.42 67.73a1.52 1.52 0 0 0-.22.22 2.35 2.35 0 0 1 2.94 3.5 2 2 0 0 0 .26-.18 2.32 2.32 0 0 0-3-3.54z" fill="#96151f"/><ellipse cx="39.91" cy="69.5" rx="1.16" ry="1.25" transform="rotate(-40.04 39.9 69.503)" fill="#cc2935"/><path d="M39.1 68.54a1.14 1.14 0 0 0-.11.11 1.27 1.27 0 0 1 1.59 1.9l.13-.09a1.26 1.26 0 0 0-1.61-1.92z" fill="#c11b30"/><ellipse cx="59.17" cy="86.65" rx="2.14" ry="2.31" transform="rotate(-40.04 59.172 86.66)" fill="#bc1b21"/><path d="M57.69 84.88a1.67 1.67 0 0 0-.23.23 2.35 2.35 0 0 1 2.95 3.5l.25-.18a2.32 2.32 0 0 0-3-3.55z" fill="#96151f"/><ellipse cx="59.17" cy="86.65" rx="1.16" ry="1.25" transform="rotate(-40.04 59.172 86.66)" fill="#cc2935"/><path d="M58.37 85.7a.57.57 0 0 0-.11.11 1.26 1.26 0 0 1 1.59 1.89.38.38 0 0 0 .13-.09 1.25 1.25 0 0 0-1.61-1.91z" fill="#c11b30"/><path d="M72 90.9a4 4 0 0 1 1.4 3 1.87 1.87 0 0 1-.15.84 2.41 2.41 0 0 1-1.09 1 21.59 21.59 0 0 1-3 1.28c-1.11.39-2.43.74-3.38 0a2.47 2.47 0 0 1-.83-2.25 7.36 7.36 0 0 1 .82-2.36l.77-1.6a3.75 3.75 0 0 1 .84-1.27c1.11-.95 1.16.16 1.83.4.95.39 1.79.17 2.79.96z" fill="#f9c18a"/><path d="M72 90.9c-.93-.79-1.79-.57-2.8-.93-.67-.24-.72-1.35-1.83-.4A2 2 0 0 0 67 90c1 .33 1.83.14 2.74.91a4 4 0 0 1 1.4 3 2 2 0 0 1-.15.84 2.43 2.43 0 0 1-1.1 1 21.09 21.09 0 0 1-3 1.28l-.78.25a4.21 4.21 0 0 0 3-.25 21.59 21.59 0 0 0 3-1.28 2.41 2.41 0 0 0 1.09-1 1.87 1.87 0 0 0 .15-.84A4 4 0 0 0 72 90.9z" fill="#ef9e62"/><path d="M76.17 89.16a2.19 2.19 0 0 0-2-1 1.79 1.79 0 0 0-.94.22c-.83.49-.81 1.69-.57 2.63a2.94 2.94 0 0 0 1.41 2.15 3.15 3.15 0 0 0 1.22.19 3.22 3.22 0 0 0 2.1-.45 2 2 0 0 0 .61-1.79 3.3 3.3 0 0 0-.92-1.77c-.44-.47-1.13-.87-1.7-.57z" fill="#f9c18a"/><path d="M78 91.11a3.3 3.3 0 0 0-.92-1.77 1.82 1.82 0 0 0-1.37-.66 2.55 2.55 0 0 0-1.59-.49 2 2 0 0 0-.83.18 1.71 1.71 0 0 1 .58.31 1.82 1.82 0 0 1 1.37.66 3.3 3.3 0 0 1 .92 1.77 2 2 0 0 1-.67 1.82 2 2 0 0 1-1 .39 4.34 4.34 0 0 0 .71.06 3.22 3.22 0 0 0 2.1-.45 2 2 0 0 0 .7-1.82z" fill="#ef9e62"/><path d="M72.34 75.9a1.27 1.27 0 0 1-.31.15l-.2.07c.67-4.07-1.59-9.34-2.83-11.84a2.94 2.94 0 0 1 .42 0 15 15 0 0 1 2.92 11.62z" fill="#f8a201"/></svg>