<svg xmlns="http://www.w3.org/2000/svg" viewBox="0 0 138.83 215.65"><path fill="#fff" d="M0 0h138.82v215.65H0z"/><path fill="none" stroke="#7f664a" stroke-miterlimit="10" stroke-width=".5" d="M61.22 209.45H40.41m55.52 0H75.11m-47.35 0H6.94V9.63h20.82m83.31 0h20.81v199.82h-20.81M75.11 9.63h20.82m-55.52 0h20.81"/><path d="M15.38 17.41a6.77 6.77 0 0 1 1.79 1.76 3.49 3.49 0 0 1 .51 1.88 3.28 3.28 0 0 1-1.12 2.5 4.27 4.27 0 0 1-3 1 4 4 0 0 1-2.81-.9 2.82 2.82 0 0 1-1-2.18 2.77 2.77 0 0 1 .57-1.73 5.07 5.07 0 0 1 1.91-1.35 7.37 7.37 0 0 1-1.86-1.82A3.12 3.12 0 0 1 9.93 15 2.85 2.85 0 0 1 11 12.8a4.14 4.14 0 0 1 2.86-.93 4 4 0 0 1 2.69.82 2.58 2.58 0 0 1 .95 2 2.43 2.43 0 0 1-.5 1.52 4.53 4.53 0 0 1-1.62 1.2zm-2.49 1.44a1.94 1.94 0 0 0-.4.46 3.44 3.44 0 0 0-.32.92A5.32 5.32 0 0 0 12 21.5a3.92 3.92 0 0 0 .22 1.42 1.59 1.59 0 0 0 .62.83 1.51 1.51 0 0 0 .82.25 1.46 1.46 0 0 0 1.11-.48 1.84 1.84 0 0 0 .46-1.33c.02-1.19-.77-2.28-2.34-3.34zM14.7 17a3.32 3.32 0 0 0 .49-1 4.31 4.31 0 0 0 .16-1.23 2.75 2.75 0 0 0-.5-1.79 1.26 1.26 0 0 0-1-.48 1.36 1.36 0 0 0-1 .44 1.49 1.49 0 0 0-.5 1.06 2.43 2.43 0 0 0 .47 1.37A6.58 6.58 0 0 0 14.7 17zm113.02 180.07a6.79 6.79 0 0 1 1.79 1.77 3.53 3.53 0 0 1 .5 1.87 3.26 3.26 0 0 1-1.12 2.51 4.31 4.31 0 0 1-3 1 4.05 4.05 0 0 1-2.81-.9 2.82 2.82 0 0 1-1-2.18 2.75 2.75 0 0 1 .57-1.73 5.16 5.16 0 0 1 1.91-1.36 7.38 7.38 0 0 1-1.86-1.81 3.15 3.15 0 0 1-.41-1.64 2.83 2.83 0 0 1 1-2.16 4.16 4.16 0 0 1 2.86-.94 4 4 0 0 1 2.7.83 2.54 2.54 0 0 1 .94 2 2.48 2.48 0 0 1-.51 1.54 4.45 4.45 0 0 1-1.56 1.2zm-2.5 1.45a2.21 2.21 0 0 0-.4.46 3.84 3.84 0 0 0-.32.92 5.26 5.26 0 0 0-.15 1.27 4.15 4.15 0 0 0 .22 1.42 1.58 1.58 0 0 0 .62.82 1.53 1.53 0 0 0 .83.26 1.44 1.44 0 0 0 1.11-.49 1.85 1.85 0 0 0 .45-1.32c0-1.17-.79-2.28-2.36-3.34zm1.81-1.91a3.29 3.29 0 0 0 .5-1 4.7 4.7 0 0 0 .16-1.23 2.8 2.8 0 0 0-.51-1.8 1.26 1.26 0 0 0-1.05-.48 1.41 1.41 0 0 0-1 .44 1.52 1.52 0 0 0-.42 1.09 2.51 2.51 0 0 0 .47 1.37 6.74 6.74 0 0 0 1.82 1.61z" fill="#7f664a"/><path d="M31.72 32.54v.72L25 87.88h-4.53L19.84 83l-.14-1.09-.54-4.28L19 76.5l-.54-4.27-.14-1.09-.55-4.28-.13-1.09-.55-4.27-.09-1.09-.54-4.28-.17-1.13-.54-4.28-.14-1.09-.54-4.27-.14-1.09-.54-4.27-.15-1.09-.54-4.27-.14-1.09v-.28a9.11 9.11 0 1 1 18.19-.76z" fill="#a3af31"/><path d="M23.38 23.49a6.62 6.62 0 0 0-.77 0 9.12 9.12 0 0 0-9.08 9.85l6.94 54.58H22L15.06 33.3a9.11 9.11 0 0 1 8.32-9.81z" fill="#bbc144"/><path d="M22.61 23.45a8.51 8.51 0 0 0-1.52.13 9.1 9.1 0 0 1 7.57 9.69l-6.73 54.61h3l6.73-54.61a9.11 9.11 0 0 0-9.05-9.82z" fill="#969b2c"/><circle cx="29.85" cy="51.14" r="2.84" fill="#bc1b21"/><path d="M29.85 48.3a2.73 2.73 0 0 0-.41 0 2.84 2.84 0 0 1 0 5.62 2.73 2.73 0 0 0 .41 0 2.84 2.84 0 0 0 0-5.68z" fill="#96151f"/><circle cx="29.85" cy="51.14" r="1.54" fill="#cc2935"/><path d="M29.85 49.6h-.2a1.54 1.54 0 0 1 0 3h.2a1.54 1.54 0 1 0 0-3.08z" fill="#c11b30"/><path d="M30.18 89.41a12 12 0 0 1-7.57 2.88c-3.5.06-7.58-1.42-7.58-2.88s4.08-3 7.58-2.89a12 12 0 0 1 7.57 2.89z" fill="#ffb21a"/><path d="M15.8 89.41c0-1.38 3.62-2.78 7-2.88h-.16c-3.5-.06-7.58 1.42-7.58 2.89s4.08 2.94 7.58 2.88h.16c-3.38-.12-7-1.51-7-2.89z" fill="#fdd224"/><path d="M22.61 86.52h-1a12.09 12.09 0 0 1 7.05 2.87 12.1 12.1 0 0 1-7 2.86h1a12 12 0 0 0 7.57-2.88 12 12 0 0 0-7.62-2.85z" fill="#ff990b"/><path d="M25.8 91.65a6.17 6.17 0 0 1-3 .75c-1.4 0-3-.36-3-.75s1.63-.76 3-.74a6.33 6.33 0 0 1 3 .74z" fill="#484349"/><path fill="#7c7c21" d="M22.96 33.58v1.09H13.7l-.14-1.09h9.4zm0 5.36v1.09h-8.57l-.15-1.09h8.72zm0 5.37v1.09h-7.89l-.14-1.09h8.03zm0 5.36v1.1h-7.21l-.14-1.1h7.35zm0 5.37v1.09h-6.53l-.14-1.09h6.67zm0 5.37v1.09h-5.85l-.13-1.09h5.98zm0 5.36v1.09H17.8l-.14-1.09h5.3zm0 5.37v1.09h-4.48l-.14-1.09h4.62zm0 5.36v1.09h-3.8l-.14-1.09h3.94zm0 5.37v1.09h-3.12l-.14-1.09h3.26z"/><circle cx="13.5" cy="41.03" r="2.84" fill="#bc1b21"/><path d="M13.5 38.18a2.85 2.85 0 0 0-.42 0 2.84 2.84 0 0 1 0 5.61 2.84 2.84 0 1 0 .42-5.65z" fill="#96151f"/><circle cx="13.5" cy="41.03" r="1.54" fill="#cc2935"/><path d="M13.5 39.49h-.21a1.54 1.54 0 0 1 0 3h.21a1.54 1.54 0 0 0 0-3.07z" fill="#c11b30"/><circle cx="18.44" cy="72.37" r="2.84" fill="#bc1b21"/><path d="M18.44 69.53a3 3 0 0 0-.42 0 2.83 2.83 0 0 1 0 5.61 3 3 0 0 0 .42 0 2.84 2.84 0 0 0 0-5.68z" fill="#96151f"/><circle cx="18.44" cy="72.37" r="1.54" fill="#cc2935"/><path d="M18.44 70.83h-.21a1.54 1.54 0 0 1 0 3h.21a1.54 1.54 0 0 0 0-3.07z" fill="#c11b30"/><path d="M95.37 32.54v.72l-6.76 54.62h-4.49L83.49 83l-.14-1.09-.54-4.28-.14-1.09-.54-4.27-.13-1.13-.55-4.28-.13-1.09-.55-4.27-.14-1.09-.54-4.28-.15-1.13-.54-4.28-.14-1.09-.54-4.27-.14-1.09L78 40l-.15-1.09-.54-4.27-.14-1.09v-.28a9.11 9.11 0 1 1 18.19-.76z" fill="#a3af31"/><path d="M87 23.49a6.62 6.62 0 0 0-.77 0 9.11 9.11 0 0 0-9.08 9.85l6.94 54.58h1.53L78.71 33.3A9.11 9.11 0 0 1 87 23.49z" fill="#bbc144"/><path d="M86.26 23.45a8.51 8.51 0 0 0-1.52.13 9.1 9.1 0 0 1 7.57 9.69l-6.73 54.61h3l6.73-54.61a9.11 9.11 0 0 0-9.05-9.82z" fill="#969b2c"/><circle cx="93.5" cy="51.14" r="2.84" fill="#bc1b21"/><path d="M93.5 48.3a2.73 2.73 0 0 0-.41 0 2.84 2.84 0 0 1 0 5.62 2.73 2.73 0 0 0 .41 0 2.84 2.84 0 1 0 0-5.68z" fill="#96151f"/><circle cx="93.5" cy="51.14" r="1.54" fill="#cc2935"/><path d="M93.5 49.6h-.2a1.54 1.54 0 0 1 0 3h.2a1.54 1.54 0 1 0 0-3.08z" fill="#c11b30"/><path d="M93.83 89.41a12.07 12.07 0 0 1-7.57 2.88c-3.5.06-7.58-1.42-7.58-2.88s4.08-3 7.58-2.89a12.06 12.06 0 0 1 7.57 2.89z" fill="#ffb21a"/><path d="M79.45 89.41c0-1.38 3.62-2.78 7-2.88h-.16c-3.5-.06-7.58 1.42-7.58 2.89s4.08 2.94 7.58 2.88h.16c-3.38-.12-7-1.51-7-2.89z" fill="#fdd224"/><path d="M86.26 86.52h-1a12.09 12.09 0 0 1 7 2.87 12.1 12.1 0 0 1-7 2.86h1a12.07 12.07 0 0 0 7.57-2.88 12.06 12.06 0 0 0-7.57-2.85z" fill="#ff990b"/><path d="M89.45 91.65a6.17 6.17 0 0 1-3 .75c-1.4 0-3-.36-3-.75s1.63-.76 3-.74a6.33 6.33 0 0 1 3 .74z" fill="#484349"/><path fill="#7c7c21" d="M86.61 33.58v1.09h-9.26l-.14-1.09h9.4zm0 5.36v1.09h-8.57l-.15-1.09h8.72zm0 5.37v1.09h-7.89l-.14-1.09h8.03zm0 5.36v1.1H79.4l-.14-1.1h7.35zm0 5.37v1.09h-6.53l-.14-1.09h6.67zm0 5.37v1.09h-5.85l-.13-1.09h5.98zm0 5.36v1.09h-5.17l-.13-1.09h5.3zm0 5.37v1.09h-4.48l-.14-1.09h4.62zm0 5.36v1.09h-3.8l-.14-1.09h3.94zm0 5.37v1.09h-3.12l-.14-1.09h3.26z"/><circle cx="77.15" cy="41.03" r="2.84" fill="#bc1b21"/><path d="M77.15 38.18a2.85 2.85 0 0 0-.42 0 2.84 2.84 0 0 1 0 5.61 2.84 2.84 0 1 0 .42-5.65z" fill="#96151f"/><circle cx="77.15" cy="41.03" r="1.54" fill="#cc2935"/><path d="M77.15 39.49h-.21a1.54 1.54 0 0 1 0 3h.21a1.54 1.54 0 0 0 0-3.07z" fill="#c11b30"/><circle cx="82.09" cy="72.37" r="2.84" fill="#bc1b21"/><path d="M82.09 69.53a2.86 2.86 0 0 0-.42 0 2.84 2.84 0 0 1 0 5.61 2.84 2.84 0 1 0 .42-5.64z" fill="#96151f"/><circle cx="82.09" cy="72.37" r="1.54" fill="#cc2935"/><path d="M82.09 70.83h-.21a1.54 1.54 0 0 1 0 3h.21a1.54 1.54 0 0 0 0-3.07z" fill="#c11b30"/><path d="M43.45 83.31v-.72L50.21 28h4.5l.63 4.92.13 1.08.53 4.26.14 1.09.54 4.27.14 1.1.56 4.28.14 1.09.54 4.28.14 1.09.55 4.27.13 1.09.55 4.28.14 1.09.54 4.27.14 1.1.54 4.27.14 1.09.54 4.28.14 1.09v.27a9.11 9.11 0 1 1-18.2.76z" fill="#a3af31"/><path d="M51.8 92.37h.77a9.11 9.11 0 0 0 9.08-9.85L54.71 28h-1.54l6.94 54.58a9.11 9.11 0 0 1-8.31 9.79z" fill="#bbc144"/><path d="M52.57 92.4a9.42 9.42 0 0 0 1.51-.12 9.11 9.11 0 0 1-7.57-9.69L53.24 28h-3l-6.76 54.59a9.11 9.11 0 0 0 9.09 9.81z" fill="#969b2c"/><circle cx="45.32" cy="64.71" r="2.84" fill="#bc1b21"/><path d="M45.32 67.56a3 3 0 0 0 .42 0 2.83 2.83 0 0 1 0-5.61 3 3 0 0 0-.42 0 2.85 2.85 0 0 0 0 5.69z" fill="#96151f"/><circle cx="45.32" cy="64.71" r="1.54" fill="#cc2935"/><path d="M45.32 66.25h.21a1.54 1.54 0 0 1 0-3h-.21a1.54 1.54 0 1 0 0 3.07z" fill="#c11b30"/><path d="M45 26.45a12.1 12.1 0 0 1 7.58-2.89c3.5-.06 7.57 1.42 7.57 2.89s-4.07 2.94-7.57 2.88A12.11 12.11 0 0 1 45 26.45z" fill="#ffb21a"/><path d="M59.37 26.45c0 1.38-3.62 2.77-7 2.88h.16c3.5.06 7.57-1.42 7.57-2.88s-4.07-2.95-7.57-2.89h-.16c3.38.11 7 1.51 7 2.89z" fill="#fdd224"/><path d="M52.57 29.33h1a12 12 0 0 1-7-2.86 12 12 0 0 1 7-2.87h-1A12.1 12.1 0 0 0 45 26.45a12.11 12.11 0 0 0 7.57 2.88z" fill="#ff990b"/><path d="M49.38 24.2a6.41 6.41 0 0 1 3-.75c1.4 0 3 .37 3 .75s-1.62.76-3 .75a6.41 6.41 0 0 1-3-.75z" fill="#484349"/><path fill="#7c7c21" d="M52.21 82.28v-1.09h9.26l.14 1.09h-9.4zm0-5.37v-1.09h8.58l.14 1.09h-8.72zm0-5.36v-1.1h7.9l.14 1.1h-8.04zm0-5.37v-1.09h7.22l.13 1.09h-7.35zm0-5.37v-1.09h6.54l.13 1.09h-6.67zm0-5.36v-1.09h5.85l.14 1.09h-5.99zm0-5.37v-1.09h5.17l.14 1.09h-5.31zm0-5.36v-1.1h4.49l.14 1.1h-4.63zm0-5.37v-1.09h3.81l.14 1.09h-3.95zm0-5.37v-1.09h3.13l.13 1.09h-3.26z"/><circle cx="61.68" cy="74.83" r="2.84" fill="#bc1b21"/><path d="M61.68 77.67a2.73 2.73 0 0 0 .41 0 2.84 2.84 0 0 1 0-5.62 2.73 2.73 0 0 0-.41 0 2.84 2.84 0 1 0 0 5.68z" fill="#96151f"/><circle cx="61.68" cy="74.83" r="1.54" fill="#cc2935"/><path d="M61.68 76.37h.21a1.53 1.53 0 0 1 0-3h-.21a1.54 1.54 0 1 0 0 3.08z" fill="#c11b30"/><circle cx="56.74" cy="43.49" r="2.84" fill="#bc1b21"/><path d="M56.74 46.33a2.71 2.71 0 0 0 .41 0 2.84 2.84 0 0 1 0-5.61 2.73 2.73 0 0 0-.41 0 2.84 2.84 0 0 0 0 5.68z" fill="#96151f"/><circle cx="56.74" cy="43.49" r="1.54" fill="#cc2935"/><path d="M56.74 45H57a1.53 1.53 0 0 1 0-3h-.21a1.54 1.54 0 1 0 0 3.07z" fill="#c11b30"/><path d="M107.1 83.31v-.72L113.86 28h4.5l.63 4.92.13 1.09.55 4.28.14 1.09.54 4.27.14 1.1L121 49l.14 1.09.54 4.28.14 1.09.55 4.27.13 1.09.55 4.28.14 1.09.54 4.27.14 1.1.54 4.27.14 1.09.54 4.28.14 1.09v.27a9.11 9.11 0 1 1-18.2.76z" fill="#a3af31"/><path d="M115.45 92.37h.77a9.11 9.11 0 0 0 9.08-9.85L118.36 28h-1.54l6.94 54.58a9.11 9.11 0 0 1-8.31 9.79z" fill="#bbc144"/><path d="M116.22 92.4a9.42 9.42 0 0 0 1.51-.12 9.11 9.11 0 0 1-7.57-9.69L116.89 28h-3l-6.73 54.62a9.11 9.11 0 0 0 9.06 9.78z" fill="#969b2c"/><circle cx="108.97" cy="64.71" r="2.84" fill="#bc1b21"/><path d="M109 67.56a3 3 0 0 0 .42 0 2.83 2.83 0 0 1 0-5.61 3 3 0 0 0-.42 0 2.85 2.85 0 0 0 0 5.69z" fill="#96151f"/><circle cx="108.97" cy="64.71" r="1.54" fill="#cc2935"/><path d="M109 66.25h.21a1.54 1.54 0 0 1 0-3H109a1.54 1.54 0 1 0 0 3.07z" fill="#c11b30"/><path d="M108.64 26.45a12.1 12.1 0 0 1 7.58-2.89c3.5-.06 7.57 1.42 7.57 2.89s-4.07 2.94-7.57 2.88a12.11 12.11 0 0 1-7.58-2.88z" fill="#ffb21a"/><path d="M123 26.45c0 1.38-3.62 2.77-7 2.88h.16c3.5.06 7.57-1.42 7.57-2.88s-4.07-2.95-7.57-2.89H116c3.4.11 7 1.51 7 2.89z" fill="#fdd224"/><path d="M116.22 29.33h1a12 12 0 0 1-7-2.86 12 12 0 0 1 7-2.87h-1a12.1 12.1 0 0 0-7.58 2.89 12.11 12.11 0 0 0 7.58 2.84z" fill="#ff990b"/><path d="M113 24.2a6.41 6.41 0 0 1 3-.75c1.4 0 3 .37 3 .75s-1.62.76-3 .75a6.41 6.41 0 0 1-3-.75z" fill="#484349"/><path fill="#7c7c21" d="M115.86 82.28v-1.09h9.26l.14 1.09h-9.4zm0-5.37v-1.09h8.58l.14 1.09h-8.72zm0-5.36v-1.1h7.9l.14 1.1h-8.04zm0-5.37v-1.09h7.22l.14 1.09h-7.36zm0-5.37v-1.09h6.53l.14 1.09h-6.67zm0-5.36v-1.09h5.85l.14 1.09h-5.99zm0-5.37v-1.09h5.17l.14 1.09h-5.31zm0-5.36v-1.1h4.49l.14 1.1h-4.63zm0-5.37v-1.09h3.81l.14 1.09h-3.95zm0-5.37v-1.09h3.13l.13 1.09h-3.26z"/><circle cx="125.33" cy="74.83" r="2.84" fill="#bc1b21"/><path d="M125.33 77.67a2.73 2.73 0 0 0 .41 0 2.84 2.84 0 0 1 0-5.62 2.73 2.73 0 0 0-.41 0 2.84 2.84 0 0 0 0 5.68z" fill="#96151f"/><circle cx="125.33" cy="74.83" r="1.54" fill="#cc2935"/><path d="M125.33 76.37h.21a1.53 1.53 0 0 1 0-3h-.21a1.54 1.54 0 1 0 0 3.08z" fill="#c11b30"/><circle cx="120.39" cy="43.49" r="2.84" fill="#bc1b21"/><path d="M120.39 46.33a2.71 2.71 0 0 0 .41 0 2.84 2.84 0 0 1 0-5.61 2.73 2.73 0 0 0-.41 0 2.84 2.84 0 0 0 0 5.68z" fill="#96151f"/><circle cx="120.39" cy="43.49" r="1.54" fill="#cc2935"/><path d="M120.39 45h.21a1.53 1.53 0 0 1 0-3h-.21a1.54 1.54 0 1 0 0 3.07z" fill="#c11b30"/><path d="M31.72 135.23v.72L25 190.56h-4.53l-.63-4.92-.14-1.09-.54-4.27-.14-1.1-.54-4.27-.14-1.09-.55-4.28-.13-1.09-.55-4.27-.11-1.09-.54-4.28-.14-1.09-.54-4.27-.14-1.09-.54-4.28-.17-1.08-.54-4.27-.15-1.1-.54-4.27-.14-1.09v-.28a9.11 9.11 0 1 1 18.19-.75z" fill="#a3af31"/><path d="M23.38 126.17h-.77a9.12 9.12 0 0 0-9.08 9.83l6.94 54.58H22L15.06 136a9.12 9.12 0 0 1 8.32-9.83z" fill="#bbc144"/><path d="M22.61 126.13a9.54 9.54 0 0 0-1.52.13 9.1 9.1 0 0 1 7.57 9.74l-6.73 54.61h3L31.69 136a9.11 9.11 0 0 0-9.08-9.87z" fill="#969b2c"/><circle cx="29.85" cy="153.82" r="2.84" fill="#bc1b21"/><path d="M29.85 151a2.73 2.73 0 0 0-.41 0 2.84 2.84 0 0 1 0 5.62 2.73 2.73 0 0 0 .41 0 2.84 2.84 0 0 0 0-5.68z" fill="#96151f"/><circle cx="29.85" cy="153.82" r="1.54" fill="#cc2935"/><path d="M29.85 152.28h-.2a1.54 1.54 0 0 1 0 3h.2a1.54 1.54 0 1 0 0-3.08z" fill="#c11b30"/><path d="M30.18 192.09a12 12 0 0 1-7.57 2.91c-3.5.06-7.58-1.42-7.58-2.88s4.08-3 7.58-2.89a12 12 0 0 1 7.57 2.86z" fill="#ffb21a"/><path d="M15.8 192.09c0-1.38 3.62-2.78 7-2.88h-.16c-3.5-.06-7.58 1.42-7.58 2.89s4.05 2.9 7.55 2.9h.16c-3.35-.14-6.97-1.53-6.97-2.91z" fill="#fdd224"/><path d="M22.61 189.2h-1a12.1 12.1 0 0 1 7.05 2.86 12.1 12.1 0 0 1-7 2.86h1a12 12 0 0 0 7.57-2.88 12 12 0 0 0-7.62-2.84z" fill="#ff990b"/><path d="M25.8 194.34a6.41 6.41 0 0 1-3 .75c-1.4 0-3-.37-3-.75s1.63-.77 3-.75a6.41 6.41 0 0 1 3 .75z" fill="#484349"/><path fill="#7c7c21" d="M22.96 136.26v1.09H13.7l-.14-1.09h9.4zm0 5.37v1.09h-8.57l-.15-1.09h8.72zm0 5.36v1.09h-7.89l-.14-1.09h8.03zm0 5.37v1.09h-7.21l-.14-1.09h7.35zm0 5.36v1.09h-6.53l-.14-1.09h6.67zm0 5.37v1.09h-5.85l-.13-1.09h5.98zm0 5.36v1.09H17.8l-.14-1.09h5.3zm0 5.37v1.09h-4.48l-.14-1.09h4.62zm0 5.37v1.09h-3.8l-.14-1.09h3.94zm0 5.36v1.09h-3.12l-.14-1.09h3.26z"/><circle cx="13.5" cy="143.71" r="2.84" fill="#bc1b21"/><path d="M13.5 140.87a2.86 2.86 0 0 0-.42 0 2.84 2.84 0 0 1 0 5.61 2.84 2.84 0 1 0 .42-5.64z" fill="#96151f"/><circle cx="13.5" cy="143.71" r="1.54" fill="#cc2935"/><path d="M13.5 142.17h-.21a1.53 1.53 0 0 1 0 3h.21a1.54 1.54 0 0 0 0-3.07z" fill="#c11b30"/><circle cx="18.44" cy="175.05" r="2.84" fill="#bc1b21"/><path d="M18.44 172.21a3 3 0 0 0-.42 0 2.83 2.83 0 0 1 0 5.61 3 3 0 0 0 .42 0 2.84 2.84 0 1 0 0-5.68z" fill="#96151f"/><circle cx="18.44" cy="175.05" r="1.54" fill="#cc2935"/><path d="M18.44 173.51h-.21a1.53 1.53 0 0 1 0 3h.21a1.54 1.54 0 0 0 0-3.07z" fill="#c11b30"/><path d="M95.37 135.23v.72l-6.73 54.61h-4.52l-.63-4.92-.14-1.09-.54-4.27-.14-1.1-.54-4.27-.13-1.09-.55-4.28-.13-1.09-.55-4.27-.14-1.09-.54-4.28-.14-1.09-.54-4.27-.14-1.09-.54-4.28-.15-1.08-.58-4.28-.15-1.1-.54-4.27-.14-1.09v-.28a9.11 9.11 0 1 1 18.19-.75z" fill="#a3af31"/><path d="M87 126.17h-.77a9.11 9.11 0 0 0-9.05 9.83l6.94 54.58h1.53L78.71 136a9.12 9.12 0 0 1 8.29-9.83z" fill="#bbc144"/><path d="M86.26 126.13a9.54 9.54 0 0 0-1.52.13 9.1 9.1 0 0 1 7.57 9.74l-6.73 54.61h3L95.34 136a9.11 9.11 0 0 0-9.08-9.87z" fill="#969b2c"/><circle cx="93.5" cy="153.82" r="2.84" fill="#bc1b21"/><path d="M93.5 151a2.73 2.73 0 0 0-.41 0 2.84 2.84 0 0 1 0 5.62 2.73 2.73 0 0 0 .41 0 2.84 2.84 0 0 0 0-5.68z" fill="#96151f"/><circle cx="93.5" cy="153.82" r="1.54" fill="#cc2935"/><path d="M93.5 152.28h-.2a1.54 1.54 0 0 1 0 3h.2a1.54 1.54 0 1 0 0-3.08z" fill="#c11b30"/><path d="M93.83 192.09a12.07 12.07 0 0 1-7.57 2.91c-3.5.06-7.58-1.42-7.58-2.88s4.08-3 7.58-2.89a12.06 12.06 0 0 1 7.57 2.86z" fill="#ffb21a"/><path d="M79.45 192.09c0-1.38 3.62-2.78 7-2.88h-.16c-3.5-.06-7.58 1.42-7.58 2.89s4.05 2.9 7.55 2.9h.16c-3.35-.14-6.97-1.53-6.97-2.91z" fill="#fdd224"/><path d="M86.26 189.2h-1a12.1 12.1 0 0 1 7 2.86 12.1 12.1 0 0 1-7 2.86h1a12.07 12.07 0 0 0 7.57-2.88 12.06 12.06 0 0 0-7.57-2.84z" fill="#ff990b"/><path d="M89.45 194.34a6.41 6.41 0 0 1-3 .75c-1.4 0-3-.37-3-.75s1.63-.77 3-.75a6.41 6.41 0 0 1 3 .75z" fill="#484349"/><path fill="#7c7c21" d="M86.61 136.26v1.09h-9.26l-.14-1.09h9.4zm0 5.37v1.09h-8.57l-.15-1.09h8.72zm0 5.36v1.09h-7.89l-.14-1.09h8.03zm0 5.37v1.09H79.4l-.14-1.09h7.35zm0 5.36v1.09h-6.53l-.14-1.09h6.67zm0 5.37v1.09h-5.85l-.13-1.09h5.98zm0 5.36v1.09h-5.17l-.13-1.09h5.3zm0 5.37v1.09h-4.48l-.14-1.09h4.62zm0 5.37v1.09h-3.8l-.14-1.09h3.94zm0 5.36v1.09h-3.12l-.14-1.09h3.26z"/><circle cx="77.15" cy="143.71" r="2.84" fill="#bc1b21"/><path d="M77.15 140.87a2.86 2.86 0 0 0-.42 0 2.84 2.84 0 0 1 0 5.61 2.84 2.84 0 1 0 .42-5.64z" fill="#96151f"/><circle cx="77.15" cy="143.71" r="1.54" fill="#cc2935"/><path d="M77.15 142.17h-.21a1.53 1.53 0 0 1 0 3h.21a1.54 1.54 0 0 0 0-3.07z" fill="#c11b30"/><circle cx="82.09" cy="175.05" r="2.84" fill="#bc1b21"/><path d="M82.09 172.21a2.86 2.86 0 0 0-.42 0 2.84 2.84 0 0 1 0 5.61 2.84 2.84 0 1 0 .42-5.64z" fill="#96151f"/><circle cx="82.09" cy="175.05" r="1.54" fill="#cc2935"/><path d="M82.09 173.51h-.21a1.53 1.53 0 0 1 0 3h.21a1.54 1.54 0 0 0 0-3.07z" fill="#c11b30"/><path d="M43.45 186v-.72l6.73-54.61h4.5l.63 4.91.13 1.1.55 4.27.14 1.09.54 4.28.14 1.09.54 4.27.14 1.09.54 4.28.14 1.09.55 4.27.13 1.09.55 4.28.14 1.09.54 4.27.14 1.1.54 4.27.14 1.09.54 4.28.14 1.09v.27a9.12 9.12 0 1 1-18.2.76z" fill="#a3af31"/><path d="M51.8 195.05h.77a9.11 9.11 0 0 0 9.08-9.85l-6.94-54.57h-1.54l6.94 54.57a9.11 9.11 0 0 1-8.31 9.85z" fill="#bbc144"/><path d="M52.57 195.08a9.42 9.42 0 0 0 1.51-.12 9.11 9.11 0 0 1-7.57-9.69l6.73-54.61h-3l-6.73 54.61a9.11 9.11 0 0 0 9.06 9.81z" fill="#969b2c"/><circle cx="45.32" cy="167.4" r="2.84" fill="#bc1b21"/><path d="M45.32 170.24a3 3 0 0 0 .42 0 2.83 2.83 0 0 1 0-5.61 3 3 0 0 0-.42 0 2.84 2.84 0 1 0 0 5.68z" fill="#96151f"/><circle cx="45.32" cy="167.4" r="1.54" fill="#cc2935"/><path d="M45.32 168.93h.21a1.53 1.53 0 0 1 0-3h-.21a1.54 1.54 0 1 0 0 3.07z" fill="#c11b30"/><path d="M45 129.13a12.1 12.1 0 0 1 7.58-2.89c3.5-.06 7.57 1.42 7.57 2.89s-4.07 2.94-7.57 2.88a12.11 12.11 0 0 1-7.58-2.88z" fill="#ffb21a"/><path d="M59.37 129.13c0 1.38-3.62 2.77-7 2.88h.16c3.5.06 7.57-1.42 7.57-2.88s-4.07-2.95-7.57-2.89h-.16c3.38.11 7 1.51 7 2.89z" fill="#fdd224"/><path d="M52.57 132h1a12 12 0 0 1-7-2.86 12 12 0 0 1 7-2.86h-1a12.1 12.1 0 0 0-7.57 2.85 12.11 12.11 0 0 0 7.57 2.87z" fill="#ff990b"/><path d="M49.38 126.88a6.41 6.41 0 0 1 3-.75c1.4 0 3 .37 3 .75s-1.62.76-3 .75a6.41 6.41 0 0 1-3-.75z" fill="#484349"/><path fill="#7c7c21" d="M52.21 184.96v-1.09h9.26l.14 1.09h-9.4zm0-5.37v-1.09h8.58l.14 1.09h-8.72zm0-5.36v-1.1h7.9l.14 1.1h-8.04zm0-5.37v-1.09h7.22l.13 1.09h-7.35zm0-5.37v-1.09h6.54l.13 1.09h-6.67zm0-5.36v-1.09h5.85l.14 1.09h-5.99zm0-5.37v-1.09h5.17l.14 1.09h-5.31zm0-5.36v-1.09h4.49l.14 1.09h-4.63zm0-5.37v-1.09h3.81l.14 1.09h-3.95zm0-5.37v-1.09h3.13l.13 1.09h-3.26z"/><circle cx="61.68" cy="177.51" r="2.84" fill="#bc1b21"/><path d="M61.68 180.35a2.73 2.73 0 0 0 .41 0 2.84 2.84 0 0 1 0-5.62 2.73 2.73 0 0 0-.41 0 2.84 2.84 0 1 0 0 5.68z" fill="#96151f"/><circle cx="61.68" cy="177.51" r="1.54" fill="#cc2935"/><path d="M61.68 179.05h.21a1.53 1.53 0 0 1 0-3h-.21a1.54 1.54 0 1 0 0 3.08z" fill="#c11b30"/><circle cx="56.74" cy="146.17" r="2.84" fill="#bc1b21"/><path d="M56.74 149a2.73 2.73 0 0 0 .41 0 2.84 2.84 0 0 1 0-5.62 2.73 2.73 0 0 0-.41 0 2.84 2.84 0 1 0 0 5.68z" fill="#96151f"/><circle cx="56.74" cy="146.17" r="1.54" fill="#cc2935"/><path d="M56.74 147.71h.21a1.53 1.53 0 0 1 0-3h-.21a1.54 1.54 0 1 0 0 3.08z" fill="#c11b30"/><path d="M107.1 186v-.72l6.73-54.61h4.5l.63 4.91.13 1.1.55 4.27.14 1.09.54 4.28.14 1.09.54 4.27.14 1.09.54 4.28.14 1.09.55 4.27.13 1.09.55 4.28.14 1.09.54 4.27.14 1.1.54 4.27.14 1.09.54 4.28.14 1.09v.27a9.12 9.12 0 1 1-18.2.76z" fill="#a3af31"/><path d="M115.45 195.05h.77a9.11 9.11 0 0 0 9.08-9.85l-6.94-54.57h-1.54l6.94 54.57a9.11 9.11 0 0 1-8.31 9.85z" fill="#bbc144"/><path d="M116.22 195.08a9.42 9.42 0 0 0 1.51-.12 9.11 9.11 0 0 1-7.57-9.69l6.73-54.61h-3l-6.73 54.61a9.11 9.11 0 0 0 9.06 9.81z" fill="#969b2c"/><circle cx="108.97" cy="167.4" r="2.84" fill="#bc1b21"/><path d="M109 170.24a3 3 0 0 0 .42 0 2.83 2.83 0 0 1 0-5.61 3 3 0 0 0-.42 0 2.84 2.84 0 0 0 0 5.68z" fill="#96151f"/><circle cx="108.97" cy="167.4" r="1.54" fill="#cc2935"/><path d="M109 168.93h.21a1.53 1.53 0 0 1 0-3H109a1.54 1.54 0 1 0 0 3.07z" fill="#c11b30"/><path d="M108.64 129.13a12.1 12.1 0 0 1 7.58-2.89c3.5-.06 7.57 1.42 7.57 2.89s-4.07 2.94-7.57 2.88a12.11 12.11 0 0 1-7.58-2.88z" fill="#ffb21a"/><path d="M123 129.13c0 1.38-3.62 2.77-7 2.88h.16c3.5.06 7.57-1.42 7.57-2.88s-4.07-2.95-7.57-2.89H116c3.4.11 7 1.51 7 2.89z" fill="#fdd224"/><path d="M116.22 132h1a12 12 0 0 1-7-2.86 12 12 0 0 1 7-2.86h-1a12.1 12.1 0 0 0-7.58 2.89 12.11 12.11 0 0 0 7.58 2.83z" fill="#ff990b"/><path d="M113 126.88a6.41 6.41 0 0 1 3-.75c1.4 0 3 .37 3 .75s-1.62.76-3 .75a6.41 6.41 0 0 1-3-.75z" fill="#484349"/><path fill="#7c7c21" d="M115.86 184.96v-1.09h9.26l.14 1.09h-9.4zm0-5.37v-1.09h8.58l.14 1.09h-8.72zm0-5.36v-1.1h7.9l.14 1.1h-8.04zm0-5.37v-1.09h7.22l.14 1.09h-7.36zm0-5.37v-1.09h6.53l.14 1.09h-6.67zm0-5.36v-1.09h5.85l.14 1.09h-5.99zm0-5.37v-1.09h5.17l.14 1.09h-5.31zm0-5.36v-1.09h4.49l.14 1.09h-4.63zm0-5.37v-1.09h3.81l.14 1.09h-3.95zm0-5.37v-1.09h3.13l.13 1.09h-3.26z"/><circle cx="125.33" cy="177.51" r="2.84" fill="#bc1b21"/><path d="M125.33 180.35a2.73 2.73 0 0 0 .41 0 2.84 2.84 0 0 1 0-5.62 2.73 2.73 0 0 0-.41 0 2.84 2.84 0 0 0 0 5.68z" fill="#96151f"/><circle cx="125.33" cy="177.51" r="1.54" fill="#cc2935"/><path d="M125.33 179.05h.21a1.53 1.53 0 0 1 0-3h-.21a1.54 1.54 0 1 0 0 3.08z" fill="#c11b30"/><circle cx="120.39" cy="146.17" r="2.84" fill="#bc1b21"/><path d="M120.39 149a2.73 2.73 0 0 0 .41 0 2.84 2.84 0 0 1 0-5.62 2.73 2.73 0 0 0-.41 0 2.84 2.84 0 1 0 0 5.68z" fill="#96151f"/><circle cx="120.39" cy="146.17" r="1.54" fill="#cc2935"/><path d="M120.39 147.71h.21a1.53 1.53 0 0 1 0-3h-.21a1.54 1.54 0 1 0 0 3.08z" fill="#c11b30"/></svg>