<svg xmlns="http://www.w3.org/2000/svg" viewBox="0 0 138.83 215.65"><path fill="#fff" d="M0 0h138.82v215.65H0z"/><path fill="none" stroke="#7f664a" stroke-miterlimit="10" stroke-width=".5" d="M61.22 209.45H40.41m55.52 0H75.11m-48.61 0H5.69V9.63H26.5m83.32 0h20.81v199.82h-20.81M75.11 9.63h20.82m-55.52 0h20.81"/><path d="m11 24.58 3.33-10.11h-2.59a5 5 0 0 0-2.24.39 2 2 0 0 0-.87 1h-.34l.88-3.8h7.3l-4.11 12.5zm111.28 179.33 3.33-10.11h-2.54a5 5 0 0 0-2.24.39 2 2 0 0 0-.86 1h-.35l.89-3.8h7.3l-4.11 12.5z" fill="#7f664a"/><path fill="none" d="M7.67 12.06h31.99V45.6H7.67z"/><path d="M29.94 92.2h1.12L116 102.72v7l-7.65 1-1.69.21-6.65.85-1.7.22-6.64.84L90 113l-6.64.84-1.7.21-6.65.85-1.69.21-6.65.85-1.69.22-6.66.84-1.69.22-6.65.84-1.7.22-6.64.84-1.7.22-6.65.84-1.7.22h-.42a14.17 14.17 0 1 1-1.23-28.22z" fill="#a3af31"/><path d="M15.85 105.18v1.19a14.18 14.18 0 0 0 15.27 14.13L116 109.7v-2.39l-84.87 10.8a14.18 14.18 0 0 1-15.28-12.93z" fill="#bbc144"/><path d="M15.8 106.37a15.24 15.24 0 0 0 .19 2.36A14.17 14.17 0 0 1 31.06 97L116 107.42v-4.71L31.06 92.25a14.16 14.16 0 0 0-15.26 14.12z" fill="#969b2c"/><circle cx="58.86" cy="95.11" r="4.42" fill="#bc1b21"/><path d="M54.44 95.11a4.48 4.48 0 0 0 .05.64 4.41 4.41 0 0 1 8.73 0 4.48 4.48 0 0 0 .05-.64 4.42 4.42 0 1 0-8.83 0z" fill="#96151f"/><circle cx="58.86" cy="95.11" r="2.39" fill="#cc2935"/><path d="M56.47 95.11v.32a2.39 2.39 0 0 1 4.73 0 1.73 1.73 0 0 0 0-.32 2.39 2.39 0 0 0-4.78 0z" fill="#c11b30"/><path d="M118.37 94.59a18.81 18.81 0 0 1 4.48 11.78c.1 5.44-2.2 11.78-4.48 11.78s-4.58-6.34-4.49-11.78a18.8 18.8 0 0 1 4.49-11.78z" fill="#ffb21a"/><path d="M118.37 117c-2.15 0-4.32-5.63-4.48-10.84v.25c-.09 5.44 2.21 11.78 4.49 11.78s4.58-6.34 4.48-11.78v-.25c-.18 5.17-2.34 10.84-4.49 10.84z" fill="#fdd224"/><path d="M113.88 106.37v1.54a18.8 18.8 0 0 1 4.46-11 18.81 18.81 0 0 1 4.45 11v-1.54a18.81 18.81 0 0 0-4.48-11.78 18.8 18.8 0 0 0-4.43 11.78z" fill="#ff990b"/><path d="M121.86 101.42a9.86 9.86 0 0 1 1.17 4.7c0 2.18-.58 4.71-1.17 4.71s-1.19-2.53-1.16-4.71a9.91 9.91 0 0 1 1.16-4.7z" fill="#484349"/><path fill="#7c7c21" d="M31.54 105.82h1.7v14.4l-1.7.22v-14.62zm8.35 0h1.7v13.34l-1.7.22v-13.56zm8.34 0h1.7v12.28l-1.7.22v-12.5zm8.35 0h1.69v11.22l-1.69.22v-11.44zm8.34 0h1.7v10.16l-1.7.22v-10.38zm8.35 0h1.69v9.1l-1.69.21v-9.31zm8.34 0h1.7v8.04l-1.7.21v-8.25zm8.34 0h1.71v6.98l-1.71.22v-7.2zm8.35 0h1.7v5.92l-1.7.22v-6.14zm8.35 0h1.69v4.86l-1.69.21v-5.07z"/><circle cx="43.13" cy="120.54" r="4.42" fill="#bc1b21"/><path d="M38.71 120.54a4.62 4.62 0 0 0 0 .65 4.41 4.41 0 0 1 8.73 0 4.62 4.62 0 0 0 .06-.65 4.42 4.42 0 0 0-8.84 0z" fill="#96151f"/><circle cx="43.13" cy="120.54" r="2.39" fill="#cc2935"/><path d="M40.74 120.54v.33a2.39 2.39 0 0 1 4.73 0 1.84 1.84 0 0 0 0-.33 2.39 2.39 0 0 0-4.78 0z" fill="#c11b30"/><circle cx="91.87" cy="112.86" r="4.42" fill="#bc1b21"/><path d="M87.45 112.86a4.62 4.62 0 0 0 0 .65 4.41 4.41 0 0 1 8.73 0 4.62 4.62 0 0 0 0-.65 4.42 4.42 0 1 0-8.83 0z" fill="#96151f"/><circle cx="91.87" cy="112.86" r="2.39" fill="#cc2935"/><path d="M89.48 112.86v.32a2.39 2.39 0 0 1 4.73 0 1.66 1.66 0 0 0 0-.32 2.39 2.39 0 1 0-4.78 0z" fill="#c11b30"/><path d="M59.49 76.69v-.71l6.65-53.91h4.44l.62 4.86.16 1.07.54 4.23.1 1.07.54 4.22.14 1.08.53 4.22.14 1.07.54 4.22.13 1.08.54 4.22.14 1.08.53 4.22.14 1.07.56 4.22.14 1.08.54 4.22.14 1.08.53 4.22.14 1.07v.27a9 9 0 1 1-18 .75z" fill="#a3af31"/><path d="M67.73 85.63h.76a9 9 0 0 0 9-9.73l-6.88-53.83h-1.52l6.85 53.87a9 9 0 0 1-8.21 9.69z" fill="#bbc144"/><path d="M68.49 85.67a9.29 9.29 0 0 0 1.5-.13A9 9 0 0 1 62.51 76l6.65-53.91h-3L59.52 76a9 9 0 0 0 8.97 9.67z" fill="#969b2c"/><circle cx="61.34" cy="58.34" r="2.8" fill="#bc1b21"/><path d="M61.34 61.14a2.73 2.73 0 0 0 .41 0 2.8 2.8 0 0 1 0-5.54 2.71 2.71 0 0 0-.41 0 2.81 2.81 0 0 0 0 5.61z" fill="#96151f"/><circle cx="61.34" cy="58.34" r="1.52" fill="#cc2935"/><path d="M61.34 59.85h.21a1.51 1.51 0 0 1 0-3h-.21a1.52 1.52 0 1 0 0 3z" fill="#c11b30"/><path d="M61 20.56a12 12 0 0 1 7.48-2.84c3.45-.06 7.48 1.4 7.48 2.84s-4 2.91-7.48 2.85A11.91 11.91 0 0 1 61 20.56z" fill="#ffb21a"/><path d="M75.21 20.56c0 1.37-3.57 2.74-6.88 2.85h.16C71.94 23.47 76 22 76 20.56s-4-2.9-7.48-2.84h-.16c3.28.11 6.85 1.48 6.85 2.84z" fill="#fdd224"/><path d="M68.49 23.41h1a11.9 11.9 0 0 1-6.95-2.83 12 12 0 0 1 6.95-2.82h-1a12 12 0 0 0-7.49 2.8 11.91 11.91 0 0 0 7.49 2.85z" fill="#ff990b"/><path d="M65.34 18.35a6.36 6.36 0 0 1 3-.74c1.38 0 3 .36 3 .74s-1.61.75-3 .74a6.49 6.49 0 0 1-3-.74z" fill="#484349"/><path fill="#7c7c21" d="M68.14 75.67V74.6h9.14l.14 1.07h-9.28zm0-5.29V69.3h8.47l.14 1.08h-8.61zm0-5.3V64h7.79l.14 1.08h-7.93zm0-5.3v-1.07h7.12l.14 1.07h-7.26zm0-5.3v-1.07h6.45l.14 1.07h-6.59zm0-5.29v-1.07h5.78l.13 1.07h-5.91zm0-5.3v-1.07h5.1l.14 1.07h-5.24zm0-5.29v-1.08h4.43l.14 1.08h-4.57zm0-5.3v-1.07h3.75l.14 1.07h-3.89zm0-5.3v-1.07h3.08l.14 1.07h-3.22z"/><circle cx="77.49" cy="68.32" r="2.8" fill="#bc1b21"/><path d="M77.49 71.12a2.83 2.83 0 0 0 .41 0 2.8 2.8 0 0 1 0-5.54 2.8 2.8 0 1 0-.41 5.57z" fill="#96151f"/><circle cx="77.49" cy="68.32" r="1.52" fill="#cc2935"/><path d="M77.49 69.84h.2a1.51 1.51 0 0 1 0-3h-.2a1.52 1.52 0 1 0 0 3z" fill="#c11b30"/><circle cx="72.61" cy="37.39" r="2.8" fill="#bc1b21"/><path d="M72.61 40.19a2.73 2.73 0 0 0 .41 0 2.81 2.81 0 0 1 0-5.55 2.73 2.73 0 0 0-.41 0 2.81 2.81 0 1 0 0 5.61z" fill="#96151f"/><circle cx="72.61" cy="37.39" r="1.52" fill="#cc2935"/><path d="M72.61 38.9h.2a1.52 1.52 0 0 1 0-3h-.2a1.52 1.52 0 1 0 0 3z" fill="#c11b30"/><path d="M47.92 26.58v.71L41.24 81.2h-4.43l-.62-4.85-.14-1.08-.53-4.22-.14-1.05-.54-4.21-.14-1.08-.53-4.22-.17-1.11-.53-4.22-.14-1.08-.54-4.21-.13-1.08-.54-4.22-.12-1.08-.53-4.22-.14-1.08L30.8 34l-.13-1.08-.54-4.22-.13-1.1v-.27a9 9 0 1 1 18-.75z" fill="#a3af31"/><path d="M39.68 17.64h-.76a9 9 0 0 0-9 9.72l6.89 53.84h1.51l-6.85-53.87a9 9 0 0 1 8.21-9.69z" fill="#bbc144"/><path d="M38.92 17.61a9.08 9.08 0 0 0-1.49.12 9 9 0 0 1 7.47 9.57l-6.65 53.9h3l6.65-53.9a9 9 0 0 0-8.98-9.69z" fill="#969b2c"/><circle cx="46.07" cy="44.94" r="2.8" fill="#bc1b21"/><path d="M46.07 42.13a2.85 2.85 0 0 0-.41 0 2.8 2.8 0 0 1 0 5.54 2.81 2.81 0 1 0 .41-5.58z" fill="#96151f"/><circle cx="46.07" cy="44.94" r="1.52" fill="#cc2935"/><path d="M46.07 43.42h-.2a1.51 1.51 0 0 1 0 3h.2a1.52 1.52 0 1 0 0-3z" fill="#c11b30"/><path d="M46.4 82.71a12 12 0 0 1-7.48 2.85c-3.45.06-7.48-1.4-7.48-2.85s4-2.91 7.48-2.85a12 12 0 0 1 7.48 2.85z" fill="#ffb21a"/><path d="M32.2 82.71c0-1.36 3.58-2.74 6.88-2.84h-.16c-3.45-.06-7.48 1.4-7.48 2.85s4 2.91 7.48 2.85h.16c-3.3-.12-6.88-1.5-6.88-2.86z" fill="#fdd224"/><path d="M38.92 79.86h-1a11.94 11.94 0 0 1 6.95 2.83A11.94 11.94 0 0 1 38 85.54h1a12 12 0 0 0 7.48-2.85 12 12 0 0 0-7.56-2.83z" fill="#ff990b"/><path d="M42.07 84.93a6.36 6.36 0 0 1-3 .74c-1.38 0-3-.37-3-.74s1.61-.76 3-.74a6.36 6.36 0 0 1 3 .74z" fill="#484349"/><path fill="#7c7c21" d="M39.27 27.6v1.08h-9.14l-.14-1.08h9.28zm0 5.3v1.08H30.8l-.13-1.08h8.6zm0 5.29v1.08h-7.79l-.14-1.08h7.93zm0 5.3v1.08h-7.12l-.14-1.08h7.26zm0 5.3v1.08h-6.45l-.13-1.08h6.58zm0 5.29v1.08H33.5l-.14-1.08h5.91zm0 5.3v1.08h-5.1l-.14-1.08h5.24zm0 5.29v1.08h-4.43l-.14-1.08h4.57zm0 5.3v1.08h-3.75l-.14-1.08h3.89zm0 5.3v1.08h-3.08l-.14-1.08h3.22z"/><circle cx="29.93" cy="34.95" r="2.8" fill="#bc1b21"/><path d="M29.93 32.15a2.73 2.73 0 0 0-.41 0 2.8 2.8 0 0 1 0 5.54 2.71 2.71 0 0 0 .41 0 2.81 2.81 0 0 0 0-5.61z" fill="#96151f"/><circle cx="29.93" cy="34.95" r="1.52" fill="#cc2935"/><path d="M29.93 33.44h-.21a1.52 1.52 0 0 1 0 3h.21a1.52 1.52 0 0 0 0-3z" fill="#c11b30"/><circle cx="34.8" cy="65.89" r="2.8" fill="#bc1b21"/><path d="M34.8 63.09a2.83 2.83 0 0 0-.41 0 2.8 2.8 0 0 1 0 5.54 2.8 2.8 0 1 0 .41-5.57z" fill="#96151f"/><circle cx="34.8" cy="65.89" r="1.52" fill="#cc2935"/><path d="M34.8 64.37h-.2a1.51 1.51 0 0 1 0 3h.2a1.52 1.52 0 1 0 0-3z" fill="#c11b30"/><path d="M110.74 26.58v.71l-6.67 53.91h-4.44L99 76.35l-.13-1.08-.54-4.22L98.2 70l-.53-4.21-.14-1.08-.53-4.25-.14-1.08-.54-4.22-.13-1.08-.54-4.21-.14-1.08-.51-4.22-.13-1.08-.54-4.22-.14-1.08-.56-4.19-.14-1.08-.49-4.24-.14-1.08v-.27a9 9 0 1 1 18-.75z" fill="#a3af31"/><path d="M102.51 17.64h-.76a9 9 0 0 0-9 9.72l6.88 53.84h1.52L94.3 27.33a9 9 0 0 1 8.21-9.69z" fill="#bbc144"/><path d="M101.75 17.61a9.29 9.29 0 0 0-1.5.12 9 9 0 0 1 7.47 9.57l-6.64 53.9h3l6.64-53.9a9 9 0 0 0-8.97-9.69z" fill="#969b2c"/><circle cx="108.9" cy="44.94" r="2.8" fill="#bc1b21"/><path d="M108.9 42.13a2.71 2.71 0 0 0-.41 0 2.8 2.8 0 0 1 0 5.54 2.73 2.73 0 0 0 .41 0 2.81 2.81 0 0 0 0-5.61z" fill="#96151f"/><circle cx="108.9" cy="44.94" r="1.52" fill="#cc2935"/><path d="M108.9 43.42h-.21a1.51 1.51 0 0 1 0 3h.21a1.52 1.52 0 1 0 0-3z" fill="#c11b30"/><path d="M109.22 82.71a11.91 11.91 0 0 1-7.47 2.85c-3.46.06-7.48-1.4-7.48-2.85s4-2.91 7.48-2.85a11.91 11.91 0 0 1 7.47 2.85z" fill="#ffb21a"/><path d="M95 82.71c0-1.36 3.57-2.74 6.87-2.84h-.15c-3.46-.06-7.48 1.4-7.48 2.85s4 2.91 7.48 2.85h.15c-3.27-.12-6.87-1.5-6.87-2.86z" fill="#fdd224"/><path d="M101.75 79.86h-1a12 12 0 0 1 7 2.83 12 12 0 0 1-7 2.83h1a11.91 11.91 0 0 0 7.47-2.85 11.91 11.91 0 0 0-7.47-2.81z" fill="#ff990b"/><path d="M104.89 84.93a6.27 6.27 0 0 1-3 .74c-1.38 0-3-.37-3-.74s1.6-.76 3-.74a6.27 6.27 0 0 1 3 .74z" fill="#484349"/><path fill="#7c7c21" d="M102.1 27.6v1.08h-9.14l-.14-1.08h9.28zm0 5.3v1.08h-8.47l-.14-1.08h8.61zm0 5.29v1.08h-7.8l-.13-1.08h7.93zm0 5.3v1.08h-7.13l-.13-1.08h7.26zm0 5.3v1.08h-6.45l-.14-1.08h6.59zm0 5.29v1.08h-5.78l-.13-1.08h5.91zm0 5.3v1.08H97l-.14-1.08h5.24zm0 5.29v1.08h-4.43l-.14-1.08h4.57zm0 5.3v1.08h-3.76l-.14-1.08h3.9zm0 5.3v1.08h-3.09l-.13-1.08h3.22z"/><circle cx="92.75" cy="34.95" r="2.8" fill="#bc1b21"/><path d="M92.75 32.15a2.83 2.83 0 0 0-.41 0 2.8 2.8 0 0 1 0 5.54 2.85 2.85 0 0 0 .41 0 2.81 2.81 0 1 0 0-5.61z" fill="#96151f"/><circle cx="92.75" cy="34.95" r="1.52" fill="#cc2935"/><path d="M92.75 33.44h-.2a1.52 1.52 0 0 1 0 3h.2a1.52 1.52 0 1 0 0-3z" fill="#c11b30"/><circle cx="97.63" cy="65.89" r="2.8" fill="#bc1b21"/><path d="M97.63 63.09a2.73 2.73 0 0 0-.41 0 2.8 2.8 0 0 1 0 5.54 2.73 2.73 0 0 0 .41 0 2.8 2.8 0 1 0 0-5.6z" fill="#96151f"/><circle cx="97.63" cy="65.89" r="1.52" fill="#cc2935"/><path d="M97.63 64.37h-.21a1.51 1.51 0 0 1 0 3h.21a1.52 1.52 0 1 0 0-3z" fill="#c11b30"/><path d="M79.33 137.5v.71l-6.64 53.9h-4.47l-.62-4.85-.14-1.08-.53-4.18-.14-1.07-.53-4.22-.14-1.08-.54-4.22-.13-1.08-.54-4.22-.14-1.11-.54-4.22-.13-1.08-.54-4.22-.13-1.08-.54-4.21-.14-1.08-.53-4.22-.14-1.08-.54-4.22-.14-1.08v-.27a9 9 0 1 1 18-.74z" fill="#a3af31"/><path d="M71.09 128.55h-.76a9 9 0 0 0-9 9.72l6.85 53.88h1.52l-6.85-53.88a9 9 0 0 1 8.24-9.72z" fill="#bbc144"/><path d="M70.33 128.52a9.08 9.08 0 0 0-1.49.12 9 9 0 0 1 7.47 9.57l-6.64 53.91h3l6.64-53.91a9 9 0 0 0-8.98-9.69z" fill="#969b2c"/><circle cx="77.49" cy="155.85" r="2.8" fill="#bc1b21"/><path d="M77.49 153.05a3 3 0 0 0-.42 0 2.8 2.8 0 0 1 0 5.54h.42a2.8 2.8 0 1 0 0-5.6z" fill="#96151f"/><circle cx="77.49" cy="155.85" r="1.52" fill="#cc2935"/><path d="M77.49 154.33h-.21a1.51 1.51 0 0 1 0 3h.21a1.52 1.52 0 0 0 0-3z" fill="#c11b30"/><path d="M77.81 193.62a11.86 11.86 0 0 1-7.48 2.85c-3.45.06-7.47-1.4-7.47-2.85s4-2.9 7.47-2.85a11.91 11.91 0 0 1 7.48 2.85z" fill="#ffb21a"/><path d="M63.62 193.62c0-1.36 3.57-2.74 6.87-2.84h-.16c-3.45-.05-7.47 1.41-7.47 2.85s4 2.91 7.47 2.85h.16c-3.3-.12-6.87-1.48-6.87-2.86z" fill="#fdd224"/><path d="M70.33 190.77h-1a11.92 11.92 0 0 1 7 2.82 12 12 0 0 1-7 2.83h1a11.86 11.86 0 0 0 7.48-2.85 11.91 11.91 0 0 0-7.48-2.8z" fill="#ff990b"/><path d="M73.48 195.84a6.31 6.31 0 0 1-3 .74c-1.38 0-3-.36-3-.74s1.61-.75 3-.74a6.31 6.31 0 0 1 3 .74z" fill="#484349"/><path fill="#7c7c21" d="M70.69 138.51v1.08h-9.15l-.13-1.08h9.28zm0 5.3v1.08h-8.47l-.14-1.08h8.61zm0 5.3v1.08h-7.8l-.14-1.08h7.94zm0 5.29v1.08h-7.13l-.13-1.08h7.26zm0 5.3v1.08h-6.46l-.13-1.08h6.59zm0 5.3v1.07h-5.78l-.14-1.07h5.92zm0 5.29v1.08h-5.11l-.13-1.08h5.24zm0 5.3v1.08h-4.43l-.14-1.08h4.57zm0 5.3v1.07h-3.76l-.14-1.07h3.9zm0 5.29v1.08H67.6l-.14-1.08h3.23z"/><circle cx="61.34" cy="145.87" r="2.8" fill="#bc1b21"/><path d="M61.34 143.06a2.71 2.71 0 0 0-.41 0 2.8 2.8 0 0 1 0 5.54 2.73 2.73 0 0 0 .41 0 2.81 2.81 0 0 0 0-5.61z" fill="#96151f"/><circle cx="61.34" cy="145.87" r="1.52" fill="#cc2935"/><path d="M61.34 144.35h-.21a1.51 1.51 0 0 1 0 3h.21a1.52 1.52 0 1 0 0-3z" fill="#c11b30"/><circle cx="66.22" cy="176.8" r="2.8" fill="#bc1b21"/><path d="M66.22 174a2.73 2.73 0 0 0-.41 0 2.8 2.8 0 0 1 0 5.54 2.71 2.71 0 0 0 .41 0 2.81 2.81 0 0 0 0-5.61z" fill="#96151f"/><circle cx="66.22" cy="176.8" r="1.52" fill="#cc2935"/><path d="M66.22 175.28h-.21a1.51 1.51 0 0 1 0 3h.21a1.52 1.52 0 0 0 0-3z" fill="#c11b30"/><path d="M90.91 187.6v-.71L97.58 133H102l.62 4.85.13 1.08.54 4.22.14 1.07.53 4.22.14 1.08.54 4.22.13 1.08.54 4.22.13 1.07.54 4.22.14 1.08.54 4.22.13 1.08.54 4.21.14 1.08.53 4.22.14 1.08.53 4.22.14 1.08v.27a9 9 0 1 1-18 .74z" fill="#a3af31"/><path d="M99.15 196.55h.75a9 9 0 0 0 9-9.72L102 133h-1.5l6.85 53.88a9 9 0 0 1-8.2 9.67z" fill="#bbc144"/><path d="M99.9 196.58a9.29 9.29 0 0 0 1.5-.12 9 9 0 0 1-7.47-9.57l6.64-53.89h-3l-6.64 53.91a9 9 0 0 0 8.97 9.67z" fill="#969b2c"/><circle cx="92.75" cy="169.25" r="2.8" fill="#bc1b21"/><path d="M92.75 172.05a2.73 2.73 0 0 0 .41 0 2.8 2.8 0 0 1 0-5.54 2.73 2.73 0 0 0-.41 0 2.8 2.8 0 1 0 0 5.6z" fill="#96151f"/><circle cx="92.75" cy="169.25" r="1.52" fill="#cc2935"/><path d="M92.75 170.77h.21a1.51 1.51 0 0 1 0-3h-.21a1.52 1.52 0 0 0 0 3z" fill="#c11b30"/><path d="M92.43 131.48a11.85 11.85 0 0 1 7.47-2.85c3.46-.06 7.48 1.4 7.48 2.85s-4 2.9-7.48 2.85a11.91 11.91 0 0 1-7.47-2.85z" fill="#ffb21a"/><path d="M106.62 131.48c0 1.36-3.57 2.74-6.87 2.84h.15c3.46 0 7.48-1.41 7.48-2.85s-4-2.91-7.48-2.85h-.15c3.3.12 6.87 1.49 6.87 2.86z" fill="#fdd224"/><path d="M99.9 134.33h1a11.92 11.92 0 0 1-7-2.82 12 12 0 0 1 7-2.83h-1a11.85 11.85 0 0 0-7.47 2.85 11.91 11.91 0 0 0 7.47 2.8z" fill="#ff990b"/><path d="M96.76 129.26a6.27 6.27 0 0 1 3-.74c1.38 0 3 .36 3 .74s-1.61.75-3 .74a6.27 6.27 0 0 1-3-.74z" fill="#484349"/><path fill="#7c7c21" d="M99.55 186.59v-1.08h9.14l.14 1.08h-9.28zm0-5.3v-1.08h8.47l.14 1.08h-8.61zm0-5.3v-1.08h7.8l.14 1.08h-7.94zm0-5.29v-1.08h7.13l.13 1.08h-7.26zm0-5.3v-1.08H106l.14 1.08h-6.59zm0-5.3v-1.07h5.78l.14 1.07h-5.92zm0-5.29v-1.08h5.11l.13 1.08h-5.24zm0-5.3v-1.08h4.43l.14 1.08h-4.57zm0-5.3v-1.07h3.76l.14 1.07h-3.9zm0-5.29v-1.08h3.09l.13 1.08h-3.22z"/><circle cx="108.9" cy="179.23" r="2.8" fill="#bc1b21"/><path d="M108.9 182a2.85 2.85 0 0 0 .41 0 2.8 2.8 0 0 1 0-5.54 2.81 2.81 0 1 0-.41 5.58z" fill="#96151f"/><circle cx="108.9" cy="179.23" r="1.52" fill="#cc2935"/><path d="M108.9 180.75h.2a1.51 1.51 0 0 1 0-3h-.2a1.52 1.52 0 1 0 0 3z" fill="#c11b30"/><circle cx="104.02" cy="148.3" r="2.8" fill="#bc1b21"/><path d="M104 151.1a2.73 2.73 0 0 0 .41 0 2.8 2.8 0 0 1 0-5.54 2.71 2.71 0 0 0-.41 0 2.81 2.81 0 0 0 0 5.61z" fill="#96151f"/><circle cx="104.02" cy="148.3" r="1.52" fill="#cc2935"/><path d="M104 149.81h.21a1.51 1.51 0 0 1 0-3H104a1.52 1.52 0 1 0 0 3z" fill="#c11b30"/><path d="M28.08 187.6v-.71L34.76 133h4.43l.62 4.85.14 1.08.53 4.22.14 1.07.54 4.22.14 1.08.53 4.22.14 1.08.53 4.18.14 1.07.54 4.22.13 1.08.54 4.22.15 1.11.53 4.21.14 1.08.53 4.22.14 1.08.54 4.22.14 1.08v.27a9 9 0 1 1-18 .74z" fill="#a3af31"/><path d="M36.32 196.55h.76a9 9 0 0 0 9-9.72L39.19 133h-1.51l6.84 53.88a9 9 0 0 1-8.2 9.67z" fill="#bbc144"/><path d="M37.08 196.58a9.08 9.08 0 0 0 1.49-.12 9 9 0 0 1-7.47-9.57L37.74 133h-3l-6.65 53.91a9 9 0 0 0 8.99 9.67z" fill="#969b2c"/><circle cx="29.93" cy="169.25" r="2.8" fill="#bc1b21"/><path d="M29.93 172.05a2.83 2.83 0 0 0 .41 0 2.8 2.8 0 0 1 0-5.54 2.8 2.8 0 1 0-.41 5.57z" fill="#96151f"/><circle cx="29.93" cy="169.25" r="1.52" fill="#cc2935"/><path d="M29.93 170.77h.2a1.51 1.51 0 0 1 0-3h-.2a1.52 1.52 0 1 0 0 3z" fill="#c11b30"/><path d="M29.6 131.48a11.91 11.91 0 0 1 7.48-2.85c3.45-.06 7.48 1.4 7.48 2.85s-4 2.9-7.48 2.85a12 12 0 0 1-7.48-2.85z" fill="#ffb21a"/><path d="M43.8 131.48c0 1.36-3.58 2.74-6.88 2.84h.16c3.45 0 7.48-1.41 7.48-2.85s-4-2.91-7.48-2.85h-.16c3.3.12 6.88 1.49 6.88 2.86z" fill="#fdd224"/><path d="M37.08 134.33h1a11.88 11.88 0 0 1-6.95-2.82 11.94 11.94 0 0 1 6.95-2.83h-1a11.91 11.91 0 0 0-7.48 2.85 12 12 0 0 0 7.48 2.8z" fill="#ff990b"/><path d="M33.93 129.26a6.31 6.31 0 0 1 3-.74c1.38 0 3 .36 3 .74s-1.61.75-3 .74a6.31 6.31 0 0 1-3-.74z" fill="#484349"/><path fill="#7c7c21" d="M36.73 186.59v-1.08h9.14l.14 1.08h-9.28zm0-5.3v-1.08h8.47l.13 1.08h-8.6zm0-5.3v-1.08h7.79l.14 1.08h-7.93zm0-5.29v-1.08h7.12l.14 1.08h-7.26zm0-5.3v-1.08h6.45l.13 1.08h-6.58zm0-5.3v-1.07h5.77l.14 1.07h-5.91zm0-5.29v-1.08h5.1l.14 1.08h-5.24zm0-5.3v-1.08h4.43l.14 1.08h-4.57zm0-5.3v-1.07h3.75l.14 1.07h-3.89zm0-5.29v-1.08h3.08l.14 1.08h-3.22z"/><circle cx="46.07" cy="179.23" r="2.8" fill="#bc1b21"/><path d="M46.07 182a2.71 2.71 0 0 0 .41 0 2.8 2.8 0 0 1 0-5.54 2.73 2.73 0 0 0-.41 0 2.81 2.81 0 0 0 0 5.61z" fill="#96151f"/><circle cx="46.07" cy="179.23" r="1.52" fill="#cc2935"/><path d="M46.07 180.75h.21a1.51 1.51 0 0 1 0-3h-.21a1.52 1.52 0 0 0 0 3z" fill="#c11b30"/><circle cx="41.2" cy="148.3" r="2.8" fill="#bc1b21"/><path d="M41.2 151.1a2.83 2.83 0 0 0 .41 0 2.8 2.8 0 0 1 0-5.54 2.85 2.85 0 0 0-.41 0 2.81 2.81 0 1 0 0 5.61z" fill="#96151f"/><circle cx="41.2" cy="148.3" r="1.52" fill="#cc2935"/><path d="M41.2 149.81h.2a1.51 1.51 0 0 1 0-3h-.2a1.52 1.52 0 1 0 0 3z" fill="#c11b30"/></svg>