<svg xmlns="http://www.w3.org/2000/svg" viewBox="0 0 138.83 215.65"><path fill="#fff" d="M0 0h138.82v215.65H0z"/><path fill="none" stroke="#7f664a" stroke-miterlimit="10" stroke-width=".5" d="M27.76 208.74H6.94V8.91h20.82m34.71 199.83H41.66m55.52 0H76.36M111.07 8.91h20.81v199.83h-20.81M76.36 8.91h20.82m-55.52 0h20.81"/><path d="M58.14 90.93v-.81l7.56-61.29h5l.7 5.52.16 1.22.61 4.8.15 1.23.68 4.79.16 1.23.61 4.79.15 1.23.61 4.8.16 1.22.61 4.8.15 1.22.61 4.8.16 1.22.61 4.8.17 1.23.61 4.79.16 1.23.61 4.79.16 1.23v.31a10.22 10.22 0 1 1-20.41.85z" fill="#a3af31"/><path d="M67.5 101.09a8.25 8.25 0 0 0 .86 0 10.23 10.23 0 0 0 10.2-11l-7.79-61.26H69l7.79 61.25a10.22 10.22 0 0 1-9.29 11.01z" fill="#bbc144"/><path d="M68.36 101.13a10.54 10.54 0 0 0 1.7-.14 10.22 10.22 0 0 1-8.49-10.87l7.55-61.29h-3.4l-7.55 61.29a10.22 10.22 0 0 0 10.19 11.01z" fill="#969b2c"/><circle cx="60.23" cy="70.06" r="3.19" fill="#bc1b21"/><path d="M60.23 73.25a3.57 3.57 0 0 0 .47 0 3.18 3.18 0 0 1 0-6.3 3.57 3.57 0 0 0-.47 0 3.19 3.19 0 0 0 0 6.38z" fill="#96151f"/><circle cx="60.23" cy="70.06" r="1.72" fill="#cc2935"/><path d="M60.23 71.78h.24a1.73 1.73 0 0 1 0-3.42h-.24a1.73 1.73 0 0 0 0 3.45z" fill="#c11b30"/><path d="M59.86 27.12a13.56 13.56 0 0 1 8.5-3.24c3.93-.07 8.51 1.59 8.51 3.24s-4.58 3.3-8.51 3.23a13.63 13.63 0 0 1-8.5-3.23z" fill="#ffb21a"/><path d="M76 27.12c0 1.55-4.06 3.11-7.81 3.23h.17c3.93.07 8.51-1.59 8.51-3.23s-4.58-3.31-8.51-3.24h-.17C71.94 24 76 25.57 76 27.12z" fill="#fdd224"/><path d="M68.36 30.35h1.11a13.62 13.62 0 0 1-7.91-3.21 13.54 13.54 0 0 1 7.91-3.22h-1.11a13.56 13.56 0 0 0-8.5 3.24 13.63 13.63 0 0 0 8.5 3.19z" fill="#ff990b"/><path d="M64.79 24.59a7.24 7.24 0 0 1 3.4-.84c1.57 0 3.39.42 3.39.84s-1.82.86-3.39.84a7.11 7.11 0 0 1-3.4-.84z" fill="#484349"/><path fill="#7c7c21" d="M67.97 89.77v-1.22h10.39l.16 1.22H67.97zm0-6.02v-1.23h9.62l.16 1.23h-9.78zm0-6.02V76.5h8.86l.15 1.23h-9.01zm0-6.03v-1.22h8.09l.16 1.22h-8.25zm0-6.02v-1.22h7.33l.15 1.22h-7.48zm0-6.02v-1.22h6.56l.16 1.22h-6.72zm0-6.02v-1.23h5.8l.15 1.23h-5.95zm0-6.02v-1.23H73l.16 1.23h-5.19zm0-6.02v-1.23h4.26l.16 1.23h-4.42zm0-6.03v-1.22h3.5l.16 1.22h-3.66z"/><circle cx="78.59" cy="81.41" r="3.19" fill="#bc1b21"/><path d="M78.59 84.6a3.73 3.73 0 0 0 .47 0 3.18 3.18 0 0 1 0-6.3 3.73 3.73 0 0 0-.47 0 3.19 3.19 0 0 0 0 6.38z" fill="#96151f"/><circle cx="78.59" cy="81.41" r="1.72" fill="#cc2935"/><path d="M78.59 83.13h.23a1.73 1.73 0 0 1 0-3.42h-.23a1.73 1.73 0 0 0 0 3.45z" fill="#c11b30"/><circle cx="73.05" cy="46.24" r="3.19" fill="#bc1b21"/><path d="M73.05 49.43a3.42 3.42 0 0 0 .46 0 3.18 3.18 0 0 1 0-6.3 3.42 3.42 0 0 0-.46 0 3.19 3.19 0 0 0 0 6.38z" fill="#96151f"/><circle cx="73.05" cy="46.24" r="1.72" fill="#cc2935"/><path d="M73.05 48h.23a1.73 1.73 0 0 1 0-3.42h-.23a1.73 1.73 0 1 0 0 3.45z" fill="#c11b30"/><path d="M45 34v.81l-7.61 61.24h-5l-.7-5.52-.16-1.22-.6-4.8-.16-1.22-.61-4.8-.16-1.22-.61-4.8-.15-1.22-.61-4.8-.16-1.23-.61-4.79-.15-1.23-.61-4.8-.16-1.22-.6-4.79-.16-1.23-.61-4.8-.16-1.22-.61-4.8-.15-1.22v-.31A10.22 10.22 0 1 1 45 34z" fill="#a3af31"/><path d="M35.61 23.79h-.86a10.22 10.22 0 0 0-10.19 11.02l7.78 61.25h1.73l-7.79-61.25a10.23 10.23 0 0 1 9.33-11.02z" fill="#bbc144"/><path d="M34.75 23.75a10.54 10.54 0 0 0-1.7.14 10.23 10.23 0 0 1 8.49 10.88L34 96.06h3.4l7.55-61.29a10.23 10.23 0 0 0-10.2-11.02z" fill="#969b2c"/><circle cx="42.88" cy="54.82" r="3.19" fill="#bc1b21"/><path d="M42.88 51.64a2.42 2.42 0 0 0-.47 0 3.18 3.18 0 0 1 0 6.29 2.42 2.42 0 0 0 .47 0 3.19 3.19 0 0 0 0-6.37z" fill="#96151f"/><circle cx="42.88" cy="54.82" r="1.72" fill="#cc2935"/><path d="M42.88 53.1h-.24a1.72 1.72 0 0 1 0 3.41h.24a1.73 1.73 0 0 0 0-3.45z" fill="#c11b30"/><path d="M43.25 97.77a13.53 13.53 0 0 1-8.5 3.24c-3.93.06-8.5-1.6-8.5-3.24s4.57-3.31 8.5-3.24a13.53 13.53 0 0 1 8.5 3.24z" fill="#ffb21a"/><path d="M27.11 97.77c0-1.55 4.06-3.11 7.82-3.23h-.18c-3.93-.07-8.5 1.59-8.5 3.24s4.57 3.3 8.5 3.24h.18c-3.76-.14-7.82-1.7-7.82-3.25z" fill="#fdd224"/><path d="M34.75 94.53a10.29 10.29 0 0 0-1.11 0 13.62 13.62 0 0 1 7.91 3.21 13.62 13.62 0 0 1-7.91 3.26h1.11a13.53 13.53 0 0 0 8.5-3.24 13.53 13.53 0 0 0-8.5-3.23z" fill="#ff990b"/><path d="M38.32 100.29a7.1 7.1 0 0 1-3.39.84c-1.57 0-3.4-.41-3.4-.84s1.83-.86 3.4-.84a7.1 7.1 0 0 1 3.39.84z" fill="#484349"/><path fill="#7c7c21" d="M35.15 35.12v1.22h-10.4l-.16-1.22h10.56zm0 6.02v1.22h-9.63l-.16-1.22h9.79zm0 6.02v1.23h-8.86l-.16-1.23h9.02zm0 6.02v1.23h-8.1l-.16-1.23h8.26zm0 6.02v1.23h-7.34l-.15-1.23h7.49zm0 6.02v1.23h-6.57l-.15-1.23h6.72zm0 6.03v1.22h-5.81l-.15-1.22h5.96zm0 6.02v1.22h-5.04l-.16-1.22h5.2zm0 6.02v1.22h-4.27l-.16-1.22h4.43zm0 6.02v1.22h-3.51l-.16-1.22h3.67z"/><circle cx="24.52" cy="43.48" r="3.19" fill="#bc1b21"/><path d="M24.52 40.29a2.49 2.49 0 0 0-.47 0 3.18 3.18 0 0 1 0 6.29 2.49 2.49 0 0 0 .47 0 3.19 3.19 0 1 0 0-6.37z" fill="#96151f"/><circle cx="24.52" cy="43.48" r="1.72" fill="#cc2935"/><path d="M24.52 41.75h-.23a1.72 1.72 0 0 1 0 3.41h.23a1.73 1.73 0 1 0 0-3.45z" fill="#c11b30"/><circle cx="30.07" cy="78.65" r="3.19" fill="#bc1b21"/><path d="M30.07 75.46a2.42 2.42 0 0 0-.47 0 3.18 3.18 0 0 1 0 6.3 3.59 3.59 0 0 0 .47 0 3.19 3.19 0 0 0 0-6.37z" fill="#96151f"/><circle cx="30.07" cy="78.65" r="1.72" fill="#cc2935"/><path d="M30.07 76.92h-.24a1.72 1.72 0 0 1 0 3.41h.24a1.73 1.73 0 0 0 0-3.45z" fill="#c11b30"/><path d="M116.4 34v.81l-7.56 61.28h-5l-.71-5.52-.15-1.22-.61-4.8-.16-1.22-.6-4.8-.16-1.22-.61-4.8-.15-1.22-.61-4.8-.16-1.23-.61-4.79-.15-1.23-.62-4.8-.15-1.22-.61-4.79-.16-1.23-.6-4.8-.16-1.22-.61-4.8-.25-1.26v-.31a10.23 10.23 0 1 1 20.4-.81z" fill="#a3af31"/><path d="M107 23.79h-.87A10.23 10.23 0 0 0 96 34.81l7.79 61.25h1.72l-7.8-61.25A10.23 10.23 0 0 1 107 23.79z" fill="#bbc144"/><path d="M106.17 23.75a10.64 10.64 0 0 0-1.7.14A10.23 10.23 0 0 1 113 34.77l-7.55 61.29h3.39l7.56-61.29a10.23 10.23 0 0 0-10.23-11.02z" fill="#969b2c"/><circle cx="114.3" cy="54.82" r="3.19" fill="#bc1b21"/><path d="M114.3 51.64a2.32 2.32 0 0 0-.46 0 3.18 3.18 0 0 1 0 6.29 2.32 2.32 0 0 0 .46 0 3.19 3.19 0 1 0 0-6.37z" fill="#96151f"/><circle cx="114.3" cy="54.82" r="1.72" fill="#cc2935"/><path d="M114.3 53.1h-.23a1.72 1.72 0 0 1 0 3.41h.23a1.73 1.73 0 1 0 0-3.45z" fill="#c11b30"/><path d="M114.67 97.77a13.53 13.53 0 0 1-8.5 3.24c-3.92.06-8.5-1.6-8.5-3.24s4.58-3.31 8.5-3.24a13.53 13.53 0 0 1 8.5 3.24z" fill="#ffb21a"/><path d="M98.54 97.77c0-1.55 4.06-3.11 7.81-3.23h-.18c-3.92-.07-8.5 1.59-8.5 3.24s4.58 3.3 8.5 3.24h.18c-3.75-.14-7.81-1.7-7.81-3.25z" fill="#fdd224"/><path d="M106.17 94.53a10.17 10.17 0 0 0-1.1 0 13.58 13.58 0 0 1 7.9 3.21 13.58 13.58 0 0 1-7.9 3.21h1.1a13.53 13.53 0 0 0 8.5-3.24 13.53 13.53 0 0 0-8.5-3.18z" fill="#ff990b"/><path d="M109.75 100.29a7.11 7.11 0 0 1-3.4.84c-1.57 0-3.4-.41-3.4-.84s1.83-.86 3.4-.84a7.11 7.11 0 0 1 3.4.84z" fill="#484349"/><path fill="#7c7c21" d="M106.57 35.12v1.22H96.18l-.16-1.22h10.55zm0 6.02v1.22h-9.62l-.16-1.22h9.78zm0 6.02v1.23h-8.86l-.16-1.23h9.02zm0 6.02v1.23h-8.1l-.15-1.23h8.25zm0 6.02v1.23h-7.33l-.15-1.23h7.48zm0 6.02v1.23H100l-.15-1.23h6.72zm0 6.03v1.22h-5.8l-.15-1.22h5.95zm0 6.02v1.22h-5.03l-.16-1.22h5.19zm0 6.02v1.22h-4.27l-.16-1.22h4.43zm0 6.02v1.22h-3.51l-.15-1.22h3.66z"/><circle cx="95.95" cy="43.48" r="3.19" fill="#bc1b21"/><path d="M96 40.29a2.42 2.42 0 0 0-.47 0 3.18 3.18 0 0 1 0 6.29 2.42 2.42 0 0 0 .47 0 3.19 3.19 0 1 0 0-6.37z" fill="#96151f"/><circle cx="95.95" cy="43.48" r="1.72" fill="#cc2935"/><path d="M96 41.75h-.24a1.72 1.72 0 0 1 0 3.41H96a1.73 1.73 0 0 0 0-3.45z" fill="#c11b30"/><circle cx="101.49" cy="78.65" r="3.19" fill="#bc1b21"/><path d="M101.49 75.46a2.49 2.49 0 0 0-.47 0 3.18 3.18 0 0 1 0 6.3 3.71 3.71 0 0 0 .47 0 3.19 3.19 0 1 0 0-6.37z" fill="#96151f"/><circle cx="101.49" cy="78.65" r="1.72" fill="#cc2935"/><path d="M101.49 76.92h-.23a1.72 1.72 0 0 1 0 3.41h.23a1.73 1.73 0 1 0 0-3.45z" fill="#c11b30"/><path d="M80.69 124.72a7.32 7.32 0 0 1 0 .81l-7.59 61.29h-5l-.7-5.52-.15-1.22-.61-4.8-.16-1.23-.61-4.79-.2-1.26-.61-4.79-.16-1.21-.61-4.8-.15-1.2-.61-4.8-.16-1.2-.61-4.8-.15-1.2-.61-4.8-.16-1.23-.61-4.79-.16-1.23-.6-4.79-.16-1.23v-.31a10.23 10.23 0 1 1 20.42-.85z" fill="#a3af31"/><path d="M71.32 114.56a8.12 8.12 0 0 0-.86 0 10.22 10.22 0 0 0-10.19 11l7.79 61.25h1.72L62 125.57a10.23 10.23 0 0 1 9.32-11.01z" fill="#bbc144"/><path d="M70.46 114.52a10.54 10.54 0 0 0-1.7.14 10.24 10.24 0 0 1 8.5 10.87l-7.56 61.29h3.4l7.55-61.29a10.22 10.22 0 0 0-10.19-11.01z" fill="#969b2c"/><circle cx="78.59" cy="145.59" r="3.19" fill="#bc1b21"/><path d="M78.59 142.4a3.73 3.73 0 0 0-.47 0 3.18 3.18 0 0 1 0 6.3 3.73 3.73 0 0 0 .47 0 3.19 3.19 0 0 0 0-6.38z" fill="#96151f"/><circle cx="78.59" cy="145.59" r="1.72" fill="#cc2935"/><path d="M78.59 143.87h-.23a1.73 1.73 0 0 1 0 3.42h.23a1.73 1.73 0 1 0 0-3.45z" fill="#c11b30"/><path d="M79 188.53a13.53 13.53 0 0 1-8.5 3.24c-3.93.07-8.5-1.59-8.5-3.24s4.57-3.3 8.5-3.23a13.6 13.6 0 0 1 8.5 3.23z" fill="#ffb21a"/><path d="M62.82 188.53c0-1.55 4.06-3.11 7.82-3.23h-.18c-3.93-.07-8.5 1.59-8.5 3.23s4.57 3.31 8.5 3.24h.18c-3.76-.12-7.82-1.69-7.82-3.24z" fill="#fdd224"/><path d="M70.46 185.3h-1.11a13.58 13.58 0 0 1 7.91 3.21 13.5 13.5 0 0 1-7.91 3.22h1.11a13.53 13.53 0 0 0 8.5-3.24 13.6 13.6 0 0 0-8.5-3.19z" fill="#ff990b"/><path d="M74 191.06a7.28 7.28 0 0 1-3.4.84c-1.57 0-3.4-.42-3.4-.84s1.83-.86 3.4-.84a7.15 7.15 0 0 1 3.4.84z" fill="#484349"/><path fill="#7c7c21" d="M70.86 125.88v1.23H60.47l-.16-1.23h10.55zm0 6.03v1.22h-9.63l-.16-1.22h9.79zm0 6.01v1.23H62l-.16-1.23h9.02zm0 6.03v1.22h-8.1l-.15-1.22h8.25zm0 6.02v1.22h-7.33l-.16-1.22h7.49zm0 6.02v1.22h-6.57l-.15-1.22h6.72zm0 6.02v1.23h-5.8l-.16-1.23h5.96zm0 6.02v1.23h-5.04l-.15-1.23h5.19zm0 6.02v1.23h-4.27l-.16-1.23h4.43zm0 6.03v1.22h-3.51l-.15-1.22h3.66z"/><circle cx="60.23" cy="134.24" r="3.19" fill="#bc1b21"/><path d="M60.23 131.05a3.57 3.57 0 0 0-.46 0 3.18 3.18 0 0 1 0 6.3 3.57 3.57 0 0 0 .46 0 3.19 3.19 0 1 0 0-6.38z" fill="#96151f"/><circle cx="60.23" cy="134.24" r="1.72" fill="#cc2935"/><path d="M60.23 132.52H60a1.73 1.73 0 0 1 0 3.48h.23a1.73 1.73 0 1 0 0-3.45z" fill="#c11b30"/><circle cx="65.78" cy="169.41" r="3.19" fill="#bc1b21"/><path d="M65.78 166.22a3.57 3.57 0 0 0-.47 0 3.18 3.18 0 0 1 0 6.3 3.57 3.57 0 0 0 .47 0 3.19 3.19 0 0 0 0-6.38z" fill="#96151f"/><circle cx="65.78" cy="169.41" r="1.72" fill="#cc2935"/><path d="M65.78 167.69h-.23a1.73 1.73 0 0 1 0 3.42h.23a1.73 1.73 0 0 0 0-3.45z" fill="#c11b30"/><path d="M93.85 181.69v-.81l7.56-61.28h5l.71 5.52.15 1.22.61 4.8.16 1.22.6 4.8.16 1.22.61 4.8.15 1.22.62 4.8.15 1.23.61 4.79.16 1.23.61 4.8.15 1.22.61 4.79.16 1.23.61 4.8.15 1.22.61 4.8.16 1.22v.31a10.23 10.23 0 1 1-20.42.85z" fill="#a3af31"/><path d="M103.22 191.86h.86a10.23 10.23 0 0 0 10.19-11.06l-7.79-61.25h-1.72l7.78 61.25a10.22 10.22 0 0 1-9.32 11.06z" fill="#bbc144"/><path d="M104.08 191.9a10.54 10.54 0 0 0 1.7-.14 10.24 10.24 0 0 1-8.5-10.88l7.56-61.29h-3.4l-7.56 61.29a10.23 10.23 0 0 0 10.2 11.02z" fill="#969b2c"/><circle cx="95.95" cy="160.83" r="3.19" fill="#bc1b21"/><path d="M96 164a2.49 2.49 0 0 0 .47 0 3.18 3.18 0 0 1 0-6.29 2.49 2.49 0 0 0-.47 0 3.19 3.19 0 1 0 0 6.29z" fill="#96151f"/><circle cx="95.95" cy="160.83" r="1.72" fill="#cc2935"/><path d="M96 162.55h.23a1.72 1.72 0 0 1 0-3.41H96a1.73 1.73 0 1 0 0 3.45z" fill="#c11b30"/><path d="M95.58 117.88a13.53 13.53 0 0 1 8.5-3.24c3.93-.06 8.5 1.6 8.5 3.24s-4.57 3.31-8.5 3.24a13.53 13.53 0 0 1-8.5-3.24z" fill="#ffb21a"/><path d="M111.72 117.88c0 1.55-4.07 3.11-7.82 3.23h.18c3.93.07 8.5-1.59 8.5-3.24s-4.57-3.3-8.5-3.24h-.18c3.75.14 7.82 1.7 7.82 3.25z" fill="#fdd224"/><path d="M104.08 121.12a10.17 10.17 0 0 0 1.1 0 13.58 13.58 0 0 1-7.9-3.21 13.58 13.58 0 0 1 7.91-3.21h-1.11a13.53 13.53 0 0 0-8.5 3.24 13.53 13.53 0 0 0 8.5 3.18z" fill="#ff990b"/><path d="M100.5 115.36a7.15 7.15 0 0 1 3.4-.84c1.57 0 3.4.41 3.4.84s-1.83.86-3.4.84a7.15 7.15 0 0 1-3.4-.84z" fill="#484349"/><path fill="#7c7c21" d="M103.68 180.53v-1.22h10.39l.16 1.22h-10.55zm0-6.02v-1.22h9.63l.15 1.22h-9.78zm0-6.02v-1.23h8.86l.16 1.23h-9.02zm0-6.02v-1.22h8.1l.15 1.22h-8.25zm0-6.02v-1.23h7.33l.16 1.23h-7.49zm0-6.02v-1.23h6.57l.15 1.23h-6.72zm0-6.03v-1.22h5.8l.16 1.22h-5.96zm0-6.02v-1.22h5.04l.15 1.22h-5.19zm0-6.02v-1.22h4.27l.16 1.22h-4.43zm0-6.02v-1.23h3.51l.15 1.23h-3.66z"/><circle cx="114.3" cy="172.17" r="3.19" fill="#bc1b21"/><path d="M114.3 175.36a2.42 2.42 0 0 0 .47 0 3.18 3.18 0 0 1 0-6.29 2.42 2.42 0 0 0-.47 0 3.19 3.19 0 0 0 0 6.37z" fill="#96151f"/><circle cx="114.3" cy="172.17" r="1.72" fill="#cc2935"/><path d="M114.3 173.9h.24a1.72 1.72 0 0 1 0-3.41h-.24a1.73 1.73 0 0 0 0 3.45z" fill="#c11b30"/><circle cx="108.76" cy="137" r="3.19" fill="#bc1b21"/><path d="M108.76 140.19a2.49 2.49 0 0 0 .47 0 3.18 3.18 0 0 1 0-6.3 3.71 3.71 0 0 0-.47 0 3.19 3.19 0 1 0 0 6.37z" fill="#96151f"/><circle cx="108.76" cy="137" r="1.72" fill="#cc2935"/><path d="M108.76 138.73h.23a1.72 1.72 0 0 1 0-3.41h-.23a1.73 1.73 0 0 0 0 3.45z" fill="#c11b30"/><path d="M22.42 181.69v-.81L30 119.6h5.05l.7 5.52.15 1.22.61 4.8.16 1.22.61 4.8.16 1.22.6 4.8.16 1.22.61 4.8.15 1.23.62 4.79.15 1.23.61 4.8.16 1.22.6 4.79.16 1.23.61 4.8.16 1.22.6 4.8.16 1.22v.31a10.23 10.23 0 1 1-20.42.85z" fill="#a3af31"/><path d="M31.79 191.86h.86a10.22 10.22 0 0 0 10.19-11.06l-7.79-61.25h-1.72l7.79 61.25a10.23 10.23 0 0 1-9.33 11.06z" fill="#bbc144"/><path d="M32.65 191.9a10.54 10.54 0 0 0 1.7-.14 10.23 10.23 0 0 1-8.49-10.88l7.55-61.29H30l-7.55 61.29a10.23 10.23 0 0 0 10.2 11.02z" fill="#969b2c"/><circle cx="24.52" cy="160.83" r="3.19" fill="#bc1b21"/><path d="M24.52 164a2.42 2.42 0 0 0 .47 0 3.18 3.18 0 0 1 0-6.29 2.42 2.42 0 0 0-.47 0 3.19 3.19 0 1 0 0 6.37z" fill="#96151f"/><circle cx="24.52" cy="160.83" r="1.72" fill="#cc2935"/><path d="M24.52 162.55h.23a1.72 1.72 0 0 1 0-3.41h-.23a1.73 1.73 0 0 0 0 3.45z" fill="#c11b30"/><path d="M24.15 117.88a13.53 13.53 0 0 1 8.5-3.24c3.93-.06 8.5 1.6 8.5 3.24s-4.57 3.31-8.5 3.24a13.53 13.53 0 0 1-8.5-3.24z" fill="#ffb21a"/><path d="M40.29 117.88c0 1.55-4.06 3.11-7.82 3.23h.18c3.93.07 8.5-1.59 8.5-3.24s-4.57-3.3-8.5-3.24h-.18c3.76.14 7.82 1.7 7.82 3.25z" fill="#fdd224"/><path d="M32.65 121.12a10.29 10.29 0 0 0 1.11 0 13.58 13.58 0 0 1-7.91-3.21 13.58 13.58 0 0 1 7.91-3.21h-1.11a13.53 13.53 0 0 0-8.5 3.24 13.53 13.53 0 0 0 8.5 3.18z" fill="#ff990b"/><path d="M29.07 115.36a7.15 7.15 0 0 1 3.4-.84c1.57 0 3.4.41 3.4.84s-1.83.86-3.4.84a7.15 7.15 0 0 1-3.4-.84z" fill="#484349"/><path fill="#7c7c21" d="M32.25 180.53v-1.22h10.4l.15 1.22H32.25zm0-6.02v-1.22h9.63l.16 1.22h-9.79zm0-6.02v-1.23h8.86l.16 1.23h-9.02zm0-6.02v-1.22h8.1l.16 1.22h-8.26zm0-6.02v-1.23h7.34l.15 1.23h-7.49zm0-6.02v-1.23h6.57l.15 1.23h-6.72zm0-6.03v-1.22h5.8l.16 1.22h-5.96zm0-6.02v-1.22h5.04l.16 1.22h-5.2zm0-6.02v-1.22h4.27l.16 1.22h-4.43zm0-6.02v-1.23h3.51l.15 1.23h-3.66z"/><circle cx="42.88" cy="172.17" r="3.19" fill="#bc1b21"/><path d="M42.88 175.36a2.32 2.32 0 0 0 .46 0 3.18 3.18 0 0 1 0-6.29 2.32 2.32 0 0 0-.46 0 3.19 3.19 0 1 0 0 6.37z" fill="#96151f"/><circle cx="42.88" cy="172.17" r="1.72" fill="#cc2935"/><path d="M42.88 173.9h.23a1.72 1.72 0 0 1 0-3.41h-.23a1.73 1.73 0 1 0 0 3.45z" fill="#c11b30"/><circle cx="37.33" cy="137" r="3.19" fill="#bc1b21"/><path d="M37.33 140.19a2.42 2.42 0 0 0 .47 0 3.18 3.18 0 0 1 0-6.3 3.59 3.59 0 0 0-.47 0 3.19 3.19 0 0 0 0 6.37z" fill="#96151f"/><circle cx="37.33" cy="137" r="1.72" fill="#cc2935"/><path d="M37.33 138.73h.24a1.72 1.72 0 0 1 0-3.41h-.24a1.73 1.73 0 0 0 0 3.45z" fill="#c11b30"/><path d="M17.32 10.48v.25a8.58 8.58 0 0 0-2.62 1.07 5.28 5.28 0 0 0-1.57 1.59 7.75 7.75 0 0 0-.88 2.32 2.49 2.49 0 0 1 .65-.35 4.11 4.11 0 0 1 1.19-.19 3 3 0 0 1 2.29 1 3.9 3.9 0 0 1 .91 2.73 5 5 0 0 1-.49 2.22 3.62 3.62 0 0 1-1.41 1.56 3.78 3.78 0 0 1-4-.07 4 4 0 0 1-1.53-1.81 6.19 6.19 0 0 1-.54-2.59 7.73 7.73 0 0 1 1-3.83 7.28 7.28 0 0 1 2.81-2.83 8.35 8.35 0 0 1 4.19-1.07zm-5.19 6c-.05.83-.08 1.44-.08 1.82a12 12 0 0 0 .24 2.42 3.59 3.59 0 0 0 .71 1.59.93.93 0 0 0 .7.34.89.89 0 0 0 .74-.49 3.86 3.86 0 0 0 .33-2 6.94 6.94 0 0 0-.6-3.44 1.2 1.2 0 0 0-1-.62 2.17 2.17 0 0 0-1.04.34z" fill="#7f664a"/><path fill="none" stroke="#7f664a" stroke-miterlimit="10" stroke-width=".5" d="M9 24.59h9.17"/><path d="M128 190.14v.26a8.41 8.41 0 0 0-2.63 1.07 5 5 0 0 0-1.56 1.59 7.64 7.64 0 0 0-.89 2.32 2.79 2.79 0 0 1 .66-.36 4 4 0 0 1 1.18-.18 3 3 0 0 1 2.29 1 3.83 3.83 0 0 1 .92 2.72 4.9 4.9 0 0 1-.5 2.23 3.7 3.7 0 0 1-3.36 2.11 3.78 3.78 0 0 1-2.08-.62 4 4 0 0 1-1.5-1.81 6.19 6.19 0 0 1-.54-2.59 7.76 7.76 0 0 1 1-3.84 7.48 7.48 0 0 1 2.81-2.83 8.52 8.52 0 0 1 4.2-1.07zm-5.2 6c0 .83-.07 1.44-.07 1.82a11.87 11.87 0 0 0 .24 2.41 3.59 3.59 0 0 0 .66 1.64.9.9 0 0 0 .7.33.91.91 0 0 0 .74-.48 3.9 3.9 0 0 0 .33-2 6.94 6.94 0 0 0-.61-3.44 1.19 1.19 0 0 0-1-.61 2.21 2.21 0 0 0-1 .3z" fill="#7f664a"/><path fill="none" stroke="#7f664a" stroke-miterlimit="10" stroke-width=".5" d="M119.67 204.26h9.16"/></svg>