<svg xmlns="http://www.w3.org/2000/svg" viewBox="0 0 138.83 215.65"><path fill="#fff" d="M0 0h138.82v215.65H0z"/><path fill="none" stroke="#7f664a" stroke-miterlimit="10" stroke-width=".5" d="M27.76 207.74H6.94V7.91h20.82m34.71 199.83H41.66m55.52 0H76.36M111.07 7.91h20.81v199.83h-20.81M76.36 7.91h20.82m-55.52 0h20.81"/><path d="M14.11 10.18v10a5.89 5.89 0 0 0 .1 1.44.88.88 0 0 0 .41.51 1.89 1.89 0 0 0 1 .2h.28v.34H9.46v-.34h.33a2.53 2.53 0 0 0 1.12-.18.93.93 0 0 0 .45-.49 5.5 5.5 0 0 0 .12-1.48v-6.33a4.25 4.25 0 0 0-.08-1.06.81.81 0 0 0-.31-.36.85.85 0 0 0-.51-.15 3 3 0 0 0-1.12.29l-.16-.33 4.51-2.06zM25 22.69h-7.2v-.2a39.28 39.28 0 0 0 4-5.31 5.8 5.8 0 0 0 .71-2.67 2.2 2.2 0 0 0-.59-1.57 1.88 1.88 0 0 0-1.43-.63 2.36 2.36 0 0 0-2.16 1.39l-.33-.12A5 5 0 0 1 19.48 11a3.47 3.47 0 0 1 2.3-.84 3.42 3.42 0 0 1 1.7.44 3.12 3.12 0 0 1 1.2 1.19 2.82 2.82 0 0 1 .43 1.41 5.08 5.08 0 0 1-.67 2.44 23.1 23.1 0 0 1-4 4.66h2.65a6.44 6.44 0 0 0 1.27-.08 1.05 1.05 0 0 0 .48-.28 4.08 4.08 0 0 0 .5-.81h.32zm92.44 168.16v10a6 6 0 0 0 .1 1.44.94.94 0 0 0 .42.51 2 2 0 0 0 1 .2h.28v.33h-6.44V203h.32a2.5 2.5 0 0 0 1.12-.18.93.93 0 0 0 .46-.5 6 6 0 0 0 .11-1.47v-6.35a3.74 3.74 0 0 0-.08-1.06.69.69 0 0 0-.3-.36.9.9 0 0 0-.51-.15 2.77 2.77 0 0 0-1.12.29l-.17-.33 4.51-2.06zm10.89 12.5h-7.21v-.19a39.8 39.8 0 0 0 4-5.32 5.65 5.65 0 0 0 .71-2.66 2.23 2.23 0 0 0-.58-1.58 1.92 1.92 0 0 0-1.44-.63 2.38 2.38 0 0 0-2.16 1.39l-.34-.11a5 5 0 0 1 1.49-2.57 3.57 3.57 0 0 1 4-.4 3.19 3.19 0 0 1 1.2 1.19 2.91 2.91 0 0 1 .44 1.42 5.19 5.19 0 0 1-.67 2.44 23.52 23.52 0 0 1-4 4.66h2.65a6.44 6.44 0 0 0 1.27-.08 1.09 1.09 0 0 0 .48-.28 3.55 3.55 0 0 0 .5-.82h.33z" fill="#7f664a"/><path d="M43.38 117.76a216.89 216.89 0 0 0-.15 23.09 30.32 30.32 0 0 1-.16 6.87c-.75 4.19-3.3 7.78-5.53 11.4s-4.25 7.7-3.77 11.92c3.6-1 7.33-2.11 11-1.61 1.28.17 2.54.53 3.83.69a25 25 0 0 0 4.66 0l10.87-.68a26.7 26.7 0 0 0 5.71-.77 26.92 26.92 0 0 0 6.81-3.44 11.07 11.07 0 0 0 3.18-2.62c1.37-1.86 1.44-4.34 1.39-6.65-.18-8.44-1.27-17-4.47-24.79s-8.63-14.91-16-19c-2.38-1.3-5.14-2.31-7.77-1.64-2.45.62-4.54 2.41-6.86 3.35s-2.58 1.12-2.74 3.88z" fill="#96151f"/><path d="M81.26 58.71c1.06 2.81 2.95 5.66 2.16 8.55-.73 2.63-3.39 4.16-5.88 5.27a3 3 0 0 1-2.08.37 2.73 2.73 0 0 1-1.13-.84C71 68.26 70.85 62.64 71 57.55a26.75 26.75 0 0 1 1-7.36c.7-2.17 5.4-9 7.87-5 .93 1.51.16 4.42.18 6.09a22.34 22.34 0 0 0 1.21 7.43z" fill="#6d6d6d"/><path d="M46.24 101.18a2.82 2.82 0 0 0-.16 1.87 1 1 0 0 0 .12.23 3.94 3.94 0 0 0 1.29 1.1 10.72 10.72 0 0 1 4.07 7.13 31.44 31.44 0 0 1-.1 8.39c-.58 5.81-1.53 12.27-6.13 15.86a4.3 4.3 0 0 1-3.33 1.12 5.14 5.14 0 0 1-2.68-2 57.002 57.002 0 0 1-3.14-4.14 52.92 52.92 0 0 1-5.53-10.3 15.47 15.47 0 0 1-1.44-6.44 17.26 17.26 0 0 1 1.91-6.11c3.93-8.59 8.2-17 12.82-25.28 1.32-2.36 3-7.23 5.25-8.84C52.61 71.26 60.93 77 60 80c-2.48 7.66-11.31 13.51-13.76 21.18z" fill="#3d3635"/><path d="M87.12 148.85a5.14 5.14 0 0 1-.48 2.4 4.91 4.91 0 0 1-2.39 1.75c-8 3.5-17.17 3.18-25.93 2.61-4.15-.28-8.49-.66-12-2.87a2.59 2.59 0 0 1-1.39-1.66 3 3 0 0 1 .45-1.7 47.22 47.22 0 0 0 2.15-5.16c3.18-9 3.92-18.74 4.11-28.32v-2.7c0-1.91 0-3.83.07-5.73 0-5 .12-10 .54-15 .23-2.82 0-8 2-10.18.76-.81 2.17-1.23 3-2.08 1.08-1 1.82-2.4 3.21-3.11a8 8 0 0 1 3.67-.57 30.7 30.7 0 0 1 8.51.85 10.36 10.36 0 0 1 6.57 5.13 15.24 15.24 0 0 1 1.09 4.42q1.35 9.68 2.71 19.32c.13.92.26 1.83.38 2.75.34 2.35.67 4.69 1 7a234 234 0 0 1 2.71 26.74q.11 3.08.02 6.11z" fill="#3d3635"/><path d="M106.7 115.13c-1 .61-.58 1.14-1.68 1.05a9.55 9.55 0 0 1-5.71-3c-2.3-2.36-3.86-5.42-6.43-7.49-1.77-1.42-3.91-2.27-5.7-3.66-3.47-2.68-5.24-7-6.56-11.15-.92-2.88-1.71-5.88-2.35-8.83-.85-4-.36-9 4.72-7.13a17.21 17.21 0 0 1 9.42 9c1.45 3.12 2.26 6.8 5 8.82a10.24 10.24 0 0 0 6.12 1.57h.9a2.24 2.24 0 0 1 2.33 2.22c.05 6.38-2.53 12.71-.06 18.6z" fill="#3d3635"/><path d="M63.73 174.32a2.28 2.28 0 0 1-3.94-.41 13.75 13.75 0 0 1-8.58 6.52c-1 .24-2.38.2-2.75-.76a1.84 1.84 0 0 1 .11-1.38c1.06-2.72 4.28-3.9 6-6.28a8.28 8.28 0 0 0 1.36-3.43 25.14 25.14 0 0 0 .21-4.91c-.08-2.5-.19-6.58-.27-9.08.79-1.31 1.4-.79 2.44-1.92a6.07 6.07 0 0 1 4.47-2.25c.31 0 .57 1.19.41 1.45.23 5.06.45 10.1.67 15.15.06 1.64.15 3.29.21 4.94a4.39 4.39 0 0 1-.34 2.36z" fill="#a3af31"/><path d="M57.29 173.91a13.79 13.79 0 0 1-8.22 6.41 3.32 3.32 0 0 0 2.14.11 13.81 13.81 0 0 0 7.73-5.21 2 2 0 0 1-1.65-1.31zm6.78-1.91c-.06-1.65-.15-3.3-.21-4.94-.22-5.05-.44-10.09-.67-15.15.16-.26-.1-1.45-.41-1.45a4.78 4.78 0 0 0-2.16.49 1.58 1.58 0 0 1 .07 1c.23 5.06.45 10.1.67 15.15.06 1.64.15 3.29.21 4.94a4.39 4.39 0 0 1-.34 2.36 1.64 1.64 0 0 1-.6.6 2.28 2.28 0 0 0 3.1-.6 4.39 4.39 0 0 0 .34-2.4z" fill="#969b2c"/><path d="M69.58 174.32a2.28 2.28 0 0 0 3.94-.41 13.77 13.77 0 0 0 8.59 6.52c1 .24 2.38.2 2.74-.76a1.89 1.89 0 0 0-.1-1.38c-1.07-2.72-4.29-3.9-6-6.28a8 8 0 0 1-1.36-3.43 24.39 24.39 0 0 1-.22-4.91c.08-2.5.15-5 .23-7.49a20.11 20.11 0 0 0-2.4-3.51 6.1 6.1 0 0 0-4.48-2.25c-.31 0-.57 1.19-.41 1.45-.23 5.06-.45 10.1-.66 15.15-.07 1.64-.15 3.29-.22 4.94a4.39 4.39 0 0 0 .35 2.36z" fill="#a3af31"/><path d="M70.77 173.91a1.76 1.76 0 0 1-.71.94 2.31 2.31 0 0 0 1.6.41 13.68 13.68 0 0 1-.89-1.35zm13.98 4.38c-1.07-2.72-4.29-3.9-6-6.28a8 8 0 0 1-1.36-3.43 24.39 24.39 0 0 1-.22-4.91c.08-2.5.15-5 .23-7.49a20.11 20.11 0 0 0-2.4-3.51 6.1 6.1 0 0 0-4.48-2.25c-.15 0-.29.28-.37.6a7.63 7.63 0 0 1 2.1 1.65 20.11 20.11 0 0 1 2.39 3.51c-.08 2.5-.15 5-.23 7.49a24.39 24.39 0 0 0 .22 4.91A8 8 0 0 0 76 172c1.71 2.38 4.93 3.56 6 6.28a1.89 1.89 0 0 1 .1 1.38 1.18 1.18 0 0 1-.52.6c.18 0 .35.12.53.16 1 .24 2.38.2 2.74-.76a1.89 1.89 0 0 0-.1-1.37z" fill="#969b2c"/><path d="M69.3 174.34a3.56 3.56 0 0 0 1.94 1.13 3.49 3.49 0 0 0 1.81-.13l-.12-.94a34.63 34.63 0 0 0 4.22 3.6 11.29 11.29 0 0 0 5 2.39c1 .24 2.38.2 2.74-.76a1.89 1.89 0 0 0-.1-1.38c-1.07-2.72-4.29-3.9-6-6.28a8 8 0 0 1-1.36-3.43 9.35 9.35 0 0 1-3.72.23 11 11 0 0 1-4.25-1.77c-.14 1.53-.23 3.18-.22 4.94 0 .84.03 1.63.06 2.4zm-5.3 0a3.48 3.48 0 0 1-1.93 1.13 3.53 3.53 0 0 1-1.82-.13c0-.31.09-.62.13-.94a35.4 35.4 0 0 1-4.22 3.6 11.29 11.29 0 0 1-5 2.39c-1 .24-2.38.2-2.75-.76a1.94 1.94 0 0 1 .11-1.38c1.06-2.72 4.29-3.9 6-6.28a8.15 8.15 0 0 0 1.36-3.43 9.3 9.3 0 0 0 3.71.23 11 11 0 0 0 4.26-1.77c.14 1.53.23 3.18.22 4.94 0 .84-.07 1.63-.07 2.4z" fill="#70463a"/><path d="M63.85 167c-.51.32-1 .62-1.56.89.09 1.28.16 2.62.15 4.05 0 .82 0 1.61-.06 2.38a3.58 3.58 0 0 1-1.83 1.09 3.54 3.54 0 0 0 1.52 0 3.48 3.48 0 0 0 1.93-1.07c0-.77.07-1.56.07-2.38.01-1.76-.07-3.41-.22-4.96zm20.9 11.29c-1.07-2.72-4.29-3.9-6-6.28a8 8 0 0 1-1.36-3.43 11.67 11.67 0 0 1-1.94.3 7.93 7.93 0 0 0 1.3 3.13c1.71 2.38 4.93 3.56 6 6.28a1.89 1.89 0 0 1 .1 1.38 1.27 1.27 0 0 1-.81.74h.07c1 .24 2.38.2 2.74-.76a1.89 1.89 0 0 0-.1-1.36z" fill="#5b3b29"/><path d="M87.12 148.85a5.14 5.14 0 0 1-.48 2.4 4.91 4.91 0 0 1-2.39 1.75c-8 3.5-17.17 3.18-25.93 2.61-4.15-.28-8.49-.66-12-2.87a2.59 2.59 0 0 1-1.39-1.66 3 3 0 0 1 .45-1.7 47.22 47.22 0 0 0 2.15-5.16 68.84 68.84 0 0 0 27 1.33c1.08-.16 8.88-1.63 12.62-2.8q.06 3.07-.03 6.1z" fill="#ffb21a"/><path d="M83.54 105.62c0 1.13-.08 2.26-.11 3.39 0 .8 0 1.6-.07 2.4a3.79 3.79 0 0 1-.24 1.47 3.69 3.69 0 0 1-2.64 1.62 52.21 52.21 0 0 1-26.76-.37 8.17 8.17 0 0 1-2-.89c0-1.91 0-3.83.07-5.73a27.2 27.2 0 0 1 4 .76 85.26 85.26 0 0 0 19.35.89c2.9-.21 6.14-.75 8-2.9a4.94 4.94 0 0 0 .4-.64z" fill="#70463a"/><path d="M51.46 119.9c-.58 5.81-1.53 12.27-6.13 15.86a4.3 4.3 0 0 1-3.33 1.12 5.14 5.14 0 0 1-2.68-2 57.002 57.002 0 0 1-3.14-4.14 1 1 0 0 1 0-.17c-.33-7.38 2.41-14.53 5.18-21.38.94-2.29 2.76-5 4.87-5.93a3.94 3.94 0 0 0 1.29 1.1 10.72 10.72 0 0 1 4.07 7.13 31.44 31.44 0 0 1-.13 8.41z" fill="#ffb21a"/><path d="M40.72 126.09a7.09 7.09 0 0 0 .14 2.56 2.42 2.42 0 0 0 1.71 1.75c1.19.24 2.26-.75 3-1.75 2.24-3.24 2.91-7.27 3.51-11.17a12 12 0 0 0 0-5.12c-.36-1.27-1.92-3.57-3.55-3.23-1.42.31-2.29 3.18-2.74 4.39-1.49 4-1.79 8.35-2.07 12.57z" fill="#2d2726"/><path d="M107 115.12a14.11 14.11 0 0 0 2.28-7 41.73 41.73 0 0 0-.28-7.41 13.68 13.68 0 0 0-.7-3.7 4.69 4.69 0 0 0-2.45-2.73 9 9 0 0 0-3.62 6.85 26.85 26.85 0 0 0 1.25 7.92 13.23 13.23 0 0 0 1.18 3.26 10 10 0 0 0 2.34 2.81z" fill="#ffb21a"/><path d="M106 98.3a18.47 18.47 0 0 1 .42 13.58l-.72 2.12s-2.42-11.7.3-15.7z" fill="#2d2726"/><path d="M124.12 97.93h-6.25c-.36-1.54-3.16-2.39-4.11-2.64A6.79 6.79 0 0 0 110 95a12.23 12.23 0 0 0-5.24 2.7c-.35.31-3.21 4.37-2 4.32l6-.22a7.72 7.72 0 0 1 3.21.34c.63.26 1.19.69 1.81 1a5 5 0 0 0 3.32.34c.36-.68-.24-1.49-.9-1.9s-1.46-.72-1.77-1.43a12.91 12.91 0 0 0 8.78-.75c.57-.25 1.26-.89.91-1.47z" fill="#f9c18a"/><path d="M117.43 97.43h.23a2.69 2.69 0 0 0-.47-.55 1.63 1.63 0 0 1 .24.55zm-.93 4.43a1.12 1.12 0 0 1 .13 1.15 5 5 0 0 1-3.32-.34c-.62-.3-1.17-.73-1.81-1a7.66 7.66 0 0 0-3.2-.34l-5.85.22c-.07.31 0 .51.24.5l6-.22a7.72 7.72 0 0 1 3.21.34c.63.26 1.19.69 1.81 1a5 5 0 0 0 3.32.34 1.4 1.4 0 0 0-.53-1.65zm7.62-3.93h-.37a1.87 1.87 0 0 1-1 1 12.91 12.91 0 0 1-8.78.75 1.85 1.85 0 0 0 .54.64 1.21 1.21 0 0 1-.1-.14 12.91 12.91 0 0 0 8.78-.75c.59-.28 1.28-.92.93-1.5z" fill="#ef9e62"/><path d="M107 115.55a5 5 0 0 1-3.15.71 26.57 26.57 0 0 1-1.15-3.43c-.45-1.75-1.51-12.32-.3-18.44 1 0 2.11-.09 3.12-.17.76 7.13-1.28 14.71 1.48 21.33z" fill="#ffb21a"/><path d="M107.33 170.09c-5.63 3.1-12.33 5.44-18.45 3.47-4.4-1.43-7.9-4.95-10.24-8.95s-3.67-8.49-5-12.94a77.44 77.44 0 0 1-2.4-9.63c-.58-3.53-.66-7.18-1.75-10.59-1.59-5-5.2-9.22-7-14.22-2.47-7.11-.87-14.89-.88-22.41 0-3.18-.37-6.54-2.24-9.11-1.66-2.28-4.33-3.68-5.84-6-2.65-4.19-2.33-8.87.72-11.23A7.81 7.81 0 0 1 59 66.87l5-.19a40.24 40.24 0 0 1 10.91.57c3.55.85 7 2.81 8.82 6 4 6.9-1.11 15.88 1.25 23.48.65 2.07 1.82 3.93 2.4 6 1.36 4.86-.68 10.2.6 15.09.53 2 1.61 3.87 2.3 5.84 2.82 8-.83 17.38 2.7 25.11 1.82 4 5.27 6.89 8.33 10 2.79 2.85 5.42 6.27 5.91 10.15a8.77 8.77 0 0 1 .11 1.17z" fill="#bc1b21"/><path d="M107.25 168.94c-.49-3.88-3.12-7.29-5.91-10.15-3.06-3.12-6.51-6-8.33-10-3.53-7.73.12-17.1-2.7-25.11-.69-2-1.77-3.81-2.3-5.84-1.28-4.89.76-10.23-.6-15.09-.58-2.1-1.75-4-2.4-6-2.36-7.6 2.72-16.58-1.25-23.48-1.81-3.17-5.27-5.13-8.82-6A40.24 40.24 0 0 0 64 66.68h-.15a24.68 24.68 0 0 1 3.81.57c3.55.85 7 2.81 8.82 6 4 6.9-1.11 15.88 1.25 23.48.65 2.07 1.82 3.93 2.4 6 1.36 4.86-.68 10.2.6 15.09.53 2 1.61 3.87 2.3 5.84 2.82 8-.83 17.38 2.7 25.11 1.82 4 5.27 6.89 8.33 10 2.79 2.86 5.42 6.27 5.91 10.15a8.77 8.77 0 0 1 .08 1.15 35 35 0 0 1-9.91 3.82c5.76 1.29 11.92-.93 17.16-3.82a8.77 8.77 0 0 0-.05-1.13z" fill="#96151f"/><path d="M107.33 170.09c-5.63 3.1-12.33 5.44-18.45 3.47-4.4-1.43-7.9-4.95-10.24-8.95s-3.67-8.49-5-12.94a77.44 77.44 0 0 1-2.4-9.63c-.58-3.53-.66-7.18-1.75-10.59-1.59-5-5.2-9.22-7-14.22-2.47-7.11-.87-14.89-.88-22.41 0-3.18-.37-6.54-2.24-9.11-1.66-2.28-4.33-3.68-5.84-6-2.65-4.19-2.33-8.87.72-11.23.19 1.27-.71 3.13-.49 4.57A8.75 8.75 0 0 0 56 77.6a52.18 52.18 0 0 0 4.21 3.48c3.06 2.75 4.64 6.84 5.14 10.92a56.31 56.31 0 0 1-.35 12.3c-.36 3.6-.66 7.32.32 10.81.93 3.27 2.9 6.1 4.45 9.12 6.38 12.41 5.52 27.93 13.38 39.48a15.56 15.56 0 0 0 4.56 4.65 16.48 16.48 0 0 0 8.57 1.92 42.83 42.83 0 0 0 11-1.34 8.77 8.77 0 0 1 .05 1.15z" fill="#ffb21a"/><ellipse cx="57.48" cy="80.79" rx="2.95" ry="3.97" fill="#ff990b"/><path d="M57.48 76.82a2.13 2.13 0 0 0-.75.15 4.42 4.42 0 0 1 0 7.64 2.13 2.13 0 0 0 .75.15c1.63 0 3-1.78 3-4s-1.37-3.94-3-3.94z" fill="#e58007"/><path d="M59.42 73.24A7.28 7.28 0 0 0 63 75.32a17.62 17.62 0 0 0 4.65 1.16 6 6 0 0 0 4.48-1.34 8.85 8.85 0 0 0 1.93-3.06 5.23 5.23 0 0 0 .7-3.25c-.4-1.85-2.53-2.68-4.37-3.13-2.85-.7-7.68-1.88-10.39-.12-2.09 1.35-2.1 5.68-.58 7.66z" fill="#ffb21a"/><path d="M39.2 49.62c.11.26.22.52.31.79l18.7 61.67-4.82 2.14-3-5-.67-1.11-2.6-4.32-.67-1.1-2.61-4.29-.67-1.1-2.61-4.3-.66-1.11-2.61-4.32-.67-1.1L34 82.13 33.35 81l-2.61-4.32-.67-1.1-2.61-4.32-.67-1.11-2.6-4.32-.67-1.1-2.61-4.32-.67-1.1-.16-.28a10.67 10.67 0 1 1 19.12-9.41z" fill="#a3af31"/><path d="M26 43.88a7.71 7.71 0 0 0-.84.33 10.67 10.67 0 0 0-5.06 14.85l33.3 55.16 1.64-.73-33.32-55.16A10.67 10.67 0 0 1 26 43.88z" fill="#bbc144"/><path d="M25.13 44.21a10.27 10.27 0 0 0-1.57.85 10.68 10.68 0 0 1 12.71 6.78L55 113.52l3.24-1.44-18.73-61.67a10.66 10.66 0 0 0-14.38-6.2z" fill="#969b2c"/><circle cx="46.02" cy="70.42" r="3.33" fill="#bc1b21"/><path d="M44.67 67.38a2.55 2.55 0 0 0-.43.23 3.32 3.32 0 0 1 2.66 6 2.9 2.9 0 0 0 .47-.16 3.33 3.33 0 0 0-2.7-6.08z" fill="#96151f"/><circle cx="46.02" cy="70.42" r="1.8" fill="#cc2935"/><path d="m45.29 68.77-.22.12a1.8 1.8 0 0 1 1.45 3.26l.23-.09a1.8 1.8 0 0 0-1.46-3.29z" fill="#c11b30"/><path d="M64.53 111.24a14.17 14.17 0 0 1-6.75 6.68c-3.72 1.73-8.78 2.08-9.48.51s3-5.09 6.74-6.68a14.18 14.18 0 0 1 9.49-.51z" fill="#ffb21a"/><path d="M49.12 118.06c-.65-1.48 2.57-4.68 6.1-6.39l-.18.08c-3.77 1.59-7.43 5.11-6.74 6.68s5.76 1.22 9.48-.51l.17-.08c-3.63 1.48-8.17 1.7-8.83.22z" fill="#fdd224"/><path d="M55 111.75a10.9 10.9 0 0 0-1 .49 14.19 14.19 0 0 1 8.9-.28 14.12 14.12 0 0 1-6.18 6.41c.36-.14.72-.29 1.06-.45a14.17 14.17 0 0 0 6.75-6.68 14.18 14.18 0 0 0-9.53.51z" fill="#ff990b"/><path d="M60.89 115.73A7.53 7.53 0 0 1 58 118c-1.49.68-3.42 1-3.6.63s1.38-1.59 2.89-2.24a7.53 7.53 0 0 1 3.6-.66z" fill="#484349"/><path fill="#7c7c21" d="m30.31 54.88.52 1.17-9.92 4.39-.67-1.1 10.07-4.46zm2.55 5.75.52 1.17-9.19 4.06-.67-1.1 9.34-4.13zm2.54 5.74.52 1.17-8.46 3.75-.67-1.11 8.61-3.81zm2.55 5.75.52 1.17-7.74 3.42-.66-1.1 7.88-3.49zm2.54 5.74.52 1.17-7 3.1-.66-1.1 7.14-3.17zm2.55 5.75.51 1.17-6.26 2.77-.67-1.1 6.42-2.84zm2.54 5.75.52 1.16-5.54 2.46-.66-1.11 5.68-2.51zm2.55 5.74.52 1.17-4.81 2.13-.67-1.1 4.96-2.2zm2.54 5.75.52 1.17-4.07 1.8-.67-1.1 4.22-1.87zm2.55 5.74.52 1.17-3.35 1.49-.66-1.11 3.49-1.55z"/><circle cx="23.71" cy="67.35" r="3.33" fill="#bc1b21"/><path d="M22.36 64.31a2.22 2.22 0 0 0-.43.23 3.32 3.32 0 0 1 2.66 6 2.51 2.51 0 0 0 .46-.16 3.32 3.32 0 1 0-2.69-6.08z" fill="#96151f"/><circle cx="23.71" cy="67.35" r="1.8" fill="#cc2935"/><path d="M23 65.7a1.55 1.55 0 0 0-.22.12 1.8 1.8 0 0 1 1.44 3.26 1.57 1.57 0 0 0 .23-.09A1.8 1.8 0 1 0 23 65.7z" fill="#c11b30"/><circle cx="43.86" cy="98.57" r="3.33" fill="#bc1b21"/><path d="M42.51 95.52a2.86 2.86 0 0 0-.42.24 3.32 3.32 0 0 1 2.66 6 4.19 4.19 0 0 0 .46-.16 3.33 3.33 0 0 0-2.7-6.09z" fill="#96151f"/><circle cx="43.86" cy="98.57" r="1.8" fill="#cc2935"/><path d="m43.13 96.92-.21.11a1.8 1.8 0 0 1 1.44 3.26l.23-.08a1.8 1.8 0 1 0-1.46-3.29z" fill="#c11b30"/><ellipse cx="49.55" cy="108.33" rx="4.08" ry="6.57" fill="#f9c18a"/><path d="M49.55 101.76a2.63 2.63 0 0 0-1.13.26c1.71.79 3 3.31 3 6.31s-1.25 5.53-3 6.32a2.79 2.79 0 0 0 1.13.26c2.25 0 4.08-2.94 4.08-6.58s-1.83-6.57-4.08-6.57z" fill="#ef9e62"/><ellipse cx="67.57" cy="57.78" rx="11.56" ry="14.28" fill="#f9c18a"/><path d="M67.57 43.5a10 10 0 0 0-2.38.3c5.25 1.36 9.19 7.1 9.19 14s-3.94 12.62-9.19 14a9.47 9.47 0 0 0 2.38.3c6.38 0 11.56-6.39 11.56-14.28S74 43.5 67.57 43.5z" fill="#ef9e62"/><path d="M55.27 47.29c-.59 1.68-1.11 3.39-1.56 5.11a16.27 16.27 0 0 1-1.64 4.6c-.68 1.11-1.66 2-2.4 3.1a7.84 7.84 0 0 0-1.2 6.4A6.32 6.32 0 0 0 53 71a5.33 5.33 0 0 0 5.74-2.5c.86-1.6.74-3.53.6-5.34l-.53-6.78a20 20 0 0 1-.06-3.79c.16-1.52.64-3 .85-4.49.15-1.14.23-4.25-1.31-4.44s-2.66 2.6-3.02 3.63z" fill="#7c7b7b"/><path d="M59.62 48.07c.15-1.14.23-4.25-1.31-4.44a1.66 1.66 0 0 0-1.37.63 7 7 0 0 1 .43 3.81c-.21 1.51-.69 3-.85 4.49a20 20 0 0 0 .06 3.79q.26 3.39.53 6.78c.14 1.81.26 3.74-.6 5.34A5.14 5.14 0 0 1 53 71a5.33 5.33 0 0 0 5.74-2.5c.86-1.6.74-3.53.6-5.34q-.27-3.39-.53-6.78a20 20 0 0 1-.06-3.79c.18-1.59.66-3.01.87-4.52z" fill="#6d6d6d"/><path d="m54 32.58 6.57 3.23a1.3 1.3 0 0 0 .71.18c.43-.07.66-.53.73-.65a45.94 45.94 0 0 1 5.09-5.5l4.8 5.37a2.29 2.29 0 0 0 1.55.25 2.39 2.39 0 0 0 1-.6L78 32l2.25 8.85a47.25 47.25 0 0 1-8.15 2 32.74 32.74 0 0 1-11.41.21A28.41 28.41 0 0 1 53 40.53z" fill="#e58007"/><path d="M53.8 49.79S66.21 43 80 47.24l4.4-16.15-7.14 7.31-4.42-12.58-4.76 11.73-8.33-10.71-1.19 12.92L46 33.13z" fill="#ffb21a"/><path fill="#ed9f15" d="m67.99 37.4-1.47-1.86-6.77-8.7-.25 2.73 8.49 7.83zm9.38 1.07-.74-1.86-3.79-10.79-1.27 3.13 5.8 9.52zm3.73-4.01-3.33 12.19c.73.17 1.47.36 2.21.59l4.42-16.15zm-22.55 5.26-2.26-1.16-10.31-5.43.78 1.66 11.79 4.93z"/></svg>