<svg xmlns="http://www.w3.org/2000/svg" viewBox="0 0 138.83 215.65"><path fill="#fff" d="M0 0h138.82v215.65H0z"/><path fill="none" stroke="#7f664a" stroke-miterlimit="10" stroke-width=".5" d="M6.94 8.91h124.94v199.82H6.94z"/><path d="M15.41 10.69v10a6.86 6.86 0 0 0 .09 1.44.94.94 0 0 0 .42.51 1.89 1.89 0 0 0 1 .2h.28v.34h-6.44v-.34h.33a2.56 2.56 0 0 0 1.12-.18.91.91 0 0 0 .45-.5 5.36 5.36 0 0 0 .12-1.47v-6.33a4.19 4.19 0 0 0-.08-1.06.81.81 0 0 0-.31-.36.85.85 0 0 0-.51-.15 2.8 2.8 0 0 0-1.12.29l-.16-.33 4.51-2.06zm11.79 6.38a11.14 11.14 0 0 1-.51 3.42 4.55 4.55 0 0 1-.83 1.6 4 4 0 0 1-1.18 1 2.85 2.85 0 0 1-1.43.37 2.93 2.93 0 0 1-1.6-.45 4.23 4.23 0 0 1-1.27-1.29 6.57 6.57 0 0 1-.69-1.64 10.43 10.43 0 0 1-.39-2.85 11.53 11.53 0 0 1 .56-3.67 4.35 4.35 0 0 1 1.4-2.12 3.06 3.06 0 0 1 4 0 4.16 4.16 0 0 1 1.36 2 10.9 10.9 0 0 1 .58 3.63zm-2.78 0v-3.75A3.38 3.38 0 0 0 24 11.6a.87.87 0 0 0-.73-.28.85.85 0 0 0-.61.21 1.89 1.89 0 0 0-.46 1.12c-.07.53-.11 2.39-.11 5.58a21.34 21.34 0 0 0 .18 3.48 1.53 1.53 0 0 0 .39.86.94.94 0 0 0 .66.22.81.81 0 0 0 .68-.29 2.84 2.84 0 0 0 .44-1.56zm92.49 174.62v10a6.86 6.86 0 0 0 .09 1.44.94.94 0 0 0 .42.51 1.89 1.89 0 0 0 1 .2h.28v.34h-6.45v-.34h.33a2.56 2.56 0 0 0 1.12-.18.91.91 0 0 0 .45-.5 5.36 5.36 0 0 0 .12-1.47v-6.35a4.19 4.19 0 0 0-.08-1.06.81.81 0 0 0-.31-.36.85.85 0 0 0-.51-.15 2.8 2.8 0 0 0-1.12.29l-.16-.33 4.51-2.06zm11.79 6.38a11.14 11.14 0 0 1-.51 3.42 4.55 4.55 0 0 1-.83 1.6 4 4 0 0 1-1.18 1 2.85 2.85 0 0 1-1.43.37 2.93 2.93 0 0 1-1.6-.45 4.23 4.23 0 0 1-1.27-1.29 6.57 6.57 0 0 1-.69-1.64 10.43 10.43 0 0 1-.39-2.85 11.53 11.53 0 0 1 .56-3.67 4.35 4.35 0 0 1 1.4-2.12 3.06 3.06 0 0 1 4 0 4.16 4.16 0 0 1 1.36 2 10.9 10.9 0 0 1 .58 3.63zm-2.78 0v-3.75a3.38 3.38 0 0 0-.44-1.7.87.87 0 0 0-.73-.28.85.85 0 0 0-.61.21 1.89 1.89 0 0 0-.46 1.12c-.07.53-.11 2.39-.11 5.58a21.34 21.34 0 0 0 .18 3.48 1.53 1.53 0 0 0 .39.86.94.94 0 0 0 .66.22.81.81 0 0 0 .68-.29 2.84 2.84 0 0 0 .44-1.56z" fill="#7f664a"/><path d="M79.07 152.79a28.2 28.2 0 0 1 .07 6.9c-.29 2.08-.68 2.59-1 4.47a20.4 20.4 0 0 0 .16 7.84v5.6H76v-.7a18.56 18.56 0 0 0-3.4 3.12c-5.41 4.38-9.19 3.4-9.46 1.27s1.12-2.41 1.12-2.41c2.12-.38 3.15-2.18 5-4.15.24-.26.52-.54.8-.81 2.41-2.27 1.84-16.43 0-22.38s-1.56-17-1.56-17l3.37-5.23 5.19-.57.53 3.69 2.67 10.62a27.65 27.65 0 0 0-1.19 9.74z" fill="#96151f"/><path d="m74.19 129.37-.66 5.18s-.28 11.06 1.56 17 2.41 20.11 0 22.38c-.28.27-.56.55-.8.81-1.86 2-2.89 3.77-5 4.15 0 0-1.39.29-1.12 2.41a1.88 1.88 0 0 0 .6 1.13c-3.27 1.39-5.4.44-5.6-1.13-.27-2.12 1.12-2.41 1.12-2.41 2.12-.38 3.15-2.18 5-4.15.24-.26.52-.54.8-.81 2.41-2.27 1.84-16.43 0-22.38s-1.56-17-1.56-17l3.37-5.23z" fill="#bc1b21"/><path d="M78.3 172.54v5.08H76v-.7a18.56 18.56 0 0 0-3.4 3.12c-5.41 4.38-9.19 3.4-9.46 1.27s1.12-2.41 1.12-2.41l.43-.1c1.36-.4 2.28-1.43 3.38-2.7.36-.42.76-.88 1.2-1.35a4.59 4.59 0 0 0 3.33 1.17 6.65 6.65 0 0 0 1.64-.3 7.84 7.84 0 0 0 4.06-3.08z" fill="#3d3635"/><path d="M69.77 177.74c0 .17-.12.32-.24.43-.77.66-1.56 1.3-2.37 1.9a.89.89 0 0 1-.69.25.87.87 0 0 1-.39-.26c-.42-.41-1-.81-1.37-1.26 1.36-.4 2.28-1.43 3.38-2.7a9 9 0 0 0 1.43 1.33c.11.08.24.18.25.31zm20.58 6.4c-1.84-.42-6.94-1-8.92-5.24l-.77.85-1.66-.56s-.32-3.05-.29-5.63a13.75 13.75 0 0 1 .16-2.17 40.59 40.59 0 0 0-.17-9.2 23.44 23.44 0 0 1 0-6.95s-3.52-22-1.61-28.19l9.43 7.09s2.4 10.2-1 20.25c0 0-1.27 10-.7 15.89a32.74 32.74 0 0 0 2.66 6.2c1.19 2.09 2.74 4 4.56 4.54 4.4 1.28.15 3.55-1.69 3.12z" fill="#bc1b21"/><path d="M92.05 181c-1.82-.52-3.37-2.45-4.56-4.54a32.74 32.74 0 0 1-2.66-6.2c-.57-5.93.7-15.89.7-15.89 3.4-10 1-20.25 1-20.25l-9.43-7.09a11.51 11.51 0 0 0-.39 2l6.74 5.07s2.4 10.2-1 20.25c0 0-1.27 10-.7 15.89a33.16 33.16 0 0 0 2.67 6.2c1.19 2.09 2.73 4 4.55 4.54 3.1.9 1.89 2.29.27 2.89l1.11.23c1.84.47 6.09-1.8 1.7-3.1z" fill="#96151f"/><path d="M96.08 125.78a11.84 11.84 0 0 1-3 8 10.47 10.47 0 0 1-1.18 1.13l-.14.11-.2.16a10 10 0 0 1-6 2.07h-.31c-.25 0-.48 0-.73-.05a9.93 9.93 0 0 1-3.61-1.06 7.48 7.48 0 0 1-.83-.48 11.27 11.27 0 0 1-4.49-5.76 11.78 11.78 0 0 1-.71-4.1 12 12 0 0 1 1.12-5.15 11 11 0 0 1 2.58-3.56.93.93 0 0 1 .18-.16 10.68 10.68 0 0 1 4.61-2.37l.52-.1a10.28 10.28 0 0 1 1.57-.12 9.85 9.85 0 0 1 4.45 1c.28.15.56.3.82.46a11.61 11.61 0 0 1 5.35 9.98z" fill="#ffb21a"/><path d="M90.74 115.85c-.26-.16-.54-.31-.82-.46a9.85 9.85 0 0 0-4.45-1 10.28 10.28 0 0 0-1.57.12l-.52.1h-.2a10.07 10.07 0 0 1 2.13.78l.82.46a11.61 11.61 0 0 1 5.33 9.93 11.88 11.88 0 0 1-3 8 10.47 10.47 0 0 1-1.18 1.13l-.15.11-.19.16a10.14 10.14 0 0 1-3.76 1.82 10.32 10.32 0 0 0 1.37.24c.25 0 .48 0 .73.05h.31a10 10 0 0 0 6-2.07l.2-.16.14-.11a10.47 10.47 0 0 0 1.18-1.13 11.84 11.84 0 0 0 3-8 11.61 11.61 0 0 0-5.37-9.97z" fill="#e89003"/><path d="M76.75 124.79a11.68 11.68 0 0 1-1.16 5.09 11.44 11.44 0 0 1-1 1.72c-.23.29-.47.58-.73.85s-.24.26-.38.39l-.09.08a9.16 9.16 0 0 1-4.4 2.32 9.44 9.44 0 0 1-1.19.15h-1a9 9 0 0 1-4.94-1.78 9.52 9.52 0 0 1-1.26-1.12 11.19 11.19 0 0 1-3-7.71 10.84 10.84 0 0 1 4.77-9.19 8.43 8.43 0 0 1 1.39-.74 7.65 7.65 0 0 1 1.3-.44l.29-.06a7.81 7.81 0 0 1 1.82-.2 7.7 7.7 0 0 1 1.8.2 4.46 4.46 0 0 1 .72.18 8.19 8.19 0 0 1 1.82.8.13.13 0 0 1 .09 0 8.12 8.12 0 0 1 1 .68 9.53 9.53 0 0 1 2.06 2.14 10.78 10.78 0 0 1 .82 1.35.59.59 0 0 1 0 .08c.12.22.22.47.32.7s.1.22.14.32a11.7 11.7 0 0 1 .81 4.19z" fill="#ffb21a"/><path d="M86 125.81a11.43 11.43 0 0 1-.48 3.29 10.34 10.34 0 0 1-5.43 6.53 8.85 8.85 0 0 1-3.66.8 7.31 7.31 0 0 1-1.33-.11h-.3a5.15 5.15 0 0 1-.68-.15 8.92 8.92 0 0 1-3.12-1.62 10.49 10.49 0 0 1-3.22-4.25 10.84 10.84 0 0 1-.88-3.77v-.67a11.61 11.61 0 0 1 .69-4 11 11 0 0 1 1.85-3.21 9.52 9.52 0 0 1 1.27-1.27 9 9 0 0 1 2-1.26 8.5 8.5 0 0 1 3.71-.87h.78a8.46 8.46 0 0 1 2.8.75 10 10 0 0 1 4.91 5 11.49 11.49 0 0 1 1.09 4.81z" fill="#ffb21a"/><path d="M63.16 134.08c-5.33-8.32-.11-16.87 1.92-19.66l.29-.06c-5.86 11.72-3.14 18.1-2.21 19.72zM71.79 115l-.17.35c-.35.67-.66 1.31-1 1.94-2.57 5.63-3.13 9.94-2.92 13a13 13 0 0 0 1.19 4.94 14.16 14.16 0 0 1-2-8.72 20.11 20.11 0 0 1 2.52-7.87 23.16 23.16 0 0 1 2.13-3.25c.13-.21.21-.33.25-.39zm4.08 5.33c-2.14 5.33-2.4 9.34-2.06 12.12a12.76 12.76 0 0 0 1 3.84h-.06a14.46 14.46 0 0 1-1.45-3.35c-1.51-5.26.41-10.24 2.17-13.37a22.89 22.89 0 0 1 2.26-3.32 45.19 45.19 0 0 0-1.86 4.08zm16.01 14.57-.14.11c1.09-2.5 2.63-8.95-3-19.8.35.45 8.44 10.08 3.14 19.69zm-9-18.69s9.4 10.77 2.39 21c0 .03 5.13-6.64-2.39-21zm-1.94 19.92c1-2.13 2.94-8.33-2.32-19a.93.93 0 0 1 .18-.16c1.98 2.73 7 11.03 2.14 19.16z" fill="#bc1b21"/><path d="M90.35 184.14c-1.84-.42-6.94-1-8.92-5.24l-.77.85-1.66-.56c-.06-.61-.11-1.22-.16-1.85-.1-1.53-.14-3-.13-4.38a15 15 0 0 0 2.06 2.91c1.13 1.25 1.94 2.15 3.24 2.31a3.79 3.79 0 0 0 2.12-.41 3.54 3.54 0 0 0 1.35-1.29c1.19 2.09 2.74 4 4.56 4.54 4.4 1.28.15 3.55-1.69 3.12z" fill="#3d3635"/><path d="M89 178.66c-.79.77-1.89 1.67-2.71 1.67l3.4 1.83 1.46-1.55" fill="#bc1b21"/><path d="M57.38 79.53c-3.85 2.61-6.94 6.21-10.76 8.87.26-2.52-1.26-4.87-2.88-6.82s-3.47-3.88-4.07-6.34l-4.2 2.16a2.27 2.27 0 0 0-.81.58 1.82 1.82 0 0 0-.33 1.02 9.31 9.31 0 0 0 1.44 4.72l4.35 8.42a6.94 6.94 0 0 0 1.67 2.35 5.74 5.74 0 0 0 2.89 1 17.14 17.14 0 0 0 7.43-.68A33.08 33.08 0 0 0 56.49 93l8.05-3.86a19.29 19.29 0 0 0 3.23-1.82c2.26-1.69 6-7.88 2.61-10-3.91-2.32-9.64-.07-13 2.21z" fill="#78b1ef"/><path d="M70.38 77.36c-3.91-2.37-9.64-.11-13 2.17-3.85 2.61-6.94 6.21-10.76 8.87.26-2.52-1.26-4.87-2.88-6.82s-3.47-3.88-4.07-6.34L36.93 78c.61 2.47 2.45 4.39 4.07 6.35s3.15 4.29 2.88 6.81c3.82-2.65 6.92-6.25 10.77-8.87 3.35-2.28 9.09-4.53 13-2.17 2.49 1.51 1.2 5.16-.56 7.71.23-.15.47-.31.69-.48 2.22-1.72 6.04-7.91 2.6-9.99z" fill="#659cce"/><path d="M31.09 73.86a30.9 30.9 0 0 0-3.72-.56 3.43 3.43 0 0 1-2.84-2.17 10.69 10.69 0 0 1 5.39.76 10.33 10.33 0 0 1-5.25-3.4 4.26 4.26 0 0 1 3.61-.06 12.57 12.57 0 0 1 3.12 2 8 8 0 0 1-3.4-3.35.57.57 0 0 1-.08-.42c.09-.25.45-.23.71-.16a12.45 12.45 0 0 1 5.1 2.88 4.66 4.66 0 0 1-1.16-3.21c1.46.43 2.22 2 3.38 3s2.6 1.38 3.47 2.52a3.33 3.33 0 0 1 .65 1.63 4.4 4.4 0 0 1-2.77 4.16 3.94 3.94 0 0 1-2.45.36c-2.2-.47-1.45-3.23-3.76-3.98z" fill="#f9c18a"/><path d="M26.49 68.43a8 8 0 0 1 1.12.59 8 8 0 0 1-.8-.94 3.81 3.81 0 0 0-1.26.08 5.06 5.06 0 0 1 .94.27zm-1.62 2.69a9.76 9.76 0 0 1 2.07.36c-.3-.13-.6-.26-.88-.41a9.4 9.4 0 0 0-1.19.05zm7.05-1.74a4.61 4.61 0 0 1-1-1.95 12.44 12.44 0 0 0-2.3-.93c-.26-.07-.62-.09-.71.16a.41.41 0 0 0 0 .22 12.35 12.35 0 0 1 4.01 2.5zm8.13 3.94a3.33 3.33 0 0 0-.65-1.63c-.87-1.14-2.38-1.59-3.47-2.52s-1.92-2.57-3.38-3a4.52 4.52 0 0 0 .23 1.55 14.38 14.38 0 0 0 1.35 1.45c1.1.93 2.6 1.38 3.48 2.52a3.32 3.32 0 0 1 .64 1.63 4.39 4.39 0 0 1-2.77 4.16 5.48 5.48 0 0 1-.86.3l.21.06a3.94 3.94 0 0 0 2.45-.36 4.4 4.4 0 0 0 2.77-4.16z" fill="#ea9f54"/><path d="M93.27 33.41c5.51-1.63 11.37-2.53 17-1.54.25.05.53.12.64.35a.84.84 0 0 1-.16.76 29.58 29.58 0 0 1-16 12.71c-3.8 1.24-9.62.76-10.31-4.28-.62-4.6 5.34-6.96 8.83-8z" fill="#ed9406"/><path d="M110.94 32.22c-.11-.23-.39-.3-.64-.35a28.59 28.59 0 0 0-4.79-.4 1.53 1.53 0 0 1-.2.48 29.65 29.65 0 0 1-16 12.72 12.56 12.56 0 0 1-2.47.51c2.21 1.38 5.49 1.31 7.94.51a29.58 29.58 0 0 0 16-12.71.84.84 0 0 0 .16-.76z" fill="#e27b0c"/><circle cx="31.81" cy="52.56" r="17.3" fill="#fdbb29"/><path d="M15.16 53.21a17.3 17.3 0 0 1 29.2-12.56 17.3 17.3 0 1 0-24.45 24.46 17.24 17.24 0 0 1-4.75-11.9z" fill="#ffde5d"/><circle cx="31.81" cy="52.56" r="12.32" fill="#f8a201"/><path d="m44 40.32-3.52 3.52a12.32 12.32 0 1 1-17.39 17.43l-3.52 3.52A17.3 17.3 0 1 0 44 40.32z" fill="#f7b600"/><path d="M44.13 52.56a12.31 12.31 0 0 0-3.68-8.79L23 61.2a12.33 12.33 0 0 0 21.11-8.64z" fill="#ed9406"/><path d="M31.81 41.54a12.32 12.32 0 0 1 12.3 11.67v-.65a12.33 12.33 0 1 0-24.65 0v.65a12.33 12.33 0 0 1 12.35-11.67z" fill="#f38d04"/><path fill="#ffde5d" d="m32.97 51.39 6.44 1.17-6.44 1.16-1.16 6.44-1.17-6.44-6.44-1.16 6.44-1.17 1.17-6.44 1.16 6.44z"/><path fill="#e8850f" d="m32.97 53.72-1.16 6.44-1.17-6.44-5.71-1.03-.73.13 6.44 1.16 1.17 6.44 1.16-6.44 6.44-1.16-.72-.13-5.72 1.03z"/><path fill="#f9c18a" d="M69.95 70.62v6.8h10.62l-.85-9.78-8.07 1.56-1.7 1.42z"/><path fill="#ea9f54" d="m79.72 67.64-2.52.49.81 9.29h2.56l-.85-9.78z"/><ellipse cx="74.27" cy="59.28" rx="11.97" ry="14.04" fill="#f9c18a"/><path d="M74.27 45.24a12.08 12.08 0 0 0-1.35.09c6 .79 10.63 6.73 10.63 14s-4.65 13.1-10.63 13.89a12.08 12.08 0 0 0 1.35.09c6.61 0 12-6.28 12-14s-5.39-14.07-12-14.07z" fill="#ea9f54"/><circle cx="85.53" cy="61.13" r="2.69" fill="#ea9f54"/><path d="M81.66 51.64s1.18 6.56 1.34 8.62l2 .87s.08-3.42 2.52-1.85c0 0 1.28-1.24.74-7.64l-6.89-2.55z" fill="#c19048"/><path d="M88.78 86.62c-1.56 2.61-1.78 9.62-1.6 16 0 1.31.08 2.6.14 3.81.23 4.78.59 8.51.59 8.51l-19 2c-6.29-11.21-6.43-21.12-5.18-28a35.51 35.51 0 0 1 1.81-6.43 22.25 22.25 0 0 1 1.58-3.39h21.76z" fill="#3d3635"/><path d="m88.88 79.14-5.11.15a44.93 44.93 0 0 0-1.71 5.81c-1.33 6-1.2 11.16-1 17.54 0 1.82.13 3.53.14 3.81.24 4.78.6 8.51.6 8.51l-13.12 1.38c.11.2.2.4.32.61l19-2s-.36-3.73-.59-8.51c-.06-1.21-.11-2.5-.15-3.81-.17-6.4 0-13.41 1.6-16z" fill="#2d2827"/><path d="M97.7 53.39c-1.32 1.54-3.48 1.73-7.82 2.09a17.92 17.92 0 0 1-2.57.06 6.72 6.72 0 0 1-2.11-.41 31 31 0 0 1-3.5-2c-5.16-2.8-10.25.84-15.61 0-3-.5-6-2.57-6.46-5.55-.63-3.37 1.92-6.41 4.53-8.58 3.28-2.67 7.33-4.85 11.55-4.47a15.29 15.29 0 0 1 5.4 1.77c3.76 1.74 4.77 3.3 6.75 4.66a12.32 12.32 0 0 0 2.66 1.38c3.75 1.45 5 .4 6.66 2.05 2.14 2.18 2.55 6.61.52 9z" fill="#78b1ef"/><path d="M36.77 69.84a15.89 15.89 0 0 0 .29-3.3 2.14 2.14 0 0 1 .43-1.69 1.37 1.37 0 0 1 1.92.43 4 4 0 0 1 .49 2.13l.15 4.25a4.33 4.33 0 0 1-.21 1.93c-.65 1.54-2.15 1-2.84-.14a4.94 4.94 0 0 1-.23-3.61z" fill="#f9c18a"/><path d="m40.05 71.66-.15-4.25a4 4 0 0 0-.49-2.13 1.4 1.4 0 0 0-1.84-.48 1.63 1.63 0 0 1 .56.48 4 4 0 0 1 .48 2.13c.06 1.42.11 2.84.16 4.25a4.48 4.48 0 0 1-.21 1.93 1.69 1.69 0 0 1-.6.77 1.27 1.27 0 0 0 1.88-.77 4.33 4.33 0 0 0 .21-1.93z" fill="#ea9f54"/><path d="M67.16 79.14a12.86 12.86 0 0 0 4.38 1.62c3.73.78 7.76.82 11.22-.77s6.21-5.09 6.11-8.9a21.21 21.21 0 0 1-20.36 4.73 10 10 0 0 1-5.08-3.22 7.7 7.7 0 0 0 3.73 6.54z" fill="#f8a201"/><path d="M107.54 95.13c0 3.35-2.69 6-5.17 8.23-3.87 3.54-7.61 7.24-11.17 11.1a1.81 1.81 0 0 1-2.17.24 4.77 4.77 0 0 1-1.23-.92c-.1-1.37-.21-3-.32-4.92 2.4-1.35 3.84-4 5.18-6.5C94.14 99.66 96 96.75 99 96a45.24 45.24 0 0 1-4.35-4.73 14.14 14.14 0 0 0-3.22-3.37 28 28 0 0 0-2.65-1.27 11.18 11.18 0 0 1-3.9-3.19 7.61 7.61 0 0 1-1.63-4.29 4.58 4.58 0 0 1 .66-2.62A5.23 5.23 0 0 1 88 74.26a8.76 8.76 0 0 1 4.64 1.21c5.39 3 8.62 8.67 12.24 13.62 1.34 1.81 2.64 3.81 2.66 6.04z" fill="#78b1ef"/><path d="M104.91 89.09c-3.62-5-6.85-10.67-12.24-13.62A8.76 8.76 0 0 0 88 74.26a5.78 5.78 0 0 0-2.27.62 12.17 12.17 0 0 1 1.27.59c5.39 3 8.62 8.67 12.24 13.62 1.31 1.81 2.61 3.81 2.63 6 0 3.35-2.69 6-5.17 8.23q-4.67 4.26-9 8.84c0 .56.07 1.09.11 1.58.36.37.11.87.41 1.28.77 1 2.44 0 3-.6 3.56-3.86 7.3-7.56 11.17-11.1 2.48-2.26 5.21-4.88 5.17-8.23-.04-2.19-1.34-4.19-2.65-6z" fill="#659cce"/><path d="M87.32 106.45c-6.21-.32-17.74-3-23.54-17.48a35.51 35.51 0 0 1 1.81-6.43 28.74 28.74 0 0 0 21.59 20.11c.03 1.35.08 2.59.14 3.8z" fill="#f8a201"/><path d="M66 110.58s12.46 2.9 22-.92l.31 5.29s-11.33 4.68-20.68 2z" fill="#604238"/><path d="M97.7 53.39c-1.32 1.54-3.48 1.73-7.82 2.09a17.92 17.92 0 0 1-2.57.06C89.79 50.9 88.92 45 87.86 41a12.32 12.32 0 0 0 2.66 1.38c3.75 1.45 5 .4 6.66 2.05 2.14 2.14 2.55 6.57.52 8.96z" fill="#659cce"/><path d="M72.19 111v7h7v-7zm5.38 5.38h-3.72v-3.72h3.72z" fill="#f8a201"/></svg>