<svg xmlns="http://www.w3.org/2000/svg" viewBox="0 0 138.83 215.65"><path fill="#fff" d="M0 0h138.82v215.65H0z"/><path fill="none" stroke="#7f664a" stroke-miterlimit="10" stroke-width=".5" d="M6.94 8.91h124.94v199.82H6.94z"/><circle cx="42.19" cy="68.8" r="23.37" fill="#fdbb29"/><path d="M19.71 69.68a23.36 23.36 0 0 1 39.44-17 23.36 23.36 0 1 0-33 33 23.28 23.28 0 0 1-6.44-16z" fill="#ffde5d"/><circle cx="42.19" cy="68.8" r="16.64" fill="#f8a201"/><path d="M58.72 52.27 54 57a16.64 16.64 0 0 1-23.57 23.57l-4.76 4.75a23.37 23.37 0 0 0 33.05-33z" fill="#f7b600"/><path d="M58.84 68.8a16.56 16.56 0 0 0-5-11.86L30.33 80.47A16.65 16.65 0 0 0 58.84 68.8z" fill="#ed9406"/><path d="M42.19 53.93a16.63 16.63 0 0 1 16.62 15.75v-.88a16.65 16.65 0 0 0-33.29 0v.88a16.63 16.63 0 0 1 16.67-15.75z" fill="#f38d04"/><path fill="#ffde5d" d="m43.77 67.22 8.69 1.58-8.69 1.57-1.58 8.69-1.57-8.69-8.69-1.57 8.69-1.58 1.57-8.69 1.58 8.69z"/><path fill="#e8850f" d="m43.77 70.37-1.58 8.69-1.57-8.69-7.72-1.4-.97.18 8.69 1.58 1.57 8.69 1.58-8.69 8.69-1.58-.97-.18-7.72 1.4z"/><circle cx="96.63" cy="68.8" r="23.37" fill="#fdbb29"/><path d="M74.15 69.68a23.36 23.36 0 0 1 39.44-17 23.36 23.36 0 1 0-33 33 23.28 23.28 0 0 1-6.44-16z" fill="#ffde5d"/><circle cx="96.63" cy="68.8" r="16.64" fill="#f8a201"/><path d="M113.16 52.27 108.4 57a16.64 16.64 0 0 1-23.53 23.57l-4.76 4.75a23.37 23.37 0 0 0 33.05-33z" fill="#f7b600"/><path d="M113.27 68.8a16.55 16.55 0 0 0-5-11.86l-23.5 23.53a16.64 16.64 0 0 0 28.5-11.67z" fill="#ed9406"/><path d="M96.63 53.93a16.64 16.64 0 0 1 16.62 15.75v-.88a16.64 16.64 0 1 0-33.25 0v.88a16.64 16.64 0 0 1 16.63-15.75z" fill="#f38d04"/><path fill="#ffde5d" d="m98.21 67.22 8.69 1.58-8.69 1.57-1.58 8.69-1.58-8.69-8.69-1.57 8.69-1.58 1.58-8.69 1.58 8.69z"/><path fill="#e8850f" d="m98.21 70.37-1.58 8.69-1.58-8.69-7.71-1.4-.98.18 8.69 1.58 1.58 8.69 1.58-8.69 8.69-1.58-.98-.18-7.71 1.4z"/><circle cx="42.19" cy="146.85" r="23.37" fill="#fdbb29"/><path d="M19.71 147.74a23.36 23.36 0 0 1 39.44-17 23.36 23.36 0 1 0-33 33 23.28 23.28 0 0 1-6.44-16z" fill="#ffde5d"/><circle cx="42.19" cy="146.85" r="16.64" fill="#f8a201"/><path d="M58.72 130.33 54 135.09a16.64 16.64 0 0 1-23.53 23.53l-4.76 4.76a23.37 23.37 0 0 0 33.05-33z" fill="#f7b600"/><path d="M58.84 146.85a16.59 16.59 0 0 0-5-11.86l-23.51 23.53a16.65 16.65 0 0 0 28.51-11.67z" fill="#ed9406"/><path d="M42.19 132a16.64 16.64 0 0 1 16.62 15.76v-.89a16.65 16.65 0 0 0-33.29 0v.89A16.64 16.64 0 0 1 42.19 132z" fill="#f38d04"/><path fill="#ffde5d" d="m43.77 145.28 8.69 1.57-8.69 1.58-1.58 8.69-1.57-8.69-8.69-1.58 8.69-1.57 1.57-8.69 1.58 8.69z"/><path fill="#e8850f" d="m43.77 148.43-1.58 8.69-1.57-8.69-7.72-1.4-.97.18 8.69 1.57 1.57 8.7 1.58-8.7 8.69-1.57-.97-.18-7.72 1.4z"/><circle cx="96.63" cy="146.85" r="23.37" fill="#fdbb29"/><path d="M74.15 147.74a23.36 23.36 0 0 1 39.44-17 23.36 23.36 0 1 0-33 33 23.28 23.28 0 0 1-6.44-16z" fill="#ffde5d"/><circle cx="96.63" cy="146.85" r="16.64" fill="#f8a201"/><path d="m113.16 130.33-4.76 4.76a16.64 16.64 0 0 1-23.53 23.53l-4.76 4.76a23.37 23.37 0 0 0 33.05-33z" fill="#f7b600"/><path d="M113.27 146.85a16.59 16.59 0 0 0-5-11.86l-23.5 23.53a16.64 16.64 0 0 0 28.5-11.67z" fill="#ed9406"/><path d="M96.63 132a16.65 16.65 0 0 1 16.62 15.76v-.89a16.64 16.64 0 0 0-33.28 0v.89A16.65 16.65 0 0 1 96.63 132z" fill="#f38d04"/><path fill="#ffde5d" d="m98.21 145.28 8.69 1.57-8.69 1.58-1.58 8.69-1.58-8.69-8.69-1.58 8.69-1.57 1.58-8.69 1.58 8.69z"/><path fill="#e8850f" d="m98.21 148.43-1.58 8.69-1.58-8.69-7.71-1.4-.98.18 8.69 1.57 1.58 8.7 1.58-8.7 8.69-1.57-.98-.18-7.71 1.4z"/><path d="m10.4 18.58 5.82-7.89h1.1v7.89h1.12v1.87h-1.12v2.75h-2.48v-2.75H10.4zm.88 0h3.56v-4.83zm108.79 180.33 5.82-7.88H127v7.88h1.12v1.87H127v2.75h-2.5v-2.75h-4.43zm.87 0h3.56v-4.83z" fill="#7f664a"/><path d="m120.07 199.58 5.82-7.89H127v7.89h1.12v1.87H127v2.75h-2.5v-2.75h-4.43zm.87 0h3.56v-4.83z" fill="#7f664a"/></svg>