<svg xmlns="http://www.w3.org/2000/svg" viewBox="0 0 138.83 215.65"><path fill="#fff" d="M0 0h138.82v215.65H0z"/><path fill="none" stroke="#7f664a" stroke-miterlimit="10" stroke-width=".5" d="M6.94 8.91h124.94v199.82H6.94z"/><circle cx="31.41" cy="42.42" r="19.93" fill="#fdbb29"/><path d="M12.23 43.17a19.93 19.93 0 0 1 33.64-14.45A19.92 19.92 0 1 0 17.7 56.88a19.9 19.9 0 0 1-5.47-13.71z" fill="#ffde5d"/><circle cx="31.41" cy="42.42" r="14.19" fill="#f8a201"/><path d="m45.5 28.33-4.06 4.06a14.19 14.19 0 1 1-20.07 20.06l-4.05 4.06A19.93 19.93 0 0 0 45.5 28.33z" fill="#f7b600"/><path d="M45.6 42.42a14.15 14.15 0 0 0-4.24-10.11L21.29 52.37a14.19 14.19 0 0 0 24.31-9.95z" fill="#ed9406"/><path d="M31.41 29.74a14.2 14.2 0 0 1 14.17 13.43v-.75a14.19 14.19 0 0 0-28.38 0v.75a14.18 14.18 0 0 1 14.21-13.43z" fill="#f38d04"/><path fill="#ffde5d" d="m32.75 41.07 7.41 1.35-7.41 1.34-1.34 7.41-1.35-7.41-7.41-1.34 7.41-1.35 1.35-7.41 1.34 7.41z"/><path fill="#e8850f" d="m32.75 43.76-1.34 7.41-1.35-7.41-6.58-1.19-.83.15 7.41 1.34 1.35 7.42 1.34-7.42 7.41-1.34-.83-.15-6.58 1.19z"/><circle cx="69.41" cy="107.83" r="19.93" fill="#fdbb29"/><path d="M50.24 108.58a19.92 19.92 0 0 1 33.63-14.46 19.92 19.92 0 1 0-28.16 28.16 19.83 19.83 0 0 1-5.47-13.7z" fill="#ffde5d"/><circle cx="69.41" cy="107.83" r="14.19" fill="#f8a201"/><path d="m83.5 93.74-4 4.05a14.19 14.19 0 1 1-20.07 20.07l-4.06 4.06A19.93 19.93 0 1 0 83.5 93.74z" fill="#f7b600"/><path d="M83.6 107.83a14.15 14.15 0 0 0-4.24-10.12L59.3 117.78a14.19 14.19 0 0 0 24.3-10z" fill="#ed9406"/><path d="M69.41 95.14a14.19 14.19 0 0 1 14.17 13.44v-.75a14.19 14.19 0 1 0-28.38 0v.75a14.2 14.2 0 0 1 14.21-13.44z" fill="#f38d04"/><path fill="#ffde5d" d="m70.76 106.48 7.41 1.35-7.41 1.34-1.35 7.41-1.34-7.41-7.41-1.34 7.41-1.35 1.34-7.41 1.35 7.41z"/><path fill="#e8850f" d="m70.76 109.17-1.35 7.41-1.34-7.41-6.58-1.19-.83.15 7.41 1.34 1.34 7.41 1.35-7.41 7.41-1.34-.83-.15-6.58 1.19z"/><circle cx="31.41" cy="86.02" r="19.93" fill="#fdbb29"/><path d="M12.23 86.78a19.93 19.93 0 0 1 33.64-14.46 19.92 19.92 0 1 0-28.17 28.16 19.87 19.87 0 0 1-5.47-13.7z" fill="#ffde5d"/><circle cx="31.41" cy="86.02" r="14.19" fill="#f8a201"/><path d="M45.5 71.93 41.44 76a14.19 14.19 0 0 1-20.07 20.06l-4.05 4A19.93 19.93 0 0 0 45.5 71.93z" fill="#f7b600"/><path d="M45.6 86a14.15 14.15 0 0 0-4.24-10.11L21.29 96A14.19 14.19 0 0 0 45.6 86z" fill="#ed9406"/><path d="M31.41 73.34a14.2 14.2 0 0 1 14.17 13.44v-.76a14.19 14.19 0 0 0-28.38 0v.76a14.19 14.19 0 0 1 14.21-13.44z" fill="#f38d04"/><path fill="#ffde5d" d="m32.75 84.68 7.41 1.34-7.41 1.35-1.34 7.41-1.35-7.41-7.41-1.35 7.41-1.34 1.35-7.41 1.34 7.41z"/><path fill="#e8850f" d="m32.75 87.37-1.34 7.41-1.35-7.41-6.58-1.2-.83.16 7.41 1.34 1.35 7.41 1.34-7.41 7.41-1.34-.83-.16-6.58 1.2z"/><circle cx="31.41" cy="129.63" r="19.93" fill="#fdbb29"/><path d="M12.23 130.38a19.93 19.93 0 0 1 33.64-14.46 19.93 19.93 0 1 0-28.17 28.17 19.91 19.91 0 0 1-5.47-13.71z" fill="#ffde5d"/><circle cx="31.41" cy="129.63" r="14.19" fill="#f8a201"/><path d="m45.5 115.54-4.06 4a14.19 14.19 0 1 1-20.07 20.07l-4.05 4.06a19.93 19.93 0 0 0 28.18-28.13z" fill="#f7b600"/><path d="M45.6 129.63a14.19 14.19 0 0 0-4.24-10.12l-20.07 20.07a14.19 14.19 0 0 0 24.31-10z" fill="#ed9406"/><path d="M31.41 117a14.2 14.2 0 0 1 14.17 13.43v-.75a14.19 14.19 0 0 0-28.38 0v.75A14.18 14.18 0 0 1 31.41 117z" fill="#f38d04"/><path fill="#ffde5d" d="m32.75 128.28 7.41 1.35-7.41 1.34-1.34 7.41-1.35-7.41-7.41-1.34 7.41-1.35 1.35-7.41 1.34 7.41z"/><path fill="#e8850f" d="m32.75 130.97-1.34 7.41-1.35-7.41-6.58-1.19-.83.15 7.41 1.34 1.35 7.41 1.34-7.41 7.41-1.34-.83-.15-6.58 1.19z"/><circle cx="31.41" cy="173.23" r="19.93" fill="#fdbb29"/><path d="M12.23 174a19.93 19.93 0 0 1 33.64-14.46 19.92 19.92 0 1 0-28.17 28.15A19.87 19.87 0 0 1 12.23 174z" fill="#ffde5d"/><circle cx="31.41" cy="173.23" r="14.19" fill="#f8a201"/><path d="m45.5 159.14-4.06 4.06a14.19 14.19 0 0 1-20.07 20.07l-4.05 4a19.93 19.93 0 0 0 28.18-28.13z" fill="#f7b600"/><path d="M45.6 173.23a14.15 14.15 0 0 0-4.24-10.11l-20.07 20.06a14.19 14.19 0 0 0 24.31-10z" fill="#ed9406"/><path d="M31.41 160.55A14.2 14.2 0 0 1 45.58 174v-.76a14.19 14.19 0 0 0-28.38 0v.76a14.19 14.19 0 0 1 14.21-13.45z" fill="#f38d04"/><path fill="#ffde5d" d="m32.75 171.89 7.41 1.34-7.41 1.35-1.34 7.41-1.35-7.41-7.41-1.35 7.41-1.34 1.35-7.41 1.34 7.41z"/><path fill="#e8850f" d="m32.75 174.58-1.34 7.41-1.35-7.41-6.58-1.2-.83.15 7.41 1.35 1.35 7.41 1.34-7.41 7.41-1.35-.83-.15-6.58 1.2z"/><circle cx="107.42" cy="42.42" r="19.93" fill="#fdbb29"/><path d="M88.25 43.17a19.92 19.92 0 0 1 33.63-14.45 19.92 19.92 0 1 0-28.17 28.16 19.89 19.89 0 0 1-5.46-13.71z" fill="#ffde5d"/><circle cx="107.42" cy="42.42" r="14.19" fill="#f8a201"/><path d="m121.51 28.33-4.06 4.06a14.18 14.18 0 1 1-20.06 20.06l-4.06 4.06a19.93 19.93 0 0 0 28.18-28.18z" fill="#f7b600"/><path d="M121.61 42.42a14.15 14.15 0 0 0-4.24-10.11L97.31 52.37a14.19 14.19 0 0 0 24.3-9.95z" fill="#ed9406"/><path d="M107.42 29.74a14.19 14.19 0 0 1 14.17 13.43v-.75a14.19 14.19 0 0 0-28.38 0v.75a14.18 14.18 0 0 1 14.21-13.43z" fill="#f38d04"/><path fill="#ffde5d" d="m108.76 41.07 7.41 1.35-7.41 1.34-1.34 7.41-1.35-7.41-7.41-1.34 7.41-1.35 1.35-7.41 1.34 7.41z"/><path fill="#e8850f" d="m108.76 43.76-1.34 7.41-1.35-7.41-6.57-1.19-.84.15 7.41 1.34 1.35 7.42 1.34-7.42 7.41-1.34-.83-.15-6.58 1.19z"/><circle cx="107.42" cy="86.02" r="19.93" fill="#fdbb29"/><path d="M88.25 86.78a19.92 19.92 0 0 1 33.63-14.46 19.92 19.92 0 1 0-28.17 28.16 19.86 19.86 0 0 1-5.46-13.7z" fill="#ffde5d"/><circle cx="107.42" cy="86.02" r="14.19" fill="#f8a201"/><path d="M121.51 71.93 117.45 76a14.19 14.19 0 0 1-20.06 20.06l-4.06 4a19.93 19.93 0 0 0 28.18-28.18z" fill="#f7b600"/><path d="M121.61 86a14.15 14.15 0 0 0-4.24-10.11L97.31 96a14.19 14.19 0 0 0 24.3-10z" fill="#ed9406"/><path d="M107.42 73.34a14.19 14.19 0 0 1 14.17 13.44v-.76a14.19 14.19 0 0 0-28.38 0v.76a14.19 14.19 0 0 1 14.21-13.44z" fill="#f38d04"/><path fill="#ffde5d" d="m108.76 84.68 7.41 1.34-7.41 1.35-1.34 7.41-1.35-7.41-7.41-1.35 7.41-1.34 1.35-7.41 1.34 7.41z"/><path fill="#e8850f" d="m108.76 87.37-1.34 7.41-1.35-7.41-6.57-1.2-.84.16 7.41 1.34 1.35 7.41 1.34-7.41 7.41-1.34-.83-.16-6.58 1.2z"/><circle cx="107.42" cy="129.63" r="19.93" fill="#fdbb29"/><path d="M88.25 130.38a19.93 19.93 0 0 1 33.63-14.46 19.93 19.93 0 1 0-28.17 28.17 19.91 19.91 0 0 1-5.46-13.71z" fill="#ffde5d"/><circle cx="107.42" cy="129.63" r="14.19" fill="#f8a201"/><path d="m121.51 115.54-4.06 4a14.19 14.19 0 1 1-20.06 20.07l-4.06 4.06a19.93 19.93 0 0 0 28.18-28.18z" fill="#f7b600"/><path d="M121.61 129.63a14.19 14.19 0 0 0-4.24-10.12l-20.06 20.07a14.19 14.19 0 0 0 24.3-10z" fill="#ed9406"/><path d="M107.42 117a14.19 14.19 0 0 1 14.17 13.43v-.75a14.19 14.19 0 0 0-28.38 0v.75A14.18 14.18 0 0 1 107.42 117z" fill="#f38d04"/><path fill="#ffde5d" d="m108.76 128.28 7.41 1.35-7.41 1.34-1.34 7.41-1.35-7.41-7.41-1.34 7.41-1.35 1.35-7.41 1.34 7.41z"/><path fill="#e8850f" d="m108.76 130.97-1.34 7.41-1.35-7.41-6.57-1.19-.84.15 7.41 1.34 1.35 7.41 1.34-7.41 7.41-1.34-.83-.15-6.58 1.19z"/><circle cx="107.42" cy="173.23" r="19.93" fill="#fdbb29"/><path d="M88.25 174a19.92 19.92 0 0 1 33.63-14.46 19.92 19.92 0 1 0-28.17 28.16 19.86 19.86 0 0 1-5.46-13.7z" fill="#ffde5d"/><circle cx="107.42" cy="173.23" r="14.19" fill="#f8a201"/><path d="m121.51 159.14-4.06 4.06a14.19 14.19 0 0 1-20.06 20.07l-4.06 4a19.93 19.93 0 0 0 28.18-28.18z" fill="#f7b600"/><path d="M121.61 173.23a14.15 14.15 0 0 0-4.24-10.11l-20.06 20.06a14.19 14.19 0 0 0 24.3-10z" fill="#ed9406"/><path d="M107.42 160.55A14.19 14.19 0 0 1 121.59 174v-.76a14.19 14.19 0 0 0-28.38 0v.76a14.19 14.19 0 0 1 14.21-13.45z" fill="#f38d04"/><path fill="#ffde5d" d="m108.76 171.89 7.41 1.34-7.41 1.35-1.34 7.41-1.35-7.41-7.41-1.35 7.41-1.34 1.35-7.41 1.34 7.41z"/><path fill="#e8850f" d="m108.76 174.58-1.34 7.41-1.35-7.41-6.57-1.2-.84.15 7.41 1.35 1.35 7.41 1.34-7.41 7.41-1.35-.83-.15-6.58 1.2z"/><path d="M9.77 23.45v-.25a8 8 0 0 0 2.55-1A5.2 5.2 0 0 0 14 20.53a6.49 6.49 0 0 0 .85-2.27 5.31 5.31 0 0 1-1 .41 3.2 3.2 0 0 1-.83.11 3 3 0 0 1-2.31-1A3.9 3.9 0 0 1 9.8 15a5 5 0 0 1 .5-2.22 3.7 3.7 0 0 1 5.4-1.5 4.27 4.27 0 0 1 1.53 1.78 5.93 5.93 0 0 1 .57 2.65 7.88 7.88 0 0 1-.93 3.71 7.1 7.1 0 0 1-2.76 2.84 9.16 9.16 0 0 1-4.34 1.19zM15 17.5c.06-.67.09-1.26.09-1.78a12 12 0 0 0-.38-3.06 2.26 2.26 0 0 0-.71-1.15.83.83 0 0 0-.59-.2.79.79 0 0 0-.7.39 3.93 3.93 0 0 0-.36 2 7 7 0 0 0 .6 3.45 1.19 1.19 0 0 0 1 .61A2.18 2.18 0 0 0 15 17.5z" fill="#7f664a"/><path fill="none" stroke="#7f664a" stroke-miterlimit="10" stroke-width=".5" d="M9.17 24.81h9.16"/><path d="M121.27 203.2v-.2a8 8 0 0 0 2.55-1 5.2 5.2 0 0 0 1.65-1.65 6.49 6.49 0 0 0 .85-2.27 5.31 5.31 0 0 1-.95.41 3.2 3.2 0 0 1-.83.11 3 3 0 0 1-2.31-1 3.9 3.9 0 0 1-.93-2.75 5 5 0 0 1 .5-2.22 3.7 3.7 0 0 1 5.4-1.5 4.27 4.27 0 0 1 1.53 1.78 5.93 5.93 0 0 1 .57 2.65 7.88 7.88 0 0 1-.93 3.71 7.1 7.1 0 0 1-2.76 2.84 9.16 9.16 0 0 1-4.34 1.09zm5.19-5.95c.06-.67.09-1.26.09-1.78a12 12 0 0 0-.38-3.06 2.26 2.26 0 0 0-.64-1.15.83.83 0 0 0-.59-.2.79.79 0 0 0-.7.39 3.93 3.93 0 0 0-.36 2 7 7 0 0 0 .6 3.45 1.19 1.19 0 0 0 1 .61 2.18 2.18 0 0 0 .98-.26z" fill="#7f664a"/><path fill="none" stroke="#7f664a" stroke-miterlimit="10" stroke-width=".5" d="M120.67 204.56h9.16"/></svg>