<svg xmlns="http://www.w3.org/2000/svg" viewBox="0 0 138.83 215.65"><path fill="#fff" d="M0 0h138.82v215.65H0z"/><path fill="none" stroke="#7f664a" stroke-miterlimit="10" stroke-width=".5" d="M6.94 8.91h124.94v199.82H6.94z"/><circle cx="43" cy="52.26" r="22.68" fill="#fdbb29"/><path d="M21.18 53.12a22.67 22.67 0 0 1 38.27-16.46 22.67 22.67 0 1 0-32 32.05 22.56 22.56 0 0 1-6.27-15.59z" fill="#ffde5d"/><circle cx="43" cy="52.26" r="16.15" fill="#f8a201"/><path d="m59 36.23-4.62 4.61a16.15 16.15 0 0 1-22.8 22.84L27 68.3a22.68 22.68 0 0 0 32-32.07z" fill="#f7b600"/><path d="M59.15 52.26a16.09 16.09 0 0 0-4.83-11.51L31.49 63.58a16.14 16.14 0 0 0 27.66-11.32z" fill="#ed9406"/><path d="M43 37.83a16.16 16.16 0 0 1 16.13 15.29v-.86a16.15 16.15 0 0 0-32.3 0v.86A16.14 16.14 0 0 1 43 37.83z" fill="#f38d04"/><path fill="#ffde5d" d="m44.53 50.73 8.44 1.53-8.44 1.53L43 62.22l-1.53-8.43-8.43-1.53 8.43-1.53L43 42.3l1.53 8.43z"/><path fill="#e8850f" d="M44.53 53.79 43 62.22l-1.53-8.43-7.49-1.36-.94.17 8.43 1.53L43 62.57l1.53-8.44 8.44-1.53-.95-.17-7.49 1.36z"/><circle cx="95.82" cy="52.26" r="22.68" fill="#fdbb29"/><path d="M74 53.12a22.67 22.67 0 0 1 38.27-16.46 22.67 22.67 0 1 0-32 32.05A22.59 22.59 0 0 1 74 53.12z" fill="#ffde5d"/><circle cx="95.82" cy="52.26" r="16.15" fill="#f8a201"/><path d="m111.86 36.23-4.62 4.61a16.15 16.15 0 1 1-22.83 22.84l-4.62 4.62a22.68 22.68 0 0 0 32.07-32.07z" fill="#f7b600"/><path d="M112 52.26a16.12 16.12 0 0 0-4.82-11.51L84.32 63.58A16.14 16.14 0 0 0 112 52.26z" fill="#ed9406"/><path d="M95.82 37.83A16.16 16.16 0 0 1 112 53.12v-.86a16.15 16.15 0 1 0-32.29 0v.86a16.15 16.15 0 0 1 16.11-15.29z" fill="#f38d04"/><path fill="#ffde5d" d="m97.35 50.73 8.44 1.53-8.44 1.53-1.53 8.43-1.53-8.43-8.43-1.53 8.43-1.53 1.53-8.43 1.53 8.43z"/><path fill="#e8850f" d="m97.35 53.79-1.53 8.43-1.53-8.43-7.48-1.36-.95.17 8.43 1.53 1.53 8.44 1.53-8.44 8.44-1.53-.95-.17-7.49 1.36z"/><circle cx="43" cy="107.83" r="22.68" fill="#fdbb29"/><path d="M21.18 108.68a22.67 22.67 0 0 1 38.27-16.45 22.67 22.67 0 1 0-32 32.05 22.58 22.58 0 0 1-6.27-15.6z" fill="#ffde5d"/><circle cx="43" cy="107.83" r="16.15" fill="#f8a201"/><path d="m59 91.79-4.62 4.62a16.15 16.15 0 0 1-22.84 22.84L27 123.86a22.68 22.68 0 0 0 32-32.07z" fill="#f7b600"/><path d="M59.15 107.83a16.09 16.09 0 0 0-4.83-11.51l-22.83 22.83a16.15 16.15 0 0 0 27.66-11.32z" fill="#ed9406"/><path d="M43 93.39a16.16 16.16 0 0 1 16.13 15.29v-.85a16.15 16.15 0 0 0-32.3 0v.85A16.15 16.15 0 0 1 43 93.39z" fill="#f38d04"/><path fill="#ffde5d" d="m44.53 106.3 8.44 1.53-8.44 1.53-1.53 8.43-1.53-8.43-8.43-1.53 8.43-1.53L43 97.86l1.53 8.44z"/><path fill="#e8850f" d="M44.53 109.36 43 117.79l-1.53-8.43-7.49-1.36-.94.17 8.43 1.53 1.53 8.43 1.53-8.43 8.44-1.53-.95-.17-7.49 1.36z"/><circle cx="95.82" cy="107.83" r="22.68" fill="#fdbb29"/><path d="M74 108.68a22.67 22.67 0 0 1 38.27-16.45 22.67 22.67 0 1 0-32 32.05 22.62 22.62 0 0 1-6.27-15.6z" fill="#ffde5d"/><circle cx="95.82" cy="107.83" r="16.15" fill="#f8a201"/><path d="m111.86 91.79-4.62 4.62a16.15 16.15 0 0 1-22.83 22.84l-4.62 4.61a22.68 22.68 0 0 0 32.07-32.07z" fill="#f7b600"/><path d="M112 107.83a16.12 16.12 0 0 0-4.82-11.51l-22.86 22.83A16.14 16.14 0 0 0 112 107.83z" fill="#ed9406"/><path d="M95.82 93.39A16.16 16.16 0 0 1 112 108.68v-.85a16.15 16.15 0 1 0-32.29 0v.85a16.15 16.15 0 0 1 16.11-15.29z" fill="#f38d04"/><path fill="#ffde5d" d="m97.35 106.3 8.44 1.53-8.44 1.53-1.53 8.43-1.53-8.43-8.43-1.53 8.43-1.53 1.53-8.44 1.53 8.44z"/><path fill="#e8850f" d="m97.35 109.36-1.53 8.43-1.53-8.43-7.48-1.36-.95.17 8.43 1.53 1.53 8.43 1.53-8.43 8.44-1.53-.95-.17-7.49 1.36z"/><circle cx="43" cy="163.39" r="22.68" fill="#fdbb29"/><path d="M21.18 164.25a22.66 22.66 0 0 1 38.27-16.45 22.66 22.66 0 1 0-32 32 22.56 22.56 0 0 1-6.27-15.55z" fill="#ffde5d"/><circle cx="43" cy="163.39" r="16.15" fill="#f8a201"/><path d="M59 147.36 54.42 152a16.15 16.15 0 0 1-22.84 22.84L27 179.43a22.68 22.68 0 0 0 32-32.07z" fill="#f7b600"/><path d="M59.15 163.39a16.09 16.09 0 0 0-4.83-11.51l-22.83 22.83a16.14 16.14 0 0 0 27.66-11.32z" fill="#ed9406"/><path d="M43 149a16.16 16.16 0 0 1 16.13 15.29v-.86a16.15 16.15 0 0 0-32.3 0v.86A16.14 16.14 0 0 1 43 149z" fill="#f38d04"/><path fill="#ffde5d" d="m44.53 161.86 8.44 1.53-8.44 1.53-1.53 8.43-1.53-8.43-8.43-1.53 8.43-1.53 1.53-8.43 1.53 8.43z"/><path fill="#e8850f" d="M44.53 164.92 43 173.35l-1.53-8.43-7.49-1.36-.94.17 8.43 1.53L43 173.7l1.53-8.44 8.44-1.53-.95-.17-7.49 1.36z"/><circle cx="95.82" cy="163.39" r="22.68" fill="#fdbb29"/><path d="M74 164.25a22.66 22.66 0 0 1 38.27-16.45 22.67 22.67 0 1 0-32 32A22.59 22.59 0 0 1 74 164.25z" fill="#ffde5d"/><circle cx="95.82" cy="163.39" r="16.15" fill="#f8a201"/><path d="m111.86 147.36-4.62 4.64a16.15 16.15 0 1 1-22.83 22.84l-4.62 4.62a22.68 22.68 0 0 0 32.07-32.07z" fill="#f7b600"/><path d="M112 163.39a16.12 16.12 0 0 0-4.82-11.51l-22.86 22.83A16.14 16.14 0 0 0 112 163.39z" fill="#ed9406"/><path d="M95.82 149A16.16 16.16 0 0 1 112 164.25v-.86a16.15 16.15 0 1 0-32.29 0v.86A16.15 16.15 0 0 1 95.82 149z" fill="#f38d04"/><path fill="#ffde5d" d="m97.35 161.86 8.44 1.53-8.44 1.53-1.53 8.43-1.53-8.43-8.43-1.53 8.43-1.53 1.53-8.43 1.53 8.43z"/><path fill="#e8850f" d="m97.35 164.92-1.53 8.43-1.53-8.43-7.48-1.36-.95.17 8.43 1.53 1.53 8.44 1.53-8.44 8.44-1.53-.95-.17-7.49 1.36z"/><path d="M17.66 10.69V11A8.31 8.31 0 0 0 15 12a4.93 4.93 0 0 0-1.56 1.59 7.68 7.68 0 0 0-.89 2.31 2.68 2.68 0 0 1 .66-.35 4 4 0 0 1 1.18-.18 3 3 0 0 1 2.29 1 3.86 3.86 0 0 1 .92 2.72 5 5 0 0 1-.5 2.22 3.65 3.65 0 0 1-1.41 1.57 3.69 3.69 0 0 1-2 .55 3.81 3.81 0 0 1-2.09-.62A4.08 4.08 0 0 1 10.19 21a6.23 6.23 0 0 1-.54-2.59 7.74 7.74 0 0 1 1-3.84 7.41 7.41 0 0 1 2.81-2.83 8.38 8.38 0 0 1 4.2-1.05zm-5.2 6c-.05.84-.07 1.44-.07 1.83a11.87 11.87 0 0 0 .24 2.41 3.77 3.77 0 0 0 .65 1.64.93.93 0 0 0 .71.33.92.92 0 0 0 .74-.48 3.93 3.93 0 0 0 .32-2 6.94 6.94 0 0 0-.6-3.44 1.19 1.19 0 0 0-1-.61 2.32 2.32 0 0 0-.99.28z" fill="#7f664a"/><path fill="none" stroke="#7f664a" stroke-miterlimit="10" stroke-width=".5" d="M9.33 24.81h9.17"/><path d="M127.32 191v.25a8.58 8.58 0 0 0-2.62 1.07 5.28 5.28 0 0 0-1.57 1.59 7.75 7.75 0 0 0-.88 2.32 3 3 0 0 1 .65-.36 4.09 4.09 0 0 1 1.19-.18 3 3 0 0 1 2.29 1 3.9 3.9 0 0 1 .91 2.73 5 5 0 0 1-.49 2.22 3.76 3.76 0 0 1-5.45 1.49 4 4 0 0 1-1.49-1.81 6.19 6.19 0 0 1-.54-2.59 7.79 7.79 0 0 1 1-3.84 7.32 7.32 0 0 1 2.81-2.82 8.35 8.35 0 0 1 4.19-1.07zm-5.19 6c0 .83-.08 1.44-.08 1.82a12 12 0 0 0 .24 2.42 3.59 3.59 0 0 0 .66 1.63.91.91 0 0 0 .7.33.9.9 0 0 0 .74-.48 3.88 3.88 0 0 0 .33-2 7 7 0 0 0-.6-3.45 1.21 1.21 0 0 0-1.05-.61 2.17 2.17 0 0 0-.94.34z" fill="#7f664a"/><path fill="none" stroke="#7f664a" stroke-miterlimit="10" stroke-width=".5" d="M119 205.14h9.17"/></svg>