<svg xmlns="http://www.w3.org/2000/svg" viewBox="0 0 138.83 215.65"><path fill="#fff" d="M0 0h138.82v215.65H0z"/><path fill="none" stroke="#7f664a" stroke-miterlimit="10" stroke-width=".5" d="M6.94 8.91h124.94v199.82H6.94z"/><path d="M14.91 10.69v10a6.61 6.61 0 0 0 .1 1.44.94.94 0 0 0 .42.51 1.89 1.89 0 0 0 1 .2h.28v.34h-6.44v-.34h.33a2.56 2.56 0 0 0 1.12-.18.91.91 0 0 0 .45-.5 5.36 5.36 0 0 0 .12-1.47v-6.33a3.59 3.59 0 0 0-.09-1.06.73.73 0 0 0-.3-.36.9.9 0 0 0-.51-.15 2.77 2.77 0 0 0-1.12.29l-.16-.33 4.51-2.06zm8.23 0v10a6.61 6.61 0 0 0 .1 1.44.94.94 0 0 0 .42.51 1.89 1.89 0 0 0 1 .2H25v.34h-6.5v-.34h.33a2.56 2.56 0 0 0 1.17-.16.91.91 0 0 0 .45-.5 5.36 5.36 0 0 0 .12-1.47v-6.35a3.59 3.59 0 0 0-.09-1.06.73.73 0 0 0-.3-.36.9.9 0 0 0-.51-.15 2.77 2.77 0 0 0-1.12.29l-.16-.33 4.51-2.06zm95.27 181v10a6.61 6.61 0 0 0 .1 1.44.94.94 0 0 0 .42.51 1.89 1.89 0 0 0 1 .2h.28v.34h-6.45v-.34h.33a2.56 2.56 0 0 0 1.12-.18.91.91 0 0 0 .45-.5 5.36 5.36 0 0 0 .12-1.47v-6.35a3.59 3.59 0 0 0-.09-1.06.73.73 0 0 0-.3-.36.9.9 0 0 0-.51-.15 2.77 2.77 0 0 0-1.12.29l-.16-.33 4.51-2.06zm8.23 0v10a6.61 6.61 0 0 0 .1 1.44.94.94 0 0 0 .42.51 1.89 1.89 0 0 0 1 .2h.28v.34H122v-.34h.33a2.56 2.56 0 0 0 1.12-.18.91.91 0 0 0 .45-.5 5.36 5.36 0 0 0 .12-1.47v-6.35a3.59 3.59 0 0 0-.09-1.06.73.73 0 0 0-.3-.36.9.9 0 0 0-.51-.15 2.77 2.77 0 0 0-1.12.29l-.16-.33 4.51-2.06z" fill="#7f664a"/><path d="M76.73 181.25s.88 3.48 0 5.06c0 0-4.35 2.16-10.53-1.53 0 0 3.79-5.28 5.46-6.7z" fill="#484949"/><path d="M87.38 140.64c-5.31 5.89-5.7 9.33-5 11.4.58 1.67 1.74 2.08 2.38 4.28.84 2.88-.17 5.5-1.3 8.29-2.78 6.87-6 6.62-6 11.09 0 1.59 1.26 7.45-3.17 6.81s-5.86-.16-4.91-2.21 2.22-5.39 3-5.39 5.54-10.41 5.54-11.7-.16-1.61-1.19-4.62-5.46-19.16-5.46-19.16z" fill="#c19048"/><path d="M51.05 182.17s.87 3.49 0 5.07c0 0-4.36 2.16-10.53-1.53 0 0 3.79-5.28 5.46-6.71z" fill="#484949"/><path d="M52.22 131.21s1.68 14.2 2.85 16.64.89 6.8-.14 10.58-4.17 12.71-3.87 14.67 2.65 9.07-1.86 8.94-5.82.68-5.27-2 1.18-7 2-7.14 3.53-13.76 3.29-15.37-.46-2-2-5.56-8.67-24.3-8.67-24.3z" fill="#c19048"/><path d="M95.14 180.51s2.74 1.78 1.32 7.36a10.31 10.31 0 0 1-11.41-.93 19.52 19.52 0 0 1 5.95-6.43z" fill="#484949"/><path d="M23.27 78S19 75.9 18 72.1c0 0-2.69 6.5 3.33 10.3z" fill="#e0ad63"/><path d="M100.18 113.42c2.85 1 4.78 3.68 6.15 6.38s2.4 5.62 4.27 8 5 4.15 7.89 3.4a9.12 9.12 0 0 1-8.17.82c2.83 1.63 3.78 5.28 3.85 8.55s-.47 6.64.5 9.77 4.22 5.92 7.33 4.88c-2.31 1.35-5.38.55-7.42-1.18s-3.27-4.19-4.45-6.59a17.94 17.94 0 0 1-2.43 6.39l-.11-8.85a4.1 4.1 0 0 0-.5-2.33 4.8 4.8 0 0 0-2.42-1.4c-3.82-1.46-6.71-4.63-9.24-7.84-1.51-1.92-3-4-3.27-6.45-.53-4.97.05-16.45 8.02-13.55z" fill="#c19048"/><path d="M58.52 138.87s9 9.43 27.32 5.15c0 0 3.8 11.22 5.94 15.6s1.19 12.74 0 14.84-3.09 3.54-1.9 6.15c0 0 .48 5.47 5.23 1.19 0 0 3.33-1.9 1.19-5.94A81.83 81.83 0 0 1 98.2 164c1.42-5.7 5.94-8.64 0-13.71 0 0-.45-8.63 3-13.14s6.52-18.08-11.54-27.81c0 0-22.33.05-29.46-9.6S38.08 66.3 25.73 74.87c0 0-7.41 3.49-6.74 11.22a13.26 13.26 0 0 0 .48 2.54 16.61 16.61 0 0 0 1 2.66c4.09 8.51 3.93 12.76 3.58 14.37a3.32 3.32 0 0 1-.25.77 12.68 12.68 0 0 0 .69 2.11c1.12 2.61 3.81 6.54 9.52 4.88a29 29 0 0 0 .31 8.41 21.79 21.79 0 0 0 1.09 4 16.3 16.3 0 0 0 .81 1.82 14.89 14.89 0 0 0 10.38 8" fill="#e0ad63"/><path d="M34.35 121.84a21.79 21.79 0 0 0 1.09 4c3.36.74 15.6 2.73 25.94-5l-.61-3.26a40 40 0 0 1-26.42 4.26z" fill="#969b2c"/><path d="M89.64 109.32s2.49 17.14-3.68 27.14c0 0-18.65-10.34-28.16-10.66 0 0 6.82-20.59 5.23-26.45-.03 0 16.48 10.75 26.61 9.97z" fill="#78b1ef"/><path d="M21.18 81a4.55 4.55 0 0 1-4.35 3 13.94 13.94 0 0 0 4.49-.59 1.93 1.93 0 0 1-.81 2 2.08 2.08 0 0 0 2.75-1.23 7.43 7.43 0 0 1-.1 2 7.72 7.72 0 0 0 2.89-3.52c.87-1.71 3.17-6.68 0-7.4S21.86 79 21.18 81z" fill="#c19048"/><path d="M19 86.09a13.26 13.26 0 0 0 .48 2.54 20.49 20.49 0 0 1 15.81 1.58l2.2-.84 5.83-5.82-3.2-1.78L35.93 87v1.23c-2.84-2.62-12.57-2.39-16.93-2.14z" fill="#969b2c"/><path d="M39.39 73.3c1.69 1.15 2.67 3 3.82 4.74s2.71 3.36 4.79 3.55c-.71.3-1.45.56-2.19.79 2.26.85 4.67 1.8 6.06 3.78 1 1.43 1.42 3.32 2.8 4.39.9.69 2.16 1 2.76 2 .38.62.41 1.41.82 2a4.52 4.52 0 0 0 1.64 1.24 11.13 11.13 0 0 1 5.11 7.86 13.18 13.18 0 0 1-2.24 9.25 7.42 7.42 0 0 0-1.76-9.2 8.8 8.8 0 0 1-6.51 6 18.4 18.4 0 0 0 1.17-5.5 6.26 6.26 0 0 0-2.11-5 3.28 3.28 0 0 1-3.26 3.51 8.39 8.39 0 0 0-2.36-9.37 4.57 4.57 0 0 1-2.68 3.48 12.45 12.45 0 0 0-.59-7.09 4.73 4.73 0 0 1-2 2.18A8.26 8.26 0 0 0 39 83.59a13.25 13.25 0 0 1-1.92-1.22 6.79 6.79 0 0 1-1.22-1.59c-1-1.6-4.54-5.35-3.29-7.29s5.23-1.27 6.82-.19z" fill="#c19048"/><path d="M23.83 106.44a12.68 12.68 0 0 0 .69 2.11c5.9-4.61 10-1.83 10-1.83l.73-2.14a16.12 16.12 0 0 0-11.2 1.08 3.32 3.32 0 0 1-.22.78zm13.44-1.23S59.7 95 63.39 89.08l5 .47S53 108.38 37.27 107.78z" fill="#969b2c"/><path d="M83.82 107.81s5.82 11.38-1.18 22.31L62 122.87s6.28-14.19 5.52-20.88z" fill="#5f99c4"/><path d="M38.81 91.61a4.28 4.28 0 0 1 .78 1.92 9.25 9.25 0 0 1 .16 2.1 20.35 20.35 0 0 1-.58 4.13 36.84 36.84 0 0 0-.71 4 14.72 14.72 0 0 0 0 3.92v.19a8.46 8.46 0 0 1-2.12 4.13 5.48 5.48 0 0 1-1.88 1.32 5.88 5.88 0 0 1-2.18.5 7 7 0 0 0 2-.81 6.27 6.27 0 0 0 1.58-1.41 7.57 7.57 0 0 0 1.14-1.87 9.3 9.3 0 0 0 .59-2v.19a13.13 13.13 0 0 1-.08-4.28 28 28 0 0 1 .84-4.09 26.21 26.21 0 0 0 .87-4 7.6 7.6 0 0 0-.41-3.94zm50.05 41.31a10.24 10.24 0 0 0-2.41 5c-.4 1.8-.41 3.72-.73 5.66a13.34 13.34 0 0 1-.25-5.87 8.12 8.12 0 0 1 1.15-2.79 5.32 5.32 0 0 1 2.24-2z" fill="#d1a359"/><path d="M59.29 132.76a10.49 10.49 0 0 1 .35 3.37 7 7 0 0 1-.28 1.72 2.66 2.66 0 0 1-1 1.45 6.28 6.28 0 0 0 .26-1.61v-1.61a10.52 10.52 0 0 1 .67-3.32z" fill="#4f352e"/><ellipse cx="35.93" cy="89.37" rx="2.37" ry="3.62" transform="rotate(-36.58 35.932 89.384)" fill="#fdbb29"/><ellipse cx="35.28" cy="105.37" rx="2" ry="3.07" transform="rotate(-4.33 35.351 105.441)" fill="#fdbb29"/><ellipse cx="41.89" cy="124.23" rx="2" ry="3.07" transform="rotate(-4.33 41.92 124.365)" fill="#fdbb29"/><path d="M60.24 183s.87 3.49 0 5.07c0 0-4.36 2.16-10.54-1.53 0 0 3.8-5.28 5.46-6.71z" fill="#484949"/><path d="M61.41 132s.41 14.51 1.59 17a15.61 15.61 0 0 1 1.13 10.27c-1 3.78-4.17 12.71-3.87 14.68s2.65 9.06-1.86 8.93-5.82.68-5.27-2 1.18-7 2-7.14 3.53-13.76 3.28-15.36-2.73-5.34-5.68-7.93c-4-3.48-7.44-21.86-7.44-21.86zM34.52 76.86s.95-6.18-8.24-7.92c0 0 2.06 5.38 1.11 9 0 .06 5.86 2.72 7.13-1.08z" fill="#e0ad63"/><path d="M84.3 103.74a7.55 7.55 0 0 1-5.06 7.12 7.69 7.69 0 0 1-2.46.4 8 8 0 0 1-1.1-.07l1.78-5.83c-1.48-.07-5.68-1.69-8.14-2.67a7.5 7.5 0 0 1 6.46-6.4 6.45 6.45 0 0 1 1-.07 7.79 7.79 0 0 1 1.38.12 7.61 7.61 0 0 1 3.62 1.77 7.35 7.35 0 0 1 1.55 1.89 7.48 7.48 0 0 1 .97 3.74z" fill="#78b1ef"/><path d="M75 137.37c-1.7-3.34-.4-8.41-1.17-12.21-.3-1.49-1.07-3-.65-4.44a5.23 5.23 0 0 1 .91-1.65l6.14-8.6c1.05-1.46 2.15-3.1 2.12-5a16.49 16.49 0 0 0-6.37-3q-3.13 4.74-6 9.71a18.75 18.75 0 0 0-2.76 6.93 18.38 18.38 0 0 0 .78 6.75q1.37 5.42 3.18 10.66a7 7 0 0 0 .25 2.61c.16.74.63 1.55 1.29 1.42s.87-.9.91-1.57 1.11-.98 1.37-1.61z" fill="#a3af31"/><path d="M74.07 119.07q3.06-4.3 6.14-8.6c1.05-1.46 2.15-3.1 2.12-5a16.49 16.49 0 0 0-6.37-3l-.44.69a22.25 22.25 0 0 1 4.08 2.34c0 1.87-1.08 3.51-2.12 5l-4.73 6.62a12.39 12.39 0 0 0-2.22 3.68c-.42 1.57.24 2.87.55 4.39.77 3.8-.53 8.87 1.16 12.21-.15.4-.63.67-1 1 0 .27.1.53.16.78.16.74.63 1.55 1.29 1.42s.87-.9.91-1.57 1.12-1 1.36-1.61c-1.7-3.34-.4-8.41-1.17-12.21-.3-1.49-1.07-3-.65-4.44a5.23 5.23 0 0 1 .93-1.7z" fill="#969b2c"/><path d="M88.1 103.11a7.52 7.52 0 0 1-5.1 7.11 7.32 7.32 0 0 1-2.45.41 6.43 6.43 0 0 1-1.09-.08 7.51 7.51 0 0 1-4.42-2.32 8 8 0 0 1-1.04-1.57 7.51 7.51 0 0 1 5.63-11 8.26 8.26 0 0 1 1-.07 8.08 8.08 0 0 1 1.39.13 7.7 7.7 0 0 1 3.62 1.77 7.16 7.16 0 0 1 1.54 1.92 7.45 7.45 0 0 1 .92 3.7z" fill="#78b1ef"/><path d="M65.62 140.41a15 15 0 0 0-2.66 1 2.75 2.75 0 0 0-1.37 2.6 2.73 2.73 0 0 0 .9 1.53 5.09 5.09 0 0 0 7.09-.29 22.57 22.57 0 0 0 2-2.64c.18-.26.44-.54.71-.46s.36.42.54.64a1 1 0 0 0 1.53-.22 4 4 0 0 0 .61-1.87c.12-.92.22-1.84.3-2.77a1.88 1.88 0 0 0-.13-1.06 1.22 1.22 0 0 0-.5-.43c-4.17-2.28-5.64 2.65-9.02 3.97z" fill="#604238"/><path d="M75.1 136.89a1.22 1.22 0 0 0-.5-.43 3.64 3.64 0 0 0-3-.43 5.08 5.08 0 0 1 1 .43 1.22 1.22 0 0 1 .5.43 1.88 1.88 0 0 1 .13 1.06c-.08.93-.18 1.85-.3 2.77a4.82 4.82 0 0 1-.45 1.61c.12.14.21.33.33.48a1 1 0 0 0 1.53-.22 4 4 0 0 0 .61-1.87c.12-.92.22-1.84.3-2.77a1.88 1.88 0 0 0-.15-1.06z" fill="#4f352e"/><path d="M80.58 96.15s-6 1.6-5.89 11.36c0 0 1.67-8.37 6.84-11.51zm5.32 1.67s.95 9.62-6.92 12.53c.02 0 10.02-1.89 6.92-12.53z" fill="#ffb21a"/><path d="M88.54 37.15c2.49-1 5.3-.93 8-1.32s5.52-1.49 6.69-4A14.2 14.2 0 0 1 97.31 45a13.1 13.1 0 0 1-12 1c-2.52-1-2.61-2.21-1.37-4.56a9.53 9.53 0 0 1 4.6-4.29z" fill="#ed9406"/><path d="M103.21 31.8a6.36 6.36 0 0 1-3.32 3.08A14 14 0 0 1 94 45a12.27 12.27 0 0 1-5.29 1.9 12.72 12.72 0 0 0 8.6-1.9 14.2 14.2 0 0 0 5.9-13.2z" fill="#d88309"/><path fill="#f9c18a" d="M78.65 66.69v5.02h5.93v-5.97h-4.85l-1.08.95z"/><path fill="#ea9f54" d="M82.56 65.74h2.02v5.97h-2.02z"/><path d="M72.72 52.78s-2.61 5.23 4 6.77l9.74.6 4.87-.6.12-3.44s1.19-1.91-.83-5.71S79 46.48 79 46.48l-5.11 1.9z" fill="#ba8b45"/><ellipse cx="90.55" cy="57.51" rx="2.03" ry="3.05" fill="#ea9f54"/><ellipse cx="82.11" cy="57.51" rx="8.44" ry="10.07" fill="#f9c18a"/><path d="M82.11 47.44a7.1 7.1 0 0 0-1.31.13c4 .75 7.13 4.91 7.13 9.94s-3.09 9.18-7.13 9.93a7.1 7.1 0 0 0 1.31.13c4.66 0 8.44-4.5 8.44-10.06s-3.78-10.07-8.44-10.07z" fill="#ea9f54"/><path d="M52.38 67.16a8.2 8.2 0 0 0 3.39 4.07c.74.44 1.36.61 6.14 1.75l2.5.59c4.27-3.09 7.46-2.58 9-3.09 3.22-1 1 1.32 1.74 2.62 1.45 2.48-2 8.59-10.4 5.75S51.34 75 49.41 68.9z" fill="#3d3635"/><path d="M75 70.3a1.38 1.38 0 0 0 .17.78c.1-.34.09-.64-.17-.78zm-10.22 6.53c-7.55-2.57-12.41-3.63-14.71-8.32l-.66.39c1.93 6.13 7 7.1 15.37 9.95 8 2.72 11.52-2.74 10.55-5.39-.78 2.62-4.33 5.54-10.55 3.37z" fill="#2d2827"/><path d="M75 72.93s-5.44 2.76-4.08 20.29c0 0 1.63 3.77-.28 5.52a12.76 12.76 0 0 0 14.8.62A37.23 37.23 0 0 0 85.73 77l1.58-4H75z" fill="#bc1b21"/><path d="M87.31 72.93h-2.85l-1.58 4a37.23 37.23 0 0 1-.34 22.41 13.82 13.82 0 0 1-5.59 2 13 13 0 0 0 8.44-2A37.23 37.23 0 0 0 85.73 77z" fill="#96151f"/><path d="M72.16 67.22c2.28 2.75 6.11 3.62 9.68 3.8 3.36.16 7.13-.35 9.25-3a4.56 4.56 0 0 1-1.36 3.29A11.75 11.75 0 0 1 82 75.07c-2.34.19-5.75-.09-7.78-1.44s-2.22-4.21-2.06-6.41z" fill="#ffb21a"/><path d="M49.7 69.76a2.52 2.52 0 0 0 2.37 0 3.17 3.17 0 0 0 .85-1 3.29 3.29 0 0 0 .62-1.68 3.22 3.22 0 0 0-.45-1.36l-1.25-2.47a3.77 3.77 0 0 0-1.39-1.75c-1.89-1-4 1.19-4.19 3a5.87 5.87 0 0 0 3.44 5.26z" fill="#f9c18a"/><circle cx="49.29" cy="48.46" r="15.67" fill="#fdbb29"/><path d="M34.21 49.05a15.67 15.67 0 0 1 26.45-11.37 15.67 15.67 0 1 0-22.15 22.15 15.63 15.63 0 0 1-4.3-10.78z" fill="#ffde5d"/><circle cx="49.29" cy="48.46" r="11.16" fill="#f8a201"/><path d="m60.38 37.38-3.19 3.19A11.16 11.16 0 0 1 41.4 56.35l-3.19 3.19a15.67 15.67 0 0 0 22.17-22.16z" fill="#f7b600"/><path d="M60.45 48.46a11.12 11.12 0 0 0-3.33-8L41.34 56.28a11.15 11.15 0 0 0 19.11-7.82z" fill="#ed9406"/><path d="M49.29 38.48a11.16 11.16 0 0 1 11.15 10.57v-.59a11.16 11.16 0 1 0-22.32 0v.59a11.16 11.16 0 0 1 11.17-10.57z" fill="#f38d04"/><path fill="#ffde5d" d="m50.35 47.4 5.83 1.06-5.83 1.06-1.06 5.82-1.06-5.82-5.82-1.06 5.82-1.06 1.06-5.83 1.06 5.83z"/><path fill="#e8850f" d="m50.35 49.52-1.06 5.82-1.06-5.82-5.17-.94-.65.12 5.82 1.05 1.06 5.83 1.06-5.83 5.83-1.05-.66-.12-5.17.94z"/><path d="M52.45 63c.51-.64.36-1.59.74-2.32a.46.46 0 0 1 .16-.18c.24-.13.46.19.54.45a2.54 2.54 0 0 1 .16 1.6c-.07.22-.2.42-.28.63a5.06 5.06 0 0 0 0 2.26c0 .76-.19 1.68-.92 1.91-.91.29-2.38-1.26-2.41-2.16-.05-1.31 1.34-1.36 2.01-2.19z" fill="#f9c18a"/><path d="M89.76 50h-2.53s2.28 3.59 2 6.54l1.53-.11s.64-3.78-1-6.43z" fill="#ba8b45"/><path d="M73.6 53.12s2.38 2.06 9.19-2.93a7.46 7.46 0 0 0 7.29 2.3l-2.85-4.68-8.23.48-4.12.87-1 1z" fill="#ba8b45"/><path d="M66.78 50.58a6.09 6.09 0 0 1 3.36-5.8 13.76 13.76 0 0 1 6.66-1.14 21.56 21.56 0 0 0 6.76-.49c1.8-.55 3.43-1.63 5.2-2.28s3.89-.79 5.39.41c1.71 1.36 2 4.1 1.27 6.23s-2.81 4.2-4.5 5.6a4.61 4.61 0 0 0-3.56-3 15.75 15.75 0 0 0-12 3.25c-1.84 1.44-2.61 2.26-5 1.37a5.28 5.28 0 0 1-3.58-4.15z" fill="#78b1ef"/><path d="M94.15 41.28c-1.5-1.2-3.61-1.05-5.39-.41-.34.13-.67.28-1 .43 1.69 1.37 2 4.09 1.25 6.21a9.92 9.92 0 0 1-1.55 2.63 4.64 4.64 0 0 1 3.46 3c1.69-1.4 3.73-3.47 4.5-5.6s.44-4.9-1.27-6.26z" fill="#659cce"/><path d="M72.8 90.71c-.62-.4-1.37-.56-2-1a14.52 14.52 0 0 1-2.19-2.24c-.75-.73-2-1.23-2.82-.65-.52.35-.8 1-1.39 1.26a6.55 6.55 0 0 1-1.09.2 2 2 0 0 0-1.27 2.3 3.12 3.12 0 0 0 1.87 2.09 8.22 8.22 0 0 0 2.83.54q2.18.12 4.35 0c1.5 0 3.96-1.08 1.71-2.5z" fill="#f9c18a"/><path d="M71.1 93.28c-1.44.06-2.9 0-4.35 0h-.63a7.11 7.11 0 0 1-2.2-.49A3.14 3.14 0 0 1 62 90.63a2 2 0 0 1 1.28-2.3 9.54 9.54 0 0 0 1.09-.2c.59-.25.87-.92 1.39-1.27a2.28 2.28 0 0 1 2.66.52 1.07 1.07 0 0 1 .16.14 14.91 14.91 0 0 0 2.19 2.23c.62.39 1.37.56 2 1 2.28 1.38-.19 2.46-1.67 2.53z" fill="#f9c18a"/><path d="M71.1 93.28c-1.44.06-2.9 0-4.35 0h-.63a8 8 0 0 0 2.34-5.82 1.07 1.07 0 0 1 .16.14 14.91 14.91 0 0 0 2.19 2.23c.62.39 1.37.56 2 1 2.24 1.3-.23 2.38-1.71 2.45z" fill="#ea9f54"/><path d="M70.48 93.5a28 28 0 0 0 15.09-.09c2.14-.61 4.36-1.62 5.45-3.57A28.85 28.85 0 0 0 92.31 86a32 32 0 0 1 1.9-3.5 11 11 0 0 0 1.43-6.5c-.27-2.23-.93-4.2-3.09-4.81s-5.13-.34-6.42 1.64c-1.13 1.73-.64 4-.09 6s1.12 4.23.11 6a7.08 7.08 0 0 1-4 2.75 35.1 35.1 0 0 1-9.11 2 2.71 2.71 0 0 0-2.32.42 2.46 2.46 0 0 0-.93 2 .83.83 0 0 0 .18.53c.31.47.48.54.51.97z" fill="#3d3635"/><path d="M95.64 76c-.27-2.23-.93-4.2-3.09-4.81a7.61 7.61 0 0 0-3.79-.1l.46.1c2.16.61 2.83 2.58 3.1 4.81a11.11 11.11 0 0 1-1.43 6.48A29 29 0 0 0 89 86a28.89 28.89 0 0 1-1.3 3.84c-1.08 2-3.3 3-5.45 3.57a27.18 27.18 0 0 1-6.13 1 28 28 0 0 0 9.46-1c2.14-.61 4.36-1.62 5.45-3.57A28.85 28.85 0 0 0 92.31 86a32 32 0 0 1 1.9-3.5 11 11 0 0 0 1.43-6.5z" fill="#2d2827"/></svg>