<svg xmlns="http://www.w3.org/2000/svg" viewBox="0 0 138.83 215.65"><path fill="#fff" d="M0 0h138.82v215.65H0z"/><path fill="none" stroke="#7f664a" stroke-miterlimit="10" stroke-width=".5" d="M6.94 8.91h124.94v199.82H6.94z"/><circle cx="41.99" cy="63.1" r="26.85" fill="#fdbb29"/><path d="M16.16 64.11a26.84 26.84 0 0 1 45.31-19.48 26.84 26.84 0 1 0-37.95 37.95 26.76 26.76 0 0 1-7.36-18.47z" fill="#ffde5d"/><circle cx="41.99" cy="63.1" r="19.12" fill="#f8a201"/><path d="m61 44.11-5.47 5.47a19.12 19.12 0 0 1-27 27L23 82.08a26.85 26.85 0 0 0 38-38z" fill="#f7b600"/><path d="M61.11 63.1a19.08 19.08 0 0 0-5.71-13.63l-27 27A19.11 19.11 0 0 0 61.11 63.1z" fill="#ed9406"/><path d="M42 46a19.12 19.12 0 0 1 19.09 18.1v-1a19.12 19.12 0 1 0-38.24 0v1A19.12 19.12 0 0 1 42 46z" fill="#f38d04"/><path fill="#ffde5d" d="m43.8 61.28 9.99 1.82-9.99 1.81-1.81 9.98-1.81-9.98-9.99-1.81 9.99-1.82 1.81-9.98 1.81 9.98z"/><path fill="#e8850f" d="m43.8 64.91-1.81 9.98-1.81-9.98-8.87-1.61-1.12.2 9.99 1.81 1.81 9.99 1.81-9.99 9.99-1.81-1.12-.2-8.87 1.61z"/><circle cx="41.99" cy="152.55" r="26.85" fill="#fdbb29"/><path d="M16.16 153.57a26.84 26.84 0 0 1 45.31-19.48A26.84 26.84 0 1 0 23.52 172a26.77 26.77 0 0 1-7.36-18.43z" fill="#ffde5d"/><circle cx="41.99" cy="152.55" r="19.12" fill="#f8a201"/><path d="M61 133.57 55.51 139a19.12 19.12 0 0 1-27 27L23 171.54a26.85 26.85 0 0 0 38-38z" fill="#f7b600"/><path d="M61.11 152.55a19.05 19.05 0 0 0-5.71-13.62l-27 27a19.12 19.12 0 0 0 32.75-13.41z" fill="#ed9406"/><path d="M42 135.47a19.11 19.11 0 0 1 19.09 18.1v-1a19.12 19.12 0 0 0-38.24 0v1A19.11 19.11 0 0 1 42 135.47z" fill="#f38d04"/><path fill="#ffde5d" d="m43.8 150.74 9.99 1.81-9.99 1.82-1.81 9.98-1.81-9.98-9.99-1.82 9.99-1.81 1.81-9.98 1.81 9.98z"/><path fill="#e8850f" d="m43.8 154.37-1.81 9.98-1.81-9.98-8.87-1.61-1.12.2 9.99 1.81 1.81 9.99 1.81-9.99 9.99-1.81-1.12-.2-8.87 1.61z"/><circle cx="96.84" cy="107.83" r="26.85" fill="#fdbb29"/><path d="M71 108.84a26.84 26.84 0 0 1 45.32-19.48 26.84 26.84 0 1 0-37.95 38A26.78 26.78 0 0 1 71 108.84z" fill="#ffde5d"/><circle cx="96.84" cy="107.83" r="19.12" fill="#f8a201"/><path d="m115.82 88.84-5.46 5.47a19.12 19.12 0 0 1-27 27l-5.47 5.46a26.85 26.85 0 1 0 38-38z" fill="#f7b600"/><path d="M116 107.83a19 19 0 0 0-5.72-13.63l-27 27A19.11 19.11 0 0 0 116 107.83z" fill="#ed9406"/><path d="M96.84 90.74a19.12 19.12 0 0 1 19.09 18.1v-1a19.13 19.13 0 1 0-38.25 0v1a19.12 19.12 0 0 1 19.16-18.1z" fill="#f38d04"/><path fill="#ffde5d" d="m98.65 106.01 9.98 1.82-9.98 1.81-1.82 9.98-1.81-9.98-9.98-1.81 9.98-1.82 1.81-9.98 1.82 9.98z"/><path fill="#e8850f" d="m98.65 109.64-1.82 9.98-1.81-9.98-8.86-1.61-1.12.2 9.98 1.81 1.81 9.99 1.82-9.99 9.98-1.81-1.12-.2-8.86 1.61z"/><path d="M12.5 17.05v-.31a6.06 6.06 0 0 0 1.43-.56 2.07 2.07 0 0 0 .68-.79 2.1 2.1 0 0 0 .29-1.07 1.74 1.74 0 0 0-.54-1.32 1.87 1.87 0 0 0-1.36-.5 2.53 2.53 0 0 0-2.15 1.34l-.34-.12a5.47 5.47 0 0 1 1.67-2.27 3.73 3.73 0 0 1 2.26-.76 2.93 2.93 0 0 1 2.1.78 2.43 2.43 0 0 1 .83 1.82 2.51 2.51 0 0 1-.38 1.3 3.37 3.37 0 0 1-1.21 1.11 4.2 4.2 0 0 1 1.61 1.3 3.09 3.09 0 0 1 .61 1.86 4.36 4.36 0 0 1-1.39 3.26 5.13 5.13 0 0 1-3.72 1.34 3.85 3.85 0 0 1-2.26-.52 1.08 1.08 0 0 1-.52-.93 1 1 0 0 1 1-1 1.24 1.24 0 0 1 .56.13 11.33 11.33 0 0 1 1 .79 2.67 2.67 0 0 0 1.65.71 1.5 1.5 0 0 0 1.15-.52 1.94 1.94 0 0 0 .48-1.35 3.5 3.5 0 0 0-.95-2.28 4.63 4.63 0 0 0-2.5-1.44zm110.67 181v-.31a5.94 5.94 0 0 0 1.42-.56 2 2 0 0 0 .69-.79 2.21 2.21 0 0 0 .29-1.07A1.71 1.71 0 0 0 125 194a1.84 1.84 0 0 0-1.36-.54 2.54 2.54 0 0 0-2.15 1.34l-.33-.12a5.39 5.39 0 0 1 1.67-2.27 3.71 3.71 0 0 1 2.26-.76 2.93 2.93 0 0 1 2.1.78 2.39 2.39 0 0 1 .44 3.12 3.33 3.33 0 0 1-1.2 1.11 4.2 4.2 0 0 1 1.61 1.27 3.09 3.09 0 0 1 .55 1.89 4.38 4.38 0 0 1-1.38 3.26 5.16 5.16 0 0 1-3.72 1.34 3.88 3.88 0 0 1-2.27-.52 1.09 1.09 0 0 1-.51-.93 1 1 0 0 1 .3-.71.94.94 0 0 1 .68-.29 1.18 1.18 0 0 1 .56.13 9.46 9.46 0 0 1 1 .79 2.63 2.63 0 0 0 1.65.71 1.49 1.49 0 0 0 1.14-.52 1.94 1.94 0 0 0 .48-1.35 3.54 3.54 0 0 0-.86-2.28 4.63 4.63 0 0 0-2.49-1.4z" fill="#7f664a"/></svg>