<svg xmlns="http://www.w3.org/2000/svg" viewBox="0 0 138.83 215.65"><path fill="#fff" d="M0 2h138.82v213.65H0z"/><path d="M36.78 138.07c.7.81 1.43 1.58 2.18 2.34-.76-.75-1.49-1.53-2.18-2.34zm51.94-66.86a41.43 41.43 0 0 1 5.54 3.32 44.85 44.85 0 0 0-5.54-3.32zm7.34 4.67zm1.05.87.7.59zm.7.59c.36.31.72.64 1.07 1-.35-.34-.71-.69-1.07-1zm1.69 1.56-.62-.59zm-5.24-4.37q.92.66 1.8 1.35c-.59-.46-1.18-.88-1.8-1.35zm6.48 5.61-.09-.08a1.85 1.85 0 0 0-.14-.14zm-.23-.22z" fill="#fdbb29"/><path d="M42.75 143.77zm-1.64-1.36c-.39-.34-.77-.7-1.15-1 .38.31.76.66 1.15 1zm-1.44-1.32.29.27-.23-.21zm-.73-.79c.24.27.49.53.73.79-.26-.25-.53-.48-.78-.73zm4.6 4.08c.81.6 1.63 1.17 2.47 1.72-.84-.54-1.66-1.1-2.47-1.72z" fill="#f7b600"/><path d="M43.72 163.27a29 29 0 0 0-23.9 0 30.88 30.88 0 0 1 6.18-9.09 35.3 35.3 0 0 0-11.73-3.31 42.63 42.63 0 0 1 35.1 0q-2.85 6.2-5.65 12.4z" fill="#af1722"/><path d="m42.43 151.14 6.89-.27-4.77 10.65-3.5-1.28s-.27-2.39-.27-2.76 1.65-6.34 1.65-6.34z" fill="#96151f"/><path d="M95.11 163.27a29 29 0 0 1 23.9 0 30.73 30.73 0 0 0-6.14-9.09 35.36 35.36 0 0 1 11.74-3.31 42.63 42.63 0 0 0-35.1 0q2.79 6.2 5.6 12.4z" fill="#af1722"/><path d="m96.39 151.14-6.88-.27 4.77 10.65 3.49-1.28s.28-2.39.28-2.76-1.66-6.34-1.66-6.34z" fill="#96151f"/><path d="M104.36 163.12a63.55 63.55 0 0 1-69.8 0l7.87-12a49.26 49.26 0 0 0 54.06 0q3.93 6.01 7.87 12z" fill="#c62034"/><path d="M95.11 57.38a29 29 0 0 0 23.9 0 30.73 30.73 0 0 1-6.14 9.09 35.36 35.36 0 0 0 11.74 3.31 42.63 42.63 0 0 1-35.1 0q2.79-6.19 5.6-12.4z" fill="#af1722"/><path d="m96.39 69.51-6.88.27 4.77-10.65 3.49 1.28s.28 2.39.28 2.76-1.66 6.34-1.66 6.34z" fill="#96151f"/><path d="M43.72 57.38a29 29 0 0 1-23.9 0A30.88 30.88 0 0 0 26 66.47a35.3 35.3 0 0 1-11.73 3.31 42.63 42.63 0 0 0 35.1 0q-2.85-6.19-5.65-12.4z" fill="#af1722"/><path d="m42.43 69.51 6.89.27-4.77-10.65-3.5 1.28s-.27 2.39-.27 2.76 1.65 6.34 1.65 6.34z" fill="#96151f"/><path d="M34.51 58.53a63.55 63.55 0 0 1 69.8 0l-7.87 12a49.25 49.25 0 0 0-54 0z" fill="#c62034"/><path fill="none" stroke="#7f664a" stroke-miterlimit="10" stroke-width=".5" d="M6.94 10.91h124.94v199.82H6.94z"/><path d="M14.94 12.69v10a6.61 6.61 0 0 0 .1 1.44.94.94 0 0 0 .42.51 1.89 1.89 0 0 0 1 .2h.28v.34H10.3v-.34h.33a2.56 2.56 0 0 0 1.12-.18.91.91 0 0 0 .45-.5 5.36 5.36 0 0 0 .12-1.47v-6.33a3.59 3.59 0 0 0-.09-1.06.73.73 0 0 0-.3-.36.9.9 0 0 0-.51-.15 2.77 2.77 0 0 0-1.12.29l-.16-.33 4.51-2.06zm110.5 181v10a6.61 6.61 0 0 0 .1 1.44.94.94 0 0 0 .42.51 1.89 1.89 0 0 0 1 .2h.28v.34h-6.44v-.34h.33a2.56 2.56 0 0 0 1.12-.18.91.91 0 0 0 .45-.5 5.36 5.36 0 0 0 .12-1.47v-6.35a3.59 3.59 0 0 0-.09-1.06.73.73 0 0 0-.3-.36.9.9 0 0 0-.51-.15 2.77 2.77 0 0 0-1.12.29l-.16-.33 4.51-2.06z" fill="#7f664a"/><path d="M75.07 180.82s21.74-5.14 24.78-19.21" fill="none" stroke="#7c7c21" stroke-miterlimit="10" stroke-width="2"/><path d="M81.08 173.22c1.31 2.16.49 3.94-1 4.8s-3.43.7-4.66-1.51c-1.62-2.9-1-7.59-.83-7.92.41.02 4.76 1.8 6.49 4.63zm-.36 11.52c-1.65-1.91-1.13-3.8.19-4.9s3.27-1.24 4.85.73c2.06 2.6 2.22 7.32 2.11 7.68-.37.04-4.98-.99-7.15-3.51zm8.37-4.6c-1.65-1.91-1.13-3.8.19-4.9s3.27-1.24 4.85.73c2.06 2.6 2.22 7.32 2.11 7.68-.37.04-4.98-.99-7.15-3.51zm9.73-8.36c-2.15-1.33-2.22-3.29-1.29-4.73s2.75-2.17 4.85-.75c2.74 1.86 4.31 6.32 4.31 6.69-.34.15-5.05.54-7.87-1.21zm-9.29-2.25c1.31 2.16.49 3.94-1 4.8s-3.43.69-4.66-1.51c-1.62-2.9-1-7.59-.83-7.92.38.02 4.76 1.79 6.49 4.63zm6.53-6.8c1.63 1.92 1.1 3.81-.23 4.89s-3.28 1.22-4.84-.77c-2-2.61-2.17-7.33-2-7.69.32-.04 4.92 1.03 7.07 3.57zm7.01-3.16c-.41 2.5-2.19 3.32-3.88 3s-3-1.71-2.55-4.18c.67-3.25 4.19-6.4 4.54-6.55.26.26 2.43 4.46 1.89 7.73z" fill="#a5a121"/><path d="M64 180.82s-21.74-5.14-24.78-19.21" fill="none" stroke="#7c7c21" stroke-miterlimit="10" stroke-width="2"/><path d="M58 173.22c-1.32 2.16-.5 3.94 1 4.8s3.44.7 4.67-1.51c1.61-2.9 1-7.59.82-7.92-.43.02-4.81 1.8-6.49 4.63zm.31 11.52c1.65-1.91 1.14-3.8-.18-4.9s-3.28-1.24-4.85.73c-2.07 2.6-2.23 7.32-2.12 7.68.37.04 4.99-.99 7.15-3.51zm-8.37-4.6c1.65-1.91 1.14-3.8-.18-4.9s-3.28-1.24-4.85.73c-2.07 2.6-2.23 7.32-2.12 7.68.37.04 4.99-.99 7.15-3.51zm-9.73-8.36c2.15-1.33 2.23-3.29 1.29-4.73s-2.75-2.17-4.84-.75c-2.75 1.86-4.31 6.32-4.31 6.69.34.15 5.05.54 7.86-1.21zm9.3-2.25c-1.32 2.16-.5 3.94 1 4.8s3.44.69 4.67-1.51c1.61-2.9 1-7.59.82-7.92-.39.02-4.77 1.79-6.49 4.63zm-6.51-6.8c-1.64 1.92-1.11 3.81.22 4.89s3.29 1.22 4.85-.77c2-2.61 2.16-7.33 2-7.69-.34-.04-4.95 1.03-7.07 3.57zm-7-3.16c.41 2.5 2.19 3.32 3.88 3s3.06-1.71 2.55-4.18c-.66-3.25-4.19-6.4-4.53-6.55-.31.26-2.48 4.46-1.9 7.73z" fill="#a5a121"/><path d="M85.61 165.32a.09.09 0 0 1 0 .05L67 183.92l-4.64-4.64 18.54-18.55 6.86-2.21-1.19 3.66-.46 1.43-.38 1.39-.11.32z" fill="#c9c2c9"/><path d="M85.61 165.32a.09.09 0 0 1 0 .05L67 183.92l-2.32-2.32 23.12-23.12-1.19 3.66-.46 1.43-.42 1.43-.11.32z" fill="#b2afb2"/><path fill="#d8d6d8" d="M86.19 163.57H78.1l1.43-1.43h7.12l-.46 1.43zm-.58 1.75a.09.09 0 0 1 0 .05l-.06.06h-9.31l.42-.42h9.07l-.11.32zm-9.03 9.05H67.3l-.43.43h9.28l.43-.43zm3.47-3.47-1.43 1.43h-9.28l1.43-1.43h9.28zm-9.06 9.07-1.43 1.42h-5.05l-1.42-1.42h7.9z"/><path fill="#c9c2c9" d="M82.74 163.57h3.45l.46-1.43h-2.48l-1.43 1.43zm2.88 1.76.11-.32H81.3l-.42.42h4.64l.06-.06a.09.09 0 0 0 0-.05zm-14.11 9.47h4.64l.43-.43h-4.64l-.43.43zm2.47-2.47h4.64l1.43-1.43h-4.64l-1.43 1.43zm-9.06 9.06h4.64l1.43-1.42h-4.64l-1.43 1.42z"/><path d="M76.35 188.32a14.77 14.77 0 0 1-14.45-3.91A14.94 14.94 0 0 1 58 170a27 27 0 0 0 18.36 18.36z" fill="#ffb21a"/><path d="M62.81 183.5a15.1 15.1 0 0 1-4.38-12.12c-.18-.51-.32-1-.44-1.42a14.94 14.94 0 0 0 3.91 14.45 14.77 14.77 0 0 0 14.45 3.91c-.48-.14-.93-.28-1.37-.44a15 15 0 0 1-12.17-4.38z" fill="#ff990b"/><path fill="#68442e" d="m51.703 191.733 10.274-10.274 2.97 2.97-10.275 10.274z"/><path fill="#583e31" d="m53.263 193.29 10.275-10.274 1.407 1.408-10.274 10.274z"/><path fill="#3f2c24" d="m57.8 191.57-.57.57h-5.11l-.42-.41.16-.16h5.94zm2.22-2.22-.57.58h-5.94l.57-.58h5.94zm2.21-2.21-.57.57h-5.94l.57-.57h5.94zm2.22-2.21-.57.57h-5.94l.57-.57h5.94z"/><circle cx="52.59" cy="193.72" r="3.13" fill="#ffb21a"/><path d="m54.8 191.5-.26-.23a3.13 3.13 0 0 1-4.4 4.4 2.85 2.85 0 0 0 .23.26 3.13 3.13 0 0 0 4.43-4.43z" fill="#ff990b"/><path d="M50.78 191.91a3.14 3.14 0 0 1 4.22-.2l-.2-.21a3.13 3.13 0 1 0-4.43 4.43l.21.2a3.14 3.14 0 0 1 .2-4.22z" fill="#fdd224"/><circle cx="63.47" cy="182.85" r="3.13" fill="#ffb21a"/><path d="M61.55 180.93a3.14 3.14 0 0 1 4.28-.14l-.15-.16a3.13 3.13 0 0 0-4.43 4.43 1.07 1.07 0 0 0 .16.14 3.13 3.13 0 0 1 .14-4.27z" fill="#fdd224"/><path d="m65.68 180.63-.16-.15a3.13 3.13 0 0 1-4.42 4.42l.15.16a3.13 3.13 0 0 0 4.43-4.43z" fill="#ff990b"/><circle cx="63.47" cy="182.85" r="1.99" fill="#bc1b21"/><circle cx="62.76" cy="181.94" r=".57" fill="#fff"/><circle cx="64.37" cy="181.94" r=".22" fill="#fff"/><circle cx="63.46" cy="184.35" r=".28" fill="#96151f"/><path d="M53.21 166.22v.06l18.54 18.54 4.64-4.64-18.5-18.54h-.06L51 159.38l1.18 3.67.46 1.42.47 1.44.1.32z" fill="#c9c2c9"/><path d="M53.21 166.22v.06l18.54 18.54 2.32-2.32L51 159.38l1.18 3.67.46 1.42.47 1.44.1.32z" fill="#b2afb2"/><path fill="#d8d6d8" d="M52.63 164.47h8.09l-1.42-1.42h-7.13l.46 1.42zm.58 1.75v.06l.06.06h9.28l-.43-.43H53.1l.1.32zm9.04 9.06h9.28l.42.43h-9.28l-.42-.43zm-3.47-3.47 1.42 1.43h9.28l-1.42-1.43h-9.28zm9.06 9.06 1.43 1.43h5.04l1.43-1.43h-7.9z"/><path fill="#c9c2c9" d="M56.08 164.47h-3.45l-.46-1.42h2.49l1.42 1.42zm-2.88 1.76-.1-.32h4.42l.43.43h-4.64l-.06-.06v-.06zm14.11 9.48h-4.64l-.42-.43h4.64l.42.43zm-2.47-2.47H60.2l-1.42-1.43h4.64l1.42 1.43zm9.07 9.06h-4.64l-1.43-1.43h4.64l1.43 1.43z"/><path d="M62.48 189.23a15 15 0 0 0 18.36-18.36 27.12 27.12 0 0 1-18.36 18.36z" fill="#ffb21a"/><path d="M76 184.41a15.14 15.14 0 0 0 4.37-12.12c.18-.51.33-1 .45-1.42a15 15 0 0 1-18.36 18.36c.47-.14.93-.29 1.37-.44A15 15 0 0 0 76 184.41z" fill="#ff990b"/><path fill="#68442e" d="m73.883 185.328 2.97-2.97 10.274 10.275-2.97 2.97z"/><path fill="#583e31" d="m73.88 185.334 1.408-1.408 10.274 10.275-1.407 1.407z"/><path fill="#3f2c24" d="m81.02 192.48.57.57h5.12l.41-.42-.16-.15h-5.94zm-2.21-2.22.57.57h5.94l-.57-.57h-5.94zm-2.22-2.21.57.57h5.94l-.57-.57h-5.94zm-2.21-2.22.57.57h5.94l-.57-.57h-5.94z"/><circle cx="86.24" cy="194.63" r="3.13" fill="#ffb21a"/><path d="m84 192.41.27-.24a3.13 3.13 0 0 0 4.4 4.4 1.55 1.55 0 0 1-.24.27 3.13 3.13 0 0 1-4.43-4.43z" fill="#ff990b"/><path d="M88.05 192.81a3.14 3.14 0 0 0-4.22-.19l.19-.21a3.13 3.13 0 0 1 4.43 4.43l-.21.19a3.13 3.13 0 0 0-.19-4.22z" fill="#fdd224"/><circle cx="75.36" cy="183.75" r="3.13" fill="#ffb21a"/><path d="M77.27 181.84a3.13 3.13 0 0 0-4.27-.15l.14-.15a3.13 3.13 0 0 1 4.43 4.46l-.15.14a3.12 3.12 0 0 0-.15-4.3z" fill="#fdd224"/><path d="m73.14 181.54.16-.15a3.13 3.13 0 0 0 4.42 4.42c0 .05-.09.11-.15.16a3.13 3.13 0 1 1-4.43-4.43z" fill="#ff990b"/><circle cx="75.36" cy="183.75" r="1.99" fill="#bc1b21"/><circle cx="76.07" cy="182.84" r=".57" fill="#fff"/><circle cx="74.46" cy="182.84" r=".22" fill="#fff"/><circle cx="75.36" cy="185.26" r=".28" fill="#96151f"/><circle cx="63.75" cy="44.62" r="10" fill="#af1722"/><path d="M65.08 52.06a10 10 0 0 1-9.44-13.29 10 10 0 1 0 17.54 9.14 10 10 0 0 1-8.1 4.15z" fill="#96151f"/><circle cx="75.08" cy="44.62" r="10" fill="#af1722"/><path d="M82.78 38.24a10 10 0 0 1-16.73 10.65 10 10 0 1 0 16.73-10.65z" fill="#96151f"/><path fill="#f8a201" d="M56.83 51.95H82v8H56.83z"/><path fill="#e58005" d="M56.83 57.83H82v2.13H56.83z"/><ellipse cx="69.41" cy="44.95" rx="3.42" ry="11.5" fill="#f8a201"/><circle cx="69.41" cy="55.95" r="1.53" fill="#fff"/><circle cx="69.41" cy="48.7" r=".69" fill="#fff"/><circle cx="69.41" cy="43.2" r=".69" fill="#fff"/><circle cx="69.41" cy="38.48" r=".69" fill="#fff"/><circle cx="61" cy="55.95" r="1.53" fill="#fff"/><circle cx="77.83" cy="55.95" r="1.53" fill="#fff"/><path d="M72.7 33.94c-.42 0-.63.42-.73 1a2.79 2.79 0 0 1-.71-1.94 2.17 2.17 0 0 1 1.13.39 1 1 0 0 0-1.13-1 2 2 0 0 1 2.07-1.76c1.92 0 2.63 1.08 2.63 2.81a4.63 4.63 0 0 0 2-3.65 2.79 2.79 0 0 0-2.63-2.84 4.35 4.35 0 0 0-4 2.13 6.42 6.42 0 0 0-1 3.31h-.43a9.58 9.58 0 0 1 1.36-4.28 4.82 4.82 0 0 0 .68-2 5.72 5.72 0 0 0-.89-2.6 38.17 38.17 0 0 1-1.68-3.44 38.17 38.17 0 0 1-1.68 3.44 5.72 5.72 0 0 0-.89 2.6 4.82 4.82 0 0 0 .68 2 9.58 9.58 0 0 1 1.36 4.28h-.41a6.35 6.35 0 0 0-1-3.31 4.32 4.32 0 0 0-4-2.13 2.79 2.79 0 0 0-2.63 2.84 4.63 4.63 0 0 0 2 3.65c0-1.73.71-2.81 2.63-2.81a2 2 0 0 1 2.07 1.76 1 1 0 0 0-1.13 1 2.11 2.11 0 0 1 1.11-.39 2.79 2.79 0 0 1-.71 1.89c-.1-.53-.31-1-.73-1a1.13 1.13 0 0 0-1 1.15 1 1 0 0 0 1 1.13c1 0 2.16-1.33 2.26-3.22h.52a4.31 4.31 0 0 1-.21 1.57 2.59 2.59 0 0 0-.2.81 12.58 12.58 0 0 0 .96 2.67 12.58 12.58 0 0 0 .94-2.63 2.37 2.37 0 0 0-.21-.81 4.57 4.57 0 0 1-.2-1.56h.52c.1 1.89 1.21 3.22 2.26 3.22a1 1 0 0 0 1-1.13 1.12 1.12 0 0 0-.98-1.15z" fill="#f8a201" fill-rule="evenodd"/><path d="M100.15 109.83a30.75 30.75 0 0 1-52.47 21.74l-8.74 8.73a43.15 43.15 0 0 1 60.94-60.93l-8.73 8.72a30.65 30.65 0 0 1 9 21.74z" fill="#fdbb29"/><path d="M27.88 111.46a43.15 43.15 0 0 1 72.85-31.32 43.15 43.15 0 1 0-61 61 43 43 0 0 1-11.85-29.68z" fill="#ffde5d"/><circle cx="69.41" cy="109.83" r="30.74" fill="#f8a201"/><path d="m99.94 79.31-8.79 8.78a30.74 30.74 0 0 1-43.47 43.47l-8.79 8.79a43.17 43.17 0 0 0 61.05-61z" fill="#f7b600"/><path d="M100.15 109.83A30.66 30.66 0 0 0 91 87.92l-43.5 43.46a30.74 30.74 0 0 0 52.65-21.55z" fill="#f29816"/><path d="M69.41 82.36a30.74 30.74 0 0 1 30.7 29.1v-1.63a30.74 30.74 0 0 0-61.48 0v1.63a30.73 30.73 0 0 1 30.78-29.1z" fill="#f38d04"/><path d="M94.8 113.29a2.82 2.82 0 0 0-.71.09 1.7 1.7 0 0 0 0-.22l.09-.06a.6.6 0 0 0 .08-.08.39.39 0 0 0 .08-.1l1-1.41v-.06a.25.25 0 0 1 0-.07.13.13 0 0 1 0-.06.13.13 0 0 0 0-.06v-3.81a1.14 1.14 0 0 0-.77-1.07h-.12l.4-.55a.61.61 0 0 0 .07-.1l.05-.09v-.24a.49.49 0 0 0 0-.12.28.28 0 0 1 0-.09v-.24l-.06-.11a.56.56 0 0 1 0-.08 7.65 7.65 0 0 0-3.84-2.61 4.62 4.62 0 0 0-4.19.58l-.12.1v-.74a1.13 1.13 0 0 0-.89-1.1c-.89-.2-1.8-.38-2.7-.55h-.73l-.1.08-.07.06v.06l-.37.49-.69-1a1.14 1.14 0 0 0-.75-.45c-.85-.13-2.7-.34-2.71-.34l-3.75-.8s-2.21-.13-3.23-.16h-.43l-.11.05-.1.06-.1.08-.09.1-.57.77L69 99a1.11 1.11 0 0 0-1-.6c-1 0-6.05.28-7 .37h-.19l-.12.06a.24.24 0 0 0-.09.06l-.08.07-.07.08-1.05 1.41-.07.1a.84.84 0 0 0-.06.14L57.34 105l-2.31.38V101a1.13 1.13 0 0 0-1.35-1.1c-.91.18-1.82.37-2.72.58h-.36l-.09.07-.07.06-.57.66a4.93 4.93 0 0 0-3 .07c-1.2.35-2.41.73-3.59 1.14h-.06l-.1.05-.1.06-.08.06a.6.6 0 0 0-.08.08l-.06.07-1 1.41-.07.09v.21a.3.3 0 0 0 0 .1v8.24a1.12 1.12 0 0 0 1.12 1.12 1.15 1.15 0 0 0 .37-.06c.85-.29 1.72-.57 2.59-.83h.11l.1-.06.08-.06.09-.08.07-.08 1.06-1.4.05-.07v-.67a7.47 7.47 0 0 0 1.28-.72c.16-.1.31-.21.46-.32v1.26a9.48 9.48 0 0 0-2.76 4.12 6.52 6.52 0 0 0-.22.87 4.85 4.85 0 0 0-.09.55.94.94 0 0 0 0 .29v.21a4.13 4.13 0 0 0 4.3 4.39 5.6 5.6 0 0 0 1.21-.13 7.07 7.07 0 0 0 1.78-.63 5.39 5.39 0 0 0 .85-.49 1.1 1.1 0 0 0 .73.27h.19c.94-.17 1.9-.31 2.85-.44h.27l.09-.06.11-.1.08-.1.61-.81 1-.11.11.27a1.14 1.14 0 0 0 1.14.69c1-.08 2-.15 2.92-.19h.33c.89 0 1.8-.07 2.69-.08h.25a.45.45 0 0 0 .11 0 1 1 0 0 0 .21-.1l.09-.07.07-.07.07-.09.17-.22.11.18a1.14 1.14 0 0 0 .92.5c1 0 5.43.27 6.42.36a9.83 9.83 0 0 0 1.06.06h.18a6 6 0 0 0 1.63-.22 4.7 4.7 0 0 0 1.44-.63 9.17 9.17 0 0 0 4.58 2.33 6.93 6.93 0 0 0 1.48.17 4 4 0 0 0 1.85-.4 4.5 4.5 0 0 0 2.31-2.61 1.5 1.5 0 0 0 .37 0 2.12 2.12 0 0 0 .44 0 1.14 1.14 0 0 0 .49.11H93a1.11 1.11 0 0 0 .62-.19 2.68 2.68 0 0 0 1.17.26 2.59 2.59 0 0 0 2.67-2.56 2.58 2.58 0 0 0-2.66-2.92z" fill="#f38d04"/><path d="M73.49 111.74s.18 1.19-1.61 2.84l-.74-1z" fill="#f38d04"/><path d="M42.49 105.19c1.18-.4 2.36-.77 3.55-1.12 2.1-.61 3.55 0 3.55 1.92 0 1.95-1.47 3.32-3.61 3.95l-.86.25v2.19c-.88.26-1.75.55-2.63.85zm3.34 2.89c.68-.2 1.14-.64 1.14-1.21 0-.58-.42-.77-1.13-.56l-.72.21v1.8z" fill="#f9a216"/><path d="M50.58 105.09s-.33 3.49-4.6 4.87c0 0-.22-2.44-.15-2.41s4.75-2.46 4.75-2.46zm-5.03 5.22.62.68-1.05 1.41-.96-.47.49-1.44.9-.18zm-3.06-5.12 1.05-1.4.9 1.02-.23 1.76-1.23.21-.49-1.59z" fill="#f9a216"/><path d="M50.17 102.8c.9-.21 1.77-.4 2.68-.58v5.94c1.26-.25 2.52-.47 3.79-.66v2.31q-3.26.48-6.47 1.23z" fill="#f9a216"/><path d="M60.06 101.26c.9-.09 1.8-.17 2.7-.23 1.15 2.62 2.29 5.27 3.44 7.94-1 0-2 .07-3 .14-.14-.36-.29-.71-.43-1.06-1 .07-1.9.15-2.85.25l-.42 1.13c-1 .11-1.93.23-2.9.38q1.75-4.32 3.46-8.55zm2.07 4.93c-.24-.63-.49-1.26-.74-1.89l-.75 2z" fill="#f9a216"/><path fill="#f9a216" d="m60.74 102.03-.68-.77 1.06-1.4.64.64-1.02 1.53zm6.51 5.53-1.05 1.41-1.41-.73.19-1.3 2.27.62zm-6.66.46-1.05 1.41-.91-.7.25-1.32 1.35-.05.36.66z"/><path d="M66.93 106.09c-1-1.72-2.05-3.43-3.08-5.11q1.53-.08 3.06-.09l1.4 2.65 1.41-2.62c1 0 2 .07 3 .13-1 1.66-2 3.33-3.08 5V109h-2.73z" fill="#f9a216"/><path fill="#f9a216" d="m65.58 99.9-.77-.33-1.05 1.41 1.64 1.33 1.16-1.44-.98-.97zm4.46 2.04-.32-1.02 1.05-1.41.64 1.25-1.37 1.18zm0 4.91.67.71-1.05 1.41-.87-.91.41-1.18.84-.03zm2.96-5.78c.9.06 1.81.14 2.72.23v8.06c-.91-.09-1.82-.17-2.72-.23z"/><path fill="#f9a216" d="m73.49 101.85-.49-.78 1.06-1.4 1.16 1.43-1.73.75zm2.89 5.47.4.63-1.05 1.41-.9-1.16.53-1.18 1.02.3z"/><path d="M76.68 101.41c.85.1 1.69.21 2.54.33q1.44 2 2.87 4v-3.55q1.34.24 2.67.54v8c-.8-.17-1.59-.34-2.39-.49q-1.5-2.13-3-4.22v3.72c-.9-.14-1.79-.25-2.69-.36z" fill="#f9a216"/><path fill="#f9a216" d="m78.56 100.94-.83-.94-2 1.31 1.51 2.18 1.79-1.41-.47-1.14zm4.08 1.9-.55-.62 1.05-1.41 1.29 1.69-1.79.34zm-2.76 4.38c.05.1.54 1.19.54 1.19l-1 1.41-1-1.14.51-1.62zm5.24 1.05.69 1.14-1.05 1.4-1.24-1.04.7-1.57.9.07zm.37-1.27c0-2.4 1.89-3.78 4.39-3.06a6.62 6.62 0 0 1 3.3 2.26l-1.47 1.34a3.76 3.76 0 0 0-1.71-1.29 1.31 1.31 0 0 0-1.78 1.4 2.59 2.59 0 0 0 1.89 2.45 1.75 1.75 0 0 0 .91.09v-.81l-1.36-.4v-1.73c1.28.37 2.55.77 3.82 1.2v3.73a4.8 4.8 0 0 1-3.48.11 5.92 5.92 0 0 1-4.51-5.29z"/><path d="M88.37 102.54a5 5 0 0 0-2.76 3.73l1 .28 1.79-2.15zM90.2 108c-.07-.07-.58-.71-.58-.71l1-1.4 1.06 1.39a5.82 5.82 0 0 1-.35 1.07zm3.61 1.91.68.9-1.05 1.4-1.09-.58.44-1.35 1.02-.37zm-.3-5.49.72.33-1.05 1.4-1.01-.04.11-1.32 1.23-.37zM47.16 116.9a5.55 5.55 0 0 1 4.24-5.24 3.16 3.16 0 0 1 3.65 1.34q-1.11.84-2.22 1.71a1.23 1.23 0 0 0-1.46-.68 2.1 2.1 0 0 0-1.5 2.1c0 1 .62 1.63 1.5 1.44a2.17 2.17 0 0 0 1.51-1.33c.74.27 1.48.56 2.23.85A5.38 5.38 0 0 1 51.3 120c-2.22.54-4.14-.6-4.14-3.1z" fill="#f9a216"/><path d="M51.2 110.68a8.59 8.59 0 0 0-4.05 5.84l1.06.25 2.5-3.52zm4.14.62.76.32-1.05 1.41-1.28-.55 1.57-1.18zm-.34 4.92 1.16-.48s-1.25 3.23-3.94 4l.37-1.89zm3.31-5.65q1.35-.18 2.7-.3c1.14 2.6 2.29 5.22 3.43 7.87-1 0-2 .11-3 .2-.14-.35-.28-.7-.43-1-.95.08-1.89.19-2.84.31l-.42 1.14c-1 .12-1.93.27-2.89.44q1.74-4.39 3.45-8.66zm2.07 4.88c-.25-.63-.5-1.25-.74-1.88l-.75 2zm4.4-5.38c1.33-.06 2.66-.09 4-.08a4 4 0 0 1 2.94 1 2.62 2.62 0 0 1 .74 1.94 2.47 2.47 0 0 1-1.61 2.39l1.9 2.82c-1 0-2.07-.09-3.11-.11l-1.54-2.31h-.58v2.3c-.91 0-1.82 0-2.73.07zm3.91 3.75c.65 0 1-.27 1-.77 0-.52-.41-.78-1-.78H67.5v1.58zm4.43-3.69c1 .06 2.08.15 3.12.25 3.23.33 4.83 2.21 4.83 4.59 0 2.39-1.64 3.77-4.93 3.43-1-.09-2-.17-3-.23zm3.17 6c1.25.13 2-.27 2-1.44 0-1.16-.8-1.77-2-1.9h-.45v3.36z" fill="#f9a216"/><path d="M81.89 115a4.91 4.91 0 0 1-4.89 3.47l.31-2.29zm-6.64-5.27-1.08-1.01-1.05 1.41.67 1.67 1.46-2.07z" fill="#f9a216"/><path d="m81 117.85 1.44-1.47a6.09 6.09 0 0 0 2.82 1.5c.48.1.69 0 .69-.19 0-.23-.25-.41-1.11-.77-1.8-.75-3.4-1.53-3.4-3.23 0-1.53 1.2-2.54 3.42-2.07a6.65 6.65 0 0 1 3.61 2l-1.3 1.5a5 5 0 0 0-2.4-1.34c-.4-.09-.59 0-.59.21 0 .22.22.4 1.07.74 2 .83 3.41 1.8 3.41 3.42 0 1.69-1.37 2.35-3.52 1.88a8.14 8.14 0 0 1-4.14-2.18z" fill="#f9a216"/><path d="M89.71 117a3.47 3.47 0 0 1-3.12 3.09l.18-1.67zm-1.08-5.08.91.2-1.05 1.4-1.41.59 1.55-2.19zm-6.86 6.15-.75-.22 1.05-1.41 1.33-.04-.52 1.49-1.11.18zm-.31-4.43a3.64 3.64 0 0 1 2.72-3.51l-.5 2.07-1.79 2.19zm-22.47-1.94-.68-1.13 1.05-1.41.74.97-1.11 1.57zm5.29 4.39 1.21.64-1.05 1.41-1.43-.47.25-1.76 1.02.18zm-5.72.37.28.88-1.05 1.41-1.02-.59.74-1.7h1.05zm6.73-5.59-.51-.8 1.05-1.41.92.66-.71 2.11-.75-.56zm7.02 5.16 1.49.73-1.06 1.4-2.1-.77.31-1.64 1.36.28zm-4.24-.29.49.9-1 1.41a4.65 4.65 0 0 1-1-.47c0-.1.5-2 .5-2zm-16.23-13.43a7.56 7.56 0 0 1-.62-.73l-1 1.22 1.32 1.29zm5.35 5.38.5.71-1.05 1.41-1.12-.76.14-.99 1.53-.37z" fill="#f9a216"/><path fill="#f38d04" d="m45.37 105.95 2.69-.51-.4 1.55-2.75.9.46-1.94z"/><path d="M43.54 103.79c1.18-.41 2.36-.78 3.55-1.13 2.1-.61 3.56 0 3.56 1.92 0 2-1.48 3.33-3.62 4l-.86.25V111c-.88.27-1.75.55-2.63.85zm3.34 2.88c.68-.2 1.14-.63 1.14-1.21 0-.59-.42-.77-1.12-.57l-.73.22v1.79z" fill="#ffc043"/><path d="M43.45 112v-8.25h.06c1.17-.4 2.37-.78 3.55-1.12a3.27 3.27 0 0 1 2.91.19 2.12 2.12 0 0 1 .77 1.81c0 1.89-1.34 3.36-3.68 4l-.79.23v2.19h-.07c-.88.27-1.76.55-2.63.85zm.19-8.12v7.86c.8-.27 1.62-.54 2.44-.79v-2.18h.07l.85-.26c2.26-.66 3.55-2.06 3.55-3.86a2 2 0 0 0-.69-1.67 3.16 3.16 0 0 0-2.75-.16c-1.11.27-2.33.64-3.47 1.03zm2.44 3.12v-2h.07l.72-.22a1.12 1.12 0 0 1 1 0 .74.74 0 0 1 .25.61 1.44 1.44 0 0 1-1.2 1.3l-.71.21zm.19-1.85v1.6l.59-.18c.67-.19 1.06-.61 1.06-1.12a.56.56 0 0 0-.17-.46 1 1 0 0 0-.83 0zm4.95-3.57c.89-.21 1.78-.4 2.68-.58v5.75c1.26-.24 2.53-.46 3.79-.65v2.3q-3.25.48-6.47 1.24z" fill="#ffc043"/><path d="M51.12 109.75v-8.24h.08c.88-.21 1.79-.4 2.68-.58h.11v5.75c1.22-.24 2.46-.45 3.69-.63h.11v2.49h-.08c-2.17.32-4.34.74-6.47 1.24zm.19-8.1v7.87c2.07-.48 4.19-.89 6.29-1.2v-2.11c-1.23.18-2.47.39-3.68.64h-.11v-5.76c-.81.19-1.68.37-2.5.56z" fill="#ffc043"/><path d="M61.11 99.86q1.35-.15 2.7-.24c1.15 2.62 2.29 5.27 3.44 7.94-1 0-2 .08-3 .14l-.43-1c-1 .06-1.9.15-2.85.25l-.38 1.05c-1 .11-1.93.24-2.9.38q1.71-4.28 3.42-8.52zm2.07 4.93c-.24-.64-.49-1.27-.74-1.9-.25.68-.5 1.35-.74 2z" fill="#ffc043"/><path d="m57.55 108.51.06-.15c1.12-2.82 2.27-5.69 3.42-8.54h.05c.9-.09 1.81-.17 2.71-.23h.06v.06c1.15 2.65 2.31 5.32 3.44 8v.12h-.14c-1 0-2 .07-3 .13h-.07l-.43-1.06c-.91.07-1.82.15-2.72.24l-.42 1.13h.09c-1 .1-1.93.23-2.89.37zm3.63-8.57c-1.12 2.78-2.25 5.59-3.34 8.34.89-.13 1.79-.24 2.68-.34l.42-1.13H61c.94-.1 1.9-.18 2.85-.25h.07l.43 1q1.38-.09 2.76-.12c-1.1-2.57-2.23-5.18-3.36-7.76-.85.1-1.75.17-2.57.26zm.38 5.08v-.13c.25-.68.49-1.36.74-2l.09-.23.09.23c.24.63.49 1.26.74 1.89v.12h-.13l-1.39.1zm.88-1.87c-.2.55-.4 1.11-.61 1.66l1.22-.11c-.2-.51-.4-1.03-.61-1.55zm5.56 1.53c-1-1.72-2-3.43-3.08-5.11q1.53-.07 3.06-.09l1.4 2.65 1.41-2.62c1 0 2 .07 3 .14-1 1.65-2.05 3.33-3.08 5v2.89h-2.73z" fill="#ffc043"/><path d="M70.81 107.66h-2.92v-2.92c-1-1.7-2-3.41-3.06-5.09l-.09-.14h.16q1.53-.08 3.06-.09H68l1.32 2.49 1.33-2.47c1 0 2 .07 3 .13H74l-.08.13c-1 1.66-2.06 3.34-3.06 5zm-2.15-.22h2v-2.84c1-1.63 2-3.28 3-4.9-.93-.06-1.87-.1-2.8-.13l-1.39 2.57-.08.16-.08-.16-1.41-2.56c-.94 0-1.89 0-2.84.07 1 1.65 2 3.33 3 5v2.78zm5.4-7.77c.9.06 1.81.14 2.72.23v8c-.91-.09-1.82-.17-2.72-.23z" fill="#ffc043"/><path d="M76.87 108.06h-.1c-.9-.09-1.82-.17-2.72-.23H74v-8.26h.1c.91.07 1.82.14 2.73.24h.08zm-2.72-.43c.84.06 1.69.13 2.54.22V100c-.85-.08-1.7-.16-2.54-.21zm3.58-7.63c.85.1 1.69.21 2.54.33q1.44 2 2.87 4v-3.56q1.33.25 2.67.54v8.06c-.8-.18-1.59-.34-2.39-.49q-1.5-2.15-3-4.23v3.72c-.9-.13-1.79-.25-2.69-.35z" fill="#ffc043"/><path d="M85.9 109.52h-.11c-.79-.18-1.59-.34-2.39-.49-.93-1.33-1.88-2.67-2.83-4v3.54h-.11c-.88-.13-1.79-.25-2.68-.35h-.08V99.9h.1c.84.1 1.7.21 2.54.33.91 1.25 1.82 2.52 2.71 3.79v-3.32h.11c.89.17 1.79.35 2.67.54h.07zm-2.43-.69c.75.14 1.5.3 2.25.46v-7.86l-2.48-.51v3.74l-.17-.24c-.94-1.34-1.9-2.68-2.85-4-.8-.12-1.6-.22-2.4-.31V108c.84.1 1.68.21 2.51.33v-3.89l.16.23c1 1.33 2 2.76 2.98 4.16zm3.07-3.26c0-2.4 1.89-3.78 4.39-3.05a6.56 6.56 0 0 1 3.3 2.26l-1.47 1.33a3.67 3.67 0 0 0-1.76-1.26 1.31 1.31 0 0 0-1.78 1.4 2.58 2.58 0 0 0 1.9 2.45 1.61 1.61 0 0 0 .9.09V108l-1.36-.4v-1.72c1.28.36 2.55.76 3.82 1.2v3.72a4.75 4.75 0 0 1-3.48.11 5.9 5.9 0 0 1-4.46-5.34z" fill="#ffc043"/><path d="M92.75 111.27A6.14 6.14 0 0 1 91 111a6 6 0 0 1-4.54-5.43 3.26 3.26 0 0 1 1.23-2.72 3.64 3.64 0 0 1 3.31-.45 6.74 6.74 0 0 1 3.34 2.29l.06.07h-.07l-1.47 1.34-.07.07-.06-.08a3.55 3.55 0 0 0-1.7-1.2 1.26 1.26 0 0 0-1.17.14 1.4 1.4 0 0 0-.5 1.17 2.5 2.5 0 0 0 1.83 2.36 1.79 1.79 0 0 0 .79.11V108l-1.29-.38h-.07v-1.92h.12c1.28.36 2.56.77 3.82 1.2h.06v3.85a4 4 0 0 1-1.87.52zm-3.11-8.88a3 3 0 0 0-1.85.57 3.11 3.11 0 0 0-1.16 2.58 5.77 5.77 0 0 0 4.37 5.28 4.78 4.78 0 0 0 3.36-.07v-3.61c-1.2-.41-2.42-.79-3.63-1.14v1.53l1.29.39h.06v.94h-.07a1.76 1.76 0 0 1-1-.09 2.7 2.7 0 0 1-2-2.54 1.58 1.58 0 0 1 .57-1.32 1.47 1.47 0 0 1 1.33-.17 3.67 3.67 0 0 1 1.86 1.26l1.33-1.21a6.43 6.43 0 0 0-3.19-2.16 4.5 4.5 0 0 0-1.27-.24zM48.21 115.5a5.55 5.55 0 0 1 4.24-5.25 3.17 3.17 0 0 1 3.65 1.39q-1.11.84-2.22 1.71a1.24 1.24 0 0 0-1.46-.68 2.1 2.1 0 0 0-1.5 2.11c0 1 .62 1.63 1.5 1.44a2.15 2.15 0 0 0 1.51-1.33l2.23.85a5.33 5.33 0 0 1-3.81 2.91c-2.22.49-4.14-.65-4.14-3.15z" fill="#ffc043"/><path d="M51.36 118.86a3.11 3.11 0 0 1-3.24-3.36 5.63 5.63 0 0 1 4.31-5.34 3.29 3.29 0 0 1 3.75 1.43v.07l-.06.06c-.74.55-1.49 1.13-2.23 1.7l-.08.07-.05-.09a1.13 1.13 0 0 0-1.36-.63 2 2 0 0 0-1.43 2 1.43 1.43 0 0 0 .46 1.17 1.05 1.05 0 0 0 .93.18 2.07 2.07 0 0 0 1.45-1.28v-.07h.08c.73.27 1.48.55 2.22.85h.1v.09a5.47 5.47 0 0 1-3.87 3 4.49 4.49 0 0 1-.98.15zm2.07-8.65a5 5 0 0 0-1 .11 5.46 5.46 0 0 0-4.17 5.16 3.1 3.1 0 0 0 1.11 2.52 3.48 3.48 0 0 0 3 .54 5.23 5.23 0 0 0 3.7-2.77c-.68-.27-1.37-.53-2.05-.78a2.26 2.26 0 0 1-1.54 1.3 1.27 1.27 0 0 1-1.09-.21 1.63 1.63 0 0 1-.52-1.32 2.18 2.18 0 0 1 1.57-2.2 1.29 1.29 0 0 1 1.5.63c.69-.54 1.39-1.07 2.08-1.59a2.91 2.91 0 0 0-2.59-1.39zm5.93-1.05q1.35-.16 2.7-.3c1.14 2.6 2.29 5.23 3.43 7.87-1 0-2 .12-3 .2-.14-.34-.28-.69-.43-1-1 .09-1.89.19-2.84.31l-.42 1.14c-1 .13-1.93.27-2.89.44q1.75-4.39 3.45-8.66zm2.07 4.89c-.25-.63-.5-1.26-.74-1.88l-.75 2c.5-.02.99-.08 1.49-.12z" fill="#ffc043"/><path d="m55.8 117.9.06-.15c1.12-2.86 2.27-5.76 3.42-8.62v-.06h.05c.89-.12 1.8-.21 2.7-.3h.07v.06c1.16 2.62 2.31 5.27 3.44 7.87v.12h-.04c-1 0-2 .11-3 .2h-.07L62 116c-.9.08-1.81.18-2.71.3l-.42 1.13h-.06c-1 .13-1.93.28-2.88.44zm3.63-8.66c-1.12 2.8-2.24 5.63-3.33 8.42.88-.15 1.78-.29 2.67-.41l.42-1.13h.06c.94-.12 1.9-.23 2.85-.31h.06l.43 1c.92-.08 1.85-.15 2.76-.19-1.1-2.54-2.22-5.13-3.35-7.69-.86.07-1.72.21-2.57.31zm.37 5.08.06-.14c.24-.68.49-1.37.74-2l.08-.23.09.22.75 1.88v.12h-.12l-1.4.13zm.89-1.89c-.2.55-.41 1.11-.61 1.67l1.22-.1c-.2-.55-.41-1.06-.61-1.57zm5.14-3.77c1.33-.06 2.66-.08 4-.08a4 4 0 0 1 2.94 1 2.64 2.64 0 0 1 .74 2 2.47 2.47 0 0 1-1.61 2.4c.64.93 1.27 1.87 1.9 2.82-1-.06-2.07-.1-3.11-.11-.51-.78-1-1.55-1.54-2.31h-.58v2.3c-.91 0-1.82 0-2.73.08zm3.91 3.76c.65 0 1.05-.28 1.05-.78 0-.52-.41-.78-1-.78h-1.23v1.58c.44-.03.78-.03 1.18-.02z" fill="#ffc043"/><path d="M74 116.86h-.19c-1-.06-2.08-.09-3.11-.11h-.05l-1.51-2.27h-.44v2.3h-.09c-.9 0-1.82 0-2.73.08h-.09v-8.24h.09c1.32-.06 2.66-.09 4-.08a4.07 4.07 0 0 1 3 1 2.7 2.7 0 0 1 .78 2A2.57 2.57 0 0 1 72 114c.62.9 1.23 1.82 1.84 2.73zm-3.25-.3c1 0 1.93 0 2.88.1-.59-.89-1.19-1.79-1.79-2.67l-.06-.09.1-.05a2.37 2.37 0 0 0 1.55-2.31 2.52 2.52 0 0 0-.72-1.88 3.86 3.86 0 0 0-2.87-1c-1.29 0-2.61 0-3.9.07v7.87c.85 0 1.7-.06 2.55-.07v-2.3h.72zm-2.26-4v-1.76h1.28c.71 0 1.13.33 1.13.87a.79.79 0 0 1-.22.57 1.27 1.27 0 0 1-.92.3h-1.29zm.18-1.58v1.4h1.09a1.09 1.09 0 0 0 .79-.24.6.6 0 0 0 .16-.44c0-.6-.59-.69-.94-.69zm5.5-2.26c1 .07 2.08.15 3.12.25 3.23.33 4.83 2.22 4.83 4.59 0 2.4-1.64 3.77-4.93 3.44-1-.1-2-.18-3-.24zm3.17 6c1.25.12 2-.28 2-1.44s-.8-1.77-2-1.89h-.45v3.36z" fill="#ffc043"/><path d="M78.14 117.16h-1c-1-.1-2-.18-3-.24h-.08v-8.24h.09c1 .06 2.09.15 3.13.25 3.07.32 4.91 2.07 4.91 4.68a3.33 3.33 0 0 1-1 2.62 4.37 4.37 0 0 1-3.05.93zm-3.88-.47c1 .06 2 .14 2.94.24a4.93 4.93 0 0 0 3.86-.86 3.21 3.21 0 0 0 1-2.49c0-2.51-1.78-4.19-4.75-4.5-1-.09-2-.18-3-.24zm3.5-1.89h-.96v-3.55h.55c1.38.14 2.13.85 2.13 2a1.48 1.48 0 0 1-.48 1.15 1.82 1.82 0 0 1-1.24.4zm-.78-.24h.37a2 2 0 0 0 1.57-.32 1.32 1.32 0 0 0 .38-1c0-1.33-1.07-1.71-2-1.8h-.36zm5.09 1.88 1.45-1.44a5.92 5.92 0 0 0 2.81 1.5c.48.11.69 0 .69-.19 0-.23-.25-.42-1.11-.78-1.8-.75-3.4-1.52-3.4-3.23 0-1.52 1.21-2.53 3.42-2.07a6.6 6.6 0 0 1 3.61 2l-1.3 1.49a5.09 5.09 0 0 0-2.4-1.34c-.4-.08-.59 0-.59.21 0 .22.22.39 1.07.74 2.05.82 3.41 1.8 3.42 3.42 0 1.7-1.38 2.35-3.53 1.88a8.14 8.14 0 0 1-4.14-2.19z" fill="#ffc043"/><path d="M87.45 118.81a6 6 0 0 1-1.26-.15A8.08 8.08 0 0 1 82 116.5l-.07-.06.07-.07 1.44-1.46.06-.07.07.06a5.85 5.85 0 0 0 2.77 1.48c.37.08.49 0 .54 0a.13.13 0 0 0 0-.1c0-.19-.29-.37-1.06-.69-1.89-.79-3.45-1.58-3.45-3.32a2.14 2.14 0 0 1 .76-1.74 3.27 3.27 0 0 1 2.77-.42 6.68 6.68 0 0 1 3.66 2l.06.07-.06.06-1.3 1.49-.06.07-.07-.06a5 5 0 0 0-2.36-1.32.63.63 0 0 0-.43 0 .12.12 0 0 0 0 .1c0 .15.16.31 1 .65 1.71.69 3.47 1.65 3.47 3.51a2 2 0 0 1-.69 1.63 2.64 2.64 0 0 1-1.67.5zm-5.25-2.37a8 8 0 0 0 4 2 3.33 3.33 0 0 0 2.79-.31 1.8 1.8 0 0 0 .62-1.48c0-1.39-1-2.39-3.35-3.34-.87-.35-1.13-.54-1.13-.82a.3.3 0 0 1 .11-.24.69.69 0 0 1 .59-.06 5.18 5.18 0 0 1 2.38 1.29l1.18-1.35a6.59 6.59 0 0 0-3.51-1.87 3.09 3.09 0 0 0-2.61.38 2 2 0 0 0-.7 1.6c0 1.62 1.52 2.39 3.34 3.15.9.37 1.17.57 1.17.86a.29.29 0 0 1-.11.24c-.12.11-.34.12-.69 0a6.07 6.07 0 0 1-2.79-1.46zm9.66-1.96H93v2.73h-1.14zm1.4 1.38a1.47 1.47 0 0 1 1.54-1.43 1.45 1.45 0 0 1 1.53 1.42 1.54 1.54 0 0 1-3.07 0zm2 0a.47.47 0 0 0-.45-.49.46.46 0 0 0-.44.48.46.46 0 0 0 .45.48.44.44 0 0 0 .42-.47z" fill="#ffc043"/><circle cx="90.93" cy="116.52" r=".63" fill="#ffc043"/><circle cx="92.35" cy="113.64" r=".63" fill="#ffc043"/></svg>