<svg xmlns="http://www.w3.org/2000/svg" viewBox="0 0 139 216"><path fill="#fff" d="M0 .19h138.82v215.65H0z"/><path fill="none" stroke="#7f664a" stroke-miterlimit="10" stroke-width=".5" d="M6.94 9.11h124.94v199.82H6.94z"/><path d="M14.42 10.88v10a6.48 6.48 0 0 0 .1 1.44.94.94 0 0 0 .42.51 1.89 1.89 0 0 0 1 .2h.28v.34H9.78v-.34h.32a2.5 2.5 0 0 0 1.12-.18.91.91 0 0 0 .46-.49 6.16 6.16 0 0 0 .11-1.48v-6.33a3.79 3.79 0 0 0-.08-1.06.73.73 0 0 0-.3-.36.9.9 0 0 0-.51-.13 2.94 2.94 0 0 0-1.12.29l-.16-.33 4.5-2.06zm10.89 12.51H18.1v-.2a39.28 39.28 0 0 0 4-5.31 5.68 5.68 0 0 0 .71-2.67 2.23 2.23 0 0 0-.58-1.58 1.93 1.93 0 0 0-1.42-.63 2.36 2.36 0 0 0-2.16 1.39l-.33-.12a4.94 4.94 0 0 1 1.48-2.57 3.47 3.47 0 0 1 2.29-.83 3.39 3.39 0 0 1 1.7.44 3.12 3.12 0 0 1 1.21 1.2 2.84 2.84 0 0 1 .44 1.41 5.19 5.19 0 0 1-.67 2.44 23.24 23.24 0 0 1-4 4.66h2.65a6.44 6.44 0 0 0 1.27-.08 1.09 1.09 0 0 0 .48-.28 3.65 3.65 0 0 0 .5-.81H26zm91.61 168.49v10a6.48 6.48 0 0 0 .1 1.44.94.94 0 0 0 .42.51 1.89 1.89 0 0 0 1 .2h.28v.34h-6.45v-.34h.32a2.5 2.5 0 0 0 1.12-.18.91.91 0 0 0 .46-.49 6.16 6.16 0 0 0 .11-1.48v-6.35a3.79 3.79 0 0 0-.08-1.06.73.73 0 0 0-.3-.36.9.9 0 0 0-.51-.15 2.94 2.94 0 0 0-1.12.29l-.16-.33 4.5-2.06zm10.89 12.51h-7.21v-.2a39.28 39.28 0 0 0 4-5.31 5.68 5.68 0 0 0 .71-2.67 2.23 2.23 0 0 0-.58-1.58 1.93 1.93 0 0 0-1.44-.62 2.36 2.36 0 0 0-2.16 1.39l-.33-.12a4.94 4.94 0 0 1 1.48-2.57 3.47 3.47 0 0 1 2.29-.83 3.39 3.39 0 0 1 1.7.44 3.12 3.12 0 0 1 1.2 1.19 2.84 2.84 0 0 1 .44 1.41 5.19 5.19 0 0 1-.67 2.44 23.24 23.24 0 0 1-4 4.66h2.65a6.44 6.44 0 0 0 1.27-.08 1.09 1.09 0 0 0 .48-.28 3.65 3.65 0 0 0 .5-.81h.33z" fill="#7f664a"/><path d="M64.62 76.87s-3.29 12.19-3.29 19.36 6.26 53.76-8.55 59.49c0 0 32.25 16.85 59.89-6.09 0 0-9.22-8.24-10.2-16.85s-2-49.46-10.53-57l-13.5 1.43z" fill="#96151f"/><path d="M65.21 54.73c.41 2.44 1.48 4.8 1.24 7.26s-1.8 4.6-2.71 6.93a12.28 12.28 0 0 0-.16 8.73 8.64 8.64 0 0 0 6.07 5.49 4.53 4.53 0 0 0 2.63-.14c2-.82 2.85-3.25 3.3-5.48a65.41 65.41 0 0 0 .92-10.62 36.5 36.5 0 0 0-.15-6 34.91 34.91 0 0 0-1.71-6.3 13 13 0 0 0-1.82-3.88c-3.54-4.51-8.55-1.63-7.61 4.01z" fill="#d1a359"/><path d="M76.35 60.89a34.91 34.91 0 0 0-1.71-6.3 13 13 0 0 0-1.82-3.88C70.67 48 68 48 66.42 49.65a7.49 7.49 0 0 1 1 1.06 13 13 0 0 1 1.82 3.88 34.91 34.91 0 0 1 1.76 6.3 36.5 36.5 0 0 1 .15 6 65.41 65.41 0 0 1-.92 10.58c-.38 1.88-1.09 3.9-2.47 5a6.86 6.86 0 0 0 1.9.68 4.53 4.53 0 0 0 2.62-.15c2-.82 2.85-3.25 3.3-5.48a65.41 65.41 0 0 0 .92-10.62 36.5 36.5 0 0 0-.15-6.01z" fill="#ba8b45"/><circle cx="34.9" cy="55.57" r="15.41" fill="#fdbb29"/><path d="M20.08 56.15a15.41 15.41 0 0 1 26-11.15A15.41 15.41 0 1 0 24.3 66.75a15.35 15.35 0 0 1-4.22-10.6z" fill="#ffde5d"/><circle cx="34.9" cy="55.57" r="10.97" fill="#f8a201"/><path d="m45.79 44.68-3.13 3.13a11 11 0 0 1-15.52 15.52L24 66.46a15.4 15.4 0 0 0 21.79-21.78z" fill="#f7b600"/><path d="M45.87 55.57a11 11 0 0 0-3.28-7.82L27.08 63.26a11 11 0 0 0 18.79-7.69z" fill="#ed9406"/><path d="M34.9 45.76a11 11 0 0 1 11 10.39v-.58a11 11 0 0 0-21.94 0v.58A11 11 0 0 1 34.9 45.76z" fill="#f38d04"/><path fill="#ffde5d" d="m35.94 54.53 5.73 1.04-5.73 1.04-1.04 5.73-1.04-5.73-5.73-1.04 5.73-1.04 1.04-5.73 1.04 5.73z"/><path fill="#e8850f" d="m35.94 56.61-1.04 5.73-1.04-5.73-5.09-.93-.64.12 5.73 1.04 1.04 5.73 1.04-5.73 5.73-1.04-.65-.12-5.08.93z"/><path d="M66.52 44.48a3.75 3.75 0 0 0-1.25 1.06A3.62 3.62 0 0 0 64.8 47a7.58 7.58 0 0 0 .82 4.6 4.94 4.94 0 0 0 3.52 2.57 2.69 2.69 0 0 0 1-.05 3 3 0 0 0 1.08-.62 9.1 9.1 0 0 0 3.2-5.5c.22-1.42.21-5.71-1.36-6.38-1.39-.62-5.32 2.13-6.54 2.86z" fill="#d1a359"/><path d="m86.1 63.5-4.93 6.06s-.85 7.35 2.25 8.87 7.5-3.38 7.5-3.38-.43-5.72-.54-6.19a32 32 0 0 0-1.71-3.14z" fill="#ba8b45"/><path fill="#f9c18a" d="m73.38 68.02.38 6.33-.19 2.86 8.81-.62-.56-9.59-8.44 1.02z"/><path fill="#ea9f54" d="m81.82 67-2.32.28.55 9.31-6.47.46-.01.16 8.81-.62-.56-9.59z"/><ellipse cx="77" cy="55.15" rx="11.25" ry="15.24" fill="#f9c18a"/><path d="M77 39.91c-.24 0-.47 0-.7.05 5.88.49 10.55 7.09 10.55 15.19S82.18 69.84 76.3 70.33h.7c6.21 0 11.25-6.82 11.25-15.23S83.21 39.91 77 39.91z" fill="#ea9f54"/><path d="M72.49 48.83a9.33 9.33 0 0 0 9.83.53c-1.11 2.64.4 5.61 1.08 8.42 1.46 6-1 13 1.74 18.49 1.16 2.38 3.5 4.31 6 4 2.25-.33 4-2.56 4.42-5a10.71 10.71 0 0 0-1.54-7 20.47 20.47 0 0 1-1.75-3.14c-.9-2.48-.17-5.25.13-7.9a15.62 15.62 0 0 0-.72-7.23 12.23 12.23 0 0 0-9.46-7.42C79 42 65.4 43.81 72.49 48.83z" fill="#d1a359"/><path d="M94 68.19a20.47 20.47 0 0 1-1.75-3.14c-.9-2.48-.17-5.25.13-7.9a15.62 15.62 0 0 0-.72-7.23 12.23 12.23 0 0 0-9.46-7.42 19.34 19.34 0 0 0-4.8.19 12.13 12.13 0 0 1 8.51 7.23 15.62 15.62 0 0 1 .72 7.23c-.3 2.65-1 5.42-.13 7.9a20.47 20.47 0 0 0 1.75 3.14 10.71 10.71 0 0 1 1.54 7 6.76 6.76 0 0 1-2.23 4 4.84 4.84 0 0 0 3.56 1c2.25-.33 4-2.56 4.42-5a10.71 10.71 0 0 0-1.54-7z" fill="#ba8b45"/><path d="M66.31 47.71s9.56-6.53 22.87.41l6.75-11.43.38-5.93L91.62 33l.75 2.25-1.69 3.26s-15.93-5.1-23.43.41l-1.5-4.29.94-2.24-4.5-2.86L60.87 34z" fill="#ed9406"/><path fill="#ed9406" d="M84.87 39.95 86 31.17l2.25-1.83-3.19-5.11-3.56 4.49 1.5 1.84-1.5 8.17 3.37 1.22z"/><path fill="#dd860a" d="m85.06 24.23-.87 1.1 2.5 4.01-2.25 1.83-1.05 8.24 1.48.54L86 31.17l2.25-1.83-3.19-5.11z"/><path fill="#ed9406" d="m75.69 30.56 1.5 8.17-1.6.58-1.78.64-1.13-8.78-2.24-1.83 2.78-4.47.41-.64 3.56 4.49-1.5 1.84z"/><path fill="#dd860a" d="m75.69 30.56 1.5 8.17-1.6.58-1.39-9.28 1.24-1.24-2.22-3.92.41-.64 3.56 4.49-1.5 1.84z"/><path d="m96.31 30.76-.38 5.93-6.75 11.43a27.36 27.36 0 0 0-9.37-3 20.85 20.85 0 0 0-13.5 2.61L60.87 34l.75-2.54.57-1.95 4.5 2.86-.94 2.25 1.5 4.29c7.49-5.52 23.44-.41 23.44-.41l1.68-3.28-.75-2.22 2.16-1z" fill="#ed9406"/><ellipse cx="68.09" cy="42.71" rx="1.22" ry="1.33" fill="#bc1b21"/><ellipse cx="78.4" cy="41.49" rx="1.22" ry="1.33" fill="#bc1b21"/><ellipse cx="87.59" cy="43.22" rx="1.22" ry="1.33" fill="#bc1b21"/><path d="M73.65 164.74a57.7 57.7 0 0 0-.3 8.28 13.35 13.35 0 0 0 .15 1.37 16.63 16.63 0 0 1 .15 2.28c0 2.7-.29 5.89-.29 5.89l-1.58.59-.74-.89c-1.9 4.4-6.81 5.05-8.59 5.49s-5.86-1.93-1.64-3.27c1.75-.54 3.24-2.57 4.39-4.75a36.65 36.65 0 0 0 2.53-6.37v-.13c.56-6.23-.67-16.66-.67-16.66-3.27-10.55-1-21.23-1-21.23l9.07-7.44c1.83 6.54-1.56 29.56-1.56 29.56a26.47 26.47 0 0 1 .08 7.28z" fill="#ed9406"/><path d="M73.65 157.46s3.39-23 1.56-29.56l-2.87 2.35c.81 8.47-2 27.21-2 27.21a26.47 26.47 0 0 1 0 7.28 57.7 57.7 0 0 0-.3 8.28 13.35 13.35 0 0 0 .15 1.37 16.63 16.63 0 0 1 .15 2.28c0 2.7-.29 5.89-.29 5.89l-1.58.59-.74-.89c-1.56 3.59-5.11 4.68-7.33 5.21a3.39 3.39 0 0 0 2 .28c1.78-.44 6.69-1.09 8.59-5.49l.74.89 1.58-.59s.32-3.19.29-5.89a16.63 16.63 0 0 0-.15-2.28 13.35 13.35 0 0 1-.15-1.37 57.7 57.7 0 0 1 .3-8.28 26.47 26.47 0 0 0 .05-7.28z" fill="#dd860a"/><path d="m91.8 184.35-1.48.89-.86-.82c-1.23 5-6 6.45-7.68 7.21s-6.07-1.07-2.1-3.18c1.65-.87 2.82-3.25 3.63-5.74a41 41 0 0 0 1.57-7.28v-.46c-.47-6.68-3.11-17-3.11-17-4.79-10.58-4.09-22.24-4.09-22.24l10-10.48c2.78 6.59.75 32.58.75 32.58a29.31 29.31 0 0 1 1.08 7.68 60.11 60.11 0 0 0 1 9.23q.1.51.24 1a22.58 22.58 0 0 1 .48 2.38c.4 2.8.57 6.23.57 6.23z" fill="#ed9406"/><path d="M91.2 178.09a22.58 22.58 0 0 0-.48-2.38q-.14-.45-.24-1a60.11 60.11 0 0 1-1-9.23 29.31 29.31 0 0 0-1.08-7.68s2-26-.75-32.58l-2.41 2.53c1.7 9 0 30.05 0 30.05a29.76 29.76 0 0 1 1.09 7.68 58.86 58.86 0 0 0 1 9.23q.1.51.24 1a20.29 20.29 0 0 1 .48 2.38c.44 2.83.6 6.26.6 6.26l-1.48.89-.85-.82c-1.14 4.54-5.24 6.18-7.21 7a3.5 3.5 0 0 0 2.63.2c1.69-.76 6.45-2.26 7.68-7.21l.86.82 1.48-.89s-.13-3.42-.56-6.25z" fill="#dd860a"/><path d="M89.63 89.9a100.63 100.63 0 0 1-.7 18.54l-.15 1a50.09 50.09 0 0 1-1.43 6.41 20.29 20.29 0 0 1-2.68 6.25l-13-.82a13.45 13.45 0 0 1-5.72-7.92c-.12-.4-.21-.8-.31-1.19a24.82 24.82 0 0 1-.49-6.2 31.87 31.87 0 0 1 .75-5.74c1.48-6.79-.9-17.62-.9-17.62l11.25-4.71 13.61 2.36z" fill="#604238"/><path d="M89.86 80.26 76.25 77.9l-1.43.6L85 80.26l-.22 9.64a101.52 101.52 0 0 1-.7 18.54c-.06.35-.11.7-.15 1a51.86 51.86 0 0 1-1.43 6.41 23.28 23.28 0 0 1-2.48 6l4.69.29a20.29 20.29 0 0 0 2.68-6.25 50.09 50.09 0 0 0 1.43-6.41l.15-1a99.74 99.74 0 0 0 .7-18.54z" fill="#4f332c"/><path d="M51.23 86.73c-1.08 1-2.38 2.2-3.77 1.84a4.12 4.12 0 0 1-2-1.61c-2.07-2.67-3.88-5.9-6.87-7.16a3.34 3.34 0 0 0-2.59-.15 3.6 3.6 0 0 0-1.75 3.56 10.44 10.44 0 0 0 1.4 4c2.5 4.79 5.84 9.65 10.75 10.67 4.3.9 8.59-1.47 12.19-4.18a62.59 62.59 0 0 0 9-8.37 9.6 9.6 0 0 0 2.63-4.64c1-6.19-5.38-3-7.92-1.74a44.5 44.5 0 0 0-11.07 7.78z" fill="#a3af31"/><path d="M42.13 83.62a4.12 4.12 0 0 0 2 1.61h.08a18.19 18.19 0 0 0-4.42-4.79c.79 1.05 1.55 2.15 2.34 3.18zm24.81-6.48v.21A9.54 9.54 0 0 1 64.27 82a61.38 61.38 0 0 1-9 8.36c-3.6 2.72-7.89 5.09-12.19 4.19a10.18 10.18 0 0 1-4-1.82c2 2.53 4.35 4.55 7.29 5.16 4.3.9 8.59-1.47 12.19-4.18a62.59 62.59 0 0 0 9-8.37 9.6 9.6 0 0 0 2.63-4.64c.6-3.48-1.19-4-3.25-3.56z" fill="#969b2c"/><path d="M67.9 76.8s4-.82 5.24-2.1l1.85.74a7.15 7.15 0 0 0 4.52.28l2.95-.79-7.71 3.73-2.57.24z" fill="#604238"/><path d="M23.52 77.48c-.54-.21-1.18-.56-1.2-1.19a1.4 1.4 0 0 1 .59-1c1.33-1.1 3.13-1.17 4.8-1.19a25.8 25.8 0 0 1 7 .54 2.21 2.21 0 0 0 1 .12c1-.18 1.66-1.68 2.52-1.22-.81 1.87 1.44 3.9 1 5.92a2.88 2.88 0 0 1-1.68 2 7.18 7.18 0 0 1-2.52.48c-3.39.17-8.26-3.17-11.51-4.46z" fill="#f9c18a"/><path d="M37.56 79.52A7.19 7.19 0 0 1 35 80c-3.4.24-8.27-3.1-11.52-4.39a3.31 3.31 0 0 1-.65-.33 1.34 1.34 0 0 0-.55 1c0 .63.66 1 1.2 1.19 3.25 1.29 8.12 4.63 11.52 4.39a7.18 7.18 0 0 0 2.52-.48 2.88 2.88 0 0 0 1.68-2 3.35 3.35 0 0 0-.11-1.54 2.94 2.94 0 0 1-1.53 1.68zm.63-6.02z" fill="#ea9f54"/><path d="M94.45 93.23c1.07 1.34 2.36 3 1.89 4.66a4.63 4.63 0 0 1-1 1.71 82.86 82.86 0 0 1-8.15 8.59 5.53 5.53 0 0 0-1.35 1.58c-1.13 2.28 1.28 5.08 3.66 5s4.39-1.81 6.2-3.49l3.73-3.47c2.22-2.06 4.5-4.22 5.68-7.12a14.82 14.82 0 0 0 .21-9.58 30.53 30.53 0 0 0-4.3-8.55 70.19 70.19 0 0 0-4.64-6.15c-1-1.21-2.22-2.46-3.72-2.51-8.66-.25-.3 16.69 1.79 19.33z" fill="#a3af31"/><path d="M105.28 91.16a30.53 30.53 0 0 0-4.3-8.55 70.19 70.19 0 0 0-4.64-6.15c-1-1.21-2.22-2.46-3.72-2.51a3.55 3.55 0 0 0-2.77.89 10.66 10.66 0 0 1 1.6 1.62 72.13 72.13 0 0 1 4.63 6.15 30.55 30.55 0 0 1 4.31 8.55 14.82 14.82 0 0 1-.21 9.58c-1.18 2.9-3.47 5.06-5.68 7.12l-3.73 3.47a17.47 17.47 0 0 1-3.52 2.72 3.73 3.73 0 0 0 2.21.77c2.38 0 4.39-1.81 6.2-3.49l3.73-3.47c2.22-2.06 4.5-4.22 5.68-7.12a14.82 14.82 0 0 0 .21-9.58z" fill="#969b2c"/><path d="M61.42 80.19s-1.48-4.71 5.06-6c0 0 3.94.67 5.8-1.08 0 0 0 3.1 1.85 3.36s8.26-1.74 10.11-3.76 4.2-2.82 7-.81 2.34 1.21 2.84 2.83-1.69 12.18-7.08 14.6-10.12 6.31-12.34 7.52-5.31 2-5.92-1.07-.5-5.65-2.22-6.59a6.84 6.84 0 0 1-3.21-4.7 16.58 16.58 0 0 0-1.89-4.3z" fill="#bc1b21"/><path d="M63.32 83.56A14.56 14.56 0 0 0 66 85.67a13 13 0 0 0 3 1.36 10.37 10.37 0 0 0 1.63.37l.83.14c.29 0 .57 0 .85.06.56.07 1.13 0 1.71 0s1.15-.08 1.75-.07a16.54 16.54 0 0 1-1.68.56 11.94 11.94 0 0 1-1.78.26A10.17 10.17 0 0 1 68.8 88a9.58 9.58 0 0 1-3.21-1.68 7.8 7.8 0 0 1-2.27-2.76zm22.9 4.23A13.48 13.48 0 0 1 83.34 90 18.64 18.64 0 0 1 80 91.49a14.62 14.62 0 0 1-3.59.69 10.42 10.42 0 0 1-3.61-.39 28.72 28.72 0 0 0 3.52-.38 27.77 27.77 0 0 0 3.37-.87 50 50 0 0 0 6.53-2.75z" fill="#96151f"/><ellipse cx="85.96" cy="74.54" rx="2.53" ry="3.17" fill="#ed9406"/><path d="M27.59 84.22a7 7 0 0 0-.25 3.25 2.33 2.33 0 0 0 2.12 2c1.06-.06 1.88-1.18 2.94-1.28 1.68-.15 3.2 2.28 4.69 1.43.89-.5 1-1.87 1.81-2.54 1.27-1.09 3.62.07 4.52-1.4.78-1.27-.34-3.49.85-4.28a7 7 0 0 1 .79-.34 2.4 2.4 0 0 0 1.11-2.17 7.35 7.35 0 0 0-.62-2.52c-1.42-.58-3 .55-4.49.31a11.48 11.48 0 0 0-1.8-.43c-2 0-3.9 2.83-6.14 3.27-3 .56-4.62 1.16-5.53 4.7z" fill="#ed9406"/><path d="M39.76 76.29a2.15 2.15 0 0 0-.5-.07 3.21 3.21 0 0 0-1.51.45 15.79 15.79 0 0 0 2.01-.38zM28.44 88.16a2.25 2.25 0 0 0-.71.22 2 2 0 0 0 1.73 1.06 2.55 2.55 0 0 0 1.18-.44 3.83 3.83 0 0 0-2.2-.84zm17.11-11.82c-1.22-.5-2.54.26-3.84.33a6.65 6.65 0 0 1 .5 2.19A2.4 2.4 0 0 1 41.1 81a7 7 0 0 0-.79.34c-1.2.79-.08 3-.85 4.28-.9 1.47-3.25.31-4.52 1.4a5.17 5.17 0 0 0-1 1.56c1.08.61 2.11 1.56 3.13 1s1-1.87 1.81-2.54c1.27-1.09 3.62.07 4.52-1.4.78-1.27-.34-3.49.85-4.28a7 7 0 0 1 .79-.34 2.4 2.4 0 0 0 1.11-2.17 7.35 7.35 0 0 0-.6-2.51z" fill="#dd860a"/><path d="M92.51 125.6a11.94 11.94 0 0 1-5.37 9.85 13.25 13.25 0 0 1-1.45.87 13.87 13.87 0 0 1-5.25 1.48h-1.16a13.86 13.86 0 0 1-4.81-.84 10.69 10.69 0 0 1-1-.41c-.34-.15-.66-.31-1-.49a13.52 13.52 0 0 1-2.71-2 11.61 11.61 0 0 1-1.59-1.84A11.41 11.41 0 0 1 66 125.6a12.15 12.15 0 0 1 7.34-10.94 4.85 4.85 0 0 1 .62-.27 11.75 11.75 0 0 1 1.58-.54 14.49 14.49 0 0 1 3.7-.48l1.42.07a13.6 13.6 0 0 1 3.77.91l1.24.56A13.5 13.5 0 0 1 87.5 116l.27.2a11.86 11.86 0 0 1 4.74 9.4z" fill="#78b1ef"/><path d="M69 78.08a19.84 19.84 0 0 0 4.38-.21c.72-.09 1.43-.24 2.16-.36s1.46-.28 2.24-.36a8.48 8.48 0 0 1-2 1.11 10.15 10.15 0 0 1-2.24.6 8.66 8.66 0 0 1-2.33 0 4.87 4.87 0 0 1-2.21-.78z" fill="#96151f"/><path d="m73.36 182.56-1.58.59-.74-.89c-1.9 4.4-6.81 5.05-8.59 5.49s-5.86-1.93-1.64-3.27c1.75-.54 3.24-2.57 4.39-4.75a36.65 36.65 0 0 0 2.53-6.37 14.27 14.27 0 0 0 5.62-.34 13.35 13.35 0 0 0 .15 1.37 16.63 16.63 0 0 1 .15 2.28c.03 2.7-.29 5.89-.29 5.89zm18.44 1.8-1.48.88-.48-.47-.38-.35c-1.24 5-6 6.45-7.68 7.21s-6.07-1.07-2.1-3.18c1.65-.87 2.82-3.24 3.63-5.74a41.31 41.31 0 0 0 1.58-7.28v-.46a19 19 0 0 0 4.81-.06l.82-.15c.07.32.15.65.23 1a20.13 20.13 0 0 1 .49 2.38c.4 2.79.56 6.22.56 6.22z" fill="#604238"/><path d="m73.36 182.56-1.58.59-.36-.43-.38-.46c-1.9 4.39-6.81 5.05-8.58 5.49s-5.87-1.94-1.64-3.27c1.74-.54 3.23-2.56 4.38-4.74a35.77 35.77 0 0 0 2.52-6.38 14.32 14.32 0 0 0 4.67-.12c.31-.06.64-.13 1-.22a13.15 13.15 0 0 0 .15 1.36 17 17 0 0 1 .14 2.29c0 2.69-.32 5.89-.32 5.89z" fill="#604238"/><path d="M75.23 115.36a68.21 68.21 0 0 0-1 19.66c.06.7.13 1.37.2 2a10.69 10.69 0 0 1-1-.41c-.07-.31-.14-.61-.2-.91a44.85 44.85 0 0 1 .12-21c.05-.21.1-.39.16-.57a4 4 0 0 1 .46.3 11.75 11.75 0 0 1 1.58-.54c-.1.46-.22.97-.32 1.47zm10.48-.45c3.72 6.34 3 14.36 1.43 20.54a13.25 13.25 0 0 1-1.45.87c1.89-11.37.3-18.31-1.22-22z" fill="#bc1b21"/><path d="M96.77 132.19c-19.87 16.47-40.11-2-40.11-2 4.23-3.47 7.09-11.36 8.68-17 .1-.33.18-.65.27-1 1.31-.06 2.64-.14 4-.24 2.64-.21 5.17-.49 7.57-.82l10.26-.47 1.11-2.19.22 1 .11.5q.78 2.76 1.69 5.59c1.91 5.96 4.01 11.5 6.2 16.63z" fill="#604238"/><path d="M90.14 114.26a31.31 31.31 0 0 1-6.5.14h-.55c.12.38.25.76.38 1.15 1.2 3.59 2.68 7.59 3.9 10.77a7.86 7.86 0 0 1-3.75 9.84 26.44 26.44 0 0 1-8.35 2.61c6.48.85 14-.4 21.5-6.6 0 0-3.71-9.19-6.19-16.62-.15-.43-.3-.86-.44-1.29z" fill="#4f332c"/><path d="M90.58 115.57c-1 .13-2.09.24-3.23.32-6.23.5-14.17.26-21.43-2.49l-.58-.23c.1-.33.18-.65.27-1a24.82 24.82 0 0 1-.49-6.2c.57.2 1.22.42 2 .64a53.64 53.64 0 0 0 21.46 1.84h.37l-.15 1 .11.5c.37 1.6.97 3.53 1.67 5.62z" fill="#a3af31"/><path d="M78 105.52c-1.14.84-1.59 2.88-.52 3.81.68.6 1.86.71 2.06 1.64s-.76 1.61-.88 2.52c-.17 1.25 1.24 2 2.41 2.15s2.52 0 3.26 1a7 7 0 0 1 .71 1.9c.21.64.66 1.31 1.29 1.33.85 0 1.4-1.09 2.24-1.2.62-.09 1.16.4 1.67.78a3 3 0 0 0 1.68.72 1.48 1.48 0 0 0 1.46-1 5.3 5.3 0 0 0 0-1.59c0-.53.24-1.17.73-1.2.25 0 .51.15.76.08s.44-.49.47-.84a4.27 4.27 0 0 0-2.77-4.46c-1.09-.32-2.47-.23-3.06-1.28-.26-.47-.27-1.06-.49-1.56-.59-1.37-3.52-2.23-4.73-2.8-1.9-.82-4.4-1.43-6.29 0z" fill="#ed9406"/><path d="M80.58 114a2.61 2.61 0 0 0-1.83-.91 1.82 1.82 0 0 0-.11.4c-.17 1.25 1.24 2 2.41 2.15h.17a5.36 5.36 0 0 0-.64-1.64zm11.97-2.77a12.58 12.58 0 0 0-1.25-.23 4.42 4.42 0 0 1 .3 2c0 .35-.17.75-.48.84s-.5-.1-.76-.08c-.49 0-.74.67-.73 1.2a5 5 0 0 1 0 1.59 1.48 1.48 0 0 1-1.46 1 3 3 0 0 1-1.67-.72c-.52-.38-1.06-.87-1.68-.78a1.55 1.55 0 0 0-.77.38 2.23 2.23 0 0 1 .26.27 7 7 0 0 1 .71 1.9c.21.64.66 1.31 1.29 1.33.85 0 1.4-1.09 2.24-1.2.62-.08 1.16.4 1.67.78a3 3 0 0 0 1.68.72 1.48 1.48 0 0 0 1.46-1 5.3 5.3 0 0 0 0-1.59c0-.53.24-1.17.73-1.2.25 0 .51.15.76.08s.44-.49.47-.84a4.27 4.27 0 0 0-2.77-4.45z" fill="#dd860a"/><path d="M78.31 114a5.71 5.71 0 0 0 .77 5 7.28 7.28 0 0 0 3.66 2.44 3.57 3.57 0 0 0 2.4.18 4.46 4.46 0 0 0 2-2.32 5 5 0 0 0 .77-2.93c-.22-1.46-1.55-2.34-2.74-3-2.65-1.62-5.42-3.88-6.86.63z" fill="#f9c18a"/><path d="M88 116.34a4.38 4.38 0 0 0-2.43-2.85 2.87 2.87 0 0 1 .68 1.45 5 5 0 0 1-.76 2.93 4.44 4.44 0 0 1-2 2.32A3.56 3.56 0 0 1 81 120a10.7 10.7 0 0 1-1.62-.73 7.63 7.63 0 0 0 3.37 2.12 3.57 3.57 0 0 0 2.4.18 4.46 4.46 0 0 0 2-2.32 5 5 0 0 0 .85-2.91z" fill="#ea9f54"/><path d="M71.61 66a2.59 2.59 0 0 0-.46 3.1 13.48 13.48 0 0 0 2-1.55 7.42 7.42 0 0 0 1.4 3.88 9.34 9.34 0 0 0 1.62-3.78s1.64.68 1.64 1.3c0 0 .15-3.11-1.4-3.26s-3.41-.91-4.8.31zm-1.51-4.92a5.32 5.32 0 0 0-2.35 2 9.44 9.44 0 0 1-1 1.38 3.16 3.16 0 0 1-3.31.8c1 .88 2.27 1.78 3.57 1.45 1.5-.38 2.25-2.23 3.75-2.63 1-.26 2.27.11 2.89-.7 1.53-1.93-2.43-2.73-3.55-2.3z" fill="#ba8b45"/><path d="M77.65 61.08a5.26 5.26 0 0 1 2.35 2 10.29 10.29 0 0 0 1 1.38 3.17 3.17 0 0 0 3.31.8c-1 .88-2.26 1.78-3.56 1.45-1.5-.38-2.26-2.23-3.75-2.63-1-.26-2.27.11-2.89-.7-1.53-1.93 2.43-2.73 3.54-2.3z" fill="#ba8b45"/><path d="m96.31 30.76-.38 5.93-6.75 11.43a27.36 27.36 0 0 0-9.37-3 21.32 21.32 0 0 1 8.84.78l5.13-10.09V32zM63.79 35l.47-1.86-2.64-1.65.57-1.95 4.5 2.86-.94 2.25 1.5 4.29L63.79 35z" fill="#dd860a"/><path d="m91.8 184.36-1.48.88-.48-.47a14.85 14.85 0 0 0-.18-9.86l.82-.15c.07.32.15.65.23 1a20.13 20.13 0 0 1 .49 2.38c.44 2.79.6 6.22.6 6.22zm-18.44-1.8-1.58.59-.36-.43a17 17 0 0 0 1-9.48c.31-.06.64-.13 1-.22a13.15 13.15 0 0 0 .15 1.36 17 17 0 0 1 .14 2.29c-.03 2.69-.35 5.89-.35 5.89z" fill="#4f332c"/></svg>