<svg xmlns="http://www.w3.org/2000/svg" viewBox="0 0 138.83 215.65"><path fill="#fff" d="M0 0h138.82v215.65H0z"/><path fill="none" stroke="#7f664a" stroke-miterlimit="10" stroke-width=".5" d="M6.94 8.91h124.94v199.82H6.94z"/><circle cx="69.41" cy="107.79" r="25.59" fill="#fdbb29"/><path d="M44.79 108.76A25.59 25.59 0 0 1 88 90.19a25.58 25.58 0 1 0-36.16 36.17 25.51 25.51 0 0 1-7.05-17.6z" fill="#ffde5d"/><circle cx="69.41" cy="107.79" r="18.22" fill="#f8a201"/><path d="m87.51 89.7-5.21 5.21a18.22 18.22 0 0 1-25.77 25.77l-5.21 5.21A25.59 25.59 0 0 0 87.51 89.7z" fill="#f7b600"/><path d="M87.63 107.79a18.18 18.18 0 0 0-5.44-13l-25.76 25.78a18.22 18.22 0 0 0 31.2-12.78z" fill="#ed9406"/><path d="M69.41 91.51a18.23 18.23 0 0 1 18.2 17.25v-1a18.22 18.22 0 1 0-36.44 0v1a18.21 18.21 0 0 1 18.24-17.25z" fill="#f38d04"/><path fill="#ffde5d" d="m71.14 106.06 9.52 1.73-9.52 1.73-1.73 9.51-1.72-9.51-9.52-1.73 9.52-1.73 1.72-9.51 1.73 9.51z"/><path fill="#e8850f" d="m71.14 109.52-1.73 9.51-1.72-9.51-8.45-1.54-1.07.2 9.52 1.72 1.72 9.52 1.73-9.52 9.52-1.72-1.07-.2-8.45 1.54z"/><circle cx="42.73" cy="51.66" r="22.91" fill="#fdbb29"/><path d="M20.69 52.53A22.9 22.9 0 0 1 59.35 35.9 22.9 22.9 0 1 0 27 68.28a22.85 22.85 0 0 1-6.31-15.75z" fill="#ffde5d"/><circle cx="42.73" cy="51.66" r="16.31" fill="#f8a201"/><path d="m58.93 35.46-4.66 4.67A16.31 16.31 0 1 1 31.2 63.19l-4.66 4.67a22.91 22.91 0 0 0 32.39-32.4z" fill="#f7b600"/><path d="M59 51.66A16.26 16.26 0 0 0 54.17 40L31.11 63.1A16.31 16.31 0 0 0 59 51.66z" fill="#ed9406"/><path d="M42.73 37.08A16.31 16.31 0 0 1 59 52.53v-.87a16.31 16.31 0 0 0-32.62 0v.87a16.31 16.31 0 0 1 16.35-15.45z" fill="#f38d04"/><path fill="#ffde5d" d="m44.28 50.11 8.52 1.55-8.52 1.54-1.55 8.52-1.54-8.52-8.52-1.54 8.52-1.55 1.54-8.52 1.55 8.52z"/><path fill="#e8850f" d="m44.28 53.2-1.55 8.52-1.54-8.52-7.57-1.37-.95.18 8.52 1.54 1.54 8.52 1.55-8.52 8.52-1.54-.96-.18-7.56 1.37z"/><circle cx="96.09" cy="51.66" r="22.91" fill="#fdbb29"/><path d="M74.05 52.53a22.9 22.9 0 0 1 38.66-16.63 22.9 22.9 0 1 0-32.37 32.38 22.85 22.85 0 0 1-6.29-15.75z" fill="#ffde5d"/><circle cx="96.09" cy="51.66" r="16.31" fill="#f8a201"/><path d="m112.29 35.46-4.66 4.67a16.31 16.31 0 1 1-23.07 23.06l-4.66 4.67a22.91 22.91 0 0 0 32.39-32.4z" fill="#f7b600"/><path d="M112.41 51.66A16.27 16.27 0 0 0 107.53 40L84.47 63.1a16.31 16.31 0 0 0 27.94-11.44z" fill="#ed9406"/><path d="M96.09 37.08a16.31 16.31 0 0 1 16.29 15.45v-.87a16.32 16.32 0 0 0-32.63 0v.87a16.31 16.31 0 0 1 16.34-15.45z" fill="#f38d04"/><path fill="#ffde5d" d="m97.64 50.11 8.52 1.55-8.52 1.54-1.55 8.52-1.54-8.52-8.52-1.54 8.52-1.55 1.54-8.52 1.55 8.52z"/><path fill="#e8850f" d="m97.64 53.2-1.55 8.52-1.54-8.52-7.57-1.37-.95.18 8.52 1.54 1.54 8.52 1.55-8.52 8.52-1.54-.96-.18-7.56 1.37z"/><circle cx="42.73" cy="162.16" r="22.91" fill="#fdbb29"/><path d="M20.69 163a22.9 22.9 0 0 1 38.66-16.62A22.9 22.9 0 1 0 27 178.78 22.83 22.83 0 0 1 20.69 163z" fill="#ffde5d"/><circle cx="42.73" cy="162.16" r="16.31" fill="#f8a201"/><path d="m58.93 146-4.66 4.66A16.31 16.31 0 0 1 31.2 173.7l-4.66 4.66A22.9 22.9 0 1 0 58.93 146z" fill="#f7b600"/><path d="M59 162.16a16.24 16.24 0 0 0-4.87-11.62L31.11 173.6A16.31 16.31 0 0 0 59 162.16z" fill="#ed9406"/><path d="M42.73 147.59A16.3 16.3 0 0 1 59 163v-.87a16.31 16.31 0 0 0-32.62 0v.87a16.3 16.3 0 0 1 16.35-15.41z" fill="#f38d04"/><path fill="#ffde5d" d="m44.28 160.62 8.52 1.54-8.52 1.55-1.55 8.52-1.54-8.52-8.52-1.55 8.52-1.54 1.54-8.52 1.55 8.52z"/><path fill="#e8850f" d="m44.28 163.71-1.55 8.52-1.54-8.52-7.57-1.37-.95.17 8.52 1.55 1.54 8.51 1.55-8.51 8.52-1.55-.96-.17-7.56 1.37z"/><circle cx="96.09" cy="162.16" r="22.91" fill="#fdbb29"/><path d="M74.05 163a22.9 22.9 0 0 1 38.66-16.62 22.9 22.9 0 1 0-32.37 32.37A22.83 22.83 0 0 1 74.05 163z" fill="#ffde5d"/><circle cx="96.09" cy="162.16" r="16.31" fill="#f8a201"/><path d="m112.29 146-4.66 4.66a16.31 16.31 0 0 1-23.07 23.04l-4.66 4.66A22.9 22.9 0 1 0 112.29 146z" fill="#f7b600"/><path d="M112.41 162.16a16.25 16.25 0 0 0-4.88-11.62L84.47 173.6a16.31 16.31 0 0 0 27.94-11.44z" fill="#ed9406"/><path d="M96.09 147.59A16.3 16.3 0 0 1 112.38 163v-.87a16.32 16.32 0 0 0-32.63 0v.87a16.3 16.3 0 0 1 16.34-15.41z" fill="#f38d04"/><path fill="#ffde5d" d="m97.64 160.62 8.52 1.54-8.52 1.55-1.55 8.52-1.54-8.52-8.52-1.55 8.52-1.54 1.54-8.52 1.55 8.52z"/><path fill="#e8850f" d="m97.64 163.71-1.55 8.52-1.54-8.52-7.57-1.37-.95.17 8.52 1.55 1.54 8.51 1.55-8.51 8.52-1.55-.96-.17-7.56 1.37z"/><path d="M12.27 11H18l-.91 2.33h-4.82l-.46 1.22a7.58 7.58 0 0 1 4.8 1.55A3.72 3.72 0 0 1 18 19a4.24 4.24 0 0 1-.64 2.21 4.3 4.3 0 0 1-1.81 1.67 5.75 5.75 0 0 1-2.55.58 4.06 4.06 0 0 1-2.31-.56 1.14 1.14 0 0 1-.56-.9 1 1 0 0 1 .3-.69.91.91 0 0 1 .68-.3 1.85 1.85 0 0 1 .71.15 7.14 7.14 0 0 1 1.24.75 4.3 4.3 0 0 0 .95.53 1.73 1.73 0 0 0 .63.11 1.67 1.67 0 0 0 1.25-.55 1.79 1.79 0 0 0 .52-1.3 3 3 0 0 0-1.59-2.58 7.47 7.47 0 0 0-4-1h-.73zm111 181H129l-.91 2.33h-4.83l-.46 1.22a7.58 7.58 0 0 1 4.8 1.55 3.72 3.72 0 0 1 1.4 2.9 4.24 4.24 0 0 1-.64 2.21 4.3 4.3 0 0 1-1.81 1.67 5.75 5.75 0 0 1-2.55.58 4.06 4.06 0 0 1-2.31-.56 1.14 1.14 0 0 1-.56-.9 1 1 0 0 1 .3-.69.91.91 0 0 1 .68-.3 1.85 1.85 0 0 1 .71.15 7.14 7.14 0 0 1 1.24.75 4.3 4.3 0 0 0 1 .53 1.73 1.73 0 0 0 .63.11 1.67 1.67 0 0 0 1.26-.55 1.79 1.79 0 0 0 .52-1.3 3 3 0 0 0-1.59-2.58 7.47 7.47 0 0 0-4-1h-.73z" fill="#7f664a"/></svg>