<svg xmlns="http://www.w3.org/2000/svg" viewBox="0 0 138.83 215.65"><path fill="#fff" d="M0 0h138.82v215.65H0z"/><path fill="none" stroke="#7f664a" stroke-miterlimit="10" stroke-width=".5" d="M6.94 8.91h124.94v199.82H6.94z"/><circle cx="31.41" cy="42.42" r="19.93" fill="#fdbb29"/><path d="M12.23 43.17a19.93 19.93 0 0 1 33.64-14.45A19.92 19.92 0 1 0 17.7 56.88a19.9 19.9 0 0 1-5.47-13.71z" fill="#ffde5d"/><circle cx="31.41" cy="42.42" r="14.19" fill="#f8a201"/><path d="m45.5 28.33-4.06 4.06a14.19 14.19 0 1 1-20.07 20.06l-4.05 4.06A19.93 19.93 0 0 0 45.5 28.33z" fill="#f7b600"/><path d="M45.6 42.42a14.15 14.15 0 0 0-4.24-10.11L21.29 52.37a14.19 14.19 0 0 0 24.31-9.95z" fill="#ed9406"/><path d="M31.41 29.74a14.2 14.2 0 0 1 14.17 13.43v-.75a14.19 14.19 0 0 0-28.38 0v.75a14.18 14.18 0 0 1 14.21-13.43z" fill="#f38d04"/><path fill="#ffde5d" d="m32.75 41.07 7.41 1.35-7.41 1.34-1.34 7.41-1.35-7.41-7.41-1.34 7.41-1.35 1.35-7.41 1.34 7.41z"/><path fill="#e8850f" d="m32.75 43.76-1.34 7.41-1.35-7.41-6.58-1.19-.83.15 7.41 1.34 1.35 7.42 1.34-7.42 7.41-1.34-.83-.15-6.58 1.19z"/><circle cx="31.41" cy="86.02" r="19.93" fill="#fdbb29"/><path d="M12.23 86.78a19.93 19.93 0 0 1 33.64-14.46 19.92 19.92 0 1 0-28.17 28.16 19.87 19.87 0 0 1-5.47-13.7z" fill="#ffde5d"/><circle cx="31.41" cy="86.02" r="14.19" fill="#f8a201"/><path d="M45.5 71.93 41.44 76a14.19 14.19 0 0 1-20.07 20.06l-4.05 4A19.93 19.93 0 0 0 45.5 71.93z" fill="#f7b600"/><path d="M45.6 86a14.15 14.15 0 0 0-4.24-10.11L21.29 96A14.19 14.19 0 0 0 45.6 86z" fill="#ed9406"/><path d="M31.41 73.34a14.2 14.2 0 0 1 14.17 13.44v-.76a14.19 14.19 0 0 0-28.38 0v.76a14.19 14.19 0 0 1 14.21-13.44z" fill="#f38d04"/><path fill="#ffde5d" d="m32.75 84.68 7.41 1.34-7.41 1.35-1.34 7.41-1.35-7.41-7.41-1.35 7.41-1.34 1.35-7.41 1.34 7.41z"/><path fill="#e8850f" d="m32.75 87.37-1.34 7.41-1.35-7.41-6.58-1.2-.83.16 7.41 1.34 1.35 7.41 1.34-7.41 7.41-1.34-.83-.16-6.58 1.2z"/><circle cx="31.41" cy="129.63" r="19.93" fill="#fdbb29"/><path d="M12.23 130.38a19.93 19.93 0 0 1 33.64-14.46 19.93 19.93 0 1 0-28.17 28.17 19.91 19.91 0 0 1-5.47-13.71z" fill="#ffde5d"/><circle cx="31.41" cy="129.63" r="14.19" fill="#f8a201"/><path d="m45.5 115.54-4.06 4a14.19 14.19 0 1 1-20.07 20.07l-4.05 4.06a19.93 19.93 0 0 0 28.18-28.13z" fill="#f7b600"/><path d="M45.6 129.63a14.19 14.19 0 0 0-4.24-10.12l-20.07 20.07a14.19 14.19 0 0 0 24.31-10z" fill="#ed9406"/><path d="M31.41 117a14.2 14.2 0 0 1 14.17 13.43v-.75a14.19 14.19 0 0 0-28.38 0v.75A14.18 14.18 0 0 1 31.41 117z" fill="#f38d04"/><path fill="#ffde5d" d="m32.75 128.28 7.41 1.35-7.41 1.34-1.34 7.41-1.35-7.41-7.41-1.34 7.41-1.35 1.35-7.41 1.34 7.41z"/><path fill="#e8850f" d="m32.75 130.97-1.34 7.41-1.35-7.41-6.58-1.19-.83.15 7.41 1.34 1.35 7.41 1.34-7.41 7.41-1.34-.83-.15-6.58 1.19z"/><circle cx="31.41" cy="173.23" r="19.93" fill="#fdbb29"/><path d="M12.23 174a19.93 19.93 0 0 1 33.64-14.46 19.92 19.92 0 1 0-28.17 28.15A19.87 19.87 0 0 1 12.23 174z" fill="#ffde5d"/><circle cx="31.41" cy="173.23" r="14.19" fill="#f8a201"/><path d="m45.5 159.14-4.06 4.06a14.19 14.19 0 0 1-20.07 20.07l-4.05 4a19.93 19.93 0 0 0 28.18-28.13z" fill="#f7b600"/><path d="M45.6 173.23a14.15 14.15 0 0 0-4.24-10.11l-20.07 20.06a14.19 14.19 0 0 0 24.31-10z" fill="#ed9406"/><path d="M31.41 160.55A14.2 14.2 0 0 1 45.58 174v-.76a14.19 14.19 0 0 0-28.38 0v.76a14.19 14.19 0 0 1 14.21-13.45z" fill="#f38d04"/><path fill="#ffde5d" d="m32.75 171.89 7.41 1.34-7.41 1.35-1.34 7.41-1.35-7.41-7.41-1.35 7.41-1.34 1.35-7.41 1.34 7.41z"/><path fill="#e8850f" d="m32.75 174.58-1.34 7.41-1.35-7.41-6.58-1.2-.83.15 7.41 1.35 1.35 7.41 1.34-7.41 7.41-1.35-.83-.15-6.58 1.2z"/><circle cx="107.42" cy="42.42" r="19.93" fill="#fdbb29"/><path d="M88.25 43.17a19.92 19.92 0 0 1 33.63-14.45 19.92 19.92 0 1 0-28.17 28.16 19.89 19.89 0 0 1-5.46-13.71z" fill="#ffde5d"/><circle cx="107.42" cy="42.42" r="14.19" fill="#f8a201"/><path d="m121.51 28.33-4.06 4.06a14.18 14.18 0 1 1-20.06 20.06l-4.06 4.06a19.93 19.93 0 0 0 28.18-28.18z" fill="#f7b600"/><path d="M121.61 42.42a14.15 14.15 0 0 0-4.24-10.11L97.31 52.37a14.19 14.19 0 0 0 24.3-9.95z" fill="#ed9406"/><path d="M107.42 29.74a14.19 14.19 0 0 1 14.17 13.43v-.75a14.19 14.19 0 0 0-28.38 0v.75a14.18 14.18 0 0 1 14.21-13.43z" fill="#f38d04"/><path fill="#ffde5d" d="m108.76 41.07 7.41 1.35-7.41 1.34-1.34 7.41-1.35-7.41-7.41-1.34 7.41-1.35 1.35-7.41 1.34 7.41z"/><path fill="#e8850f" d="m108.76 43.76-1.34 7.41-1.35-7.41-6.57-1.19-.84.15 7.41 1.34 1.35 7.42 1.34-7.42 7.41-1.34-.83-.15-6.58 1.19z"/><circle cx="107.42" cy="86.02" r="19.93" fill="#fdbb29"/><path d="M88.25 86.78a19.92 19.92 0 0 1 33.63-14.46 19.92 19.92 0 1 0-28.17 28.16 19.86 19.86 0 0 1-5.46-13.7z" fill="#ffde5d"/><circle cx="107.42" cy="86.02" r="14.19" fill="#f8a201"/><path d="M121.51 71.93 117.45 76a14.19 14.19 0 0 1-20.06 20.06l-4.06 4a19.93 19.93 0 0 0 28.18-28.18z" fill="#f7b600"/><path d="M121.61 86a14.15 14.15 0 0 0-4.24-10.11L97.31 96a14.19 14.19 0 0 0 24.3-10z" fill="#ed9406"/><path d="M107.42 73.34a14.19 14.19 0 0 1 14.17 13.44v-.76a14.19 14.19 0 0 0-28.38 0v.76a14.19 14.19 0 0 1 14.21-13.44z" fill="#f38d04"/><path fill="#ffde5d" d="m108.76 84.68 7.41 1.34-7.41 1.35-1.34 7.41-1.35-7.41-7.41-1.35 7.41-1.34 1.35-7.41 1.34 7.41z"/><path fill="#e8850f" d="m108.76 87.37-1.34 7.41-1.35-7.41-6.57-1.2-.84.16 7.41 1.34 1.35 7.41 1.34-7.41 7.41-1.34-.83-.16-6.58 1.2z"/><circle cx="107.42" cy="129.63" r="19.93" fill="#fdbb29"/><path d="M88.25 130.38a19.93 19.93 0 0 1 33.63-14.46 19.93 19.93 0 1 0-28.17 28.17 19.91 19.91 0 0 1-5.46-13.71z" fill="#ffde5d"/><circle cx="107.42" cy="129.63" r="14.19" fill="#f8a201"/><path d="m121.51 115.54-4.06 4a14.19 14.19 0 1 1-20.06 20.07l-4.06 4.06a19.93 19.93 0 0 0 28.18-28.18z" fill="#f7b600"/><path d="M121.61 129.63a14.19 14.19 0 0 0-4.24-10.12l-20.06 20.07a14.19 14.19 0 0 0 24.3-10z" fill="#ed9406"/><path d="M107.42 117a14.19 14.19 0 0 1 14.17 13.43v-.75a14.19 14.19 0 0 0-28.38 0v.75A14.18 14.18 0 0 1 107.42 117z" fill="#f38d04"/><path fill="#ffde5d" d="m108.76 128.28 7.41 1.35-7.41 1.34-1.34 7.41-1.35-7.41-7.41-1.34 7.41-1.35 1.35-7.41 1.34 7.41z"/><path fill="#e8850f" d="m108.76 130.97-1.34 7.41-1.35-7.41-6.57-1.19-.84.15 7.41 1.34 1.35 7.41 1.34-7.41 7.41-1.34-.83-.15-6.58 1.19z"/><circle cx="107.42" cy="173.23" r="19.93" fill="#fdbb29"/><path d="M88.25 174a19.92 19.92 0 0 1 33.63-14.46 19.92 19.92 0 1 0-28.17 28.16 19.86 19.86 0 0 1-5.46-13.7z" fill="#ffde5d"/><circle cx="107.42" cy="173.23" r="14.19" fill="#f8a201"/><path d="m121.51 159.14-4.06 4.06a14.19 14.19 0 0 1-20.06 20.07l-4.06 4a19.93 19.93 0 0 0 28.18-28.18z" fill="#f7b600"/><path d="M121.61 173.23a14.15 14.15 0 0 0-4.24-10.11l-20.06 20.06a14.19 14.19 0 0 0 24.3-10z" fill="#ed9406"/><path d="M107.42 160.55A14.19 14.19 0 0 1 121.59 174v-.76a14.19 14.19 0 0 0-28.38 0v.76a14.19 14.19 0 0 1 14.21-13.45z" fill="#f38d04"/><path fill="#ffde5d" d="m108.76 171.89 7.41 1.34-7.41 1.35-1.34 7.41-1.35-7.41-7.41-1.35 7.41-1.34 1.35-7.41 1.34 7.41z"/><path fill="#e8850f" d="m108.76 174.58-1.34 7.41-1.35-7.41-6.57-1.2-.84.15 7.41 1.35 1.35 7.41 1.34-7.41 7.41-1.35-.83-.15-6.58 1.2z"/><path d="M15.72 16.28A6.77 6.77 0 0 1 17.51 18a3.48 3.48 0 0 1 .5 1.88 3.27 3.27 0 0 1-1.11 2.5 4.28 4.28 0 0 1-3 1 4 4 0 0 1-2.81-.9 2.82 2.82 0 0 1-1-2.18 2.78 2.78 0 0 1 .58-1.73 5.07 5.07 0 0 1 1.91-1.35 7.64 7.64 0 0 1-1.87-1.82 3.21 3.21 0 0 1-.41-1.63 2.85 2.85 0 0 1 1.05-2.17 4.11 4.11 0 0 1 2.85-.93 4 4 0 0 1 2.7.82 2.58 2.58 0 0 1 .95 2 2.43 2.43 0 0 1-.51 1.53 4.63 4.63 0 0 1-1.62 1.26zm-2.49 1.44a1.94 1.94 0 0 0-.4.46 3.79 3.79 0 0 0-.33.92 5.88 5.88 0 0 0-.14 1.27 3.92 3.92 0 0 0 .22 1.42 1.63 1.63 0 0 0 .61.83 1.54 1.54 0 0 0 .83.25 1.46 1.46 0 0 0 1.11-.48 1.9 1.9 0 0 0 .45-1.33c0-1.16-.78-2.28-2.35-3.34zM15 15.81a3 3 0 0 0 .5-1 4.31 4.31 0 0 0 .16-1.23 2.81 2.81 0 0 0-.5-1.79 1.28 1.28 0 0 0-1-.48 1.36 1.36 0 0 0-1 .44 1.5 1.5 0 0 0-.43 1.08 2.45 2.45 0 0 0 .48 1.37A6.36 6.36 0 0 0 15 15.81zm112.05 181.47a7 7 0 0 1 1.8 1.76 3.57 3.57 0 0 1 .5 1.88 3.25 3.25 0 0 1-1.12 2.5 4.27 4.27 0 0 1-3 1 4 4 0 0 1-2.81-.9 2.82 2.82 0 0 1-1-2.18 2.77 2.77 0 0 1 .57-1.73 5.07 5.07 0 0 1 1.91-1.35 7.37 7.37 0 0 1-1.86-1.82 3.11 3.11 0 0 1-.41-1.63 2.84 2.84 0 0 1 1-2.17 4.14 4.14 0 0 1 2.86-.93 4 4 0 0 1 2.7.82 2.6 2.6 0 0 1 .94 2 2.43 2.43 0 0 1-.51 1.53 4.53 4.53 0 0 1-1.57 1.22zm-2.49 1.44a1.94 1.94 0 0 0-.4.46 3.44 3.44 0 0 0-.32.92 5.32 5.32 0 0 0-.15 1.27 3.92 3.92 0 0 0 .22 1.42 1.59 1.59 0 0 0 .62.83 1.51 1.51 0 0 0 .82.25 1.48 1.48 0 0 0 1.12-.48 1.9 1.9 0 0 0 .45-1.33c0-1.16-.79-2.28-2.36-3.34zm1.81-1.91a3.16 3.16 0 0 0 .49-1 4.3 4.3 0 0 0 .17-1.23 2.75 2.75 0 0 0-.51-1.79 1.26 1.26 0 0 0-1-.48 1.37 1.37 0 0 0-1 .44 1.49 1.49 0 0 0-.42 1.08 2.51 2.51 0 0 0 .47 1.37 6.42 6.42 0 0 0 1.8 1.61z" fill="#7f664a"/></svg>