<svg xmlns="http://www.w3.org/2000/svg" viewBox="0 0 138.83 215.65"><path fill="#fff" d="M0 0h138.82v215.65H0z"/><path fill="none" stroke="#7f664a" stroke-miterlimit="10" stroke-width=".5" d="M6.94 8.91h124.94v199.82H6.94z"/><path d="M92.34 42.54a30.14 30.14 0 0 0-2.24-2.14 26.68 26.68 0 0 1 2.24 2.14zM47.59 87.09l.06.06zm-1.37-1.4c.44.48.9 1 1.37 1.4-.47-.45-.93-.92-1.37-1.4z" fill="#fdbb29"/><path d="M101 64.27a31.58 31.58 0 0 1-53.35 22.88 31.58 31.58 0 0 1 44.69-44.61A31.51 31.51 0 0 1 101 64.27zM45.93 85.38l.29.31z" fill="#fdbb29"/><path d="M44.52 83.71c.45.57.92 1.13 1.41 1.67-.49-.54-.93-1.1-1.41-1.67z" fill="#fdbb29"/><path d="M39 65.46a31.59 31.59 0 0 1 53.34-22.92 31.59 31.59 0 1 0-44.66 44.65A31.47 31.47 0 0 1 39 65.46z" fill="#ffde5d"/><circle cx="69.41" cy="64.26" r="22.5" fill="#f8a201"/><path d="m91.76 41.93-6.44 6.43a22.5 22.5 0 0 1-31.81 31.82l-6.44 6.43a31.6 31.6 0 0 0 44.69-44.68z" fill="#f7b600"/><path d="M91.91 64.26a22.42 22.42 0 0 0-6.72-16L53.38 80a22.49 22.49 0 0 0 38.53-15.74z" fill="#ed9406"/><path d="M69.41 44.16a22.49 22.49 0 0 1 22.47 21.3v-1.2a22.5 22.5 0 1 0-45 0v1.2a22.49 22.49 0 0 1 22.53-21.3z" fill="#f38d04"/><path fill="#ffde5d" d="m71.54 62.13 11.76 2.13-11.76 2.14-2.13 11.75-2.13-11.75-11.75-2.14 11.75-2.13 2.13-11.75 2.13 11.75z"/><path d="M92.34 129.66c-.72-.75-1.47-1.47-2.26-2.16a27.17 27.17 0 0 1 2.26 2.16zm-44.75 44.55.06.06zm-1.37-1.4zm-1.7-1.98c.45.57.92 1.13 1.41 1.67-.49-.5-.93-1.1-1.41-1.67z" fill="#fdbb29"/><path d="M101 151.39a31.58 31.58 0 0 1-53.36 22.88 31.58 31.58 0 0 1 44.69-44.61 31.51 31.51 0 0 1 8.67 21.73zM45.93 172.5l.29.31z" fill="#fdbb29"/><path d="M39 152.58a31.59 31.59 0 0 1 53.33-22.92 31.59 31.59 0 1 0-44.66 44.65A31.47 31.47 0 0 1 39 152.58z" fill="#ffde5d"/><circle cx="69.41" cy="151.39" r="22.5" fill="#f8a201"/><path d="m91.76 129.05-6.44 6.43a22.5 22.5 0 1 1-31.81 31.82l-6.44 6.43a31.6 31.6 0 0 0 44.69-44.68z" fill="#f7b600"/><path d="M91.91 151.39a22.42 22.42 0 0 0-6.72-16l-31.81 31.77a22.49 22.49 0 0 0 38.53-15.77z" fill="#ed9406"/><path d="M69.41 131.28a22.49 22.49 0 0 1 22.47 21.3v-1.19a22.5 22.5 0 0 0-45 0v1.19a22.49 22.49 0 0 1 22.53-21.3z" fill="#f38d04"/><path fill="#ffde5d" d="m71.54 149.25 11.76 2.14-11.76 2.13-2.13 11.75-2.13-11.75-11.75-2.13 11.75-2.14 2.13-11.75 2.13 11.75z"/><path fill="#e8850f" d="m71.54 153.52-2.13 11.75-2.13-11.75-10.43-1.89-1.32.23L67.28 154l2.13 11.75L71.54 154l11.76-2.14-1.32-.23-10.44 1.89zm0-87.12-2.13 11.75-2.13-11.75-10.43-1.9-1.32.24 11.75 2.14 2.13 11.75 2.13-11.75 11.76-2.14-1.32-.24-10.44 1.9z"/><path d="M16.58 23.2H9.37V23a40 40 0 0 0 4-5.31A5.68 5.68 0 0 0 14.1 15a2.23 2.23 0 0 0-.58-1.58 1.88 1.88 0 0 0-1.44-.62 2.36 2.36 0 0 0-2.16 1.39l-.33-.12a5 5 0 0 1 1.48-2.57 3.49 3.49 0 0 1 2.29-.83 3.39 3.39 0 0 1 1.7.44 3.16 3.16 0 0 1 1.2 1.18 2.91 2.91 0 0 1 .44 1.42 5.19 5.19 0 0 1-.7 2.46 23.24 23.24 0 0 1-4 4.66h2.65a6.44 6.44 0 0 0 1.35-.08 1 1 0 0 0 .48-.28 3.22 3.22 0 0 0 .5-.82h.33zm110 181h-7.21v-.2a40 40 0 0 0 4-5.31 5.68 5.68 0 0 0 .71-2.67 2.23 2.23 0 0 0-.58-1.58 1.88 1.88 0 0 0-1.44-.62 2.36 2.36 0 0 0-2.16 1.39l-.33-.12a5 5 0 0 1 1.48-2.57 3.49 3.49 0 0 1 2.29-.83 3.39 3.39 0 0 1 1.7.44 3.16 3.16 0 0 1 1.2 1.18 2.91 2.91 0 0 1 .44 1.42 5.19 5.19 0 0 1-.67 2.44 23.24 23.24 0 0 1-4 4.66h2.65a6.44 6.44 0 0 0 1.27-.08 1 1 0 0 0 .48-.28 3.22 3.22 0 0 0 .5-.82h.33z" fill="#7f664a"/></svg>