<svg xmlns="http://www.w3.org/2000/svg" viewBox="0 0 138.83 215.65"><path fill="#fff" d="M0 0h138.82v215.65H0z"/><path fill="none" stroke="#7f664a" stroke-miterlimit="10" stroke-width=".5" d="M63.24 208.74H6.94V8.91h54.37m16.21 0h54.36v199.83h-56.3"/><path d="M14.94 10.42v10a6.61 6.61 0 0 0 .1 1.44.94.94 0 0 0 .42.51 2 2 0 0 0 1 .2h.28v.33H10.3v-.33h.33a2.56 2.56 0 0 0 1.12-.18 1 1 0 0 0 .45-.5 5.51 5.51 0 0 0 .11-1.47v-6.33a3.88 3.88 0 0 0-.08-1.09.73.73 0 0 0-.3-.36.9.9 0 0 0-.51-.15 2.94 2.94 0 0 0-1.12.29l-.16-.32 4.51-2.06zm8.23 0v10a6.61 6.61 0 0 0 .1 1.44.94.94 0 0 0 .42.51 2 2 0 0 0 1 .2H25v.33h-6.47v-.33h.33a2.56 2.56 0 0 0 1.14-.16 1 1 0 0 0 .45-.5 5.51 5.51 0 0 0 .11-1.47v-6.35a3.88 3.88 0 0 0-.1-1.09.73.73 0 0 0-.3-.36.9.9 0 0 0-.51-.15 2.94 2.94 0 0 0-1.12.29l-.16-.32 4.51-2.06zm96.52 182.25v10a6.61 6.61 0 0 0 .1 1.44.94.94 0 0 0 .42.51 2 2 0 0 0 1 .2h.28v.33h-6.45v-.33h.33a2.56 2.56 0 0 0 1.12-.18 1 1 0 0 0 .45-.5 5.51 5.51 0 0 0 .11-1.47v-6.35a3.88 3.88 0 0 0-.08-1.07.73.73 0 0 0-.3-.36.9.9 0 0 0-.51-.15 2.94 2.94 0 0 0-1.12.29l-.16-.32 4.51-2.06zm8.23 0v10a6.61 6.61 0 0 0 .1 1.44.94.94 0 0 0 .42.51 2 2 0 0 0 1 .2h.28v.33h-6.45v-.33h.33a2.56 2.56 0 0 0 1.12-.18 1 1 0 0 0 .45-.5 5.51 5.51 0 0 0 .11-1.47v-6.35a3.88 3.88 0 0 0-.08-1.07.73.73 0 0 0-.3-.36.9.9 0 0 0-.51-.15 2.94 2.94 0 0 0-1.12.29l-.16-.32 4.51-2.06z" fill="#7f664a"/><path d="M81.31 186.86s.89 3.55 0 5.16c0 0-4.43 2.2-10.73-1.56 0 0 3.87-5.38 5.57-6.83z" fill="#484949"/><path d="M85.11 148.78s2.26 10.65 3.06 12.74 1.62 5.49 0 8.39S82 179.6 82 181.21s1.29 7.58-3.23 6.94-6-.16-5-2.26 2.26-5.49 3.07-5.49 5.64-10.6 5.64-11.91-.16-1.64-1.21-4.71-5.56-19.52-5.56-19.52z" fill="#4f352e"/><path d="M56.77 187.8s.88 3.55 0 5.16c0 0-4.44 2.2-10.73-1.56 0 0 3.86-5.38 5.56-6.83z" fill="#484949"/><path d="M53.72 137.81s4.28 12.89 5.42 15.38 2.63 6.57 1.58 10.42-4.25 12.95-3.95 14.95 2.7 9.23-1.88 9.11-5.94.69-5.37-2.06 1.2-7.16 2-7.28 3.59-14 3.35-15.65-.47-2-2.08-5.66S44 132.26 44 132.26z" fill="#4f352e"/><path d="M62.33 174.64s4.06-2 5.83-1c0 0 3.23 5.44-1.45 12.48a18.75 18.75 0 0 1-4.38-5.06zm41.61 11.47s2.79 1.81 1.34 7.49a10.5 10.5 0 0 1-11.62-.94 19.7 19.7 0 0 1 6-6.55z" fill="#484949"/><path d="M30.73 81.65s-4.36-2.09-5.32-6c0 0-2.75 6.62 3.38 10.49z" fill="#604238"/><path d="M113.85 120.75c5.58 4.21 7.32 12.27 5.38 19s-7 12.19-12.68 16.23a37.55 37.55 0 0 0-5.45 4.16 13.94 13.94 0 0 0-3.74 7.24c-.48 2.65 0 5.66 1.92 7.49-2.58-1.26-4.34-3.7-6-6.05a36.22 36.22 0 0 1-4.19-7.05 17.43 17.43 0 0 1 2.5-17.23c1.81-2.2 4.29-4.07 5-6.84a18.53 18.53 0 0 0 .23-4.15c.18-8.06 8.42-19.3 17.03-12.8z" fill="#4f352e"/><path d="M26.37 89.93a13 13 0 0 0 .49 2.59 16.31 16.31 0 0 0 1.05 2.71c4.16 8.66 4 13 3.65 14.64a3.55 3.55 0 0 1-.26.79 12.57 12.57 0 0 0 .7 2.15c1.14 2.66 3.88 6.66 9.7 5a29.72 29.72 0 0 0 .31 8.57 21.16 21.16 0 0 0 1.12 4.07 15.25 15.25 0 0 0 .82 1.86 15.21 15.21 0 0 0 10.57 8.18s-2.69 3.35-5.31 6.95c-2.28 3.14-4.52 6.47-4.86 7.89-.72 3.07-.48 4.52 0 5.49.42.82 2.6 8 8.5 13.54a23.06 23.06 0 0 0 3.37 2.64 9.58 9.58 0 0 0 .55 1c.89 1.42 2.83 3.88 5.56 3.88 0 0 2.47-4 0-7.22a4.62 4.62 0 0 0-3.2-1.73l-.84-1.27c-.89-1.35-2.36-3.63-3.71-5.93a29.86 29.86 0 0 1-3.2-6.59s.59-.69 1.58-1.7a40.76 40.76 0 0 1 5-4.36l.9-.63c3.58-2.45 8.26-4.88 7.81-8.73 0 0 9.2 9.6 27.83 5.25 0 0 3.88 11.43 6.06 15.89s1.21 13 0 15.12-3.15 3.6-1.94 6.26c0 0 .48 5.57 5.32 1.21 0 0 3.39-1.94 1.21-6a84.87 84.87 0 0 1 1.94-12.1c1.45-5.81 6-8.8 0-14 0 0-.45-8.79 3-13.39s6.64-18.41-11.75-28.33c0 0-22.75 0-30-9.78s-22.51-34-35.1-25.31c-.01-.04-7.55 3.52-6.87 11.39z" fill="#604238"/><path d="M98.34 113.59s2.53 17.47-3.75 27.65c0 0-19-10.53-28.68-10.86 0 0 6.93-21 5.32-26.94 0 0 16.77 10.95 27.11 10.15z" fill="#a3af31"/><path d="M28.6 84.76a4.64 4.64 0 0 1-4.44 3.06 14.18 14.18 0 0 0 4.58-.6 2 2 0 0 1-.82 2.08 2.12 2.12 0 0 0 2.8-1.25 7.75 7.75 0 0 1-.1 2 8 8 0 0 0 2.94-3.59c.88-1.74 3.23-6.8 0-7.53s-4.26 3.78-4.96 5.83zm18.55-7.86c1.72 1.18 2.72 3.1 3.85 4.83s2.76 3.43 4.83 3.62a22.09 22.09 0 0 1-2.24.8c2.35.85 4.8 1.85 6.22 3.85 1 1.46 1.45 3.38 2.86 4.47.91.71 2.19 1 2.8 2 .39.63.42 1.44.83 2.06a4.8 4.8 0 0 0 1.7 1.26 11.38 11.38 0 0 1 5.26 8 13.45 13.45 0 0 1-2.26 9.45 7.56 7.56 0 0 0-1.82-9.37A9 9 0 0 1 62.5 114a18.69 18.69 0 0 0 1.19-5.6 6.37 6.37 0 0 0-2.15-5.11 3.34 3.34 0 0 1-3.32 3.57 8.54 8.54 0 0 0-2.4-9.54 4.7 4.7 0 0 1-2.73 3.55 12.84 12.84 0 0 0-.6-7.23 5 5 0 0 1-2 2.22 8.4 8.4 0 0 0-3.75-8.49 13.44 13.44 0 0 1-1.95-1.24 7.07 7.07 0 0 1-1.25-1.63c-1-1.62-4.63-5.45-3.35-7.42s5.34-1.28 6.96-.18z" fill="#4f352e"/><path d="M42.19 80.52s1-6.29-8.39-8.06c0 0 2.09 5.48 1.13 9.19 0 0 5.97 2.75 7.26-1.13z" fill="#604238"/><path d="M26.37 89.93a13 13 0 0 0 .49 2.59A20.89 20.89 0 0 1 43 94.12l2.25-.85 5.93-5.92-3.26-1.82-4.26 5.32v1.25c-2.93-2.66-12.84-2.42-17.29-2.17zm4.93 20.73a12.57 12.57 0 0 0 .7 2.15c6-4.7 10.22-1.87 10.22-1.87l.74-2.18a16.35 16.35 0 0 0-11.4 1.11 3.55 3.55 0 0 1-.26.79zm13.7-1.25s20.55-4.64 24.3-10.69l1.94 4.72A39.62 39.62 0 0 1 45 112zm-3 16.93a21.16 21.16 0 0 0 1.12 4.07c3.41.75 15.88 2.78 26.42-5.07l-2.68-3s-9.21 6.78-24.86 4z" fill="#78b1ef"/><path d="M92.41 112.06s5.93 11.59-1.21 22.72l-21.06-7.38s6.39-14.46 5.62-21.27z" fill="#969b2c"/><path d="M46.56 95.55a4.44 4.44 0 0 1 .79 2 9 9 0 0 1 .16 2.14 20.55 20.55 0 0 1-.6 4.21 40.62 40.62 0 0 0-.72 4.06 14.9 14.9 0 0 0 0 4v.14a8.55 8.55 0 0 1-2.19 4.17 5.48 5.48 0 0 1-1.9 1.34 6.2 6.2 0 0 1-2.22.52 7.24 7.24 0 0 0 2.12-.83 6.36 6.36 0 0 0 1.62-1.43 7.7 7.7 0 0 0 1.05-1.87 10.34 10.34 0 0 0 .61-2v.2a13.07 13.07 0 0 1-.08-4.36 27.74 27.74 0 0 1 .84-4.17 26.88 26.88 0 0 0 .89-4 7.79 7.79 0 0 0-.37-4.12zm20.86 41.92a10.57 10.57 0 0 1 .34 3.43 6.39 6.39 0 0 1-.28 1.75 2.66 2.66 0 0 1-1 1.48 6.53 6.53 0 0 0 .27-1.63l.05-1.65a10.61 10.61 0 0 1 .62-3.38zm-8.33-2.14a23.06 23.06 0 0 1-2.25 2.76 22.3 22.3 0 0 1-2.59 2.43 7.81 7.81 0 0 1 1.86-3.12 7.93 7.93 0 0 1 2.98-2.07z" fill="#4f352e"/><ellipse cx="43.62" cy="93.27" rx="2.41" ry="3.69" transform="rotate(-36.58 43.62 93.284)" fill="#fdbb29"/><ellipse cx="42.96" cy="109.57" rx="2.04" ry="3.12" transform="rotate(-4.33 43.005 109.704)" fill="#fdbb29"/><ellipse cx="49.7" cy="128.78" rx="2.04" ry="3.12" transform="rotate(-4.33 49.696 128.897)" fill="#fdbb29"/><path d="M97.54 137.64a10.34 10.34 0 0 0-2.47 5.05c-.4 1.84-.41 3.79-.73 5.77a13.69 13.69 0 0 1-.24-6 8.22 8.22 0 0 1 1.17-2.84 5.28 5.28 0 0 1 2.27-1.98z" fill="#4f352e"/><ellipse cx="33.61" cy="22.67" rx="2.81" ry="2.29" fill="#ffb21a"/><path d="M33.61 20.38a3.51 3.51 0 0 0-.66.07 2.44 2.44 0 0 1 2.16 2.22A2.46 2.46 0 0 1 33 24.9a3.52 3.52 0 0 0 .66.06 2.59 2.59 0 0 0 2.81-2.29 2.59 2.59 0 0 0-2.86-2.29z" fill="#ff990b"/><path d="M40.73 69.67c-1.93-1.89-4.78-2.38-7.38-3.13-1.17-.34-2.51-1-2.69-2.17a3.3 3.3 0 0 1 .19-1.37 41.76 41.76 0 0 1 1.43-4.07c.34-.84 1.76-.16 2.48.39a5.76 5.76 0 0 1 2.1 2.6 15 15 0 0 0 .62 2.54A5.31 5.31 0 0 0 40 66.3c.93.48 1.91 1.18 2 2.22a1.15 1.15 0 0 1-.19.83c-.18.23-.87.53-1.08.32z" fill="#f9c18a"/><path fill="#5b595b" d="M29.08 53.74h10.13v4.65H29.08z"/><path fill="#484349" d="M37.04 53.74h2.18v4.65h-2.18z"/><ellipse cx="34.15" cy="31.93" rx="10.7" ry="8.71" fill="#a3af31"/><path d="M24.49 31.93c0-4.66 4.51-8.47 10.18-8.69h-.52c-5.91 0-10.7 3.89-10.7 8.7s4.79 8.71 10.7 8.71h.52c-5.67-.24-10.18-4.05-10.18-8.72z" fill="#b5bc35"/><path d="M34.15 23.23a12.32 12.32 0 0 0-1.37.07c5.27.54 9.34 4.2 9.34 8.63s-4.07 8.1-9.34 8.64a12.32 12.32 0 0 0 1.37.07c5.9 0 10.69-3.9 10.69-8.71s-4.79-8.7-10.69-8.7z" fill="#969b2c"/><path d="M25.63 58.39h17a2.17 2.17 0 0 1 2.17 2.17v1.93H23.45v-1.93a2.17 2.17 0 0 1 2.17-2.17z" fill="#ffb21a"/><path d="M27 58.39h-1a2.48 2.48 0 0 0-2.48 2.48v1.62h.98v-1.62a2.48 2.48 0 0 1 2.5-2.48z" fill="#fdd224"/><path d="M42.36 58.39H37.3a2.48 2.48 0 0 1 2.48 2.48v1.62h5.06v-1.62a2.48 2.48 0 0 0-2.48-2.48z" fill="#ff990b"/><path d="M34.14 54.79c-10.5 0-17.56-7.57-15.67-14.47a7.36 7.36 0 0 1 .34-1c.23-.56.49-1.11.77-1.65A31.11 31.11 0 0 1 22.51 33a44.74 44.74 0 0 1 3.63-4.21h15.69A44.74 44.74 0 0 1 45.66 33a30.22 30.22 0 0 1 2.76 4.09c.39.72.75 1.45 1.06 2.19a7.67 7.67 0 0 1 .27.76c2.14 6.96-4.97 14.75-15.61 14.75z" fill="#bc1b21"/><path d="M19.44 39.31A29.65 29.65 0 0 1 23.15 33a44.74 44.74 0 0 1 3.63-4.21h-.64A44.74 44.74 0 0 0 22.51 33a29.2 29.2 0 0 0-3.7 6.28c-2.92 7.15 4.32 15.48 15.33 15.48h.32c-10.83-.14-17.9-8.37-15.02-15.45z" fill="#c62430"/><path d="M39.21 54.17V55a20.68 20.68 0 0 1-10.13 0v-.8a20 20 0 0 0 5.06.63 20.53 20.53 0 0 0 5.07-.66z" fill="#39373a"/><path d="M49.48 39.31A26.77 26.77 0 0 0 45.65 33a43.34 43.34 0 0 0-3.82-4.21h-4.35A44.74 44.74 0 0 1 41.31 33a26.73 26.73 0 0 1 3.82 6.28C47.86 46 41.75 53.67 32 54.68c.71.07 1.43.11 2.17.11 11 0 18.24-8.33 15.31-15.48z" fill="#96151f"/><path d="M47.08 30.92A2.38 2.38 0 0 1 44.49 33H23.8a2.38 2.38 0 0 1-2.59-2.11 2.38 2.38 0 0 1 2.59-2.1h20.69a2.38 2.38 0 0 1 2.59 2.13z" fill="#ffb21a"/><path d="M23.94 30.92a2.38 2.38 0 0 1 2.58-2.1H23.8a2.38 2.38 0 0 0-2.59 2.1A2.38 2.38 0 0 0 23.8 33h2.72a2.38 2.38 0 0 1-2.58-2.08z" fill="#fdd224"/><path d="M44.49 28.82h-5.06a2.37 2.37 0 0 1 2.57 2.1A2.37 2.37 0 0 1 39.43 33h5.06a2.38 2.38 0 0 0 2.59-2.11 2.38 2.38 0 0 0-2.59-2.07z" fill="#ff990b"/><path fill="#ffb21a" d="m34.15 46.69-3.54-2.88 3.54-2.88 3.54 2.88-3.54 2.88z"/><path fill="#96151f" d="m34.78 46.69-3.54-2.88 3.54-2.88 3.54 2.88-3.54 2.88z"/><path fill="#ffb21a" d="m34.15 46.69-3.54-2.88 3.54-2.88 3.54 2.88-3.54 2.88z"/><path fill="#ff990b" d="m34.15 40.93-.32.26 3.22 2.62-3.22 2.62.32.26 3.54-2.88-3.54-2.88z"/><path d="M49.75 40.07 46.84 36l-3.17 4.46L40.51 36l-3.16 4.46L34.19 36 31 40.45 27.86 36l-3.16 4.45L21.54 36l-3.07 4.32 1.11-2.65 2-2.76 3.16 4.46 3.16-4.46 3.1 4.44 3.17-4.46 3.16 4.46 3.16-4.46 3.16 4.46 3.17-4.46 1.58 2.23c.39.72.75 1.45 1.06 2.19a7.67 7.67 0 0 1 .29.76z" fill="#ffb21a"/><path d="M49.75 40.07a.88.88 0 0 0-.05-.15c-.06-.18-.12-.37-.2-.55-.14-.35-.3-.69-.46-1 0-.07-.07-.14-.11-.22l-.4-.77-.12-.21-1.55-2.19-2.27 3.19c.11.22.21.44.31.66l2-2.75 2.9 4.09z" fill="#ff990b"/><path d="M70.44 44.55c-1.3 1.5-1.51 3.62-2 5.55S67 54.15 65 54.59a3 3 0 0 0 3.5.34 6.72 6.72 0 0 1-4.6 5.52 4.62 4.62 0 0 0 3.76-.36A6 6 0 0 1 65.15 64a6.29 6.29 0 0 0 3.62-.1 3 3 0 0 0 4.72 3.23C75.38 65.8 75.15 63 76 60.82a26.08 26.08 0 0 1 1.36-2.49 13.51 13.51 0 0 0 .81-10.9C77 44 73.68 40.84 70.44 44.55z" fill="#b27238"/><path d="m94.72 70.38 4.12-3.72S86.7 55.8 68.57 64.13l1.57 6.25 16.1 2.08-1.82 18.88 10.17 22.1s9.31-.17 11.49-8c0 0-9.44-12.58-10.77-26.51z" fill="#96151f"/><path d="M81.61 101.23a10.77 10.77 0 0 0-4.28-1 5.66 5.66 0 0 0-4 1.59 3.88 3.88 0 0 0-.9 4.08 4.55 4.55 0 0 0 1.23 1.59 8.92 8.92 0 0 0 3.13 1.63c2.26.7 5 .66 6.67-1A5.72 5.72 0 0 0 85 103.6c-.36-1.44-2.17-1.85-3.39-2.37z" fill="#78b1ef"/><path fill="#f9c18a" d="m85.15 64.13.09 9.64-8.22.22v-9.28l8.13-.58z"/><path fill="#ea9f54" d="m85.15 64.13-3.07.22.09 9.42-5.15.13v.09l8.22-.22-.09-9.64z"/><ellipse cx="79.58" cy="54.39" rx="10.04" ry="12.75" fill="#f9c18a"/><path d="M79.58 41.64a8.12 8.12 0 0 0-1.21.1c5 .76 8.83 6.13 8.83 12.65S83.35 66.27 78.37 67a8.12 8.12 0 0 0 1.21.1c5.55 0 10-5.7 10-12.74s-4.45-12.72-10-12.72z" fill="#ea9f54"/><path d="M82.68 48.43a24.55 24.55 0 0 1 .17 3.57 12.39 12.39 0 0 0 3.39 7.89 1.36 1.36 0 0 1 .39-2c.65 2 1 4.07 2.07 5.87s3.07 3.25 5.11 2.82a4.31 4.31 0 0 1-1.38-3.38 11.2 11.2 0 0 0 3.37 1.46 3.71 3.71 0 0 0 3.41-.91c-2.6-1.07-4.11-3.81-4.95-6.5s-1.22-5.54-2.55-8c-2.16-4-8.91-8-13.39-5.53 2.09.9 3.88 2.28 4.36 4.71z" fill="#b27238"/><path d="M69.54 73.91s-6.05 4-25.54-3.75l2.18-4.35c11.62 4.37 22.27 3.26 23.11 3.38z" fill="#a3af31"/><path d="M44.66 68.84 44 70.16c19.49 7.74 25.54 3.75 25.54 3.75l-.08-1.53c-.76.42-7.09 3.36-24.8-3.54z" fill="#969b2c"/><circle cx="71.71" cy="71.62" r="5.81" fill="#78b1ef"/><path d="M71.71 65.81a6 6 0 0 0-1 .09 5.8 5.8 0 0 1 0 11.44 5 5 0 0 0 1 .09 5.81 5.81 0 0 0 0-11.62z" fill="#659cce"/><path d="M67.9 76s7.93-1.76 8.9-6.6c0 .04-2.12 7.91-8.9 6.6z" fill="#a3af31"/><path d="M39.1 61.36c-.56-1.09-1.05-2.35-2.12-3a5.1 5.1 0 0 0-1.9-.51c-.55-.07-1.26-.06-1.49.45a.93.93 0 0 0 .19.92 3 3 0 0 0 .78.59A4.9 4.9 0 0 1 36 61.1a2.22 2.22 0 0 1 .39 1.79c-.24.89-1.18 1.54-1.18 2.46a.4.4 0 0 0 .08.26.39.39 0 0 0 .21.11 26.84 26.84 0 0 0 4.54.91 2.5 2.5 0 0 0 1 0 1.68 1.68 0 0 0 1-1.26c.45-2.09-2.04-2.31-2.94-4.01z" fill="#f9c18a"/><path d="M39.1 61.36c-.56-1.09-1.05-2.35-2.12-3a5.1 5.1 0 0 0-1.9-.51A2.33 2.33 0 0 0 34 58a4.11 4.11 0 0 1 1.38.43c1.07.6 1.55 1.86 2.12 3 .87 1.7 3.39 1.92 2.93 4a1.72 1.72 0 0 1-1 1.23l.49.08a2.5 2.5 0 0 0 1 0 1.68 1.68 0 0 0 1-1.26c.57-2.2-1.92-2.42-2.82-4.12z" fill="#ea9f54"/><path d="M82.43 107.19s7.1-.12 5.45 7.38c0 0-3.1 7.26-15.2 13 0 0 4 1.45 4.12 9.8s2.65 9.51 2.65 9.51 1.78-.39 1 2.92-7 6.93-12.08 5.12c0 0-2.42-1.33 0-3s5.69-2.28 6.11-3.56c0 0-3.57-7.45-4.3-9.75s-4.13-9.17-4.23-12.34 6.62-17.75 16.48-19.08z" fill="#fdbb29"/><path d="M82.43 107.19a10.83 10.83 0 0 0-1.11.21c2 .48 4.94 2 3.82 7.17 0 0-3.1 7.26-15.2 13 0 0 4 1.45 4.11 9.8s2.66 9.51 2.66 9.51 1.78-.39 1 2.92c-.6 2.4-4 5-7.78 5.49 4.71.71 9.78-2.52 10.53-5.49.82-3.31-1-2.92-1-2.92s-2.53-1.16-2.65-9.51-4.12-9.8-4.12-9.8c12.1-5.69 15.2-13 15.2-13 1.64-7.5-5.46-7.38-5.46-7.38z" fill="#ff990b"/><path d="M73.37 72.46s-5 19.84 5.52 35l11.34-1.34s7.28-15.26 2.66-30.32l-1.57-6.62L86.3 71l-8.78.65-2.2-.57z" fill="#4f4543"/><path fill="#3f3a39" d="m76.58 71.37-1.26-.32-.65.47 1.91-.15zm16.31 4.44-1.57-6.62-3.95 1.4 1.25 5.22C93.23 90.87 86 106.13 86 106.13l-7.36.87.3.47 11.34-1.34s7.23-15.26 2.61-30.32z"/><path d="M86.82 72.94a12.23 12.23 0 0 1-2.68 4.5 5 5 0 0 1-4.84 1.38 5.73 5.73 0 0 1-2.3-1.65 11.93 11.93 0 0 1-3-6.29" fill="none"/><path d="M91.47 90.57a12.8 12.8 0 0 1-1.14 3.08A9.54 9.54 0 0 1 87 96.84a37.42 37.42 0 0 1-7.78 3.32 5.82 5.82 0 0 1-3.25.43 2 2 0 0 1-1.5-2.49A2.93 2.93 0 0 1 76 96.89l6.9-3.24a6.09 6.09 0 0 0 2.31-1.57 6 6 0 0 0 1-3L87.68 77a6 6 0 0 1 .81-2.74c1.1-1.59 3.63-1.69 5.17-.51a5.94 5.94 0 0 1 2 5.22 3.47 3.47 0 0 1-1.11 2.53c-.12-.08-.26-.15-.37-.23-1.47 2.61-1.9 6.39-2.71 9.3z" fill="#a3af31"/><path d="M93.66 73.73a4 4 0 0 0-3.57-.61 3.83 3.83 0 0 1 1.23.61 5.94 5.94 0 0 1 2 5.22 3.47 3.47 0 0 1-1.11 2.53c-.12-.08-.26-.15-.37-.23-1.43 2.63-1.86 6.41-2.67 9.32A12.8 12.8 0 0 1 88 93.65a9.54 9.54 0 0 1-3.34 3.19 37.42 37.42 0 0 1-7.78 3.32c-.37.12-.75.25-1.14.34l.23.09a5.82 5.82 0 0 0 3.25-.43A37.42 37.42 0 0 0 87 96.84a9.54 9.54 0 0 0 3.34-3.19 12.8 12.8 0 0 0 1.14-3.08c.81-2.91 1.24-6.69 2.67-9.32.11.08.25.15.37.23a3.47 3.47 0 0 0 1.1-2.48 5.94 5.94 0 0 0-1.96-5.27z" fill="#969b2c"/><path d="M72.3 98.18c-1.51.46-3.11-.84-4.66-.5a3 3 0 0 0-1.12.52 4.42 4.42 0 0 0-1.92 4.12c.2.21.55 0 .79-.14l2.13-1.62a3.16 3.16 0 0 0 1.84 2.23 7 7 0 0 0 2.88.44 3 3 0 0 0 1.25-.22 2.14 2.14 0 0 0 .85-2.66 5.25 5.25 0 0 0-2.04-2.17z" fill="#f9c18a"/><path d="M73.49 102.17a2.94 2.94 0 0 1-1.25.21 6.86 6.86 0 0 1-2.88-.44 3.16 3.16 0 0 1-1.84-2.22l-2.13 1.62c-.24.17-.59.35-.79.14a.19.19 0 0 0 0-.08 3.55 3.55 0 0 0 0 .92c.2.21.55 0 .79-.14l2.13-1.62a3.16 3.16 0 0 0 1.84 2.23 7 7 0 0 0 2.88.44 3 3 0 0 0 1.25-.22 2.06 2.06 0 0 0 1-2.25 1.83 1.83 0 0 1-1 1.41z" fill="#ea9f54"/><path d="M98 108a9.27 9.27 0 0 1-12.22 8.78l-.21-.07a9.33 9.33 0 0 1-5.47-5.38 9.47 9.47 0 0 1-.62-3.33 9.26 9.26 0 0 1 9.26-9.26h1.2a9.25 9.25 0 0 1 5.66 3 3.31 3.31 0 0 1 .25.3A9.17 9.17 0 0 1 98 108z" fill="#78b1ef"/><path d="M95.82 102.05a3.31 3.31 0 0 0-.25-.3 9.18 9.18 0 0 0-2.14-1.75l.22.26a9.26 9.26 0 0 1-7.12 15.19 9.33 9.33 0 0 1-3-.49l-.2-.07a8.6 8.6 0 0 1-1.5-.71 9.12 9.12 0 0 0 3.67 2.49l.21.07A9.27 9.27 0 0 0 98 108a9.17 9.17 0 0 0-2.18-5.95z" fill="#659cce"/><ellipse cx="79.26" cy="80.93" rx="2.04" ry="3.12" transform="rotate(-4.33 79.32 81.011)" fill="#fdbb29"/><path d="M81.29 80.77c-.13-1.72-1.15-3-2.27-3a1.32 1.32 0 0 0-.47.13 3.27 3.27 0 0 1 1.61 2.83 3.16 3.16 0 0 1-1.33 3.15 1.36 1.36 0 0 0 .66.12c1.13 0 1.93-1.51 1.8-3.23z" fill="#ff990b"/><path d="M46.26 64.32a.49.49 0 0 1 .26.18.47.47 0 0 1 0 .31 12.83 12.83 0 0 1-2.62 6 2 2 0 0 1-.78.68 1.93 1.93 0 0 1-.83.08 11.84 11.84 0 0 1-4.31-1c.6.3 2.89-5 3.06-5.59.39-1.24.26-1.66 1.64-1.55a12.85 12.85 0 0 1 3.58.89z" fill="#fdbb29"/><path d="M46.28 64.33a12.75 12.75 0 0 1-2.35 4.82 1.57 1.57 0 0 1-1.61.76 12.23 12.23 0 0 1-3.24-.62c-.46.81-.86 1.39-1.07 1.28a11.89 11.89 0 0 0 4.31 1 1.93 1.93 0 0 0 .83-.08 2 2 0 0 0 .78-.68 12.83 12.83 0 0 0 2.62-6 .47.47 0 0 0 0-.31.43.43 0 0 0-.27-.17z" fill="#ff990b"/><path d="M86.64 69.56a1.94 1.94 0 0 0-1.64.74 6.19 6.19 0 0 1-1.37 1.29 1 1 0 0 1-.36.12c-.35 0-.61-.35-.69-.7a7.18 7.18 0 0 0-.19-1c-.37-.93-1.8-1-2.54-.27-.52.46-.94 1.21-1.64 1.19s-1-.65-1.42-1.15-1.16-.92-1.6-.48-.4.88-.8.83c-.23 0-.36-.29-.54-.44a.87.87 0 0 0-1.16.29 2.51 2.51 0 0 0-.33 1.27 4 4 0 0 0 .29 2.37 1.39 1.39 0 0 0 2.05.47c.11-.11.2-.26.35-.31.4-.15.62.45.79.85a2 2 0 0 0 2.3 1A3.84 3.84 0 0 0 80.28 74c.71.34 1 1.23 1.69 1.63a1.56 1.56 0 0 0 2.13-.75 2.7 2.7 0 0 0 2.71.84 2.31 2.31 0 0 0 1.65-2.23c-.05-1.08-.46-3.67-1.82-3.93z" fill="#fff"/><path d="M99.67 74.88a7.25 7.25 0 0 1-5.61 7.06 4 4 0 0 1-.64.12 5.58 5.58 0 0 1-1 .08 7.12 7.12 0 0 1-4.32-1.44 4 4 0 0 1-.6-.5 7.24 7.24 0 0 1 2.2-12h.06a7 7 0 0 1 2.66-.51 7.13 7.13 0 0 1 3.85 1.11 7.24 7.24 0 0 1 3.4 6.08z" fill="#78b1ef"/><path d="M96.31 68.76a7.13 7.13 0 0 0-3.85-1.11 7.46 7.46 0 0 0-1.43.14 7 7 0 0 1 2.5 1 7.26 7.26 0 0 1-2.25 13.18L91 82a7 7 0 0 0 1.39.15 5.58 5.58 0 0 0 1-.08 4 4 0 0 0 .64-.12 7.25 7.25 0 0 0 2.25-13.18z" fill="#659cce"/><path d="M80.39 102.65a7.68 7.68 0 0 0-5.68.56 2.22 2.22 0 0 0-.84.56 1.51 1.51 0 0 0 0 1.72 4.3 4.3 0 0 0 1.38 1.19l2.75 1.71a7.15 7.15 0 0 0 1.66.88 2.49 2.49 0 0 0 1.84-.06A3.66 3.66 0 0 0 83 107c.34-.89 1.09-2.08.4-3-.51-.51-2.3-1.08-3.01-1.35z" fill="#78b1ef"/><path d="M74.68 95.58a.72.72 0 0 1 .89.36 14.61 14.61 0 0 1 2.77 6 1 1 0 0 1-.55 1.29 10.72 10.72 0 0 1-4.36 1.35A12.09 12.09 0 0 0 71.27 98a1.06 1.06 0 0 1-.27-.68c.08-.99 2.93-1.63 3.68-1.74z" fill="#fdbb29"/><path d="M71 97.27a1.06 1.06 0 0 0 .27.68c.1.14.2.3.29.44a11.21 11.21 0 0 0-.56-1.12zm7.34 4.73a15.83 15.83 0 0 0-.43-1.64.69.69 0 0 1-.08.28 1.32 1.32 0 0 1-.59.47 12.49 12.49 0 0 1-4.09 1.26 12.25 12.25 0 0 1 .28 2.27 10.72 10.72 0 0 0 4.36-1.35 1 1 0 0 0 .55-1.29z" fill="#ff990b"/><path d="M120.67 48.4a10.21 10.21 0 0 1-7.74 4.6 6.87 6.87 0 0 1-2.47-.25 6.19 6.19 0 0 1-.95-.41l.4-1.94-1.31 1.37a23.79 23.79 0 0 1-2.15-1.87 20.56 20.56 0 0 0-5.72-4 6.11 6.11 0 0 0-3.11-.61 17.15 17.15 0 0 0-3.46 1.27 6.65 6.65 0 0 1-.76.23 7.9 7.9 0 0 1-6.14-1c-9.05-5.87 1-12.68 8.18-13.25l.92 2.26.48-2.28a7.43 7.43 0 0 1 1 .09c5.74.91 10.64 5 13.67 9.92 1.07 1.77 2 3.69 3.51 5.07a5.64 5.64 0 0 0 3.53 1.4 3.48 3.48 0 0 0 2.12-.6z" fill="#78b1ef"/><path d="M99.37 37.53c2.27 1.31 3.58 3.77 5.37 5.7a14.5 14.5 0 0 0 7.09 4.19 10.16 10.16 0 0 1-7-2.28c-1.45-1.19-2.55-2.78-4-4-3.59-2.83-8.4-2.31-11.94.2-2-1.84 2.26-3.67 3.55-4.16a8.17 8.17 0 0 1 6.93.35z" fill="#88c3ea"/><path d="M120.67 48.4a10.21 10.21 0 0 1-7.74 4.6 6.87 6.87 0 0 1-2.47-.25 6.19 6.19 0 0 1-.95-.41l.4-1.94-1.31 1.37a23.79 23.79 0 0 1-2.15-1.87 20.56 20.56 0 0 0-5.72-4 6.11 6.11 0 0 0-3.11-.61 17.15 17.15 0 0 0-3.46 1.27 6.65 6.65 0 0 1-.76.23l-.92-.55s4.69-4 12.59.65c6.85 4.06 10.19 5.21 13.48 2.17a3.48 3.48 0 0 0 2.12-.66z" fill="#659cce"/><path d="M100.59 51.07a6 6 0 0 1-2.39 2.09c-2.16 1-4.78.43-6.81-.8-.2-.13-.41-.25-.6-.4a35.75 35.75 0 0 1-4.7-4.35 14.29 14.29 0 0 0-5.83-4c-2.67-.79-4.79.09-7.15 1.24-2 1-4.37.54-5.31-1.87a5.44 5.44 0 0 1 .7-4.82 10.67 10.67 0 0 1 3.8-3.25c3.84-2.15 8.82-3 12.58-.67 2.19 1.34 3.68 3.53 5.31 5.51a17 17 0 0 0 2.32 2.4 8 8 0 0 0 3.84 1.93 12.38 12.38 0 0 1 3.3.54c2.24 1.07 2.35 4.38.94 6.45z" fill="#bc1b21"/><path d="M100.59 51.07a6 6 0 0 1-2.39 2.09c-2.16 1-4.78.43-6.81-.8-.2-.13-.41-.25-.6-.4 2.69-2.51 2.49-6.55 1.72-9.79a8 8 0 0 0 3.84 1.93 12.38 12.38 0 0 1 3.3.54c2.24 1.05 2.35 4.36.94 6.43z" fill="#96151f"/><path d="M88.09 80.7a4 4 0 0 1-.6-.5c3.43-6.2 2.56-10.77 2.2-12h.06c3.51 6.61.44 10.69-1.66 12.5zm5.97 1.24a4 4 0 0 1-.64.12c4.35-7 3.17-12.21 2.84-13.32 4.01 7.46-.18 11.7-2.2 13.2zM66 70.83s5.08-4.41 10-3c0-.02-5.19-3.29-10 3z" fill="#a3af31"/><path d="m85.75 116.76-.21-.07c6.69-2.61 9.41-12.33 10-14.94a3.31 3.31 0 0 1 .25.3c1.21 12.05-7.62 14.32-10.04 14.71zm4.16-17.96c-1.2 9.42-6 12.45-9.43 13.42a9.34 9.34 0 0 1-.41-.91c6.05-3.4 8.66-9.66 9.57-12.54z" fill="#fdbb29"/></svg>