<svg xmlns="http://www.w3.org/2000/svg" viewBox="0 0 138.83 215.65"><path fill="#fff" d="M0 0h138.82v215.65H0z"/><path fill="none" stroke="#7f664a" stroke-miterlimit="10" stroke-width=".5" d="M63.24 208.74H6.94V8.91h54.37m16.21 0h54.36v199.83h-56.3"/><path fill="#5b595b" d="M30.35 123.12h12.81V129H30.35z"/><path fill="#484349" d="M40.4 123.12h2.75V129H40.4z"/><ellipse cx="36.75" cy="84.27" rx="3.44" ry="2.8" fill="#ffb21a"/><path d="M36.75 81.47a4.28 4.28 0 0 0-.81.08 2.72 2.72 0 0 1 0 5.44 4.28 4.28 0 0 0 .81.08c1.9 0 3.44-1.25 3.44-2.8s-1.54-2.8-3.44-2.8z" fill="#ff990b"/><ellipse cx="36.75" cy="95.56" rx="13.52" ry="11.01" fill="#a3af31"/><path d="M24.54 95.56c0-5.9 5.71-10.72 12.87-11h-.66c-7.47 0-13.53 4.93-13.53 11s6.06 11 13.53 11h.66c-7.16-.29-12.87-5.1-12.87-11z" fill="#b5bc35"/><path d="M36.75 84.55a16.09 16.09 0 0 0-1.72.09c6.65.69 11.8 5.31 11.8 10.92S41.68 105.79 35 106.47a16.06 16.06 0 0 0 1.72.1c7.47 0 13.52-4.93 13.52-11s-6.02-11.02-13.49-11.02z" fill="#969b2c"/><path d="M28.41 129h16.67a5.19 5.19 0 0 1 5.19 5.19h-27a5.19 5.19 0 0 1 5.14-5.19z" fill="#ffb21a"/><path d="M27.68 129h-1.32a3.13 3.13 0 0 0-3.13 3.13v2.05h1.32v-2.05a3.13 3.13 0 0 1 3.13-3.13z" fill="#fdd224"/><path d="M47.14 129h-6.41a3.14 3.14 0 0 1 3.14 3.13v2.05h6.4v-2.05a3.13 3.13 0 0 0-3.13-3.13z" fill="#ff990b"/><path d="M36.74 124.45c-13.27 0-22.21-9.57-19.82-18.29a11.79 11.79 0 0 1 .42-1.27c.3-.71.63-1.4 1-2.09A40.26 40.26 0 0 1 22 96.94a56.53 56.53 0 0 1 4.59-5.32h19.87a54.23 54.23 0 0 1 4.84 5.32 37.19 37.19 0 0 1 3.49 5.17 30.74 30.74 0 0 1 1.35 2.77c.12.32.24.64.34 1 2.7 8.77-6.29 18.57-19.74 18.57z" fill="#bc1b21"/><path d="M18.16 104.88a37.75 37.75 0 0 1 4.68-7.94 58 58 0 0 1 4.59-5.32h-.8A56.53 56.53 0 0 0 22 96.94a36.91 36.91 0 0 0-4.68 7.94c-3.69 9 5.46 19.57 19.39 19.57h.4c-13.66-.21-22.6-10.61-18.95-19.57z" fill="#c62430"/><path d="M43.15 123.66v1a26.32 26.32 0 0 1-12.8 0v-1a26.32 26.32 0 0 0 12.8 0z" fill="#39373a"/><path d="M56.14 104.88a34.2 34.2 0 0 0-4.84-7.94 54.23 54.23 0 0 0-4.84-5.32H41a54.23 54.23 0 0 1 4.84 5.32 33.86 33.86 0 0 1 4.84 7.94c3.4 8.43-4.32 18.12-16.68 19.43a27.36 27.36 0 0 0 2.75.14c13.93 0 23.08-10.53 19.39-19.57z" fill="#96151f"/><path d="M53.09 94.28a3 3 0 0 1-3.26 2.66H23.67c-1.81 0-3.27-1.19-3.27-2.66 0-1.47 1.46-2.66 3.27-2.66h26.16a3 3 0 0 1 3.26 2.66z" fill="#ffb21a"/><path d="M23.84 94.28c0-1.47 1.47-2.66 3.27-2.66h-3.44c-1.81 0-3.27 1.19-3.27 2.66s1.46 2.66 3.27 2.66h3.44c-1.8 0-3.27-1.19-3.27-2.66z" fill="#fdd224"/><path d="M49.83 91.62h-6.41c1.81 0 3.27 1.19 3.27 2.66s-1.46 2.66-3.27 2.66h6.41a2.72 2.72 0 1 0 0-5.32z" fill="#ff990b"/><path fill="#ffb21a" d="m36.75 114.21-4.48-3.64 4.48-3.64 4.47 3.64-4.47 3.64z"/><path fill="#96151f" d="m37.55 114.21-4.47-3.64 4.47-3.64 4.48 3.64-4.48 3.64z"/><path fill="#ffb21a" d="m36.75 114.21-4.48-3.64 4.48-3.64 4.47 3.64-4.47 3.64z"/><path fill="#ff990b" d="m36.75 106.93-.4.32 4.07 3.32-4.07 3.31.4.33 4.47-3.64-4.47-3.64z"/><path d="m56.48 105.84-3.67-5.16-4 5.63-4-5.63-4 5.63-4-5.63-4 5.63-4-5.63-4 5.63-4-5.63-3.88 5.46 1.4-3.36 2.47-3.49 4 5.64 4-5.64 4 5.64 4-5.64 4 5.64 4-5.64 4 5.64 4-5.64 2 2.82a30.74 30.74 0 0 1 1.35 2.77c.11.32.23.64.33.96z" fill="#ffb21a"/><path d="m56.48 105.84-.06-.18c-.07-.24-.16-.47-.25-.7-.19-.44-.39-.87-.59-1.3l-.14-.27c-.16-.33-.33-.66-.51-1l-.14-.27-2-2.77-2.87 4c.14.28.27.55.4.83l2.47-3.47 3.67 5.16z" fill="#ff990b"/><path fill="#5b595b" d="M30.35 62.51h12.81v5.88H30.35z"/><path fill="#484349" d="M40.4 62.51h2.75v5.88H40.4z"/><ellipse cx="36.75" cy="23.66" rx="3.44" ry="2.8" fill="#ffb21a"/><path d="M36.75 20.86a4.28 4.28 0 0 0-.81.08 3 3 0 0 1 2.64 2.72 3 3 0 0 1-2.64 2.72 4.28 4.28 0 0 0 .81.08c1.9 0 3.44-1.25 3.44-2.8s-1.54-2.8-3.44-2.8z" fill="#ff990b"/><ellipse cx="36.75" cy="34.95" rx="13.52" ry="11.01" fill="#a3af31"/><path d="M24.54 35c0-5.9 5.71-10.72 12.87-11h-.66c-7.47 0-13.53 4.93-13.53 11s6.06 11 13.53 11h.66c-7.16-.34-12.87-5.15-12.87-11z" fill="#b5bc35"/><path d="M36.75 23.94A16.09 16.09 0 0 0 35 24c6.65.69 11.8 5.31 11.8 10.92S41.68 45.18 35 45.87c.56.05 1.13.09 1.72.09C44.22 46 50.27 41 50.27 35s-6.05-11.06-13.52-11.06z" fill="#969b2c"/><path d="M28.41 68.39h16.67a5.19 5.19 0 0 1 5.19 5.19h-27a5.19 5.19 0 0 1 5.14-5.19z" fill="#ffb21a"/><path d="M27.68 68.39h-1.32a3.13 3.13 0 0 0-3.13 3.13v2h1.32v-2a3.13 3.13 0 0 1 3.13-3.13z" fill="#fdd224"/><path d="M47.14 68.39h-6.41a3.14 3.14 0 0 1 3.14 3.13v2h6.4v-2a3.13 3.13 0 0 0-3.13-3.13z" fill="#ff990b"/><path d="M36.74 63.84c-13.27 0-22.21-9.56-19.82-18.29a11.79 11.79 0 0 1 .42-1.27c.3-.71.63-1.4 1-2.09A40.26 40.26 0 0 1 22 36.33 56.53 56.53 0 0 1 26.63 31h19.83a54.23 54.23 0 0 1 4.84 5.32 37.19 37.19 0 0 1 3.49 5.17 29.32 29.32 0 0 1 1.35 2.76c.12.32.24.64.34 1 2.7 8.75-6.29 18.59-19.74 18.59z" fill="#bc1b21"/><path d="M18.16 44.27a37.75 37.75 0 0 1 4.68-7.94A58 58 0 0 1 27.43 31h-.8A56.53 56.53 0 0 0 22 36.33a36.91 36.91 0 0 0-4.68 7.94c-3.69 9 5.46 19.57 19.39 19.57h.4c-13.66-.21-22.6-10.61-18.95-19.57z" fill="#c62430"/><path d="M43.15 63.06v1a26.32 26.32 0 0 1-12.8 0v-1a25.59 25.59 0 0 0 6.39.79 26.18 26.18 0 0 0 6.41-.79z" fill="#39373a"/><path d="M56.14 44.27a34.2 34.2 0 0 0-4.84-7.94A54.23 54.23 0 0 0 46.46 31H41a54.23 54.23 0 0 1 4.84 5.32 33.86 33.86 0 0 1 4.84 7.94c3.4 8.45-4.32 18.17-16.68 19.44a27.36 27.36 0 0 0 2.75.14c13.93 0 23.08-10.52 19.39-19.57z" fill="#96151f"/><path d="M53.09 33.67a3 3 0 0 1-3.26 2.66H23.67c-1.81 0-3.27-1.19-3.27-2.66 0-1.47 1.46-2.66 3.27-2.66h26.16a3 3 0 0 1 3.26 2.66z" fill="#ffb21a"/><path d="M23.84 33.67c0-1.47 1.47-2.66 3.27-2.66h-3.44c-1.81 0-3.27 1.19-3.27 2.66s1.46 2.66 3.27 2.66h3.44c-1.8 0-3.27-1.19-3.27-2.66z" fill="#fdd224"/><path d="M49.83 31h-6.41c1.81 0 3.27 1.19 3.27 2.66s-1.46 2.66-3.27 2.66h6.41a3 3 0 0 0 3.26-2.66A3 3 0 0 0 49.83 31z" fill="#ff990b"/><path fill="#ffb21a" d="m36.75 53.6-4.48-3.64 4.48-3.64 4.47 3.64-4.47 3.64z"/><path fill="#96151f" d="m37.55 53.6-4.47-3.64 4.47-3.64 4.48 3.64-4.48 3.64z"/><path fill="#ffb21a" d="m36.75 53.6-4.48-3.64 4.48-3.64 4.47 3.64-4.47 3.64z"/><path fill="#ff990b" d="m36.75 46.32-.4.32 4.07 3.32-4.07 3.31.4.33 4.47-3.64-4.47-3.64z"/><path d="m56.48 45.23-3.67-5.17-4 5.63-4-5.63-4 5.63-4-5.63-4 5.63-4-5.63-4 5.63-4-5.63-3.88 5.46 1.4-3.36 2.47-3.48 4 5.63 4-5.63 4 5.63 4-5.63 4 5.63 4-5.63 4 5.63 4-5.63 2 2.81a29.32 29.32 0 0 1 1.35 2.76c.11.34.23.66.33.98z" fill="#ffb21a"/><path d="M56.48 45.24v-.05L56.4 45c-.07-.24-.16-.47-.25-.7-.19-.43-.39-.87-.59-1.3l-.14-.27c-.16-.33-.33-.66-.51-1l-.14-.27-2-2.76-2.87 4c.14.28.27.55.4.83l2.47-3.47 3.67 5.17z" fill="#ff990b"/><path fill="#5b595b" d="M30.35 183.73h12.81v5.88H30.35z"/><path fill="#484349" d="M40.4 183.73h2.75v5.88H40.4z"/><ellipse cx="36.75" cy="144.88" rx="3.44" ry="2.8" fill="#ffb21a"/><path d="M36.75 142.08a4.28 4.28 0 0 0-.81.08 2.72 2.72 0 0 1 0 5.44 4.28 4.28 0 0 0 .81.08c1.9 0 3.44-1.25 3.44-2.8s-1.54-2.8-3.44-2.8z" fill="#ff990b"/><ellipse cx="36.75" cy="156.17" rx="13.52" ry="11.01" fill="#a3af31"/><path d="M24.54 156.17c0-5.9 5.71-10.72 12.87-11h-.66c-7.47 0-13.53 4.93-13.53 11s6.06 11 13.53 11h.66c-7.16-.29-12.87-5.1-12.87-11z" fill="#b5bc35"/><path d="M36.75 145.16a16.09 16.09 0 0 0-1.72.09c6.65.69 11.8 5.31 11.8 10.92S41.68 166.39 35 167.08a16.06 16.06 0 0 0 1.72.1c7.47 0 13.52-4.93 13.52-11s-6.02-11.02-13.49-11.02z" fill="#969b2c"/><path d="M28.41 189.61h16.67a5.19 5.19 0 0 1 5.19 5.19h-27a5.19 5.19 0 0 1 5.14-5.19z" fill="#ffb21a"/><path d="M27.68 189.61h-1.32a3.13 3.13 0 0 0-3.13 3.13v2h1.32v-2a3.13 3.13 0 0 1 3.13-3.13z" fill="#fdd224"/><path d="M47.14 189.61h-6.41a3.14 3.14 0 0 1 3.14 3.13v2h6.4v-2a3.13 3.13 0 0 0-3.13-3.13z" fill="#ff990b"/><path d="M36.74 185.06c-13.27 0-22.21-9.57-19.82-18.29a11.79 11.79 0 0 1 .42-1.27c.3-.71.63-1.4 1-2.09a40.26 40.26 0 0 1 3.7-5.84 56.53 56.53 0 0 1 4.59-5.32h19.83a54.23 54.23 0 0 1 4.84 5.32 37.19 37.19 0 0 1 3.49 5.17 30.74 30.74 0 0 1 1.35 2.77c.12.32.24.64.34 1 2.7 8.75-6.29 18.55-19.74 18.55z" fill="#bc1b21"/><path d="M18.16 165.49a37.75 37.75 0 0 1 4.68-7.94 58 58 0 0 1 4.59-5.32h-.8a56.53 56.53 0 0 0-4.63 5.32 36.91 36.91 0 0 0-4.68 7.94c-3.69 9 5.46 19.57 19.39 19.57h.4c-13.66-.21-22.6-10.61-18.95-19.57z" fill="#c62430"/><path d="M43.15 184.27v1a25.23 25.23 0 0 1-6.41.8 25.59 25.59 0 0 1-6.39-.79v-1a26.32 26.32 0 0 0 12.8 0z" fill="#39373a"/><path d="M56.14 165.49a34.2 34.2 0 0 0-4.84-7.94 54.23 54.23 0 0 0-4.84-5.32H41a54.23 54.23 0 0 1 4.84 5.32 33.86 33.86 0 0 1 4.84 7.94c3.44 8.43-4.28 18.15-16.64 19.43a27.36 27.36 0 0 0 2.75.14c13.89 0 23.04-10.53 19.35-19.57z" fill="#96151f"/><path d="M53.09 154.89a3 3 0 0 1-3.26 2.66H23.67c-1.81 0-3.27-1.19-3.27-2.66 0-1.47 1.46-2.66 3.27-2.66h26.16a3 3 0 0 1 3.26 2.66z" fill="#ffb21a"/><path d="M23.84 154.89c0-1.47 1.47-2.66 3.27-2.66h-3.44c-1.81 0-3.27 1.19-3.27 2.66s1.46 2.66 3.27 2.66h3.44c-1.8 0-3.27-1.19-3.27-2.66z" fill="#fdd224"/><path d="M49.83 152.23h-6.41c1.81 0 3.27 1.19 3.27 2.66s-1.46 2.66-3.27 2.66h6.41a2.72 2.72 0 1 0 0-5.32z" fill="#ff990b"/><path fill="#ffb21a" d="m36.75 174.82-4.48-3.64 4.48-3.65 4.47 3.65-4.47 3.64z"/><path fill="#96151f" d="m37.55 174.82-4.47-3.64 4.47-3.65 4.48 3.65-4.48 3.64z"/><path fill="#ffb21a" d="m36.75 174.82-4.48-3.64 4.48-3.65 4.47 3.65-4.47 3.64z"/><path fill="#ff990b" d="m36.75 167.53-.4.33 4.07 3.32-4.07 3.31.4.33 4.47-3.64-4.47-3.65z"/><path d="m56.48 166.45-3.67-5.17-4 5.64-4-5.64-4 5.64-4-5.64-4 5.64-4-5.64-4 5.64-4-5.64-3.88 5.47 1.4-3.36 2.47-3.49 4 5.63 4-5.63 4 5.63 4-5.63 4 5.63 4-5.63 4 5.63 4-5.63 2 2.82a30.74 30.74 0 0 1 1.35 2.77c.11.32.23.64.33.96z" fill="#ffb21a"/><path d="m56.48 166.45-.06-.18c-.07-.24-.16-.47-.25-.7-.19-.44-.39-.87-.59-1.3l-.14-.27q-.24-.49-.51-1c0-.08-.09-.17-.14-.26l-2-2.77-2.87 4c.14.27.27.55.4.83l2.47-3.48 3.67 5.17z" fill="#ff990b"/><path fill="#5b595b" d="M95.68 123.12h12.81V129H95.68z"/><path fill="#484349" d="M105.73 123.12h2.75V129h-2.75z"/><ellipse cx="102.08" cy="84.27" rx="3.44" ry="2.8" fill="#ffb21a"/><path d="M102.08 81.47a4.28 4.28 0 0 0-.81.08 2.72 2.72 0 0 1 0 5.44 4.28 4.28 0 0 0 .81.08c1.9 0 3.44-1.25 3.44-2.8s-1.52-2.8-3.44-2.8z" fill="#ff990b"/><ellipse cx="102.08" cy="95.56" rx="13.52" ry="11.01" fill="#a3af31"/><path d="M89.87 95.56c0-5.9 5.71-10.72 12.87-11h-.66c-7.47 0-13.53 4.93-13.53 11s6.06 11 13.53 11h.66c-7.16-.29-12.87-5.1-12.87-11z" fill="#b5bc35"/><path d="M102.08 84.55a16.09 16.09 0 0 0-1.72.09c6.65.69 11.8 5.31 11.8 10.92s-5.15 10.23-11.8 10.91a16.06 16.06 0 0 0 1.72.1c7.47 0 13.52-4.93 13.52-11s-6.05-11.02-13.52-11.02z" fill="#969b2c"/><path d="M93.74 129h16.67a5.19 5.19 0 0 1 5.19 5.19h-27a5.19 5.19 0 0 1 5.14-5.19z" fill="#ffb21a"/><path d="M93 129h-1.31a3.13 3.13 0 0 0-3.13 3.13v2.05h1.32v-2.05A3.13 3.13 0 0 1 93 129z" fill="#fdd224"/><path d="M112.47 129h-6.41a3.14 3.14 0 0 1 3.14 3.13v2.05h6.4v-2.05a3.13 3.13 0 0 0-3.13-3.13z" fill="#ff990b"/><path d="M102.07 124.45c-13.27 0-22.21-9.57-19.82-18.29a11.79 11.79 0 0 1 .42-1.27c.3-.71.63-1.4 1-2.09a40.26 40.26 0 0 1 3.7-5.84A56.53 56.53 0 0 1 92 91.62h19.83a54.23 54.23 0 0 1 4.84 5.32 37.19 37.19 0 0 1 3.49 5.17 30.74 30.74 0 0 1 1.35 2.77c.12.32.24.64.34 1 2.66 8.77-6.33 18.57-19.78 18.57z" fill="#bc1b21"/><path d="M83.49 104.88a37.75 37.75 0 0 1 4.68-7.94 58 58 0 0 1 4.59-5.32H92a56.53 56.53 0 0 0-4.59 5.32 36.91 36.91 0 0 0-4.68 7.94c-3.69 9 5.46 19.57 19.39 19.57h.4c-13.74-.21-22.68-10.61-19.03-19.57z" fill="#c62430"/><path d="M108.48 123.66v1a26.32 26.32 0 0 1-12.8 0v-1a26.32 26.32 0 0 0 12.8 0z" fill="#39373a"/><path d="M121.47 104.88a34.2 34.2 0 0 0-4.84-7.94 54.23 54.23 0 0 0-4.84-5.32h-5.5a54.23 54.23 0 0 1 4.84 5.32 33.86 33.86 0 0 1 4.84 7.94c3.44 8.43-4.28 18.16-16.64 19.43a27.36 27.36 0 0 0 2.75.14c13.92 0 23.08-10.53 19.39-19.57z" fill="#96151f"/><path d="M118.42 94.28a3 3 0 0 1-3.26 2.66H89c-1.81 0-3.27-1.19-3.27-2.66 0-1.47 1.46-2.66 3.27-2.66h26.16a3 3 0 0 1 3.26 2.66z" fill="#ffb21a"/><path d="M89.17 94.28c0-1.47 1.47-2.66 3.27-2.66H89c-1.81 0-3.27 1.19-3.27 2.66s1.46 2.66 3.27 2.66h3.44c-1.8 0-3.27-1.19-3.27-2.66z" fill="#fdd224"/><path d="M115.16 91.62h-6.41c1.81 0 3.27 1.19 3.27 2.66s-1.46 2.66-3.27 2.66h6.41a2.72 2.72 0 1 0 0-5.32z" fill="#ff990b"/><path fill="#ffb21a" d="m102.08 114.21-4.48-3.64 4.48-3.64 4.47 3.64-4.47 3.64z"/><path fill="#96151f" d="m102.88 114.21-4.47-3.64 4.47-3.64 4.48 3.64-4.48 3.64z"/><path fill="#ffb21a" d="m102.08 114.21-4.48-3.64 4.48-3.64 4.47 3.64-4.47 3.64z"/><path fill="#ff990b" d="m102.08 106.93-.4.32 4.07 3.32-4.07 3.31.4.33 4.47-3.64-4.47-3.64z"/><path d="m121.81 105.84-3.67-5.16-4 5.63-4-5.63-4 5.63-4-5.63-4 5.63-4-5.63-4 5.63-4-5.63-3.88 5.46 1.4-3.36 2.47-3.49 4 5.64 4-5.64 4 5.64 4-5.64 4 5.64 4-5.64 4 5.64 4-5.64 2 2.82a30.74 30.74 0 0 1 1.35 2.77c.11.32.23.64.33.96z" fill="#ffb21a"/><path d="m121.81 105.84-.06-.18c-.07-.24-.16-.47-.25-.7-.19-.44-.39-.87-.59-1.3l-.14-.27c-.16-.33-.33-.66-.51-1l-.14-.27-2-2.77-2.87 4c.14.28.27.55.4.83l2.47-3.47 3.67 5.16z" fill="#ff990b"/><path fill="#5b595b" d="M95.68 62.51h12.81v5.88H95.68z"/><path fill="#484349" d="M105.73 62.51h2.75v5.88h-2.75z"/><ellipse cx="102.08" cy="23.66" rx="3.44" ry="2.8" fill="#ffb21a"/><path d="M102.08 20.86a4.28 4.28 0 0 0-.81.08 3 3 0 0 1 2.64 2.72 3 3 0 0 1-2.64 2.72 4.28 4.28 0 0 0 .81.08c1.9 0 3.44-1.25 3.44-2.8s-1.52-2.8-3.44-2.8z" fill="#ff990b"/><ellipse cx="102.08" cy="34.95" rx="13.52" ry="11.01" fill="#a3af31"/><path d="M89.87 35c0-5.9 5.71-10.72 12.87-11h-.66c-7.47 0-13.53 4.93-13.53 11s6.06 11 13.53 11h.66c-7.16-.34-12.87-5.15-12.87-11z" fill="#b5bc35"/><path d="M102.08 23.94a16.09 16.09 0 0 0-1.72.09c6.65.69 11.8 5.31 11.8 10.92s-5.16 10.23-11.8 10.92c.56.05 1.13.09 1.72.09 7.47 0 13.52-4.93 13.52-11s-6.05-11.02-13.52-11.02z" fill="#969b2c"/><path d="M93.74 68.39h16.67a5.19 5.19 0 0 1 5.19 5.19h-27a5.19 5.19 0 0 1 5.14-5.19z" fill="#ffb21a"/><path d="M93 68.39h-1.31a3.13 3.13 0 0 0-3.13 3.13v2h1.32v-2A3.13 3.13 0 0 1 93 68.39z" fill="#fdd224"/><path d="M112.47 68.39h-6.41a3.14 3.14 0 0 1 3.14 3.13v2h6.4v-2a3.13 3.13 0 0 0-3.13-3.13z" fill="#ff990b"/><path d="M102.07 63.84c-13.27 0-22.21-9.56-19.82-18.29a11.79 11.79 0 0 1 .42-1.27c.3-.71.63-1.4 1-2.09a40.26 40.26 0 0 1 3.7-5.84A56.53 56.53 0 0 1 92 31h19.83a54.23 54.23 0 0 1 4.84 5.32 37.19 37.19 0 0 1 3.49 5.17 29.32 29.32 0 0 1 1.35 2.76c.12.32.24.64.34 1 2.66 8.75-6.33 18.59-19.78 18.59z" fill="#bc1b21"/><path d="M83.49 44.27a37.75 37.75 0 0 1 4.68-7.94A58 58 0 0 1 92.76 31H92a56.53 56.53 0 0 0-4.59 5.32 36.91 36.91 0 0 0-4.68 7.94c-3.69 9 5.46 19.57 19.39 19.57h.4c-13.74-.2-22.68-10.6-19.03-19.56z" fill="#c62430"/><path d="M108.48 63.06v1a26.32 26.32 0 0 1-12.8 0v-1a25.59 25.59 0 0 0 6.39.79 26.18 26.18 0 0 0 6.41-.79z" fill="#39373a"/><path d="M121.47 44.27a34.2 34.2 0 0 0-4.84-7.94 54.23 54.23 0 0 0-4.84-5.33h-5.5a54.23 54.23 0 0 1 4.84 5.32 33.86 33.86 0 0 1 4.87 7.95c3.44 8.44-4.28 18.16-16.64 19.43a27.36 27.36 0 0 0 2.75.14c13.89 0 23.05-10.52 19.36-19.57z" fill="#96151f"/><path d="M118.42 33.67a3 3 0 0 1-3.26 2.66H89c-1.81 0-3.27-1.19-3.27-2.66C85.73 32.2 87.19 31 89 31h26.16a3 3 0 0 1 3.26 2.67z" fill="#ffb21a"/><path d="M89.17 33.67c0-1.47 1.47-2.66 3.27-2.66H89c-1.81 0-3.27 1.19-3.27 2.66s1.46 2.66 3.27 2.66h3.44c-1.8 0-3.27-1.19-3.27-2.66z" fill="#fdd224"/><path d="M115.16 31h-6.41c1.81 0 3.27 1.19 3.27 2.66s-1.46 2.66-3.27 2.66h6.41a3 3 0 0 0 3.26-2.66 3 3 0 0 0-3.26-2.66z" fill="#ff990b"/><path fill="#ffb21a" d="m102.08 53.6-4.48-3.64 4.48-3.64 4.47 3.64-4.47 3.64z"/><path fill="#96151f" d="m102.88 53.6-4.47-3.64 4.47-3.64 4.48 3.64-4.48 3.64z"/><path fill="#ffb21a" d="m102.08 53.6-4.48-3.64 4.48-3.64 4.47 3.64-4.47 3.64z"/><path fill="#ff990b" d="m102.08 46.32-.4.32 4.07 3.32-4.07 3.31.4.33 4.47-3.64-4.47-3.64z"/><path d="m121.81 45.23-3.67-5.17-4 5.63-4-5.63-4 5.63-4-5.63-4 5.63-4-5.63-4 5.63-4-5.63-3.88 5.46 1.4-3.36 2.47-3.48 4 5.63 4-5.63 4 5.63 4-5.63 4 5.63 4-5.63 4 5.63 4-5.63 2 2.81a29.32 29.32 0 0 1 1.35 2.76c.11.34.23.66.33.98z" fill="#ffb21a"/><path d="M121.81 45.24v-.05l-.06-.18c-.07-.24-.16-.47-.25-.7-.19-.43-.39-.87-.59-1.3l-.14-.27c-.16-.33-.33-.66-.51-1l-.14-.27-2-2.76-2.87 4c.14.28.27.55.4.83l2.47-3.47 3.67 5.17z" fill="#ff990b"/><path fill="#5b595b" d="M95.68 183.73h12.81v5.88H95.68z"/><path fill="#484349" d="M105.73 183.73h2.75v5.88h-2.75z"/><ellipse cx="102.08" cy="144.88" rx="3.44" ry="2.8" fill="#ffb21a"/><path d="M102.08 142.08a4.28 4.28 0 0 0-.81.08 2.72 2.72 0 0 1 0 5.44 4.28 4.28 0 0 0 .81.08c1.9 0 3.44-1.25 3.44-2.8s-1.52-2.8-3.44-2.8z" fill="#ff990b"/><ellipse cx="102.08" cy="156.17" rx="13.52" ry="11.01" fill="#a3af31"/><path d="M89.87 156.17c0-5.9 5.71-10.72 12.87-11h-.66c-7.47 0-13.53 4.93-13.53 11s6.06 11 13.53 11h.66c-7.16-.29-12.87-5.1-12.87-11z" fill="#b5bc35"/><path d="M102.08 145.16a16.09 16.09 0 0 0-1.72.09c6.65.69 11.8 5.31 11.8 10.92s-5.15 10.22-11.8 10.91a16.06 16.06 0 0 0 1.72.1c7.47 0 13.52-4.93 13.52-11s-6.05-11.02-13.52-11.02z" fill="#969b2c"/><path d="M93.74 189.61h16.67a5.19 5.19 0 0 1 5.19 5.19h-27a5.19 5.19 0 0 1 5.19-5.19z" fill="#ffb21a"/><path d="M93 189.61h-1.31a3.13 3.13 0 0 0-3.13 3.13v2h1.32v-2a3.13 3.13 0 0 1 3.12-3.13z" fill="#fdd224"/><path d="M112.47 189.61h-6.41a3.14 3.14 0 0 1 3.14 3.13v2h6.4v-2a3.13 3.13 0 0 0-3.13-3.13z" fill="#ff990b"/><path d="M102.07 185.06c-13.27 0-22.21-9.57-19.82-18.29a11.79 11.79 0 0 1 .42-1.27c.3-.71.63-1.4 1-2.09a40.26 40.26 0 0 1 3.7-5.84 56.53 56.53 0 0 1 4.63-5.34h19.83a54.23 54.23 0 0 1 4.84 5.32 37.19 37.19 0 0 1 3.49 5.17 30.74 30.74 0 0 1 1.35 2.77c.12.32.24.64.34 1 2.66 8.77-6.33 18.57-19.78 18.57z" fill="#bc1b21"/><path d="M83.49 165.49a37.75 37.75 0 0 1 4.68-7.94 58 58 0 0 1 4.59-5.32H92a56.53 56.53 0 0 0-4.59 5.32 36.91 36.91 0 0 0-4.68 7.94c-3.69 9 5.46 19.57 19.39 19.57h.4c-13.74-.21-22.68-10.61-19.03-19.57z" fill="#c62430"/><path d="M108.48 184.27v1a25.23 25.23 0 0 1-6.41.8 25.59 25.59 0 0 1-6.39-.79v-1a26.32 26.32 0 0 0 12.8 0z" fill="#39373a"/><path d="M121.47 165.49a34.2 34.2 0 0 0-4.84-7.94 54.23 54.23 0 0 0-4.84-5.32h-5.5a54.23 54.23 0 0 1 4.84 5.32 33.86 33.86 0 0 1 4.84 7.94c3.44 8.43-4.28 18.15-16.64 19.43a27.36 27.36 0 0 0 2.75.14c13.92 0 23.08-10.53 19.39-19.57z" fill="#96151f"/><path d="M118.42 154.89a3 3 0 0 1-3.26 2.66H89c-1.81 0-3.27-1.19-3.27-2.66 0-1.47 1.46-2.66 3.27-2.66h26.16a3 3 0 0 1 3.26 2.66z" fill="#ffb21a"/><path d="M89.17 154.89c0-1.47 1.47-2.66 3.27-2.66H89c-1.81 0-3.27 1.19-3.27 2.66s1.46 2.66 3.27 2.66h3.44c-1.8 0-3.27-1.19-3.27-2.66z" fill="#fdd224"/><path d="M115.16 152.23h-6.41c1.81 0 3.27 1.19 3.27 2.66s-1.46 2.66-3.27 2.66h6.41a2.72 2.72 0 1 0 0-5.32z" fill="#ff990b"/><path fill="#ffb21a" d="m102.08 174.82-4.48-3.64 4.48-3.65 4.47 3.65-4.47 3.64z"/><path fill="#96151f" d="m102.88 174.82-4.47-3.64 4.47-3.65 4.48 3.65-4.48 3.64z"/><path fill="#ffb21a" d="m102.08 174.82-4.48-3.64 4.48-3.65 4.47 3.65-4.47 3.64z"/><path fill="#ff990b" d="m102.08 167.53-.4.33 4.07 3.32-4.07 3.31.4.33 4.47-3.64-4.47-3.65z"/><path d="m121.81 166.45-3.67-5.17-4 5.64-4-5.64-4 5.64-4-5.64-4 5.64-4-5.64-4 5.64-4-5.64-3.88 5.47 1.4-3.36 2.47-3.49 4 5.63 4-5.63 4 5.63 4-5.63 4 5.63 4-5.63 4 5.63 4-5.63 2 2.82a30.74 30.74 0 0 1 1.35 2.77c.11.32.23.64.33.96z" fill="#ffb21a"/><path d="m121.81 166.45-.06-.18c-.07-.24-.16-.47-.25-.7-.19-.44-.39-.87-.59-1.3l-.14-.27q-.24-.49-.51-1c0-.08-.09-.17-.14-.26l-2-2.77-2.87 4c.14.27.27.55.4.83l2.47-3.48 3.67 5.17z" fill="#ff990b"/><path d="M17.66 10.48v.25A8.55 8.55 0 0 0 15 11.8a5.13 5.13 0 0 0-1.56 1.59 7.75 7.75 0 0 0-.89 2.32 2.38 2.38 0 0 1 .66-.35 4 4 0 0 1 1.18-.19 3 3 0 0 1 2.29 1 3.9 3.9 0 0 1 .92 2.73 5 5 0 0 1-.5 2.22 3.62 3.62 0 0 1-1.41 1.56 3.69 3.69 0 0 1-2 .55 3.73 3.73 0 0 1-2.09-.62 4 4 0 0 1-1.49-1.81 6.19 6.19 0 0 1-.54-2.59 7.73 7.73 0 0 1 1-3.83 7.35 7.35 0 0 1 2.81-2.83 8.38 8.38 0 0 1 4.28-1.07zm-5.2 6c-.05.83-.07 1.44-.07 1.82a12 12 0 0 0 .24 2.42 3.72 3.72 0 0 0 .65 1.63 1 1 0 0 0 .71.34.91.91 0 0 0 .74-.49 3.89 3.89 0 0 0 .32-2 6.94 6.94 0 0 0-.6-3.44 1.2 1.2 0 0 0-1-.62 2.21 2.21 0 0 0-.99.3zm114.86 174.33v.25a8.84 8.84 0 0 0-2.62 1.07 5.28 5.28 0 0 0-1.57 1.59 7.86 7.86 0 0 0-.88 2.32 2.49 2.49 0 0 1 .65-.35 4.09 4.09 0 0 1 1.19-.18 3 3 0 0 1 2.29 1 3.86 3.86 0 0 1 .91 2.72 5 5 0 0 1-.49 2.22 3.65 3.65 0 0 1-1.41 1.57 3.78 3.78 0 0 1-4-.07 4 4 0 0 1-1.49-1.81 6.24 6.24 0 0 1-.54-2.6 7.73 7.73 0 0 1 1-3.83 7.34 7.34 0 0 1 2.81-2.83 8.35 8.35 0 0 1 4.15-1.07zm-5.19 6c0 .83-.08 1.44-.08 1.83a11.94 11.94 0 0 0 .24 2.41 3.64 3.64 0 0 0 .66 1.64.91.91 0 0 0 .7.33.9.9 0 0 0 .74-.48 3.93 3.93 0 0 0 .33-2 6.94 6.94 0 0 0-.6-3.44 1.19 1.19 0 0 0-1.05-.61 2.14 2.14 0 0 0-.94.28z" fill="#7f664a"/><path fill="none" stroke="#7f664a" stroke-miterlimit="10" stroke-width=".5" d="M9.33 24.59h9.17M119 204.93h9.17"/></svg>