<svg xmlns="http://www.w3.org/2000/svg" viewBox="0 0 138.83 215.65"><path fill="#fff" d="M0 0h138.82v215.65H0z"/><path fill="none" stroke="#7f664a" stroke-miterlimit="10" stroke-width=".5" d="M63.24 208.74H6.94V8.91h54.37m16.21 0h54.36v199.83h-56.3"/><path fill="#5b595b" d="M24.9 186.52h10.42v4.79H24.9z"/><path fill="#484349" d="M33.09 186.52h2.24v4.79h-2.24z"/><ellipse cx="30.11" cy="154.9" rx="2.8" ry="2.28" fill="#ffb21a"/><path d="M30.12 152.61a3.51 3.51 0 0 0-.66.07 2.22 2.22 0 0 1 0 4.43 3.51 3.51 0 0 0 .66.07 2.33 2.33 0 1 0 0-4.57z" fill="#ff990b"/><ellipse cx="30.11" cy="164.08" rx="11.01" ry="8.96" fill="#a3af31"/><path d="M20.18 164.08c0-4.8 4.64-8.72 10.47-9h-.54c-6.08 0-11 4-11 9s4.92 9 11 9h.54c-5.83-.27-10.47-4.19-10.47-9z" fill="#b5bc35"/><path d="M30.11 155.12a13 13 0 0 0-1.4.08c5.42.56 9.61 4.32 9.61 8.88s-4.19 8.33-9.61 8.89a13 13 0 0 0 1.4.08c6.08 0 11-4 11-9s-4.92-8.93-11-8.93z" fill="#969b2c"/><path d="M23.33 191.31H36.9a4.22 4.22 0 0 1 4.22 4.22h-22a4.22 4.22 0 0 1 4.21-4.22z" fill="#ffb21a"/><path d="M22.73 191.31h-1.07a2.55 2.55 0 0 0-2.55 2.55v1.67h1.07v-1.67a2.55 2.55 0 0 1 2.55-2.55z" fill="#fdd224"/><path d="M38.57 191.31h-5.21a2.55 2.55 0 0 1 2.55 2.55v1.67h5.21v-1.67a2.55 2.55 0 0 0-2.55-2.55z" fill="#ff990b"/><path d="M30.11 187.61c-10.81 0-18.08-7.79-16.13-14.9a7.94 7.94 0 0 1 .35-1c.24-.57.5-1.14.79-1.69a32.55 32.55 0 0 1 3-4.75 47.51 47.51 0 0 1 3.73-4.33H38a44.72 44.72 0 0 1 4 4.27 30.16 30.16 0 0 1 2.84 4.21 23.34 23.34 0 0 1 1.1 2.25 7.35 7.35 0 0 1 .27.79c2.16 7.17-5.15 15.15-16.1 15.15z" fill="#bc1b21"/><path d="M15 171.67a30.52 30.52 0 0 1 3.82-6.46 46 46 0 0 1 3.73-4.33h-.66a47.51 47.51 0 0 0-3.73 4.33 30.48 30.48 0 0 0-3.81 6.46c-3 7.37 4.44 15.94 15.78 15.94h.33C19.29 187.43 12 179 15 171.67z" fill="#c62430"/><path d="M35.33 187v.82a21.57 21.57 0 0 1-10.43 0V187a21.25 21.25 0 0 0 10.43 0z" fill="#39373a"/><path d="M45.9 171.67a28 28 0 0 0-3.9-6.46 44.72 44.72 0 0 0-4-4.33h-4.46a42.28 42.28 0 0 1 3.94 4.33 27.63 27.63 0 0 1 3.94 6.46c2.81 6.87-3.48 14.78-13.54 15.82.72.07 1.47.12 2.23.12 11.35 0 18.79-8.61 15.79-15.94z" fill="#96151f"/><path d="M43.42 163a2.45 2.45 0 0 1-2.66 2.17H19.47A2.46 2.46 0 0 1 16.8 163a2.46 2.46 0 0 1 2.67-2.16h21.29a2.45 2.45 0 0 1 2.66 2.16z" fill="#ffb21a"/><path d="M19.61 163a2.45 2.45 0 0 1 2.66-2.16h-2.8a2.21 2.21 0 1 0 0 4.33h2.8a2.45 2.45 0 0 1-2.66-2.17z" fill="#fdd224"/><path d="M40.76 160.88h-5.21a2.21 2.21 0 1 1 0 4.33h5.21a2.21 2.21 0 1 0 0-4.33z" fill="#ff990b"/><path fill="#ffb21a" d="m30.11 179.27-3.64-2.97 3.64-2.96 3.65 2.96-3.65 2.97z"/><path fill="#96151f" d="m30.77 179.27-3.64-2.97 3.64-2.96 3.64 2.96-3.64 2.97z"/><path fill="#ffb21a" d="m30.11 179.27-3.64-2.97 3.64-2.96 3.65 2.96-3.65 2.97z"/><path fill="#ff990b" d="m30.11 173.34-.32.26 3.31 2.7-3.31 2.7.32.27 3.65-2.97-3.65-2.96z"/><path d="m46.17 172.46-3-4.21-3.25 4.58-3.26-4.58-3.25 4.58-3.26-4.58-3.25 4.58-3.25-4.58-3.26 4.58-3.25-4.58-3.14 4.46 1.12-2.71 2-2.83 3.25 4.58 3.26-4.58 3.25 4.58 3.25-4.58 3.26 4.58 3.25-4.58 3.26 4.58 3.25-4.58 1.63 2.29a23.34 23.34 0 0 1 1.1 2.25 7.35 7.35 0 0 1 .29.75z" fill="#ffb21a"/><path d="M46.17 172.46a.88.88 0 0 0 0-.15c-.06-.19-.13-.38-.2-.57q-.23-.53-.48-1a2.4 2.4 0 0 1-.11-.23c-.14-.27-.27-.53-.42-.8l-.11-.21-1.61-2.25-2.33 3.28c.11.23.22.45.32.68l2-2.83 3 4.21z" fill="#ff990b"/><path fill="#5b595b" d="M24.9 54.03h10.42v4.79H24.9z"/><path fill="#484349" d="M33.09 54.03h2.24v4.79h-2.24z"/><ellipse cx="30.11" cy="22.4" rx="2.8" ry="2.28" fill="#ffb21a"/><path d="M30.12 20.12a3.51 3.51 0 0 0-.66.07 2.44 2.44 0 0 1 2.15 2.21 2.44 2.44 0 0 1-2.15 2.22 3.51 3.51 0 0 0 .66.07 2.59 2.59 0 0 0 2.8-2.29 2.58 2.58 0 0 0-2.8-2.28z" fill="#ff990b"/><ellipse cx="30.11" cy="31.59" rx="11.01" ry="8.96" fill="#a3af31"/><path d="M20.18 31.59c0-4.8 4.64-8.72 10.47-8.95h-.54c-6.08 0-11 4-11 9s4.92 9 11 9h.54c-5.83-.32-10.47-4.24-10.47-9.05z" fill="#b5bc35"/><path d="M30.11 22.63a13 13 0 0 0-1.4.08c5.42.56 9.61 4.32 9.61 8.88s-4.19 8.33-9.61 8.89a13 13 0 0 0 1.4.07c6.08 0 11-4 11-9s-4.92-8.92-11-8.92z" fill="#969b2c"/><path d="M23.33 58.81H36.9A4.22 4.22 0 0 1 41.12 63h-22a4.22 4.22 0 0 1 4.21-4.19z" fill="#ffb21a"/><path d="M22.73 58.81h-1.07a2.56 2.56 0 0 0-2.55 2.56V63h1.07v-1.63a2.56 2.56 0 0 1 2.55-2.56z" fill="#fdd224"/><path d="M38.57 58.81h-5.21a2.56 2.56 0 0 1 2.55 2.56V63h5.21v-1.63a2.56 2.56 0 0 0-2.55-2.56z" fill="#ff990b"/><path d="M30.11 55.11C19.3 55.11 12 47.33 14 40.22a8.34 8.34 0 0 1 .35-1c.24-.57.5-1.14.79-1.7a32.55 32.55 0 0 1 3-4.75 47.51 47.51 0 0 1 3.73-4.33H38a44.72 44.72 0 0 1 4 4.28 29.58 29.58 0 0 1 2.84 4.21 23.34 23.34 0 0 1 1.1 2.25 7.35 7.35 0 0 1 .27.79c2.16 7.17-5.15 15.14-16.1 15.14z" fill="#bc1b21"/><path d="M15 39.18a30.52 30.52 0 0 1 3.82-6.46 46 46 0 0 1 3.73-4.33h-.66a47.51 47.51 0 0 0-3.73 4.33 30.48 30.48 0 0 0-3.81 6.46c-3 7.36 4.44 15.93 15.78 15.93h.33C19.29 54.94 12 46.47 15 39.18z" fill="#c62430"/><path d="M35.33 54.47v.82a21.57 21.57 0 0 1-10.43 0v-.82a21.57 21.57 0 0 0 10.43 0z" fill="#39373a"/><path d="M45.9 39.18a28 28 0 0 0-3.9-6.46 44.72 44.72 0 0 0-4-4.33h-4.46a42.28 42.28 0 0 1 3.94 4.33 27.63 27.63 0 0 1 3.94 6.46C44.23 46.05 37.94 54 27.88 55c.72.07 1.47.11 2.23.11 11.35 0 18.79-8.57 15.79-15.93z" fill="#96151f"/><path d="M43.42 30.55a2.45 2.45 0 0 1-2.66 2.17H19.47a2.46 2.46 0 0 1-2.67-2.17 2.46 2.46 0 0 1 2.67-2.16h21.29a2.45 2.45 0 0 1 2.66 2.16z" fill="#ffb21a"/><path d="M19.61 30.55a2.45 2.45 0 0 1 2.66-2.16h-2.8a2.46 2.46 0 0 0-2.67 2.16 2.46 2.46 0 0 0 2.67 2.17h2.8a2.45 2.45 0 0 1-2.66-2.17z" fill="#fdd224"/><path d="M40.76 28.39h-5.21a2.45 2.45 0 0 1 2.66 2.16 2.45 2.45 0 0 1-2.66 2.17h5.21a2.45 2.45 0 0 0 2.66-2.17 2.45 2.45 0 0 0-2.66-2.16z" fill="#ff990b"/><path fill="#ffb21a" d="m30.11 46.78-3.64-2.97 3.64-2.96 3.65 2.96-3.65 2.97z"/><path fill="#96151f" d="m30.77 46.78-3.64-2.97 3.64-2.96 3.64 2.96-3.64 2.97z"/><path fill="#ffb21a" d="m30.11 46.78-3.64-2.97 3.64-2.96 3.65 2.96-3.65 2.97z"/><path fill="#ff990b" d="m30.11 40.85-.32.26 3.31 2.7-3.31 2.7.32.27 3.65-2.97-3.65-2.96z"/><path d="m46.17 40-3-4.21-3.25 4.58-3.26-4.58-3.25 4.58-3.26-4.58-3.25 4.56-3.25-4.58-3.26 4.58-3.25-4.58L14 40.21l1.14-2.73 2-2.83 3.25 4.58 3.26-4.58 3.25 4.58 3.25-4.58 3.26 4.58 3.25-4.58 3.26 4.58 3.25-4.58 1.63 2.29a23.34 23.34 0 0 1 1.1 2.25 7.35 7.35 0 0 1 .27.81z" fill="#ffb21a"/><path d="M46.17 40a.88.88 0 0 0 0-.15c-.06-.19-.13-.38-.2-.57q-.23-.52-.48-1a2.4 2.4 0 0 1-.11-.23c-.14-.27-.27-.53-.42-.8l-.11-.21-1.61-2.25-2.33 3.28c.11.22.22.45.32.68l2-2.83 3 4.21z" fill="#ff990b"/><path fill="#5b595b" d="M24.9 120.27h10.42v4.79H24.9z"/><path fill="#484349" d="M33.09 120.28h2.24v4.79h-2.24z"/><ellipse cx="30.11" cy="88.65" rx="2.8" ry="2.28" fill="#ffb21a"/><path d="M30.12 86.37a3.52 3.52 0 0 0-.66.06 2.22 2.22 0 0 1 0 4.44 3.52 3.52 0 0 0 .66.06 2.33 2.33 0 1 0 0-4.56z" fill="#ff990b"/><ellipse cx="30.11" cy="97.84" rx="11.01" ry="8.96" fill="#a3af31"/><path d="M20.18 97.84c0-4.8 4.64-8.72 10.47-9h-.54c-6.08 0-11 4-11 9s4.92 9 11 9h.54c-5.83-.28-10.47-4.2-10.47-9z" fill="#b5bc35"/><path d="M30.11 88.88a13 13 0 0 0-1.4.07c5.42.56 9.61 4.33 9.61 8.89s-4.19 8.33-9.61 8.89c.46 0 .93.07 1.4.07 6.08 0 11-4 11-9s-4.92-8.92-11-8.92z" fill="#969b2c"/><path d="M23.33 125.06H36.9a4.22 4.22 0 0 1 4.22 4.22h-22a4.22 4.22 0 0 1 4.21-4.22z" fill="#ffb21a"/><path d="M22.73 125.06h-1.07a2.55 2.55 0 0 0-2.55 2.55v1.67h1.07v-1.67a2.55 2.55 0 0 1 2.55-2.55z" fill="#fdd224"/><path d="M38.57 125.06h-5.21a2.55 2.55 0 0 1 2.55 2.55v1.67h5.21v-1.67a2.55 2.55 0 0 0-2.55-2.55z" fill="#ff990b"/><path d="M30.11 121.36c-10.81 0-18.11-7.79-16.11-14.89a7.81 7.81 0 0 1 .35-1c.24-.58.5-1.14.79-1.7a32 32 0 0 1 3-4.75 47.68 47.68 0 0 1 3.73-4.34H38A44.86 44.86 0 0 1 42 99a29.49 29.49 0 0 1 2.84 4.2 21.26 21.26 0 0 1 1.1 2.25 8 8 0 0 1 .27.78c2.16 7.15-5.15 15.13-16.1 15.13z" fill="#bc1b21"/><path d="M15 105.43A30 30 0 0 1 18.8 99a46.15 46.15 0 0 1 3.73-4.34h-.66A47.68 47.68 0 0 0 18.14 99a30 30 0 0 0-3.81 6.46c-3 7.36 4.44 15.93 15.78 15.93h.33c-11.15-.2-18.44-8.67-15.44-15.96z" fill="#c62430"/><path d="M35.33 120.72v.81a20.73 20.73 0 0 1-5.22.65 21.18 21.18 0 0 1-5.21-.64v-.82a21.57 21.57 0 0 0 10.43 0z" fill="#39373a"/><path d="M45.9 105.43A27.55 27.55 0 0 0 42 99a44.86 44.86 0 0 0-4-4.37h-4.46A42.41 42.41 0 0 1 37.48 99a27.22 27.22 0 0 1 3.94 6.46c2.81 6.86-3.48 14.78-13.54 15.81a20.28 20.28 0 0 0 2.23.12c11.35-.03 18.79-8.6 15.79-15.96z" fill="#96151f"/><path d="M43.42 96.8a2.45 2.45 0 0 1-2.66 2.2H19.47a2.46 2.46 0 0 1-2.67-2.2 2.46 2.46 0 0 1 2.67-2.17h21.29a2.45 2.45 0 0 1 2.66 2.17z" fill="#ffb21a"/><path d="M19.61 96.8a2.45 2.45 0 0 1 2.66-2.17h-2.8a2.22 2.22 0 1 0 0 4.34h2.8a2.45 2.45 0 0 1-2.66-2.17z" fill="#fdd224"/><path d="M40.76 94.63h-5.21a2.22 2.22 0 1 1 0 4.34h5.21a2.22 2.22 0 1 0 0-4.34z" fill="#ff990b"/><path fill="#ffb21a" d="m30.11 113.02-3.64-2.96 3.64-2.97 3.65 2.97-3.65 2.96z"/><path fill="#96151f" d="m30.77 113.02-3.64-2.96 3.64-2.97 3.64 2.97-3.64 2.96z"/><path fill="#ffb21a" d="m30.11 113.02-3.64-2.96 3.64-2.97 3.65 2.97-3.65 2.96z"/><path fill="#ff990b" d="m30.11 107.09-.32.27 3.31 2.7-3.31 2.7.32.26 3.65-2.96-3.65-2.97z"/><path d="m46.17 106.21-3-4.21-3.25 4.59-3.26-4.59-3.25 4.59-3.26-4.59-3.25 4.6-3.25-4.6-3.26 4.59-3.25-4.59-3.14 4.46 1.14-2.73 2-2.84 3.25 4.58 3.26-4.58 3.25 4.58 3.25-4.58 3.26 4.58 3.25-4.58 3.26 4.58 3.25-4.58 1.63 2.29a21.26 21.26 0 0 1 1.1 2.25 8 8 0 0 1 .27.78z" fill="#ffb21a"/><path d="M46.17 106.21a.88.88 0 0 0 0-.15c-.06-.19-.13-.38-.2-.57-.15-.36-.31-.71-.48-1.06l-.11-.22c-.14-.27-.27-.54-.42-.8 0-.07-.07-.14-.11-.22l-1.61-2.25-2.33 3.28.32.68 2-2.83 3 4.21z" fill="#ff990b"/><path fill="#5b595b" d="M103.5 186.52h10.42v4.79H103.5z"/><path fill="#484349" d="M111.69 186.52h2.24v4.79h-2.24z"/><ellipse cx="108.71" cy="154.9" rx="2.8" ry="2.28" fill="#ffb21a"/><path d="M108.71 152.61a3.5 3.5 0 0 0-.65.07 2.22 2.22 0 0 1 0 4.43 3.5 3.5 0 0 0 .65.07 2.33 2.33 0 1 0 0-4.57z" fill="#ff990b"/><ellipse cx="108.71" cy="164.08" rx="11.01" ry="8.96" fill="#a3af31"/><path d="M98.78 164.08c0-4.8 4.64-8.72 10.47-9h-.54c-6.08 0-11 4-11 9s4.93 9 11 9h.54c-5.83-.27-10.47-4.19-10.47-9z" fill="#b5bc35"/><path d="M108.71 155.12a13 13 0 0 0-1.4.08c5.42.56 9.61 4.32 9.61 8.88s-4.19 8.33-9.61 8.89a13 13 0 0 0 1.4.08c6.08 0 11-4 11-9s-4.92-8.93-11-8.93z" fill="#969b2c"/><path d="M101.93 191.31h13.57a4.22 4.22 0 0 1 4.22 4.22h-22a4.22 4.22 0 0 1 4.21-4.22z" fill="#ffb21a"/><path d="M101.33 191.31h-1.07a2.55 2.55 0 0 0-2.55 2.55v1.67h1.07v-1.67a2.55 2.55 0 0 1 2.55-2.55z" fill="#fdd224"/><path d="M117.17 191.31H112a2.56 2.56 0 0 1 2.56 2.55v1.67h5.21v-1.67a2.55 2.55 0 0 0-2.6-2.55z" fill="#ff990b"/><path d="M108.71 187.61c-10.81 0-18.08-7.79-16.14-14.9a9.71 9.71 0 0 1 .34-1c.24-.57.51-1.14.8-1.69a33.48 33.48 0 0 1 3-4.75 46 46 0 0 1 3.73-4.33h16.15a43.39 43.39 0 0 1 3.93 4.33 31.13 31.13 0 0 1 2.85 4.21 23.24 23.24 0 0 1 1.09 2.25 7.41 7.41 0 0 1 .28.79c2.26 7.11-5.09 15.09-16.03 15.09z" fill="#bc1b21"/><path d="M93.58 171.67a30.91 30.91 0 0 1 3.81-6.46 46.06 46.06 0 0 1 3.74-4.33h-.66a46 46 0 0 0-3.73 4.33 30.06 30.06 0 0 0-3.81 6.46c-3 7.37 4.44 15.94 15.78 15.94h.29c-11.12-.18-18.39-8.61-15.42-15.94z" fill="#c62430"/><path d="M113.92 187v.82a21.53 21.53 0 0 1-10.42 0V187a21.21 21.21 0 0 0 10.42 0z" fill="#39373a"/><path d="M124.49 171.67a27.29 27.29 0 0 0-3.94-6.46 42.28 42.28 0 0 0-3.94-4.33h-4.47a44.72 44.72 0 0 1 3.94 4.33 28 28 0 0 1 3.94 6.46c2.8 6.87-3.48 14.78-13.55 15.82.73.07 1.48.12 2.24.12 11.35 0 18.79-8.61 15.78-15.94z" fill="#96151f"/><path d="M122 163a2.45 2.45 0 0 1-2.66 2.17H98.06A2.45 2.45 0 0 1 95.4 163a2.45 2.45 0 0 1 2.66-2.16h21.3A2.45 2.45 0 0 1 122 163z" fill="#ffb21a"/><path d="M98.21 163a2.45 2.45 0 0 1 2.66-2.16h-2.81a2.21 2.21 0 1 0 0 4.33h2.81a2.45 2.45 0 0 1-2.66-2.17z" fill="#fdd224"/><path d="M119.36 160.88h-5.21a2.21 2.21 0 1 1 0 4.33h5.21a2.21 2.21 0 1 0 0-4.33z" fill="#ff990b"/><path fill="#ffb21a" d="m108.71 179.27-3.64-2.97 3.64-2.96 3.64 2.96-3.64 2.97z"/><path fill="#96151f" d="m109.37 179.27-3.65-2.97 3.65-2.96 3.64 2.96-3.64 2.97z"/><path fill="#ffb21a" d="m108.71 179.27-3.64-2.97 3.64-2.96 3.64 2.96-3.64 2.97z"/><path fill="#ff990b" d="m108.71 173.34-.33.26 3.32 2.7-3.32 2.7.33.27 3.64-2.97-3.64-2.96z"/><path d="m124.77 172.46-3-4.21-3.26 4.58-3.25-4.58-3.26 4.59-3.26-4.58-3.25 4.58-3.25-4.58-3.24 4.58-3.25-4.58-3.16 4.45 1.13-2.71 2-2.83 3.28 4.54 3.26-4.58 3.25 4.58 3.25-4.58 3.26 4.58 3.25-4.58 3.25 4.58 3.26-4.58 1.63 2.29a23.24 23.24 0 0 1 1.09 2.25 7.41 7.41 0 0 1 .27.79z" fill="#ffb21a"/><path d="M124.77 172.46a.88.88 0 0 0-.05-.15q-.09-.28-.21-.57-.22-.53-.48-1a2.4 2.4 0 0 0-.11-.23c-.13-.27-.27-.53-.41-.8l-.12-.21-1.6-2.25-2.33 3.28c.11.23.22.45.32.68l2-2.83 3 4.21z" fill="#ff990b"/><path fill="#5b595b" d="M103.5 54.03h10.42v4.79H103.5z"/><path fill="#484349" d="M111.69 54.03h2.24v4.79h-2.24z"/><ellipse cx="108.71" cy="22.4" rx="2.8" ry="2.28" fill="#ffb21a"/><path d="M108.71 20.12a3.5 3.5 0 0 0-.65.07 2.43 2.43 0 0 1 2.14 2.21 2.43 2.43 0 0 1-2.14 2.22 3.5 3.5 0 0 0 .65.07 2.58 2.58 0 0 0 2.8-2.29 2.58 2.58 0 0 0-2.8-2.28z" fill="#ff990b"/><ellipse cx="108.71" cy="31.59" rx="11.01" ry="8.96" fill="#a3af31"/><path d="M98.78 31.59c0-4.8 4.64-8.72 10.47-8.95h-.54c-6.08 0-11 4-11 9s4.93 9 11 9h.54c-5.83-.32-10.47-4.24-10.47-9.05z" fill="#b5bc35"/><path d="M108.71 22.63a13 13 0 0 0-1.4.08c5.42.56 9.61 4.32 9.61 8.88s-4.19 8.33-9.61 8.89a13 13 0 0 0 1.4.07c6.08 0 11-4 11-9s-4.92-8.92-11-8.92z" fill="#969b2c"/><path d="M101.93 58.81h13.57a4.22 4.22 0 0 1 4.22 4.19h-22a4.22 4.22 0 0 1 4.22-4.22z" fill="#ffb21a"/><path d="M101.33 58.81h-1.07a2.56 2.56 0 0 0-2.55 2.56V63h1.07v-1.63a2.56 2.56 0 0 1 2.55-2.56z" fill="#fdd224"/><path d="M117.17 58.81H112a2.56 2.56 0 0 1 2.56 2.56V63h5.21v-1.63a2.56 2.56 0 0 0-2.6-2.56z" fill="#ff990b"/><path d="M108.71 55.11c-10.81 0-18.08-7.78-16.14-14.89a10.33 10.33 0 0 1 .34-1c.24-.57.51-1.14.8-1.7a33.48 33.48 0 0 1 3-4.75 46 46 0 0 1 3.73-4.33h16.15a43.39 43.39 0 0 1 3.93 4.33 30.51 30.51 0 0 1 2.85 4.21 23.24 23.24 0 0 1 1.09 2.25 7.41 7.41 0 0 1 .28.79c2.26 7.12-5.09 15.09-16.03 15.09z" fill="#bc1b21"/><path d="M93.58 39.18a30.91 30.91 0 0 1 3.81-6.46 46.06 46.06 0 0 1 3.74-4.33h-.66a46 46 0 0 0-3.73 4.33 30.06 30.06 0 0 0-3.81 6.46c-3 7.36 4.44 15.93 15.78 15.93h.29c-11.12-.17-18.39-8.64-15.42-15.93z" fill="#c62430"/><path d="M113.92 54.47v.82a21.53 21.53 0 0 1-10.42 0v-.82a21.53 21.53 0 0 0 10.42 0z" fill="#39373a"/><path d="M124.49 39.18a27.29 27.29 0 0 0-3.94-6.46 42.28 42.28 0 0 0-3.94-4.33h-4.47a44.72 44.72 0 0 1 3.94 4.33 28 28 0 0 1 3.92 6.46c2.8 6.87-3.48 14.78-13.55 15.82.73.07 1.48.11 2.24.11 11.37 0 18.81-8.57 15.8-15.93z" fill="#96151f"/><path d="M122 30.55a2.45 2.45 0 0 1-2.66 2.17H98.06a2.45 2.45 0 0 1-2.66-2.17 2.45 2.45 0 0 1 2.66-2.16h21.3a2.45 2.45 0 0 1 2.64 2.16z" fill="#ffb21a"/><path d="M98.21 30.55a2.45 2.45 0 0 1 2.66-2.16h-2.81a2.45 2.45 0 0 0-2.66 2.16 2.45 2.45 0 0 0 2.66 2.17h2.81a2.45 2.45 0 0 1-2.66-2.17z" fill="#fdd224"/><path d="M119.36 28.39h-5.21a2.45 2.45 0 0 1 2.66 2.16 2.45 2.45 0 0 1-2.66 2.17h5.21a2.45 2.45 0 0 0 2.64-2.17 2.45 2.45 0 0 0-2.64-2.16z" fill="#ff990b"/><path fill="#ffb21a" d="m108.71 46.78-3.64-2.97 3.64-2.96 3.64 2.96-3.64 2.97z"/><path fill="#96151f" d="m109.37 46.78-3.65-2.97 3.65-2.96 3.64 2.96-3.64 2.97z"/><path fill="#ffb21a" d="m108.71 46.78-3.64-2.97 3.64-2.96 3.64 2.96-3.64 2.97z"/><path fill="#ff990b" d="m108.71 40.85-.33.26 3.32 2.7-3.32 2.7.33.27 3.64-2.97-3.64-2.96z"/><path d="m124.77 40-3-4.21-3.26 4.58-3.25-4.58-3.26 4.56-3.26-4.58-3.25 4.58-3.25-4.58L99 40.35l-3.25-4.58-3.16 4.44 1.14-2.73 2-2.83L99 39.22l3.26-4.58 3.25 4.58 3.25-4.58 3.24 4.58 3.25-4.58 3.25 4.58 3.26-4.58 1.63 2.29a23.24 23.24 0 0 1 1.09 2.25 7.41 7.41 0 0 1 .29.82z" fill="#ffb21a"/><path d="M124.77 40a.88.88 0 0 0-.05-.15q-.09-.28-.21-.57-.22-.52-.48-1a2.4 2.4 0 0 0-.11-.23c-.13-.27-.27-.53-.41-.8l-.12-.21-1.6-2.25-2.33 3.28c.11.22.22.45.32.68l2-2.83 3 4.21z" fill="#ff990b"/><path fill="#5b595b" d="M103.5 120.27h10.42v4.79H103.5z"/><path fill="#484349" d="M111.69 120.28h2.24v4.79h-2.24z"/><ellipse cx="108.71" cy="88.65" rx="2.8" ry="2.28" fill="#ffb21a"/><path d="M108.71 86.37a3.49 3.49 0 0 0-.65.06 2.22 2.22 0 0 1 0 4.44 3.49 3.49 0 0 0 .65.06 2.33 2.33 0 1 0 0-4.56z" fill="#ff990b"/><ellipse cx="108.71" cy="97.84" rx="11.01" ry="8.96" fill="#a3af31"/><path d="M98.78 97.84c0-4.8 4.64-8.72 10.47-9h-.54c-6.08 0-11 4-11 9s4.93 9 11 9h.54c-5.83-.28-10.47-4.2-10.47-9z" fill="#b5bc35"/><path d="M108.71 88.88a13 13 0 0 0-1.4.07c5.42.56 9.61 4.33 9.61 8.89s-4.19 8.33-9.61 8.89c.46 0 .93.07 1.4.07 6.08 0 11-4 11-9s-4.92-8.92-11-8.92z" fill="#969b2c"/><path d="M101.93 125.06h13.57a4.22 4.22 0 0 1 4.22 4.22h-22a4.22 4.22 0 0 1 4.21-4.22z" fill="#ffb21a"/><path d="M101.33 125.06h-1.07a2.55 2.55 0 0 0-2.55 2.55v1.67h1.07v-1.67a2.55 2.55 0 0 1 2.55-2.55z" fill="#fdd224"/><path d="M117.17 125.06H112a2.56 2.56 0 0 1 2.56 2.55v1.67h5.21v-1.67a2.55 2.55 0 0 0-2.6-2.55z" fill="#ff990b"/><path d="M108.71 121.36c-10.81 0-18.08-7.79-16.14-14.89a9.55 9.55 0 0 1 .34-1c.24-.58.51-1.14.8-1.7a32.92 32.92 0 0 1 3-4.75 46.15 46.15 0 0 1 3.73-4.34h16.15a43.52 43.52 0 0 1 3.96 4.32 30.42 30.42 0 0 1 2.85 4.2 21.18 21.18 0 0 1 1.09 2.25 8.11 8.11 0 0 1 .28.78c2.23 7.15-5.12 15.13-16.06 15.13z" fill="#bc1b21"/><path d="M93.58 105.43A30.4 30.4 0 0 1 97.39 99a46.22 46.22 0 0 1 3.74-4.34h-.66A46.15 46.15 0 0 0 96.74 99a29.59 29.59 0 0 0-3.81 6.46c-3 7.36 4.44 15.93 15.78 15.93h.29c-11.12-.2-18.39-8.67-15.42-15.96z" fill="#c62430"/><path d="M113.92 120.72v.81a20.65 20.65 0 0 1-5.21.65 21.12 21.12 0 0 1-5.21-.64v-.82a21.53 21.53 0 0 0 10.42 0z" fill="#39373a"/><path d="M124.49 105.43a26.9 26.9 0 0 0-3.94-6.43 42.41 42.41 0 0 0-3.94-4.34h-4.47a44.86 44.86 0 0 1 3.94 4.34 27.55 27.55 0 0 1 3.94 6.46c2.8 6.86-3.48 14.78-13.55 15.81a20.6 20.6 0 0 0 2.24.12c11.35-.03 18.79-8.6 15.78-15.96z" fill="#96151f"/><path d="M122 96.8a2.45 2.45 0 0 1-2.64 2.2h-21.3a2.45 2.45 0 0 1-2.66-2.2 2.45 2.45 0 0 1 2.66-2.17h21.3A2.45 2.45 0 0 1 122 96.8z" fill="#ffb21a"/><path d="M98.21 96.8a2.45 2.45 0 0 1 2.66-2.17h-2.81a2.22 2.22 0 1 0 0 4.34h2.81a2.45 2.45 0 0 1-2.66-2.17z" fill="#fdd224"/><path d="M119.36 94.63h-5.21a2.22 2.22 0 1 1 0 4.34h5.21a2.22 2.22 0 1 0 0-4.34z" fill="#ff990b"/><path fill="#ffb21a" d="m108.71 113.02-3.64-2.96 3.64-2.97 3.64 2.97-3.64 2.96z"/><path fill="#96151f" d="m109.37 113.02-3.65-2.96 3.65-2.97 3.64 2.97-3.64 2.96z"/><path fill="#ffb21a" d="m108.71 113.02-3.64-2.96 3.64-2.97 3.64 2.97-3.64 2.96z"/><path fill="#ff990b" d="m108.71 107.09-.33.27 3.32 2.7-3.32 2.7.33.26 3.64-2.96-3.64-2.97z"/><path d="m124.77 106.21-3-4.21-3.26 4.59-3.25-4.59-3.26 4.6-3.25-4.6-3.25 4.59-3.25-4.59-3.25 4.6-3.26-4.6-3.16 4.45 1.14-2.73 2-2.84 3.28 4.58 3.26-4.58 3.25 4.58 3.25-4.58 3.26 4.58 3.25-4.58 3.25 4.58 3.26-4.58 1.63 2.29a21.18 21.18 0 0 1 1.09 2.25 8.11 8.11 0 0 1 .27.79z" fill="#ffb21a"/><path d="M124.77 106.21a.88.88 0 0 0-.05-.15q-.09-.28-.21-.57c-.15-.36-.31-.71-.48-1.06a2.26 2.26 0 0 0-.11-.22c-.13-.27-.27-.54-.41-.8l-.12-.22-1.6-2.25-2.33 3.28.32.68 2-2.83 3 4.21z" fill="#ff990b"/><path fill="#5b595b" d="M64.2 186.52h10.42v4.79H64.2z"/><path fill="#484349" d="M72.39 186.52h2.24v4.79h-2.24z"/><ellipse cx="69.41" cy="154.9" rx="2.8" ry="2.28" fill="#ffb21a"/><path d="M69.41 152.61a3.5 3.5 0 0 0-.65.07 2.22 2.22 0 0 1 0 4.43 3.5 3.5 0 0 0 .65.07 2.33 2.33 0 1 0 0-4.57z" fill="#ff990b"/><ellipse cx="69.41" cy="164.08" rx="11.01" ry="8.96" fill="#a3af31"/><path d="M59.48 164.08c0-4.8 4.64-8.72 10.47-9h-.54c-6.08 0-11 4-11 9s4.93 9 11 9h.54c-5.83-.27-10.47-4.19-10.47-9z" fill="#b5bc35"/><path d="M69.41 155.12a13 13 0 0 0-1.4.08c5.42.56 9.61 4.32 9.61 8.88S73.43 172.41 68 173a13 13 0 0 0 1.4.08c6.08 0 11-4 11-9s-4.91-8.96-10.99-8.96z" fill="#969b2c"/><path d="M62.63 191.31H76.2a4.22 4.22 0 0 1 4.22 4.22h-22a4.22 4.22 0 0 1 4.21-4.22z" fill="#ffb21a"/><path d="M62 191.31h-1a2.55 2.55 0 0 0-2.55 2.55v1.67h1.07v-1.67a2.55 2.55 0 0 1 2.48-2.55z" fill="#fdd224"/><path d="M77.87 191.31h-5.21a2.55 2.55 0 0 1 2.55 2.55v1.67h5.21v-1.67a2.55 2.55 0 0 0-2.55-2.55z" fill="#ff990b"/><path d="M69.41 187.61c-10.81 0-18.08-7.79-16.13-14.9a7.94 7.94 0 0 1 .35-1 18.48 18.48 0 0 1 .79-1.69 33.48 33.48 0 0 1 3-4.75 47.51 47.51 0 0 1 3.73-4.33h16.17a44.72 44.72 0 0 1 3.94 4.33 31.06 31.06 0 0 1 2.84 4.21 23.24 23.24 0 0 1 1.09 2.25 7.41 7.41 0 0 1 .28.79c2.2 7.11-5.11 15.09-16.06 15.09z" fill="#bc1b21"/><path d="M54.28 171.67a30.52 30.52 0 0 1 3.82-6.46 44.58 44.58 0 0 1 3.73-4.33h-.66a46 46 0 0 0-3.73 4.33 30.48 30.48 0 0 0-3.81 6.46c-3 7.37 4.44 15.94 15.78 15.94h.33c-11.15-.18-18.43-8.61-15.46-15.94z" fill="#c62430"/><path d="M74.63 187v.82a21.57 21.57 0 0 1-10.43 0V187a21.25 21.25 0 0 0 10.43 0z" fill="#39373a"/><path d="M85.2 171.67a28 28 0 0 0-3.94-6.46 44.72 44.72 0 0 0-3.94-4.33h-4.48a43.46 43.46 0 0 1 3.94 4.33 28 28 0 0 1 3.94 6.46c2.81 6.87-3.48 14.78-13.55 15.82.73.07 1.48.12 2.24.12 11.35 0 18.79-8.61 15.79-15.94z" fill="#96151f"/><path d="M82.72 163a2.45 2.45 0 0 1-2.66 2.17h-21.3A2.45 2.45 0 0 1 56.1 163a2.45 2.45 0 0 1 2.66-2.16h21.3a2.45 2.45 0 0 1 2.66 2.16z" fill="#ffb21a"/><path d="M58.91 163a2.45 2.45 0 0 1 2.66-2.16h-2.81a2.21 2.21 0 1 0 0 4.33h2.81a2.45 2.45 0 0 1-2.66-2.17z" fill="#fdd224"/><path d="M80.06 160.88h-5.21a2.21 2.21 0 1 1 0 4.33h5.21a2.21 2.21 0 1 0 0-4.33z" fill="#ff990b"/><path fill="#ffb21a" d="m69.41 179.27-3.64-2.97 3.64-2.96 3.65 2.96-3.65 2.97z"/><path fill="#96151f" d="m70.07 179.27-3.65-2.97 3.65-2.96 3.64 2.96-3.64 2.97z"/><path fill="#ffb21a" d="m69.41 179.27-3.64-2.97 3.64-2.96 3.65 2.96-3.65 2.97z"/><path fill="#ff990b" d="m69.41 173.34-.32.26 3.31 2.7-3.31 2.7.32.27 3.64-2.97-3.64-2.96z"/><path d="m85.47 172.46-3-4.21-3.25 4.58-3.22-4.57-3.25 4.58-3.26-4.58-3.25 4.58-3.24-4.58-3.26 4.58-3.25-4.58-3.16 4.45 1.09-2.71 2-2.83 3.25 4.58 3.33-4.62 3.25 4.58 3.25-4.58 3.26 4.58 3.24-4.58 3.26 4.58 3.25-4.58 1.63 2.29a23.24 23.24 0 0 1 1.09 2.25 7.41 7.41 0 0 1 .24.79z" fill="#ffb21a"/><path d="M85.47 172.46a.88.88 0 0 0 0-.15c-.06-.19-.13-.38-.2-.57-.14-.35-.31-.7-.47-1a2.4 2.4 0 0 1-.11-.23l-.42-.8-.12-.21-1.6-2.25-2.33 3.28c.11.23.22.45.32.68l2-2.83 3 4.21z" fill="#ff990b"/><path fill="#5b595b" d="M64.2 54.03h10.42v4.79H64.2z"/><path fill="#484349" d="M72.39 54.03h2.24v4.79h-2.24z"/><ellipse cx="69.41" cy="22.4" rx="2.8" ry="2.28" fill="#ffb21a"/><path d="M69.41 20.12a3.5 3.5 0 0 0-.65.07 2.44 2.44 0 0 1 2.15 2.21 2.44 2.44 0 0 1-2.15 2.22 3.5 3.5 0 0 0 .65.07 2.59 2.59 0 0 0 2.81-2.29 2.59 2.59 0 0 0-2.81-2.28z" fill="#ff990b"/><ellipse cx="69.41" cy="31.59" rx="11.01" ry="8.96" fill="#a3af31"/><path d="M59.48 31.59c0-4.8 4.64-8.72 10.47-8.95h-.54c-6.08 0-11 4-11 9s4.93 9 11 9H70c-5.88-.32-10.52-4.24-10.52-9.05z" fill="#b5bc35"/><path d="M69.41 22.63a13 13 0 0 0-1.4.08c5.42.56 9.61 4.32 9.61 8.88s-4.19 8.33-9.62 8.89a13 13 0 0 0 1.4.07c6.08 0 11-4 11-9s-4.91-8.92-10.99-8.92z" fill="#969b2c"/><path d="M62.63 58.81H76.2A4.22 4.22 0 0 1 80.42 63h-22a4.22 4.22 0 0 1 4.21-4.19z" fill="#ffb21a"/><path d="M62 58.81h-1a2.56 2.56 0 0 0-2.55 2.56V63h1.07v-1.63A2.56 2.56 0 0 1 62 58.81z" fill="#fdd224"/><path d="M77.87 58.81h-5.21a2.56 2.56 0 0 1 2.55 2.56V63h5.21v-1.63a2.56 2.56 0 0 0-2.55-2.56z" fill="#ff990b"/><path d="M69.41 55.11c-10.81 0-18.08-7.78-16.13-14.89a8.34 8.34 0 0 1 .35-1c.23-.57.5-1.14.79-1.7a33.48 33.48 0 0 1 3-4.75 47.51 47.51 0 0 1 3.73-4.33h16.17a44.72 44.72 0 0 1 3.94 4.33 30.45 30.45 0 0 1 2.84 4.21 23.24 23.24 0 0 1 1.09 2.25 7.41 7.41 0 0 1 .28.79c2.2 7.12-5.11 15.09-16.06 15.09z" fill="#bc1b21"/><path d="M54.28 39.18a30.52 30.52 0 0 1 3.82-6.46 44.58 44.58 0 0 1 3.73-4.33h-.66a46 46 0 0 0-3.73 4.33 30.48 30.48 0 0 0-3.81 6.46c-3 7.36 4.44 15.93 15.78 15.93h.33c-11.15-.17-18.43-8.64-15.46-15.93z" fill="#c62430"/><path d="M74.63 54.47v.82a21.57 21.57 0 0 1-10.43 0v-.82a21.57 21.57 0 0 0 10.43 0z" fill="#39373a"/><path d="M85.2 39.18a28 28 0 0 0-3.94-6.46 44.72 44.72 0 0 0-3.94-4.33h-4.48a43.46 43.46 0 0 1 3.94 4.33 28 28 0 0 1 3.94 6.46C83.53 46.05 77.24 54 67.17 55c.73.07 1.48.11 2.24.11 11.35 0 18.79-8.57 15.79-15.93z" fill="#96151f"/><path d="M82.72 30.55a2.45 2.45 0 0 1-2.66 2.17h-21.3a2.45 2.45 0 0 1-2.66-2.17 2.45 2.45 0 0 1 2.66-2.16h21.3a2.45 2.45 0 0 1 2.66 2.16z" fill="#ffb21a"/><path d="M58.91 30.55a2.45 2.45 0 0 1 2.66-2.16h-2.81a2.45 2.45 0 0 0-2.66 2.16 2.45 2.45 0 0 0 2.66 2.17h2.81a2.45 2.45 0 0 1-2.66-2.17z" fill="#fdd224"/><path d="M80.06 28.39h-5.21a2.45 2.45 0 0 1 2.66 2.16 2.45 2.45 0 0 1-2.66 2.17h5.21a2.45 2.45 0 0 0 2.66-2.17 2.45 2.45 0 0 0-2.66-2.16z" fill="#ff990b"/><path fill="#ffb21a" d="m69.41 46.78-3.64-2.97 3.64-2.96 3.65 2.96-3.65 2.97z"/><path fill="#96151f" d="m70.07 46.78-3.65-2.97 3.65-2.96 3.64 2.96-3.64 2.97z"/><path fill="#ffb21a" d="m69.41 46.78-3.64-2.97 3.64-2.96 3.65 2.96-3.65 2.97z"/><path fill="#ff990b" d="m69.41 40.85-.32.26 3.31 2.7-3.31 2.7.32.27 3.64-2.97-3.64-2.96z"/><path d="m85.47 40-3-4.21-3.25 4.58-3.22-4.6-3.25 4.58-3.26-4.58-3.29 4.58-3.2-4.58-3.26 4.58-3.25-4.58-3.16 4.44 1.14-2.73 2-2.83 3.25 4.58L63 34.64l3.25 4.58 3.25-4.58 3.26 4.58L76 34.64l3.26 4.58 3.25-4.58 1.63 2.29a23.24 23.24 0 0 1 1.09 2.25 7.41 7.41 0 0 1 .24.82z" fill="#ffb21a"/><path d="M85.47 40a.88.88 0 0 0 0-.15c-.06-.19-.13-.38-.2-.57-.14-.35-.31-.7-.47-1a2.4 2.4 0 0 1-.11-.23l-.42-.8-.12-.21-1.6-2.25-2.33 3.28c.11.22.22.45.32.68l2-2.83 3 4.21z" fill="#ff990b"/><path fill="#5b595b" d="M64.2 120.27h10.42v4.79H64.2z"/><path fill="#484349" d="M72.39 120.28h2.24v4.79h-2.24z"/><ellipse cx="69.41" cy="88.65" rx="2.8" ry="2.28" fill="#ffb21a"/><path d="M69.41 86.37a3.49 3.49 0 0 0-.65.06 2.22 2.22 0 0 1 0 4.44 3.49 3.49 0 0 0 .65.06 2.33 2.33 0 1 0 0-4.56z" fill="#ff990b"/><ellipse cx="69.41" cy="97.84" rx="11.01" ry="8.96" fill="#a3af31"/><path d="M59.48 97.84c0-4.8 4.64-8.72 10.47-9h-.54c-6.08 0-11 4-11 9s4.93 9 11 9H70c-5.88-.28-10.52-4.2-10.52-9z" fill="#b5bc35"/><path d="M69.41 88.88A13 13 0 0 0 68 89c5.42.56 9.61 4.33 9.61 8.89s-4.19 8.33-9.61 8.89c.46 0 .93.07 1.4.07 6.08 0 11-4 11-9s-4.91-8.97-10.99-8.97z" fill="#969b2c"/><path d="M62.63 125.06H76.2a4.22 4.22 0 0 1 4.22 4.22h-22a4.22 4.22 0 0 1 4.21-4.22z" fill="#ffb21a"/><path d="M62 125.06h-1a2.55 2.55 0 0 0-2.55 2.55v1.67h1.07v-1.67a2.55 2.55 0 0 1 2.48-2.55z" fill="#fdd224"/><path d="M77.87 125.06h-5.21a2.55 2.55 0 0 1 2.55 2.55v1.67h5.21v-1.67a2.55 2.55 0 0 0-2.55-2.55z" fill="#ff990b"/><path d="M69.41 121.36c-10.81 0-18.08-7.79-16.13-14.89a7.81 7.81 0 0 1 .35-1 18.65 18.65 0 0 1 .79-1.7 32.92 32.92 0 0 1 3-4.75 47.68 47.68 0 0 1 3.73-4.34h16.17A44.86 44.86 0 0 1 81.26 99a30.35 30.35 0 0 1 2.84 4.2 21.18 21.18 0 0 1 1.09 2.25 8.11 8.11 0 0 1 .28.78c2.2 7.15-5.11 15.13-16.06 15.13z" fill="#bc1b21"/><path d="M54.28 105.43A30 30 0 0 1 58.1 99a44.72 44.72 0 0 1 3.73-4.34h-.66A46.15 46.15 0 0 0 57.44 99a30 30 0 0 0-3.81 6.46c-3 7.36 4.44 15.93 15.78 15.93h.33c-11.15-.2-18.43-8.67-15.46-15.96z" fill="#c62430"/><path d="M74.63 120.72v.81a20.79 20.79 0 0 1-5.22.65 21.18 21.18 0 0 1-5.21-.64v-.82a21.57 21.57 0 0 0 10.43 0z" fill="#39373a"/><path d="M85.2 105.43A27.55 27.55 0 0 0 81.26 99a44.86 44.86 0 0 0-3.94-4.34h-4.48A43.6 43.6 0 0 1 76.78 99a27.55 27.55 0 0 1 3.94 6.46c2.81 6.86-3.48 14.78-13.55 15.81a20.6 20.6 0 0 0 2.24.12c11.35-.03 18.79-8.6 15.79-15.96z" fill="#96151f"/><path d="M82.72 96.8a2.45 2.45 0 0 1-2.66 2.2h-21.3a2.45 2.45 0 0 1-2.66-2.2 2.45 2.45 0 0 1 2.66-2.17h21.3a2.45 2.45 0 0 1 2.66 2.17z" fill="#ffb21a"/><path d="M58.91 96.8a2.45 2.45 0 0 1 2.66-2.17h-2.81a2.22 2.22 0 1 0 0 4.34h2.81a2.45 2.45 0 0 1-2.66-2.17z" fill="#fdd224"/><path d="M80.06 94.63h-5.21a2.22 2.22 0 1 1 0 4.34h5.21a2.22 2.22 0 1 0 0-4.34z" fill="#ff990b"/><path fill="#ffb21a" d="m69.41 113.02-3.64-2.96 3.64-2.97 3.65 2.97-3.65 2.96z"/><path fill="#96151f" d="m70.07 113.02-3.65-2.96 3.65-2.97 3.64 2.97-3.64 2.96z"/><path fill="#ffb21a" d="m69.41 113.02-3.64-2.96 3.64-2.97 3.65 2.97-3.65 2.96z"/><path fill="#ff990b" d="m69.41 107.09-.32.27 3.31 2.7-3.31 2.7.32.26 3.64-2.96-3.64-2.97z"/><path d="m85.47 106.21-3-4.21-3.25 4.59L76 102l-3.25 4.59-3.3-4.59-3.25 4.6L63 102l-3.26 4.59-3.3-4.59-3.16 4.45 1.14-2.73 2-2.84 3.25 4.58 3.33-4.58 3.25 4.58 3.25-4.58 3.26 4.58 3.24-4.58 3.26 4.58 3.25-4.58 1.63 2.29a21.18 21.18 0 0 1 1.09 2.25 8.11 8.11 0 0 1 .24.79z" fill="#ffb21a"/><path d="M85.47 106.21a.88.88 0 0 0 0-.15c-.06-.19-.13-.38-.2-.57-.14-.36-.31-.71-.47-1.06l-.11-.22-.42-.8-.12-.22-1.6-2.25-2.33 3.28.32.68 2-2.83 3 4.21z" fill="#ff990b"/><path d="M9.52 23.48v-.25a8.23 8.23 0 0 0 2.55-1 5.41 5.41 0 0 0 1.65-1.65 6.56 6.56 0 0 0 .85-2.27 6 6 0 0 1-1 .4 2.82 2.82 0 0 1-.83.11 3 3 0 0 1-2.31-1 3.88 3.88 0 0 1-.93-2.75 5 5 0 0 1 .5-2.21 3.65 3.65 0 0 1 1.44-1.57 3.67 3.67 0 0 1 4 .06A4.27 4.27 0 0 1 17 13.12a6 6 0 0 1 .57 2.66 7.84 7.84 0 0 1-.93 3.7 7 7 0 0 1-2.76 2.84 9 9 0 0 1-4.36 1.16zm5.19-5.94c.06-.68.09-1.27.09-1.78a11.87 11.87 0 0 0-.38-3.06 2.3 2.3 0 0 0-.64-1.16.88.88 0 0 0-.59-.2.79.79 0 0 0-.7.39 4 4 0 0 0-.35 2 7 7 0 0 0 .59 3.45 1.2 1.2 0 0 0 1 .62 2.33 2.33 0 0 0 .98-.26zM121 203.23V203a8.23 8.23 0 0 0 2.55-1 5.41 5.41 0 0 0 1.65-1.65 6.56 6.56 0 0 0 .85-2.27 6 6 0 0 1-.95.4 2.82 2.82 0 0 1-.83.11 3 3 0 0 1-2.31-1 3.88 3.88 0 0 1-.93-2.75 5 5 0 0 1 .5-2.21A3.65 3.65 0 0 1 123 191a3.67 3.67 0 0 1 4 .06 4.27 4.27 0 0 1 1.53 1.78 6 6 0 0 1 .57 2.66 7.84 7.84 0 0 1-.93 3.7 7 7 0 0 1-2.76 2.84 9 9 0 0 1-4.41 1.19zm5.19-5.94c.06-.68.09-1.27.09-1.78a11.87 11.87 0 0 0-.38-3.06 2.3 2.3 0 0 0-.64-1.16.88.88 0 0 0-.59-.2.79.79 0 0 0-.7.39 4 4 0 0 0-.35 2 7 7 0 0 0 .59 3.45 1.2 1.2 0 0 0 1 .62 2.33 2.33 0 0 0 1-.26z" fill="#7f664a"/><path fill="none" stroke="#7f664a" stroke-miterlimit="10" stroke-width=".5" d="M8.92 24.84h9.16m102.34 179.75h9.16"/></svg>