<svg xmlns="http://www.w3.org/2000/svg" viewBox="0 0 138.83 215.65"><path fill="#fff" d="M0 0h138.82v215.65H0z"/><path d="M77.46 37.7c-.17-2.8-2.36-5.09-4.79-6.51a17.54 17.54 0 0 0-19.53 1.59c-1.81 1.5-3.3 3.37-5 4.95a22.21 22.21 0 0 1-14.49 5.74 6.48 6.48 0 0 1-4.1-1c-1.36-1.07-1.8-2.91-2.15-4.61-1.4 3.93.81 8.46 4.21 10.88s7.7 3.17 11.87 3.52a55.82 55.82 0 0 0 8.77.12C57 52 62.1 50.53 64.68 46.53h3.27a10.94 10.94 0 0 0 4.73-.77 8.68 8.68 0 0 0 1.94-1.41 5.65 5.65 0 0 0 2-3c.16-1.07.19-2.75.84-3.65z" fill="#78b1ef"/><path d="M76.58 38.78a5.68 5.68 0 0 1-2 3 8.68 8.68 0 0 1-1.94 1.41A10.94 10.94 0 0 1 68 44h-3.27c-2.58 4-7.72 5.48-12.47 5.83a54.63 54.63 0 0 1-8.77-.11c-4.17-.35-8.47-1.1-11.87-3.52a11.16 11.16 0 0 1-4.53-7c-.6 3.61 1.49 7.46 4.53 9.63 3.4 2.43 7.7 3.17 11.87 3.52a55.82 55.82 0 0 0 8.77.12C57 52 62.1 50.53 64.68 46.53h3.27a10.94 10.94 0 0 0 4.73-.77 8.68 8.68 0 0 0 1.94-1.41 5.65 5.65 0 0 0 2-3c.2-1.09.23-2.77.88-3.67a6.23 6.23 0 0 0-.39-1.77 22.72 22.72 0 0 0-.53 2.87z" fill="#3790b7"/><path d="M62.92 35.53A14.33 14.33 0 0 0 54.6 40a33.9 33.9 0 0 1-4.05 4A9.85 9.85 0 0 1 43 45.66c2.22 1.72 5.5 1.25 8-.11s4.43-3.45 6.76-5 5.36-2.59 8-1.5a2.69 2.69 0 0 1 1.17.85c.22.31.34.69.56 1a2 2 0 0 0 2.42.66c2.41-1.15.57-3.53-.8-4.5a9 9 0 0 0-6.19-1.53z" fill="#88c3ea"/><path fill="#fff" d="m62.07 27.7 1.83 4.12 1.44-4.12h-3.27zM42.08 40.72l2.43 2.26-.72-4.23-1.71 1.97zm11.39 12.94 1.18-3.52 1.25 3.52h-2.43z"/><path d="m62.5 76.25-4.67-6.78S69 61 91.12 67.22l-7.38 10.69z" fill="#ff990b"/><path fill="#f9c18a" d="M69.88 66.31h7.98v11.6h-7.98z"/><ellipse cx="83.5" cy="57.43" rx="3.09" ry="3.76" fill="#f9c18a"/><circle cx="63.85" cy="80.39" r="7.91" fill="#bc1b21"/><path d="M61 75.34S54.12 81 62 87.68c0 0-5.33-4.42-1-12.34z" fill="#fdbb29"/><ellipse cx="75.83" cy="58.89" rx="9.56" ry="13.36" fill="#f9c18a"/><path d="M80.86 47.54a15.9 15.9 0 0 1 3.42 10.24c0 7.37-4.28 13.35-9.56 13.35a7.63 7.63 0 0 1-5-2 8.1 8.1 0 0 0 6.14 3.12c5.28 0 9.56-6 9.56-13.35-.03-4.81-1.84-9-4.56-11.36z" fill="#ea9f54"/><ellipse cx="66.19" cy="57.43" rx="3.09" ry="3.76" fill="#f9c18a"/><path d="M64.57 78.09c-1.2 2-1.41 4.35-1.56 6.64a63.75 63.75 0 0 0 .1 12.66 25.36 25.36 0 0 0 4.41 11.75c1.55 2.09 3.73 4 6.33 4.18a7.89 7.89 0 0 0 6.28-2.85 18 18 0 0 0 3.3-6.27 52.81 52.81 0 0 0 2.82-18.36 12.92 12.92 0 0 0-1.09-5.59 9.72 9.72 0 0 0-6.64-4.64c-2.83-.64-5.58-.22-8.43-.17-2.34.04-4.19.46-5.52 2.65z" fill="#fdbb29"/><path d="M86.25 85.84a12.92 12.92 0 0 0-1.09-5.59 9.72 9.72 0 0 0-6.64-4.64 22.78 22.78 0 0 0-6.27-.26 13 13 0 0 1 1.64.26 9.68 9.68 0 0 1 6.64 4.64 12.79 12.79 0 0 1 1.1 5.59 53 53 0 0 1-2.82 18.36 17.83 17.83 0 0 1-3.31 6.27 8.91 8.91 0 0 1-3.5 2.42 6.93 6.93 0 0 0 1.81.43 7.89 7.89 0 0 0 6.28-2.85 18 18 0 0 0 3.3-6.27 52.81 52.81 0 0 0 2.86-18.36z" fill="#ff990b"/><ellipse cx="80.87" cy="119.54" rx="10.99" ry="11.53" fill="#78b1ef"/><path d="M80.87 108a10.6 10.6 0 0 0-3 .44 11.67 11.67 0 0 1 0 22.16 10.26 10.26 0 0 0 3 .45 11.54 11.54 0 0 0 0-23z" fill="#47a0dd"/><ellipse cx="78.41" cy="119.54" rx="10.99" ry="11.53" fill="#78b1ef"/><ellipse cx="74.51" cy="119.54" rx="10.99" ry="11.53" fill="#78b1ef"/><ellipse cx="66.27" cy="118.69" rx="10.05" ry="11.53" fill="#78b1ef"/><path d="M58.09 118.69c0-6 4-10.93 9.11-11.47h-.93c-5.55 0-10 5.16-10 11.52s4.5 11.53 10 11.53a7.26 7.26 0 0 0 .93-.06c-5.11-.59-9.11-5.51-9.11-11.52z" fill="#88c3ea"/><ellipse cx="68.36" cy="118.69" rx="10.05" ry="11.53" fill="#78b1ef"/><path d="M63.11 50.81c-1.3-3.38.56-7.34 3.45-9.51s6.59-2.94 10.17-3.49a8.66 8.66 0 0 1 3.4-.06A7 7 0 0 1 82.58 39a15.57 15.57 0 0 1 3.64 4c1.13 1.74 2.14 3.9 4.16 4.41a10 10 0 0 1 1.23.27c1.38.53 1.75 2.48 1 3.77a5.89 5.89 0 0 1-3.55 2.47 5.59 5.59 0 0 1-3.56.19 7.74 7.74 0 0 1-2.32-1.59c-4.18-3.64-10.29-5.79-15.4-3.6a5.62 5.62 0 0 0-3.42 3.78 4.61 4.61 0 0 1-1.25-1.89z" fill="#bc1b21"/><path d="M70.41 41.3c2.85-2.14 6.46-2.91 10-3.46l-.26-.09a8.66 8.66 0 0 0-3.4.06c-3.58.55-7.27 1.32-10.17 3.49s-4.75 6.13-3.45 9.51a4.61 4.61 0 0 0 1.25 1.89 5.4 5.4 0 0 1 2.26-3.15c-.51-3.06 1.23-6.34 3.77-8.25z" fill="#ce303c"/><path d="M91.61 47.63a10 10 0 0 0-1.23-.27c-2-.51-3-2.67-4.16-4.41A15.57 15.57 0 0 0 82.58 39a7 7 0 0 0-2.45-1.29 6.42 6.42 0 0 0-2.23-.09 15.34 15.34 0 0 1 3.21 3.56c1.13 1.74 2.15 3.9 4.16 4.41a8.88 8.88 0 0 1 1.24.28c1.38.52 1.74 2.47 1 3.77a6 6 0 0 1-3.51 2.5 8.11 8.11 0 0 1-.88.24l.11.09a7.74 7.74 0 0 0 2.32 1.59 5.59 5.59 0 0 0 3.56-.19 5.89 5.89 0 0 0 3.55-2.47c.7-1.29.34-3.24-1.05-3.77z" fill="#96151f"/><path d="M64.87 72.53c-1.18.06-2.25 1.28-2.74 2.84a10 10 0 0 0-.08 5 7 7 0 0 0 .95 2.38 2.42 2.42 0 0 0 4 .25c.58-.69 1-1.73 1.71-2.13a.55.55 0 0 1 .46-.07 1.18 1.18 0 0 1 .47.55 6.57 6.57 0 0 0 1.72 2.17 1.58 1.58 0 0 0 2.18-.18c.67-.76.94-2.31 1.77-2.59s1.46.83 1.94 1.78 1.19 2 2 1.67c1-.42 1.17-2.64 2.16-2.77.39 0 .75.28 1.09.58a6.17 6.17 0 0 0 2.5 1.54 2.6 2.6 0 0 0 2.58-.79c1.21-1.34 1.37-4.1.6-6a5.56 5.56 0 0 0-3.74-3.42 1.14 1.14 0 0 0-1 .06c-.5.32-.69 1.19-.88 1.94S82 76.92 81.48 77s-1-.88-1.37-1.59a4 4 0 0 0-2.73-2.23 1.31 1.31 0 0 0-.89.12c-.6.34-.91 1.28-1.29 2s-1.06 1.45-1.63 1a3 3 0 0 1-.68-1.67 4.87 4.87 0 0 0-1.54-2.87 1.47 1.47 0 0 0-2.24.89c-.38 1.08-.42 3.48-1.62 2.29-.98-.94-1.16-2.49-2.62-2.41z" fill="#fff"/><circle cx="86.52" cy="80.39" r="7.91" fill="#bc1b21"/><path d="M86.52 72.49a9.08 9.08 0 0 0-1.17.09 7.89 7.89 0 0 1 0 15.62 7.59 7.59 0 0 0 1.17.1 7.91 7.91 0 1 0 0-15.81z" fill="#96151f"/><path d="M62.28 111s-9.78 6.78 0 16.56c0 .04-6.62-6.43 0-16.56z" fill="#bc1b21"/><path d="M67.17 111s-9.79 6.78 0 16.56c0 .04-6.63-6.43 0-16.56zm8.42 0s-9.79 6.78 0 16.56c0 .04-6.59-6.43 0-16.56zm7.91 0s9.79 6.78 0 16.56c0 .04 6.63-6.43 0-16.56z" fill="#bc1b21"/><path d="M93.09 78.52s1.44 8.78-8.9 8.61c0 0 6.92.19 8.9-8.61zm-4.3-3.77s-8.9 0-7.06 10.17c0 0-1.31-6.8 7.06-10.17z" fill="#fdbb29"/><path d="M78.62 111s9.78 6.78 0 16.56c0 .04 6.62-6.43 0-16.56z" fill="#bc1b21"/><path d="M50.23 73.74c-.21-.32-.48-.59-.69-.91-1-1.59 0-3.77-.64-5.54a1.88 1.88 0 0 0-2.27 1.36 6.84 6.84 0 0 0 0 2.95.56.56 0 0 1-.67.73c-1.66.06-3.49 0-4.76-1-1-.85-1.45-2.22-2.38-3.16a1.4 1.4 0 0 0-1.19-.51 1.38 1.38 0 0 0-.87 1.16 5.24 5.24 0 0 0 1 3.94 15.55 15.55 0 0 0 2.93 3 11.4 11.4 0 0 0 2.71 1.87 11 11 0 0 0 2.6.66l2.69.46a2.56 2.56 0 0 0 1.6-.07c.99-.54.41-4.19-.06-4.94z" fill="#f9c18a"/><path d="M37.17 68.16c.93.94 1.37 2.31 2.38 3.16 1.27 1.06 3.1 1.07 4.75 1h.07a5.2 5.2 0 0 1-3.13-1c-1-.85-1.45-2.22-2.38-3.16a1.4 1.4 0 0 0-1.19-.51 1 1 0 0 0-.59.44zm13.06 5.58c-.21-.32-.48-.59-.69-.91-1-1.59 0-3.77-.64-5.54a1.55 1.55 0 0 0-1.6.36c.42 1.7-.4 3.7.55 5.18.21.32.48.59.69.91.47.75 1.05 4.4.08 4.9h-.11.2a2.56 2.56 0 0 0 1.6-.07c.97-.43.39-4.08-.08-4.83z" fill="#ea9f54"/><path d="M68.38 119.54a11.31 11.31 0 0 1 10.24-11.48h-.76a11.54 11.54 0 0 0 0 23h.76a11.31 11.31 0 0 1-10.24-11.52z" fill="#47a0dd"/><path d="M66.27 106.59s6.27 10.59 15.79.41l.91-2.41-18.41-1.08z" fill="#fdbb29"/><path d="M75.5 110.47a10.32 10.32 0 0 1-1 .92c2.17-.19 4.69-1.38 7.51-4.39l.91-2.41-4.21-.25a17.75 17.75 0 0 1-3.21 6.13z" fill="#ff990b"/><path d="M54.7 104.91c-.11 1-.12 2.22.7 2.82a2.82 2.82 0 0 0 1.77.34 17.81 17.81 0 0 0 11.33-4.9 2.76 2.76 0 0 0 1.07-1.93 2.89 2.89 0 0 0-.44-1.26l-1.29-2.41a26.22 26.22 0 0 1-6.29 2.13 27 27 0 0 1 1.15-6.27 12.13 12.13 0 0 0 .22-6.32c-.36-1.21-2.14-4.15-3.81-3.67-1.43.42-1.73 5-2 6.26a153.23 153.23 0 0 0-2.41 15.21z" fill="#78b1ef"/><path d="m73.5 98.54 1.2-1.21s8.89-3 6.63-8.58c0 0-1.66-4.37-5.27-2.26S73.5 89.2 73.5 89.2s-3.17.45-2.56 4.22l-2.87 2.86z" fill="#f9c18a"/><path d="M64.11 96.68a.51.51 0 0 0-.11.22.52.52 0 0 0 .19.42 35.88 35.88 0 0 0 5.32 5.06 1.26 1.26 0 0 0 .64.32 1.15 1.15 0 0 0 .6-.14 7 7 0 0 0 2.84-2.39 1.79 1.79 0 0 0 .41-.87 1.76 1.76 0 0 0-.22-.87c-.75-1.72-2.47-4.1-4.37-4.71s-4.26 1.49-5.3 2.96z" fill="#bc1b21"/><path d="M54.28 81.14c2.53 2.58 5.38 5.32 9 5.67a14.73 14.73 0 0 0 5.35-.81 133 133 0 0 0 12.86-4.32c1.28 1 3.25.38 4.05 1.76a2.41 2.41 0 0 1-.17 2.44 5.5 5.5 0 0 1-1.9 1.68 32.77 32.77 0 0 1-8.64 3.21l-9.53 2.59a7.22 7.22 0 0 1-2.86.37 6.71 6.71 0 0 1-2.29-.93 55.25 55.25 0 0 1-9-6.36 3.66 3.66 0 0 1-1.06-1.29 2.51 2.51 0 0 1 1-2.76 9.2 9.2 0 0 1 3.19-1.25z" fill="#78b1ef"/><path d="M85.4 83.32v.06a5.53 5.53 0 0 1-1.9 1.69 33.13 33.13 0 0 1-8.64 3.21l-9.56 2.55a7.21 7.21 0 0 1-2.86.36 6.89 6.89 0 0 1-2.29-.92 55.31 55.31 0 0 1-9-6.37 5.6 5.6 0 0 1-.76-.78 2.22 2.22 0 0 0-.3 2 3.66 3.66 0 0 0 1.06 1.29 55.25 55.25 0 0 0 9 6.36 6.71 6.71 0 0 0 2.29.93 7.22 7.22 0 0 0 2.86-.37l9.53-2.55a32.77 32.77 0 0 0 8.64-3.21 5.5 5.5 0 0 0 1.9-1.68 2.41 2.41 0 0 0 .17-2.44 1.07 1.07 0 0 0-.14-.13z" fill="#3790b7"/><path d="M44.73 79a5.82 5.82 0 0 0 .91 3.81 17.66 17.66 0 0 0 2.53 3.07 1.53 1.53 0 0 0 .62.45 1.38 1.38 0 0 0 .91-.12 19 19 0 0 0 5.71-4 1.54 1.54 0 0 0 .43-.52c.23-.55-.22-1.14-.63-1.58-1.37-1.43-2.73-3.94-4.78-3.23-.34.06-5.75 2.42-5.7 2.12z" fill="#bc1b21"/><path d="M77.46 37.7c-.17-2.8-2.36-5.09-4.79-6.51a17.54 17.54 0 0 0-19.53 1.59c-1.81 1.5-3.3 3.37-5 4.95a22.21 22.21 0 0 1-14.49 5.74 6.48 6.48 0 0 1-4.1-1c-1.36-1.07-1.8-2.91-2.15-4.61-1.4 3.93.81 8.46 4.21 10.88s7.7 3.17 11.87 3.52a55.82 55.82 0 0 0 8.77.12C57 52 62.1 50.53 64.68 46.53h3.27a10.94 10.94 0 0 0 4.73-.77 8.68 8.68 0 0 0 1.94-1.41 5.65 5.65 0 0 0 2-3c.16-1.07.19-2.75.84-3.65z" fill="#78b1ef"/><path d="M76.58 38.78a5.68 5.68 0 0 1-2 3 8.68 8.68 0 0 1-1.94 1.41A10.94 10.94 0 0 1 68 44h-3.27c-2.58 4-7.72 5.48-12.47 5.83a54.63 54.63 0 0 1-8.77-.11c-4.17-.35-8.47-1.1-11.87-3.52a11.16 11.16 0 0 1-4.53-7c-.6 3.61 1.49 7.46 4.53 9.63 3.4 2.43 7.7 3.17 11.87 3.52a55.82 55.82 0 0 0 8.77.12C57 52 62.1 50.53 64.68 46.53h3.27a10.94 10.94 0 0 0 4.73-.77 8.68 8.68 0 0 0 1.94-1.41 5.65 5.65 0 0 0 2-3c.2-1.09.23-2.77.88-3.67a6.23 6.23 0 0 0-.39-1.77 22.72 22.72 0 0 0-.53 2.87z" fill="#3790b7"/><path d="M62.92 35.53A14.33 14.33 0 0 0 54.6 40a33.9 33.9 0 0 1-4.05 4A9.85 9.85 0 0 1 43 45.66c2.22 1.72 5.5 1.25 8-.11s4.43-3.45 6.76-5 5.36-2.59 8-1.5a2.69 2.69 0 0 1 1.17.85c.22.31.34.69.56 1a2 2 0 0 0 2.42.66c2.41-1.15.57-3.53-.8-4.5a9 9 0 0 0-6.19-1.53z" fill="#88c3ea"/><path fill="#fff" d="m62.07 27.7 1.83 4.12 1.44-4.12h-3.27zM42.08 40.72l2.43 2.26-.72-4.23-1.71 1.97zm11.39 12.94 1.18-3.52 1.25 3.52h-2.43z"/><path d="M59.6 81.14s1.81 28-7.56 35.54c0 0 22.13 12.88 46.64 0 0 0-12-20.81-9.71-35.54z" fill="#bc1b21"/><path d="M55.83 118.47c8.59-8.37 6.87-34.91 6.87-34.91h26c0-.82.12-1.63.24-2.42H59.6s1.81 28-7.56 35.54a32.09 32.09 0 0 0 3.79 1.79z" fill="#ce303c"/><path d="M67.32 48.24c-1 .71-1.64.74-2.18 1.85s-1.14 3.48-2.07 4.34a4.25 4.25 0 0 1-3.54 1.17 4.72 4.72 0 0 0 4.09 1.4 4.17 4.17 0 0 1-4.23 4.24 2.69 2.69 0 0 0 2.94.65 7 7 0 0 1-3.83 5.22 5.78 5.78 0 0 0 7.33 2.85c2-.89 3.34-2.9 4.32-4.9a18 18 0 0 0 2.14-9.25c-.17-2.18-1.29-10.16-4.97-7.57zm16.19 0c1 .71 1.63.74 2.17 1.85s1.12 3.48 2.08 4.34a4.25 4.25 0 0 0 3.54 1.17 4.72 4.72 0 0 1-4.09 1.4 4.17 4.17 0 0 0 4.23 4.24 2.69 2.69 0 0 1-2.94.65 7 7 0 0 0 3.83 5.22 5.78 5.78 0 0 1-7.33 2.8C83 69 81.66 67 80.68 65a18 18 0 0 1-2.14-9.25c.17-2.12 1.28-10.1 4.97-7.51z" fill="#b27238"/><path d="m62.5 76.25-4.67-6.78S69 61 91.12 67.22l-7.38 10.69z" fill="#ff990b"/><path d="m64.93 74.81-4.64-6.73a16.75 16.75 0 0 0-2.46 1.39l4.67 6.78 21.24 1.66 1.06-1.55z" fill="#ffb21a"/><path fill="#f9c18a" d="M69.88 66.31h7.98v11.6h-7.98z"/><ellipse cx="83.5" cy="57.43" rx="3.09" ry="3.76" fill="#f9c18a"/><circle cx="63.85" cy="80.39" r="7.91" fill="#bc1b21"/><path d="M65.52 72.67a7.9 7.9 0 0 0 0 15.45 7.9 7.9 0 0 0 0-15.45z" fill="#96151f"/><path d="M61 75.34S54.12 81 62 87.68c0 0-5.33-4.42-1-12.34z" fill="#fdbb29"/><path d="M64.77 170.66c-.11.89-.24 1.78-.39 2.64-.34 1.85-1.3 3.67-3.21 4.26-3.91 1.2-5.27 3.46-4.36 5s7.07 5.57 13.4-3.47c0 0 1.49-1.05 1.12-1.95s-1.57-6.48-1.42-7.53 2.71-11.75 1.5-18.68c0 0 3.59-17.57 4.07-28.49l-13.19-5.09s.45 26.2 2.76 31.93c.61 1.52.21 4.27.26 5.92.06 2.1.09 4.19 0 6.29-.04 2.95-.17 6.13-.54 9.17z" fill="#2d2827"/><path d="M71.41 150.9s3.59-17.57 4.07-28.49l-13.19-5.09v.56L74 122.41c-.43 10.92-4 28.49-4 28.49 1.2 6.93-1.36 17.62-1.51 18.68s1.06 6.62 1.42 7.53-1.12 1.95-1.12 1.95c-2.77 4-5.52 5.41-7.8 5.65 2.51.27 5.85-.81 9.24-5.65 0 0 1.49-1.05 1.12-1.95s-1.57-6.48-1.42-7.53 2.69-11.75 1.48-18.68z" fill="#2d2827"/><path d="M58.55 182.53c-.9-1.51.46-3.77 4.37-5a5.08 5.08 0 0 0 3.2-4.26c.16-.86.29-1.75.4-2.64.37-3 .5-6.22.57-9.2.06-2.1 0-4.19 0-6.29 0-1.65.35-4.4-.27-5.92-2.08-5.18-2.65-27.11-2.73-31.25l-1.77-.68s.45 26.2 2.76 31.93c.61 1.52.21 4.27.26 5.92.06 2.1.09 4.19 0 6.29-.08 3-.21 6.16-.58 9.2-.11.89-.24 1.78-.39 2.64-.34 1.85-1.3 3.67-3.21 4.26-3.91 1.2-5.27 3.46-4.36 5a6.24 6.24 0 0 0 5.75 2.16 5.92 5.92 0 0 1-4-2.16z" fill="#3a3231"/><path fill="#5b595b" d="M39.97 64h9.27v4.26h-9.27z"/><path fill="#484349" d="M47.25 64h1.99v4.25h-1.99z"/><ellipse cx="44.6" cy="35.89" rx="2.49" ry="2.03" fill="#ffb21a"/><path d="M44.6 33.86a2.78 2.78 0 0 0-.58.06 2 2 0 0 1 0 3.94 3.68 3.68 0 0 0 .58 0 2.3 2.3 0 0 0 2.5-2 2.3 2.3 0 0 0-2.5-2z" fill="#ff990b"/><ellipse cx="44.6" cy="44.06" rx="9.79" ry="7.97" fill="#a3af31"/><path d="M35.77 44.06c0-4.27 4.13-7.76 9.31-8h-.48c-5.4 0-9.78 3.57-9.78 8s4.38 8 9.78 8h.48c-5.18-.25-9.31-3.73-9.31-8z" fill="#b5bc35"/><path d="M44.6 36.09c-.42 0-.83 0-1.24.06 4.82.5 8.54 3.85 8.54 7.91s-3.72 7.4-8.54 7.9c.41 0 .82.06 1.24.06 5.41 0 9.79-3.56 9.79-8S50 36.09 44.6 36.09z" fill="#969b2c"/><path d="M37 68.26h15.22a2.17 2.17 0 0 1 2.17 2.17V72H34.82v-1.57A2.17 2.17 0 0 1 37 68.26z" fill="#ffb21a"/><path d="M38 68.26h-.95a2.26 2.26 0 0 0-2.27 2.27V72h1v-1.47A2.27 2.27 0 0 1 38 68.26z" fill="#fdd224"/><path d="M52.12 68.26h-4.63a2.27 2.27 0 0 1 2.27 2.27V72h4.63v-1.47a2.27 2.27 0 0 0-2.27-2.27z" fill="#ff990b"/><path d="M44.6 65c-9.6 0-16.07-7-14.34-13.27a8.29 8.29 0 0 1 .31-.92c.21-.51.45-1 .7-1.51A28.94 28.94 0 0 1 34 45.06a41 41 0 0 1 3.32-3.86h14.31a39.63 39.63 0 0 1 3.5 3.86 26.69 26.69 0 0 1 2.53 3.74c.36.66.69 1.32 1 2 .09.23.17.47.24.7C60.84 57.87 54.33 65 44.6 65z" fill="#bc1b21"/><path d="M31.15 50.8a27 27 0 0 1 3.39-5.74 42.58 42.58 0 0 1 3.32-3.86h-.58A41 41 0 0 0 34 45.06a27 27 0 0 0-3.39 5.74C27.9 57.35 34.52 65 44.6 65h.29c-9.89-.18-16.38-7.71-13.74-14.2z" fill="#c62430"/><path d="M49.24 64.4v.72a18.6 18.6 0 0 1-4.64.58 19.06 19.06 0 0 1-4.6-.57v-.74a18.58 18.58 0 0 0 4.6.61 19.08 19.08 0 0 0 4.64-.6z" fill="#39373a"/><path d="M58.64 50.8a24.85 24.85 0 0 0-3.51-5.74 39.63 39.63 0 0 0-3.5-3.86h-4a41 41 0 0 1 3.51 3.86 24.81 24.81 0 0 1 3.5 5.74c2.49 6.11-3.1 13.14-12 14.06a18.52 18.52 0 0 0 2 .11c10.05.03 16.67-7.62 14-14.17z" fill="#96151f"/><path d="M56.43 43.13a2.18 2.18 0 0 1-2.36 1.93H35.14a2.19 2.19 0 0 1-2.37-1.93 2.19 2.19 0 0 1 2.37-1.93h18.93a2.18 2.18 0 0 1 2.36 1.93z" fill="#ffb21a"/><path d="M35.26 43.13a2.19 2.19 0 0 1 2.37-1.93h-2.49a2.19 2.19 0 0 0-2.37 1.93 2.19 2.19 0 0 0 2.37 1.93h2.49a2.19 2.19 0 0 1-2.37-1.93z" fill="#fdd224"/><path d="M54.07 41.2h-4.63a2.18 2.18 0 0 1 2.36 1.93 2.18 2.18 0 0 1-2.36 1.93h4.63a2.18 2.18 0 0 0 2.36-1.93 2.18 2.18 0 0 0-2.36-1.93z" fill="#ff990b"/><path fill="#ffb21a" d="m44.6 57.56-3.23-2.64 3.23-2.64 3.24 2.64-3.24 2.64z"/><path fill="#96151f" d="m45.19 57.56-3.24-2.64 3.24-2.64 3.23 2.64-3.23 2.64z"/><path fill="#ffb21a" d="m44.6 57.56-3.23-2.64 3.23-2.64 3.24 2.64-3.24 2.64z"/><path fill="#ff990b" d="m44.6 52.28-.29.24 2.95 2.4-2.95 2.4.29.24 3.24-2.64-3.24-2.64z"/><path d="m58.88 51.5-2.66-3.74-2.89 4.07-2.89-4.07-2.9 4.07-2.89-4.07-2.89 4.07-2.89-4.07L36 51.84l-2.89-4.07-2.81 3.95 1-2.43 1.79-2.52L36 50.84l2.9-4.08 2.89 4.08 2.89-4.08 2.89 4.08 2.9-4.08 2.89 4.08 2.89-4.08 1.45 2c.36.66.69 1.32 1 2 .03.24.11.51.18.74z" fill="#ffb21a"/><path d="M58.88 51.5v-.13l-.18-.51-.43-.94-.1-.2-.43-.72c0-.06-.07-.12-.1-.19l-1.43-2-2.07 2.92c.1.2.2.4.29.6l1.78-2.51 2.66 3.74z" fill="#ff990b"/><path d="M74.92 173.86c-.11.9-.24 1.78-.4 2.64-.33 1.85-1.3 3.68-3.2 4.26-3.91 1.21-5.27 3.46-4.37 5s7.08 5.57 13.41-3.46c0 0 1.49-1.06 1.12-2s-1.58-6.48-1.42-7.53 2.71-11.75 1.5-18.67c0 0 3.59-17.57 4.07-28.5l-13.19-5.09s.45 26.21 2.75 31.93c.61 1.52.22 4.28.27 5.92.06 2.1.09 4.2 0 6.29-.04 2.99-.17 6.17-.54 9.21z" fill="#564f4e"/><path d="M68.28 185.73c-.9-1.51.45-3.76 4.37-5 1.9-.58 2.86-2.41 3.2-4.26.16-.86.29-1.74.4-2.64.37-3 .5-6.22.57-9.2.06-2.09 0-4.19 0-6.29-.05-1.64.34-4.4-.27-5.92-2.11-5.26-2.66-27.76-2.74-31.41l-1.34-.52s.45 26.21 2.75 31.93c.61 1.52.22 4.28.27 5.92.06 2.1.09 4.2 0 6.29-.07 3-.2 6.16-.57 9.2-.11.9-.24 1.78-.4 2.64-.33 1.85-1.3 3.68-3.2 4.26-3.91 1.21-5.27 3.46-4.37 5a6.24 6.24 0 0 0 5.53 2.19 5.93 5.93 0 0 1-4.2-2.19z" fill="#564d4c"/><path d="M81.56 154.11s3.59-17.57 4.07-28.5l-13.19-5.09v.68l11.44 4.41c-.48 10.93-4.07 28.5-4.07 28.5 1.21 6.92-1.35 17.62-1.5 18.67s1.05 6.63 1.42 7.53-1.12 2-1.12 2c-2.72 3.88-5.4 5.34-7.66 5.63 2.53.33 5.94-.7 9.4-5.63 0 0 1.49-1.06 1.12-2s-1.58-6.48-1.42-7.53 2.72-11.78 1.51-18.67z" fill="#3a3231"/><ellipse cx="75.83" cy="58.89" rx="9.56" ry="13.36" fill="#f9c18a"/><path d="M80.86 47.54a15.9 15.9 0 0 1 3.42 10.24c0 7.37-4.28 13.35-9.56 13.35a7.63 7.63 0 0 1-5-2 8.1 8.1 0 0 0 6.14 3.12c5.28 0 9.56-6 9.56-13.35-.03-4.81-1.84-9-4.56-11.36z" fill="#ea9f54"/><ellipse cx="66.75" cy="57.43" rx="3.65" ry="3.76" fill="#f9c18a"/><path d="M64.57 78.09c-1.2 2-1.41 4.35-1.56 6.64a63.75 63.75 0 0 0 .1 12.66 25.36 25.36 0 0 0 4.41 11.75c1.55 2.09 3.73 4 6.33 4.18a7.89 7.89 0 0 0 6.28-2.85 18 18 0 0 0 3.3-6.27 52.81 52.81 0 0 0 2.82-18.36 12.92 12.92 0 0 0-1.09-5.59 9.72 9.72 0 0 0-6.64-4.64c-2.83-.64-5.58-.22-8.43-.17-2.34.04-4.19.46-5.52 2.65z" fill="#fdbb29"/><path d="M86.25 85.84a12.92 12.92 0 0 0-1.09-5.59 9.72 9.72 0 0 0-6.64-4.64 22.78 22.78 0 0 0-6.27-.26 13 13 0 0 1 1.64.26 9.68 9.68 0 0 1 6.64 4.64 12.79 12.79 0 0 1 1.1 5.59 53 53 0 0 1-2.82 18.36 17.83 17.83 0 0 1-3.31 6.27 8.91 8.91 0 0 1-3.5 2.42 6.93 6.93 0 0 0 1.81.43 7.89 7.89 0 0 0 6.28-2.85 18 18 0 0 0 3.3-6.27 52.81 52.81 0 0 0 2.86-18.36z" fill="#ff990b"/><ellipse cx="80.87" cy="119.54" rx="10.99" ry="11.53" fill="#78b1ef"/><path d="M80.87 108a10.6 10.6 0 0 0-3 .44 11.67 11.67 0 0 1 0 22.16 10.26 10.26 0 0 0 3 .45 11.54 11.54 0 0 0 0-23z" fill="#47a0dd"/><ellipse cx="78.41" cy="119.54" rx="10.99" ry="11.53" fill="#78b1ef"/><ellipse cx="74.51" cy="119.54" rx="10.99" ry="11.53" fill="#78b1ef"/><ellipse cx="66.27" cy="118.69" rx="10.05" ry="11.53" fill="#78b1ef"/><path d="M58.09 118.69c0-6 4-10.93 9.11-11.47h-.93c-5.55 0-10 5.16-10 11.52s4.5 11.53 10 11.53a7.26 7.26 0 0 0 .93-.06c-5.11-.59-9.11-5.51-9.11-11.52z" fill="#88c3ea"/><ellipse cx="68.36" cy="118.69" rx="10.05" ry="11.53" fill="#78b1ef"/><path d="M63.11 50.81c-1.3-3.38.56-7.34 3.45-9.51s6.59-2.94 10.17-3.49a8.66 8.66 0 0 1 3.4-.06A7 7 0 0 1 82.58 39a15.57 15.57 0 0 1 3.64 4c1.13 1.74 2.14 3.9 4.16 4.41a10 10 0 0 1 1.23.27c1.38.53 1.75 2.48 1 3.77a5.89 5.89 0 0 1-3.55 2.47 5.59 5.59 0 0 1-3.56.19 7.74 7.74 0 0 1-2.32-1.59c-4.18-3.64-10.29-5.79-15.4-3.6a5.62 5.62 0 0 0-3.42 3.78 4.61 4.61 0 0 1-1.25-1.89z" fill="#bc1b21"/><path d="M70.41 41.3c2.85-2.14 6.46-2.91 10-3.46l-.26-.09a8.66 8.66 0 0 0-3.4.06c-3.58.55-7.27 1.32-10.17 3.49s-4.75 6.13-3.45 9.51a4.61 4.61 0 0 0 1.25 1.89 5.4 5.4 0 0 1 2.26-3.15c-.51-3.06 1.23-6.34 3.77-8.25z" fill="#ce303c"/><path d="M91.61 47.63a10 10 0 0 0-1.23-.27c-2-.51-3-2.67-4.16-4.41A15.57 15.57 0 0 0 82.58 39a7 7 0 0 0-2.45-1.29 6.42 6.42 0 0 0-2.23-.09 15.34 15.34 0 0 1 3.21 3.56c1.13 1.74 2.15 3.9 4.16 4.41a8.88 8.88 0 0 1 1.24.28c1.38.52 1.74 2.47 1 3.77a6 6 0 0 1-3.51 2.5 8.11 8.11 0 0 1-.88.24l.11.09a7.74 7.74 0 0 0 2.32 1.59 5.59 5.59 0 0 0 3.56-.19 5.89 5.89 0 0 0 3.55-2.47c.7-1.29.34-3.24-1.05-3.77z" fill="#96151f"/><path d="M64.87 72.53c-1.18.06-2.25 1.28-2.74 2.84a10 10 0 0 0-.08 5 7 7 0 0 0 .95 2.38 2.42 2.42 0 0 0 4 .25c.58-.69 1-1.73 1.71-2.13a.55.55 0 0 1 .46-.07 1.18 1.18 0 0 1 .47.55 6.57 6.57 0 0 0 1.72 2.17 1.58 1.58 0 0 0 2.18-.18c.67-.76.94-2.31 1.77-2.59s1.46.83 1.94 1.78 1.19 2 2 1.67c1-.42 1.17-2.64 2.16-2.77.39 0 .75.28 1.09.58a6.17 6.17 0 0 0 2.5 1.54 2.6 2.6 0 0 0 2.58-.79c1.21-1.34 1.37-4.1.6-6a5.56 5.56 0 0 0-3.74-3.42 1.14 1.14 0 0 0-1 .06c-.5.32-.69 1.19-.88 1.94S82 76.92 81.48 77s-1-.88-1.37-1.59a4 4 0 0 0-2.73-2.23 1.31 1.31 0 0 0-.89.12c-.6.34-.91 1.28-1.29 2s-1.06 1.45-1.63 1a3 3 0 0 1-.68-1.67 4.87 4.87 0 0 0-1.54-2.87 1.47 1.47 0 0 0-2.24.89c-.38 1.08-.42 3.48-1.62 2.29-.98-.94-1.16-2.49-2.62-2.41z" fill="#fff"/><path d="M64.87 72.53c-1.18.06-2.25 1.28-2.74 2.84a10 10 0 0 0-.08 5 7 7 0 0 0 .95 2.38 2.42 2.42 0 0 0 4 .25c.58-.69 1-1.73 1.71-2.13a.55.55 0 0 1 .46-.07 1.18 1.18 0 0 1 .47.55 6.57 6.57 0 0 0 1.72 2.17 1.58 1.58 0 0 0 2.18-.18c.67-.76.94-2.31 1.77-2.59s1.46.83 1.94 1.78 1.19 2 2 1.67c1-.42 1.17-2.64 2.16-2.77.39 0 .75.28 1.09.58a6.17 6.17 0 0 0 2.5 1.54 2.6 2.6 0 0 0 2.58-.79c1.21-1.34 1.37-4.1.6-6a5.56 5.56 0 0 0-3.74-3.42 1.14 1.14 0 0 0-1 .06c-.5.32-.69 1.19-.88 1.94S82 76.92 81.48 77s-1-.88-1.37-1.59a4 4 0 0 0-2.73-2.23 1.31 1.31 0 0 0-.89.12c-.6.34-.91 1.28-1.29 2s-1.06 1.45-1.63 1a3 3 0 0 1-.68-1.67 4.87 4.87 0 0 0-1.54-2.87 1.47 1.47 0 0 0-2.24.89c-.38 1.08-.42 3.48-1.62 2.29-.98-.94-1.16-2.49-2.62-2.41z" fill="#fff"/><circle cx="86.52" cy="80.39" r="7.91" fill="#bc1b21"/><path d="M86.52 72.49a9.08 9.08 0 0 0-1.17.09 7.89 7.89 0 0 1 0 15.62 7.59 7.59 0 0 0 1.17.1 7.91 7.91 0 1 0 0-15.81z" fill="#96151f"/><path d="M62.28 111s-9.78 6.78 0 16.56c0 .04-6.62-6.43 0-16.56z" fill="#bc1b21"/><path d="M67.17 111s-9.79 6.78 0 16.56c0 .04-6.63-6.43 0-16.56zm8.42 0s-9.79 6.78 0 16.56c0 .04-6.59-6.43 0-16.56zm7.91 0s9.79 6.78 0 16.56c0 .04 6.63-6.43 0-16.56z" fill="#bc1b21"/><path d="M93.09 78.52s1.44 8.78-8.9 8.61c0 0 6.92.19 8.9-8.61zm-4.3-3.77s-8.9 0-7.06 10.17c0 0-1.31-6.8 7.06-10.17z" fill="#fdbb29"/><path d="M78.62 111s9.78 6.78 0 16.56c0 .04 6.62-6.43 0-16.56z" fill="#bc1b21"/><path d="M50.23 73.74c-.21-.32-.48-.59-.69-.91-1-1.59 0-3.77-.64-5.54a1.88 1.88 0 0 0-2.27 1.36 6.84 6.84 0 0 0 0 2.95.56.56 0 0 1-.67.73c-1.66.06-3.49 0-4.76-1-1-.85-1.45-2.22-2.38-3.16a1.4 1.4 0 0 0-1.19-.51 1.38 1.38 0 0 0-.87 1.16 5.24 5.24 0 0 0 1 3.94 15.55 15.55 0 0 0 2.93 3 11.4 11.4 0 0 0 2.71 1.87 11 11 0 0 0 2.6.66l2.69.46a2.56 2.56 0 0 0 1.6-.07c.99-.54.41-4.19-.06-4.94z" fill="#f9c18a"/><path d="M37.17 68.16c.93.94 1.37 2.31 2.38 3.16 1.27 1.06 3.1 1.07 4.75 1h.07a5.2 5.2 0 0 1-3.13-1c-1-.85-1.45-2.22-2.38-3.16a1.4 1.4 0 0 0-1.19-.51 1 1 0 0 0-.59.44zm13.06 5.58c-.21-.32-.48-.59-.69-.91-1-1.59 0-3.77-.64-5.54a1.55 1.55 0 0 0-1.6.36c.42 1.7-.4 3.7.55 5.18.21.32.48.59.69.91.47.75 1.05 4.4.08 4.9h-.11.2a2.56 2.56 0 0 0 1.6-.07c.97-.43.39-4.08-.08-4.83z" fill="#ea9f54"/><path d="M68.38 119.54a11.31 11.31 0 0 1 10.24-11.48h-.76a11.54 11.54 0 0 0 0 23h.76a11.31 11.31 0 0 1-10.24-11.52z" fill="#47a0dd"/><path d="M66.27 106.59s6.27 10.59 15.79.41l.91-2.41-18.41-1.08z" fill="#fdbb29"/><path d="M75.5 110.47a10.32 10.32 0 0 1-1 .92c2.17-.19 4.69-1.38 7.51-4.39l.91-2.41-4.21-.25a17.75 17.75 0 0 1-3.21 6.13z" fill="#ff990b"/><path d="M54.7 104.91c-.11 1-.12 2.22.7 2.82a2.82 2.82 0 0 0 1.77.34 17.81 17.81 0 0 0 11.33-4.9 2.76 2.76 0 0 0 1.07-1.93 2.89 2.89 0 0 0-.44-1.26l-1.29-2.41a26.22 26.22 0 0 1-6.29 2.13 27 27 0 0 1 1.15-6.27 12.13 12.13 0 0 0 .22-6.32c-.36-1.21-2.14-4.15-3.81-3.67-1.43.42-1.73 5-2 6.26a153.23 153.23 0 0 0-2.41 15.21z" fill="#78b1ef"/><path d="m69.13 100-1.29-2.41a26.22 26.22 0 0 1-6.29 2.13 27 27 0 0 1 1.15-6.27 12.13 12.13 0 0 0 .22-6.32c-.36-1.21-2.14-4.15-3.81-3.67-.69.2-1.12 1.37-1.4 2.66a6.81 6.81 0 0 1 2.69 3.53 12.13 12.13 0 0 1-.22 6.35 27 27 0 0 0-1.18 6.22 26.22 26.22 0 0 0 6.29-2.13l1.29 2.41a2.89 2.89 0 0 1 .44 1.26 1.66 1.66 0 0 1-.19.78 18 18 0 0 0 1.64-1.37 2.76 2.76 0 0 0 1.07-1.93 2.89 2.89 0 0 0-.41-1.24z" fill="#3790b7"/><path d="m73.5 98.54 1.2-1.21s8.89-3 6.63-8.58c0 0-1.66-4.37-5.27-2.26S73.5 89.2 73.5 89.2s-3.17.45-2.56 4.22l-2.87 2.86z" fill="#f9c18a"/><path d="M81.33 88.75a5.37 5.37 0 0 0-2-2.46 6 6 0 0 1 .51 1c2.26 5.57-6.62 8.58-6.62 8.58L72 97l-3.31-1.38-.62.62 5.43 2.26 1.2-1.21s8.89-2.97 6.63-8.54z" fill="#ea9f54"/><path d="M64.11 96.68a.51.51 0 0 0-.11.22.52.52 0 0 0 .19.42 35.88 35.88 0 0 0 5.32 5.06 1.26 1.26 0 0 0 .64.32 1.15 1.15 0 0 0 .6-.14 7 7 0 0 0 2.84-2.39 1.79 1.79 0 0 0 .41-.87 1.76 1.76 0 0 0-.22-.87c-.75-1.72-2.47-4.1-4.37-4.71s-4.26 1.49-5.3 2.96z" fill="#bc1b21"/><path d="M54.28 81.14c2.53 2.58 5.38 5.32 9 5.67a14.73 14.73 0 0 0 5.35-.81 133 133 0 0 0 12.86-4.32c1.28 1 3.25.38 4.05 1.76a2.41 2.41 0 0 1-.17 2.44 5.5 5.5 0 0 1-1.9 1.68 32.77 32.77 0 0 1-8.64 3.21l-9.53 2.59a7.22 7.22 0 0 1-2.86.37 6.71 6.71 0 0 1-2.29-.93 55.25 55.25 0 0 1-9-6.36 3.66 3.66 0 0 1-1.06-1.29 2.51 2.51 0 0 1 1-2.76 9.2 9.2 0 0 1 3.19-1.25z" fill="#78b1ef"/><path d="M85.4 83.32v.06a5.53 5.53 0 0 1-1.9 1.69 33.13 33.13 0 0 1-8.64 3.21l-9.56 2.55a7.21 7.21 0 0 1-2.86.36 6.89 6.89 0 0 1-2.29-.92 55.31 55.31 0 0 1-9-6.37 5.6 5.6 0 0 1-.76-.78 2.22 2.22 0 0 0-.3 2 3.66 3.66 0 0 0 1.06 1.29 55.25 55.25 0 0 0 9 6.36 6.71 6.71 0 0 0 2.29.93 7.22 7.22 0 0 0 2.86-.37l9.53-2.55a32.77 32.77 0 0 0 8.64-3.21 5.5 5.5 0 0 0 1.9-1.68 2.41 2.41 0 0 0 .17-2.44 1.07 1.07 0 0 0-.14-.13z" fill="#3790b7"/><path d="M44.73 79a5.82 5.82 0 0 0 .91 3.81 17.66 17.66 0 0 0 2.53 3.07 1.53 1.53 0 0 0 .62.45 1.38 1.38 0 0 0 .91-.12 19 19 0 0 0 5.71-4 1.54 1.54 0 0 0 .43-.52c.23-.55-.22-1.14-.63-1.58-1.37-1.43-2.73-3.94-4.78-3.23-.34.06-5.75 2.42-5.7 2.12z" fill="#bc1b21"/><path fill="none" stroke="#7f664a" stroke-miterlimit="10" stroke-width=".5" d="M63.24 208.74H6.94V8.91h54.37m16.21 0h54.36v199.83h-56.3"/><path d="M14.94 10.42v10a6.61 6.61 0 0 0 .1 1.44.94.94 0 0 0 .42.51 2 2 0 0 0 1 .2h.28v.33H10.3v-.33h.33a2.56 2.56 0 0 0 1.12-.18 1 1 0 0 0 .45-.5 5.51 5.51 0 0 0 .11-1.47v-6.33a3.88 3.88 0 0 0-.08-1.09.73.73 0 0 0-.3-.36.9.9 0 0 0-.51-.15 2.94 2.94 0 0 0-1.12.29l-.16-.32 4.51-2.06zm11.8 6.38a11.14 11.14 0 0 1-.51 3.42 4.73 4.73 0 0 1-.83 1.6 4.42 4.42 0 0 1-1.18 1 3 3 0 0 1-3-.09 4.23 4.23 0 0 1-1.27-1.29 6.07 6.07 0 0 1-.69-1.64 10.43 10.43 0 0 1-.39-2.85 11.34 11.34 0 0 1 .56-3.67 4.35 4.35 0 0 1 1.4-2.12 3.09 3.09 0 0 1 4 0 4.29 4.29 0 0 1 1.36 2 11 11 0 0 1 .55 3.64zm-2.78 0v-3.75a3.33 3.33 0 0 0-.43-1.7.87.87 0 0 0-.73-.29.84.84 0 0 0-.62.22 1.92 1.92 0 0 0-.45 1.11c-.08.54-.11 2.4-.11 5.58a20.28 20.28 0 0 0 .18 3.49 1.64 1.64 0 0 0 .38.86 1 1 0 0 0 .67.21.81.81 0 0 0 .68-.28 2.86 2.86 0 0 0 .43-1.57zm93.98 174.87v10a6.61 6.61 0 0 0 .1 1.44.94.94 0 0 0 .42.51 2 2 0 0 0 1 .2h.28v.33h-6.44v-.33h.33a2.56 2.56 0 0 0 1.12-.18 1 1 0 0 0 .45-.5 5.51 5.51 0 0 0 .11-1.47v-6.35a3.88 3.88 0 0 0-.08-1.07.73.73 0 0 0-.3-.36.9.9 0 0 0-.51-.15 2.94 2.94 0 0 0-1.12.29l-.16-.32 4.51-2.06zm11.8 6.38a11.14 11.14 0 0 1-.51 3.42 4.73 4.73 0 0 1-.83 1.6 4.42 4.42 0 0 1-1.18 1 3 3 0 0 1-3-.09 4.23 4.23 0 0 1-1.27-1.29 6.07 6.07 0 0 1-.69-1.64 10.43 10.43 0 0 1-.39-2.85 11.34 11.34 0 0 1 .56-3.67 4.35 4.35 0 0 1 1.4-2.12 3.09 3.09 0 0 1 4 0 4.29 4.29 0 0 1 1.36 2 11 11 0 0 1 .55 3.64zM127 198v-3.75a3.33 3.33 0 0 0-.43-1.7.87.87 0 0 0-.73-.29.84.84 0 0 0-.62.22 1.92 1.92 0 0 0-.45 1.11c-.08.54-.11 2.4-.11 5.58a20.28 20.28 0 0 0 .18 3.49 1.64 1.64 0 0 0 .38.86 1 1 0 0 0 .67.21.81.81 0 0 0 .68-.28 2.86 2.86 0 0 0 .43-1.57z" fill="#7f664a"/></svg>