<svg xmlns="http://www.w3.org/2000/svg" viewBox="0 0 138.83 215.65"><path fill="#fff" d="M0 0h138.82v215.65H0z"/><path fill="none" stroke="#7f664a" stroke-miterlimit="10" stroke-width=".5" d="M63.24 208.74H6.94V8.91h54.37m16.21 0h54.36v199.83h-56.3"/><path d="M15.94 10.92v10a6.61 6.61 0 0 0 .1 1.44.94.94 0 0 0 .42.51 2 2 0 0 0 1 .2h.28v.33H11.3v-.33h.33a2.56 2.56 0 0 0 1.12-.18 1 1 0 0 0 .45-.5 5.36 5.36 0 0 0 .12-1.47v-6.33a3.73 3.73 0 0 0-.09-1.07.73.73 0 0 0-.3-.36.9.9 0 0 0-.51-.15 2.94 2.94 0 0 0-1.12.29l-.16-.3 4.51-2.06zm110.34 180.66v10a5.89 5.89 0 0 0 .1 1.44.88.88 0 0 0 .41.51 1.89 1.89 0 0 0 1 .2h.28v.34h-6.45v-.34h.38a2.53 2.53 0 0 0 1.12-.18.93.93 0 0 0 .45-.49 5.5 5.5 0 0 0 .12-1.48v-6.35a4.25 4.25 0 0 0-.08-1.06.81.81 0 0 0-.31-.36.85.85 0 0 0-.51-.15 3 3 0 0 0-1.12.29l-.16-.33 4.51-2.06z" fill="#7f664a"/><path fill="#5b595b" d="M58.69 133.45h21.46v9.85H58.69z"/><path fill="#484349" d="M75.53 133.45h4.61v9.85h-4.61z"/><ellipse cx="69.41" cy="68.36" rx="5.77" ry="4.7" fill="#ffb21a"/><path d="M69.41 63.66a6.55 6.55 0 0 0-1.34.14c2.53.49 4.42 2.34 4.42 4.56s-1.89 4.06-4.42 4.56a7.34 7.34 0 0 0 1.34.13c3.19 0 5.77-2.1 5.77-4.69s-2.58-4.7-5.77-4.7z" fill="#ff990b"/><ellipse cx="69.41" cy="87.27" rx="22.66" ry="18.45" fill="#a3af31"/><path d="M49 87.27c0-9.89 9.55-18 21.55-18.42h-1.11c-12.51 0-22.66 8.26-22.66 18.45s10.15 18.45 22.66 18.45h1.11C58.52 105.22 49 97.16 49 87.27z" fill="#b5bc35"/><path d="M69.41 68.82a27.34 27.34 0 0 0-2.88.16c11.15 1.15 19.77 8.9 19.77 18.29s-8.62 17.14-19.77 18.29a27.34 27.34 0 0 0 2.88.16c12.52 0 22.66-8.26 22.66-18.45S81.93 68.82 69.41 68.82z" fill="#969b2c"/><path d="M54.55 143.3h29.73a7.79 7.79 0 0 1 7.79 7.79v.9H46.76v-.9a7.79 7.79 0 0 1 7.79-7.79z" fill="#ffb21a"/><path d="M54.22 143.3H52a5.25 5.25 0 0 0-5.25 5.25V152H49v-3.44a5.25 5.25 0 0 1 5.22-5.26z" fill="#fdd224"/><path d="M86.82 143.3H76.09a5.25 5.25 0 0 1 5.25 5.25V152h10.73v-3.44a5.25 5.25 0 0 0-5.25-5.26z" fill="#ff990b"/><path d="M69.41 135.68c-22.25 0-37.22-16-33.21-30.65a18.4 18.4 0 0 1 .72-2.13c.49-1.18 1-2.35 1.63-3.49a67.1 67.1 0 0 1 6.21-9.78 97.57 97.57 0 0 1 7.68-8.92h33.24a92.17 92.17 0 0 1 8.11 8.92 62.7 62.7 0 0 1 5.86 8.66 49.35 49.35 0 0 1 2.25 4.63c.21.54.41 1.07.57 1.61 4.53 14.73-10.53 31.15-33.06 31.15z" fill="#bc1b21"/><path d="M38.27 102.89a62.29 62.29 0 0 1 7.85-13.3 97.57 97.57 0 0 1 7.68-8.92h-1.35a97.57 97.57 0 0 0-7.68 8.92 62.29 62.29 0 0 0-7.85 13.3c-6.17 15.15 9.15 32.79 32.49 32.79h.67c-22.95-.35-37.93-17.78-31.81-32.79z" fill="#c62430"/><path d="M80.14 134.36V136a44.07 44.07 0 0 1-21.45 0v-1.69a44.23 44.23 0 0 0 21.45 0z" fill="#39373a"/><path d="M101.9 102.89a56.65 56.65 0 0 0-8.11-13.3 92.17 92.17 0 0 0-8.11-8.92h-9.21a92.17 92.17 0 0 1 8.11 8.92 56.65 56.65 0 0 1 8.11 13.3c5.77 14.13-7.17 30.42-27.88 32.55a43.16 43.16 0 0 0 4.6.24c23.35 0 38.68-17.68 32.49-32.79z" fill="#96151f"/><path d="M96.8 85.13c0 2.46-2.45 4.46-5.48 4.46H47.5c-3 0-5.48-2-5.48-4.46s2.45-4.46 5.48-4.46h43.82c3.03 0 5.48 2 5.48 4.46z" fill="#ffb21a"/><path d="M47.79 85.13c0-2.46 2.45-4.46 5.48-4.46H47.5c-3 0-5.48 2-5.48 4.46s2.45 4.46 5.48 4.46h5.77c-3.03 0-5.48-2-5.48-4.46z" fill="#fdd224"/><path d="M91.32 80.67H80.6c3 0 5.48 2 5.48 4.46s-2.45 4.46-5.48 4.46h10.72c3 0 5.48-2 5.48-4.46s-2.45-4.46-5.48-4.46z" fill="#ff990b"/><path fill="#ffb21a" d="m69.41 118.52-7.49-6.1 7.49-6.1 7.5 6.1-7.5 6.1z"/><path fill="#96151f" d="m70.76 118.52-7.5-6.1 7.5-6.1 7.5 6.1-7.5 6.1z"/><path fill="#ffb21a" d="m69.41 118.52-7.49-6.1 7.49-6.1 7.5 6.1-7.5 6.1z"/><path fill="#ff990b" d="m69.41 106.32-.67.55 6.82 5.55-6.82 5.56.67.54 7.5-6.1-7.5-6.1z"/><path d="m102.47 104.5-6.15-8.66-6.7 9.44-6.7-9.44-6.7 9.44-6.72-9.42-6.7 9.44-6.69-9.44-6.7 9.44-6.7-9.44L36.2 105l2.35-5.62 4.15-5.84 6.7 9.44 6.7-9.44 6.7 9.46 6.7-9.44 6.69 9.44 6.7-9.44 6.7 9.44 6.7-9.44 3.36 4.72a49.35 49.35 0 0 1 2.25 4.63c.21.52.41 1.09.57 1.59z" fill="#ffb21a"/><path d="M102.47 104.51a.25.25 0 0 1 0-.07c0-.11-.07-.21-.1-.32-.13-.39-.27-.78-.43-1.17a.14.14 0 0 1 0-.06c-.31-.73-.64-1.45-1-2.17-.07-.16-.15-.31-.23-.46-.27-.56-.56-1.1-.85-1.65l-.24-.44-3.3-4.64-4.8 6.76c.23.46.45.93.66 1.4l4.14-5.83 6.15 8.66z" fill="#ff990b"/></svg>