<svg xmlns="http://www.w3.org/2000/svg" viewBox="0 0 138.83 215.65"><path fill="#fff" d="M0 0h138.82v215.65H0z"/><path fill="none" stroke="#7f664a" stroke-miterlimit="10" stroke-width=".5" d="M63.24 208.74H6.94V8.91h54.37m16.21 0h54.36v199.83h-56.3"/><path d="m10.38 18.8 5.82-7.88h1.1v7.88h1.12v1.87H17.3v2.75h-2.49v-2.75h-4.43zm.87 0h3.56V14zM120 199.47l5.82-7.89H127v7.89h1.13v1.87H127v2.75h-2.48v-2.75H120zm.88 0h3.56v-4.83z" fill="#7f664a"/><path fill="#5b595b" d="M30.26 71.04h12.81v5.88H30.26z"/><path fill="#484349" d="M40.32 71.04h2.75v5.88h-2.75z"/><ellipse cx="36.67" cy="32.19" rx="3.44" ry="2.8" fill="#ffb21a"/><path d="M36.67 29.39a4.28 4.28 0 0 0-.81.08 3 3 0 0 1 2.64 2.72 3 3 0 0 1-2.64 2.72 4.28 4.28 0 0 0 .81.08c1.9 0 3.44-1.25 3.44-2.8s-1.54-2.8-3.44-2.8z" fill="#ff990b"/><ellipse cx="36.67" cy="43.48" rx="13.52" ry="11.01" fill="#a3af31"/><path d="M24.46 43.48c0-5.9 5.7-10.72 12.87-11h-.66c-7.47 0-13.53 4.93-13.53 11s6.06 11 13.53 11h.66c-7.17-.29-12.87-5.1-12.87-11z" fill="#b5bc35"/><path d="M36.67 32.47a16.42 16.42 0 0 0-1.73.09c6.66.69 11.81 5.31 11.81 10.92S41.6 53.71 34.94 54.4c.57.05 1.14.09 1.73.09 7.46 0 13.52-4.93 13.52-11s-6.06-11.02-13.52-11.02z" fill="#969b2c"/><path d="M28.33 76.92H45a5.19 5.19 0 0 1 5.19 5.19h-27a5.19 5.19 0 0 1 5.14-5.19z" fill="#ffb21a"/><path d="M27.6 76.92h-1.32a3.13 3.13 0 0 0-3.13 3.13v2h1.32v-2a3.13 3.13 0 0 1 3.13-3.13z" fill="#fdd224"/><path d="M47.05 76.92h-6.4a3.13 3.13 0 0 1 3.13 3.13v2h6.41v-2a3.14 3.14 0 0 0-3.14-3.13z" fill="#ff990b"/><path d="M36.66 72.37c-13.27 0-22.21-9.56-19.82-18.29a9.93 9.93 0 0 1 .42-1.27c.3-.7.63-1.4 1-2.08A40.32 40.32 0 0 1 22 44.86a56.46 56.46 0 0 1 4.58-5.32h19.8a54.15 54.15 0 0 1 4.83 5.32 37.26 37.26 0 0 1 3.5 5.14 27 27 0 0 1 1.34 2.76c.13.32.25.64.35 1 2.7 8.81-6.29 18.61-19.74 18.61z" fill="#bc1b21"/><path d="M18.08 52.8a37.57 37.57 0 0 1 4.68-7.94 58 58 0 0 1 4.59-5.32h-.81A56.46 56.46 0 0 0 22 44.86a37.62 37.62 0 0 0-4.69 7.94c-3.68 9.05 5.46 19.57 19.39 19.57h.41c-13.74-.21-22.68-10.61-19.03-19.57z" fill="#c62430"/><path d="M43.07 71.59v1a26.36 26.36 0 0 1-12.81 0v-1a25.73 25.73 0 0 0 6.4.79 26.24 26.24 0 0 0 6.41-.79z" fill="#39373a"/><path d="M56.05 52.8a33.73 33.73 0 0 0-4.84-7.94 54.15 54.15 0 0 0-4.83-5.32h-5.5a54.23 54.23 0 0 1 4.84 5.32 34.41 34.41 0 0 1 4.84 7.94C54 61.24 46.28 71 33.92 72.23a27.16 27.16 0 0 0 2.74.14c13.94 0 23.09-10.52 19.39-19.57z" fill="#96151f"/><path d="M53 42.2c0 1.47-1.46 2.66-3.27 2.66H23.58a3 3 0 0 1-3.26-2.66 3 3 0 0 1 3.26-2.66h26.16c1.81 0 3.26 1.19 3.26 2.66z" fill="#ffb21a"/><path d="M23.76 42.2c0-1.47 1.46-2.66 3.27-2.66h-3.45a3 3 0 0 0-3.26 2.66 3 3 0 0 0 3.26 2.66H27c-1.78 0-3.24-1.19-3.24-2.66z" fill="#fdd224"/><path d="M49.74 39.54h-6.4c1.81 0 3.27 1.19 3.27 2.66s-1.46 2.66-3.27 2.66h6.4c1.81 0 3.27-1.19 3.27-2.66s-1.46-2.66-3.27-2.66z" fill="#ff990b"/><path fill="#ffb21a" d="m36.67 62.13-4.48-3.64 4.48-3.64 4.47 3.64-4.47 3.64z"/><path fill="#96151f" d="M37.47 62.13 33 58.49l4.47-3.64 4.47 3.64-4.47 3.64z"/><path fill="#ffb21a" d="m36.67 62.13-4.48-3.64 4.48-3.64 4.47 3.64-4.47 3.64z"/><path fill="#ff990b" d="m36.67 54.85-.41.32 4.08 3.32-4.08 3.31.41.33 4.47-3.64-4.47-3.64z"/><path d="m56.4 53.76-3.67-5.17-4 5.63-4-5.63-4 5.63-4-5.63-4 5.63-4-5.63-4 5.63-4-5.63-3.88 5.46 1.4-3.35 2.48-3.48 4 5.63 4-5.63 4 5.63 4-5.63 4 5.63 4-5.63 4 5.63 4-5.63 2 2.81a27 27 0 0 1 1.34 2.76c.11.33.23.65.33.97z" fill="#ffb21a"/><path d="M56.39 53.77a.09.09 0 0 0 0-.05l-.06-.18c-.08-.24-.16-.47-.25-.7-.18-.43-.38-.87-.58-1.29 0-.1-.1-.19-.14-.28-.16-.33-.33-.66-.51-1 0-.09-.09-.18-.14-.26l-2-2.77-2.87 4c.14.28.27.55.4.83l2.47-3.47 3.67 5.17z" fill="#ff990b"/><path fill="#5b595b" d="M95.76 71.04h12.81v5.88H95.76z"/><path fill="#484349" d="M105.81 71.04h2.75v5.88h-2.75z"/><ellipse cx="102.16" cy="32.19" rx="3.44" ry="2.8" fill="#ffb21a"/><path d="M102.16 29.39a4.09 4.09 0 0 0-.8.08 3 3 0 0 1 2.64 2.72 3 3 0 0 1-2.63 2.72 4.09 4.09 0 0 0 .8.08c1.9 0 3.44-1.25 3.44-2.8s-1.55-2.8-3.45-2.8z" fill="#ff990b"/><ellipse cx="102.16" cy="43.48" rx="13.52" ry="11.01" fill="#a3af31"/><path d="M90 43.48c0-5.9 5.7-10.72 12.86-11h-.66c-7.47 0-13.52 4.93-13.52 11s6 11 13.52 11h.66c-7.2-.29-12.86-5.1-12.86-11z" fill="#b5bc35"/><path d="M102.16 32.47a16.23 16.23 0 0 0-1.72.09c6.65.69 11.8 5.31 11.8 10.92s-5.15 10.23-11.8 10.92c.56.05 1.14.09 1.72.09 7.47 0 13.52-4.93 13.52-11s-6.05-11.02-13.52-11.02z" fill="#969b2c"/><path d="M93.83 76.92h16.67a5.19 5.19 0 0 1 5.19 5.19h-27a5.19 5.19 0 0 1 5.14-5.19z" fill="#ffb21a"/><path d="M93.09 76.92h-1.32a3.13 3.13 0 0 0-3.13 3.13v2H90v-2a3.13 3.13 0 0 1 3.09-3.13z" fill="#fdd224"/><path d="M112.55 76.92h-6.41a3.14 3.14 0 0 1 3.14 3.13v2h6.4v-2a3.13 3.13 0 0 0-3.13-3.13z" fill="#ff990b"/><path d="M102.16 72.37c-13.28 0-22.21-9.56-19.82-18.29a10 10 0 0 1 .43-1.27c.29-.7.62-1.4 1-2.08a40.26 40.26 0 0 1 3.7-5.84A56.53 56.53 0 0 1 92 39.54h19.83a54.23 54.23 0 0 1 4.84 5.32A37.19 37.19 0 0 1 120.2 50a29.32 29.32 0 0 1 1.35 2.76c.13.32.24.64.34 1 2.7 8.81-6.29 18.61-19.73 18.61z" fill="#bc1b21"/><path d="M83.57 52.8a37.62 37.62 0 0 1 4.69-7.94 56.46 56.46 0 0 1 4.58-5.32H92a56.53 56.53 0 0 0-4.59 5.32 37.15 37.15 0 0 0-4.68 7.94c-3.69 9.05 5.46 19.57 19.39 19.57h.4c-13.66-.21-22.6-10.61-18.95-19.57z" fill="#c62430"/><path d="M108.56 71.59v1a26.32 26.32 0 0 1-12.8 0v-1a25.61 25.61 0 0 0 6.4.79 26.16 26.16 0 0 0 6.4-.79z" fill="#39373a"/><path d="M121.55 52.8a34.41 34.41 0 0 0-4.84-7.94 54.23 54.23 0 0 0-4.84-5.32h-5.5a54.23 54.23 0 0 1 4.84 5.32 34.06 34.06 0 0 1 4.84 7.94c3.45 8.44-4.28 18.16-16.64 19.43a27.36 27.36 0 0 0 2.75.14c13.94 0 23.08-10.52 19.39-19.57z" fill="#96151f"/><path d="M118.51 42.2c0 1.47-1.47 2.66-3.27 2.66H89.08c-1.81 0-3.27-1.19-3.27-2.66 0-1.47 1.46-2.66 3.27-2.66h26.16c1.76 0 3.27 1.19 3.27 2.66z" fill="#ffb21a"/><path d="M89.25 42.2c0-1.47 1.47-2.66 3.27-2.66h-3.44c-1.81 0-3.27 1.19-3.27 2.66s1.46 2.66 3.27 2.66h3.44c-1.8 0-3.27-1.19-3.27-2.66z" fill="#fdd224"/><path d="M115.24 39.54h-6.4c1.8 0 3.27 1.19 3.27 2.66s-1.47 2.66-3.27 2.66h6.4c1.8 0 3.27-1.19 3.27-2.66s-1.51-2.66-3.27-2.66z" fill="#ff990b"/><path fill="#ffb21a" d="m102.16 62.13-4.47-3.64 4.47-3.64 4.47 3.64-4.47 3.64z"/><path fill="#96151f" d="m102.96 62.13-4.47-3.64 4.47-3.64 4.48 3.64-4.48 3.64z"/><path fill="#ffb21a" d="m102.16 62.13-4.47-3.64 4.47-3.64 4.47 3.64-4.47 3.64z"/><path fill="#ff990b" d="m102.16 54.85-.4.32 4.07 3.32-4.07 3.31.4.33 4.47-3.64-4.47-3.64z"/><path d="m121.89 53.76-3.67-5.17-4 5.63-4-5.63-4 5.63-4-5.63-4 5.63-4-5.63-4 5.63-4-5.63-3.88 5.46 1.4-3.35 2.47-3.48 4 5.63 4-5.63 4 5.63 4-5.63 4 5.63 4-5.63 4 5.63 4-5.63 2 2.81a29.32 29.32 0 0 1 1.35 2.76c.12.33.23.65.33.97z" fill="#ffb21a"/><path d="M121.89 53.77a.09.09 0 0 1 0-.05l-.07-.18c-.07-.24-.16-.47-.25-.7-.19-.43-.38-.87-.59-1.29a2.44 2.44 0 0 0-.14-.28c-.16-.33-.33-.66-.51-1a2.15 2.15 0 0 0-.14-.26l-2-2.77-2.86 4c.13.28.27.55.39.83l2.47-3.47 3.67 5.17z" fill="#ff990b"/><path fill="#5b595b" d="M30.26 175.2h12.81v5.88H30.26z"/><path fill="#484349" d="M40.32 175.2h2.75v5.88h-2.75z"/><ellipse cx="36.67" cy="136.35" rx="3.44" ry="2.8" fill="#ffb21a"/><path d="M36.67 133.55a3.59 3.59 0 0 0-.81.08 2.72 2.72 0 0 1 0 5.44 4.28 4.28 0 0 0 .81.08c1.9 0 3.44-1.25 3.44-2.8s-1.54-2.8-3.44-2.8z" fill="#ff990b"/><ellipse cx="36.67" cy="147.64" rx="13.52" ry="11.01" fill="#a3af31"/><path d="M24.46 147.64c0-5.9 5.7-10.72 12.87-11h-.66c-7.47 0-13.53 4.93-13.53 11s6.06 11 13.53 11h.66c-7.17-.29-12.87-5.1-12.87-11z" fill="#b5bc35"/><path d="M36.67 136.63a16.42 16.42 0 0 0-1.73.09c6.66.69 11.81 5.31 11.81 10.92s-5.15 10.22-11.81 10.91a16.42 16.42 0 0 0 1.73.09c7.46 0 13.52-4.92 13.52-11s-6.06-11.01-13.52-11.01z" fill="#969b2c"/><path d="M28.33 181.08H45a5.19 5.19 0 0 1 5.19 5.19h-27a5.19 5.19 0 0 1 5.14-5.19z" fill="#ffb21a"/><path d="M27.6 181.08h-1.32a3.13 3.13 0 0 0-3.13 3.13v2h1.32v-2a3.13 3.13 0 0 1 3.13-3.13z" fill="#fdd224"/><path d="M47.05 181.08h-6.4a3.13 3.13 0 0 1 3.13 3.13v2h6.41v-2a3.14 3.14 0 0 0-3.14-3.13z" fill="#ff990b"/><path d="M36.66 176.53c-13.27 0-22.21-9.57-19.82-18.3a9.93 9.93 0 0 1 .42-1.27c.3-.71.63-1.4 1-2.09A39.78 39.78 0 0 1 22 149a57.92 57.92 0 0 1 4.58-5.33h19.8a55.46 55.46 0 0 1 4.83 5.33 37.26 37.26 0 0 1 3.5 5.17 28.18 28.18 0 0 1 1.34 2.83c.13.32.25.64.35 1 2.7 8.73-6.29 18.53-19.74 18.53z" fill="#bc1b21"/><path d="M18.08 157a37.32 37.32 0 0 1 4.68-8 58 58 0 0 1 4.59-5.32h-.81A56.46 56.46 0 0 0 22 149a37.37 37.37 0 0 0-4.73 8c-3.68 9 5.46 19.57 19.39 19.57h.41c-13.7-.25-22.64-10.66-18.99-19.57z" fill="#c62430"/><path d="M43.07 175.74v1a25.23 25.23 0 0 1-6.41.8 25.73 25.73 0 0 1-6.4-.79v-1a26.36 26.36 0 0 0 12.81 0z" fill="#39373a"/><path d="M56.05 157a33.53 33.53 0 0 0-4.84-8 54.15 54.15 0 0 0-4.83-5.32h-5.5a54.23 54.23 0 0 1 4.84 5.32 34.2 34.2 0 0 1 4.84 8c3.44 8.43-4.28 18.15-16.64 19.43a27.16 27.16 0 0 0 2.74.14C50.6 176.53 59.75 166 56.05 157z" fill="#96151f"/><path d="M53 146.36c0 1.47-1.46 2.66-3.27 2.66H23.58a3 3 0 0 1-3.26-2.66 3 3 0 0 1 3.26-2.66h26.16c1.81 0 3.26 1.19 3.26 2.66z" fill="#ffb21a"/><path d="M23.76 146.36c0-1.47 1.46-2.66 3.27-2.66h-3.45a2.72 2.72 0 1 0 0 5.32H27c-1.78-.02-3.24-1.19-3.24-2.66z" fill="#fdd224"/><path d="M49.74 143.7h-6.4c1.81 0 3.27 1.19 3.27 2.66S45.15 149 43.34 149h6.4c1.81 0 3.27-1.19 3.27-2.66s-1.46-2.64-3.27-2.64z" fill="#ff990b"/><path fill="#ffb21a" d="m36.67 166.29-4.48-3.64 4.48-3.65 4.47 3.65-4.47 3.64z"/><path fill="#96151f" d="M37.47 166.29 33 162.65l4.47-3.65 4.47 3.65-4.47 3.64z"/><path fill="#ffb21a" d="m36.67 166.29-4.48-3.64 4.48-3.65 4.47 3.65-4.47 3.64z"/><path fill="#ff990b" d="m36.67 159-.41.33 4.08 3.32-4.08 3.31.41.33 4.47-3.64-4.47-3.65z"/><path d="m56.4 157.92-3.67-5.17-4 5.64-4-5.64-4 5.64-4-5.64-4 5.64-4-5.64-4 5.64-4-5.64-3.88 5.47 1.4-3.36 2.48-3.49 4 5.63 4-5.63 4 5.63 4-5.63 4 5.63 4-5.63 4 5.63 4-5.63 2 2.82a28.18 28.18 0 0 1 1.32 2.81c.13.28.25.6.35.92z" fill="#ffb21a"/><path d="m56.39 157.92-.06-.19c-.08-.23-.16-.46-.25-.7-.18-.44-.38-.87-.58-1.3 0-.09-.1-.18-.14-.27q-.24-.49-.51-1c0-.08-.09-.17-.14-.26l-2-2.77-2.87 4c.14.27.27.55.4.83l2.47-3.48 3.67 5.17z" fill="#ff990b"/><path fill="#5b595b" d="M95.76 175.2h12.81v5.88H95.76z"/><path fill="#484349" d="M105.81 175.2h2.75v5.88h-2.75z"/><ellipse cx="102.16" cy="136.35" rx="3.44" ry="2.8" fill="#ffb21a"/><path d="M102.16 133.55a3.45 3.45 0 0 0-.8.08 2.72 2.72 0 0 1 0 5.44 4.09 4.09 0 0 0 .8.08c1.9 0 3.44-1.25 3.44-2.8s-1.54-2.8-3.44-2.8z" fill="#ff990b"/><ellipse cx="102.16" cy="147.64" rx="13.52" ry="11.01" fill="#a3af31"/><path d="M90 147.64c0-5.9 5.7-10.72 12.86-11h-.66c-7.47 0-13.52 4.93-13.52 11s6 11 13.52 11h.66c-7.2-.29-12.86-5.1-12.86-11z" fill="#b5bc35"/><path d="M102.16 136.63a16.23 16.23 0 0 0-1.72.09c6.65.69 11.8 5.31 11.8 10.92s-5.15 10.22-11.8 10.91a16.23 16.23 0 0 0 1.72.09c7.47 0 13.52-4.92 13.52-11s-6.05-11.01-13.52-11.01z" fill="#969b2c"/><path d="M93.83 181.08h16.67a5.19 5.19 0 0 1 5.19 5.19h-27a5.19 5.19 0 0 1 5.14-5.19z" fill="#ffb21a"/><path d="M93.09 181.08h-1.32a3.13 3.13 0 0 0-3.13 3.13v2H90v-2a3.13 3.13 0 0 1 3.09-3.13z" fill="#fdd224"/><path d="M112.55 181.08h-6.41a3.14 3.14 0 0 1 3.14 3.13v2h6.4v-2a3.13 3.13 0 0 0-3.13-3.13z" fill="#ff990b"/><path d="M102.16 176.53c-13.28 0-22.21-9.57-19.82-18.3a10 10 0 0 1 .43-1.27c.29-.71.62-1.4 1-2.09a39.72 39.72 0 0 1 3.7-5.84 58 58 0 0 1 4.53-5.34h19.83a55.54 55.54 0 0 1 4.84 5.33 37.19 37.19 0 0 1 3.49 5.17 30.74 30.74 0 0 1 1.35 2.77c.13.32.24.64.34 1 2.74 8.77-6.25 18.57-19.69 18.57z" fill="#bc1b21"/><path d="M83.57 157a37.37 37.37 0 0 1 4.69-8 56.46 56.46 0 0 1 4.58-5.32H92a56.53 56.53 0 0 0-4.55 5.32 36.91 36.91 0 0 0-4.68 8c-3.69 9 5.46 19.57 19.39 19.57h.4c-13.7-.25-22.64-10.66-18.99-19.57z" fill="#c62430"/><path d="M108.56 175.74v1a25.21 25.21 0 0 1-6.4.8 25.61 25.61 0 0 1-6.4-.79v-1a26.32 26.32 0 0 0 12.8 0z" fill="#39373a"/><path d="M121.55 157a34.2 34.2 0 0 0-4.84-7.94 54.23 54.23 0 0 0-4.84-5.32h-5.5a54.23 54.23 0 0 1 4.84 5.32 33.86 33.86 0 0 1 4.84 7.94c3.45 8.43-4.28 18.15-16.64 19.43a27.36 27.36 0 0 0 2.75.14c13.94-.04 23.08-10.57 19.39-19.57z" fill="#96151f"/><path d="M118.51 146.36c0 1.47-1.47 2.66-3.27 2.66H89.08c-1.81 0-3.27-1.19-3.27-2.66 0-1.47 1.46-2.66 3.27-2.66h26.16c1.76 0 3.27 1.19 3.27 2.66z" fill="#ffb21a"/><path d="M89.25 146.36c0-1.47 1.47-2.66 3.27-2.66h-3.44c-1.81 0-3.27 1.19-3.27 2.66s1.46 2.64 3.27 2.64h3.44c-1.8 0-3.27-1.17-3.27-2.64z" fill="#fdd224"/><path d="M115.24 143.7h-6.4c1.8 0 3.27 1.19 3.27 2.66s-1.47 2.66-3.27 2.66h6.4c1.8 0 3.27-1.19 3.27-2.66s-1.51-2.66-3.27-2.66z" fill="#ff990b"/><path fill="#ffb21a" d="m102.16 166.29-4.47-3.64 4.47-3.65 4.47 3.65-4.47 3.64z"/><path fill="#96151f" d="m102.96 166.29-4.47-3.64 4.47-3.65 4.48 3.65-4.48 3.64z"/><path fill="#ffb21a" d="m102.16 166.29-4.47-3.64 4.47-3.65 4.47 3.65-4.47 3.64z"/><path fill="#ff990b" d="m102.16 159-.4.33 4.07 3.32-4.07 3.31.4.33 4.47-3.64-4.47-3.65z"/><path d="m121.89 157.92-3.67-5.17-4 5.64-4-5.64-4 5.64-4-5.64-4 5.64-4-5.64-4 5.64-4-5.64-3.88 5.47 1.4-3.36 2.47-3.49 4 5.63 4-5.63 4 5.63 4-5.63 4 5.63 4-5.63 4 5.63 4-5.63 2 2.82a30.74 30.74 0 0 1 1.35 2.77c.12.32.23.64.33.96z" fill="#ffb21a"/><path d="M121.89 157.92c0-.06 0-.12-.07-.19-.07-.23-.16-.46-.25-.7-.19-.44-.38-.87-.59-1.3 0-.09-.09-.18-.14-.27q-.24-.49-.51-1l-.14-.26-2-2.77-2.86 4c.13.27.27.55.39.83l2.47-3.48 3.67 5.17z" fill="#ff990b"/></svg>