<svg xmlns="http://www.w3.org/2000/svg" viewBox="0 0 138.83 215.65"><path fill="#fff" d="M0 0h138.82v215.65H0z"/><path fill="none" stroke="#7f664a" stroke-miterlimit="10" stroke-width=".5" d="M63.24 208.74H6.94V8.91h54.37m16.21 0h54.36v199.83h-56.3"/><path d="M17.58 23.42h-7.21v-.2a39.28 39.28 0 0 0 4-5.31 5.68 5.68 0 0 0 .71-2.67 2.21 2.21 0 0 0-.58-1.57 1.89 1.89 0 0 0-1.42-.67 2.36 2.36 0 0 0-2.16 1.39l-.33-.12a5 5 0 0 1 1.48-2.56 3.44 3.44 0 0 1 2.29-.83 3.38 3.38 0 0 1 1.7.43 3.19 3.19 0 0 1 1.2 1.19 2.84 2.84 0 0 1 .44 1.5 5.16 5.16 0 0 1-.7 2.39 23 23 0 0 1-4 4.66h2.65A5.72 5.72 0 0 0 17 21a1 1 0 0 0 .48-.27 3.43 3.43 0 0 0 .5-.82h.33zm110 180.67h-7.21v-.2a39.28 39.28 0 0 0 4-5.31 5.68 5.68 0 0 0 .71-2.67 2.23 2.23 0 0 0-.58-1.58 1.91 1.91 0 0 0-1.44-.62 2.36 2.36 0 0 0-2.16 1.39l-.33-.12a5 5 0 0 1 1.48-2.57 3.49 3.49 0 0 1 2.29-.83 3.39 3.39 0 0 1 1.7.44 3.12 3.12 0 0 1 1.2 1.19 2.84 2.84 0 0 1 .44 1.41 5.19 5.19 0 0 1-.67 2.44 23.24 23.24 0 0 1-4 4.66h2.65a6.44 6.44 0 0 0 1.27-.08 1 1 0 0 0 .48-.28 3.31 3.31 0 0 0 .5-.81h.33z" fill="#7f664a"/><path fill="#5b595b" d="M61.5 75.03h15.83v7.27H61.5z"/><path fill="#484349" d="M73.93 75.03h3.4v7.27h-3.4z"/><ellipse cx="69.41" cy="27" rx="4.26" ry="3.47" fill="#ffb21a"/><path d="M69.41 23.53a5.36 5.36 0 0 0-1 .1A3.71 3.71 0 0 1 71.68 27a3.71 3.71 0 0 1-3.26 3.37 5.36 5.36 0 0 0 1 .1c2.35 0 4.26-1.56 4.26-3.47s-1.92-3.47-4.27-3.47z" fill="#ff990b"/><ellipse cx="69.41" cy="40.96" rx="16.72" ry="13.61" fill="#a3af31"/><path d="M54.33 41c0-7.3 7-13.25 15.9-13.6h-.82c-9.23 0-16.72 6.1-16.72 13.62s7.49 13.61 16.72 13.61h.82c-8.86-.43-15.9-6.38-15.9-13.63z" fill="#b5bc35"/><path d="M69.41 27.34a21 21 0 0 0-2.12.12C75.51 28.31 81.88 34 81.88 41s-6.37 12.6-14.59 13.45a18.44 18.44 0 0 0 2.12.12c9.24 0 16.72-6.1 16.72-13.61s-7.48-13.62-16.72-13.62z" fill="#969b2c"/><path d="M59.11 82.3h20.61a6.41 6.41 0 0 1 6.41 6.41H52.7a6.41 6.41 0 0 1 6.41-6.41z" fill="#ffb21a"/><path d="M58.2 82.3h-1.63a3.88 3.88 0 0 0-3.87 3.88v2.53h1.63v-2.53a3.88 3.88 0 0 1 3.87-3.88z" fill="#fdd224"/><path d="M82.26 82.3h-7.92a3.88 3.88 0 0 1 3.87 3.88v2.53h7.92v-2.53a3.88 3.88 0 0 0-3.87-3.88z" fill="#ff990b"/><path d="M69.41 76.68C53 76.68 42 64.85 44.9 54.06a13.18 13.18 0 0 1 .53-1.57c.36-.87.77-1.73 1.2-2.58a49.64 49.64 0 0 1 4.58-7.21 71.64 71.64 0 0 1 5.67-6.59h24.54a68.21 68.21 0 0 1 6 6.59 45.64 45.64 0 0 1 4.32 6.39 33.62 33.62 0 0 1 1.66 3.42c.16.4.31.79.43 1.19C97.15 64.56 86 76.68 69.41 76.68z" fill="#bc1b21"/><path d="M46.43 52.48a46.36 46.36 0 0 1 5.79-9.81 71.64 71.64 0 0 1 5.67-6.59h-1a71.64 71.64 0 0 0-5.67 6.59 45.53 45.53 0 0 0-5.79 9.81c-4.56 11.18 6.75 24.2 24 24.2h.5c-16.93-.26-28.01-13.12-23.5-24.2z" fill="#c62430"/><path d="M77.33 75.71v1.23a31.35 31.35 0 0 1-7.92 1 31.74 31.74 0 0 1-7.91-1V75.7a31.73 31.73 0 0 0 7.91 1 32.36 32.36 0 0 0 7.92-.99z" fill="#39373a"/><path d="M93.38 52.48a41.54 41.54 0 0 0-6-9.81 68.21 68.21 0 0 0-6-6.59h-6.8a68.21 68.21 0 0 1 6 6.59 41.91 41.91 0 0 1 6 9.81C90.85 62.91 81.3 74.93 66 76.5a31.57 31.57 0 0 0 3.4.18c17.24 0 28.6-13.02 23.98-24.2z" fill="#96151f"/><path d="M89.62 39.38c0 1.81-1.81 3.29-4 3.29H53.24c-2.23 0-4-1.48-4-3.29 0-1.82 1.81-3.3 4-3.3h32.34c2.23 0 4.04 1.48 4.04 3.3z" fill="#ffb21a"/><path d="M53.46 39.38c0-1.82 1.81-3.3 4-3.3h-4.22c-2.23 0-4 1.48-4 3.3s1.81 3.29 4 3.29h4.26c-2.23 0-4.04-1.48-4.04-3.29z" fill="#fdd224"/><path d="M85.58 36.08h-7.91c2.23 0 4 1.48 4 3.3s-1.81 3.29-4 3.29h7.91c2.23 0 4-1.48 4-3.29s-1.77-3.3-4-3.3z" fill="#ff990b"/><path fill="#ffb21a" d="m69.41 64.02-5.53-4.5 5.53-4.51 5.53 4.51-5.53 4.5z"/><path fill="#96151f" d="m70.41 64.02-5.53-4.5 5.53-4.51 5.53 4.51-5.53 4.5z"/><path fill="#ffb21a" d="m69.41 64.02-5.53-4.5 5.53-4.51 5.53 4.51-5.53 4.5z"/><path fill="#ff990b" d="m69.41 55.01-.49.41 5.03 4.1-5.03 4.09.49.41 5.53-4.5-5.53-4.51z"/><path d="m93.81 53.67-4.56-6.37-5 7-4.94-7-4.94 7-5-7-4.94 7-4.94-7-4.94 7-4.94-7-4.8 6.75 1.73-4.15 3.06-4.3 4.94 7 4.94-7 4.94 7 4.94-7 5 7 4.94-7 4.94 7 5-7 2.47 3.48a33.62 33.62 0 0 1 1.66 3.42c.17.38.32.77.44 1.17z" fill="#ffb21a"/><path d="M93.8 53.67a.43.43 0 0 1 0-.05c0-.07-.05-.15-.08-.23a8.82 8.82 0 0 0-.31-.86v-.05c-.22-.54-.47-1.07-.72-1.6-.06-.11-.12-.23-.17-.34-.2-.41-.41-.81-.63-1.22l-.21-.32-2.43-3.42-3.55 5c.17.35.34.69.49 1l3.06-4.3 4.54 6.39z" fill="#ff990b"/><path fill="#5b595b" d="M61.5 178.43h15.83v7.27H61.5z"/><path fill="#484349" d="M73.93 178.44h3.4v7.27h-3.4z"/><ellipse cx="69.41" cy="130.4" rx="4.26" ry="3.47" fill="#ffb21a"/><path d="M69.41 126.94a4.62 4.62 0 0 0-1 .1 3.37 3.37 0 0 1 0 6.73 5.36 5.36 0 0 0 1 .1c2.35 0 4.26-1.55 4.26-3.47s-1.91-3.46-4.26-3.46z" fill="#ff990b"/><ellipse cx="69.41" cy="144.36" rx="16.72" ry="13.61" fill="#a3af31"/><path d="M54.33 144.36c0-7.3 7-13.25 15.9-13.6h-.82c-9.23 0-16.72 6.09-16.72 13.61S60.18 158 69.41 158h.82c-8.86-.39-15.9-6.35-15.9-13.64z" fill="#b5bc35"/><path d="M69.41 130.75a21 21 0 0 0-2.12.11c8.22.85 14.59 6.57 14.59 13.5s-6.37 12.64-14.59 13.5a21 21 0 0 0 2.12.11c9.24 0 16.72-6.09 16.72-13.61s-7.48-13.61-16.72-13.61z" fill="#969b2c"/><path d="M59.11 185.7h20.61a6.41 6.41 0 0 1 6.41 6.41H52.7a6.41 6.41 0 0 1 6.41-6.41z" fill="#ffb21a"/><path d="M58.2 185.7h-1.63a3.88 3.88 0 0 0-3.87 3.88v2.54h1.63v-2.54a3.88 3.88 0 0 1 3.87-3.88z" fill="#fdd224"/><path d="M82.26 185.7h-7.92a3.88 3.88 0 0 1 3.87 3.88v2.54h7.92v-2.54a3.88 3.88 0 0 0-3.87-3.88z" fill="#ff990b"/><path d="M69.41 180.08C53 180.08 42 168.25 44.9 157.46a13 13 0 0 1 .53-1.56c.36-.88.77-1.74 1.2-2.58a49.2 49.2 0 0 1 4.58-7.22 70.18 70.18 0 0 1 5.67-6.58h24.54a66.91 66.91 0 0 1 6 6.58 45.64 45.64 0 0 1 4.32 6.39 31.69 31.69 0 0 1 1.66 3.42c.16.39.31.79.43 1.19 3.32 10.9-7.83 22.98-24.42 22.98z" fill="#bc1b21"/><path d="M46.43 155.89a46.43 46.43 0 0 1 5.79-9.82 70.18 70.18 0 0 1 5.67-6.58h-1a70.18 70.18 0 0 0-5.67 6.58 45.6 45.6 0 0 0-5.79 9.82c-4.56 11.18 6.75 24.19 24 24.19h.5C53 179.82 41.92 167 46.43 155.89z" fill="#c62430"/><path d="M77.33 179.11v1.24a32.45 32.45 0 0 1-15.83 0v-1.24a32.78 32.78 0 0 0 15.83 0z" fill="#39373a"/><path d="M93.38 155.89a41.6 41.6 0 0 0-6-9.82 66.91 66.91 0 0 0-6-6.58h-6.8a66.91 66.91 0 0 1 6 6.58 42 42 0 0 1 6 9.82c4.26 10.42-5.29 22.44-20.58 24 1.11.11 2.24.17 3.4.17 17.24.02 28.6-12.99 23.98-24.17z" fill="#96151f"/><path d="M89.62 142.78c0 1.82-1.81 3.29-4 3.29H53.24c-2.23 0-4-1.47-4-3.29s1.81-3.29 4-3.29h32.34c2.23 0 4.04 1.51 4.04 3.29z" fill="#ffb21a"/><path d="M53.46 142.78c0-1.82 1.81-3.29 4-3.29h-4.22c-2.23 0-4 1.47-4 3.29s1.81 3.29 4 3.29h4.26c-2.23 0-4.04-1.47-4.04-3.29z" fill="#fdd224"/><path d="M85.58 139.49h-7.91c2.23 0 4 1.47 4 3.29s-1.81 3.29-4 3.29h7.91c2.23 0 4-1.47 4-3.29s-1.77-3.29-4-3.29z" fill="#ff990b"/><path fill="#ffb21a" d="m69.41 167.42-5.53-4.5 5.53-4.51 5.53 4.51-5.53 4.5z"/><path fill="#96151f" d="m70.41 167.42-5.53-4.5 5.53-4.51 5.53 4.51-5.53 4.5z"/><path fill="#ffb21a" d="m69.41 167.42-5.53-4.5 5.53-4.51 5.53 4.51-5.53 4.5z"/><path fill="#ff990b" d="m69.41 158.41-.49.41 5.03 4.1-5.03 4.1.49.4 5.53-4.5-5.53-4.51z"/><path d="m93.81 157.08-4.54-6.39-5 7-4.94-7-4.94 7-5-7-4.94 7-4.94-7-4.94 7-4.94-7-4.8 6.75 1.73-4.14 3.15-4.3 4.94 7 4.94-7 4.94 7 4.94-7 5 7 4.94-7 4.94 7 5-7 2.47 3.48a31.69 31.69 0 0 1 1.66 3.42c.06.38.21.78.33 1.18z" fill="#ffb21a"/><path d="M93.8 157.08a.43.43 0 0 0 0-.05 1.55 1.55 0 0 0-.08-.23c-.09-.29-.19-.58-.31-.87-.22-.54-.47-1.08-.72-1.61l-.17-.34c-.2-.41-.41-.81-.63-1.21l-.18-.33-2.46-3.44-3.55 5c.17.34.34.68.49 1l3.06-4.3 4.54 6.39z" fill="#ff990b"/></svg>