<svg xmlns="http://www.w3.org/2000/svg" viewBox="0 0 138.83 215.65"><path fill="#fff" d="M0 0h138.82v215.65H0z"/><path fill="none" stroke="#7f664a" stroke-miterlimit="10" stroke-width=".5" d="M63.24 208.74H6.94V8.91h54.37m16.21 0h54.36v199.83h-56.3"/><path d="M14.94 10.42v10a6.61 6.61 0 0 0 .1 1.44.94.94 0 0 0 .42.51 2 2 0 0 0 1 .2h.28v.33H10.3v-.33h.32a2.58 2.58 0 0 0 1.13-.18 1 1 0 0 0 .45-.5 5.51 5.51 0 0 0 .11-1.47v-6.33a3.88 3.88 0 0 0-.08-1.09.73.73 0 0 0-.3-.36.9.9 0 0 0-.51-.15 2.94 2.94 0 0 0-1.12.29l-.16-.32 4.51-2.06zm10.89 12.5h-7.21v-.2a40.63 40.63 0 0 0 4-5.31 5.79 5.79 0 0 0 .7-2.67 2.21 2.21 0 0 0-.58-1.57 1.89 1.89 0 0 0-1.44-.63 2.36 2.36 0 0 0-2.16 1.39l-.33-.12a5 5 0 0 1 1.48-2.56 3.44 3.44 0 0 1 2.29-.83 3.38 3.38 0 0 1 1.7.43A3.19 3.19 0 0 1 25.51 12a2.84 2.84 0 0 1 .49 1.45 5.16 5.16 0 0 1-.67 2.44 23 23 0 0 1-4 4.66h2.65a5.66 5.66 0 0 0 1.27-.08 1 1 0 0 0 .48-.27 3.43 3.43 0 0 0 .5-.82h.33zm91.45 168.58v10a6 6 0 0 0 .1 1.44.88.88 0 0 0 .41.51 2 2 0 0 0 1 .2h.28v.35h-6.45v-.33h.38a2.53 2.53 0 0 0 1.12-.18 1 1 0 0 0 .45-.5 5.36 5.36 0 0 0 .12-1.47v-6.35a4.19 4.19 0 0 0-.08-1.06.72.72 0 0 0-.31-.36.85.85 0 0 0-.51-.15 2.8 2.8 0 0 0-1.12.29l-.16-.33 4.49-2.06zm10.88 12.5H121v-.2a39.68 39.68 0 0 0 4-5.31 5.8 5.8 0 0 0 .71-2.66 2.22 2.22 0 0 0-.59-1.58 1.89 1.89 0 0 0-1.44-.63 2.38 2.38 0 0 0-2.15 1.39l-.34-.11a5.08 5.08 0 0 1 1.48-2.57 3.52 3.52 0 0 1 2.3-.83 3.41 3.41 0 0 1 1.7.43 3.19 3.19 0 0 1 1.2 1.19 2.86 2.86 0 0 1 .43 1.42 5 5 0 0 1-.67 2.43 23.08 23.08 0 0 1-4 4.67h2.65a6.25 6.25 0 0 0 1.26-.08 1.13 1.13 0 0 0 .49-.28 3.94 3.94 0 0 0 .5-.82h.32z" fill="#7f664a"/><path d="M80.38 53.2a14.6 14.6 0 0 0 2.45 9.41 4 4 0 0 0 .26-1.61 8.82 8.82 0 0 0 1.82 6l.24-1.52a13.48 13.48 0 0 0 3.95 7.31 6.57 6.57 0 0 1-.31-2.49 5.21 5.21 0 0 0 3.39 2.17C90.5 70.1 90.09 67 90 64.1s.11-5.93-.6-8.78a10 10 0 0 0-4.34-6.23c-2.79-1.69-4.46 1.62-4.68 4.11z" fill="#5c5e60"/><path d="M54.32 112.77s-3 6.32-2.53 12.64-1.4 10.8-3.79 13.12-8 13.41-6.74 20c0 0 8.43.22 11.94 6.43s23 5.51 23 5.51 13.41-6.53 19-5.51 12.34-1.66 15.15-5.87 8.84-7.16 13-6c0 0 .15-7.45-6-19a36.55 36.55 0 0 1-4.2-13.9 37.5 37.5 0 0 1-.12-5.3c.11-2.37.72-4.64.4-7-.23-1.74-.58-3.46-1-5.17-.59-2.72-1-6.17-2.42-8.61-1-1.69-4.64-6.32-4.64-6.32l-39.68 6.6-7.49.7-3.65 9.69-.56 7z" fill="#96151f"/><path d="M53 143.53a38.43 38.43 0 0 0 3.79-13.12c.68-5.1 0-6.61 1.24-11.46.69-2.63 1.19-3.28 2.25-6.34a64.75 64.75 0 0 0 3-12.53l7.49-.7L109.32 93c-1.43-2.06-3.9-5.19-3.9-5.19l-39.68 6.6-7.49.7-3.65 9.69-.56 7 .28 1s-3 6.32-2.53 12.64-1.4 10.8-3.79 13.12-8 13.41-6.74 20q.7 0 1.47.15a24 24 0 0 1 3.89.84 27.4 27.4 0 0 1 1.5-7.08c1.45-4.14 2.94-5.17 4.88-8.94zm.63 22.07a8.09 8.09 0 0 0 2.82 2.09 12.34 12.34 0 0 0-2.82-2.09z" fill="#bc1b21"/><path d="m72.28 68.65-8.14 9.61s2.17 2.34 2.11 2.34L80 82.2l7.84-1.5 3.64-.84 2.39-1.6-.55-5.58-8.21-4.43L81.2 67l-4.66.85-1.37.77h-2.89zM67 149.38l2.27 15.34s9.47.56 9.16 0-1.72-33.28-1.72-33.28l-4.91-2.94-3.65 4.35z" fill="#a3af31"/><path d="M78.44 164.72c-.31-.56-1.72-33.28-1.72-33.28l-4.91-2.94-1.23 1.5 2.49 1.48s1.4 32.72 1.71 33.28c.06.11-.24.17-.77.21 2.31.03 4.58.03 4.43-.25z" fill="#969b2c"/><path fill="#a3af31" d="m91.89 139.59-5.06 29.76h-7.09l-1.3-1.26-1.67-35.51 11.44.55 3.68 6.46z"/><path fill="#969b2c" d="m88.21 133.13-11.44-.55.01.18 7.78.37 3.68 6.46-5.05 29.76h3.64l5.06-29.76-3.68-6.46z"/><path d="m68.85 161.79 2.54 17.39s-4.07 5.33-8.43 5.33-3.51 2-2.24 2.81 7.12 6.32 16-2.95l1.67.14-.36-24.15a7.77 7.77 0 0 1-9.18 1.43z" fill="#604238"/><path d="M78.08 160.36a7.7 7.7 0 0 1-1.16 1l.33 22.17-1.67-.14c-8 8.35-13.59 4.74-15.54 3.32a2.73 2.73 0 0 0 .68.63c1.26.85 7.12 6.32 16-2.95l1.67.14z" fill="#4f352e"/><path d="M88.28 160.84s-2.57 13.85-2 16.51S89.92 188 96.8 187.74c0 0 1 .28 0 1.27s-11.37 5.61-16.29-2.95h-.77l-1.3-1.55-.36-24.15a8.55 8.55 0 0 0 10.2.48z" fill="#604238"/><path d="M96.8 187.74c-6.88.28-10-7.72-10.53-10.39s2-16.51 2-16.51a9.85 9.85 0 0 1-2.71 1.16c-.6 3.4-2.25 13.14-1.79 15.33.56 2.67 3.65 10.67 10.53 10.41 0 0 1 .28 0 1.27a13.38 13.38 0 0 1-6.22 2.07A14.14 14.14 0 0 0 96.8 189c.98-1 0-1.26 0-1.26z" fill="#4f352e"/><path d="M51.79 94.66s-.56 2.11-9.4 0l-2.81.47s-5.48 9.92-4.64 14a28.39 28.39 0 0 0 2.25 6.74l1.09 2.13s9.58-1.89 15.06-4.56 6.88-11.23 6.88-11.23l-4.64-8.42z" fill="#a3af31"/><path d="M53.34 104.64c-5.48 2.67-15.06 4.56-15.06 4.56l-1.09-2.2a24.46 24.46 0 0 1-1.38-3.46 12.16 12.16 0 0 0-.87 5.55 28.39 28.39 0 0 0 2.25 6.74l1.09 2.17s9.58-1.89 15.06-4.56 6.88-11.23 6.88-11.23L58.41 99a11.78 11.78 0 0 1-5.07 5.64z" fill="#969b2c"/><path d="M35.09 115.21a3.28 3.28 0 0 0 .65 1.24c.33.34 1.14 1.27 1.28.38.09-.55.77-.82.72-1.37a5.63 5.63 0 0 0-.49-1.59 15.26 15.26 0 0 1-.67-5.35 14.1 14.1 0 0 1 .53-4.89 7.65 7.65 0 0 0 .73-2.29c-5.93-2.05-3.55 11.58-2.75 13.87z" fill="#fdbb29"/><path d="M64.32 56.77c-.26 2.3-.91 5-3 5.83l2.31-.43a5.17 5.17 0 0 1-2.21 5l2.87-.6a8.73 8.73 0 0 0 1 6.4l1-1.38a5.13 5.13 0 0 0 2.68 2.49 121.43 121.43 0 0 0 1.88-15.88 13.28 13.28 0 0 0 0-2.6c-.23-1.43-2-5.25-4-4.91s-2.37 4.65-2.53 6.08z" fill="#5c5e60"/><ellipse cx="77.16" cy="59.65" rx="11.42" ry="14.23" fill="#f9c18a"/><path d="M77.16 45.43a9.18 9.18 0 0 0-2 .24c5.33 1.2 9.37 7 9.37 14s-4 12.79-9.37 14a9.18 9.18 0 0 0 2 .24c6.3 0 11.42-6.37 11.42-14.23s-5.12-14.25-11.42-14.25z" fill="#ea9f54"/><path d="M82 51.56A14.63 14.63 0 0 0 84.46 61a4 4 0 0 0 .26-1.63 8.82 8.82 0 0 0 1.82 6.06l.25-1.53a13.42 13.42 0 0 0 3.95 7.31 6.38 6.38 0 0 1-.31-2.49 5.21 5.21 0 0 0 3.39 2.17c-1.69-2.4-2.09-5.47-2.17-8.41s.11-5.92-.6-8.77a10 10 0 0 0-4.35-6.24c-2.8-1.71-4.46 1.6-4.7 4.09z" fill="#535454"/><path d="M71 72.89a9.11 9.11 0 0 0-4.44.24 2.77 2.77 0 0 0-1.3 1 2.52 2.52 0 0 0 .47 3.07 4.59 4.59 0 0 0 3.08 1.17 5.08 5.08 0 0 0 4.26-1.67 2.54 2.54 0 0 0 .58-1.56c-.02-1.41-1.46-2.14-2.65-2.25z" fill="none"/><path d="M65.74 68.64s-.56 2.53-2.25 3a6.62 6.62 0 0 0 3.28 0 2.33 2.33 0 0 1 0 2.9s3.1 1.19 3.93-.66c0 0 .94 2.9 0 3.75 0 0 2.78-1 3.37-2.53a4.35 4.35 0 0 1 0 2.53s3.09-1.31 3.09-2.53a3.2 3.2 0 0 0 3.18.93 3.15 3.15 0 0 1 0-2.15s2.62 1.41 3.93.56c0 0-1.83-2.15-1.38-2.49 0 0 2.5 1.93 4.28 1.18 0 0-2.91-2.2-2.24-3a3.06 3.06 0 0 0 3.65-.69s-3.32-2.18-3.58-3.33-5.22-2.52-5.22-2.52l-2.62-.66-3.28-.09L71.26 64l-2.43 2.25-1.68 1.36-.38-.52z" fill="#5c5e60"/><path d="M73.07 75.1c0 .75-1.17 1.54-2.07 2a1.2 1.2 0 0 1-.3.5 7.57 7.57 0 0 0 3-2 3.1 3.1 0 0 1-.63-.5zm-6.28-.59zm21.79-5.12s-3.32-2.13-3.58-3.28-5.22-2.52-5.22-2.52l-2.62-.66-3.28-.09-.43.18 2.24.57s5 1.38 5.23 2.52 3.57 3.28 3.57 3.28a3.06 3.06 0 0 1-3.65.69c-.67.85 2.25 3 2.25 3-1.78.75-4.28-1.18-4.28-1.18-.43.32 1.21 2.3 1.35 2.46a1.39 1.39 0 0 1 .18-.53s2.62 1.41 3.93.56c0 0-1.83-2.15-1.38-2.49 0 0 2.5 1.93 4.28 1.18 0 0-2.91-2.2-2.24-3a3.06 3.06 0 0 0 3.65-.69zm-8.43 5.07c-1.32.8-3.89-.58-3.89-.58a3.09 3.09 0 0 0 0 2.15 3.27 3.27 0 0 1-2-.14 3 3 0 0 1-.15 1.74s3.09-1.31 3.09-2.53a3.2 3.2 0 0 0 3.18.93 4.21 4.21 0 0 1-.23-1.57z" fill="#535454"/><path d="M63.49 115.58s-8.49 25.83-11.7 28.64c0 0 9 7.72 15.17 4.49l5.47-15.58 3.6 17s17.74 2.67 27.57-5.48a67.53 67.53 0 0 1-6.74-23V110l-28.17 4.36z" fill="#4f4543"/><path d="M96.86 121.62V110l-7.57 1.17v10.49a67.78 67.78 0 0 0 6.74 23c-4.8 4-11.5 5.38-17.09 5.77 5.45.37 17.28.35 24.66-5.77a67.53 67.53 0 0 1-6.74-23.04z" fill="#383333"/><path d="M66 181.57a.72.72 0 0 0-.36.35c-.06.23.12.44.29.61l2 1.94a1.42 1.42 0 0 0 .76.48 1.52 1.52 0 0 0 1.08-.53 15 15 0 0 1 3.37-2.24L72 180.46c-1.6-2.55-4.08.01-6 1.11z" fill="#fdbb29"/><path d="M67.54 181.84c-.08 0-.17.1-.19.19s.06.24.15.33l1.09 1.06a.77.77 0 0 0 .41.25c.22 0 .41-.14.58-.28a8 8 0 0 1 1.83-1.22l-.59-.93c-.89-1.39-2.24 0-3.28.6z" fill="#604238"/><path d="M84.19 181.31c-.09.22.08.44.24.61l3.85 4.1a.83.83 0 0 0 .33.26.91.91 0 0 0 .73-.2l2.38-1.53c-.27.17-2.67-4.19-3-4.47-1.31-.99-3.18.57-4.53 1.23z" fill="#fdbb29"/><path d="M85.45 181.89c-.06.14.06.29.16.4l2.56 2.71a.52.52 0 0 0 .22.17.59.59 0 0 0 .48-.14l1.58-1c-.17.11-1.77-2.79-2-3-.86-.62-2.1.42-3 .86z" fill="#604238"/><path d="M73.13 126.53 65 145.2s-9.8-.56-13.17-6.74L46.46 151l17.12 3.5 2-1.06 3.13-5.26 6 5.62 21.2-1.27 12.44-6.59-4.07-7s-7.74 8.49-26.6 6.73z" fill="none"/><path d="M101.85 140.85c-3.59 2.4-11.28 6-24.15 4.77l-4.57-19.09L65 145.2s-6.91-.41-11.12-4.2a12 12 0 0 1-2.05 3.22s9 7.72 15.17 4.49l5.47-15.58 3.6 17s17.74 2.67 27.57-5.48c-.04-.01-.79-1.42-1.79-3.8z" fill="#fdbb29"/><path d="M109.5 100.84C107 94 99.17 95.5 99.17 95.5v5l-5.49 7.5-4.81 3.2-9.7 2.27H68.69s-4-1.4-5.2-4.07-.74-9.27-.74-9.27l-.2.39-4.93 8.76a15.22 15.22 0 0 0-1.42-7.07 29.79 29.79 0 0 0-4.41-7.55l10.39-14.88 9.69 1.77 15.88-1.87 10-3.56S109.64 87.92 111 92s-1.5 8.84-1.5 8.84z" fill="#4f4543"/><path d="M67.24 72.68a8.73 8.73 0 0 0-7 7.85s0 2.34 2 2.52 8.05 2 13.57 0l1.41-.65v-1.78s-9.88-2.82-9.98-7.94z" fill="#bc1b21"/><path d="M80.13 104.07c-.22 1.57.5 3.27-.19 4.69a4 4 0 0 1-.91 1.17c-.33.31-2.06 1.77-2.55 1.21s1.28-1.43 1.61-1.78c1.45-1.59 1.75-3.26 2.04-5.29zM111 92c-1.4-4.09-13.3-15.89-13.3-15.89l-3.29 1.17c3 3.09 11 11.42 12.14 14.72a8.76 8.76 0 0 1 0 5 7.93 7.93 0 0 1 2.87 3.86S112.44 96.1 111 92z" fill="#383333"/><path d="M94.72 95.5v5.06L89.23 108l-4.82 3.2-9.69 2.27h4.45l9.69-2.27 4.82-3.2 5.48-7.44v-4.91a11.86 11.86 0 0 0-4.44-.15z" fill="#383333"/><path d="M79.17 80.34s10.55-.22 11.48-8.34l-1.86-1.64s5.5-4.6 9.15-1 1.76 18-19.38 12.26z" fill="#bc1b21"/><path d="M97.94 69.3a5.16 5.16 0 0 0-5.55-1 4.75 4.75 0 0 1 1.38 1c2.89 2.81 2.3 12.42-8.57 13.47C100.05 84 101.16 72.44 97.94 69.3z" fill="#96151f"/><path d="M87.89 107.45s4-14.71 3.49-20.2l7.78 8.25-6.33 10.92z" fill="#383333"/><path d="M63.49 109.4s17.89 3.93 30.19-1.4l.65 7.16s-19.7 5.47-30.84.42c0 0-1.64-4.07 0-6.18z" fill="#604238"/><path d="M66.55 116.19s-1.64-4.07 0-6.17c0 0 15.26 3.34 27.28-.35l-.15-1.67c-12.3 5.33-30.19 1.4-30.19 1.4-1.64 2.11 0 6.18 0 6.18a23.45 23.45 0 0 0 6.27 1.73 19.29 19.29 0 0 1-3.21-1.12z" fill="#704d43"/><path d="m109.5 100.84-10.88 22.77-10-18.84c2.36-5.36 10.58-9.27 10.58-9.27 1.7 0 3.53-.27 5.14.25a6.83 6.83 0 0 1 1.46.72 8.13 8.13 0 0 1 3.7 4.37z" fill="#a3af31"/><path d="M106.62 97.06v.11L96.2 119.08l2.42 4.53 10.88-22.77a7.65 7.65 0 0 0-2.88-3.78z" fill="#969b2c"/><path d="M91.8 103.22c1.91.3 3.39 1.85 4.38 3.51 2.43 4.08 2.71 9 2.82 13.8 0 1.57-.07 3.43-1.39 4.29a3.05 3.05 0 0 1-3.09 0 6.85 6.85 0 0 1-2.24-2.3c-1.89-2.95-8.58-20.58-.48-19.3z" fill="#fdbb29"/><path d="M96.3 38.9a2.43 2.43 0 0 0-2.45 2.42 2.36 2.36 0 0 0 .24 1c-2 .28-4.68-.06-5.72-3.47a2.4 2.4 0 1 0-1.12-.15c-2.17 1-7.66 2.94-11.21-1.29a2.42 2.42 0 0 0-1-4.64 2.42 2.42 0 0 0-.37 4.81C73.18 40 69 45.28 63 41.23a2.45 2.45 0 1 0-2.13 1.25 2.46 2.46 0 0 0 1.08-.26l3.5 11.08s7.17-9.56 25.51 0l4.49-9.71a2.66 2.66 0 0 0 .85.15 2.42 2.42 0 1 0 0-4.84z" fill="#f8a201"/><path d="M60.82 42.22a2.49 2.49 0 0 1-.54.2 2.51 2.51 0 0 0 .55.06h.07zm1.37-2.16a2.43 2.43 0 0 1-.31 1.17 7.47 7.47 0 0 0 4.94 1.45A8.09 8.09 0 0 1 63 41.23a2.41 2.41 0 0 0-2.13-3.59 2.35 2.35 0 0 0-.54.07 2.42 2.42 0 0 1 1.86 2.35zm14.24-4.84A2.43 2.43 0 0 1 75 37.44 7.3 7.3 0 0 0 81.25 40 7.11 7.11 0 0 1 76 37.44a2.42 2.42 0 0 0-1-4.64 2.35 2.35 0 0 0-.54.07 2.41 2.41 0 0 1 1.97 2.35zm13.1 1.26a2.42 2.42 0 0 1-2.24 2.4 4.62 4.62 0 0 0 5.22 3.52 4.5 4.5 0 0 1-4.14-3.52 2.41 2.41 0 0 0-.2-4.82 2.51 2.51 0 0 0-.55.07 2.42 2.42 0 0 1 1.91 2.35zm6.77 2.42a2.51 2.51 0 0 0-.55.07 2.41 2.41 0 0 1 0 4.71 2.26 2.26 0 0 0 .53.06 2.42 2.42 0 1 0 0-4.84zm-1.09 4.84a2.55 2.55 0 0 1-.84-.15l-4.29 9.28.88.43 4.43-9.57z" fill="#ea860f"/><ellipse cx="74.21" cy="64.62" rx="2.95" ry="1.78" fill="#f9c18a"/><path d="M62.74 67.14a2.85 2.85 0 0 0 3-1c1.31-1.59 4.21-6 8.14-3.27a6 6 0 0 1 6.93-.38c3.65 2.34 4.71 3.61 6.94 2.51 0 0-3.67 2.73-7.22.11s-6.09-.7-6.09-.7-3.65-.7-5.61 1.83-5.24 1.93-6.09.9z" fill="#7b7c7c"/><ellipse cx="78" cy="81.56" rx="1.97" ry="2.34" fill="#fdbb29"/><path fill="#5b595b" d="M23.45 78.21h10.46v4.8H23.45z"/><path fill="#484349" d="M31.66 78.21h2.25v4.8h-2.25z"/><ellipse cx="28.68" cy="46.47" rx="2.81" ry="2.29" fill="#ffb21a"/><path d="M28.68 44.18a3.52 3.52 0 0 0-.66.06 2.23 2.23 0 0 1 0 4.45 3.51 3.51 0 0 0 .66.07 2.59 2.59 0 0 0 2.81-2.29 2.59 2.59 0 0 0-2.81-2.29z" fill="#ff990b"/><ellipse cx="28.68" cy="55.69" rx="11.05" ry="9" fill="#a3af31"/><path d="M18.71 55.69c0-4.82 4.65-8.76 10.51-9h-.54c-6.11 0-11 4-11 9s4.94 9 11.05 9h.54c-5.91-.24-10.56-4.18-10.56-9z" fill="#b5bc35"/><path d="M28.68 46.69a13 13 0 0 0-1.41.08c5.44.56 9.64 4.34 9.64 8.92s-4.2 8.36-9.64 8.92a13 13 0 0 0 1.41.08c6.1 0 11-4 11-9s-4.9-9-11-9z" fill="#969b2c"/><path d="M19.8 83h17.75a2.17 2.17 0 0 1 2.17 2.17v2.06H17.63v-2.04A2.17 2.17 0 0 1 19.8 83z" fill="#ffb21a"/><path d="M21.27 83h-1.08a2.56 2.56 0 0 0-2.56 2.56v1.68h1.08v-1.67A2.56 2.56 0 0 1 21.27 83z" fill="#fdd224"/><path d="M37.16 83h-5.23a2.56 2.56 0 0 1 2.56 2.56v1.68h5.24v-1.67A2.57 2.57 0 0 0 37.16 83z" fill="#ff990b"/><path d="M28.68 79.3c-10.85 0-18.15-7.82-16.2-15a10.42 10.42 0 0 1 .35-1c.24-.58.51-1.15.8-1.71a32.34 32.34 0 0 1 3-4.77 46.44 46.44 0 0 1 3.75-4.35h16.2a45.14 45.14 0 0 1 4 4.35A31.23 31.23 0 0 1 43.42 61a22.41 22.41 0 0 1 1.1 2.26c.1.26.2.52.28.78C47 71.29 39.66 79.3 28.68 79.3z" fill="#bc1b21"/><path d="M13.49 63.31a30.52 30.52 0 0 1 3.83-6.49 47.9 47.9 0 0 1 3.74-4.35h-.65a46.44 46.44 0 0 0-3.75 4.35 30.52 30.52 0 0 0-3.83 6.49c-3 7.39 4.46 16 15.85 16H29c-11.19-.18-18.49-8.68-15.51-16z" fill="#c62430"/><path d="M33.91 78.66v.81a20.81 20.81 0 0 1-5.23.65 21.29 21.29 0 0 1-5.23-.64v-.83a20.81 20.81 0 0 0 5.23.65 21.29 21.29 0 0 0 5.23-.64z" fill="#39373a"/><path d="M44.52 63.31a28 28 0 0 0-4-6.49 45.14 45.14 0 0 0-4-4.35h-4.4a43.81 43.81 0 0 1 4 4.35 27.68 27.68 0 0 1 4 6.49c2.81 6.89-3.5 14.83-13.6 15.87a20.65 20.65 0 0 0 2.25.12c11.29 0 18.77-8.6 15.75-15.99z" fill="#96151f"/><path d="M42 54.65a2.45 2.45 0 0 1-2.67 2.17H18a2.45 2.45 0 0 1-2.67-2.17A2.46 2.46 0 0 1 18 52.47h21.36A2.46 2.46 0 0 1 42 54.65z" fill="#ffb21a"/><path d="M18.13 54.65a2.46 2.46 0 0 1 2.67-2.18H18a2.22 2.22 0 1 0 0 4.35h2.8a2.46 2.46 0 0 1-2.67-2.17z" fill="#fdd224"/><path d="M39.36 52.47h-5.23a2.22 2.22 0 1 1 0 4.35h5.23a2.22 2.22 0 1 0 0-4.35z" fill="#ff990b"/><path fill="#ffb21a" d="m28.68 70.93-3.66-2.98 3.66-2.97 3.65 2.97-3.65 2.98z"/><path fill="#96151f" d="m29.34 70.93-3.66-2.98 3.66-2.97 3.65 2.97-3.65 2.98z"/><path fill="#ffb21a" d="m28.68 70.93-3.66-2.98 3.66-2.97 3.65 2.97-3.65 2.98z"/><path fill="#ff990b" d="m28.68 64.98-.33.27 3.33 2.7-3.33 2.71.33.27 3.65-2.98-3.65-2.97z"/><path d="m44.8 64.09-3-4.22-3.26 4.6-3.27-4.6L32 64.48l-3.26-4.6-3.27 4.6-3.26-4.6-3.27 4.6-3.27-4.6-3.17 4.46 1.15-2.74 2-2.85 3.27 4.6 3.27-4.6 3.26 4.6 3.27-4.6L32 63.34l3.27-4.6 3.27 4.6 3.26-4.6L43.42 61a22.41 22.41 0 0 1 1.1 2.26c.1.31.2.57.28.83z" fill="#ffb21a"/><path d="M44.8 64.1a.88.88 0 0 1 0-.15c-.07-.19-.13-.38-.21-.57-.15-.36-.31-.71-.48-1.06a2.4 2.4 0 0 1-.11-.23l-.42-.8-.19-.29-1.61-2.27L39.44 62c.12.23.22.45.33.68l2-2.84 3 4.22z" fill="#ff990b"/><path d="M92.65 119.76a4.72 4.72 0 0 0 2 2.26 1.19 1.19 0 0 0 .64.13 1.15 1.15 0 0 0 .66-.42c1.06-1.18.85-3 .57-4.54l-.89-5.07a3.28 3.28 0 0 0-.79-1.92 2.27 2.27 0 0 0-3 .24c-2.84 2.61-.63 6.56.81 9.32z" fill="#8c8c2a"/><path d="M71 109.53v8.75h7.5v-8.75zm5.67 6.67H72.7v-4.59h3.92z" fill="#fdbb29"/><path d="M88.66 106.22a5.93 5.93 0 0 1-1.74.83 24.57 24.57 0 0 1-4.55.3c-1.52.11-3.18.71-3.8 2.1a.34.34 0 0 0 0 .35c.06.12.21.14.34.16l1.26.14-2.66 2.72a4.22 4.22 0 0 0-1 1.27 1.42 1.42 0 0 0 .2 1.51.86.86 0 0 0 1.35-.16c-.3.47.12 1.13.66 1.28a2.81 2.81 0 0 0 1.63-.25 1.31 1.31 0 0 0 .63 1.91c1.08.36 2-.76 2.82-1.55 2.6-2.5 7.12-2.55 9.16-5.53.49-.71 1.71-.7 2.31-1.32a2.62 2.62 0 0 0 .42-2.81 3.71 3.71 0 0 0-2.22-1.9 5.84 5.84 0 0 0-4.81.95z" fill="#f9c18a"/><path d="M95.7 107.17a3.35 3.35 0 0 0-1.11-1.31 2.36 2.36 0 0 1-.6 1.25c-.6.62-1.83.6-2.31 1.31-2 3-6.56 3-9.16 5.54-.82.79-1.74 1.9-2.82 1.55a1.32 1.32 0 0 1-.63-1.92 2.67 2.67 0 0 1-1.63.25 1.08 1.08 0 0 1-.54-.37 2.65 2.65 0 0 0-.38.62 1.42 1.42 0 0 0 .2 1.51.86.86 0 0 0 1.35-.16c-.3.47.12 1.13.66 1.28a2.81 2.81 0 0 0 1.63-.25 1.31 1.31 0 0 0 .63 1.91c1.08.36 2-.76 2.82-1.55 2.6-2.5 7.12-2.55 9.16-5.53.49-.71 1.71-.7 2.31-1.32a2.62 2.62 0 0 0 .42-2.81z" fill="#ea9f54"/><path d="M89.84 105.57s4.59 2 5.31 5.08L96.7 109s-1.85-7.78-6.86-3.43z" fill="#fdbb29"/><path d="M63.88 92a24.82 24.82 0 0 0-.88 3.7c-.23 1.6-.13 3.25-.41 4.82l-5 8.93a15.88 15.88 0 0 0-1.33-7.24 3.46 3.46 0 0 1 .87-1.3c2.48-2.36 5.69-5.44 6.75-8.91z" fill="#383333"/><path d="M39.75 96.14A32 32 0 0 0 36 110.91a5.45 5.45 0 0 0 .32 2.27 2.12 2.12 0 0 0 1.68 1.35 2.83 2.83 0 0 0 1.94-1c2.77-2.61 4-6.49 4.51-10.27.42-2.92-1.01-7.14-4.7-7.12z" fill="#8c8c2a"/><path d="M31.39 93.16c-.53-.48-1-1.23-1.7-1.14a1.14 1.14 0 0 0-.85 1.24 3.36 3.36 0 0 0 .64 1.51 19.83 19.83 0 0 0-5.74.57 2.32 2.32 0 0 0-1.64 1 5.39 5.39 0 0 1-.37 1c-.29.39-.85.46-1.29.68a1.53 1.53 0 0 0-.86 1.45 1.16 1.16 0 0 0 1.21 1 1.11 1.11 0 1 0 1 2l-.32 1a4.12 4.12 0 0 0 3.42.1c1.12-.38 2.16-1 3.31-1.25a14.09 14.09 0 0 1 4-.12 95.74 95.74 0 0 0 9.73-.18 2.14 2.14 0 0 0 1.27-.35 1.9 1.9 0 0 0 .54-1 7.72 7.72 0 0 0-.1-3.79h-4.79c-1.83 0-2-1.11-3.35-2s-2.97-.67-4.11-1.72z" fill="#f9c18a"/><path d="M43.73 98.44a1.93 1.93 0 0 1-.54 1.06 2.13 2.13 0 0 1-1.27.34 92.93 92.93 0 0 1-9.73.18 14.09 14.09 0 0 0-4 .12c-1.15.27-2.19.87-3.31 1.25a4.08 4.08 0 0 1-3.42-.1l.32-1a1.11 1.11 0 1 1-1-2 1 1 0 0 1-.61-.15 1.45 1.45 0 0 0-.6 1.27 1.16 1.16 0 0 0 1.21 1 1.11 1.11 0 1 0 1 2l-.32 1a4.12 4.12 0 0 0 3.42.1c1.12-.38 2.16-1 3.31-1.25a14.09 14.09 0 0 1 4-.12 95.74 95.74 0 0 0 9.73-.18 2.14 2.14 0 0 0 1.27-.35 1.9 1.9 0 0 0 .54-1 7.69 7.69 0 0 0 .1-2.83c-.03.22-.05.45-.1.66zm-14.48-6.2a1.08 1.08 0 0 0-.26.36h.49z" fill="#ea9f54"/><path d="M41.42 94.87a5 5 0 0 1 2.75 2.71c2 4 .79 8.83-1 12.94-.67 1.59-1.43 3.15-2.18 4.71a5.16 5.16 0 0 1-2.17 2.69c-1.07.5-2.68-.16-2.62-1.33a2.85 2.85 0 0 1 .82-1.52 20.48 20.48 0 0 0 4.63-14.39 6.68 6.68 0 0 0-.82-3.12c-.6-1-2-.6-3-.92a3.75 3.75 0 0 1 3.59-1.77z" fill="#fdbb29"/><path d="M68.46 105a5.43 5.43 0 0 0 1.54 5.16c-1.1.53-1.84-1.21-2-2-.34-1.31.18-2.01.46-3.16z" fill="#383333"/></svg>