<svg xmlns="http://www.w3.org/2000/svg" viewBox="0 0 138.83 215.65"><path fill="#fff" d="M0 0h138.82v215.65H0z"/><path fill="none" stroke="#7f664a" stroke-miterlimit="10" stroke-width=".5" d="M63.24 208.74H6.94V8.91h54.37m16.21 0h54.36v199.83h-56.3"/><path fill="#5b595b" d="M28.2 186.52h10.42v4.79H28.2z"/><path fill="#484349" d="M36.38 186.52h2.24v4.79h-2.24z"/><ellipse cx="33.41" cy="154.9" rx="2.8" ry="2.28" fill="#ffb21a"/><path d="M33.41 152.61a3.6 3.6 0 0 0-.66.07 2.22 2.22 0 0 1 0 4.43 3.6 3.6 0 0 0 .66.07 2.33 2.33 0 1 0 0-4.57z" fill="#ff990b"/><ellipse cx="33.41" cy="164.08" rx="11.01" ry="8.96" fill="#a3af31"/><path d="M23.48 164.08c0-4.8 4.64-8.72 10.47-9h-.54c-6.08 0-11 4-11 9s4.93 9 11 9h.54c-5.83-.27-10.47-4.19-10.47-9z" fill="#b5bc35"/><path d="M33.41 155.12a12.85 12.85 0 0 0-1.4.08c5.42.56 9.61 4.32 9.61 8.88S37.43 172.41 32 173a12.85 12.85 0 0 0 1.4.08c6.08 0 11-4 11-9s-4.91-8.96-10.99-8.96z" fill="#969b2c"/><path d="M26.62 191.31h13.57a4.22 4.22 0 0 1 4.22 4.22h-22a4.22 4.22 0 0 1 4.21-4.22z" fill="#ffb21a"/><path d="M26 191.31h-1a2.55 2.55 0 0 0-2.55 2.55v1.67h1.08v-1.67a2.55 2.55 0 0 1 2.47-2.55z" fill="#fdd224"/><path d="M41.86 191.31h-5.21a2.55 2.55 0 0 1 2.55 2.55v1.67h5.22v-1.67a2.56 2.56 0 0 0-2.56-2.55z" fill="#ff990b"/><path d="M33.41 187.61c-10.81 0-18.08-7.79-16.14-14.9a7.89 7.89 0 0 1 .34-1c.24-.57.51-1.14.79-1.69a32.61 32.61 0 0 1 3-4.75 46 46 0 0 1 3.73-4.33h16.18a43.46 43.46 0 0 1 3.94 4.33 31.13 31.13 0 0 1 2.85 4.21c.4.74.77 1.49 1.09 2.25a7.41 7.41 0 0 1 .28.79c2.2 7.11-5.12 15.09-16.06 15.09z" fill="#bc1b21"/><path d="M18.28 171.67a30.48 30.48 0 0 1 3.81-6.46 47.51 47.51 0 0 1 3.73-4.33h-.65a46 46 0 0 0-3.73 4.33 30.52 30.52 0 0 0-3.82 6.46c-3 7.37 4.45 15.94 15.79 15.94h.33c-11.16-.18-18.43-8.61-15.46-15.94z" fill="#c62430"/><path d="M38.62 187v.82a21.53 21.53 0 0 1-10.42 0V187a21.21 21.21 0 0 0 10.42 0z" fill="#39373a"/><path d="M49.19 171.67a27.63 27.63 0 0 0-3.94-6.46 43.46 43.46 0 0 0-3.94-4.33h-4.47a44.72 44.72 0 0 1 3.94 4.33 28 28 0 0 1 3.94 6.46c2.8 6.87-3.49 14.78-13.55 15.82.73.07 1.47.12 2.24.12 11.34 0 18.79-8.61 15.78-15.94z" fill="#96151f"/><path d="M46.72 163a2.46 2.46 0 0 1-2.67 2.17H22.76A2.45 2.45 0 0 1 20.1 163a2.45 2.45 0 0 1 2.66-2.16h21.29a2.46 2.46 0 0 1 2.67 2.16z" fill="#ffb21a"/><path d="M22.9 163a2.46 2.46 0 0 1 2.67-2.16h-2.81a2.21 2.21 0 1 0 0 4.33h2.81A2.46 2.46 0 0 1 22.9 163z" fill="#fdd224"/><path d="M44.05 160.88h-5.21a2.21 2.21 0 1 1 0 4.33h5.21a2.21 2.21 0 1 0 0-4.33z" fill="#ff990b"/><path fill="#ffb21a" d="m33.41 179.27-3.64-2.97 3.64-2.96 3.64 2.96-3.64 2.97z"/><path fill="#96151f" d="m34.06 179.27-3.64-2.97 3.64-2.96 3.65 2.96-3.65 2.97z"/><path fill="#ffb21a" d="m33.41 179.27-3.64-2.97 3.64-2.96 3.64 2.96-3.64 2.97z"/><path fill="#ff990b" d="m33.41 173.34-.33.26 3.32 2.7-3.32 2.7.33.27 3.64-2.97-3.64-2.96z"/><path d="m49.47 172.46-3-4.21-3.26 4.58-3.21-4.57-3.26 4.58-3.25-4.58-3.26 4.58-3.25-4.58-3.25 4.58-3.26-4.58-3.15 4.45 1.09-2.71 2-2.83 3.26 4.58 3.25-4.58 3.25 4.58 3.26-4.58 3.25 4.58 3.32-4.62 3.25 4.58 3.26-4.58 1.63 2.29c.4.74.77 1.49 1.09 2.25a7.41 7.41 0 0 1 .24.79z" fill="#ffb21a"/><path d="M49.47 172.46s0-.1-.05-.15-.13-.38-.21-.57q-.22-.53-.48-1a2.4 2.4 0 0 0-.11-.23c-.13-.27-.27-.53-.41-.8l-.12-.21-1.6-2.25-2.33 3.28.32.68 2-2.83 3 4.21z" fill="#ff990b"/><path fill="#5b595b" d="M28.2 54.03h10.42v4.79H28.2z"/><path fill="#484349" d="M36.38 54.03h2.24v4.79h-2.24z"/><ellipse cx="33.41" cy="22.4" rx="2.8" ry="2.28" fill="#ffb21a"/><path d="M33.41 20.12a3.6 3.6 0 0 0-.66.07 2.43 2.43 0 0 1 2.15 2.21 2.43 2.43 0 0 1-2.15 2.22 3.6 3.6 0 0 0 .66.07 2.58 2.58 0 0 0 2.8-2.29 2.58 2.58 0 0 0-2.8-2.28z" fill="#ff990b"/><ellipse cx="33.41" cy="31.59" rx="11.01" ry="8.96" fill="#a3af31"/><path d="M23.48 31.59c0-4.8 4.64-8.72 10.47-8.95h-.54c-6.08 0-11 4-11 9s4.93 9 11 9H34c-5.88-.32-10.52-4.24-10.52-9.05z" fill="#b5bc35"/><path d="M33.41 22.63a12.85 12.85 0 0 0-1.4.08c5.42.56 9.61 4.32 9.61 8.88s-4.19 8.33-9.62 8.89a12.87 12.87 0 0 0 1.4.07c6.08 0 11-4 11-9s-4.91-8.92-10.99-8.92z" fill="#969b2c"/><path d="M26.62 58.81h13.57A4.22 4.22 0 0 1 44.42 63h-22a4.22 4.22 0 0 1 4.2-4.19z" fill="#ffb21a"/><path d="M26 58.81h-1a2.56 2.56 0 0 0-2.55 2.56V63h1.08v-1.63A2.56 2.56 0 0 1 26 58.81z" fill="#fdd224"/><path d="M41.86 58.81h-5.21a2.56 2.56 0 0 1 2.55 2.56V63h5.22v-1.63a2.56 2.56 0 0 0-2.56-2.56z" fill="#ff990b"/><path d="M33.41 55.11c-10.81 0-18.08-7.78-16.14-14.89a8.27 8.27 0 0 1 .34-1c.24-.57.51-1.14.79-1.7a32.61 32.61 0 0 1 3-4.75 46 46 0 0 1 3.73-4.33h16.18a43.46 43.46 0 0 1 3.94 4.33 30.51 30.51 0 0 1 2.85 4.21c.4.74.77 1.49 1.09 2.25a7.41 7.41 0 0 1 .28.79c2.2 7.12-5.12 15.09-16.06 15.09z" fill="#bc1b21"/><path d="M18.28 39.18a30.48 30.48 0 0 1 3.81-6.46 47.51 47.51 0 0 1 3.73-4.33h-.65a46 46 0 0 0-3.73 4.33 30.52 30.52 0 0 0-3.82 6.46c-3 7.36 4.45 15.93 15.79 15.93h.33c-11.16-.17-18.43-8.64-15.46-15.93z" fill="#c62430"/><path d="M38.62 54.47v.82a21.53 21.53 0 0 1-10.42 0v-.82a21.53 21.53 0 0 0 10.42 0z" fill="#39373a"/><path d="M49.19 39.18a27.63 27.63 0 0 0-3.94-6.46 43.46 43.46 0 0 0-3.94-4.33h-4.47a44.72 44.72 0 0 1 3.94 4.33 28 28 0 0 1 3.94 6.46C47.52 46.05 41.23 54 31.17 55c.73.07 1.47.11 2.24.11 11.34 0 18.79-8.57 15.78-15.93z" fill="#96151f"/><path d="M46.72 30.55a2.46 2.46 0 0 1-2.67 2.17H22.76a2.45 2.45 0 0 1-2.66-2.17 2.45 2.45 0 0 1 2.66-2.16h21.29a2.46 2.46 0 0 1 2.67 2.16z" fill="#ffb21a"/><path d="M22.9 30.55a2.46 2.46 0 0 1 2.67-2.16h-2.81a2.45 2.45 0 0 0-2.66 2.16 2.45 2.45 0 0 0 2.66 2.17h2.81a2.46 2.46 0 0 1-2.67-2.17z" fill="#fdd224"/><path d="M44.05 28.39h-5.21a2.46 2.46 0 0 1 2.67 2.16 2.46 2.46 0 0 1-2.67 2.17h5.21a2.46 2.46 0 0 0 2.67-2.17 2.46 2.46 0 0 0-2.67-2.16z" fill="#ff990b"/><path fill="#ffb21a" d="m33.41 46.78-3.64-2.97 3.64-2.96 3.64 2.96-3.64 2.97z"/><path fill="#96151f" d="m34.06 46.78-3.64-2.97 3.64-2.96 3.65 2.96-3.65 2.97z"/><path fill="#ffb21a" d="m33.41 46.78-3.64-2.97 3.64-2.96 3.64 2.96-3.64 2.97z"/><path fill="#ff990b" d="m33.41 40.85-.33.26 3.32 2.7-3.32 2.7.33.27 3.64-2.97-3.64-2.96z"/><path d="m49.47 40-3-4.21-3.26 4.58-3.21-4.6-3.3 4.58-3.25-4.58-3.26 4.58-3.25-4.58-3.25 4.58-3.26-4.58-3.15 4.44 1.13-2.73 2-2.83 3.26 4.58 3.25-4.58 3.25 4.58 3.26-4.58 3.25 4.58L40 34.64l3.25 4.58 3.26-4.58 1.63 2.29c.4.74.77 1.49 1.09 2.25a7.41 7.41 0 0 1 .24.82z" fill="#ffb21a"/><path d="M49.47 40s0-.1-.05-.15-.13-.38-.21-.57q-.22-.52-.48-1a2.4 2.4 0 0 0-.11-.23c-.13-.27-.27-.53-.41-.8l-.12-.21-1.6-2.25-2.33 3.28c.11.22.21.45.32.68l2-2.83 3 4.21z" fill="#ff990b"/><path fill="#5b595b" d="M28.2 120.27h10.42v4.79H28.2z"/><path fill="#484349" d="M36.38 120.28h2.24v4.79h-2.24z"/><ellipse cx="33.41" cy="88.65" rx="2.8" ry="2.28" fill="#ffb21a"/><path d="M33.41 86.37a3.6 3.6 0 0 0-.66.06 2.22 2.22 0 0 1 0 4.44 3.6 3.6 0 0 0 .66.06 2.33 2.33 0 1 0 0-4.56z" fill="#ff990b"/><ellipse cx="33.41" cy="97.84" rx="11.01" ry="8.96" fill="#a3af31"/><path d="M23.48 97.84c0-4.8 4.64-8.72 10.47-9h-.54c-6.08 0-11 4-11 9s4.93 9 11 9H34c-5.88-.28-10.52-4.2-10.52-9z" fill="#b5bc35"/><path d="M33.41 88.88A12.87 12.87 0 0 0 32 89c5.42.56 9.61 4.33 9.61 8.89s-4.19 8.33-9.61 8.89c.46 0 .92.07 1.4.07 6.08 0 11-4 11-9s-4.91-8.97-10.99-8.97z" fill="#969b2c"/><path d="M26.62 125.06h13.57a4.22 4.22 0 0 1 4.22 4.22h-22a4.22 4.22 0 0 1 4.21-4.22z" fill="#ffb21a"/><path d="M26 125.06h-1a2.55 2.55 0 0 0-2.55 2.55v1.67h1.08v-1.67a2.55 2.55 0 0 1 2.47-2.55z" fill="#fdd224"/><path d="M41.86 125.06h-5.21a2.55 2.55 0 0 1 2.55 2.55v1.67h5.22v-1.67a2.56 2.56 0 0 0-2.56-2.55z" fill="#ff990b"/><path d="M33.41 121.36c-10.81 0-18.08-7.79-16.14-14.89a7.76 7.76 0 0 1 .34-1c.24-.58.51-1.14.79-1.7a32.09 32.09 0 0 1 3-4.75 46.15 46.15 0 0 1 3.73-4.34h16.18A43.6 43.6 0 0 1 45.25 99a30.42 30.42 0 0 1 2.85 4.2 23.31 23.31 0 0 1 1.09 2.25 8.11 8.11 0 0 1 .28.78c2.2 7.15-5.12 15.13-16.06 15.13z" fill="#bc1b21"/><path d="M18.28 105.43A30 30 0 0 1 22.09 99a47.68 47.68 0 0 1 3.73-4.34h-.65A46.15 46.15 0 0 0 21.44 99a30 30 0 0 0-3.82 6.46c-3 7.36 4.45 15.93 15.79 15.93h.33c-11.16-.2-18.43-8.67-15.46-15.96z" fill="#c62430"/><path d="M38.62 120.72v.81a20.65 20.65 0 0 1-5.21.65 21.12 21.12 0 0 1-5.21-.64v-.82a21.53 21.53 0 0 0 10.42 0z" fill="#39373a"/><path d="M49.19 105.43A27.22 27.22 0 0 0 45.25 99a43.6 43.6 0 0 0-3.94-4.34h-4.47A44.86 44.86 0 0 1 40.78 99a27.55 27.55 0 0 1 3.94 6.46c2.8 6.86-3.49 14.78-13.55 15.81a20.46 20.46 0 0 0 2.24.12c11.34-.03 18.79-8.6 15.78-15.96z" fill="#96151f"/><path d="M46.72 96.8a2.46 2.46 0 0 1-2.67 2.2H22.76a2.45 2.45 0 0 1-2.66-2.2 2.45 2.45 0 0 1 2.66-2.17h21.29a2.46 2.46 0 0 1 2.67 2.17z" fill="#ffb21a"/><path d="M22.9 96.8a2.46 2.46 0 0 1 2.67-2.17h-2.81a2.22 2.22 0 1 0 0 4.34h2.81a2.46 2.46 0 0 1-2.67-2.17z" fill="#fdd224"/><path d="M44.05 94.63h-5.21a2.22 2.22 0 1 1 0 4.34h5.21a2.22 2.22 0 1 0 0-4.34z" fill="#ff990b"/><path fill="#ffb21a" d="m33.41 113.02-3.64-2.96 3.64-2.97 3.64 2.97-3.64 2.96z"/><path fill="#96151f" d="m34.06 113.02-3.64-2.96 3.64-2.97 3.65 2.97-3.65 2.96z"/><path fill="#ffb21a" d="m33.41 113.02-3.64-2.96 3.64-2.97 3.64 2.97-3.64 2.96z"/><path fill="#ff990b" d="m33.41 107.09-.33.27 3.32 2.7-3.32 2.7.33.26 3.64-2.96-3.64-2.97z"/><path d="m49.47 106.21-3-4.21-3.26 4.59L40 102l-3.3 4.6-3.25-4.6-3.26 4.59-3.25-4.59-3.25 4.59-3.26-4.59-3.15 4.45 1.13-2.73 2-2.84 3.26 4.58 3.25-4.58 3.25 4.58 3.26-4.58 3.25 4.58 3.32-4.58 3.25 4.58 3.26-4.58 1.63 2.29a23.31 23.31 0 0 1 1.09 2.25 8.11 8.11 0 0 1 .24.79z" fill="#ffb21a"/><path d="M49.47 106.21c0-.05 0-.1-.05-.15s-.13-.38-.21-.57c-.15-.36-.31-.71-.48-1.06a2.26 2.26 0 0 0-.11-.22c-.13-.27-.27-.54-.41-.8l-.12-.22-1.6-2.25-2.33 3.28c.11.23.21.46.32.68l2-2.83 3 4.21z" fill="#ff990b"/><path fill="#5b595b" d="M64.2 87.15h10.42v4.79H64.2z"/><path fill="#484349" d="M72.39 87.15h2.24v4.79h-2.24z"/><ellipse cx="69.41" cy="55.53" rx="2.8" ry="2.28" fill="#ffb21a"/><path d="M69.41 53.25a3.49 3.49 0 0 0-.65.06 2.22 2.22 0 0 1 0 4.43 3.5 3.5 0 0 0 .65.07 2.59 2.59 0 0 0 2.81-2.28 2.59 2.59 0 0 0-2.81-2.28z" fill="#ff990b"/><ellipse cx="69.41" cy="64.72" rx="11.01" ry="8.96" fill="#a3af31"/><path d="M59.48 64.72c0-4.81 4.64-8.73 10.47-8.95h-.54c-6.08 0-11 4-11 9s4.93 9 11 9H70c-5.88-.33-10.52-4.25-10.52-9.05z" fill="#b5bc35"/><path d="M69.41 55.75a13 13 0 0 0-1.4.08c5.42.56 9.61 4.32 9.61 8.89S73.43 73 68 73.6a13 13 0 0 0 1.4.08c6.08 0 11-4 11-9s-4.91-8.93-10.99-8.93z" fill="#969b2c"/><path d="M62.63 91.94H76.2a4.22 4.22 0 0 1 4.22 4.22h-22a4.22 4.22 0 0 1 4.21-4.22z" fill="#ffb21a"/><path d="M62 91.94h-1a2.55 2.55 0 0 0-2.55 2.55v1.67h1.07v-1.67A2.55 2.55 0 0 1 62 91.94z" fill="#fdd224"/><path d="M77.87 91.94h-5.21a2.55 2.55 0 0 1 2.55 2.55v1.67h5.21v-1.67a2.55 2.55 0 0 0-2.55-2.55z" fill="#ff990b"/><path d="M69.41 88.24c-10.81 0-18.08-7.79-16.13-14.9a7.81 7.81 0 0 1 .35-1 17.48 17.48 0 0 1 .79-1.7 33.48 33.48 0 0 1 3-4.75 47.51 47.51 0 0 1 3.73-4.33h16.17a44.72 44.72 0 0 1 3.94 4.33 31.06 31.06 0 0 1 2.84 4.21 22.32 22.32 0 0 1 1.09 2.26 7.25 7.25 0 0 1 .28.78c2.2 7.12-5.11 15.1-16.06 15.1z" fill="#bc1b21"/><path d="M54.28 72.31a30.34 30.34 0 0 1 3.82-6.47 44.58 44.58 0 0 1 3.73-4.33h-.66a46 46 0 0 0-3.73 4.33 30.3 30.3 0 0 0-3.81 6.47c-3 7.36 4.44 15.93 15.78 15.93h.33c-11.15-.17-18.43-8.64-15.46-15.93z" fill="#c62430"/><path d="M74.63 87.6v.81a21.25 21.25 0 0 1-10.43 0v-.82a20.71 20.71 0 0 0 5.21.65 21.26 21.26 0 0 0 5.22-.64z" fill="#39373a"/><path d="M85.2 72.31a27.82 27.82 0 0 0-3.94-6.47 44.72 44.72 0 0 0-3.94-4.33h-4.48a43.46 43.46 0 0 1 3.94 4.33 27.48 27.48 0 0 1 3.94 6.47c2.81 6.86-3.48 14.77-13.55 15.81a20.6 20.6 0 0 0 2.24.12c11.35 0 18.79-8.57 15.79-15.93z" fill="#96151f"/><path d="M82.72 63.68a2.45 2.45 0 0 1-2.66 2.16h-21.3a2.45 2.45 0 0 1-2.66-2.16 2.45 2.45 0 0 1 2.66-2.17h21.3a2.45 2.45 0 0 1 2.66 2.17z" fill="#ffb21a"/><path d="M58.91 63.68a2.45 2.45 0 0 1 2.66-2.17h-2.81a2.21 2.21 0 1 0 0 4.33h2.81a2.45 2.45 0 0 1-2.66-2.16z" fill="#fdd224"/><path d="M80.06 61.51h-5.21a2.21 2.21 0 1 1 0 4.33h5.21a2.21 2.21 0 1 0 0-4.33z" fill="#ff990b"/><path fill="#ffb21a" d="m69.41 79.9-3.64-2.96 3.64-2.97 3.65 2.97-3.65 2.96z"/><path fill="#96151f" d="m70.07 79.9-3.65-2.96 3.65-2.97 3.64 2.97-3.64 2.96z"/><path fill="#ffb21a" d="m69.41 79.9-3.64-2.96 3.64-2.97 3.65 2.97-3.65 2.96z"/><path fill="#ff990b" d="m69.41 73.97-.32.27 3.31 2.7-3.31 2.69.32.27 3.65-2.96-3.65-2.97z"/><path d="m85.47 73.09-3-4.21-3.25 4.58L76 68.89l-3.25 4.58-3.26-4.58-3.29 4.58-3.2-4.58-3.26 4.58-3.25-4.58-3.16 4.45 1.14-2.73 2-2.83 3.25 4.58 3.28-4.6 3.25 4.58 3.25-4.58 3.26 4.58L76 67.76l3.26 4.58 3.25-4.58 1.63 2.29a22.32 22.32 0 0 1 1.09 2.26 7.25 7.25 0 0 1 .24.78z" fill="#ffb21a"/><path d="M85.47 73.09a.75.75 0 0 0 0-.16c-.06-.19-.13-.38-.2-.57-.14-.36-.31-.71-.47-1.06a2.4 2.4 0 0 1-.11-.23l-.42-.79-.2-.28-1.6-2.25L80.14 71c.11.23.22.45.32.68l2-2.83 3 4.21z" fill="#ff990b"/><path fill="#5b595b" d="M64.2 153.4h10.42v4.79H64.2z"/><path fill="#484349" d="M72.39 153.4h2.24v4.79h-2.24z"/><ellipse cx="69.41" cy="121.77" rx="2.8" ry="2.28" fill="#ffb21a"/><path d="M69.41 119.49a3.5 3.5 0 0 0-.65.07 2.22 2.22 0 0 1 0 4.43 3.49 3.49 0 0 0 .65.06 2.33 2.33 0 1 0 0-4.56z" fill="#ff990b"/><ellipse cx="69.41" cy="130.96" rx="11.01" ry="8.96" fill="#a3af31"/><path d="M59.48 131c0-4.8 4.64-8.72 10.47-9h-.54c-6.08 0-11 4-11 9s4.93 9 11 9H70c-5.88-.32-10.52-4.24-10.52-9z" fill="#b5bc35"/><path d="M69.41 122c-.47 0-.94 0-1.4.07 5.42.56 9.61 4.33 9.61 8.89s-4.19 8.33-9.61 8.89a13 13 0 0 0 1.4.07c6.08 0 11-4 11-9s-4.92-8.92-11-8.92z" fill="#969b2c"/><path d="M62.63 158.18H76.2a4.22 4.22 0 0 1 4.22 4.22h-22a4.22 4.22 0 0 1 4.21-4.22z" fill="#ffb21a"/><path d="M62 158.18h-1a2.55 2.55 0 0 0-2.55 2.55v1.67h1.07v-1.67a2.55 2.55 0 0 1 2.48-2.55z" fill="#fdd224"/><path d="M77.87 158.18h-5.21a2.56 2.56 0 0 1 2.55 2.55v1.67h5.21v-1.67a2.55 2.55 0 0 0-2.55-2.55z" fill="#ff990b"/><path d="M69.41 154.48c-10.81 0-18.08-7.79-16.13-14.89a8.34 8.34 0 0 1 .35-1c.23-.57.5-1.14.79-1.7a32.92 32.92 0 0 1 3-4.75 49.07 49.07 0 0 1 3.73-4.34h16.17a46.07 46.07 0 0 1 3.94 4.34 29.86 29.86 0 0 1 2.84 4.21 23.24 23.24 0 0 1 1.09 2.25 8.11 8.11 0 0 1 .28.78c2.2 7.12-5.11 15.1-16.06 15.1z" fill="#bc1b21"/><path d="M54.28 138.55a30.27 30.27 0 0 1 3.82-6.46 46 46 0 0 1 3.73-4.34h-.66a47.46 47.46 0 0 0-3.73 4.34 30.23 30.23 0 0 0-3.81 6.46c-3 7.36 4.44 15.93 15.78 15.93h.33c-11.15-.17-18.43-8.64-15.46-15.93z" fill="#c62430"/><path d="M74.63 153.84v.82a21.57 21.57 0 0 1-10.43 0v-.82a21.57 21.57 0 0 0 10.43 0z" fill="#39373a"/><path d="M85.2 138.55a27.76 27.76 0 0 0-3.94-6.46 46.07 46.07 0 0 0-3.94-4.34h-4.48a44.74 44.74 0 0 1 3.94 4.34 27.42 27.42 0 0 1 3.94 6.46c2.81 6.87-3.48 14.78-13.55 15.82.73.07 1.48.11 2.24.11 11.35 0 18.79-8.57 15.79-15.93z" fill="#96151f"/><path d="M82.72 129.92a2.45 2.45 0 0 1-2.66 2.17h-21.3a2.45 2.45 0 0 1-2.66-2.17 2.45 2.45 0 0 1 2.66-2.17h21.3a2.45 2.45 0 0 1 2.66 2.17z" fill="#ffb21a"/><path d="M58.91 129.92a2.45 2.45 0 0 1 2.66-2.17h-2.81a2.22 2.22 0 1 0 0 4.34h2.81a2.45 2.45 0 0 1-2.66-2.17z" fill="#fdd224"/><path d="M80.06 127.75h-5.21a2.22 2.22 0 1 1 0 4.34h5.21a2.22 2.22 0 1 0 0-4.34z" fill="#ff990b"/><path fill="#ffb21a" d="m69.41 146.15-3.64-2.97 3.64-2.96 3.65 2.96-3.65 2.97z"/><path fill="#96151f" d="m70.07 146.15-3.65-2.97 3.65-2.96 3.64 2.96-3.64 2.97z"/><path fill="#ffb21a" d="m69.41 146.15-3.64-2.97 3.64-2.96 3.65 2.96-3.65 2.97z"/><path fill="#ff990b" d="m69.41 140.22-.32.26 3.31 2.7-3.31 2.7.32.27 3.65-2.97-3.65-2.96z"/><path d="m85.47 139.33-3-4.2-3.25 4.58-3.22-4.57-3.25 4.58-3.26-4.58-3.25 4.58-3.24-4.58-3.26 4.58-3.25-4.58-3.16 4.44 1.14-2.73 2-2.84 3.25 4.59L63 134l3.25 4.59 3.2-4.59 3.26 4.59L76 134l3.26 4.59 3.21-4.59 1.63 2.3a23.24 23.24 0 0 1 1.09 2.25 8.11 8.11 0 0 1 .28.78z" fill="#ffb21a"/><path d="M85.47 139.34a.88.88 0 0 0 0-.15c-.06-.19-.13-.38-.2-.57-.14-.35-.31-.71-.47-1.05a2.4 2.4 0 0 1-.11-.23l-.42-.8-.12-.21-1.68-2.33-2.33 3.29c.11.22.22.45.32.68l2-2.83 3 4.2z" fill="#ff990b"/><path fill="#5b595b" d="M100.2 54.03h10.42v4.79H100.2z"/><path fill="#484349" d="M108.39 54.03h2.24v4.79h-2.24z"/><ellipse cx="105.42" cy="22.4" rx="2.8" ry="2.28" fill="#ffb21a"/><path d="M105.42 20.12a3.51 3.51 0 0 0-.66.07 2.44 2.44 0 0 1 2.15 2.21 2.44 2.44 0 0 1-2.15 2.22 3.51 3.51 0 0 0 .66.07 2.59 2.59 0 0 0 2.8-2.29 2.58 2.58 0 0 0-2.8-2.28z" fill="#ff990b"/><ellipse cx="105.42" cy="31.59" rx="11.01" ry="8.96" fill="#a3af31"/><path d="M95.48 31.59c0-4.8 4.64-8.72 10.47-8.95h-.53c-6.08 0-11 4-11 9s4.93 9 11 9h.58c-5.88-.32-10.52-4.24-10.52-9.05z" fill="#b5bc35"/><path d="M105.42 22.63a12.7 12.7 0 0 0-1.4.08c5.41.56 9.6 4.32 9.6 8.88s-4.19 8.33-9.6 8.89a12.74 12.74 0 0 0 1.4.07c6.08 0 11-4 11-9s-4.92-8.92-11-8.92z" fill="#969b2c"/><path d="M98.63 58.81h13.57a4.22 4.22 0 0 1 4.22 4.19h-22a4.22 4.22 0 0 1 4.21-4.19z" fill="#ffb21a"/><path d="M98 58.81h-1a2.56 2.56 0 0 0-2.55 2.56V63h1.07v-1.63A2.56 2.56 0 0 1 98 58.81z" fill="#fdd224"/><path d="M113.87 58.81h-5.21a2.56 2.56 0 0 1 2.55 2.56V63h5.21v-1.63a2.56 2.56 0 0 0-2.55-2.56z" fill="#ff990b"/><path d="M105.41 55.11c-10.8 0-18.08-7.78-16.13-14.89a8.34 8.34 0 0 1 .35-1c.24-.57.51-1.14.79-1.7a32.55 32.55 0 0 1 3-4.75 46.06 46.06 0 0 1 3.74-4.33h16.14a44.72 44.72 0 0 1 3.94 4.33 29.58 29.58 0 0 1 2.84 4.21 23.34 23.34 0 0 1 1.1 2.25c.1.26.2.52.28.79 2.22 7.12-5.1 15.09-16.05 15.09z" fill="#bc1b21"/><path d="M90.29 39.18a30.06 30.06 0 0 1 3.81-6.46 46 46 0 0 1 3.73-4.33h-.65a46.06 46.06 0 0 0-3.74 4.33 30.91 30.91 0 0 0-3.81 6.46c-3 7.36 4.45 15.93 15.78 15.93h.33c-11.15-.17-18.43-8.64-15.45-15.93z" fill="#c62430"/><path d="M110.63 54.47v.82a21.57 21.57 0 0 1-10.43 0v-.82a21.57 21.57 0 0 0 10.43 0z" fill="#39373a"/><path d="M121.2 39.18a28 28 0 0 0-3.94-6.46 44.72 44.72 0 0 0-3.94-4.33h-4.47a43.39 43.39 0 0 1 3.93 4.33 27.29 27.29 0 0 1 3.94 6.46c2.81 6.87-3.48 14.82-13.54 15.82.73.07 1.47.11 2.23.11 11.35 0 18.8-8.57 15.79-15.93z" fill="#96151f"/><path d="M118.72 30.55a2.45 2.45 0 0 1-2.66 2.17H94.77a2.45 2.45 0 0 1-2.66-2.17 2.45 2.45 0 0 1 2.66-2.16h21.29a2.45 2.45 0 0 1 2.66 2.16z" fill="#ffb21a"/><path d="M94.91 30.55a2.45 2.45 0 0 1 2.66-2.16h-2.8a2.45 2.45 0 0 0-2.66 2.16 2.45 2.45 0 0 0 2.66 2.17h2.8a2.45 2.45 0 0 1-2.66-2.17z" fill="#fdd224"/><path d="M116.06 28.39h-5.21a2.45 2.45 0 0 1 2.66 2.16 2.45 2.45 0 0 1-2.66 2.17h5.21a2.45 2.45 0 0 0 2.66-2.17 2.45 2.45 0 0 0-2.66-2.16z" fill="#ff990b"/><path fill="#ffb21a" d="m105.42 46.78-3.65-2.97 3.65-2.96 3.64 2.96-3.64 2.97z"/><path fill="#96151f" d="m106.07 46.78-3.64-2.97 3.64-2.96 3.64 2.96-3.64 2.97z"/><path fill="#ffb21a" d="m105.42 46.78-3.65-2.97 3.65-2.96 3.64 2.96-3.64 2.97z"/><path fill="#ff990b" d="m105.42 40.85-.33.26 3.31 2.7-3.31 2.7.33.27 3.64-2.97-3.64-2.96z"/><path d="m121.48 40-3-4.21-3.25 4.58-3.23-4.6-3.26 4.58-3.25-4.58-3.26 4.58L99 35.77l-3.3 4.58-3.26-4.58-3.16 4.44 1.14-2.73 2-2.83 3.26 4.58L99 34.64l3.25 4.58 3.26-4.58 3.25 4.58 3.24-4.58 3.25 4.58 3.25-4.58 1.63 2.29a23.34 23.34 0 0 1 1.1 2.25c.07.26.17.52.25.82z" fill="#ffb21a"/><path d="M121.48 40a.88.88 0 0 1 0-.15c-.07-.19-.13-.38-.21-.57q-.23-.52-.48-1l-.11-.23c-.13-.27-.27-.53-.42-.8a2.12 2.12 0 0 0-.11-.21l-1.61-2.25-2.33 3.28c.11.22.22.45.32.68l2-2.83 3 4.21z" fill="#ff990b"/><path fill="#5b595b" d="M100.2 186.52h10.42v4.79H100.2z"/><path fill="#484349" d="M108.39 186.52h2.24v4.79h-2.24z"/><ellipse cx="105.42" cy="154.9" rx="2.8" ry="2.28" fill="#ffb21a"/><path d="M105.42 152.61a3.51 3.51 0 0 0-.66.07 2.22 2.22 0 0 1 0 4.43 3.51 3.51 0 0 0 .66.07 2.33 2.33 0 1 0 0-4.57z" fill="#ff990b"/><ellipse cx="105.42" cy="164.08" rx="11.01" ry="8.96" fill="#a3af31"/><path d="M95.48 164.08c0-4.8 4.64-8.72 10.47-9h-.53c-6.08 0-11 4-11 9s4.93 9 11 9h.53c-5.83-.27-10.47-4.19-10.47-9z" fill="#b5bc35"/><path d="M105.42 155.12a12.7 12.7 0 0 0-1.4.08c5.41.56 9.6 4.32 9.6 8.88s-4.19 8.33-9.6 8.89a12.7 12.7 0 0 0 1.4.08c6.08 0 11-4 11-9s-4.92-8.93-11-8.93z" fill="#969b2c"/><path d="M98.63 191.31h13.57a4.22 4.22 0 0 1 4.22 4.22h-22a4.22 4.22 0 0 1 4.21-4.22z" fill="#ffb21a"/><path d="M98 191.31h-1a2.55 2.55 0 0 0-2.55 2.55v1.67h1.07v-1.67a2.56 2.56 0 0 1 2.48-2.55z" fill="#fdd224"/><path d="M113.87 191.31h-5.21a2.55 2.55 0 0 1 2.55 2.55v1.67h5.21v-1.67a2.55 2.55 0 0 0-2.55-2.55z" fill="#ff990b"/><path d="M105.41 187.61c-10.8 0-18.08-7.79-16.13-14.9a7.94 7.94 0 0 1 .35-1c.24-.57.51-1.14.79-1.69a32.55 32.55 0 0 1 3-4.75 46.06 46.06 0 0 1 3.74-4.33h16.14a44.72 44.72 0 0 1 3.94 4.33 30.16 30.16 0 0 1 2.84 4.21 23.34 23.34 0 0 1 1.1 2.25c.1.26.2.52.28.79 2.22 7.11-5.1 15.09-16.05 15.09z" fill="#bc1b21"/><path d="M90.29 171.67a30.06 30.06 0 0 1 3.81-6.46 46 46 0 0 1 3.73-4.33h-.65a46.06 46.06 0 0 0-3.74 4.33 30.91 30.91 0 0 0-3.81 6.46c-3 7.37 4.45 15.94 15.78 15.94h.33c-11.15-.18-18.43-8.61-15.45-15.94z" fill="#c62430"/><path d="M110.63 187v.82a21.57 21.57 0 0 1-10.43 0V187a21.25 21.25 0 0 0 10.43 0z" fill="#39373a"/><path d="M121.2 171.67a28 28 0 0 0-3.94-6.46 44.72 44.72 0 0 0-3.94-4.33h-4.47a43.39 43.39 0 0 1 3.93 4.33 27.29 27.29 0 0 1 3.94 6.46c2.81 6.87-3.48 14.78-13.54 15.82.73.07 1.47.12 2.23.12 11.35 0 18.8-8.61 15.79-15.94z" fill="#96151f"/><path d="M118.72 163a2.45 2.45 0 0 1-2.66 2.17H94.77a2.45 2.45 0 0 1-2.66-2.17 2.45 2.45 0 0 1 2.66-2.16h21.29a2.45 2.45 0 0 1 2.66 2.16z" fill="#ffb21a"/><path d="M94.91 163a2.45 2.45 0 0 1 2.66-2.16h-2.8a2.21 2.21 0 1 0 0 4.33h2.8a2.45 2.45 0 0 1-2.66-2.17z" fill="#fdd224"/><path d="M116.06 160.88h-5.21a2.21 2.21 0 1 1 0 4.33h5.21a2.21 2.21 0 1 0 0-4.33z" fill="#ff990b"/><path fill="#ffb21a" d="m105.42 179.27-3.65-2.97 3.65-2.96 3.64 2.96-3.64 2.97z"/><path fill="#96151f" d="m106.07 179.27-3.64-2.97 3.64-2.96 3.64 2.96-3.64 2.97z"/><path fill="#ffb21a" d="m105.42 179.27-3.65-2.97 3.65-2.96 3.64 2.96-3.64 2.97z"/><path fill="#ff990b" d="m105.42 173.34-.33.26 3.31 2.7-3.31 2.7.33.27 3.64-2.97-3.64-2.96z"/><path d="m121.48 172.46-3-4.21-3.25 4.58-3.23-4.57-3.26 4.58-3.25-4.58-3.26 4.58-3.23-4.58-3.25 4.58-3.26-4.58-3.16 4.45 1.09-2.71 2-2.83 3.26 4.58 3.32-4.62 3.25 4.58 3.26-4.58 3.25 4.58 3.26-4.58 3.25 4.58 3.25-4.58 1.63 2.29a23.34 23.34 0 0 1 1.1 2.25c.05.26.15.52.23.79z" fill="#ffb21a"/><path d="M121.48 172.46a.88.88 0 0 1 0-.15c-.07-.19-.13-.38-.21-.57q-.23-.53-.48-1l-.11-.23c-.13-.27-.27-.53-.42-.8a2.12 2.12 0 0 0-.11-.21l-1.61-2.25-2.33 3.28c.11.23.22.45.32.68l2-2.83 3 4.21z" fill="#ff990b"/><path fill="#5b595b" d="M100.2 120.27h10.42v4.79H100.2z"/><path fill="#484349" d="M108.39 120.28h2.24v4.79h-2.24z"/><ellipse cx="105.42" cy="88.65" rx="2.8" ry="2.28" fill="#ffb21a"/><path d="M105.42 86.37a3.52 3.52 0 0 0-.66.06 2.22 2.22 0 0 1 0 4.44 3.52 3.52 0 0 0 .66.06 2.33 2.33 0 1 0 0-4.56z" fill="#ff990b"/><ellipse cx="105.42" cy="97.84" rx="11.01" ry="8.96" fill="#a3af31"/><path d="M95.48 97.84c0-4.8 4.64-8.72 10.47-9h-.53c-6.08 0-11 4-11 9s4.93 9 11 9h.58c-5.88-.28-10.52-4.2-10.52-9z" fill="#b5bc35"/><path d="M105.42 88.88A12.74 12.74 0 0 0 104 89c5.41.56 9.6 4.33 9.6 8.89s-4.19 8.33-9.6 8.89c.45 0 .92.07 1.4.07 6.08 0 11-4 11-9s-4.9-8.97-10.98-8.97z" fill="#969b2c"/><path d="M98.63 125.06h13.57a4.22 4.22 0 0 1 4.22 4.22h-22a4.22 4.22 0 0 1 4.22-4.22z" fill="#ffb21a"/><path d="M98 125.06h-1a2.55 2.55 0 0 0-2.55 2.55v1.67h1.07v-1.67a2.56 2.56 0 0 1 2.48-2.55z" fill="#fdd224"/><path d="M113.87 125.06h-5.21a2.55 2.55 0 0 1 2.55 2.55v1.67h5.21v-1.67a2.55 2.55 0 0 0-2.55-2.55z" fill="#ff990b"/><path d="M105.41 121.36c-10.8 0-18.08-7.79-16.13-14.89a7.81 7.81 0 0 1 .35-1c.24-.58.51-1.14.79-1.7a32 32 0 0 1 3-4.75 46.22 46.22 0 0 1 3.74-4.34h16.14a44.86 44.86 0 0 1 3.96 4.32 29.49 29.49 0 0 1 2.84 4.2 21.26 21.26 0 0 1 1.1 2.25c.1.26.2.52.28.78 2.2 7.15-5.12 15.13-16.07 15.13z" fill="#bc1b21"/><path d="M90.29 105.43A29.59 29.59 0 0 1 94.1 99a46.15 46.15 0 0 1 3.73-4.34h-.65A46.22 46.22 0 0 0 93.44 99a30.4 30.4 0 0 0-3.81 6.46c-3 7.36 4.45 15.93 15.78 15.93h.33c-11.15-.2-18.43-8.67-15.45-15.96z" fill="#c62430"/><path d="M110.63 120.72v.81a20.67 20.67 0 0 1-5.22.65 21.18 21.18 0 0 1-5.21-.64v-.82a21.57 21.57 0 0 0 10.43 0z" fill="#39373a"/><path d="M121.2 105.43a27.55 27.55 0 0 0-3.94-6.43 44.86 44.86 0 0 0-3.94-4.34h-4.47a43.52 43.52 0 0 1 3.93 4.34 26.9 26.9 0 0 1 3.94 6.46c2.81 6.86-3.48 14.78-13.54 15.81a20.41 20.41 0 0 0 2.23.12c11.35-.03 18.8-8.6 15.79-15.96z" fill="#96151f"/><path d="M118.72 96.8a2.45 2.45 0 0 1-2.66 2.2H94.77a2.45 2.45 0 0 1-2.66-2.17 2.45 2.45 0 0 1 2.66-2.17h21.29a2.45 2.45 0 0 1 2.66 2.14z" fill="#ffb21a"/><path d="M94.91 96.8a2.45 2.45 0 0 1 2.66-2.17h-2.8a2.22 2.22 0 1 0 0 4.34h2.8a2.45 2.45 0 0 1-2.66-2.17z" fill="#fdd224"/><path d="M116.06 94.63h-5.21a2.22 2.22 0 1 1 0 4.34h5.21a2.22 2.22 0 1 0 0-4.34z" fill="#ff990b"/><path fill="#ffb21a" d="m105.42 113.02-3.65-2.96 3.65-2.97 3.64 2.97-3.64 2.96z"/><path fill="#96151f" d="m106.07 113.02-3.64-2.96 3.64-2.97 3.64 2.97-3.64 2.96z"/><path fill="#ffb21a" d="m105.42 113.02-3.65-2.96 3.65-2.97 3.64 2.97-3.64 2.96z"/><path fill="#ff990b" d="m105.42 107.09-.33.27 3.31 2.7-3.31 2.7.33.26 3.64-2.96-3.64-2.97z"/><path d="m121.48 106.21-3-4.21-3.25 4.59L112 102l-3.26 4.59-3.28-4.59-3.26 4.59L99 102l-3.3 4.6-3.26-4.6-3.16 4.45 1.14-2.73 2-2.84 3.26 4.58 3.32-4.58 3.25 4.58 3.26-4.58 3.25 4.58 3.26-4.58 3.25 4.58 3.25-4.58 1.63 2.29a21.26 21.26 0 0 1 1.1 2.25c.05.27.15.58.23.79z" fill="#ffb21a"/><path d="M121.48 106.21a.88.88 0 0 1 0-.15c-.07-.19-.13-.38-.21-.57-.15-.36-.31-.71-.48-1.06 0-.07-.07-.15-.11-.22-.13-.27-.27-.54-.42-.8l-.11-.22-1.61-2.25-2.33 3.28.32.68 2-2.83 3 4.21z" fill="#ff990b"/><path d="M16.39 16.06a6.64 6.64 0 0 1 1.79 1.77 3.53 3.53 0 0 1 .5 1.87 3.3 3.3 0 0 1-1.11 2.51 4.34 4.34 0 0 1-3 1 4.06 4.06 0 0 1-2.82-.89 2.85 2.85 0 0 1-1-2.19 2.74 2.74 0 0 1 .57-1.72 5 5 0 0 1 1.91-1.36 7.56 7.56 0 0 1-1.86-1.81 3.25 3.25 0 0 1-.41-1.64 2.83 2.83 0 0 1 1-2.16 4.11 4.11 0 0 1 2.86-.94 4 4 0 0 1 2.7.83 2.54 2.54 0 0 1 .94 2 2.43 2.43 0 0 1-.46 1.53 4.35 4.35 0 0 1-1.61 1.2zm-2.5 1.45a1.7 1.7 0 0 0-.39.46 3.63 3.63 0 0 0-.33.92 5.18 5.18 0 0 0-.17 1.26 4.23 4.23 0 0 0 .21 1.43 1.62 1.62 0 0 0 .62.82 1.53 1.53 0 0 0 .83.26 1.47 1.47 0 0 0 1.11-.49 1.85 1.85 0 0 0 .45-1.32c.03-1.17-.76-2.28-2.33-3.34zm1.81-1.91a3.29 3.29 0 0 0 .5-1 4.81 4.81 0 0 0 .16-1.23 2.8 2.8 0 0 0-.51-1.8 1.25 1.25 0 0 0-1-.48 1.38 1.38 0 0 0-1 .44 1.49 1.49 0 0 0-.43 1.09 2.45 2.45 0 0 0 .41 1.38 6.66 6.66 0 0 0 1.87 1.6zm111.35 181.46a6.86 6.86 0 0 1 1.8 1.77 3.53 3.53 0 0 1 .5 1.87 3.27 3.27 0 0 1-1.12 2.51 4.31 4.31 0 0 1-3 1 4 4 0 0 1-2.81-.89 2.85 2.85 0 0 1-1-2.19 2.74 2.74 0 0 1 .57-1.72 5 5 0 0 1 1.91-1.36 7.38 7.38 0 0 1-1.86-1.81 3.15 3.15 0 0 1-.41-1.64 2.8 2.8 0 0 1 1-2.16 4.09 4.09 0 0 1 2.86-.94 4 4 0 0 1 2.7.83 2.57 2.57 0 0 1 .94 2 2.43 2.43 0 0 1-.51 1.53 4.31 4.31 0 0 1-1.57 1.2zm-2.49 1.45a1.77 1.77 0 0 0-.4.46 3.32 3.32 0 0 0-.32.92 5.18 5.18 0 0 0-.15 1.26 4 4 0 0 0 .22 1.43 1.57 1.57 0 0 0 .62.82 1.52 1.52 0 0 0 .82.26 1.49 1.49 0 0 0 1.12-.49 1.85 1.85 0 0 0 .45-1.32c0-1.17-.79-2.28-2.36-3.34zm1.81-1.91a3.27 3.27 0 0 0 .49-1 4.4 4.4 0 0 0 .17-1.23 2.8 2.8 0 0 0-.51-1.8 1.26 1.26 0 0 0-1-.48 1.41 1.41 0 0 0-1 .44 1.52 1.52 0 0 0-.42 1.09 2.51 2.51 0 0 0 .47 1.37 6.74 6.74 0 0 0 1.8 1.61z" fill="#7f664a"/></svg>