<svg xmlns="http://www.w3.org/2000/svg" viewBox="0 0 138.83 215.65"><path fill="#fff" d="M0 0h138.82v215.65H0z"/><path fill="none" stroke="#7f664a" stroke-miterlimit="10" stroke-width=".5" d="M63.24 208.74H6.94V8.91h54.37m16.21 0h54.36v199.83h-56.3"/><path d="M12.66 17.28V17a6 6 0 0 0 1.42-.55 2.16 2.16 0 0 0 .69-.79 2.24 2.24 0 0 0 .29-1.07 1.73 1.73 0 0 0-.55-1.29 1.85 1.85 0 0 0-1.36-.54 2.56 2.56 0 0 0-2.15 1.3l-.33-.12a5.42 5.42 0 0 1 1.66-2.26 3.7 3.7 0 0 1 2.27-.76 3 3 0 0 1 2.1.77 2.44 2.44 0 0 1 .44 3.13 3.44 3.44 0 0 1-1.21 1.1 4.35 4.35 0 0 1 1.62 1.27 3.11 3.11 0 0 1 .55 1.89 4.37 4.37 0 0 1-1.38 3.26A5.12 5.12 0 0 1 13 23.68a4 4 0 0 1-2.27-.51 1.09 1.09 0 0 1-.51-.93 1 1 0 0 1 .29-.71 1 1 0 0 1 .69-.3 1.32 1.32 0 0 1 .56.13 11.23 11.23 0 0 1 1 .79 2.65 2.65 0 0 0 1.65.72 1.5 1.5 0 0 0 1.14-.53 1.91 1.91 0 0 0 .51-1.34 3.46 3.46 0 0 0-.87-2.28 4.45 4.45 0 0 0-2.53-1.44zM123 197.94v-.31a6.06 6.06 0 0 0 1.43-.56 2.11 2.11 0 0 0 .68-.78 2.16 2.16 0 0 0 .29-1.07 1.76 1.76 0 0 0-.54-1.29 1.87 1.87 0 0 0-1.36-.54 2.55 2.55 0 0 0-2.15 1.34l-.34-.12a5.47 5.47 0 0 1 1.67-2.27 3.73 3.73 0 0 1 2.26-.76 2.93 2.93 0 0 1 2.1.78 2.39 2.39 0 0 1 .44 3.12 3.25 3.25 0 0 1-1.2 1.11 4.3 4.3 0 0 1 1.61 1.27 3.09 3.09 0 0 1 .56 1.89 4.39 4.39 0 0 1-1.39 3.26 5.13 5.13 0 0 1-3.72 1.34 3.9 3.9 0 0 1-2.27-.52 1.09 1.09 0 0 1-.51-.93 1 1 0 0 1 1-1 1.18 1.18 0 0 1 .56.13 11.23 11.23 0 0 1 1 .79 2.69 2.69 0 0 0 1.65.72 1.52 1.52 0 0 0 1.15-.53 1.91 1.91 0 0 0 .47-1.34 3.45 3.45 0 0 0-.86-2.28 4.58 4.58 0 0 0-2.53-1.45z" fill="#7f664a"/><path fill="#5b595b" d="M93.39 81.3h12.81v5.88H93.39z"/><path fill="#484349" d="M103.44 81.3h2.75v5.88h-2.75z"/><ellipse cx="99.79" cy="42.45" rx="3.44" ry="2.8" fill="#ffb21a"/><path d="M99.79 39.65a4.17 4.17 0 0 0-.8.08 3 3 0 0 1 2.64 2.72A3 3 0 0 1 99 45.17a3.5 3.5 0 0 0 .8.08c1.9 0 3.44-1.25 3.44-2.8s-1.55-2.8-3.45-2.8z" fill="#ff990b"/><ellipse cx="99.79" cy="53.74" rx="13.52" ry="11.01" fill="#a3af31"/><path d="M87.59 53.74c0-5.9 5.7-10.72 12.86-11h-.66c-7.47 0-13.52 4.93-13.52 11s6 11 13.52 11h.66c-7.16-.28-12.86-5.1-12.86-11z" fill="#b5bc35"/><path d="M99.79 42.73a16.23 16.23 0 0 0-1.72.09c6.65.69 11.8 5.31 11.8 10.92S104.72 64 98.07 64.66a16.23 16.23 0 0 0 1.72.09c7.47 0 13.52-4.93 13.52-11s-6.05-11.02-13.52-11.02z" fill="#969b2c"/><path d="M91.46 87.18h16.67a5.19 5.19 0 0 1 5.19 5.19h-27a5.19 5.19 0 0 1 5.14-5.19z" fill="#ffb21a"/><path d="M90.72 87.18H89.4a3.13 3.13 0 0 0-3.13 3.13v2.06h1.32v-2.06a3.13 3.13 0 0 1 3.13-3.13z" fill="#fdd224"/><path d="M110.18 87.18h-6.41a3.13 3.13 0 0 1 3.14 3.13v2.06h6.4v-2.06a3.13 3.13 0 0 0-3.13-3.13z" fill="#ff990b"/><path d="M99.79 82.64c-13.28 0-22.21-9.57-19.82-18.3a10 10 0 0 1 .43-1.27c.29-.7.62-1.4 1-2.08a40.26 40.26 0 0 1 3.7-5.84 58 58 0 0 1 4.59-5.32h19.81a54.23 54.23 0 0 1 4.84 5.32 37.19 37.19 0 0 1 3.49 5.17 29.32 29.32 0 0 1 1.35 2.76c.13.32.24.64.34 1 2.7 8.75-6.29 18.56-19.73 18.56z" fill="#bc1b21"/><path d="M81.2 63.06a37.62 37.62 0 0 1 4.69-7.94 56.46 56.46 0 0 1 4.58-5.32h-.8a58 58 0 0 0-4.59 5.32 37.57 37.57 0 0 0-4.68 7.94c-3.69 9 5.46 19.58 19.39 19.58h.4C86.49 82.42 77.55 72 81.2 63.06z" fill="#c62430"/><path d="M106.19 81.85v1a26.32 26.32 0 0 1-12.8 0v-1a25.67 25.67 0 0 0 6.4.8 26.15 26.15 0 0 0 6.4-.8z" fill="#39373a"/><path d="M119.18 63.06a34.41 34.41 0 0 0-4.84-7.94 54.23 54.23 0 0 0-4.84-5.32H104a54.23 54.23 0 0 1 4.84 5.32 34.06 34.06 0 0 1 4.84 7.94c3.45 8.44-4.28 18.16-16.68 19.43a27.32 27.32 0 0 0 2.75.15c13.98 0 23.12-10.53 19.43-19.58z" fill="#96151f"/><path d="M116.14 52.46c0 1.47-1.47 2.66-3.27 2.66H86.71c-1.81 0-3.27-1.19-3.27-2.66 0-1.47 1.46-2.66 3.27-2.66h26.16c1.8 0 3.27 1.2 3.27 2.66z" fill="#ffb21a"/><path d="M86.88 52.46c0-1.47 1.47-2.66 3.27-2.66h-3.44c-1.81 0-3.27 1.19-3.27 2.66s1.46 2.66 3.27 2.66h3.44c-1.8 0-3.27-1.19-3.27-2.66z" fill="#fdd224"/><path d="M112.87 49.8h-6.4c1.8 0 3.27 1.19 3.27 2.66s-1.47 2.66-3.27 2.66h6.4c1.8 0 3.27-1.19 3.27-2.66s-1.47-2.66-3.27-2.66z" fill="#ff990b"/><path fill="#ffb21a" d="m99.79 72.39-4.47-3.64 4.47-3.64 4.47 3.64-4.47 3.64z"/><path fill="#96151f" d="m100.59 72.39-4.47-3.64 4.47-3.64 4.48 3.64-4.48 3.64z"/><path fill="#ffb21a" d="m99.79 72.39-4.47-3.64 4.47-3.64 4.47 3.64-4.47 3.64z"/><path fill="#ff990b" d="m99.79 65.11-.4.33 4.07 3.31-4.07 3.32.4.32 4.47-3.64-4.47-3.64z"/><path d="m119.52 64-3.67-5.17-4 5.63-4-5.63-4 5.63-4-5.63-4 5.63-4-5.63-4 5.63-4-5.63-3.85 5.5L81.37 61l2.47-3.48 4 5.63 4-5.63 4 5.63 4-5.63 4 5.63 4-5.63 4 5.63 4-5.63 2 2.81a29.32 29.32 0 0 1 1.35 2.76c.12.29.23.61.33.91z" fill="#ffb21a"/><path d="M119.52 64a.09.09 0 0 1 0-.05l-.06-.18c-.08-.23-.16-.47-.26-.7-.18-.43-.38-.86-.59-1.29a2.44 2.44 0 0 0-.14-.28c-.16-.33-.33-.66-.51-1a2.15 2.15 0 0 0-.14-.26l-2-2.77-2.86 4c.13.28.27.56.39.84l2.47-3.48L119.5 64z" fill="#ff990b"/><path fill="#5b595b" d="M93.39 164.93h12.81v5.88H93.39z"/><path fill="#484349" d="M103.44 164.94h2.75v5.88h-2.75z"/><ellipse cx="99.79" cy="126.09" rx="3.44" ry="2.8" fill="#ffb21a"/><path d="M99.79 123.28a4.17 4.17 0 0 0-.8.08 2.73 2.73 0 0 1 0 5.45 4.17 4.17 0 0 0 .8.08c1.9 0 3.44-1.26 3.44-2.8s-1.54-2.81-3.44-2.81z" fill="#ff990b"/><ellipse cx="99.79" cy="137.37" rx="13.52" ry="11.01" fill="#a3af31"/><path d="M87.59 137.37c0-5.9 5.7-10.71 12.86-11h-.66c-7.47 0-13.52 4.92-13.52 11s6 11 13.52 11h.66c-7.16-.28-12.86-5.1-12.86-11z" fill="#b5bc35"/><path d="M99.79 126.37a16.23 16.23 0 0 0-1.72.09c6.65.69 11.8 5.31 11.8 10.91s-5.15 10.23-11.8 10.92a16.23 16.23 0 0 0 1.72.09c7.47 0 13.52-4.93 13.52-11s-6.05-11.01-13.52-11.01z" fill="#969b2c"/><path d="M91.46 170.82h16.67a5.19 5.19 0 0 1 5.19 5.19h-27a5.19 5.19 0 0 1 5.14-5.19z" fill="#ffb21a"/><path d="M90.72 170.82H89.4a3.13 3.13 0 0 0-3.13 3.18v2h1.32v-2a3.13 3.13 0 0 1 3.13-3.18z" fill="#fdd224"/><path d="M110.18 170.82h-6.41a3.13 3.13 0 0 1 3.14 3.13V176h6.4v-2a3.13 3.13 0 0 0-3.13-3.18z" fill="#ff990b"/><path d="M99.79 166.27c-13.28 0-22.21-9.57-19.82-18.3a10 10 0 0 1 .43-1.27c.29-.71.62-1.41 1-2.09a39.2 39.2 0 0 1 3.7-5.84 59.57 59.57 0 0 1 4.59-5.33h19.81a55.54 55.54 0 0 1 4.84 5.33 37.19 37.19 0 0 1 3.49 5.17 30.74 30.74 0 0 1 1.35 2.77c.13.32.24.64.34 1 2.7 8.76-6.29 18.56-19.73 18.56z" fill="#bc1b21"/><path d="M81.2 146.7a37.37 37.37 0 0 1 4.69-7.94 57.92 57.92 0 0 1 4.58-5.33h-.8a59.57 59.57 0 0 0-4.59 5.33 37.32 37.32 0 0 0-4.68 7.94c-3.69 9 5.46 19.57 19.39 19.57h.4c-13.7-.21-22.64-10.62-18.99-19.57z" fill="#c62430"/><path d="M106.19 165.48v1a25.67 25.67 0 0 1-6.4.8 26.15 26.15 0 0 1-6.4-.79v-1a26.32 26.32 0 0 0 12.8 0z" fill="#39373a"/><path d="M119.18 146.7a34.2 34.2 0 0 0-4.84-7.94 55.54 55.54 0 0 0-4.84-5.33H104a55.54 55.54 0 0 1 4.84 5.33 33.86 33.86 0 0 1 4.84 7.94c3.45 8.43-4.28 18.15-16.64 19.43a27.36 27.36 0 0 0 2.75.14c13.94 0 23.08-10.53 19.39-19.57z" fill="#96151f"/><path d="M116.14 136.1c0 1.47-1.47 2.66-3.27 2.66H86.71c-1.81 0-3.27-1.19-3.27-2.66a3 3 0 0 1 3.27-2.67h26.16c1.8 0 3.27 1.2 3.27 2.67z" fill="#ffb21a"/><path d="M86.88 136.1c0-1.47 1.47-2.67 3.27-2.67h-3.44a3 3 0 0 0-3.27 2.67c0 1.47 1.46 2.66 3.27 2.66h3.44c-1.8 0-3.27-1.19-3.27-2.66z" fill="#fdd224"/><path d="M112.87 133.43h-6.4c1.8 0 3.27 1.2 3.27 2.67s-1.47 2.66-3.27 2.66h6.4c1.8 0 3.27-1.19 3.27-2.66s-1.47-2.67-3.27-2.67z" fill="#ff990b"/><path fill="#ffb21a" d="m99.79 156.03-4.47-3.64 4.47-3.65 4.47 3.65-4.47 3.64z"/><path fill="#96151f" d="m100.59 156.03-4.47-3.64 4.47-3.65 4.48 3.65-4.48 3.64z"/><path fill="#ffb21a" d="m99.79 156.03-4.47-3.64 4.47-3.65 4.47 3.65-4.47 3.64z"/><path fill="#ff990b" d="m99.79 148.74-.4.33 4.07 3.32-4.07 3.31.4.33 4.47-3.64-4.47-3.65z"/><path d="m119.52 147.66-3.67-5.17-4 5.63-4-5.63-4 5.63-4-5.63-4 5.63-4-5.63-4 5.63-4-5.63L80 148l1.4-3.36 2.47-3.49 4 5.63 4-5.63 4 5.63 4-5.63 4 5.63 4-5.63 4 5.63 4-5.63 2 2.82a30.74 30.74 0 0 1 1.35 2.77c.09.26.2.6.3.92z" fill="#ffb21a"/><path d="m119.52 147.66-.06-.19c-.08-.23-.16-.46-.26-.7-.18-.44-.38-.87-.59-1.3l-.14-.28c-.16-.32-.33-.65-.51-1l-.14-.26-2-2.77-2.86 4c.13.27.27.55.39.83l2.47-3.48 3.67 5.17z" fill="#ff990b"/><path fill="#5b595b" d="M32.63 123.12h12.81V129H32.63z"/><path fill="#484349" d="M42.69 123.12h2.75V129h-2.75z"/><ellipse cx="39.04" cy="84.27" rx="3.44" ry="2.8" fill="#ffb21a"/><path d="M39 81.47a4.28 4.28 0 0 0-.81.08 2.72 2.72 0 0 1 0 5.44 4.28 4.28 0 0 0 .81.08c1.9 0 3.44-1.25 3.44-2.8s-1.5-2.8-3.44-2.8z" fill="#ff990b"/><ellipse cx="39.03" cy="95.56" rx="13.52" ry="11.01" fill="#a3af31"/><path d="M26.83 95.56c0-5.9 5.7-10.72 12.86-11H39c-7.46 0-13.52 4.93-13.52 11s6.06 11 13.52 11h.66c-7.13-.29-12.83-5.1-12.83-11z" fill="#b5bc35"/><path d="M39 84.55a16.37 16.37 0 0 0-1.72.09C44 85.33 49.12 90 49.12 95.56S44 105.79 37.31 106.47a16.37 16.37 0 0 0 1.72.1c7.47 0 13.53-4.93 13.53-11S46.5 84.55 39 84.55z" fill="#969b2c"/><path d="M30.7 129h16.67a5.19 5.19 0 0 1 5.19 5.19h-27A5.19 5.19 0 0 1 30.7 129z" fill="#ffb21a"/><path d="M30 129h-1.35a3.13 3.13 0 0 0-3.13 3.13v2.05h1.31v-2.05A3.14 3.14 0 0 1 30 129z" fill="#fdd224"/><path d="M49.42 129H43a3.13 3.13 0 0 1 3.13 3.13v2.05h6.41v-2.05a3.14 3.14 0 0 0-3.12-3.13z" fill="#ff990b"/><path d="M39 124.45c-13.27 0-22.21-9.57-19.82-18.29a9.93 9.93 0 0 1 .42-1.27c.3-.71.62-1.4 1-2.09a40.32 40.32 0 0 1 3.71-5.84 56.46 56.46 0 0 1 4.58-5.32h19.86a55.44 55.44 0 0 1 4.83 5.32 37.26 37.26 0 0 1 3.5 5.17 28.18 28.18 0 0 1 1.34 2.77 9.18 9.18 0 0 1 .34 1c2.71 8.75-6.28 18.55-19.76 18.55z" fill="#bc1b21"/><path d="M20.45 104.88a36.91 36.91 0 0 1 4.68-7.94 56.53 56.53 0 0 1 4.59-5.32h-.81a56.46 56.46 0 0 0-4.58 5.32 37.37 37.37 0 0 0-4.69 7.94c-3.68 9 5.46 19.57 19.39 19.57h.41c-13.71-.21-22.64-10.61-18.99-19.57z" fill="#c62430"/><path d="M45.44 123.66v1a26.36 26.36 0 0 1-12.81 0v-1a26.36 26.36 0 0 0 12.81 0z" fill="#39373a"/><path d="M58.42 104.88a33.53 33.53 0 0 0-4.84-7.94 53 53 0 0 0-4.84-5.32h-5.49a54.23 54.23 0 0 1 4.84 5.32 34.2 34.2 0 0 1 4.84 7.94c3.44 8.43-4.28 18.16-16.64 19.43a27.16 27.16 0 0 0 2.74.14c13.97 0 23.09-10.53 19.39-19.57z" fill="#96151f"/><path d="M55.38 94.28c0 1.47-1.46 2.66-3.27 2.66H26c-1.8 0-3.27-1.19-3.27-2.66 0-1.47 1.47-2.66 3.27-2.66h26.11c1.81 0 3.27 1.19 3.27 2.66z" fill="#ffb21a"/><path d="M26.13 94.28c0-1.47 1.46-2.66 3.27-2.66H26c-1.8 0-3.27 1.19-3.27 2.66s1.47 2.66 3.27 2.66h3.4c-1.81 0-3.27-1.19-3.27-2.66z" fill="#fdd224"/><path d="M52.11 91.62h-6.4c1.81 0 3.27 1.19 3.27 2.66s-1.46 2.66-3.27 2.66h6.4c1.81 0 3.27-1.19 3.27-2.66s-1.46-2.66-3.27-2.66z" fill="#ff990b"/><path fill="#ffb21a" d="m39.03 114.21-4.47-3.64 4.47-3.64 4.48 3.64-4.48 3.64z"/><path fill="#96151f" d="m39.84 114.21-4.47-3.64 4.47-3.64 4.47 3.64-4.47 3.64z"/><path fill="#ffb21a" d="m39.03 114.21-4.47-3.64 4.47-3.64 4.48 3.64-4.48 3.64z"/><path fill="#ff990b" d="m39.03 106.93-.4.32 4.07 3.32-4.07 3.31.4.33 4.48-3.64-4.48-3.64z"/><path d="m58.76 105.84-3.67-5.16-4 5.63-4-5.63-4 5.63-4-5.63-4 5.63-4-5.63-4 5.63-4-5.63-3.88 5.46 1.39-3.36 2.48-3.49 4 5.64 4-5.64 4 5.64 4-5.64 4 5.64 4-5.64 4 5.64 4-5.64 2 2.82a28.18 28.18 0 0 1 1.34 2.77 9.18 9.18 0 0 1 .34.96z" fill="#ffb21a"/><path d="m58.76 105.84-.06-.18c-.08-.24-.16-.47-.25-.7-.18-.44-.38-.87-.58-1.3-.05-.09-.1-.18-.14-.27-.16-.33-.34-.66-.51-1 0-.09-.1-.18-.14-.27l-2-2.77-2.87 4c.14.28.27.55.4.83l2.47-3.47 3.67 5.16z" fill="#ff990b"/></svg>