<svg xmlns="http://www.w3.org/2000/svg" viewBox="0 0 138.83 215.65"><path fill="#fff" d="M0 0h138.82v215.65H0z"/><path fill="none" stroke="#7f664a" stroke-miterlimit="10" stroke-width=".5" d="M37.01 208.74H6.94V8.91h30.07m47.44 199.83H54.38M101.82 8.91h30.06v199.83h-30.06M54.38 8.91h30.07"/><path d="M14.94 11v10a6.48 6.48 0 0 0 .1 1.44.94.94 0 0 0 .42.51 1.89 1.89 0 0 0 1 .2h.28v.34H10.3v-.34h.33a2.56 2.56 0 0 0 1.12-.15.93.93 0 0 0 .45-.49 5.66 5.66 0 0 0 .11-1.51v-6.32a3.79 3.79 0 0 0-.08-1.06.73.73 0 0 0-.3-.36.9.9 0 0 0-.51-.15 2.94 2.94 0 0 0-1.12.29l-.16-.33L14.65 11zm10.89 12.52h-7.21v-.2a40.63 40.63 0 0 0 4-5.31 5.79 5.79 0 0 0 .7-2.67 2.23 2.23 0 0 0-.58-1.58 1.91 1.91 0 0 0-1.44-.62 2.36 2.36 0 0 0-2.16 1.39l-.33-.12a5 5 0 0 1 1.48-2.57 3.49 3.49 0 0 1 2.32-.84 3.39 3.39 0 0 1 1.7.44 3.12 3.12 0 0 1 1.2 1.19 2.84 2.84 0 0 1 .49 1.42 5.19 5.19 0 0 1-.67 2.44 23.24 23.24 0 0 1-4 4.66h2.65a6.44 6.44 0 0 0 1.27-.08 1 1 0 0 0 .48-.28 3.31 3.31 0 0 0 .5-.81h.33zm91.45 167.83v10a6 6 0 0 0 .1 1.44.88.88 0 0 0 .41.51 2 2 0 0 0 1 .2h.28v.33h-6.45v-.33h.38a2.53 2.53 0 0 0 1.12-.18 1 1 0 0 0 .45-.5 5.36 5.36 0 0 0 .12-1.47V195a4.35 4.35 0 0 0-.08-1.07.81.81 0 0 0-.31-.36.85.85 0 0 0-.51-.15 3 3 0 0 0-1.12.29l-.16-.32 4.51-2.06zm10.88 12.5H121v-.2a40.63 40.63 0 0 0 4-5.31 5.8 5.8 0 0 0 .71-2.67 2.22 2.22 0 0 0-.59-1.57 1.89 1.89 0 0 0-1.44-.63 2.39 2.39 0 0 0-2.16 1.39l-.33-.12a5 5 0 0 1 1.48-2.56 3.44 3.44 0 0 1 2.3-.83 3.35 3.35 0 0 1 1.69.43 3.15 3.15 0 0 1 1.21 1.19 2.82 2.82 0 0 1 .43 1.41 5.05 5.05 0 0 1-.67 2.44 23.16 23.16 0 0 1-4 4.66h2.64a5.66 5.66 0 0 0 1.27-.08 1 1 0 0 0 .49-.27 3.88 3.88 0 0 0 .49-.82h.33z" fill="#7f664a"/><path d="M38.32 111.05c.36 4.21 2 8.2 3.69 12 .75 1.67 1.55 3.44 1.29 5.25a17.21 17.21 0 0 1-.84 2.79 10.22 10.22 0 0 0 .37 7 9.31 9.31 0 0 1 1.08 3c.08 1.55-1 2.9-1.74 4.25A13.87 13.87 0 0 0 41 156.59c1 2.86 2.8 5.32 4 8.07s1.69 6.17 0 8.62c-.82 1.14-2.12 2.14-2.09 3.54a2.85 2.85 0 0 0 2.14 2.46 8.4 8.4 0 0 0 3.46.06 57.13 57.13 0 0 0 11.62-2.25c8.54-2.93 15.16-9.67 21.17-16.42a47.35 47.35 0 0 0 5.38-6.92A47.46 47.46 0 0 0 91 143.1a378.29 378.29 0 0 0 11-42.61c.69-3.72.72-7.66-.9-11.07-1.48-3.1-4.57-5.14-7.77-6.41-5.48-2.17-11.51-2.49-17.4-2.45a41.61 41.61 0 0 0-13 1.69c-5.2 1.76-14.48 1.86-18.79 5.27-6.44 5.07-6.57 14.85-5.82 23.53z" fill="#821624"/><path d="M58.43 133.87S60.71 150.4 62.3 155s2.46 14.25 2.46 16.18-1.41 6.68-3 7.21-8.09 5.1-4.05 6.15 8.62-.88 12-4.57l.53.7 2.29-1-.18-6.15s-.35-7.39-.35-8.09-.53-32.53-.53-32.53L63 130z" fill="#3f2924"/><path d="M61.89 184.51c-4-1 2.46-5.62 4-6.15s3-5.28 3-7.21-.88-11.61-2.47-16.18-3.87-21.1-3.87-21.1L66 131l-3-1-4.57 3.87S60.71 150.4 62.3 155s2.46 14.25 2.46 16.18-1.41 6.68-3 7.21-8.09 5.1-4.05 6.15a9.48 9.48 0 0 0 4.4.05z" fill="#4f332c"/><path d="m68.57 128.78 7.09-1.41 5.28 4.57S79 149.35 77.42 155s.17 16.71.53 17.76 4.22 8.62 6.5 9.32 1.23 4.22-4 3.17-6.68-4.4-6.68-4.4l-1.59.35-1-.17s-1.94-5.63-1.23-7 .35-7.21.53-8.61-1.59-6.51-.88-9c0 0-3.73-17.43-1.05-27.22.06-.19.11-.38.17-.56" fill="#604238"/><path d="M84.45 182.05c-2.28-.7-6.15-8.26-6.5-9.32s-2.11-12.13-.53-17.73 3.52-23 3.52-23l-5.28-4.57-2.64.52 4.67 4s-1.94 17.41-3.52 23 .17 16.71.53 17.76 4.22 8.62 6.5 9.32c1.68.52 1.55 2.55-.73 3.18 5.22 1.03 6.26-2.46 3.98-3.16z" fill="#4f332c"/><path d="M77.05 73.63c-1.35 3-4.88 4.44-8.16 4.86a14.48 14.48 0 0 1-5.49-.22 8.1 8.1 0 0 1-4.56-2.93 1.09 1.09 0 0 1-.28-.65c0-.56.71-.77 1.24-.94a4.18 4.18 0 0 0 1.34-.65c1.86-1.31 2.55-3.8 3.86-5.56a3 3 0 0 1 2.51-.85l3.44-.07a1.08 1.08 0 0 1 .59.11c.3.22.25.67.21 1A5.32 5.32 0 0 0 73 71.92a5.6 5.6 0 0 0 .9.78 5.34 5.34 0 0 0 3.15.93z" fill="#f9c18a"/><path d="M73.94 72.7a5.6 5.6 0 0 1-.9-.78 5.32 5.32 0 0 1-1.34-4.14c0-.38.09-.83-.21-1a1.08 1.08 0 0 0-.59-.11h-2.43a.6.6 0 0 1 .19.06c.3.22.25.67.21 1a5.32 5.32 0 0 0 1.34 4.14 5.6 5.6 0 0 0 .9.78 5.31 5.31 0 0 0 3.11.93c-1.36 3-4.88 4.44-8.17 4.86l-.86.08a17 17 0 0 0 3.7-.08c3.28-.42 6.81-1.85 8.16-4.86a5.34 5.34 0 0 1-3.11-.88z" fill="#ea9f54"/><path d="M79.11 50.76a5.05 5.05 0 0 1 2.22 6.52 3.36 3.36 0 0 1 1.82 3.5 2.87 2.87 0 0 0-.11 1 6 6 0 0 0 .43 1.06c.36 1.08-.5 2.21-.44 3.34 0 .54.25 1 .31 1.57.23 1.87-1.49 3.35-3 4.44a4.24 4.24 0 0 1-1.87.91c-1.29.17-2.41-.82-3.32-1.74a2.74 2.74 0 0 1-.9-1.34 12.69 12.69 0 0 1 0-1.51c-.11-1.48-2-2.34-2.1-3.81a6.16 6.16 0 0 1 .46-1.95 15.88 15.88 0 0 0 .17-2.85A3 3 0 0 1 74 57.39a4.3 4.3 0 0 1-.53-3c.11-1 .43-1.95.64-2.93a2.51 2.51 0 0 1-1-1.94 1.76 1.76 0 0 1 1-1.48 3.27 3.27 0 0 1 2.8.46 2.29 2.29 0 0 1 2.28-.46 4.11 4.11 0 0 1-.08 2.72z" fill="#4f332c"/><ellipse cx="66.25" cy="54.5" rx="12.57" ry="15.47" fill="#f9c18a"/><path d="M66.25 39a9.28 9.28 0 0 0-1.58.14c6.19 1 11 7.45 11 15.33s-4.8 14.38-11 15.34a10.42 10.42 0 0 0 1.58.14c7 0 12.58-6.93 12.58-15.48S73.2 39 66.25 39z" fill="#ea9f54"/><path d="m47.35 42.9.88-8.62 10 3.17 3.87-.18 5.28-7 5.8 6.68 4.22.88 6.86-1.41.52 5.1-4.39 3.87s-26.55.88-30.6 2.29z" fill="#ea850c"/><path d="M52.6 50.76a5.05 5.05 0 0 0-2.22 6.52 3.36 3.36 0 0 0-1.82 3.5 2.87 2.87 0 0 1 .11 1 5.36 5.36 0 0 1-.43 1.06c-.36 1.08.5 2.21.44 3.34 0 .54-.25 1-.31 1.57-.23 1.87 1.49 3.35 3 4.44a4.23 4.23 0 0 0 1.88.91c1.28.17 2.4-.82 3.31-1.74a2.74 2.74 0 0 0 .9-1.34 12.69 12.69 0 0 0 0-1.51c.12-1.48 2-2.34 2.1-3.81a6.16 6.16 0 0 0-.46-1.95 16.85 16.85 0 0 1-.17-2.85 2.93 2.93 0 0 0-1.22-2.47 4.3 4.3 0 0 0 .53-3c-.11-1-.43-1.95-.64-2.93a2.51 2.51 0 0 0 1-1.94 1.76 1.76 0 0 0-1-1.48 3.27 3.27 0 0 0-2.8.46 2.29 2.29 0 0 0-2.28-.46 4.11 4.11 0 0 0 .08 2.68z" fill="#604238"/><path d="M53.59 48a2.17 2.17 0 0 0-1.13.08 3 3 0 0 0-.08.39 5.73 5.73 0 0 1 1.21-.47zm5.96 16.66a6.16 6.16 0 0 0-.46-1.95 16.85 16.85 0 0 1-.17-2.85 2.93 2.93 0 0 0-1.22-2.47 4.3 4.3 0 0 0 .53-3c-.11-1-.43-1.95-.64-2.93a2.51 2.51 0 0 0 1-1.94 1.76 1.76 0 0 0-1-1.48 2.69 2.69 0 0 0-2.21.18 1.78 1.78 0 0 1 .72 1.3 2.51 2.51 0 0 1-1 1.94c.21 1 .53 1.94.64 2.93a4.3 4.3 0 0 1-.53 3 2.93 2.93 0 0 1 1.22 2.47 16.85 16.85 0 0 0 .17 2.85 6.16 6.16 0 0 1 .46 1.95c-.1 1.47-2 2.33-2.1 3.81A12.69 12.69 0 0 1 55 70a2.74 2.74 0 0 1-.9 1.34 7.37 7.37 0 0 1-1.78 1.42 2.84 2.84 0 0 0 1 .32c1.28.17 2.4-.82 3.31-1.74a2.74 2.74 0 0 0 .9-1.34 12.69 12.69 0 0 0 0-1.51c.04-1.49 1.92-2.36 2.02-3.83z" fill="#4f332c"/><path d="M66.3 61.43c-.37.55-.53 1.23-.9 1.78a2.82 2.82 0 0 1-3.51.89c1.54 1.17 3.69 2 5.37 1.05a5.89 5.89 0 0 0 1.42-1.31 5.27 5.27 0 0 0 1.1-1.59c.98-2.6-2.47-2.25-3.48-.82z" fill="#604238"/><path d="M73.8 61.43c.37.55.53 1.23.9 1.78a2.82 2.82 0 0 0 3.51.89c-1.54 1.17-3.69 2-5.36 1.05a6.13 6.13 0 0 1-1.43-1.31 5.24 5.24 0 0 1-1.09-1.59c-.98-2.6 2.47-2.25 3.47-.82z" fill="#604238"/><path d="M76.66 81.86c2.72 4.29 12.78 14.29 17.84 14.68a20.65 20.65 0 0 0-6.14 5.17 5.73 5.73 0 0 0-1.45 3 2.4 2.4 0 0 0 1.63 2.59 3.47 3.47 0 0 0 2-.35 28.94 28.94 0 0 0 12.28-9.57A5.2 5.2 0 0 0 104 94.6a4.77 4.77 0 0 0-1.16-2.92c-2.81-3.74-7.25-5.84-11.58-7.62a14.28 14.28 0 0 0-4.67-1.3c-3.09-.14-11.83-3.91-9.93-.9z" fill="#78b1ef"/><path d="M102.84 91.68c-2.81-3.74-7.25-5.84-11.58-7.62a14.28 14.28 0 0 0-4.67-1.3c-2.89-.14-10.75-3.45-10.17-1.39a38.88 38.88 0 0 0 5.92 1.39 14.28 14.28 0 0 1 4.66 1.3c4.33 1.78 8.77 3.88 11.58 7.62a4.77 4.77 0 0 1 1.16 2.92 5.2 5.2 0 0 1-1.22 2.75 28.85 28.85 0 0 1-11.17 9.07 2 2 0 0 0 1.18.85 3.47 3.47 0 0 0 2-.35 28.94 28.94 0 0 0 12.28-9.57A5.2 5.2 0 0 0 104 94.6a4.77 4.77 0 0 0-1.16-2.92z" fill="#659cce"/><path d="M41 102.36c-1.1-2.32-3-4.51-1.55-6.67a45.72 45.72 0 0 1 7.66-7.76l2.41-1.86a11.44 11.44 0 0 1 3-1.83c1.77-.64 4.29-.09 4.62 2.1a9.28 9.28 0 0 1-2.59 6.77c-4.28 3.29-9.39 5.96-13.55 9.25z" fill="#78b1ef"/><path d="M57.05 86.34a2.6 2.6 0 0 0-1.73-2.1 3.8 3.8 0 0 1 .15.51 9.33 9.33 0 0 1-2.59 6.78c-4 3.15-8.87 5.74-13 8.84.34.66.72 1.32 1 2 4.2-3.29 9.31-6 13.5-9.25a9.28 9.28 0 0 0 2.67-6.78z" fill="#659cce"/><path d="M40 94.08a17.61 17.61 0 0 0-5.51 6.71c-1 2.24-4 3.52-6.38 4.23-.95.29.11 1.68-.88 1.78-2.08.22-4.2 1.84-4.13 3.94a4.15 4.15 0 0 0 3.39 3.57 5.9 5.9 0 0 0 5.25-1.45 39.5 39.5 0 0 0 2.54-3.33c2.79-3.33 7.73-4 10.9-7a1.53 1.53 0 0 0 .52-.74 1.68 1.68 0 0 0-.29-1.19C44 98 41.76 96.38 40 94.08z" fill="#4f4543"/><path d="M45.38 100.59C44 98 41.76 96.38 40 94.08l-.13.1a22.27 22.27 0 0 1 3.71 4.58 1.73 1.73 0 0 1 .29 1.19 1.59 1.59 0 0 1-.52.73c-3.18 3-8.11 3.69-10.91 7a37.7 37.7 0 0 1-2.56 3.32 5.89 5.89 0 0 1-5.25 1.46 5 5 0 0 1-1.23-.46 4.57 4.57 0 0 0 3.06 2.3 5.9 5.9 0 0 0 5.25-1.45 39.5 39.5 0 0 0 2.54-3.33c2.79-3.33 7.73-4 10.9-7a1.53 1.53 0 0 0 .52-.74 1.68 1.68 0 0 0-.29-1.19z" fill="#3d3635"/><path d="M85.86 132.47c-25.32 11.95-35.34 1.4-35.34 1.4l.87-3 8.27-28 .7.18 15.48-3.52 8.7 28.55z" fill="#969b2c"/><path d="m84.54 128.13-8.7-28.55-5.93 1.35 8.29 27.2 1.33 4.34C72.07 136 66 137.54 61 138c5.66.6 13.79-.33 24.84-5.54z" fill="#878722"/><path d="M57.67 107.42a10 10 0 0 0 4.25 4.84c2.64 1.35 5.81.9 8.73.41 1.84-.3 3.82-.69 5-2.09a7.58 7.58 0 0 0 1.4-3c1.71-6 2.93-14.79 2.06-21-.26-1.88-1.45-1.45-2.64-2.93a9.33 9.33 0 0 0-3.6-2.54 13.87 13.87 0 0 0-9.87-.85c-4.8 1.62-6.1 6.18-6.69 10.74-.71 5.43-1.03 11.28 1.36 16.42z" fill="#969b2c"/><path d="M79.16 88.86c-.26-1.88 1.19-6 0-7.5-.92-1.16-4.88.39-6.24-.22a13.87 13.87 0 0 0-9.92-.88c-.21.07-.41.16-.61.24a16.43 16.43 0 0 1 5.29 1.39 9.33 9.33 0 0 1 3.6 2.54 10.65 10.65 0 0 1 1.87 5.31 45.34 45.34 0 0 1-1.29 18.61 7.58 7.58 0 0 1-1.4 3 6.42 6.42 0 0 1-3.51 1.8 35.13 35.13 0 0 0 3.71-.46c1.84-.3 3.82-.69 5-2.09a7.58 7.58 0 0 0 1.4-3c1.75-6.02 2.94-12.54 2.1-18.74z" fill="#878722"/><path d="m88.32 40.61-9 9.85a25.33 25.33 0 0 0-2.6-1.31C63.8 43.49 53 51.69 53 51.69l-9.87-9.49 4-.44 2.51-.27 5.63 3L52.8 39l3-7.91 9.85 3.34 2.11 6.15 2.63-6.68 7.74-2.81 3.87 7-1.77 4.81 3.28-2.19.94-.62z" fill="#fdd224"/><path d="M88.48 99.11a30.42 30.42 0 0 1 4.66 6.89 1.24 1.24 0 0 1 .19.81 1.3 1.3 0 0 1-.58.71 54 54 0 0 1-5.21 3.39 12.71 12.71 0 0 0-3.12 2.09c-.7.75-1.19 1.69-1.9 2.43a10.77 10.77 0 0 1-4.26 2.34c-1.18.44-2.52.87-3.66.32s-1.6-1.88-1.94-3.09a4.23 4.23 0 0 1-.12-1.93 7.06 7.06 0 0 1 1.6-2.41 3.87 3.87 0 0 0 .45-.73 2.51 2.51 0 0 1 2.41-1.45h2.64c1.85 0 1.94-.09 2.88-1.57a44.4 44.4 0 0 1 5.96-7.8z" fill="#4f4543"/><path d="M93.14 106a30.42 30.42 0 0 0-4.66-6.86l-.17.19a31.26 31.26 0 0 1 3 4.86 1.3 1.3 0 0 1 .19.81 1.33 1.33 0 0 1-.58.71 51.13 51.13 0 0 1-5.22 3.38 13 13 0 0 0-3.11 2.15c-.7.75-1.19 1.69-1.91 2.43a10.8 10.8 0 0 1-4.23 2.33 5.38 5.38 0 0 1-3.32.44 3.15 3.15 0 0 0 1.47 1.69c1.14.55 2.48.12 3.66-.32a10.77 10.77 0 0 0 4.26-2.34c.71-.74 1.2-1.68 1.9-2.43a12.71 12.71 0 0 1 3.12-2.14 54 54 0 0 0 5.21-3.39 1.3 1.3 0 0 0 .58-.71 1.24 1.24 0 0 0-.19-.8z" fill="#3d3635"/><path d="M77.05 73.63c-1.35 3-4.88 4.44-8.16 4.86a14.48 14.48 0 0 1-5.49-.22 8.1 8.1 0 0 1-4.56-2.93 1.09 1.09 0 0 1-.28-.65c0-.56.71-.77 1.24-.94a4.18 4.18 0 0 0 1.34-.65 1.75 1.75 0 0 0 .92.23 1.21 1.21 0 0 0 1.14-1.25 2.62 2.62 0 0 0 4.07.25 4.55 4.55 0 0 0 2.41 1 2.27 2.27 0 0 0 2.19-1.2 2.74 2.74 0 0 0 2.07.55 5.34 5.34 0 0 0 3.11.95z" fill="#fff"/><path d="M85.86 132.47c-25.32 11.95-35.34 1.4-35.34 1.4l.87-3c5.41 2.53 17.43 5.94 33.15-2.78zM65.6 81.23h2.71v10.02H65.6z" fill="#ff990b"/><path fill="#ff990b" d="M71.97 84.89v2.71H61.95v-2.71z"/><path d="M73.7 83.86c2.36.29 4.88-.54 7.06.38a20.79 20.79 0 0 1 2.5 1.55c3.11 1.87 7 1.58 10.62 1.79s8.62 3.06 10 6.4c.82-2.43 0-6.79-1-9.14A8.2 8.2 0 0 0 97.24 80c-1-.2-2-.2-2.9-.48-2.15-.62-3.65-2.49-5.34-4A16.86 16.86 0 0 0 82.09 72a6.44 6.44 0 0 0-4.52.2 11.76 11.76 0 0 0-2.71 2.52A11.9 11.9 0 0 1 69.24 78c-4.6 1.16 2.38 5.61 4.46 5.86z" fill="#bc1b21"/><path d="M73.43 83.81a1.57 1.57 0 0 0 .27 0 12.54 12.54 0 0 0 1.94 0 10.82 10.82 0 0 0-2.21 0zm29.44 1.03A8.2 8.2 0 0 0 97.24 80c-1-.2-2-.2-2.9-.48-2.15-.62-3.65-2.49-5.34-4A16.86 16.86 0 0 0 82.09 72a7 7 0 0 0-4 0h.12a16.84 16.84 0 0 1 6.92 3.6c1.68 1.46 3.18 3.33 5.33 4 1 .28 2 .28 2.91.48A8.21 8.21 0 0 1 99 84.84a18.7 18.7 0 0 1 1.26 5.16 9.83 9.83 0 0 1 3.65 4c.82-2.44-.03-6.81-1.04-9.16z" fill="#821624"/><path d="M60.87 73.74c-.06-.47-.09-1-.48-1.3a1.31 1.31 0 0 0-.85-.17c-3.67.14-6.75 2.82-9 5.74s-4 6.24-6.73 8.69c-1.56 1.39-3.41 2.46-4.86 4s-2.47 3.7-1.85 5.7c1.67-1 2.89-2.68 4.6-3.65 3.55-2 8.11-.56 12-1.76a15.13 15.13 0 0 0 5.53-3.52c1.68-1.47 6.29-5.1 6.29-7.47 0-1.47-1.43-1.75-2.38-2.51a5.59 5.59 0 0 1-2.27-3.75z" fill="#bc1b21"/><circle cx="67.31" cy="79.74" r="3.08" fill="#ff990b"/><circle cx="67.31" cy="79.74" r="1.85" fill="#bc1b21"/><path d="M56.71 105.11s-1.12 1.75.38 6.25c0 0 12.12 2.88 21.75-2.37 0 0 1-2-.75-4.88 0 0-14.63 2.89-21.38 1z" fill="#ff990b"/><path d="M78.09 104.11s-14.63 2.88-21.38 1a3.37 3.37 0 0 0-.36 1.34c7.28.37 17.24-1.59 17.24-1.59 1.75 2.88.75 4.88.75 4.88a24.22 24.22 0 0 1-5.91 2.26 26.89 26.89 0 0 0 10.41-3s1-2-.75-4.89z" fill="#ed870c"/><path d="M33.3 55.37a.29.29 0 0 1 0 .09v36.36h-9.1V55.46a.29.29 0 0 1 0-.09l4.55-8.89 2.44 4.76.94 1.85 1 1.87.21.41z" fill="#c9c2c9"/><path d="M33.3 55.37a.29.29 0 0 1 0 .09v36.36h-4.53V46.48l2.44 4.76.94 1.85 1 1.87.21.41z" fill="#b2afb2"/><path fill="#d8d6d8" d="m32.15 53.09-3.38 3.38-4.55 4.55v-2.8l6.99-6.98.94 1.85zm1.15 2.28a.29.29 0 0 1 0 .09v.12l-9.1 9.1v-.84l4.55-4.55L33.11 55l.21.41zm.02 17.74-4.55 4.54-4.55 4.55v.84l4.55-4.55 4.55-4.55v-.83zm0-6.81v2.8l-4.55 4.55-4.55 4.54V75.4l9.1-9.1zm0 17.77v2.8l-4.55 4.55-.4.4h-2.79l7.74-7.75z"/><path fill="#c9c2c9" d="m28.77 56.47 3.38-3.38-.94-1.85-2.44 2.43v2.8zm4.55-1.1-.21-.37-4.34 4.33v.84l4.55-4.55v-.12a.29.29 0 0 0 0-.09zm-4.55 23.12 4.55-4.55v-.83l-4.55 4.54v.84zm0-4.84 4.55-4.55v-2.8l-4.55 4.55v2.8zm0 17.77 4.55-4.55v-2.8l-4.55 4.55v2.8z"/><path d="M46.77 87a20.45 20.45 0 0 1-18 10.32c-4.18.23-13.39-1.94-18-10.32a36.89 36.89 0 0 0 18 4.59 36.71 36.71 0 0 0 18-4.59z" fill="#ffb21a"/><path d="M28.77 95.55A21 21 0 0 1 12.6 88q-1-.5-1.83-1c4.61 8.38 13.82 10.55 18 10.32a20.45 20.45 0 0 0 18-10.32c-.6.33-1.19.63-1.77.91a20.85 20.85 0 0 1-16.23 7.64z" fill="#ff990b"/><path fill="#68442e" d="M25.95 94.37h5.82v20.14h-5.82z"/><path fill="#583e31" d="M29.01 94.37h2.76v20.14h-2.76z"/><path fill="#3f2c24" d="M31.78 108.37v1.12l-2.77 2.76-2.25 2.26h-.81v-.31l5.83-5.83zm0-4.34v1.12l-5.83 5.82v-1.12l5.83-5.82zm0-4.34v1.11l-5.83 5.83v-1.12l5.83-5.82zm0-4.35v1.12l-5.83 5.82v-1.11l5.83-5.83z"/><circle cx="28.77" cy="115.59" r="4.34" fill="#ffb21a"/><path d="M28.77 111.25a3.91 3.91 0 0 0-.49 0 4.34 4.34 0 0 1 0 8.63 3.91 3.91 0 0 0 .49 0 4.35 4.35 0 0 0 0-8.69z" fill="#ff990b"/><path d="M25.22 115.59a4.34 4.34 0 0 1 3.94-4.32h-.39a4.35 4.35 0 0 0 0 8.69h.39a4.34 4.34 0 0 1-3.94-4.37z" fill="#fdd224"/><circle cx="28.77" cy="94.27" r="4.34" fill="#ffb21a"/><path d="M25 94.27a4.36 4.36 0 0 1 4.05-4.34h-.3a4.35 4.35 0 0 0 0 8.69h.3A4.34 4.34 0 0 1 25 94.27z" fill="#fdd224"/><path d="M28.77 89.92h-.29a4.34 4.34 0 0 1 0 8.66h.29a4.35 4.35 0 1 0 0-8.69z" fill="#ff990b"/><circle cx="28.77" cy="94.27" r="2.76" fill="#bc1b21"/><circle cx="27.19" cy="94.07" r=".79" fill="#fff"/><circle cx="28.77" cy="92.49" r=".31" fill="#fff"/><circle cx="30.25" cy="95.75" r=".39" fill="#96151f"/><path d="M26.91 105.19v-.59a2.54 2.54 0 0 0-2.76.89 4.5 4.5 0 0 0-.84 2.92 4.08 4.08 0 0 0 .67 2.31 2.07 2.07 0 0 0 2.13.85 2.2 2.2 0 0 0 1.4-1.45 6.6 6.6 0 0 0 .25-2.08v-1.7a2.6 2.6 0 0 0-.2-1.3.9.9 0 0 0-1.1-.47m6.18.53c-.35-.29-.72-.58-1.09-.85a3.35 3.35 0 0 0-1.26-.64 1.16 1.16 0 0 0-1.35 1.73 3 3 0 0 0 1 1 3.39 3.39 0 0 0 1.5.67 1.57 1.57 0 0 0 1.47-.56 1 1 0 0 0-.25-1.44" fill="#4f4543"/><path d="m88.32 40.61-9 9.85a25.33 25.33 0 0 0-2.6-1.31l6.76-8.44.94-.62zm-33.06 3.87-8.14-2.72 2.51-.27 5.63 2.99zm12.49-3.87-3.67-5.25-8.29-4.24 9.85 3.34 2.11 6.15zm12.48 2.29.01-4.87-2.12-6.91 3.87 7.03-1.76 4.75z" fill="#ffb21a"/></svg>