<svg xmlns="http://www.w3.org/2000/svg" viewBox="0 0 138.83 215.65"><path fill="#fff" d="M0 0h138.82v215.65H0z"/><path fill="none" stroke="#7f664a" stroke-miterlimit="10" stroke-width=".5" d="M37.01 208.74H6.94V8.91h30.07m47.44 199.83H54.38M101.82 8.91h30.06v199.83h-30.06M54.38 8.91h30.07"/><path d="M11.74 11.27h5.73l-.91 2.33h-4.82l-.46 1.22a7.63 7.63 0 0 1 4.79 1.55 3.71 3.71 0 0 1 1.39 2.95A4.49 4.49 0 0 1 15 23.19a5.63 5.63 0 0 1-2.56.58 4 4 0 0 1-2.3-.56 1.11 1.11 0 0 1-.56-.9.94.94 0 0 1 .29-.69.93.93 0 0 1 .68-.3 1.86 1.86 0 0 1 .72.15 7.47 7.47 0 0 1 1.23.75 4.53 4.53 0 0 0 1 .53 1.81 1.81 0 0 0 .63.11 1.7 1.7 0 0 0 1.27-.54 1.87 1.87 0 0 0 .48-1.32 3 3 0 0 0-1.6-2.58 7.45 7.45 0 0 0-4-1h-.74zM123.07 191.6h5.74l-.92 2.33h-4.82l-.46 1.22a7.7 7.7 0 0 1 4.8 1.55 3.73 3.73 0 0 1 1.38 3 4.41 4.41 0 0 1-2.45 3.87 5.63 5.63 0 0 1-2.56.58 4 4 0 0 1-2.3-.56 1.11 1.11 0 0 1-.56-.9 1 1 0 0 1 .29-.69 1 1 0 0 1 .69-.3 1.85 1.85 0 0 1 .71.15 8.19 8.19 0 0 1 1.24.76 4 4 0 0 0 1 .52 1.73 1.73 0 0 0 .63.11 1.69 1.69 0 0 0 1.26-.54 1.85 1.85 0 0 0 .52-1.3 3 3 0 0 0-1.59-2.59 7.47 7.47 0 0 0-4-1h-.73z" fill="#7f664a"/><path d="M34.53 102.15H80.2v11.39H34.53l-11.13-5.7 6-3 2.32-1.18 2.34-1.2.52-.26z" fill="#c9c2c9"/><path d="M34.53 102.15H80.2v5.69H23.4l6-3 2.32-1.18 2.34-1.2.52-.26z" fill="#b2afb2"/><path fill="#d8d6d8" d="m31.67 103.59 4.24 4.24 5.7 5.7H38.1l-8.74-8.75 2.31-1.19zm2.86-1.44h.26l11.4 11.39h-1l-5.69-5.7-5.5-5.45.52-.26zm22.22-.02 5.7 5.7 5.7 5.7h1.05l-5.7-5.7-5.7-5.7h-1.05zm-8.52 0h3.5l5.7 5.7 5.7 5.7h-3.5l-11.4-11.4zm22.26 0h3.5l5.7 5.7.51.5v3.5l-9.71-9.7z"/><path fill="#c9c2c9" d="m35.91 107.83-4.24-4.24-2.31 1.19 3.05 3.05h3.5zm-1.38-5.7-.52.26 5.44 5.43h1l-5.7-5.69h-.26zm28.97 5.7-5.7-5.7h-1.05l5.7 5.7h1.05zm-6.07 0-5.7-5.7h-3.5l5.7 5.7h3.5zm22.26 0-5.7-5.7h-3.5l5.7 5.7h3.5z"/><path d="M74.18 85.27c4.17 2.09 12.82 9.42 12.92 22.56.29 5.23-2.43 16.77-12.92 22.55a47.11 47.11 0 0 0 0-45.11z" fill="#ffb21a"/><path d="M84.88 107.83a26.23 26.23 0 0 1-9.51 20.25c-.4.85-.81 1.62-1.19 2.3 10.49-5.78 13.21-17.32 12.92-22.55-.1-13.14-8.75-20.47-12.92-22.56.4.76.78 1.5 1.13 2.23a26.09 26.09 0 0 1 9.57 20.33z" fill="#ff990b"/><path fill="#68442e" d="M83.39 104.06h25.23v7.3H83.39z"/><path fill="#583e31" d="M83.39 104.06h25.23v3.46H83.39z"/><path fill="#3f2c24" d="M100.94 104.06h1.4l3.46 3.47 2.82 2.82v1.01h-.38l-7.3-7.3zm-5.44 0h1.4l7.29 7.3h-1.4l-7.29-7.3zm-5.45 0h1.4l7.3 7.3h-1.4l-7.3-7.3zm-5.44 0h1.4l7.3 7.3h-1.4l-7.3-7.3z"/><circle cx="109.98" cy="107.83" r="5.44" fill="#ffb21a"/><path d="M104.54 107.83a4.21 4.21 0 0 0 0 .62 5.44 5.44 0 0 1 10.81 0v-.62a5.44 5.44 0 0 0-10.88 0z" fill="#ff990b"/><path d="M110 112.28a5.44 5.44 0 0 1-5.42-4.94v.49a5.44 5.44 0 0 0 10.88 0 3.93 3.93 0 0 0 0-.49 5.44 5.44 0 0 1-5.46 4.94z" fill="#fdd224"/><circle cx="83.27" cy="107.83" r="5.44" fill="#ffb21a"/><path d="M83.27 112.53a5.44 5.44 0 0 1-5.43-5.07v.37a5.45 5.45 0 0 0 10.89 0v-.37a5.43 5.43 0 0 1-5.46 5.07z" fill="#fdd224"/><path d="M77.82 107.83v.37a5.44 5.44 0 0 1 10.85 0v-.37a5.45 5.45 0 1 0-10.89 0z" fill="#ff990b"/><circle cx="83.27" cy="107.83" r="3.46" fill="#bc1b21"/><circle cx="83.02" cy="109.81" r=".99" fill="#fff"/><circle cx="81.04" cy="107.83" r=".39" fill="#fff"/><circle cx="85.12" cy="105.97" r=".49" fill="#96151f"/><path d="M49.64 36.14a.17.17 0 0 1 0 .07v28.91h-7.22V36.21a.19.19 0 0 1 0-.07L46 29.08l2 3.78.75 1.47.76 1.48.17.33z" fill="#c9c2c9"/><path d="M49.64 36.14a.17.17 0 0 1 0 .07v28.91H46v-36l2 3.74.75 1.47.76 1.48.17.33z" fill="#b2afb2"/><path fill="#d8d6d8" d="m48.73 34.33-2.69 2.69-3.62 3.61v-2.22l5.55-5.55.76 1.47zm.91 1.81a.17.17 0 0 1 0 .07v.1l-7.23 7.23v-.66L46 39.26l3.44-3.45.17.33zm.01 14.1-3.61 3.62-3.62 3.61v.67l3.62-3.62 3.61-3.61v-.67zm0-5.41v2.22l-3.61 3.62-3.62 3.62v-2.23l7.23-7.23zm0 14.13v2.22l-3.61 3.62-.32.32H43.5l6.15-6.16z"/><path fill="#c9c2c9" d="m46.04 37.02 2.69-2.69-.76-1.47-1.93 1.93v2.23zm3.61-.88-.17-.33L46 39.26v.67l3.61-3.62v-.1a.17.17 0 0 0 0-.07zm-3.61 18.38 3.61-3.61v-.67l-3.61 3.62v.66zm0-3.85 3.61-3.62v-2.22l-3.61 3.62v2.22zm0 14.13 3.61-3.62v-2.22l-3.61 3.62v2.22z"/><path d="M60.35 61.3A16.27 16.27 0 0 1 46 69.5a16.44 16.44 0 0 1-14.31-8.2 29.88 29.88 0 0 0 28.62 0z" fill="#ffb21a"/><path d="M46 68.09a16.67 16.67 0 0 1-12.86-6c-.53-.26-1-.52-1.45-.76A16.44 16.44 0 0 0 46 69.5a16.27 16.27 0 0 0 14.31-8.2c-.48.26-1 .49-1.41.72A16.61 16.61 0 0 1 46 68.09z" fill="#ff990b"/><path fill="#68442e" d="M43.79 67.14h4.63v16.01h-4.63z"/><path fill="#583e31" d="M46.23 67.14h2.2v16.01h-2.2z"/><path fill="#3f2c24" d="M48.42 78.28v.89l-2.19 2.19-1.79 1.79h-.65v-.24l4.63-4.63zm0-3.45v.88l-4.63 4.63v-.88l4.63-4.63zm0-3.46v.89l-4.63 4.63V76l4.63-4.63zm0-3.45v.89l-4.63 4.63v-.89l4.63-4.63z"/><circle cx="46.03" cy="84.02" r="3.45" fill="#ffb21a"/><path d="M46 80.56a2.56 2.56 0 0 0-.39 0 3.45 3.45 0 0 1 0 6.86H46a3.46 3.46 0 1 0 0-6.91z" fill="#ff990b"/><path d="M43.21 84a3.46 3.46 0 0 1 3.14-3.44h-.32a3.46 3.46 0 0 0 0 6.91h.32A3.46 3.46 0 0 1 43.21 84z" fill="#fdd224"/><circle cx="46.04" cy="67.07" r="3.45" fill="#ffb21a"/><path d="M43.05 67.07a3.46 3.46 0 0 1 3.22-3.45H46a3.46 3.46 0 1 0 0 6.91h.23a3.45 3.45 0 0 1-3.18-3.46z" fill="#fdd224"/><path d="M46 63.61h-.2a3.45 3.45 0 0 1 0 6.89h.2a3.46 3.46 0 0 0 0-6.91z" fill="#ff990b"/><circle cx="46.04" cy="67.07" r="2.2" fill="#bc1b21"/><circle cx="44.78" cy="66.91" r=".63" fill="#fff"/><circle cx="46.03" cy="65.65" r=".25" fill="#fff"/><circle cx="47.21" cy="68.24" r=".31" fill="#96151f"/><path d="M89.19 80.41a.19.19 0 0 1 0-.07V51.43h7.21v28.91a.17.17 0 0 1 0 .07l-3.61 7.06-1.94-3.78-.75-1.47-.76-1.48-.17-.33z" fill="#c9c2c9"/><path d="M89.19 80.41a.19.19 0 0 1 0-.07V51.43h3.62v36l-1.94-3.78-.75-1.47-.76-1.48-.17-.33z" fill="#b2afb2"/><path fill="#d8d6d8" d="m90.1 82.22 2.69-2.69 3.61-3.61v2.22l-5.55 5.55-.75-1.47zm-.91-1.81a.19.19 0 0 1 0-.07v-.1L96.4 73v.66l-3.61 3.62-3.45 3.45-.17-.33zm-.02-14.1 3.62-3.62 3.61-3.61v-.67l-3.61 3.62-3.62 3.61v.67zm0 5.41V69.5l3.62-3.62 3.61-3.62v2.22l-7.23 7.24zm0-14.13v-2.22l3.62-3.62.32-.32h2.22l-6.16 6.16z"/><path fill="#c9c2c9" d="m92.79 79.53-2.69 2.69.75 1.47 1.94-1.93v-2.23zm-3.62.88.17.33 3.45-3.45v-.67l-3.62 3.62v.1a.19.19 0 0 0 0 .07zm3.62-18.38-3.62 3.61v.67l3.62-3.62v-.66zm0 3.85-3.62 3.62v2.22l3.62-3.62v-2.22zm0-14.13-3.62 3.62v2.22l3.62-3.62v-2.22z"/><path d="M78.48 55.25a16.25 16.25 0 0 1 14.31-8.2 16.45 16.45 0 0 1 14.31 8.2 29.88 29.88 0 0 0-28.62 0z" fill="#ffb21a"/><path d="M92.79 48.46a16.67 16.67 0 0 1 12.85 6c.54.26 1 .52 1.46.76a16.45 16.45 0 0 0-14.31-8.2 16.25 16.25 0 0 0-14.31 8.2c.48-.26 1-.49 1.41-.72a16.58 16.58 0 0 1 12.9-6.04z" fill="#ff990b"/><path fill="#68442e" d="M90.4 33.4h4.63v16.01H90.4z"/><path fill="#583e31" d="M90.4 33.4h2.2v16.01h-2.2z"/><path fill="#3f2c24" d="M90.4 38.27v-.89l2.2-2.19 1.79-1.79h.64v.24l-4.63 4.63zm0 3.45v-.88l4.63-4.64v.89l-4.63 4.63zm0 3.46v-.89l4.63-4.63v.89l-4.63 4.63zm0 3.45v-.89l4.63-4.63V44l-4.63 4.63z"/><circle cx="92.79" cy="32.53" r="3.45" fill="#ffb21a"/><path d="M92.79 36h.39a3.45 3.45 0 0 1 0-6.86h-.39a3.46 3.46 0 0 0 0 6.91z" fill="#ff990b"/><path d="M95.62 32.53A3.46 3.46 0 0 1 92.48 36h.31a3.46 3.46 0 0 0 0-6.91h-.31a3.46 3.46 0 0 1 3.14 3.44z" fill="#fdd224"/><circle cx="92.79" cy="49.48" r="3.45" fill="#ffb21a"/><path d="M95.77 49.48a3.46 3.46 0 0 1-3.22 3.45h.24a3.46 3.46 0 0 0 0-6.91h-.24a3.45 3.45 0 0 1 3.22 3.46z" fill="#fdd224"/><path d="M92.79 52.94H93A3.45 3.45 0 0 1 93 46h-.23a3.46 3.46 0 1 0 0 6.91z" fill="#ff990b"/><circle cx="92.79" cy="49.48" r="2.2" fill="#bc1b21"/><circle cx="94.05" cy="49.64" r=".63" fill="#fff"/><circle cx="92.79" cy="50.9" r=".25" fill="#fff"/><circle cx="91.61" cy="48.31" r=".31" fill="#96151f"/><path d="M89.19 179.51a.19.19 0 0 1 0-.07v-28.91h7.21v28.91a.17.17 0 0 1 0 .07l-3.61 7.06-1.94-3.78-.75-1.47-.76-1.48-.17-.33z" fill="#c9c2c9"/><path d="M89.19 179.51a.19.19 0 0 1 0-.07v-28.91h3.62v36l-1.94-3.78-.75-1.47-.76-1.48-.17-.33z" fill="#b2afb2"/><path fill="#d8d6d8" d="m90.1 181.32 2.69-2.69 3.61-3.61v2.22l-5.55 5.55-.75-1.47zm-.91-1.81a.19.19 0 0 1 0-.07v-.1l7.23-7.23v.66l-3.61 3.62-3.45 3.45-.17-.33zm-.02-14.1 3.62-3.62 3.61-3.61v-.67l-3.61 3.62-3.62 3.61v.67zm0 5.41v-2.23l3.62-3.61 3.61-3.62v2.23l-7.23 7.23zm0-14.13v-2.22l3.62-3.62.32-.32h2.22l-6.16 6.16z"/><path fill="#c9c2c9" d="m92.79 178.63-2.69 2.69.75 1.47 1.94-1.93v-2.23zm-3.62.88.17.33 3.45-3.45v-.67l-3.62 3.62v.1a.19.19 0 0 0 0 .07zm3.62-18.38-3.62 3.61v.67l3.62-3.62v-.66zm0 3.85-3.62 3.61v2.23l3.62-3.62v-2.22zm0-14.13-3.62 3.62v2.22l3.62-3.62v-2.22z"/><path d="M78.48 154.35a16.25 16.25 0 0 1 14.31-8.2 16.45 16.45 0 0 1 14.31 8.2 29.88 29.88 0 0 0-28.62 0z" fill="#ffb21a"/><path d="M92.79 147.56a16.67 16.67 0 0 1 12.85 6c.54.26 1 .52 1.46.76a16.45 16.45 0 0 0-14.31-8.2 16.25 16.25 0 0 0-14.31 8.2c.48-.26 1-.49 1.41-.72a16.58 16.58 0 0 1 12.9-6.04z" fill="#ff990b"/><path fill="#68442e" d="M90.4 132.5h4.63v16.01H90.4z"/><path fill="#583e31" d="M90.4 132.5h2.2v16.01h-2.2z"/><path fill="#3f2c24" d="M90.4 137.37v-.89l2.2-2.2 1.79-1.78h.64v.24l-4.63 4.63zm0 3.45v-.88l4.63-4.63v.88l-4.63 4.63zm0 3.46v-.89l4.63-4.63v.89l-4.63 4.63zm0 3.45v-.89l4.63-4.63v.89l-4.63 4.63z"/><circle cx="92.79" cy="131.63" r="3.45" fill="#ffb21a"/><path d="M92.79 135.09a2.56 2.56 0 0 0 .39 0 3.45 3.45 0 0 1 0-6.86h-.39a3.46 3.46 0 0 0 0 6.91z" fill="#ff990b"/><path d="M95.62 131.63a3.46 3.46 0 0 1-3.14 3.44h.31a3.46 3.46 0 0 0 0-6.91h-.31a3.46 3.46 0 0 1 3.14 3.47z" fill="#fdd224"/><circle cx="92.79" cy="148.58" r="3.45" fill="#ffb21a"/><path d="M95.77 148.58a3.46 3.46 0 0 1-3.22 3.42h.24a3.46 3.46 0 0 0 0-6.91h-.24a3.45 3.45 0 0 1 3.22 3.49z" fill="#fdd224"/><path d="M92.79 152H93a3.45 3.45 0 0 1 0-6.89h-.23a3.46 3.46 0 1 0 0 6.91z" fill="#ff990b"/><circle cx="92.79" cy="148.58" r="2.2" fill="#bc1b21"/><circle cx="94.05" cy="148.74" r=".63" fill="#fff"/><circle cx="92.79" cy="150" r=".25" fill="#fff"/><circle cx="91.61" cy="147.41" r=".31" fill="#96151f"/><path d="M49.64 135.24a.17.17 0 0 1 0 .07v28.91h-7.22v-28.91a.19.19 0 0 1 0-.07l3.58-7.06 2 3.82.75 1.47.76 1.48.17.33z" fill="#c9c2c9"/><path d="M49.64 135.24a.17.17 0 0 1 0 .07v28.91H46v-36l2 3.78.75 1.47.76 1.48.17.33z" fill="#b2afb2"/><path fill="#d8d6d8" d="m48.73 133.43-2.69 2.69-3.62 3.61v-2.22l5.55-5.55.76 1.47zm.91 1.81a.17.17 0 0 1 0 .07v.1l-7.23 7.23V142l3.59-3.64 3.44-3.45.17.33zm.01 14.1-3.61 3.62-3.62 3.61v.67l3.62-3.62 3.61-3.61v-.67zm0-5.41v2.23l-3.61 3.61-3.62 3.62v-2.22l7.23-7.24zm0 14.13v2.22l-3.61 3.62-.32.32H43.5l6.15-6.16z"/><path fill="#c9c2c9" d="m46.04 136.12 2.69-2.69-.76-1.47-1.93 1.93v2.23zm3.61-.88-.17-.33-3.48 3.45v.64l3.61-3.62v-.1a.17.17 0 0 0 0-.07zm-3.61 18.38 3.61-3.61v-.67l-3.61 3.62v.66zm0-3.85 3.61-3.61v-2.23l-3.61 3.62v2.22zm0 14.13 3.61-3.62v-2.22l-3.61 3.62v2.22z"/><path d="M60.35 160.4A16.27 16.27 0 0 1 46 168.6a16.44 16.44 0 0 1-14.31-8.2 29.88 29.88 0 0 0 28.62 0z" fill="#ffb21a"/><path d="M46 167.19a16.67 16.67 0 0 1-12.86-6c-.53-.26-1-.52-1.45-.76A16.44 16.44 0 0 0 46 168.6a16.27 16.27 0 0 0 14.31-8.2c-.48.26-1 .49-1.41.72a16.61 16.61 0 0 1-12.9 6.07z" fill="#ff990b"/><path fill="#68442e" d="M43.79 166.24h4.63v16.01h-4.63z"/><path fill="#583e31" d="M46.23 166.24h2.2v16.01h-2.2z"/><path fill="#3f2c24" d="M48.42 177.38v.89l-2.19 2.2-1.79 1.78h-.65v-.24l4.63-4.63zm0-3.45v.88l-4.63 4.63v-.88l4.63-4.63zm0-3.46v.89l-4.63 4.63v-.89l4.63-4.63zm0-3.45v.89l-4.63 4.63v-.89l4.63-4.63z"/><circle cx="46.03" cy="183.12" r="3.45" fill="#ffb21a"/><path d="M46 179.66a2.56 2.56 0 0 0-.39 0 3.45 3.45 0 0 1 0 6.86H46a3.46 3.46 0 1 0 0-6.91z" fill="#ff990b"/><path d="M43.21 183.12a3.46 3.46 0 0 1 3.14-3.44h-.32a3.46 3.46 0 0 0 0 6.91h.32a3.46 3.46 0 0 1-3.14-3.47z" fill="#fdd224"/><circle cx="46.04" cy="166.17" r="3.45" fill="#ffb21a"/><path d="M43.05 166.17a3.46 3.46 0 0 1 3.22-3.45H46a3.46 3.46 0 1 0 0 6.91h.23a3.45 3.45 0 0 1-3.18-3.46z" fill="#fdd224"/><path d="M46 162.71h-.2a3.45 3.45 0 0 1 0 6.89h.2a3.46 3.46 0 0 0 0-6.91z" fill="#ff990b"/><circle cx="46.04" cy="166.17" r="2.2" fill="#bc1b21"/><circle cx="44.78" cy="166.01" r=".63" fill="#fff"/><circle cx="46.03" cy="164.75" r=".25" fill="#fff"/><circle cx="47.21" cy="167.34" r=".31" fill="#96151f"/></svg>