<svg xmlns="http://www.w3.org/2000/svg" viewBox="0 0 138.83 215.65"><path fill="#fff" d="M0 0h138.82v215.65H0z"/><path fill="none" stroke="#7f664a" stroke-miterlimit="10" stroke-width=".5" d="M37.01 208.74H6.94V8.91h30.07m47.44 199.83H54.38M101.82 8.91h30.06v199.83h-30.06M54.38 8.91h30.07"/><path d="M18.66 10.81v.25A8.8 8.8 0 0 0 16 12.13a5.13 5.13 0 0 0-1.56 1.59 7.86 7.86 0 0 0-.86 2.28 2.38 2.38 0 0 1 .66-.35 4 4 0 0 1 1.18-.18 3 3 0 0 1 2.29 1 3.86 3.86 0 0 1 .92 2.72 5 5 0 0 1-.5 2.22A3.65 3.65 0 0 1 16.72 23a3.78 3.78 0 0 1-4-.07 4.08 4.08 0 0 1-1.49-1.81 6.24 6.24 0 0 1-.54-2.6 7.73 7.73 0 0 1 1-3.83 7.41 7.41 0 0 1 2.81-2.83 8.38 8.38 0 0 1 4.16-1.05zm-5.2 6c-.05.83-.07 1.44-.07 1.83a11.94 11.94 0 0 0 .24 2.36 3.77 3.77 0 0 0 .65 1.64.93.93 0 0 0 .72.36.92.92 0 0 0 .74-.48 4 4 0 0 0 .32-2 6.94 6.94 0 0 0-.6-3.44 1.19 1.19 0 0 0-1-.61 2.17 2.17 0 0 0-1 .3z" fill="#7f664a"/><path fill="none" stroke="#7f664a" stroke-miterlimit="10" stroke-width=".5" d="M10.33 24.93h9.17"/><path d="M128.32 191.14v.26a8.34 8.34 0 0 0-2.62 1.07 5.06 5.06 0 0 0-1.57 1.59 7.65 7.65 0 0 0-.88 2.32 2.58 2.58 0 0 1 .65-.36 4.09 4.09 0 0 1 1.19-.18 3 3 0 0 1 2.29 1 3.87 3.87 0 0 1 .91 2.72 5 5 0 0 1-.49 2.23 3.73 3.73 0 0 1-3.36 2.11 3.79 3.79 0 0 1-2.09-.62 4 4 0 0 1-1.49-1.81 6.19 6.19 0 0 1-.54-2.59 7.76 7.76 0 0 1 1-3.84 7.41 7.41 0 0 1 2.81-2.83 8.45 8.45 0 0 1 4.19-1.07zm-5.19 6c0 .83-.08 1.44-.08 1.82a11.87 11.87 0 0 0 .24 2.41A3.59 3.59 0 0 0 124 203a.91.91 0 0 0 .7.33.9.9 0 0 0 .74-.48 3.9 3.9 0 0 0 .33-2 7 7 0 0 0-.6-3.44 1.19 1.19 0 0 0-1.05-.61 2.17 2.17 0 0 0-.99.31z" fill="#7f664a"/><path fill="none" stroke="#7f664a" stroke-miterlimit="10" stroke-width=".5" d="M120 205.26h9.17"/><path d="M73.31 29.32a.17.17 0 0 1 0 .07v31.26H65.5V29.39a.19.19 0 0 1 0-.07l3.91-7.64 2.1 4.08.81 1.6.82 1.6.18.36z" fill="#c9c2c9"/><path d="M73.31 29.32a.17.17 0 0 1 0 .07v31.26h-3.9v-39l2.1 4.08.81 1.6.82 1.6.18.36z" fill="#b2afb2"/><path fill="#d8d6d8" d="m72.32 27.36-2.91 2.9-3.91 3.91v-2.4l6-6 .82 1.59zm.99 1.96a.17.17 0 0 1 0 .07v.11l-7.81 7.82v-.72l3.91-3.91L73.14 29l.18.36zm.01 15.24-3.91 3.91-3.91 3.91v.72l3.91-3.91 3.91-3.91v-.72zm0-5.85v2.41l-3.91 3.91-3.91 3.91v-2.41l7.82-7.82zm0 15.28v2.4l-3.91 3.91-.34.35h-2.4l6.65-6.66z"/><path fill="#c9c2c9" d="m69.41 30.26 2.91-2.9-.82-1.59-2.09 2.09v2.4zm3.91-.94-.18-.32-3.73 3.73v.72l3.91-3.91v-.11a.17.17 0 0 0 0-.07zm-3.91 19.87 3.91-3.91v-.72l-3.91 3.91v.72zm0-4.16 3.91-3.91v-2.41l-3.91 3.91v2.41zm0 15.27 3.91-3.91v-2.4l-3.91 3.91v2.4z"/><path d="M84.88 56.52a17.6 17.6 0 0 1-15.47 8.87c-3.59.19-11.51-1.68-15.47-8.87a32.34 32.34 0 0 0 30.94 0z" fill="#ffb21a"/><path d="M69.41 63.86a18 18 0 0 1-13.9-6.52c-.58-.28-1.1-.56-1.57-.82 4 7.19 11.88 9.06 15.47 8.87a17.6 17.6 0 0 0 15.47-8.87c-.51.28-1 .53-1.52.77a17.9 17.9 0 0 1-13.95 6.57z" fill="#ff990b"/><path fill="#68442e" d="M66.99 62.84H72v17.31h-5.01z"/><path fill="#583e31" d="M69.62 62.84H72v17.31h-2.38z"/><path fill="#3f2c24" d="M71.99 74.88v.96l-2.37 2.37-1.94 1.94h-.69v-.27l5-5zm0-3.74v.96l-5 5.01v-.96l5-5.01zm0-3.73v.96l-5 5.01v-.96l5-5.01zm0-3.73v.96l-5 5v-.96l5-5z"/><circle cx="69.41" cy="81.08" r="3.73" fill="#ffb21a"/><path d="M69.41 77.35h-.43a3.73 3.73 0 0 1 0 7.42 3.11 3.11 0 0 0 .43 0 3.74 3.74 0 0 0 0-7.47z" fill="#ff990b"/><path d="M66.35 81.08a3.75 3.75 0 0 1 3.4-3.72h-.34a3.74 3.74 0 0 0 0 7.47h.34a3.74 3.74 0 0 1-3.4-3.75z" fill="#fdd224"/><circle cx="69.41" cy="62.75" r="3.73" fill="#ffb21a"/><path d="M66.18 62.75A3.74 3.74 0 0 1 69.67 59h-.26a3.74 3.74 0 0 0 0 7.47h.26a3.74 3.74 0 0 1-3.49-3.72z" fill="#fdd224"/><path d="M69.41 59h-.25a3.73 3.73 0 0 1 0 7.45h.25a3.74 3.74 0 1 0 0-7.47z" fill="#ff990b"/><circle cx="69.41" cy="62.75" r="2.38" fill="#bc1b21"/><circle cx="68.05" cy="62.58" r=".68" fill="#fff"/><circle cx="69.41" cy="61.22" r=".27" fill="#fff"/><circle cx="70.68" cy="64.03" r=".34" fill="#96151f"/><path d="M65.52 186.33a.19.19 0 0 1 0-.07V155h7.82v31.26a.17.17 0 0 1 0 .07L69.41 194l-2.09-4.08-.81-1.6-.82-1.6-.19-.36z" fill="#c9c2c9"/><path d="M65.52 186.33a.19.19 0 0 1 0-.07V155h3.91v39l-2.09-4.08-.81-1.6-.82-1.6-.19-.36z" fill="#b2afb2"/><path fill="#d8d6d8" d="m66.51 188.29 2.9-2.9 3.91-3.91v2.4l-6 6-.81-1.59zm-.99-1.96a.19.19 0 0 1 0-.07v-.11l7.82-7.82v.72L69.41 183l-3.72 3.73-.19-.36zm-.02-15.24 3.91-3.91 3.91-3.91v-.72l-3.91 3.91-3.91 3.91v.72zm0 5.85v-2.41l3.91-3.91 3.91-3.91v2.41l-7.82 7.82zm0-15.28v-2.4l3.91-3.91.35-.35h2.4l-6.66 6.66z"/><path fill="#c9c2c9" d="m69.41 185.39-2.9 2.9.81 1.59 2.09-2.09v-2.4zm-3.91.94.19.36 3.72-3.69v-.72l-3.91 3.91v.11a.19.19 0 0 0 0 .07zm3.91-19.87-3.91 3.91v.72l3.91-3.91v-.72zm0 4.16-3.91 3.91v2.41l3.91-3.91v-2.41zm0-15.27-3.91 3.91v2.4l3.91-3.91v-2.4z"/><path d="M53.94 159.13a17.6 17.6 0 0 1 15.47-8.87c3.59-.19 11.51 1.68 15.47 8.87a32.34 32.34 0 0 0-30.94 0z" fill="#ffb21a"/><path d="M69.41 151.79a18 18 0 0 1 13.9 6.52c.58.28 1.11.56 1.57.82-4-7.19-11.88-9.06-15.47-8.87a17.6 17.6 0 0 0-15.47 8.87c.52-.28 1-.53 1.53-.77a17.87 17.87 0 0 1 13.94-6.57z" fill="#ff990b"/><path fill="#68442e" d="M66.83 135.5h5.01v17.31h-5.01z"/><path fill="#583e31" d="M66.83 135.5h2.38v17.31h-2.38z"/><path fill="#3f2c24" d="M66.83 140.77v-.96l2.38-2.37 1.93-1.94h.7v.27l-5.01 5zm0 3.74v-.96l5.01-5.01v.96l-5.01 5.01zm0 3.73v-.96l5.01-5.01v.96l-5.01 5.01zm0 3.73v-.96l5.01-5v.96l-5.01 5z"/><circle cx="69.42" cy="134.57" r="3.73" fill="#ffb21a"/><path d="M69.42 138.3h.42a3.73 3.73 0 0 1 0-7.42 3 3 0 0 0-.42 0 3.74 3.74 0 1 0 0 7.47z" fill="#ff990b"/><path d="M72.47 134.57a3.74 3.74 0 0 1-3.39 3.72h.34a3.74 3.74 0 0 0 0-7.47h-.34a3.73 3.73 0 0 1 3.39 3.75z" fill="#fdd224"/><circle cx="69.41" cy="152.9" r="3.73" fill="#ffb21a"/><path d="M72.64 152.9a3.74 3.74 0 0 1-3.48 3.72h.25a3.74 3.74 0 1 0 0-7.47h-.25a3.74 3.74 0 0 1 3.48 3.75z" fill="#fdd224"/><path d="M69.41 156.63h.26a3.73 3.73 0 0 1 0-7.45h-.26a3.74 3.74 0 0 0 0 7.47z" fill="#ff990b"/><circle cx="69.41" cy="152.9" r="2.38" fill="#bc1b21"/><circle cx="70.77" cy="153.07" r=".68" fill="#fff"/><circle cx="69.42" cy="154.43" r=".27" fill="#fff"/><circle cx="68.14" cy="151.62" r=".34" fill="#96151f"/><path d="M107.58 77.18a.19.19 0 0 1 0-.08V45.85h7.82V77.1a.19.19 0 0 1 0 .08l-3.91 7.64-2.09-4.09-.81-1.59-.82-1.6-.19-.36z" fill="#c9c2c9"/><path d="M107.58 77.18a.19.19 0 0 1 0-.08V45.85h3.91v39l-2.09-4.09-.81-1.59-.82-1.6-.19-.36z" fill="#b2afb2"/><path fill="#d8d6d8" d="m108.57 79.14 2.9-2.91 3.91-3.9v2.4l-6 6-.81-1.59zm-.99-1.96a.19.19 0 0 1 0-.08V77l7.82-7.82v.72l-3.91 3.91-3.72 3.73-.19-.36zm-.02-15.25 3.91-3.91 3.91-3.91v-.72l-3.91 3.91-3.91 3.92v.71zm0 5.85v-2.4l3.91-3.91 3.91-3.91v2.4l-7.82 7.82zm0-15.27V50.1l3.91-3.91.35-.34h2.4l-6.66 6.66z"/><path fill="#c9c2c9" d="m111.47 76.23-2.9 2.91.81 1.59 2.09-2.09v-2.41zm-3.91.95.19.36 3.72-3.73v-.72L107.56 77v.1a.19.19 0 0 0 0 .08zm3.91-19.88-3.91 3.92v.71l3.91-3.91v-.72zm0 4.17-3.91 3.91v2.4l3.91-3.91v-2.4zm0-15.28-3.91 3.91v2.41l3.91-3.91v-2.41z"/><path d="M96 50a17.6 17.6 0 0 1 15.47-8.87c3.59-.19 11.51 1.67 15.47 8.87A32.27 32.27 0 0 0 96 50z" fill="#ffb21a"/><path d="M111.47 42.64a18 18 0 0 1 13.9 6.52c.58.28 1.11.56 1.57.82-4-7.2-11.88-9.06-15.47-8.87A17.6 17.6 0 0 0 96 50q.78-.42 1.53-.78a17.9 17.9 0 0 1 13.94-6.58z" fill="#ff990b"/><path fill="#68442e" d="M108.89 26.35h5.01v17.31h-5.01z"/><path fill="#583e31" d="M108.89 26.35h2.38v17.31h-2.38z"/><path fill="#3f2c24" d="M108.89 31.62v-.96l2.38-2.38 1.93-1.93h.7v.26l-5.01 5.01zm0 3.73v-.96l5.01-5v.96l-5.01 5zm0 3.74v-.96l5.01-5.01v.96l-5.01 5.01zm0 3.73v-.96l5.01-5.01v.96l-5.01 5.01z"/><circle cx="111.48" cy="25.41" r="3.73" fill="#ffb21a"/><path d="M111.48 29.15a3 3 0 0 0 .42 0 3.73 3.73 0 0 1 0-7.42h-.42a3.74 3.74 0 1 0 0 7.47z" fill="#ff990b"/><path d="M114.53 25.41a3.73 3.73 0 0 1-3.39 3.72h.34a3.74 3.74 0 0 0 0-7.47h-.34a3.73 3.73 0 0 1 3.39 3.75z" fill="#fdd224"/><circle cx="111.47" cy="43.74" r="3.73" fill="#ffb21a"/><path d="M114.7 43.74a3.74 3.74 0 0 1-3.48 3.73h.25a3.74 3.74 0 1 0 0-7.47h-.25a3.74 3.74 0 0 1 3.48 3.74z" fill="#fdd224"/><path d="M111.47 47.48h.26a3.73 3.73 0 0 1 0-7.45h-.26a3.74 3.74 0 0 0 0 7.47z" fill="#ff990b"/><circle cx="111.47" cy="43.74" r="2.38" fill="#bc1b21"/><circle cx="112.83" cy="43.91" r=".68" fill="#fff"/><circle cx="111.48" cy="45.27" r=".27" fill="#fff"/><circle cx="110.2" cy="42.47" r=".34" fill="#96151f"/><path d="M31.25 138.47a.19.19 0 0 1 0 .08v31.25h-7.81v-31.25a.19.19 0 0 1 0-.08l3.91-7.64 2.1 4.09.81 1.59.82 1.6.18.36z" fill="#c9c2c9"/><path d="M31.25 138.47a.19.19 0 0 1 0 .08v31.25h-3.9v-39l2.1 4.09.81 1.59.82 1.6.18.36z" fill="#b2afb2"/><path fill="#d8d6d8" d="m30.26 136.51-2.91 2.9-3.91 3.91v-2.4l6.01-6 .81 1.59zm.99 1.96a.19.19 0 0 1 0 .08v.1l-7.82 7.82v-.72l3.91-3.91 3.73-3.73.18.36zm.01 15.25-3.91 3.91-3.91 3.91v.72l3.91-3.91 3.91-3.91v-.72zm0-5.85v2.4l-3.91 3.91-3.91 3.91v-2.4l7.82-7.82zm0 15.27v2.4l-3.91 3.92-.34.34h-2.4l6.65-6.66z"/><path fill="#c9c2c9" d="m27.35 139.41 2.91-2.9-.81-1.59-2.1 2.09v2.4zm3.91-.94-.18-.36-3.73 3.73v.72l3.91-3.91v-.1a.19.19 0 0 0 0-.08zm-3.91 19.88 3.91-3.91v-.72l-3.91 3.91v.72zm0-4.17 3.91-3.91v-2.4l-3.91 3.91v2.4zm0 15.28 3.91-3.92v-2.4l-3.91 3.91v2.41z"/><path d="M42.82 165.67a17.58 17.58 0 0 1-15.47 8.87c-3.59.19-11.51-1.67-15.47-8.87a31.68 31.68 0 0 0 15.47 4 31.65 31.65 0 0 0 15.47-4z" fill="#ffb21a"/><path d="M27.35 173a18 18 0 0 1-13.9-6.52c-.58-.28-1.1-.56-1.57-.82 4 7.2 11.88 9.06 15.47 8.87a17.58 17.58 0 0 0 15.47-8.87c-.51.28-1 .54-1.52.78A17.92 17.92 0 0 1 27.35 173z" fill="#ff990b"/><path fill="#68442e" d="M24.93 171.99h5.01v17.31h-5.01z"/><path fill="#583e31" d="M27.56 171.99h2.38v17.31h-2.38z"/><path fill="#3f2c24" d="M29.93 184.03v.96l-2.37 2.38-1.94 1.93h-.69v-.26l5-5.01zm0-3.73v.96l-5 5v-.96l5-5zm0-3.74v.96l-5 5.01v-.96l5-5.01zm0-3.73v.96l-5 5.01v-.96l5-5.01z"/><circle cx="27.35" cy="190.24" r="3.73" fill="#ffb21a"/><path d="M27.35 186.5a3.11 3.11 0 0 0-.43 0 3.73 3.73 0 0 1 0 7.42h.43a3.74 3.74 0 0 0 0-7.47z" fill="#ff990b"/><path d="M24.29 190.24a3.74 3.74 0 0 1 3.4-3.72h-.34a3.74 3.74 0 0 0 0 7.47h.34a3.74 3.74 0 0 1-3.4-3.75z" fill="#fdd224"/><circle cx="27.35" cy="171.91" r="3.73" fill="#ffb21a"/><path d="M24.12 171.91a3.74 3.74 0 0 1 3.49-3.73h-.26a3.74 3.74 0 0 0 0 7.47h.26a3.74 3.74 0 0 1-3.49-3.74z" fill="#fdd224"/><path d="M27.35 168.17h-.25a3.73 3.73 0 0 1 0 7.45h.25a3.74 3.74 0 1 0 0-7.47z" fill="#ff990b"/><circle cx="27.35" cy="171.91" r="2.38" fill="#bc1b21"/><circle cx="25.99" cy="171.74" r=".68" fill="#fff"/><circle cx="27.35" cy="170.38" r=".27" fill="#fff"/><circle cx="28.62" cy="173.18" r=".34" fill="#96151f"/><path d="M23.46 77.18a.19.19 0 0 1 0-.08V45.85h7.82V77.1a.19.19 0 0 1 0 .08l-3.91 7.64-2.09-4.09-.81-1.59-.82-1.6-.19-.36z" fill="#c9c2c9"/><path d="M23.46 77.18a.19.19 0 0 1 0-.08V45.85h3.91v39l-2.09-4.09-.81-1.59-.82-1.6-.19-.36z" fill="#b2afb2"/><path fill="#d8d6d8" d="m24.45 79.14 2.9-2.91 3.91-3.9v2.4l-6 6-.81-1.59zm-.99-1.96a.19.19 0 0 1 0-.08V77l7.82-7.82v.72l-3.91 3.91-3.72 3.73-.19-.36zm-.02-15.25 3.91-3.91 3.91-3.91v-.72l-3.91 3.91-3.91 3.92v.71zm0 5.85v-2.4l3.91-3.91 3.91-3.91v2.4l-7.82 7.82zm0-15.27V50.1l3.91-3.91.35-.34h2.4l-6.66 6.66z"/><path fill="#c9c2c9" d="m27.35 76.23-2.9 2.91.81 1.59 2.09-2.09v-2.41zm-3.91.95.19.36 3.72-3.73v-.72L23.44 77v.1a.19.19 0 0 0 0 .08zm3.91-19.88-3.91 3.92v.71l3.91-3.91v-.72zm0 4.17-3.91 3.91v2.4l3.91-3.91v-2.4zm0-15.28-3.91 3.91v2.41l3.91-3.91v-2.41z"/><path d="M11.88 50a17.6 17.6 0 0 1 15.47-8.87c3.59-.19 11.51 1.67 15.47 8.87a31.65 31.65 0 0 0-15.47-4 31.67 31.67 0 0 0-15.47 4z" fill="#ffb21a"/><path d="M27.35 42.64a18 18 0 0 1 13.9 6.52c.58.28 1.11.56 1.57.82-4-7.2-11.88-9.06-15.47-8.87A17.6 17.6 0 0 0 11.88 50q.78-.42 1.53-.78a17.9 17.9 0 0 1 13.94-6.58z" fill="#ff990b"/><path fill="#68442e" d="M24.77 26.35h5.01v17.31h-5.01z"/><path fill="#583e31" d="M24.77 26.35h2.38v17.31h-2.38z"/><path fill="#3f2c24" d="M24.77 31.62v-.96l2.38-2.38 1.93-1.93h.7v.26l-5.01 5.01zm0 3.73v-.96l5.01-5v.96l-5.01 5zm0 3.74v-.96l5.01-5.01v.96l-5.01 5.01zm0 3.73v-.96l5.01-5.01v.96l-5.01 5.01z"/><circle cx="27.36" cy="25.41" r="3.73" fill="#ffb21a"/><path d="M27.36 29.15a3 3 0 0 0 .42 0 3.73 3.73 0 0 1 0-7.42h-.42a3.74 3.74 0 1 0 0 7.47z" fill="#ff990b"/><path d="M30.41 25.41A3.73 3.73 0 0 1 27 29.13h.34a3.74 3.74 0 0 0 0-7.47H27a3.73 3.73 0 0 1 3.41 3.75z" fill="#fdd224"/><circle cx="27.35" cy="43.74" r="3.73" fill="#ffb21a"/><path d="M30.58 43.74a3.74 3.74 0 0 1-3.48 3.73h.25a3.74 3.74 0 1 0 0-7.47h-.25a3.74 3.74 0 0 1 3.48 3.74z" fill="#fdd224"/><path d="M27.35 47.48h.26a3.73 3.73 0 0 1 0-7.45h-.26a3.74 3.74 0 0 0 0 7.47z" fill="#ff990b"/><circle cx="27.35" cy="43.74" r="2.38" fill="#bc1b21"/><circle cx="28.71" cy="43.91" r=".68" fill="#fff"/><circle cx="27.36" cy="45.27" r=".27" fill="#fff"/><circle cx="26.08" cy="42.47" r=".34" fill="#96151f"/><path d="M115.37 138.47a.19.19 0 0 1 0 .08v31.25h-7.82v-31.25a.19.19 0 0 1 0-.08l3.91-7.64 2.1 4.09.81 1.59.82 1.6.18.36z" fill="#c9c2c9"/><path d="M115.37 138.47a.19.19 0 0 1 0 .08v31.25h-3.91v-39l2.1 4.09.81 1.59.82 1.6.18.36z" fill="#b2afb2"/><path fill="#d8d6d8" d="m114.38 136.51-2.91 2.9-3.91 3.91v-2.4l6-6 .82 1.59zm.99 1.96a.19.19 0 0 1 0 .08v.1l-7.82 7.82v-.72l3.91-3.91 3.73-3.73.18.36zm.01 15.25-3.91 3.91-3.91 3.91v.72l3.91-3.91 3.91-3.91v-.72zm0-5.85v2.4l-3.91 3.91-3.91 3.91v-2.4l7.82-7.82zm0 15.27v2.4l-3.91 3.92-.34.34h-2.41l6.66-6.66z"/><path fill="#c9c2c9" d="m111.47 139.41 2.91-2.9-.82-1.59-2.09 2.09v2.4zm3.91-.94-.18-.36-3.73 3.73v.72l3.91-3.91v-.1a.19.19 0 0 0 0-.08zm-3.91 19.88 3.91-3.91v-.72l-3.91 3.91v.72zm0-4.17 3.91-3.91v-2.4l-3.91 3.91v2.4zm0 15.28 3.91-3.92v-2.4l-3.91 3.91v2.41z"/><path d="M126.94 165.67a17.6 17.6 0 0 1-15.47 8.87c-3.59.19-11.51-1.67-15.47-8.87a32.27 32.27 0 0 0 30.94 0z" fill="#ffb21a"/><path d="M111.47 173a18 18 0 0 1-13.9-6.52c-.58-.28-1.1-.56-1.57-.82 4 7.2 11.88 9.06 15.47 8.87a17.6 17.6 0 0 0 15.47-8.87c-.51.28-1 .54-1.52.78a17.92 17.92 0 0 1-13.95 6.56z" fill="#ff990b"/><path fill="#68442e" d="M109.05 171.99h5.01v17.31h-5.01z"/><path fill="#583e31" d="M111.68 171.99h2.38v17.31h-2.38z"/><path fill="#3f2c24" d="M114.05 184.03v.96l-2.37 2.38-1.94 1.93h-.69v-.26l5-5.01zm0-3.73v.96l-5 5v-.96l5-5zm0-3.74v.96l-5 5.01v-.96l5-5.01zm0-3.73v.96l-5 5.01v-.96l5-5.01z"/><circle cx="111.47" cy="190.24" r="3.73" fill="#ffb21a"/><path d="M111.47 186.5a3.11 3.11 0 0 0-.43 0 3.73 3.73 0 0 1 0 7.42h.43a3.74 3.74 0 0 0 0-7.47z" fill="#ff990b"/><path d="M108.41 190.24a3.74 3.74 0 0 1 3.4-3.72h-.34a3.74 3.74 0 0 0 0 7.47h.34a3.74 3.74 0 0 1-3.4-3.75z" fill="#fdd224"/><circle cx="111.47" cy="171.91" r="3.73" fill="#ffb21a"/><path d="M108.24 171.91a3.74 3.74 0 0 1 3.49-3.73h-.26a3.74 3.74 0 0 0 0 7.47h.26a3.74 3.74 0 0 1-3.49-3.74z" fill="#fdd224"/><path d="M111.47 168.17h-.25a3.73 3.73 0 0 1 0 7.45h.25a3.74 3.74 0 1 0 0-7.47z" fill="#ff990b"/><circle cx="111.47" cy="171.91" r="2.38" fill="#bc1b21"/><circle cx="110.11" cy="171.74" r=".68" fill="#fff"/><circle cx="111.47" cy="170.38" r=".27" fill="#fff"/><circle cx="112.74" cy="173.18" r=".34" fill="#96151f"/></svg>