<svg xmlns="http://www.w3.org/2000/svg" viewBox="0 0 138.83 215.65"><path fill="#fff" d="M0 0h138.82v215.65H0z"/><path fill="none" stroke="#7f664a" stroke-miterlimit="10" stroke-width=".5" d="M37.01 208.74H6.94V8.91h30.07m47.44 199.83H54.38M101.82 8.91h30.06v199.83h-30.06M54.38 8.91h30.07"/><path d="M15.22 16.6A7 7 0 0 1 17 18.36a3.57 3.57 0 0 1 .5 1.88 3.24 3.24 0 0 1-1.12 2.5 4.27 4.27 0 0 1-3 1 4.08 4.08 0 0 1-2.81-.89 2.85 2.85 0 0 1-1-2.19 2.77 2.77 0 0 1 .57-1.66 5.07 5.07 0 0 1 1.91-1.35 7.37 7.37 0 0 1-1.86-1.82 3.11 3.11 0 0 1-.41-1.63 2.84 2.84 0 0 1 1-2.17 4.15 4.15 0 0 1 2.86-.93 4 4 0 0 1 2.7.82 2.6 2.6 0 0 1 .94 2 2.43 2.43 0 0 1-.51 1.53 4.53 4.53 0 0 1-1.55 1.15zM12.73 18a1.94 1.94 0 0 0-.4.46 3.44 3.44 0 0 0-.32.92 5.32 5.32 0 0 0-.15 1.27 4.11 4.11 0 0 0 .22 1.42 1.59 1.59 0 0 0 .62.83 1.52 1.52 0 0 0 .83.25 1.48 1.48 0 0 0 1.11-.48 1.88 1.88 0 0 0 .45-1.33c0-1.12-.79-2.24-2.36-3.34zm1.81-1.9a3.11 3.11 0 0 0 .49-1 4.28 4.28 0 0 0 .17-1.22 2.76 2.76 0 0 0-.51-1.8 1.26 1.26 0 0 0-1-.48 1.37 1.37 0 0 0-1 .44 1.5 1.5 0 0 0-.42 1.09 2.48 2.48 0 0 0 .47 1.36 6.58 6.58 0 0 0 1.8 1.65zm112.02 180.83a6.64 6.64 0 0 1 1.79 1.77 3.44 3.44 0 0 1 .5 1.87 3.3 3.3 0 0 1-1.11 2.51 4.34 4.34 0 0 1-3 1 4.07 4.07 0 0 1-2.81-.89 2.83 2.83 0 0 1-1-2.19 2.69 2.69 0 0 1 .58-1.72 5 5 0 0 1 1.91-1.36 7.46 7.46 0 0 1-1.87-1.81 3.25 3.25 0 0 1-.41-1.64 2.83 2.83 0 0 1 1-2.16 4.11 4.11 0 0 1 2.86-.94 4 4 0 0 1 2.7.83 2.54 2.54 0 0 1 .94 2 2.43 2.43 0 0 1-.51 1.53 4.46 4.46 0 0 1-1.57 1.2zm-2.5 1.45a1.7 1.7 0 0 0-.39.46 3.63 3.63 0 0 0-.33.92 5.18 5.18 0 0 0-.14 1.26 4.23 4.23 0 0 0 .21 1.43 1.62 1.62 0 0 0 .62.82 1.56 1.56 0 0 0 .83.26A1.47 1.47 0 0 0 126 203a1.85 1.85 0 0 0 .45-1.32c-.03-1.13-.81-2.24-2.39-3.3zm1.81-1.91a3.29 3.29 0 0 0 .5-1 4.41 4.41 0 0 0 .16-1.23 2.8 2.8 0 0 0-.51-1.8 1.25 1.25 0 0 0-1-.48 1.38 1.38 0 0 0-1 .44 1.49 1.49 0 0 0-.43 1.09 2.47 2.47 0 0 0 .48 1.37 6.66 6.66 0 0 0 1.8 1.61z" fill="#7f664a"/><path d="M51.59 77.11a.24.24 0 0 1 0-.08V45.78h7.81V77a.24.24 0 0 1 0 .08l-3.92 7.63-2.09-4.08-.81-1.59-.82-1.61-.19-.35z" fill="#c9c2c9"/><path d="M51.59 77.11a.24.24 0 0 1 0-.08V45.78h3.91v39l-2.09-4.08-.81-1.59-.82-1.61-.19-.35z" fill="#b2afb2"/><path fill="#d8d6d8" d="m52.58 79.07 2.9-2.91 3.92-3.91v2.41l-6.01 6-.81-1.59zm-.99-1.96a.24.24 0 0 1 0-.08v-.1l7.83-7.82v.71l-3.92 3.92-3.72 3.72-.19-.35zm-.02-15.25 3.91-3.91 3.92-3.91v-.72l-3.92 3.91-3.91 3.91v.72zm0 5.85v-2.4l3.91-3.91 3.92-3.91v2.4l-7.83 7.82zm0-15.27v-2.41l3.91-3.91.35-.34h2.4l-6.66 6.66z"/><path fill="#c9c2c9" d="m55.48 76.16-2.9 2.91.81 1.59 2.09-2.09v-2.41zm-3.91.95.19.35 3.72-3.72V73l-3.91 3.91V77a.24.24 0 0 0 0 .08zm3.91-19.88-3.91 3.91v.72l3.91-3.91v-.72zm0 4.17-3.91 3.91v2.4l3.91-3.91v-2.4zm0-15.28-3.91 3.91v2.41l3.91-3.92v-2.4z"/><path d="M40 49.91A17.58 17.58 0 0 1 55.48 41 17.76 17.76 0 0 1 71 49.91a32.29 32.29 0 0 0-30.95 0z" fill="#ffb21a"/><path d="M55.48 42.56a18 18 0 0 1 13.91 6.53c.58.28 1.1.55 1.57.82A17.76 17.76 0 0 0 55.48 41 17.58 17.58 0 0 0 40 49.91q.78-.42 1.53-.78a17.92 17.92 0 0 1 13.95-6.57z" fill="#ff990b"/><path fill="#68442e" d="M52.9 26.27h5.01v17.31H52.9z"/><path fill="#583e31" d="M52.9 26.27h2.38v17.31H52.9z"/><path fill="#3f2c24" d="M52.9 31.55v-.96l2.38-2.38 1.93-1.94h.7v.27l-5.01 5.01zm0 3.73v-.96l5.01-5.01v.96l-5.01 5.01zm0 3.73v-.96l5.01-5v.96l-5.01 5zm0 3.74v-.96l5.01-5.01v.96l-5.01 5.01z"/><circle cx="55.49" cy="25.34" r="3.73" fill="#ffb21a"/><path d="M55.49 29.07a3 3 0 0 0 .42 0 3.73 3.73 0 0 1 0-7.42h-.42a3.73 3.73 0 1 0 0 7.46z" fill="#ff990b"/><path d="M58.54 25.34a3.73 3.73 0 0 1-3.39 3.72h.34a3.73 3.73 0 0 0 0-7.46h-.34a3.73 3.73 0 0 1 3.39 3.74z" fill="#fdd224"/><circle cx="55.48" cy="43.67" r="3.73" fill="#ffb21a"/><path d="M58.71 43.67a3.72 3.72 0 0 1-3.48 3.72h.25a3.73 3.73 0 1 0 0-7.46h-.25a3.72 3.72 0 0 1 3.48 3.74z" fill="#fdd224"/><path d="M55.48 47.4h.26a3.73 3.73 0 0 1 0-7.44h-.26a3.73 3.73 0 0 0 0 7.46z" fill="#ff990b"/><circle cx="55.48" cy="43.67" r="2.38" fill="#bc1b21"/><circle cx="56.85" cy="43.84" r=".68" fill="#fff"/><circle cx="55.49" cy="45.2" r=".27" fill="#fff"/><circle cx="54.22" cy="42.4" r=".34" fill="#96151f"/><path d="M31.23 29.24a.22.22 0 0 1 0 .08v31.25h-7.81V29.32a.24.24 0 0 1 0-.08l3.91-7.63 2.1 4.08.81 1.59.82 1.61.18.35z" fill="#c9c2c9"/><path d="M31.23 29.24a.22.22 0 0 1 0 .08v31.25h-3.9v-39l2.1 4.08.81 1.59.82 1.61.18.35z" fill="#b2afb2"/><path fill="#d8d6d8" d="m30.24 27.28-2.91 2.91-3.91 3.91v-2.4l6.01-6.01.81 1.59zm.99 1.96a.22.22 0 0 1 0 .08v.1l-7.82 7.82v-.71l3.91-3.92 3.73-3.72.18.35zm.01 15.25-3.91 3.91-3.91 3.91v.72l3.91-3.91 3.91-3.91v-.72zm0-5.85v2.4l-3.91 3.91-3.91 3.91v-2.4l7.82-7.82zm0 15.27v2.41l-3.91 3.91-.34.34h-2.4l6.65-6.66z"/><path fill="#c9c2c9" d="m27.33 30.19 2.91-2.91-.81-1.59-2.1 2.09v2.41zm3.91-.95-.18-.35-3.73 3.72v.72l3.91-3.91v-.1a.22.22 0 0 0 0-.08zm-3.91 19.88 3.91-3.91v-.72l-3.91 3.91v.72zm0-4.17 3.91-3.91v-2.4l-3.91 3.91v2.4zm0 15.28 3.91-3.91v-2.41l-3.91 3.92v2.4z"/><path d="M42.81 56.44a17.6 17.6 0 0 1-15.48 8.87 17.75 17.75 0 0 1-15.47-8.87 31.72 31.72 0 0 0 15.47 4 31.7 31.7 0 0 0 15.48-4z" fill="#ffb21a"/><path d="M27.33 63.78a18 18 0 0 1-13.9-6.52c-.58-.28-1.1-.55-1.57-.82a17.75 17.75 0 0 0 15.47 8.87 17.6 17.6 0 0 0 15.48-8.87q-.78.42-1.53.78a17.89 17.89 0 0 1-13.95 6.56z" fill="#ff990b"/><path fill="#68442e" d="M24.91 62.76h5.01v17.31h-5.01z"/><path fill="#583e31" d="M27.54 62.76h2.38v17.31h-2.38z"/><path fill="#3f2c24" d="M29.91 74.8v.97l-2.37 2.37-1.94 1.94h-.69v-.27l5-5.01zm0-3.73v.96l-5 5.01v-.96l5-5.01zm0-3.73v.96l-5 5v-.96l5-5zm0-3.74v.96l-5 5.01v-.96l5-5.01z"/><circle cx="27.33" cy="81.01" r="3.73" fill="#ffb21a"/><path d="M27.33 77.28a3 3 0 0 0-.42 0 3.73 3.73 0 0 1 0 7.42h.42a3.73 3.73 0 1 0 0-7.46z" fill="#ff990b"/><path d="M24.28 81a3.73 3.73 0 0 1 3.39-3.72h-.34a3.73 3.73 0 1 0 0 7.46h.34A3.73 3.73 0 0 1 24.28 81z" fill="#fdd224"/><circle cx="27.33" cy="62.68" r="3.73" fill="#ffb21a"/><path d="M24.11 62.68A3.72 3.72 0 0 1 27.59 59h-.26a3.73 3.73 0 0 0 0 7.46h.26a3.72 3.72 0 0 1-3.48-3.78z" fill="#fdd224"/><path d="M27.33 59h-.25a3.73 3.73 0 0 1 0 7.44h.25a3.73 3.73 0 1 0 0-7.46z" fill="#ff990b"/><circle cx="27.33" cy="62.68" r="2.38" fill="#bc1b21"/><circle cx="25.97" cy="62.51" r=".68" fill="#fff"/><circle cx="27.33" cy="61.15" r=".27" fill="#fff"/><circle cx="28.6" cy="63.95" r=".34" fill="#96151f"/><path d="M107.6 77.11a.24.24 0 0 1 0-.08V45.78h7.82V77a.12.12 0 0 1 0 .08l-3.91 7.63-2.09-4.08-.81-1.59-.83-1.61-.18-.35z" fill="#c9c2c9"/><path d="M107.6 77.11a.24.24 0 0 1 0-.08V45.78h3.91v39l-2.09-4.08-.81-1.59-.83-1.61-.18-.35z" fill="#b2afb2"/><path fill="#d8d6d8" d="m108.59 79.07 2.9-2.91 3.91-3.91v2.41l-6 6-.81-1.59zm-.99-1.96a.24.24 0 0 1 0-.08v-.1l7.82-7.82v.71l-3.91 3.92-3.73 3.72-.18-.35zm-.02-15.25 3.91-3.91 3.91-3.91v-.72l-3.91 3.91-3.91 3.91v.72zm0 5.85v-2.4l3.91-3.91 3.91-3.91v2.4l-7.82 7.82zm0-15.27v-2.41l3.91-3.91.35-.34h2.4l-6.66 6.66z"/><path fill="#c9c2c9" d="m111.49 76.16-2.9 2.91.81 1.59 2.09-2.09v-2.41zm-3.91.95.18.35 3.73-3.72V73l-3.91 3.91V77a.24.24 0 0 0 0 .08zm3.91-19.88-3.91 3.91v.72l3.91-3.91v-.72zm0 4.17-3.91 3.91v2.4l3.91-3.91v-2.4zm0-15.28-3.91 3.91v2.41l3.91-3.92v-2.4z"/><path d="M96 49.91a17.93 17.93 0 0 1 30.94 0 32.27 32.27 0 0 0-30.94 0z" fill="#ffb21a"/><path d="M111.49 42.56a18 18 0 0 1 13.9 6.53c.58.28 1.11.55 1.57.82a17.93 17.93 0 0 0-30.94 0c.52-.28 1-.54 1.53-.78a17.9 17.9 0 0 1 13.94-6.57z" fill="#ff990b"/><path fill="#68442e" d="M108.91 26.27h5.01v17.31h-5.01z"/><path fill="#583e31" d="M108.91 26.27h2.38v17.31h-2.38z"/><path fill="#3f2c24" d="M108.91 31.55v-.96l2.38-2.38 1.93-1.94h.7v.27l-5.01 5.01zm0 3.73v-.96l5.01-5.01v.96l-5.01 5.01zm0 3.73v-.96l5.01-5v.96l-5.01 5zm0 3.74v-.96l5.01-5.01v.96l-5.01 5.01z"/><circle cx="111.49" cy="25.34" r="3.73" fill="#ffb21a"/><path d="M111.49 29.07a3 3 0 0 0 .43 0 3.73 3.73 0 0 1 0-7.42h-.43a3.73 3.73 0 1 0 0 7.46z" fill="#ff990b"/><path d="M114.55 25.34a3.73 3.73 0 0 1-3.39 3.72h.33a3.73 3.73 0 1 0 0-7.46h-.33a3.73 3.73 0 0 1 3.39 3.74z" fill="#fdd224"/><circle cx="111.49" cy="43.67" r="3.73" fill="#ffb21a"/><path d="M114.72 43.67a3.73 3.73 0 0 1-3.48 3.72h.25a3.73 3.73 0 1 0 0-7.46h-.25a3.73 3.73 0 0 1 3.48 3.74z" fill="#fdd224"/><path d="M111.49 47.4h.26a3.73 3.73 0 0 1 0-7.44h-.26a3.73 3.73 0 1 0 0 7.46z" fill="#ff990b"/><circle cx="111.49" cy="43.67" r="2.38" fill="#bc1b21"/><circle cx="112.85" cy="43.84" r=".68" fill="#fff"/><circle cx="111.49" cy="45.2" r=".27" fill="#fff"/><circle cx="110.22" cy="42.4" r=".34" fill="#96151f"/><path d="M87.23 29.24a.24.24 0 0 1 0 .08v31.25h-7.8V29.32a.24.24 0 0 1 0-.08l3.91-7.63 2.09 4.08.82 1.59.82 1.61.18.35z" fill="#c9c2c9"/><path d="M87.23 29.24a.24.24 0 0 1 0 .08v31.25h-3.89v-39l2.09 4.08.82 1.59.82 1.61.18.35z" fill="#b2afb2"/><path fill="#d8d6d8" d="m86.25 27.28-2.91 2.91-3.91 3.91v-2.4l6-6.01.82 1.59zm.98 1.96a.24.24 0 0 1 0 .08v.1l-7.82 7.82v-.71l3.91-3.92 3.73-3.72.18.35zm.02 15.25-3.91 3.91-3.91 3.91v.72l3.91-3.91 3.91-3.91v-.72zm0-5.85v2.4l-3.91 3.91-3.91 3.91v-2.4l7.82-7.82zm0 15.27v2.41l-3.91 3.91-.34.34h-2.41l6.66-6.66z"/><path fill="#c9c2c9" d="m83.34 30.19 2.91-2.91-.82-1.59-2.09 2.09v2.41zm3.91-.95-.18-.35-3.73 3.72v.72l3.91-3.91v-.1a.24.24 0 0 0 0-.08zm-3.91 19.88 3.91-3.91v-.72l-3.91 3.91v.72zm0-4.17 3.91-3.91v-2.4l-3.91 3.91v2.4zm0 15.28 3.91-3.91v-2.41l-3.91 3.92v2.4z"/><path d="M98.81 56.44a17.93 17.93 0 0 1-30.94 0 32.27 32.27 0 0 0 30.94 0z" fill="#ffb21a"/><path d="M83.34 63.78a18 18 0 0 1-13.9-6.52c-.58-.28-1.11-.55-1.57-.82a17.93 17.93 0 0 0 30.94 0c-.51.28-1 .54-1.52.78a17.91 17.91 0 0 1-13.95 6.56z" fill="#ff990b"/><path fill="#68442e" d="M80.91 62.76h5.01v17.31h-5.01z"/><path fill="#583e31" d="M83.55 62.76h2.38v17.31h-2.38z"/><path fill="#3f2c24" d="M85.92 74.8v.97l-2.37 2.37-1.94 1.94h-.69v-.27l5-5.01zm0-3.73v.96l-5 5.01v-.96l5-5.01zm0-3.73v.96l-5 5v-.96l5-5zm0-3.74v.96l-5 5.01v-.96l5-5.01z"/><circle cx="83.34" cy="81.01" r="3.73" fill="#ffb21a"/><path d="M83.34 77.28a3 3 0 0 0-.43 0 3.73 3.73 0 0 1 0 7.42h.43a3.73 3.73 0 0 0 0-7.46z" fill="#ff990b"/><path d="M80.28 81a3.73 3.73 0 0 1 3.4-3.72h-.34a3.73 3.73 0 1 0 0 7.46h.34a3.73 3.73 0 0 1-3.4-3.74z" fill="#fdd224"/><circle cx="83.34" cy="62.68" r="3.73" fill="#ffb21a"/><path d="M80.11 62.68A3.73 3.73 0 0 1 83.59 59h-.25a3.73 3.73 0 0 0 0 7.46h.25a3.73 3.73 0 0 1-3.48-3.78z" fill="#fdd224"/><path d="M83.34 59h-.26a3.73 3.73 0 0 1 0 7.44h.26a3.73 3.73 0 0 0 0-7.46z" fill="#ff990b"/><circle cx="83.34" cy="62.68" r="2.38" fill="#bc1b21"/><circle cx="81.98" cy="62.51" r=".68" fill="#fff"/><circle cx="83.34" cy="61.15" r=".27" fill="#fff"/><circle cx="84.61" cy="63.95" r=".34" fill="#96151f"/><path d="M87.23 138.54a.24.24 0 0 1 0 .08v31.25h-7.8v-31.25a.24.24 0 0 1 0-.08l3.91-7.63 2.09 4.09.82 1.59.82 1.61.18.35z" fill="#c9c2c9"/><path d="M87.23 138.54a.24.24 0 0 1 0 .08v31.25h-3.89v-39l2.09 4.13.82 1.59.82 1.61.18.35z" fill="#b2afb2"/><path fill="#d8d6d8" d="m86.25 136.58-2.91 2.91-3.91 3.91V141l6-6.01.82 1.59zm.98 1.96a.24.24 0 0 1 0 .08v.1l-7.82 7.82v-.71l3.91-3.92 3.73-3.72.18.35zm.02 15.25-3.91 3.91-3.91 3.91v.72l3.91-3.91 3.91-3.91v-.72zm0-5.85v2.4l-3.91 3.91-3.91 3.91v-2.4l7.82-7.82zm0 15.28v2.4l-3.91 3.91-.34.34h-2.41l6.66-6.65z"/><path fill="#c9c2c9" d="m83.34 139.49 2.91-2.91-.82-1.59-2.09 2.09v2.41zm3.91-.95-.18-.35-3.73 3.72v.72l3.91-3.91v-.1a.24.24 0 0 0 0-.08zm-3.91 19.88 3.91-3.91v-.72l-3.91 3.91v.72zm0-4.17 3.91-3.91v-2.4l-3.91 3.91v2.4zm0 15.28 3.91-3.91v-2.4l-3.91 3.91v2.4z"/><path d="M98.81 165.74a17.93 17.93 0 0 1-30.94 0 32.27 32.27 0 0 0 30.94 0z" fill="#ffb21a"/><path d="M83.34 173.09a18 18 0 0 1-13.9-6.53c-.58-.28-1.11-.55-1.57-.82a17.93 17.93 0 0 0 30.94 0c-.51.28-1 .54-1.52.78a17.94 17.94 0 0 1-13.95 6.57z" fill="#ff990b"/><path fill="#68442e" d="M80.91 172.06h5.01v17.31h-5.01z"/><path fill="#583e31" d="M83.55 172.06h2.38v17.31h-2.38z"/><path fill="#3f2c24" d="M85.92 184.1v.96l-2.37 2.38-1.94 1.94h-.69v-.27l5-5.01zm0-3.73v.96l-5 5.01v-.96l5-5.01zm0-3.73v.96l-5 5v-.96l5-5zm0-3.74v.96l-5 5.01v-.96l5-5.01z"/><circle cx="83.34" cy="190.31" r="3.73" fill="#ffb21a"/><path d="M83.34 186.58a3 3 0 0 0-.43 0 3.73 3.73 0 0 1 0 7.42h.43a3.73 3.73 0 0 0 0-7.46z" fill="#ff990b"/><path d="M80.28 190.31a3.73 3.73 0 0 1 3.4-3.72h-.34a3.73 3.73 0 1 0 0 7.46h.34a3.73 3.73 0 0 1-3.4-3.74z" fill="#fdd224"/><circle cx="83.34" cy="171.98" r="3.73" fill="#ffb21a"/><path d="M80.11 172a3.73 3.73 0 0 1 3.48-3.72h-.25a3.73 3.73 0 1 0 0 7.46h.25a3.73 3.73 0 0 1-3.48-3.74z" fill="#fdd224"/><path d="M83.34 168.25h-.26a3.73 3.73 0 0 1 0 7.44h.26a3.73 3.73 0 1 0 0-7.46z" fill="#ff990b"/><circle cx="83.34" cy="171.98" r="2.38" fill="#bc1b21"/><circle cx="81.98" cy="171.81" r=".68" fill="#fff"/><circle cx="83.34" cy="170.45" r=".27" fill="#fff"/><circle cx="84.61" cy="173.25" r=".34" fill="#96151f"/><path d="M107.6 186.41a.24.24 0 0 1 0-.08v-31.25h7.82v31.25a.12.12 0 0 1 0 .08l-3.93 7.59-2.09-4-.81-1.59-.83-1.61-.18-.35z" fill="#c9c2c9"/><path d="M107.6 186.41a.24.24 0 0 1 0-.08v-31.25h3.91v39L109.4 190l-.81-1.59-.83-1.61-.18-.35z" fill="#b2afb2"/><path fill="#d8d6d8" d="m108.59 188.37 2.9-2.91 3.91-3.91v2.41l-6 6-.81-1.59zm-.99-1.96a.24.24 0 0 1 0-.08v-.1l7.82-7.82v.71l-3.93 3.88-3.73 3.72-.18-.35zm-.02-15.25 3.91-3.91 3.91-3.91v-.72l-3.91 3.91-3.91 3.91v.72zm0 5.85v-2.4l3.91-3.91 3.91-3.91v2.4l-7.82 7.82zm0-15.27v-2.41l3.91-3.91.35-.34h2.4l-6.66 6.66z"/><path fill="#c9c2c9" d="m111.49 185.46-2.9 2.91.81 1.59 2.09-2.09v-2.41zm-3.91.95.18.35 3.73-3.72v-.72l-3.91 3.91v.1a.24.24 0 0 0 0 .08zm3.91-19.88-3.91 3.91v.72l3.91-3.91v-.72zm0 4.17-3.91 3.91v2.4l3.91-3.91v-2.4zm0-15.28-3.91 3.91v2.41l3.91-3.92v-2.4z"/><path d="M96 159.21a17.93 17.93 0 0 1 30.94 0 32.27 32.27 0 0 0-30.94 0z" fill="#ffb21a"/><path d="M111.49 151.87a17.94 17.94 0 0 1 13.9 6.52c.58.28 1.11.55 1.57.82a17.93 17.93 0 0 0-30.94 0c.52-.28 1-.54 1.53-.78a17.87 17.87 0 0 1 13.94-6.56z" fill="#ff990b"/><path fill="#68442e" d="M108.91 135.57h5.01v17.31h-5.01z"/><path fill="#583e31" d="M108.91 135.57h2.38v17.31h-2.38z"/><path fill="#3f2c24" d="M108.91 140.85v-.97l2.38-2.37 1.93-1.94h.7v.27l-5.01 5.01zm0 3.73v-.96l5.01-5.01v.96l-5.01 5.01zm0 3.73v-.96l5.01-5v.96l-5.01 5zm0 3.74v-.96l5.01-5.01v.96l-5.01 5.01z"/><circle cx="111.49" cy="134.64" r="3.73" fill="#ffb21a"/><path d="M111.49 138.37a3 3 0 0 0 .43 0 3.73 3.73 0 0 1 0-7.42h-.43a3.73 3.73 0 1 0 0 7.46z" fill="#ff990b"/><path d="M114.55 134.64a3.73 3.73 0 0 1-3.39 3.72h.33a3.73 3.73 0 1 0 0-7.46h-.33a3.73 3.73 0 0 1 3.39 3.74z" fill="#fdd224"/><circle cx="111.49" cy="152.97" r="3.73" fill="#ffb21a"/><path d="M114.72 153a3.73 3.73 0 0 1-3.48 3.72h.25a3.73 3.73 0 1 0 0-7.46h-.25a3.73 3.73 0 0 1 3.48 3.74z" fill="#fdd224"/><path d="M111.49 156.7h.26a3.73 3.73 0 0 1 0-7.44h-.26a3.73 3.73 0 1 0 0 7.46z" fill="#ff990b"/><circle cx="111.49" cy="152.97" r="2.38" fill="#bc1b21"/><circle cx="112.85" cy="153.14" r=".68" fill="#fff"/><circle cx="111.49" cy="154.5" r=".27" fill="#fff"/><circle cx="110.22" cy="151.7" r=".34" fill="#96151f"/><path d="M31.23 138.54a.22.22 0 0 1 0 .08v31.25h-7.81v-31.25a.24.24 0 0 1 0-.08l3.91-7.63 2.1 4.08.81 1.59.82 1.61.18.35z" fill="#c9c2c9"/><path d="M31.23 138.54a.22.22 0 0 1 0 .08v31.25h-3.9v-39l2.1 4.08.81 1.59.82 1.61.18.35z" fill="#b2afb2"/><path fill="#d8d6d8" d="m30.24 136.58-2.91 2.91-3.91 3.91V141l6.01-6.01.81 1.59zm.99 1.96a.22.22 0 0 1 0 .08v.1l-7.82 7.82v-.71l3.91-3.92 3.73-3.72.18.35zm.01 15.25-3.91 3.91-3.91 3.91v.72l3.91-3.91 3.91-3.91v-.72zm0-5.85v2.4l-3.91 3.91-3.91 3.91v-2.4l7.82-7.82zm0 15.28v2.4l-3.91 3.91-.34.34h-2.4l6.65-6.65z"/><path fill="#c9c2c9" d="m27.33 139.49 2.91-2.91-.81-1.59-2.1 2.09v2.41zm3.91-.95-.18-.35-3.73 3.72v.72l3.91-3.91v-.1a.22.22 0 0 0 0-.08zm-3.91 19.88 3.91-3.91v-.72l-3.91 3.91v.72zm0-4.17 3.91-3.91v-2.4l-3.91 3.91v2.4zm0 15.28 3.91-3.91v-2.4l-3.91 3.91v2.4z"/><path d="M42.81 165.74a17.6 17.6 0 0 1-15.48 8.87 17.75 17.75 0 0 1-15.47-8.87 31.72 31.72 0 0 0 15.47 3.95 31.7 31.7 0 0 0 15.48-3.95z" fill="#ffb21a"/><path d="M27.33 173.09a18 18 0 0 1-13.9-6.53c-.58-.28-1.1-.55-1.57-.82a17.75 17.75 0 0 0 15.47 8.87 17.6 17.6 0 0 0 15.48-8.87q-.78.42-1.53.78a17.93 17.93 0 0 1-13.95 6.57z" fill="#ff990b"/><path fill="#68442e" d="M24.91 172.06h5.01v17.31h-5.01z"/><path fill="#583e31" d="M27.54 172.06h2.38v17.31h-2.38z"/><path fill="#3f2c24" d="M29.91 184.1v.96l-2.37 2.38-1.94 1.94h-.69v-.27l5-5.01zm0-3.73v.96l-5 5.01v-.96l5-5.01zm0-3.73v.96l-5 5v-.96l5-5zm0-3.74v.96l-5 5.01v-.96l5-5.01z"/><circle cx="27.33" cy="190.31" r="3.73" fill="#ffb21a"/><path d="M27.33 186.58a3 3 0 0 0-.42 0 3.73 3.73 0 0 1 0 7.42h.42a3.73 3.73 0 1 0 0-7.46z" fill="#ff990b"/><path d="M24.28 190.31a3.73 3.73 0 0 1 3.39-3.72h-.34a3.73 3.73 0 0 0 0 7.46h.34a3.73 3.73 0 0 1-3.39-3.74z" fill="#fdd224"/><circle cx="27.33" cy="171.98" r="3.73" fill="#ffb21a"/><path d="M24.11 172a3.72 3.72 0 0 1 3.48-3.72h-.26a3.73 3.73 0 1 0 0 7.46h.26a3.72 3.72 0 0 1-3.48-3.74z" fill="#fdd224"/><path d="M27.33 168.25h-.25a3.73 3.73 0 0 1 0 7.44h.25a3.73 3.73 0 1 0 0-7.46z" fill="#ff990b"/><circle cx="27.33" cy="171.98" r="2.38" fill="#bc1b21"/><circle cx="25.97" cy="171.81" r=".68" fill="#fff"/><circle cx="27.33" cy="170.45" r=".27" fill="#fff"/><circle cx="28.6" cy="173.25" r=".34" fill="#96151f"/><path d="M51.59 186.41a.24.24 0 0 1 0-.08v-31.25h7.81v31.25a.24.24 0 0 1 0 .08L55.48 194l-2.09-4-.81-1.59-.82-1.61-.19-.35z" fill="#c9c2c9"/><path d="M51.59 186.41a.24.24 0 0 1 0-.08v-31.25h3.91v39L53.39 190l-.81-1.59-.82-1.61-.19-.35z" fill="#b2afb2"/><path fill="#d8d6d8" d="m52.58 188.37 2.9-2.91 3.92-3.91v2.41l-6.01 6-.81-1.59zm-.99-1.96a.24.24 0 0 1 0-.08v-.1l7.83-7.82v.71L55.48 183l-3.72 3.72-.19-.35zm-.02-15.25 3.91-3.91 3.92-3.91v-.72l-3.92 3.91-3.91 3.91v.72zm0 5.85v-2.4l3.91-3.91 3.92-3.91v2.4l-7.83 7.82zm0-15.27v-2.41l3.91-3.91.35-.34h2.4l-6.66 6.66z"/><path fill="#c9c2c9" d="m55.48 185.46-2.9 2.91.81 1.59 2.09-2.09v-2.41zm-3.91.95.19.35 3.72-3.76v-.72l-3.91 3.91v.1a.24.24 0 0 0 0 .08zm3.91-19.88-3.91 3.91v.72l3.91-3.91v-.72zm0 4.17-3.91 3.91v2.4l3.91-3.91v-2.4zm0-15.28-3.91 3.91v2.41l3.91-3.92v-2.4z"/><path d="M40 159.21a17.58 17.58 0 0 1 15.47-8.87A17.76 17.76 0 0 1 71 159.21a32.29 32.29 0 0 0-30.95 0z" fill="#ffb21a"/><path d="M55.48 151.87a18 18 0 0 1 13.91 6.52c.58.28 1.1.55 1.57.82a17.76 17.76 0 0 0-15.48-8.87A17.58 17.58 0 0 0 40 159.21q.78-.42 1.53-.78a17.89 17.89 0 0 1 13.95-6.56z" fill="#ff990b"/><path fill="#68442e" d="M52.9 135.57h5.01v17.31H52.9z"/><path fill="#583e31" d="M52.9 135.57h2.38v17.31H52.9z"/><path fill="#3f2c24" d="M52.9 140.85v-.97l2.38-2.37 1.93-1.94h.7v.27l-5.01 5.01zm0 3.73v-.96l5.01-5.01v.96l-5.01 5.01zm0 3.73v-.96l5.01-5v.96l-5.01 5zm0 3.74v-.96l5.01-5.01v.96l-5.01 5.01z"/><circle cx="55.49" cy="134.64" r="3.73" fill="#ffb21a"/><path d="M55.49 138.37a3 3 0 0 0 .42 0 3.73 3.73 0 0 1 0-7.42h-.42a3.73 3.73 0 1 0 0 7.46z" fill="#ff990b"/><path d="M58.54 134.64a3.73 3.73 0 0 1-3.39 3.72h.34a3.73 3.73 0 0 0 0-7.46h-.34a3.73 3.73 0 0 1 3.39 3.74z" fill="#fdd224"/><circle cx="55.48" cy="152.97" r="3.73" fill="#ffb21a"/><path d="M58.71 153a3.72 3.72 0 0 1-3.48 3.72h.25a3.73 3.73 0 1 0 0-7.46h-.25a3.72 3.72 0 0 1 3.48 3.74z" fill="#fdd224"/><path d="M55.48 156.7h.26a3.73 3.73 0 0 1 0-7.44h-.26a3.73 3.73 0 0 0 0 7.46z" fill="#ff990b"/><circle cx="55.48" cy="152.97" r="2.38" fill="#bc1b21"/><circle cx="56.85" cy="153.14" r=".68" fill="#fff"/><circle cx="55.49" cy="154.5" r=".27" fill="#fff"/><circle cx="54.22" cy="151.7" r=".34" fill="#96151f"/></svg>