<svg xmlns="http://www.w3.org/2000/svg" viewBox="0 0 138.83 215.65"><path fill="#fff" d="M0 0h138.82v215.65H0z"/><path fill="none" stroke="#7f664a" stroke-miterlimit="10" stroke-width=".5" d="M37.01 208.74H6.94V8.91h30.07m47.44 199.83H54.38M84.45 8.91H54.38m47.44 0h30.06v199.83h-30.06"/><path d="M14.94 11v10a6.48 6.48 0 0 0 .1 1.44.94.94 0 0 0 .42.51 1.89 1.89 0 0 0 1 .2h.28v.34H10.3v-.34h.33a2.56 2.56 0 0 0 1.12-.15.93.93 0 0 0 .45-.49 5.66 5.66 0 0 0 .11-1.51v-6.32a3.79 3.79 0 0 0-.08-1.06.73.73 0 0 0-.3-.36.9.9 0 0 0-.51-.15 2.94 2.94 0 0 0-1.12.29l-.16-.33L14.65 11zm11.8 6.39a11.2 11.2 0 0 1-.51 3.43 4.73 4.73 0 0 1-.83 1.6 4.2 4.2 0 0 1-1.18 1 2.85 2.85 0 0 1-1.43.37 2.93 2.93 0 0 1-1.6-.45A4.23 4.23 0 0 1 19.92 22a6.21 6.21 0 0 1-.69-1.64 10.43 10.43 0 0 1-.39-2.85 11.3 11.3 0 0 1 .56-3.67 4.28 4.28 0 0 1 1.4-2.12 3.06 3.06 0 0 1 4 0 4.29 4.29 0 0 1 1.36 2 10.9 10.9 0 0 1 .58 3.67zm-2.78 0v-3.75a3.32 3.32 0 0 0-.43-1.69.84.84 0 0 0-.73-.29.88.88 0 0 0-.62.21 2 2 0 0 0-.49 1.13q-.12.8-.12 5.58a21.49 21.49 0 0 0 .18 3.42 1.6 1.6 0 0 0 .39.85 1 1 0 0 0 .67.22.82.82 0 0 0 .68-.29 2.85 2.85 0 0 0 .43-1.56zm93.65 173.96v10a6 6 0 0 0 .1 1.44.94.94 0 0 0 .42.51 2 2 0 0 0 1 .2h.28v.33H113v-.33h.32a2.5 2.5 0 0 0 1.12-.18.91.91 0 0 0 .45-.5 5.36 5.36 0 0 0 .12-1.47V195a3.88 3.88 0 0 0-.08-1.07.73.73 0 0 0-.3-.36.9.9 0 0 0-.51-.15 2.94 2.94 0 0 0-1.12.29l-.17-.32 4.51-2.06zm11.8 6.38a10.84 10.84 0 0 1-.52 3.42 4.72 4.72 0 0 1-.82 1.6 4.42 4.42 0 0 1-1.18 1 3.07 3.07 0 0 1-3-.09 4.32 4.32 0 0 1-1.26-1.29 6.06 6.06 0 0 1-.7-1.64 10.43 10.43 0 0 1-.39-2.85 11.62 11.62 0 0 1 .56-3.67 4.42 4.42 0 0 1 1.4-2.12 3.09 3.09 0 0 1 4 0 4.14 4.14 0 0 1 1.36 2 10.76 10.76 0 0 1 .55 3.64zm-2.78 0v-3.75a3.33 3.33 0 0 0-.43-1.7.89.89 0 0 0-.73-.29.84.84 0 0 0-.62.22 1.92 1.92 0 0 0-.45 1.11q-.12.81-.12 5.58a21.4 21.4 0 0 0 .18 3.49 1.57 1.57 0 0 0 .39.86 1 1 0 0 0 .67.21.79.79 0 0 0 .68-.29 2.88 2.88 0 0 0 .43-1.56z" fill="#7f664a"/><path d="M83.11 110.55a26.21 26.21 0 0 1 1.19 3.84 26 26 0 0 1 .17 4.5A37.83 37.83 0 0 0 87.56 134c.34.79 1.39 1.66 1.88.95a1.32 1.32 0 0 0 .16-.52c1.48-9.61-.39-19.4-.26-29.12.08-6.31 1-12.92-1.54-18.71a3.48 3.48 0 0 0-2-2.19c-2.8-.75-4.15 9.61-4.35 11.5a34.62 34.62 0 0 0 1.66 14.64z" fill="#fdbb29"/><path d="M89.34 105.28c.08-6.31 1-12.92-1.54-18.71a3.48 3.48 0 0 0-2-2.19c-.59-.16-1.12.18-1.58.83a6 6 0 0 1 .78 1.36c2.51 5.79 1.62 12.4 1.54 18.71-.13 9.14 1.52 18.34.48 27.39.17.44.34.87.52 1.3.34.79 1.39 1.66 1.88.95a1.32 1.32 0 0 0 .16-.52c1.5-9.61-.38-19.4-.24-29.12z" fill="#ff990b"/><path d="M86.3 137.69a5 5 0 0 0-.64 2.35c.09.82 1.07 1.56 1.72 1.05a1.63 1.63 0 0 0 .5-1l.4-1.77c.72 2.36-.9 4.76-1.12 7.21-.07.79.19 1.79 1 1.9s1.28-.72 1.54-1.44a31.89 31.89 0 0 0 1.45-8.08 8.71 8.71 0 0 0-.33-4.28c-.59-1.34-2.37-2.66-3.54-1.34-.92.98-.45 4.06-.98 5.4z" fill="#f9c18a"/><path d="M90.79 133.61c-.46-1-1.63-2.06-2.68-1.84a3.26 3.26 0 0 1 2 1.84 8.59 8.59 0 0 1 .33 4.28A31.89 31.89 0 0 1 89 146a2.25 2.25 0 0 1-1.08 1.38.6.6 0 0 0 .19.06c.76.11 1.28-.72 1.54-1.44a31.89 31.89 0 0 0 1.45-8.08 8.71 8.71 0 0 0-.31-4.31z" fill="#ea9f54"/><path d="M81 50a3.88 3.88 0 0 1 3.38.31c.94.71 1.06 2.43 0 2.94a5.58 5.58 0 0 1 3 2.06c.62 1.08.08 2.84-1.17 2.89a2.54 2.54 0 0 1-.21 5.01 10.78 10.78 0 0 1 2.93 2.2 3.6 3.6 0 0 1 .81 3.43 2.21 2.21 0 0 1-3 1.27 3.09 3.09 0 0 1-.13 4 2.28 2.28 0 0 1-3.61-.76 2.49 2.49 0 1 1-4.27-2.54c-1.85-.62-2.33-3-2.51-4.91-.09-.93 0-2.1.8-2.5a2.83 2.83 0 0 1-1.35-4.34 2.28 2.28 0 0 1-1-3.05 2.89 2.89 0 0 1-1.25-3 2.4 2.4 0 0 1 2.34-1.72 7.39 7.39 0 0 1 .09-2.44 2.5 2.5 0 0 1 1.54-1.79 2.17 2.17 0 0 1 2.06.5A5.66 5.66 0 0 1 81 50z" fill="#4f332c"/><path d="M68.35 184.79c.2.83.39 1.9-.31 2.39a4.16 4.16 0 0 1-1.37.38 5 5 0 0 0-1.47.84A10.57 10.57 0 0 1 52 187a24.8 24.8 0 0 0 7.15-3 5.74 5.74 0 0 0 3-4.39c.44-2.77-.54-6-.7-8.88a44.82 44.82 0 0 1 .62-10.15 12.41 12.41 0 0 0 .33-3.53 15.29 15.29 0 0 0-1.84-4.72c-1.58-3.41-2.42-14.9-2-18.65.48-4.67 1.51 1.74 5.75.16a1.81 1.81 0 0 1 1-.16 1.64 1.64 0 0 1 .89.67c2.18 2.71 2.79 6.37 2.73 9.83s-.68 6.92-.68 10.4c0 3.72.76 7.43.78 11.15 0 4.75-1.17 9.54-1.17 14.23a20.37 20.37 0 0 0 .49 4.83z" fill="#fdbb29"/><path d="M67.82 179.94c0-4.69 1.17-9.48 1.17-14.23 0-3.72-.78-7.43-.78-11.15 0-3.48.63-6.92.68-10.4s-.55-7.12-2.73-9.83a1.64 1.64 0 0 0-.89-.67 1.81 1.81 0 0 0-1 .16 3.86 3.86 0 0 1-1.13.25 2.85 2.85 0 0 1 .23.26c2.17 2.71 2.79 6.37 2.73 9.83s-.69 6.92-.69 10.4c0 3.72.77 7.43.78 11.15 0 4.75-1.17 9.54-1.16 14.23a20.37 20.37 0 0 0 .53 4.85c.2.83.39 1.9-.31 2.39a4.16 4.16 0 0 1-1.37.38 4.79 4.79 0 0 0-1.47.84 9.84 9.84 0 0 1-4.3 1.61 10.27 10.27 0 0 0 7.08-1.61 5 5 0 0 1 1.47-.84 4.16 4.16 0 0 0 1.37-.38c.7-.49.51-1.56.31-2.39a20.37 20.37 0 0 1-.52-4.85zm-6.32-46.12h.11c-2-.93-2.72-3.58-3.07-.15a3.3 3.3 0 0 0 2.96.15z" fill="#ff990b"/><path d="M68.21 187.26a4.4 4.4 0 0 1-1.41.39 5.08 5.08 0 0 0-1.53.87 10.92 10.92 0 0 1-13.68-1.46A26.09 26.09 0 0 0 59 184a6 6 0 0 0 3.16-4.54 6.39 6.39 0 0 0 3.15.9 7.6 7.6 0 0 0 2.7-.54 20.82 20.82 0 0 0 .55 5c.18.83.38 1.93-.35 2.44z" fill="#604238"/><path d="M68.54 184.79a20.82 20.82 0 0 1-.55-5 7.43 7.43 0 0 1-2.63.53 20.63 20.63 0 0 0 .53 4.49c.21.86.4 2-.32 2.47a4.39 4.39 0 0 1-1.42.39 5 5 0 0 0-1.52.87 10.1 10.1 0 0 1-4.58 1.68 10.62 10.62 0 0 0 7.22-1.68 5.08 5.08 0 0 1 1.53-.87 4.4 4.4 0 0 0 1.41-.39c.73-.53.53-1.63.33-2.49z" fill="#4f332c"/><path d="M70.28 185.54c-.22.9-.44 2.06.25 2.61.38.31.91.28 1.36.44a4.94 4.94 0 0 1 1.45.94 9.91 9.91 0 0 0 13.27-1.24 24.41 24.41 0 0 1-7.08-3.43 6.31 6.31 0 0 1-2.94-4.86c-.37-3 .69-6.57.91-9.66a52.61 52.61 0 0 0-.37-11.08 15.13 15.13 0 0 1-.25-3.85 18 18 0 0 1 2-5.1 24.82 24.82 0 0 0 2.11-11.9c-.36-5.1-1.17-6.51-5.37-8.32a1.76 1.76 0 0 0-1-.21 1.73 1.73 0 0 0-.9.71c-2.24 2.91-3 6.88-3 10.66s.52 7.55.44 11.34c-.1 4.06-.94 8.08-1.05 12.14-.12 5.17.94 10.41.82 15.52a24.83 24.83 0 0 1-.65 5.29z" fill="#fdbb29"/><path d="M79.53 184.86a6.31 6.31 0 0 1-2.94-4.86c-.37-3 .69-6.57.91-9.66a52.61 52.61 0 0 0-.37-11.08 15.13 15.13 0 0 1-.25-3.85 18 18 0 0 1 2-5.1 24.82 24.82 0 0 0 2.11-11.9c-.36-5.1-1.17-6.51-5.37-8.32a1.76 1.76 0 0 0-1-.21 1.73 1.73 0 0 0-.9.71c3.19 1.6 3.89 3.2 4.22 7.79a24.82 24.82 0 0 1-2.11 11.9 18 18 0 0 0-2 5.1 15.13 15.13 0 0 0 .25 3.85 53.29 53.29 0 0 1 .37 11.08c-.22 3.09-1.28 6.63-.91 9.66a6.29 6.29 0 0 0 2.94 4.85 24.41 24.41 0 0 0 7.08 3.43 9.92 9.92 0 0 1-5.86 3.11 10 10 0 0 0 8.92-3.11 24.41 24.41 0 0 1-7.09-3.39z" fill="#ff990b"/><path d="M70.35 188.23c.39.33.93.3 1.41.45a5.14 5.14 0 0 1 1.5 1A10.25 10.25 0 0 0 87 188.37a24.78 24.78 0 0 1-7.32-3.54 6.54 6.54 0 0 1-3-5 6 6 0 0 1-3.18.91 7 7 0 0 1-2.69-.64 24.64 24.64 0 0 1-.67 5.46c-.28.9-.51 2.1.21 2.67z" fill="#604238"/><path d="M72 180.49a6.67 6.67 0 0 1-1.21-.42v.62a4.87 4.87 0 0 0 1.21-.2zm7.67 4.34a6.54 6.54 0 0 1-3-5 6.14 6.14 0 0 1-2.91.89 6.41 6.41 0 0 0 2.9 4.14 24.78 24.78 0 0 0 7.32 3.54 10.23 10.23 0 0 1-6.12 3.23 10.35 10.35 0 0 0 9.14-3.26 24.78 24.78 0 0 1-7.33-3.54z" fill="#4f332c"/><circle cx="84.74" cy="81.95" r="5.96" fill="#969b2c"/><path d="M84.74 76a5.83 5.83 0 0 0-1.33.16 5.94 5.94 0 0 1 0 11.6 5.83 5.83 0 0 0 1.33.16 6 6 0 0 0 0-11.92z" fill="#878722"/><path d="M66.19 79a13.62 13.62 0 0 0 8.4 0 1.23 1.23 0 0 0 .6-.33 1.35 1.35 0 0 0 .18-.89q-.16-3.51-.58-7c-2-.14-6.37-.55-8 .91-.79.73-1.1 7.12-.6 7.31z" fill="#f9c18a"/><path d="M75.37 77.81q-.16-3.51-.58-7a33.61 33.61 0 0 0-4.37-.13c.8 0 1.52.09 2.06.13.27 2.33.47 4.67.57 7a1.29 1.29 0 0 1-.18.89 1.23 1.23 0 0 1-.6.33 13.21 13.21 0 0 1-3 .58 13.4 13.4 0 0 0 5.3-.58 1.23 1.23 0 0 0 .6-.33 1.35 1.35 0 0 0 .2-.89z" fill="#ea9f54"/><ellipse cx="71.63" cy="57.97" rx="11.48" ry="16.69" fill="#f9c18a"/><path d="M71.63 41.29a8.11 8.11 0 0 0-1.21.09c5.78.88 10.28 8 10.28 16.59s-4.5 15.72-10.28 16.6a8.11 8.11 0 0 0 1.21.09c6.37 0 11.48-7.47 11.48-16.66S78 41.29 71.63 41.29z" fill="#ea9f54"/><path d="m59.49 110-7.15 22.75s16.25 10.62 33.59 1.3l-6.17-24.16z" fill="#4f4543"/><path d="M79.76 109.93h-4.44l6.15 24.14a31.58 31.58 0 0 1-12.91 3.75 31.65 31.65 0 0 0 17.37-3.75z" fill="#3d3635"/><path d="M82.63 106.55a59.62 59.62 0 0 1-2.09 6.78c-.34.91-.16-1.19-.56-.25l-20.13-.93s.43 2.14 0 .83-1.06-3.47-1.62-6a59 59 0 0 1-.7-23.15l-.22-3L63 79.49l14.58.75s2.22-1.42 4.17 1.4c.65 1.16 1.7 2.48 1.94 3.81a51.61 51.61 0 0 1-1.06 21.1z" fill="#bc1b21"/><path d="M83.65 85.45c-.24-1.33-1.29-2.65-1.94-3.81-1.95-2.82-4.17-1.4-4.17-1.4l-1.32-.06a4.15 4.15 0 0 1 1.6 1.46c.65 1.16 1.69 2.48 1.94 3.81a51.79 51.79 0 0 1-1 21.1 59.62 59.62 0 0 1-2.09 6.78v.09l3.37-.34c.4-.94.22 1.16.56.25a59.62 59.62 0 0 0 2.09-6.78 51.61 51.61 0 0 0 .96-21.1z" fill="#96151f"/><path d="M82.63 106.55a59.62 59.62 0 0 1-2.09 6.78 104.88 104.88 0 0 1-20.68-.33 64.75 64.75 0 0 1-1.62-6 55.2 55.2 0 0 0 24.39-.45z" fill="#604238"/><path d="M78.4 107.38a58.4 58.4 0 0 1-1.94 6.21c1.47-.06 2.83-.15 4.08-.26a59.62 59.62 0 0 0 2.09-6.78c-1.45.34-2.86.61-4.23.83z" fill="#4f332c"/><circle cx="54.94" cy="81.8" r="5.63" fill="#969b2c"/><path d="M54.94 76.16a5.15 5.15 0 0 0-1 .1 5.62 5.62 0 0 1 0 11.07 5.15 5.15 0 0 0 1 .1 5.64 5.64 0 0 0 0-11.27z" fill="#878722"/><path d="M44.21 106.82c-.29 1.62-.4 3.54.8 4.67a4.8 4.8 0 0 0 2.42 1 23.28 23.28 0 0 0 5.71.41 4.87 4.87 0 0 0 2.32-.55c1.24-.77 1.64-2.35 1.94-3.77a3.27 3.27 0 0 0-.09-2.33 7.18 7.18 0 0 0-.82-.92 5.55 5.55 0 0 1-.9-3.85 45.85 45.85 0 0 1 .83-7.29 10.56 10.56 0 0 0 .27-5c-2-6.69-6.55.71-7.74 3.11a52.72 52.72 0 0 0-4.74 14.52z" fill="#fdbb29"/><path d="M55.59 97.9a10.4 10.4 0 0 0 .09 1.93 46.06 46.06 0 0 1 .74-5.61 10.56 10.56 0 0 0 .27-5c-.08.46-.18.91-.27 1.36a46 46 0 0 0-.83 7.32zm1.55 8.18a4.25 4.25 0 0 1-1.68 2.68 4.87 4.87 0 0 1-2.32.55 23.28 23.28 0 0 1-5.71-.41 4.71 4.71 0 0 1-2.42-1 2.84 2.84 0 0 1-.76-1.26 1.55 1.55 0 0 0 0 .21c-.29 1.62-.4 3.54.8 4.67a4.8 4.8 0 0 0 2.42 1 23.28 23.28 0 0 0 5.71.41 4.87 4.87 0 0 0 2.32-.55c1.24-.77 1.64-2.35 1.94-3.77a3.27 3.27 0 0 0-.09-2.33 1.12 1.12 0 0 0-.21-.2z" fill="#ff990b"/><path d="M63 77.26a23.71 23.71 0 0 0 14.69.74 1.55 1.55 0 0 1 .41 2.33 3 3 0 0 1-2.44.77c-.75 0-1.62-.3-1.86-1a3.44 3.44 0 0 1-6.45.09 4.49 4.49 0 0 1-2.86 1.35c-1.08 0-2.19-1-2-2a4.16 4.16 0 0 1-1.54.42 1.43 1.43 0 0 1-1.33-.73 1.46 1.46 0 0 1 1-1.82 4.16 4.16 0 0 1 2.38-.15z" fill="#fdbb29"/><path d="M58.55 49.4a3.91 3.91 0 0 0-3.38.3c-.94.71-1.06 2.43 0 2.94a5.58 5.58 0 0 0-3.05 2.06c-.62 1.08-.08 2.85 1.17 2.9a2.53 2.53 0 0 0 .22 5 10.63 10.63 0 0 0-2.93 2.2 3.61 3.61 0 0 0-.81 3.43 2.21 2.21 0 0 0 3 1.28 3.06 3.06 0 0 0 .13 4 2.28 2.28 0 0 0 3.59-.76 2.5 2.5 0 1 0 4.27-2.54c1.85-.62 2.33-3 2.51-4.91.08-.93 0-2.1-.8-2.5a2.82 2.82 0 0 0 1.35-4.33 2.27 2.27 0 0 0 1-3 2.9 2.9 0 0 0 1.26-3 2.38 2.38 0 0 0-2.34-1.71c.06-.82 1.81-2.16 1.59-3s-2.44-1-3.22-1.28A2.25 2.25 0 0 0 60 47a5.67 5.67 0 0 0-1.45 2.4z" fill="#604238"/><path d="M66 52.49a2.38 2.38 0 0 0-2.34-1.71c.06-.82 1.81-2.16 1.59-3s-2.44-1-3.22-1.28a2.16 2.16 0 0 0-1.85.35c.81.2 1.61.48 1.73.93.22.8-1.53 2.14-1.59 3a2.38 2.38 0 0 1 2.34 1.71 2.91 2.91 0 0 1-1.25 3 2.28 2.28 0 0 1-1 3 2.82 2.82 0 0 1-1.35 4.33c.84.4.89 1.57.8 2.5-.18 1.94-.66 4.29-2.51 4.91a2.63 2.63 0 0 1-.33 3.3 2.48 2.48 0 0 0 3.67-3.3c1.85-.62 2.33-3 2.51-4.91.08-.93 0-2.1-.8-2.5a2.82 2.82 0 0 0 1.35-4.33 2.27 2.27 0 0 0 1-3 2.9 2.9 0 0 0 1.25-3z" fill="#4f332c"/><path d="M88.7 52.55a8.6 8.6 0 0 1-5.9.87 21.89 21.89 0 0 1-5.74-2c-3.66-1.77-7.51-3.94-11.52-3.29-2.91.47-4.68 2.26-6.25 4.56-1.42 2.07-3.36 3.14-6 1.67-2.19-1.2-2.82-4.22-2-6.57S54 43.68 56 42.16a44.76 44.76 0 0 1 5.92-3.94A8 8 0 0 1 65 37.06c2.28-.25 4.38 1.25 6.64 1.66 3.59.65 7.25-1.44 10.79-2.16a8.07 8.07 0 0 1 4.64.22 8.23 8.23 0 0 1 4.07 3.91c2.08 3.93 1.41 9.6-2.44 11.86z" fill="#969b2c"/><path d="M46.3 25.86C38.94 22.57 30 23.61 23.2 28A27.78 27.78 0 0 1 44 29.66a27.44 27.44 0 0 1 9.37 7.82 27 27 0 0 1 3.18 5.25c.66 1.45 1.31 3.9 2.27 1.46 1.14-2.93-2.09-8.66-3.67-10.95a21.6 21.6 0 0 0-8.85-7.38z" fill="#bc1b21"/><path d="M40.14 36.13A21 21 0 0 0 24 47.54a23.48 23.48 0 0 1 30.83-3.33c1.1.79 2.63 2.31 2.29.11-.41-2.65-5.23-5.5-7.37-6.51a18.37 18.37 0 0 0-9.61-1.68z" fill="#bc1b21"/><path d="m39.22 55.39.06.07 15.82 33.1-8.29 4L31 59.42v-.09l.27-10.07 4.29 3.27 1.66 1.27 1.69 1.29.37.28z" fill="#c9c2c9"/><path d="m39.22 55.39.06.07 15.82 33.1-4.15 2-19.72-41.29 4.29 3.27 1.66 1.27 1.69 1.29.37.28z" fill="#b2afb2"/><path fill="#d8d6d8" d="m37.18 53.81-1.6 4.55-2.17 6.12-1.21-2.55 3.32-9.39 1.66 1.27zm2.04 1.58.06.07v.11L35 67.81l-.37-.76 2.16-6.12 2.07-5.83.37.28zm7.73 16.14-2.16 6.12-2.16 6.12.36.76 2.17-6.12 2.16-6.12-.37-.76zm-2.96-6.2 1.22 2.55L43.05 74l-2.16 6.12-1.22-2.55 4.32-12.24zm7.74 16.18 1.21 2.55-2.16 6.12-.19.54-2.55 1.21 3.69-10.42z"/><path fill="#c9c2c9" d="m35.58 58.36 1.6-4.55-1.66-1.27-1.16 3.27 1.22 2.55zm3.66-2.98-.37-.28-2.07 5.83.37.76 2.16-6.12v-.11l-.06-.07zm5.92 23.03 2.16-6.12-.37-.76-2.16 6.12.37.76zM43.05 74l2.16-6.12-1.22-2.55-2.16 6.12L43.05 74zm7.73 16.18 2.16-6.12-1.21-2.55-2.17 6.12 1.22 2.55z"/><path d="M65.25 78.34a20.64 20.64 0 0 1-11.9 17.22c-3.7 2-13 4.06-20.87-1.56a37.92 37.92 0 0 0 32.77-15.66z" fill="#ffb21a"/><path d="M52.58 93.94a21.1 21.1 0 0 1-18 .13c-.76 0-1.46 0-2.08-.07 7.84 5.62 17.17 3.59 20.87 1.56a20.64 20.64 0 0 0 11.9-17.22c-.4.55-.81 1.08-1.22 1.59a21 21 0 0 1-11.47 14.01z" fill="#ff990b"/><path fill="#68442e" d="m49.495 94.092 5.306-2.535 8.76 18.334-5.305 2.535z"/><path fill="#583e31" d="m52.279 92.75 2.517-1.203 8.761 18.334-2.517 1.203z"/><path fill="#3f2c24" d="m60.89 104.31.49 1.02-1.32 3.72-1.07 3.02-.73.36-.14-.28 2.77-7.84zM59 100.35l.49 1.02-2.77 7.84-.49-1.02 2.77-7.84zm-1.89-3.95.49 1.02-2.77 7.83-.49-1.01 2.77-7.84zm-1.89-3.96.49 1.02-2.77 7.84-.49-1.02 2.77-7.84z"/><circle cx="61.29" cy="112.19" r="4.38" fill="#ffb21a"/><path d="m59.4 108.23-.43.24a4.38 4.38 0 0 1 3.75 7.86 2.62 2.62 0 0 0 .46-.19 4.38 4.38 0 1 0-3.78-7.91z" fill="#ff990b"/><path d="M58.06 113.74a4.38 4.38 0 0 1 1.71-5.66l-.37.15a4.38 4.38 0 0 0 3.78 7.91 2.47 2.47 0 0 0 .36-.19 4.37 4.37 0 0 1-5.48-2.21z" fill="#fdd224"/><circle cx="52.02" cy="92.77" r="4.38" fill="#ffb21a"/><path d="M48.6 94.41a4.39 4.39 0 0 1 1.8-5.71c-.09 0-.18.07-.27.12a4.38 4.38 0 0 0 3.78 7.91l.26-.14a4.38 4.38 0 0 1-5.57-2.18z" fill="#fdd224"/><path d="m50.13 88.82-.27.14a4.38 4.38 0 0 1 3.77 7.89l.28-.12a4.38 4.38 0 1 0-3.78-7.91z" fill="#ff990b"/><circle cx="52.02" cy="92.77" r="2.79" fill="#bc1b21"/><circle cx="50.49" cy="93.28" r=".8" fill="#fff"/><circle cx="51.24" cy="91.16" r=".31" fill="#fff"/><circle cx="54.01" cy="93.48" r=".4" fill="#96151f"/><path d="M56.88 101.74a10.5 10.5 0 0 0-3.34 8 3 3 0 0 0 1.37 2.77c1.15.53 2.46-.31 3.31-1.25a11.1 11.1 0 0 0 2.86-7.7c-.08-2.64-1.91-3.91-4.2-1.82z" fill="#f9c18a"/><path d="M88.7 52.55a8.6 8.6 0 0 1-5.9.87c4.76-5.44 2.06-12.55-.4-16.86a8.07 8.07 0 0 1 4.64.22 8.23 8.23 0 0 1 4.07 3.91c2.11 3.93 1.44 9.6-2.41 11.86z" fill="#878722"/><circle cx="57.39" cy="44.77" r="1.8" fill="#fdbb29"/></svg>