<svg xmlns="http://www.w3.org/2000/svg" viewBox="0 0 138.83 215.65"><path fill="#fff" d="M0 0h138.82v215.65H0z"/><path fill="none" stroke="#7f664a" stroke-miterlimit="10" stroke-width=".5" d="M84.45 208.74H54.38m-17.37 0H6.94V8.91h30.07m64.81 0h30.06v199.83h-30.06M54.38 8.91h30.07"/><path d="M14.94 11v10a6.48 6.48 0 0 0 .1 1.44.94.94 0 0 0 .42.51 1.89 1.89 0 0 0 1 .2h.28v.34H10.3v-.34h.33a2.56 2.56 0 0 0 1.12-.15.93.93 0 0 0 .45-.49 5.5 5.5 0 0 0 .12-1.51v-6.32a3.64 3.64 0 0 0-.09-1.06.73.73 0 0 0-.3-.36.9.9 0 0 0-.51-.15 2.94 2.94 0 0 0-1.12.29l-.16-.33L14.65 11zm112.67 180.35v10a6 6 0 0 0 .1 1.44.9.9 0 0 0 .42.51 2 2 0 0 0 1 .2h.28v.33H123v-.33h.32a2.5 2.5 0 0 0 1.12-.18.91.91 0 0 0 .45-.5 5.36 5.36 0 0 0 .12-1.47V195a4.35 4.35 0 0 0-.08-1.07.73.73 0 0 0-.3-.36.9.9 0 0 0-.51-.15 2.94 2.94 0 0 0-1.12.29l-.17-.32 4.51-2.06z" fill="#7f664a"/><path d="M111.07 77.82a.42.42 0 0 1-.07.18l-46.79 46.8-11.73-11.75 46.79-46.8a.67.67 0 0 1 .14-.09l17.29-5.58-3 9.25-1.17 3.6-1.17 3.57-.26.81z" fill="#c9c2c9"/><path d="M111.07 77.82a.42.42 0 0 1-.07.18l-46.79 46.8-5.85-5.86L116.7 60.6l-3 9.25-1.17 3.6-1.17 3.55-.26.81z" fill="#b2afb2"/><path fill="#d8d6d8" d="M112.53 73.41H92.12l3.6-3.6h17.97l-1.16 3.6zm-1.46 4.41a.42.42 0 0 1-.07.18l-.15.16H87.41L88.49 77h22.87l-.26.81zm-22.8 22.85H64.85l-1.07 1.08H87.2l1.07-1.08zm8.76-8.75-3.6 3.6H70.01l3.6-3.6h23.42zm-22.87 22.87-3.6 3.6H57.82l-3.6-3.6h19.94z"/><path fill="#c9c2c9" d="M103.83 73.41h8.7l1.16-3.6h-6.26l-3.6 3.6zm7.27 4.44.26-.81H100.2l-1.08 1.08h11.71L111 78a.42.42 0 0 0 .09-.14zm-35.61 23.9H87.2l1.07-1.08H76.56l-1.07 1.08zm6.23-6.23h11.71l3.6-3.6H85.32l-3.6 3.6zm-22.87 22.87h11.71l3.6-3.6H62.45l-3.6 3.6z"/><path d="M87.69 135.88c-6.44 2.12-22.84 3.49-36.45-9.88-5.67-5.09-14.73-19.74-9.89-36.45a67.32 67.32 0 0 0 17.26 29.08 66.92 66.92 0 0 0 29.08 17.25z" fill="#ffb21a"/><path d="M53.53 123.71c-5-4.48-12.62-16.38-11.05-30.57-.45-1.29-.82-2.49-1.13-3.59-4.84 16.71 4.22 31.36 9.89 36.45 13.61 13.37 30 12 36.45 9.88-1.2-.35-2.34-.73-3.45-1.12a37.86 37.86 0 0 1-30.71-11.05z" fill="#ff990b"/><path fill="#68442e" d="m25.501 144.47 25.923-25.923 7.495 7.496-25.922 25.922z"/><path fill="#583e31" d="m29.433 148.406 25.923-25.923 3.556 3.557-25.922 25.922z"/><path fill="#3f2c24" d="m40.89 144.07-1.44 1.44h-12.9l-1.05-1.04.4-.4h14.99zm5.59-5.58-1.43 1.43h-15l1.44-1.43h14.99zm5.59-5.6-1.43 1.44h-15l1.44-1.44h14.99zm5.59-5.59-1.43 1.44h-15l1.44-1.44h14.99z"/><circle cx="27.73" cy="149.5" r="7.91" fill="#ffb21a"/><path d="M33.32 143.9a7.44 7.44 0 0 0-.67-.59 7.9 7.9 0 0 1-11.11 11.1c.19.24.39.46.6.68a7.91 7.91 0 1 0 11.18-11.19z" fill="#ff990b"/><path d="M23.16 144.92a7.9 7.9 0 0 1 10.65-.48c-.16-.19-.32-.36-.49-.54a7.91 7.91 0 0 0-11.18 11.19c.17.17.35.33.53.48a7.91 7.91 0 0 1 .49-10.65z" fill="#fdd224"/><circle cx="55.18" cy="122.06" r="7.91" fill="#ffb21a"/><path d="M50.35 117.22a7.9 7.9 0 0 1 10.79-.36 4.59 4.59 0 0 0-.37-.39 7.91 7.91 0 0 0-11.18 11.18l.41.35a7.91 7.91 0 0 1 .35-10.78z" fill="#fdd224"/><path d="M60.77 116.47a4.61 4.61 0 0 0-.4-.37 7.9 7.9 0 0 1-11.15 11.15c.12.13.24.27.37.4a7.91 7.91 0 1 0 11.18-11.18z" fill="#ff990b"/><circle cx="55.18" cy="122.06" r="5.03" fill="#bc1b21"/><circle cx="53.4" cy="119.76" r="1.44" fill="#fff"/><circle cx="57.46" cy="119.76" r=".57" fill="#fff"/><circle cx="55.18" cy="125.86" r=".72" fill="#96151f"/></svg>