<svg xmlns="http://www.w3.org/2000/svg" viewBox="0 0 138.83 215.65"><path fill="#fff" d="M0 0h138.82v215.65H0z"/><path fill="none" stroke="#7f664a" stroke-miterlimit="10" stroke-width=".5" d="M37.01 208.74H6.94V8.91h30.07m47.44 199.83H54.38M101.82 8.91h30.06v199.83h-30.06M54.38 8.91h30.07"/><path d="M34.53 102.15H80.2v11.39H34.53l-11.13-5.7 6-3 2.32-1.18 2.34-1.2.52-.26z" fill="#c9c2c9"/><path d="M34.53 102.15H80.2v5.69H23.4l6-3 2.32-1.18 2.34-1.2.52-.26z" fill="#b2afb2"/><path fill="#d8d6d8" d="m31.67 103.59 4.24 4.24 5.7 5.7H38.1l-8.74-8.75 2.31-1.19zm2.86-1.44h.26l11.4 11.39h-1l-5.69-5.7-5.5-5.45.52-.26zm22.22-.02 5.7 5.7 5.7 5.7h1.05l-5.7-5.7-5.7-5.7h-1.05zm-8.52 0h3.5l5.7 5.7 5.7 5.7h-3.5l-11.4-11.4zm22.26 0h3.5l5.7 5.7.51.5v3.5l-9.71-9.7z"/><path fill="#c9c2c9" d="m35.91 107.83-4.24-4.24-2.31 1.19 3.05 3.05h3.5zm-1.38-5.7-.52.26 5.44 5.43h1l-5.7-5.69h-.26zm28.97 5.7-5.7-5.7h-1.05l5.7 5.7h1.05zm-6.07 0-5.7-5.7h-3.5l5.7 5.7h3.5zm22.26 0-5.7-5.7h-3.5l5.7 5.7h3.5z"/><path d="M74.18 85.27c4.17 2.09 12.82 9.42 12.92 22.56.29 5.23-2.43 16.77-12.92 22.55a47.11 47.11 0 0 0 0-45.11z" fill="#ffb21a"/><path d="M84.88 107.83a26.23 26.23 0 0 1-9.51 20.25c-.4.85-.81 1.62-1.19 2.3 10.49-5.78 13.21-17.32 12.92-22.55-.1-13.14-8.75-20.47-12.92-22.56.4.76.78 1.5 1.13 2.23a26.09 26.09 0 0 1 9.57 20.33z" fill="#ff990b"/><path fill="#68442e" d="M83.39 104.06h25.23v7.3H83.39z"/><path fill="#583e31" d="M83.39 104.06h25.23v3.46H83.39z"/><path fill="#3f2c24" d="M100.94 104.06h1.4l3.46 3.47 2.82 2.82v1.01h-.38l-7.3-7.3zm-5.44 0h1.4l7.29 7.3h-1.4l-7.29-7.3zm-5.45 0h1.4l7.3 7.3h-1.4l-7.3-7.3zm-5.44 0h1.4l7.3 7.3h-1.4l-7.3-7.3z"/><circle cx="109.98" cy="107.83" r="5.44" fill="#ffb21a"/><path d="M104.54 107.83a4.21 4.21 0 0 0 0 .62 5.44 5.44 0 0 1 10.81 0v-.62a5.44 5.44 0 0 0-10.88 0z" fill="#ff990b"/><path d="M110 112.28a5.44 5.44 0 0 1-5.42-4.94v.49a5.44 5.44 0 0 0 10.88 0 3.93 3.93 0 0 0 0-.49 5.44 5.44 0 0 1-5.46 4.94z" fill="#fdd224"/><circle cx="83.27" cy="107.83" r="5.44" fill="#ffb21a"/><path d="M83.27 112.53a5.44 5.44 0 0 1-5.43-5.07v.37a5.45 5.45 0 0 0 10.89 0v-.37a5.43 5.43 0 0 1-5.46 5.07z" fill="#fdd224"/><path d="M77.82 107.83v.37a5.44 5.44 0 0 1 10.85 0v-.37a5.45 5.45 0 1 0-10.89 0z" fill="#ff990b"/><circle cx="83.27" cy="107.83" r="3.46" fill="#bc1b21"/><circle cx="83.02" cy="109.81" r=".99" fill="#fff"/><circle cx="81.04" cy="107.83" r=".39" fill="#fff"/><circle cx="85.12" cy="105.97" r=".49" fill="#96151f"/><path d="M51.59 78.11a.24.24 0 0 1 0-.08V46.78h7.81V78a.24.24 0 0 1 0 .08l-3.92 7.63-2.09-4.08-.81-1.59-.82-1.61-.19-.35z" fill="#c9c2c9"/><path d="M51.59 78.11a.24.24 0 0 1 0-.08V46.78h3.91v39l-2.09-4.08-.81-1.59-.82-1.61-.19-.35z" fill="#b2afb2"/><path fill="#d8d6d8" d="m52.58 80.07 2.9-2.91 3.92-3.91v2.41l-6.01 6-.81-1.59zm-.99-1.96a.24.24 0 0 1 0-.08v-.1l7.83-7.82v.71l-3.92 3.92-3.72 3.72-.19-.35zm-.02-15.25 3.91-3.91 3.92-3.91v-.72l-3.92 3.91-3.91 3.91v.72zm0 5.85v-2.4l3.91-3.91 3.92-3.91v2.4l-7.83 7.82zm0-15.27v-2.41l3.91-3.91.35-.34h2.4l-6.66 6.66z"/><path fill="#c9c2c9" d="m55.48 77.16-2.9 2.91.81 1.59 2.09-2.09v-2.41zm-3.91.95.19.35 3.72-3.72V74l-3.91 3.91V78a.24.24 0 0 0 0 .08zm3.91-19.88-3.91 3.91v.72l3.91-3.91v-.72zm0 4.17-3.91 3.91v2.4l3.91-3.91v-2.4zm0-15.28-3.91 3.91v2.41l3.91-3.92v-2.4z"/><path d="M40 50.91A17.58 17.58 0 0 1 55.48 42 17.76 17.76 0 0 1 71 50.91a32.29 32.29 0 0 0-30.95 0z" fill="#ffb21a"/><path d="M55.48 43.56a18 18 0 0 1 13.91 6.53c.58.28 1.1.55 1.57.82A17.76 17.76 0 0 0 55.48 42 17.58 17.58 0 0 0 40 50.91q.78-.42 1.53-.78a17.92 17.92 0 0 1 13.95-6.57z" fill="#ff990b"/><path fill="#68442e" d="M52.9 27.27h5.01v17.31H52.9z"/><path fill="#583e31" d="M52.9 27.27h2.38v17.31H52.9z"/><path fill="#3f2c24" d="M52.9 32.55v-.96l2.38-2.38 1.93-1.94h.7v.27l-5.01 5.01zm0 3.73v-.96l5.01-5.01v.96l-5.01 5.01zm0 3.73v-.96l5.01-5v.96l-5.01 5zm0 3.74v-.96l5.01-5.01v.96l-5.01 5.01z"/><circle cx="55.49" cy="26.34" r="3.73" fill="#ffb21a"/><path d="M55.49 30.07a3 3 0 0 0 .42 0 3.73 3.73 0 0 1 0-7.42h-.42a3.73 3.73 0 1 0 0 7.46z" fill="#ff990b"/><path d="M58.54 26.34a3.73 3.73 0 0 1-3.39 3.72h.34a3.73 3.73 0 0 0 0-7.46h-.34a3.73 3.73 0 0 1 3.39 3.74z" fill="#fdd224"/><circle cx="55.48" cy="44.67" r="3.73" fill="#ffb21a"/><path d="M58.71 44.67a3.72 3.72 0 0 1-3.48 3.72h.25a3.73 3.73 0 1 0 0-7.46h-.25a3.72 3.72 0 0 1 3.48 3.74z" fill="#fdd224"/><path d="M55.48 48.4h.26a3.73 3.73 0 0 1 0-7.44h-.26a3.73 3.73 0 0 0 0 7.46z" fill="#ff990b"/><circle cx="55.48" cy="44.67" r="2.38" fill="#bc1b21"/><circle cx="56.85" cy="44.84" r=".68" fill="#fff"/><circle cx="55.49" cy="46.2" r=".27" fill="#fff"/><circle cx="54.22" cy="43.4" r=".34" fill="#96151f"/><path d="M31.23 30.24a.22.22 0 0 1 0 .08v31.25h-7.81V30.32a.24.24 0 0 1 0-.08l3.91-7.63 2.1 4.08.81 1.59.82 1.61.18.35z" fill="#c9c2c9"/><path d="M31.23 30.24a.22.22 0 0 1 0 .08v31.25h-3.9v-39l2.1 4.08.81 1.59.82 1.61.18.35z" fill="#b2afb2"/><path fill="#d8d6d8" d="m30.24 28.28-2.91 2.91-3.91 3.91v-2.4l6.01-6.01.81 1.59zm.99 1.96a.22.22 0 0 1 0 .08v.1l-7.82 7.82v-.71l3.91-3.92 3.73-3.72.18.35zm.01 15.25-3.91 3.91-3.91 3.91v.72l3.91-3.91 3.91-3.91v-.72zm0-5.85v2.4l-3.91 3.91-3.91 3.91v-2.4l7.82-7.82zm0 15.27v2.41l-3.91 3.91-.34.34h-2.4l6.65-6.66z"/><path fill="#c9c2c9" d="m27.33 31.19 2.91-2.91-.81-1.59-2.1 2.09v2.41zm3.91-.95-.18-.35-3.73 3.72v.72l3.91-3.91v-.1a.22.22 0 0 0 0-.08zm-3.91 19.88 3.91-3.91v-.72l-3.91 3.91v.72zm0-4.17 3.91-3.91v-2.4l-3.91 3.91v2.4zm0 15.28 3.91-3.91v-2.41l-3.91 3.92v2.4z"/><path d="M42.81 57.44a17.6 17.6 0 0 1-15.48 8.87 17.75 17.75 0 0 1-15.47-8.87 31.72 31.72 0 0 0 15.47 4 31.7 31.7 0 0 0 15.48-4z" fill="#ffb21a"/><path d="M27.33 64.78a18 18 0 0 1-13.9-6.52c-.58-.28-1.1-.55-1.57-.82a17.75 17.75 0 0 0 15.47 8.87 17.6 17.6 0 0 0 15.48-8.87q-.78.42-1.53.78a17.89 17.89 0 0 1-13.95 6.56z" fill="#ff990b"/><path fill="#68442e" d="M24.91 63.76h5.01v17.31h-5.01z"/><path fill="#583e31" d="M27.54 63.76h2.38v17.31h-2.38z"/><path fill="#3f2c24" d="M29.91 75.8v.97l-2.37 2.37-1.94 1.94h-.69v-.27l5-5.01zm0-3.73v.96l-5 5.01v-.96l5-5.01zm0-3.73v.96l-5 5v-.96l5-5zm0-3.74v.96l-5 5.01v-.96l5-5.01z"/><circle cx="27.33" cy="82.01" r="3.73" fill="#ffb21a"/><path d="M27.33 78.28a3 3 0 0 0-.42 0 3.73 3.73 0 0 1 0 7.42h.42a3.73 3.73 0 1 0 0-7.46z" fill="#ff990b"/><path d="M24.28 82a3.73 3.73 0 0 1 3.39-3.72h-.34a3.73 3.73 0 1 0 0 7.46h.34A3.73 3.73 0 0 1 24.28 82z" fill="#fdd224"/><circle cx="27.33" cy="63.68" r="3.73" fill="#ffb21a"/><path d="M24.11 63.68A3.72 3.72 0 0 1 27.59 60h-.26a3.73 3.73 0 0 0 0 7.46h.26a3.72 3.72 0 0 1-3.48-3.78z" fill="#fdd224"/><path d="M27.33 60h-.25a3.73 3.73 0 0 1 0 7.44h.25a3.73 3.73 0 1 0 0-7.46z" fill="#ff990b"/><circle cx="27.33" cy="63.68" r="2.38" fill="#bc1b21"/><circle cx="25.97" cy="63.51" r=".68" fill="#fff"/><circle cx="27.33" cy="62.15" r=".27" fill="#fff"/><circle cx="28.6" cy="64.95" r=".34" fill="#96151f"/><path d="M107.6 78.11a.24.24 0 0 1 0-.08V46.78h7.82V78a.12.12 0 0 1 0 .08l-3.91 7.63-2.09-4.08-.81-1.59-.83-1.61-.18-.35z" fill="#c9c2c9"/><path d="M107.6 78.11a.24.24 0 0 1 0-.08V46.78h3.91v39l-2.09-4.08-.81-1.59-.83-1.61-.18-.35z" fill="#b2afb2"/><path fill="#d8d6d8" d="m108.59 80.07 2.9-2.91 3.91-3.91v2.41l-6 6-.81-1.59zm-.99-1.96a.24.24 0 0 1 0-.08v-.1l7.82-7.82v.71l-3.91 3.92-3.73 3.72-.18-.35zm-.02-15.25 3.91-3.91 3.91-3.91v-.72l-3.91 3.91-3.91 3.91v.72zm0 5.85v-2.4l3.91-3.91 3.91-3.91v2.4l-7.82 7.82zm0-15.27v-2.41l3.91-3.91.35-.34h2.4l-6.66 6.66z"/><path fill="#c9c2c9" d="m111.49 77.16-2.9 2.91.81 1.59 2.09-2.09v-2.41zm-3.91.95.18.35 3.73-3.72V74l-3.91 3.91V78a.24.24 0 0 0 0 .08zm3.91-19.88-3.91 3.91v.72l3.91-3.91v-.72zm0 4.17-3.91 3.91v2.4l3.91-3.91v-2.4zm0-15.28-3.91 3.91v2.41l3.91-3.92v-2.4z"/><path d="M96 50.91a17.93 17.93 0 0 1 30.94 0 32.27 32.27 0 0 0-30.94 0z" fill="#ffb21a"/><path d="M111.49 43.56a18 18 0 0 1 13.9 6.53c.58.28 1.11.55 1.57.82a17.93 17.93 0 0 0-30.94 0c.52-.28 1-.54 1.53-.78a17.9 17.9 0 0 1 13.94-6.57z" fill="#ff990b"/><path fill="#68442e" d="M108.91 27.27h5.01v17.31h-5.01z"/><path fill="#583e31" d="M108.91 27.27h2.38v17.31h-2.38z"/><path fill="#3f2c24" d="M108.91 32.55v-.96l2.38-2.38 1.93-1.94h.7v.27l-5.01 5.01zm0 3.73v-.96l5.01-5.01v.96l-5.01 5.01zm0 3.73v-.96l5.01-5v.96l-5.01 5zm0 3.74v-.96l5.01-5.01v.96l-5.01 5.01z"/><circle cx="111.49" cy="26.34" r="3.73" fill="#ffb21a"/><path d="M111.49 30.07a3 3 0 0 0 .43 0 3.73 3.73 0 0 1 0-7.42h-.43a3.73 3.73 0 1 0 0 7.46z" fill="#ff990b"/><path d="M114.55 26.34a3.73 3.73 0 0 1-3.39 3.72h.33a3.73 3.73 0 1 0 0-7.46h-.33a3.73 3.73 0 0 1 3.39 3.74z" fill="#fdd224"/><circle cx="111.49" cy="44.67" r="3.73" fill="#ffb21a"/><path d="M114.72 44.67a3.73 3.73 0 0 1-3.48 3.72h.25a3.73 3.73 0 1 0 0-7.46h-.25a3.73 3.73 0 0 1 3.48 3.74z" fill="#fdd224"/><path d="M111.49 48.4h.26a3.73 3.73 0 0 1 0-7.44h-.26a3.73 3.73 0 1 0 0 7.46z" fill="#ff990b"/><circle cx="111.49" cy="44.67" r="2.38" fill="#bc1b21"/><circle cx="112.85" cy="44.84" r=".68" fill="#fff"/><circle cx="111.49" cy="46.2" r=".27" fill="#fff"/><circle cx="110.22" cy="43.4" r=".34" fill="#96151f"/><path d="M87.23 30.24a.24.24 0 0 1 0 .08v31.25h-7.8V30.32a.24.24 0 0 1 0-.08l3.91-7.63 2.09 4.08.82 1.59.82 1.61.18.35z" fill="#c9c2c9"/><path d="M87.23 30.24a.24.24 0 0 1 0 .08v31.25h-3.89v-39l2.09 4.08.82 1.59.82 1.61.18.35z" fill="#b2afb2"/><path fill="#d8d6d8" d="m86.25 28.28-2.91 2.91-3.91 3.91v-2.4l6-6.01.82 1.59zm.98 1.96a.24.24 0 0 1 0 .08v.1l-7.82 7.82v-.71l3.91-3.92 3.73-3.72.18.35zm.02 15.25-3.91 3.91-3.91 3.91v.72l3.91-3.91 3.91-3.91v-.72zm0-5.85v2.4l-3.91 3.91-3.91 3.91v-2.4l7.82-7.82zm0 15.27v2.41l-3.91 3.91-.34.34h-2.41l6.66-6.66z"/><path fill="#c9c2c9" d="m83.34 31.19 2.91-2.91-.82-1.59-2.09 2.09v2.41zm3.91-.95-.18-.35-3.73 3.72v.72l3.91-3.91v-.1a.24.24 0 0 0 0-.08zm-3.91 19.88 3.91-3.91v-.72l-3.91 3.91v.72zm0-4.17 3.91-3.91v-2.4l-3.91 3.91v2.4zm0 15.28 3.91-3.91v-2.41l-3.91 3.92v2.4z"/><path d="M98.81 57.44a17.93 17.93 0 0 1-30.94 0 32.27 32.27 0 0 0 30.94 0z" fill="#ffb21a"/><path d="M83.34 64.78a18 18 0 0 1-13.9-6.52c-.58-.28-1.11-.55-1.57-.82a17.93 17.93 0 0 0 30.94 0c-.51.28-1 .54-1.52.78a17.91 17.91 0 0 1-13.95 6.56z" fill="#ff990b"/><path fill="#68442e" d="M80.91 63.76h5.01v17.31h-5.01z"/><path fill="#583e31" d="M83.55 63.76h2.38v17.31h-2.38z"/><path fill="#3f2c24" d="M85.92 75.8v.97l-2.37 2.37-1.94 1.94h-.69v-.27l5-5.01zm0-3.73v.96l-5 5.01v-.96l5-5.01zm0-3.73v.96l-5 5v-.96l5-5zm0-3.74v.96l-5 5.01v-.96l5-5.01z"/><circle cx="83.34" cy="82.01" r="3.73" fill="#ffb21a"/><path d="M83.34 78.28a3 3 0 0 0-.43 0 3.73 3.73 0 0 1 0 7.42h.43a3.73 3.73 0 0 0 0-7.46z" fill="#ff990b"/><path d="M80.28 82a3.73 3.73 0 0 1 3.4-3.72h-.34a3.73 3.73 0 1 0 0 7.46h.34a3.73 3.73 0 0 1-3.4-3.74z" fill="#fdd224"/><circle cx="83.34" cy="63.68" r="3.73" fill="#ffb21a"/><path d="M80.11 63.68A3.73 3.73 0 0 1 83.59 60h-.25a3.73 3.73 0 0 0 0 7.46h.25a3.73 3.73 0 0 1-3.48-3.78z" fill="#fdd224"/><path d="M83.34 60h-.26a3.73 3.73 0 0 1 0 7.44h.26a3.73 3.73 0 0 0 0-7.46z" fill="#ff990b"/><circle cx="83.34" cy="63.68" r="2.38" fill="#bc1b21"/><circle cx="81.98" cy="63.51" r=".68" fill="#fff"/><circle cx="83.34" cy="62.15" r=".27" fill="#fff"/><circle cx="84.61" cy="64.95" r=".34" fill="#96151f"/><path d="M87.23 137.54a.24.24 0 0 1 0 .08v31.25h-7.8v-31.25a.24.24 0 0 1 0-.08l3.91-7.63 2.09 4.09.82 1.59.82 1.61.18.35z" fill="#c9c2c9"/><path d="M87.23 137.54a.24.24 0 0 1 0 .08v31.25h-3.89v-39l2.09 4.13.82 1.59.82 1.61.18.35z" fill="#b2afb2"/><path fill="#d8d6d8" d="m86.25 135.58-2.91 2.91-3.91 3.91V140l6-6.01.82 1.59zm.98 1.96a.24.24 0 0 1 0 .08v.1l-7.82 7.82v-.71l3.91-3.92 3.73-3.72.18.35zm.02 15.25-3.91 3.91-3.91 3.91v.72l3.91-3.91 3.91-3.91v-.72zm0-5.85v2.4l-3.91 3.91-3.91 3.91v-2.4l7.82-7.82zm0 15.28v2.4l-3.91 3.91-.34.34h-2.41l6.66-6.65z"/><path fill="#c9c2c9" d="m83.34 138.49 2.91-2.91-.82-1.59-2.09 2.09v2.41zm3.91-.95-.18-.35-3.73 3.72v.72l3.91-3.91v-.1a.24.24 0 0 0 0-.08zm-3.91 19.88 3.91-3.91v-.72l-3.91 3.91v.72zm0-4.17 3.91-3.91v-2.4l-3.91 3.91v2.4zm0 15.28 3.91-3.91v-2.4l-3.91 3.91v2.4z"/><path d="M98.81 164.74a17.93 17.93 0 0 1-30.94 0 32.27 32.27 0 0 0 30.94 0z" fill="#ffb21a"/><path d="M83.34 172.09a18 18 0 0 1-13.9-6.53c-.58-.28-1.11-.55-1.57-.82a17.93 17.93 0 0 0 30.94 0c-.51.28-1 .54-1.52.78a17.94 17.94 0 0 1-13.95 6.57z" fill="#ff990b"/><path fill="#68442e" d="M80.91 171.06h5.01v17.31h-5.01z"/><path fill="#583e31" d="M83.55 171.06h2.38v17.31h-2.38z"/><path fill="#3f2c24" d="M85.92 183.1v.96l-2.37 2.38-1.94 1.94h-.69v-.27l5-5.01zm0-3.73v.96l-5 5.01v-.96l5-5.01zm0-3.73v.96l-5 5v-.96l5-5zm0-3.74v.96l-5 5.01v-.96l5-5.01z"/><circle cx="83.34" cy="189.31" r="3.73" fill="#ffb21a"/><path d="M83.34 185.58a3 3 0 0 0-.43 0 3.73 3.73 0 0 1 0 7.42h.43a3.73 3.73 0 0 0 0-7.46z" fill="#ff990b"/><path d="M80.28 189.31a3.73 3.73 0 0 1 3.4-3.72h-.34a3.73 3.73 0 1 0 0 7.46h.34a3.73 3.73 0 0 1-3.4-3.74z" fill="#fdd224"/><circle cx="83.34" cy="170.98" r="3.73" fill="#ffb21a"/><path d="M80.11 171a3.73 3.73 0 0 1 3.48-3.72h-.25a3.73 3.73 0 1 0 0 7.46h.25a3.73 3.73 0 0 1-3.48-3.74z" fill="#fdd224"/><path d="M83.34 167.25h-.26a3.73 3.73 0 0 1 0 7.44h.26a3.73 3.73 0 1 0 0-7.46z" fill="#ff990b"/><circle cx="83.34" cy="170.98" r="2.38" fill="#bc1b21"/><circle cx="81.98" cy="170.81" r=".68" fill="#fff"/><circle cx="83.34" cy="169.45" r=".27" fill="#fff"/><circle cx="84.61" cy="172.25" r=".34" fill="#96151f"/><path d="M107.6 185.41a.24.24 0 0 1 0-.08v-31.25h7.82v31.25a.12.12 0 0 1 0 .08l-3.93 7.59-2.09-4-.81-1.59-.83-1.61-.18-.35z" fill="#c9c2c9"/><path d="M107.6 185.41a.24.24 0 0 1 0-.08v-31.25h3.91v39L109.4 189l-.81-1.59-.83-1.61-.18-.35z" fill="#b2afb2"/><path fill="#d8d6d8" d="m108.59 187.37 2.9-2.91 3.91-3.91v2.41l-6 6-.81-1.59zm-.99-1.96a.24.24 0 0 1 0-.08v-.1l7.82-7.82v.71l-3.93 3.88-3.73 3.72-.18-.35zm-.02-15.25 3.91-3.91 3.91-3.91v-.72l-3.91 3.91-3.91 3.91v.72zm0 5.85v-2.4l3.91-3.91 3.91-3.91v2.4l-7.82 7.82zm0-15.27v-2.41l3.91-3.91.35-.34h2.4l-6.66 6.66z"/><path fill="#c9c2c9" d="m111.49 184.46-2.9 2.91.81 1.59 2.09-2.09v-2.41zm-3.91.95.18.35 3.73-3.72v-.72l-3.91 3.91v.1a.24.24 0 0 0 0 .08zm3.91-19.88-3.91 3.91v.72l3.91-3.91v-.72zm0 4.17-3.91 3.91v2.4l3.91-3.91v-2.4zm0-15.28-3.91 3.91v2.41l3.91-3.92v-2.4z"/><path d="M96 158.21a17.93 17.93 0 0 1 30.94 0 32.27 32.27 0 0 0-30.94 0z" fill="#ffb21a"/><path d="M111.49 150.87a17.94 17.94 0 0 1 13.9 6.52c.58.28 1.11.55 1.57.82a17.93 17.93 0 0 0-30.94 0c.52-.28 1-.54 1.53-.78a17.87 17.87 0 0 1 13.94-6.56z" fill="#ff990b"/><path fill="#68442e" d="M108.91 134.57h5.01v17.31h-5.01z"/><path fill="#583e31" d="M108.91 134.57h2.38v17.31h-2.38z"/><path fill="#3f2c24" d="M108.91 139.85v-.97l2.38-2.37 1.93-1.94h.7v.27l-5.01 5.01zm0 3.73v-.96l5.01-5.01v.96l-5.01 5.01zm0 3.73v-.96l5.01-5v.96l-5.01 5zm0 3.74v-.96l5.01-5.01v.96l-5.01 5.01z"/><circle cx="111.49" cy="133.64" r="3.73" fill="#ffb21a"/><path d="M111.49 137.37a3 3 0 0 0 .43 0 3.73 3.73 0 0 1 0-7.42h-.43a3.73 3.73 0 1 0 0 7.46z" fill="#ff990b"/><path d="M114.55 133.64a3.73 3.73 0 0 1-3.39 3.72h.33a3.73 3.73 0 1 0 0-7.46h-.33a3.73 3.73 0 0 1 3.39 3.74z" fill="#fdd224"/><circle cx="111.49" cy="151.97" r="3.73" fill="#ffb21a"/><path d="M114.72 152a3.73 3.73 0 0 1-3.48 3.72h.25a3.73 3.73 0 1 0 0-7.46h-.25a3.73 3.73 0 0 1 3.48 3.74z" fill="#fdd224"/><path d="M111.49 155.7h.26a3.73 3.73 0 0 1 0-7.44h-.26a3.73 3.73 0 1 0 0 7.46z" fill="#ff990b"/><circle cx="111.49" cy="151.97" r="2.38" fill="#bc1b21"/><circle cx="112.85" cy="152.14" r=".68" fill="#fff"/><circle cx="111.49" cy="153.5" r=".27" fill="#fff"/><circle cx="110.22" cy="150.7" r=".34" fill="#96151f"/><path d="M31.23 137.54a.22.22 0 0 1 0 .08v31.25h-7.81v-31.25a.24.24 0 0 1 0-.08l3.91-7.63 2.1 4.08.81 1.59.82 1.61.18.35z" fill="#c9c2c9"/><path d="M31.23 137.54a.22.22 0 0 1 0 .08v31.25h-3.9v-39l2.1 4.08.81 1.59.82 1.61.18.35z" fill="#b2afb2"/><path fill="#d8d6d8" d="m30.24 135.58-2.91 2.91-3.91 3.91V140l6.01-6.01.81 1.59zm.99 1.96a.22.22 0 0 1 0 .08v.1l-7.82 7.82v-.71l3.91-3.92 3.73-3.72.18.35zm.01 15.25-3.91 3.91-3.91 3.91v.72l3.91-3.91 3.91-3.91v-.72zm0-5.85v2.4l-3.91 3.91-3.91 3.91v-2.4l7.82-7.82zm0 15.28v2.4l-3.91 3.91-.34.34h-2.4l6.65-6.65z"/><path fill="#c9c2c9" d="m27.33 138.49 2.91-2.91-.81-1.59-2.1 2.09v2.41zm3.91-.95-.18-.35-3.73 3.72v.72l3.91-3.91v-.1a.22.22 0 0 0 0-.08zm-3.91 19.88 3.91-3.91v-.72l-3.91 3.91v.72zm0-4.17 3.91-3.91v-2.4l-3.91 3.91v2.4zm0 15.28 3.91-3.91v-2.4l-3.91 3.91v2.4z"/><path d="M42.81 164.74a17.6 17.6 0 0 1-15.48 8.87 17.75 17.75 0 0 1-15.47-8.87 31.72 31.72 0 0 0 15.47 3.95 31.7 31.7 0 0 0 15.48-3.95z" fill="#ffb21a"/><path d="M27.33 172.09a18 18 0 0 1-13.9-6.53c-.58-.28-1.1-.55-1.57-.82a17.75 17.75 0 0 0 15.47 8.87 17.6 17.6 0 0 0 15.48-8.87q-.78.42-1.53.78a17.93 17.93 0 0 1-13.95 6.57z" fill="#ff990b"/><path fill="#68442e" d="M24.91 171.06h5.01v17.31h-5.01z"/><path fill="#583e31" d="M27.54 171.06h2.38v17.31h-2.38z"/><path fill="#3f2c24" d="M29.91 183.1v.96l-2.37 2.38-1.94 1.94h-.69v-.27l5-5.01zm0-3.73v.96l-5 5.01v-.96l5-5.01zm0-3.73v.96l-5 5v-.96l5-5zm0-3.74v.96l-5 5.01v-.96l5-5.01z"/><circle cx="27.33" cy="189.31" r="3.73" fill="#ffb21a"/><path d="M27.33 185.58a3 3 0 0 0-.42 0 3.73 3.73 0 0 1 0 7.42h.42a3.73 3.73 0 1 0 0-7.46z" fill="#ff990b"/><path d="M24.28 189.31a3.73 3.73 0 0 1 3.39-3.72h-.34a3.73 3.73 0 0 0 0 7.46h.34a3.73 3.73 0 0 1-3.39-3.74z" fill="#fdd224"/><circle cx="27.33" cy="170.98" r="3.73" fill="#ffb21a"/><path d="M24.11 171a3.72 3.72 0 0 1 3.48-3.72h-.26a3.73 3.73 0 1 0 0 7.46h.26a3.72 3.72 0 0 1-3.48-3.74z" fill="#fdd224"/><path d="M27.33 167.25h-.25a3.73 3.73 0 0 1 0 7.44h.25a3.73 3.73 0 1 0 0-7.46z" fill="#ff990b"/><circle cx="27.33" cy="170.98" r="2.38" fill="#bc1b21"/><circle cx="25.97" cy="170.81" r=".68" fill="#fff"/><circle cx="27.33" cy="169.45" r=".27" fill="#fff"/><circle cx="28.6" cy="172.25" r=".34" fill="#96151f"/><path d="M51.59 185.41a.24.24 0 0 1 0-.08v-31.25h7.81v31.25a.24.24 0 0 1 0 .08L55.48 193l-2.09-4-.81-1.59-.82-1.61-.19-.35z" fill="#c9c2c9"/><path d="M51.59 185.41a.24.24 0 0 1 0-.08v-31.25h3.91v39L53.39 189l-.81-1.59-.82-1.61-.19-.35z" fill="#b2afb2"/><path fill="#d8d6d8" d="m52.58 187.37 2.9-2.91 3.92-3.91v2.41l-6.01 6-.81-1.59zm-.99-1.96a.24.24 0 0 1 0-.08v-.1l7.83-7.82v.71L55.48 182l-3.72 3.72-.19-.35zm-.02-15.25 3.91-3.91 3.92-3.91v-.72l-3.92 3.91-3.91 3.91v.72zm0 5.85v-2.4l3.91-3.91 3.92-3.91v2.4l-7.83 7.82zm0-15.27v-2.41l3.91-3.91.35-.34h2.4l-6.66 6.66z"/><path fill="#c9c2c9" d="m55.48 184.46-2.9 2.91.81 1.59 2.09-2.09v-2.41zm-3.91.95.19.35 3.72-3.76v-.72l-3.91 3.91v.1a.24.24 0 0 0 0 .08zm3.91-19.88-3.91 3.91v.72l3.91-3.91v-.72zm0 4.17-3.91 3.91v2.4l3.91-3.91v-2.4zm0-15.28-3.91 3.91v2.41l3.91-3.92v-2.4z"/><path d="M40 158.21a17.58 17.58 0 0 1 15.47-8.87A17.76 17.76 0 0 1 71 158.21a32.29 32.29 0 0 0-30.95 0z" fill="#ffb21a"/><path d="M55.48 150.87a18 18 0 0 1 13.91 6.52c.58.28 1.1.55 1.57.82a17.76 17.76 0 0 0-15.48-8.87A17.58 17.58 0 0 0 40 158.21q.78-.42 1.53-.78a17.89 17.89 0 0 1 13.95-6.56z" fill="#ff990b"/><path fill="#68442e" d="M52.9 134.57h5.01v17.31H52.9z"/><path fill="#583e31" d="M52.9 134.57h2.38v17.31H52.9z"/><path fill="#3f2c24" d="M52.9 139.85v-.97l2.38-2.37 1.93-1.94h.7v.27l-5.01 5.01zm0 3.73v-.96l5.01-5.01v.96l-5.01 5.01zm0 3.73v-.96l5.01-5v.96l-5.01 5zm0 3.74v-.96l5.01-5.01v.96l-5.01 5.01z"/><circle cx="55.49" cy="133.64" r="3.73" fill="#ffb21a"/><path d="M55.49 137.37a3 3 0 0 0 .42 0 3.73 3.73 0 0 1 0-7.42h-.42a3.73 3.73 0 1 0 0 7.46z" fill="#ff990b"/><path d="M58.54 133.64a3.73 3.73 0 0 1-3.39 3.72h.34a3.73 3.73 0 0 0 0-7.46h-.34a3.73 3.73 0 0 1 3.39 3.74z" fill="#fdd224"/><circle cx="55.48" cy="151.97" r="3.73" fill="#ffb21a"/><path d="M58.71 152a3.72 3.72 0 0 1-3.48 3.72h.25a3.73 3.73 0 1 0 0-7.46h-.25a3.72 3.72 0 0 1 3.48 3.74z" fill="#fdd224"/><path d="M55.48 155.7h.26a3.73 3.73 0 0 1 0-7.44h-.26a3.73 3.73 0 0 0 0 7.46z" fill="#ff990b"/><circle cx="55.48" cy="151.97" r="2.38" fill="#bc1b21"/><circle cx="56.85" cy="152.14" r=".68" fill="#fff"/><circle cx="55.49" cy="153.5" r=".27" fill="#fff"/><circle cx="54.22" cy="150.7" r=".34" fill="#96151f"/><path d="M10.19 23.48v-.25a8.07 8.07 0 0 0 2.54-1 5.34 5.34 0 0 0 1.66-1.65 6.77 6.77 0 0 0 .85-2.27 6 6 0 0 1-1 .4 2.82 2.82 0 0 1-.83.11 3 3 0 0 1-2.32-1 3.92 3.92 0 0 1-.92-2.75 4.82 4.82 0 0 1 .5-2.21 3.63 3.63 0 0 1 1.43-1.57 3.69 3.69 0 0 1 4 .06 4.32 4.32 0 0 1 1.52 1.78 6 6 0 0 1 .57 2.66 8 8 0 0 1-.92 3.7 7 7 0 0 1-2.76 2.84 9.08 9.08 0 0 1-4.32 1.15zm5.19-5.94c.06-.68.09-1.27.09-1.78a11.87 11.87 0 0 0-.38-3.06 2.37 2.37 0 0 0-.64-1.16.9.9 0 0 0-.59-.2.81.81 0 0 0-.71.39 4.09 4.09 0 0 0-.35 2 7 7 0 0 0 .6 3.45 1.2 1.2 0 0 0 1 .62 2.33 2.33 0 0 0 .98-.26z" fill="#7f664a"/><path fill="none" stroke="#7f664a" stroke-miterlimit="10" stroke-width=".5" d="M9.58 24.84h9.17"/><path d="M121.69 203.23V203a8.07 8.07 0 0 0 2.54-1 5.34 5.34 0 0 0 1.66-1.65 6.77 6.77 0 0 0 .85-2.27 6 6 0 0 1-.95.4 2.82 2.82 0 0 1-.83.11 3 3 0 0 1-2.32-1 3.92 3.92 0 0 1-.92-2.75 4.82 4.82 0 0 1 .5-2.21 3.63 3.63 0 0 1 1.43-1.57 3.69 3.69 0 0 1 4 .06 4.32 4.32 0 0 1 1.52 1.78 6 6 0 0 1 .57 2.66 8 8 0 0 1-.92 3.7 7 7 0 0 1-2.76 2.84 9.08 9.08 0 0 1-4.37 1.13zm5.19-5.94c.06-.68.09-1.27.09-1.78a11.87 11.87 0 0 0-.38-3.06 2.37 2.37 0 0 0-.64-1.16.9.9 0 0 0-.59-.2.81.81 0 0 0-.71.39 4.09 4.09 0 0 0-.35 2 7 7 0 0 0 .6 3.45 1.2 1.2 0 0 0 1 .62 2.33 2.33 0 0 0 .98-.26z" fill="#7f664a"/><path fill="none" stroke="#7f664a" stroke-miterlimit="10" stroke-width=".5" d="M121.08 204.59h9.17"/></svg>