<svg xmlns="http://www.w3.org/2000/svg" viewBox="0 0 138.83 215.65"><path fill="#fff" d="M0 0h138.82v215.65H0z"/><path fill="none" stroke="#7f664a" stroke-miterlimit="10" stroke-width=".5" d="M37.01 208.74H6.94V8.91h30.07m47.44 199.83H54.38M101.82 8.91h30.06v199.83h-30.06M54.38 8.91h30.07"/><path d="m12.2 23.77 3.33-10.11H13a5 5 0 0 0-2.24.39 2 2 0 0 0-.87 1h-.35l.89-3.8h7.3l-4.11 12.5zM123.53 204.1l3.34-10.1h-2.54a5 5 0 0 0-2.24.39 2 2 0 0 0-.87 1h-.34l.88-3.8h7.3L125 204.1z" fill="#7f664a"/><path d="M34.53 103.15H80.2v11.39H34.53l-11.13-5.7 6-3 2.32-1.18 2.34-1.2.52-.26z" fill="#c9c2c9"/><path d="M34.53 103.15H80.2v5.69H23.4l6-3 2.32-1.18 2.34-1.2.52-.26z" fill="#b2afb2"/><path fill="#d8d6d8" d="m31.67 104.59 4.24 4.24 5.7 5.7H38.1l-8.74-8.75 2.31-1.19zm2.86-1.44h.26l11.4 11.39h-1l-5.69-5.7-5.5-5.45.52-.26zm22.22-.02 5.7 5.7 5.7 5.7h1.05l-5.7-5.7-5.7-5.7h-1.05zm-8.52 0h3.5l5.7 5.7 5.7 5.7h-3.5l-11.4-11.4zm22.26 0h3.5l5.7 5.7.51.5v3.5l-9.71-9.7z"/><path fill="#c9c2c9" d="m35.91 108.83-4.24-4.24-2.31 1.19 3.05 3.05h3.5zm-1.38-5.7-.52.26 5.44 5.43h1l-5.7-5.69h-.26zm28.97 5.7-5.7-5.7h-1.05l5.7 5.7h1.05zm-6.07 0-5.7-5.7h-3.5l5.7 5.7h3.5zm22.26 0-5.7-5.7h-3.5l5.7 5.7h3.5z"/><path d="M74.18 86.27c4.17 2.09 12.82 9.42 12.92 22.56.29 5.23-2.43 16.77-12.92 22.55a47.11 47.11 0 0 0 0-45.11z" fill="#ffb21a"/><path d="M84.88 108.83a26.23 26.23 0 0 1-9.51 20.25c-.4.85-.81 1.62-1.19 2.3 10.49-5.78 13.21-17.32 12.92-22.55-.1-13.14-8.75-20.47-12.92-22.56.4.76.78 1.5 1.13 2.23a26.09 26.09 0 0 1 9.57 20.33z" fill="#ff990b"/><path fill="#68442e" d="M83.39 105.06h25.23v7.3H83.39z"/><path fill="#583e31" d="M83.39 105.06h25.23v3.46H83.39z"/><path fill="#3f2c24" d="M100.94 105.06h1.4l3.46 3.47 2.82 2.82v1.01h-.38l-7.3-7.3zm-5.44 0h1.4l7.29 7.3h-1.4l-7.29-7.3zm-5.45 0h1.4l7.3 7.3h-1.4l-7.3-7.3zm-5.44 0h1.4l7.3 7.3h-1.4l-7.3-7.3z"/><circle cx="109.98" cy="108.83" r="5.44" fill="#ffb21a"/><path d="M104.54 108.83a4.21 4.21 0 0 0 0 .62 5.44 5.44 0 0 1 10.81 0v-.62a5.44 5.44 0 0 0-10.88 0z" fill="#ff990b"/><path d="M110 113.28a5.44 5.44 0 0 1-5.42-4.94v.49a5.44 5.44 0 0 0 10.88 0 3.93 3.93 0 0 0 0-.49 5.44 5.44 0 0 1-5.46 4.94z" fill="#fdd224"/><circle cx="83.27" cy="108.83" r="5.44" fill="#ffb21a"/><path d="M83.27 113.53a5.44 5.44 0 0 1-5.43-5.07v.37a5.45 5.45 0 0 0 10.89 0v-.37a5.43 5.43 0 0 1-5.46 5.07z" fill="#fdd224"/><path d="M77.82 108.83v.37a5.44 5.44 0 0 1 10.85 0v-.37a5.45 5.45 0 1 0-10.89 0z" fill="#ff990b"/><circle cx="83.27" cy="108.83" r="3.46" fill="#bc1b21"/><circle cx="83.02" cy="110.81" r=".99" fill="#fff"/><circle cx="81.04" cy="108.83" r=".39" fill="#fff"/><circle cx="85.12" cy="106.97" r=".49" fill="#96151f"/><path d="M65.52 186.33a.19.19 0 0 1 0-.07V155h7.82v31.26a.17.17 0 0 1 0 .07L69.41 194l-2.09-4.08-.81-1.6-.82-1.6-.19-.36z" fill="#c9c2c9"/><path d="M65.52 186.33a.19.19 0 0 1 0-.07V155h3.91v39l-2.09-4.08-.81-1.6-.82-1.6-.19-.36z" fill="#b2afb2"/><path fill="#d8d6d8" d="m66.51 188.29 2.9-2.9 3.91-3.91v2.4l-6 6-.81-1.59zm-.99-1.96a.19.19 0 0 1 0-.07v-.11l7.82-7.82v.72L69.41 183l-3.72 3.73-.19-.36zm-.02-15.24 3.91-3.91 3.91-3.91v-.72l-3.91 3.91-3.91 3.91v.72zm0 5.85v-2.41l3.91-3.91 3.91-3.91v2.41l-7.82 7.82zm0-15.28v-2.4l3.91-3.91.35-.35h2.4l-6.66 6.66z"/><path fill="#c9c2c9" d="m69.41 185.39-2.9 2.9.81 1.59 2.09-2.09v-2.4zm-3.91.94.19.36 3.72-3.69v-.72l-3.91 3.91v.11a.19.19 0 0 0 0 .07zm3.91-19.87-3.91 3.91v.72l3.91-3.91v-.72zm0 4.16-3.91 3.91v2.41l3.91-3.91v-2.41zm0-15.27-3.91 3.91v2.4l3.91-3.91v-2.4z"/><path d="M53.94 159.13a17.6 17.6 0 0 1 15.47-8.87c3.59-.19 11.51 1.68 15.47 8.87a32.34 32.34 0 0 0-30.94 0z" fill="#ffb21a"/><path d="M69.41 151.79a18 18 0 0 1 13.9 6.52c.58.28 1.11.56 1.57.82-4-7.19-11.88-9.06-15.47-8.87a17.6 17.6 0 0 0-15.47 8.87c.52-.28 1-.53 1.53-.77a17.87 17.87 0 0 1 13.94-6.57z" fill="#ff990b"/><path fill="#68442e" d="M66.83 135.5h5.01v17.31h-5.01z"/><path fill="#583e31" d="M66.83 135.5h2.38v17.31h-2.38z"/><path fill="#3f2c24" d="M66.83 140.77v-.96l2.38-2.37 1.93-1.94h.7v.27l-5.01 5zm0 3.74v-.96l5.01-5.01v.96l-5.01 5.01zm0 3.73v-.96l5.01-5.01v.96l-5.01 5.01zm0 3.73v-.96l5.01-5v.96l-5.01 5z"/><circle cx="69.42" cy="134.57" r="3.73" fill="#ffb21a"/><path d="M69.42 138.3h.42a3.73 3.73 0 0 1 0-7.42 3 3 0 0 0-.42 0 3.74 3.74 0 1 0 0 7.47z" fill="#ff990b"/><path d="M72.47 134.57a3.74 3.74 0 0 1-3.39 3.72h.34a3.74 3.74 0 0 0 0-7.47h-.34a3.73 3.73 0 0 1 3.39 3.75z" fill="#fdd224"/><circle cx="69.41" cy="152.9" r="3.73" fill="#ffb21a"/><path d="M72.64 152.9a3.74 3.74 0 0 1-3.48 3.72h.25a3.74 3.74 0 1 0 0-7.47h-.25a3.74 3.74 0 0 1 3.48 3.75z" fill="#fdd224"/><path d="M69.41 156.63h.26a3.73 3.73 0 0 1 0-7.45h-.26a3.74 3.74 0 0 0 0 7.47z" fill="#ff990b"/><circle cx="69.41" cy="152.9" r="2.38" fill="#bc1b21"/><circle cx="70.77" cy="153.07" r=".68" fill="#fff"/><circle cx="69.42" cy="154.43" r=".27" fill="#fff"/><circle cx="68.14" cy="151.62" r=".34" fill="#96151f"/><path d="M31.25 138.47a.19.19 0 0 1 0 .08v31.25h-7.81v-31.25a.19.19 0 0 1 0-.08l3.91-7.64 2.1 4.09.81 1.59.82 1.6.18.36z" fill="#c9c2c9"/><path d="M31.25 138.47a.19.19 0 0 1 0 .08v31.25h-3.9v-39l2.1 4.09.81 1.59.82 1.6.18.36z" fill="#b2afb2"/><path fill="#d8d6d8" d="m30.26 136.51-2.91 2.9-3.91 3.91v-2.4l6.01-6 .81 1.59zm.99 1.96a.19.19 0 0 1 0 .08v.1l-7.82 7.82v-.72l3.91-3.91 3.73-3.73.18.36zm.01 15.25-3.91 3.91-3.91 3.91v.72l3.91-3.91 3.91-3.91v-.72zm0-5.85v2.4l-3.91 3.91-3.91 3.91v-2.4l7.82-7.82zm0 15.27v2.4l-3.91 3.92-.34.34h-2.4l6.65-6.66z"/><path fill="#c9c2c9" d="m27.35 139.41 2.91-2.9-.81-1.59-2.1 2.09v2.4zm3.91-.94-.18-.36-3.73 3.73v.72l3.91-3.91v-.1a.19.19 0 0 0 0-.08zm-3.91 19.88 3.91-3.91v-.72l-3.91 3.91v.72zm0-4.17 3.91-3.91v-2.4l-3.91 3.91v2.4zm0 15.28 3.91-3.92v-2.4l-3.91 3.91v2.41z"/><path d="M42.82 165.67a17.58 17.58 0 0 1-15.47 8.87c-3.59.19-11.51-1.67-15.47-8.87a31.68 31.68 0 0 0 15.47 4 31.65 31.65 0 0 0 15.47-4z" fill="#ffb21a"/><path d="M27.35 173a18 18 0 0 1-13.9-6.52c-.58-.28-1.1-.56-1.57-.82 4 7.2 11.88 9.06 15.47 8.87a17.58 17.58 0 0 0 15.47-8.87c-.51.28-1 .54-1.52.78A17.92 17.92 0 0 1 27.35 173z" fill="#ff990b"/><path fill="#68442e" d="M24.93 171.99h5.01v17.31h-5.01z"/><path fill="#583e31" d="M27.56 171.99h2.38v17.31h-2.38z"/><path fill="#3f2c24" d="M29.93 184.03v.96l-2.37 2.38-1.94 1.93h-.69v-.26l5-5.01zm0-3.73v.96l-5 5v-.96l5-5zm0-3.74v.96l-5 5.01v-.96l5-5.01zm0-3.73v.96l-5 5.01v-.96l5-5.01z"/><circle cx="27.35" cy="190.24" r="3.73" fill="#ffb21a"/><path d="M27.35 186.5a3.11 3.11 0 0 0-.43 0 3.73 3.73 0 0 1 0 7.42h.43a3.74 3.74 0 0 0 0-7.47z" fill="#ff990b"/><path d="M24.29 190.24a3.74 3.74 0 0 1 3.4-3.72h-.34a3.74 3.74 0 0 0 0 7.47h.34a3.74 3.74 0 0 1-3.4-3.75z" fill="#fdd224"/><circle cx="27.35" cy="171.91" r="3.73" fill="#ffb21a"/><path d="M24.12 171.91a3.74 3.74 0 0 1 3.49-3.73h-.26a3.74 3.74 0 0 0 0 7.47h.26a3.74 3.74 0 0 1-3.49-3.74z" fill="#fdd224"/><path d="M27.35 168.17h-.25a3.73 3.73 0 0 1 0 7.45h.25a3.74 3.74 0 1 0 0-7.47z" fill="#ff990b"/><circle cx="27.35" cy="171.91" r="2.38" fill="#bc1b21"/><circle cx="25.99" cy="171.74" r=".68" fill="#fff"/><circle cx="27.35" cy="170.38" r=".27" fill="#fff"/><circle cx="28.62" cy="173.18" r=".34" fill="#96151f"/><path d="M73.31 29.32a.17.17 0 0 1 0 .07v31.26H65.5V29.39a.19.19 0 0 1 0-.07l3.91-7.64 2.1 4.08.81 1.6.82 1.6.18.36z" fill="#c9c2c9"/><path d="M73.31 29.32a.17.17 0 0 1 0 .07v31.26h-3.9v-39l2.1 4.08.81 1.6.82 1.6.18.36z" fill="#b2afb2"/><path fill="#d8d6d8" d="m72.32 27.36-2.91 2.9-3.91 3.91v-2.4l6-6 .82 1.59zm.99 1.96a.17.17 0 0 1 0 .07v.11l-7.81 7.82v-.72l3.91-3.91L73.14 29l.18.36zm.01 15.24-3.91 3.91-3.91 3.91v.72l3.91-3.91 3.91-3.91v-.72zm0-5.85v2.41l-3.91 3.91-3.91 3.91v-2.41l7.82-7.82zm0 15.28v2.4l-3.91 3.91-.34.35h-2.4l6.65-6.66z"/><path fill="#c9c2c9" d="m69.41 30.26 2.91-2.9-.82-1.59-2.09 2.09v2.4zm3.91-.94-.18-.32-3.73 3.73v.72l3.91-3.91v-.11a.17.17 0 0 0 0-.07zm-3.91 19.87 3.91-3.91v-.72l-3.91 3.91v.72zm0-4.16 3.91-3.91v-2.41l-3.91 3.91v2.41zm0 15.27 3.91-3.91v-2.4l-3.91 3.91v2.4z"/><path d="M84.88 56.52a17.6 17.6 0 0 1-15.47 8.87c-3.59.19-11.51-1.68-15.47-8.87a32.34 32.34 0 0 0 30.94 0z" fill="#ffb21a"/><path d="M69.41 63.86a18 18 0 0 1-13.9-6.52c-.58-.28-1.1-.56-1.57-.82 4 7.19 11.88 9.06 15.47 8.87a17.6 17.6 0 0 0 15.47-8.87c-.51.28-1 .53-1.52.77a17.9 17.9 0 0 1-13.95 6.57z" fill="#ff990b"/><path fill="#68442e" d="M66.99 62.84H72v17.31h-5.01z"/><path fill="#583e31" d="M69.62 62.84H72v17.31h-2.38z"/><path fill="#3f2c24" d="M71.99 74.88v.96l-2.37 2.37-1.94 1.94h-.69v-.27l5-5zm0-3.74v.96l-5 5.01v-.96l5-5.01zm0-3.73v.96l-5 5.01v-.96l5-5.01zm0-3.73v.96l-5 5v-.96l5-5z"/><circle cx="69.41" cy="81.08" r="3.73" fill="#ffb21a"/><path d="M69.41 77.35h-.43a3.73 3.73 0 0 1 0 7.42 3.11 3.11 0 0 0 .43 0 3.74 3.74 0 0 0 0-7.47z" fill="#ff990b"/><path d="M66.35 81.08a3.75 3.75 0 0 1 3.4-3.72h-.34a3.74 3.74 0 0 0 0 7.47h.34a3.74 3.74 0 0 1-3.4-3.75z" fill="#fdd224"/><circle cx="69.41" cy="62.75" r="3.73" fill="#ffb21a"/><path d="M66.18 62.75A3.74 3.74 0 0 1 69.67 59h-.26a3.74 3.74 0 0 0 0 7.47h.26a3.74 3.74 0 0 1-3.49-3.72z" fill="#fdd224"/><path d="M69.41 59h-.25a3.73 3.73 0 0 1 0 7.45h.25a3.74 3.74 0 1 0 0-7.47z" fill="#ff990b"/><circle cx="69.41" cy="62.75" r="2.38" fill="#bc1b21"/><circle cx="68.05" cy="62.58" r=".68" fill="#fff"/><circle cx="69.41" cy="61.22" r=".27" fill="#fff"/><circle cx="70.68" cy="64.03" r=".34" fill="#96151f"/><path d="M107.58 77.18a.19.19 0 0 1 0-.08V45.85h7.82V77.1a.19.19 0 0 1 0 .08l-3.91 7.64-2.09-4.09-.81-1.59-.82-1.6-.19-.36z" fill="#c9c2c9"/><path d="M107.58 77.18a.19.19 0 0 1 0-.08V45.85h3.91v39l-2.09-4.09-.81-1.59-.82-1.6-.19-.36z" fill="#b2afb2"/><path fill="#d8d6d8" d="m108.57 79.14 2.9-2.91 3.91-3.9v2.4l-6 6-.81-1.59zm-.99-1.96a.19.19 0 0 1 0-.08V77l7.82-7.82v.72l-3.91 3.91-3.72 3.73-.19-.36zm-.02-15.25 3.91-3.91 3.91-3.91v-.72l-3.91 3.91-3.91 3.92v.71zm0 5.85v-2.4l3.91-3.91 3.91-3.91v2.4l-7.82 7.82zm0-15.27V50.1l3.91-3.91.35-.34h2.4l-6.66 6.66z"/><path fill="#c9c2c9" d="m111.47 76.23-2.9 2.91.81 1.59 2.09-2.09v-2.41zm-3.91.95.19.36 3.72-3.73v-.72L107.56 77v.1a.19.19 0 0 0 0 .08zm3.91-19.88-3.91 3.92v.71l3.91-3.91v-.72zm0 4.17-3.91 3.91v2.4l3.91-3.91v-2.4zm0-15.28-3.91 3.91v2.41l3.91-3.91v-2.41z"/><path d="M96 50a17.6 17.6 0 0 1 15.47-8.87c3.59-.19 11.51 1.67 15.47 8.87A32.27 32.27 0 0 0 96 50z" fill="#ffb21a"/><path d="M111.47 42.64a18 18 0 0 1 13.9 6.52c.58.28 1.11.56 1.57.82-4-7.2-11.88-9.06-15.47-8.87A17.6 17.6 0 0 0 96 50q.78-.42 1.53-.78a17.9 17.9 0 0 1 13.94-6.58z" fill="#ff990b"/><path fill="#68442e" d="M108.89 26.35h5.01v17.31h-5.01z"/><path fill="#583e31" d="M108.89 26.35h2.38v17.31h-2.38z"/><path fill="#3f2c24" d="M108.89 31.62v-.96l2.38-2.38 1.93-1.93h.7v.26l-5.01 5.01zm0 3.73v-.96l5.01-5v.96l-5.01 5zm0 3.74v-.96l5.01-5.01v.96l-5.01 5.01zm0 3.73v-.96l5.01-5.01v.96l-5.01 5.01z"/><circle cx="111.48" cy="25.41" r="3.73" fill="#ffb21a"/><path d="M111.48 29.15a3 3 0 0 0 .42 0 3.73 3.73 0 0 1 0-7.42h-.42a3.74 3.74 0 1 0 0 7.47z" fill="#ff990b"/><path d="M114.53 25.41a3.73 3.73 0 0 1-3.39 3.72h.34a3.74 3.74 0 0 0 0-7.47h-.34a3.73 3.73 0 0 1 3.39 3.75z" fill="#fdd224"/><circle cx="111.47" cy="43.74" r="3.73" fill="#ffb21a"/><path d="M114.7 43.74a3.74 3.74 0 0 1-3.48 3.73h.25a3.74 3.74 0 1 0 0-7.47h-.25a3.74 3.74 0 0 1 3.48 3.74z" fill="#fdd224"/><path d="M111.47 47.48h.26a3.73 3.73 0 0 1 0-7.45h-.26a3.74 3.74 0 0 0 0 7.47z" fill="#ff990b"/><circle cx="111.47" cy="43.74" r="2.38" fill="#bc1b21"/><circle cx="112.83" cy="43.91" r=".68" fill="#fff"/><circle cx="111.48" cy="45.27" r=".27" fill="#fff"/><circle cx="110.2" cy="42.47" r=".34" fill="#96151f"/><path d="M23.46 77.18a.19.19 0 0 1 0-.08V45.85h7.82V77.1a.19.19 0 0 1 0 .08l-3.91 7.64-2.09-4.09-.81-1.59-.82-1.6-.19-.36z" fill="#c9c2c9"/><path d="M23.46 77.18a.19.19 0 0 1 0-.08V45.85h3.91v39l-2.09-4.09-.81-1.59-.82-1.6-.19-.36z" fill="#b2afb2"/><path fill="#d8d6d8" d="m24.45 79.14 2.9-2.91 3.91-3.9v2.4l-6 6-.81-1.59zm-.99-1.96a.19.19 0 0 1 0-.08V77l7.82-7.82v.72l-3.91 3.91-3.72 3.73-.19-.36zm-.02-15.25 3.91-3.91 3.91-3.91v-.72l-3.91 3.91-3.91 3.92v.71zm0 5.85v-2.4l3.91-3.91 3.91-3.91v2.4l-7.82 7.82zm0-15.27V50.1l3.91-3.91.35-.34h2.4l-6.66 6.66z"/><path fill="#c9c2c9" d="m27.35 76.23-2.9 2.91.81 1.59 2.09-2.09v-2.41zm-3.91.95.19.36 3.72-3.73v-.72L23.44 77v.1a.19.19 0 0 0 0 .08zm3.91-19.88-3.91 3.92v.71l3.91-3.91v-.72zm0 4.17-3.91 3.91v2.4l3.91-3.91v-2.4zm0-15.28-3.91 3.91v2.41l3.91-3.91v-2.41z"/><path d="M11.88 50a17.6 17.6 0 0 1 15.47-8.87c3.59-.19 11.51 1.67 15.47 8.87a31.65 31.65 0 0 0-15.47-4 31.67 31.67 0 0 0-15.47 4z" fill="#ffb21a"/><path d="M27.35 42.64a18 18 0 0 1 13.9 6.52c.58.28 1.11.56 1.57.82-4-7.2-11.88-9.06-15.47-8.87A17.6 17.6 0 0 0 11.88 50q.78-.42 1.53-.78a17.9 17.9 0 0 1 13.94-6.58z" fill="#ff990b"/><path fill="#68442e" d="M24.77 26.35h5.01v17.31h-5.01z"/><path fill="#583e31" d="M24.77 26.35h2.38v17.31h-2.38z"/><path fill="#3f2c24" d="M24.77 31.62v-.96l2.38-2.38 1.93-1.93h.7v.26l-5.01 5.01zm0 3.73v-.96l5.01-5v.96l-5.01 5zm0 3.74v-.96l5.01-5.01v.96l-5.01 5.01zm0 3.73v-.96l5.01-5.01v.96l-5.01 5.01z"/><circle cx="27.36" cy="25.41" r="3.73" fill="#ffb21a"/><path d="M27.36 29.15a3 3 0 0 0 .42 0 3.73 3.73 0 0 1 0-7.42h-.42a3.74 3.74 0 1 0 0 7.47z" fill="#ff990b"/><path d="M30.41 25.41A3.73 3.73 0 0 1 27 29.13h.34a3.74 3.74 0 0 0 0-7.47H27a3.73 3.73 0 0 1 3.41 3.75z" fill="#fdd224"/><circle cx="27.35" cy="43.74" r="3.73" fill="#ffb21a"/><path d="M30.58 43.74a3.74 3.74 0 0 1-3.48 3.73h.25a3.74 3.74 0 1 0 0-7.47h-.25a3.74 3.74 0 0 1 3.48 3.74z" fill="#fdd224"/><path d="M27.35 47.48h.26a3.73 3.73 0 0 1 0-7.45h-.26a3.74 3.74 0 0 0 0 7.47z" fill="#ff990b"/><circle cx="27.35" cy="43.74" r="2.38" fill="#bc1b21"/><circle cx="28.71" cy="43.91" r=".68" fill="#fff"/><circle cx="27.36" cy="45.27" r=".27" fill="#fff"/><circle cx="26.08" cy="42.47" r=".34" fill="#96151f"/><path d="M115.37 138.47a.19.19 0 0 1 0 .08v31.25h-7.82v-31.25a.19.19 0 0 1 0-.08l3.91-7.64 2.1 4.09.81 1.59.82 1.6.18.36z" fill="#c9c2c9"/><path d="M115.37 138.47a.19.19 0 0 1 0 .08v31.25h-3.91v-39l2.1 4.09.81 1.59.82 1.6.18.36z" fill="#b2afb2"/><path fill="#d8d6d8" d="m114.38 136.51-2.91 2.9-3.91 3.91v-2.4l6-6 .82 1.59zm.99 1.96a.19.19 0 0 1 0 .08v.1l-7.82 7.82v-.72l3.91-3.91 3.73-3.73.18.36zm.01 15.25-3.91 3.91-3.91 3.91v.72l3.91-3.91 3.91-3.91v-.72zm0-5.85v2.4l-3.91 3.91-3.91 3.91v-2.4l7.82-7.82zm0 15.27v2.4l-3.91 3.92-.34.34h-2.41l6.66-6.66z"/><path fill="#c9c2c9" d="m111.47 139.41 2.91-2.9-.82-1.59-2.09 2.09v2.4zm3.91-.94-.18-.36-3.73 3.73v.72l3.91-3.91v-.1a.19.19 0 0 0 0-.08zm-3.91 19.88 3.91-3.91v-.72l-3.91 3.91v.72zm0-4.17 3.91-3.91v-2.4l-3.91 3.91v2.4zm0 15.28 3.91-3.92v-2.4l-3.91 3.91v2.41z"/><path d="M126.94 165.67a17.6 17.6 0 0 1-15.47 8.87c-3.59.19-11.51-1.67-15.47-8.87a32.27 32.27 0 0 0 30.94 0z" fill="#ffb21a"/><path d="M111.47 173a18 18 0 0 1-13.9-6.52c-.58-.28-1.1-.56-1.57-.82 4 7.2 11.88 9.06 15.47 8.87a17.6 17.6 0 0 0 15.47-8.87c-.51.28-1 .54-1.52.78a17.92 17.92 0 0 1-13.95 6.56z" fill="#ff990b"/><path fill="#68442e" d="M109.05 171.99h5.01v17.31h-5.01z"/><path fill="#583e31" d="M111.68 171.99h2.38v17.31h-2.38z"/><path fill="#3f2c24" d="M114.05 184.03v.96l-2.37 2.38-1.94 1.93h-.69v-.26l5-5.01zm0-3.73v.96l-5 5v-.96l5-5zm0-3.74v.96l-5 5.01v-.96l5-5.01zm0-3.73v.96l-5 5.01v-.96l5-5.01z"/><circle cx="111.47" cy="190.24" r="3.73" fill="#ffb21a"/><path d="M111.47 186.5a3.11 3.11 0 0 0-.43 0 3.73 3.73 0 0 1 0 7.42h.43a3.74 3.74 0 0 0 0-7.47z" fill="#ff990b"/><path d="M108.41 190.24a3.74 3.74 0 0 1 3.4-3.72h-.34a3.74 3.74 0 0 0 0 7.47h.34a3.74 3.74 0 0 1-3.4-3.75z" fill="#fdd224"/><circle cx="111.47" cy="171.91" r="3.73" fill="#ffb21a"/><path d="M108.24 171.91a3.74 3.74 0 0 1 3.49-3.73h-.26a3.74 3.74 0 0 0 0 7.47h.26a3.74 3.74 0 0 1-3.49-3.74z" fill="#fdd224"/><path d="M111.47 168.17h-.25a3.73 3.73 0 0 1 0 7.45h.25a3.74 3.74 0 1 0 0-7.47z" fill="#ff990b"/><circle cx="111.47" cy="171.91" r="2.38" fill="#bc1b21"/><circle cx="110.11" cy="171.74" r=".68" fill="#fff"/><circle cx="111.47" cy="170.38" r=".27" fill="#fff"/><circle cx="112.74" cy="173.18" r=".34" fill="#96151f"/></svg>