<svg xmlns="http://www.w3.org/2000/svg" viewBox="0 0 138.83 215.65"><path fill="#fff" d="M0 0h138.82v215.65H0z"/><path fill="none" stroke="#7f664a" stroke-miterlimit="10" stroke-width=".5" d="M37.01 208.74H6.94V8.91h30.07m47.44 199.83H54.38M101.82 8.91h30.06v199.83h-30.06M54.38 8.91h30.07"/><path d="M16.58 23.52H9.37v-.2a39.28 39.28 0 0 0 4-5.31 5.68 5.68 0 0 0 .71-2.67 2.23 2.23 0 0 0-.58-1.58 1.93 1.93 0 0 0-1.44-.62 2.36 2.36 0 0 0-2.16 1.39l-.33-.12a5 5 0 0 1 1.48-2.57 3.49 3.49 0 0 1 2.31-.84 3.39 3.39 0 0 1 1.7.44 3.12 3.12 0 0 1 1.2 1.19 2.84 2.84 0 0 1 .44 1.41 5.19 5.19 0 0 1-.7 2.45 23.24 23.24 0 0 1-4 4.66h2.65a6.44 6.44 0 0 0 1.35-.08 1 1 0 0 0 .48-.28 3.65 3.65 0 0 0 .5-.81h.33zm111.67 180.33H121v-.2a39.28 39.28 0 0 0 4-5.31 5.8 5.8 0 0 0 .71-2.67 2.22 2.22 0 0 0-.59-1.57 1.88 1.88 0 0 0-1.43-.63 2.36 2.36 0 0 0-2.16 1.39l-.34-.12a5 5 0 0 1 1.48-2.56 3.46 3.46 0 0 1 2.3-.83 3.38 3.38 0 0 1 1.7.43 3.19 3.19 0 0 1 1.2 1.19 2.82 2.82 0 0 1 .43 1.41 5.05 5.05 0 0 1-.67 2.44 22.5 22.5 0 0 1-4 4.66h2.65a5.72 5.72 0 0 0 1.27-.08 1 1 0 0 0 .48-.27 3.79 3.79 0 0 0 .5-.82h.32z" fill="#7f664a"/><path d="M33.15 155.7a.4.4 0 0 1 0-.15V93h15.61v62.53a.4.4 0 0 1 0 .15L40.94 171l-4.19-8.17-1.62-3.19-1.65-3.21-.36-.71z" fill="#c9c2c9"/><path d="M33.15 155.7a.4.4 0 0 1 0-.15V93h7.82v78l-4.19-8.17-1.62-3.19-1.65-3.21-.36-.71z" fill="#b2afb2"/><path fill="#d8d6d8" d="m35.13 159.63 5.81-5.82 7.82-7.82v4.81l-12.01 12.01-1.62-3.18zm-1.98-3.93a.4.4 0 0 1 0-.15v-.21l15.64-15.65v1.44L40.94 149l-7.46 7.45-.36-.71zm-.03-30.5 7.82-7.82 7.82-7.82v-1.44l-7.82 7.82-7.82 7.82v1.44zm0 11.7v-4.81l7.82-7.82 7.82-7.82v4.81L33.12 136.9zm0-30.56v-4.8l7.82-7.83.69-.68h4.81l-13.32 13.31z"/><path fill="#c9c2c9" d="m40.94 153.81-5.81 5.82 1.62 3.18 4.19-4.19v-4.81zm-7.82 1.89.36.71 7.46-7.41v-1.44l-7.82 7.82v.21a.4.4 0 0 0 0 .15zm7.82-39.76-7.82 7.82v1.44l7.82-7.82v-1.44zm0 8.33-7.82 7.82v4.81l7.82-7.82v-4.81zm0-30.56-7.82 7.83v4.8l7.82-7.82v-4.81z"/><path d="M10 101.29c2.86-5.73 12.92-17.59 30.95-17.75 7.18-.39 23 3.35 31 17.75A63.41 63.41 0 0 0 41 93.39a63.26 63.26 0 0 0-31 7.9z" fill="#ffb21a"/><path d="M40.94 86.6c6.33-.34 19.37 2.52 27.81 13 1.16.56 2.21 1.12 3.14 1.65C64 86.89 48.13 83.15 40.94 83.54c-18 .16-28.09 12-30.95 17.75 1-.56 2-1.08 3-1.56A35.82 35.82 0 0 1 40.94 86.6z" fill="#ff990b"/><path fill="#68442e" d="M35.77 54.01h10.02v34.63H35.77z"/><path fill="#583e31" d="M35.77 54.01h4.75v34.63h-4.75z"/><path fill="#3f2c24" d="M35.77 64.56v-1.93l4.76-4.75 3.87-3.87h1.39v.53L35.77 64.56zm0 7.46V70.1l10.02-10.01v1.92L35.77 72.02zm0 7.47v-1.92l10.02-10.01v1.92L35.77 79.49zm0 7.47v-1.92l10.02-10.01v1.92L35.77 86.96z"/><circle cx="40.95" cy="52.14" r="7.47" fill="#ffb21a"/><path d="M41 59.61a7.73 7.73 0 0 0 .84 0 7.47 7.47 0 0 1 0-14.84 7.73 7.73 0 0 0-.84 0 7.47 7.47 0 0 0 0 14.94z" fill="#ff990b"/><path d="M47.06 52.14a7.47 7.47 0 0 1-6.79 7.44h.68a7.47 7.47 0 0 0 0-14.94h-.68a7.48 7.48 0 0 1 6.79 7.5z" fill="#fdd224"/><circle cx="40.94" cy="88.81" r="7.47" fill="#ffb21a"/><path d="M47.4 88.81a7.47 7.47 0 0 1-7 7.45h.51a7.47 7.47 0 0 0 0-14.94h-.51a7.48 7.48 0 0 1 7 7.49z" fill="#fdd224"/><path d="M40.94 96.28h.51a7.47 7.47 0 0 1 0-14.9h-.51a7.47 7.47 0 0 0 0 14.94z" fill="#ff990b"/><circle cx="40.94" cy="88.81" r="4.75" fill="#bc1b21"/><circle cx="43.66" cy="89.15" r="1.36" fill="#fff"/><circle cx="40.95" cy="91.87" r=".54" fill="#fff"/><circle cx="38.4" cy="86.26" r=".68" fill="#96151f"/><path d="M105.67 60a.28.28 0 0 1 0 .15v62.53H90.06V60.1a.42.42 0 0 1 0-.15l7.83-15.28 4.18 8.17L103.7 56l1.64 3.21.37.71z" fill="#c9c2c9"/><path d="M105.67 60a.28.28 0 0 1 0 .15v62.53h-7.78v-78l4.18 8.17L103.7 56l1.64 3.21.37.71z" fill="#b2afb2"/><path fill="#d8d6d8" d="m103.7 56.02-5.81 5.82-7.83 7.82v-4.81l12.01-12.01 1.63 3.18zm1.97 3.98a.28.28 0 0 1 0 .15v.21L90.06 76v-1.48l7.83-7.83 7.45-7.45.37.71zm.04 30.45-7.82 7.82-7.83 7.82v1.44l7.83-7.82 7.82-7.82v-1.44zm0-11.7v4.81l-7.82 7.82-7.83 7.82v-4.81l15.65-15.64zm0 30.56v4.8l-7.82 7.83-.69.69h-4.81l13.32-13.32z"/><path fill="#c9c2c9" d="m97.89 61.84 5.81-5.82-1.63-3.18-4.18 4.19v4.81zm7.82-1.84-.37-.71-7.45 7.45v1.44l7.82-7.82v-.26a.28.28 0 0 0 0-.15zm-7.82 39.71 7.82-7.82v-1.44l-7.82 7.82v1.44zm0-8.33 7.82-7.82v-4.81l-7.82 7.82v4.81zm0 30.56 7.82-7.83v-4.8l-7.82 7.82v4.81z"/><path d="M128.84 114.36c-2.84 5.73-12.92 17.64-30.95 17.75-7.19.39-23-3.35-31-17.75a64.6 64.6 0 0 0 61.91 0z" fill="#ffb21a"/><path d="M97.89 129.05c-6.33.34-19.38-2.52-27.81-13-1.16-.56-2.21-1.12-3.15-1.65 7.93 14.4 23.77 18.14 31 17.75 18-.16 28.08-12 31-17.75-1 .56-2 1.08-3 1.56a35.85 35.85 0 0 1-28.04 13.09z" fill="#ff990b"/><path fill="#68442e" d="M93.03 127.01h10.02v34.63H93.03z"/><path fill="#583e31" d="M98.3 127.01h4.75v34.63H98.3z"/><path fill="#3f2c24" d="M103.05 151.09v1.93l-4.75 4.75-3.87 3.87h-1.4v-.53l10.02-10.02zm0-7.46v1.92l-10.02 10.01v-1.92l10.02-10.01zm0-7.47v1.92l-10.02 10.01v-1.92l10.02-10.01zm0-7.47v1.92l-10.02 10.01v-1.92l10.02-10.01z"/><circle cx="97.88" cy="163.51" r="7.47" fill="#ffb21a"/><path d="M97.88 156a7.92 7.92 0 0 0-.85.05 7.47 7.47 0 0 1 0 14.84 7.92 7.92 0 0 0 .85 0 7.47 7.47 0 0 0 0-14.94z" fill="#ff990b"/><path d="M91.77 163.51a7.46 7.46 0 0 1 6.79-7.44h-.68a7.47 7.47 0 0 0 0 14.94h.68a7.47 7.47 0 0 1-6.79-7.5z" fill="#fdd224"/><circle cx="97.89" cy="126.84" r="7.47" fill="#ffb21a"/><path d="M91.43 126.84a7.46 7.46 0 0 1 7-7.45h-.5a7.47 7.47 0 1 0 0 14.94h.5a7.47 7.47 0 0 1-7-7.49z" fill="#fdd224"/><path d="M97.89 119.37h-.52a7.47 7.47 0 0 1 0 14.9h.52a7.47 7.47 0 1 0 0-14.94z" fill="#ff990b"/><circle cx="97.89" cy="126.84" r="4.75" fill="#bc1b21"/><circle cx="95.16" cy="126.5" r="1.36" fill="#fff"/><circle cx="97.88" cy="123.78" r=".54" fill="#fff"/><circle cx="100.43" cy="129.39" r=".68" fill="#96151f"/></svg>