<svg xmlns="http://www.w3.org/2000/svg" viewBox="0 0 138.83 215.65"><path fill="#fff" d="M0 0h138.82v215.65H0z"/><path fill="none" stroke="#7f664a" stroke-miterlimit="10" stroke-width=".5" d="M37.01 208.74H6.94V8.91h30.07m47.44 199.83H54.38M101.82 8.91h30.06v199.83h-30.06M54.38 8.91h30.07"/><path d="M11.66 17.37v-.31a5.94 5.94 0 0 0 1.42-.56 2 2 0 0 0 .69-.78 2.27 2.27 0 0 0 .29-1.07 1.73 1.73 0 0 0-.55-1.29 1.85 1.85 0 0 0-1.36-.54A2.56 2.56 0 0 0 10 14.16L9.67 14a5.46 5.46 0 0 1 1.66-2.27A3.76 3.76 0 0 1 13.6 11a2.93 2.93 0 0 1 2.1.78 2.42 2.42 0 0 1 .44 3.12 3.37 3.37 0 0 1-1.21 1.1 4.16 4.16 0 0 1 1.62 1.27 3.09 3.09 0 0 1 .55 1.89 4.38 4.38 0 0 1-1.38 3.26A5.16 5.16 0 0 1 12 23.78a3.88 3.88 0 0 1-2.27-.52 1.09 1.09 0 0 1-.51-.93 1 1 0 0 1 .29-.71 1 1 0 0 1 .69-.29 1.18 1.18 0 0 1 .56.13 11.23 11.23 0 0 1 1 .79 2.65 2.65 0 0 0 1.65.72 1.5 1.5 0 0 0 1.14-.53 1.93 1.93 0 0 0 .48-1.34 3.51 3.51 0 0 0-.87-2.29 4.57 4.57 0 0 0-2.5-1.44zm111.66 180.34v-.32a6.15 6.15 0 0 0 1.43-.55 2.36 2.36 0 0 0 .69-.79 2.24 2.24 0 0 0 .29-1.07 1.77 1.77 0 0 0-.55-1.29 1.87 1.87 0 0 0-1.36-.54 2.56 2.56 0 0 0-2.15 1.34l-.34-.12a5.44 5.44 0 0 1 1.67-2.26 3.67 3.67 0 0 1 2.26-.76 3 3 0 0 1 2.11.77 2.43 2.43 0 0 1 .82 1.82 2.54 2.54 0 0 1-.38 1.31 3.44 3.44 0 0 1-1.21 1.1 4.22 4.22 0 0 1 1.61 1.27 3.11 3.11 0 0 1 .56 1.89 4.34 4.34 0 0 1-1.39 3.26 5.08 5.08 0 0 1-3.71 1.34 4 4 0 0 1-2.27-.51 1.08 1.08 0 0 1-.52-.93 1 1 0 0 1 1-1 1.35 1.35 0 0 1 .56.13 11.92 11.92 0 0 1 1 .79 2.69 2.69 0 0 0 1.65.72 1.51 1.51 0 0 0 1.15-.53 1.91 1.91 0 0 0 .48-1.34 3.46 3.46 0 0 0-.87-2.28 4.48 4.48 0 0 0-2.53-1.45z" fill="#7f664a"/><path d="M27.35 138.73a.44.44 0 0 1 0-.1V98.27h10.1v40.36a.44.44 0 0 1 0 .1l-5 9.86-2.7-5.28-1.05-2.05-1.06-2.07-.24-.46z" fill="#c9c2c9"/><path d="M27.35 138.73a.44.44 0 0 1 0-.1V98.27h5.05v50.32l-2.7-5.28-1.05-2.05-1.06-2.07-.24-.46z" fill="#b2afb2"/><path fill="#d8d6d8" d="m28.63 141.26 3.75-3.75 5.05-5.05v3.1l-7.75 7.75-1.05-2.05zm-1.28-2.53a.44.44 0 0 1 0-.1v-.14l10.1-10.1v.93l-5 5.05-4.81 4.82-.24-.46zm-.02-19.69 5.05-5.05 5.05-5.05v-.93l-5.05 5.05-5.05 5.05v.93zm0 7.55v-3.1l5.05-5.05 5.05-5.05v3.11l-10.1 10.09zm0-19.72v-3.1l5.05-5.05.45-.45h3.1l-8.6 8.6z"/><path fill="#c9c2c9" d="m32.38 137.51-3.75 3.75 1.05 2.05 2.7-2.7v-3.1zm-5.05 1.22.24.46 4.81-4.82v-.93l-5.05 5.05v.14a.44.44 0 0 0 0 .1zm5.05-25.67-5.05 5.05v.93l5.05-5.05v-.93zm0 5.38-5.05 5.05v3.1l5.05-5.05v-3.1zm0-19.72-5.05 5.05v3.1l5.05-5.05v-3.1z"/><path d="M12.4 103.61a22.71 22.71 0 0 1 20-11.46c4.64-.25 14.86 2.16 20 11.46a41 41 0 0 0-20-5.1 40.79 40.79 0 0 0-20 5.1z" fill="#ffb21a"/><path d="M32.38 94.13a23.22 23.22 0 0 1 17.95 8.41c.75.37 1.43.72 2 1.07-5.12-9.3-15.34-11.71-20-11.46a22.71 22.71 0 0 0-20 11.46c.67-.37 1.33-.7 2-1a23.11 23.11 0 0 1 18.05-8.48z" fill="#ff990b"/><path fill="#68442e" d="M29.05 73.09h6.46v22.35h-6.46z"/><path fill="#583e31" d="M29.05 73.09h3.07v22.35h-3.07z"/><path fill="#3f2c24" d="M29.05 79.9v-1.24l3.07-3.07 2.49-2.5h.9v.34l-6.46 6.47zm0 4.82v-1.24l6.46-6.47v1.24l-6.46 6.47zm0 4.82V88.3l6.46-6.47v1.24l-6.46 6.47zm0 4.82v-1.24l6.46-6.46v1.24l-6.46 6.46z"/><circle cx="32.39" cy="71.88" r="4.82" fill="#ffb21a"/><path d="M32.39 76.71a4.9 4.9 0 0 0 .54 0 4.82 4.82 0 0 1 0-9.57 3.27 3.27 0 0 0-.54 0 4.83 4.83 0 1 0 0 9.65z" fill="#ff990b"/><path d="M36.33 71.88A4.84 4.84 0 0 1 32 76.69h.44a4.83 4.83 0 0 0 0-9.65H32a4.83 4.83 0 0 1 4.33 4.84z" fill="#fdd224"/><circle cx="32.38" cy="95.55" r="4.82" fill="#ffb21a"/><path d="M36.55 95.55a4.82 4.82 0 0 1-4.5 4.81h.33a4.82 4.82 0 1 0 0-9.64h-.33a4.83 4.83 0 0 1 4.5 4.83z" fill="#fdd224"/><path d="M32.38 100.37h.33a4.82 4.82 0 0 1 0-9.62h-.33a4.82 4.82 0 0 0 0 9.64z" fill="#ff990b"/><circle cx="32.38" cy="95.55" r="3.07" fill="#bc1b21"/><circle cx="34.14" cy="95.77" r=".88" fill="#fff"/><circle cx="32.39" cy="97.52" r=".35" fill="#fff"/><circle cx="30.74" cy="93.91" r=".44" fill="#96151f"/><path d="M101.42 138.73a.22.22 0 0 1 0-.1V98.27h10.1v40.36a.44.44 0 0 1 0 .1l-5 9.86-2.7-5.28-1-2.05-1.06-2.07-.24-.46z" fill="#c9c2c9"/><path d="M101.42 138.73a.22.22 0 0 1 0-.1V98.27h5v50.32l-2.7-5.28-1-2.05-1.06-2.07-.24-.46z" fill="#b2afb2"/><path fill="#d8d6d8" d="m102.69 141.26 3.75-3.75 5.05-5.05v3.1l-7.75 7.75-1.05-2.05zm-1.27-2.53a.22.22 0 0 1 0-.1v-.14l10.1-10.1v.93l-5 5.05-4.81 4.82-.24-.46zm-.03-19.69 5.05-5.05 5.05-5.05v-.93l-5.05 5.05-5.05 5.05v.93zm0 7.55v-3.1l5.05-5.05 5.05-5.05v3.11l-10.1 10.09zm0-19.72v-3.1l5.05-5.05.45-.45h3.1l-8.6 8.6z"/><path fill="#c9c2c9" d="m106.44 137.51-3.75 3.75 1.05 2.05 2.7-2.7v-3.1zm-5.05 1.22.24.46 4.81-4.82v-.93l-5 5.05v.14a.22.22 0 0 0 0 .1zm5.05-25.67-5.05 5.05v.93l5.05-5.05v-.93zm0 5.38-5.05 5.05v3.1l5.05-5.05v-3.1zm0-19.72-5.05 5.05v3.1l5.05-5.05v-3.1z"/><path d="M86.47 103.61a22.7 22.7 0 0 1 20-11.46c4.64-.25 14.87 2.16 20 11.46a41.67 41.67 0 0 0-39.95 0z" fill="#ffb21a"/><path d="M106.44 94.13a23.21 23.21 0 0 1 18 8.41c.75.37 1.43.72 2 1.07-5.11-9.3-15.34-11.71-20-11.46a22.7 22.7 0 0 0-20 11.46c.66-.37 1.32-.7 2-1a23.07 23.07 0 0 1 18-8.48z" fill="#ff990b"/><path fill="#68442e" d="M103.11 73.09h6.46v22.35h-6.46z"/><path fill="#583e31" d="M103.11 73.09h3.07v22.35h-3.07z"/><path fill="#3f2c24" d="M103.11 79.9v-1.24l3.07-3.07 2.5-2.5h.9v.34l-6.47 6.47zm0 4.82v-1.24l6.47-6.47v1.24l-6.47 6.47zm0 4.82V88.3l6.47-6.47v1.24l-6.47 6.47zm0 4.82v-1.24l6.47-6.46v1.24l-6.47 6.46z"/><circle cx="106.45" cy="71.88" r="4.82" fill="#ffb21a"/><path d="M106.45 76.71a5.09 5.09 0 0 0 .55 0 4.81 4.81 0 0 1 0-9.57 3.39 3.39 0 0 0-.55 0 4.83 4.83 0 0 0 0 9.65z" fill="#ff990b"/><path d="M110.39 71.88a4.83 4.83 0 0 1-4.39 4.81h.44a4.83 4.83 0 0 0 0-9.65H106a4.83 4.83 0 0 1 4.39 4.84z" fill="#fdd224"/><circle cx="106.44" cy="95.55" r="4.82" fill="#ffb21a"/><path d="M110.61 95.55a4.81 4.81 0 0 1-4.49 4.81h.32a4.82 4.82 0 1 0 0-9.64h-.32a4.82 4.82 0 0 1 4.49 4.83z" fill="#fdd224"/><path d="M106.44 100.37h.33a4.82 4.82 0 0 1 0-9.62h-.33a4.82 4.82 0 1 0 0 9.64z" fill="#ff990b"/><circle cx="106.44" cy="95.55" r="3.07" fill="#bc1b21"/><circle cx="108.2" cy="95.77" r=".88" fill="#fff"/><circle cx="106.45" cy="97.52" r=".35" fill="#fff"/><circle cx="104.8" cy="93.91" r=".44" fill="#96151f"/><path d="M74.44 76.92a.44.44 0 0 1 0 .1v40.36H64.36V77a.22.22 0 0 1 0-.1l5-9.86 2.7 5.28 1 2 1.07 2.07.23.46z" fill="#c9c2c9"/><path d="M74.44 76.92a.44.44 0 0 1 0 .1v40.36h-5V67.06l2.7 5.28 1 2 1.07 2.07.23.46z" fill="#b2afb2"/><path fill="#d8d6d8" d="m73.16 74.39-3.75 3.75-5.05 5.05v-3.1l7.75-7.75 1.05 2.05zm1.28 2.53a.44.44 0 0 1 0 .1v.14l-10.1 10.1v-.93l5-5 4.82-4.82.23.46zm.02 19.69-5.05 5.05-5.05 5.05v.93l5.05-5.05 5.05-5.05v-.93zm0-7.55v3.1l-5.05 5.05-5.05 5.05v-3.1l10.1-10.1zm0 19.72v3.1l-5.05 5.05-.44.45h-3.11l8.6-8.6z"/><path fill="#c9c2c9" d="m69.41 78.14 3.75-3.75-1.05-2.05-2.7 2.7v3.1zm5.05-1.22-.23-.46-4.82 4.82v.93l5-5V77a.44.44 0 0 0 0-.1zm-5.05 25.67 5.05-5.05v-.93l-5.05 5.05v.93zm0-5.38 5.05-5.05v-3.1l-5.05 5.05v3.1zm0 19.72 5.05-5.05v-3.1l-5.05 5.05v3.1z"/><path d="M89.39 112a22.71 22.71 0 0 1-20 11.46c-4.64.25-14.86-2.16-20-11.46a41.69 41.69 0 0 0 40 0z" fill="#ffb21a"/><path d="M69.41 121.52a23.24 23.24 0 0 1-17.95-8.41c-.75-.37-1.42-.72-2-1.07 5.12 9.3 15.34 11.71 20 11.46a22.71 22.71 0 0 0 20-11.46c-.67.37-1.32.7-2 1a23.09 23.09 0 0 1-18.05 8.48z" fill="#ff990b"/><path fill="#68442e" d="M66.28 120.21h6.46v22.35h-6.46z"/><path fill="#583e31" d="M69.68 120.21h3.07v22.35h-3.07z"/><path fill="#3f2c24" d="M72.75 135.75v1.24l-3.07 3.07-2.5 2.5h-.9v-.34l6.47-6.47zm0-4.82v1.24l-6.47 6.47v-1.24l6.47-6.47zm0-4.82v1.24l-6.47 6.47v-1.24l6.47-6.47zm0-4.82v1.24L66.28 129v-1.25l6.47-6.46z"/><circle cx="69.41" cy="143.77" r="4.82" fill="#ffb21a"/><path d="M69.41 138.94a4.91 4.91 0 0 0-.55 0 4.82 4.82 0 0 1 0 9.57 3.31 3.31 0 0 0 .55 0 4.83 4.83 0 0 0 0-9.65z" fill="#ff990b"/><path d="M65.46 143.77a4.84 4.84 0 0 1 4.39-4.77h-.44a4.83 4.83 0 0 0 0 9.65h.44a4.83 4.83 0 0 1-4.39-4.88z" fill="#fdd224"/><circle cx="69.41" cy="120.1" r="4.82" fill="#ffb21a"/><path d="M65.24 120.1a4.82 4.82 0 0 1 4.5-4.81h-.33a4.82 4.82 0 1 0 0 9.64h.33a4.83 4.83 0 0 1-4.5-4.83z" fill="#fdd224"/><path d="M69.41 115.28h-.33a4.82 4.82 0 0 1 0 9.62h.33a4.82 4.82 0 1 0 0-9.64z" fill="#ff990b"/><circle cx="69.41" cy="120.1" r="3.07" fill="#bc1b21"/><circle cx="67.65" cy="119.88" r=".88" fill="#fff"/><circle cx="69.41" cy="118.13" r=".35" fill="#fff"/><circle cx="71.05" cy="121.74" r=".44" fill="#96151f"/></svg>