<svg xmlns="http://www.w3.org/2000/svg" viewBox="0 0 138.83 215.65"><path fill="#fff" d="M0 0h138.82v215.65H0z"/><path fill="none" stroke="#7f664a" stroke-miterlimit="10" stroke-width=".5" d="M37.01 208.74H6.94V8.91h30.07m47.44 199.83H54.38M101.82 8.91h30.06v199.83h-30.06M54.38 8.91h30.07"/><path d="M9.38 18.9 15.2 11h1.1v7.9h1.12v1.87H16.3v2.75h-2.49v-2.75H9.38zm.87 0h3.56v-4.83zm110.46 180.33 5.82-7.88h1.1v7.88h1.12v1.87h-1.12v2.75h-2.48v-2.75h-4.44zm.88 0h3.56v-4.83z" fill="#7f664a"/><path d="M59.92 123.85v.08L40.2 153.57l-7.42-4.93L52.47 119a.23.23 0 0 1 .07-.07l8.46-4.78-.59 5.2-.23 2-.23 2-.05.45z" fill="#c9c2c9"/><path d="M59.92 123.85v.08L40.2 153.57l-3.71-2.46 24.55-37-.59 5.2-.23 2-.23 2-.05.45z" fill="#b2afb2"/><path fill="#d8d6d8" d="m60.22 121.37-4.59.92-6.17 1.25 1.52-2.28 9.47-1.91-.23 2.02zm-.3 2.48v.08l-.07.1-12.34 2.49.45-.68 6.17-1.25 5.87-1.18-.05.45zm-9.59 14.47-6.17 1.24-6.17 1.25-.46.68 6.18-1.25 6.17-1.24.45-.68zm3.69-5.55-1.52 2.28-6.17 1.24-6.17 1.25 1.51-2.28 12.35-2.49zm-9.63 14.48-1.51 2.28-6.17 1.25-.55.11-2.28-1.52 10.51-2.12z"/><path fill="#c9c2c9" d="m55.63 122.29 4.59-.92.23-2.02-3.3.66-1.52 2.28zm4.31 1.57.05-.45-5.89 1.18-.45.69 6.17-1.28.07-.1v-.08zm-16.23 16.38 6.17-1.24.45-.68-6.17 1.24-.45.68zm2.62-3.95 6.17-1.24 1.52-2.28-6.18 1.24-1.51 2.28zm-9.62 14.49 6.17-1.25 1.51-2.28-6.17 1.25-1.51 2.28z"/><path d="M53.76 156.94a20 20 0 0 1-20.26-1.34c-3.53-2.08-9.86-8.84-9.08-18.16a36.77 36.77 0 0 0 29.34 19.5z" fill="#ffb21a"/><path d="M34.47 154.15a20.51 20.51 0 0 1-9.08-14.94c-.37-.63-.7-1.22-1-1.77-.78 9.32 5.55 16.08 9.08 18.16a20 20 0 0 0 20.26 1.34c-.66-.06-1.31-.14-1.93-.23a20.35 20.35 0 0 1-17.33-2.56z" fill="#ff990b"/><path fill="#68442e" d="m21.904 168.074 10.908-16.417 4.747 3.154-10.907 16.417z"/><path fill="#583e31" d="m24.401 169.74 10.908-16.416 2.257 1.5-10.907 16.416z"/><path fill="#3f2c24" d="m29.97 166.23-.6.91-3.75.75-3.06.62-.66-.44.17-.25 7.9-1.59zm2.35-3.54-.6.91-7.9 1.59.6-.91 7.9-1.59zm2.36-3.54-.61.91-7.9 1.59.6-.91 7.91-1.59zm2.35-3.55-.61.92-7.9 1.59.61-.91 7.9-1.6z"/><circle cx="23.61" cy="170.48" r="4.25" fill="#ffb21a"/><path d="M26 166.94a3.38 3.38 0 0 0-.41-.24 4.25 4.25 0 0 1-4.68 7 2.82 2.82 0 0 0 .39.29 4.25 4.25 0 1 0 4.7-7.08z" fill="#ff990b"/><path d="M20.71 168.56a4.25 4.25 0 0 1 5.57-1.39l-.32-.23a4.25 4.25 0 1 0-4.7 7.08 2.9 2.9 0 0 0 .33.2 4.25 4.25 0 0 1-.88-5.66z" fill="#fdd224"/><circle cx="35.16" cy="153.1" r="4.25" fill="#ffb21a"/><path d="M32.1 151.07a4.25 4.25 0 0 1 5.65-1.34l-.23-.17a4.25 4.25 0 1 0-4.71 7.08 1.28 1.28 0 0 0 .25.15 4.24 4.24 0 0 1-.96-5.72z" fill="#fdd224"/><path d="m37.52 149.56-.25-.15a4.25 4.25 0 0 1-4.7 7.06l.24.17a4.25 4.25 0 0 0 4.71-7.08z" fill="#ff990b"/><circle cx="35.16" cy="153.1" r="2.71" fill="#bc1b21"/><circle cx="33.98" cy="152.08" r=".77" fill="#fff"/><circle cx="36.12" cy="151.65" r=".3" fill="#fff"/><circle cx="35.56" cy="155.11" r=".39" fill="#96151f"/><path d="M78.91 123.85a.11.11 0 0 0 0 .08l19.69 29.64 7.41-4.93L86.35 119s0-.05-.06-.07l-8.52-4.78.59 5.2.23 2 .23 2v.45z" fill="#c9c2c9"/><path d="M78.91 123.85a.11.11 0 0 0 0 .08l19.69 29.64 3.71-2.46-24.55-37 .59 5.2.23 2 .23 2v.45z" fill="#b2afb2"/><path fill="#d8d6d8" d="m78.61 121.37 4.58.92 6.17 1.25-1.51-2.28-9.47-1.91.23 2.02zm.3 2.48a.11.11 0 0 0 0 .08l.06.1 12.35 2.49-.46-.68-6.17-1.25-5.88-1.18v.45zm9.58 14.47 6.18 1.24 6.17 1.25.45.68-6.17-1.25-6.17-1.24-.46-.68zm-3.68-5.55 1.51 2.28 6.18 1.24 6.17 1.25-1.52-2.28-12.34-2.49zm9.62 14.48 1.52 2.28 6.17 1.25.54.11 2.28-1.52-10.51-2.12z"/><path fill="#c9c2c9" d="m83.19 122.29-4.58-.92-.23-2.02 3.3.66 1.51 2.28zm-4.3 1.57v-.45l5.88 1.18.45.69L79 124l-.06-.1a.11.11 0 0 1 0-.08zm16.23 16.38L88.95 139l-.46-.68 6.18 1.24.45.68zm-2.62-3.95-6.18-1.24-1.51-2.28 6.17 1.24 1.52 2.28zm9.62 14.49-6.17-1.25-1.52-2.28 6.17 1.25 1.52 2.28z"/><path d="M85.06 156.94a20 20 0 0 0 20.26-1.34c3.53-2.08 9.86-8.84 9.09-18.16a36.81 36.81 0 0 1-29.35 19.5z" fill="#ffb21a"/><path d="M104.36 154.15a20.47 20.47 0 0 0 9.07-14.94c.38-.63.7-1.22 1-1.77.77 9.32-5.56 16.08-9.09 18.16a20 20 0 0 1-20.26 1.34c.67-.06 1.31-.14 1.94-.23a20.36 20.36 0 0 0 17.34-2.56z" fill="#ff990b"/><path fill="#68442e" d="m101.268 154.81 4.748-3.154 10.907 16.417-4.747 3.154z"/><path fill="#583e31" d="m101.269 154.8 2.257-1.5 10.907 16.417-2.257 1.5z"/><path fill="#3f2c24" d="m108.85 166.23.61.91 3.75.75 3.05.62.66-.44-.17-.25-7.9-1.59zm-2.35-3.54.61.91 7.9 1.59-.61-.91-7.9-1.59zm-2.35-3.54.6.91 7.91 1.59-.61-.91-7.9-1.59zm-2.35-3.55.6.92 7.9 1.59-.6-.91-7.9-1.6z"/><circle cx="115.21" cy="170.48" r="4.25" fill="#ffb21a"/><path d="m112.86 166.94.42-.24a4.25 4.25 0 0 0 4.67 7 3.47 3.47 0 0 1-.38.29 4.25 4.25 0 1 1-4.71-7.08z" fill="#ff990b"/><path d="M118.11 168.56a4.24 4.24 0 0 0-5.56-1.39 3.55 3.55 0 0 1 .31-.23 4.25 4.25 0 0 1 4.71 7.08 2.33 2.33 0 0 1-.34.2 4.24 4.24 0 0 0 .88-5.66z" fill="#fdd224"/><circle cx="103.66" cy="153.1" r="4.25" fill="#ffb21a"/><path d="M106.72 151.07a4.24 4.24 0 0 0-5.64-1.34l.23-.17a4.25 4.25 0 1 1 4.7 7.08 1.58 1.58 0 0 1-.24.15 4.24 4.24 0 0 0 .95-5.72z" fill="#fdd224"/><path d="m101.31 149.56.25-.15a4.25 4.25 0 0 0 4.69 7.06 2.07 2.07 0 0 1-.24.17 4.25 4.25 0 1 1-4.7-7.08z" fill="#ff990b"/><circle cx="103.66" cy="153.1" r="2.71" fill="#bc1b21"/><circle cx="104.85" cy="152.08" r=".77" fill="#fff"/><circle cx="102.7" cy="151.65" r=".3" fill="#fff"/><circle cx="103.26" cy="155.11" r=".39" fill="#96151f"/><path d="M78.91 91.8a.11.11 0 0 1 0-.08l19.72-29.64L106 67 86.35 96.64l-.06.07-8.52 4.78.59-5.2.23-2 .23-2v-.45z" fill="#c9c2c9"/><path d="M78.91 91.8a.11.11 0 0 1 0-.08l19.72-29.64 3.71 2.46-24.55 37 .59-5.2.23-2 .23-2v-.45z" fill="#b2afb2"/><path fill="#d8d6d8" d="m78.61 94.28 4.58-.92 6.17-1.25-1.51 2.28-9.47 1.91.23-2.02zm.3-2.48a.11.11 0 0 1 0-.08l.06-.1 12.35-2.49-.46.68-6.17 1.25-5.88 1.18v-.45zm9.58-14.47 6.18-1.24 6.17-1.25.45-.68-6.17 1.25-6.17 1.24-.46.68zm-3.68 5.55 1.51-2.28 6.18-1.24 6.17-1.25-1.52 2.28-12.34 2.49zm9.62-14.49 1.52-2.27 6.17-1.25.54-.11 2.28 1.52-10.51 2.11z"/><path fill="#c9c2c9" d="m83.19 93.36-4.58.92-.23 2.02 3.3-.66 1.51-2.28zm-4.3-1.57v.45l5.88-1.18.45-.69L79 91.62l-.06.1a.11.11 0 0 0 0 .08zm16.23-16.38-6.17 1.24-.46.68 6.18-1.24.45-.68zm-2.62 3.95-6.18 1.24-1.51 2.28 6.17-1.24 1.52-2.28zm9.62-14.49-6.17 1.25-1.52 2.27 6.17-1.24 1.52-2.28z"/><path d="M85.06 58.71a20 20 0 0 1 20.26 1.34c3.53 2.08 9.86 8.84 9.09 18.16a36.81 36.81 0 0 0-29.35-19.5z" fill="#ffb21a"/><path d="M104.36 61.5a20.47 20.47 0 0 1 9.07 14.94c.38.63.7 1.22 1 1.77.77-9.32-5.56-16.08-9.09-18.16a20 20 0 0 0-20.26-1.34c.67.06 1.31.14 1.94.23a20.36 20.36 0 0 1 17.34 2.56z" fill="#ff990b"/><path fill="#68442e" d="m101.267 60.843 10.908-16.417 4.747 3.155-10.907 16.416z"/><path fill="#583e31" d="m101.274 60.845 10.907-16.417 2.257 1.5-10.907 16.417z"/><path fill="#3f2c24" d="m108.85 49.42.61-.91 3.75-.75 3.05-.62.66.44-.17.25-7.9 1.59zm-2.35 3.54.61-.91 7.9-1.59-.61.91-7.9 1.59zm-2.35 3.54.6-.91 7.91-1.59-.61.91-7.9 1.59zm-2.35 3.55.6-.92 7.9-1.59-.6.91-7.9 1.6z"/><circle cx="115.21" cy="45.17" r="4.25" fill="#ffb21a"/><path d="m112.86 48.71.42.24a4.25 4.25 0 0 1 4.67-7 3.47 3.47 0 0 0-.38-.29 4.25 4.25 0 1 0-4.71 7.08z" fill="#ff990b"/><path d="M118.11 47.09a4.24 4.24 0 0 1-5.56 1.39 3.55 3.55 0 0 0 .31.23 4.25 4.25 0 0 0 4.71-7.08 2.33 2.33 0 0 0-.34-.2 4.24 4.24 0 0 1 .88 5.66z" fill="#fdd224"/><circle cx="103.66" cy="62.55" r="4.25" fill="#ffb21a"/><path d="M106.72 64.58a4.24 4.24 0 0 1-5.64 1.34l.23.17A4.25 4.25 0 0 0 106 59l-.24-.15a4.24 4.24 0 0 1 .96 5.73z" fill="#fdd224"/><path d="m101.31 66.09.25.15a4.25 4.25 0 0 1 4.69-7.06A2.07 2.07 0 0 0 106 59a4.25 4.25 0 1 0-4.7 7.08z" fill="#ff990b"/><circle cx="103.66" cy="62.55" r="2.71" fill="#bc1b21"/><circle cx="104.85" cy="63.57" r=".77" fill="#fff"/><circle cx="102.7" cy="64" r=".3" fill="#fff"/><circle cx="103.26" cy="60.54" r=".39" fill="#96151f"/><path d="M59.92 91.8v-.08L40.2 62.08 32.78 67l19.69 29.64a.23.23 0 0 0 .07.07L61 101.5l-.59-5.2-.23-2-.23-2-.05-.45z" fill="#c9c2c9"/><path d="M59.92 91.8v-.08L40.2 62.08l-3.71 2.46L61 101.5l-.59-5.2-.23-2-.23-2-.05-.45z" fill="#b2afb2"/><path fill="#d8d6d8" d="m60.22 94.28-4.59-.92-6.17-1.25 1.52 2.28 9.47 1.91-.23-2.02zm-.3-2.48v-.08l-.07-.1-12.37-2.49.45.68 6.17 1.25 5.9 1.18-.05-.45zm-9.59-14.47-6.17-1.24-6.17-1.25-.46-.68 6.18 1.25 6.17 1.24.45.68zm3.69 5.55L52.5 80.6l-6.17-1.24-6.17-1.25 1.51 2.28 12.35 2.49zm-9.63-14.49-1.51-2.27-6.17-1.25-.55-.11-2.28 1.52 10.51 2.11z"/><path fill="#c9c2c9" d="m55.63 93.36 4.59.92.23 2.02-3.3-.66-1.52-2.28zm4.31-1.57.05.45-5.89-1.18-.45-.69 6.17 1.25.07.1v.08zM43.71 75.41l6.17 1.24.45.68-6.17-1.24-.45-.68zm2.62 3.95 6.17 1.24 1.52 2.28-6.18-1.24-1.51-2.28zm-9.62-14.49 6.17 1.25 1.51 2.27-6.17-1.24-1.51-2.28z"/><path d="M53.76 58.71a20 20 0 0 0-20.26 1.34c-3.53 2.08-9.86 8.84-9.08 18.16a36.77 36.77 0 0 1 29.34-19.5z" fill="#ffb21a"/><path d="M34.47 61.5a20.51 20.51 0 0 0-9.08 14.94c-.37.63-.7 1.22-1 1.77-.75-9.32 5.61-16.08 9.11-18.16a20 20 0 0 1 20.26-1.34c-.66.06-1.31.14-1.93.23a20.35 20.35 0 0 0-17.36 2.56z" fill="#ff990b"/><path fill="#68442e" d="m21.902 47.575 4.747-3.154 10.908 16.416-4.748 3.155z"/><path fill="#583e31" d="m24.4 45.926 2.257-1.5 10.908 16.417-2.257 1.5z"/><path fill="#3f2c24" d="m29.97 49.42-.6-.91-3.75-.75-3.06-.62-.66.44.17.25 7.9 1.59zm2.35 3.54-.6-.91-7.9-1.59.6.91 7.9 1.59zm2.36 3.54-.61-.91-7.9-1.59.6.91 7.91 1.59zm2.35 3.55-.61-.92-7.9-1.59.61.91 7.9 1.6z"/><circle cx="23.61" cy="45.17" r="4.25" fill="#ffb21a"/><path d="M26 48.71a3.38 3.38 0 0 1-.41.24 4.25 4.25 0 0 0-4.68-7 2.82 2.82 0 0 1 .39-.29 4.25 4.25 0 1 1 4.7 7.05z" fill="#ff990b"/><path d="M20.71 47.09a4.25 4.25 0 0 0 5.57 1.39l-.32.23a4.25 4.25 0 1 1-4.7-7.08 2.9 2.9 0 0 1 .33-.2 4.25 4.25 0 0 0-.88 5.66z" fill="#fdd224"/><circle cx="35.16" cy="62.55" r="4.25" fill="#ffb21a"/><path d="M32.1 64.58a4.25 4.25 0 0 0 5.65 1.34l-.23.17A4.25 4.25 0 1 1 32.81 59a1.28 1.28 0 0 1 .25-.15 4.24 4.24 0 0 0-.96 5.73z" fill="#fdd224"/><path d="m37.52 66.09-.25.15a4.25 4.25 0 0 0-4.7-7.06l.24-.17a4.25 4.25 0 0 1 4.71 7.08z" fill="#ff990b"/><circle cx="35.16" cy="62.55" r="2.71" fill="#bc1b21"/><circle cx="33.98" cy="63.57" r=".77" fill="#fff"/><circle cx="36.12" cy="64" r=".3" fill="#fff"/><circle cx="35.56" cy="60.54" r=".39" fill="#96151f"/></svg>