<svg xmlns="http://www.w3.org/2000/svg" viewBox="0 0 138.83 215.65"><path fill="#fff" d="M0 0h138.82v215.65H0z"/><path fill="none" stroke="#7f664a" stroke-miterlimit="10" stroke-width=".5" d="M37.01 207.74H6.94V7.91h30.07m47.44 199.83H54.38M101.82 7.91h30.06v199.83h-30.06M54.38 7.91h30.07"/><path d="M14.94 10v10a6.48 6.48 0 0 0 .1 1.44.94.94 0 0 0 .42.51 1.89 1.89 0 0 0 1 .2h.28v.34H10.3v-.34h.33a2.56 2.56 0 0 0 1.12-.15.93.93 0 0 0 .45-.49 5.66 5.66 0 0 0 .11-1.51v-6.32a3.79 3.79 0 0 0-.08-1.06.73.73 0 0 0-.3-.36.9.9 0 0 0-.51-.15 2.94 2.94 0 0 0-1.12.29l-.16-.33L14.65 10zm8.23 0v10a6.48 6.48 0 0 0 .1 1.44.94.94 0 0 0 .42.51 1.89 1.89 0 0 0 1 .2H25v.34h-6.47v-.34h.33A2.56 2.56 0 0 0 20 22a.93.93 0 0 0 .45-.49 5.66 5.66 0 0 0 .09-1.51v-6.32a3.79 3.79 0 0 0-.08-1.06.73.73 0 0 0-.3-.36.9.9 0 0 0-.51-.15 2.94 2.94 0 0 0-1.12.29l-.16-.33L22.88 10zm96.77 181.35v10a6.61 6.61 0 0 0 .1 1.44.94.94 0 0 0 .42.51 2 2 0 0 0 1 .2h.28v.33h-6.44v-.33h.33a2.56 2.56 0 0 0 1.12-.18 1 1 0 0 0 .45-.5 5.51 5.51 0 0 0 .11-1.47V195a3.88 3.88 0 0 0-.08-1.07.73.73 0 0 0-.3-.36.9.9 0 0 0-.51-.15 2.94 2.94 0 0 0-1.12.29l-.16-.32 4.51-2.06zm8.23 0v10a6.61 6.61 0 0 0 .1 1.44.94.94 0 0 0 .42.51 2 2 0 0 0 1 .2h.31v.33h-6.45v-.33h.33a2.56 2.56 0 0 0 1.12-.18 1 1 0 0 0 .45-.5 5.51 5.51 0 0 0 .11-1.47V195a3.88 3.88 0 0 0-.08-1.07.73.73 0 0 0-.3-.36.9.9 0 0 0-.51-.15 2.94 2.94 0 0 0-1.12.29l-.16-.32 4.51-2.06z" fill="#7f664a"/><path d="M61.66 182.15s-.84 3.34 0 4.86c0 0 4.18 2.07 10.11-1.47 0 0-3.64-5.06-5.24-6.43z" fill="#484949"/><path d="M58.09 146.28s-2.13 10-2.89 12-1.52 5.16 0 7.9 5.8 9.13 5.8 10.65-1.22 7.14 3 6.53 5.62-.15 4.71-2.12-2.13-5.17-2.89-5.17-5.32-10-5.32-11.23.15-1.54 1.14-4.43S66.9 142 66.9 142z" fill="#3d3635"/><path d="M84.78 183s-.83 3.34 0 4.86c0 0 4.18 2.07 10.11-1.47 0 0-3.64-5.07-5.24-6.43z" fill="#484949"/><path d="M87.65 136s-4 12.14-5.11 14.49-2.47 6.19-1.48 9.82 4 12.19 3.71 14.08-2.54 8.69 1.78 8.57 5.59.65 5.06-1.94-1.13-6.74-1.88-6.85-3.39-13.2-3.16-14.74.44-1.9 2-5.34 8.33-23.31 8.33-23.31z" fill="#3d3635"/><path d="M79.54 170.64s-3.82-1.87-5.49-.95c0 0-3 5.12 1.36 11.75a17.46 17.46 0 0 0 4.13-4.76z" fill="#484949"/><path d="M107.94 83.28s4.1-2 5-5.62c0 0 2.59 6.23-3.19 9.88z" fill="#4f4543"/><path d="M40.65 115c-6.37-1.72-13.36 1.65-17.24 7s-5 12.22-4.74 18.81a35.65 35.65 0 0 1 .06 6.45 13.17 13.17 0 0 1-3.22 7c-1.69 1.89-4.18 3.31-6.68 2.9 2.42 1.19 5.26 1.09 8 .95a33.41 33.41 0 0 0 7.66-1 16.41 16.41 0 0 0 11.37-11.82c.59-2.62.55-5.54 2.2-7.65a17.8 17.8 0 0 1 3-2.57c5.81-4.79 9.4-17.41-.41-20.07z" fill="#3d3635"/><path d="M49.27 146.43c17.56 4.11 26.22-4.94 26.22-4.94-.42 3.63 4 5.92 7.36 8.22l.85.6a38.08 38.08 0 0 1 4.67 4.1c.93 1 1.48 1.61 1.48 1.61a27.72 27.72 0 0 1-3 6.2c-1.27 2.17-2.65 4.31-3.49 5.59l-.8 1.19a4.4 4.4 0 0 0-3 1.63c-2.33 3 0 6.81 0 6.81 2.57 0 4.4-2.33 5.24-3.66a8.2 8.2 0 0 0 .51-.9 23 23 0 0 0 3.18-2.52c5.55-5.22 7.6-12 8-12.76s.69-2.28 0-5.17c-.34-1.34-2.49-4.43-4.6-7.43-2.47-3.39-5-6.55-5-6.55a14.31 14.31 0 0 0 10-7.7 15.79 15.79 0 0 0 .77-1.75 20.86 20.86 0 0 0 1.05-3.83 27.93 27.93 0 0 0 .29-8.07s-.72-10 5-15.16l-4.41-12-1.8-2.94-7 1.22-21.88 21.3-13.07 11.1-8.81 9-3.8 7z" fill="#4f4543"/><path d="M101.36 81.63c-11-2.3-21.3 14-27.46 22.3-6.84 9.25-28.27 9.21-28.27 9.21-17.33 9.34-14.37 22.35-11.07 26.68 0 0 1.81 4.32 5 4.72 0 0 1.33 3.75.24 6.4s-4.37 5.18-3.71 7.32 4.42 5.54 5.71 6.5 4.6 4.79 4.69 5.87-1.41 5.48 1.81 5.71 4.88-1.89 4-4.08a5.92 5.92 0 0 0-3-3c-.39-.36-3.7-9.07-4.11-9.83 0 0 13.61-12.65 3.92-18.11" fill="#4f4543"/><path d="M98.68 125.15a20.86 20.86 0 0 1-1.05 3.85c-3.22.71-15 2.62-24.88-4.78l.25-3.86a37.45 37.45 0 0 0 25.68 4.79z" fill="#bc1b21"/><path d="M49.42 136.85a5 5 0 0 1 2.16 1.88 7.62 7.62 0 0 1 1.11 2.68 12.61 12.61 0 0 1-.26 5.64c-.32-1.87-.34-3.7-.72-5.43a10 10 0 0 0-2.29-4.77zm25.33-1.22a9.7 9.7 0 0 1 .65 3.18v1.55a6.72 6.72 0 0 0 .24 1.54 2.45 2.45 0 0 1-1-1.39 6 6 0 0 1-.27-1.65 9.44 9.44 0 0 1 .38-3.23zm7.85-2.01a7.88 7.88 0 0 1 4.56 4.88 18 18 0 0 1-2.47-2.27 19 19 0 0 1-2.09-2.61z" fill="#3d3635"/><ellipse cx="91.44" cy="127.45" rx="2.94" ry="1.92" transform="rotate(-85.67 91.437 127.447)" fill="#fdbb29"/><path d="M46.75 174.52s-3.58 1.8-4.16 3.78c0 0 2.93 4.92 6.37 5.2 0 0 3.36-6.34 2.06-8.76z" fill="#484949"/><path d="M130 94.49a6.41 6.41 0 0 1-3.31 5.28c-2 1.07-4.35 1-6.64 1.12a15.81 15.81 0 0 0-2.5.3 7.2 7.2 0 0 0-2 .72c-.9.47-1.67 1.16-2.55 1.66a9.75 9.75 0 0 1-4.7 1.11c-7.35.14-16.62-4.83-15-13.48a9.42 9.42 0 0 1 8.54-7.55 13.41 13.41 0 0 1 5.35 1.13c1.08.43 2.13.92 3.21 1.38.46.2.93.39 1.39.56a15 15 0 0 0 3.32.92c2.73.41 5.69-.15 8.38.12a8.51 8.51 0 0 1 2.94.8 5.17 5.17 0 0 1 .68.39 6.38 6.38 0 0 1 2.89 5.54z" fill="#4f4543"/><path d="M126.46 88.56c-4.35 2.82-5.93 9.38-6.42 12.33l-2.5.3c-1-5.23.2-13.56 6-13.43a8.51 8.51 0 0 1 2.92.8z" fill="#bc1b21"/><ellipse cx="118.94" cy="97.34" rx="1.92" ry="2.94" transform="rotate(-60.07 118.94 97.338)" fill="#fdbb29"/><path fill="#bc1b21" d="M97.66 94.75 95.67 94l-5.59-5.58 3.07-1.72 4.02 5.02v1.17"/><path d="M45.63 113.14s-2.38 16.45 3.53 26c0 0 17.9-9.92 27-10.23 0 0-6.53-19.75-5-25.38 0 .04-15.81 10.36-25.53 9.61z" fill="#fdbb29"/><path d="M93.84 78.58c-1.62 1.11-2.56 2.93-3.66 4.55s-2.6 3.22-4.55 3.41a21.82 21.82 0 0 0 2.1.75c-2.17.82-4.48 1.73-5.81 3.63-1 1.37-1.37 3.18-2.69 4.21-.87.67-2.07 1-2.64 1.88-.37.59-.4 1.36-.79 1.94a4.49 4.49 0 0 1-1.58 1.19 10.68 10.68 0 0 0-5 7.56 12.62 12.62 0 0 0 2.15 8.87 7.12 7.12 0 0 1 1.71-8.82 8.47 8.47 0 0 0 6.25 5.79 17.79 17.79 0 0 1-1.12-5.27 6 6 0 0 1 2-4.82 3.15 3.15 0 0 0 3.12 3.37 8 8 0 0 1 2.27-9 4.4 4.4 0 0 0 2.57 3.34 12 12 0 0 1 .56-6.81 4.67 4.67 0 0 0 1.89 2.09 7.93 7.93 0 0 1 3.54-8A13.55 13.55 0 0 0 96 87.28a6.81 6.81 0 0 0 1.17-1.54c1-1.52 4.36-5.13 3.16-7s-4.96-1.2-6.49-.16z" fill="#3d3635"/><path d="M51.21 111.69s-5.58 10.92 1.14 21.41l19.84-7s-6-13.62-5.29-20z" fill="#ff990b"/><path d="M97.11 86.93s-3.59-4.8 3.41-10.42c0 0 .68 5.49 3.13 8.14 0 0-3.75 4.93-6.54 2.28z" fill="#4f4543"/><path d="M111.77 86.72c-3.43 1.61-11.25 5.54-14.28 9.28l1.21-3.81s.36-5.31 8.47-7.41c1.08.43 2.13.92 3.21 1.38.46.2.93.39 1.39.56z" fill="#bc1b21"/><path d="M109.67 85a4.39 4.39 0 0 0 4.89 1.4 13.28 13.28 0 0 1-4.27.84 1.85 1.85 0 0 0 1.36 1.61 2 2 0 0 1-2.87-.27 6.8 6.8 0 0 0 .7 1.78 7.48 7.48 0 0 1-3.71-2.31c-1.31-1.29-4.93-5.1-2.25-6.73s4.92 2.08 6.15 3.68z" fill="#3d3635"/><ellipse cx="97.17" cy="94" rx="3.48" ry="2.27" transform="rotate(-53.42 97.16 93.992)" fill="#fdbb29"/><path d="M98.06 100.33a19.22 19.22 0 0 0 3.34 2.44 12.76 12.76 0 0 0 1.83.86c.64.27 1.3.44 2 .69a5.49 5.49 0 0 1-2.21.07 6.39 6.39 0 0 1-2.12-.75 6.74 6.74 0 0 1-1.74-1.4 5.18 5.18 0 0 1-1.1-1.91z" fill="#3d3635"/><path d="M69 102.48s-3.82 3.43-4.81-8.76L67.9 93l3.19 3.19z" fill="#96151f"/><path d="M54.34 120.79a1.22 1.22 0 0 1 .61.75 1.37 1.37 0 0 1-.22.69 13.37 13.37 0 0 0-1.45 8.77 47.07 47.07 0 0 1 1 4.66A8.56 8.56 0 0 1 53 140.9c-.89 1.42-2.23 2.67-2.39 4.34-.24 2.41 2.13 4.27 4.4 5.12a17.33 17.33 0 0 0 6.76 1.06 2.32 2.32 0 0 0 1-.21c.88-.49.77-1.87.13-2.65a16.82 16.82 0 0 0-2.37-1.87c-2-1.72-2.32-4.72-2-7.34.56-4.13 2.37-8 3.77-11.88s2.38-8.23 1.21-12.23a16.47 16.47 0 0 0-6.71-8.56 5.84 5.84 0 0 0-3.14-1.29 4.48 4.48 0 0 0-3.49 1.92c-3.67 4.83-.08 10.49 4.17 13.48z" fill="#825343"/><path d="M60.52 146.69c-2-1.72-2.32-4.72-2-7.34.56-4.13 2.37-8 3.77-11.88s2.38-8.23 1.21-12.23a16.47 16.47 0 0 0-6.71-8.56 5.84 5.84 0 0 0-3.14-1.29 3.7 3.7 0 0 0-1.72.42 10.23 10.23 0 0 1 1.46.87 16.49 16.49 0 0 1 6.72 8.56c1.17 4 .18 8.3-1.21 12.23s-3.22 7.75-3.77 11.88c-.35 2.62 0 5.62 2 7.34a18.06 18.06 0 0 1 2.37 1.87c.63.78.74 2.16-.14 2.65a1.51 1.51 0 0 1-.3.1 17.3 17.3 0 0 0 2.69.11 2.32 2.32 0 0 0 1-.21c.88-.49.77-1.87.13-2.65a16.82 16.82 0 0 0-2.36-1.87z" fill="#774b3f"/><path d="M61.73 59.55a2.69 2.69 0 0 0 2.21 1.53 1.69 1.69 0 0 0 1.74-1.77 2.37 2.37 0 0 0 2.67.34 1.45 1.45 0 0 0 .05-2.38 1.64 1.64 0 0 0 1.41-2.68 2 2 0 0 0 .4-2.58 1.76 1.76 0 0 1-.4-.78 1.64 1.64 0 0 1 .21-.66 1.82 1.82 0 0 0-.46-1.94c.55-.09.72-.82.57-1.35a6.63 6.63 0 0 1-.47-1.58c0-.38.16-.77 0-1.12-.2-.51-1-.92-.66-1.38.62-.94-1.29-2.28-2.35-1.89a1.58 1.58 0 0 0-3.12.46 3.6 3.6 0 0 0-1.79 1.53 1.46 1.46 0 0 0 .72 2 4 4 0 0 0-1.22 6.43 4.31 4.31 0 0 0-1.47 2.5 2.08 2.08 0 0 0 1.42 2.3 3.87 3.87 0 0 0 .54 3.02z" fill="#4f332c"/><path fill="#f9c18a" d="m52.9 60.08.57 7.49 7.49-.28-1.13-10.32-6.93 3.11z"/><path fill="#ea9f54" d="m59.83 56.97-1.56.7 1.06 9.62-5.87.22.01.06 7.49-.28-1.13-10.32z"/><ellipse cx="56.79" cy="50.68" rx="9.26" ry="11.94" fill="#f9c18a"/><path d="M56.79 38.74a7.2 7.2 0 0 0-1.32.13c4.49.83 7.94 5.79 7.94 11.81s-3.45 11-7.94 11.81a7.2 7.2 0 0 0 1.32.13c5.11 0 9.26-5.34 9.26-11.94s-4.15-11.94-9.26-11.94z" fill="#ea9f54"/><ellipse cx="48.45" cy="52.45" rx="1.91" ry="2.4" fill="#f9c18a"/><path d="M44.9 50.12a4.62 4.62 0 0 1-.72.59 1.88 1.88 0 0 0-.18 2.57 2.52 2.52 0 0 0-1.14 1.77A1.51 1.51 0 0 0 44 56.66a4.6 4.6 0 0 0-1 2.47c0 .9.79 1.86 1.67 1.68a1.63 1.63 0 0 0 .83 1.65 2.83 2.83 0 0 0 1.92.27 4.91 4.91 0 0 0 2.73-1.39c1.52-1.54 1.87-3.87 1.92-6a11 11 0 0 0-.94-5.37c-.23-.43-.5-.83-.72-1.25s-.5-1.08-1-1.18h-.7a3.92 3.92 0 0 1-.89-.45c-1.89-.82-2.25 2.19-2.92 3.03z" fill="#604238"/><path d="M51.1 49.94c-.23-.43-.5-.83-.72-1.25s-.5-1.08-1-1.18h-.7a3.92 3.92 0 0 1-.89-.45 1.14 1.14 0 0 0-1.26.14 2.1 2.1 0 0 0 .64.31h.7c.53.1.79.69 1 1.18s.49.82.72 1.25a10.89 10.89 0 0 1 .94 5.37c-.05 2.16-.39 4.49-1.92 6a5 5 0 0 1-2.55 1.35 3.31 3.31 0 0 0 1.33 0 4.91 4.91 0 0 0 2.73-1.39c1.52-1.54 1.86-3.87 1.92-6a11 11 0 0 0-.94-5.33z" fill="#4f332c"/><path d="M67 94.56c.36.43-.51 1.7-1 3.37-.17.53-.28.81-.28.81H49.79a11.53 11.53 0 0 1-.79-1.39 18.15 18.15 0 0 1-.7-1.69C45.72 88.37 46.68 78 46.68 78s-1.55-9.71 3.25-11.36l.19-.06c4.9-1.57 13 0 13 0l.51.17a7.49 7.49 0 0 1 1.92 1.59c3.34 3.87 2.18 10.87.76 16.72-.39 1.6-.79 3.12-1.14 4.45-.73 2.89-1.15 5-.38 5.32s1.79-.71 2.21-.27z" fill="#4f4543"/><path d="M65.31 67.86c1.92 2.43 6.06 6 7.81 8.61a31.5 31.5 0 0 1 3 5c1.46 3.37-.35 7.48-1.64 10.65-.72 1.76-1.54 3.49-2.43 5.18-.49.93-1 1.84-1.54 2.74-.3.51-1.54 1.89-1.52 2.43 0 0-.29-9.32-4.81-8.76l4-5.79a9.12 9.12 0 0 0 .41-4.65 8.43 8.43 0 0 0-1.15-2.9c-1.06-1.74-2.09-5.17-2.13-12.51z" fill="#bc1b21"/><path d="M64.8 94.85c-.77-.37-.35-2.43.38-5.32.35-1.33.75-2.85 1.14-4.45 1.42-5.85 2.58-12.85-.76-16.72a7.49 7.49 0 0 0-1.92-1.59l-.51-.17a43 43 0 0 0-8.74-.69 45.72 45.72 0 0 1 6.23.69l.5.17A7.33 7.33 0 0 1 63 68.36c3.34 3.87 2.19 10.87.77 16.72-.4 1.6-.8 3.12-1.14 4.45-.73 2.89-1.16 5-.38 5.32s1.78-.73 2.14-.29-.5 1.7-1.05 3.37c-.17.53-.28.81-.28.81h2.52s.11-.28.28-.81c.54-1.67 1.41-2.94 1-3.37s-1.41.59-2.06.29z" fill="#3f3432"/><path d="M66.32 85.08c-.39 1.6-.79 3.12-1.14 4.45-10.47-3.53-17.33-17.7-17.33-17.7l2.43-2.13C55.43 79.72 62 83.59 66.32 85.08z" fill="#fdbb29"/><path d="M66 66.68a2.58 2.58 0 0 1-1.06 2 1.83 1.83 0 0 1-2.4-.28 1.57 1.57 0 0 1-2.88.44 2.09 2.09 0 0 1-3.7-.28 1.45 1.45 0 0 1-1.68 1.28 1.94 1.94 0 0 1-1.51-1.67 1.68 1.68 0 0 1-2.26.58c-.92-.57-.81-1.44-.36-2.26 4.91-1.46 15.79 0 15.79 0z" fill="#fff"/><path d="M67.39 105.88c-16.41 5-17 10.63-17 10.63-9.19-4.66-5-14.42-5-14.42l1.61-1.66 1-1h1.07l16-.8a12 12 0 0 1 .83 1.37 13.59 13.59 0 0 1 .62 1.28c1.6 3.78.87 4.6.87 4.6z" fill="#78b1ef"/><path d="M66.52 101.23a13.59 13.59 0 0 0-.62-1.23 12 12 0 0 0-.84-1.39l-4.29.22c.34.68.62 1.34 1 2.18a2.3 2.3 0 0 1 .15 1.26c.12.26.26.52.37.78 1.06 2.53 1.09 3.74 1 4.27 1.25-.46 2.63-.93 4.14-1.39-.04-.05.69-.87-.91-4.7z" fill="#659cce"/><path d="M48.44 66.86S33.18 80.72 35.72 90.47c0 0 3 11.31 10.18 16.82a48.68 48.68 0 0 0 2.68-8.62c.43-3.11-2.12-6.22-2.12-6.22l-2-6.36s5.8-7.78 5.8-16.4c.02 0 1.29-3.53-1.82-2.83z" fill="#bc1b21"/><path d="M43 92.62a2.51 2.51 0 0 1 2.79-2.48l-1.26-4s5.8-7.78 5.8-16.4c0 0 1.27-3.53-1.84-2.83 0 0-.61.56-1.55 1.51a5.11 5.11 0 0 1-.26 1.32c0 8.62-5.79 16.4-5.79 16.4l2 6.36z" fill="#96151f"/><path d="M65.9 97.94a12.49 12.49 0 0 1 .62 1.28c-2.77 1.29-9.36 3.19-19.54-.8l1-1 1.02-.08a14.77 14.77 0 0 1-.69-1.68 30.7 30.7 0 0 0 18.6-1.1c-.38 1.51-.75 2.67-1.01 3.38z" fill="#604238"/><path d="M67.66 42.85a5.56 5.56 0 0 1-4.07 1.68h-2.11c-2.88-.18-5.83-.7-8.25.73-1.64 1-2.79 2.71-4.57 3.37a4.61 4.61 0 0 1-4.86-1.23 5 5 0 0 1-1-5 8.15 8.15 0 0 1 1.43-2.36 18.5 18.5 0 0 1 6.9-5.21c2.66-1.16 6.08-.87 9-.49l.63.1c.37 0 .75.11 1.12.19a9.44 9.44 0 0 1 4.94 2.22c1.61 1.55 2.23 4.28.84 6z" fill="#969b2c"/><path d="M47.56 40.14s-4.8-20.07-26-10.32c0 0 17.38-5.23 26 10.32z" fill="#bc1b21"/><path d="M46.78 40.58S35.39 26 21.72 41.84c0 0 12.28-10.74 25.06-1.26zm52.82 69.95s-31.76-6.38-35.3-12.08l-3.1 3.11s22.8 11.89 37.86 11.32z" fill="#bc1b21"/><path d="M62.33 95.05a.67.67 0 0 0-.31.29.5.5 0 0 0 .27.61 1.48 1.48 0 0 0 .72.12 8.8 8.8 0 0 1-2.78 1.72c-.45.16-1 .4-1 .88a.75.75 0 0 0 .58.68 2.22 2.22 0 0 0 1 0 .93.93 0 0 1-.82.16 1 1 0 0 0 .56.91 2.72 2.72 0 0 0 1.1.25.5.5 0 0 0-.59.49.45.45 0 0 0 .65.34.83.83 0 0 0 .41 1.06 2.09 2.09 0 0 0 1.24.1 8.14 8.14 0 0 0 3.79-1.66 5.37 5.37 0 0 0 2.1-3.47c.44-4.26-4.44-3.99-6.92-2.48z" fill="#f9c18a"/><path d="M68.05 94.56a3.26 3.26 0 0 1 .38 2.12 5.33 5.33 0 0 1-2.1 3.47 8 8 0 0 1-3.83 1.69 2.42 2.42 0 0 1-.89 0 .91.91 0 0 0 .47.71 2.09 2.09 0 0 0 1.24.1 8.14 8.14 0 0 0 3.83-1.65 5.37 5.37 0 0 0 2.1-3.47 2.79 2.79 0 0 0-1.2-2.97z" fill="#ea9f54"/><path d="M64.21 93.72s4.83.8 4.71 7.53l2.74-5.59-.91-3.76-1.75-.23h-1.9z" fill="#bc1b21"/><path d="M45.05 96.58a11.17 11.17 0 0 0-1 3.63 10.38 10.38 0 0 0 .49 5.75c.19.41.61 1.47 1 1.56s.93-1 1.26-1.53a14.49 14.49 0 0 0 2.49-6.56 7.49 7.49 0 0 0-.14-2.87c-.78-3.02-2.89-2.36-4.1.02z" fill="#96151f"/><path d="m32.27 54.13.06.06 14.29 29.92-7.49 3.58-14.29-29.92a.19.19 0 0 1 0-.08l.25-9.1 3.88 2.95 1.5 1.15L32 53.86l.34.26z" fill="#c9c2c9"/><path d="m32.27 54.13.06.06 14.29 29.92-3.74 1.79-17.83-37.3 3.88 2.95 1.5 1.15L32 53.86l.34.26z" fill="#b2afb2"/><path fill="#d8d6d8" d="m30.43 52.7-1.45 4.11-1.96 5.53-1.09-2.29 3-8.5 1.5 1.15zm1.84 1.43.06.06v.1l-3.87 11.07-.33-.69 2-5.53L32 53.86l.34.26zm6.99 14.58-1.95 5.54-1.96 5.53.33.69 1.96-5.53 1.95-5.54-.33-.69zm-2.67-5.59 1.1 2.3-1.96 5.53-1.95 5.53-1.1-2.3 3.91-11.06zm6.99 14.62 1.09 2.3-1.95 5.53-.17.49-2.3 1.1 3.33-9.42z"/><path fill="#c9c2c9" d="m28.98 56.81 1.45-4.11-1.5-1.15-1.05 2.96 1.1 2.3zm3.31-2.69-.29-.26-1.86 5.28.33.69 1.95-5.54v-.1l-.06-.06zm5.35 20.82 1.95-5.54-.33-.69-1.95 5.54.33.69zm-1.91-3.99 1.96-5.53-1.1-2.3-1.96 5.53 1.1 2.3zm6.99 14.62 1.95-5.53-1.09-2.3-1.96 5.53 1.1 2.3z"/><path d="M55.8 74.87A18.66 18.66 0 0 1 45 90.44C41.7 92.27 33.26 94.1 26.18 89a33.56 33.56 0 0 0 16.61-3.3A33.56 33.56 0 0 0 55.8 74.87z" fill="#ffb21a"/><path d="M44.35 89a19.07 19.07 0 0 1-16.29.12c-.68 0-1.32 0-1.88-.07C33.26 94.1 41.7 92.27 45 90.44a18.66 18.66 0 0 0 10.8-15.57q-.55.75-1.11 1.44A19 19 0 0 1 44.35 89z" fill="#ff990b"/><path fill="#68442e" d="m41.563 89.1 4.79-2.29 7.92 16.575-4.79 2.29z"/><path fill="#583e31" d="m44.075 87.906 2.274-1.087 7.92 16.575-2.274 1.087z"/><path fill="#3f2c24" d="m51.86 98.34.44.92-1.19 3.36-.97 2.74-.66.32-.13-.26 2.51-7.08zm-1.71-3.57.44.92-2.5 7.08-.44-.92 2.5-7.08zm-1.71-3.58.44.92-2.5 7.08-.44-.91 2.5-7.09zm-1.71-3.57.44.92-2.5 7.08-.44-.92 2.5-7.08z"/><circle cx="52.22" cy="105.46" r="3.96" fill="#ffb21a"/><path d="M50.51 101.89a3.84 3.84 0 0 0-.39.22 4 4 0 0 1 3.39 7.1l.42-.17a4 4 0 1 0-3.42-7.15z" fill="#ff990b"/><path d="M49.3 106.86a4 4 0 0 1 1.55-5.11l-.34.14a4 4 0 0 0 3.42 7.11l.32-.17a4 4 0 0 1-4.95-1.97z" fill="#fdd224"/><circle cx="43.84" cy="87.92" r="3.96" fill="#ffb21a"/><path d="M40.75 89.39a4 4 0 0 1 1.63-5.16l-.25.11a4 4 0 0 0 3.42 7.15l.24-.13a4 4 0 0 1-5.04-1.97z" fill="#fdd224"/><path d="m42.13 84.34-.24.13a4 4 0 0 1 3.41 7.13l.25-.11a4 4 0 0 0-3.42-7.15z" fill="#ff990b"/><circle cx="43.84" cy="87.92" r="2.52" fill="#bc1b21"/><circle cx="42.46" cy="88.38" r=".72" fill="#fff"/><circle cx="43.14" cy="86.45" r=".28" fill="#fff"/><circle cx="45.64" cy="88.55" r=".36" fill="#96151f"/><path d="M49 101.36a3.3 3.3 0 0 0 3.12-.78 3.9 3.9 0 0 0 .63-1.87 7.61 7.61 0 0 0 .14-2.18 2.61 2.61 0 0 0-1-1.86 3.93 3.93 0 0 0-2.45-.36 5.39 5.39 0 0 0-3.26 1 4.59 4.59 0 0 0-1 4.16c.46 1.25 2.56 1.69 3.82 1.89z" fill="#f9c18a"/><circle cx="47.1" cy="40.78" r="1.63" fill="#fdbb29"/><path d="M67.66 42.85a5.56 5.56 0 0 1-4.07 1.68h-1.25c3.69-3.6 1.29-7.75-.44-9.89a9.44 9.44 0 0 1 4.94 2.22c1.59 1.54 2.21 4.27.82 5.99z" fill="#878722"/></svg>