<svg xmlns="http://www.w3.org/2000/svg" viewBox="0 0 138.83 215.65"><defs><clipPath id="a"><path fill="none" d="M0 0h138.82v215.65H0z"/></clipPath><clipPath id="b"><path fill="#fff" d="M159.5 7.52h126.17v201.67H159.5z"/></clipPath><clipPath id="c"><path fill="none" d="M159.5 7.52h126.17v201.67H159.5z"/></clipPath></defs><path fill="#fff" d="M0 0h138.82v215.65H0z"/><g clip-path="url(#a)"><path fill="none" d="M-157.04-117.18h410.49v414.22h-410.49z"/><path fill="#96151f" d="m45.498-116.478.708-.707L240.03 76.64l-.708.707zm-6.75 6.756.708-.707L233.28 83.396l-.708.707zm-6.76 6.746.708-.707L226.52 90.142l-.708.707zm-6.75 6.756.708-.707L219.77 96.898l-.708.707zm-6.75 6.746.708-.707L213.02 103.644l-.708.707zm-6.75 6.746.708-.707L206.27 110.39l-.708.707zm-6.757 6.763.707-.707 193.826 193.825-.708.707zm-6.743 6.753.708-.707L192.77 123.906l-.708.707zm-6.75 6.746.708-.707L186.02 130.652l-.708.707zm-6.75 6.756.708-.707L179.27 137.408l-.708.707zm-6.76 6.746.708-.707L172.51 144.154l-.708.707zm-6.75 6.746.708-.707L165.76 150.9l-.708.707zm-6.75 6.756.708-.707L159.01 157.656l-.708.707zm-6.75 6.746.708-.707L152.26 164.402l-.708.707zm-6.75 6.76.708-.707L145.51 171.162l-.708.707zm-6.745 6.748.707-.707 202.374 202.374-.707.707zm-6.755 6.753.707-.707L149.39 202.044l-.707.707zm-6.758 6.743.706-.707 219.246 219.245-.707.707zm-6.744 6.763.708-.707 219.245 219.245-.707.707zm-6.751 6.741.707-.707L133.14 226.293l-.707.707zm-6.753 6.753.707-.707 215.208 215.208-.707.707zm-6.754 6.75.708-.707L98.25 218.413l-.708.708zm-6.75 6.761.708-.708L91.5 225.174l-.708.707zm-6.75 6.756.708-.708L84.75 231.93l-.708.708zm-6.75 6.745.708-.707L78 238.675l-.708.708zm-6.75 6.746.708-.707L71.25 245.421l-.708.707zm-6.76 6.757.708-.708L64.49 252.177l-.708.707zm-6.75 6.745.708-.707L57.74 258.923l-.708.707zm-6.75 6.746.708-.707L50.99 265.67l-.708.707zm-6.757 6.763.707-.707L44.234 272.432l-.708.707zm-6.743 6.753.708-.707L37.49 279.185l-.708.707z"/><path fill="#96151f" d="M-130.038 103.648 63.787-90.177l.707.707-193.825 193.825zm6.746 6.75L70.533-83.427l.707.707-193.825 193.825zm6.762 6.752L77.297-76.673l.707.707-193.825 193.825zm6.747 6.75L84.042-69.923l.707.707-193.825 193.825zm6.746 6.75L90.788-63.173l.707.707-193.825 193.825zm6.763 6.758L97.55-56.417l.707.707-193.825 193.825zm6.746 6.75L104.297-49.667l.707.707-193.825 193.825zm6.746 6.75L111.043-42.917l.707.707-193.825 193.825zm6.756 6.75L117.799-36.167l.707.707L-75.32 158.365zm6.746 6.76L124.545-29.407l.707.707-193.825 193.825zm6.753 6.742L131.298-22.663l.707.707L-61.82 171.868zm6.755 6.75L138.053-15.913l.708.707-193.825 193.825zm6.746 6.75L144.8-9.163l.708.707-193.825 193.825zm6.763 6.758L151.562-2.407l.708.707-193.825 193.825zm6.746 6.75L158.308 4.343l.708.707L-34.81 198.875zm6.747 6.75L165.053 11.093l.707.707-193.825 193.825zm6.755 6.75L171.81 17.843l.707.707-193.825 193.825zm6.746 6.76L178.556 24.603l.707.707-193.825 193.825zm6.753 6.742L185.31 31.347l.707.707L-7.809 225.878zm6.756 6.75L192.065 38.097l.707.707L-1.053 232.628zm6.746 6.75L198.811 44.847l.707.707L5.693 239.378zm6.754 6.758L205.563 51.603l.707.707L12.446 246.135zm6.755 6.75L212.32 58.353l.707.707L19.202 252.885zm6.746 6.75L219.066 65.103l.707.707L25.948 259.635zm6.746 6.75L225.812 71.853l.707.707L32.694 266.385zm6.756 6.76L232.568 78.613l.707.707L39.45 273.145zm6.753 6.742L239.32 85.357l.707.707L46.203 279.888zm6.702 6.718L246.023 92.073l.707.707L52.905 286.605zm6.71 6.7L252.733 98.773l.707.707L59.615 293.305zm-180.494-180.712L64.617-74.317l.353.354-186.202 186.202zm6.756 6.75L71.372-67.567l.354.354-186.202 186.202zm6.746 6.75L78.118-60.817l.354.354-186.202 186.202zm6.746 6.75L84.864-54.067l.354.354-186.203 186.202zm6.756 6.75L91.62-47.317l.354.354L-94.23 139.239zm6.746 6.75L98.366-40.567l.354.354-186.203 186.202zm6.77 6.75L105.136-33.817l.354.354-186.203 186.202zm6.746 6.76L111.882-27.057l.354.354-186.203 186.202zm6.746 6.75L118.628-20.307l.354.354-186.203 186.202zm6.756 6.75L125.384-13.557l.354.354-186.203 186.202zm6.499 6.507L131.884-7.05l.353.354-186.202 186.202zm6.993 6.993L138.876-.057l.354.354-186.203 186.202zm6.756 6.75L145.632 6.693l.354.354-186.203 186.202zm6.745 6.75L152.378 13.443l.353.354L-33.47 199.999zm6.753 6.757L159.131 20.2l.353.354-186.202 186.202zm6.764 6.753L165.894 26.953l.353.354-186.202 186.202zm6.745 6.75L172.64 33.703l.353.354-186.202 186.202zm6.746 6.75L179.386 40.453l.353.354L-6.463 227.009zm6.757 6.75L186.141 47.203l.353.354L.293 233.759zm6.745 6.75L192.888 53.953l.353.354L7.04 240.509zm6.746 6.75L199.634 60.703l.353.354L13.785 247.259zm6.756 6.75L206.39 67.453l.353.354L20.541 254.009zm6.753 6.757L213.143 74.21l.353.354L27.294 260.766zm6.763 6.753L219.906 80.963l.353.354L34.057 267.519zm6.747 6.75L226.651 87.713l.353.354L40.803 274.269z"/><path fill="#96151f" d="m-94.905 64.002.353-.354L78.916 237.116l-.354.353zm6.743-6.753.353-.354 173.46 173.46-.353.354zm6.75-6.756.353-.354L92.41 223.607l-.354.353zm6.757-6.753.353-.354L99.166 216.854l-.354.353zm6.756-6.747.354-.354 194.843 194.843-.354.354zm6.75-6.756.354-.354 194.843 194.843-.354.354zm6.745-6.749.353-.353 198.88 198.88-.353.354zm6.75-6.746.353-.353 198.88 198.88-.353.354zm6.755-6.757.354-.354 190.671 190.672-.353.353zm6.747-6.748.353-.353 173.46 173.46-.353.354zm6.433-6.759.354-.354 173.467 173.467-.353.354zm7.074-6.75.353-.353 173.46 173.46-.353.354zm6.76-6.746.353-.353 173.468 173.467-.354.354zm6.75-6.756.353-.353L166.686 149.34l-.354.354zm6.75-6.746.353-.353 173.46 173.46-.353.354zm6.75-6.745.353-.354 173.468 173.467-.354.354zm6.75-6.756.353-.354 173.468 173.467-.354.354zm6.743-6.753.353-.354L193.68 122.339l-.354.354zm6.75-6.746.353-.354L200.43 115.593l-.354.354zm6.757-6.763.353-.354 173.46 173.46-.353.354zm6.76-6.747.353-.353 173.468 173.468-.354.353zm6.75-6.745.353-.354 173.46 173.46-.353.354zm6.75-6.756.353-.354L227.446 88.583l-.354.353z"/><path fill="#96151f" d="M49.838 258.919 224.282 84.476l.353.353L50.192 259.273zm-2.807 21.824L233.234 94.54l.353.354L47.385 281.096zm9.387-14.994L230.86 91.305l.353.354L56.771 266.102zm-2.724 21.664L239.897 101.21l.353.354L54.048 287.766zm9.396-15.004L237.534 97.965l.353.354L63.444 272.762zm-2.73 21.681 186.202-186.203.354.354L60.714 294.443zm9.396-15.004L244.2 104.643l.354.353L70.11 279.44zm-26.699-26.954L217.5 77.689l.354.353L43.41 252.486zm-6.778-6.78L210.722 70.909l.353.353L36.632 245.706zm-6.779-6.78L203.944 64.129l.353.353L29.854 238.926zm-6.778-6.77L197.165 57.359l.354.353L23.075 232.156zm-6.782-6.773L190.385 50.586l.353.353L16.294 225.383zm-6.778-6.78L183.605 43.806l.354.353L9.516 218.603zm-16.29 2.733 183.961-183.96.354.353L-6.774 221.336zm2.741-16.3L170.056 30.239l.353.353L-4.034 205.036zm-6.779-6.78L163.277 23.459l.354.353-174.443 174.444zm-6.788-6.78L156.489 16.679l.354.353-174.444 174.444zm-6.771-6.763L149.718 9.916l.353.353-174.443 174.444zm-6.779-6.78L142.94 3.136l.354.353L-31.15 177.933zm-6.288-6.297L136.65-3.161l.354.353L-37.44 171.636zm-6.804-6.793L129.847-9.954l.354.353-174.443 174.444zm-6.919-6.917L122.928-16.871l.354.353-174.444 174.444zm-6.852-6.87L116.077-23.741l.353.353-174.443 174.444zm-6.608-6.61L109.47-30.351l.353.353L-64.62 144.446zm-6.741-6.74L102.727-37.091l.353.353-174.443 174.444zm-6.898-6.9L95.829-43.991l.353.353L-78.26 130.806zm-6.615-6.687L89.214-50.678l.354.354-174.443 174.443zm-6.952-6.873L82.262-57.551l.354.353-174.444 174.444zm-6.645-6.65L75.617-64.201l.354.353-174.443 174.444z"/><path fill="#96151f" d="m-97.572 67.262.353-.354 203.195 203.194-.354.354zm-3.913 3.315.353-.353 173.46 173.46-.353.354zm-2.675 3.277.354-.353L99.388 276.695l-.353.353zm-3.995 3.396.353-.353L65.666 250.364l-.354.354zm-2.667 3.27.353-.354L92.726 283.361l-.354.353zm-4.003 3.389.353-.354 173.46 173.46-.353.354zm-2.665 3.267.354-.354L86.058 290.016l-.353.354zm-3.995 3.406.353-.354L52.336 263.696l-.354.353zm-2.675 3.267.354-.354L79.388 296.689l-.353.354zm33.934-32.796.353-.353 203.195 203.194-.354.354zm7.356-6.208.354-.354 203.194 203.195-.354.353zm7.353-6.201.354-.354L128.03 251.484l-.354.354zm7.347-6.209.353-.353 203.194 203.194-.354.353zm7.345-6.208.354-.354 203.194 203.195-.353.353zm7.346-6.208.354-.354 203.194 203.194-.353.354zm7.354-6.202.353-.353 203.194 203.194-.353.353zm7.355-6.208.354-.354L164.78 220.45l-.354.353zm7.347-6.209.353-.353L172.125 214.24l-.354.354zm7.506-6.364.354-.354L179.63 207.877l-.354.353zm7.193-6.046.354-.353 203.194 203.194-.354.354zm7.346-6.208.354-.353L194.17 195.623l-.354.354zm7.353-6.201.354-.353 203.194 203.194-.353.353zm7.357-6.208.353-.354L208.88 183.213l-.353.354zm7.346-6.209.353-.353 203.194 203.194-.353.354zm7.352-6.201.354-.353L223.58 170.804l-.354.353zm7.347-6.208.353-.354 203.195 203.194-.354.354zm7.346-6.219.354-.353L238.27 158.377l-.354.354z"/><path fill="#96151f" d="m34.723-44.464.354-.353L238.27 158.377l-.354.354z"/></g><path fill="#fff" d="M159.5 7.52h126.17v201.67H159.5z"/><g clip-path="url(#b)" fill="#fff"><path d="M21.01-92.3H394.1v387.36H21.01z"/><path d="M313.76 159.07 137.6-22.19l.64-.66L314.4 158.41l-.64.66zm-6.13 6.31L131.46-15.87l.64-.67 176.17 181.26-.64.66zm-6.14 6.32L125.32-9.56l.65-.66 176.16 181.26-.64.66zm-6.14 6.31L119.19-3.25l.64-.66L296 177.35l-.65.66zm1.63 14.31L113.05 3.07l.64-.66 183.94 189.25-.65.66zm1.9 14.57L106.92 9.38l.64-.66 191.96 197.51-.64.66zm1.17 13.83L100.78 15.69l.64-.66 199.27 205.03-.64.66zm-6.14 6.32L94.64 22.01l.65-.66 199.26 205.03-.64.66zm-9.81 2.53L88.51 28.32l.64-.66 195.6 201.25-.65.66zm-6.13 6.31L82.37 34.63l.64-.66 195.6 201.25-.64.66zm-25.57-13.67L76.23 40.95l.65-.66 176.16 181.26-.64.66zm-6.14 6.31L70.1 47.26l.64-.66 176.17 181.26-.65.66zm-6.13 6.31L63.96 53.58l.65-.67 176.16 181.26-.64.66zm-6.14 6.32L57.83 59.89l.64-.66 176.16 181.26-.64.66zm-6.13 6.31L51.69 66.2l.64-.66L228.5 246.8l-.64.66zm-6.14 6.31L45.55 72.52l.65-.66 176.16 181.25-.64.66zm-6.14 6.32L39.42 78.83l.64-.66 176.17 181.26-.65.66zm-6.13 6.31L33.28 85.14l.64-.66 176.17 181.26-.64.66zm-6.14 6.31L27.15 91.46l.64-.66 176.16 181.25-.64.66zm-6.13 6.32L21.01 97.77l.64-.66 176.17 181.26-.64.66z"/><path d="m46.2 114.88-.65-.66L221.72-67.04l.64.66L46.2 114.88zm6.13 6.31-.64-.66L227.86-60.73l.64.66L52.33 121.19zm6.14 6.31-.64-.66L233.99-54.42l.64.67L58.47 127.5zm6.14 6.32-.65-.66L240.13-48.1l.64.66L64.61 133.82zm6.13 6.31-.64-.66L246.26-41.79l.65.66L70.74 140.13zm6.14 6.31-.65-.66L252.4-35.48l.64.67L76.88 146.44zm6.13 6.32-.64-.66L258.54-29.16l.64.66L83.01 152.76zm6.14 6.31-.64-.66L264.67-22.85l.64.66L89.15 159.07zm6.14 6.31-.65-.66L270.81-16.54l.64.67L95.29 165.38zm6.13 6.32-.64-.66L276.94-10.22l.65.66L101.42 171.7zm6.14 6.31-.64-.66L283.08-3.91l.64.66-176.16 181.26zm6.13 6.32-.64-.67L289.22 2.41l.64.66-176.17 181.26zm6.14 6.31-.64-.66L295.35 8.72l.65.66-176.17 181.26zm6.14 6.31-.65-.66L301.49 15.03l.64.66-176.16 181.26zm6.13 6.32-.64-.67L307.63 21.35l.64.66L132.1 203.27zm6.14 6.31-.64-.66L313.76 27.66l.64.66-176.16 181.26zm-84.68-87.33-.32-.33L222.47-52.21l.32.33L53.56 122.25zm6.13 6.31-.32-.33L228.61-45.9l.32.33L59.69 128.56zm6.14 6.31-.32-.33L234.75-39.59l.32.33L65.83 134.87zm6.14 6.32-.33-.33L240.88-33.27l.32.33L71.97 141.19zm6.13 6.31-.32-.33L247.02-26.96l.32.33L78.1 147.5zm6.14 6.31-.32-.33L253.16-20.65l.32.33L84.24 153.81zm6.14 6.32-.33-.33L259.29-14.33l.32.33L90.38 160.13zm6.13 6.31-.32-.33L265.43-8.02l.32.33L96.51 166.44zm6.14 6.31-.32-.32L271.56-1.71l.32.33-169.23 174.13zm6.13 6.32-.32-.33L277.7 4.61l.32.33-169.24 174.13zm5.92 6.08-.32-.33L283.61 10.69l.32.33L114.7 185.15zm6.36 6.55-.33-.33L289.97 17.23l.32.34L121.06 191.7zm6.13 6.31-.32-.33L296.11 23.55l.32.33-169.24 174.13zm6.14 6.31-.32-.33L302.24 29.86l.32.33-169.23 174.13z"/><path d="M235.14 239.35 77.48 77.14l.33-.33 157.65 162.21-.32.33zm6.14-6.31L83.62 70.82l.32-.33L241.6 232.71l-.32.33zm6.13-6.31L89.76 64.51l.32-.33L247.74 226.4l-.33.33zm6.14-6.32L95.89 58.2l.32-.33 157.66 162.21-.32.33zm25.57 13.68L102.03 51.88l.32-.33 177.09 182.21-.32.33zm6.13-6.31L108.17 45.57l.32-.33 177.08 182.21-.32.33zm9.81-2.54L114.3 39.26l.32-.34 180.76 185.99-.32.33zm6.14-6.31L120.44 32.94l.32-.33L301.52 218.6l-.32.33zm-1.33-14-173.3-178.3.32-.33 173.3 178.3-.32.33zm-9.5-22.4L132.71 20.32l.32-.34L290.69 182.2l-.32.33zm5.84-6.31L138.55 14l.32-.33 157.66 162.22-.32.33z"/><path d="m135.43 183.68-.32-.33L293.66 20.21l.32.33-158.55 163.14zm-5.71-5.88-.33-.33L287.94 14.33l.32.33L129.72 177.8zm-6.19-6.37-.32-.33L281.76 7.97l.32.33-158.55 163.13zm-6.28-6.46-.32-.33L275.48 1.51l.32.33-158.55 163.13zm-6.24-6.41-.32-.34L269.24-4.91l.32.33-158.55 163.14zm-6.01-6.19-.32-.33L263.23-11.09l.32.33L105 152.37zm-6.12-6.3-.32-.33L257.11-17.39l.32.33L98.88 146.07zm-6.27-6.45-.32-.34L250.84-23.85l.32.33L92.61 139.62zm-6.01-6.27-.32-.33L244.83-30.11l.32.33L86.6 133.35zm-6.31-6.41-.33-.33L238.51-36.53l.33.33L80.29 126.94zm-6.05-6.22-.32-.33L232.47-42.75l.32.33L74.24 120.72z"/><path d="M259.74 270.21 75.06 80.19l.32-.33 184.68 190.02-.32.33zm-30.58-24.7L71.5 83.29l.32-.33 157.66 162.22-.32.33zm24.59 30.85L69.08 86.35l.32-.33 184.67 190.01-.32.33zm-30.65-24.62L65.44 89.53l.32-.33 157.66 162.21-.32.33zm24.59 30.86L63.02 92.58l.32-.33 184.67 190.02-.32.33zm-30.65-24.62L59.38 95.76l.32-.33 157.66 162.22-.32.33zm24.59 30.85L56.96 98.82l.32-.33L241.96 288.5l-.33.33zm-30.65-24.62L53.32 102l.32-.33L211.3 263.88l-.32.33zm24.59 30.86L50.9 105.05l.32-.33L235.9 294.74l-.33.33zm30.85-30.67L81.74 74.39l.32-.33 184.68 190.01-.32.33zm6.68-5.8L88.42 68.58l.32-.33 184.68 190.02-.32.33zm6.68-5.81L95.1 62.78l.32-.33L280.1 252.46l-.32.33zm6.68-5.8L101.78 56.97l.32-.33 184.68 190.02-.32.33zm6.68-5.8L108.46 51.17l.32-.33 184.68 190.01-.32.34zm6.68-5.81L115.14 45.37l.32-.34 184.68 190.02-.32.33zm6.68-5.8L121.82 39.56l.32-.33 184.68 190.02-.32.33zm6.68-5.81L128.5 33.76l.32-.33L313.5 223.44l-.32.33zm6.68-5.8L135.18 27.95l.32-.33 184.68 190.02-.32.33z"/></g><g clip-path="url(#c)"><path fill="none" d="M16.77-102.06h373.09V285.3H16.77z"/><path fill="#96151f" d="M309.52 149.31 133.35-31.95l.65-.67 176.16 181.26-.64.67zm-6.14 6.31L127.22-25.64l.64-.66 176.17 181.26-.65.66zm-6.13 6.31L121.08-19.33l.64-.66 176.17 181.26-.64.66zm-6.14 6.32L114.95-13.01l.64-.66 176.16 181.26-.64.66zm1.63 14.3L108.81-6.7l.64-.66 183.93 189.25-.64.66zm1.89 14.58L102.67-.39l.65-.66 191.96 197.51-.65.67zm1.18 13.83L96.54 5.93l.64-.66L296.45 210.3l-.64.66zm-6.14 6.31L90.4 12.24l.64-.66 199.27 205.03-.64.66zm-9.81 2.54L84.27 18.55l.64-.66L280.5 219.15l-.64.66zm-6.13 6.31L78.13 24.87l.64-.66 195.6 201.25-.64.66zm-25.57-13.68L71.99 31.18l.65-.66L248.8 211.78l-.64.66zm-6.14 6.31L65.86 37.49l.64-.66 176.16 181.26-.64.66zm-6.13 6.32L59.72 43.81l.64-.66 176.17 181.26-.64.66zm-6.14 6.31L53.59 50.12l.64-.66 176.16 181.26-.64.66zm-6.14 6.31L47.45 56.44l.64-.67 176.17 181.26-.65.66zm-6.13 6.32L41.31 62.75l.64-.66 176.17 181.26-.64.66zm-6.14 6.31L35.18 69.06l.64-.66 176.17 181.26-.65.66zm-6.13 6.31L29.04 75.38l.64-.66 176.17 181.25-.64.66zm-6.14 6.32L22.9 81.69l.65-.66 176.16 181.26-.64.66zm-6.14 6.31L16.77 88l.64-.66L193.58 268.6l-.65.66z"/><path fill="#96151f" d="m41.95 105.11-.64-.66L217.48-76.81l.64.66L41.95 105.11zm6.14 6.31-.64-.66L223.61-70.5l.65.67L48.09 111.42zm6.14 6.32-.64-.66L229.75-64.18l.64.66L54.23 117.74zm6.13 6.31-.64-.66L235.89-57.87l.64.66L60.36 124.05zm6.14 6.32-.64-.67L242.02-51.55l.64.66L66.5 130.37zm6.14 6.31-.65-.66L248.16-45.24l.64.66L72.64 136.68zm6.13 6.31-.64-.66L254.29-38.93l.65.66L78.77 142.99zm6.14 6.32-.64-.67L260.43-32.62l.64.67L84.91 149.31zm6.13 6.31-.64-.66L266.57-26.3l.64.66L91.04 155.62zm6.14 6.31-.64-.66L272.7-19.99l.65.66L97.18 161.93zm6.14 6.32-.65-.66L278.84-13.67l.64.66-176.16 181.26zm6.13 6.31-.64-.66L284.98-7.36l.64.66-176.17 181.26zm6.14 6.31-.64-.66L291.11-1.05l.64.66-176.16 181.26zm6.13 6.32-.64-.66L297.25 5.27l.64.66-176.17 181.26zm6.14 6.31-.64-.66L303.38 11.58l.65.66L127.86 193.5zm6.14 6.31-.65-.66L309.52 17.89l.64.66L134 199.81zm-84.68-87.33-.33-.33L218.23-61.98l.32.33L49.32 112.48zm6.13 6.31-.32-.33L224.37-55.67l.32.33L55.45 118.79zm6.14 6.32-.32-.33L230.5-49.35l.33.33L61.59 125.11zm6.13 6.31-.32-.33L236.64-43.04l.32.33L67.72 131.42zm6.14 6.32-.32-.34L242.78-36.73l.32.33L73.86 137.74zm6.14 6.31-.33-.33L248.91-30.41l.33.33L80 144.05zm6.13 6.31-.32-.33L255.05-24.1l.32.33L86.13 150.36zm6.14 6.32-.32-.34L261.19-17.79l.32.34L92.27 156.68zm6.14 6.31-.33-.33L267.32-11.47l.32.33L98.41 162.99zm6.13 6.31-.32-.33L273.46-5.16l.32.33L104.54 169.3zm5.91 6.09-.32-.33L279.37.93l.32.33-169.24 174.13zm6.36 6.54-.32-.33L285.73 7.47l.32.33-169.24 174.13zm6.14 6.31-.32-.33L291.87 13.78l.32.33-169.24 174.13zm6.14 6.32-.33-.33L298 20.09l.32.34-169.23 174.13zm6.13 6.31-.32-.33L304.14 26.41l.32.33-169.24 174.13z"/><path fill="#96151f" d="M230.9 229.59 73.24 67.37l.32-.33 157.66 162.22-.32.33zm6.14-6.32L79.38 61.06l.32-.33 157.66 162.21-.32.33zm6.13-6.31L85.52 54.74l.32-.33 157.65 162.22-.32.33zm6.14-6.31L91.65 48.43l.32-.33 157.66 162.21-.32.34zm25.57 13.67L97.79 42.12l.32-.34L275.2 223.99l-.32.33zm6.13-6.31L103.92 35.8l.32-.33 177.09 182.21-.32.33zm9.81-2.53L110.06 29.49l.32-.33 180.76 185.99-.32.33zm6.14-6.32L116.2 23.18l.32-.34 180.76 185.99-.32.33zm-1.33-13.99L122.33 16.86l.32-.33 173.3 178.31-.32.33zm-9.5-22.41L128.47 10.55l.32-.33 157.66 162.21-.32.33zm5.83-6.31L134.31 4.24l.32-.34 157.66 162.22-.33.33z"/><path fill="#96151f" d="m137.35 180.25-.32-.33L295.58 16.79l.32.33-158.55 163.13zm-6.16-6.34-.32-.33L289.42 10.45l.32.33-158.55 163.13zm-5.72-5.88-.32-.33L283.7 4.57l.32.33-158.55 163.13zm-6.18-6.36-.32-.33L277.52-1.8l.32.33-158.55 163.14zm-6.28-6.46-.32-.33L271.24-8.26l.32.33-158.55 163.14zm-6.24-6.42-.32-.33L265-14.68l.32.33-158.55 163.14zm-6.01-6.19-.32-.32L258.99-20.86l.32.33L100.76 142.6zm-6.12-6.29-.32-.34L252.87-27.16l.32.33L94.64 136.31zm-6.27-6.46-.33-.33L246.59-33.61l.32.33L88.37 129.85zm-6.01-6.26-.33-.33L240.59-39.88l.32.33L82.36 123.59zm-6.32-6.42-.32-.33L234.27-46.29l.32.33L76.04 117.17zM70 110.95l-.32-.33L228.22-52.51l.33.33L70 110.95z"/><path fill="#96151f" d="M255.5 260.44 70.82 70.42l.32-.33 184.68 190.02-.32.33zm-30.58-24.7L67.26 73.53l.32-.33 157.66 162.21-.32.33zm24.59 30.86L64.83 76.58l.33-.33 184.67 190.02-.32.33zm-30.65-24.62L61.2 79.76l.32-.33 157.66 162.22-.32.33zm24.59 30.85L58.78 82.82l.32-.34L243.77 272.5l-.32.33zm-30.65-24.62L55.14 86l.32-.33 157.66 162.21-.32.33zm24.59 30.86L52.72 89.05l.32-.33 184.67 190.02-.32.33zm-30.65-24.62L49.08 92.23l.32-.33 157.66 162.22-.32.33zm24.59 30.85L46.66 95.28l.32-.33 184.68 190.02-.33.33zm30.85-30.66L77.5 64.62l.32-.33L262.5 254.31l-.32.33zm6.68-5.81L84.18 58.82l.32-.34L269.18 248.5l-.32.33zm6.68-5.8L90.86 53.01l.32-.33L275.86 242.7l-.32.33zm6.68-5.81L97.54 47.21l.32-.33 184.68 190.01-.32.33zm6.68-5.8L104.22 41.4l.32-.33 184.68 190.02-.32.33zm6.68-5.8L110.9 35.6l.32-.33L295.9 225.28l-.32.34zm6.68-5.81L117.58 29.8l.32-.34 184.68 190.02-.32.33zm6.68-5.8L124.26 23.99l.32-.33 184.68 190.02-.32.33zm6.68-5.81L130.94 18.19l.32-.33 184.68 190.01-.32.33zm6.83-5.95L137.77 12.23l.32-.33 184.68 190.01-.32.34z"/></g></svg>