<svg xmlns="http://www.w3.org/2000/svg" viewBox="0 0 250 210"><path fill="#fff" d="M0 0h250v210H0z"/><path d="M145.64 94.4c9.73.17 22.54 7.43 27.1 18.66-4.56 11.23-17.37 18.48-27.1 18.66-10.89.19-19.67-8.47-19.67-18.66s8.78-18.85 19.67-18.66zm57.15 0c-9.73.17-22.53 7.43-27.09 18.66 4.56 11.23 17.36 18.48 27.09 18.66 10.89.19 19.67-8.47 19.67-18.66s-8.78-18.85-19.67-18.66zm-47.23-17.16c.17 9.73 7.43 22.53 18.66 27.09 11.23-4.56 18.48-17.33 18.65-27.09.2-10.89-8.46-19.67-18.65-19.67s-18.85 8.78-18.66 19.67zm1.27 75.19h34.77l-17.38-18.11-17.39 18.11zm-95.23-2.71-7-4.52 23-34.86a28 28 0 0 1-8.69 1.52 23.08 23.08 0 0 1-17.23-7.32 24.94 24.94 0 0 1-7.07-18 26.06 26.06 0 0 1 3.41-13.26 25.24 25.24 0 0 1 9.7-9.44 27.07 27.07 0 0 1 13.46-3.53 25.85 25.85 0 0 1 13.08 3.39 24.41 24.41 0 0 1 9.41 9.55 26.55 26.55 0 0 1 3.41 13.08 32 32 0 0 1-2.11 11 68.82 68.82 0 0 1-7.55 13.86zm9.3-45.33a17.84 17.84 0 0 0 17.91-17.88 17.89 17.89 0 0 0-18-17.89A17.89 17.89 0 0 0 53 86.51a17.91 17.91 0 0 0 17.9 17.88z"/></svg>