<svg xmlns="http://www.w3.org/2000/svg" viewBox="0 0 250 210"><path fill="#fff" d="M0 0h250v210H0z"/><path d="M145.64 94.4c9.73.17 22.54 7.43 27.1 18.66-4.56 11.23-17.37 18.48-27.1 18.66-10.89.19-19.67-8.47-19.67-18.66s8.78-18.85 19.67-18.66zm57.15 0c-9.73.17-22.53 7.43-27.09 18.66 4.56 11.23 17.36 18.48 27.09 18.66 10.89.19 19.67-8.47 19.67-18.66s-8.78-18.85-19.67-18.66zm-47.23-17.16c.17 9.73 7.43 22.53 18.66 27.09 11.23-4.56 18.48-17.33 18.65-27.09.2-10.89-8.46-19.67-18.65-19.67s-18.85 8.78-18.66 19.67zm1.27 75.19h34.77l-17.38-18.11-17.39 18.11zM83.6 100.86q8.63 4.29 12.35 9.78a21.76 21.76 0 0 1 3.74 12.51 25.9 25.9 0 0 1-6.43 17.36q-7.87 9.21-22.52 9.21-14.11 0-21.41-8.08T42 123.84A22.57 22.57 0 0 1 45.85 111q3.82-5.7 12.74-10.16a23.94 23.94 0 0 1-9.38-8 18.56 18.56 0 0 1-3.13-10.3 20.15 20.15 0 0 1 3.33-10.85 23.26 23.26 0 0 1 9.21-8.34 27.29 27.29 0 0 1 12.7-3 25.56 25.56 0 0 1 12.33 3.07 22.91 22.91 0 0 1 8.89 8.34 20.9 20.9 0 0 1 3.21 11 18 18 0 0 1-3 10.31 25.06 25.06 0 0 1-9.15 7.79zm-12.31 4.28a20.51 20.51 0 0 0-14.74 5.71 17.88 17.88 0 0 0-5.95 13.28 17.12 17.12 0 0 0 9.66 15.28 23.49 23.49 0 0 0 10.57 2.26q9.3 0 14.8-5.5a17.61 17.61 0 0 0 5.49-12.85q0-7.12-5.81-12.65a19.65 19.65 0 0 0-14.02-5.53zm-.4-36.58a16.75 16.75 0 0 0-11.63 4.14 12.85 12.85 0 0 0-4.61 9.87q0 5.67 5 10.27a16.46 16.46 0 0 0 11.57 4.61 16.25 16.25 0 0 0 8-2.09 15.3 15.3 0 0 0 5.89-5.7 14.25 14.25 0 0 0 2.11-7.26A13.44 13.44 0 0 0 83 72.9q-4.16-4.33-12.11-4.34z"/></svg>