<svg xmlns="http://www.w3.org/2000/svg" viewBox="0 0 250 210"><path fill="#fff" d="M0 0h250v210H0z"/><path d="M137.81 94.4c9.74.17 22.54 7.43 27.1 18.66-4.56 11.23-17.36 18.48-27.1 18.66-10.89.19-19.66-8.47-19.66-18.66s8.77-18.85 19.66-18.66zm57.19 0c-9.74.17-22.54 7.43-27.1 18.66 4.56 11.23 17.36 18.48 27.1 18.66 10.88.19 19.66-8.47 19.66-18.66S205.85 94.21 195 94.4zm-47.27-17.16c.17 9.73 7.43 22.53 18.66 27.09 11.23-4.56 18.48-17.36 18.66-27.09.19-10.89-8.47-19.67-18.66-19.67s-18.85 8.78-18.66 19.67zm1.27 75.19h34.77l-17.38-18.11L149 152.43zM35.37 60.28H90.7L44 149.72 36.8 146l40.28-77.41H35.37z"/></svg>