<svg xmlns="http://www.w3.org/2000/svg" viewBox="0 0 250 210"><path fill="#fff" d="M0 0h250v210H0z"/><path d="M138.88 94.4c9.73.17 22.53 7.43 27.09 18.66-4.56 11.23-17.36 18.48-27.09 18.66-10.89.19-19.67-8.47-19.67-18.66S128 94.21 138.88 94.4zm57.12 0c-9.73.17-22.54 7.43-27.1 18.66 4.56 11.23 17.37 18.48 27.1 18.66 10.89.19 19.67-8.47 19.67-18.66S206.92 94.21 196 94.4zm-47.21-17.16c.18 9.73 7.43 22.53 18.66 27.09 11.23-4.56 18.49-17.36 18.66-27.09.19-10.89-8.47-19.67-18.66-19.67s-18.85 8.78-18.66 19.67zm1.28 75.19h34.77l-17.39-18.11-17.38 18.11zM44.8 89.67h-8.41q.36-13 8.68-21.31A27.91 27.91 0 0 1 65.62 60q12.1 0 19.59 7.82a25.75 25.75 0 0 1 7.48 18.43 28.64 28.64 0 0 1-3.57 14q-3.55 6.56-13.86 17.75l-21.85 23.5h40.48v8.5H34.3l33.52-36.22Q78 102.82 81.09 97.54a21.79 21.79 0 0 0 3.08-11.13 17.16 17.16 0 0 0-5.52-12.75 18.69 18.69 0 0 0-13.51-5.34 18.92 18.92 0 0 0-14 5.61q-5.57 5.59-6.34 15.74z"/></svg>