<svg xmlns="http://www.w3.org/2000/svg" viewBox="0 0 250 210"><path fill="#fff" d="M0 0h250v210H0z"/><path d="M139.31 94.4c9.73.17 22.54 7.43 27.09 18.66-4.55 11.23-17.36 18.48-27.09 18.66-10.89.19-19.67-8.47-19.67-18.66s8.78-18.85 19.67-18.66zm57.15 0c-9.73.17-22.54 7.43-27.09 18.66 4.55 11.23 17.36 18.48 27.09 18.66 10.89.19 19.67-8.47 19.67-18.66s-8.78-18.85-19.67-18.66zm-47.23-17.16c.17 9.73 7.42 22.53 18.65 27.09 11.24-4.56 18.49-17.36 18.66-27.09.19-10.89-8.46-19.67-18.66-19.67S149 66.35 149.23 77.24zm1.27 75.19h34.77l-17.39-18.11-17.38 18.11zM82.79 60h1.78v61.19h10.62v8.35H84.57V150h-8.71v-20.4h-42zm-6.93 61.19V84.37l-26 36.85z"/></svg>