<svg xmlns="http://www.w3.org/2000/svg" viewBox="0 0 250 210"><path fill="#fff" d="M0 0h250v210H0z"/><path d="M145.64 94.4c9.73.17 22.54 7.43 27.1 18.66-4.56 11.23-17.37 18.48-27.1 18.66-10.89.19-19.67-8.47-19.67-18.66s8.78-18.85 19.67-18.66zm57.15 0c-9.73.17-22.53 7.43-27.09 18.66 4.56 11.23 17.36 18.48 27.09 18.66 10.89.19 19.67-8.47 19.67-18.66s-8.78-18.85-19.67-18.66zm-47.23-17.16c.17 9.73 7.43 22.53 18.66 27.09 11.23-4.56 18.48-17.33 18.65-27.09.2-10.89-8.46-19.67-18.65-19.67s-18.85 8.78-18.66 19.67zm1.27 75.19h34.77l-17.38-18.11-17.39 18.11zm-57.29-17.9 12 15.19h-10l-8.25-10.48A41.66 41.66 0 0 1 71 145.37q-18 0-30.36-12.34a40.59 40.59 0 0 1-12.38-29.85 43.21 43.21 0 0 1 5.67-21.67A40.84 40.84 0 0 1 49.35 65.9a42.24 42.24 0 0 1 21.43-5.62q18 0 30.35 12.31t12.35 30.26A42.38 42.38 0 0 1 110.1 120a44.88 44.88 0 0 1-10.56 14.53zm-5-6.34a34 34 0 0 0 10.58-25.41 34.35 34.35 0 0 0-4.48-17.45A33.59 33.59 0 0 0 88 72.85a33.84 33.84 0 0 0-34.31 0 33.52 33.52 0 0 0-12.57 12.58 35.34 35.34 0 0 0-4.51 17.73 34 34 0 0 0 34 34.33 34.18 34.18 0 0 0 17.63-4.69l-18-22.9h9.83z"/></svg>