<svg xmlns="http://www.w3.org/2000/svg" viewBox="0 0 250 210"><path fill="#fff" d="M0 0h250v210H0z"/><path d="M138.32 94.4c9.74.17 22.54 7.43 27.1 18.66-4.56 11.23-17.36 18.48-27.1 18.66-10.88.19-19.66-8.47-19.66-18.66s8.78-18.85 19.66-18.66zm57.16 0c-9.74.17-22.54 7.43-27.1 18.66 4.56 11.23 17.36 18.48 27.1 18.66 10.89.19 19.66-8.47 19.66-18.66s-8.77-18.85-19.66-18.66zm-47.24-17.16c.18 9.73 7.43 22.53 18.66 27.09 11.23-4.56 18.49-17.36 18.66-27.09.19-10.89-8.47-19.67-18.66-19.67s-18.85 8.78-18.66 19.67zm1.28 75.19h34.76l-17.38-18.11-17.38 18.11zM90 60v8.35H58.79L54.4 92.31a36.65 36.65 0 0 1 10.31-1.68q12 0 19.75 8t7.77 20.55a32.23 32.23 0 0 1-4 15.86A27.92 27.92 0 0 1 77.4 146.1a31.52 31.52 0 0 1-15.76 3.9 26.15 26.15 0 0 1-18-6.53 26.7 26.7 0 0 1-8.76-16.91h9a19.84 19.84 0 0 0 3.43 8.23 17.44 17.44 0 0 0 6.44 5.1 19.28 19.28 0 0 0 8.44 1.94A19.71 19.71 0 0 0 77 135.25a22.89 22.89 0 0 0 6.21-16.38q0-8.88-5.61-14.42t-15-5.53q-7.76 0-18.79 4.71L52 60z"/></svg>