<svg xmlns="http://www.w3.org/2000/svg" viewBox="0 0 250 210"><path fill="#fff" d="M0 0h250v210H0z"/><path d="M137.18 94.4c9.73.17 22.54 7.43 27.1 18.66-4.56 11.23-17.37 18.48-27.1 18.66-10.89.19-19.67-8.47-19.67-18.66s8.78-18.85 19.67-18.66zm57.15 0c-9.73.17-22.53 7.43-27.09 18.66 4.56 11.23 17.36 18.48 27.09 18.66 10.89.19 19.67-8.47 19.67-18.66s-8.78-18.85-19.67-18.66zM147.1 77.24c.17 9.73 7.43 22.53 18.66 27.09C177 99.77 184.24 87 184.41 77.24c.2-10.89-8.46-19.67-18.65-19.67s-18.85 8.78-18.66 19.67zm1.27 75.19h34.77l-17.38-18.11-17.39 18.11zM71.74 60l7.05 4.6-23.16 35a27.55 27.55 0 0 1 8.74-1.57 23.19 23.19 0 0 1 17.32 7.37 25.1 25.1 0 0 1 7.11 18.2 26.29 26.29 0 0 1-3.43 13.4 25.17 25.17 0 0 1-9.76 9.49A27.6 27.6 0 0 1 62 150a26.22 26.22 0 0 1-13.09-3.4 24.57 24.57 0 0 1-9.48-9.6A26.74 26.74 0 0 1 36 123.77a32.17 32.17 0 0 1 2.12-11 69.19 69.19 0 0 1 7.62-13.97zm-9.4 45.58a18 18 0 0 0-12.74 30.8 18 18 0 0 0 25.48 0 18 18 0 0 0-12.74-30.77z"/></svg>