<svg xmlns="http://www.w3.org/2000/svg" viewBox="0 0 250 210"><path fill="#fff" d="M0 0h250v210H0z"/><path d="M150.4 94.4c9.74.17 22.54 7.43 27.1 18.66-4.56 11.23-17.36 18.48-27.1 18.66-10.88.19-19.66-8.47-19.66-18.66s8.78-18.85 19.66-18.66zm57.16 0c-9.74.17-22.54 7.43-27.1 18.66 4.56 11.23 17.36 18.48 27.1 18.66 10.89.19 19.66-8.47 19.66-18.66s-8.77-18.85-19.66-18.66zm-47.24-17.16c.18 9.73 7.43 22.53 18.66 27.09 11.23-4.56 18.49-17.36 18.66-27.09.19-10.89-8.47-19.67-18.66-19.67s-18.85 8.78-18.66 19.67zm1.28 75.19h34.77l-17.39-18.11-17.38 18.11zM28.13 60.28H45.7v89.44h-8.88V69h-14zM61.43 105q0-16.84 3.8-26T76 65a26.78 26.78 0 0 1 15.51-4.75 27.4 27.4 0 0 1 15.74 4.78q7 4.77 11.16 14.33t4.1 25.64q0 16-4 25.53t-11.16 14.32a27.44 27.44 0 0 1-15.8 4.84A26.82 26.82 0 0 1 76 145q-6.87-4.69-10.73-14t-3.84-26zm8.45.14q0 14.43 2.71 21.82a23.14 23.14 0 0 0 8 11.2 18.35 18.35 0 0 0 22.32.09q5.16-3.74 7.84-11.21 3.35-9.09 3.34-21.9t-3-21q-3-8.2-8.23-12a18.24 18.24 0 0 0-22.29 0 23.3 23.3 0 0 0-8 11.17q-2.69 7.39-2.69 21.86z"/></svg>