<svg xmlns="http://www.w3.org/2000/svg" viewBox="0 0 250 210"><path fill="#fff" d="M0 0h250v210H0z"/><path d="M138.3 94.4c9.73.17 22.54 7.43 27.1 18.66-4.56 11.23-17.37 18.48-27.1 18.66-10.89.19-19.67-8.47-19.67-18.66s8.78-18.85 19.67-18.66zm57.15 0c-9.73.17-22.53 7.43-27.09 18.66 4.56 11.23 17.36 18.48 27.09 18.66 10.89.19 19.67-8.47 19.67-18.66s-8.78-18.85-19.67-18.66zm-47.23-17.16c.17 9.73 7.43 22.53 18.66 27.09 11.23-4.56 18.48-17.36 18.65-27.09.2-10.89-8.46-19.67-18.65-19.67S148 66.35 148.22 77.24zm1.27 75.19h34.77l-17.38-18.11-17.39 18.11zM46.46 82h-8.73q2.39-10.59 9.14-16.3a23.94 23.94 0 0 1 16-5.7 26.43 26.43 0 0 1 12.49 3 22.63 22.63 0 0 1 9 8.24 20.43 20.43 0 0 1 3.18 10.83q0 11.05-11 17.52A24.89 24.89 0 0 1 86.57 107a23.4 23.4 0 0 1 5.59 15.25 27.26 27.26 0 0 1-3.84 13.89 26.58 26.58 0 0 1-10.48 10.21A30.49 30.49 0 0 1 63 150q-11.07 0-18.46-6.37t-9.66-18.72h8.38q2.22 8.33 6.35 12.05 5.3 4.71 13.5 4.72 9.31 0 15-5.59A17.83 17.83 0 0 0 83.72 123a17 17 0 0 0-2.82-9.37 17.77 17.77 0 0 0-7.57-6.63q-4.74-2.22-14.7-2.74v-7.85a27.09 27.09 0 0 0 10.71-2.06 15.72 15.72 0 0 0 7-5.27 12.21 12.21 0 0 0 2.18-7 12.68 12.68 0 0 0-4.45-9.66 16 16 0 0 0-11.27-4.08 15.08 15.08 0 0 0-9.54 3.12c-2.66 2.08-4.93 5.61-6.8 10.54z"/></svg>