<svg xmlns="http://www.w3.org/2000/svg" viewBox="0 0 250 210"><path fill="#fff" d="M0 0h250v210H0z"/><path d="M145.64 94.4c9.73.17 22.54 7.43 27.1 18.66-4.56 11.23-17.37 18.48-27.1 18.66-10.89.19-19.67-8.47-19.67-18.66s8.78-18.85 19.67-18.66zm57.15 0c-9.73.17-22.53 7.43-27.09 18.66 4.56 11.23 17.36 18.48 27.09 18.66 10.89.19 19.67-8.47 19.67-18.66s-8.78-18.85-19.67-18.66zm-47.23-17.16c.17 9.73 7.43 22.53 18.66 27.09 11.23-4.56 18.48-17.33 18.65-27.09.2-10.89-8.46-19.67-18.65-19.67s-18.85 8.78-18.66 19.67zm1.27 75.19h34.77l-17.38-18.11-17.39 18.11zM40.75 60.28h9.12v33.56l35.75-33.56h12l-43 40.13L101 149.72H89.06l-39.19-41.66v41.66h-9.12z"/></svg>