<svg xmlns="http://www.w3.org/2000/svg" viewBox="0 0 250 210"><path fill="#fff" d="M0 0h250v210H0z"/><path d="M142.64 94.4c9.73.17 22.54 7.43 27.1 18.66-4.56 11.23-17.37 18.48-27.1 18.66-10.89.19-19.67-8.47-19.67-18.66s8.78-18.85 19.67-18.66zm57.15 0c-9.73.17-22.53 7.43-27.09 18.66 4.56 11.23 17.36 18.48 27.09 18.66 10.89.19 19.67-8.47 19.67-18.66s-8.78-18.85-19.67-18.66zm-47.23-17.16c.17 9.73 7.43 22.53 18.66 27.09 11.23-4.56 18.48-17.33 18.65-27.09.2-10.89-8.46-19.67-18.65-19.67s-18.85 8.78-18.66 19.67zm1.27 75.19h34.77l-17.38-18.11-17.39 18.11zM74.55 60.28h8.72v58.89q0 13.59-2.11 18.89a17.56 17.56 0 0 1-7 8.48 21.51 21.51 0 0 1-11.92 3.18 27.77 27.77 0 0 1-10.41-2.05 44 44 0 0 1-11.36-7.2l4.63-6.94a69 69 0 0 0 11.34 6.76 14.48 14.48 0 0 0 5.83 1.3 11.25 11.25 0 0 0 6.81-2.25 11.81 11.81 0 0 0 4.28-6q1.22-3.73 1.21-14.47z"/></svg>