<svg xmlns="http://www.w3.org/2000/svg" viewBox="0 0 250 210"><path fill="#fff" d="M0 0h250v210H0z"/><path d="M50 89.67h-8.43q.36-13 8.68-21.31A27.92 27.92 0 0 1 70.8 60q12.11 0 19.59 7.82a25.76 25.76 0 0 1 7.49 18.43 28.75 28.75 0 0 1-3.57 14q-3.57 6.56-13.86 17.75l-21.86 23.5h40.48v8.5H39.49L73 113.75q10.22-10.94 13.27-16.21a21.79 21.79 0 0 0 3.08-11.13 17.13 17.13 0 0 0-5.52-12.75 18.69 18.69 0 0 0-13.51-5.34 18.92 18.92 0 0 0-14 5.61Q50.77 79.52 50 89.67zm122.63-32.1 2.17 5a97.92 97.92 0 0 0 34.37 41.55l1.34.92-1.34.92a97.92 97.92 0 0 0-34.37 41.55l-2.17 5-2.16-5a97.92 97.92 0 0 0-34.37-41.55l-1.34-.92 1.34-.92a97.92 97.92 0 0 0 34.37-41.55z" fill="#d90000"/></svg>