<svg xmlns="http://www.w3.org/2000/svg" viewBox="0 0 250 210"><path fill="#fff" d="M0 0h250v210H0z"/><path d="m76.93 60 7 4.6-23.16 35a27.65 27.65 0 0 1 8.74-1.57 23.18 23.18 0 0 1 17.32 7.37A25.06 25.06 0 0 1 94 123.6a26.29 26.29 0 0 1-3.45 13.4 25.17 25.17 0 0 1-9.76 9.49A27.53 27.53 0 0 1 67.18 150a26.16 26.16 0 0 1-13.09-3.4 24.5 24.5 0 0 1-9.47-9.6 26.75 26.75 0 0 1-3.44-13.22 32 32 0 0 1 2.13-11 69.07 69.07 0 0 1 7.61-13.98zm-9.41 45.58a18 18 0 0 0-12.73 30.77 18 18 0 0 0 25.47 0 18 18 0 0 0-12.74-30.77zm103.42-48.01 2.17 5a97.83 97.83 0 0 0 34.36 41.55l1.35.92-1.35.92a97.83 97.83 0 0 0-34.36 41.55l-2.17 5-2.17-5a97.83 97.83 0 0 0-34.36-41.55l-1.35-.92 1.35-.92a97.83 97.83 0 0 0 34.36-41.55z" fill="#d90000"/></svg>