<svg xmlns="http://www.w3.org/2000/svg" viewBox="0 0 250 210"><path fill="#fff" d="M0 0h250v210H0z"/><path d="M33.31 60.28h17.57v89.44H42V69H28zM66.61 105q0-16.84 3.8-26t10.73-14a26.81 26.81 0 0 1 15.51-4.75 27.4 27.4 0 0 1 15.74 4.78q7.06 4.77 11.16 14.33t4.11 25.64q0 16-4 25.53t-11.15 14.32a27.49 27.49 0 0 1-15.81 4.84A26.79 26.79 0 0 1 81.21 145q-6.87-4.69-10.74-14t-3.86-26zm8.45.14q0 14.43 2.71 21.82a23.09 23.09 0 0 0 8 11.2 18.33 18.33 0 0 0 22.31.09q5.16-3.74 7.84-11.21 3.35-9.09 3.35-21.9t-3-21q-3-8.2-8.24-12a18.23 18.23 0 0 0-22.28 0 23.25 23.25 0 0 0-8 11.17q-2.68 7.39-2.69 21.86zm109.1-47.57 2.17 5a97.85 97.85 0 0 0 34.37 41.55l1.3.88-1.34.92a97.85 97.85 0 0 0-34.37 41.55l-2.17 5-2.16-5a97.92 97.92 0 0 0-34.37-41.55l-1.34-.92 1.34-.92A97.92 97.92 0 0 0 182 62.53z" fill="#d90000"/></svg>