<svg xmlns="http://www.w3.org/2000/svg" viewBox="0 0 250 210"><path fill="#fff" d="M0 0h250v210H0z"/><path d="m58.23 149.72-7-4.52 23-34.86a28.09 28.09 0 0 1-8.7 1.52 23.08 23.08 0 0 1-17.23-7.32 25 25 0 0 1-7.07-18 26 26 0 0 1 3.42-13.26 25.21 25.21 0 0 1 9.69-9.44 27.09 27.09 0 0 1 13.46-3.53 25.85 25.85 0 0 1 13 3.42 24.41 24.41 0 0 1 9.41 9.55 26.45 26.45 0 0 1 3.42 13.08 32 32 0 0 1-2.12 11 67.82 67.82 0 0 1-7.55 13.86zm9.3-45.33a17.84 17.84 0 0 0 17.91-17.88 17.89 17.89 0 0 0-18-17.89 17.89 17.89 0 0 0-17.83 17.89 17.91 17.91 0 0 0 17.92 17.88zm103.32-46.82 2.17 5a97.83 97.83 0 0 0 34.36 41.55l1.35.92-1.35.92A97.83 97.83 0 0 0 173 147.47l-2.17 5-2.17-5a97.83 97.83 0 0 0-34.36-41.55L133 105l1.35-.92a97.83 97.83 0 0 0 34.36-41.55z" fill="#d90000"/></svg>