<svg xmlns="http://www.w3.org/2000/svg" viewBox="0 0 250 210"><path fill="#fff" d="M0 0h250v210H0z"/><path d="M74.78 60.28h8.72v58.89q0 13.59-2.11 18.89a17.52 17.52 0 0 1-7 8.48 21.48 21.48 0 0 1-11.92 3.18A27.72 27.72 0 0 1 52 147.67a43.82 43.82 0 0 1-11.36-7.2l4.62-6.94a69.42 69.42 0 0 0 11.35 6.76 14.47 14.47 0 0 0 5.82 1.3 11.22 11.22 0 0 0 6.81-2.25 11.76 11.76 0 0 0 4.28-6q1.22-3.73 1.22-14.47zm96.66-2.71 2.17 5A97.85 97.85 0 0 0 208 104.08l1.34.92-1.34.92a97.85 97.85 0 0 0-34.37 41.55l-2.17 5-2.16-5a97.92 97.92 0 0 0-34.37-41.55l-1.34-.92 1.34-.92a97.92 97.92 0 0 0 34.37-41.55z" fill="#d90000"/></svg>