<svg xmlns="http://www.w3.org/2000/svg" viewBox="0 0 250 210"><path d="M95.15 60v8.35H64l-4.4 23.93a36.65 36.65 0 0 1 10.31-1.68q12 0 19.75 8t7.78 20.55a32.24 32.24 0 0 1-4 15.86 27.79 27.79 0 0 1-10.83 11.06A31.52 31.52 0 0 1 66.82 150a26.12 26.12 0 0 1-18-6.53A26.71 26.71 0 0 1 40 126.53h9a19.84 19.84 0 0 0 3.43 8.23 17.39 17.39 0 0 0 6.45 5.1 19.22 19.22 0 0 0 8.44 1.94 19.74 19.74 0 0 0 14.85-6.55 22.92 22.92 0 0 0 6.2-16.38q0-8.88-5.61-14.42t-15-5.53q-7.76 0-18.79 4.71L57.16 60zm76.93-2.43 2.17 5a97.85 97.85 0 0 0 34.37 41.55l1.38.88-1.34.92a97.85 97.85 0 0 0-34.37 41.55l-2.17 5-2.16-5a97.92 97.92 0 0 0-34.37-41.55l-1.34-.92 1.34-.92a97.92 97.92 0 0 0 34.37-41.55z" fill="#d90000"/></svg>