<svg xmlns="http://www.w3.org/2000/svg" viewBox="0 0 250 210"><path fill="#fff" d="M0 0h250v210H0z"/><path d="M51.65 82h-8.74q2.4-10.59 9.14-16.3A24 24 0 0 1 68 60a26.42 26.42 0 0 1 12.48 3 22.73 22.73 0 0 1 9 8.24 20.51 20.51 0 0 1 3.17 10.83q0 11.05-11 17.52A25 25 0 0 1 91.76 107a23.46 23.46 0 0 1 5.59 15.25 27.27 27.27 0 0 1-3.85 13.89A26.58 26.58 0 0 1 83 146.36 30.49 30.49 0 0 1 68.18 150q-11.06 0-18.45-6.37t-9.67-18.72h8.38q2.22 8.33 6.35 12.05 5.3 4.71 13.51 4.72 9.32 0 15-5.59A17.86 17.86 0 0 0 88.9 123a17 17 0 0 0-2.82-9.37 17.71 17.71 0 0 0-7.57-6.63q-4.74-2.22-14.7-2.74v-7.85a27.17 27.17 0 0 0 10.72-2.06 15.68 15.68 0 0 0 7-5.27 12.14 12.14 0 0 0 2.18-7 12.68 12.68 0 0 0-4.45-9.66A16 16 0 0 0 68 68.35a15.11 15.11 0 0 0-9.55 3.12c-2.67 2.07-4.94 5.6-6.8 10.53zm120.41-24.43 2.17 5a97.83 97.83 0 0 0 34.36 41.55l1.35.92-1.35.92a97.83 97.83 0 0 0-34.36 41.55l-2.17 5-2.17-5a97.83 97.83 0 0 0-34.36-41.55l-1.35-.92 1.35-.92a97.83 97.83 0 0 0 34.36-41.55z" fill="#d90000"/></svg>