<svg xmlns="http://www.w3.org/2000/svg" viewBox="0 0 250 210"><path fill="#fff" d="M0 0h250v210H0z"/><path d="M81.53 100.86q8.63 4.29 12.36 9.78a21.76 21.76 0 0 1 3.73 12.51 25.94 25.94 0 0 1-6.42 17.36q-7.87 9.21-22.52 9.21-14.13 0-21.42-8.08T40 123.84A22.5 22.5 0 0 1 43.79 111q3.83-5.7 12.73-10.16a24 24 0 0 1-9.37-8A18.48 18.48 0 0 1 44 82.51a20.15 20.15 0 0 1 3.33-10.85 23.3 23.3 0 0 1 9.2-8.34 27.36 27.36 0 0 1 12.71-3 25.56 25.56 0 0 1 12.33 3.07 23 23 0 0 1 8.88 8.34 20.82 20.82 0 0 1 3.22 11 18.09 18.09 0 0 1-3 10.31 25.18 25.18 0 0 1-9.14 7.82zm-12.3 4.28a20.48 20.48 0 0 0-14.74 5.71 17.84 17.84 0 0 0-6 13.28 17.09 17.09 0 0 0 9.65 15.28 23.5 23.5 0 0 0 10.58 2.26q9.3 0 14.8-5.5a17.65 17.65 0 0 0 5.49-12.85q0-7.12-5.81-12.65a19.65 19.65 0 0 0-13.97-5.53zm-.4-36.58A16.75 16.75 0 0 0 57.2 72.7a12.81 12.81 0 0 0-4.61 9.87q0 5.67 5 10.27a16.45 16.45 0 0 0 11.56 4.61 16.25 16.25 0 0 0 8-2.09 15.26 15.26 0 0 0 5.9-5.7 14.25 14.25 0 0 0 2.11-7.26 13.45 13.45 0 0 0-4.18-9.5q-4.21-4.33-12.15-4.34zm103.32-10.99 2.17 5a97.78 97.78 0 0 0 34.37 41.55l1.31.88-1.34.92a97.78 97.78 0 0 0-34.37 41.55l-2.17 5-2.16-5a97.92 97.92 0 0 0-34.37-41.55l-1.35-.92 1.35-.92A97.92 97.92 0 0 0 170 62.53z" fill="#d90000"/></svg>