<svg xmlns="http://www.w3.org/2000/svg" viewBox="0 0 250 210"><path fill="#fff" d="M0 0h250v210H0z"/><path d="m104.38 134.53 12 15.19h-10l-8.25-10.48a41.64 41.64 0 0 1-22.36 6.13q-18 0-30.36-12.34a40.59 40.59 0 0 1-12.38-29.85 43.21 43.21 0 0 1 5.67-21.67A40.84 40.84 0 0 1 54.18 65.9a42.29 42.29 0 0 1 21.43-5.62q18 0 30.36 12.31t12.35 30.26a42.38 42.38 0 0 1-3.39 17.15 45 45 0 0 1-10.55 14.53zm-5-6.34A34.08 34.08 0 0 0 110 102.78a34.36 34.36 0 0 0-4.49-17.45 33.45 33.45 0 0 0-12.69-12.48 33.84 33.84 0 0 0-34.31 0A33.49 33.49 0 0 0 46 85.43a35.35 35.35 0 0 0-4.52 17.73 34 34 0 0 0 34 34.33 34.22 34.22 0 0 0 17.64-4.69l-18-22.9h9.83zm79.67-70.62 2.17 5a97.83 97.83 0 0 0 34.36 41.55l1.35.92-1.35.92a97.83 97.83 0 0 0-34.36 41.55l-2.17 5-2.16-5a97.92 97.92 0 0 0-34.37-41.55l-1.35-.92 1.35-.92a97.92 97.92 0 0 0 34.37-41.55z" fill="#d90000"/></svg>