<svg xmlns="http://www.w3.org/2000/svg" viewBox="0 0 250 210"><path fill="#fff" d="M0 0h250v210H0z"/><path d="m95.24 134.53 12 15.19h-10L89 139.24a41.66 41.66 0 0 1-22.36 6.13q-18 0-30.36-12.34a40.59 40.59 0 0 1-12.38-29.85 43.21 43.21 0 0 1 5.67-21.67A40.84 40.84 0 0 1 45.05 65.9a42.24 42.24 0 0 1 21.43-5.62q18 0 30.35 12.31t12.35 30.26A42.38 42.38 0 0 1 105.8 120a44.88 44.88 0 0 1-10.56 14.53zm-5-6.34a34 34 0 0 0 10.58-25.41 34.35 34.35 0 0 0-4.48-17.45 33.59 33.59 0 0 0-12.65-12.48 33.84 33.84 0 0 0-34.31 0 33.52 33.52 0 0 0-12.56 12.58 35.34 35.34 0 0 0-4.51 17.73 34 34 0 0 0 34 34.33A34.18 34.18 0 0 0 84 132.8l-18-22.9h9.83zm122.12-57.57a26.19 26.19 0 0 0-36.94 0l-2.5 2.5-2.51-2.5a26.12 26.12 0 0 0-36.94 36.94l2.51 2.51L172.92 147l39.44-39.44a26.19 26.19 0 0 0 0-36.94z" fill="#d90000"/></svg>