<svg xmlns="http://www.w3.org/2000/svg" viewBox="0 0 250 210"><path fill="#fff" d="M0 0h250v210H0z"/><path d="M24.17 60.28h17.57v89.44h-8.87V69h-14zM57.48 105q0-16.84 3.8-26T72 65a26.78 26.78 0 0 1 15.5-4.75 27.41 27.41 0 0 1 15.75 4.78q7 4.77 11.16 14.33t4.1 25.64q0 16-4 25.53t-11.16 14.32a27.45 27.45 0 0 1-15.81 4.84A26.81 26.81 0 0 1 72.07 145q-6.87-4.69-10.73-14t-3.86-26zm8.45.14q0 14.43 2.7 21.82a23.16 23.16 0 0 0 8 11.2A18.8 18.8 0 0 0 87.82 142a18.61 18.61 0 0 0 11.12-3.74q5.18-3.74 7.85-11.21 3.34-9.09 3.34-21.9t-3-21q-3-8.2-8.24-12a18.23 18.23 0 0 0-22.28 0 23.23 23.23 0 0 0-8 11.17q-2.68 7.38-2.68 21.85zm151.54-34.52a26.18 26.18 0 0 0-36.93 0l-2.54 2.5-2.51-2.5a26.12 26.12 0 0 0-36.93 36.94l2.5 2.51L178 147l39.44-39.44a26.19 26.19 0 0 0 .03-36.94z" fill="#d90000"/></svg>