<svg xmlns="http://www.w3.org/2000/svg" viewBox="0 0 250 210"><path fill="#fff" d="M0 0h250v210H0z"/><path d="m69.29 60 7 4.6-23.16 35a27.55 27.55 0 0 1 8.74-1.57 23.19 23.19 0 0 1 17.32 7.37 25.1 25.1 0 0 1 7.11 18.13A26.3 26.3 0 0 1 82.91 137a25.17 25.17 0 0 1-9.76 9.49A27.53 27.53 0 0 1 59.54 150a26.19 26.19 0 0 1-13.09-3.4A24.5 24.5 0 0 1 37 137a26.74 26.74 0 0 1-3.43-13.22 32.17 32.17 0 0 1 2.12-11 69.19 69.19 0 0 1 7.6-13.98zm-9.4 45.58a18 18 0 0 0-12.74 30.77 18 18 0 0 0 25.48 0 18 18 0 0 0-12.74-30.77zm142.86-34.96a26.19 26.19 0 0 0-36.94 0l-2.51 2.5-2.5-2.5a26.12 26.12 0 0 0-36.94 36.94l2.51 2.51L163.3 147l39.45-39.44a26.19 26.19 0 0 0 0-36.94z" fill="#d90000"/></svg>