<svg xmlns="http://www.w3.org/2000/svg" viewBox="0 0 250 210"><path fill="#fff" d="M0 0h250v210H0z"/><path d="M73.9 100.86q8.63 4.29 12.36 9.78A21.83 21.83 0 0 1 90 123.15a25.9 25.9 0 0 1-6.43 17.36q-7.87 9.21-22.51 9.21-14.13 0-21.42-8.08t-7.3-17.8A22.57 22.57 0 0 1 36.15 111q3.83-5.7 12.74-10.16a24 24 0 0 1-9.38-8 18.55 18.55 0 0 1-3.12-10.3 20.23 20.23 0 0 1 3.32-10.85 23.26 23.26 0 0 1 9.21-8.34 27.32 27.32 0 0 1 12.7-3 25.56 25.56 0 0 1 12.38 3 22.91 22.91 0 0 1 8.89 8.34 20.9 20.9 0 0 1 3.21 11 18 18 0 0 1-3 10.31 25.06 25.06 0 0 1-9.2 7.86zm-12.3 4.28a20.52 20.52 0 0 0-14.75 5.71 17.88 17.88 0 0 0-6 13.28 17.12 17.12 0 0 0 9.66 15.28 23.49 23.49 0 0 0 10.57 2.26q9.32 0 14.8-5.5a17.61 17.61 0 0 0 5.49-12.85q0-7.12-5.81-12.65a19.61 19.61 0 0 0-13.96-5.53zm-.41-36.58a16.75 16.75 0 0 0-11.63 4.14A12.85 12.85 0 0 0 45 82.57q0 5.67 5 10.27a16.46 16.46 0 0 0 11.57 4.61 16.25 16.25 0 0 0 8-2.09 15.23 15.23 0 0 0 5.89-5.7 14.27 14.27 0 0 0 2.12-7.26 13.45 13.45 0 0 0-4.18-9.5q-4.26-4.33-12.21-4.34zM204 70.62a26.19 26.19 0 0 0-36.94 0l-2.5 2.5-2.56-2.5a26.12 26.12 0 0 0-36.93 36.94l2.5 2.51L164.52 147 204 107.56a26.19 26.19 0 0 0 0-36.94z" fill="#d90000"/></svg>