<svg xmlns="http://www.w3.org/2000/svg" viewBox="0 0 250 210"><path fill="#fff" d="M0 0h250v210H0z"/><path d="m50.6 149.72-7-4.52 23-34.86a28.08 28.08 0 0 1-8.69 1.52 23.08 23.08 0 0 1-17.23-7.32 24.94 24.94 0 0 1-7.07-18 26 26 0 0 1 3.41-13.26 25.24 25.24 0 0 1 9.7-9.44 27 27 0 0 1 13.46-3.53 25.88 25.88 0 0 1 13.08 3.39 24.48 24.48 0 0 1 9.41 9.55 26.55 26.55 0 0 1 3.41 13.08 32 32 0 0 1-2.11 11 68.43 68.43 0 0 1-7.56 13.86zm9.3-45.33a17.84 17.84 0 0 0 17.9-17.88 17.89 17.89 0 0 0-17.94-17.89A17.89 17.89 0 0 0 42 86.51a17.91 17.91 0 0 0 17.9 17.88zm142.76-33.77a26.19 26.19 0 0 0-36.94 0l-2.5 2.5-2.51-2.5a26.12 26.12 0 0 0-36.94 36.94l2.51 2.51L163.22 147l39.44-39.44a26.19 26.19 0 0 0 0-36.94z" fill="#d90000"/></svg>