<svg xmlns="http://www.w3.org/2000/svg" viewBox="0 0 250 210"><path fill="#fff" d="M0 0h250v210H0z"/><path d="M67.14 60.28h8.72v58.89q0 13.59-2.1 18.89a17.63 17.63 0 0 1-7 8.48 21.51 21.51 0 0 1-11.92 3.18 27.77 27.77 0 0 1-10.41-2.05 44 44 0 0 1-11.43-7.2l4.63-6.94A69 69 0 0 0 49 140.29a14.39 14.39 0 0 0 5.82 1.3 11.25 11.25 0 0 0 6.81-2.25 11.81 11.81 0 0 0 4.28-6q1.21-3.73 1.21-14.47zm136.11 10.34a26.18 26.18 0 0 0-36.93 0l-2.51 2.5-2.51-2.5a26.12 26.12 0 0 0-36.93 36.94l2.5 2.51L163.81 147l39.44-39.44a26.19 26.19 0 0 0 0-36.94z" fill="#d90000"/></svg>