<svg xmlns="http://www.w3.org/2000/svg" viewBox="0 0 250 210"><path fill="#fff" d="M0 0h250v210H0z"/><path d="M42.35 89.67h-8.41q.36-13 8.67-21.31A27.92 27.92 0 0 1 63.16 60q12.11 0 19.6 7.82a25.8 25.8 0 0 1 7.48 18.43 28.75 28.75 0 0 1-3.57 14Q83.1 106.81 72.81 118L51 141.5h40.43v8.5H31.85l33.52-36.22q10.2-10.94 13.27-16.21a21.78 21.78 0 0 0 3.07-11.13 17.15 17.15 0 0 0-5.51-12.78 18.71 18.71 0 0 0-13.51-5.34 18.92 18.92 0 0 0-14 5.61q-5.57 5.59-6.34 15.74zm162.09-19.05a26.18 26.18 0 0 0-36.93 0l-2.51 2.5-2.51-2.5a26.12 26.12 0 0 0-36.93 36.94l2.5 2.51L165 147l39.44-39.44a26.19 26.19 0 0 0 0-36.94z" fill="#d90000"/></svg>