<svg xmlns="http://www.w3.org/2000/svg" viewBox="0 0 250 210"><path d="M87.51 60v8.35H56.34L52 92.31a36.53 36.53 0 0 1 10.3-1.68q12 0 19.76 8t7.77 20.55a32.13 32.13 0 0 1-4 15.86A27.83 27.83 0 0 1 75 146.12 31.53 31.53 0 0 1 59.18 150a26.14 26.14 0 0 1-18-6.53 26.76 26.76 0 0 1-8.77-16.91h9a19.84 19.84 0 0 0 3.43 8.23 17.44 17.44 0 0 0 6.44 5.1 19.25 19.25 0 0 0 8.44 1.94 19.71 19.71 0 0 0 14.85-6.55 22.88 22.88 0 0 0 6.2-16.38q0-8.88-5.6-14.42t-15-5.53q-7.76 0-18.79 4.71L49.52 60zm116.38 10.62a26.18 26.18 0 0 0-36.93 0l-2.51 2.5-2.51-2.5A26.12 26.12 0 0 0 125 107.56l2.5 2.51L164.45 147l39.44-39.44a26.19 26.19 0 0 0 0-36.94z" fill="#d90000"/></svg>