<svg xmlns="http://www.w3.org/2000/svg" viewBox="0 0 250 210"><path fill="#fff" d="M0 0h250v210H0z"/><path d="M35.37 60.28H90.7L44 149.72 36.8 146l40.28-77.41H35.37zm168.26 65.5a23.89 23.89 0 0 1-35 1.39l-2.28-2.28-2.29 2.28a23.83 23.83 0 0 1-34.93-1.39C121 116.24 122 102 130.8 93.13l1.93-1.92a122.6 122.6 0 0 0 11.2-8.51 125.5 125.5 0 0 0 22.44-25.13 127.1 127.1 0 0 0 22.48 25.13 116.1 116.1 0 0 0 11.2 8.51c.63.67 1.25 1.3 1.92 1.92 8.83 8.87 9.77 23.11 1.66 32.65z"/><path d="m166.38 135.21-16.75 17.22h33.51l-16.76-17.22z"/></svg>