<svg xmlns="http://www.w3.org/2000/svg" viewBox="0 0 250 210"><path fill="#fff" d="M0 0h250v210H0z"/><path d="M74.55 60.28h8.72v58.89q0 13.59-2.11 18.89a17.56 17.56 0 0 1-7 8.48 21.51 21.51 0 0 1-11.92 3.18 27.77 27.77 0 0 1-10.41-2.05 44 44 0 0 1-11.36-7.2l4.63-6.94a69 69 0 0 0 11.34 6.76 14.48 14.48 0 0 0 5.83 1.3 11.25 11.25 0 0 0 6.81-2.25 11.81 11.81 0 0 0 4.28-6q1.22-3.73 1.21-14.47zm133.91 65.5a23.89 23.89 0 0 1-35 1.39l-2.29-2.28-2.28 2.28a23.84 23.84 0 0 1-34.89-1.39c-8.1-9.54-7.16-23.78 1.66-32.65l1.93-1.92a121.17 121.17 0 0 0 11.19-8.51 125.19 125.19 0 0 0 22.44-25.13 127.18 127.18 0 0 0 22.46 25.13 116.1 116.1 0 0 0 11.2 8.51c.62.67 1.25 1.3 1.92 1.92 8.83 8.87 9.77 23.11 1.66 32.65z"/><path d="m171.21 135.21-16.75 17.22h33.51l-16.76-17.22z"/></svg>