<svg xmlns="http://www.w3.org/2000/svg" viewBox="0 0 250 210"><path fill="#fff" d="M0 0h250v210H0z"/><path d="m72.24 60 41.94 90h-9.71l-14.14-29.62H51.58L37.57 150h-10L70 60zM71.1 79.14 55.69 111.7h30.75zm140.36 46.64a23.89 23.89 0 0 1-35 1.39l-2.29-2.28-2.28 2.28a23.84 23.84 0 0 1-34.89-1.39c-8.1-9.54-7.16-23.78 1.66-32.65l1.93-1.92a121.17 121.17 0 0 0 11.19-8.51 125.19 125.19 0 0 0 22.44-25.13 127.18 127.18 0 0 0 22.46 25.13 116.1 116.1 0 0 0 11.2 8.51c.62.67 1.25 1.3 1.92 1.92 8.83 8.87 9.77 23.11 1.66 32.65z"/><path d="m174.21 135.21-16.75 17.22h33.51l-16.76-17.22z"/></svg>