<svg xmlns="http://www.w3.org/2000/svg" viewBox="0 0 250 210"><path fill="#fff" d="M0 0h250v210H0z"/><path d="M44.8 89.67h-8.41q.36-13 8.68-21.31A27.91 27.91 0 0 1 65.62 60q12.1 0 19.59 7.82a25.75 25.75 0 0 1 7.48 18.43 28.64 28.64 0 0 1-3.57 14q-3.55 6.56-13.86 17.75l-21.85 23.5h40.48v8.5H34.3l33.52-36.22Q78 102.82 81.09 97.54a21.79 21.79 0 0 0 3.08-11.13 17.16 17.16 0 0 0-5.52-12.75 18.69 18.69 0 0 0-13.51-5.34 18.92 18.92 0 0 0-14 5.61q-5.57 5.59-6.34 15.74zm159.89 36.11a23.89 23.89 0 0 1-35 1.39l-2.28-2.28-2.28 2.28a23.84 23.84 0 0 1-34.94-1.39c-8.11-9.54-7.17-23.78 1.66-32.65l1.92-1.92A121.24 121.24 0 0 0 145 82.7a125.5 125.5 0 0 0 22.44-25.13 127.42 127.42 0 0 0 22.47 25.13 116.1 116.1 0 0 0 11.2 8.51c.63.67 1.25 1.3 1.93 1.92 8.82 8.87 9.76 23.11 1.65 32.65z"/><path d="m167.45 135.21-16.76 17.22h33.51l-16.75-17.22z"/></svg>