<svg xmlns="http://www.w3.org/2000/svg" viewBox="0 0 250 210"><path fill="#fff" d="M0 0h250v210H0z"/><path d="M82.79 60h1.78v61.19h10.62v8.35H84.57V150h-8.71v-20.4h-42zm-6.93 61.19V84.37l-26 36.85zm129.27 4.59a23.89 23.89 0 0 1-35 1.39l-2.29-2.28-2.28 2.28a23.84 23.84 0 0 1-34.94-1.39c-8.1-9.54-7.16-23.78 1.66-32.65l1.93-1.92a121.17 121.17 0 0 0 11.19-8.51 125.19 125.19 0 0 0 22.44-25.13 127.18 127.18 0 0 0 22.51 25.13 116 116 0 0 0 11.19 8.51c.63.67 1.26 1.3 1.93 1.92 8.82 8.87 9.76 23.11 1.66 32.65z"/><path d="m167.88 135.21-16.75 17.22h33.5l-16.75-17.22z"/></svg>