<svg xmlns="http://www.w3.org/2000/svg" viewBox="0 0 250 210"><path d="M90 60v8.35H58.79L54.4 92.31a36.65 36.65 0 0 1 10.31-1.68q12 0 19.75 8t7.77 20.55a32.23 32.23 0 0 1-4 15.86A27.92 27.92 0 0 1 77.4 146.1a31.52 31.52 0 0 1-15.76 3.9 26.15 26.15 0 0 1-18-6.53 26.7 26.7 0 0 1-8.76-16.91h9a19.84 19.84 0 0 0 3.43 8.23 17.44 17.44 0 0 0 6.44 5.1 19.28 19.28 0 0 0 8.44 1.94A19.71 19.71 0 0 0 77 135.25a22.89 22.89 0 0 0 6.21-16.38q0-8.88-5.61-14.42t-15-5.53q-7.76 0-18.79 4.71L52 60zm114.14 65.78a23.89 23.89 0 0 1-35 1.39l-2.28-2.28-2.29 2.28a23.83 23.83 0 0 1-34.93-1.39c-8.11-9.54-7.17-23.78 1.66-32.65l1.92-1.92a122.6 122.6 0 0 0 11.2-8.51 125.5 125.5 0 0 0 22.44-25.13 127.1 127.1 0 0 0 22.5 25.13 116.1 116.1 0 0 0 11.2 8.51c.63.67 1.25 1.3 1.93 1.92 8.82 8.87 9.76 23.11 1.65 32.65z"/><path d="m166.9 135.21-16.76 17.22h33.51l-16.75-17.22z"/></svg>