<svg xmlns="http://www.w3.org/2000/svg" viewBox="0 0 250 210"><path fill="#fff" d="M0 0h250v210H0z"/><path d="m61.6 149.72-7-4.52 23-34.86a28 28 0 0 1-8.69 1.52 23.08 23.08 0 0 1-17.23-7.32 24.94 24.94 0 0 1-7.07-18 26.06 26.06 0 0 1 3.41-13.26 25.24 25.24 0 0 1 9.7-9.44 27.07 27.07 0 0 1 13.46-3.53 25.85 25.85 0 0 1 13.08 3.39 24.41 24.41 0 0 1 9.41 9.55 26.55 26.55 0 0 1 3.41 13.08 32 32 0 0 1-2.11 11 68.82 68.82 0 0 1-7.55 13.86zm9.3-45.33a17.84 17.84 0 0 0 17.91-17.88 17.89 17.89 0 0 0-18-17.89A17.89 17.89 0 0 0 53 86.51a17.91 17.91 0 0 0 17.9 17.88zm140.56 21.39a23.89 23.89 0 0 1-35 1.39l-2.29-2.28-2.28 2.28a23.84 23.84 0 0 1-34.89-1.39c-8.1-9.54-7.16-23.78 1.66-32.65l1.93-1.92a121.17 121.17 0 0 0 11.19-8.51 125.19 125.19 0 0 0 22.44-25.13 127.18 127.18 0 0 0 22.46 25.13 116.1 116.1 0 0 0 11.2 8.51c.62.67 1.25 1.3 1.92 1.92 8.83 8.87 9.77 23.11 1.66 32.65z"/><path d="m174.21 135.21-16.75 17.22h33.51l-16.76-17.22z"/></svg>