<svg xmlns="http://www.w3.org/2000/svg" viewBox="0 0 250 210"><path fill="#fff" d="M0 0h250v210H0z"/><path d="m99.54 134.53 12 15.19h-10l-8.25-10.48A41.66 41.66 0 0 1 71 145.37q-18 0-30.36-12.34a40.59 40.59 0 0 1-12.38-29.85 43.21 43.21 0 0 1 5.67-21.67A40.84 40.84 0 0 1 49.35 65.9a42.24 42.24 0 0 1 21.43-5.62q18 0 30.35 12.31t12.35 30.26A42.38 42.38 0 0 1 110.1 120a44.88 44.88 0 0 1-10.56 14.53zm-5-6.34a34 34 0 0 0 10.58-25.41 34.35 34.35 0 0 0-4.48-17.45A33.59 33.59 0 0 0 88 72.85a33.84 33.84 0 0 0-34.31 0 33.52 33.52 0 0 0-12.57 12.58 35.34 35.34 0 0 0-4.51 17.73 34 34 0 0 0 34 34.33 34.18 34.18 0 0 0 17.63-4.69l-18-22.9h9.83zm116.92-2.41a23.89 23.89 0 0 1-35 1.39l-2.29-2.28-2.28 2.28a23.84 23.84 0 0 1-34.89-1.39c-8.1-9.54-7.16-23.78 1.66-32.65l1.93-1.92a121.17 121.17 0 0 0 11.19-8.51 125.19 125.19 0 0 0 22.44-25.13 127.18 127.18 0 0 0 22.46 25.13 116.1 116.1 0 0 0 11.2 8.51c.62.67 1.25 1.3 1.92 1.92 8.83 8.87 9.77 23.11 1.66 32.65z"/><path d="m174.21 135.21-16.75 17.22h33.51l-16.76-17.22z"/></svg>