<svg xmlns="http://www.w3.org/2000/svg" viewBox="0 0 250 210"><path fill="#fff" d="M0 0h250v210H0z"/><path d="m71.74 60 7.05 4.6-23.16 35a27.55 27.55 0 0 1 8.74-1.57 23.19 23.19 0 0 1 17.32 7.37 25.1 25.1 0 0 1 7.11 18.2 26.29 26.29 0 0 1-3.43 13.4 25.17 25.17 0 0 1-9.76 9.49A27.6 27.6 0 0 1 62 150a26.22 26.22 0 0 1-13.09-3.4 24.57 24.57 0 0 1-9.48-9.6A26.74 26.74 0 0 1 36 123.77a32.17 32.17 0 0 1 2.12-11 69.19 69.19 0 0 1 7.62-13.97zm-9.4 45.58a18 18 0 0 0-12.74 30.8 18 18 0 0 0 25.48 0 18 18 0 0 0-12.74-30.77zM203 125.78a23.89 23.89 0 0 1-35 1.39l-2.29-2.28-2.28 2.28a23.84 23.84 0 0 1-34.94-1.39c-8.1-9.54-7.16-23.78 1.66-32.65l1.93-1.92a121.17 121.17 0 0 0 11.19-8.51 125.19 125.19 0 0 0 22.44-25.13 127.18 127.18 0 0 0 22.51 25.13 116.1 116.1 0 0 0 11.2 8.51c.62.67 1.25 1.3 1.92 1.92 8.83 8.87 9.77 23.11 1.66 32.65z"/><path d="M165.75 135.21 149 152.43h33.5l-16.75-17.22z"/></svg>