<svg xmlns="http://www.w3.org/2000/svg" viewBox="0 0 250 210"><path fill="#fff" d="M0 0h250v210H0z"/><path d="M46.46 82h-8.73q2.39-10.59 9.14-16.3a23.94 23.94 0 0 1 16-5.7 26.43 26.43 0 0 1 12.49 3 22.63 22.63 0 0 1 9 8.24 20.43 20.43 0 0 1 3.18 10.83q0 11.05-11 17.52A24.89 24.89 0 0 1 86.57 107a23.4 23.4 0 0 1 5.59 15.25 27.26 27.26 0 0 1-3.84 13.89 26.58 26.58 0 0 1-10.48 10.21A30.49 30.49 0 0 1 63 150q-11.07 0-18.46-6.37t-9.66-18.72h8.38q2.22 8.33 6.35 12.05 5.3 4.71 13.5 4.72 9.31 0 15-5.59A17.83 17.83 0 0 0 83.72 123a17 17 0 0 0-2.82-9.37 17.77 17.77 0 0 0-7.57-6.63q-4.74-2.22-14.7-2.74v-7.85a27.09 27.09 0 0 0 10.71-2.06 15.72 15.72 0 0 0 7-5.27 12.21 12.21 0 0 0 2.18-7 12.68 12.68 0 0 0-4.45-9.66 16 16 0 0 0-11.27-4.08 15.08 15.08 0 0 0-9.54 3.12c-2.66 2.08-4.93 5.61-6.8 10.54zm157.66 43.78a23.89 23.89 0 0 1-35 1.39l-2.29-2.28-2.28 2.28a23.83 23.83 0 0 1-34.93-1.39c-8.11-9.54-7.17-23.78 1.65-32.65l1.93-1.92a122.6 122.6 0 0 0 11.2-8.51 125.41 125.41 0 0 0 22.43-25.13 127.5 127.5 0 0 0 22.51 25.13 116.1 116.1 0 0 0 11.2 8.51c.62.67 1.25 1.3 1.92 1.92 8.83 8.87 9.77 23.11 1.66 32.65z"/><path d="m166.87 135.21-16.75 17.22h33.51l-16.76-17.22z"/></svg>