<svg id="Layer_1" data-name="Layer 1" xmlns="http://www.w3.org/2000/svg" viewBox="0 0 321.875 500"><defs><style>.cls-2{fill:#02592d}.cls-3{fill:#ffc306}.cls-4{fill:#a50404}.cls-5{fill:#05703d}.cls-6{fill:#ef870a}.cls-7{fill:#034924}.cls-8{fill:#d90000}</style></defs><path style="fill:#fff" d="M0 0h321.875v500H0z"/><path d="M268.453 481.248H45.383a26.661 26.661 0 0 1-26.63-26.63V125.1a1.25 1.25 0 0 1 2.5 0v329.518a24.157 24.157 0 0 0 24.13 24.13h223.07a1.25 1.25 0 0 1 0 2.5Zm33.42-105.09a1.25 1.25 0 0 1-1.25-1.25V45.387a24.162 24.162 0 0 0-24.13-24.139H53.423a1.25 1.25 0 0 1 0-2.5h223.07a26.664 26.664 0 0 1 26.63 26.639v329.521a1.25 1.25 0 0 1-1.25 1.25Z"/><path class="cls-2" d="M26.676 106.648c.854 4.258-2.876 10.322-2.876 10.322-1.328.387-3.059-2.064-3.059-2.064 3.871-3.1 4.129-8.258 4.129-8.258Z"/><path class="cls-3" d="M31.662 97.387V84.052c0-3-2.853-5.461-6.372-5.477-3.519.017-6.373 2.479-6.371 5.477v13.335a47.283 47.283 0 0 0 12.743 0Z"/><path class="cls-4" d="M31.662 84.052v13.335a47.15 47.15 0 0 1-6.372.432V78.575c3.519.016 6.373 2.481 6.372 5.477Z"/><path class="cls-5" d="M18.06 97.29h14.461a3.595 3.595 0 0 1 3.595 3.595 8.93 8.93 0 0 1-8.93 8.93h-3.792a8.93 8.93 0 0 1-8.93-8.93 3.595 3.595 0 0 1 3.596-3.595Z"/><path class="cls-2" d="M32.521 97.29H25.29v12.525h1.9a8.93 8.93 0 0 0 8.93-8.93 3.6 3.6 0 0 0-3.599-3.595ZM295.2 393.352c-.854-4.258 2.876-10.322 2.876-10.322 1.328-.388 3.059 2.064 3.059 2.064-3.871 3.1-4.129 8.258-4.129 8.258Z"/><path class="cls-3" d="M290.213 402.612v13.336c0 3 2.853 5.46 6.372 5.477 3.519-.017 6.373-2.479 6.372-5.477v-13.336a47.372 47.372 0 0 0-12.744 0Z"/><path class="cls-4" d="M290.213 415.948v-13.336a47.312 47.312 0 0 1 6.372-.431v19.244c-3.519-.017-6.373-2.481-6.372-5.477Z"/><path class="cls-5" d="M289.354 390.185h14.461a3.595 3.595 0 0 1 3.595 3.595 8.93 8.93 0 0 1-8.93 8.93h-3.792a8.93 8.93 0 0 1-8.93-8.93 3.595 3.595 0 0 1 3.596-3.595Z" transform="rotate(180 296.585 396.447)"/><path class="cls-2" d="M289.354 402.71h7.231v-12.525h-1.9a8.93 8.93 0 0 0-8.93 8.93 3.6 3.6 0 0 0 3.599 3.595ZM164.02 211.893a35.047 35.047 0 0 1 6.66-7.643 42.9 42.9 0 0 1 8.535-5.858 15.009 15.009 0 0 1 1.5-.737c.295-.131.59-.262.88-.4a21.455 21.455 0 0 1 2.358-.99l2.518-.921 2.511-.693a26.57 26.57 0 0 1 3.487-.78c.563-.1 1.127-.2 1.687-.315 1.082-.172 2.236-.281 3.353-.386.634-.06 1.269-.12 1.9-.192l-.121-1.394c-.622.037-1.246.064-1.871.09-1.15.048-2.34.1-3.516.223-.581.088-1.135.157-1.689.225a28.817 28.817 0 0 0-3.725.631l-2.608.58-2.635.809a22.618 22.618 0 0 0-2.6.935c-.293.124-.583.236-.873.347a16.405 16.405 0 0 0-1.685.724 45.542 45.542 0 0 0-9.368 5.742 37.766 37.766 0 0 0-7.78 8.089l-.427.615 3.152 1.89Z"/><path class="cls-2" d="M161.507 210.374a37.4 37.4 0 0 1 7.636-7.938 44.943 44.943 0 0 1 9.26-5.671c.8-.418 1.67-.692 2.5-1.044a22.361 22.361 0 0 1 2.545-.914l2.581-.794 2.633-.586a51.854 51.854 0 0 1 5.311-.838c1.78-.19 3.575-.2 5.355-.311-1.777.2-3.561.307-5.319.588a51.353 51.353 0 0 0-5.219 1.1l-2.564.712-2.5.914a21.643 21.643 0 0 0-2.446 1.026c-.795.387-1.625.7-2.387 1.145a43.549 43.549 0 0 0-8.678 5.956 35.739 35.739 0 0 0-6.793 7.8Zm2.513-43.287a35.043 35.043 0 0 1 6.66-7.642 42.9 42.9 0 0 1 8.535-5.859 14.785 14.785 0 0 1 1.5-.736c.295-.131.59-.263.88-.4a21.463 21.463 0 0 1 2.358-.991l2.518-.921 2.511-.693a26.73 26.73 0 0 1 3.487-.779c.563-.1 1.127-.2 1.687-.316 1.082-.172 2.236-.281 3.353-.385.634-.061 1.269-.12 1.9-.193l-.121-1.393c-.622.037-1.246.063-1.871.09-1.15.047-2.34.1-3.516.222-.581.088-1.135.157-1.689.226a28.478 28.478 0 0 0-3.725.631l-2.608.58-2.635.808a22.438 22.438 0 0 0-2.6.936c-.293.124-.583.235-.873.347a16.178 16.178 0 0 0-1.685.723 45.586 45.586 0 0 0-9.368 5.742 37.789 37.789 0 0 0-7.78 8.089l-.427.615 3.152 1.89Z"/><path class="cls-2" d="M161.507 165.569a37.378 37.378 0 0 1 7.636-7.938 44.947 44.947 0 0 1 9.26-5.672c.8-.417 1.67-.692 2.5-1.044a22.753 22.753 0 0 1 2.545-.914l2.581-.794 2.633-.585a51.584 51.584 0 0 1 5.311-.839c1.78-.189 3.575-.2 5.355-.31-1.777.2-3.561.307-5.319.588a51.083 51.083 0 0 0-5.219 1.1l-2.564.712-2.5.914a21.822 21.822 0 0 0-2.446 1.025c-.795.387-1.625.7-2.387 1.146a43.545 43.545 0 0 0-8.678 5.955 35.744 35.744 0 0 0-6.793 7.8Zm2.113-43.007a35.166 35.166 0 0 1 6.735-7.643 43.4 43.4 0 0 1 8.632-5.858 14.947 14.947 0 0 1 1.512-.736c.3-.131.6-.263.889-.405a21.983 21.983 0 0 1 2.386-.99l2.546-.921 2.54-.693a27.077 27.077 0 0 1 3.526-.78c.569-.1 1.139-.2 1.706-.315 1.093-.172 2.261-.281 3.39-.386.642-.06 1.284-.12 1.925-.192l-.123-1.394c-.629.037-1.26.064-1.891.09-1.164.048-2.367.1-3.556.223-.588.088-1.148.157-1.709.225a29.452 29.452 0 0 0-3.766.631l-2.638.58-2.665.809a22.94 22.94 0 0 0-2.633.936c-.3.124-.59.235-.883.346a16.691 16.691 0 0 0-1.7.724 46.2 46.2 0 0 0-9.474 5.742 37.969 37.969 0 0 0-7.868 8.089l-.431.615 3.187 1.89Z"/><path class="cls-2" d="M161.079 121.044a37.561 37.561 0 0 1 7.722-7.938 45.524 45.524 0 0 1 9.365-5.672c.811-.417 1.689-.692 2.528-1.044a23.2 23.2 0 0 1 2.573-.914l2.61-.794 2.663-.586a53.021 53.021 0 0 1 5.372-.838c1.8-.19 3.615-.2 5.415-.311-1.8.2-3.6.307-5.379.588a52.2 52.2 0 0 0-5.278 1.106l-2.593.711-2.526.914a22.319 22.319 0 0 0-2.473 1.026c-.8.387-1.643.7-2.414 1.145a44.082 44.082 0 0 0-8.776 5.956 35.862 35.862 0 0 0-6.87 7.8Zm1.595-42.762a35.466 35.466 0 0 1 6.913-7.643 44.652 44.652 0 0 1 8.86-5.858 15.582 15.582 0 0 1 1.553-.736c.306-.131.612-.263.913-.405a22.92 22.92 0 0 1 2.448-.99l2.614-.921 2.607-.693a28.412 28.412 0 0 1 3.619-.78c.585-.1 1.169-.2 1.751-.315 1.123-.172 2.321-.281 3.48-.386.659-.06 1.318-.12 1.976-.192l-.126-1.394c-.646.037-1.293.064-1.942.09-1.194.048-2.429.1-3.649.223-.6.088-1.179.157-1.754.225a30.959 30.959 0 0 0-3.866.631l-2.708.58-2.735.809a24.136 24.136 0 0 0-2.7.935c-.3.125-.605.236-.906.347a17.286 17.286 0 0 0-1.749.724 47.686 47.686 0 0 0-9.725 5.742 38.42 38.42 0 0 0-8.075 8.089l-.444.615 3.272 1.89Z"/><path class="cls-2" d="M160.066 76.764a38.015 38.015 0 0 1 7.926-7.938 47 47 0 0 1 9.612-5.672c.833-.417 1.734-.692 2.595-1.044a24.244 24.244 0 0 1 2.642-.914l2.679-.794 2.733-.586c1.807-.454 3.679-.568 5.513-.838 1.848-.19 3.712-.2 5.559-.311-1.844.2-3.7.307-5.521.588a54.708 54.708 0 0 0-5.417 1.106l-2.663.711-2.592.914a23.268 23.268 0 0 0-2.539 1.026c-.824.387-1.686.7-2.477 1.145a45.311 45.311 0 0 0-9.008 5.956 36.145 36.145 0 0 0-7.052 7.8Zm-2.211 135.129a35.041 35.041 0 0 0-6.659-7.643 42.93 42.93 0 0 0-8.536-5.858 15.009 15.009 0 0 0-1.5-.737c-.295-.131-.59-.262-.88-.4a21.374 21.374 0 0 0-2.358-.99l-2.518-.921-2.511-.693a26.533 26.533 0 0 0-3.487-.78c-.563-.1-1.127-.2-1.687-.315-1.081-.172-2.236-.281-3.353-.386-.634-.06-1.269-.12-1.9-.192l.121-1.394c.622.037 1.246.064 1.871.09 1.151.048 2.34.1 3.516.223a60 60 0 0 0 1.689.225 28.817 28.817 0 0 1 3.725.631l2.608.58 2.635.809a22.618 22.618 0 0 1 2.6.935c.293.124.583.236.873.347a16.405 16.405 0 0 1 1.685.724 45.575 45.575 0 0 1 9.369 5.742 37.784 37.784 0 0 1 7.779 8.089l.427.615-3.152 1.89Z"/><path class="cls-2" d="M160.368 210.374a37.4 37.4 0 0 0-7.636-7.938 44.943 44.943 0 0 0-9.26-5.671c-.8-.418-1.67-.692-2.5-1.044a22.361 22.361 0 0 0-2.545-.914l-2.581-.794-2.633-.586a51.854 51.854 0 0 0-5.311-.838c-1.78-.19-3.575-.2-5.355-.311 1.777.2 3.561.307 5.319.588a51.353 51.353 0 0 1 5.219 1.1l2.564.712 2.5.914a21.7 21.7 0 0 1 2.445 1.026c.795.387 1.625.7 2.387 1.145a43.549 43.549 0 0 1 8.678 5.956 35.739 35.739 0 0 1 6.793 7.8Zm-2.513-43.287a35.037 35.037 0 0 0-6.659-7.642 42.936 42.936 0 0 0-8.536-5.859 14.785 14.785 0 0 0-1.5-.736c-.295-.131-.59-.263-.88-.4a21.382 21.382 0 0 0-2.358-.991l-2.518-.921-2.511-.693a26.693 26.693 0 0 0-3.487-.779c-.563-.1-1.127-.2-1.687-.316-1.081-.172-2.236-.281-3.353-.385-.634-.061-1.269-.12-1.9-.193l.121-1.393c.622.037 1.246.063 1.871.09 1.151.047 2.34.1 3.516.222.582.088 1.135.157 1.689.226a28.478 28.478 0 0 1 3.725.631l2.608.58 2.635.808a22.438 22.438 0 0 1 2.6.936c.293.124.583.235.873.347a16.178 16.178 0 0 1 1.685.723 45.619 45.619 0 0 1 9.369 5.742 37.807 37.807 0 0 1 7.779 8.089l.427.615-3.152 1.89Z"/><path class="cls-2" d="M160.368 165.569a37.378 37.378 0 0 0-7.636-7.938 44.947 44.947 0 0 0-9.26-5.672c-.8-.417-1.67-.692-2.5-1.044a22.753 22.753 0 0 0-2.545-.914l-2.581-.794-2.633-.585a51.584 51.584 0 0 0-5.311-.839c-1.78-.189-3.575-.2-5.355-.31 1.777.2 3.561.307 5.319.588a51.083 51.083 0 0 1 5.219 1.1l2.564.712 2.5.914a21.885 21.885 0 0 1 2.445 1.025c.795.387 1.625.7 2.387 1.146a43.545 43.545 0 0 1 8.678 5.955 35.744 35.744 0 0 1 6.793 7.8Zm-2.113-43.007a35.166 35.166 0 0 0-6.735-7.643 43.4 43.4 0 0 0-8.632-5.858 14.947 14.947 0 0 0-1.512-.736c-.3-.131-.6-.263-.889-.405a21.983 21.983 0 0 0-2.386-.99l-2.546-.921-2.539-.693a27.092 27.092 0 0 0-3.527-.78c-.569-.1-1.139-.2-1.706-.315-1.093-.172-2.261-.281-3.39-.386-.642-.06-1.284-.12-1.925-.192l.123-1.394c.629.037 1.26.064 1.891.09 1.164.048 2.367.1 3.556.223.588.088 1.148.157 1.709.225a29.5 29.5 0 0 1 3.767.631l2.637.58 2.665.809a22.94 22.94 0 0 1 2.633.936c.3.124.59.235.883.346a16.691 16.691 0 0 1 1.7.724 46.171 46.171 0 0 1 9.474 5.742 37.969 37.969 0 0 1 7.868 8.089l.432.615-3.188 1.89Z"/><path class="cls-2" d="M160.8 121.044a37.536 37.536 0 0 0-7.722-7.938 45.544 45.544 0 0 0-9.364-5.672c-.812-.417-1.689-.692-2.529-1.044a23.2 23.2 0 0 0-2.573-.914l-2.61-.794-2.663-.586a52.978 52.978 0 0 0-5.372-.838c-1.8-.19-3.615-.2-5.415-.311 1.8.2 3.6.307 5.379.588a52.2 52.2 0 0 1 5.278 1.106l2.593.711 2.526.914a22.319 22.319 0 0 1 2.473 1.026c.8.387 1.643.7 2.414 1.145a44.082 44.082 0 0 1 8.776 5.956 35.835 35.835 0 0 1 6.87 7.8Zm-1.6-42.762a35.466 35.466 0 0 0-6.913-7.643 44.652 44.652 0 0 0-8.86-5.858 15.477 15.477 0 0 0-1.552-.736 27.524 27.524 0 0 1-.913-.405 22.92 22.92 0 0 0-2.448-.99l-2.614-.921-2.607-.693a28.412 28.412 0 0 0-3.619-.78c-.585-.1-1.169-.2-1.751-.315-1.123-.172-2.321-.281-3.48-.386-.659-.06-1.318-.12-1.976-.192l.126-1.394c.646.037 1.293.064 1.942.09 1.194.048 2.429.1 3.65.223.6.088 1.178.157 1.753.225a31 31 0 0 1 3.867.631l2.707.58 2.735.809a24.136 24.136 0 0 1 2.7.935c.3.125.605.236.906.347a17.286 17.286 0 0 1 1.749.724 47.686 47.686 0 0 1 9.725 5.742 38.42 38.42 0 0 1 8.075 8.089l.444.615-3.272 1.89Z"/><path class="cls-2" d="M161.81 76.764a38.044 38.044 0 0 0-7.927-7.938 47 47 0 0 0-9.612-5.672c-.833-.417-1.734-.692-2.595-1.044a24.3 24.3 0 0 0-2.641-.914l-2.68-.794-2.733-.586c-1.807-.454-3.679-.568-5.513-.838-1.848-.19-3.712-.2-5.559-.311 1.844.2 3.7.307 5.521.588a54.786 54.786 0 0 1 5.418 1.106l2.662.711 2.592.914a23.268 23.268 0 0 1 2.539 1.026c.824.387 1.686.7 2.477 1.145a45.311 45.311 0 0 1 9.008 5.956 36.145 36.145 0 0 1 7.052 7.8Z"/><path class="cls-3" d="M164.76 222.441h-7.64c.091-.2.142-.306.142-.306l1.962-174.145h3.431l1.963 174.145s.05.102.142.306Z"/><path class="cls-6" d="M164.76 222.441h-3.82V47.99h1.715l1.963 174.145s.05.102.142.306Z"/><path class="cls-5" d="M160.939 220.5s-3.62 0-5.115 4.344a8.909 8.909 0 0 0-.229 4.706 15.714 15.714 0 0 0 1.573 4.272 7.765 7.765 0 0 0 .813 1.184c.83 1.019 2.594 3.329 2.958 4.945Z"/><path class="cls-2" d="M160.937 220.5s3.62 0 5.114 4.344a8.909 8.909 0 0 1 .229 4.706 15.714 15.714 0 0 1-1.573 4.272 7.694 7.694 0 0 1-.813 1.184c-.83 1.019-2.594 3.329-2.957 4.945Z"/><path class="cls-2" d="m160.939 232.127-2.653-3.5 2.653-3.499 2.652 3.499-2.652 3.5z"/><path class="cls-7" d="m163.591 228.627-2.652-3.499v6.999l2.652-3.5z"/><path class="cls-4" d="M149.541 42.365c4.3.038 10.125 2.818 11.4 6.891-1.274 4.073-7.1 6.853-11.4 6.891-4.549.041-7.66-2.984-7.66-6.891s3.111-6.932 7.66-6.891Z"/><path class="cls-4" d="M172.338 42.365c-4.3.038-10.125 2.818-11.4 6.891 1.273 4.073 7.1 6.853 11.4 6.891 4.549.041 7.66-2.984 7.66-6.891s-3.111-6.932-7.66-6.891Z"/><path class="cls-8" d="M168.874 36.131c-.044 4.952-3.245 11.659-7.934 13.125-4.69-1.466-7.891-8.173-7.935-13.125-.047-5.236 3.436-8.819 7.935-8.819s7.981 3.588 7.934 8.819Z"/><path class="cls-3" d="M100.955 160.492H74.284c-5.992 0-10.921-5.7-10.953-12.743.033-7.039 4.958-12.747 10.953-12.744h26.671a94.574 94.574 0 0 1 0 25.487Z"/><path class="cls-4" d="M74.284 160.492h26.671a94.448 94.448 0 0 0 .863-12.743H63.331c.032 7.038 4.961 12.751 10.953 12.743Z"/><path class="cls-5" d="M109.493 135.224h7.584a17.859 17.859 0 0 1 17.859 17.859 7.19 7.19 0 0 1-7.19 7.19H98.824a7.19 7.19 0 0 1-7.19-7.19 17.859 17.859 0 0 1 17.859-17.859Z" transform="rotate(90 113.285 147.749)"/><path class="cls-2" d="M100.76 162.21v-14.461h25.05v3.791a17.86 17.86 0 0 1-17.86 17.86 7.19 7.19 0 0 1-7.19-7.19Z"/><path class="cls-3" d="M100.955 205.022H74.284c-5.992 0-10.921-5.706-10.953-12.744.033-7.038 4.958-12.746 10.953-12.744h26.671a94.582 94.582 0 0 1 0 25.488Z"/><path class="cls-4" d="M74.284 205.022h26.671a94.473 94.473 0 0 0 .863-12.744H63.331c.032 7.038 4.961 12.746 10.953 12.744Z"/><path class="cls-5" d="M109.493 179.753h7.584a17.859 17.859 0 0 1 17.859 17.859 7.19 7.19 0 0 1-7.19 7.19H98.824a7.19 7.19 0 0 1-7.19-7.19 17.859 17.859 0 0 1 17.859-17.859Z" transform="rotate(90 113.285 192.278)"/><path class="cls-2" d="M100.76 206.739v-14.461h25.05v3.792a17.86 17.86 0 0 1-17.86 17.859 7.19 7.19 0 0 1-7.19-7.19Z"/><path class="cls-3" d="M100.955 115.963H74.284c-5.992 0-10.921-5.706-10.953-12.744.033-7.038 4.958-12.746 10.953-12.743h26.671a94.574 94.574 0 0 1 0 25.487Z"/><path class="cls-4" d="M74.284 115.963h26.671a94.462 94.462 0 0 0 .863-12.744H63.331c.032 7.038 4.961 12.746 10.953 12.744Z"/><path class="cls-5" d="M109.493 90.695h7.584a17.859 17.859 0 0 1 17.859 17.859 7.19 7.19 0 0 1-7.19 7.19H98.824a7.19 7.19 0 0 1-7.19-7.19 17.859 17.859 0 0 1 17.859-17.859Z" transform="rotate(90 113.285 103.219)"/><path class="cls-2" d="M100.76 117.681v-14.462h25.05v3.792a17.86 17.86 0 0 1-17.86 17.86 7.191 7.191 0 0 1-7.19-7.19Z"/><path class="cls-3" d="M100.955 71.311H74.284c-5.992 0-10.921-5.706-10.953-12.744.033-7.038 4.958-12.746 10.953-12.743h26.671a94.574 94.574 0 0 1 0 25.487Z"/><path class="cls-4" d="M74.284 71.311h26.671a94.451 94.451 0 0 0 .863-12.744H63.331c.032 7.038 4.961 12.746 10.953 12.744Z"/><path class="cls-5" d="M109.493 46.043h7.584A17.859 17.859 0 0 1 134.936 63.9a7.19 7.19 0 0 1-7.19 7.19H98.824a7.19 7.19 0 0 1-7.19-7.19 17.859 17.859 0 0 1 17.859-17.859Z" transform="rotate(90 113.284 58.568)"/><path class="cls-2" d="M100.76 73.029V58.567h25.05v3.792a17.86 17.86 0 0 1-17.86 17.86 7.191 7.191 0 0 1-7.19-7.19Z"/><path class="cls-3" d="M220.92 160.492h26.671c5.992 0 10.921-5.7 10.953-12.743-.033-7.039-4.958-12.747-10.953-12.744H220.92a94.574 94.574 0 0 0 0 25.487Z"/><path class="cls-4" d="M247.591 160.492H220.92a94.448 94.448 0 0 1-.863-12.743h38.487c-.032 7.038-4.961 12.751-10.953 12.743Z"/><path class="cls-5" d="M194.129 135.224h28.922a7.19 7.19 0 0 1 7.19 7.19 17.859 17.859 0 0 1-17.859 17.859H204.8a17.859 17.859 0 0 1-17.859-17.859 7.19 7.19 0 0 1 7.19-7.19Z" transform="rotate(90 208.59 147.749)"/><path class="cls-2" d="M221.115 162.21v-14.461h-25.049v3.791a17.859 17.859 0 0 0 17.859 17.86 7.19 7.19 0 0 0 7.19-7.19Z"/><path class="cls-3" d="M220.92 205.022h26.671c5.992 0 10.921-5.706 10.953-12.744-.033-7.038-4.958-12.746-10.953-12.744H220.92a94.582 94.582 0 0 0 0 25.488Z"/><path class="cls-4" d="M247.591 205.022H220.92a94.473 94.473 0 0 1-.863-12.744h38.487c-.032 7.038-4.961 12.746-10.953 12.744Z"/><path class="cls-5" d="M194.129 179.753h28.922a7.19 7.19 0 0 1 7.19 7.19 17.859 17.859 0 0 1-17.859 17.857H204.8a17.859 17.859 0 0 1-17.859-17.859 7.19 7.19 0 0 1 7.19-7.19Z" transform="rotate(90 208.59 192.278)"/><path class="cls-2" d="M221.115 206.739v-14.461h-25.049v3.792a17.859 17.859 0 0 0 17.859 17.859 7.19 7.19 0 0 0 7.19-7.19Z"/><path class="cls-3" d="M220.92 115.963h26.671c5.992 0 10.921-5.706 10.953-12.744-.033-7.038-4.958-12.746-10.953-12.743H220.92a94.574 94.574 0 0 0 0 25.487Z"/><path class="cls-4" d="M247.591 115.963H220.92a94.462 94.462 0 0 1-.863-12.744h38.487c-.032 7.038-4.961 12.746-10.953 12.744Z"/><path class="cls-5" d="M194.129 90.695h28.922a7.19 7.19 0 0 1 7.19 7.19 17.859 17.859 0 0 1-17.859 17.859H204.8a17.859 17.859 0 0 1-17.859-17.859 7.19 7.19 0 0 1 7.19-7.19Z" transform="rotate(90 208.59 103.22)"/><path class="cls-2" d="M221.115 117.681v-14.462h-25.049v3.792a17.859 17.859 0 0 0 17.859 17.86 7.191 7.191 0 0 0 7.19-7.19Z"/><path class="cls-3" d="M220.92 71.311h26.671c5.992 0 10.921-5.706 10.953-12.744-.033-7.038-4.958-12.746-10.953-12.743H220.92a94.574 94.574 0 0 0 0 25.487Z"/><path class="cls-4" d="M247.591 71.311H220.92a94.451 94.451 0 0 1-.863-12.744h38.487c-.032 7.038-4.961 12.746-10.953 12.744Z"/><path class="cls-5" d="M194.129 46.043h28.922a7.19 7.19 0 0 1 7.19 7.19 17.859 17.859 0 0 1-17.859 17.859H204.8a17.859 17.859 0 0 1-17.859-17.859 7.19 7.19 0 0 1 7.19-7.19Z" transform="rotate(90 208.59 58.568)"/><path class="cls-2" d="M221.115 73.029V58.567h-25.049v3.792a17.859 17.859 0 0 0 17.859 17.86 7.191 7.191 0 0 0 7.19-7.19Zm-63.26 215.078a35.041 35.041 0 0 1-6.659 7.643 42.93 42.93 0 0 1-8.536 5.858 15.009 15.009 0 0 1-1.5.737c-.295.13-.59.262-.88.4a21.568 21.568 0 0 1-2.358.99l-2.518.921-2.511.693a26.533 26.533 0 0 1-3.487.78c-.563.1-1.127.2-1.687.315-1.081.172-2.236.281-3.353.386-.634.06-1.269.12-1.9.192l.121 1.394c.622-.037 1.246-.064 1.871-.09 1.151-.048 2.34-.1 3.516-.223a60 60 0 0 1 1.689-.225 28.817 28.817 0 0 0 3.725-.631l2.608-.58 2.635-.809a22.618 22.618 0 0 0 2.6-.935c.293-.124.583-.236.873-.347a16.405 16.405 0 0 0 1.685-.724 45.575 45.575 0 0 0 9.369-5.742 37.784 37.784 0 0 0 7.779-8.089l.427-.615-3.152-1.89Z"/><path class="cls-2" d="M160.368 289.625a37.383 37.383 0 0 1-7.636 7.939 44.943 44.943 0 0 1-9.26 5.671c-.8.417-1.67.692-2.5 1.044a22.361 22.361 0 0 1-2.545.914l-2.581.794-2.633.586a51.854 51.854 0 0 1-5.311.838c-1.78.19-3.575.2-5.355.311 1.777-.2 3.561-.307 5.319-.588a51.353 51.353 0 0 0 5.219-1.105l2.564-.712 2.5-.914a21.891 21.891 0 0 0 2.445-1.026c.795-.387 1.625-.7 2.387-1.145a43.549 43.549 0 0 0 8.678-5.956 35.721 35.721 0 0 0 6.793-7.8Zm-2.513 43.288a35.037 35.037 0 0 1-6.659 7.642 42.936 42.936 0 0 1-8.536 5.859 14.785 14.785 0 0 1-1.5.736c-.295.131-.59.263-.88.4a21.576 21.576 0 0 1-2.358.991l-2.518.92-2.511.694a26.693 26.693 0 0 1-3.487.779c-.563.1-1.127.2-1.687.316-1.081.171-2.236.281-3.353.385-.634.061-1.269.12-1.9.193l.121 1.393c.622-.037 1.246-.063 1.871-.09 1.151-.048 2.34-.1 3.516-.222a60.076 60.076 0 0 1 1.689-.226 28.478 28.478 0 0 0 3.725-.631l2.608-.58 2.635-.808a22.625 22.625 0 0 0 2.6-.936c.293-.124.583-.235.873-.347a16.4 16.4 0 0 0 1.685-.723 45.619 45.619 0 0 0 9.369-5.742 37.807 37.807 0 0 0 7.779-8.089l.427-.616-3.152-1.889Z"/><path class="cls-2" d="M160.368 334.431a37.378 37.378 0 0 1-7.636 7.938 44.947 44.947 0 0 1-9.26 5.672c-.8.417-1.67.692-2.5 1.043a22.361 22.361 0 0 1-2.545.914l-2.581.8-2.633.585a51.581 51.581 0 0 1-5.311.838c-1.78.19-3.575.2-5.355.311 1.777-.2 3.561-.307 5.319-.588a51.083 51.083 0 0 0 5.219-1.105l2.564-.712 2.5-.914a21.885 21.885 0 0 0 2.445-1.025c.795-.387 1.625-.7 2.387-1.146a43.545 43.545 0 0 0 8.678-5.955 35.744 35.744 0 0 0 6.793-7.8Zm-2.113 43.007a35.166 35.166 0 0 1-6.735 7.643 43.4 43.4 0 0 1-8.632 5.858 14.947 14.947 0 0 1-1.512.736c-.3.131-.6.263-.889.4a21.983 21.983 0 0 1-2.386.99l-2.546.921-2.539.693a27.09 27.09 0 0 1-3.527.779c-.569.1-1.139.2-1.706.316-1.093.172-2.261.281-3.39.386-.642.06-1.284.12-1.925.192l.123 1.394c.629-.038 1.26-.064 1.891-.09 1.164-.048 2.367-.1 3.556-.223a64.752 64.752 0 0 1 1.709-.226 29.317 29.317 0 0 0 3.767-.63l2.637-.58 2.665-.809a22.94 22.94 0 0 0 2.633-.936c.3-.124.59-.235.883-.346a16.691 16.691 0 0 0 1.7-.724 46.171 46.171 0 0 0 9.474-5.742 37.969 37.969 0 0 0 7.868-8.089l.432-.615-3.188-1.89Z"/><path class="cls-2" d="M160.8 378.956a37.536 37.536 0 0 1-7.722 7.938 45.544 45.544 0 0 1-9.364 5.672c-.812.417-1.689.692-2.529 1.044a23.2 23.2 0 0 1-2.573.914l-2.61.794-2.663.585a52.7 52.7 0 0 1-5.372.839c-1.8.19-3.615.2-5.415.311 1.8-.2 3.6-.307 5.379-.588a52.479 52.479 0 0 0 5.278-1.106l2.593-.711 2.526-.914a22.319 22.319 0 0 0 2.473-1.026c.8-.387 1.643-.7 2.414-1.146a44.035 44.035 0 0 0 8.776-5.955 35.859 35.859 0 0 0 6.87-7.8Zm-1.6 42.762a35.466 35.466 0 0 1-6.913 7.643 44.652 44.652 0 0 1-8.86 5.858 15.477 15.477 0 0 1-1.552.736c-.306.131-.612.263-.913.405a22.92 22.92 0 0 1-2.448.99l-2.614.921-2.607.693a28.41 28.41 0 0 1-3.619.779c-.585.1-1.169.2-1.751.316-1.123.172-2.321.281-3.48.386-.659.06-1.318.12-1.976.192l.126 1.394c.646-.038 1.293-.064 1.942-.09 1.194-.048 2.429-.1 3.65-.223.6-.088 1.178-.157 1.753-.226a30.816 30.816 0 0 0 3.867-.63l2.707-.58 2.735-.809a23.943 23.943 0 0 0 2.7-.936c.3-.124.605-.235.906-.346a17.286 17.286 0 0 0 1.749-.724 47.686 47.686 0 0 0 9.725-5.742 38.42 38.42 0 0 0 8.075-8.089l.444-.615-3.272-1.89Z"/><path class="cls-2" d="M161.81 423.236a38.044 38.044 0 0 1-7.927 7.938 47 47 0 0 1-9.612 5.672c-.833.417-1.734.692-2.595 1.044a24.3 24.3 0 0 1-2.641.914l-2.68.794-2.733.585a55.48 55.48 0 0 1-5.513.839c-1.848.19-3.712.2-5.559.311 1.844-.2 3.7-.307 5.521-.588a55.075 55.075 0 0 0 5.418-1.106l2.662-.711 2.592-.914a23.268 23.268 0 0 0 2.539-1.026c.824-.387 1.686-.7 2.477-1.146a45.263 45.263 0 0 0 9.008-5.955 36.168 36.168 0 0 0 7.052-7.8Zm2.21-135.129a35.047 35.047 0 0 0 6.66 7.643 42.9 42.9 0 0 0 8.535 5.858 15.009 15.009 0 0 0 1.5.737c.295.13.59.262.88.4a21.651 21.651 0 0 0 2.358.99l2.518.921 2.511.693a26.57 26.57 0 0 0 3.487.78c.563.1 1.127.2 1.687.315 1.082.172 2.236.281 3.353.386.634.06 1.269.12 1.9.192l-.121 1.394c-.622-.037-1.246-.064-1.871-.09-1.15-.048-2.34-.1-3.516-.223a59.514 59.514 0 0 0-1.689-.225 28.817 28.817 0 0 1-3.725-.631l-2.608-.58-2.635-.809a22.618 22.618 0 0 1-2.6-.935 26.812 26.812 0 0 0-.873-.347 16.405 16.405 0 0 1-1.685-.724 45.542 45.542 0 0 1-9.368-5.742 37.766 37.766 0 0 1-7.78-8.089l-.427-.615 3.152-1.89Z"/><path class="cls-2" d="M161.507 289.625a37.383 37.383 0 0 0 7.636 7.939 44.943 44.943 0 0 0 9.26 5.671c.8.417 1.67.692 2.5 1.044a22.361 22.361 0 0 0 2.545.914l2.581.794 2.633.586a51.854 51.854 0 0 0 5.311.838c1.78.19 3.575.2 5.355.311-1.777-.2-3.561-.307-5.319-.588a51.353 51.353 0 0 1-5.219-1.105l-2.564-.712-2.5-.914a21.828 21.828 0 0 1-2.446-1.026c-.795-.387-1.625-.7-2.387-1.145a43.549 43.549 0 0 1-8.678-5.956 35.721 35.721 0 0 1-6.793-7.8Zm2.513 43.288a35.043 35.043 0 0 0 6.66 7.642 42.9 42.9 0 0 0 8.535 5.859 14.785 14.785 0 0 0 1.5.736c.295.131.59.263.88.4a21.659 21.659 0 0 0 2.358.991l2.518.92 2.511.694a26.73 26.73 0 0 0 3.487.779c.563.1 1.127.2 1.687.316 1.082.171 2.236.281 3.353.385.634.061 1.269.12 1.9.193l-.121 1.393c-.622-.037-1.246-.063-1.871-.09-1.15-.048-2.34-.1-3.516-.222a59.586 59.586 0 0 0-1.689-.226 28.478 28.478 0 0 1-3.725-.631l-2.608-.58-2.635-.808a22.625 22.625 0 0 1-2.6-.936c-.293-.124-.583-.235-.873-.347a16.4 16.4 0 0 1-1.685-.723 45.586 45.586 0 0 1-9.368-5.742 37.789 37.789 0 0 1-7.78-8.089l-.427-.616 3.152-1.889Z"/><path class="cls-2" d="M161.507 334.431a37.378 37.378 0 0 0 7.636 7.938 44.947 44.947 0 0 0 9.26 5.672c.8.417 1.67.692 2.5 1.043a22.361 22.361 0 0 0 2.545.914l2.581.8 2.633.585a51.581 51.581 0 0 0 5.311.838c1.78.19 3.575.2 5.355.311-1.777-.2-3.561-.307-5.319-.588a51.083 51.083 0 0 1-5.219-1.105l-2.564-.712-2.5-.914a21.822 21.822 0 0 1-2.446-1.025c-.795-.387-1.625-.7-2.387-1.146a43.545 43.545 0 0 1-8.678-5.955 35.744 35.744 0 0 1-6.793-7.8Zm2.113 43.007a35.166 35.166 0 0 0 6.735 7.643 43.4 43.4 0 0 0 8.632 5.858 14.947 14.947 0 0 0 1.512.736c.3.131.6.263.889.4a21.983 21.983 0 0 0 2.386.99l2.546.921 2.54.693a27.075 27.075 0 0 0 3.526.779c.569.1 1.139.2 1.706.316 1.093.172 2.261.281 3.39.386.642.06 1.284.12 1.925.192l-.123 1.394a98.886 98.886 0 0 0-1.891-.09c-1.164-.048-2.367-.1-3.556-.223a64.752 64.752 0 0 0-1.709-.226 29.274 29.274 0 0 1-3.766-.63l-2.638-.58-2.665-.809a22.94 22.94 0 0 1-2.633-.936c-.3-.124-.59-.235-.883-.346a16.691 16.691 0 0 1-1.7-.724 46.2 46.2 0 0 1-9.474-5.742 37.969 37.969 0 0 1-7.868-8.089l-.431-.615 3.187-1.89Z"/><path class="cls-2" d="M161.079 378.956a37.561 37.561 0 0 0 7.722 7.938 45.524 45.524 0 0 0 9.365 5.672c.811.417 1.689.692 2.528 1.044a23.2 23.2 0 0 0 2.573.914l2.61.794 2.663.585a52.745 52.745 0 0 0 5.372.839c1.8.19 3.615.2 5.415.311-1.8-.2-3.6-.307-5.379-.588a52.479 52.479 0 0 1-5.278-1.106l-2.593-.711-2.526-.914a22.319 22.319 0 0 1-2.473-1.026c-.8-.387-1.643-.7-2.414-1.146a44.035 44.035 0 0 1-8.776-5.955 35.885 35.885 0 0 1-6.87-7.8Zm1.595 42.762a35.466 35.466 0 0 0 6.913 7.643 44.652 44.652 0 0 0 8.86 5.858 15.582 15.582 0 0 0 1.552.736c.306.131.612.263.913.405a22.92 22.92 0 0 0 2.448.99l2.614.921 2.607.693a28.41 28.41 0 0 0 3.619.779c.585.1 1.169.2 1.751.316 1.123.172 2.321.281 3.48.386.659.06 1.318.12 1.976.192l-.126 1.394c-.646-.038-1.293-.064-1.942-.09-1.194-.048-2.429-.1-3.649-.223-.6-.088-1.179-.157-1.754-.226a30.771 30.771 0 0 1-3.866-.63l-2.708-.58-2.735-.809a23.943 23.943 0 0 1-2.7-.936c-.3-.124-.605-.235-.906-.346a17.286 17.286 0 0 1-1.749-.724 47.686 47.686 0 0 1-9.725-5.742 38.42 38.42 0 0 1-8.075-8.089l-.444-.615 3.272-1.89Z"/><path class="cls-2" d="M160.066 423.236a38.015 38.015 0 0 0 7.926 7.938 47 47 0 0 0 9.612 5.672c.833.417 1.734.692 2.595 1.044a24.244 24.244 0 0 0 2.642.914l2.679.794 2.733.585a55.48 55.48 0 0 0 5.513.839c1.848.19 3.712.2 5.559.311-1.844-.2-3.7-.307-5.521-.588a55 55 0 0 1-5.417-1.106l-2.663-.711-2.592-.914a23.268 23.268 0 0 1-2.539-1.026c-.824-.387-1.686-.7-2.477-1.146a45.263 45.263 0 0 1-9.008-5.955 36.168 36.168 0 0 1-7.052-7.8Z"/><path class="cls-3" d="M157.116 277.559h7.639c-.091.2-.142.306-.142.306l-1.962 174.145h-3.431l-1.962-174.145s-.051-.102-.142-.306Z"/><path class="cls-6" d="M157.116 277.559h3.819V452.01h-1.715l-1.962-174.145s-.051-.102-.142-.306Z"/><path class="cls-5" d="M160.937 279.5s3.62 0 5.114-4.344a8.913 8.913 0 0 0 .229-4.707 15.721 15.721 0 0 0-1.573-4.271 7.694 7.694 0 0 0-.813-1.184c-.83-1.019-2.594-3.329-2.957-4.945Z"/><path class="cls-2" d="M160.939 279.5s-3.62 0-5.115-4.344a8.913 8.913 0 0 1-.229-4.707 15.721 15.721 0 0 1 1.573-4.271 7.765 7.765 0 0 1 .813-1.184c.83-1.019 2.594-3.329 2.958-4.945Z"/><path class="cls-2" d="m160.937 267.873 2.652 3.499-2.652 3.5-2.652-3.5 2.652-3.499z"/><path class="cls-7" d="m158.285 271.372 2.652 3.5v-6.999l-2.652 3.499z"/><path class="cls-4" d="M172.334 457.635c-4.3-.039-10.125-2.818-11.4-6.891 1.273-4.073 7.1-6.853 11.4-6.891 4.549-.041 7.66 2.984 7.66 6.891s-3.111 6.932-7.66 6.891Z"/><path class="cls-4" d="M149.537 457.635c4.3-.039 10.125-2.818 11.4-6.891-1.274-4.073-7.1-6.853-11.4-6.891-4.549-.041-7.66 2.984-7.66 6.891s3.111 6.932 7.66 6.891Z"/><path class="cls-8" d="M153 463.868c.044-4.951 3.245-11.658 7.935-13.124 4.689 1.466 7.89 8.173 7.934 13.124.047 5.237-3.436 8.82-7.934 8.82s-7.981-3.583-7.935-8.82Z"/><path class="cls-3" d="M220.92 339.508h26.671c5.992 0 10.921 5.705 10.953 12.743-.033 7.039-4.958 12.749-10.953 12.749H220.92a94.574 94.574 0 0 1 0-25.492Z"/><path class="cls-4" d="M247.591 339.508H220.92a94.448 94.448 0 0 0-.863 12.743h38.487c-.032-7.038-4.961-12.746-10.953-12.743Z"/><path class="cls-5" d="M204.8 339.727h7.584a17.859 17.859 0 0 1 17.859 17.859 7.19 7.19 0 0 1-7.19 7.19h-28.924a7.19 7.19 0 0 1-7.19-7.19 17.859 17.859 0 0 1 17.861-17.859Z" transform="rotate(-90 208.59 352.251)"/><path class="cls-2" d="M221.115 337.79v14.461h-25.049v-3.792a17.859 17.859 0 0 1 17.859-17.859 7.19 7.19 0 0 1 7.19 7.19Z"/><path class="cls-3" d="M220.92 294.978h26.671c5.992 0 10.921 5.706 10.953 12.744-.033 7.038-4.958 12.746-10.953 12.744H220.92a94.582 94.582 0 0 1 0-25.488Z"/><path class="cls-4" d="M247.591 294.978H220.92a94.473 94.473 0 0 0-.863 12.744h38.487c-.032-7.038-4.961-12.746-10.953-12.744Z"/><path class="cls-5" d="M204.8 295.2h7.584a17.859 17.859 0 0 1 17.859 17.859 7.19 7.19 0 0 1-7.19 7.19h-28.924a7.19 7.19 0 0 1-7.19-7.19A17.859 17.859 0 0 1 204.8 295.2Z" transform="rotate(-90 208.59 307.722)"/><path class="cls-2" d="M221.115 293.261v14.461h-25.049v-3.792a17.859 17.859 0 0 1 17.859-17.859 7.19 7.19 0 0 1 7.19 7.19Z"/><path class="cls-3" d="M220.92 384.037h26.671c5.992 0 10.921 5.705 10.953 12.743-.033 7.039-4.958 12.747-10.953 12.744H220.92a94.574 94.574 0 0 1 0-25.487Z"/><path class="cls-4" d="M247.591 384.037H220.92a94.448 94.448 0 0 0-.863 12.743h38.487c-.032-7.038-4.961-12.746-10.953-12.743Z"/><path class="cls-5" d="M204.8 384.256h7.584a17.859 17.859 0 0 1 17.859 17.859 7.19 7.19 0 0 1-7.19 7.19h-28.924a7.19 7.19 0 0 1-7.19-7.19 17.859 17.859 0 0 1 17.861-17.859Z" transform="rotate(-90 208.59 396.78)"/><path class="cls-2" d="M221.115 382.319v14.461h-25.049v-3.791a17.859 17.859 0 0 1 17.859-17.86 7.191 7.191 0 0 1 7.19 7.19Z"/><path class="cls-3" d="M220.92 428.689h26.671c5.992 0 10.921 5.7 10.953 12.743-.033 7.039-4.958 12.747-10.953 12.744H220.92a94.574 94.574 0 0 1 0-25.487Z"/><path class="cls-4" d="M247.591 428.689H220.92a94.448 94.448 0 0 0-.863 12.743h38.487c-.032-7.038-4.961-12.746-10.953-12.743Z"/><path class="cls-5" d="M204.8 428.908h7.584a17.859 17.859 0 0 1 17.859 17.859 7.19 7.19 0 0 1-7.19 7.19h-28.924a7.19 7.19 0 0 1-7.19-7.19 17.859 17.859 0 0 1 17.861-17.859Z" transform="rotate(-90 208.59 441.433)"/><path class="cls-2" d="M221.115 426.971v14.461h-25.049v-3.791a17.859 17.859 0 0 1 17.859-17.86 7.191 7.191 0 0 1 7.19 7.19Z"/><path class="cls-3" d="M100.955 339.508H74.284c-5.992 0-10.921 5.705-10.953 12.743C63.364 359.29 68.289 365 74.284 365h26.671a94.574 94.574 0 0 0 0-25.492Z"/><path class="cls-4" d="M74.284 339.508h26.671a94.448 94.448 0 0 1 .863 12.743H63.331c.032-7.038 4.961-12.746 10.953-12.743Z"/><path class="cls-5" d="M98.824 339.727h28.922a7.19 7.19 0 0 1 7.19 7.19 17.859 17.859 0 0 1-17.859 17.859h-7.584a17.859 17.859 0 0 1-17.859-17.859 7.19 7.19 0 0 1 7.19-7.19Z" transform="rotate(-90 113.285 352.251)"/><path class="cls-2" d="M100.76 337.79v14.461h25.05v-3.792a17.86 17.86 0 0 0-17.86-17.859 7.19 7.19 0 0 0-7.19 7.19Z"/><path class="cls-3" d="M100.955 294.978H74.284c-5.992 0-10.921 5.706-10.953 12.744.033 7.038 4.958 12.746 10.953 12.744h26.671a94.582 94.582 0 0 0 0-25.488Z"/><path class="cls-4" d="M74.284 294.978h26.671a94.473 94.473 0 0 1 .863 12.744H63.331c.032-7.038 4.961-12.746 10.953-12.744Z"/><path class="cls-5" d="M98.824 295.2h28.922a7.19 7.19 0 0 1 7.19 7.19 17.859 17.859 0 0 1-17.859 17.859h-7.584a17.859 17.859 0 0 1-17.859-17.859 7.19 7.19 0 0 1 7.19-7.19Z" transform="rotate(-90 113.285 307.722)"/><path class="cls-2" d="M100.76 293.261v14.461h25.05v-3.792a17.86 17.86 0 0 0-17.86-17.859 7.19 7.19 0 0 0-7.19 7.19Z"/><path class="cls-3" d="M100.955 384.037H74.284c-5.992 0-10.921 5.705-10.953 12.743.033 7.039 4.958 12.747 10.953 12.744h26.671a94.574 94.574 0 0 0 0-25.487Z"/><path class="cls-4" d="M74.284 384.037h26.671a94.448 94.448 0 0 1 .863 12.743H63.331c.032-7.038 4.961-12.746 10.953-12.743Z"/><path class="cls-5" d="M98.824 384.256h28.922a7.19 7.19 0 0 1 7.19 7.19 17.859 17.859 0 0 1-17.859 17.859h-7.584a17.859 17.859 0 0 1-17.859-17.859 7.19 7.19 0 0 1 7.19-7.19Z" transform="rotate(-90 113.285 396.78)"/><path class="cls-2" d="M100.76 382.319v14.461h25.05v-3.791a17.86 17.86 0 0 0-17.86-17.86 7.191 7.191 0 0 0-7.19 7.19Z"/><path class="cls-3" d="M100.955 428.689H74.284c-5.992 0-10.921 5.7-10.953 12.743.033 7.039 4.958 12.747 10.953 12.744h26.671a94.574 94.574 0 0 0 0-25.487Z"/><path class="cls-4" d="M74.284 428.689h26.671a94.448 94.448 0 0 1 .863 12.743H63.331c.032-7.038 4.961-12.746 10.953-12.743Z"/><path class="cls-5" d="M98.824 428.908h28.922a7.19 7.19 0 0 1 7.19 7.19 17.859 17.859 0 0 1-17.859 17.859h-7.584A17.859 17.859 0 0 1 91.634 436.1a7.19 7.19 0 0 1 7.19-7.19Z" transform="rotate(-90 113.285 441.432)"/><path class="cls-2" d="M100.76 426.971v14.461h25.05v-3.791a17.86 17.86 0 0 0-17.86-17.86 7.191 7.191 0 0 0-7.19 7.19Z"/><path d="M34.131 43.62a17.343 17.343 0 0 1 6.838 5.413 12.027 12.027 0 0 1 2.066 6.918 14.362 14.362 0 0 1-3.555 9.609q-4.356 5.093-12.46 5.093-7.815 0-11.851-4.468a14.382 14.382 0 0 1-4.036-9.849 12.46 12.46 0 0 1 2.114-7.095 17.825 17.825 0 0 1 7.047-5.621 13.3 13.3 0 0 1-5.189-4.452 10.268 10.268 0 0 1-1.729-5.7 11.15 11.15 0 0 1 1.841-6.005 12.845 12.845 0 0 1 5.093-4.613 15.078 15.078 0 0 1 7.031-1.681 14.123 14.123 0 0 1 6.822 1.7 12.724 12.724 0 0 1 4.916 4.613 11.564 11.564 0 0 1 1.778 6.117 9.974 9.974 0 0 1-1.681 5.7 13.913 13.913 0 0 1-5.045 4.321Zm-6.807 2.37a11.335 11.335 0 0 0-8.156 3.155 9.884 9.884 0 0 0-3.294 7.355 9.479 9.479 0 0 0 5.343 8.456 13.049 13.049 0 0 0 5.851 1.244 11.064 11.064 0 0 0 8.189-3.043 9.76 9.76 0 0 0 3.043-7.11 9.424 9.424 0 0 0-3.214-7 10.855 10.855 0 0 0-7.762-3.057ZM27.1 25.747a9.257 9.257 0 0 0-6.432 2.29 7.094 7.094 0 0 0-2.552 5.463 7.621 7.621 0 0 0 2.744 5.686 9.107 9.107 0 0 0 6.4 2.546 8.988 8.988 0 0 0 4.426-1.153 8.431 8.431 0 0 0 3.262-3.155 7.912 7.912 0 0 0 1.169-4.02 7.439 7.439 0 0 0-2.312-5.253Q31.5 25.747 27.1 25.747ZM287.744 456.38a17.343 17.343 0 0 1-6.838-5.413 12.029 12.029 0 0 1-2.066-6.918 14.362 14.362 0 0 1 3.555-9.609q4.356-5.092 12.46-5.093 7.815 0 11.851 4.468a14.382 14.382 0 0 1 4.036 9.849 12.46 12.46 0 0 1-2.114 7.1 17.818 17.818 0 0 1-7.047 5.621 13.3 13.3 0 0 1 5.189 4.452 10.269 10.269 0 0 1 1.73 5.7 11.154 11.154 0 0 1-1.842 6 12.853 12.853 0 0 1-5.093 4.613 15.077 15.077 0 0 1-7.03 1.681 14.114 14.114 0 0 1-6.823-1.7 12.715 12.715 0 0 1-4.916-4.612 11.573 11.573 0 0 1-1.778-6.117 9.975 9.975 0 0 1 1.682-5.7 13.9 13.9 0 0 1 5.044-4.322Zm6.807-2.37a11.339 11.339 0 0 0 8.157-3.155A9.884 9.884 0 0 0 306 443.5a9.479 9.479 0 0 0-5.343-8.456 13.049 13.049 0 0 0-5.851-1.249 11.06 11.06 0 0 0-8.189 3.043 9.76 9.76 0 0 0-3.038 7.111 9.424 9.424 0 0 0 3.214 7 10.855 10.855 0 0 0 7.758 3.061Zm.224 20.243a9.261 9.261 0 0 0 6.432-2.29 7.094 7.094 0 0 0 2.552-5.461 7.621 7.621 0 0 0-2.744-5.686 9.105 9.105 0 0 0-6.4-2.546 8.991 8.991 0 0 0-4.426 1.153 8.421 8.421 0 0 0-3.261 3.155 7.9 7.9 0 0 0-1.17 4.02 7.439 7.439 0 0 0 2.312 5.253q2.306 2.402 6.705 2.402Z"/></svg>