<svg id="Layer_1" data-name="Layer 1" xmlns="http://www.w3.org/2000/svg" viewBox="0 0 321.875 500"><defs><style>.cls-2{fill:#02592d}.cls-3{fill:#ffc306}.cls-4{fill:#a50404}.cls-5{fill:#05703d}.cls-6{fill:#ef870a}</style></defs><path style="fill:#fff" d="M0 0h321.875v500H0z"/><path d="M268.453 481.248H45.383a26.661 26.661 0 0 1-26.63-26.63V125.1a1.25 1.25 0 0 1 2.5 0v329.518a24.157 24.157 0 0 0 24.13 24.13h223.07a1.25 1.25 0 0 1 0 2.5Zm33.42-105.09a1.25 1.25 0 0 1-1.25-1.25V45.387a24.162 24.162 0 0 0-24.13-24.139H53.423a1.25 1.25 0 0 1 0-2.5h223.07a26.664 26.664 0 0 1 26.63 26.639v329.521a1.25 1.25 0 0 1-1.25 1.25Z"/><path class="cls-2" d="M157.6 71.782a38.656 38.656 0 0 0-8.733-6.326 64.587 64.587 0 0 0-11.192-4.849c-.649-.24-1.29-.42-1.969-.611-.383-.108-.767-.216-1.145-.331-1.024-.306-2.039-.6-3.094-.822l-3.3-.761-3.294-.575c-1.5-.3-2.99-.468-4.572-.645a116.01 116.01 0 0 1-2.212-.261c-1.418-.142-2.932-.233-4.4-.319-.832-.05-1.665-.1-2.5-.159l.159-1.154c.816.031 1.634.053 2.453.075 1.509.039 3.069.08 4.611.184.766.073 1.495.131 2.225.187 1.6.126 3.255.256 4.875.523l3.42.479 3.455.669c1.157.2 2.276.481 3.413.774.386.1.766.2 1.146.287.729.177 1.483.361 2.21.6a72.3 72.3 0 0 1 12.288 4.753 44.514 44.514 0 0 1 10.2 6.7l.56.509-4.133 1.563Zm0 159.842a38.656 38.656 0 0 0-8.733-6.325 64.587 64.587 0 0 0-11.192-4.849c-.649-.24-1.29-.421-1.969-.611-.383-.108-.767-.216-1.145-.332-1.024-.305-2.039-.6-3.094-.821l-3.3-.761-3.294-.575c-1.5-.3-2.99-.468-4.572-.645-.738-.083-1.477-.165-2.212-.261-1.418-.143-2.932-.233-4.4-.32-.832-.05-1.665-.1-2.5-.159l.159-1.153c.816.031 1.634.052 2.453.074 1.509.04 3.069.081 4.611.184.766.074 1.495.131 2.225.188 1.6.125 3.255.255 4.875.523l3.42.478 3.455.67c1.157.2 2.276.481 3.413.773.386.1.766.2 1.146.288.729.177 1.483.36 2.21.6a72.219 72.219 0 0 1 12.285 4.753 44.481 44.481 0 0 1 10.2 6.7l.56.509-4.133 1.563Zm0-39.234a38.656 38.656 0 0 0-8.733-6.325 64.587 64.587 0 0 0-11.192-4.849c-.649-.24-1.29-.421-1.969-.611-.383-.108-.767-.216-1.145-.332-1.024-.305-2.039-.6-3.094-.821l-3.3-.761-3.294-.575c-1.5-.3-2.99-.468-4.572-.645-.738-.083-1.477-.165-2.212-.261-1.418-.142-2.932-.233-4.4-.319-.832-.051-1.665-.1-2.5-.16l.159-1.153c.816.031 1.634.052 2.453.074 1.509.04 3.069.081 4.611.185.766.073 1.495.13 2.225.187 1.6.125 3.255.255 4.875.523l3.42.478 3.455.67c1.157.2 2.276.481 3.413.773.386.1.766.2 1.146.288.729.177 1.483.361 2.21.6a72.3 72.3 0 0 1 12.285 4.753 44.481 44.481 0 0 1 10.2 6.7l.56.509-4.133 1.563Zm0-40.203a38.686 38.686 0 0 0-8.733-6.325 64.587 64.587 0 0 0-11.192-4.849c-.649-.24-1.29-.421-1.969-.611-.383-.108-.767-.216-1.145-.332-1.024-.305-2.039-.6-3.094-.821l-3.3-.761-3.294-.575c-1.5-.3-2.99-.468-4.572-.645a116.01 116.01 0 0 1-2.212-.261c-1.418-.142-2.932-.233-4.4-.319-.832-.05-1.665-.1-2.5-.16l.159-1.153c.816.031 1.634.053 2.453.074 1.509.04 3.069.081 4.611.185.766.073 1.495.131 2.225.187 1.6.125 3.255.256 4.875.523l3.42.479 3.455.669c1.157.2 2.276.481 3.413.773.386.1.766.2 1.146.288.729.177 1.483.361 2.21.6a72.3 72.3 0 0 1 12.285 4.753 44.481 44.481 0 0 1 10.2 6.7l.56.509-4.133 1.563Zm0-40.203a38.686 38.686 0 0 0-8.733-6.325 64.587 64.587 0 0 0-11.192-4.849c-.649-.24-1.29-.42-1.969-.611-.383-.108-.767-.216-1.145-.332-1.024-.305-2.039-.6-3.094-.821l-3.3-.761-3.294-.575c-1.5-.3-2.99-.468-4.572-.645a116.01 116.01 0 0 1-2.212-.261c-1.418-.142-2.932-.233-4.4-.319-.832-.05-1.665-.1-2.5-.16l.159-1.153c.816.031 1.634.053 2.453.074 1.509.04 3.069.081 4.611.185.766.073 1.495.131 2.225.187 1.6.126 3.255.256 4.875.523l3.42.479 3.455.669c1.157.2 2.276.481 3.413.774.386.1.766.195 1.146.287.729.177 1.483.361 2.21.6a72.3 72.3 0 0 1 12.285 4.753 44.481 44.481 0 0 1 10.2 6.7l.56.509-4.133 1.563Z"/><path class="cls-3" d="M96.731 227.472H72.023c-5.552 0-10.117-5.121-10.147-11.439.03-6.318 4.593-11.441 10.147-11.439h24.708a82.309 82.309 0 0 1 0 22.878Z"/><path class="cls-4" d="M72.023 227.472h24.708a82.3 82.3 0 0 0 .8-11.439H61.876c.03 6.318 4.595 11.441 10.147 11.439Z"/><path class="cls-5" d="M105.263 204.431h5.779a16.545 16.545 0 0 1 16.545 16.545 6.661 6.661 0 0 1-6.661 6.661H95.379a6.661 6.661 0 0 1-6.661-6.661 16.545 16.545 0 0 1 16.545-16.545Z" transform="rotate(90 108.153 216.033)"/><path class="cls-2" d="M96.55 229.014v-12.981h23.205v3.4a16.293 16.293 0 0 1-16.544 16.03 6.559 6.559 0 0 1-6.661-6.449Z"/><path class="cls-3" d="M96.731 187.936H72.023c-5.552 0-10.117-5.121-10.147-11.438.03-6.318 4.593-11.442 10.147-11.439h24.708a82.3 82.3 0 0 1 0 22.877Z"/><path class="cls-4" d="M72.023 187.936h24.708a82.3 82.3 0 0 0 .8-11.438H61.876c.03 6.317 4.595 11.44 10.147 11.438Z"/><path class="cls-5" d="M105.263 164.895h5.779a16.545 16.545 0 0 1 16.545 16.545 6.661 6.661 0 0 1-6.661 6.661H95.379a6.661 6.661 0 0 1-6.661-6.661 16.545 16.545 0 0 1 16.545-16.545Z" transform="rotate(90 108.152 176.498)"/><path class="cls-2" d="M96.55 189.478V176.5h23.205v3.4a16.293 16.293 0 0 1-16.544 16.031 6.56 6.56 0 0 1-6.661-6.453Z"/><path class="cls-3" d="M96.731 147.733H72.023c-5.552 0-10.117-5.121-10.147-11.438.03-6.318 4.593-11.442 10.147-11.439h24.708a82.3 82.3 0 0 1 0 22.877Z"/><path class="cls-4" d="M72.023 147.733h24.708a82.3 82.3 0 0 0 .8-11.438H61.876c.03 6.317 4.595 11.441 10.147 11.438Z"/><path class="cls-5" d="M105.263 124.692h5.779a16.545 16.545 0 0 1 16.545 16.545 6.661 6.661 0 0 1-6.661 6.661H95.379a6.661 6.661 0 0 1-6.661-6.661 16.545 16.545 0 0 1 16.545-16.545Z" transform="rotate(90 108.153 136.295)"/><path class="cls-2" d="M96.55 149.275v-12.98h23.205v3.4a16.293 16.293 0 0 1-16.544 16.031 6.56 6.56 0 0 1-6.661-6.451Z"/><path class="cls-3" d="M96.731 107.53H72.023c-5.552 0-10.117-5.121-10.147-11.438.03-6.318 4.593-11.441 10.147-11.439h24.708a82.3 82.3 0 0 1 0 22.877Z"/><path class="cls-4" d="M72.023 107.53h24.708a82.3 82.3 0 0 0 .8-11.438H61.876c.03 6.317 4.595 11.441 10.147 11.438Z"/><path class="cls-5" d="M105.263 84.489h5.779a16.545 16.545 0 0 1 16.545 16.545 6.661 6.661 0 0 1-6.661 6.661H95.379a6.661 6.661 0 0 1-6.661-6.661 16.545 16.545 0 0 1 16.545-16.545Z" transform="rotate(90 108.153 96.092)"/><path class="cls-2" d="M96.55 109.072v-12.98h23.205v3.4a16.293 16.293 0 0 1-16.544 16.031 6.56 6.56 0 0 1-6.661-6.451Z"/><path class="cls-3" d="M96.731 67.328H72.023c-5.552 0-10.117-5.122-10.147-11.439.03-6.318 4.593-11.441 10.147-11.439h24.708a82.309 82.309 0 0 1 0 22.878Z"/><path class="cls-4" d="M72.023 67.328h24.708a82.31 82.31 0 0 0 .8-11.439H61.876c.03 6.317 4.595 11.441 10.147 11.439Z"/><path class="cls-5" d="M105.263 44.286h5.779a16.545 16.545 0 0 1 16.545 16.545 6.661 6.661 0 0 1-6.661 6.661H95.379a6.661 6.661 0 0 1-6.661-6.661 16.545 16.545 0 0 1 16.545-16.545Z" transform="rotate(90 108.153 55.889)"/><path class="cls-2" d="M96.55 68.869v-12.98h23.205v3.4a16.293 16.293 0 0 1-16.544 16.031 6.56 6.56 0 0 1-6.661-6.451Zm67.733 2.913a38.648 38.648 0 0 1 8.732-6.326 64.629 64.629 0 0 1 11.193-4.849c.649-.24 1.29-.42 1.968-.611.384-.108.768-.216 1.146-.331 1.024-.306 2.038-.6 3.093-.822l3.3-.761 3.293-.575c1.5-.3 2.991-.468 4.573-.645a114.96 114.96 0 0 0 2.211-.261c1.419-.142 2.933-.233 4.4-.319.832-.05 1.665-.1 2.5-.159l-.159-1.154c-.816.031-1.634.053-2.453.075-1.509.039-3.07.08-4.611.184-.766.073-1.5.131-2.225.187-1.6.126-3.256.256-4.875.523l-3.42.479-3.455.669c-1.158.2-2.276.481-3.414.774-.385.1-.765.2-1.145.287-.729.177-1.483.361-2.21.6a72.3 72.3 0 0 0-12.29 4.753 44.544 44.544 0 0 0-10.2 6.7l-.56.509 4.134 1.563Zm0 159.842a38.647 38.647 0 0 1 8.732-6.325 64.629 64.629 0 0 1 11.193-4.849c.649-.24 1.29-.421 1.968-.611.384-.108.768-.216 1.146-.332 1.024-.305 2.038-.6 3.093-.821l3.3-.761 3.293-.575c1.5-.3 2.991-.468 4.573-.645.738-.083 1.477-.165 2.211-.261 1.419-.143 2.933-.233 4.4-.32.832-.05 1.665-.1 2.5-.159l-.159-1.153c-.816.031-1.634.052-2.453.074-1.509.04-3.07.081-4.611.184-.766.074-1.5.131-2.225.188-1.6.125-3.256.255-4.875.523l-3.42.478-3.455.67c-1.158.2-2.276.481-3.414.773-.385.1-.765.2-1.145.288-.729.177-1.483.36-2.21.6a72.219 72.219 0 0 0-12.285 4.753 44.511 44.511 0 0 0-10.2 6.7l-.56.509 4.134 1.563Zm0-39.234a38.647 38.647 0 0 1 8.732-6.325 64.629 64.629 0 0 1 11.193-4.849c.649-.24 1.29-.421 1.968-.611.384-.108.768-.216 1.146-.332 1.024-.305 2.038-.6 3.093-.821l3.3-.761 3.293-.575c1.5-.3 2.991-.468 4.573-.645.738-.083 1.477-.165 2.211-.261 1.419-.142 2.933-.233 4.4-.319.832-.051 1.665-.1 2.5-.16l-.159-1.153c-.816.031-1.634.052-2.453.074-1.509.04-3.07.081-4.611.185-.766.073-1.5.13-2.225.187-1.6.125-3.256.255-4.875.523l-3.42.478-3.455.67c-1.158.2-2.276.481-3.414.773-.385.1-.765.2-1.145.288-.729.177-1.483.361-2.21.6a72.3 72.3 0 0 0-12.285 4.753 44.511 44.511 0 0 0-10.2 6.7l-.56.509 4.134 1.563Zm0-40.203a38.678 38.678 0 0 1 8.732-6.325 64.629 64.629 0 0 1 11.193-4.849c.649-.24 1.29-.421 1.968-.611.384-.108.768-.216 1.146-.332 1.024-.305 2.038-.6 3.093-.821l3.3-.761 3.293-.575c1.5-.3 2.991-.468 4.573-.645a114.96 114.96 0 0 0 2.211-.261c1.419-.142 2.933-.233 4.4-.319.832-.05 1.665-.1 2.5-.16l-.159-1.153c-.816.031-1.634.053-2.453.074-1.509.04-3.07.081-4.611.185-.766.073-1.5.131-2.225.187-1.6.125-3.256.256-4.875.523l-3.42.479-3.455.669c-1.158.2-2.276.481-3.414.773-.385.1-.765.2-1.145.288-.729.177-1.483.361-2.21.6a72.3 72.3 0 0 0-12.285 4.753 44.511 44.511 0 0 0-10.2 6.7l-.56.509 4.134 1.563Zm0-40.203a38.678 38.678 0 0 1 8.732-6.325 64.629 64.629 0 0 1 11.193-4.849c.649-.24 1.29-.42 1.968-.611.384-.108.768-.216 1.146-.332 1.024-.305 2.038-.6 3.093-.821l3.3-.761 3.293-.575c1.5-.3 2.991-.468 4.573-.645a114.96 114.96 0 0 0 2.211-.261c1.419-.142 2.933-.233 4.4-.319.832-.05 1.665-.1 2.5-.16l-.159-1.153c-.816.031-1.634.053-2.453.074-1.509.04-3.07.081-4.611.185-.766.073-1.5.131-2.225.187-1.6.126-3.256.256-4.875.523l-3.42.479-3.455.669c-1.158.2-2.276.481-3.414.774-.385.1-.765.195-1.145.287-.729.177-1.483.361-2.21.6a72.3 72.3 0 0 0-12.285 4.753 44.511 44.511 0 0 0-10.2 6.7l-.56.509 4.134 1.563Z"/><path class="cls-3" d="M225.148 227.472h24.708c5.551 0 10.117-5.121 10.147-11.439-.031-6.318-4.593-11.441-10.147-11.439h-24.708a82.309 82.309 0 0 0 0 22.878Z"/><path class="cls-4" d="M249.856 227.472h-24.708a82.146 82.146 0 0 1-.8-11.439H260c-.027 6.318-4.593 11.441-10.144 11.439Z"/><path class="cls-5" d="M200.953 204.431H226.5a6.661 6.661 0 0 1 6.661 6.661 16.545 16.545 0 0 1-16.545 16.545h-5.779a16.545 16.545 0 0 1-16.545-16.545 6.661 6.661 0 0 1 6.661-6.661Z" transform="rotate(90 213.726 216.033)"/><path class="cls-2" d="M225.329 229.014v-12.981h-23.206v3.4a16.294 16.294 0 0 0 16.545 16.03 6.559 6.559 0 0 0 6.661-6.449Z"/><path class="cls-3" d="M225.148 187.936h24.708c5.551 0 10.117-5.121 10.147-11.438-.031-6.318-4.593-11.442-10.147-11.439h-24.708a82.3 82.3 0 0 0 0 22.877Z"/><path class="cls-4" d="M249.856 187.936h-24.708a82.142 82.142 0 0 1-.8-11.438H260c-.027 6.317-4.593 11.44-10.144 11.438Z"/><path class="cls-5" d="M200.953 164.895H226.5a6.661 6.661 0 0 1 6.661 6.661 16.545 16.545 0 0 1-16.545 16.544h-5.779a16.545 16.545 0 0 1-16.545-16.545 6.661 6.661 0 0 1 6.661-6.661Z" transform="rotate(90 213.726 176.498)"/><path class="cls-2" d="M225.329 189.478V176.5h-23.206v3.4a16.294 16.294 0 0 0 16.545 16.031 6.56 6.56 0 0 0 6.661-6.453Z"/><path class="cls-3" d="M225.148 147.733h24.708c5.551 0 10.117-5.121 10.147-11.438-.031-6.318-4.593-11.442-10.147-11.439h-24.708a82.3 82.3 0 0 0 0 22.877Z"/><path class="cls-4" d="M249.856 147.733h-24.708a82.142 82.142 0 0 1-.8-11.438H260c-.027 6.317-4.593 11.441-10.144 11.438Z"/><path class="cls-5" d="M200.953 124.692H226.5a6.661 6.661 0 0 1 6.661 6.661 16.545 16.545 0 0 1-16.545 16.547h-5.779a16.545 16.545 0 0 1-16.545-16.545 6.661 6.661 0 0 1 6.661-6.661Z" transform="rotate(90 213.726 136.295)"/><path class="cls-2" d="M225.329 149.275v-12.98h-23.206v3.4a16.294 16.294 0 0 0 16.545 16.031 6.56 6.56 0 0 0 6.661-6.451Z"/><path class="cls-3" d="M225.148 107.53h24.708c5.551 0 10.117-5.121 10.147-11.438-.031-6.318-4.593-11.441-10.147-11.439h-24.708a82.3 82.3 0 0 0 0 22.877Z"/><path class="cls-4" d="M249.856 107.53h-24.708a82.142 82.142 0 0 1-.8-11.438H260c-.027 6.317-4.593 11.441-10.144 11.438Z"/><path class="cls-5" d="M200.953 84.489H226.5a6.661 6.661 0 0 1 6.661 6.661 16.545 16.545 0 0 1-16.545 16.545h-5.779a16.545 16.545 0 0 1-16.545-16.545 6.661 6.661 0 0 1 6.661-6.661Z" transform="rotate(90 213.726 96.092)"/><path class="cls-2" d="M225.329 109.072v-12.98h-23.206v3.4a16.294 16.294 0 0 0 16.545 16.031 6.56 6.56 0 0 0 6.661-6.451Z"/><path class="cls-3" d="M225.148 67.328h24.708c5.551 0 10.117-5.122 10.147-11.439-.031-6.318-4.593-11.441-10.147-11.439h-24.708a82.309 82.309 0 0 0 0 22.878Z"/><path class="cls-4" d="M249.856 67.328h-24.708a82.156 82.156 0 0 1-.8-11.439H260c-.027 6.317-4.593 11.441-10.144 11.439Z"/><path class="cls-5" d="M200.953 44.286H226.5a6.661 6.661 0 0 1 6.661 6.661 16.545 16.545 0 0 1-16.545 16.545h-5.779a16.545 16.545 0 0 1-16.545-16.545 6.661 6.661 0 0 1 6.661-6.661Z" transform="rotate(90 213.726 55.889)"/><path class="cls-2" d="M225.329 68.869v-12.98h-23.206v3.4a16.294 16.294 0 0 0 16.545 16.031 6.56 6.56 0 0 0 6.661-6.451Z"/><path class="cls-3" d="M165.049 237.776h-8.219a.424.424 0 0 1 .044-.057l1.217-172.728a2.868 2.868 0 0 1 2.848-2.867 2.868 2.868 0 0 1 2.848 2.867l1.217 172.728a.247.247 0 0 0 .045.057Z"/><path class="cls-6" d="m165.005 237.719-1.217-172.728a2.868 2.868 0 0 0-2.848-2.867v175.652h4.109a.276.276 0 0 1-.044-.057Z"/><path class="cls-5" d="M159.952 234.116s3.514-1.22 4.95 1.915-1.172 8.137-5.622 11.228c0 0 1.127-1.422-.7-3.571s-4.686-6.928 1.372-9.572Z"/><ellipse class="cls-2" cx="161.707" cy="238.526" rx="2.71" ry="2.073" transform="rotate(-76.768 161.707 238.526)"/><path class="cls-2" d="M164.279 428.218a38.656 38.656 0 0 0 8.733 6.326 64.6 64.6 0 0 0 11.193 4.849c.648.24 1.289.42 1.968.611.383.108.767.216 1.145.331 1.024.306 2.039.6 3.094.822l3.3.761 3.294.575c1.5.3 2.99.468 4.572.645.738.082 1.477.165 2.212.261 1.418.142 2.932.233 4.4.319.832.05 1.665.1 2.5.159l-.16 1.154c-.816-.031-1.634-.053-2.453-.075-1.509-.039-3.069-.08-4.611-.184-.766-.073-1.5-.131-2.225-.187-1.6-.126-3.255-.256-4.875-.523l-3.419-.479-3.456-.669c-1.157-.2-2.276-.481-3.413-.774-.386-.1-.766-.195-1.146-.287-.729-.177-1.482-.361-2.209-.6a72.28 72.28 0 0 1-12.286-4.753 44.536 44.536 0 0 1-10.2-6.7l-.56-.509 4.133-1.563Zm0-159.842a38.656 38.656 0 0 0 8.733 6.325 64.6 64.6 0 0 0 11.193 4.849c.648.24 1.289.421 1.968.611.383.108.767.216 1.145.332 1.024.305 2.039.6 3.094.821l3.3.761 3.294.575c1.5.3 2.99.468 4.572.645.738.083 1.477.165 2.212.261 1.418.143 2.932.233 4.4.32.832.05 1.665.1 2.5.159l-.16 1.153c-.816-.031-1.634-.052-2.453-.074-1.509-.04-3.069-.081-4.611-.184-.766-.074-1.5-.131-2.225-.188-1.6-.125-3.255-.255-4.875-.523l-3.419-.478-3.456-.67c-1.157-.2-2.276-.481-3.413-.773-.386-.1-.766-.2-1.146-.288-.729-.177-1.482-.36-2.209-.6a72.2 72.2 0 0 1-12.286-4.753 44.5 44.5 0 0 1-10.2-6.7l-.56-.509 4.133-1.563Zm0 39.234a38.686 38.686 0 0 0 8.733 6.325 64.6 64.6 0 0 0 11.193 4.849c.648.24 1.289.421 1.968.611.383.108.767.216 1.145.332 1.024.305 2.039.6 3.094.821l3.3.761 3.294.575c1.5.3 2.99.468 4.572.645.738.083 1.477.165 2.212.261 1.418.142 2.932.233 4.4.319.832.051 1.665.1 2.5.16l-.16 1.153c-.816-.031-1.634-.052-2.453-.074-1.509-.04-3.069-.081-4.611-.185-.766-.073-1.5-.13-2.225-.187-1.6-.125-3.255-.255-4.875-.523l-3.419-.478-3.456-.67c-1.157-.2-2.276-.481-3.413-.773-.386-.1-.766-.2-1.146-.288-.729-.177-1.482-.361-2.209-.6a72.28 72.28 0 0 1-12.286-4.753 44.5 44.5 0 0 1-10.2-6.7l-.56-.509 4.133-1.563Zm0 40.203a38.686 38.686 0 0 0 8.733 6.325 64.6 64.6 0 0 0 11.193 4.849c.648.24 1.289.421 1.968.611.383.108.767.216 1.145.332 1.024.305 2.039.6 3.094.821l3.3.761 3.294.575c1.5.3 2.99.468 4.572.645.738.082 1.477.165 2.212.261 1.418.142 2.932.233 4.4.319.832.05 1.665.1 2.5.16l-.16 1.153c-.816-.031-1.634-.053-2.453-.074-1.509-.04-3.069-.081-4.611-.185-.766-.073-1.5-.131-2.225-.187-1.6-.125-3.255-.256-4.875-.523l-3.419-.479-3.456-.669c-1.157-.2-2.276-.481-3.413-.773-.386-.1-.766-.2-1.146-.288-.729-.177-1.482-.361-2.209-.6a72.28 72.28 0 0 1-12.286-4.753 44.5 44.5 0 0 1-10.2-6.7l-.56-.509 4.133-1.563Zm0 40.203a38.686 38.686 0 0 0 8.733 6.325 64.6 64.6 0 0 0 11.193 4.849c.648.24 1.289.42 1.968.611.383.108.767.216 1.145.332 1.024.305 2.039.6 3.094.821l3.3.761 3.294.575c1.5.3 2.99.468 4.572.645.738.082 1.477.165 2.212.261 1.418.142 2.932.233 4.4.319.832.05 1.665.1 2.5.16l-.16 1.153c-.816-.031-1.634-.053-2.453-.074-1.509-.04-3.069-.081-4.611-.185-.766-.073-1.5-.131-2.225-.187-1.6-.126-3.255-.256-4.875-.523l-3.419-.479-3.456-.669c-1.157-.2-2.276-.481-3.413-.774-.386-.1-.766-.195-1.146-.287-.729-.177-1.482-.361-2.209-.6a72.28 72.28 0 0 1-12.286-4.753 44.5 44.5 0 0 1-10.2-6.7l-.56-.509 4.133-1.563Z"/><path class="cls-3" d="M225.144 272.528h24.708c5.552 0 10.117 5.121 10.147 11.439-.03 6.318-4.593 11.441-10.147 11.439h-24.708a82.309 82.309 0 0 1 0-22.878Z"/><path class="cls-4" d="M249.852 272.528h-24.708a82.3 82.3 0 0 0-.8 11.439H260c-.031-6.318-4.6-11.441-10.148-11.439Z"/><path class="cls-5" d="M210.833 272.364h5.779a16.545 16.545 0 0 1 16.545 16.545 6.661 6.661 0 0 1-6.661 6.661h-25.547a6.661 6.661 0 0 1-6.661-6.661 16.545 16.545 0 0 1 16.545-16.545Z" transform="rotate(-90 213.723 283.967)"/><path class="cls-2" d="M225.325 270.986v12.981h-23.2v-3.4a16.293 16.293 0 0 1 16.544-16.03 6.559 6.559 0 0 1 6.656 6.449Z"/><path class="cls-3" d="M225.144 312.064h24.708c5.552 0 10.117 5.121 10.147 11.438-.03 6.318-4.593 11.442-10.147 11.439h-24.708a82.3 82.3 0 0 1 0-22.877Z"/><path class="cls-4" d="M249.852 312.064h-24.708a82.294 82.294 0 0 0-.8 11.438H260c-.031-6.317-4.6-11.44-10.148-11.438Z"/><path class="cls-5" d="M210.833 311.9h5.779a16.545 16.545 0 0 1 16.545 16.545 6.661 6.661 0 0 1-6.661 6.661h-25.547a6.661 6.661 0 0 1-6.661-6.661 16.545 16.545 0 0 1 16.545-16.545Z" transform="rotate(-90 213.723 323.502)"/><path class="cls-2" d="M225.325 310.522V323.5h-23.2v-3.4a16.293 16.293 0 0 1 16.544-16.031 6.56 6.56 0 0 1 6.656 6.453Z"/><path class="cls-3" d="M225.144 352.267h24.708c5.552 0 10.117 5.121 10.147 11.438-.03 6.318-4.593 11.442-10.147 11.439h-24.708a82.3 82.3 0 0 1 0-22.877Z"/><path class="cls-4" d="M249.852 352.267h-24.708a82.294 82.294 0 0 0-.8 11.438H260c-.031-6.317-4.6-11.441-10.148-11.438Z"/><path class="cls-5" d="M210.833 352.1h5.779a16.545 16.545 0 0 1 16.545 16.545 6.661 6.661 0 0 1-6.661 6.661h-25.547a6.661 6.661 0 0 1-6.661-6.661 16.545 16.545 0 0 1 16.545-16.545Z" transform="rotate(-90 213.723 363.705)"/><path class="cls-2" d="M225.325 350.725v12.98h-23.2v-3.4a16.293 16.293 0 0 1 16.544-16.031 6.56 6.56 0 0 1 6.656 6.451Z"/><path class="cls-3" d="M225.144 392.47h24.708c5.552 0 10.117 5.121 10.147 11.438-.03 6.318-4.593 11.441-10.147 11.439h-24.708a82.3 82.3 0 0 1 0-22.877Z"/><path class="cls-4" d="M249.852 392.47h-24.708a82.294 82.294 0 0 0-.8 11.438H260c-.031-6.317-4.6-11.441-10.148-11.438Z"/><path class="cls-5" d="M210.833 392.306h5.779a16.545 16.545 0 0 1 16.545 16.545 6.661 6.661 0 0 1-6.661 6.661h-25.547a6.661 6.661 0 0 1-6.661-6.661 16.545 16.545 0 0 1 16.545-16.545Z" transform="rotate(-90 213.723 403.909)"/><path class="cls-2" d="M225.325 390.928v12.98h-23.2v-3.4a16.293 16.293 0 0 1 16.544-16.031 6.56 6.56 0 0 1 6.656 6.451Z"/><path class="cls-3" d="M225.144 432.672h24.708c5.552 0 10.117 5.122 10.147 11.439-.03 6.318-4.593 11.441-10.147 11.439h-24.708a82.309 82.309 0 0 1 0-22.878Z"/><path class="cls-4" d="M249.852 432.672h-24.708a82.309 82.309 0 0 0-.8 11.439H260c-.031-6.317-4.6-11.441-10.148-11.439Z"/><path class="cls-5" d="M210.833 432.509h5.779a16.545 16.545 0 0 1 16.545 16.545 6.661 6.661 0 0 1-6.661 6.661h-25.547a6.661 6.661 0 0 1-6.661-6.661 16.545 16.545 0 0 1 16.545-16.545Z" transform="rotate(-90 213.722 444.111)"/><path class="cls-2" d="M225.325 431.131v12.98h-23.2v-3.4a16.293 16.293 0 0 1 16.544-16.031 6.56 6.56 0 0 1 6.656 6.451Zm-67.733-2.913a38.648 38.648 0 0 1-8.732 6.326 64.629 64.629 0 0 1-11.193 4.849c-.649.24-1.29.42-1.968.611-.384.108-.768.216-1.146.331-1.023.306-2.038.6-3.093.822l-3.3.761-3.293.575c-1.5.3-2.99.468-4.573.645-.738.082-1.477.165-2.211.261-1.419.142-2.933.233-4.4.319-.832.05-1.665.1-2.5.159l.159 1.154c.816-.031 1.634-.053 2.453-.075 1.509-.039 3.07-.08 4.611-.184.766-.073 1.5-.131 2.225-.187 1.6-.126 3.256-.256 4.875-.523l3.42-.479 3.455-.669c1.158-.2 2.277-.481 3.414-.774.385-.1.765-.195 1.146-.287.728-.177 1.482-.361 2.209-.6a72.27 72.27 0 0 0 12.29-4.753 44.522 44.522 0 0 0 10.2-6.7l.56-.509-4.134-1.563Zm0-159.842a38.647 38.647 0 0 1-8.732 6.325 64.629 64.629 0 0 1-11.193 4.849c-.649.24-1.29.421-1.968.611-.384.108-.768.216-1.146.332-1.023.305-2.038.6-3.093.821l-3.3.761-3.293.575c-1.5.3-2.99.468-4.573.645-.738.083-1.477.165-2.211.261-1.419.143-2.933.233-4.4.32-.832.05-1.665.1-2.5.159l.159 1.153c.816-.031 1.634-.052 2.453-.074 1.509-.04 3.07-.081 4.611-.184.766-.074 1.5-.131 2.225-.188 1.6-.125 3.256-.255 4.875-.523l3.42-.478 3.455-.67c1.158-.2 2.277-.481 3.414-.773.385-.1.765-.2 1.146-.288.728-.177 1.482-.36 2.209-.6a72.187 72.187 0 0 0 12.285-4.753 44.489 44.489 0 0 0 10.2-6.7l.56-.509-4.134-1.563Zm0 39.234a38.678 38.678 0 0 1-8.732 6.325 64.629 64.629 0 0 1-11.193 4.849c-.649.24-1.29.421-1.968.611-.384.108-.768.216-1.146.332-1.023.305-2.038.6-3.093.821l-3.3.761-3.293.575c-1.5.3-2.99.468-4.573.645-.738.083-1.477.165-2.211.261-1.419.142-2.933.233-4.4.319-.832.051-1.665.1-2.5.16l.159 1.153c.816-.031 1.634-.052 2.453-.074 1.509-.04 3.07-.081 4.611-.185.766-.073 1.5-.13 2.225-.187 1.6-.125 3.256-.255 4.875-.523l3.42-.478 3.455-.67c1.158-.2 2.277-.481 3.414-.773.385-.1.765-.2 1.146-.288.728-.177 1.482-.361 2.209-.6a72.27 72.27 0 0 0 12.285-4.753 44.489 44.489 0 0 0 10.2-6.7l.56-.509-4.134-1.563Zm0 40.203a38.678 38.678 0 0 1-8.732 6.325 64.629 64.629 0 0 1-11.193 4.849c-.649.24-1.29.421-1.968.611-.384.108-.768.216-1.146.332-1.023.305-2.038.6-3.093.821l-3.3.761-3.293.575c-1.5.3-2.99.468-4.573.645-.738.082-1.477.165-2.211.261-1.419.142-2.933.233-4.4.319-.832.05-1.665.1-2.5.16l.159 1.153c.816-.031 1.634-.053 2.453-.074 1.509-.04 3.07-.081 4.611-.185.766-.073 1.5-.131 2.225-.187 1.6-.125 3.256-.256 4.875-.523l3.42-.479 3.455-.669c1.158-.2 2.277-.481 3.414-.773.385-.1.765-.2 1.146-.288.728-.177 1.482-.361 2.209-.6a72.27 72.27 0 0 0 12.29-4.747 44.489 44.489 0 0 0 10.2-6.7l.56-.509-4.134-1.563Zm0 40.203a38.678 38.678 0 0 1-8.732 6.325 64.629 64.629 0 0 1-11.193 4.849c-.649.24-1.29.42-1.968.611-.384.108-.768.216-1.146.332-1.023.305-2.038.6-3.093.821l-3.3.761-3.293.575c-1.5.3-2.99.468-4.573.645-.738.082-1.477.165-2.211.261-1.419.142-2.933.233-4.4.319-.832.05-1.665.1-2.5.16l.159 1.153c.816-.031 1.634-.053 2.453-.074 1.509-.04 3.07-.081 4.611-.185.766-.073 1.5-.131 2.225-.187 1.6-.126 3.256-.256 4.875-.523l3.42-.479 3.455-.669c1.158-.2 2.277-.481 3.414-.774.385-.1.765-.195 1.146-.287.728-.177 1.482-.361 2.209-.6a72.27 72.27 0 0 0 12.29-4.75 44.489 44.489 0 0 0 10.2-6.7l.56-.509-4.134-1.563Z"/><path class="cls-3" d="M96.727 272.528H72.019c-5.551 0-10.117 5.121-10.147 11.439.031 6.318 4.593 11.441 10.147 11.439h24.708a82.309 82.309 0 0 0 0-22.878Z"/><path class="cls-4" d="M72.019 272.528h24.708a82.146 82.146 0 0 1 .8 11.439H61.872c.028-6.318 4.596-11.441 10.147-11.439Z"/><path class="cls-5" d="M95.376 272.364h25.547a6.661 6.661 0 0 1 6.661 6.661 16.545 16.545 0 0 1-16.545 16.545h-5.779a16.545 16.545 0 0 1-16.545-16.545 6.661 6.661 0 0 1 6.661-6.661Z" transform="rotate(-90 108.149 283.967)"/><path class="cls-2" d="M96.546 270.986v12.981h23.206v-3.4a16.294 16.294 0 0 0-16.545-16.03 6.56 6.56 0 0 0-6.661 6.449Z"/><path class="cls-3" d="M96.727 312.064H72.019c-5.551 0-10.117 5.121-10.147 11.438.031 6.318 4.593 11.442 10.147 11.439h24.708a82.3 82.3 0 0 0 0-22.877Z"/><path class="cls-4" d="M72.019 312.064h24.708a82.142 82.142 0 0 1 .8 11.438H61.872c.028-6.317 4.596-11.44 10.147-11.438Z"/><path class="cls-5" d="M95.376 311.9h25.547a6.661 6.661 0 0 1 6.661 6.661 16.545 16.545 0 0 1-16.545 16.545h-5.779a16.545 16.545 0 0 1-16.545-16.545 6.661 6.661 0 0 1 6.661-6.661Z" transform="rotate(-90 108.15 323.502)"/><path class="cls-2" d="M96.546 310.522V323.5h23.206v-3.4a16.294 16.294 0 0 0-16.545-16.031 6.561 6.561 0 0 0-6.661 6.453Z"/><path class="cls-3" d="M96.727 352.267H72.019c-5.551 0-10.117 5.121-10.147 11.438.031 6.318 4.593 11.442 10.147 11.439h24.708a82.3 82.3 0 0 0 0-22.877Z"/><path class="cls-4" d="M72.019 352.267h24.708a82.142 82.142 0 0 1 .8 11.438H61.872c.028-6.317 4.596-11.441 10.147-11.438Z"/><path class="cls-5" d="M95.376 352.1h25.547a6.661 6.661 0 0 1 6.661 6.661 16.545 16.545 0 0 1-16.545 16.545h-5.779a16.545 16.545 0 0 1-16.545-16.545 6.661 6.661 0 0 1 6.661-6.661Z" transform="rotate(-90 108.149 363.705)"/><path class="cls-2" d="M96.546 350.725v12.98h23.206v-3.4a16.294 16.294 0 0 0-16.545-16.031 6.561 6.561 0 0 0-6.661 6.451Z"/><path class="cls-3" d="M96.727 392.47H72.019c-5.551 0-10.117 5.121-10.147 11.438.031 6.318 4.593 11.441 10.147 11.439h24.708a82.3 82.3 0 0 0 0-22.877Z"/><path class="cls-4" d="M72.019 392.47h24.708a82.142 82.142 0 0 1 .8 11.438H61.872c.028-6.317 4.596-11.441 10.147-11.438Z"/><path class="cls-5" d="M95.376 392.306h25.547a6.661 6.661 0 0 1 6.661 6.661 16.545 16.545 0 0 1-16.545 16.545h-5.779a16.545 16.545 0 0 1-16.545-16.545 6.661 6.661 0 0 1 6.661-6.661Z" transform="rotate(-90 108.149 403.908)"/><path class="cls-2" d="M96.546 390.928v12.98h23.206v-3.4a16.294 16.294 0 0 0-16.545-16.031 6.561 6.561 0 0 0-6.661 6.451Z"/><path class="cls-3" d="M96.727 432.672H72.019c-5.551 0-10.117 5.122-10.147 11.439.031 6.318 4.593 11.441 10.147 11.439h24.708a82.309 82.309 0 0 0 0-22.878Z"/><path class="cls-4" d="M72.019 432.672h24.708a82.156 82.156 0 0 1 .8 11.439H61.872c.028-6.317 4.596-11.441 10.147-11.439Z"/><path class="cls-5" d="M95.376 432.509h25.547a6.661 6.661 0 0 1 6.661 6.661 16.545 16.545 0 0 1-16.545 16.545h-5.779a16.545 16.545 0 0 1-16.545-16.545 6.661 6.661 0 0 1 6.661-6.661Z" transform="rotate(-90 108.149 444.111)"/><path class="cls-2" d="M96.546 431.131v12.98h23.206v-3.4a16.294 16.294 0 0 0-16.545-16.031 6.561 6.561 0 0 0-6.661 6.451Z"/><path class="cls-3" d="M156.826 262.224h8.219a.424.424 0 0 1-.044.057l-1.217 172.728a2.868 2.868 0 0 1-2.848 2.867 2.868 2.868 0 0 1-2.849-2.867l-1.217-172.728a.247.247 0 0 0-.044-.057Z"/><path class="cls-6" d="m156.87 262.281 1.217 172.728a2.869 2.869 0 0 0 2.849 2.867V262.224h-4.11a.276.276 0 0 1 .044.057Z"/><path class="cls-5" d="M161.923 265.884s-3.514 1.22-4.95-1.915 1.172-8.137 5.622-11.228c0 0-1.127 1.422.7 3.571s4.686 6.928-1.372 9.572Z"/><ellipse class="cls-2" cx="160.168" cy="261.474" rx="2.71" ry="2.073" transform="rotate(-76.768 160.169 261.474)"/><path class="cls-2" d="M26.676 106.648c.854 4.258-2.876 10.322-2.876 10.322-1.328.388-3.059-2.064-3.059-2.064 3.871-3.1 4.129-8.258 4.129-8.258Z"/><path class="cls-3" d="M31.662 97.388V84.052c0-3-2.853-5.46-6.372-5.477-3.519.017-6.373 2.479-6.371 5.477v13.336a47.365 47.365 0 0 0 12.743 0Z"/><path class="cls-4" d="M31.662 84.052v13.336a47.312 47.312 0 0 1-6.372.431V78.575c3.519.017 6.373 2.481 6.372 5.477Z"/><path class="cls-5" d="M18.06 97.29h14.461a3.595 3.595 0 0 1 3.595 3.595 8.93 8.93 0 0 1-8.93 8.93h-3.792a8.93 8.93 0 0 1-8.93-8.93 3.595 3.595 0 0 1 3.596-3.595Z"/><path class="cls-2" d="M32.521 97.29H25.29v12.525h1.9a8.93 8.93 0 0 0 8.93-8.93 3.6 3.6 0 0 0-3.599-3.595ZM295.2 393.352c-.854-4.258 2.876-10.322 2.876-10.322 1.328-.388 3.059 2.064 3.059 2.064-3.871 3.1-4.129 8.258-4.129 8.258Z"/><path class="cls-3" d="M290.213 402.612v13.336c0 3 2.853 5.46 6.372 5.477 3.519-.017 6.373-2.479 6.372-5.477v-13.336a47.372 47.372 0 0 0-12.744 0Z"/><path class="cls-4" d="M290.213 415.948v-13.336a47.312 47.312 0 0 1 6.372-.431v19.244c-3.519-.017-6.373-2.481-6.372-5.477Z"/><path class="cls-5" d="M289.354 390.185h14.461a3.595 3.595 0 0 1 3.595 3.595 8.93 8.93 0 0 1-8.93 8.93h-3.792a8.93 8.93 0 0 1-8.93-8.93 3.595 3.595 0 0 1 3.596-3.595Z" transform="rotate(-180 296.585 396.447)"/><path class="cls-2" d="M289.354 402.71h7.231v-12.525h-1.9a8.93 8.93 0 0 0-8.93 8.93 3.6 3.6 0 0 0 3.599 3.595Z"/><path d="M7.217 22.167h9.722v49.486h-4.911V27.011H4.257Zm12.919 24.759q0-9.321 2.1-14.414a16.809 16.809 0 0 1 5.937-7.719 14.839 14.839 0 0 1 8.579-2.626 15.2 15.2 0 0 1 8.713 2.642 17.661 17.661 0 0 1 6.173 7.928q2.271 5.284 2.271 14.189 0 8.873-2.237 14.125a17.587 17.587 0 0 1-6.172 7.927 15.221 15.221 0 0 1-8.747 2.675 14.808 14.808 0 0 1-8.545-2.595 16.873 16.873 0 0 1-5.938-7.735q-2.134-5.14-2.134-14.397Zm4.676.08q0 7.983 1.5 12.07a12.827 12.827 0 0 0 4.424 6.2 10.15 10.15 0 0 0 12.346.048 12.618 12.618 0 0 0 4.34-6.2 35.213 35.213 0 0 0 1.85-12.118 34.646 34.646 0 0 0-1.648-11.651 13.61 13.61 0 0 0-4.558-6.635 10.1 10.1 0 0 0-12.33 0 12.915 12.915 0 0 0-4.41 6.18q-1.513 4.091-1.514 12.106Zm289.846 430.827h-9.722v-49.486h4.911v44.642h7.771Zm-12.919-24.759q0 9.321-2.1 14.414a16.809 16.809 0 0 1-5.937 7.719 14.837 14.837 0 0 1-8.579 2.626 15.2 15.2 0 0 1-8.713-2.642 17.661 17.661 0 0 1-6.173-7.928q-2.271-5.284-2.271-14.189 0-8.873 2.237-14.125a17.588 17.588 0 0 1 6.174-7.927 15.218 15.218 0 0 1 8.746-2.675 14.806 14.806 0 0 1 8.545 2.6 16.873 16.873 0 0 1 5.938 7.735q2.133 5.136 2.133 14.392Zm-4.676-.08q0-7.983-1.5-12.07a12.827 12.827 0 0 0-4.424-6.2 10.15 10.15 0 0 0-12.346-.048 12.618 12.618 0 0 0-4.34 6.2 35.237 35.237 0 0 0-1.85 12.118 34.646 34.646 0 0 0 1.648 11.651 13.6 13.6 0 0 0 4.559 6.635 10.094 10.094 0 0 0 12.329 0 12.915 12.915 0 0 0 4.407-6.184q1.517-4.088 1.517-12.102ZM161.373 38.687q1.124-1.355 3.049-4.1a34.248 34.248 0 0 0 2.293-3.521 3.359 3.359 0 0 0 .366-1.4 1.716 1.716 0 0 0-.882-1.549 4.149 4.149 0 0 0-1.914-.608q-.987-.069-.986-.5 0-.39 1.421-.39h9.606a5.623 5.623 0 0 1 1.18.069.316.316 0 0 1 .218.344c0 .259-.29.405-.871.435a6.957 6.957 0 0 0-3.909 1.424 29.58 29.58 0 0 0-5.032 5.7q-3.232 4.371-3.6 5.1 6.672 9.981 9.422 12.941t5.067 3.051q.825.046.825.5 0 .39-.871.39-.368 0-1.88-.092-2.156-.137-4.035-.137-3.209 0-6.121.137c-.244.016-.489.023-.733.023q-1.1 0-1.1-.389 0-.459.6-.459 2.912 0 2.912-1.813 0-1.9-6.74-10.691a47.119 47.119 0 0 0-3.68 4.967q-2.946 4.279-2.946 5.38 0 .78 1.112 1.378a7.2 7.2 0 0 0 2.832.733q.847.066.848.447 0 .424-.8.424l-.848-.022-4.677-.115q-4.126 0-5.662.16-.963 0-.963-.447c0-.282.237-.424.711-.424a6.979 6.979 0 0 0 2.854-.573 6.241 6.241 0 0 0 2.171-1.56q.882-1 3.909-5.277t4.195-6.138q-7.887-11.517-9.709-13a7.094 7.094 0 0 0-4.138-1.618c-.413-.03-.619-.177-.619-.447s.382-.4 1.146-.4h12.059a3.693 3.693 0 0 1 1.043.08.408.408 0 0 1-.034.688 6.407 6.407 0 0 1-1.513.172 2.484 2.484 0 0 0-1.33.493 1.221 1.221 0 0 0-.55.976q0 .665 2.2 4.037a57.33 57.33 0 0 0 4.104 5.621Zm-.873 422.626q-1.124 1.355-3.049 4.1a34.248 34.248 0 0 0-2.293 3.521 3.359 3.359 0 0 0-.366 1.4 1.716 1.716 0 0 0 .882 1.549 4.149 4.149 0 0 0 1.914.608q.987.069.986.5 0 .39-1.421.39h-9.606a5.623 5.623 0 0 1-1.18-.069.316.316 0 0 1-.218-.344c0-.259.29-.405.871-.435a6.957 6.957 0 0 0 3.909-1.424 29.58 29.58 0 0 0 5.032-5.7q3.232-4.371 3.6-5.105-6.671-9.981-9.422-12.941t-5.067-3.051q-.825-.047-.825-.5 0-.39.871-.39.368 0 1.88.092 2.156.137 4.035.137 3.21 0 6.121-.137c.244-.016.489-.023.734-.023q1.1 0 1.1.389 0 .459-.6.459-2.912 0-2.912 1.813 0 1.9 6.74 10.691a47.066 47.066 0 0 0 3.68-4.968q2.946-4.278 2.946-5.379 0-.78-1.112-1.378a7.2 7.2 0 0 0-2.831-.733q-.849-.066-.849-.447 0-.425.8-.424l.848.022 4.677.115q4.126 0 5.662-.16.963 0 .963.447c0 .282-.237.424-.711.424a6.979 6.979 0 0 0-2.854.573 6.241 6.241 0 0 0-2.178 1.572q-.882 1-3.908 5.277t-4.2 6.138q7.887 11.517 9.709 13a7.094 7.094 0 0 0 4.138 1.618c.413.03.619.177.619.447s-.382.4-1.146.4h-12.047a3.693 3.693 0 0 1-1.043-.08.408.408 0 0 1 .034-.688 6.41 6.41 0 0 1 1.514-.172 2.484 2.484 0 0 0 1.329-.493 1.221 1.221 0 0 0 .55-.976q0-.664-2.2-4.037a57.487 57.487 0 0 0-4.106-5.628Z"/></svg>