<svg id="Layer_1" data-name="Layer 1" xmlns="http://www.w3.org/2000/svg" viewBox="0 0 321.875 500"><defs><style>.cls-1{fill:#fff}.cls-2{fill:#ffb200}.cls-3{fill:#099bdb}.cls-4{fill:#d90000}.cls-5{fill:#f9c9af}.cls-6{fill:#05703d}.cls-7{fill:#8e5011}.cls-8{fill:#94dced}.cls-9{fill:#ffc306}.cls-10{fill:#a50404}.cls-11{fill:#02592d}</style></defs><path class="cls-1" d="M0 0h321.875v500H0z"/><path d="M268.453 481.248H45.383a26.661 26.661 0 0 1-26.63-26.63V125.1a1.25 1.25 0 0 1 2.5 0v329.518a24.157 24.157 0 0 0 24.13 24.13h223.07a1.25 1.25 0 0 1 0 2.5Zm33.42-105.09a1.25 1.25 0 0 1-1.25-1.25V45.387a24.162 24.162 0 0 0-24.13-24.139H53.423a1.25 1.25 0 0 1 0-2.5h223.07a26.664 26.664 0 0 1 26.63 26.639v329.521a1.25 1.25 0 0 1-1.25 1.25ZM9.309 22.167h4.824v29.14a60.35 60.35 0 0 0 .2 6.465A10.707 10.707 0 0 0 16 62.546a9.862 9.862 0 0 0 4.036 3.216 12.635 12.635 0 0 0 5.48 1.3 10.806 10.806 0 0 0 4.594-1.018 10.224 10.224 0 0 0 3.676-2.822 11.519 11.519 0 0 0 2.165-4.364 36.047 36.047 0 0 0 .493-7.548V22.167h4.824v29.14a35.493 35.493 0 0 1-1.264 10.452 14.215 14.215 0 0 1-5.053 6.94 14.473 14.473 0 0 1-9.172 2.954 17.57 17.57 0 0 1-10.009-2.79 13.43 13.43 0 0 1-5.57-7.383q-.887-2.822-.886-10.173Zm303.257 455.666h-4.824v-29.14a60.35 60.35 0 0 0-.2-6.465 10.715 10.715 0 0 0-1.673-4.775 9.889 9.889 0 0 0-4.037-3.216 12.648 12.648 0 0 0-5.48-1.3 10.806 10.806 0 0 0-4.594 1.018 10.213 10.213 0 0 0-3.676 2.822 11.519 11.519 0 0 0-2.165 4.364 36.119 36.119 0 0 0-.493 7.548v29.14H280.6v-29.14a35.5 35.5 0 0 1 1.263-10.452 14.214 14.214 0 0 1 5.054-6.941 14.474 14.474 0 0 1 9.172-2.953 17.576 17.576 0 0 1 10.008 2.789 13.435 13.435 0 0 1 5.579 7.384q.887 2.822.886 10.173Z"/><path class="cls-1" d="M144.177 249.457v-.043c-.048.02-.1.026-.147.043Z"/><path class="cls-2" d="M144.187 192.5c-3.548 1.534-7.234 6.744-7.274 6.8a.7.7 0 0 1-.794.261c-4.78-1.622-8.449-1.5-10.9.355-3.773 2.853-3.5 8.975-3.5 9.036a.69.69 0 0 1-.2.523.8.8 0 0 1-.52.209c-.067 0-5.907-.147-12.292 4.662 3.194 1.409 12.51 5.827 17.4 11.421 2.088-1.511 9.807-6.735 17.228-7.324.076-8.755.384-17.536.852-25.943Z"/><path class="cls-3" d="m167.019 221.989 5.52.466a4.213 4.213 0 0 0 .71-8.4l-5.519-.467a4.813 4.813 0 0 0-.359-.016 4.214 4.214 0 0 0-.352 8.413Z"/><path class="cls-2" d="M160.83 211.542a8.036 8.036 0 0 0 4.5 14.149l8.054.682a8.1 8.1 0 0 0 8.17-5.107l-6.331-10.866a1.9 1.9 0 0 0-.192-.017l-.288-.021-8.053-.682a7.976 7.976 0 0 0-5.86 1.862Zm7.018.664 5.519.466a5.6 5.6 0 0 1-.463 11.19c-.16 0-.322-.006-.483-.02l-5.52-.467a5.6 5.6 0 1 1 .947-11.169Zm-23.139 6.567a.693.693 0 0 1 .07.28c0 .075-.053.126-.072.2-.053 6.481.019 12.938.256 19.2a384.604 384.604 0 0 1 2.4-21.6c0-.016-.007-.031 0-.047s.007 0 .009-.009a350.79 350.79 0 0 1 1.552-10.06.684.684 0 0 1-.061-.539c.033-.106.125-.162.2-.237a275.5 275.5 0 0 1 6.563-29.184l-7.726-13.246c-1.645 15.479-3.012 35.445-3.191 55.242Z"/><path class="cls-4" d="M168.3 198.518c.024 5.223.236 8.741.319 9.926l5.75.483Z"/><path class="cls-3" d="M159.933 210.479a9.528 9.528 0 0 1 .921-.634c-5.254-1.063-9-2.057-10.617-2.514-.538 3.192-1.014 6.3-1.437 9.286a75.216 75.216 0 0 0 7.952 2.639 9.181 9.181 0 0 1 3.181-8.777Z"/><path class="cls-4" d="M120.317 208.3c.035-1.853.481-6.79 4.052-9.5 2.758-2.091 6.695-2.338 11.709-.73a32.455 32.455 0 0 1 3.849-4.284c-.22-1.117-1.067-4.806-3.05-7.134-3.134.217-27.655 2.335-34.9 15.712 1.336 1.477 6.575 7.1 9.875 8.381a21.821 21.821 0 0 1 8.465-2.445Z"/><path class="cls-5" d="M144.069 247.819c-.6-8.914-.821-18.4-.756-27.978-5.877.512-12.11 4.173-15.1 6.158a91.8 91.8 0 0 1-.028 12.4.7.7 0 0 1-.692.632h-.065a.7.7 0 0 1-.629-.757c.172-1.854.226-3.886.224-5.769-1.149-.934-2.739-1.737-3.209-1.376-.923.69-1.549 4.615-1 6.264.018.05 2.206 6.171 4.236 8.374.938.568 3.406 1.862 4.746 1.638.867-.134 2.186-3.53 2.828-6.494a.7.7 0 0 1 1.361.295A22.75 22.75 0 0 1 134 246.93a6.1 6.1 0 0 0 3.453.513c1.2-.258 2.222-3.926 2.538-6.325a.727.727 0 0 1 .78-.6.7.7 0 0 1 .6.782 18.228 18.228 0 0 1-1.677 5.711c.929.628 3.08 1.84 4.375.808Z"/><path class="cls-3" d="M191.567 213.57c-1.018-.042-2.014-.1-3.008-.155l5.575 9.54a197.157 197.157 0 0 1-2.567-9.385Z"/><path class="cls-6" d="M178.284 128.519c-8.329 12.741-14.077 26.64-17.672 37.068l7.181 12.291a192.522 192.522 0 0 1 10.491-49.359Z"/><path class="cls-4" d="m222.092 117.715.686-7.87c-4.033 1.9-18.261 7.275-37.123.059a.746.746 0 0 1-.093-.014c-.02-.006-.026-.029-.045-.036-.226-.087-.445-.154-.673-.245l-1.6 7.012c2.57 1.403 16.777 8.179 38.848 1.094Z"/><path class="cls-6" d="M156.6 178.45a276.6 276.6 0 0 0-6.127 27.5c1.63.465 6.019 1.651 12.387 2.876a9.454 9.454 0 0 1 3.949-.535l.406.034c-.107-1.6-.348-5.947-.305-12.191Z"/><path class="cls-5" d="M205.791 103.837a.7.7 0 0 1 .813.548.7.7 0 0 1-.536.815 9.543 9.543 0 0 1-1.633.089 96.056 96.056 0 0 1-12.691-1.217 82.109 82.109 0 0 1-4.3-.728 23.433 23.433 0 0 1-.831 5.412c18.04 6.729 31.547 1.7 35.433-.111v-1.263c-.916-.045-1.5-.123-1.59-.136a.7.7 0 0 1-.331-1.235c1.772-1.4 2.019-4.044 2.038-5.194a3.427 3.427 0 0 1-2.176-1.174.7.7 0 0 1 .09-.9c4.951-4.719 4.427-16.464 4.268-18.811-8.523-3.127-8.227-8.973-7.937-14.659a31.893 31.893 0 0 0-.018-5.293c-.931-7.789-10.64-11.962-10.737-12-12.978-5.639-19.314 2.465-19.576 2.814a10.021 10.021 0 0 0-2.3 6.575A19.108 19.108 0 0 1 180.4 68.14a42.18 42.18 0 0 1-6.474 7.34 2.966 2.966 0 0 0-.926 2.166 2.807 2.807 0 0 0 .914 2.066c1 .92 2.071 1.826 3.172 2.69a.689.689 0 0 1 .2.26 8.334 8.334 0 0 1 .414 1.321c.049 0 .106-.012.152-.014a7.9 7.9 0 0 1 4.907 1.756c.263.193.52.4.778.6a12.311 12.311 0 0 0 1.507 1.074 9.225 9.225 0 0 0 4.6.936l.233.009a20.52 20.52 0 0 0 5.05-.458.7.7 0 0 1 .729 1.063 10.834 10.834 0 0 1-7.248 4.866 9.651 9.651 0 0 1-1.352.093 11.081 11.081 0 0 1-7.111-2.639c-.244-.222-.48-.456-.716-.692a6.608 6.608 0 0 0-1.8-1.421c-.05.139-.081.275-.14.415-.407.977-.851 1.858-1.258 2.667-.932 1.846-1.6 3.181-1.171 4.264.644 1.6 5.721 4.575 17.072 6.2 11.176 1.583 13.752 1.155 13.859 1.135Zm-16.537-41.051a.7.7 0 0 1-.279-1.364 18.726 18.726 0 0 1 13.825 3.226.7.7 0 0 1 .15.972.688.688 0 0 1-.561.286.7.7 0 0 1-.412-.134 17.569 17.569 0 0 0-12.723-2.986Zm4.66 8.636a3.106 3.106 0 1 1 3.106-3.106 3.106 3.106 0 0 1-3.106 3.106Z"/><path class="cls-2" d="M239.008 128.72c-1.31 3.142 2.536 7.859 8.4 10.3s11.92 1.86 13.231-1.28-2.536-7.86-8.4-10.3a18.741 18.741 0 0 0-7.073-1.512c-3.015-.002-5.395.961-6.158 2.792Z"/><path class="cls-4" d="M243.621 129.36c-.8 1.921 1.551 4.8 5.134 6.3s7.286 1.137 8.088-.782-1.551-4.805-5.134-6.3a11.466 11.466 0 0 0-4.324-.924c-1.842-.002-3.297.587-3.764 1.706Z"/><path class="cls-7" d="M177.281 87.6c.231.077.462.155.679.249a7.614 7.614 0 0 1 2.256 1.736c.22.22.44.437.668.644a9.635 9.635 0 0 0 7.334 2.2 8.908 8.908 0 0 0 5.186-2.875 21.838 21.838 0 0 1-3.572.172l-.232-.009a10.571 10.571 0 0 1-5.24-1.117 13.584 13.584 0 0 1-1.68-1.19c-.244-.19-.488-.383-.738-.566a6.711 6.711 0 0 0-3.882-1.491h-.155a2.261 2.261 0 0 0-1.506.528.927.927 0 0 0-.209 1.061c.165.342.522.473 1.091.658Z"/><path class="cls-2" d="M219.572 119.912c5.934 2.009 17.928 6.809 18.515 7.043a.658.658 0 0 1 .254.248 6.079 6.079 0 0 1 2.81-2.021c-5.36-1.939-16.736-5.669-18.413-6.218a75.074 75.074 0 0 1-3.166.948Z"/><path class="cls-4" d="M185.849 126.678h.006c.253-2.472.544-4.815.9-6.963a34.824 34.824 0 0 1-1.6-.622 103.673 103.673 0 0 0-3.657 4.771c-.009.046.019.091 0 .137-6.646 16.36-10.847 35.131-12.486 55.789 0 .037-.037.059-.046.094l4.57 7.821c.945-17.047 5.017-41.811 12.313-61.027Z"/><path class="cls-7" d="M206.2 46.693c.422.179 10.546 4.534 11.572 13.12a32.778 32.778 0 0 1 .026 5.526c-.339 6.665-.66 12.962 14.17 14.9a.7.7 0 0 1 .6.782.727.727 0 0 1-.78.6 37.862 37.862 0 0 1-6.016-1.247c.187 3.288.38 13.665-4.182 18.8a3.474 3.474 0 0 0 1.315.34.7.7 0 0 1 .639.638 9.784 9.784 0 0 1-1.482 5.828 25.975 25.975 0 0 0 15.372-4.07c7.672-5.212 9.751-18.244 9.771-18.374a.7.7 0 0 1 1.091-.464 28.316 28.316 0 0 1-.434-7.524c.031-1.362.062-2.755.026-4.108-.1-3.585-2.921-6.831-4.359-8.256a40.311 40.311 0 0 1-2.023 5.336 15.693 15.693 0 0 0-1.615 4.792.7.7 0 0 1-.7.67h-.025a.7.7 0 0 1-.671-.72 16.388 16.388 0 0 1 1.732-5.3c1.547-3.514 3.471-7.889 2.033-12.119-2.238-6.581-9.984-11.459-10.062-11.507a.7.7 0 0 1 .2-1.266 5.673 5.673 0 0 0 1.176-.438c-3.5-.113-7.255-2.225-11.774-4.764-2.141-1.206-4.568-2.57-7.208-3.852-8.913-4.325-18.363 1.822-18.459 1.888a.744.744 0 0 1-.515.1c-4.649-.891-7 1.311-7.023 1.334-5.567 4.521-3.373 9.524-2.332 11.271 2.596-2.309 9.274-6.553 19.937-1.916Z"/><path class="cls-2" d="M151.4 137.114c-.2 1.23-.784 4.812-1.513 10.116l9.81 16.788c4.178-11.9 11.009-27.883 21.162-41.667-6.279 4.584-18.359 12.522-29.459 14.763Z"/><path class="cls-8" d="M120.962 99.293c-.655-7.234.81-16.066 1.246-18.453-12.371-4.248-22.5-14.971-26.864-20.171 1.82 6.542 4.938 20.958 1.446 33.563 2.253 1.008 10.618 4.909 16.219 9.652Z"/><path class="cls-2" d="m124.9 98.625-2.643 1.526a.668.668 0 0 1-.484.31h-.048l-10.325 5.956 2.307 4 13.5-7.793Z"/><path class="cls-3" d="M150.106 136.405a.7.7 0 0 1 .558-.566c13.825-2.592 29.9-14.914 33.032-17.4a17.1 17.1 0 0 1-1.623-.877.693.693 0 0 1-.306-.743l.02-.091c-6.062.51-17.327.893-18.676.938a18.749 18.749 0 0 1-13.478.032 8.43 8.43 0 0 0-4.255 2.021 61.821 61.821 0 0 0-2.789 2.961c-.441.492-.882.984-1.4 1.534a18.015 18.015 0 0 1-3.247 2.583l10.809 18.5c.786-5.575 1.349-8.857 1.355-8.892Zm-15.661 49.062a61.99 61.99 0 0 0-4.016-10.4.7.7 0 0 1 1.233-.643c.063.12.956 1.86 2.015 4.493a33.055 33.055 0 0 0 12.443-11.63c.2-1.987.395-3.929.6-5.783l-15.87-27.224c-2.687 2.2-13.42 11.408-18.73 22.558-.185.315-3.827 6.369-5.934 8.476-.28.281-.606.591-.96.927-2.175 2.07-5.463 5.2-5.463 8.5 0 3.9 2.625 14.978 6.273 20.694 8.705-7.213 22.576-9.367 28.409-9.968Z"/><path class="cls-2" d="M206.117 243.462c-10.709-53.381 7.427-90.042 10.057-94.97a114.594 114.594 0 0 1-14.464-12.031 150.818 150.818 0 0 1-13.763-15.483c-1.814 11.931-2.175 28.744-1.069 50.018 1.424 27.426 6.622 45.866 10.417 57.368Z"/><path class="cls-6" d="M191.223 212.158a225.555 225.555 0 0 1-5.736-41.089 332.458 332.458 0 0 1-.092-38.952c-6.423 19.082-9.93 42.205-10.58 57.776l12.9 22.083c1.152.073 2.326.13 3.508.182Z"/><path class="cls-2" d="m182.113 115.3.488-2.129c-3.92.36-13.487.522-17.032.572a2.261 2.261 0 0 1 .179.864 2.521 2.521 0 0 1-.636 1.593c3.963-.147 12.33-.486 17.001-.9Zm-25.77 2.239c4.586 0 8.012-1.55 8.012-2.934a1.461 1.461 0 0 0-.6-1.038.243.243 0 0 1-.032-.024c-1.191-1.011-3.96-1.872-7.378-1.872-4.586 0-8.012 1.55-8.012 2.934s3.424 2.934 8.01 2.934Z"/><path class="cls-4" d="M156.343 116.287c2.63 0 4.595-.888 4.595-1.682a.839.839 0 0 0-.346-.595.22.22 0 0 1-.018-.014 7.167 7.167 0 0 0-4.231-1.074c-2.63 0-4.594.889-4.594 1.683s1.964 1.682 4.594 1.682Z"/><path class="cls-1" d="M177.7 250.545v.055c.05-.02.1-.037.154-.055Z"/><path class="cls-3" d="M273.865 190.451c-.31-4.653-7.61-32.129-8.465-35.124a19.834 19.834 0 0 1-.521-3.774 28.1 28.1 0 0 0-.787-5.377 23.336 23.336 0 0 0-3.2-6.366c-1.382 1.408-3.661 2.148-6.382 2.148a20.216 20.216 0 0 1-7.639-1.649c-6.735-2.81-10.738-8.079-9.173-12.039a.666.666 0 0 1-.126-.023c-.165-.066-16.322-6.53-20.542-7.675a61.956 61.956 0 0 1-14.364 1.763 48.333 48.333 0 0 1-13.287-1.777 151.468 151.468 0 0 0 13.307 14.911 113.414 113.414 0 0 0 14.8 12.239.7.7 0 0 1 .205.922c-.228.39-22.562 39.667-9.392 98.446.006.031-.018.056-.015.086l1.157 1.98 9.052-29.548a.7.7 0 0 1 .393-.437.712.712 0 0 1 .589.02 11.5 11.5 0 0 1 3.314 2.907 49.873 49.873 0 0 1 2.168-4.205c-1.226-4.3-4.174-11.2-4.2-11.274a.7.7 0 0 1-.024-.485c1.8-5.7 8.386-23.773 9.22-26.058-.431-.9-.839-1.8-1.233-2.68a37.313 37.313 0 0 1-9.1-4.12.7.7 0 0 1-.176-.969.686.686 0 0 1 .968-.177 33.409 33.409 0 0 0 7.563 3.552 119.179 119.179 0 0 1-5.9-17.436.7.7 0 0 1 1.358-.313c.059.261 6.093 25.847 20.136 40.007a34.209 34.209 0 0 1 3.827-3.195.7.7 0 0 1 .79 1.146c-.078.054-7.71 5.392-10.726 13.062 6.427 2.581 18.717 8.83 24.847 20.567 12.477-9.154 15.743-20.258 14.866-22.96a86.362 86.362 0 0 1-3.308-16.095Z"/><path class="cls-4" d="M233.344 208.937a48.724 48.724 0 0 0-7.013 9.369.6.6 0 0 1-.061.1 48.369 48.369 0 0 0-2.543 4.989 19.4 19.4 0 0 1 2.912 9.009 8.855 8.855 0 0 1 6.425.279c3.054 1.405 5.282 4.667 6.629 9.7a6.755 6.755 0 0 1 6.173 2.192l17.643-8.189c-5.103-19.069-26.974-26.466-30.165-27.449Z"/><path class="cls-2" d="M243.541 244.441a5.776 5.776 0 0 0-4.158-.575.7.7 0 0 1-.877-.5c-1.217-4.957-3.238-8.122-6.009-9.407a7.76 7.76 0 0 0-6.173.066.708.708 0 0 1-.663-.023.691.691 0 0 1-.345-.564c-.408-7.782-4.171-11.371-5.768-12.554l-8.707 28.423h36.036a7.872 7.872 0 0 0-3.336-4.866Z"/><path class="cls-3" d="M181.873 223.6a96.4 96.4 0 0 0 1.092.077l-.559-.959a9.1 9.1 0 0 1-.533.882Z"/><path class="cls-4" d="m118.033 109.525 81.398 139.633 8.478.13-83.739-143.307-6.137 3.544z"/><path class="cls-3" d="M96.791 94.232c2.252 1.008 10.617 4.909 16.219 9.652l4-2.308-21.665-40.907c1.819 6.542 4.937 20.958 1.446 33.563Z"/><circle class="cls-4" cx="181.589" cy="157.37" r="2.108"/><circle class="cls-4" cx="179.964" cy="169.057" r="2.108"/><circle class="cls-4" cx="178.749" cy="184.328" r="2.108"/><path class="cls-2" d="M233.344 208.937c-.581.6-1.127 1.206-1.654 1.816.09.022 17.952 4.375 27.36 24.341l-15.875 7.655a6.67 6.67 0 0 1 1.063.487 7.135 7.135 0 0 1 1.629 1.345l17.642-8.189c-5.103-19.075-26.974-26.472-30.165-27.455Zm-95.401-20.73a10.071 10.071 0 0 0-1.066-1.549c-3.133.218-27.655 2.336-34.9 15.713 1.336 1.477 6.575 7.1 9.875 8.381a24.76 24.76 0 0 1 3.053-1.3c-6.635-4.362-8.73-7.24-8.73-7.24 11.971-12.3 31.767-14.007 31.767-14.007Zm39.745 119.301c3.548-1.534 7.234-6.744 7.274-6.8a.7.7 0 0 1 .794-.261c4.78 1.622 8.449 1.5 10.9-.355 3.773-2.853 3.5-8.974 3.5-9.036a.692.692 0 0 1 .2-.523.794.794 0 0 1 .521-.208c.067 0 5.907.146 12.292-4.663-3.194-1.409-12.51-5.827-17.4-11.421-2.088 1.511-9.807 6.735-17.228 7.325a558.668 558.668 0 0 1-.853 25.942Z"/><path class="cls-3" d="m154.856 278.014-5.52-.466a4.213 4.213 0 0 0-.71 8.4l5.519.467c.12.009.24.016.358.016a4.214 4.214 0 0 0 .353-8.413Z"/><path class="cls-2" d="M161.045 288.461a8.036 8.036 0 0 0-4.5-14.149l-8.055-.682a8.1 8.1 0 0 0-8.17 5.107l6.336 10.869a1.9 1.9 0 0 0 .192.017l.288.021 8.053.682a7.978 7.978 0 0 0 5.856-1.865Zm-7.018-.664-5.519-.466a5.6 5.6 0 0 1 .463-11.19c.16 0 .322.006.483.02l5.519.467a5.6 5.6 0 1 1-.946 11.169Zm23.139-6.567a.688.688 0 0 1-.07-.279c0-.075.053-.127.072-.2.053-6.482-.019-12.939-.256-19.2a384.502 384.502 0 0 1-2.4 21.6c0 .016.007.031 0 .047s-.007 0-.009.009a350.79 350.79 0 0 1-1.552 10.06.688.688 0 0 1 .061.539c-.033.106-.125.163-.2.238a275.224 275.224 0 0 1-6.562 29.183l7.721 13.245c1.649-15.479 3.016-35.445 3.195-55.242Z"/><path class="cls-4" d="M153.577 301.485c-.024-5.222-.237-8.741-.319-9.926l-5.75-.483Z"/><path class="cls-3" d="M161.942 289.524a9.528 9.528 0 0 1-.921.634c5.254 1.064 9 2.057 10.617 2.514.538-3.192 1.014-6.3 1.437-9.286a75.216 75.216 0 0 0-7.952-2.639 9.181 9.181 0 0 1-3.181 8.777Z"/><path class="cls-4" d="M201.558 291.7c-.035 1.853-.481 6.79-4.052 9.5-2.758 2.091-6.695 2.338-11.709.73a32.407 32.407 0 0 1-3.85 4.284c.221 1.117 1.068 4.806 3.051 7.135 3.133-.218 27.655-2.336 34.9-15.713-1.336-1.477-6.575-7.1-9.875-8.381a21.821 21.821 0 0 1-8.465 2.445Z"/><path class="cls-5" d="M177.806 252.184c.6 8.914.821 18.405.756 27.978 5.877-.512 12.11-4.173 15.1-6.158a91.635 91.635 0 0 1 .028-12.4.7.7 0 0 1 .692-.632h.065a.7.7 0 0 1 .629.757c-.172 1.855-.226 3.886-.224 5.77 1.149.933 2.739 1.736 3.209 1.375.923-.69 1.549-4.614 1-6.264-.017-.05-2.206-6.171-4.235-8.374-.938-.568-3.406-1.862-4.747-1.638-.866.134-2.185 3.531-2.827 6.494a.7.7 0 0 1-1.361-.295 22.71 22.71 0 0 1 1.986-5.724 6.1 6.1 0 0 0-3.453-.513c-1.2.258-2.222 3.926-2.538 6.325a.727.727 0 0 1-.78.6.7.7 0 0 1-.6-.782 18.228 18.228 0 0 1 1.677-5.711c-.931-.628-3.083-1.84-4.377-.808Z"/><path class="cls-3" d="M130.308 286.433c1.017.042 2.014.1 3.008.156l-5.575-9.541a198.354 198.354 0 0 1 2.567 9.385Z"/><path class="cls-6" d="M143.59 371.484c8.33-12.741 14.078-26.64 17.673-37.068l-7.182-12.291a192.437 192.437 0 0 1-10.491 49.359Z"/><path class="cls-4" d="m99.783 382.288-.686 7.87c4.033-1.9 18.261-7.275 37.123-.059a.775.775 0 0 1 .093.014c.02.006.026.03.045.036.226.087.445.154.672.245l1.6-7.012c-2.569-1.403-16.776-8.175-38.847-1.094Z"/><path class="cls-6" d="M165.275 321.553a276.324 276.324 0 0 0 6.128-27.5c-1.63-.465-6.02-1.651-12.387-2.875a9.47 9.47 0 0 1-3.949.534l-.406-.034c.107 1.6.348 5.948.305 12.191Z"/><path class="cls-5" d="M116.084 396.166a.7.7 0 0 1-.813-.548.694.694 0 0 1 .536-.815 9.639 9.639 0 0 1 1.633-.088 95.953 95.953 0 0 1 12.69 1.216c1.544.221 2.972.466 4.3.728a23.433 23.433 0 0 1 .831-5.412c-18.041-6.729-31.547-1.7-35.433.111v1.263c.916.045 1.5.123 1.59.136a.7.7 0 0 1 .331 1.235c-1.772 1.4-2.019 4.044-2.038 5.195a3.424 3.424 0 0 1 2.176 1.173.7.7 0 0 1-.09.9c-4.951 4.719-4.427 16.464-4.268 18.812 8.523 3.126 8.226 8.972 7.936 14.658a32 32 0 0 0 .019 5.293c.931 7.789 10.64 11.963 10.737 12 12.978 5.639 19.314-2.465 19.575-2.814a10.012 10.012 0 0 0 2.3-6.575 19.1 19.1 0 0 1 3.383-10.777 42.143 42.143 0 0 1 6.474-7.341 2.966 2.966 0 0 0 .927-2.166 2.807 2.807 0 0 0-.914-2.066c-1-.92-2.071-1.826-3.172-2.689a.7.7 0 0 1-.2-.261 8.393 8.393 0 0 1-.415-1.321c-.048 0-.1.012-.151.014a7.9 7.9 0 0 1-4.907-1.756 23.054 23.054 0 0 1-.778-.6 12.244 12.244 0 0 0-1.508-1.074 9.231 9.231 0 0 0-4.6-.936l-.233-.008a20.471 20.471 0 0 0-5.05.457.7.7 0 0 1-.729-1.063 10.838 10.838 0 0 1 7.248-4.866 9.805 9.805 0 0 1 1.352-.093 11.076 11.076 0 0 1 7.111 2.64c.244.221.48.455.715.691a6.627 6.627 0 0 0 1.8 1.421c.049-.139.081-.275.139-.415.408-.977.852-1.858 1.259-2.667.932-1.846 1.6-3.181 1.171-4.264-.644-1.6-5.721-4.574-17.072-6.2-11.179-1.576-13.755-1.148-13.862-1.128Zm16.536 41.052a.7.7 0 0 1 .28 1.364 18.729 18.729 0 0 1-13.826-3.227.7.7 0 0 1 .411-1.257.685.685 0 0 1 .411.134 17.581 17.581 0 0 0 12.724 2.986Zm-4.659-8.637a3.106 3.106 0 1 1-3.106 3.106 3.106 3.106 0 0 1 3.106-3.106Z"/><path class="cls-2" d="M82.867 371.283c1.31-3.142-2.536-7.859-8.4-10.3s-11.92-1.86-13.231 1.281 2.536 7.859 8.4 10.3a18.754 18.754 0 0 0 7.073 1.511c3.015.002 5.391-.961 6.158-2.792Z"/><path class="cls-4" d="M78.253 370.643c.8-1.92-1.55-4.8-5.133-6.3s-7.286-1.137-8.088.783 1.551 4.8 5.134 6.3a11.462 11.462 0 0 0 4.324.924c1.842.001 3.297-.588 3.763-1.707Z"/><path class="cls-7" d="M144.594 412.4a8.053 8.053 0 0 1-.68-.249 7.627 7.627 0 0 1-2.256-1.736c-.219-.22-.439-.437-.667-.643a9.632 9.632 0 0 0-7.334-2.2 8.9 8.9 0 0 0-5.186 2.874 21.838 21.838 0 0 1 3.572-.172l.232.01a10.559 10.559 0 0 1 5.24 1.116 13.584 13.584 0 0 1 1.68 1.19c.244.19.488.383.738.566a6.711 6.711 0 0 0 3.882 1.491h.155a2.263 2.263 0 0 0 1.506-.528.927.927 0 0 0 .209-1.061c-.166-.339-.522-.47-1.091-.658Z"/><path class="cls-2" d="M102.3 380.091c-5.934-2.009-17.928-6.809-18.515-7.043a.651.651 0 0 1-.254-.248 6.072 6.072 0 0 1-2.81 2.021c5.36 1.939 16.736 5.669 18.413 6.218a79.46 79.46 0 0 1 3.166-.948Z"/><path class="cls-4" d="M136.025 373.325c-.253 2.472-.544 4.816-.9 6.963.587.212 1.119.421 1.6.622a103.673 103.673 0 0 0 3.657-4.771c.009-.046-.019-.091 0-.137 6.646-16.36 10.847-35.13 12.486-55.789 0-.037.037-.059.046-.094l-4.57-7.821c-.951 17.048-5.022 41.811-12.319 61.027Z"/><path class="cls-7" d="M115.672 453.31c-.422-.179-10.546-4.534-11.572-13.12a32.883 32.883 0 0 1-.027-5.526c.34-6.665.661-12.962-14.169-14.9a.7.7 0 0 1-.6-.782.727.727 0 0 1 .78-.6 37.862 37.862 0 0 1 6.016 1.247c-.187-3.288-.38-13.665 4.182-18.8a3.458 3.458 0 0 0-1.315-.339.7.7 0 0 1-.639-.639 9.776 9.776 0 0 1 1.482-5.828 25.975 25.975 0 0 0-15.372 4.07c-7.672 5.212-9.751 18.244-9.771 18.374a.7.7 0 0 1-1.091.464 28.316 28.316 0 0 1 .434 7.524c-.031 1.362-.062 2.755-.026 4.108.095 3.585 2.921 6.831 4.359 8.256a40.364 40.364 0 0 1 2.023-5.336 15.685 15.685 0 0 0 1.615-4.792.7.7 0 0 1 .7-.67h.019a.7.7 0 0 1 .671.72 16.388 16.388 0 0 1-1.732 5.3c-1.547 3.514-3.471 7.889-2.033 12.119 2.238 6.582 9.984 11.459 10.062 11.507a.7.7 0 0 1-.2 1.267 5.616 5.616 0 0 0-1.176.437c3.5.113 7.255 2.225 11.774 4.764 2.141 1.206 4.568 2.57 7.208 3.852 8.913 4.325 18.363-1.822 18.458-1.888a.753.753 0 0 1 .516-.1c4.649.891 7-1.311 7.023-1.334 5.567-4.521 3.373-9.524 2.331-11.271-2.586 2.306-9.264 6.553-19.93 1.916Z"/><path class="cls-2" d="M170.477 362.889c.2-1.23.783-4.812 1.512-10.116l-9.81-16.788c-4.177 11.9-11.008 27.883-21.161 41.667 6.277-4.584 18.358-12.522 29.459-14.763Z"/><path class="cls-8" d="M200.913 400.71c.655 7.235-.81 16.066-1.246 18.453 12.371 4.248 22.5 14.971 26.863 20.171-1.819-6.541-4.937-20.958-1.446-33.563-2.252-1.007-10.617-4.909-16.219-9.652Z"/><path class="cls-2" d="m196.971 401.378 2.644-1.526a.668.668 0 0 1 .484-.31c.016 0 .031.005.048 0l10.325-5.959-2.307-4-13.5 7.793Z"/><path class="cls-3" d="M171.769 363.6a.7.7 0 0 1-.558.566c-13.825 2.592-29.9 14.914-33.033 17.405a17.039 17.039 0 0 1 1.624.877.693.693 0 0 1 .306.743l-.02.091c6.061-.51 17.327-.893 18.676-.938a18.747 18.747 0 0 1 13.477-.032 8.428 8.428 0 0 0 4.256-2.021c1.22-1.21 2.018-2.1 2.789-2.961.44-.492.882-.983 1.4-1.534a17.991 17.991 0 0 1 3.247-2.583l-10.809-18.5c-.786 5.569-1.349 8.85-1.355 8.887Zm15.661-49.064a61.947 61.947 0 0 0 4.016 10.4.7.7 0 0 1-1.233.643c-.063-.12-.957-1.86-2.015-4.493a33.055 33.055 0 0 0-12.443 11.63c-.2 1.987-.395 3.93-.6 5.783l15.87 27.225c2.687-2.2 13.42-11.409 18.73-22.559.185-.315 3.827-6.369 5.934-8.476.28-.281.606-.591.959-.927 2.176-2.07 5.464-5.2 5.464-8.5 0-3.9-2.625-14.978-6.273-20.694-8.705 7.213-22.576 9.367-28.409 9.968Z"/><path class="cls-2" d="M115.758 256.541c10.709 53.381-7.427 90.042-10.057 94.97a114.679 114.679 0 0 1 14.464 12.031 150.92 150.92 0 0 1 13.762 15.483c1.815-11.931 2.176-28.744 1.07-50.018-1.425-27.426-6.622-45.866-10.417-57.368Z"/><path class="cls-6" d="M130.652 287.845a225.555 225.555 0 0 1 5.736 41.089 332.678 332.678 0 0 1 .092 38.952c6.423-19.082 9.93-42.205 10.58-57.776l-12.9-22.083a221.944 221.944 0 0 0-3.508-.182Z"/><path class="cls-2" d="m139.761 384.705-.487 2.129c3.92-.36 13.487-.522 17.032-.572a2.261 2.261 0 0 1-.179-.864 2.523 2.523 0 0 1 .636-1.593c-3.963.145-12.33.484-17.002.9Zm25.771-2.241c-4.586 0-8.012 1.55-8.012 2.934a1.461 1.461 0 0 0 .6 1.038.333.333 0 0 1 .032.024c1.191 1.011 3.96 1.872 7.378 1.872 4.586 0 8.012-1.549 8.012-2.934s-3.424-2.934-8.01-2.934Z"/><path class="cls-4" d="M165.532 383.716c-2.63 0-4.595.888-4.595 1.682a.837.837 0 0 0 .346.595.22.22 0 0 1 .018.014 7.167 7.167 0 0 0 4.231 1.074c2.629 0 4.594-.889 4.594-1.683s-1.965-1.682-4.594-1.682Z"/><path class="cls-3" d="M48.009 309.552c.311 4.653 7.611 32.129 8.466 35.124a19.834 19.834 0 0 1 .525 3.775 28.1 28.1 0 0 0 .787 5.376 23.321 23.321 0 0 0 3.2 6.366c1.382-1.408 3.661-2.148 6.382-2.148a20.216 20.216 0 0 1 7.639 1.649c6.735 2.81 10.738 8.079 9.173 12.039a.6.6 0 0 1 .126.024c.165.065 16.322 6.529 20.541 7.674a61.971 61.971 0 0 1 14.365-1.763 48.333 48.333 0 0 1 13.287 1.777 151.468 151.468 0 0 0-13.307-14.911 113.494 113.494 0 0 0-14.8-12.239.694.694 0 0 1-.205-.922c.228-.39 22.562-39.667 9.392-98.446-.007-.031.018-.056.015-.086l-1.157-1.98-9.052 29.548a.7.7 0 0 1-.393.437.712.712 0 0 1-.589-.02 11.5 11.5 0 0 1-3.314-2.907 49.644 49.644 0 0 1-2.169 4.205c1.227 4.3 4.174 11.2 4.2 11.274a.7.7 0 0 1 .024.485c-1.8 5.7-8.386 23.773-9.22 26.058.431.9.839 1.8 1.233 2.68a37.313 37.313 0 0 1 9.1 4.12.7.7 0 0 1 .176.97.688.688 0 0 1-.969.176 33.384 33.384 0 0 0-7.562-3.552 118.953 118.953 0 0 1 5.9 17.436.7.7 0 0 1-1.357.313c-.059-.26-6.093-25.846-20.136-40.007a34.209 34.209 0 0 1-3.827 3.195.7.7 0 0 1-.79-1.146c.078-.054 7.709-5.391 10.726-13.062-6.419-2.581-18.712-8.83-24.842-20.564-12.477 9.154-15.743 20.258-14.866 22.96a86.287 86.287 0 0 1 3.298 16.092Z"/><path class="cls-4" d="M88.531 291.066a48.724 48.724 0 0 0 7.013-9.369.545.545 0 0 1 .061-.1 48.369 48.369 0 0 0 2.543-4.989 19.4 19.4 0 0 1-2.912-9.009 8.85 8.85 0 0 1-6.425-.279c-3.054-1.4-5.282-4.667-6.629-9.7a6.762 6.762 0 0 1-6.174-2.193l-17.643 8.189c5.104 19.07 26.975 26.467 30.166 27.45Z"/><path class="cls-2" d="M78.334 255.562a5.776 5.776 0 0 0 4.158.575.7.7 0 0 1 .877.5c1.217 4.957 3.238 8.122 6.008 9.407a7.762 7.762 0 0 0 6.174-.066.71.71 0 0 1 .663.023.693.693 0 0 1 .345.564c.408 7.782 4.17 11.371 5.768 12.554l8.706-28.423H75a7.877 7.877 0 0 0 3.334 4.866Z"/><path class="cls-3" d="M140 276.4a96.4 96.4 0 0 0-1.092-.077l.559.959a9.1 9.1 0 0 1 .533-.882Z"/><path class="cls-4" d="m203.842 390.478-81.398-139.633-8.478-.129 83.739 143.306 6.137-3.544zm-62.77-115.395a9.472 9.472 0 0 1 6.746-2.873q.391 0 .786.034l8.055.682a9.425 9.425 0 0 1 8.074 6.263 78.694 78.694 0 0 1 8.541 2.78c2.518-18.347 2.978-31.916 2.985-32.142a.682.682 0 0 1 .179-.411c.014-.015.01-.043.026-.058a.692.692 0 0 1 .475-.2h20.877l-14-24.02q-1.441-.085-3.017-.214a9.4 9.4 0 0 1-7.525 2.84l-8.055-.683a9.422 9.422 0 0 1-8.075-6.263 78.6 78.6 0 0 1-8.54-2.78c-2.518 18.347-2.978 31.916-2.985 32.142a.682.682 0 0 1-.179.411c-.014.016-.01.043-.026.059a.7.7 0 0 1-.475.2h-20.88l14 24.019q1.441.087 3.013.214Z"/><path class="cls-3" d="M225.084 405.771c-2.252-1.007-10.617-4.909-16.219-9.652l-4 2.309 21.663 40.906c-1.817-6.541-4.935-20.958-1.444-33.563Z"/><circle class="cls-4" cx="140.286" cy="342.633" r="2.108"/><circle class="cls-4" cx="141.911" cy="330.946" r="2.108"/><circle class="cls-4" cx="143.126" cy="315.675" r="2.108"/><path class="cls-2" d="M88.531 291.066c.581-.6 1.126-1.206 1.654-1.816-.091-.022-17.952-4.375-27.36-24.341l15.875-7.655a6.67 6.67 0 0 1-1.063-.487 7.135 7.135 0 0 1-1.629-1.345l-17.643 8.19c5.104 19.074 26.975 26.471 30.166 27.454Zm95.401 20.734a10.04 10.04 0 0 0 1.068 1.545c3.133-.218 27.655-2.336 34.9-15.713-1.336-1.477-6.575-7.1-9.875-8.381a24.84 24.84 0 0 1-3.053 1.3c6.635 4.361 8.729 7.239 8.729 7.239-11.97 12.3-31.766 14.008-31.766 14.008Z"/><path d="M161.79 217.317a5.611 5.611 0 0 0 5.111 6.058l5.52.467c.161.014.323.02.483.02a5.605 5.605 0 0 0 .463-11.19l-5.519-.466a5.6 5.6 0 0 0-6.058 5.111Zm5.581-3.741c.119 0 .239.007.359.016l5.519.467a4.213 4.213 0 1 1-.71 8.4l-5.52-.466a4.214 4.214 0 0 1 .352-8.413Z"/><path d="M275.254 190.36c-.336-5.045-8.011-33.648-8.515-35.413a18.57 18.57 0 0 1-.471-3.5 29.3 29.3 0 0 0-.833-5.637 25.145 25.145 0 0 0-3.691-7.206c.056-.111.128-.212.177-.328 1.655-3.969-2.363-9.293-9.147-12.125a18.752 18.752 0 0 0-9.45-1.527c-.068-.072-.114-.164-.212-.2-4.217-1.615-16.958-5.8-19.625-6.677l.786-9.029a.7.7 0 0 0-.323-.65.684.684 0 0 0-.509-.067v-.587a26.722 26.722 0 0 0 14.778-4.35c6.921-4.7 9.489-14.881 10.167-18.236.766.471 1.491.713 1.934.267a.7.7 0 0 0 .025-.947c-1.25-1.421-1.171-4.891-1.09-8.566.032-1.385.064-2.8.026-4.176-.127-4.752-4.212-8.743-5.385-9.793a12.064 12.064 0 0 0-.312-6.221c-1.88-5.527-7.142-9.78-9.494-11.461a6.64 6.64 0 0 0 2.358-1.849.7.7 0 0 0 .009-.807.692.692 0 0 0-.757-.275c-3.681 1.011-7.888-1.354-13.214-4.35-2.157-1.212-4.6-2.587-7.283-3.887-8.924-4.337-17.979.82-19.6 1.823-5.181-.876-7.861 1.643-7.93 1.711-6.619 5.372-3.51 11.561-2.419 13.312a8.786 8.786 0 0 0-.228.268 11.187 11.187 0 0 0-2.636 7.461 17.846 17.846 0 0 1-3.162 10.05 40.912 40.912 0 0 1-6.263 7.083 4.369 4.369 0 0 0-1.36 3.187 4.185 4.185 0 0 0 1.364 3.079 55.493 55.493 0 0 0 3.108 2.646 8.55 8.55 0 0 1 .264.922 2.928 2.928 0 0 0-.918.587 2.256 2.256 0 0 0 .715 3.762c-.045.127-.074.252-.128.38-.393.943-.823 1.794-1.216 2.573-1.013 2.01-1.888 3.746-1.219 5.409.722 1.8 4.457 4.264 12.483 6.035a22.314 22.314 0 0 1-.755 5.219c-.234-.094-.457-.159-.691-.257a.724.724 0 0 0-.587.025.692.692 0 0 0-.359.462l-.742 3.241c-3.929.432-16.7.6-18.5.625-1.6-1.264-4.542-2.085-8.085-2.085-5.361 0-9.4 1.86-9.4 4.325a2.8 2.8 0 0 0 1.1 2.051 8.9 8.9 0 0 0-3.642 2.07 63.286 63.286 0 0 0-2.844 3.02c-.434.485-.869.968-1.378 1.511a16.59 16.59 0 0 1-2.936 2.332l-11.863-20.3 3.133-1.81a.7.7 0 0 0 .255-.951l-3-5.2a.7.7 0 0 0-.95-.254l-2.514 1.448c-.57-7.971 1.37-17.909 1.39-18.014a.7.7 0 0 0-.467-.8c-16.376-5.324-28.935-22.6-29.06-22.769a.7.7 0 0 0-1.22.641c.073.2 7.216 20.327 2.347 36.843a.7.7 0 0 0 .393.836c.1.044 9.795 4.239 16.041 9.364l-1.617.934a.7.7 0 0 0-.254.951l3 5.2a.694.694 0 0 0 .423.324.684.684 0 0 0 .18.023.7.7 0 0 0 .347-.093l3.024-1.747 13.315 22.841c-2.4 1.94-13.708 11.481-19.246 23.117-.037.061-3.707 6.163-5.693 8.15-.273.272-.591.575-.935.9-2.348 2.236-5.9 5.614-5.9 9.513 0 4.191 2.709 15.655 6.607 21.622a20.59 20.59 0 0 0-4.462 5.794.7.7 0 0 0 .1.773c.253.29 5.664 6.426 9.738 8.656a26.89 26.89 0 0 0-3.444 2.4.694.694 0 0 0 .18 1.18c.128.054 12.948 5.34 18.36 11.985a.7.7 0 0 0 .964.111c.012-.009.175-.133.463-.34.048.919.107 2.284.135 3.853-1.109-.735-2.877-1.623-4.028-.761-1.623 1.217-2.126 5.9-1.481 7.833.095.268 2.354 6.586 4.6 8.945a.725.725 0 0 0 .136.111c.337.208 3.15 1.916 5.262 1.916a3.357 3.357 0 0 0 .508-.036 2.162 2.162 0 0 0 1.139-.7 8.411 8.411 0 0 0 3.457.842 5.428 5.428 0 0 0 1.139-.118 2.352 2.352 0 0 0 1.112-.674 9.6 9.6 0 0 0 2.8 1.329h-18.8l-10.105-.151a.706.706 0 0 0-.394.133.68.68 0 0 0-.384-.133H74.093a.694.694 0 0 0-.677.856 12.921 12.921 0 0 0 1.693 4.141l-17.854 8.288a.7.7 0 0 0-.383.8 31.768 31.768 0 0 0 2.07 5.836c-13.577 9.866-16.589 21.475-15.555 24.659a86.258 86.258 0 0 1 3.234 15.755c.338 5.069 8.012 33.652 8.515 35.415a18.634 18.634 0 0 1 .472 3.5 29.273 29.273 0 0 0 .833 5.637 25.222 25.222 0 0 0 3.7 7.227c-.055.108-.145.194-.192.306-1.649 3.973 2.368 9.293 9.151 12.122a20.185 20.185 0 0 0 7.64 1.651 13.333 13.333 0 0 0 1.8-.131c.07.077.119.173.223.213 4.217 1.616 16.957 5.8 19.626 6.675l-.787 9.03a.618.618 0 0 0 .832.719v.587a26.717 26.717 0 0 0-14.778 4.349c-6.919 4.7-9.488 14.879-10.167 18.236-.766-.471-1.493-.716-1.934-.269a.7.7 0 0 0-.025.947c1.249 1.423 1.172 4.894 1.09 8.569-.031 1.384-.063 2.8-.026 4.175.127 4.753 4.212 8.744 5.385 9.793a12.059 12.059 0 0 0 .312 6.22c1.879 5.529 7.141 9.779 9.494 11.462a6.631 6.631 0 0 0-2.357 1.849.7.7 0 0 0-.009.806.689.689 0 0 0 .757.275c3.682-1.02 7.885 1.352 13.21 4.348 2.159 1.214 4.606 2.589 7.286 3.89a17.128 17.128 0 0 0 7.559 1.708 24.366 24.366 0 0 0 12.036-3.532c5.179.863 7.862-1.643 7.931-1.713 6.62-5.37 3.51-11.561 2.419-13.31a7.56 7.56 0 0 0 .227-.268 11.185 11.185 0 0 0 2.637-7.461 17.835 17.835 0 0 1 3.162-10.05 40.814 40.814 0 0 1 6.263-7.082 4.369 4.369 0 0 0 1.36-3.188 4.178 4.178 0 0 0-1.364-3.079 53.636 53.636 0 0 0-3.108-2.647 8.639 8.639 0 0 1-.266-.933 2.987 2.987 0 0 0 .92-.575 2.255 2.255 0 0 0-.715-3.763c.045-.129.075-.253.128-.381.393-.942.823-1.792 1.216-2.574 1.013-2.007 1.887-3.741 1.22-5.406-.723-1.8-4.458-4.265-12.483-6.035a22.259 22.259 0 0 1 .755-5.219c.233.093.456.16.691.257a.685.685 0 0 0 .585-.025.693.693 0 0 0 .36-.462l.742-3.241c3.931-.432 16.7-.6 18.5-.624 1.606 1.261 4.541 2.082 8.082 2.082 5.361 0 9.4-1.86 9.4-4.325a2.8 2.8 0 0 0-1.1-2.048 8.919 8.919 0 0 0 3.64-2.071 63.836 63.836 0 0 0 2.842-3.016c.435-.487.87-.972 1.38-1.515a16.517 16.517 0 0 1 2.935-2.333l11.864 20.3-3.132 1.807a.7.7 0 0 0-.255.952l3 5.2a.7.7 0 0 0 .422.324.7.7 0 0 0 .528-.07l2.514-1.451c.57 7.969-1.368 17.906-1.39 18.01a.7.7 0 0 0 .468.8c16.376 5.324 28.934 22.6 29.059 22.769a.7.7 0 0 0 1.22-.641c-.073-.2-7.216-20.325-2.347-36.843a.7.7 0 0 0-.393-.837c-.1-.044-9.79-4.236-16.041-9.363l1.616-.934a.7.7 0 0 0 .255-.951l-3-5.2a.7.7 0 0 0-.95-.254l-3.024 1.746-13.315-22.84c2.4-1.943 13.709-11.482 19.246-23.117.036-.061 3.706-6.163 5.693-8.15.274-.274.592-.575.937-.9 2.347-2.234 5.894-5.613 5.894-9.512 0-4.191-2.708-15.654-6.606-21.623a20.6 20.6 0 0 0 4.461-5.793.7.7 0 0 0-.1-.773c-.253-.29-5.665-6.427-9.738-8.655a27.125 27.125 0 0 0 3.444-2.4.7.7 0 0 0-.18-1.181c-.129-.054-12.948-5.34-18.36-11.985a.7.7 0 0 0-.965-.111c-.011.009-.174.132-.461.339-.048-.918-.107-2.282-.136-3.848a5.827 5.827 0 0 0 2.888 1.11 1.856 1.856 0 0 0 1.14-.354c1.623-1.216 2.126-5.895 1.481-7.832-.095-.267-2.354-6.586-4.606-8.945a.667.667 0 0 0-.136-.111c-.363-.224-3.628-2.2-5.768-1.88a2.154 2.154 0 0 0-1.138.7 7.674 7.674 0 0 0-4.6-.723 2.367 2.367 0 0 0-1.113.672 9.741 9.741 0 0 0-2.776-1.327h18.776l10.105.152h.01a.625.625 0 0 1 .768 0h37.881a.7.7 0 0 0 .678-.857 12.937 12.937 0 0 0-1.693-4.142l17.855-8.287a.7.7 0 0 0 .381-.8 31.693 31.693 0 0 0-2.069-5.836c13.577-9.866 16.59-21.475 15.555-24.659a86.324 86.324 0 0 1-3.219-15.75Zm-30.089-64.434a18.741 18.741 0 0 1 7.073 1.512c5.862 2.444 9.707 7.163 8.4 10.3s-7.372 3.726-13.231 1.28-9.707-7.16-8.4-10.3c.764-1.829 3.144-2.792 6.158-2.792Zm-4.014-.744a6.079 6.079 0 0 0-2.81 2.021.658.658 0 0 0-.254-.248c-.587-.234-12.581-5.034-18.515-7.043 1.037-.287 2.091-.6 3.166-.948 1.677.549 13.053 4.279 18.413 6.218ZM188.6 37.338c.023-.023 2.374-2.225 7.023-1.334a.744.744 0 0 0 .515-.1c.1-.066 9.546-6.213 18.459-1.888 2.64 1.282 5.067 2.646 7.208 3.852 4.519 2.539 8.271 4.651 11.774 4.764a5.673 5.673 0 0 1-1.176.438.7.7 0 0 0-.2 1.266c.078.048 7.824 4.926 10.062 11.507 1.438 4.23-.486 8.605-2.033 12.119a16.388 16.388 0 0 0-1.732 5.3.7.7 0 0 0 .671.72h.025a.7.7 0 0 0 .7-.67 15.693 15.693 0 0 1 1.615-4.792 40.311 40.311 0 0 0 2.023-5.336c1.438 1.425 4.263 4.671 4.359 8.256.036 1.353.005 2.746-.026 4.108a28.316 28.316 0 0 0 .434 7.524.7.7 0 0 0-1.091.464c-.02.13-2.1 13.162-9.771 18.374a25.975 25.975 0 0 1-15.372 4.07 9.784 9.784 0 0 0 1.482-5.828.7.7 0 0 0-.639-.638 3.474 3.474 0 0 1-1.315-.34c4.562-5.132 4.369-15.509 4.182-18.8a37.862 37.862 0 0 0 6.016 1.247.727.727 0 0 0 .78-.6.7.7 0 0 0-.6-.782C217.141 78.3 217.462 72 217.8 65.339a32.778 32.778 0 0 0-.026-5.526c-1.026-8.586-11.15-12.941-11.572-13.12-10.666-4.637-17.344-.39-19.936 1.916-1.04-1.747-3.234-6.75 2.334-11.271Zm-12.2 48.55a2.261 2.261 0 0 1 1.506-.528h.155a6.711 6.711 0 0 1 3.882 1.491c.25.183.494.376.738.566a13.584 13.584 0 0 0 1.68 1.19 10.571 10.571 0 0 0 5.24 1.117l.232.009a21.838 21.838 0 0 0 3.572-.172 8.908 8.908 0 0 1-5.186 2.875 9.635 9.635 0 0 1-7.334-2.2 19.249 19.249 0 0 1-.668-.644 7.614 7.614 0 0 0-2.256-1.736 8.393 8.393 0 0 0-.679-.249c-.569-.188-.926-.319-1.091-.654a.927.927 0 0 1 .209-1.065ZM174.87 96.5c-.434-1.083.239-2.418 1.171-4.264.407-.809.851-1.69 1.258-2.667.059-.14.09-.276.14-.415a6.608 6.608 0 0 1 1.8 1.421c.236.236.472.47.716.692a11.081 11.081 0 0 0 7.111 2.639 9.651 9.651 0 0 0 1.352-.093 10.834 10.834 0 0 0 7.248-4.866.7.7 0 0 0-.729-1.063 20.52 20.52 0 0 1-5.05.458l-.233-.009a9.225 9.225 0 0 1-4.6-.936 12.311 12.311 0 0 1-1.507-1.074c-.258-.2-.515-.4-.778-.6a7.9 7.9 0 0 0-4.907-1.756c-.046 0-.1.012-.152.014a8.334 8.334 0 0 0-.414-1.321.689.689 0 0 0-.2-.26 55.035 55.035 0 0 1-3.172-2.69 2.807 2.807 0 0 1-.924-2.064 2.966 2.966 0 0 1 .927-2.166 42.18 42.18 0 0 0 6.474-7.34 19.108 19.108 0 0 0 3.383-10.778 10.021 10.021 0 0 1 2.3-6.575c.262-.349 6.6-8.453 19.576-2.814.1.041 9.806 4.214 10.737 12a31.893 31.893 0 0 1 .018 5.293c-.29 5.686-.586 11.532 7.937 14.659.159 2.347.683 14.092-4.268 18.811a.7.7 0 0 0-.09.9 3.427 3.427 0 0 0 2.176 1.174c-.019 1.15-.266 3.8-2.038 5.194a.7.7 0 0 0 .331 1.235c.09.013.674.091 1.59.136v1.263c-3.886 1.814-17.393 6.84-35.433.111a23.433 23.433 0 0 0 .831-5.412 81.05 81.05 0 0 0 4.3.728 96.056 96.056 0 0 0 12.691 1.217 9.543 9.543 0 0 0 1.633-.089.7.7 0 0 0 .536-.815.7.7 0 0 0-.813-.548c-.107.02-2.683.448-13.849-1.142-11.358-1.615-16.435-4.588-17.079-6.188Zm9.974 13.111c.228.091.447.158.673.245.019.007.025.03.045.036a.746.746 0 0 0 .093.014c18.862 7.216 33.09 1.837 37.123-.059l-.686 7.87c-22.071 7.081-36.278.309-38.853-1.094Zm-6.56 18.91a192.522 192.522 0 0 0-10.491 49.359l-7.181-12.291c3.595-10.43 9.343-24.329 17.672-37.07Zm-18.589 35.5-9.81-16.788c.729-5.3 1.309-8.886 1.513-10.116 11.1-2.241 23.182-10.179 29.459-14.763-10.157 13.781-16.984 29.761-21.157 41.664Zm9.314 15.767c1.639-20.658 5.84-39.429 12.486-55.789.019-.046-.009-.091 0-.137a103.673 103.673 0 0 1 3.657-4.771c.479.2 1.011.41 1.6.622-.351 2.148-.642 4.491-.9 6.963h-.006c-7.3 19.216-11.368 43.98-12.316 61.022l-4.57-7.821c.012-.033.046-.055.049-.092Zm16.391-47.671a332.458 332.458 0 0 0 .092 38.952 225.555 225.555 0 0 0 5.736 41.089 178.436 178.436 0 0 1-3.5-.182l-12.9-22.083c.637-15.571 4.144-38.693 10.572-57.776Zm6.172 81.453a197.157 197.157 0 0 0 2.567 9.385l-5.575-9.54c.989.057 1.985.113 3.003.155ZM186.878 171c-1.106-21.274-.745-38.087 1.069-50.018a150.818 150.818 0 0 0 13.763 15.483 114.594 114.594 0 0 0 14.464 12.031c-2.63 4.928-20.766 41.589-10.057 94.97l-8.822-15.1C193.5 216.862 188.3 198.422 186.878 171Zm-21.309-57.255c3.545-.05 13.112-.212 17.032-.572l-.488 2.129c-4.671.416-13.038.755-17 .9a2.521 2.521 0 0 0 .636-1.593 2.261 2.261 0 0 0-.18-.868Zm-9.226-2.07c3.418 0 6.187.861 7.378 1.872a.243.243 0 0 0 .032.024 1.461 1.461 0 0 1 .6 1.038c0 1.384-3.426 2.934-8.012 2.934s-8.012-1.55-8.012-2.934 3.428-2.938 8.014-2.938Zm-15.153 12.534c.517-.55.958-1.042 1.4-1.534a61.821 61.821 0 0 1 2.789-2.961 8.43 8.43 0 0 1 4.255-2.021 18.749 18.749 0 0 0 13.478-.032c1.349-.045 12.614-.428 18.676-.938l-.02.091a.693.693 0 0 0 .306.743 17.1 17.1 0 0 0 1.623.877c-3.137 2.491-19.207 14.813-33.032 17.405a.7.7 0 0 0-.558.566c-.006.035-.569 3.317-1.354 8.885l-10.809-18.5a18.015 18.015 0 0 0 3.246-2.581Zm-44.4-29.977c3.492-12.605.374-27.021-1.446-33.563 4.366 5.2 14.493 15.923 26.864 20.171-.436 2.387-1.9 11.219-1.246 18.453l-7.953 4.591c-5.601-4.743-13.966-8.644-16.219-9.652Zm16.92 16.181-2.307-4 10.325-5.958h.048a.668.668 0 0 0 .484-.31l2.643-1.526 2.307 4Zm-13.947 64.331c0-3.3 3.288-6.435 5.463-8.5.354-.336.68-.646.96-.927 2.107-2.107 5.749-8.161 5.934-8.476 5.31-11.15 16.043-20.362 18.73-22.558l15.87 27.217c-.205 1.854-.4 3.8-.6 5.783a33.055 33.055 0 0 1-12.443 11.63c-1.059-2.633-1.952-4.373-2.015-4.493a.7.7 0 0 0-1.233.643 61.99 61.99 0 0 1 4.016 10.4c-5.833.6-19.7 2.755-28.409 9.971-3.648-5.712-6.273-16.787-6.273-20.69Zm67.451 33.581-.406-.034a9.454 9.454 0 0 0-3.949.535c-6.368-1.225-10.757-2.411-12.387-2.876a276.6 276.6 0 0 1 6.127-27.5l10.31 17.684c-.043 6.244.198 10.589.305 12.191Zm7.529 2.034.288.021a1.9 1.9 0 0 1 .192.017l6.335 10.869a8.1 8.1 0 0 1-8.17 5.107l-8.054-.682a8.036 8.036 0 1 1 1.356-16.014Zm-6.443-11.841 6.069 10.409-5.75-.483c-.085-1.185-.297-4.703-.319-9.926Zm-11.546 20.738a75.216 75.216 0 0 1-7.952-2.639c.423-2.989.9-6.094 1.437-9.286 1.617.457 5.363 1.451 10.617 2.514a9.528 9.528 0 0 0-.921.634 9.181 9.181 0 0 0-3.181 8.777Zm-7.691-13.3c-.072.075-.164.131-.2.237a.684.684 0 0 0 .061.539c-.589 3.469-1.1 6.827-1.552 10.06 0 0-.007 0-.009.009s.006.031 0 .047a381.072 381.072 0 0 0-2.4 21.6c-.237-6.266-.309-12.723-.256-19.2.019-.07.075-.121.072-.2a.693.693 0 0 0-.07-.28c.179-19.8 1.546-39.763 3.194-55.242l7.721 13.245a275.5 275.5 0 0 0-6.563 29.189ZM144.275 191a10.771 10.771 0 0 0-3.143 1.774 16.985 16.985 0 0 0-3.45-7.308.771.771 0 0 0-.545-.222c-.128.007-.585.032-1.281.088a59.912 59.912 0 0 0-1.671-5.108 35.556 35.556 0 0 0 11.649-9.985A607.598 607.598 0 0 0 144.275 191Zm-42.3 11.368c7.244-13.377 31.765-15.5 34.9-15.712 1.983 2.328 2.83 6.017 3.05 7.134a32.455 32.455 0 0 0-3.849 4.284c-5.014-1.608-8.951-1.361-11.709.73-3.571 2.705-4.017 7.642-4.052 9.5a21.821 21.821 0 0 0-8.464 2.45c-3.298-1.287-8.537-6.906-9.873-8.383Zm24.125 23.395c-4.888-5.594-14.2-10.012-17.4-11.421 6.385-4.809 12.225-4.665 12.292-4.662a.8.8 0 0 0 .52-.209.69.69 0 0 0 .2-.523c0-.061-.272-6.183 3.5-9.036 2.455-1.857 6.124-1.977 10.9-.355a.7.7 0 0 0 .794-.261c.04-.057 3.726-5.267 7.274-6.8a568.628 568.628 0 0 0-.86 25.944c-7.414.588-15.133 5.812-17.22 7.323Zm18.078 23.694h-.15c.048-.017.1-.023.147-.043Zm-4.478-2.447a18.228 18.228 0 0 0 1.677-5.711.7.7 0 0 0-.6-.782.727.727 0 0 0-.78.6c-.316 2.4-1.342 6.067-2.538 6.325a6.1 6.1 0 0 1-3.459-.512 22.75 22.75 0 0 0 1.986-5.724.7.7 0 0 0-1.361-.295c-.642 2.964-1.961 6.36-2.828 6.494-1.34.224-3.808-1.07-4.746-1.638-2.03-2.2-4.218-8.324-4.236-8.374-.549-1.649.077-5.574 1-6.264.47-.361 2.06.442 3.209 1.376 0 1.883-.052 3.915-.224 5.769a.7.7 0 0 0 .629.757h.065a.7.7 0 0 0 .692-.632 91.8 91.8 0 0 0 .028-12.4c2.987-1.985 9.22-5.646 15.1-6.158-.065 9.574.155 19.064.756 27.978-1.296 1.032-3.447-.18-4.37-.809ZM75 250.7h36.037l-8.709 28.429c-1.605-1.167-5.354-4.711-5.766-12.561a.7.7 0 0 0-.695-.659.71.71 0 0 0-.312.072 7.732 7.732 0 0 1-6.175.066c-2.77-1.285-4.791-4.45-6.008-9.407a.694.694 0 0 0-.329-.437.72.72 0 0 0-.544-.066 5.807 5.807 0 0 1-4.179-.582A7.9 7.9 0 0 1 75 250.7Zm-16.634 12.911 17.643-8.189a6.77 6.77 0 0 0 6.174 2.192c1.346 5.034 3.574 8.3 6.629 9.7a8.865 8.865 0 0 0 6.425.278 19.407 19.407 0 0 0 2.91 9.009 48.173 48.173 0 0 1-2.544 4.992.58.58 0 0 0-.059.1 48.73 48.73 0 0 1-7.013 9.373c-3.191-.986-25.065-8.395-30.165-27.455Zm37.588 20.125c1.234 3.877 3.3 8.817 3.792 9.971-1.693 5.292-6.962 19.821-8.664 24.5A67.413 67.413 0 0 0 79.3 301.1a29.514 29.514 0 0 0 6.418-9.529c1.708.638 2.777.943 2.829.957a.679.679 0 0 0 .184.024.693.693 0 0 0 .493-.206 48.842 48.842 0 0 0 6.73-8.61Zm-38.17 70.089a28.079 28.079 0 0 1-.784-5.378 19.892 19.892 0 0 0-.521-3.772c-.854-2.993-8.154-30.448-8.466-35.124a86.45 86.45 0 0 0-3.3-16.095c-.878-2.7 2.389-13.806 14.865-22.96 6.13 11.737 18.42 17.986 24.846 20.566-3.014 7.671-10.647 13.01-10.724 13.062a.7.7 0 0 0 .395 1.269.683.683 0 0 0 .394-.122 34.115 34.115 0 0 0 3.828-3.194c14.042 14.16 20.076 39.743 20.136 40a.7.7 0 0 0 .678.539.658.658 0 0 0 .157-.018.7.7 0 0 0 .521-.834 118.7 118.7 0 0 0-5.9-17.437 33.279 33.279 0 0 1 7.562 3.556.7.7 0 0 0 .793-1.147 37.311 37.311 0 0 0-9.1-4.122c-.394-.885-.8-1.778-1.233-2.678.835-2.288 7.419-20.354 9.22-26.058a.7.7 0 0 0-.024-.485c-.031-.071-2.978-6.972-4.2-11.273a49.86 49.86 0 0 0 2.168-4.206 11.512 11.512 0 0 0 3.315 2.907.7.7 0 0 0 .316.075.711.711 0 0 0 .272-.055.7.7 0 0 0 .394-.437l9.052-29.546 1.156 1.98c0 .029-.02.052-.014.082 13.17 58.781-9.166 98.058-9.393 98.448a.7.7 0 0 0 .205.924 113.165 113.165 0 0 1 14.8 12.237 151.1 151.1 0 0 1 13.319 14.925c-5.931-1.7-15.324-2.925-27.614-.013-4.15-1.112-20.425-7.626-20.589-7.691-.045-.018-.088.009-.135 0 1.59-3.964-2.417-9.248-9.166-12.062a19.006 19.006 0 0 0-9.236-1.543A7.8 7.8 0 0 0 61 360.217a23.379 23.379 0 0 1-3.216-6.392Zm85.806 17.659a192.459 192.459 0 0 0 10.491-49.359l7.182 12.291c-3.595 10.428-9.343 24.327-17.673 37.068Zm18.59-35.5 9.809 16.788c-.728 5.3-1.308 8.886-1.512 10.116-11.1 2.241-23.181 10.179-29.459 14.763 10.154-13.783 16.982-29.764 21.162-41.667Zm-9.314-15.767c-1.638 20.656-5.839 39.427-12.486 55.789-.019.046.01.091 0 .137a104.197 104.197 0 0 1-3.656 4.771c-.48-.2-1.012-.413-1.6-.626.35-2.144.642-4.487.894-6.956l.007-.009c7.3-19.214 11.367-43.978 12.316-61.019l4.556 7.8a.711.711 0 0 0-.031.113Zm-16.386 47.667a332.47 332.47 0 0 0-.093-38.951 225.4 225.4 0 0 0-5.735-41.089c1.182.052 2.356.11 3.5.182l12.905 22.084c-.647 15.57-4.157 38.695-10.577 57.774Zm-6.172-81.451a196.567 196.567 0 0 0-2.566-9.383l5.573 9.538c-.993-.058-1.99-.114-3.007-.155ZM135 329.006c1.1 21.272.745 38.085-1.07 50.018a151.05 151.05 0 0 0-13.762-15.484 114.535 114.535 0 0 0-14.468-12.03c2.63-4.928 20.766-41.586 10.058-94.968l8.822 15.1c3.796 11.499 8.993 29.944 10.42 57.364Zm-65.363 43.556c-5.862-2.442-9.707-7.159-8.4-10.3.615-1.478 2.282-2.445 4.692-2.728a17.615 17.615 0 0 1 8.538 1.447c5.862 2.443 9.707 7.16 8.4 10.3s-7.367 3.726-13.23 1.281Zm11.108 2.266a6.113 6.113 0 0 0 2.816-2c.07.082.121.179.227.222.587.236 12.626 5.053 18.549 7.056-1.051.29-2.105.582-3.2.936-1.657-.549-13.019-4.273-18.392-6.214Zm52.534 87.831c-.1.091-2.417 2.221-7.026 1.34a.726.726 0 0 0-.515.1c-.094.065-9.548 6.214-18.458 1.887-2.643-1.282-5.07-2.649-7.211-3.854-4.518-2.54-8.27-4.651-11.772-4.762a5.685 5.685 0 0 1 1.175-.438.7.7 0 0 0 .2-1.266c-.078-.048-7.821-4.916-10.062-11.507-1.438-4.23.487-8.605 2.033-12.121a16.347 16.347 0 0 0 1.731-5.3.7.7 0 0 0-1.391-.05 15.721 15.721 0 0 1-1.614 4.792 40.365 40.365 0 0 0-2.024 5.336c-1.438-1.425-4.263-4.671-4.359-8.256-.035-1.353 0-2.746.026-4.108a28.372 28.372 0 0 0-.432-7.524.666.666 0 0 0 .664.075.693.693 0 0 0 .425-.537c.02-.131 2.1-13.163 9.77-18.377a26.008 26.008 0 0 1 15.373-4.071 9.763 9.763 0 0 0-1.481 5.827.694.694 0 0 0 .637.639 3.519 3.519 0 0 1 1.318.34c-4.564 5.129-4.371 15.508-4.183 18.8a37.844 37.844 0 0 0-6.017-1.248.722.722 0 0 0-.78.6.7.7 0 0 0 .6.782c14.83 1.941 14.509 8.239 14.169 14.905a33.1 33.1 0 0 0 .026 5.526c1.027 8.587 11.151 12.941 11.574 13.12a22.909 22.909 0 0 0 9.138 2.073 15.988 15.988 0 0 0 10.793-4c1.041 1.729 3.271 6.732-2.327 11.277Zm12.2-48.545a2.307 2.307 0 0 1-1.506.528 6.643 6.643 0 0 1-4.038-1.491c-.253-.186-.5-.378-.747-.573a13.8 13.8 0 0 0-1.669-1.181 10.52 10.52 0 0 0-5.229-1.116l-.243-.01q-.387-.014-.776-.013a21.381 21.381 0 0 0-2.8.184 8.9 8.9 0 0 1 5.185-2.874 9.637 9.637 0 0 1 7.334 2.2c.227.2.445.423.664.64a7.6 7.6 0 0 0 2.259 1.74 6.841 6.841 0 0 0 .682.25c.569.185.925.317 1.089.652a.931.931 0 0 1-.208 1.064Zm1.529-10.61c.434 1.083-.239 2.417-1.171 4.264-.407.806-.852 1.688-1.258 2.664-.059.142-.09.279-.14.419a6.608 6.608 0 0 1-1.8-1.427 23.178 23.178 0 0 0-.713-.689 11.014 11.014 0 0 0-8.462-2.544 10.832 10.832 0 0 0-7.249 4.867.7.7 0 0 0 .007.776.684.684 0 0 0 .723.286 20.4 20.4 0 0 1 5.049-.457l.245.009a9.18 9.18 0 0 1 4.589.935 12.354 12.354 0 0 1 1.5 1.065c.261.2.521.41.787.6a8.045 8.045 0 0 0 4.7 1.763h.2c.063 0 .094-.025.147-.029a8.407 8.407 0 0 0 .417 1.336.711.711 0 0 0 .2.261 53.33 53.33 0 0 1 3.171 2.689 2.8 2.8 0 0 1 .914 2.066 2.965 2.965 0 0 1-.926 2.166 42.089 42.089 0 0 0-6.475 7.341 19.11 19.11 0 0 0-3.384 10.775 10.019 10.019 0 0 1-2.294 6.577c-.264.347-6.6 8.449-19.575 2.814-.1-.041-9.809-4.227-10.739-12a32.112 32.112 0 0 1-.018-5.293c.291-5.686.588-11.532-7.936-14.659-.159-2.351-.683-14.1 4.268-18.811a.693.693 0 0 0 .09-.9 3.4 3.4 0 0 0-2.177-1.177c.019-1.152.267-3.8 2.038-5.2a.7.7 0 0 0-.33-1.235c-.09-.013-.673-.09-1.59-.133v-1.266c3.883-1.82 17.367-6.856 35.434-.11a23.35 23.35 0 0 0-.831 5.414 82.445 82.445 0 0 0-4.3-.728c-11.585-1.652-14.217-1.149-14.323-1.131a.7.7 0 0 0 .276 1.364c.1-.02 2.685-.449 13.85 1.145 11.363 1.619 16.44 4.589 17.083 6.189Zm-9.974-13.111c-.232-.093-.456-.167-.687-.255-.013-.006-.017-.022-.031-.026s-.02 0-.03 0a53.108 53.108 0 0 0-19.1-3.689 43.317 43.317 0 0 0-18.086 3.734l.686-7.873c22.074-7.068 36.279-.3 38.854 1.1Zm19.275-4.132c-3.545.05-13.112.212-17.032.572l.488-2.132c4.671-.415 13.036-.753 17-.9a2.522 2.522 0 0 0-.635 1.591 2.271 2.271 0 0 0 .176.869Zm9.226 2.068c-3.394 0-6.143-.85-7.348-1.853a.689.689 0 0 0-.116-.106 1.418 1.418 0 0 1-.549-.975c0-1.385 3.427-2.934 8.013-2.934s8.012 1.549 8.012 2.934-3.43 2.934-8.015 2.934Zm15.154-12.536a69.216 69.216 0 0 0-1.4 1.539 63.779 63.779 0 0 1-2.786 2.956 8.444 8.444 0 0 1-4.252 2.021 18.74 18.74 0 0 0-13.485.032c-1.378.045-12.62.427-18.672.935l.021-.088a.7.7 0 0 0-.306-.743 18.96 18.96 0 0 0-1.628-.875c3.13-2.484 19.207-14.815 33.037-17.406a.7.7 0 0 0 .558-.567c.006-.035.568-3.316 1.353-8.885l10.809 18.5a17.879 17.879 0 0 0-3.252 2.581Zm44.4 29.974c-3.491 12.609-.373 27.023 1.446 33.563-4.365-5.2-14.491-15.923-26.863-20.17.435-2.387 1.9-11.219 1.245-18.452l7.954-4.592c5.596 4.744 13.961 8.644 16.213 9.651Zm-16.918-16.179 2.306 4-10.323 5.959h-.05a.666.666 0 0 0-.484.308l-2.644 1.527-2.306-4 3.134-1.809Zm-4.324.888-6.147 3.544-12.222-20.92-71.512-122.385 8.478.129Zm-64.936-114.152c.358.024.721.05 1.092.078a9.477 9.477 0 0 0-.531.886Zm26.212 4.421a75.37 75.37 0 0 1 7.952 2.64c-.422 2.99-.9 6.1-1.437 9.285-1.615-.455-5.355-1.447-10.6-2.51a9.158 9.158 0 0 0 .9-.637 9.183 9.183 0 0 0 3.181-8.778Zm9.387 2.4a381.072 381.072 0 0 0 2.4-21.6c.237 6.266.309 12.724.257 19.206-.02.068-.076.12-.073.195s.054.093.071.148c-.174 19.838-1.543 39.86-3.195 55.372l-7.72-13.244a275.336 275.336 0 0 0 6.553-29.134.665.665 0 0 0 .206-.287.692.692 0 0 0-.06-.54 346.99 346.99 0 0 0 1.551-10.056s.007-.007.009-.012-.004-.028.001-.043ZM177.6 309a10.74 10.74 0 0 0 3.144-1.774 16.99 16.99 0 0 0 3.45 7.308.694.694 0 0 0 .51.222h.034c.128-.007.585-.032 1.281-.089a59.736 59.736 0 0 0 1.671 5.11 35.557 35.557 0 0 0-11.649 9.984A604.104 604.104 0 0 0 177.6 309Zm-22.939-17.322.406.034c.272.023.544.034.813.034a9.36 9.36 0 0 0 3.185-.558c6.341 1.221 10.713 2.4 12.339 2.865a276.679 276.679 0 0 1-6.129 27.5l-10.308-17.685c.042-6.243-.198-10.589-.306-12.191Zm9.208-8.678a8.033 8.033 0 0 1-8.684 7.33l-8.053-.682-.288-.021a1.671 1.671 0 0 1-.192-.017l-6.336-10.869a8.108 8.108 0 0 1 8.171-5.107l8.054.682a8.045 8.045 0 0 1 7.328 8.684Zm-10.292 18.489-6.068-10.41 5.749.484c.083 1.18.295 4.699.319 9.921Zm68.536 23.774c0 3.3-3.287 6.432-5.464 8.5-.353.338-.679.648-.959.929-2.108 2.107-5.75 8.161-5.936 8.476-5.308 11.149-16.041 20.361-18.73 22.557L175.155 338.5c.205-1.852.4-3.794.6-5.781a33.066 33.066 0 0 1 12.443-11.63c1.058 2.633 1.952 4.373 2.014 4.493a.7.7 0 0 0 .618.374.686.686 0 0 0 .321-.079.7.7 0 0 0 .3-.938 61.648 61.648 0 0 1-4.016-10.4c5.833-.6 19.7-2.755 28.41-9.972 3.643 5.716 6.268 16.788 6.268 20.691Zm-2.213-27.632c-7.243 13.376-31.765 15.5-34.9 15.712-1.983-2.326-2.83-6.016-3.051-7.134a32.519 32.519 0 0 0 3.849-4.284c5.014 1.6 8.953 1.357 11.71-.732 3.57-2.706 4.016-7.64 4.052-9.493a21.8 21.8 0 0 0 8.463-2.451c3.3 1.286 8.539 6.905 9.877 8.382Zm-24.12-23.392c4.887 5.593 14.2 10.012 17.4 11.421a25.358 25.358 0 0 1-3.458 2.193l-.026.014a19.611 19.611 0 0 1-8.806 2.455.948.948 0 0 0-.522.209.692.692 0 0 0-.2.523c0 .061.284 6.167-3.5 9.031-2.458 1.862-6.128 1.982-10.911.36a.688.688 0 0 0-.793.261c-.039.056-3.722 5.266-7.273 6.8.467-8.412.775-17.193.86-25.943 7.418-.588 15.137-5.813 17.226-7.324Zm-18.08-23.694h.158l-.154.055Zm4.483 2.445a18.242 18.242 0 0 0-1.683 5.71.7.7 0 0 0 .6.781h.091a.694.694 0 0 0 .69-.6c.316-2.4 1.34-6.07 2.537-6.326a6.037 6.037 0 0 1 3.454.511 22.769 22.769 0 0 0-1.987 5.726.7.7 0 0 0 .533.827.683.683 0 0 0 .828-.532c.641-2.966 1.96-6.362 2.827-6.494 1.356-.215 3.809 1.072 4.746 1.639 2.031 2.2 4.219 8.324 4.237 8.373.549 1.65-.077 5.574-1 6.265-.471.349-2.061-.443-3.209-1.377 0-1.883.052-3.915.224-5.769a.7.7 0 1 0-1.387-.127 91.935 91.935 0 0 0-.027 12.4c-2.986 1.984-9.22 5.646-15.1 6.158.066-9.573-.155-19.064-.755-27.978 1.298-1.024 3.451.186 4.379.813Zm-5.227-3.836h-.015a.694.694 0 0 0-.475.2c-.016.016-.012.043-.026.059a.682.682 0 0 0-.179.412c-.007.225-.467 13.794-2.985 32.141a78.6 78.6 0 0 0-8.54-2.78 9.422 9.422 0 0 0-8.076-6.263l-8.054-.683a9.4 9.4 0 0 0-7.525 2.841q-1.577-.129-3.017-.215l-14-24.02h20.877a.692.692 0 0 0 .475-.2c.016-.015.012-.043.026-.058a.68.68 0 0 0 .179-.411c.007-.226.467-13.795 2.985-32.142a78.694 78.694 0 0 0 8.541 2.78 9.426 9.426 0 0 0 8.074 6.264l8.055.681q.395.035.786.034a9.472 9.472 0 0 0 6.746-2.873q1.574.129 3.011.214l14 24.02Zm4.919-25.554a9.1 9.1 0 0 0 .533-.882l.559.959a93.548 93.548 0 0 1-1.094-.077Zm17.558 25.558-81.4-139.633 6.137-3.544 83.739 143.307Zm47.446.148h-36.038l8.707-28.423c1.6 1.183 5.36 4.772 5.768 12.554a.691.691 0 0 0 .345.564.708.708 0 0 0 .663.023 7.76 7.76 0 0 1 6.173-.066c2.771 1.285 4.792 4.45 6.009 9.407a.7.7 0 0 0 .877.5 5.776 5.776 0 0 1 4.158.575 7.872 7.872 0 0 1 3.336 4.866Zm16.632-12.914-17.643 8.189a6.755 6.755 0 0 0-6.173-2.192c-1.347-5.035-3.575-8.3-6.629-9.7a8.855 8.855 0 0 0-6.425-.279 19.4 19.4 0 0 0-2.912-9.009 48.369 48.369 0 0 1 2.543-4.989.6.6 0 0 0 .061-.1 48.724 48.724 0 0 1 7.013-9.369c3.189.977 25.06 8.374 30.163 27.449Zm-37.588-20.126c-1.234-3.877-3.3-8.817-3.791-9.971 1.694-5.293 6.961-19.821 8.664-24.5a67.405 67.405 0 0 0 11.777 17.112 29.518 29.518 0 0 0-6.417 9.529c-1.708-.638-2.777-.942-2.83-.956a.678.678 0 0 0-.677.181 48.89 48.89 0 0 0-6.728 8.605Zm36.377 13.24c-6.13-11.737-18.42-17.986-24.847-20.567 3.016-7.67 10.648-13.008 10.726-13.062a.7.7 0 0 0-.79-1.146 34.209 34.209 0 0 0-3.827 3.195c-14.043-14.16-20.077-39.746-20.136-40.007a.7.7 0 0 0-1.358.313 119.179 119.179 0 0 0 5.9 17.436 33.409 33.409 0 0 1-7.563-3.552.686.686 0 0 0-.968.177.7.7 0 0 0 .176.969 37.313 37.313 0 0 0 9.1 4.12c.394.885.8 1.779 1.233 2.68-.834 2.285-7.417 20.354-9.22 26.058a.7.7 0 0 0 .024.485c.03.07 2.978 6.971 4.2 11.274a49.873 49.873 0 0 0-2.168 4.205 11.5 11.5 0 0 0-3.314-2.907.712.712 0 0 0-.589-.02.7.7 0 0 0-.393.437l-9.052 29.548-1.157-1.98c0-.03.021-.055.015-.086-13.17-58.779 9.164-98.056 9.392-98.446a.7.7 0 0 0-.205-.922 113.414 113.414 0 0 1-14.8-12.239 151.468 151.468 0 0 1-13.307-14.911 48.333 48.333 0 0 0 13.287 1.777 61.956 61.956 0 0 0 14.364-1.763c4.22 1.145 20.377 7.609 20.542 7.675a.666.666 0 0 0 .126.023c-1.565 3.96 2.438 9.229 9.173 12.039a20.216 20.216 0 0 0 7.639 1.649c2.721 0 5-.74 6.382-2.148a23.336 23.336 0 0 1 3.2 6.366 28.1 28.1 0 0 1 .787 5.377 19.834 19.834 0 0 0 .521 3.774c.855 3 8.155 30.471 8.465 35.124a86.362 86.362 0 0 0 3.3 16.1c.883 2.697-2.383 13.801-14.858 22.955Z"/><path d="M201.978 65.772a.7.7 0 0 0 .412.134.688.688 0 0 0 .561-.286.7.7 0 0 0-.15-.972 18.726 18.726 0 0 0-13.826-3.226.7.7 0 0 0 .279 1.364 17.569 17.569 0 0 1 12.724 2.986Z"/><circle cx="193.914" cy="68.316" r="3.106"/><path d="m154.974 276.627-5.52-.469a5.605 5.605 0 0 0-.946 11.171l5.519.467q.24.021.477.021a5.605 5.605 0 0 0 .47-11.19Zm-.829 9.783-5.519-.467a4.215 4.215 0 0 1 .348-8.414c.121 0 .241.006.363.015l5.519.469a4.214 4.214 0 0 1-.711 8.4ZM119.9 434.23a.7.7 0 0 0-.823 1.124 18.462 18.462 0 0 0 10.918 3.469 15.545 15.545 0 0 0 2.908-.243.7.7 0 0 0-.28-1.363 17.625 17.625 0 0 1-12.723-2.987Zm4.955-2.544a3.107 3.107 0 1 0 3.106-3.106 3.107 3.107 0 0 0-3.106 3.106Z"/><path class="cls-9" d="M65.3 229.665c2.245 11.2-7.564 27.146-7.564 27.146-3.492 1.018-8.045-5.429-8.045-5.429 10.18-8.144 10.859-21.717 10.859-21.717Zm13.481-22.715v-35.07c0-7.879-7.5-14.36-16.756-14.4-9.255.043-16.76 6.519-16.757 14.4v35.07a124.368 124.368 0 0 0 33.513 0Z"/><path class="cls-10" d="M78.781 171.88v35.07a124.209 124.209 0 0 1-16.756 1.134v-50.606c9.254.042 16.759 6.522 16.756 14.402Z"/><path class="cls-6" d="M43.173 206.694h37.7a9.617 9.617 0 0 1 9.617 9.617 23.32 23.32 0 0 1-23.32 23.32h-10.3a23.32 23.32 0 0 1-23.32-23.32 9.617 9.617 0 0 1 9.623-9.617Z"/><path class="cls-11" d="M81.04 206.694H62.025v32.937h4.986a23.483 23.483 0 0 0 23.483-23.483 9.454 9.454 0 0 0-9.454-9.454Z"/><path class="cls-9" d="M256.572 270.335c-2.244-11.2 7.564-27.146 7.564-27.146 3.492-1.018 8.045 5.429 8.045 5.429-10.18 8.144-10.859 21.717-10.859 21.717Zm-13.478 22.715v35.069c0 7.88 7.5 14.36 16.756 14.4 9.255-.043 16.76-6.519 16.757-14.4V293.05a124.368 124.368 0 0 0-33.513 0Z"/><path class="cls-10" d="M243.094 328.119V293.05a124.209 124.209 0 0 1 16.756-1.134v50.606c-9.25-.043-16.759-6.522-16.756-14.403Z"/><path class="cls-6" d="M241 260.369h37.7a9.617 9.617 0 0 1 9.617 9.617A23.32 23.32 0 0 1 265 293.306h-10.3a23.32 23.32 0 0 1-23.32-23.32 9.617 9.617 0 0 1 9.62-9.617Z" transform="rotate(180 259.85 276.837)"/><path class="cls-11" d="M240.835 293.306h19.015v-32.937h-4.985a23.484 23.484 0 0 0-23.484 23.483 9.454 9.454 0 0 0 9.454 9.454ZM26.676 106.648c.854 4.258-2.876 10.322-2.876 10.322-1.328.387-3.059-2.064-3.059-2.064 3.871-3.1 4.129-8.258 4.129-8.258Z"/><path class="cls-9" d="M31.662 97.387V84.052c0-3-2.853-5.461-6.372-5.477-3.519.017-6.373 2.479-6.371 5.477v13.335a47.283 47.283 0 0 0 12.743 0Z"/><path class="cls-10" d="M31.662 84.052v13.335a47.15 47.15 0 0 1-6.372.432V78.575c3.519.016 6.373 2.481 6.372 5.477Z"/><path class="cls-6" d="M18.06 97.29h14.461a3.595 3.595 0 0 1 3.595 3.595 8.93 8.93 0 0 1-8.93 8.93h-3.792a8.93 8.93 0 0 1-8.93-8.93 3.595 3.595 0 0 1 3.596-3.595Z"/><path class="cls-11" d="M32.521 97.29H25.29v12.525h1.9a8.93 8.93 0 0 0 8.93-8.93 3.6 3.6 0 0 0-3.599-3.595ZM295.2 393.352c-.854-4.258 2.876-10.322 2.876-10.322 1.328-.388 3.059 2.064 3.059 2.064-3.871 3.1-4.129 8.258-4.129 8.258Z"/><path class="cls-9" d="M290.213 402.612v13.336c0 3 2.853 5.46 6.372 5.477 3.519-.017 6.373-2.479 6.372-5.477v-13.336a47.372 47.372 0 0 0-12.744 0Z"/><path class="cls-10" d="M290.213 415.948v-13.336a47.312 47.312 0 0 1 6.372-.431v19.244c-3.519-.017-6.373-2.481-6.372-5.477Z"/><path class="cls-6" d="M289.354 390.185h14.461a3.595 3.595 0 0 1 3.595 3.595 8.93 8.93 0 0 1-8.93 8.93h-3.792a8.93 8.93 0 0 1-8.93-8.93 3.595 3.595 0 0 1 3.596-3.595Z" transform="rotate(180 296.585 396.447)"/><path class="cls-11" d="M289.354 402.71h7.231v-12.525h-1.9a8.93 8.93 0 0 0-8.93 8.93 3.6 3.6 0 0 0 3.599 3.595Z"/></svg>