<svg id="Layer_1" data-name="Layer 1" xmlns="http://www.w3.org/2000/svg" viewBox="0 0 321.875 500"><defs><style>.cls-2{fill:#02592d}.cls-3{fill:#ffc306}.cls-4{fill:#a50404}.cls-5{fill:#05703d}.cls-6{fill:#ef870a}.cls-7{fill:#034924}.cls-8{fill:#d90000}</style></defs><path style="fill:#fff" d="M0 0h321.875v500H0z"/><path d="M268.453 481.248H45.383a26.661 26.661 0 0 1-26.63-26.63V125.1a1.25 1.25 0 0 1 2.5 0v329.518a24.156 24.156 0 0 0 24.13 24.13h223.07a1.25 1.25 0 0 1 0 2.5Zm33.42-105.09a1.25 1.25 0 0 1-1.25-1.25V45.387a24.162 24.162 0 0 0-24.13-24.139H53.423a1.25 1.25 0 0 1 0-2.5h223.07a26.664 26.664 0 0 1 26.63 26.639v329.521a1.25 1.25 0 0 1-1.25 1.25ZM32.748 21.167l3.876 2.53-12.743 19.279a15.165 15.165 0 0 1 4.81-.862 12.753 12.753 0 0 1 9.529 4.052 13.8 13.8 0 0 1 3.913 9.977 14.464 14.464 0 0 1-1.89 7.351 13.84 13.84 0 0 1-5.37 5.221 15.163 15.163 0 0 1-7.49 1.938 14.409 14.409 0 0 1-7.2-1.874 13.468 13.468 0 0 1-5.21-5.269 14.713 14.713 0 0 1-1.89-7.271 17.631 17.631 0 0 1 1.169-6.069 38.007 38.007 0 0 1 4.19-7.67Zm-5.172 25.079a9.916 9.916 0 0 0-7.01 16.928 9.555 9.555 0 0 0 7.01 2.9 9.916 9.916 0 0 0 7.009-16.928 9.559 9.559 0 0 0-7.009-2.9Z"/><path class="cls-2" d="M26.676 106.648c.854 4.258-2.876 10.322-2.876 10.322-1.328.387-3.059-2.064-3.059-2.064 3.871-3.1 4.129-8.258 4.129-8.258Z"/><path class="cls-3" d="M31.662 97.387V84.052c0-3-2.853-5.461-6.372-5.477-3.519.017-6.373 2.479-6.371 5.477v13.335a47.283 47.283 0 0 0 12.743 0Z"/><path class="cls-4" d="M31.662 84.052v13.335a47.15 47.15 0 0 1-6.372.432V78.575c3.519.016 6.373 2.481 6.372 5.477Z"/><path class="cls-5" d="M18.06 97.29h14.461a3.595 3.595 0 0 1 3.595 3.595 8.93 8.93 0 0 1-8.93 8.93h-3.792a8.93 8.93 0 0 1-8.93-8.93 3.595 3.595 0 0 1 3.596-3.595Z"/><path class="cls-2" d="M32.521 97.29H25.29v12.525h1.9a8.93 8.93 0 0 0 8.93-8.93 3.6 3.6 0 0 0-3.599-3.595Z"/><path d="m289.127 478.833-3.876-2.53 12.743-19.28a15.14 15.14 0 0 1-4.81.863 12.753 12.753 0 0 1-9.529-4.052 13.8 13.8 0 0 1-3.913-9.977 14.464 14.464 0 0 1 1.89-7.351 13.84 13.84 0 0 1 5.37-5.221 15.166 15.166 0 0 1 7.49-1.938 14.409 14.409 0 0 1 7.2 1.874 13.468 13.468 0 0 1 5.21 5.269 14.712 14.712 0 0 1 1.89 7.27 17.637 17.637 0 0 1-1.169 6.07 38.007 38.007 0 0 1-4.191 7.671Zm5.173-25.079a9.906 9.906 0 1 0-7.01-2.9 9.551 9.551 0 0 0 7.01 2.9Z"/><path class="cls-2" d="M295.2 393.352c-.854-4.258 2.876-10.322 2.876-10.322 1.328-.388 3.059 2.064 3.059 2.064-3.871 3.1-4.129 8.258-4.129 8.258Z"/><path class="cls-3" d="M290.213 402.612v13.336c0 3 2.853 5.46 6.372 5.477 3.519-.017 6.373-2.479 6.372-5.477v-13.336a47.372 47.372 0 0 0-12.744 0Z"/><path class="cls-4" d="M290.213 415.948v-13.336a47.312 47.312 0 0 1 6.372-.431v19.244c-3.519-.017-6.373-2.481-6.372-5.477Z"/><path class="cls-5" d="M289.354 390.185h14.461a3.595 3.595 0 0 1 3.595 3.595 8.93 8.93 0 0 1-8.93 8.93h-3.792a8.93 8.93 0 0 1-8.93-8.93 3.595 3.595 0 0 1 3.596-3.595Z" transform="rotate(180 296.585 396.447)"/><path class="cls-2" d="M289.354 402.71h7.231v-12.525h-1.9a8.93 8.93 0 0 0-8.93 8.93 3.6 3.6 0 0 0 3.599 3.595ZM160.505 109.431l.427-.615a37.8 37.8 0 0 1 7.775-8.087 45.721 45.721 0 0 1 9.41-5.762 15.941 15.941 0 0 1 1.649-.707c.29-.111.579-.222.864-.343a23.356 23.356 0 0 1 2.632-.945l2.561-.788 2.687-.6a28.285 28.285 0 0 1 3.693-.625c.556-.069 1.112-.138 1.664-.223 1.208-.129 2.4-.179 3.548-.227a105.08 105.08 0 0 0 1.871-.089l.121 1.393c-.634.072-1.269.132-1.9.193-1.117.1-2.271.213-3.384.391-.529.111-1.092.21-1.655.31a26.665 26.665 0 0 0-3.462.771l-2.59.72-2.444.895a21.36 21.36 0 0 0-2.387 1c-.281.137-.573.268-.866.4a14.345 14.345 0 0 0-1.465.718 43.068 43.068 0 0 0-8.574 5.88 35.055 35.055 0 0 0-6.657 7.641l-.363.587Z"/><path class="cls-2" d="M161.507 109.215a37.378 37.378 0 0 1 7.636-7.938 44.947 44.947 0 0 1 9.26-5.672c.8-.417 1.67-.692 2.5-1.044a22.753 22.753 0 0 1 2.545-.914l2.581-.794 2.633-.585a51.584 51.584 0 0 1 5.311-.839c1.78-.189 3.575-.2 5.355-.31-1.777.2-3.561.307-5.319.588a51.083 51.083 0 0 0-5.219 1.105l-2.564.712-2.5.914a21.822 21.822 0 0 0-2.446 1.025c-.795.387-1.625.7-2.387 1.146a43.545 43.545 0 0 0-8.678 5.955 35.744 35.744 0 0 0-6.793 7.8Zm-1.002 46.057.427-.615a37.8 37.8 0 0 1 7.775-8.086 45.755 45.755 0 0 1 9.41-5.763 16.156 16.156 0 0 1 1.649-.706c.29-.111.579-.222.864-.343a22.672 22.672 0 0 1 2.632-.945l2.561-.788 2.687-.6a28.73 28.73 0 0 1 3.7-.625c.554-.069 1.108-.137 1.658-.221 1.207-.129 2.4-.179 3.547-.227a96.42 96.42 0 0 0 1.871-.09l.121 1.394c-.634.072-1.269.132-1.9.192-1.117.1-2.271.214-3.384.392-.529.11-1.092.21-1.655.31a26.5 26.5 0 0 0-3.462.771l-2.59.719-2.444.9a21.594 21.594 0 0 0-2.388 1c-.281.138-.576.27-.871.4a14.76 14.76 0 0 0-1.459.715 43.116 43.116 0 0 0-8.574 5.881 35.055 35.055 0 0 0-6.657 7.641l-.363.587Z"/><path class="cls-2" d="M161.507 155.057a37.354 37.354 0 0 1 7.636-7.938 44.947 44.947 0 0 1 9.26-5.672c.8-.417 1.67-.692 2.5-1.044a22.753 22.753 0 0 1 2.545-.914l2.581-.794 2.633-.585a51.584 51.584 0 0 1 5.311-.839c1.78-.19 3.575-.2 5.355-.311-1.777.2-3.561.307-5.319.588a51.356 51.356 0 0 0-5.219 1.106l-2.564.711-2.5.914a21.828 21.828 0 0 0-2.446 1.026c-.795.387-1.625.7-2.387 1.145a43.549 43.549 0 0 0-8.678 5.956 35.744 35.744 0 0 0-6.793 7.8Zm-1.002 46.435.427-.615a37.8 37.8 0 0 1 7.775-8.086 45.727 45.727 0 0 1 9.41-5.763 16.156 16.156 0 0 1 1.649-.706c.29-.111.579-.223.864-.344a22.853 22.853 0 0 1 2.632-.944l2.561-.788 2.687-.6a28.73 28.73 0 0 1 3.7-.625c.554-.069 1.108-.137 1.658-.221 1.207-.129 2.4-.179 3.547-.227.625-.026 1.249-.053 1.871-.09l.121 1.394c-.634.072-1.269.132-1.9.192-1.117.1-2.271.214-3.384.392-.529.11-1.092.21-1.655.309a26.5 26.5 0 0 0-3.462.772l-2.59.718-2.444.9a21.4 21.4 0 0 0-2.388 1c-.281.138-.576.269-.871.4a14.989 14.989 0 0 0-1.459.716 43.116 43.116 0 0 0-8.574 5.881 35.055 35.055 0 0 0-6.657 7.641l-.363.587Z"/><path class="cls-2" d="M161.507 201.276a37.4 37.4 0 0 1 7.636-7.938 44.943 44.943 0 0 1 9.26-5.671c.8-.417 1.67-.692 2.5-1.044a22.361 22.361 0 0 1 2.545-.914l2.581-.794 2.633-.586a51.854 51.854 0 0 1 5.311-.838c1.78-.19 3.575-.2 5.355-.311-1.777.2-3.561.307-5.319.588a51.353 51.353 0 0 0-5.219 1.1l-2.564.712-2.5.914a21.643 21.643 0 0 0-2.446 1.026c-.795.387-1.625.7-2.387 1.145a43.549 43.549 0 0 0-8.678 5.956 35.739 35.739 0 0 0-6.793 7.8Zm-3.652-90.543a35.014 35.014 0 0 0-6.659-7.642 42.894 42.894 0 0 0-8.536-5.859 14.585 14.585 0 0 0-1.5-.738c-.292-.13-.585-.261-.873-.4a21.225 21.225 0 0 0-2.359-.992l-2.518-.92-2.512-.694a26.642 26.642 0 0 0-3.486-.779c-.563-.1-1.127-.2-1.687-.316-1.081-.172-2.236-.281-3.353-.385-.634-.061-1.269-.121-1.9-.193l.121-1.393c.622.037 1.246.063 1.871.089 1.151.048 2.34.1 3.516.223.584.089 1.14.158 1.7.227a28.228 28.228 0 0 1 3.717.632l2.603.577 2.635.808a23.228 23.228 0 0 1 2.6.935c.294.125.584.236.874.347a16.405 16.405 0 0 1 1.685.724 45.619 45.619 0 0 1 9.369 5.742 37.81 37.81 0 0 1 7.779 8.09l.427.615-3.152 1.889Z"/><path class="cls-2" d="M160.368 109.215a37.378 37.378 0 0 0-7.636-7.938 44.947 44.947 0 0 0-9.26-5.672c-.8-.417-1.67-.692-2.5-1.044a22.753 22.753 0 0 0-2.545-.914l-2.581-.794-2.633-.585a51.584 51.584 0 0 0-5.311-.839c-1.78-.189-3.575-.2-5.355-.31 1.777.2 3.561.307 5.319.588a51.083 51.083 0 0 1 5.219 1.105l2.564.712 2.5.914a21.885 21.885 0 0 1 2.445 1.025c.795.387 1.625.7 2.387 1.146a43.545 43.545 0 0 1 8.678 5.955 35.744 35.744 0 0 1 6.793 7.8Zm-2.513 47.36a35.041 35.041 0 0 0-6.659-7.643 42.93 42.93 0 0 0-8.536-5.858 14.785 14.785 0 0 0-1.5-.736 25.89 25.89 0 0 1-.88-.405 21.568 21.568 0 0 0-2.358-.99l-2.518-.921-2.511-.693a26.532 26.532 0 0 0-3.487-.779c-.563-.1-1.127-.2-1.687-.316-1.081-.172-2.236-.281-3.353-.386-.634-.06-1.269-.12-1.9-.192l.121-1.394a96.42 96.42 0 0 0 1.871.09c1.151.048 2.34.1 3.516.223a60 60 0 0 0 1.689.225 28.817 28.817 0 0 1 3.725.631l2.608.58 2.635.809a22.438 22.438 0 0 1 2.6.936c.293.124.583.235.873.346a16.405 16.405 0 0 1 1.685.724 45.577 45.577 0 0 1 9.369 5.742 37.784 37.784 0 0 1 7.779 8.089l.427.615-3.152 1.89Z"/><path class="cls-2" d="M160.368 155.057a37.354 37.354 0 0 0-7.636-7.938 44.947 44.947 0 0 0-9.26-5.672c-.8-.417-1.67-.692-2.5-1.044a22.753 22.753 0 0 0-2.545-.914l-2.581-.794-2.633-.585a51.584 51.584 0 0 0-5.311-.839c-1.78-.19-3.575-.2-5.355-.311 1.777.2 3.561.307 5.319.588a51.356 51.356 0 0 1 5.219 1.106l2.564.711 2.5.914a21.891 21.891 0 0 1 2.445 1.026c.795.387 1.625.7 2.387 1.145a43.549 43.549 0 0 1 8.678 5.956 35.744 35.744 0 0 1 6.793 7.8Zm-2.513 47.743a35.041 35.041 0 0 0-6.659-7.643 42.93 42.93 0 0 0-8.536-5.858 15.009 15.009 0 0 0-1.5-.737c-.295-.131-.59-.262-.88-.4a21.374 21.374 0 0 0-2.358-.99l-2.518-.921-2.511-.693a26.533 26.533 0 0 0-3.487-.78c-.563-.1-1.127-.2-1.687-.315-1.081-.172-2.236-.281-3.353-.386-.634-.06-1.269-.12-1.9-.192l.121-1.394c.622.037 1.246.064 1.871.09 1.151.048 2.34.1 3.516.223a60 60 0 0 0 1.689.225 28.817 28.817 0 0 1 3.725.631l2.608.58 2.635.809a22.618 22.618 0 0 1 2.6.935c.293.124.583.236.873.347a16.405 16.405 0 0 1 1.685.724 45.575 45.575 0 0 1 9.369 5.742 37.784 37.784 0 0 1 7.779 8.089l.427.615-3.152 1.89Z"/><path class="cls-2" d="M160.368 201.276a37.4 37.4 0 0 0-7.636-7.938 44.943 44.943 0 0 0-9.26-5.671c-.8-.417-1.67-.692-2.5-1.044a22.361 22.361 0 0 0-2.545-.914l-2.581-.794-2.633-.586a51.854 51.854 0 0 0-5.311-.838c-1.78-.19-3.575-.2-5.355-.311 1.777.2 3.561.307 5.319.588a51.353 51.353 0 0 1 5.219 1.1l2.564.712 2.5.914a21.7 21.7 0 0 1 2.445 1.026c.795.387 1.625.7 2.387 1.145a43.549 43.549 0 0 1 8.678 5.956 35.739 35.739 0 0 1 6.793 7.8Z"/><path class="cls-3" d="M164.76 213.343h-7.64c.09-.12.14-.18.14-.18l1.12-152.92h5.12l1.12 152.92s.05.06.14.18Z"/><path class="cls-6" d="M164.76 213.343h-3.82v-153.1h2.56l1.12 152.92s.05.06.14.18Z"/><path class="cls-5" d="M160.939 211.4s-3.62 0-5.115 4.344a8.913 8.913 0 0 0-.229 4.707 15.721 15.721 0 0 0 1.573 4.271 7.765 7.765 0 0 0 .813 1.184c.83 1.019 2.594 3.329 2.958 4.945Z"/><path class="cls-2" d="M160.937 211.4s3.62 0 5.114 4.344a8.913 8.913 0 0 1 .229 4.707 15.721 15.721 0 0 1-1.573 4.271 7.694 7.694 0 0 1-.813 1.184c-.83 1.019-2.594 3.329-2.957 4.945Z"/><path class="cls-2" d="m160.939 223.029-2.653-3.499 2.653-3.5 2.652 3.5-2.652 3.499z"/><path class="cls-7" d="m163.591 219.53-2.652-3.5v6.999l2.652-3.499z"/><path class="cls-4" d="M149.539 53.348c4.3.039 10.125 2.818 11.4 6.891-1.274 4.073-7.1 6.853-11.4 6.891-4.549.041-7.66-2.984-7.66-6.891s3.111-6.932 7.66-6.891Z"/><path class="cls-4" d="M172.336 53.348c-4.3.039-10.125 2.818-11.4 6.891 1.273 4.073 7.1 6.853 11.4 6.891 4.549.041 7.66-2.984 7.66-6.891s-3.111-6.932-7.66-6.891Z"/><path class="cls-8" d="M168.872 47.114c-.044 4.952-3.245 11.659-7.934 13.125-4.69-1.466-7.891-8.173-7.935-13.125-.047-5.236 3.436-8.819 7.935-8.819s7.981 3.583 7.934 8.819Z"/><path class="cls-3" d="M100.955 104.165H74.284c-5.992 0-10.921-5.705-10.953-12.743.033-7.039 4.958-12.747 10.953-12.744h26.671a94.574 94.574 0 0 1 0 25.487Z"/><path class="cls-4" d="M74.284 104.165h26.671a94.448 94.448 0 0 0 .863-12.743H63.331c.032 7.038 4.961 12.746 10.953 12.743Z"/><path class="cls-5" d="M109.493 78.9h7.584a17.859 17.859 0 0 1 17.859 17.859 7.19 7.19 0 0 1-7.19 7.19H98.824a7.19 7.19 0 0 1-7.19-7.19A17.859 17.859 0 0 1 109.493 78.9Z" transform="rotate(90 113.285 91.422)"/><path class="cls-2" d="M100.76 105.883V91.422h25.05v3.792a17.86 17.86 0 0 1-17.86 17.859 7.19 7.19 0 0 1-7.19-7.19Z"/><path class="cls-3" d="M100.955 150.044H74.284c-5.992 0-10.921-5.705-10.953-12.743.033-7.038 4.958-12.746 10.953-12.744h26.671a94.574 94.574 0 0 1 0 25.487Z"/><path class="cls-4" d="M74.284 150.044h26.671a94.448 94.448 0 0 0 .863-12.743H63.331c.032 7.038 4.961 12.746 10.953 12.743Z"/><path class="cls-5" d="M109.493 124.776h7.584a17.859 17.859 0 0 1 17.859 17.859 7.19 7.19 0 0 1-7.19 7.19H98.824a7.19 7.19 0 0 1-7.19-7.19 17.859 17.859 0 0 1 17.859-17.859Z" transform="rotate(90 113.285 137.301)"/><path class="cls-2" d="M100.76 151.762V137.3h25.05v3.792a17.86 17.86 0 0 1-17.86 17.859 7.19 7.19 0 0 1-7.19-7.189Z"/><path class="cls-3" d="M100.955 195.924H74.284c-5.992 0-10.921-5.706-10.953-12.744.033-7.038 4.958-12.746 10.953-12.744h26.671a94.582 94.582 0 0 1 0 25.488Z"/><path class="cls-4" d="M74.284 195.924h26.671a94.473 94.473 0 0 0 .863-12.744H63.331c.032 7.038 4.961 12.746 10.953 12.744Z"/><path class="cls-5" d="M109.493 170.655h7.584a17.859 17.859 0 0 1 17.859 17.859 7.19 7.19 0 0 1-7.19 7.19H98.824a7.19 7.19 0 0 1-7.19-7.19 17.859 17.859 0 0 1 17.859-17.859Z" transform="rotate(90 113.285 183.18)"/><path class="cls-2" d="M100.76 197.641V183.18h25.05v3.792a17.86 17.86 0 0 1-17.86 17.859 7.19 7.19 0 0 1-7.19-7.19Z"/><path class="cls-3" d="M220.92 104.165h26.671c5.992 0 10.921-5.705 10.953-12.743-.033-7.039-4.958-12.747-10.953-12.744H220.92a94.574 94.574 0 0 0 0 25.487Z"/><path class="cls-4" d="M247.591 104.165H220.92a94.448 94.448 0 0 1-.863-12.743h38.487c-.032 7.038-4.961 12.746-10.953 12.743Z"/><path class="cls-5" d="M194.129 78.9h28.922a7.19 7.19 0 0 1 7.19 7.19 17.859 17.859 0 0 1-17.859 17.859H204.8a17.859 17.859 0 0 1-17.859-17.859 7.19 7.19 0 0 1 7.19-7.19Z" transform="rotate(90 208.59 91.422)"/><path class="cls-2" d="M221.115 105.883V91.422h-25.049v3.792a17.859 17.859 0 0 0 17.859 17.859 7.19 7.19 0 0 0 7.19-7.19Z"/><path class="cls-3" d="M220.92 150.044h26.671c5.992 0 10.921-5.705 10.953-12.743-.033-7.038-4.958-12.746-10.953-12.744H220.92a94.574 94.574 0 0 0 0 25.487Z"/><path class="cls-4" d="M247.591 150.044H220.92a94.448 94.448 0 0 1-.863-12.743h38.487c-.032 7.038-4.961 12.746-10.953 12.743Z"/><path class="cls-5" d="M194.129 124.776h28.922a7.19 7.19 0 0 1 7.19 7.19 17.859 17.859 0 0 1-17.859 17.859H204.8a17.859 17.859 0 0 1-17.859-17.859 7.19 7.19 0 0 1 7.19-7.19Z" transform="rotate(90 208.59 137.301)"/><path class="cls-2" d="M221.115 151.762V137.3h-25.049v3.792a17.859 17.859 0 0 0 17.859 17.859 7.19 7.19 0 0 0 7.19-7.189Z"/><path class="cls-3" d="M220.92 195.924h26.671c5.992 0 10.921-5.706 10.953-12.744-.033-7.038-4.958-12.746-10.953-12.744H220.92a94.582 94.582 0 0 0 0 25.488Z"/><path class="cls-4" d="M247.591 195.924H220.92a94.473 94.473 0 0 1-.863-12.744h38.487c-.032 7.038-4.961 12.746-10.953 12.744Z"/><path class="cls-5" d="M194.129 170.655h28.922a7.19 7.19 0 0 1 7.19 7.19 17.859 17.859 0 0 1-17.859 17.855H204.8a17.859 17.859 0 0 1-17.859-17.859 7.19 7.19 0 0 1 7.188-7.186Z" transform="rotate(90 208.59 183.18)"/><path class="cls-2" d="M221.115 197.641V183.18h-25.049v3.792a17.859 17.859 0 0 0 17.859 17.859 7.19 7.19 0 0 0 7.19-7.19ZM161.37 390.109l-.427.615a37.781 37.781 0 0 1-7.775 8.087 45.771 45.771 0 0 1-9.41 5.763 16.156 16.156 0 0 1-1.649.706c-.29.111-.579.222-.864.343a23.356 23.356 0 0 1-2.632.945l-2.561.788-2.687.6a28.639 28.639 0 0 1-3.692.625 53.71 53.71 0 0 0-1.665.222c-1.208.129-2.4.179-3.548.227-.624.026-1.248.052-1.871.09l-.121-1.394c.634-.072 1.269-.132 1.9-.192 1.117-.105 2.271-.214 3.384-.392.529-.11 1.093-.21 1.655-.31a26.5 26.5 0 0 0 3.462-.771l2.59-.72 2.444-.895a21.36 21.36 0 0 0 2.387-1c.281-.137.574-.268.866-.4a14.553 14.553 0 0 0 1.465-.717 43.116 43.116 0 0 0 8.574-5.881 35.055 35.055 0 0 0 6.657-7.641l.363-.587Z"/><path class="cls-2" d="M160.368 390.325a37.378 37.378 0 0 1-7.636 7.938 44.947 44.947 0 0 1-9.26 5.672c-.8.417-1.67.692-2.5 1.044a22.753 22.753 0 0 1-2.545.914l-2.581.794-2.633.585a51.584 51.584 0 0 1-5.311.839c-1.78.189-3.575.2-5.355.311 1.777-.2 3.561-.307 5.319-.588a51.356 51.356 0 0 0 5.219-1.106l2.564-.712 2.5-.913a22.081 22.081 0 0 0 2.445-1.026c.795-.387 1.625-.7 2.387-1.146a43.545 43.545 0 0 0 8.678-5.955 35.744 35.744 0 0 0 6.793-7.8Zm1.002-46.057-.427.615a37.777 37.777 0 0 1-7.775 8.086 45.712 45.712 0 0 1-9.41 5.763 16.156 16.156 0 0 1-1.649.706c-.29.111-.579.223-.864.344a22.853 22.853 0 0 1-2.632.944l-2.561.788-2.687.6a28.73 28.73 0 0 1-3.7.625c-.554.069-1.107.137-1.658.221-1.207.129-2.4.179-3.547.227-.624.026-1.248.053-1.871.09l-.121-1.394c.634-.072 1.269-.132 1.9-.192 1.117-.105 2.271-.214 3.384-.392a56 56 0 0 1 1.655-.309 26.5 26.5 0 0 0 3.462-.772l2.59-.719 2.444-.9a21.594 21.594 0 0 0 2.388-1c.281-.138.576-.27.871-.4a14.989 14.989 0 0 0 1.459-.716 43.116 43.116 0 0 0 8.574-5.881 35.055 35.055 0 0 0 6.657-7.641l.363-.587Z"/><path class="cls-2" d="M160.368 344.483a37.383 37.383 0 0 1-7.636 7.939 44.943 44.943 0 0 1-9.26 5.671c-.8.417-1.67.692-2.5 1.044a22.361 22.361 0 0 1-2.545.914l-2.581.794-2.633.586a51.854 51.854 0 0 1-5.311.838c-1.78.19-3.575.2-5.355.311 1.777-.2 3.561-.307 5.319-.588a51.353 51.353 0 0 0 5.219-1.105l2.564-.712 2.5-.914a21.7 21.7 0 0 0 2.445-1.026c.795-.387 1.625-.7 2.387-1.145a43.549 43.549 0 0 0 8.678-5.956 35.721 35.721 0 0 0 6.793-7.8Zm1.002-46.435-.427.616a37.8 37.8 0 0 1-7.775 8.085 45.727 45.727 0 0 1-9.41 5.763 15.936 15.936 0 0 1-1.649.706c-.29.112-.579.223-.864.344a22.853 22.853 0 0 1-2.632.944l-2.561.788-2.687.6a28.558 28.558 0 0 1-3.7.625c-.554.069-1.107.138-1.658.222-1.207.129-2.4.178-3.547.226-.624.027-1.248.053-1.871.09l-.121-1.393c.634-.073 1.269-.132 1.9-.193 1.117-.1 2.271-.214 3.384-.391.529-.111 1.093-.21 1.655-.31a26.5 26.5 0 0 0 3.462-.772l2.59-.718 2.444-.9a21.4 21.4 0 0 0 2.388-1c.281-.137.576-.269.871-.4a14.764 14.764 0 0 0 1.459-.716 43.074 43.074 0 0 0 8.574-5.881 35.051 35.051 0 0 0 6.657-7.64l.363-.587Z"/><path class="cls-2" d="M160.368 298.264a37.4 37.4 0 0 1-7.636 7.938 44.947 44.947 0 0 1-9.26 5.672c-.8.417-1.67.692-2.5 1.043a22.361 22.361 0 0 1-2.545.914l-2.581.794-2.633.586a51.581 51.581 0 0 1-5.311.838c-1.78.19-3.575.2-5.355.311 1.777-.2 3.561-.307 5.319-.588a51.353 51.353 0 0 0 5.219-1.105l2.564-.712 2.5-.914a21.885 21.885 0 0 0 2.445-1.025c.795-.388 1.625-.7 2.387-1.146a43.545 43.545 0 0 0 8.678-5.955 35.744 35.744 0 0 0 6.793-7.8Zm3.652 90.543a35.047 35.047 0 0 0 6.66 7.643 42.9 42.9 0 0 0 8.535 5.858 14.585 14.585 0 0 0 1.5.738c.292.13.585.261.873.4a21.225 21.225 0 0 0 2.359.992l2.518.92 2.512.694a26.517 26.517 0 0 0 3.486.779c.563.1 1.127.2 1.687.316 1.082.172 2.236.281 3.353.386.634.06 1.269.12 1.9.192l-.121 1.394a96.42 96.42 0 0 0-1.871-.09c-1.15-.048-2.34-.1-3.516-.223a55.527 55.527 0 0 0-1.7-.226 28.563 28.563 0 0 1-3.717-.632l-2.608-.578-2.635-.809a23.228 23.228 0 0 1-2.6-.935c-.294-.125-.584-.236-.874-.347a16.405 16.405 0 0 1-1.685-.724 45.586 45.586 0 0 1-9.368-5.742 37.769 37.769 0 0 1-7.78-8.09l-.427-.615 3.152-1.889Z"/><path class="cls-2" d="M161.507 390.325a37.378 37.378 0 0 0 7.636 7.938 44.947 44.947 0 0 0 9.26 5.672c.8.417 1.67.692 2.5 1.044a22.753 22.753 0 0 0 2.545.914l2.581.794 2.633.585a51.584 51.584 0 0 0 5.311.839c1.78.189 3.575.2 5.355.311-1.777-.2-3.561-.307-5.319-.588a51.356 51.356 0 0 1-5.219-1.106l-2.564-.712-2.5-.913a22.016 22.016 0 0 1-2.446-1.026c-.795-.387-1.625-.7-2.387-1.146a43.545 43.545 0 0 1-8.678-5.955 35.744 35.744 0 0 1-6.793-7.8Zm2.513-47.36a35.047 35.047 0 0 0 6.66 7.643 42.9 42.9 0 0 0 8.535 5.858 15.009 15.009 0 0 0 1.5.737c.295.13.59.262.88.4a21.651 21.651 0 0 0 2.358.99l2.518.921 2.511.693a26.57 26.57 0 0 0 3.487.78c.563.1 1.127.2 1.687.315 1.082.172 2.236.281 3.353.386.634.06 1.269.12 1.9.192l-.121 1.394c-.622-.037-1.246-.064-1.871-.09-1.15-.048-2.34-.1-3.516-.223a59.514 59.514 0 0 0-1.689-.225 28.817 28.817 0 0 1-3.725-.631l-2.608-.58-2.635-.809a22.618 22.618 0 0 1-2.6-.935 26.812 26.812 0 0 0-.873-.347 16.405 16.405 0 0 1-1.685-.724 45.527 45.527 0 0 1-9.368-5.742 37.766 37.766 0 0 1-7.78-8.089l-.427-.615 3.152-1.89Z"/><path class="cls-2" d="M161.507 344.483a37.383 37.383 0 0 0 7.636 7.939 44.943 44.943 0 0 0 9.26 5.671c.8.417 1.67.692 2.5 1.044a22.361 22.361 0 0 0 2.545.914l2.581.794 2.633.586a51.854 51.854 0 0 0 5.311.838c1.78.19 3.575.2 5.355.311-1.777-.2-3.561-.307-5.319-.588a51.353 51.353 0 0 1-5.219-1.105l-2.564-.712-2.5-.914a21.643 21.643 0 0 1-2.446-1.026c-.795-.387-1.625-.7-2.387-1.145a43.549 43.549 0 0 1-8.678-5.956 35.721 35.721 0 0 1-6.793-7.8Zm2.513-47.737a35.043 35.043 0 0 0 6.66 7.642 42.9 42.9 0 0 0 8.535 5.859 15 15 0 0 0 1.5.736c.295.131.59.263.88.4a21.455 21.455 0 0 0 2.358.99l2.518.921 2.511.694a26.73 26.73 0 0 0 3.487.779c.563.1 1.127.2 1.687.315 1.082.172 2.236.282 3.353.386.634.061 1.269.12 1.9.193l-.121 1.393c-.622-.037-1.246-.063-1.871-.09-1.15-.048-2.34-.1-3.516-.222a59.586 59.586 0 0 0-1.689-.226 28.647 28.647 0 0 1-3.725-.631l-2.608-.58-2.635-.809a22.618 22.618 0 0 1-2.6-.935c-.293-.124-.583-.235-.873-.347a16.4 16.4 0 0 1-1.685-.723 45.592 45.592 0 0 1-9.368-5.743 37.785 37.785 0 0 1-7.78-8.088l-.427-.616 3.152-1.889Z"/><path class="cls-2" d="M161.507 298.264a37.4 37.4 0 0 0 7.636 7.938 44.947 44.947 0 0 0 9.26 5.672c.8.417 1.67.692 2.5 1.043a22.361 22.361 0 0 0 2.545.914l2.581.794 2.633.586a51.581 51.581 0 0 0 5.311.838c1.78.19 3.575.2 5.355.311-1.777-.2-3.561-.307-5.319-.588a51.353 51.353 0 0 1-5.219-1.105l-2.564-.712-2.5-.914a21.822 21.822 0 0 1-2.446-1.025c-.795-.388-1.625-.7-2.387-1.146a43.545 43.545 0 0 1-8.678-5.955 35.744 35.744 0 0 1-6.793-7.8Z"/><path class="cls-3" d="M157.116 286.2h7.639c-.09.12-.139.18-.139.18L163.5 439.3h-5.12l-1.12-152.92s-.055-.063-.144-.18Z"/><path class="cls-6" d="M157.116 286.2h3.819v153.1h-2.56l-1.12-152.92s-.05-.063-.139-.18Z"/><path class="cls-5" d="M160.937 288.137s3.62 0 5.114-4.344a8.909 8.909 0 0 0 .229-4.706 15.714 15.714 0 0 0-1.573-4.272 7.637 7.637 0 0 0-.813-1.183c-.83-1.02-2.594-3.33-2.957-4.946Z"/><path class="cls-2" d="M160.939 288.137s-3.62 0-5.115-4.344a8.909 8.909 0 0 1-.229-4.706 15.714 15.714 0 0 1 1.573-4.272 7.707 7.707 0 0 1 .813-1.183c.83-1.02 2.594-3.33 2.958-4.946Z"/><path class="cls-2" d="m160.937 276.511 2.652 3.5-2.652 3.499-2.652-3.499 2.652-3.5z"/><path class="cls-7" d="m158.285 280.011 2.652 3.499v-6.999l-2.652 3.5z"/><path class="cls-4" d="M172.336 446.192c-4.3-.038-10.125-2.818-11.4-6.891 1.273-4.073 7.1-6.853 11.4-6.891 4.549-.041 7.66 2.984 7.66 6.891s-3.111 6.932-7.66 6.891Z"/><path class="cls-4" d="M149.539 446.192c4.3-.038 10.125-2.818 11.4-6.891-1.274-4.073-7.1-6.853-11.4-6.891-4.549-.041-7.66 2.984-7.66 6.891s3.111 6.932 7.66 6.891Z"/><path class="cls-8" d="M153 452.426c.044-4.952 3.245-11.659 7.935-13.125 4.689 1.466 7.89 8.173 7.934 13.125.047 5.237-3.436 8.819-7.934 8.819s-7.979-3.582-7.935-8.819Z"/><path class="cls-3" d="M220.92 395.375h26.671c5.992 0 10.921 5.7 10.953 12.743-.033 7.039-4.958 12.747-10.953 12.744H220.92a94.574 94.574 0 0 1 0-25.487Z"/><path class="cls-4" d="M247.591 395.375H220.92a94.448 94.448 0 0 0-.863 12.743h38.487c-.032-7.038-4.961-12.746-10.953-12.743Z"/><path class="cls-5" d="M204.8 395.594h7.584a17.859 17.859 0 0 1 17.859 17.859 7.19 7.19 0 0 1-7.19 7.19h-28.924a7.19 7.19 0 0 1-7.19-7.19 17.859 17.859 0 0 1 17.861-17.859Z" transform="rotate(-90 208.59 408.118)"/><path class="cls-2" d="M221.115 393.657v14.461h-25.049v-3.791a17.859 17.859 0 0 1 17.859-17.86 7.191 7.191 0 0 1 7.19 7.19Z"/><path class="cls-3" d="M220.92 349.5h26.671c5.992 0 10.921 5.705 10.953 12.743-.033 7.039-4.958 12.747-10.953 12.744H220.92a94.574 94.574 0 0 1 0-25.487Z"/><path class="cls-4" d="M247.591 349.5H220.92a94.448 94.448 0 0 0-.863 12.743h38.487c-.032-7.043-4.961-12.75-10.953-12.743Z"/><path class="cls-5" d="M204.8 349.715h7.584a17.859 17.859 0 0 1 17.859 17.859 7.19 7.19 0 0 1-7.19 7.19h-28.924a7.19 7.19 0 0 1-7.19-7.19 17.859 17.859 0 0 1 17.861-17.859Z" transform="rotate(-90 208.59 362.239)"/><path class="cls-2" d="M221.115 347.778v14.461h-25.049v-3.791a17.859 17.859 0 0 1 17.859-17.86 7.19 7.19 0 0 1 7.19 7.19Z"/><path class="cls-3" d="M220.92 303.617h26.671c5.992 0 10.921 5.7 10.953 12.743-.033 7.039-4.958 12.747-10.953 12.744H220.92a94.574 94.574 0 0 1 0-25.487Z"/><path class="cls-4" d="M247.591 303.617H220.92a94.448 94.448 0 0 0-.863 12.743h38.487c-.032-7.038-4.961-12.746-10.953-12.743Z"/><path class="cls-5" d="M204.8 303.836h7.584a17.859 17.859 0 0 1 17.859 17.859 7.19 7.19 0 0 1-7.19 7.19h-28.924a7.19 7.19 0 0 1-7.19-7.19 17.859 17.859 0 0 1 17.861-17.859Z" transform="rotate(-90 208.59 316.36)"/><path class="cls-2" d="M221.115 301.9v14.46h-25.049v-3.791a17.859 17.859 0 0 1 17.859-17.86 7.19 7.19 0 0 1 7.19 7.191Z"/><path class="cls-3" d="M100.955 395.375H74.284c-5.992 0-10.921 5.7-10.953 12.743.033 7.039 4.958 12.747 10.953 12.744h26.671a94.574 94.574 0 0 0 0-25.487Z"/><path class="cls-4" d="M74.284 395.375h26.671a94.448 94.448 0 0 1 .863 12.743H63.331c.032-7.038 4.961-12.746 10.953-12.743Z"/><path class="cls-5" d="M98.824 395.594h28.922a7.19 7.19 0 0 1 7.19 7.19 17.859 17.859 0 0 1-17.859 17.859h-7.584a17.859 17.859 0 0 1-17.859-17.859 7.19 7.19 0 0 1 7.19-7.19Z" transform="rotate(-90 113.285 408.118)"/><path class="cls-2" d="M100.76 393.657v14.461h25.05v-3.791a17.86 17.86 0 0 0-17.86-17.86 7.191 7.191 0 0 0-7.19 7.19Z"/><path class="cls-3" d="M100.955 349.5H74.284c-5.992 0-10.921 5.705-10.953 12.743.033 7.039 4.958 12.747 10.953 12.744h26.671a94.574 94.574 0 0 0 0-25.487Z"/><path class="cls-4" d="M74.284 349.5h26.671a94.448 94.448 0 0 1 .863 12.743H63.331c.032-7.043 4.961-12.75 10.953-12.743Z"/><path class="cls-5" d="M98.824 349.715h28.922a7.19 7.19 0 0 1 7.19 7.19 17.859 17.859 0 0 1-17.859 17.859h-7.584A17.859 17.859 0 0 1 91.634 356.9a7.19 7.19 0 0 1 7.19-7.185Z" transform="rotate(-90 113.285 362.239)"/><path class="cls-2" d="M100.76 347.778v14.461h25.05v-3.791a17.86 17.86 0 0 0-17.86-17.86 7.19 7.19 0 0 0-7.19 7.19Z"/><path class="cls-3" d="M100.955 303.617H74.284c-5.992 0-10.921 5.7-10.953 12.743.033 7.039 4.958 12.747 10.953 12.744h26.671a94.574 94.574 0 0 0 0-25.487Z"/><path class="cls-4" d="M74.284 303.617h26.671a94.448 94.448 0 0 1 .863 12.743H63.331c.032-7.038 4.961-12.746 10.953-12.743Z"/><path class="cls-5" d="M98.824 303.836h28.922a7.19 7.19 0 0 1 7.19 7.19 17.859 17.859 0 0 1-17.859 17.859h-7.584a17.859 17.859 0 0 1-17.859-17.859 7.19 7.19 0 0 1 7.19-7.19Z" transform="rotate(-90 113.285 316.36)"/><path class="cls-2" d="M100.76 301.9v14.46h25.05v-3.791a17.86 17.86 0 0 0-17.86-17.86 7.19 7.19 0 0 0-7.19 7.191Z"/></svg>