<svg id="Layer_1" data-name="Layer 1" xmlns="http://www.w3.org/2000/svg" viewBox="0 0 321.875 500"><defs><style>.cls-1{fill:#fff}.cls-2{fill:#ffc306}.cls-3{fill:#d90000}.cls-4{fill:#a50404}.cls-5{fill:#05703d}.cls-6{fill:#02592d}.cls-7{fill:#ffb200}.cls-8{fill:#f9c9af}.cls-9{fill:#099bdb}.cls-10{fill:#8e5011}.cls-11{fill:#94dced}</style></defs><path class="cls-1" d="M0 0h321.875v500H0z"/><path d="M268.453 481.248H45.383a26.661 26.661 0 0 1-26.63-26.63V125.1a1.25 1.25 0 0 1 2.5 0v329.518a24.157 24.157 0 0 0 24.13 24.13h223.07a1.25 1.25 0 0 1 0 2.5Zm33.42-105.09a1.25 1.25 0 0 1-1.25-1.25V45.387a24.162 24.162 0 0 0-24.13-24.139H53.423a1.25 1.25 0 0 1 0-2.5h223.07a26.665 26.665 0 0 1 26.63 26.639v329.521a1.25 1.25 0 0 1-1.25 1.25Z"/><path class="cls-2" d="M77.781 133.6a22.387 22.387 0 0 1-.352-3.34c-.181-1.108-.965-2.3-2.087-2.265-1.4.044-1.989 1.8-3.068 2.7a.819.819 0 0 1-.6.242.752.752 0 0 1-.427-.25c-.822-.845-.637-2.2-.831-3.364a4.917 4.917 0 0 0-4.3-3.97c-1.106-.095-2.448.43-2.593 1.531a8.119 8.119 0 0 0 .071 1.193.989.989 0 0 1-.525.99c-.471.165-.931-.266-1.206-.682a10.6 10.6 0 0 0-1.891-2.7 4.723 4.723 0 0 0-3-.824 4.854 4.854 0 0 0-3.172.96 2.37 2.37 0 0 0-.571 3.03c.377.527 1.079 1 .9 1.628a1.212 1.212 0 0 1-1 .705c-.707.149-1.442.126-2.147.286a2.186 2.186 0 0 0-1.66 1.245 2.392 2.392 0 0 0 .033 1.391 4.875 4.875 0 0 0 1.924 2.9 3.082 3.082 0 0 0 3.353.084c.446-.309.973-.786 1.441-.512a.845.845 0 0 1 .261.991 10.891 10.891 0 0 1-.5.988 2.566 2.566 0 0 0 1.369 3.171 3.846 3.846 0 0 0 3.637-.428 13.053 13.053 0 0 0 2.276-2.171c.444-.476 1.165-.959 1.678-.56.458.357.281 1.1-.05 1.574s-.793.931-.8 1.511a1.729 1.729 0 0 0 1.032 1.4 4.307 4.307 0 0 0 5.092-.832 9.128 9.128 0 0 1 1.733-1.918c.743-.446 2.008-.136 2.013.731 0 .482-.389.883-.464 1.36a1.438 1.438 0 0 0 1.328 1.482 3.349 3.349 0 0 0 2.084-.64 8.351 8.351 0 0 1 1.945-1.061 9.643 9.643 0 0 0 2.372-.571 2.269 2.269 0 0 0 .889-2.485 2.451 2.451 0 0 0-2-1.9c-1.016-.24-1.811-.453-2.187-1.62Z"/><path class="cls-3" d="M85 134.756a2.252 2.252 0 0 0 .6-2.129 4.985 4.985 0 0 0-.825-1.314 3.073 3.073 0 0 1-.632-2.362 1.682 1.682 0 0 1 1.821-1.356c.984.2 1.736 1.483 2.677 1.134.7-.259.783-1.2.734-1.941-.115-1.725-.176-3.774 1.208-4.811a1.325 1.325 0 0 1 1.353-.239c.478.247.633.866 1.048 1.207a1.629 1.629 0 0 0 2.274-.691 6.23 6.23 0 0 0 .512-2.633 3.2 3.2 0 0 1 1.025-2.412 1.856 1.856 0 0 1 2.389.255c.686.767.777 2.15 1.769 2.425.872.242 1.622-.616 2.148-1.352s1.382-1.54 2.206-1.166c1.288.584.486 3.094 1.8 3.609a3.3 3.3 0 0 0 1.121.077 2.618 2.618 0 0 1 2.175 3.556c-.679 1.432-2.532 1.882-4.108 1.72a5.483 5.483 0 0 0-2.123-.028c-.683.2-1.274.949-1 1.608.2.5.771.713 1.209 1.024a2.724 2.724 0 0 1 .773 3.425 3.379 3.379 0 0 1-2.25 1.547 7.207 7.207 0 0 1-2.8-.041 5.486 5.486 0 0 0-1.741-.144 1.537 1.537 0 0 0-1.3 1.02c-.148.585.2 1.216.028 1.795-.26.9-1.513 1.037-2.377.688a10.014 10.014 0 0 0-2.553-1.1c-1.465-.149-2.634 1.1-3.8 2.006a9.494 9.494 0 0 1-1.643 1.026 4.7 4.7 0 0 1-2.466.571 2.366 2.366 0 0 1-2.01-1.373c-.76-1.968 1.805-2.572 2.758-3.601Z"/><path class="cls-3" d="M80.557 114.59s1.753 2.172.634 6.939c-1.07 4.56-1.307 10.466.151 19.681a12.91 12.91 0 0 0 .443 1.9 9.064 9.064 0 0 1-2.063 9.129l1.519 7.409c9.294-9.693 4.454-18.071 3.211-23.953a34.4 34.4 0 0 1-.227-13.539q.174-.923.3-1.76c1.269-8.665-1.436-10.7-1.436-10.7l-2.873 1.3Z"/><path class="cls-4" d="M80.058 152.025a1.818 1.818 0 0 0-.874.488 2.844 2.844 0 0 0-.389 2.429c.208 1.213.957 2.394 2.446 4.707.366-.6 2.025-3.413 1.482-5.732a2.139 2.139 0 0 0-2.665-1.894Z"/><path class="cls-2" d="M98.737 82.614v-35.07c0-7.88-7.5-14.36-16.756-14.4-9.255.042-16.76 6.519-16.757 14.4v35.07a124.449 124.449 0 0 0 33.513 0Z"/><path class="cls-4" d="M98.737 47.544v35.07a124.208 124.208 0 0 1-16.756 1.133v-50.6c9.254.037 16.759 6.517 16.756 14.397Z"/><path class="cls-5" d="M63.129 82.357h37.7a9.617 9.617 0 0 1 9.617 9.617 23.32 23.32 0 0 1-23.32 23.32h-10.3a23.32 23.32 0 0 1-23.32-23.32 9.617 9.617 0 0 1 9.617-9.617Z"/><path class="cls-6" d="M101 82.357H81.981v32.937h4.985a23.483 23.483 0 0 0 23.484-23.483 9.454 9.454 0 0 0-9.45-9.454Z"/><path class="cls-2" d="M244.094 366.4a22.373 22.373 0 0 1 .352 3.34c.181 1.108.965 2.3 2.087 2.265 1.4-.044 1.989-1.8 3.068-2.7a.82.82 0 0 1 .6-.242.757.757 0 0 1 .426.249c.822.846.637 2.2.831 3.365a4.917 4.917 0 0 0 4.3 3.97c1.106.1 2.448-.43 2.593-1.531a8.119 8.119 0 0 0-.071-1.193.989.989 0 0 1 .525-.99c.471-.165.931.266 1.206.682a10.6 10.6 0 0 0 1.891 2.7 4.726 4.726 0 0 0 3 .824 4.859 4.859 0 0 0 3.171-.96 2.37 2.37 0 0 0 .571-3.03c-.377-.527-1.079-1-.9-1.628a1.212 1.212 0 0 1 1-.7c.707-.149 1.442-.126 2.147-.286a2.186 2.186 0 0 0 1.66-1.245 2.4 2.4 0 0 0-.032-1.392 4.884 4.884 0 0 0-1.924-2.9 3.084 3.084 0 0 0-3.354-.084c-.446.309-.973.786-1.441.512a.845.845 0 0 1-.26-.991 10.772 10.772 0 0 1 .5-.989 2.565 2.565 0 0 0-1.369-3.17 3.846 3.846 0 0 0-3.637.428 13.053 13.053 0 0 0-2.276 2.171c-.444.476-1.165.959-1.678.56-.458-.357-.281-1.1.05-1.574s.793-.931.8-1.511a1.729 1.729 0 0 0-1.032-1.4 4.307 4.307 0 0 0-5.092.832 9.128 9.128 0 0 1-1.733 1.918c-.743.446-2.008.136-2.013-.731 0-.483.389-.884.464-1.361a1.437 1.437 0 0 0-1.328-1.481 3.349 3.349 0 0 0-2.084.64 8.31 8.31 0 0 1-1.945 1.06 9.7 9.7 0 0 0-2.372.572 2.269 2.269 0 0 0-.889 2.485 2.451 2.451 0 0 0 2 1.9c1.017.236 1.812.449 2.188 1.616Z"/><path class="cls-3" d="M236.874 365.244a2.251 2.251 0 0 0-.6 2.129 4.985 4.985 0 0 0 .825 1.314 3.073 3.073 0 0 1 .632 2.362 1.681 1.681 0 0 1-1.82 1.356c-.985-.2-1.736-1.483-2.678-1.134-.7.259-.783 1.2-.734 1.941.115 1.725.176 3.774-1.208 4.811a1.325 1.325 0 0 1-1.353.239c-.478-.247-.633-.866-1.048-1.207a1.627 1.627 0 0 0-2.273.691 6.215 6.215 0 0 0-.513 2.633 3.2 3.2 0 0 1-1.025 2.412 1.856 1.856 0 0 1-2.389-.255c-.686-.767-.777-2.15-1.768-2.425-.873-.242-1.623.616-2.149 1.352s-1.382 1.54-2.206 1.166c-1.288-.584-.486-3.094-1.8-3.609a3.307 3.307 0 0 0-1.122-.077 2.618 2.618 0 0 1-2.175-3.557c.68-1.431 2.532-1.881 4.109-1.719a5.5 5.5 0 0 0 2.122.028c.683-.2 1.275-.949 1-1.608-.2-.5-.771-.713-1.209-1.024a2.724 2.724 0 0 1-.773-3.425 3.379 3.379 0 0 1 2.25-1.547 7.207 7.207 0 0 1 2.8.041 5.459 5.459 0 0 0 1.741.143 1.535 1.535 0 0 0 1.3-1.019c.148-.585-.2-1.216-.028-1.8.26-.894 1.513-1.036 2.377-.687a10.01 10.01 0 0 0 2.553 1.1c1.465.15 2.634-1.1 3.8-2.005a9.494 9.494 0 0 1 1.643-1.026 4.708 4.708 0 0 1 2.466-.572 2.369 2.369 0 0 1 2.01 1.374c.762 1.971-1.803 2.575-2.757 3.604Z"/><path class="cls-3" d="M241.318 385.41s-1.753-2.172-.634-6.939c1.07-4.56 1.307-10.466-.151-19.681a12.91 12.91 0 0 0-.443-1.9 9.064 9.064 0 0 1 2.063-9.129l-1.519-7.409c-9.294 9.693-4.454 18.071-3.211 23.953a34.4 34.4 0 0 1 .227 13.539q-.174.923-.3 1.76c-1.269 8.664 1.437 10.7 1.437 10.7l2.872-1.3Z"/><path class="cls-4" d="M241.817 347.975a1.813 1.813 0 0 0 .874-.488 2.844 2.844 0 0 0 .389-2.429c-.208-1.213-.957-2.395-2.446-4.707-.366.6-2.025 3.413-1.482 5.732a2.139 2.139 0 0 0 2.665 1.894Z"/><path class="cls-2" d="M223.138 417.386v35.07c0 7.88 7.5 14.36 16.756 14.4 9.255-.043 16.761-6.519 16.757-14.4v-35.07a124.449 124.449 0 0 0-33.513 0Z"/><path class="cls-4" d="M223.138 452.456v-35.07a124.221 124.221 0 0 1 16.756-1.134v50.606c-9.254-.042-16.759-6.522-16.756-14.402Z"/><path class="cls-5" d="M221.043 384.706h37.7a9.617 9.617 0 0 1 9.617 9.617 23.32 23.32 0 0 1-23.32 23.32h-10.3a23.32 23.32 0 0 1-23.32-23.32 9.617 9.617 0 0 1 9.617-9.617Z" transform="rotate(180 239.894 401.174)"/><path class="cls-6" d="M220.879 417.643h19.015v-32.937h-4.985a23.483 23.483 0 0 0-23.484 23.483 9.454 9.454 0 0 0 9.454 9.454Z"/><path d="M26.729 22.167a18.246 18.246 0 0 1 14.638 7.142q5.892 7.143 5.893 17.585a26.871 26.871 0 0 1-5.88 17.552q-5.88 7.208-14.337 7.207-8.565 0-14.455-7.175A26.47 26.47 0 0 1 6.7 47.118 29.57 29.57 0 0 1 9.38 34.53a22.309 22.309 0 0 1 7.32-9.08 17 17 0 0 1 10.029-3.283Zm.17 4.58a13.745 13.745 0 0 0-8.1 2.723 18.257 18.257 0 0 0-5.976 7.345 24.025 24.025 0 0 0-2.15 10.285 21.593 21.593 0 0 0 4.756 14.184q4.761 5.788 11.47 5.787a14.216 14.216 0 0 0 8.3-2.659 17.767 17.767 0 0 0 5.95-7.276 24.147 24.147 0 0 0 2.137-10.26 23.537 23.537 0 0 0-2.141-10.146 18.147 18.147 0 0 0-6.015-7.26 14.087 14.087 0 0 0-8.23-2.723Zm268.247 451.086a18.246 18.246 0 0 1-14.638-7.143q-5.892-7.142-5.893-17.584a26.871 26.871 0 0 1 5.88-17.552q5.878-7.207 14.337-7.207 8.565 0 14.455 7.175a26.47 26.47 0 0 1 5.893 17.36 29.57 29.57 0 0 1-2.68 12.588 22.315 22.315 0 0 1-7.319 9.08 17 17 0 0 1-10.035 3.283Zm-.17-4.58a13.745 13.745 0 0 0 8.1-2.723 18.257 18.257 0 0 0 5.976-7.345A24.025 24.025 0 0 0 311.2 452.9a21.593 21.593 0 0 0-4.756-14.184q-4.761-5.79-11.47-5.787a14.209 14.209 0 0 0-8.3 2.659 17.761 17.761 0 0 0-5.95 7.276 24.147 24.147 0 0 0-2.137 10.26 23.537 23.537 0 0 0 2.137 10.148 18.147 18.147 0 0 0 6.015 7.26 14.09 14.09 0 0 0 8.237 2.721Z"/><path class="cls-6" d="M26.676 106.648c.854 4.258-2.876 10.322-2.876 10.322-1.328.387-3.059-2.064-3.059-2.064 3.871-3.1 4.129-8.258 4.129-8.258Z"/><path class="cls-2" d="M31.662 97.387V84.052c0-3-2.853-5.461-6.372-5.477-3.519.017-6.373 2.479-6.371 5.477v13.335a47.283 47.283 0 0 0 12.743 0Z"/><path class="cls-4" d="M31.662 84.052v13.335a47.15 47.15 0 0 1-6.372.432V78.575c3.519.016 6.373 2.481 6.372 5.477Z"/><path class="cls-5" d="M18.06 97.29h14.461a3.595 3.595 0 0 1 3.595 3.595 8.93 8.93 0 0 1-8.93 8.93h-3.792a8.93 8.93 0 0 1-8.93-8.93 3.595 3.595 0 0 1 3.596-3.595Z"/><path class="cls-6" d="M32.521 97.29H25.29v12.525h1.9a8.93 8.93 0 0 0 8.93-8.93 3.6 3.6 0 0 0-3.599-3.595ZM295.2 393.352c-.854-4.258 2.876-10.322 2.876-10.322 1.328-.388 3.059 2.064 3.059 2.064-3.871 3.1-4.129 8.258-4.129 8.258Z"/><path class="cls-2" d="M290.213 402.612v13.336c0 3 2.853 5.46 6.372 5.477 3.519-.017 6.373-2.479 6.372-5.477v-13.336a47.372 47.372 0 0 0-12.744 0Z"/><path class="cls-4" d="M290.213 415.948v-13.336a47.312 47.312 0 0 1 6.372-.431v19.244c-3.519-.017-6.373-2.481-6.372-5.477Z"/><path class="cls-5" d="M289.354 390.185h14.461a3.595 3.595 0 0 1 3.595 3.595 8.93 8.93 0 0 1-8.93 8.93h-3.792a8.93 8.93 0 0 1-8.93-8.93 3.595 3.595 0 0 1 3.595-3.595Z" transform="rotate(180 296.585 396.447)"/><path class="cls-6" d="M289.354 402.71h7.231v-12.525h-1.9a8.93 8.93 0 0 0-8.93 8.93 3.6 3.6 0 0 0 3.599 3.595Z"/><path class="cls-1" d="M121.877 252.347a5.852 5.852 0 0 1 1.69-.926 19.5 19.5 0 0 1 8.252-1.174.707.707 0 0 1 .338.139c.611.468 2 1.682 1.666 2.8 0 .008-.011.01-.014.017a7.067 7.067 0 0 1 2.824.989 25.508 25.508 0 0 1 5.515-3.97 25.112 25.112 0 0 1-1.6-.822h-.009l-29.706-.268a97.8 97.8 0 0 1 4.256 9.118c2.06-1.879 4.811-4.341 6.788-5.903Zm-8.229 6.093a92.284 92.284 0 0 0-4.437-9.311h-7.437a78.9 78.9 0 0 1 4.8 8.449c2.842-.415 5.311-.228 7.074.862Z"/><path class="cls-7" d="M167.661 219.52a28.58 28.58 0 0 1 4.918-5.444 87.332 87.332 0 0 0 4.672-13.247l.209-.707a5.164 5.164 0 0 1-2.183.529 4.707 4.707 0 0 1-1.415-.212c-.464-.145-.91-.315-1.365-.472a105.161 105.161 0 0 1-7.119 18.55Z"/><path class="cls-3" d="M153.737 248.7a10.443 10.443 0 0 1 2.27 1.044 15.72 15.72 0 0 1 2.341 2.359c.284.32.526.594.678.752.064.065.061.155.094.235 1.4 1.726 2.1 4.415 2.2 7.5a74.253 74.253 0 0 1 6.817-9.305 10.476 10.476 0 0 1-2.271-1.044 15.777 15.777 0 0 1-2.346-2.366c-.282-.317-.522-.589-.673-.745-.063-.065-.06-.155-.093-.234-1.4-1.726-2.1-4.416-2.206-7.5a74.145 74.145 0 0 1-6.811 9.304Z"/><path class="cls-7" d="M205.379 211.647c-.01-.028-.039-.043-.046-.074-1.726-7.85-3.2-16.544-4.409-25.82-1.1.9-2.247 1.768-3.424 2.612.865 9.679 2.058 18.5 3.631 26.9a53.62 53.62 0 0 1 4.248-3.618Z"/><path class="cls-8" d="M190.431 248.379a18.429 18.429 0 0 0 7.413-1.129 4.446 4.446 0 0 0 1.288-.7c3.5-2.77 9.512-8.44 9.572-8.5a.694.694 0 0 1 .471-.179A31.736 31.736 0 0 0 202 221.346c-.07.015-.129.071-.2.061-2.38-.224-7.4 1.408-7.449 1.426-.013 0-.025 0-.038.006a26.166 26.166 0 0 1-4.028 16.854c-.38.6-.8 1.155-1.211 1.72a30.5 30.5 0 0 0 6.3-2.111.7.7 0 1 1 .624 1.257 31.493 31.493 0 0 1-8.212 2.524c-.48.576-.959 1.154-1.467 1.679 3.107 1.666 9.489.062 11.839-.768a.7.7 0 0 1 .468 1.325 29.979 29.979 0 0 1-8.657 1.611c-.2 0-.4-.021-.6-.029a.656.656 0 0 1 .032.3 3.784 3.784 0 0 0 1.03 1.178Z"/><path class="cls-5" d="M199.914 216.457c-1.622-8.5-2.84-17.412-3.733-27.17a160.33 160.33 0 0 1-15.381 9.072q-.875.466-1.611.863l-.591 2a97.3 97.3 0 0 1-3.774 11.207c4.149-2.588 8.443-2.915 12.087-.623.163.1.305.232.46.346h.013a12.142 12.142 0 0 1 6.38 7.944c.128.437.2.9.3 1.352.428-.137 2.1-.652 3.956-1.041-.022-.087-.076-.141-.083-.24-.062-.915.609-2.145 2-3.681-.006-.009-.02-.015-.023-.029Z"/><path class="cls-7" d="M185.985 236.559c-4.93 7.837-12.026 12.716-17.649 12.716a8.794 8.794 0 0 1-1.621-.164c3.131 1.914 7.138 1.793 11.119.043a26.392 26.392 0 0 0 11.266-10.211c3.671-5.835 4.943-12.9 3.32-18.45a12.493 12.493 0 0 0-2.17-4.313 15.019 15.019 0 0 1 .755 5.8 31.1 31.1 0 0 1-5.02 14.579Z"/><path class="cls-9" d="M236.147 148.215c-.269.429-.836 1.32-1.5 2.315a8.736 8.736 0 0 1 2.034 7.96 64.988 64.988 0 0 1 13.675-4.42 43.771 43.771 0 0 0-4.858-14.769c-1.276 3.033-4.446 7.926-9.351 8.914Z"/><path class="cls-7" d="M221.368 174.859a14.96 14.96 0 0 0 2.145 4.6 35.44 35.44 0 0 1 6.466-5.592l-1.034-3.7a.7.7 0 0 1 .336-.8l5.491-3.047a.7.7 0 0 1 .9.188l2.229 2.907c1.295-.485 4.805-1.787 6.752-2.391l-.985-3.282a.668.668 0 0 1 .039-.385c-.011-.03-.046-.042-.053-.074a.7.7 0 0 1 .535-.836l7.538-1.662a.7.7 0 0 1 .814.457l1.459 4.223 3.13-1.6a49.06 49.06 0 0 0-3-8.881c-7.823.54-17.128 4.882-18.166 5.378-2.603 3.604-8.73 9.345-14.596 14.497Z"/><path class="cls-9" d="M202.746 136.37a11.906 11.906 0 0 1-9.192.707c.23.731.457 1.459.693 2.2a130.84 130.84 0 0 1 3.688 13.184 279.798 279.798 0 0 1 3.894-1.958c-.067-1.087-.1-1.777-.109-1.931a.706.706 0 0 1 .128-.439c2.522-3.572 17.829-11.708 20.4-11.747a5.417 5.417 0 0 1 2.754.59c.8-1.766 1.5-3.39 1.613-3.806.051-.192.1-.475.166-.841a33.857 33.857 0 0 1 2.02-7.06 24.4 24.4 0 0 0-3.981-.948 22.426 22.426 0 0 1-8.669-3.429 5.708 5.708 0 0 1-.115.63 25.811 25.811 0 0 1-13.29 14.848Zm21.346 44.557-.12.141a.7.7 0 0 1-.54.251h-.032a.705.705 0 0 1-.546-.306 19.943 19.943 0 0 1-2.654-5.13 441.34 441.34 0 0 1-12.02 10.089.689.689 0 0 1-.44.155.7.7 0 0 1-.662-.47 48.958 48.958 0 0 1-1.293-4.493 40.134 40.134 0 0 1-3.588 3.509c1.194 9.37 2.673 18.122 4.4 26.047q4.837-3.643 12.344-8.407a.7.7 0 0 1 .763.007c.022.014.432.292 1.09.77a32.719 32.719 0 0 1 3.8-4.88c-2.366-6.793-.391-14.621.046-16.168-.218-.426-.4-.802-.548-1.115Z"/><path class="cls-8" d="M227.97 133.527c-.293 1.111-3.2 7.334-3.909 8.76a.684.684 0 0 1-.223.242 24.842 24.842 0 0 0 6.81 10.945 51.051 51.051 0 0 0 4.469-6.264.705.705 0 0 1 .484-.323c5.1-.839 8.439-6.905 9.046-9.443a.619.619 0 0 1 .065-.217 13.735 13.735 0 0 1 1.059-2.914 6.59 6.59 0 0 1 5.419-3.746 15.964 15.964 0 0 1 2.484.019.7.7 0 0 1-.144 1.4c-.007 0-.546-.054-1.305-.051-.154 1.061-.491 3.474-.506 4.032a1.351 1.351 0 0 0 .254.067 1.517 1.517 0 0 0 1.2-.441c.794-.661 1.782-2.981 2.254-4.377a7.416 7.416 0 0 0-1.837-3.83 1.533 1.533 0 0 0-.9-.56c-3.14-.544-6.825 1.19-6.861 1.206a.691.691 0 0 1-.936-.331.7.7 0 0 1 .331-.935c.165-.08 4.1-1.94 7.7-1.326.412-2.1-1.787-3.23-1.889-3.281a8.966 8.966 0 0 0-7.157.912.7.7 0 0 1-.8-1.154 10.318 10.318 0 0 1 5.985-1.449.685.685 0 0 1 .011-.492 1.879 1.879 0 0 0-.014-1.35 2.417 2.417 0 0 0-1.557-1.159c-2.767-.928-6.971.944-7.013.965a.7.7 0 0 1-.919-.949 19.657 19.657 0 0 0 1.053-4.811.694.694 0 0 1 .215-.436 38.763 38.763 0 0 0 3.72-4.884.7.7 0 0 1 .45-.3 5.806 5.806 0 0 0 3.051-1.929c.366-.459.3-.738.283-.829a1.855 1.855 0 0 0-.857-.953 14.09 14.09 0 0 0-4.635.635c-.472.489-2.988 3.081-4.821 4.808a3.868 3.868 0 0 0-.989 1.5l-2.275 6.388a79.278 79.278 0 0 0-4.445 8.556 31.808 31.808 0 0 0-2.158 7.352c-.078.41-.136.73-.193.947Z"/><path class="cls-9" d="M216.743 242.156a78.818 78.818 0 0 0 4.835 8.395.65.65 0 0 1 .065.317h27.027c-4.553-4.136-9.838-14.5-11.276-17.423-5.814 3.268-14.002 7.355-20.651 8.711Z"/><path class="cls-3" d="M184.579 126.424a24.5 24.5 0 0 0 5.1 6.847 10.927 10.927 0 0 0 12.436 1.847 24.43 24.43 0 0 0 12.588-14.04 4.564 4.564 0 0 0-1.094-4.671 21.3 21.3 0 0 0-8.744-5.3c-4.328 9.078-17.016 14.142-20.286 15.317ZM200 247.65a5.844 5.844 0 0 1-1.691.926 21.176 21.176 0 0 1-6.694 1.268 12.615 12.615 0 0 1-1.555-.093.7.7 0 0 1-.338-.14c-.612-.471-2-1.684-1.666-2.8 0-.012.017-.015.021-.026a7.04 7.04 0 0 1-2.845-1 25.556 25.556 0 0 1-5.528 3.983c.552.259 1.093.534 1.625.831h.007l29.708.268a97.67 97.67 0 0 1-4.257-9.119c-2.057 1.877-4.807 4.339-6.787 5.902Z"/><path class="cls-7" d="M212.678 242.634a8.393 8.393 0 0 1-4.442-1.066 92.272 92.272 0 0 0 4.432 9.3h7.437a78.6 78.6 0 0 1-4.8-8.459 18.48 18.48 0 0 1-2.627.225Z"/><path class="cls-7" d="M237.99 224.083c-5.583-10.805-16.539-18.827-18.694-20.337-21.024 13.378-19.962 16.352-19.948 16.381.016.008.016.027.032.036.456-.07.9-.123 1.321-.151a.64.64 0 0 1-.32-.76.741.741 0 0 1 .917-.459c1.17.34 8.979 9.326 9.391 20.459a.7.7 0 0 1-.675.726h-.027a.686.686 0 0 1-.661-.585l-.717.669c4.766 3.839 18.835-2.6 28.555-8.093.063-.076.1-.171.194-.216.065-.032.133 0 .2-.012 2.1-1.193 3.992-2.336 5.507-3.3a44.334 44.334 0 0 1-4.947-4.183.712.712 0 0 1-.128-.175Z"/><path class="cls-3" d="M252.964 166.713c-.006-.012-.022-.015-.026-.027l-1.521-4.393-6.3 1.389 1.083 3.618a.7.7 0 0 1-.491.88c-1.89.5-7.741 2.713-7.8 2.734a.7.7 0 0 1-.8-.229l-2.179-2.841-4.478 2.485 1.025 3.665a.706.706 0 0 1-.306.787 32.689 32.689 0 0 0-6.044 5.026c.843 1.829 4.362 9.134 7.865 11.835a30.831 30.831 0 0 1 4.436-2.02.7.7 0 0 1 .476 1.321 33.012 33.012 0 0 0-15.978 12.991c4.014 3.064 12.5 10.242 17.265 19.4l.364.349c2.532-1.892 15.515-11.811 20.171-19.763-.023-2.222-.411-23.567-6.755-37.17-.012-.009-.002-.023-.007-.037Z"/><path class="cls-7" d="M46 164.972a3.364 3.364 0 0 0-1.393-.311 2.966 2.966 0 0 0-.84.119 2.188 2.188 0 0 0-1.423 3.11 3.326 3.326 0 0 0 3.839 1.758 2.188 2.188 0 0 0 1.422-3.111A3.2 3.2 0 0 0 46 164.972Zm132.491-1.216a125.72 125.72 0 0 1 5.476-3.528 154.447 154.447 0 0 0-2.313-30.039 47.711 47.711 0 0 1-2.8 3.407 213.746 213.746 0 0 1-.293 30.016c-.005.058-.053.088-.07.144Z"/><path class="cls-5" d="M183.548 127.429c-.26.419-.507.837-.793 1.258.034.065.1.1.115.18a156.21 156.21 0 0 1 2.5 30.515c1.845-1.1 3.934-2.306 6.311-3.61-2.426-12.439-6.47-25.317-6.624-25.8a24.6 24.6 0 0 1-1.509-2.543Z"/><path class="cls-7" d="M222.3 138.914a.712.712 0 0 1 .792.6c0 .02.064.429.221 1.107.328-.687.713-1.511 1.11-2.372a4.239 4.239 0 0 0-2.152-.458c-1.759.028-16.389 7.567-19.131 10.968.14 2.589 1.4 24.243 4.95 35.483 4.043-3.3 22.422-18.432 26.883-24.856a7.8 7.8 0 0 0-1.166-7.638 23.329 23.329 0 0 1-2.076 2.627 20.018 20.018 0 0 0 1.8 1.27.7.7 0 0 1-.37 1.3.71.71 0 0 1-.368-.1c-9.442-5.83-11.032-16.672-11.1-17.132a.7.7 0 0 1 .607-.799ZM196.7 153.1c-.025-.053-.076-.086-.087-.146a126.722 126.722 0 0 0-3.7-13.255c-.35-1.108-.7-2.2-1.034-3.288a12.127 12.127 0 0 1-3.165-2.128c-.453-.432-.867-.886-1.283-1.339 1.381 4.684 3.836 13.473 5.546 22.125 1.17-.632 2.415-1.29 3.723-1.969Z"/><path class="cls-3" d="M150.155 183.405c.012.012.031.008.043.021.1.114 9.922 11.269 24.081 15.673a3.6 3.6 0 0 0 2.846-.347c.781-.439 1.808-.987 3.014-1.632 6.677-3.566 19.031-10.172 25.252-17.647-2.055-9.363-3.068-21.559-3.464-27.448-19.33 9.581-26.78 15.944-26.852 16.007a.711.711 0 0 1-.461.171.7.7 0 0 1-.46-1.232c.1-.09 1.052-.9 3-2.28-.007-.009-.018-.012-.026-.021-.624-.81-1.918-2.964-2.57-4.068l-3.209 2.317a.7.7 0 0 1-.908-.073l-2.619-2.617a44.066 44.066 0 0 0-6.253 5.133l2.237 2.29a.705.705 0 0 1-.008.99l-8.725 8.678a.7.7 0 0 1-.93.052l-3.411-2.7c-1.7 1.328-3.079 4.423-3.651 6l3.055 2.688c.009.012.006.032.019.045Z"/><path class="cls-7" d="M167.6 158.735a.709.709 0 0 1 .832.121l2.576 2.576 3.988-2.88c-.6-1.54-2.646-6.289-5.441-7.578-2.481.941-22.768 9.166-29.172 28.629 1.593 1.549 5.164 4.749 7.393 5.64l.943-1.257-2.921-2.569a.7.7 0 0 1-.2-.745c.075-.233 1.885-5.722 4.8-7.471a.693.693 0 0 1 .8.051l3.328 2.632 7.789-7.747-2.24-2.295a.7.7 0 0 1 .007-.987c.175-.18 4.464-4.455 7.518-6.12Zm9.139 74.908a.7.7 0 0 1-.181.023.681.681 0 0 1-.3-.066l-12.384-5.775c-2.568 7.237-2.825 16.724.95 19.1 5.128 3.227 14.087-1.762 19.969-11.114a29.682 29.682 0 0 0 4.8-13.9c.2-4.228-1.017-7.393-3.436-8.915-5.1-3.209-11.786-.411-17.188 7.1l11.468 5.038a.7.7 0 0 1 .388.434 6.4 6.4 0 0 1-.289 5.131 6.682 6.682 0 0 1-3.797 2.944ZM58.956 169.94c-3.086.195-7.858-1.049-9.811-1.6a3.4 3.4 0 0 1-1.188 1.929 32.2 32.2 0 0 1 6.17 8.693 21.493 21.493 0 0 0 1.164-5.6.708.708 0 0 1 .394-.576 8.912 8.912 0 0 0 3.271-2.846Z"/><path class="cls-9" d="M164.092 217.952a103.723 103.723 0 0 0 7.077-18.446 62.016 62.016 0 0 1-21.445-14.523l-1.13 1.508a.7.7 0 0 1-.563.281.659.659 0 0 1-.185-.025c-3.141-.857-8.535-6.223-8.762-6.452a.7.7 0 0 1-.174-.708 39.006 39.006 0 0 1 1.428-3.8.634.634 0 0 1-.275-.093c-7.02-5.345-13.447-20.52-13.717-21.163a.7.7 0 0 1 1.294-.544c.065.153 6.545 15.453 13.263 20.583 6.769-14.223 20.6-21.591 26.1-24.05-3.978-6.7-13.7-12.777-13.8-12.839a.7.7 0 1 1 .741-1.193c.413.256 10.182 6.358 14.312 13.379.02.034 0 .073.016.109a23.318 23.318 0 0 1 1.067-.415.687.687 0 0 1 .483.006c4.07 1.568 6.576 8.712 6.681 9.016a.7.7 0 0 1-.253.8l-.553.4c.364.617.976 1.642 1.545 2.547a218.338 218.338 0 0 0 .3-27.338c-.5.52-.989 1.04-1.528 1.56a12.579 12.579 0 0 1-8.735 3.529 12.385 12.385 0 0 1-6.467-1.815c-9.025-5.5-12.837-14.347-14.188-18.43-2.881.474-17.158 3.5-23.922 17.74-.019.052-3.918 10.506.017 20.319 1.178 2.937 3.641 6.847 6.491 11.372 6.817 10.825 16.112 25.608 16.1 40.437Z"/><path class="cls-10" d="M156.684 56.037c-.485-.056-.808-.1-.856-.111a.7.7 0 1 1 .223-1.385 46.663 46.663 0 0 0 11.8 0c7.059-.887 14.031 1.862 16.343 6.33a8.934 8.934 0 0 0 4.11-3.937.7.7 0 0 1 .948-.346 19.687 19.687 0 0 1 3.415 2.112 20.577 20.577 0 0 1 5.871 7.275c.185-.846.327-1.712.387-2.137a.7.7 0 0 1 .63-.6.712.712 0 0 1 .73.475c2.67 7.894.742 16.5.157 18.729a1.147 1.147 0 0 0 .627.128.436.436 0 0 0 .3-.2.7.7 0 0 1 1.241.218 5.743 5.743 0 0 1 .164 2.7 1.517 1.517 0 0 0 .786-.375.7.7 0 0 1 1.11.432 33.042 33.042 0 0 1 .556 6.852 14.79 14.79 0 0 1-1.451 5.416 19.565 19.565 0 0 0 5.928-2.893c8-5.773 8.831-15.746 8.9-18.667a.7.7 0 0 1 1.25-.423l.28.35c.014-9.768-6.333-21.12-6.4-21.241a.7.7 0 0 1 .525-1.042 3.633 3.633 0 0 0 .68-.151 16.547 16.547 0 0 1-2.59-3.892c-5.459-9.484-11.351-11.2-11.41-11.212a.705.705 0 0 1-.377-1.1 4.347 4.347 0 0 1 .7-.677 28.623 28.623 0 0 1-5.224-1.952c-9.295-4.074-13.841.6-14.03.8a.647.647 0 0 1-.529.223.7.7 0 0 1-.518-.244c-.022-.025-2.685-2.886-9.813-.871-4.169 1.177-5.546 2.171-6.653 2.974a8.532 8.532 0 0 1-2.07 1.2 1.9 1.9 0 0 0 .22.048.7.7 0 0 1 .06 1.378c-.1.023-9.652 2.37-13.55 11.985a33.925 33.925 0 0 1-1.9 3.976 1.7 1.7 0 0 0 .434-.02.7.7 0 0 1 .729 1.067c-.021.032-2.222 3.675-1.054 12.355.043.251 1.024 6.111.312 9.507a3.574 3.574 0 0 0 1.08-.361 3.645 3.645 0 0 0 1.188-1c.01-.013.028-.011.039-.023-.042-.534-.105-1.05-.131-1.6-.437-9.146 1.825-15.707 6.833-20.07Z"/><path class="cls-3" d="M161.539 137.062a11.127 11.127 0 0 0 13.5-1.526 46.655 46.655 0 0 0 7.528-9.128c-3.656-1.269-17.813-6.69-19.947-15.305a45.04 45.04 0 0 0-14.165 5.693 1.8 1.8 0 0 0-.689 2.043c1.134 3.647 4.753 12.72 13.773 18.223Z"/><path class="cls-8" d="M178.183 110.44a26.238 26.238 0 0 0 12.333-6.9.708.708 0 0 1 .99-.055.7.7 0 0 1 .058.99 27.158 27.158 0 0 1-13.047 7.327 9.873 9.873 0 0 1-2.379.29 10.028 10.028 0 0 1-3.164-.516 43.454 43.454 0 0 1-6.945-2.993 12.743 12.743 0 0 1-.78 5.034c4.32 6.782 16.638 11.088 18.358 11.66 1.777-.618 14.177-5.174 19.186-13.326-.008-.012-.022-.017-.03-.03-2.339-4.176-1.09-12.965-1.036-13.338 0-.03.036-.044.044-.073a.666.666 0 0 1 .044-.181 14.1 14.1 0 0 0 2.019-6.225 28.853 28.853 0 0 0-.373-5.531 1.818 1.818 0 0 1-1.2.074 1.556 1.556 0 0 1-.981-.956.7.7 0 0 1 .082-.61 2.1 2.1 0 0 0 .094-1.163 1.467 1.467 0 0 1-.175.036 3.194 3.194 0 0 1-2.076-.617.7.7 0 0 1-.253-.763 36.872 36.872 0 0 0 .774-15.513 8.786 8.786 0 0 1-.409 1.245.691.691 0 0 1-.66.416.7.7 0 0 1-.637-.448 19.541 19.541 0 0 0-6.205-8.467 18.16 18.16 0 0 0-2.559-1.648 11.114 11.114 0 0 1-5.151 4.3.7.7 0 0 1-.9-.4c-1.678-4.223-8.476-6.975-15.169-6.129a49.826 49.826 0 0 1-9.366.277c-5.425 4.029-7.856 10.509-7.41 19.821a49.846 49.846 0 0 0 5.7 20.957 5.846 5.846 0 0 0 2.689-.373 11.962 11.962 0 0 0 1.6-1.17c2.324-1.865 6.146-4.927 10.28-1.8a6.7 6.7 0 0 1 .992-.763 7.77 7.77 0 0 1 5.1-.876 8.757 8.757 0 0 1 3.179 1.509c.411.27.822.542 1.254.772a9.612 9.612 0 0 0 6.949.542 16.938 16.938 0 0 0 2.026-.7 13.756 13.756 0 0 0 1.776-.923.708.708 0 0 1 .755.014.7.7 0 0 1 .306.69 8.23 8.23 0 0 1-2.044 4.28 10.179 10.179 0 0 1-3.533 2.42 12.305 12.305 0 0 1-9.124-.194 10.617 10.617 0 0 0-4.884-.525 17.747 17.747 0 0 1-4.248-.044 6.392 6.392 0 0 0-4.2 1 9.482 9.482 0 0 1-4.917 1.4c-.218 0-.437-.026-.655-.042 3.281 4.269 9.647 6.872 13.155 8.046a8.62 8.62 0 0 0 4.767.192Zm-17.6-29.947a2.624 2.624 0 1 1 2.624-2.624 2.624 2.624 0 0 1-2.623 2.624Zm5.914-9.357a.7.7 0 0 1-.654.448.671.671 0 0 1-.255-.048c-6.192-2.407-9.728-.167-9.875-.069a.7.7 0 0 1-.78-1.168c.172-.112 4.243-2.761 11.165-.071a.7.7 0 0 1 .402.908Zm8.167 20.342a13.255 13.255 0 0 1-2.243.208 5.4 5.4 0 0 1-4.645-1.972c-3.318-4.487 1.962-15.022 2.188-15.468a.7.7 0 1 1 1.253.635c-1.433 2.827-4.641 10.851-2.312 14 .944 1.278 2.8 1.692 5.519 1.214a.7.7 0 0 1 .24 1.385Zm7.684-11.666a2.624 2.624 0 1 1 2.624-2.624 2.624 2.624 0 0 1-2.623 2.624Zm8.108-8.651a.7.7 0 0 1-.644.423.71.71 0 0 1-.28-.058c-5.911-2.566-12.2-.022-12.265.005a.7.7 0 0 1-.539-1.3c.279-.117 6.89-2.809 13.364 0a.7.7 0 0 1 .365.93Z"/><path class="cls-10" d="M165.114 99.641a7.719 7.719 0 0 1 5.118-1.19 16.432 16.432 0 0 0 3.913.034 12.058 12.058 0 0 1 5.528.617 10.917 10.917 0 0 0 8.08.2 8.814 8.814 0 0 0 3.027-2.063 6.912 6.912 0 0 0 1.285-2.048c-.16.078-.32.148-.482.219a18.38 18.38 0 0 1-2.231.771 11 11 0 0 1-7.964-.661 17.453 17.453 0 0 1-1.364-.839 7.606 7.606 0 0 0-2.673-1.3 6.355 6.355 0 0 0-4.127.708 7.576 7.576 0 0 0-.865.7.709.709 0 0 1-.168.343.7.7 0 0 1-.99.055c-3.22-2.891-6.017-1.1-9.074 1.351a12.8 12.8 0 0 1-1.829 1.316 7.688 7.688 0 0 1-3.739.5c-.013 0-.026.01-.04.01s-.035-.013-.054-.014a23.146 23.146 0 0 1-2.185-.221c3.567 2.989 7.428 3.549 10.834 1.512Z"/><path class="cls-9" d="M179.32 230.009a4.923 4.923 0 0 0 .258-3.722l-15.462-6.787-106.055-46.591a9.228 9.228 0 0 1-1.407.957c-.048.486-.15 1.326-.317 2.264L176.6 232.21a5.2 5.2 0 0 0 2.72-2.201Z"/><path class="cls-7" d="M152.2 248.308a73.466 73.466 0 0 0 8.294-11.452c.026-.043.08-.047.114-.083a35.351 35.351 0 0 1 1.994-9.544l-1.6-.747a71.5 71.5 0 0 1-14.972 17.212.7.7 0 0 1-.782.076 38.213 38.213 0 0 1-15.381-17.92 12.8 12.8 0 0 0-5.222 4.13c1.219 2.242 8.586 15.109 19.166 19.466a14.952 14.952 0 0 1 8.389-1.138Z"/><path class="cls-9" d="M145.51 242.3a70.3 70.3 0 0 0 14.2-16.417l-17.89-8.342c-.806 1.053-5.579 7.159-9.587 9.488a.675.675 0 0 1-.26.069A38.03 38.03 0 0 0 145.51 242.3Z"/><path class="cls-11" d="m179.578 226.287-15.462-6.787-106.055-46.591a9.228 9.228 0 0 1-1.407.957l122.756 55.921a5 5 0 0 0 .168-3.5Z"/><ellipse class="cls-3" cx="212.845" cy="172.512" rx="3.67" ry="2.855" transform="rotate(-36.623 212.847 172.514)"/><ellipse class="cls-3" cx="218.071" cy="234.268" rx="3.67" ry="2.855" transform="rotate(-22.618 218.077 234.272)"/><ellipse class="cls-3" cx="232.361" cy="226.928" rx="3.67" ry="2.855" transform="rotate(-22.618 232.366 226.931)"/><ellipse class="cls-3" cx="227.241" cy="161.014" rx="3.67" ry="2.855" transform="rotate(-36.623 227.243 161.015)"/><circle class="cls-7" cx="169.531" cy="132.947" r="2.985"/><circle class="cls-7" cx="197.5" cy="130.414" r="2.985"/><path class="cls-7" d="M154.217 280.478a28.574 28.574 0 0 1-4.917 5.444 87.36 87.36 0 0 0-4.673 13.246l-.209.708a5.172 5.172 0 0 1 2.184-.529 4.712 4.712 0 0 1 1.415.212c.464.144.91.314 1.364.472a105.131 105.131 0 0 1 7.119-18.55Z"/><path class="cls-3" d="M168.142 251.294a10.5 10.5 0 0 1-2.271-1.045 15.755 15.755 0 0 1-2.34-2.358c-.285-.32-.527-.594-.679-.752-.064-.065-.06-.156-.094-.235-1.4-1.726-2.1-4.415-2.205-7.5a74.168 74.168 0 0 1-6.816 9.305 10.491 10.491 0 0 1 2.27 1.044 15.758 15.758 0 0 1 2.346 2.365c.283.318.523.59.673.745.064.066.06.156.094.235 1.4 1.726 2.1 4.416 2.206 7.5a74.069 74.069 0 0 1 6.816-9.304Z"/><path class="cls-7" d="M116.5 288.35c.011.029.04.044.046.075 1.726 7.85 3.2 16.543 4.41 25.82 1.1-.9 2.246-1.768 3.423-2.612-.864-9.68-2.057-18.5-3.63-26.9a53.635 53.635 0 0 1-4.249 3.617Z"/><path class="cls-8" d="M131.447 251.618a18.459 18.459 0 0 0-7.412 1.129 4.412 4.412 0 0 0-1.288.7c-3.506 2.77-9.512 8.44-9.573 8.5a.7.7 0 0 1-.47.179 31.729 31.729 0 0 0 7.173 16.527c.07-.016.13-.071.2-.061 2.38.224 7.4-1.408 7.449-1.427h.037a26.16 26.16 0 0 1 4.029-16.854c.38-.6.8-1.155 1.21-1.721a30.524 30.524 0 0 0-6.3 2.112.7.7 0 1 1-.624-1.257 31.465 31.465 0 0 1 8.213-2.524c.48-.576.959-1.155 1.466-1.68-3.107-1.666-9.489-.061-11.838.769a.7.7 0 0 1-.469-1.326 30.025 30.025 0 0 1 8.657-1.611c.2 0 .4.022.6.03a.656.656 0 0 1-.032-.3 3.781 3.781 0 0 0-1.028-1.185Z"/><path class="cls-5" d="M121.964 283.541c1.623 8.5 2.84 17.412 3.734 27.17a160.207 160.207 0 0 1 15.38-9.072l1.612-.863.59-2a97.767 97.767 0 0 1 3.774-11.208c-4.148 2.589-8.442 2.916-12.086.624-.163-.1-.306-.232-.46-.347h-.013a12.146 12.146 0 0 1-6.381-7.944c-.128-.437-.2-.9-.3-1.352-.429.137-2.1.652-3.956 1.04.021.088.075.141.082.241.062.915-.609 2.145-2 3.681.008.01.021.016.024.03Z"/><path class="cls-7" d="M135.894 263.438c4.929-7.836 12.025-12.716 17.649-12.716a8.717 8.717 0 0 1 1.621.165c-3.132-1.914-7.138-1.793-11.119-.044a26.389 26.389 0 0 0-11.263 10.211c-3.67 5.834-4.942 12.9-3.319 18.45a12.471 12.471 0 0 0 2.17 4.312 15.01 15.01 0 0 1-.756-5.8 31.108 31.108 0 0 1 5.017-14.578Z"/><path class="cls-9" d="M85.731 351.783c.269-.429.837-1.32 1.506-2.315a8.733 8.733 0 0 1-2.034-7.96 65.08 65.08 0 0 1-13.676 4.42 43.779 43.779 0 0 0 4.859 14.772c1.271-3.037 4.44-7.929 9.345-8.917Z"/><path class="cls-7" d="M100.511 325.139a15.012 15.012 0 0 0-2.146-4.605 35.419 35.419 0 0 1-6.465 5.593l1.034 3.7a.7.7 0 0 1-.336.8l-5.492 3.046a.7.7 0 0 1-.9-.187l-2.229-2.907c-1.3.484-4.8 1.787-6.753 2.391l.985 3.281a.661.661 0 0 1-.038.386c.011.03.045.042.052.074a.7.7 0 0 1-.535.836l-7.537 1.662a.7.7 0 0 1-.815-.457l-1.461-4.222-3.13 1.6a49.031 49.031 0 0 0 3 8.881c7.823-.539 17.127-4.882 18.165-5.377 2.607-3.603 8.735-9.343 14.601-14.495Z"/><path class="cls-9" d="M119.133 363.628a11.906 11.906 0 0 1 9.192-.707c-.23-.732-.458-1.46-.693-2.2a130.851 130.851 0 0 1-3.689-13.184 291.02 291.02 0 0 1-3.893 1.958c.066 1.087.1 1.776.109 1.931a.706.706 0 0 1-.128.439c-2.522 3.572-17.83 11.708-20.4 11.747a5.426 5.426 0 0 1-2.753-.59c-.8 1.766-1.5 3.39-1.614 3.805-.05.192-.1.476-.166.841a33.844 33.844 0 0 1-2.02 7.061 24.427 24.427 0 0 0 3.981.947 22.418 22.418 0 0 1 8.669 3.43 6.118 6.118 0 0 1 .115-.63 25.81 25.81 0 0 1 13.29-14.848Zm-21.347-44.557.121-.141a.7.7 0 0 1 .539-.251h.035a.705.705 0 0 1 .546.306 19.928 19.928 0 0 1 2.653 5.129 450.61 450.61 0 0 1 12.02-10.088.692.692 0 0 1 .44-.156.668.668 0 0 1 .193.028.7.7 0 0 1 .47.443c.468 1.348.9 2.867 1.293 4.493a40.142 40.142 0 0 1 3.588-3.51c-1.195-9.369-2.673-18.121-4.4-26.046q-4.839 3.642-12.344 8.407a.7.7 0 0 1-.763-.007 36.287 36.287 0 0 1-1.09-.77 32.745 32.745 0 0 1-3.8 4.88c2.366 6.792.391 14.621-.045 16.168.215.425.397.802.544 1.115Z"/><path class="cls-8" d="M93.909 366.471c.292-1.111 3.2-7.334 3.909-8.76a.687.687 0 0 1 .223-.243 24.854 24.854 0 0 0-6.81-10.944 51.01 51.01 0 0 0-4.47 6.264.7.7 0 0 1-.483.322c-5.106.84-8.44 6.9-9.046 9.444a.625.625 0 0 1-.065.217 13.866 13.866 0 0 1-1.059 2.914 6.59 6.59 0 0 1-5.419 3.745 16.179 16.179 0 0 1-2.484-.018.7.7 0 0 1 .144-1.4c.006 0 .546.055 1.3.052.154-1.061.49-3.474.506-4.033a1.458 1.458 0 0 0-.255-.066 1.516 1.516 0 0 0-1.2.441c-.794.661-1.783 2.98-2.255 4.377a7.417 7.417 0 0 0 1.838 3.83 1.533 1.533 0 0 0 .9.56c3.14.544 6.825-1.191 6.86-1.207a.692.692 0 0 1 .936.332.7.7 0 0 1-.33.934c-.166.08-4.1 1.941-7.7 1.326-.412 2.1 1.786 3.23 1.889 3.282a8.969 8.969 0 0 0 7.162-.911.7.7 0 0 1 .8 1.154 10.32 10.32 0 0 1-5.984 1.448.7.7 0 0 1-.011.492 1.88 1.88 0 0 0 .013 1.351 2.422 2.422 0 0 0 1.558 1.159c2.766.927 6.97-.944 7.012-.965a.7.7 0 0 1 .919.949 19.655 19.655 0 0 0-1.052 4.81.7.7 0 0 1-.215.437 38.8 38.8 0 0 0-3.721 4.884.7.7 0 0 1-.45.3 5.805 5.805 0 0 0-3.051 1.929c-.366.459-.3.738-.282.829a1.851 1.851 0 0 0 .857.953 14.094 14.094 0 0 0 4.635-.635c.472-.489 2.988-3.081 4.821-4.809a3.854 3.854 0 0 0 .988-1.5l2.275-6.388a79.234 79.234 0 0 0 4.445-8.557 31.76 31.76 0 0 0 2.159-7.352c.077-.41.135-.73.193-.947Z"/><path class="cls-9" d="M105.136 257.842a79.213 79.213 0 0 0-4.835-8.395.656.656 0 0 1-.066-.317H73.209c4.552 4.136 9.837 14.5 11.276 17.423 5.815-3.269 14.001-7.353 20.651-8.711Z"/><path class="cls-3" d="M137.3 373.574a24.489 24.489 0 0 0-5.1-6.847 10.927 10.927 0 0 0-12.436-1.847 24.425 24.425 0 0 0-12.588 14.039 4.565 4.565 0 0 0 1.093 4.672 21.3 21.3 0 0 0 8.744 5.3c4.328-9.078 17.017-14.142 20.287-15.317Zm-15.423-121.227a5.868 5.868 0 0 1 1.691-.925 21.179 21.179 0 0 1 6.694-1.269 12.644 12.644 0 0 1 1.556.094.707.707 0 0 1 .338.139c.611.471 2 1.685 1.666 2.805 0 .011-.017.014-.021.026a7.036 7.036 0 0 1 2.845 1 25.575 25.575 0 0 1 5.527-3.983 25.843 25.843 0 0 1-1.624-.831h-.011l-29.708-.267a97.906 97.906 0 0 1 4.256 9.118c2.062-1.882 4.814-4.343 6.791-5.907Z"/><path class="cls-7" d="M109.2 257.364a8.39 8.39 0 0 1 4.442 1.066 92.167 92.167 0 0 0-4.432-9.3h-7.437a78.379 78.379 0 0 1 4.8 8.458 18.473 18.473 0 0 1 2.627-.224Z"/><path class="cls-7" d="M83.888 275.914c5.584 10.806 16.54 18.827 18.695 20.338 21.023-13.379 19.962-16.352 19.948-16.382-.017-.007-.017-.027-.032-.035-.456.07-.9.122-1.321.151a.64.64 0 0 1 .32.76.744.744 0 0 1-.918.459c-1.17-.34-8.979-9.327-9.39-20.459a.7.7 0 0 1 .675-.727h.026a.685.685 0 0 1 .661.586l.717-.669c-4.766-3.839-18.835 2.6-28.554 8.093-.063.075-.1.17-.2.216-.065.032-.132 0-.2.011a132.184 132.184 0 0 0-5.507 3.3 44.274 44.274 0 0 1 4.947 4.182.705.705 0 0 1 .133.176Z"/><path class="cls-3" d="M68.915 333.285c0 .012.021.015.026.027l1.521 4.393 6.3-1.39-1.083-3.615a.7.7 0 0 1 .492-.88c1.89-.5 7.74-2.712 7.8-2.733a.693.693 0 0 1 .8.229l2.179 2.84 4.478-2.484L90.407 326a.705.705 0 0 1 .307-.786 32.683 32.683 0 0 0 6.043-5.026c-.842-1.829-4.361-9.134-7.865-11.835a30.89 30.89 0 0 1-4.436 2.02.7.7 0 0 1-.475-1.321 33.014 33.014 0 0 0 15.977-12.991c-4.014-3.064-12.5-10.242-17.265-19.405-.071-.069-.2-.2-.364-.348-2.532 1.892-15.514 11.811-20.17 19.763.023 2.221.41 23.567 6.754 37.169.007.017-.003.031.002.045Z"/><path class="cls-7" d="M275.88 335.026a3.358 3.358 0 0 0 1.393.311 2.971 2.971 0 0 0 .84-.119 2.188 2.188 0 0 0 1.422-3.11 3.324 3.324 0 0 0-3.838-1.758 2.188 2.188 0 0 0-1.423 3.111 3.2 3.2 0 0 0 1.606 1.565Zm-132.492 1.215a126.226 126.226 0 0 1-5.476 3.529 154.436 154.436 0 0 0 2.312 30.038 48.2 48.2 0 0 1 2.8-3.406 213.829 213.829 0 0 1 .294-30.016c.004-.058.053-.092.07-.145Z"/><path class="cls-5" d="M138.331 372.569c.26-.419.507-.838.793-1.259-.035-.064-.1-.1-.115-.179a156.139 156.139 0 0 1-2.5-30.515 200.966 200.966 0 0 1-6.311 3.609c2.425 12.44 6.469 25.318 6.624 25.806a24.775 24.775 0 0 1 1.509 2.538Z"/><path class="cls-7" d="M99.582 361.084a.713.713 0 0 1-.792-.6c0-.02-.064-.428-.22-1.106-.328.687-.714 1.51-1.11 2.372a4.232 4.232 0 0 0 2.152.458c1.758-.028 16.388-7.567 19.131-10.968-.141-2.589-1.4-24.244-4.95-35.483-4.043 3.3-22.422 18.432-26.883 24.856a7.8 7.8 0 0 0 1.165 7.638 23.352 23.352 0 0 1 2.076-2.627 19.877 19.877 0 0 0-1.8-1.27.7.7 0 0 1 .739-1.193c9.442 5.83 11.031 16.672 11.1 17.131a.7.7 0 0 1-.608.792Zm25.601-14.184c.025.052.075.086.087.145a126.971 126.971 0 0 0 3.7 13.256q.526 1.662 1.035 3.288a12.16 12.16 0 0 1 3.165 2.128c.453.432.866.886 1.282 1.338-1.38-4.683-3.835-13.472-5.545-22.124-1.175.63-2.421 1.288-3.724 1.969Z"/><path class="cls-3" d="M171.723 316.593c-.011-.012-.031-.009-.042-.022-.1-.114-9.922-11.269-24.082-15.673a3.607 3.607 0 0 0-2.846.348c-.78.438-1.808.987-3.013 1.631-6.677 3.566-19.031 10.173-25.252 17.647 2.055 9.363 3.067 21.56 3.464 27.449 19.329-9.581 26.779-15.944 26.852-16.007a.709.709 0 0 1 .461-.171.7.7 0 0 1 .459 1.231c-.1.091-1.052.9-3 2.281.008.009.019.011.026.021.625.81 1.918 2.964 2.57 4.067l3.21-2.317a.7.7 0 0 1 .907.074l2.619 2.616a43.816 43.816 0 0 0 6.253-5.133l-2.236-2.29a.7.7 0 0 1 .008-.989l8.724-8.678a.7.7 0 0 1 .931-.053l3.41 2.7c1.7-1.328 3.08-4.422 3.651-6l-3.054-2.687c-.01-.012-.007-.032-.02-.045Z"/><path class="cls-7" d="M154.281 341.263a.708.708 0 0 1-.832-.121l-2.577-2.576-3.988 2.88c.6 1.54 2.647 6.289 5.442 7.578 2.48-.941 22.768-9.167 29.172-28.629-1.593-1.55-5.164-4.749-7.394-5.64l-.942 1.257 2.92 2.568a.7.7 0 0 1 .2.745c-.076.234-1.886 5.723-4.8 7.471a.7.7 0 0 1-.8-.05l-3.327-2.633-7.79 7.748 2.241 2.294a.7.7 0 0 1-.007.988c-.178.18-4.466 4.457-7.518 6.12Zm-9.142-74.908a.7.7 0 0 1 .182-.023.67.67 0 0 1 .3.066L158 272.172c2.568-7.236 2.825-16.723-.949-19.1-5.129-3.227-14.087 1.762-19.97 11.114a29.7 29.7 0 0 0-4.8 13.9c-.2 4.228 1.017 7.394 3.436 8.916 5.1 3.208 11.787.41 17.188-7.1l-11.467-5.037a.7.7 0 0 1-.389-.434 6.413 6.413 0 0 1 .289-5.131 6.68 6.68 0 0 1 3.801-2.945Zm117.784 63.703c3.086-.2 7.857 1.049 9.81 1.6a3.422 3.422 0 0 1 1.188-1.93 32.165 32.165 0 0 1-6.169-8.693 21.512 21.512 0 0 0-1.165 5.6.7.7 0 0 1-.394.576 8.918 8.918 0 0 0-3.27 2.847Z"/><path class="cls-9" d="M157.787 282.045a103.658 103.658 0 0 0-7.078 18.447 62.016 62.016 0 0 1 21.445 14.523l1.131-1.508a.7.7 0 0 1 .562-.281.65.65 0 0 1 .185.025c3.142.857 8.535 6.223 8.762 6.452a.7.7 0 0 1 .174.708 38.987 38.987 0 0 1-1.428 3.8.649.649 0 0 1 .275.094c7.021 5.345 13.447 20.52 13.717 21.162a.7.7 0 1 1-1.293.544c-.066-.153-6.546-15.453-13.263-20.582-6.769 14.223-20.6 21.591-26.1 24.05 3.977 6.7 13.7 12.777 13.8 12.839a.7.7 0 0 1-.74 1.193c-.414-.256-10.183-6.358-14.313-13.379-.02-.035 0-.074-.015-.11a23.92 23.92 0 0 1-1.068.416.689.689 0 0 1-.482-.007c-4.07-1.568-6.576-8.712-6.681-9.016a.7.7 0 0 1 .252-.8l.554-.4c-.365-.617-.977-1.642-1.545-2.547a218.6 218.6 0 0 0-.3 27.337c.5-.519.989-1.04 1.528-1.559a12.577 12.577 0 0 1 8.735-3.529 12.379 12.379 0 0 1 6.468 1.815c9.024 5.5 12.836 14.347 14.188 18.43 2.88-.474 17.158-3.5 23.922-17.74.018-.053 3.917-10.506-.017-20.319-1.178-2.937-3.641-6.848-6.492-11.373-6.817-10.824-16.112-25.608-16.095-40.436Z"/><path class="cls-10" d="M165.2 443.96c.485.057.808.1.856.111a.7.7 0 1 1-.223 1.385 46.7 46.7 0 0 0-11.8 0c-7.06.887-14.031-1.863-16.343-6.331a8.942 8.942 0 0 0-4.11 3.938.7.7 0 0 1-.949.345 19.65 19.65 0 0 1-3.414-2.111 20.591 20.591 0 0 1-5.872-7.275 32.704 32.704 0 0 0-.387 2.137.7.7 0 0 1-.63.6.713.713 0 0 1-.73-.475c-2.669-7.894-.741-16.5-.156-18.729a1.14 1.14 0 0 0-.628-.128.439.439 0 0 0-.305.2.7.7 0 0 1-1.241-.217 5.747 5.747 0 0 1-.163-2.7 1.518 1.518 0 0 0-.786.374.7.7 0 0 1-1.111-.432 33.058 33.058 0 0 1-.555-6.851 14.8 14.8 0 0 1 1.451-5.417 19.579 19.579 0 0 0-5.928 2.894c-8 5.773-8.831 15.746-8.9 18.667a.7.7 0 0 1-1.251.423l-.279-.35c-.014 9.768 6.332 21.119 6.4 21.24a.7.7 0 0 1-.526 1.043 3.652 3.652 0 0 0-.68.15 16.57 16.57 0 0 1 2.591 3.892c5.458 9.485 11.35 11.2 11.41 11.213a.707.707 0 0 1 .377 1.1 4.358 4.358 0 0 1-.7.677 28.679 28.679 0 0 1 5.225 1.951c9.294 4.075 13.84-.6 14.03-.8a.649.649 0 0 1 .529-.224.7.7 0 0 1 .517.245c.022.025 2.686 2.886 9.814.87 4.169-1.176 5.545-2.171 6.653-2.973a8.505 8.505 0 0 1 2.069-1.2 1.837 1.837 0 0 0-.219-.048.7.7 0 0 1-.061-1.379c.1-.022 9.653-2.369 13.55-11.984a34.165 34.165 0 0 1 1.9-3.977 1.739 1.739 0 0 0-.433.021.71.71 0 0 1-.718-.293.7.7 0 0 1-.011-.774c.021-.032 2.221-3.675 1.053-12.355-.043-.252-1.023-6.111-.311-9.507a3.538 3.538 0 0 0-1.08.361 3.626 3.626 0 0 0-1.189 1c-.009.013-.028.011-.038.023.042.534.105 1.049.131 1.6.435 9.147-1.829 15.71-6.829 20.07Z"/><path class="cls-3" d="M160.339 362.935a11.125 11.125 0 0 0-13.5 1.527 46.525 46.525 0 0 0-7.528 9.128c3.655 1.268 17.812 6.689 19.947 15.305a45.074 45.074 0 0 0 14.165-5.693 1.8 1.8 0 0 0 .689-2.043c-1.134-3.647-4.752-12.72-13.773-18.224Z"/><path class="cls-8" d="M143.7 389.558a26.244 26.244 0 0 0-12.333 6.9.709.709 0 0 1-.991.055.7.7 0 0 1-.057-.989 27.151 27.151 0 0 1 13.046-7.327 9.886 9.886 0 0 1 2.379-.29 9.991 9.991 0 0 1 3.164.516 43.416 43.416 0 0 1 6.945 2.993 12.761 12.761 0 0 1 .78-5.034c-4.319-6.782-16.637-11.088-18.357-11.66-1.777.618-14.177 5.173-19.187 13.325.008.013.023.018.03.031 2.339 4.175 1.091 12.965 1.037 13.338 0 .03-.036.044-.044.072a.7.7 0 0 1-.044.181 14.111 14.111 0 0 0-2.019 6.226 28.931 28.931 0 0 0 .372 5.53 1.824 1.824 0 0 1 1.2-.073 1.559 1.559 0 0 1 .982.955.7.7 0 0 1-.083.611 2.1 2.1 0 0 0-.093 1.163 1.429 1.429 0 0 1 .175-.037 3.2 3.2 0 0 1 2.076.617.705.705 0 0 1 .252.764 36.881 36.881 0 0 0-.773 15.513 8.513 8.513 0 0 1 .409-1.246.688.688 0 0 1 .659-.415.7.7 0 0 1 .638.447 19.522 19.522 0 0 0 6.2 8.468 18.092 18.092 0 0 0 2.558 1.648 11.109 11.109 0 0 1 5.151-4.3.7.7 0 0 1 .9.4c1.679 4.224 8.477 6.975 15.17 6.13a49.841 49.841 0 0 1 9.366-.278c5.424-4.028 7.856-10.508 7.41-19.82a49.851 49.851 0 0 0-5.7-20.958 5.849 5.849 0 0 0-2.69.374 11.964 11.964 0 0 0-1.6 1.17c-2.324 1.865-6.147 4.927-10.281 1.8a6.727 6.727 0 0 1-.992.763 7.766 7.766 0 0 1-5.1.875 8.747 8.747 0 0 1-3.179-1.508c-.412-.27-.823-.542-1.255-.773a9.616 9.616 0 0 0-6.949-.541 17.329 17.329 0 0 0-2.026.7 13.691 13.691 0 0 0-1.776.923.71.71 0 0 1-.755-.014.7.7 0 0 1-.307-.69 8.235 8.235 0 0 1 2.045-4.281 10.2 10.2 0 0 1 3.533-2.42 12.312 12.312 0 0 1 9.123.194 10.62 10.62 0 0 0 4.884.526 17.756 17.756 0 0 1 4.249.044 6.389 6.389 0 0 0 4.2-1 9.478 9.478 0 0 1 4.917-1.4c.217 0 .436.026.655.041-3.281-4.268-9.647-6.872-13.155-8.045a8.621 8.621 0 0 0-4.759-.194Zm17.6 29.946a2.625 2.625 0 1 1-2.625 2.625 2.624 2.624 0 0 1 2.62-2.629Zm-5.915 9.358a.7.7 0 0 1 .655-.448.678.678 0 0 1 .255.048c6.192 2.407 9.727.167 9.875.069a.7.7 0 0 1 .779 1.168c-.171.112-4.243 2.76-11.164.07a.7.7 0 0 1-.405-.907Zm-8.167-20.342a13.162 13.162 0 0 1 2.243-.208 5.4 5.4 0 0 1 4.645 1.972c3.319 4.486-1.962 15.022-2.188 15.468a.7.7 0 0 1-1.252-.636c1.433-2.827 4.64-10.851 2.311-14-.944-1.277-2.8-1.691-5.519-1.213a.7.7 0 0 1-.24-1.385Zm-7.684 11.666a2.624 2.624 0 1 1-2.624 2.624 2.624 2.624 0 0 1 2.619-2.624Zm-8.108 8.651a.7.7 0 0 1 .645-.423.715.715 0 0 1 .28.057c5.911 2.567 12.2.023 12.264 0a.7.7 0 0 1 .539 1.3c-.278.116-6.89 2.809-13.363 0a.7.7 0 0 1-.37-.934Z"/><path class="cls-10" d="M156.765 400.356a7.716 7.716 0 0 1-5.118 1.191 16.388 16.388 0 0 0-3.914-.034 12.055 12.055 0 0 1-5.527-.617 10.923 10.923 0 0 0-8.08-.2 8.8 8.8 0 0 0-3.027 2.064 6.916 6.916 0 0 0-1.286 2.048 13 13 0 0 1 .482-.22 18.607 18.607 0 0 1 2.231-.77 11 11 0 0 1 7.965.661c.468.251.916.544 1.364.838a7.6 7.6 0 0 0 2.673 1.3 6.352 6.352 0 0 0 4.126-.709 7.472 7.472 0 0 0 .865-.7.709.709 0 0 1 .168-.343.7.7 0 0 1 .991-.055c3.22 2.891 6.018 1.1 9.074-1.35a12.793 12.793 0 0 1 1.83-1.317 7.686 7.686 0 0 1 3.738-.5c.014 0 .027-.011.041-.011s.034.013.053.015c.76.043 1.514.117 2.185.221-3.568-2.988-7.429-3.548-10.834-1.512Z"/><path class="cls-9" d="M142.559 269.988a4.916 4.916 0 0 0-.258 3.723l15.461 6.792 106.051 46.585a9.209 9.209 0 0 1 1.407-.958c.049-.485.15-1.325.317-2.263l-120.261-56.08a5.207 5.207 0 0 0-2.717 2.201Z"/><path class="cls-7" d="M169.682 251.69a73.442 73.442 0 0 0-8.294 11.451c-.026.044-.08.048-.113.083a35.35 35.35 0 0 1-1.994 9.545l1.6.747a71.5 71.5 0 0 1 14.974-17.216.706.706 0 0 1 .782-.075 38.214 38.214 0 0 1 15.38 17.92 12.812 12.812 0 0 0 5.222-4.13c-1.218-2.242-8.585-15.11-19.166-19.466a14.969 14.969 0 0 1-8.391 1.141Z"/><path class="cls-9" d="M176.368 257.7a70.275 70.275 0 0 0-14.2 16.417l17.89 8.342c.806-1.053 5.579-7.16 9.586-9.488a.682.682 0 0 1 .261-.07 38.032 38.032 0 0 0-13.537-15.201Z"/><path class="cls-11" d="m142.3 273.711 15.461 6.792 106.051 46.585a9.209 9.209 0 0 1 1.407-.958l-122.751-55.92a5.013 5.013 0 0 0-.168 3.501Z"/><ellipse class="cls-3" cx="109.033" cy="327.485" rx="3.67" ry="2.855" transform="rotate(-36.623 109.035 327.488)"/><ellipse class="cls-3" cx="103.807" cy="265.73" rx="3.67" ry="2.855" transform="rotate(-22.618 103.809 265.733)"/><ellipse class="cls-3" cx="89.518" cy="273.07" rx="3.67" ry="2.855" transform="rotate(-22.618 89.52 273.073)"/><ellipse class="cls-3" cx="94.637" cy="338.983" rx="3.67" ry="2.855" transform="rotate(-36.623 94.64 338.986)"/><circle class="cls-7" cx="152.347" cy="367.05" r="2.985"/><circle class="cls-7" cx="124.378" cy="369.584" r="2.985"/><path d="M166.1 70.228c-6.922-2.69-10.993-.041-11.165.071a.7.7 0 0 0 .78 1.168c.147-.1 3.683-2.338 9.875.069a.671.671 0 0 0 .255.048.7.7 0 0 0 .255-1.356Zm23.993.009c-6.474-2.813-13.085-.121-13.364 0a.7.7 0 0 0 .539 1.3c.062-.027 6.354-2.571 12.265-.005a.71.71 0 0 0 .28.058.7.7 0 0 0 .28-1.347Zm-7.744 4.327a2.624 2.624 0 1 0 2.624 2.624 2.624 2.624 0 0 0-2.624-2.624Zm-21.765.681a2.624 2.624 0 1 0 2.624 2.624 2.624 2.624 0 0 0-2.624-2.624Zm13.841 14.848c-2.719.478-4.575.064-5.519-1.214-2.329-3.147.879-11.171 2.312-14a.7.7 0 1 0-1.253-.635c-.226.446-5.506 10.981-2.188 15.468a5.4 5.4 0 0 0 4.645 1.972 13.255 13.255 0 0 0 2.243-.208.7.7 0 0 0-.24-1.385Z"/><path d="M278.515 329.264a4.564 4.564 0 0 0-3.295-.232l-.005-.01c-3.853-3.287-6.711-9.661-6.739-9.724a.7.7 0 0 0-1.138-.211 7.622 7.622 0 0 0-1.5 3.368l-84.468-39.389c1.154-1.478 5.485-6.85 8.982-8.88.047-.027.053-.083.091-.118.183.418.37.831.54 1.265a.7.7 0 0 0 .905.4c.2-.075 4.9-1.906 6.773-5.366a.7.7 0 0 0 .008-.653c-.276-.541-5.934-11.434-15.055-17.7l28.638.258h38.581a.7.7 0 0 0 .314-1.33c-4.453-2.229-11.024-15.143-12.529-18.193 3.4-1.954 5.772-3.485 6.105-3.7a.7.7 0 0 0 0-1.177 35.538 35.538 0 0 1-4.118-3.215c3.093-2.311 15.783-12.083 20.431-20.194a.723.723 0 0 0 .092-.35c0-.23-.092-22.728-6.611-37.328l3.742-1.912a.7.7 0 0 0 .366-.775 48.342 48.342 0 0 0-3.43-10.149.714.714 0 0 0-.664-.391c-.917.045-1.853.151-2.792.287a44.315 44.315 0 0 0-5.639-16.365 12.422 12.422 0 0 1 .937-2.554 5.188 5.188 0 0 1 3.75-2.853c-.146 1.02-.453 3.227-.47 3.856a1.42 1.42 0 0 0 .86 1.314 2.15 2.15 0 0 0 .934.2 3.069 3.069 0 0 0 1.965-.773c1.392-1.158 2.6-4.733 2.731-5.137a.737.737 0 0 0 .034-.243 8.622 8.622 0 0 0-2.168-4.806 3.076 3.076 0 0 0-.456-.393c.8-2.72-1.3-4.584-2.686-5.24a11.194 11.194 0 0 0-1.238-.247c.016-.027.051-.032.064-.062a3.288 3.288 0 0 0-.009-2.475 3.732 3.732 0 0 0-2.4-1.936c-2.194-.724-4.944-.073-6.593.474a28.759 28.759 0 0 0 .638-3.534 39.4 39.4 0 0 0 3.591-4.721 7.164 7.164 0 0 0 3.579-2.359 2.335 2.335 0 0 0 .551-2.018A3.33 3.33 0 0 0 247.97 102a.667.667 0 0 0-.3-.071c-.41 0-4.037-.02-5.6.86a.691.691 0 0 0-.16.125c-.028.03-2.855 2.96-4.849 4.838a5.252 5.252 0 0 0-1.348 2.053l-2.213 6.259a78.16 78.16 0 0 0-4.161 7.9 26.121 26.121 0 0 0-4.331-1.038 21.837 21.837 0 0 1-8.736-3.648 5.866 5.866 0 0 0-1.684-3.878 21.5 21.5 0 0 0-9.993-5.819.711.711 0 0 0-.777.412c-.061.142-.147.273-.213.413-1.345-3.486-.753-9.5-.551-11.175a21.2 21.2 0 0 0 7.477-3.385c7.243-5.231 8.971-13.63 9.369-17.927l.3.382a.7.7 0 0 0 1.248-.375c.836-9.162-4.44-20.006-6.049-23.066a5.292 5.292 0 0 0 1.241-.576.7.7 0 0 0-.035-1.188c-1.187-.7-2.564-3.168-3.017-4.107-4.4-7.654-9.048-10.513-11.147-11.478.323-.242.683-.489.964-.667a.7.7 0 0 0-.311-1.291 23.526 23.526 0 0 1-6.463-2.123c-8.595-3.767-13.608-.622-15.148.651-1.192-.905-4.441-2.589-10.72-.823-4.408 1.246-5.9 2.322-7.094 3.188a6.813 6.813 0 0 1-3.227 1.436.7.7 0 0 0-.306 1.234c.04.032.194.155.424.306a22.066 22.066 0 0 0-12.709 12.247 25.825 25.825 0 0 1-2.351 4.592.7.7 0 0 0 .377 1.12 7.757 7.757 0 0 0 .842.153c-.666 1.725-1.645 5.6-.75 12.249.332 1.952 1 7.51.108 9.764a.7.7 0 0 0 .044.608.706.706 0 0 0 .5.345 4.915 4.915 0 0 0 2.783-.54 4.85 4.85 0 0 0 .718-.487 51.128 51.128 0 0 0 5.176 17.367 27.63 27.63 0 0 1-3.078-.555.7.7 0 0 0-.688 1.156 14.675 14.675 0 0 0 6.724 4.41c.541.776.889 1.2.89 1.2a20.083 20.083 0 0 0 5.443 4.672s0 .007 0 .011a16.536 16.536 0 0 1-.238 4.162 8.3 8.3 0 0 1-.5-1.742.7.7 0 0 0-.812-.578 45.889 45.889 0 0 0-15.358 6.036 3.151 3.151 0 0 0-1.376 2.839c-3.326.568-17.918 3.853-24.9 18.557-.171.448-4.14 11.061 0 21.393 1.225 3.056 3.719 7.016 6.606 11.6 6.628 10.523 15.621 24.842 15.864 39.064l-84.7-37.2A11.011 11.011 0 0 0 61 169.236a.7.7 0 0 0-.91-.935c-2.07.863-8.252-.642-10.937-1.428a3.975 3.975 0 0 0-.279-.919 4.731 4.731 0 0 0-5.516-2.525 3.589 3.589 0 0 0-2.3 5.037 4.592 4.592 0 0 0 2.3 2.26 4.745 4.745 0 0 0 1.979.439 4.347 4.347 0 0 0 1.237-.176c.028-.009.051-.023.078-.032l.007.013c3.854 3.287 6.711 9.658 6.738 9.722a.707.707 0 0 0 .513.405.812.812 0 0 0 .129.011.7.7 0 0 0 .5-.2 7.619 7.619 0 0 0 1.5-3.371l84.471 39.39c-1.154 1.477-5.486 6.85-8.986 8.882-.046.027-.051.082-.089.117-.182-.418-.37-.83-.539-1.264a.7.7 0 0 0-.9-.4c-.2.075-4.9 1.9-6.774 5.366a.7.7 0 0 0-.008.654c.276.54 5.933 11.432 15.054 17.7l-28.639-.258H71.047a.7.7 0 0 0-.315 1.33c4.451 2.229 11.021 15.136 12.528 18.191-3.405 1.956-5.77 3.487-6.1 3.7a.7.7 0 0 0 0 1.177 35.607 35.607 0 0 1 4.117 3.215c-3.092 2.31-15.783 12.083-20.431 20.195a.707.707 0 0 0-.093.349c0 .23.093 22.728 6.611 37.329l-3.741 1.911a.7.7 0 0 0-.366.775 48.365 48.365 0 0 0 3.43 10.147.7.7 0 0 0 .63.391h.034a29.782 29.782 0 0 0 2.793-.287 44.428 44.428 0 0 0 5.635 16.364 12.339 12.339 0 0 1-.934 2.554 5.185 5.185 0 0 1-3.751 2.85c.146-1.021.454-3.225.47-3.854a1.421 1.421 0 0 0-.861-1.316 2.731 2.731 0 0 0-2.9.576c-1.392 1.159-2.6 4.731-2.732 5.135a.735.735 0 0 0-.035.242 8.629 8.629 0 0 0 2.168 4.809 3.1 3.1 0 0 0 .458.394c-.8 2.717 1.295 4.581 2.685 5.237a11.377 11.377 0 0 0 1.23.255c-.015.023-.045.028-.057.054a3.3 3.3 0 0 0 .01 2.477 3.73 3.73 0 0 0 2.4 1.936c2.2.724 4.945.073 6.595-.473a28.6 28.6 0 0 0-.639 3.533 39.4 39.4 0 0 0-3.59 4.722 7.171 7.171 0 0 0-3.581 2.356 2.34 2.34 0 0 0-.55 2.02A3.33 3.33 0 0 0 73.909 398a.818.818 0 0 0 .467.073c.839 0 4-.057 5.429-.861a.735.735 0 0 0 .162-.126c.027-.03 2.853-2.96 4.849-4.841a5.258 5.258 0 0 0 1.346-2.05l2.213-6.262a78.413 78.413 0 0 0 4.161-7.9 25.77 25.77 0 0 0 4.332 1.038 21.839 21.839 0 0 1 8.734 3.648 5.882 5.882 0 0 0 1.684 3.878 21.485 21.485 0 0 0 9.994 5.817 1.008 1.008 0 0 0 .133.011.7.7 0 0 0 .644-.423c.061-.141.147-.271.212-.411 1.346 3.486.754 9.5.551 11.175a21.224 21.224 0 0 0-7.476 3.385c-7.249 5.231-8.974 13.63-9.369 17.924l-.3-.381a.7.7 0 0 0-1.248.375c-.835 9.164 4.442 20.008 6.051 23.066a5.364 5.364 0 0 0-1.242.578.7.7 0 0 0 .036 1.189c1.186.692 2.562 3.165 3.016 4.1 4.4 7.656 9.049 10.515 11.148 11.478-.323.242-.685.489-.965.667a.7.7 0 0 0 .309 1.291 23.533 23.533 0 0 1 6.465 2.126 19.251 19.251 0 0 0 7.723 1.794 11.57 11.57 0 0 0 7.426-2.448c1.194.9 4.444 2.589 10.72.823 4.407-1.244 5.9-2.322 7.094-3.189a6.819 6.819 0 0 1 3.225-1.435.7.7 0 0 0 .307-1.234c-.041-.032-.195-.153-.423-.306a22.055 22.055 0 0 0 12.709-12.245 25.755 25.755 0 0 1 2.351-4.592.7.7 0 0 0-.378-1.119 7.583 7.583 0 0 0-.843-.154c.667-1.725 1.646-5.6.751-12.252-.333-1.949-1-7.507-.109-9.763a.7.7 0 0 0-.546-.953 4.9 4.9 0 0 0-2.779.542 4.536 4.536 0 0 0-.718.5 51.123 51.123 0 0 0-5.176-17.38 27.369 27.369 0 0 1 3.077.554.707.707 0 0 0 .775-.322.7.7 0 0 0-.087-.834 14.653 14.653 0 0 0-6.707-4.389 20.113 20.113 0 0 0-.907-1.224 20.086 20.086 0 0 0-5.443-4.673v-.01a16.6 16.6 0 0 1 .239-4.163 8.386 8.386 0 0 1 .5 1.743.71.71 0 0 0 .287.457.726.726 0 0 0 .526.119 45.834 45.834 0 0 0 15.356-6.034 3.153 3.153 0 0 0 1.377-2.839c3.324-.567 17.918-3.852 24.9-18.559.17-.448 4.139-11.059 0-21.393-1.224-3.056-3.718-7.014-6.6-11.6-6.63-10.526-15.623-24.845-15.867-39.065l84.7 37.206a11.022 11.022 0 0 0-1.826 2.627.7.7 0 0 0 .911.935c2.074-.868 8.258.642 10.941 1.429a4.467 4.467 0 0 0 2.569 3.182 4.711 4.711 0 0 0 1.97.436 3.855 3.855 0 0 0 3.585-2.148 4.131 4.131 0 0 0-2.34-5.324ZM47.642 168.434a2.27 2.27 0 0 1-1.46 1.214 3.326 3.326 0 0 1-3.839-1.758 2.188 2.188 0 0 1 1.423-3.11 2.966 2.966 0 0 1 .84-.119 3.364 3.364 0 0 1 1.393.311 3.2 3.2 0 0 1 1.6 1.565 2.259 2.259 0 0 1 .043 1.897ZM189.648 272.97c-4.006 2.326-8.776 8.43-9.585 9.487l-17.891-8.342a70.345 70.345 0 0 1 14.2-16.416 38.026 38.026 0 0 1 13.557 15.234.67.67 0 0 0-.281.037Zm7.593-2.952a12.786 12.786 0 0 1-5.223 4.127 38.208 38.208 0 0 0-15.382-17.918.7.7 0 0 0-.781.076 71.522 71.522 0 0 0-14.971 17.211l-1.6-.747a35.348 35.348 0 0 0 1.992-9.518.666.666 0 0 0 .115-.11 73.623 73.623 0 0 1 8.293-11.451 12.124 12.124 0 0 0 2.167.213 16.292 16.292 0 0 0 6.178-1.371c10.604 4.335 17.991 17.242 19.212 19.488Zm-56.194 4.406a.7.7 0 0 0 .389.436l11.464 5.04c-5.4 7.515-12.083 10.316-17.188 7.1-5.128-3.224-4.515-13.461 1.366-22.813s14.844-14.331 19.971-11.113c3.773 2.374 3.516 11.86.95 19.1l-12.381-5.774a.694.694 0 0 0-.479-.043 6.689 6.689 0 0 0-3.8 2.946 6.4 6.4 0 0 0-.292 5.121Zm20.762 59.731-2.241-2.3 7.79-7.745 3.327 2.633a.7.7 0 0 0 .8.05c2.918-1.751 4.729-7.24 4.805-7.473a.7.7 0 0 0-.2-.745l-2.92-2.569.941-1.255c2.23.891 5.8 4.091 7.394 5.641-6.4 19.462-26.69 27.687-29.171 28.629-2.795-1.292-4.842-6.041-5.443-7.579l3.988-2.882 2.576 2.578a.707.707 0 0 0 .833.121c3.053-1.666 7.34-5.939 7.522-6.12a.7.7 0 0 0-.001-.984ZM174.8 319.32c-.44 1.2-1.8 4.567-3.65 6l-3.411-2.7a.706.706 0 0 0-.93.053l-8.724 8.675a.7.7 0 0 0-.008.99l2.236 2.292a44.053 44.053 0 0 1-6.253 5.133l-2.617-2.619a.7.7 0 0 0-.908-.073l-3.209 2.317c-.653-1.1-1.946-3.255-2.571-4.066-.008-.01-.022-.008-.031-.017 1.948-1.388 2.9-2.193 3-2.284a.7.7 0 0 0-.919-1.061c-.074.064-7.557 6.441-26.854 16.007-.4-5.889-1.408-18.085-3.463-27.449 6.222-7.474 18.574-14.08 25.252-17.646 1.2-.645 2.231-1.193 3.013-1.632a3.627 3.627 0 0 1 2.847-.347c14.159 4.4 23.984 15.559 24.081 15.671.011.013.031.009.043.021s.009.033.023.045Zm-31.775 47.08a47.538 47.538 0 0 0-2.8 3.407 154.463 154.463 0 0 1-2.313-30.037 125.75 125.75 0 0 0 5.48-3.532c-.018.054-.07.087-.074.145a213.96 213.96 0 0 0-.293 30.017ZM130.2 344.225c2.376-1.3 4.465-2.506 6.311-3.609a156.3 156.3 0 0 0 2.5 30.512c.014.077.075.124.111.189-.284.418-.53.833-.789 1.25a24.464 24.464 0 0 0-1.51-2.54c-.165-.518-4.202-13.382-6.623-25.802Zm4.254 22.823c-.416-.453-.829-.906-1.281-1.339a12.256 12.256 0 0 0-3.187-2.191 544.014 544.014 0 0 0-1.018-3.237 127.348 127.348 0 0 1-3.7-13.243c-.012-.06-.069-.088-.094-.14a242.706 242.706 0 0 0 3.732-1.973c1.712 8.651 4.166 17.438 5.547 22.123Zm-45.367-23.886a.7.7 0 1 0-.738 1.193 19.846 19.846 0 0 1 1.8 1.268 23.432 23.432 0 0 0-2.074 2.627 7.8 7.8 0 0 1-1.167-7.637c4.461-6.424 22.841-21.562 26.884-24.858 3.55 11.242 4.81 32.9 4.949 35.485-2.741 3.4-17.371 10.941-19.131 10.968a3.835 3.835 0 0 1-2.152-.456c.4-.862.783-1.686 1.11-2.374.157.678.219 1.087.221 1.107a.7.7 0 0 0 .7.606.791.791 0 0 0 .1-.007.7.7 0 0 0 .6-.791c-.07-.459-1.659-11.301-11.102-17.131Zm8.2-41.374a32.745 32.745 0 0 0 3.8-4.88c.657.477 1.067.755 1.09.77a.7.7 0 0 0 .763.007q7.52-4.77 12.344-8.409c1.721 7.915 3.2 16.668 4.395 26.048a40.111 40.111 0 0 0-3.587 3.508c-.4-1.626-.825-3.146-1.293-4.494a.7.7 0 0 0-1.1-.315c-.455.367-5.938 4.795-12.02 10.091a19.943 19.943 0 0 0-2.654-5.13.711.711 0 0 0-.547-.306.766.766 0 0 0-.573.252l-.121.14c-.147-.313-.33-.69-.54-1.115.437-1.544 2.415-9.375.048-16.167Zm26.566-22.2c1.851-.386 3.519-.9 3.958-1.038.095.453.171.915.3 1.352a12.143 12.143 0 0 0 6.38 7.944h.023c.151.113.29.241.451.343a9.788 9.788 0 0 0 5.275 1.54 12.992 12.992 0 0 0 6.822-2.19 97.105 97.105 0 0 0-3.78 11.215l-.6 2.023q-.736.4-1.61.861a160.277 160.277 0 0 0-15.38 9.073c-.893-9.751-2.111-18.667-3.735-27.171 0-.013-.018-.018-.021-.032 1.39-1.536 2.062-2.767 2-3.682-.001-.1-.056-.155-.078-.243Zm8.65-26.5a29.168 29.168 0 0 0-9.254 1.592.7.7 0 0 0 .234 1.364.69.69 0 0 0 .235-.039c2.349-.832 8.73-2.43 11.836-.77q-.775.8-1.507 1.69a31.552 31.552 0 0 0-8.17 2.515.7.7 0 0 0 .313 1.331.677.677 0 0 0 .311-.074 30.7 30.7 0 0 1 6.246-2.1c-.4.551-.787 1.117-1.157 1.705a26.154 26.154 0 0 0-4.028 16.865c-.013 0-.026-.007-.039 0-.05.016-5.058 1.652-7.448 1.426-.073-.009-.132.046-.2.063a31.724 31.724 0 0 1-7.174-16.52.7.7 0 0 0 .471-.188c.06-.057 6.065-5.729 9.571-8.5a4.433 4.433 0 0 1 1.288-.7 18.35 18.35 0 0 1 7.414-1.129 3.681 3.681 0 0 1 1.028 1.174.653.653 0 0 0 .035.293Zm48.323-27.517a.7.7 0 0 0-.388-.434l-11.463-5.037c5.4-7.511 12.087-10.309 17.188-7.1 2.419 1.522 3.64 4.687 3.436 8.915a29.682 29.682 0 0 1-4.8 13.9c-5.882 9.352-14.841 14.341-19.969 11.114-3.775-2.375-3.518-11.862-.95-19.1l12.384 5.775a.681.681 0 0 0 .3.066.7.7 0 0 0 .181-.023 6.682 6.682 0 0 0 3.8-2.943 6.4 6.4 0 0 0 .286-5.135Zm-20.756-59.729 2.24 2.295-7.789 7.747-3.328-2.632a.693.693 0 0 0-.8-.051c-2.919 1.749-4.729 7.238-4.8 7.471a.7.7 0 0 0 .2.745l2.921 2.569-.943 1.257c-2.229-.891-5.8-4.091-7.393-5.64 6.4-19.463 26.691-27.688 29.172-28.629 2.8 1.289 4.84 6.038 5.441 7.578l-3.988 2.88-2.576-2.576a.709.709 0 0 0-.832-.121c-3.052 1.666-7.341 5.94-7.521 6.12a.7.7 0 0 0-.004.987Zm-12.993 14.83c.572-1.574 1.955-4.669 3.651-6l3.411 2.7a.7.7 0 0 0 .93-.052l8.725-8.678a.705.705 0 0 0 .008-.99l-2.237-2.29a44.066 44.066 0 0 1 6.253-5.133l2.619 2.617a.7.7 0 0 0 .908.073l3.209-2.317c.652 1.1 1.946 3.258 2.57 4.068.008.009.019.012.026.021-1.944 1.385-2.891 2.19-3 2.28a.7.7 0 0 0 .46 1.232.711.711 0 0 0 .461-.171c.072-.063 7.522-6.426 26.852-16.007.4 5.889 1.409 18.085 3.464 27.448-6.221 7.475-18.575 14.081-25.252 17.647-1.206.645-2.233 1.193-3.014 1.632a3.6 3.6 0 0 1-2.846.347c-14.159-4.4-23.984-15.559-24.081-15.673-.012-.013-.031-.009-.043-.021s-.01-.033-.023-.045Zm31.777-47.072a47.711 47.711 0 0 0 2.8-3.407 154.447 154.447 0 0 1 2.313 30.039 125.72 125.72 0 0 0-5.476 3.528c.017-.052.065-.086.07-.144a213.746 213.746 0 0 0 .293-30.016Zm12.826 22.176a186.808 186.808 0 0 0-6.311 3.61 156.21 156.21 0 0 0-2.5-30.515c-.014-.076-.081-.115-.115-.18.286-.421.533-.839.793-1.258a24.6 24.6 0 0 0 1.508 2.538c.155.484 4.199 13.362 6.625 25.801Zm-4.255-22.825c.416.453.83.907 1.283 1.339a12.127 12.127 0 0 0 3.165 2.128c.336 1.084.684 2.18 1.034 3.288a126.722 126.722 0 0 1 3.7 13.255c.011.06.062.093.087.146-1.3.676-2.549 1.334-3.725 1.969-1.708-8.656-4.163-17.445-5.544-22.129Zm45.367 23.889a.7.7 0 0 0 .967-.229.7.7 0 0 0-.229-.964 20.018 20.018 0 0 1-1.8-1.27 23.329 23.329 0 0 0 2.076-2.627 7.8 7.8 0 0 1 1.166 7.638c-4.461 6.424-22.84 21.56-26.883 24.856-3.551-11.24-4.81-32.894-4.95-35.483 2.742-3.4 17.372-10.94 19.131-10.968a4.239 4.239 0 0 1 2.152.458c-.4.861-.782 1.685-1.11 2.372-.157-.678-.218-1.087-.221-1.107a.712.712 0 0 0-.792-.6.7.7 0 0 0-.6.79c.061.458 1.651 11.3 11.093 17.13Zm-8.205 41.374a32.719 32.719 0 0 0-3.8 4.88 39.73 39.73 0 0 0-1.09-.77.7.7 0 0 0-.763-.007q-7.519 4.769-12.344 8.407c-1.723-7.925-3.2-16.677-4.4-26.047a40.134 40.134 0 0 0 3.588-3.509c.4 1.625.825 3.145 1.293 4.493a.7.7 0 0 0 .662.47.689.689 0 0 0 .44-.155 449.88 449.88 0 0 0 12.02-10.089 19.943 19.943 0 0 0 2.654 5.13.705.705 0 0 0 .546.306h.034a.7.7 0 0 0 .54-.251l.12-.141c.148.313.33.689.541 1.115-.428 1.543-2.407 9.371-.041 16.164Zm-26.567 22.2c-1.857.389-3.528.9-3.956 1.041-.095-.453-.172-.915-.3-1.352a12.142 12.142 0 0 0-6.38-7.944s-.009 0-.013 0c-.155-.114-.3-.244-.46-.346-3.644-2.292-7.938-1.965-12.087.623a97.3 97.3 0 0 0 3.774-11.207l.591-2q.737-.4 1.611-.863a160.33 160.33 0 0 0 15.381-9.072c.893 9.758 2.111 18.673 3.733 27.17 0 .014.017.02.02.033-1.388 1.536-2.059 2.766-2 3.681.01.092.066.146.086.233Zm-8.649 26.49c.2.008.395.029.6.029a29.979 29.979 0 0 0 8.657-1.611.7.7 0 0 0-.468-1.325c-2.35.83-8.732 2.434-11.839.768.508-.525.987-1.1 1.467-1.679a31.493 31.493 0 0 0 8.212-2.527.7.7 0 1 0-.624-1.257 30.5 30.5 0 0 1-6.3 2.111c.41-.565.831-1.116 1.211-1.72a26.166 26.166 0 0 0 4.028-16.854c.013 0 .025 0 .038-.006.049-.018 5.069-1.65 7.449-1.426.072.01.131-.046.2-.061a31.736 31.736 0 0 1 7.174 16.527.694.694 0 0 0-.471.179c-.06.057-6.067 5.727-9.572 8.5a4.446 4.446 0 0 1-1.288.7 18.429 18.429 0 0 1-7.413 1.129 3.784 3.784 0 0 1-1.028-1.174.656.656 0 0 0-.033-.307Zm.875-30.721a12.493 12.493 0 0 1 2.17 4.313c1.623 5.547.351 12.615-3.32 18.45a26.392 26.392 0 0 1-11.262 10.211c-3.981 1.75-7.988 1.871-11.119-.043a8.794 8.794 0 0 0 1.621.164c5.623 0 12.719-4.879 17.649-12.716A31.1 31.1 0 0 0 191 221.981a15.019 15.019 0 0 0-.754-5.801Zm7.254-27.815a69.275 69.275 0 0 0 3.424-2.612c1.206 9.276 2.683 17.97 4.409 25.82.007.031.036.046.046.074a53.62 53.62 0 0 0-4.248 3.622c-1.573-8.412-2.766-17.228-3.631-26.907Zm-23.638 12.074a4.707 4.707 0 0 0 1.415.212 5.164 5.164 0 0 0 2.183-.529l-.209.707a87.332 87.332 0 0 1-4.672 13.247 28.58 28.58 0 0 0-4.918 5.444l-2.283-1a105.161 105.161 0 0 0 7.119-18.55c.455.151.903.321 1.365.466Zm-11.1 46.465c.033.079.03.169.093.234.151.156.391.428.673.745a15.777 15.777 0 0 0 2.346 2.366 10.476 10.476 0 0 0 2.271 1.044 74.253 74.253 0 0 0-6.817 9.305c-.1-3.089-.8-5.778-2.2-7.5-.033-.08-.03-.17-.094-.235-.152-.158-.394-.432-.678-.752a15.72 15.72 0 0 0-2.341-2.359 10.443 10.443 0 0 0-2.27-1.044 74.145 74.145 0 0 0 6.816-9.305c.097 3.082.793 5.772 2.198 7.494Zm-7.595 3.982c-5.822-1.082-13.852 3.937-19.27 12.552-4.625 7.354-6.062 15.287-4.212 20.427a12.416 12.416 0 0 1-2.219-4.361c-1.622-5.546-.35-12.617 3.32-18.452 5.992-9.537 15.999-14.069 22.378-10.169Zm-30.785 60.746a68.823 68.823 0 0 0-3.424 2.613c-1.208-9.287-2.685-17.981-4.408-25.821-.007-.031-.04-.043-.051-.072a53.949 53.949 0 0 0 4.252-3.624c1.571 8.413 2.765 17.227 3.628 26.901Zm23.639-12.073a4.958 4.958 0 0 0-3.6.3l.21-.713a87.47 87.47 0 0 1 4.661-13.213 28.663 28.663 0 0 0 4.917-5.464l2.291 1.006a105.247 105.247 0 0 0-7.12 18.552c-.453-.157-.899-.33-1.362-.471Zm33.323-48.97h-.007c-.532-.3-1.073-.572-1.625-.831a25.556 25.556 0 0 0 5.528-3.983 7.04 7.04 0 0 0 2.845 1c0 .011-.018.014-.021.026-.331 1.12 1.054 2.333 1.666 2.8a.7.7 0 0 0 .338.14 12.615 12.615 0 0 0 1.555.093 21.176 21.176 0 0 0 6.694-1.268 5.844 5.844 0 0 0 1.683-.919c1.979-1.563 4.729-4.025 6.791-5.912a97.67 97.67 0 0 0 4.257 9.119Zm31.327.279a92.272 92.272 0 0 1-4.432-9.3 8.393 8.393 0 0 0 4.442 1.066 18.48 18.48 0 0 0 2.623-.225 78.6 78.6 0 0 0 4.8 8.459Zm36 0h-27.028a.65.65 0 0 0-.065-.317 78.818 78.818 0 0 1-4.835-8.395c6.649-1.359 14.837-5.443 20.651-8.711 1.438 2.92 6.723 13.284 11.276 17.42Zm-5.6-22.426a134.641 134.641 0 0 1-5.507 3.3c-.068.011-.136-.02-.2.012-.094.045-.131.14-.194.216-9.72 5.489-23.789 11.932-28.555 8.093.3-.277.538-.5.717-.669a.686.686 0 0 0 .661.585h.027a.7.7 0 0 0 .675-.726c-.412-11.133-8.221-20.119-9.391-20.459a.741.741 0 0 0-.917.459.64.64 0 0 0 .32.76c-.422.028-.865.081-1.321.151-.016-.009-.016-.028-.032-.036-.014-.029-1.076-3 19.948-16.381 2.155 1.51 13.111 9.532 18.694 20.337a.712.712 0 0 0 .129.176 44.334 44.334 0 0 0 4.941 4.179Zm16.654-24.518c-4.656 7.952-17.639 17.871-20.171 19.763l-.364-.349c-4.769-9.162-13.251-16.34-17.265-19.4a33.012 33.012 0 0 1 15.975-12.998.7.7 0 0 0-.476-1.321 30.831 30.831 0 0 0-4.436 2.02c-3.5-2.7-7.022-10.006-7.865-11.835a32.689 32.689 0 0 1 6.044-5.026.706.706 0 0 0 .306-.787l-1.025-3.665 4.478-2.485 2.179 2.841a.7.7 0 0 0 .8.229c.059-.021 5.91-2.233 7.8-2.734a.7.7 0 0 0 .491-.88l-1.086-3.618 6.3-1.389 1.521 4.393c0 .012.02.015.026.027s0 .028 0 .041c6.352 13.603 6.743 34.946 6.763 37.17Zm-34.1-19.975c1.512 2.814 3.721 6.415 6.055 8.445a33.879 33.879 0 0 0-5.981 4.686c-1.476-4.909-.669-10.383-.081-13.134Zm28.512-28.965a49.06 49.06 0 0 1 3 8.881l-3.13 1.6-1.462-4.221a.7.7 0 0 0-.814-.457l-7.538 1.662a.7.7 0 0 0-.535.836c.007.032.042.044.053.074a.668.668 0 0 0-.039.385l.985 3.282c-1.947.6-5.457 1.906-6.752 2.391l-2.229-2.907a.7.7 0 0 0-.9-.188l-5.491 3.047a.7.7 0 0 0-.336.8l1.034 3.7a35.44 35.44 0 0 0-6.466 5.592 14.96 14.96 0 0 1-2.145-4.6c5.866-5.152 11.993-10.893 14.6-14.5 1.028-.498 10.335-4.84 18.158-5.38Zm-3.779-.914a64.988 64.988 0 0 0-13.675 4.42 8.736 8.736 0 0 0-2.034-7.96c.669-1 1.236-1.886 1.5-2.315 4.905-.988 8.075-5.881 9.346-8.914a43.771 43.771 0 0 1 4.856 14.766Zm-20.033-28.844a79.278 79.278 0 0 1 4.445-8.556l2.275-6.388a3.868 3.868 0 0 1 .989-1.5c1.833-1.727 4.349-4.319 4.821-4.808a14.09 14.09 0 0 1 4.635-.635 1.855 1.855 0 0 1 .857.953c.02.091.083.37-.283.829a5.806 5.806 0 0 1-3.051 1.929.7.7 0 0 0-.45.3 38.763 38.763 0 0 1-3.72 4.884.694.694 0 0 0-.215.436 19.657 19.657 0 0 1-1.053 4.811.7.7 0 0 0 .919.949c.042-.021 4.246-1.893 7.013-.965a2.417 2.417 0 0 1 1.557 1.159 1.879 1.879 0 0 1 .014 1.35.685.685 0 0 0-.011.492 10.318 10.318 0 0 0-5.985 1.449.7.7 0 0 0 .8 1.154 8.966 8.966 0 0 1 7.157-.912c.1.051 2.3 1.185 1.889 3.281-3.595-.614-7.532 1.246-7.7 1.326a.7.7 0 0 0-.331.935.691.691 0 0 0 .936.331c.036-.016 3.721-1.75 6.861-1.206a1.533 1.533 0 0 1 .9.56 7.416 7.416 0 0 1 1.837 3.83c-.472 1.4-1.46 3.716-2.254 4.377a1.517 1.517 0 0 1-1.2.441 1.351 1.351 0 0 1-.254-.067c.015-.558.352-2.971.506-4.032.759 0 1.3.05 1.305.051a.7.7 0 0 0 .144-1.4 15.964 15.964 0 0 0-2.484-.019 6.59 6.59 0 0 0-5.419 3.746 13.735 13.735 0 0 0-1.059 2.914.619.619 0 0 0-.065.217c-.607 2.538-3.941 8.6-9.046 9.443a.705.705 0 0 0-.484.323 51.051 51.051 0 0 1-4.469 6.264 24.842 24.842 0 0 1-6.81-10.945.684.684 0 0 0 .223-.242c.71-1.426 3.616-7.649 3.909-8.76.057-.217.115-.537.19-.949a31.808 31.808 0 0 1 2.154-7.353Zm-14.17-4.334a22.426 22.426 0 0 0 8.669 3.429 24.4 24.4 0 0 1 3.981.948 33.857 33.857 0 0 0-2.02 7.06c-.066.366-.115.649-.166.841-.109.416-.814 2.04-1.613 3.806a5.417 5.417 0 0 0-2.754-.59c-2.568.039-17.875 8.175-20.4 11.747a.706.706 0 0 0-.128.439c.007.154.042.844.109 1.931-1.358.67-2.65 1.32-3.894 1.958a130.84 130.84 0 0 0-3.688-13.184c-.236-.741-.463-1.469-.693-2.2a11.906 11.906 0 0 0 9.192-.707 25.811 25.811 0 0 0 13.287-14.848 5.708 5.708 0 0 0 .111-.633Zm-11.292-9.795a21.3 21.3 0 0 1 8.744 5.3 4.564 4.564 0 0 1 1.094 4.671 24.43 24.43 0 0 1-12.588 14.04 10.927 10.927 0 0 1-12.436-1.847 24.5 24.5 0 0 1-5.1-6.847c3.272-1.168 15.96-6.232 20.286-15.317Zm-55.011-35c.026.548.089 1.064.131 1.6-.011.012-.029.01-.039.023a3.645 3.645 0 0 1-1.188 1 3.574 3.574 0 0 1-1.08.361c.712-3.4-.269-9.256-.312-9.507-1.168-8.68 1.033-12.323 1.054-12.355a.7.7 0 0 0-.729-1.067 1.7 1.7 0 0 1-.434.02 33.925 33.925 0 0 0 1.9-3.976c3.9-9.615 13.454-11.962 13.55-11.985a.7.7 0 0 0-.06-1.378 1.9 1.9 0 0 1-.22-.048 8.532 8.532 0 0 0 2.07-1.2c1.107-.8 2.484-1.8 6.653-2.974 7.128-2.015 9.791.846 9.813.871a.7.7 0 0 0 .518.244.647.647 0 0 0 .529-.223c.189-.2 4.735-4.877 14.03-.8a28.623 28.623 0 0 0 5.224 1.952 4.347 4.347 0 0 0-.7.677.705.705 0 0 0 .377 1.1c.059.016 5.951 1.728 11.41 11.212a16.547 16.547 0 0 0 2.59 3.892 3.633 3.633 0 0 1-.68.151.7.7 0 0 0-.525 1.042c.068.121 6.415 11.473 6.4 21.241l-.28-.35a.7.7 0 0 0-1.25.423c-.066 2.921-.9 12.894-8.9 18.667a19.565 19.565 0 0 1-5.928 2.893 14.79 14.79 0 0 0 1.451-5.416 33.042 33.042 0 0 0-.556-6.852.7.7 0 0 0-1.11-.432 1.517 1.517 0 0 1-.786.375 5.743 5.743 0 0 0-.164-2.7.7.7 0 0 0-1.241-.218.436.436 0 0 1-.3.2 1.147 1.147 0 0 1-.627-.128c.585-2.231 2.513-10.835-.157-18.729a.712.712 0 0 0-.73-.475.7.7 0 0 0-.63.6c-.06.425-.2 1.291-.387 2.137a20.577 20.577 0 0 0-5.871-7.275 19.687 19.687 0 0 0-3.415-2.112.7.7 0 0 0-.948.346 8.934 8.934 0 0 1-4.11 3.937c-2.312-4.468-9.284-7.217-16.343-6.33a46.663 46.663 0 0 1-11.8 0 .7.7 0 1 0-.223 1.385c.048.008.371.055.856.111-5.009 4.37-7.271 10.931-6.833 20.07Zm4.425 22.036c.672.1 1.426.178 2.185.221.019 0 .035.014.054.014s.027-.009.04-.01a7.688 7.688 0 0 0 3.739-.5 12.8 12.8 0 0 0 1.829-1.316c3.057-2.452 5.854-4.242 9.074-1.351a.7.7 0 0 0 .99-.055.709.709 0 0 0 .168-.343 7.576 7.576 0 0 1 .865-.7 6.355 6.355 0 0 1 4.127-.708 7.606 7.606 0 0 1 2.673 1.3c.447.3.9.588 1.364.839a11 11 0 0 0 7.964.661 18.38 18.38 0 0 0 2.231-.771c.162-.071.322-.141.482-.219a6.912 6.912 0 0 1-1.285 2.048 8.814 8.814 0 0 1-3.027 2.063 10.917 10.917 0 0 1-8.08-.2 12.058 12.058 0 0 0-5.528-.617 16.432 16.432 0 0 1-3.913-.034 7.719 7.719 0 0 0-5.118 1.19c-3.403 2.03-7.264 1.47-10.834-1.515Zm5.987 4.067c.218.016.437.042.655.042a9.482 9.482 0 0 0 4.917-1.4 6.392 6.392 0 0 1 4.2-1 17.747 17.747 0 0 0 4.248.044 10.617 10.617 0 0 1 4.884.525 12.305 12.305 0 0 0 9.124.194 10.179 10.179 0 0 0 3.533-2.42 8.23 8.23 0 0 0 2.044-4.28.7.7 0 0 0-.306-.69.708.708 0 0 0-.755-.014 13.756 13.756 0 0 1-1.776.923 16.938 16.938 0 0 1-2.026.7 9.612 9.612 0 0 1-6.949-.542c-.432-.23-.843-.5-1.254-.772A8.757 8.757 0 0 0 177.616 92a7.77 7.77 0 0 0-5.1.876 6.7 6.7 0 0 0-.992.763c-4.134-3.126-7.956-.064-10.28 1.8a11.962 11.962 0 0 1-1.6 1.17 5.846 5.846 0 0 1-2.689.373 49.846 49.846 0 0 1-5.7-20.957c-.446-9.312 1.985-15.792 7.41-19.821a49.826 49.826 0 0 0 9.366-.277c6.693-.846 13.491 1.906 15.169 6.129a.7.7 0 0 0 .9.4 11.114 11.114 0 0 0 5.151-4.3 18.16 18.16 0 0 1 2.559 1.648 19.541 19.541 0 0 1 6.205 8.467.7.7 0 0 0 .637.448.691.691 0 0 0 .66-.416 8.786 8.786 0 0 0 .409-1.245 36.872 36.872 0 0 1-.774 15.513.7.7 0 0 0 .253.763 3.194 3.194 0 0 0 2.076.617 1.467 1.467 0 0 0 .175-.036 2.1 2.1 0 0 1-.094 1.163.7.7 0 0 0-.082.61 1.556 1.556 0 0 0 .981.956 1.818 1.818 0 0 0 1.2-.074 28.853 28.853 0 0 1 .373 5.531 14.1 14.1 0 0 1-2.019 6.225.666.666 0 0 0-.044.181c-.008.029-.04.043-.044.073-.054.373-1.3 9.162 1.036 13.338.008.013.022.018.03.03-5.009 8.152-17.409 12.708-19.186 13.326-1.72-.572-14.038-4.878-18.358-11.66a12.743 12.743 0 0 0 .78-5.034 43.454 43.454 0 0 0 6.945 2.993 10.028 10.028 0 0 0 3.164.516 9.873 9.873 0 0 0 2.379-.29 27.158 27.158 0 0 0 13.047-7.327.7.7 0 0 0-.058-.99.708.708 0 0 0-.99.055 26.238 26.238 0 0 1-12.333 6.9 8.62 8.62 0 0 1-4.764-.194c-3.503-1.171-9.869-3.774-13.15-8.043Zm-11.811 14.6a45.04 45.04 0 0 1 14.165-5.693c2.134 8.615 16.291 14.036 19.947 15.305a46.655 46.655 0 0 1-7.528 9.128 11.127 11.127 0 0 1-13.5 1.526c-9.02-5.5-12.638-14.576-13.775-18.223a1.8 1.8 0 0 1 .691-2.046Zm-19.247 52.465c-2.85-4.525-5.313-8.435-6.491-11.372-3.935-9.813-.036-20.267-.017-20.319 6.764-14.238 21.041-17.266 23.922-17.74 1.351 4.083 5.163 12.926 14.188 18.43a12.385 12.385 0 0 0 6.467 1.815 12.579 12.579 0 0 0 8.735-3.529c.539-.52 1.025-1.04 1.528-1.56a218.338 218.338 0 0 1-.3 27.338c-.569-.905-1.181-1.93-1.545-2.547l.553-.4a.7.7 0 0 0 .253-.8c-.1-.3-2.611-7.448-6.681-9.016a.687.687 0 0 0-.483-.006c-.029.009-.411.146-1.067.415-.014-.036 0-.075-.016-.109-4.13-7.021-13.9-13.123-14.312-13.379a.7.7 0 1 0-.741 1.193c.1.062 9.825 6.137 13.8 12.839-5.5 2.459-19.335 9.827-26.1 24.05-6.718-5.13-13.2-20.43-13.263-20.583a.7.7 0 0 0-1.294.544c.27.643 6.7 15.818 13.717 21.163a.634.634 0 0 0 .275.093 39.006 39.006 0 0 0-1.428 3.8.7.7 0 0 0 .174.708c.227.229 5.621 5.595 8.762 6.452a.659.659 0 0 0 .185.025.7.7 0 0 0 .563-.281l1.13-1.508a62.016 62.016 0 0 0 21.445 14.523 103.723 103.723 0 0 1-7.077 18.446L145.3 209.7c.018-14.831-9.277-29.614-16.094-40.439Zm-73.521 3.524a.708.708 0 0 0-.394.576 21.493 21.493 0 0 1-1.164 5.6 32.2 32.2 0 0 0-6.17-8.693 3.4 3.4 0 0 0 1.188-1.929c1.953.555 6.725 1.8 9.811 1.6a8.912 8.912 0 0 1-3.271 2.839Zm.652 3.345c.167-.938.269-1.778.317-2.264a9.228 9.228 0 0 0 1.407-.957L164.113 219.5l15.462 6.792a4.923 4.923 0 0 1-.258 3.722 5.2 5.2 0 0 1-2.718 2.2Zm75.894 50.9c4.008-2.329 8.781-8.435 9.587-9.488l17.89 8.342a70.3 70.3 0 0 1-14.2 16.417 38.03 38.03 0 0 1-13.539-15.2.675.675 0 0 0 .262-.081Zm-7.592 2.953a12.8 12.8 0 0 1 5.222-4.13 38.213 38.213 0 0 0 15.381 17.92.7.7 0 0 0 .782-.076A71.5 71.5 0 0 0 161 226.482l1.6.747a35.351 35.351 0 0 0-1.994 9.544c-.034.036-.088.04-.114.083a73.466 73.466 0 0 1-8.294 11.452 14.952 14.952 0 0 0-8.391 1.138c-10.582-4.357-17.949-17.224-19.168-19.466Zm15.9 19.428h.009c.524.294 1.058.565 1.6.822a25.508 25.508 0 0 0-5.515 3.97 7.067 7.067 0 0 0-2.824-.989c0-.007.012-.009.014-.017.33-1.122-1.055-2.336-1.666-2.8a.707.707 0 0 0-.338-.139 19.5 19.5 0 0 0-8.252 1.174 5.852 5.852 0 0 0-1.69.926c-1.978 1.562-4.728 4.024-6.79 5.911a97.8 97.8 0 0 0-4.256-9.118Zm-31.326-.279a92.284 92.284 0 0 1 4.437 9.311c-1.763-1.09-4.232-1.277-7.074-.862a78.9 78.9 0 0 0-4.8-8.449Zm-36 0h27.027a.645.645 0 0 0 .065.318 79.373 79.373 0 0 1 4.83 8.385c-6.646 1.359-14.837 5.451-20.647 8.718-1.443-2.936-6.727-13.295-11.278-17.431Zm5.6 22.427c1.49-.949 3.349-2.071 5.405-3.244a.675.675 0 0 0 .3-.069c.1-.046.135-.142.2-.219 9.719-5.49 23.781-11.931 28.551-8.09l-.715.668a.679.679 0 0 0-.689-.584.7.7 0 0 0-.675.727c.41 11.132 8.218 20.118 9.389 20.459a.771.771 0 0 0 .213.029.722.722 0 0 0 .7-.489.641.641 0 0 0-.333-.77c.426-.029.867-.076 1.328-.147.018.01.018.033.038.042.014.03 1.074 3-19.947 16.382-2.155-1.511-13.112-9.533-18.7-20.338a.688.688 0 0 0-.129-.176 44.215 44.215 0 0 0-4.935-4.191Zm-16.654 24.507C66.815 288.121 79.8 278.2 82.33 276.31c.16.152.293.279.364.349 4.769 9.163 13.251 16.341 17.265 19.4a33.008 33.008 0 0 1-15.977 12.991.7.7 0 0 0 .475 1.321 30.782 30.782 0 0 0 4.436-2.02c3.5 2.7 7.022 10.007 7.864 11.836a32.689 32.689 0 0 1-6.043 5.026.7.7 0 0 0-.307.786l1.025 3.663-4.478 2.487-2.177-2.841a.693.693 0 0 0-.805-.228c-.06.02-5.91 2.232-7.8 2.733a.7.7 0 0 0-.492.88l1.087 3.618-6.3 1.387-1.522-4.393c0-.012-.021-.015-.026-.027s0-.026 0-.039c-6.35-13.599-6.737-34.939-6.76-37.166Zm34.1 19.975c-1.512-2.814-3.721-6.415-6.053-8.445a33.951 33.951 0 0 0 5.98-4.685c1.471 4.905.663 10.382.074 13.13ZM67.75 345.011a49.109 49.109 0 0 1-3-8.879l3.131-1.6 1.461 4.221a.706.706 0 0 0 .815.455l7.537-1.659a.7.7 0 0 0 .535-.837c-.007-.032-.041-.045-.052-.075a.655.655 0 0 0 .038-.384l-.985-3.282c1.946-.6 5.458-1.906 6.753-2.391l2.228 2.908a.705.705 0 0 0 .9.187l5.492-3.049a.7.7 0 0 0 .336-.8l-1.033-3.7a35.331 35.331 0 0 0 6.464-5.592 14.964 14.964 0 0 1 2.146 4.605c-5.865 5.152-11.993 10.892-14.6 14.5-1.04.492-10.345 4.832-18.166 5.372Zm3.778.914a65.085 65.085 0 0 0 13.672-4.418 8.731 8.731 0 0 0 2.035 7.961c-.669 1-1.236 1.885-1.5 2.314-4.9.989-8.075 5.879-9.346 8.913a43.815 43.815 0 0 1-4.861-14.77Zm20.032 28.846a79.167 79.167 0 0 1-4.445 8.554l-2.274 6.39a3.9 3.9 0 0 1-.988 1.5c-1.834 1.728-4.349 4.319-4.821 4.808a14.128 14.128 0 0 1-4.635.636 1.87 1.87 0 0 1-.858-.951c-.021-.091-.085-.373.281-.834a5.826 5.826 0 0 1 3.052-1.927.7.7 0 0 0 .453-.3 38.672 38.672 0 0 1 3.719-4.884.7.7 0 0 0 .215-.436 19.662 19.662 0 0 1 1.052-4.811.7.7 0 0 0-.918-.948c-.043.018-4.252 1.887-7.014.964a2.419 2.419 0 0 1-1.557-1.159 1.879 1.879 0 0 1-.014-1.353.688.688 0 0 0 .01-.485c.2.01.408.04.6.04a9.981 9.981 0 0 0 5.389-1.5.7.7 0 0 0-.8-1.152 8.96 8.96 0 0 1-7.159.908c-.1-.049-2.306-1.169-1.887-3.278a9.188 9.188 0 0 0 1.524.124 16.174 16.174 0 0 0 6.174-1.449.7.7 0 0 0-.6-1.266c-.037.016-3.721 1.75-6.86 1.206a1.529 1.529 0 0 1-.9-.559 7.424 7.424 0 0 1-1.838-3.833c.474-1.4 1.463-3.714 2.256-4.374a1.578 1.578 0 0 1 1.205-.444c.17.025.251.087.252.069-.015.557-.352 2.966-.507 4.029-.76 0-1.3-.046-1.3-.048a.7.7 0 0 0-.144 1.4c.031 0 .569.057 1.348.057.341 0 .726-.012 1.136-.041a6.594 6.594 0 0 0 5.421-3.746 13.843 13.843 0 0 0 1.054-2.908.6.6 0 0 0 .067-.225c.612-2.54 3.946-8.6 9.048-9.439a.7.7 0 0 0 .483-.322 51.276 51.276 0 0 1 4.469-6.265 24.865 24.865 0 0 1 6.823 10.982c-.085.063-.186.1-.236.2-.712 1.431-3.62 7.661-3.909 8.76-.057.217-.116.537-.19.949a31.656 31.656 0 0 1-2.177 7.361Zm14.17 4.334a22.411 22.411 0 0 0-8.668-3.429 25.128 25.128 0 0 1-3.981-.95 33.621 33.621 0 0 0 2.019-7.058c.067-.366.116-.649.166-.841.109-.411.813-2.034 1.613-3.8a5.156 5.156 0 0 0 2.622.587h.133c2.568-.039 17.876-8.175 20.4-11.747a.7.7 0 0 0 .128-.438c-.008-.155-.043-.845-.11-1.931 1.359-.67 2.65-1.321 3.894-1.958a131.546 131.546 0 0 0 3.685 13.17c.23.724.452 1.436.678 2.152a12.314 12.314 0 0 0-9.172.768 25.817 25.817 0 0 0-13.289 14.846 5.942 5.942 0 0 0-.118.629Zm11.285 9.79a21.214 21.214 0 0 1-8.744-5.305 4.568 4.568 0 0 1-1.093-4.673 24.423 24.423 0 0 1 12.589-14.037 10.926 10.926 0 0 1 12.436 1.844 24.513 24.513 0 0 1 5.1 6.847c-3.272 1.177-15.962 6.239-20.288 15.329Zm55.012 35c-.026-.548-.089-1.064-.131-1.6.011-.013.031-.011.042-.025a3.573 3.573 0 0 1 2.264-1.364c-.711 3.4.269 9.254.313 9.5 1.168 8.682-1.033 12.325-1.054 12.357a.7.7 0 0 0 .729 1.067 2.164 2.164 0 0 1 .434-.02 34.1 34.1 0 0 0-1.9 3.976c-3.9 9.613-13.455 11.962-13.551 11.985a.7.7 0 0 0 .061 1.378 2.041 2.041 0 0 1 .216.046 8.447 8.447 0 0 0-2.065 1.2c-1.107.8-2.484 1.8-6.653 2.971-7.135 2.011-9.793-.846-9.813-.871a.708.708 0 0 0-.518-.245.782.782 0 0 0-.529.224c-.189.2-4.734 4.882-14.03.805a28.638 28.638 0 0 0-5.226-1.952 4.3 4.3 0 0 0 .7-.681.7.7 0 0 0-.379-1.1c-.059-.016-5.951-1.726-11.41-11.212a16.456 16.456 0 0 0-2.591-3.89 3.726 3.726 0 0 1 .683-.153.7.7 0 0 0 .523-1.042c-.069-.122-6.414-11.473-6.4-21.241l.281.352a.7.7 0 0 0 1.25-.423c.064-2.918.893-12.892 8.9-18.667a19.559 19.559 0 0 1 5.929-2.893 14.8 14.8 0 0 0-1.452 5.414 33.08 33.08 0 0 0 .555 6.854.7.7 0 0 0 1.112.432 1.526 1.526 0 0 1 .786-.375 5.742 5.742 0 0 0 .163 2.7.709.709 0 0 0 .554.5.719.719 0 0 0 .687-.279.439.439 0 0 1 .306-.2 1.238 1.238 0 0 1 .627.128c-.585 2.231-2.513 10.835.157 18.729a.7.7 0 0 0 1.359-.126c.061-.425.2-1.291.388-2.136a20.632 20.632 0 0 0 5.871 7.276 19.785 19.785 0 0 0 3.414 2.11.7.7 0 0 0 .949-.345 8.957 8.957 0 0 1 4.109-3.94c2.311 4.468 9.284 7.224 16.343 6.332a46.661 46.661 0 0 1 11.805 0 .709.709 0 0 0 .8-.581.7.7 0 0 0-.581-.8 23.321 23.321 0 0 0-.856-.112c5.002-4.358 7.266-10.922 6.829-20.058Zm-4.427-22.031c-1.931-.3-4.541-.5-6.018.277a12.8 12.8 0 0 0-1.829 1.316c-3.059 2.455-5.849 4.251-9.074 1.349a.7.7 0 0 0-1.161.4 7.915 7.915 0 0 1-.865.7 6.382 6.382 0 0 1-4.127.708 7.573 7.573 0 0 1-2.674-1.3 18.557 18.557 0 0 0-1.362-.837 9.853 9.853 0 0 0-4.665-1.1 13.007 13.007 0 0 0-3.3.441 18.359 18.359 0 0 0-2.23.77c-.162.071-.323.142-.483.219a6.892 6.892 0 0 1 1.286-2.047 8.745 8.745 0 0 1 3.027-2.064 10.907 10.907 0 0 1 8.08.2 11.975 11.975 0 0 0 5.527.619 16.389 16.389 0 0 1 3.913.035 7.712 7.712 0 0 0 5.119-1.191c3.407-2.046 7.267-1.479 10.836 1.505Zm-5.987-4.069a9.388 9.388 0 0 0-5.571 1.359 6.363 6.363 0 0 1-4.2 1 17.779 17.779 0 0 0-4.249-.043 10.705 10.705 0 0 1-4.883-.528 12.3 12.3 0 0 0-9.123-.192 10.136 10.136 0 0 0-3.533 2.42 8.213 8.213 0 0 0-2.044 4.281.7.7 0 0 0 1.061.7 13.647 13.647 0 0 1 1.776-.923 17 17 0 0 1 2.032-.7 9.627 9.627 0 0 1 6.946.542c.432.231.842.5 1.254.772a8.738 8.738 0 0 0 3.18 1.509 6.913 6.913 0 0 0 1.276.116 7.769 7.769 0 0 0 3.829-1 6.766 6.766 0 0 0 .986-.759c4.138 3.12 7.954.064 10.279-1.8a11.9 11.9 0 0 1 1.6-1.17 5.881 5.881 0 0 1 2.69-.372 49.808 49.808 0 0 1 5.7 20.957c.446 9.31-1.985 15.79-7.407 19.819a49.7 49.7 0 0 0-9.369.278c-6.685.844-13.491-1.906-15.17-6.129a.7.7 0 0 0-.905-.4 11.138 11.138 0 0 0-5.149 4.3 18.5 18.5 0 0 1-2.558-1.648 19.532 19.532 0 0 1-6.2-8.467.7.7 0 0 0-1.3-.032 8.753 8.753 0 0 0-.41 1.246 36.848 36.848 0 0 1 .775-15.514.706.706 0 0 0-.253-.763 3.194 3.194 0 0 0-2.076-.617 1.427 1.427 0 0 0-.175.036 2.091 2.091 0 0 1 .094-1.163.7.7 0 0 0 .082-.61 1.551 1.551 0 0 0-.983-.955 1.788 1.788 0 0 0-1.2.073 28.964 28.964 0 0 1-.372-5.533 14.131 14.131 0 0 1 2.019-6.223.688.688 0 0 0 .041-.168c.01-.033.042-.051.047-.086.053-.37 1.3-9.162-1.037-13.337-.007-.014-.025-.014-.033-.027 5.006-8.156 17.413-12.714 19.191-13.332 1.719.573 14.036 4.884 18.356 11.663a12.767 12.767 0 0 0-.78 5.032 43.416 43.416 0 0 0-6.944-2.991 9.967 9.967 0 0 0-5.543-.229 27.163 27.163 0 0 0-13.047 7.329.7.7 0 0 0 1.048.935 26.254 26.254 0 0 1 12.333-6.9 8.572 8.572 0 0 1 4.764.2c3.51 1.174 9.874 3.775 13.157 8.049Zm11.813-14.595a44.992 44.992 0 0 1-14.164 5.69c-2.136-8.613-16.291-14.037-19.947-15.305a46.513 46.513 0 0 1 7.528-9.126 11.118 11.118 0 0 1 13.5-1.526c9.023 5.5 12.639 14.576 13.775 18.221a1.8 1.8 0 0 1-.692 2.046Zm19.248-52.466c2.851 4.525 5.313 8.433 6.491 11.37 3.933 9.816.035 20.267.017 20.319-6.764 14.239-21.041 17.269-23.922 17.743-1.351-4.083-5.161-12.925-14.188-18.431a12.52 12.52 0 0 0-15.2 1.714c-.538.519-1.025 1.039-1.527 1.559a218.081 218.081 0 0 1 .294-27.339c.569.906 1.182 1.931 1.546 2.548l-.555.4a.7.7 0 0 0-.252.8c.1.3 2.612 7.446 6.682 9.016a.754.754 0 0 0 .253.045.667.667 0 0 0 .229-.038c.029-.01.412-.147 1.067-.416.014.036 0 .075.015.109 4.131 7.021 13.9 13.123 14.313 13.379a.7.7 0 0 0 .74-1.193c-.1-.061-9.823-6.136-13.8-12.838 5.5-2.459 19.337-9.827 26.106-24.052 6.717 5.133 13.2 20.428 13.262 20.582a.7.7 0 0 0 .646.429.668.668 0 0 0 .272-.055.7.7 0 0 0 .375-.918c-.27-.643-6.7-15.815-13.717-21.163a.647.647 0 0 0-.28-.076 39.034 39.034 0 0 0 1.433-3.818.7.7 0 0 0-.174-.709c-.227-.229-5.619-5.595-8.762-6.452a.691.691 0 0 0-.747.256l-1.129 1.506a62.034 62.034 0 0 0-21.446-14.521 103.73 103.73 0 0 1 7.077-18.448l18.79 8.254c-.022 14.831 9.273 29.615 16.091 40.44ZM142.3 273.708a4.9 4.9 0 0 1 .259-3.72 5.2 5.2 0 0 1 2.716-2.2l120.266 56.08a31.045 31.045 0 0 0-.318 2.264 9.164 9.164 0 0 0-1.407.959Zm130.66 57.268a3.42 3.42 0 0 0-.223.682c-1.95-.56-6.723-1.819-9.813-1.6a8.952 8.952 0 0 1 3.27-2.85.7.7 0 0 0 .393-.573 21.43 21.43 0 0 1 1.165-5.6 32.224 32.224 0 0 0 6.17 8.7 3.5 3.5 0 0 0-.962 1.241Zm6.613 3.024a2.978 2.978 0 0 1-5.335-2.443 2.442 2.442 0 0 1 2.3-1.33 3.361 3.361 0 0 1 1.395.308 2.736 2.736 0 0 1 1.64 3.465Z"/><path d="M155.781 429.767a16.348 16.348 0 0 0 5.949 1.2 9.822 9.822 0 0 0 5.215-1.275.7.7 0 0 0-.779-1.168c-.146.1-3.683 2.345-9.875-.069a.7.7 0 1 0-.51 1.308Zm-23.994-.009a16.023 16.023 0 0 0 6.406 1.277 19.663 19.663 0 0 0 6.956-1.273.7.7 0 0 0-.539-1.3c-.063.027-6.349 2.58-12.263 0a.7.7 0 1 0-.56 1.289Zm7.743-4.325a2.624 2.624 0 1 0-2.624-2.624 2.624 2.624 0 0 0 2.624 2.624Zm21.765-.681a2.625 2.625 0 1 0-2.624-2.625 2.624 2.624 0 0 0 2.624 2.625ZM147.454 409.9c2.72-.475 4.574-.064 5.518 1.214 2.329 3.147-.878 11.171-2.311 14a.7.7 0 0 0 .308.944.7.7 0 0 0 .944-.309c.226-.445 5.507-10.981 2.189-15.467-1.285-1.742-3.607-2.331-6.888-1.765a.7.7 0 0 0 .24 1.385Z"/></svg>