<svg id="Layer_1" data-name="Layer 1" xmlns="http://www.w3.org/2000/svg" viewBox="0 0 321.875 500"><defs><style>.cls-2{fill:#02592d}.cls-3{fill:#ffc306}.cls-4{fill:#a50404}.cls-5{fill:#05703d}.cls-6{fill:#ef870a}</style></defs><path style="fill:#fff" d="M0 0h321.875v500H0z"/><path d="M268.453 481.248H45.383a26.661 26.661 0 0 1-26.63-26.63V125.1a1.25 1.25 0 0 1 2.5 0v329.518a24.157 24.157 0 0 0 24.13 24.13h223.07a1.25 1.25 0 0 1 0 2.5Zm33.42-105.09a1.25 1.25 0 0 1-1.25-1.25V45.387a24.162 24.162 0 0 0-24.13-24.139H53.423a1.25 1.25 0 0 1 0-2.5h223.07a26.664 26.664 0 0 1 26.63 26.639v329.521a1.25 1.25 0 0 1-1.25 1.25Z"/><path class="cls-2" d="M164.213 230.173a38.738 38.738 0 0 1 8.732-6.528 63.536 63.536 0 0 1 11.193-5c.649-.248 1.289-.434 1.968-.631.384-.111.768-.223 1.145-.342 1.024-.315 2.039-.62 3.094-.848l3.3-.786 3.293-.593c1.5-.31 2.99-.483 4.572-.665a115.1 115.1 0 0 0 2.212-.27c1.418-.147 2.933-.24 4.4-.329.832-.052 1.664-.1 2.5-.165l-.16-1.19c-.815.032-1.634.054-2.453.077-1.508.041-3.069.083-4.61.19-.766.076-1.5.135-2.225.193-1.6.13-3.256.264-4.875.54l-3.42.494-3.456.691c-1.157.207-2.276.5-3.413.8-.385.107-.765.2-1.146.3-.728.183-1.482.372-2.209.618a70.981 70.981 0 0 0-12.286 4.905 44.418 44.418 0 0 0-10.2 6.911l-.56.525 4.133 1.614Zm0-45.024a38.738 38.738 0 0 1 8.732-6.528 63.614 63.614 0 0 1 11.193-5c.649-.248 1.289-.434 1.968-.63.384-.111.768-.223 1.145-.342 1.024-.316 2.039-.62 3.094-.848l3.3-.786 3.293-.593c1.5-.31 2.99-.483 4.572-.666.739-.085 1.477-.17 2.212-.269 1.418-.147 2.933-.24 4.4-.33.832-.051 1.664-.1 2.5-.164l-.16-1.19c-.815.031-1.634.054-2.453.076-1.508.041-3.069.084-4.61.191-.766.076-1.5.135-2.225.193-1.6.129-3.256.264-4.875.54l-3.42.494-3.456.69c-1.157.208-2.276.5-3.413.8-.385.107-.765.2-1.146.3-.728.182-1.482.372-2.209.618a70.981 70.981 0 0 0-12.286 4.905 44.418 44.418 0 0 0-10.2 6.911l-.56.525 4.133 1.613Zm0-44.571a38.769 38.769 0 0 1 8.732-6.529 63.682 63.682 0 0 1 11.193-5c.649-.248 1.289-.434 1.968-.631.384-.111.768-.222 1.145-.342 1.024-.315 2.039-.619 3.094-.847l3.3-.786 3.293-.593c1.5-.31 2.99-.483 4.572-.666.739-.085 1.477-.17 2.212-.269 1.418-.147 2.933-.241 4.4-.33.832-.052 1.664-.1 2.5-.164l-.16-1.191c-.815.032-1.634.055-2.453.077-1.508.041-3.069.084-4.61.19-.766.076-1.5.136-2.225.194-1.6.129-3.256.264-4.875.54l-3.42.494-3.456.69c-1.157.208-2.276.5-3.413.8-.385.106-.765.2-1.146.3-.728.182-1.482.372-2.209.618a70.981 70.981 0 0 0-12.286 4.905 44.449 44.449 0 0 0-10.2 6.91l-.56.526 4.133 1.613Zm0-44.56a38.739 38.739 0 0 1 8.732-6.529 63.536 63.536 0 0 1 11.193-5c.649-.248 1.289-.434 1.968-.631.384-.111.768-.223 1.145-.342 1.024-.315 2.039-.62 3.094-.848l3.3-.785 3.293-.593c1.5-.311 2.99-.483 4.572-.666.739-.085 1.477-.17 2.212-.27 1.418-.146 2.933-.24 4.4-.329.832-.052 1.664-.1 2.5-.164l-.16-1.191c-.815.032-1.634.054-2.453.077-1.508.041-3.069.083-4.61.19-.766.076-1.5.135-2.225.194-1.6.129-3.256.263-4.875.539l-3.42.494-3.456.691c-1.157.208-2.276.5-3.413.8-.385.107-.765.2-1.146.3-.728.183-1.482.372-2.209.618a70.981 70.981 0 0 0-12.286 4.905 44.45 44.45 0 0 0-10.2 6.911l-.56.526 4.133 1.613Z"/><path class="cls-3" d="M224.608 226.737h26.671c5.992 0 10.921-5.706 10.953-12.744-.033-7.038-4.958-12.746-10.953-12.743h-26.671a94.574 94.574 0 0 0 0 25.487Z"/><path class="cls-4" d="M251.279 226.737h-26.671a94.473 94.473 0 0 1-.863-12.744h38.487c-.032 7.038-4.961 12.746-10.953 12.744Z"/><path class="cls-5" d="M197.817 201.469h28.922a7.19 7.19 0 0 1 7.19 7.19 17.859 17.859 0 0 1-17.859 17.859h-7.584a17.859 17.859 0 0 1-17.859-17.859 7.19 7.19 0 0 1 7.19-7.19Z" transform="rotate(90 212.278 213.993)"/><path class="cls-2" d="M224.8 228.454v-14.461h-25.05v3.792a17.859 17.859 0 0 0 17.86 17.859 7.19 7.19 0 0 0 7.19-7.19Z"/><path class="cls-3" d="M224.608 181.948h26.671c5.992 0 10.921-5.706 10.953-12.744-.033-7.038-4.958-12.746-10.953-12.743h-26.671a94.574 94.574 0 0 0 0 25.487Z"/><path class="cls-4" d="M251.279 181.948h-26.671a94.473 94.473 0 0 1-.863-12.744h38.487c-.032 7.038-4.961 12.746-10.953 12.744Z"/><path class="cls-5" d="M197.817 156.68h28.922a7.19 7.19 0 0 1 7.19 7.19 17.859 17.859 0 0 1-17.859 17.859h-7.584a17.859 17.859 0 0 1-17.859-17.859 7.19 7.19 0 0 1 7.19-7.19Z" transform="rotate(90 212.278 169.204)"/><path class="cls-2" d="M224.8 183.666V169.2h-25.05v3.8a17.859 17.859 0 0 0 17.86 17.859 7.19 7.19 0 0 0 7.19-7.193Z"/><path class="cls-3" d="M224.608 137.159h26.671c5.992 0 10.921-5.706 10.953-12.744-.033-7.038-4.958-12.746-10.953-12.743h-26.671a94.574 94.574 0 0 0 0 25.487Z"/><path class="cls-4" d="M251.279 137.159h-26.671a94.473 94.473 0 0 1-.863-12.744h38.487c-.032 7.038-4.961 12.746-10.953 12.744Z"/><path class="cls-5" d="M197.817 111.891h28.922a7.19 7.19 0 0 1 7.19 7.19 17.859 17.859 0 0 1-17.859 17.859h-7.584a17.859 17.859 0 0 1-17.859-17.859 7.19 7.19 0 0 1 7.19-7.19Z" transform="rotate(90 212.278 124.415)"/><path class="cls-2" d="M224.8 138.877v-14.462h-25.05v3.792a17.86 17.86 0 0 0 17.86 17.86 7.191 7.191 0 0 0 7.19-7.19Z"/><path class="cls-3" d="M224.608 92.37h26.671c5.992 0 10.921-5.706 10.953-12.744-.033-7.038-4.958-12.746-10.953-12.743h-26.671a94.574 94.574 0 0 0 0 25.487Z"/><path class="cls-4" d="M251.279 92.37h-26.671a94.473 94.473 0 0 1-.863-12.744h38.487c-.032 7.038-4.961 12.746-10.953 12.744Z"/><path class="cls-5" d="M197.817 67.1h28.922a7.19 7.19 0 0 1 7.19 7.19 17.859 17.859 0 0 1-17.859 17.861h-7.584a17.859 17.859 0 0 1-17.859-17.859 7.19 7.19 0 0 1 7.19-7.19Z" transform="rotate(90 212.278 79.626)"/><path class="cls-2" d="M224.8 94.088V79.626h-25.05v3.792a17.86 17.86 0 0 0 17.86 17.86 7.191 7.191 0 0 0 7.19-7.19Zm-67.138 136.085a38.738 38.738 0 0 0-8.732-6.528 63.536 63.536 0 0 0-11.193-5c-.648-.248-1.289-.434-1.968-.631a50.734 50.734 0 0 1-1.145-.342c-1.024-.315-2.039-.62-3.094-.848l-3.3-.786-3.293-.593c-1.5-.31-2.99-.483-4.572-.665a115.1 115.1 0 0 1-2.212-.27c-1.418-.147-2.933-.24-4.4-.329-.832-.052-1.664-.1-2.5-.165l.16-1.19c.815.032 1.634.054 2.453.077 1.508.041 3.069.083 4.61.19.767.076 1.5.135 2.225.193 1.6.13 3.256.264 4.875.54l3.42.494 3.456.691c1.157.207 2.276.5 3.413.8.386.107.766.2 1.146.3.729.183 1.482.372 2.209.618a70.981 70.981 0 0 1 12.286 4.905 44.418 44.418 0 0 1 10.2 6.911l.56.525-4.133 1.614Zm0-45.024a38.738 38.738 0 0 0-8.732-6.528 63.614 63.614 0 0 0-11.193-5c-.648-.248-1.289-.434-1.968-.63a50.734 50.734 0 0 1-1.145-.342c-1.024-.316-2.039-.62-3.094-.848l-3.3-.786-3.293-.593c-1.5-.31-2.99-.483-4.572-.666-.739-.085-1.477-.17-2.212-.269-1.418-.147-2.933-.24-4.4-.33-.832-.051-1.664-.1-2.5-.164l.16-1.19c.815.031 1.634.054 2.453.076 1.508.041 3.069.084 4.61.191.767.076 1.5.135 2.225.193 1.6.129 3.256.264 4.875.54l3.42.494 3.456.69c1.157.208 2.276.5 3.413.8.386.107.766.2 1.146.3.729.182 1.482.372 2.209.618a70.981 70.981 0 0 1 12.286 4.905 44.418 44.418 0 0 1 10.2 6.911l.56.525-4.133 1.613Zm0-44.571a38.769 38.769 0 0 0-8.732-6.529 63.682 63.682 0 0 0-11.193-5c-.648-.248-1.289-.434-1.968-.631a46.033 46.033 0 0 1-1.145-.342c-1.024-.315-2.039-.619-3.094-.847l-3.3-.786-3.293-.593c-1.5-.31-2.99-.483-4.572-.666-.739-.085-1.477-.17-2.212-.269-1.418-.147-2.933-.241-4.4-.33-.832-.052-1.664-.1-2.5-.164l.16-1.191c.815.032 1.634.055 2.453.077 1.508.041 3.069.084 4.61.19.767.076 1.5.136 2.225.194 1.6.129 3.256.264 4.875.54l3.42.494 3.456.69c1.157.208 2.276.5 3.413.8.386.106.766.2 1.146.3.729.182 1.482.372 2.209.618a70.981 70.981 0 0 1 12.286 4.905 44.449 44.449 0 0 1 10.2 6.91l.56.526-4.133 1.613Zm0-44.56a38.739 38.739 0 0 0-8.732-6.529 63.536 63.536 0 0 0-11.193-5c-.648-.248-1.289-.434-1.968-.631a50.734 50.734 0 0 1-1.145-.342c-1.024-.315-2.039-.62-3.094-.848l-3.3-.785-3.293-.593c-1.5-.311-2.99-.483-4.572-.666a107.67 107.67 0 0 1-2.212-.27c-1.418-.146-2.933-.24-4.4-.329-.832-.052-1.664-.1-2.5-.164l.16-1.191c.815.032 1.634.054 2.453.077 1.508.041 3.069.083 4.61.19.767.076 1.5.135 2.225.194 1.6.129 3.256.263 4.875.539l3.42.494 3.456.691c1.157.208 2.276.5 3.413.8.386.107.766.2 1.146.3.729.183 1.482.372 2.209.618a70.981 70.981 0 0 1 12.286 4.905 44.45 44.45 0 0 1 10.2 6.911l.56.526-4.133 1.613Z"/><path class="cls-3" d="M165.049 235.064h-8.219a.375.375 0 0 1 .044-.056l1.237-171.522h5.657l1.237 171.522a.259.259 0 0 0 .044.056Z"/><path class="cls-6" d="M165.049 235.064h-4.109V63.486h2.828l1.237 171.522a.259.259 0 0 0 .044.056Z"/><path class="cls-5" d="M162.239 231.942a3.715 3.715 0 0 1 3.082 4.469c-.659 3.865-5.905 7.5-11.574 8.273 0 0 1.82-.833 1.552-3.919s.164-9.325 6.94-8.823Z"/><ellipse class="cls-2" cx="161.084" cy="237.243" rx="3.138" ry="2.084" transform="rotate(-50.498 161.084 237.242)"/><path class="cls-3" d="M97.267 226.737H70.6c-5.992 0-10.921-5.706-10.953-12.744.033-7.038 4.958-12.746 10.953-12.743h26.667a94.574 94.574 0 0 1 0 25.487Z"/><path class="cls-4" d="M70.6 226.737h26.667a94.473 94.473 0 0 0 .863-12.744H59.643c.032 7.038 4.957 12.746 10.957 12.744Z"/><path class="cls-5" d="M105.805 201.469h7.584a17.859 17.859 0 0 1 17.859 17.859 7.19 7.19 0 0 1-7.19 7.19H95.136a7.19 7.19 0 0 1-7.19-7.19 17.859 17.859 0 0 1 17.859-17.859Z" transform="rotate(90 109.597 213.993)"/><path class="cls-2" d="M97.072 228.454v-14.461h25.05v3.792a17.859 17.859 0 0 1-17.86 17.859 7.19 7.19 0 0 1-7.19-7.19Z"/><path class="cls-3" d="M97.267 181.948H70.6c-5.992 0-10.921-5.706-10.953-12.744.033-7.038 4.958-12.746 10.953-12.743h26.667a94.574 94.574 0 0 1 0 25.487Z"/><path class="cls-4" d="M70.6 181.948h26.667a94.473 94.473 0 0 0 .863-12.748H59.643c.032 7.042 4.957 12.75 10.957 12.748Z"/><path class="cls-5" d="M105.805 156.68h7.584a17.859 17.859 0 0 1 17.859 17.859 7.19 7.19 0 0 1-7.19 7.19H95.136a7.19 7.19 0 0 1-7.19-7.19 17.859 17.859 0 0 1 17.859-17.859Z" transform="rotate(90 109.597 169.204)"/><path class="cls-2" d="M97.072 183.666V169.2h25.05v3.8a17.859 17.859 0 0 1-17.86 17.859 7.19 7.19 0 0 1-7.19-7.193Z"/><path class="cls-3" d="M97.267 137.159H70.6c-5.992 0-10.921-5.706-10.953-12.744.033-7.038 4.958-12.746 10.953-12.743h26.667a94.574 94.574 0 0 1 0 25.487Z"/><path class="cls-4" d="M70.6 137.159h26.667a94.473 94.473 0 0 0 .863-12.744H59.643c.032 7.038 4.957 12.746 10.957 12.744Z"/><path class="cls-5" d="M105.805 111.891h7.584a17.859 17.859 0 0 1 17.859 17.859 7.19 7.19 0 0 1-7.19 7.19H95.136a7.19 7.19 0 0 1-7.19-7.19 17.859 17.859 0 0 1 17.859-17.859Z" transform="rotate(90 109.597 124.415)"/><path class="cls-2" d="M97.072 138.877v-14.462h25.05v3.792a17.86 17.86 0 0 1-17.86 17.86 7.191 7.191 0 0 1-7.19-7.19Z"/><path class="cls-3" d="M97.267 92.37H70.6c-5.992 0-10.921-5.706-10.953-12.744.029-7.038 4.953-12.746 10.953-12.743h26.667a94.574 94.574 0 0 1 0 25.487Z"/><path class="cls-4" d="M70.6 92.37h26.667a94.473 94.473 0 0 0 .863-12.744H59.643C59.675 86.664 64.6 92.372 70.6 92.37Z"/><path class="cls-5" d="M105.805 67.1h7.584a17.859 17.859 0 0 1 17.859 17.859 7.19 7.19 0 0 1-7.19 7.19H95.136a7.19 7.19 0 0 1-7.19-7.19A17.859 17.859 0 0 1 105.805 67.1Z" transform="rotate(90 109.597 79.626)"/><path class="cls-2" d="M97.072 94.088V79.626h25.05v3.792a17.86 17.86 0 0 1-17.86 17.86 7.191 7.191 0 0 1-7.19-7.19Z"/><path class="cls-3" d="M173.681 61.175V34.5c0-5.992-5.705-10.921-12.744-10.953-7.038.033-12.746 4.958-12.743 10.953v26.675a94.656 94.656 0 0 0 25.487 0Z"/><path class="cls-4" d="M173.681 34.5v26.675a94.614 94.614 0 0 1-12.744.862V23.55c7.039.032 12.746 4.961 12.744 10.95Z"/><path class="cls-5" d="M146.476 60.98H175.4a7.19 7.19 0 0 1 7.19 7.19 17.859 17.859 0 0 1-17.859 17.859h-7.584a17.859 17.859 0 0 1-17.861-17.859 7.19 7.19 0 0 1 7.19-7.19Z"/><path class="cls-2" d="M175.4 60.98h-14.463v25.049h3.792a17.86 17.86 0 0 0 17.86-17.859 7.191 7.191 0 0 0-7.189-7.19Zm-17.738 208.846a38.739 38.739 0 0 1-8.732 6.529 63.536 63.536 0 0 1-11.193 5c-.648.248-1.289.434-1.968.631-.384.111-.767.223-1.145.342-1.024.315-2.039.62-3.094.848l-3.3.785-3.293.594c-1.5.31-2.99.483-4.572.665-.739.085-1.477.17-2.212.27-1.418.146-2.933.24-4.4.329-.832.052-1.664.1-2.5.165l.16 1.19c.815-.032 1.634-.054 2.453-.077 1.508-.041 3.069-.083 4.61-.19.767-.076 1.5-.135 2.225-.194 1.6-.129 3.256-.263 4.875-.539l3.42-.494 3.456-.691c1.157-.208 2.276-.5 3.413-.8.386-.107.766-.2 1.146-.3.729-.183 1.482-.372 2.209-.618a70.981 70.981 0 0 0 12.286-4.9 44.45 44.45 0 0 0 10.2-6.911l.56-.526-4.133-1.613Zm0 45.025a38.738 38.738 0 0 1-8.732 6.528 63.614 63.614 0 0 1-11.193 5c-.648.247-1.289.433-1.968.63-.384.111-.767.223-1.145.342-1.024.316-2.039.62-3.094.848l-3.3.786-3.293.593c-1.5.31-2.99.483-4.572.666-.739.085-1.477.17-2.212.269-1.418.147-2.933.24-4.4.329-.832.052-1.664.1-2.5.165l.16 1.19c.815-.031 1.634-.054 2.453-.077 1.508-.04 3.069-.083 4.61-.19.767-.076 1.5-.135 2.225-.193 1.6-.13 3.256-.264 4.875-.54l3.42-.494 3.456-.691c1.157-.207 2.276-.5 3.413-.8.386-.107.766-.2 1.146-.3.729-.183 1.482-.372 2.209-.618a70.981 70.981 0 0 0 12.286-4.9 44.418 44.418 0 0 0 10.2-6.911l.56-.525-4.133-1.614Zm0 44.571a38.738 38.738 0 0 1-8.732 6.528 63.614 63.614 0 0 1-11.193 5c-.648.248-1.289.434-1.968.63-.384.111-.767.223-1.145.343-1.024.315-2.039.619-3.094.847l-3.3.786-3.293.593c-1.5.31-2.99.483-4.572.666-.739.085-1.477.17-2.212.269-1.418.147-2.933.24-4.4.33-.832.051-1.664.1-2.5.164l.16 1.19a220.15 220.15 0 0 1 2.453-.076c1.508-.041 3.069-.084 4.61-.191.767-.075 1.5-.135 2.225-.193 1.6-.129 3.256-.264 4.875-.54l3.42-.494 3.456-.69c1.157-.208 2.276-.5 3.413-.8.386-.106.766-.2 1.146-.3.729-.182 1.482-.372 2.209-.618a70.981 70.981 0 0 0 12.286-4.9 44.449 44.449 0 0 0 10.2-6.91l.56-.526-4.133-1.613Zm0 44.56a38.739 38.739 0 0 1-8.732 6.529 63.609 63.609 0 0 1-11.193 5c-.648.248-1.289.434-1.968.631-.384.111-.767.223-1.145.342-1.024.315-2.039.62-3.094.847l-3.3.786-3.293.593c-1.5.311-2.99.483-4.572.666-.739.085-1.477.17-2.212.269-1.418.147-2.933.241-4.4.33-.832.052-1.664.1-2.5.164l.16 1.191c.815-.032 1.634-.054 2.453-.077 1.508-.041 3.069-.083 4.61-.19.767-.076 1.5-.135 2.225-.194 1.6-.129 3.256-.263 4.875-.539l3.42-.494 3.456-.691c1.157-.208 2.276-.5 3.413-.8.386-.107.766-.2 1.146-.3.729-.183 1.482-.372 2.209-.618a70.906 70.906 0 0 0 12.286-4.906 44.418 44.418 0 0 0 10.2-6.91l.56-.526-4.133-1.613Z"/><path class="cls-3" d="M97.267 273.263H70.6c-5.992 0-10.921 5.706-10.953 12.744.033 7.038 4.958 12.746 10.953 12.743h26.667a94.574 94.574 0 0 0 0-25.487Z"/><path class="cls-4" d="M70.6 273.263h26.667a94.473 94.473 0 0 1 .863 12.744H59.643c.032-7.038 4.957-12.746 10.957-12.744Z"/><path class="cls-5" d="M95.136 273.482h28.922a7.19 7.19 0 0 1 7.19 7.19 17.859 17.859 0 0 1-17.859 17.859h-7.584a17.859 17.859 0 0 1-17.859-17.859 7.19 7.19 0 0 1 7.19-7.19Z" transform="rotate(-90 109.597 286.007)"/><path class="cls-2" d="M97.072 271.545v14.462h25.05v-3.792a17.86 17.86 0 0 0-17.86-17.86 7.191 7.191 0 0 0-7.19 7.19Z"/><path class="cls-3" d="M97.267 318.052H70.6c-5.992 0-10.921 5.706-10.953 12.744.033 7.038 4.958 12.746 10.953 12.743h26.667a94.574 94.574 0 0 0 0-25.487Z"/><path class="cls-4" d="M70.6 318.052h26.667a94.451 94.451 0 0 1 .863 12.748H59.643c.032-7.042 4.957-12.75 10.957-12.748Z"/><path class="cls-5" d="M95.136 318.271h28.922a7.19 7.19 0 0 1 7.19 7.19 17.859 17.859 0 0 1-17.859 17.859h-7.584a17.859 17.859 0 0 1-17.859-17.859 7.19 7.19 0 0 1 7.19-7.19Z" transform="rotate(-90 109.598 330.796)"/><path class="cls-2" d="M97.072 316.334V330.8h25.05V327a17.86 17.86 0 0 0-17.86-17.86 7.191 7.191 0 0 0-7.19 7.194Z"/><path class="cls-3" d="M97.267 362.841H70.6c-5.992 0-10.921 5.7-10.953 12.743.033 7.039 4.958 12.747 10.953 12.744h26.667a94.574 94.574 0 0 0 0-25.487Z"/><path class="cls-4" d="M70.6 362.841h26.667a94.448 94.448 0 0 1 .863 12.743H59.643c.032-7.038 4.957-12.746 10.957-12.743Z"/><path class="cls-5" d="M95.136 363.06h28.922a7.19 7.19 0 0 1 7.19 7.19 17.859 17.859 0 0 1-17.859 17.859h-7.584a17.859 17.859 0 0 1-17.859-17.859 7.19 7.19 0 0 1 7.19-7.19Z" transform="rotate(-90 109.598 375.585)"/><path class="cls-2" d="M97.072 361.123v14.462h25.05v-3.792a17.86 17.86 0 0 0-17.86-17.86 7.191 7.191 0 0 0-7.19 7.19Z"/><path class="cls-3" d="M97.267 407.63H70.6c-5.992 0-10.921 5.7-10.953 12.743.033 7.039 4.958 12.747 10.953 12.744h26.667a94.574 94.574 0 0 0 0-25.487Z"/><path class="cls-4" d="M70.6 407.63h26.667a94.448 94.448 0 0 1 .863 12.743H59.643c.032-7.038 4.957-12.746 10.957-12.743Z"/><path class="cls-5" d="M95.136 407.849h28.922a7.19 7.19 0 0 1 7.19 7.19 17.859 17.859 0 0 1-17.859 17.861h-7.584a17.859 17.859 0 0 1-17.859-17.859 7.19 7.19 0 0 1 7.19-7.192Z" transform="rotate(-90 109.597 420.373)"/><path class="cls-2" d="M97.072 405.912v14.461h25.05v-3.791a17.86 17.86 0 0 0-17.86-17.86 7.191 7.191 0 0 0-7.19 7.19Zm67.141-136.086a38.739 38.739 0 0 0 8.732 6.529 63.536 63.536 0 0 0 11.193 5c.649.248 1.289.434 1.968.631.384.111.768.223 1.145.342 1.024.315 2.039.62 3.094.848l3.3.785 3.293.594c1.5.31 2.99.483 4.572.665.739.085 1.477.17 2.212.27 1.418.146 2.933.24 4.4.329.832.052 1.664.1 2.5.165l-.16 1.19c-.815-.032-1.634-.054-2.453-.077-1.508-.041-3.069-.083-4.61-.19-.766-.076-1.5-.135-2.225-.194-1.6-.129-3.256-.263-4.875-.539l-3.42-.494-3.456-.691c-1.157-.208-2.276-.5-3.413-.8-.385-.107-.765-.2-1.146-.3-.728-.183-1.482-.372-2.209-.618a70.981 70.981 0 0 1-12.286-4.9 44.45 44.45 0 0 1-10.2-6.911l-.56-.526 4.133-1.613Zm0 45.025a38.738 38.738 0 0 0 8.732 6.528 63.614 63.614 0 0 0 11.193 5c.649.247 1.289.433 1.968.63.384.111.768.223 1.145.342 1.024.316 2.039.62 3.094.848l3.3.786 3.293.593c1.5.31 2.99.483 4.572.666.739.085 1.477.17 2.212.269 1.418.147 2.933.24 4.4.329.832.052 1.664.1 2.5.165l-.16 1.19c-.815-.031-1.634-.054-2.453-.077-1.508-.04-3.069-.083-4.61-.19-.766-.076-1.5-.135-2.225-.193-1.6-.13-3.256-.264-4.875-.54l-3.42-.494-3.456-.691c-1.157-.207-2.276-.5-3.413-.8-.385-.107-.765-.2-1.146-.3-.728-.183-1.482-.372-2.209-.618a70.981 70.981 0 0 1-12.286-4.9 44.418 44.418 0 0 1-10.2-6.911l-.56-.525 4.133-1.614Zm0 44.571a38.738 38.738 0 0 0 8.732 6.528 63.614 63.614 0 0 0 11.193 5c.649.248 1.289.434 1.968.63a44.8 44.8 0 0 1 1.145.343c1.024.315 2.039.619 3.094.847l3.3.786 3.293.593c1.5.31 2.99.483 4.572.666.739.085 1.477.17 2.212.269 1.418.147 2.933.24 4.4.33.832.051 1.664.1 2.5.164l-.16 1.19a220.15 220.15 0 0 0-2.453-.076c-1.508-.041-3.069-.084-4.61-.191-.766-.075-1.5-.135-2.225-.193-1.6-.129-3.256-.264-4.875-.54l-3.42-.494-3.456-.69c-1.157-.208-2.276-.5-3.413-.8-.385-.106-.765-.2-1.146-.3-.728-.182-1.482-.372-2.209-.618a70.981 70.981 0 0 1-12.286-4.9 44.449 44.449 0 0 1-10.2-6.91l-.56-.526 4.133-1.613Zm0 44.56a38.739 38.739 0 0 0 8.732 6.529 63.609 63.609 0 0 0 11.193 5c.649.248 1.289.434 1.968.631.384.111.768.223 1.145.342 1.024.315 2.039.62 3.094.847l3.3.786 3.293.593c1.5.311 2.99.483 4.572.666.739.085 1.477.17 2.212.269 1.418.147 2.933.241 4.4.33.832.052 1.664.1 2.5.164l-.16 1.191c-.815-.032-1.634-.054-2.453-.077-1.508-.041-3.069-.083-4.61-.19-.766-.076-1.5-.135-2.225-.194-1.6-.129-3.256-.263-4.875-.539l-3.42-.494-3.456-.691c-1.157-.208-2.276-.5-3.413-.8-.385-.107-.765-.2-1.146-.3-.728-.183-1.482-.372-2.209-.618a70.906 70.906 0 0 1-12.286-4.906 44.418 44.418 0 0 1-10.2-6.91l-.56-.526 4.133-1.613Z"/><path class="cls-3" d="M156.826 264.936h8.219a.375.375 0 0 1-.044.056l-1.237 171.522h-5.657l-1.237-171.522a.259.259 0 0 0-.044-.056Z"/><path class="cls-6" d="M156.826 264.936h4.109v171.578h-2.828l-1.237-171.522a.259.259 0 0 0-.044-.056Z"/><path class="cls-5" d="M159.636 268.058a3.715 3.715 0 0 1-3.082-4.469c.659-3.866 5.905-7.5 11.574-8.273 0 0-1.82.833-1.551 3.919s-.165 9.325-6.941 8.823Z"/><ellipse class="cls-2" cx="160.791" cy="262.757" rx="3.138" ry="2.084" transform="rotate(-50.498 160.791 262.757)"/><path class="cls-3" d="M224.608 273.263h26.671c5.992 0 10.921 5.706 10.953 12.744-.033 7.038-4.958 12.746-10.953 12.743h-26.671a94.574 94.574 0 0 1 0-25.487Z"/><path class="cls-4" d="M251.279 273.263h-26.671a94.473 94.473 0 0 0-.863 12.744h38.487c-.032-7.038-4.961-12.746-10.953-12.744Z"/><path class="cls-5" d="M208.486 273.482h7.584a17.859 17.859 0 0 1 17.859 17.859 7.19 7.19 0 0 1-7.19 7.19h-28.922a7.19 7.19 0 0 1-7.19-7.19 17.859 17.859 0 0 1 17.859-17.859Z" transform="rotate(-90 212.278 286.007)"/><path class="cls-2" d="M224.8 271.545v14.462h-25.05v-3.792a17.86 17.86 0 0 1 17.86-17.86 7.191 7.191 0 0 1 7.19 7.19Z"/><path class="cls-3" d="M224.608 318.052h26.671c5.992 0 10.921 5.706 10.953 12.744-.033 7.038-4.958 12.746-10.953 12.743h-26.671a94.574 94.574 0 0 1 0-25.487Z"/><path class="cls-4" d="M251.279 318.052h-26.671a94.451 94.451 0 0 0-.863 12.744h38.487c-.032-7.038-4.961-12.746-10.953-12.744Z"/><path class="cls-5" d="M208.486 318.271h7.584a17.859 17.859 0 0 1 17.859 17.859 7.19 7.19 0 0 1-7.19 7.19h-28.922a7.19 7.19 0 0 1-7.19-7.19 17.859 17.859 0 0 1 17.859-17.859Z" transform="rotate(-90 212.279 330.796)"/><path class="cls-2" d="M224.8 316.334V330.8h-25.05V327a17.86 17.86 0 0 1 17.86-17.86 7.191 7.191 0 0 1 7.19 7.194Z"/><path class="cls-3" d="M224.608 362.841h26.671c5.992 0 10.921 5.7 10.953 12.743-.033 7.039-4.958 12.747-10.953 12.744h-26.671a94.574 94.574 0 0 1 0-25.487Z"/><path class="cls-4" d="M251.279 362.841h-26.671a94.448 94.448 0 0 0-.863 12.743h38.487c-.032-7.038-4.961-12.746-10.953-12.743Z"/><path class="cls-5" d="M208.486 363.06h7.584a17.859 17.859 0 0 1 17.859 17.859 7.19 7.19 0 0 1-7.19 7.19h-28.922a7.19 7.19 0 0 1-7.19-7.19 17.859 17.859 0 0 1 17.859-17.859Z" transform="rotate(-90 212.279 375.585)"/><path class="cls-2" d="M224.8 361.123v14.462h-25.05v-3.792a17.86 17.86 0 0 1 17.86-17.86 7.191 7.191 0 0 1 7.19 7.19Z"/><path class="cls-3" d="M224.608 407.63h26.671c5.992 0 10.921 5.7 10.953 12.743-.033 7.039-4.958 12.747-10.953 12.744h-26.671a94.574 94.574 0 0 1 0-25.487Z"/><path class="cls-4" d="M251.279 407.63h-26.671a94.448 94.448 0 0 0-.863 12.743h38.487c-.032-7.038-4.961-12.746-10.953-12.743Z"/><path class="cls-5" d="M208.486 407.849h7.584a17.859 17.859 0 0 1 17.859 17.859 7.19 7.19 0 0 1-7.19 7.19h-28.922a7.19 7.19 0 0 1-7.19-7.19 17.859 17.859 0 0 1 17.859-17.859Z" transform="rotate(-90 212.279 420.374)"/><path class="cls-2" d="M224.8 405.912v14.461h-25.05v-3.791a17.86 17.86 0 0 1 17.86-17.86 7.191 7.191 0 0 1 7.19 7.19Z"/><path class="cls-3" d="M148.194 438.825V465.5c0 5.993 5.706 10.921 12.744 10.954 7.038-.033 12.746-4.958 12.743-10.954v-26.675a94.656 94.656 0 0 0-25.487 0Z"/><path class="cls-4" d="M148.194 465.5v-26.675a94.472 94.472 0 0 1 12.744-.862v38.487c-7.038-.033-12.746-4.961-12.744-10.95Z"/><path class="cls-5" d="M146.477 413.971H175.4a7.19 7.19 0 0 1 7.19 7.19 17.859 17.859 0 0 1-17.859 17.859h-7.584a17.859 17.859 0 0 1-17.859-17.859 7.19 7.19 0 0 1 7.189-7.19Z" transform="rotate(-180 160.938 426.495)"/><path class="cls-2" d="M146.476 439.02h14.462v-25.049h-3.792a17.86 17.86 0 0 0-17.86 17.859 7.191 7.191 0 0 0 7.19 7.19Z"/><path d="m23.96 70.653-3.876-2.5 12.748-19.291a15.42 15.42 0 0 1-4.81.843 12.763 12.763 0 0 1-9.534-4.051 13.8 13.8 0 0 1-3.913-9.978 14.382 14.382 0 0 1 1.89-7.335 13.93 13.93 0 0 1 5.365-5.22 14.946 14.946 0 0 1 7.446-1.954 14.332 14.332 0 0 1 7.223 1.89 13.534 13.534 0 0 1 5.2 5.284 14.657 14.657 0 0 1 1.89 7.239 17.716 17.716 0 0 1-1.169 6.1 37.927 37.927 0 0 1-4.18 7.671Zm5.146-25.079a9.871 9.871 0 0 0 9.908-9.9 9.9 9.9 0 0 0-9.93-9.9 9.9 9.9 0 0 0-9.9 9.9 9.906 9.906 0 0 0 9.919 9.9Zm268.81 383.773 3.875 2.5-12.748 19.293a15.42 15.42 0 0 1 4.81-.843 12.763 12.763 0 0 1 9.534 4.051 13.8 13.8 0 0 1 3.913 9.978 14.387 14.387 0 0 1-1.889 7.334 13.946 13.946 0 0 1-5.365 5.221 14.952 14.952 0 0 1-7.447 1.954 14.335 14.335 0 0 1-7.223-1.89 13.536 13.536 0 0 1-5.2-5.285 14.651 14.651 0 0 1-1.89-7.238 17.716 17.716 0 0 1 1.169-6.1 37.927 37.927 0 0 1 4.18-7.671Zm-5.147 25.079a9.906 9.906 0 1 0 7.015 2.9 9.539 9.539 0 0 0-7.015-2.9Z"/><path class="cls-2" d="M26.676 106.648c.854 4.258-2.876 10.322-2.876 10.322-1.328.387-3.059-2.064-3.059-2.064 3.871-3.1 4.129-8.258 4.129-8.258Z"/><path class="cls-3" d="M31.662 97.387V84.052c0-3-2.853-5.461-6.372-5.477-3.519.017-6.373 2.479-6.371 5.477v13.335a47.283 47.283 0 0 0 12.743 0Z"/><path class="cls-4" d="M31.662 84.052v13.335a47.15 47.15 0 0 1-6.372.432V78.575c3.519.016 6.373 2.481 6.372 5.477Z"/><path class="cls-5" d="M18.06 97.29h14.461a3.595 3.595 0 0 1 3.595 3.595 8.93 8.93 0 0 1-8.93 8.93h-3.792a8.93 8.93 0 0 1-8.93-8.93 3.595 3.595 0 0 1 3.596-3.595Z"/><path class="cls-2" d="M32.521 97.29H25.29v12.525h1.9a8.93 8.93 0 0 0 8.93-8.93 3.6 3.6 0 0 0-3.599-3.595ZM295.2 393.352c-.854-4.258 2.876-10.322 2.876-10.322 1.328-.388 3.059 2.064 3.059 2.064-3.871 3.1-4.129 8.258-4.129 8.258Z"/><path class="cls-3" d="M290.213 402.612v13.336c0 3 2.853 5.46 6.372 5.477 3.519-.017 6.373-2.479 6.372-5.477v-13.336a47.372 47.372 0 0 0-12.744 0Z"/><path class="cls-4" d="M290.213 415.948v-13.336a47.312 47.312 0 0 1 6.372-.431v19.244c-3.519-.017-6.373-2.481-6.372-5.477Z"/><path class="cls-5" d="M289.354 390.185h14.461a3.595 3.595 0 0 1 3.595 3.595 8.93 8.93 0 0 1-8.93 8.93h-3.792a8.93 8.93 0 0 1-8.93-8.93 3.595 3.595 0 0 1 3.595-3.595Z" transform="rotate(180 296.585 396.447)"/><path class="cls-2" d="M289.354 402.71h7.231v-12.525h-1.9a8.93 8.93 0 0 0-8.93 8.93 3.6 3.6 0 0 0 3.599 3.595Z"/></svg>