<svg id="Layer_1" data-name="Layer 1" xmlns="http://www.w3.org/2000/svg" viewBox="0 0 321.875 500"><defs><style>.cls-1{fill:#fff}.cls-2{fill:#099bdb}.cls-3{fill:#ffb200}.cls-4{fill:#ff7f00}.cls-5{fill:#d90000}.cls-6{fill:#a50404}.cls-7{fill:#05703d}.cls-8{fill:#035128}.cls-9{fill:#f9c9af}.cls-10{fill:#f94c10}.cls-11{fill:#ef870a}.cls-12{fill:#ffc306}.cls-13{fill:#02592d}</style></defs><path class="cls-1" d="M0 0h321.875v500H0z"/><path d="M268.453 481.248H45.383a26.66 26.66 0 0 1-26.63-26.631V125.1a1.25 1.25 0 0 1 2.5 0v329.517a24.158 24.158 0 0 0 24.13 24.131h223.07a1.25 1.25 0 0 1 0 2.5Zm33.42-105.091a1.25 1.25 0 0 1-1.25-1.25V45.388a24.162 24.162 0 0 0-24.13-24.14H53.423a1.25 1.25 0 0 1 0-2.5h223.07a26.665 26.665 0 0 1 26.63 26.64v329.519a1.25 1.25 0 0 1-1.25 1.25Z"/><path class="cls-2" d="M82.2 100.931a8.862 8.862 0 1 0 8.862 8.861 8.859 8.859 0 0 0-8.862-8.861Zm0 13a4.129 4.129 0 1 1 4.124-4.134 4.134 4.134 0 0 1-4.124 4.129Z"/><circle class="cls-3" cx="82.204" cy="75.255" r="34.537"/><path class="cls-4" d="M82.2 40.718v69.074a34.537 34.537 0 1 0 0-69.074Z"/><path class="cls-5" d="M47.917 79.351a34.53 34.53 0 0 0 68.574 0Z"/><path class="cls-6" d="M82.2 109.792a34.536 34.536 0 0 0 34.287-30.441H82.2Z"/><path class="cls-7" d="M115.64 83.936a34.571 34.571 0 0 0 .888-12.487 169.026 169.026 0 0 1-68.7.453 34.66 34.66 0 0 0-.165 3.353 34.543 34.543 0 0 0 1.221 9.1 181.068 181.068 0 0 0 66.756-.419Z"/><path class="cls-8" d="M116.682 73.286q-.056-.924-.154-1.836A169.266 169.266 0 0 1 82.2 75.2v12.049a181.053 181.053 0 0 0 33.436-3.313c.167-.647.312-1.3.443-1.963.033-.169.06-.339.091-.509a33.582 33.582 0 0 0 .456-3.556c.015-.2.034-.406.046-.611.04-.676.065-1.356.065-2.042q0-.961-.055-1.908c.003-.02.001-.04 0-.061Z"/><path class="cls-2" d="M239.671 399.069a8.862 8.862 0 1 0-8.861-8.861 8.859 8.859 0 0 0 8.861 8.861Zm0-13a4.129 4.129 0 1 1-4.124 4.134 4.134 4.134 0 0 1 4.124-4.129Z"/><circle class="cls-3" cx="239.671" cy="424.745" r="34.537"/><path class="cls-4" d="M239.671 459.282v-69.074a34.537 34.537 0 0 0 0 69.074Z"/><path class="cls-5" d="M273.958 420.649a34.53 34.53 0 0 0-68.574 0Z"/><path class="cls-6" d="M239.671 390.208a34.536 34.536 0 0 0-34.287 30.441h34.287Z"/><path class="cls-7" d="M206.235 416.064a34.571 34.571 0 0 0-.888 12.487 169.026 169.026 0 0 1 68.7-.453c.107-1.1.165-2.221.165-3.353a34.543 34.543 0 0 0-1.221-9.1 181.068 181.068 0 0 0-66.756.419Z"/><path class="cls-8" d="M205.193 426.714q.055.924.154 1.836a169.266 169.266 0 0 1 34.324-3.753v-12.046a181.053 181.053 0 0 0-33.436 3.313c-.167.647-.312 1.3-.443 1.963-.033.169-.06.339-.09.509a32.143 32.143 0 0 0-.319 2.12c-.056.475-.1.955-.137 1.436-.016.2-.035.406-.047.611a35.411 35.411 0 0 0-.065 2.042q0 .962.055 1.908c.001.02.004.04.004.061Z"/><path class="cls-3" d="M145.164 76.314a115.156 115.156 0 0 1 44.019-1.8c.015 0 .028-.008.044-.008h.009a.669.669 0 0 1 .224.048 129.126 129.126 0 0 1 16.584 3.583.318.318 0 0 1 .033.01c.371.105.736.2 1.108.31a17.714 17.714 0 0 0 3.232-9.967.7.7 0 0 1 .04-.2c.207-.6 4.97-13.975 16.966-20.352-2.868-.267-7.759-.3-11.32 1.829a.72.72 0 0 1-.684.038c-1-.469-3.934-1.4-5.448-.188-1.228.985-1.479 3.328-.727 6.775.028.252.353 4.053-1.558 5.835a3.591 3.591 0 0 1-3.2.839 12.513 12.513 0 0 1-10.164-10.2v-.03c0-.007 0-.025-.007-.038s0-.019 0-.029a.722.722 0 0 1 .517-.811 4.587 4.587 0 1 0-4.027-.8c.01.008.015.021.025.03a.713.713 0 0 1 .132.153.6.6 0 0 1 .043.072.73.73 0 0 1 .059.178.719.719 0 0 1 .014.093.687.687 0 0 1-.011.169.678.678 0 0 1-.029.118.468.468 0 0 1-.016.067c-1.851 3.985-6.3 5.467-12.211 4.07-3.644-.863-6.825-5.335-6.42-9.027 0-.036.045-.2.053-.238a.72.72 0 0 1 .336-.447.75.75 0 0 1 .554-.081 5.8 5.8 0 1 0 1.734-11.415 5.592 5.592 0 0 0-2.084.3.733.733 0 0 1-.958-.747 5.8 5.8 0 1 0-11.583-.59 5.7 5.7 0 0 0 .211 1.744.73.73 0 0 1-.147.656.685.685 0 0 1-.622.257c-.024 0-.2-.028-.22-.033a5.8 5.8 0 1 0 2.9 10.583.719.719 0 0 1 .786-.022.728.728 0 0 1 .351.7l-.064.592a10.8 10.8 0 0 1-2.443 7.2 9.568 9.568 0 0 1-6.96 2.99 5.624 5.624 0 0 1-.808.047c-1.824 0-6.363-.594-9.88-5.97-.006-.01-.007-.021-.012-.031a.689.689 0 0 1-.058-.144.7.7 0 0 1-.037-.124 1.857 1.857 0 0 1 .014-.276.741.741 0 0 1 .052-.124.768.768 0 0 1 .07-.133c.007-.009.009-.02.016-.029a4.583 4.583 0 0 0-3.337-7.467 4.5 4.5 0 0 0-3.3 1.184 4.547 4.547 0 0 0-1.5 3.173 4.593 4.593 0 0 0 3.875 4.738.74.74 0 0 1 .712.489.593.593 0 0 1 .037.11c0 .011.009.019.011.03.172 1.382.871 8.326-2.315 9.391-2.738.923-4.663-2.181-5.376-4.156-.4-2.107-1.175-3.4-2.339-3.95-1.974-.945-4.544.451-4.569.463a.724.724 0 0 1-.681.012 15.368 15.368 0 0 0-8.846-1.134c9.788 4.457 17.521 13.97 17.87 14.4a.747.747 0 0 1 .155.369c.883 7.153 3.96 8.611 4.7 8.861a61.391 61.391 0 0 1 6.165-1.871.721.721 0 0 1 .31-.074Z"/><path d="M133.025 68.074c.463.532.752.885.812.959a.744.744 0 0 1 .155.368 23.086 23.086 0 0 0 .413 2.362h1.195s7.457-1.916 7.7-1.785 8.856-2.517 8.856-2.517 17.566-1.425 18.072-1.324 23.047.707 23.344.707 16.6 3.134 16.6 3.134l.119-.052c.052-.469.107-.932.132-1.438a.7.7 0 0 1 .04-.2c.026-.075.123-.349.3-.785-40.149-14.311-77.738.571-77.738.571Z"/><path class="cls-9" d="M197.676 93.48c-7.993-4.929-9.029-14.931-9.159-17.587a113.615 113.615 0 0 0-42.693 1.76 56.7 56.7 0 0 0 5.237 33.131 8.609 8.609 0 0 0 1.33-1.783c.223-.364.468-.763.791-1.232a8.948 8.948 0 0 1 11.3-2.821 4.759 4.759 0 0 1 .723.449 4.806 4.806 0 0 1 1.026-1.056 9.331 9.331 0 0 1 12.094 1.19c.405.435.722.811 1.01 1.156a8.5 8.5 0 0 0 2.774 2.369 6.95 6.95 0 0 0 4 1.149 5.283 5.283 0 0 0 3.545-1.392 5.482 5.482 0 0 0 1.455-4.334.73.73 0 0 1 1.279-.554 12.358 12.358 0 0 1 1.557 2.249c3.115-3.487 3.647-10.913 3.731-12.694Zm-44.4-.68a2.833 2.833 0 1 1 3.045-2.6 2.832 2.832 0 0 1-3.05 2.6Zm4.034-8.721c-6.326-.664-8.767 1.392-8.792 1.415a.731.731 0 0 1-.974-1.089c.113-.1 2.862-2.517 9.916-1.782a.733.733 0 0 1 .652.8.747.747 0 0 1-.807.656Zm12.928 18.128a33.573 33.573 0 0 1-5.514.481c-.79 0-1.463-.033-2.012-.079a2.87 2.87 0 0 1-2.6-2.362 35.875 35.875 0 0 1 .335-14.869.731.731 0 0 1 1.406.4 35.088 35.088 0 0 0-.3 14.215 1.433 1.433 0 0 0 1.277 1.159 29.33 29.33 0 0 0 7.166-.388.731.731 0 1 1 .241 1.441Zm4.377-12.356a2.833 2.833 0 1 1 3.045-2.6 2.833 2.833 0 0 1-3.05 2.6Zm8.669-8.541a.725.725 0 0 1-.885.535 23.326 23.326 0 0 0-11.908.15.68.68 0 0 1-.237.041.73.73 0 0 1-.24-1.42 24.214 24.214 0 0 1 12.734-.188.73.73 0 0 1 .531.882Zm-30.713 151.4c.579.082 4.265.4 8.4-4.4a19.954 19.954 0 0 0 4.537-7.716 6.46 6.46 0 0 1 .773-1.8 14.17 14.17 0 0 1 5.957-3.885 4.964 4.964 0 0 1 3.75.241 28.172 28.172 0 0 1 2.918 1.563 11.312 11.312 0 0 0-2.176-4.865 6.018 6.018 0 0 0-4.5-2.305 18.072 18.072 0 0 0-5.189.347.73.73 0 1 1-.333-1.422 19.789 19.789 0 0 1 5.611-.386 8.038 8.038 0 0 1 2.227.463 6.586 6.586 0 0 0-1.926-4.016 1.949 1.949 0 0 0-.992-.46 47.343 47.343 0 0 0-9.716.11.73.73 0 0 1-.165-1.451 54.285 54.285 0 0 1 8.565-.273c-.4-1.36-1.329-4.066-2.7-5.412a2.39 2.39 0 0 0-1.062-.514.655.655 0 0 1-.123-.032c-2.184-.517-6.328-.077-8.932.431a.751.751 0 0 1-.856-.578.732.732 0 0 1 .578-.858 34.531 34.531 0 0 1 7.956-.628c-1.529-2.327-3.538-5.057-5.174-4.779-1.248.209-4.646 2.248-8.867 5.321a4.927 4.927 0 0 0-1.074 1.035c-4.282 5.728-5.495 14.893-5.893 17.905l-.031.23c-.357 2.682-1.352 3.436-1.951 3.644a16.387 16.387 0 0 0 2.323 9.5 12.091 12.091 0 0 0 8.065 4.99Z"/><path class="cls-10" d="M144.284 78.047c-2.245.6-3.8 1.123-4.612 1.415a15.536 15.536 0 0 1 .644 7.129c-1.8 10.862.433 16.954 6.61 18.132a58.981 58.981 0 0 1-2.642-26.676Z"/><path class="cls-9" d="M175.922 111.073a7.246 7.246 0 0 0-4.323-.048 10.942 10.942 0 0 1-3.792.269 4.617 4.617 0 0 1-1.9-.72 4.374 4.374 0 0 1-1.952 1.225 9.629 9.629 0 0 1-3.421.276 5.977 5.977 0 0 0-3.72.644 10.887 10.887 0 0 0-1.533 1.186c.561.94 1.99 2.827 3.564 2.982a3.229 3.229 0 0 0 2.685-1.48.74.74 0 0 1 .493-.262l9.438-.913a.77.77 0 0 1 .455.107c.031.019 3.139 1.908 5.772 1.275a3.916 3.916 0 0 0 2.271-1.549 18.785 18.785 0 0 1-1.536-1.22 9.6 9.6 0 0 0-2.501-1.772Z"/><path class="cls-10" d="M186.628 114.589h.042a11.4 11.4 0 0 0 4.1-.811 5.085 5.085 0 0 0 2.354-1.887c.793-1.339.5-3.4-.684-5.4a6.34 6.34 0 0 1-1.773 3.368 6.752 6.752 0 0 1-4.488 1.805 8.406 8.406 0 0 1-4.8-1.339 9.932 9.932 0 0 1-3.17-2.7 26.56 26.56 0 0 0-.96-1.1 7.937 7.937 0 0 0-10.152-1.009 3.278 3.278 0 0 0-1.128 1.523 2.017 2.017 0 0 0 .018 1.489 2.641 2.641 0 0 0 2.036 1.318 9.666 9.666 0 0 0 3.3-.257 14.552 14.552 0 0 1 2.726-.343 6.13 6.13 0 0 1 2.439.479 10.926 10.926 0 0 1 2.9 2.017 12.4 12.4 0 0 0 1.955 1.5 10.78 10.78 0 0 0 5.285 1.347Zm-36.704-2.824c0-.009-.016-.012-.02-.021a53.487 53.487 0 0 1-2.479-5.636.722.722 0 0 1-.382.12.706.706 0 0 1-.121-.01c-.091-.015-.173-.041-.262-.058a34.646 34.646 0 0 0 1.556 6.655 7.872 7.872 0 0 0 1.708-1.05ZM189.979 76.1c.143 2.855 1.2 11.955 8.736 16.318l.015.009a17.552 17.552 0 0 0 6.369 2.135.73.73 0 0 1-.1 1.453.751.751 0 0 1-.105-.007c-.4-.058-.786-.132-1.168-.208a52.249 52.249 0 0 1-.237 17.568 13.063 13.063 0 0 0 4.809-3.454c2.69-3.192 3.53-8.073 2.3-13.395a20.608 20.608 0 0 0-2.311-5.79 23.551 23.551 0 0 1-3.212-11.349 127.844 127.844 0 0 0-15.096-3.28Z"/><path class="cls-5" d="M111.778 172.194a4.248 4.248 0 0 1 5.731 4.544 5.931 5.931 0 0 1 9.033 6.729c2.072-.421 5.065.252 8.381 1.893a40.683 40.683 0 0 0-2.156-5.189.731.731 0 0 1 1.3-.676 41.185 41.185 0 0 1 2.688 6.823v.038q.7.409 1.417.871a18.222 18.222 0 0 0 .589-3.2.713.713 0 0 1 .786-.671.731.731 0 0 1 .672.785 20.7 20.7 0 0 1-.77 3.95c.147.1.293.2.44.308 3.725 2.717 6.622 5.895 7.978 8.691a20.2 20.2 0 0 1 .987-1.478 284.664 284.664 0 0 0-26.524-53.792 16.734 16.734 0 0 0-5.541 6.992c-1.743 4.653-3.305 8.442-4.281 10.395a32.209 32.209 0 0 0-2.526 6.879 6.788 6.788 0 0 1 1.796 6.108Z"/><path class="cls-10" d="M153.15 113.9a17.581 17.581 0 0 1 2.908-2.431 7.259 7.259 0 0 1 4.544-.854 8.293 8.293 0 0 0 2.927-.216 2.89 2.89 0 0 0 1.352-.862 3.225 3.225 0 0 1-.221-.4 3.359 3.359 0 0 1-.127-2.343 1.711 1.711 0 0 0-.706-.535 7.55 7.55 0 0 0-9.442 2.341c-.3.445-.537.823-.749 1.168a9.541 9.541 0 0 1-2.626 3.007 8.16 8.16 0 0 1-4.364 1.943 6.529 6.529 0 0 1-4.515-1.085 6.079 6.079 0 0 1-2.131-2.872c-.8 2.013-.779 3.954.138 5.084a4.8 4.8 0 0 0 2.466 1.439 10.964 10.964 0 0 0 3.98.193 10.273 10.273 0 0 0 4.827-2.006c.573-.447 1.139-.992 1.739-1.571Zm4.895 18.5a9.208 9.208 0 0 1-.723-2.507.731.731 0 0 1 1.454-.143c.029.274.739 6.058 8.973 9.989a27.36 27.36 0 0 1-4.9-8.376.731.731 0 0 1 1.387-.461c.035.109 3.683 10.742 13.13 13.644a22.628 22.628 0 0 0 7.885-16.057.73.73 0 1 1 1.458.091 24.6 24.6 0 0 1-3.327 11.074 23.06 23.06 0 0 0 9.007-13.681.731.731 0 1 1 1.418.357 29.322 29.322 0 0 1-1.062 3.329c13.09-10.68 10.016-31.027 9.437-34.217a18.123 18.123 0 0 1-3.084-1.174c-.185 2.821-1.011 9.979-4.534 13.345a5.978 5.978 0 0 1-.179 5.029 6.675 6.675 0 0 1-3.065 2.495 12.88 12.88 0 0 1-4.644.916h-.047a12.419 12.419 0 0 1-5.407-1.243 5.4 5.4 0 0 1-3.2 2.231c-2.81.663-5.821-.859-6.654-1.328l-8.912.864a4.567 4.567 0 0 1-3.4 1.784c-.12 0-.242 0-.363-.017-2.187-.216-3.836-2.385-4.5-3.417l-.031.03c-.6.578-1.219 1.175-1.846 1.67a10.883 10.883 0 0 1-2.293 1.352c.347 2.15 2.035 10.432 8.022 14.421Z"/><path class="cls-1" d="M168.721 153a.735.735 0 0 1 .575-.319.876.876 0 0 1 .6.274c.048.059 4.9 6.03 8.784 5.207 3.928-.814 5.511-4.962 5.526-5a.731.731 0 0 1 1.161-.3c.056.048 5.571 4.7 9.77 2.17a6.826 6.826 0 0 0 3.164-7.222.732.732 0 0 1 .887-.873c.041.007 4.181 1 6.459-.592a3.489 3.489 0 0 0 1.445-2.65 28.243 28.243 0 0 0-.373-9.012 179.275 179.275 0 0 0-2.715-8.27 24.9 24.9 0 0 0-4.962-1.621 25.634 25.634 0 0 1-7.466 7.548 21.481 21.481 0 0 1-10.095 10.1 18.988 18.988 0 0 1-3.544 3.51.728.728 0 0 1-.42.134.787.787 0 0 1-.2-.027 18.673 18.673 0 0 1-6.855-3.646c-6.127-2.07-9.407-5.131-11.157-7.71a.727.727 0 0 1-.276-.061 16.312 16.312 0 0 1-6.82-6.329l-1.323.555a222.654 222.654 0 0 1 14.7 25.258 3.057 3.057 0 0 0 3.135-1.124Z"/><path class="cls-7" d="M123.15 140.391v.011a285.278 285.278 0 0 1 26.831 54.064c.1-.079.181-.162.286-.239 2.66-1.936 7.43-5.236 9.487-5.581 2.823-.452 5.332 3.378 7.318 6.475l.06.093a3.608 3.608 0 0 1 1.5.787c1.88 1.842 2.962 5.539 3.25 6.632a3.425 3.425 0 0 1 1.7.8c1.011.888 2.237 2.637 2.522 5.882a6.981 6.981 0 0 1 1.787 1.657 11.914 11.914 0 0 1 2.587 6.944c1.386.96 3.158 2.224 5.095 3.638-7.025-51.351-34.853-90.561-37.984-94.833-17.229 4.337-23.922 10.612-25.407 12.218.216.321.538.806.952 1.443Z"/><path class="cls-2" d="M196.429 155.925c1.68 3.917 11.384 28.118 12.215 65.536 2.8-.253 5.632-.572 8.334-.97 2.2-32.312-3.533-61.321-8.267-78.851-.03.7-.082 1.437-.166 2.21a4.937 4.937 0 0 1-2.065 3.694c-2.057 1.432-5.066 1.237-6.625 1a8.212 8.212 0 0 1-3.426 7.381Z"/><path class="cls-5" d="M239.206 184.822a42.635 42.635 0 0 0 1.215-6.852.75.75 0 0 1 .784-.673.73.73 0 0 1 .674.783A38.506 38.506 0 0 1 239 189.77a299.3 299.3 0 0 1-9.265 60.093H248.9a170.574 170.574 0 0 0 6.569-46.143 154.721 154.721 0 0 0-3.98-36.875c-1.982-8.555-5.451-18.9-14.623-23.734a222.967 222.967 0 0 1 2.34 41.711Zm-79.751 63.852h.015a.727.727 0 0 1 .269.051h.006l1.809.734a188.512 188.512 0 0 0-2.5-17.391 10.4 10.4 0 0 1-5.72 2.133c-.261 2.252-1.477 9.543-6.548 14.472Z"/><path class="cls-7" d="M186.263 238.583c-7.5-5.086-17.288-11.886-20.682-14.3a26.663 26.663 0 0 1-3.5 4.985 18.69 18.69 0 0 1-1.726 1.76c1.236 6.36 2.153 12.692 2.72 18.837h13.741a16.035 16.035 0 0 1 1.927-1.225.733.733 0 0 1 .717.017 15.255 15.255 0 0 1 1.673 1.208h6.012c.112-3.7.1-7-.053-10.808a6.105 6.105 0 0 1-.829-.474Zm-1.092-84.027a11.094 11.094 0 0 1-2 2.736c2.193 3.765 15.506 28.123 16.241 64.807 2.445-.123 5.082-.289 7.775-.512-.8-36.764-10.205-60.629-12.029-64.925-3.941 1.765-8.27-.856-9.987-2.106Z"/><path class="cls-2" d="M178.977 159.6a5.162 5.162 0 0 1-1.027.1c-3.606 0-7.247-3.627-8.625-5.164a4.286 4.286 0 0 1-2.984 1.1c8.436 17.133 17.4 40.414 20.846 66.817 1.514-.007 5.6-.05 10.765-.283-.708-35.741-13.457-59.639-15.92-63.929a8.039 8.039 0 0 1-3.055 1.359Z"/><path class="cls-7" d="M216.867 221.986c-6.014.869-12.622 1.347-18.133 1.609h-.047c-4.214.2-7.778.274-9.935.3 1.787 1.334 3.6 2.712 5.284 4.028a6.267 6.267 0 0 1 1.735 2.131 1.849 1.849 0 0 1 .715-.18 2.4 2.4 0 0 1 1.5.507l1.514 1.1a3.452 3.452 0 0 1 1.069 1.5 111.319 111.319 0 0 0 15.349-1.523q.598-4.768.949-9.472Z"/><path class="cls-2" d="M201.787 234.41a5.662 5.662 0 0 1 1.241.676 5.991 5.991 0 0 1 1.128 8.383 6.186 6.186 0 0 1-4.98 2.572 5.636 5.636 0 0 1-4.976-2.941 3.078 3.078 0 0 1-.367.086 3.73 3.73 0 0 1-.591.045 3.417 3.417 0 0 1-1.918-.528l-1.514-1.1a2.435 2.435 0 0 1-.948-1.247 1.76 1.76 0 0 1-.047-.771c-.085-.013-.166-.039-.25-.055.133 3.61.149 6.787.042 10.336H212.7a182.29 182.29 0 0 0 3.032-16.885 112.279 112.279 0 0 1-13.945 1.429Z"/><path class="cls-7" d="M205.305 125.714c.528 1.469 1.3 3.71 2.216 6.622a.7.7 0 0 1 .065.117l.407 1.3c.011.038.072.251.153.606 4.926 16.252 12.87 49.279 10.256 86.64 0 .006.005.01.006.016a.713.713 0 0 1-.029.323q-.385 5.373-1.075 10.853a.638.638 0 0 1-.012.1c-.739 5.8-1.75 11.672-3.09 17.572h14.018c1.646-5.9 16.113-60.222 6.249-112.02a43.27 43.27 0 0 0-29.534-13.143c.1.268.218.591.351.962l.019.052Z"/><path class="cls-5" d="M124.483 236.711a.736.736 0 0 1-.32-.475c-.052-.272-1.189-6.611 5.2-13.657a43.973 43.973 0 0 1-2.4-7.095c-3.828-.864-10.391.1-10.461.116a.731.731 0 0 1-.219-1.446c.274-.039 6.216-.92 10.336-.226a30.841 30.841 0 0 1-.619-5.136.731.731 0 0 1 .7-.752 25.026 25.026 0 0 1 6.009.6.682.682 0 0 1 .041-.176 35.527 35.527 0 0 0 2.642-8.077 34.7 34.7 0 0 1-2.875-1.88c-5.163-3.766-8.433-8.082-8.779-11.2a6.574 6.574 0 0 1-2.374.994 6.389 6.389 0 0 1-1.207.116 5.754 5.754 0 0 1-3.416-1.106 6.1 6.1 0 0 1-2.172-6.541 4.627 4.627 0 0 1-1.844.4 4.216 4.216 0 0 1-2.5-.807 4.266 4.266 0 0 1-1.7-2.818 4.565 4.565 0 0 1-.044-.851 7.243 7.243 0 0 1-1.091.49 45.786 45.786 0 0 0-1.172 9.124 40.812 40.812 0 0 1-3.969 17.453c-.661 1.413-1.445 2.731-2.2 4.008-1.729 2.914-3.363 5.666-3.393 9.182a44.206 44.206 0 0 0 2.219 14.877c2.344 6.734 19.975 14.534 36.478 11.07a14.769 14.769 0 0 1-.375-1.111 79.361 79.361 0 0 1-10.495-5.076Z"/><path class="cls-3" d="M52.374 131.7c.018 0 1.77-.343 2.268-1.563.455-1.116-.328-2.6-1.066-3.647-.966-1.377-2.112-2.778-3.219-4.132-2.87-3.513-5.606-6.858-5.782-10.136-1.6 1.309-3.676 3.48-3.567 5.493a.727.727 0 0 1-.276.614.754.754 0 0 1-.66.128 33.225 33.225 0 0 0-8.589-1.37 34.733 34.733 0 0 0 3.928 7.759.731.731 0 0 1-.418 1.118c-1.956.512-3.389 3.15-4.143 5.074a7.519 7.519 0 0 1 1.9-.228c2.814 0 6.1 1.294 9.524 2.638 1.627.64 3.31 1.3 4.915 1.8 1.208.376 2.831.664 3.759-.077.014-.011.029-.02.043-.03a3.327 3.327 0 0 0 .791-2.631.733.733 0 0 1 .592-.81Zm17.214 13.177c.8-1.091.727-2.761-.2-4.7a16.426 16.426 0 0 0-5.183-5.887 15.1 15.1 0 0 0-8.41-3.209 4.551 4.551 0 0 1-2.534 1.891 4.558 4.558 0 0 1-1.022 2.987 15.087 15.087 0 0 0 5.623 7.03 16.47 16.47 0 0 0 7.19 3.135 6.439 6.439 0 0 0 3.21-.261.672.672 0 0 1 .116-.043 2.9 2.9 0 0 0 1.21-.943Zm5.218 7.01a.734.734 0 0 1 .579-.561.71.71 0 0 1 .743.314l.516.779a5.892 5.892 0 0 0 2.284-3.13l-.9-.254a.731.731 0 0 1-.168-1.336l1.222-.71a4.707 4.707 0 0 0-1.842-3.194 4.943 4.943 0 0 0-5.712.066 4.152 4.152 0 0 1-2.311 3.171 4.939 4.939 0 0 0 1.68 5.462 4.7 4.7 0 0 0 3.6.781Z"/><path class="cls-3" d="M108.991 174.545a.746.746 0 0 1 .138-.1 3.162 3.162 0 0 1 .7-.957.739.739 0 0 1 .053-.163c.088-.157 2.1-3.875-1.834-7.065-.653-.53-1.633-1.259-2.827-2.146-7.077-5.264-19.85-14.76-20.8-22.883a8.478 8.478 0 0 0-2.409 5.364.737.737 0 0 1-.364.6l-1.429.829-.017.01-.108.063 3.032.854a.738.738 0 0 1 .376.252c.072.09 7.191 9.12 12.145 12.731.966.7 1.922 1.387 2.839 2.041 5.02 3.582 7.428 5.371 7.292 6.829a.733.733 0 0 1-.441.6c-1.335.571-3.785-1.172-8.735-4.862-.9-.673-1.841-1.372-2.8-2.076-4.955-3.611-15.726-7.631-15.835-7.672a.741.741 0 0 1-.354-.28l-1.739-2.629-.385 1.758a.733.733 0 0 1-.459.528 8.462 8.462 0 0 0-4.377 3.934c8.022-1.565 20.978 7.684 28.153 12.815 1.21.866 2.2 1.575 2.9 2.036 4.239 2.77 7.161-.28 7.285-.411Zm82.309 63.439.213-.067a5.091 5.091 0 0 0 3.487-4.788v-.229a4.944 4.944 0 0 0-1.866-3.825 302.1 302.1 0 0 0-7.006-5.307.747.747 0 0 1-.074-.051c-.012-.011-.027-.02-.038-.032a295.075 295.075 0 0 0-6.689-4.8.635.635 0 0 1-.092-.095c-.012-.012-.031-.013-.043-.026a14.966 14.966 0 0 0-3.834-2.3 3.515 3.515 0 0 0-2.653-.173 12.816 12.816 0 0 0-5.23 3.342 5.408 5.408 0 0 0-.579 1.408 22.06 22.06 0 0 1-.681 1.89c3.16 2.258 13.209 9.241 20.868 14.438a4.943 4.943 0 0 0 4.217.615Zm5.391 5.794a4.656 4.656 0 0 0 5.476-7.512 4.179 4.179 0 0 0-1.937-.759l-4.825 6.721a4.177 4.177 0 0 0 1.286 1.55Z"/><path class="cls-3" d="m191.969 239.3-.218.069a6.865 6.865 0 0 1-1.415.248.386.386 0 0 0-.071.32 1.055 1.055 0 0 0 .407.479l1.514 1.1a2.252 2.252 0 0 0 1.421.219 1.028 1.028 0 0 0 .431-.146c.009-.008.019-.014.027-.022a.259.259 0 0 0 .028-.024l5.207-7.243a.337.337 0 0 0 .047-.179.706.706 0 0 1-.12-.361.662.662 0 0 1 .027-.155 2.041 2.041 0 0 0-.609-.937l-1.513-1.1a.985.985 0 0 0-.576-.226.394.394 0 0 0-.27.13 6.7 6.7 0 0 1 .178 1.409v.259a6.55 6.55 0 0 1-4.495 6.16ZM117.6 186.134a4.424 4.424 0 0 0 3.48.735 5.264 5.264 0 0 0 3.222-2.09 4.854 4.854 0 0 0-.758-6.8 4.319 4.319 0 0 0-2.563-.82 5.178 5.178 0 0 0-4.139 2.176 4.851 4.851 0 0 0 .758 6.799Zm-2.664-12.234a2.767 2.767 0 0 0-1.64-.526 3.368 3.368 0 0 0-2.684 1.418 3.427 3.427 0 0 0-.638 2.524 2.821 2.821 0 0 0 1.113 1.865 3.282 3.282 0 0 0 3.849-5.281Zm18.443 23.431c4.346 3.169 9.127 5.083 11.889 4.736a.707.707 0 0 1 .215.019 30.948 30.948 0 0 1 1.5-3.428.7.7 0 0 1-.079-.128c-1-2.7-4.018-6.13-7.881-8.949-6.317-4.6-12.206-5.773-13.543-3.942s1.583 7.084 7.899 11.692Zm9.442 52.532c7.121-4.1 8.742-13.3 9.055-15.8a13.351 13.351 0 0 1-8.59-5.533c-3.446-5.133-2.558-11.768-2.3-13.278-3.49-5.145-11.1-5.709-13.492-5.757a40.186 40.186 0 0 0 3.395 12.905.731.731 0 0 1-.128.816c-5.439 5.78-5.324 11.147-5.2 12.446a87.523 87.523 0 0 0 10.3 4.9.732.732 0 0 1 .436.49 16.564 16.564 0 0 0 6.524 8.811Z"/><path class="cls-5" d="M142.377 214.708a.732.732 0 0 1 .1.542c0 .01-.034.18-.076.456a7.513 7.513 0 0 0 .283-1.322l.03-.228a59.722 59.722 0 0 1 2.263-10.611c-.119.006-.232.021-.355.021a18.031 18.031 0 0 1-7.666-2.313 36.9 36.9 0 0 0 2.5 10.332 11.858 11.858 0 0 1 2.921 3.123Z"/><path class="cls-4" d="m77.451 153.638 1.239 1.872c1.63.616 11.19 4.3 15.963 7.779.967.7 1.912 1.408 2.816 2.084 2.017 1.5 4.381 3.263 5.9 4.139-1.3-1.175-3.693-2.888-5.741-4.349a326.844 326.844 0 0 1-2.851-2.05c-4.773-3.478-11.2-11.456-12.284-12.819l-2.164-.61a7.326 7.326 0 0 1-2.881 3.954ZM191.3 237.984l.213-.067a5.078 5.078 0 0 0 2.872-2.412c-11.506-3.2-20.942-14.789-23.618-18.345a10.734 10.734 0 0 0-3.288 2.479 5.416 5.416 0 0 0-.577 1.408 22.456 22.456 0 0 1-.682 1.89c3.16 2.258 13.209 9.241 20.868 14.438a4.943 4.943 0 0 0 4.212.609ZM70.119 146.427a4.565 4.565 0 0 1-.9.605 4.941 4.941 0 0 0 1.681 5.462 4.7 4.7 0 0 0 3.6.781l.3-1.388a.734.734 0 0 1 .579-.561.709.709 0 0 1 .743.314l.516.779a5.79 5.79 0 0 0 1.406-1.371c-5.079-.806-7.114-3.071-7.925-4.621Zm-12.257-3.438a16.475 16.475 0 0 0 7.19 3.135 6.451 6.451 0 0 0 3.21-.261.653.653 0 0 1 .117-.043 2.912 2.912 0 0 0 1.209-.943 22.965 22.965 0 0 1-16.327-11.9 4.556 4.556 0 0 1-1.022 2.988 15.1 15.1 0 0 0 5.623 7.024Zm-26.379-25.9a34.688 34.688 0 0 0 3.928 7.759.731.731 0 0 1-.418 1.118c-1.956.512-3.389 3.15-4.143 5.074a7.519 7.519 0 0 1 1.9-.228c2.814 0 6.1 1.294 9.524 2.638 1.627.64 3.31 1.3 4.915 1.8 1.208.376 2.831.664 3.759-.077.014-.011.029-.02.043-.03a3.327 3.327 0 0 0 .791-2.631.735.735 0 0 1 .593-.814c-9.144-.943-20.892-14.609-20.892-14.609Zm78.491 60.23a2.821 2.821 0 0 0 1.113 1.865 3.137 3.137 0 0 0 4.325-.89c-3.052.42-4.8-3.5-4.8-3.5a3.427 3.427 0 0 0-.638 2.525Zm7.626 8.815a4.428 4.428 0 0 0 3.48.736 5.267 5.267 0 0 0 3.222-2.092c-4.3.657-6.8-2.385-8-4.525a4.74 4.74 0 0 0 1.298 5.881Zm27.668 15.933a.74.74 0 0 1 .215.019c.2-.529.41-1.053.634-1.573-8.215-2.873-17.623-11.612-20.742-14.665-1.011 1.99 1.9 7.032 8 11.483 4.35 3.169 9.131 5.083 11.893 4.736Zm50.156 34.523a6.521 6.521 0 0 1-3.454 2.714l-.219.069a6.8 6.8 0 0 1-1.415.248.388.388 0 0 0-.071.321 1.057 1.057 0 0 0 .407.477l1.514 1.1a2.252 2.252 0 0 0 1.421.219 1.061 1.061 0 0 0 .431-.145c.009-.009.019-.015.027-.023a.259.259 0 0 0 .028-.024l2.553-3.556a5.618 5.618 0 0 1-1.222-1.4Zm7.552 6.018a4.806 4.806 0 0 0 .922-2.564 10.915 10.915 0 0 1-6.053-1.215l-2.44 3.4a4.188 4.188 0 0 0 1.286 1.551 4.53 4.53 0 0 0 6.285-1.172Z"/><path class="cls-5" transform="rotate(39 167.618 40.782)" d="M164.094 37.279h7.056v7.056h-7.056z"/><path class="cls-4" d="M133.992 69.4c.883 7.153 3.96 8.611 4.7 8.861a61.391 61.391 0 0 1 6.165-1.871.706.706 0 0 1 .3-.078 115.156 115.156 0 0 1 44.019-1.8c.015 0 .028-.008.044-.008h.009a.7.7 0 0 1 .224.048 129.126 129.126 0 0 1 16.584 3.583.318.318 0 0 1 .033.01c.371.105.736.2 1.108.31a17.711 17.711 0 0 0 3.232-9.967c-43.165-13.046-76.418.912-76.418.912Z"/><path class="cls-3" d="M134.512 72.184a11.34 11.34 0 0 0 2.108 4.516c6.968-2.431 38.305-11.967 71.731-.108a18.472 18.472 0 0 0 1.815-5.721c-11.402-3.406-44.2-11.105-75.654 1.313Z"/><path class="cls-5" d="M129.186 59.4h-5.414v.008a61.953 61.953 0 0 1 5.812 5.032Zm90.683-5.807-5.5.448.96 5.03a39.718 39.718 0 0 1 4.54-5.478Z"/><path class="cls-5" transform="rotate(45 168.691 68.485)" d="M165.652 65.446h6.079v6.079h-6.079z"/><path class="cls-5" transform="rotate(60 202 71.765)" d="M198.96 68.725h6.079v6.079h-6.079z"/><path class="cls-5" transform="rotate(32.372 141.398 72.397)" d="M138.359 69.358h6.079v6.079h-6.079z"/><circle class="cls-7" cx="154.087" cy="69.979" r="1.786"/><circle class="cls-7" cx="186.636" cy="69.248" r="1.786"/><path class="cls-3" d="M163.607 227.363a33.68 33.68 0 0 1-1.529 1.9 18.69 18.69 0 0 1-1.726 1.76c1.236 6.36 2.153 12.692 2.721 18.837h3.134a184.221 184.221 0 0 0-2.6-22.497ZM126.059 135.7a23.812 23.812 0 0 0-3.871 3.235c.216.321.538.807.952 1.443l.01.01v.011a285.278 285.278 0 0 1 26.831 54.064c.1-.079.181-.162.286-.239 1.03-.75 2.378-1.7 3.76-2.612-11.863-33.323-27.968-55.912-27.968-55.912Zm61.083 114.163c.112-3.7.1-6.994-.053-10.807a6.221 6.221 0 0 1-.826-.473c-.69-.468-1.4-.953-2.125-1.446.277 4.235.382 8.484.273 12.726ZM147.6 126.72c-.813.2-1.595.415-2.362.628 0 0 27.966 42.536 36.668 91.56 1.1.781 2.346 1.673 3.678 2.645-7.03-51.353-34.858-90.561-37.984-94.833Z"/><path class="cls-3" d="m128.656 139.589 12.311 5.698-4.011 10.715-5.336-1.467-2.202-4.851-.762-10.095zm42.799 34.548-3.833 15.931 11.283 10.21-.513-7.481-4.608-9.192-2.329-9.468zm-9.377 55.129c-.288.335-.575.644-.859.933l2.061 6.391 6.514-9.349a603.277 603.277 0 0 1-4.213-2.96 26.663 26.663 0 0 1-3.503 4.985Z"/><path d="m138.11 146.1-2.493 5.1c-1.807-3.218-3.457-6-4.868-8.262v-.011Zm37.69 47.816-5.651-4.3 1.838-7.125a256.501 256.501 0 0 1 3.813 11.425Zm-8.69 31.451-3.144 4.147c-.1-.721-.23-1.441-.355-2.152l-.313.408a24.057 24.057 0 0 0 2.287-3.489c.415.292.93.658 1.525 1.086Z"/><path class="cls-3" d="m184.138 156.186-.016.006a10.287 10.287 0 0 1-.952 1.1c2.193 3.765 15.506 28.123 16.241 64.807q.916-.046 1.867-.1c-.078-39.74-17.14-65.813-17.14-65.813Zm9.752.888c1.96 5.55 12.291 36.206 11.961 64.617l1.335-.1c-.8-36.764-10.205-60.629-12.029-64.925a6.591 6.591 0 0 1-1.267.408Z"/><circle class="cls-3" cx="212.556" cy="227.488" r="1.895"/><circle class="cls-3" cx="203.646" cy="228.54" r="1.895"/><path class="cls-3" d="M195.405 227.159a1.884 1.884 0 0 0-1.458.7l.09.069a6.279 6.279 0 0 1 1.735 2.131 1.849 1.849 0 0 1 .715-.18 1.936 1.936 0 0 1 .58.069 1.865 1.865 0 0 0 .233-.892 1.9 1.9 0 0 0-1.895-1.897Zm9.53-102.459c.1.268.218.591.351.962.006.017.014.033.019.051.528 1.469 1.3 3.709 2.216 6.622a.67.67 0 0 1 .065.117l.407 1.3c.011.037.072.251.153.606 4.926 16.252 12.87 49.279 10.256 86.64l.006.016a.715.715 0 0 1-.029.323q-.385 5.373-1.075 10.853a.638.638 0 0 1-.012.1c-.739 5.8-1.75 11.672-3.09 17.572h2.445l.22-.4c15.3-73.333-8.737-124.552-8.737-124.552q-1.557-.165-3.195-.21Zm20.372 125.163h2.913c1.647-5.9 16.113-60.222 6.249-112.019a33.086 33.086 0 0 0-3.266-3.065s10.897 63.767-5.896 115.084Z"/><path class="cls-3" d="m233.102 141.231-5.679 8.659 6.643 12.268 1.731-5.496v-6.978l-2.695-8.453zm-13.233 36.021 7.554 11.076-6.013 9.928-1.541-10.054v-10.95zm12.325 42.17-4.771 8.26 2.313 10.931 2.458-19.191z"/><path d="m233.763 157.607-3.959-7.719 2.831-4.4c.386 3.387.783 7.471 1.128 12.119Zm-8.544 30.593-3.395 4.388c-.126-3.552-.335-7-.6-10.321Zm6.281 35.767c-.459 2.8-.971 5.589-1.556 8.367l-.878-4.648Z"/><path class="cls-3" d="M176.711 423.683a115.156 115.156 0 0 1-44.019 1.8c-.015 0-.028.009-.044.009h-.009a.728.728 0 0 1-.224-.048 129.306 129.306 0 0 1-16.584-3.584c-.011 0-.022 0-.033-.009-.371-.106-.736-.2-1.108-.31a17.7 17.7 0 0 0-3.231 9.967.718.718 0 0 1-.041.2c-.207.6-4.97 13.975-16.966 20.353 2.869.266 7.759.3 11.32-1.83a.722.722 0 0 1 .684-.038c1 .469 3.934 1.4 5.449.188 1.227-.985 1.478-3.328.726-6.774-.028-.253-.353-4.054 1.558-5.835a3.591 3.591 0 0 1 3.2-.84 12.513 12.513 0 0 1 10.164 10.2v.009a.155.155 0 0 1 0 .022c0 .012 0 .025.007.037s0 .019 0 .029a.72.72 0 0 1-.516.811 4.586 4.586 0 1 0 4.027.8c-.011-.008-.015-.02-.026-.029a.718.718 0 0 1-.132-.154.652.652 0 0 1-.043-.072.693.693 0 0 1-.058-.177.62.62 0 0 1-.015-.093.829.829 0 0 1 .04-.288c.008-.022.006-.045.016-.067 1.851-3.984 6.3-5.466 12.211-4.07 3.645.864 6.825 5.335 6.421 9.027 0 .036-.046.205-.054.238a.722.722 0 0 1-.335.447.753.753 0 0 1-.555.081 5.8 5.8 0 1 0-1.737 11.411 5.58 5.58 0 0 0 2.085-.3.731.731 0 0 1 .957.747 5.8 5.8 0 1 0 11.583.59 5.665 5.665 0 0 0-.211-1.743.732.732 0 0 1 .147-.657.686.686 0 0 1 .622-.257l.22.033a5.8 5.8 0 1 0-2.9-10.582.732.732 0 0 1-1.137-.683l.064-.593a10.8 10.8 0 0 1 2.443-7.195 9.569 9.569 0 0 1 6.961-2.99 5.512 5.512 0 0 1 .807-.048c1.825 0 6.363.6 9.88 5.971.007.009.007.021.013.03a1.789 1.789 0 0 1 .095.268.842.842 0 0 1 0 .142.751.751 0 0 1-.013.134.675.675 0 0 1-.052.125.759.759 0 0 1-.07.132c-.007.009-.008.021-.016.03a4.584 4.584 0 1 0 8.137 3.109 4.594 4.594 0 0 0-3.876-4.738.74.74 0 0 1-.712-.489.7.7 0 0 1-.037-.109.281.281 0 0 1-.01-.031c-.173-1.382-.872-8.325 2.314-9.391 2.738-.923 4.664 2.181 5.376 4.156.4 2.107 1.175 3.4 2.34 3.951 1.973.944 4.543-.452 4.568-.464a.727.727 0 0 1 .681-.012 15.378 15.378 0 0 0 8.846 1.135c-9.788-4.458-17.521-13.971-17.869-14.4a.749.749 0 0 1-.156-.369c-.883-7.153-3.96-8.611-4.7-8.861a61.013 61.013 0 0 1-6.165 1.871.7.7 0 0 1-.308.077Z"/><path d="M188.85 431.924a37.69 37.69 0 0 1-.811-.959.749.749 0 0 1-.156-.369 23.148 23.148 0 0 0-.412-2.362h-1.193s-7.456 1.916-7.7 1.786-8.856 2.516-8.856 2.516-17.566 1.426-18.072 1.325-23.047-.708-23.344-.708-16.595-3.133-16.595-3.133l-.118.052c-.053.468-.108.932-.132 1.438a.725.725 0 0 1-.041.2c-.026.075-.123.349-.3.785 40.141 14.31 77.73-.571 77.73-.571Z"/><path class="cls-9" d="M124.2 406.517c7.994 4.929 9.029 14.931 9.16 17.587a113.615 113.615 0 0 0 42.692-1.759 56.7 56.7 0 0 0-5.237-33.132 8.7 8.7 0 0 0-1.33 1.783c-.223.364-.468.764-.79 1.232a8.949 8.949 0 0 1-11.3 2.822 4.647 4.647 0 0 1-.724-.45 4.784 4.784 0 0 1-1.026 1.056 9.331 9.331 0 0 1-12.094-1.189 26.875 26.875 0 0 1-1.009-1.156 8.5 8.5 0 0 0-2.775-2.37 6.951 6.951 0 0 0-4-1.148 5.275 5.275 0 0 0-3.545 1.391 5.484 5.484 0 0 0-1.455 4.334.73.73 0 0 1-1.278.554 12.252 12.252 0 0 1-1.557-2.248c-3.116 3.487-3.649 10.912-3.732 12.693Zm44.405.68a2.833 2.833 0 1 1-3.045 2.6 2.834 2.834 0 0 1 3.04-2.597Zm-4.034 8.721c6.326.664 8.767-1.391 8.792-1.415a.731.731 0 0 1 .974 1.089c-.113.1-2.862 2.517-9.916 1.782a.733.733 0 0 1-.652-.8.747.747 0 0 1 .801-.656Zm-12.928-18.128a33.675 33.675 0 0 1 5.514-.481c.789 0 1.463.034 2.011.079a2.871 2.871 0 0 1 2.6 2.362 35.873 35.873 0 0 1-.335 14.869.731.731 0 0 1-1.406-.4 35.094 35.094 0 0 0 .3-14.216 1.432 1.432 0 0 0-1.277-1.158 29.267 29.267 0 0 0-7.166.387.73.73 0 1 1-.24-1.441Zm-4.377 12.356a2.833 2.833 0 1 1-3.046 2.6 2.833 2.833 0 0 1 3.046-2.6Zm-8.67 8.541a.725.725 0 0 1 .885-.535 23.3 23.3 0 0 0 11.908-.15.682.682 0 0 1 .237-.04.73.73 0 0 1 .24 1.42 24.239 24.239 0 0 1-12.734.188.731.731 0 0 1-.532-.883Zm30.704-151.4c-.579-.082-4.265-.4-8.4 4.4a19.949 19.949 0 0 0-4.538 7.717 6.473 6.473 0 0 1-.773 1.8 14.181 14.181 0 0 1-5.956 3.884 4.964 4.964 0 0 1-3.75-.24 28.307 28.307 0 0 1-2.919-1.563 11.317 11.317 0 0 0 2.176 4.865 6.017 6.017 0 0 0 4.5 2.3 18 18 0 0 0 5.189-.347.731.731 0 1 1 .333 1.423 19.788 19.788 0 0 1-5.611.385 8.074 8.074 0 0 1-2.227-.462 6.6 6.6 0 0 0 1.926 4.016 1.947 1.947 0 0 0 .992.459 47.368 47.368 0 0 0 9.716-.109.73.73 0 1 1 .165 1.451 54.417 54.417 0 0 1-8.565.273c.4 1.36 1.329 4.066 2.7 5.412a2.4 2.4 0 0 0 1.062.513.741.741 0 0 1 .123.032c2.184.517 6.328.078 8.932-.431a.752.752 0 0 1 .856.578.732.732 0 0 1-.578.859 34.579 34.579 0 0 1-7.955.628c1.528 2.326 3.537 5.057 5.173 4.779 1.248-.21 4.646-2.248 8.867-5.322a4.924 4.924 0 0 0 1.074-1.034c4.282-5.728 5.495-14.894 5.893-17.9l.031-.231c.358-2.682 1.352-3.436 1.951-3.644a16.382 16.382 0 0 0-2.323-9.5 12.092 12.092 0 0 0-8.064-4.991Z"/><path class="cls-10" d="M177.592 421.95c2.244-.6 3.8-1.123 4.611-1.414a15.541 15.541 0 0 1-.644-7.13c1.8-10.862-.433-16.954-6.61-18.132a59 59 0 0 1 2.643 26.676Z"/><path class="cls-9" d="M145.953 388.924a7.23 7.23 0 0 0 4.323.048 10.942 10.942 0 0 1 3.792-.269 4.618 4.618 0 0 1 1.9.721 4.371 4.371 0 0 1 1.952-1.225 9.61 9.61 0 0 1 3.422-.276 5.975 5.975 0 0 0 3.719-.645 10.757 10.757 0 0 0 1.533-1.186c-.561-.939-1.99-2.827-3.563-2.981a3.229 3.229 0 0 0-2.686 1.479.735.735 0 0 1-.492.262l-9.439.913a.763.763 0 0 1-.455-.107c-.031-.019-3.138-1.908-5.772-1.275a3.917 3.917 0 0 0-2.271 1.55 18.563 18.563 0 0 1 1.536 1.219 9.6 9.6 0 0 0 2.501 1.772Z"/><path class="cls-10" d="M135.247 385.409h-.041a11.4 11.4 0 0 0-4.1.811 5.083 5.083 0 0 0-2.354 1.886c-.793 1.339-.5 3.4.684 5.4a6.332 6.332 0 0 1 1.774-3.368 6.757 6.757 0 0 1 4.487-1.806 8.414 8.414 0 0 1 4.8 1.339 9.945 9.945 0 0 1 3.17 2.7c.274.326.574.686.96 1.1a7.936 7.936 0 0 0 10.152 1.009 3.281 3.281 0 0 0 1.128-1.522 2.012 2.012 0 0 0-.018-1.489 2.643 2.643 0 0 0-2.036-1.318 9.709 9.709 0 0 0-3.3.257 14.573 14.573 0 0 1-2.726.343 6.15 6.15 0 0 1-2.44-.478 10.926 10.926 0 0 1-2.9-2.017 12.34 12.34 0 0 0-1.955-1.5 10.767 10.767 0 0 0-5.285-1.347Zm36.705 2.823c0 .009.015.012.019.022a53.4 53.4 0 0 1 2.479 5.636.722.722 0 0 1 .382-.12.7.7 0 0 1 .121.009c.091.016.173.042.262.059a34.652 34.652 0 0 0-1.556-6.656 7.877 7.877 0 0 0-1.707 1.05ZM131.9 423.9c-.143-2.855-1.2-11.955-8.736-16.319l-.015-.009a17.546 17.546 0 0 0-6.369-2.134.731.731 0 0 1 .1-1.454.74.74 0 0 1 .1.008c.4.057.786.132 1.168.207a52.242 52.242 0 0 1 .237-17.567 13.069 13.069 0 0 0-4.809 3.453c-2.69 3.193-3.53 8.074-2.3 13.4a20.6 20.6 0 0 0 2.311 5.79 23.554 23.554 0 0 1 3.212 11.349A128.056 128.056 0 0 0 131.9 423.9Z"/><path class="cls-5" d="M210.1 327.8a4.248 4.248 0 0 1-5.731-4.544 5.931 5.931 0 0 1-9.032-6.73c-2.073.421-5.066-.252-8.381-1.893a40.616 40.616 0 0 0 2.155 5.189.731.731 0 1 1-1.3.676 41.153 41.153 0 0 1-2.688-6.822v-.038a34.583 34.583 0 0 1-1.416-.872 18.055 18.055 0 0 0-.589 3.2.714.714 0 0 1-.786.671.732.732 0 0 1-.673-.785 20.8 20.8 0 0 1 .77-3.95c-.147-.1-.293-.2-.44-.308-3.725-2.717-6.622-5.895-7.978-8.69-.312.508-.636 1-.987 1.477a284.747 284.747 0 0 0 26.524 53.8 16.74 16.74 0 0 0 5.541-6.992c1.744-4.653 3.3-8.443 4.282-10.4a32.2 32.2 0 0 0 2.525-6.879 6.786 6.786 0 0 1-1.796-6.11Z"/><path class="cls-10" d="M168.726 386.1a17.614 17.614 0 0 1-2.908 2.431 7.257 7.257 0 0 1-4.545.854 8.3 8.3 0 0 0-2.927.217 2.881 2.881 0 0 0-1.352.861 3.3 3.3 0 0 1 .221.4 3.36 3.36 0 0 1 .127 2.343 1.709 1.709 0 0 0 .707.535 7.548 7.548 0 0 0 9.441-2.34c.3-.445.538-.823.749-1.168a9.52 9.52 0 0 1 2.626-3.007 8.152 8.152 0 0 1 4.364-1.944 6.535 6.535 0 0 1 4.515 1.085 6.072 6.072 0 0 1 2.128 2.869c.8-2.012.779-3.954-.138-5.083a4.79 4.79 0 0 0-2.466-1.44 10.936 10.936 0 0 0-3.979-.192 10.261 10.261 0 0 0-4.828 2c-.57.452-1.136.997-1.735 1.579Zm-4.895-18.5a9.226 9.226 0 0 1 .722 2.507.731.731 0 0 1-1.454.143c-.029-.273-.739-6.057-8.972-9.989a27.369 27.369 0 0 1 4.9 8.376.73.73 0 0 1-1.386.462c-.036-.11-3.684-10.743-13.131-13.645a22.631 22.631 0 0 0-7.885 16.057.73.73 0 1 1-1.458-.091 24.6 24.6 0 0 1 3.327-11.073 23.058 23.058 0 0 0-9.007 13.681.731.731 0 0 1-1.418-.357 29.076 29.076 0 0 1 1.063-3.33c-13.09 10.681-10.017 31.028-9.437 34.217a18.112 18.112 0 0 1 3.083 1.174c.185-2.82 1.011-9.979 4.534-13.345a5.978 5.978 0 0 1 .179-5.029 6.679 6.679 0 0 1 3.065-2.5 12.881 12.881 0 0 1 4.645-.916h.046a12.4 12.4 0 0 1 5.407 1.244 5.4 5.4 0 0 1 3.2-2.231c2.811-.664 5.821.859 6.655 1.327l8.912-.863a4.565 4.565 0 0 1 3.395-1.784c.12 0 .242 0 .363.016 2.187.216 3.836 2.385 4.5 3.417l.031-.029c.6-.578 1.219-1.175 1.846-1.67a10.912 10.912 0 0 1 2.293-1.353c-.343-2.147-2.032-10.43-8.018-14.416Z"/><path class="cls-1" d="M153.154 346.994a.731.731 0 0 1-.575.319.874.874 0 0 1-.6-.274c-.049-.059-4.9-6.03-8.785-5.207-3.928.814-5.511 4.962-5.526 5a.731.731 0 0 1-1.161.3c-.056-.048-5.571-4.7-9.769-2.169a6.824 6.824 0 0 0-3.165 7.221.732.732 0 0 1-.886.873c-.042-.007-4.182-1-6.46.593a3.487 3.487 0 0 0-1.445 2.65 28.3 28.3 0 0 0 .373 9.011c1.121 3.692 2.081 6.5 2.715 8.271a25.026 25.026 0 0 0 4.962 1.62 25.642 25.642 0 0 1 7.466-7.547 21.485 21.485 0 0 1 10.095-10.1 19.022 19.022 0 0 1 3.544-3.51.727.727 0 0 1 .42-.133.794.794 0 0 1 .2.026 18.663 18.663 0 0 1 6.854 3.647c6.127 2.07 9.407 5.131 11.157 7.71a.708.708 0 0 1 .276.061 16.3 16.3 0 0 1 6.82 6.328l1.324-.554a222.538 222.538 0 0 1-14.7-25.259 3.058 3.058 0 0 0-3.134 1.123Z"/><path class="cls-7" d="M198.725 359.606v-.011a285.321 285.321 0 0 1-26.831-54.063c-.1.078-.181.161-.286.238-2.66 1.937-7.43 5.236-9.487 5.581-2.823.452-5.331-3.378-7.318-6.475l-.06-.093a3.6 3.6 0 0 1-1.5-.787c-1.88-1.841-2.962-5.538-3.25-6.632a3.421 3.421 0 0 1-1.7-.8c-1.011-.888-2.237-2.636-2.521-5.881a6.986 6.986 0 0 1-1.788-1.657 11.924 11.924 0 0 1-2.587-6.944 270.043 270.043 0 0 1-5.095-3.639c7.025 51.351 34.853 90.561 37.984 94.833 17.229-4.336 23.922-10.612 25.407-12.217a120.26 120.26 0 0 1-.952-1.444Z"/><path class="cls-2" d="M125.446 344.073c-1.68-3.918-11.384-28.118-12.214-65.537-2.8.253-5.633.572-8.335.971-2.2 32.312 3.533 61.321 8.267 78.85.03-.7.083-1.437.167-2.209a4.937 4.937 0 0 1 2.064-3.7c2.057-1.432 5.066-1.237 6.625-1a8.21 8.21 0 0 1 3.426-7.375Z"/><path class="cls-5" d="M82.669 315.176a42.745 42.745 0 0 0-1.215 6.851.748.748 0 0 1-.784.673.73.73 0 0 1-.674-.782 38.486 38.486 0 0 1 2.879-11.691 299.257 299.257 0 0 1 9.264-60.093H72.976a170.535 170.535 0 0 0-6.568 46.143 154.772 154.772 0 0 0 3.979 36.875c1.982 8.555 5.451 18.9 14.623 23.735a222.971 222.971 0 0 1-2.341-41.711Zm79.751-63.853h-.015a.731.731 0 0 1-.269-.051l-1.81-.733a188.952 188.952 0 0 0 2.5 17.391 10.39 10.39 0 0 1 5.721-2.133c.26-2.252 1.477-9.543 6.547-14.473Z"/><path class="cls-7" d="M135.612 261.414c7.5 5.087 17.288 11.887 20.682 14.3a26.71 26.71 0 0 1 3.5-4.984 18.692 18.692 0 0 1 1.726-1.76c-1.235-6.361-2.152-12.693-2.72-18.838h-13.738a15.912 15.912 0 0 1-1.927 1.225.735.735 0 0 1-.717-.016 15.349 15.349 0 0 1-1.673-1.209h-6.012c-.112 3.7-.1 7 .053 10.808a6.105 6.105 0 0 1 .826.474Zm1.088 84.027a11.131 11.131 0 0 1 2-2.736c-2.193-3.764-15.506-28.123-16.241-64.806-2.445.123-5.082.288-7.775.511.8 36.764 10.205 60.629 12.029 64.925 3.945-1.765 8.274.857 9.987 2.106Z"/><path class="cls-2" d="M142.9 340.4a5.169 5.169 0 0 1 1.027-.1c3.606 0 7.247 3.628 8.625 5.164a4.293 4.293 0 0 1 2.984-1.1c-8.436-17.133-17.4-40.414-20.846-66.817-1.513.007-5.6.05-10.765.283.708 35.741 13.457 59.639 15.92 63.93a8.024 8.024 0 0 1 3.055-1.36Z"/><path class="cls-7" d="M105.008 278.012c6.014-.869 12.622-1.347 18.133-1.609a.174.174 0 0 1 .022 0h.024c4.215-.2 7.778-.273 9.935-.3a301.783 301.783 0 0 1-5.283-4.029 6.261 6.261 0 0 1-1.736-2.131 1.827 1.827 0 0 1-.714.18 2.4 2.4 0 0 1-1.5-.506l-1.514-1.1a3.462 3.462 0 0 1-1.069-1.5 111.287 111.287 0 0 0-15.349 1.522q-.597 4.77-.949 9.473Z"/><path class="cls-2" d="M120.088 265.587a5.62 5.62 0 0 1-1.241-.676 5.991 5.991 0 0 1-1.128-8.383 6.189 6.189 0 0 1 4.98-2.571 5.631 5.631 0 0 1 4.975 2.941 3.078 3.078 0 0 1 .367-.087 3.73 3.73 0 0 1 .591-.045 3.414 3.414 0 0 1 1.918.528l1.514 1.1a2.428 2.428 0 0 1 .948 1.246 1.775 1.775 0 0 1 .048.771c.084.013.165.039.249.056a149.231 149.231 0 0 1-.042-10.337h-24.091c-1.3 5.667-2.3 11.308-3.032 16.886a112.314 112.314 0 0 1 13.944-1.429Z"/><path class="cls-7" d="M116.571 374.284c-.529-1.47-1.3-3.71-2.217-6.622a.71.71 0 0 1-.065-.118l-.407-1.3a11.067 11.067 0 0 1-.153-.606c-4.929-16.253-12.869-49.28-10.256-86.638 0-.006 0-.01-.006-.016a.724.724 0 0 1 .029-.322q.386-5.374 1.075-10.854a.653.653 0 0 1 .012-.1c.739-5.8 1.75-11.672 3.09-17.572H93.655c-1.646 5.9-16.113 60.223-6.249 112.02A43.266 43.266 0 0 0 116.94 375.3c-.1-.268-.218-.591-.351-.961-.006-.022-.014-.039-.018-.055Z"/><path class="cls-5" d="M197.392 263.286a.735.735 0 0 1 .32.476c.052.271 1.189 6.61-5.2 13.656a44.141 44.141 0 0 1 2.4 7.095c3.828.865 10.391-.1 10.461-.115a.731.731 0 0 1 .219 1.446c-.274.039-6.216.919-10.336.226a30.737 30.737 0 0 1 .619 5.135.73.73 0 0 1-.7.752 24.927 24.927 0 0 1-6.008-.6.718.718 0 0 1-.041.175 35.42 35.42 0 0 0-2.642 8.078 35.02 35.02 0 0 1 2.875 1.879c5.162 3.766 8.432 8.082 8.778 11.2a6.554 6.554 0 0 1 2.374-.993 6.312 6.312 0 0 1 1.208-.117 5.757 5.757 0 0 1 3.416 1.106 6.1 6.1 0 0 1 2.171 6.541 4.648 4.648 0 0 1 1.844-.4 4.216 4.216 0 0 1 2.5.807 4.266 4.266 0 0 1 1.7 2.819 4.646 4.646 0 0 1 .045.85 7.229 7.229 0 0 1 1.09-.49 45.786 45.786 0 0 0 1.172-9.124 40.841 40.841 0 0 1 3.969-17.452c.662-1.413 1.445-2.731 2.2-4.009 1.729-2.914 3.364-5.666 3.393-9.182A44.171 44.171 0 0 0 223 268.17c-2.344-6.735-19.975-14.535-36.478-11.07.137.359.264.729.376 1.11a79.42 79.42 0 0 1 10.494 5.076Z"/><path class="cls-3" d="M269.5 368.3c-.018 0-1.77.342-2.268 1.563-.454 1.115.328 2.6 1.066 3.646.967 1.378 2.112 2.779 3.219 4.132 2.87 3.514 5.606 6.858 5.782 10.136 1.6-1.308 3.676-3.48 3.567-5.492a.729.729 0 0 1 .276-.614.757.757 0 0 1 .66-.129 33.234 33.234 0 0 0 8.589 1.37 34.688 34.688 0 0 0-3.928-7.759.731.731 0 0 1 .419-1.118c1.955-.511 3.388-3.149 4.142-5.074a7.519 7.519 0 0 1-1.9.228c-2.814 0-6.1-1.293-9.523-2.638-1.628-.639-3.311-1.3-4.916-1.8-1.208-.375-2.831-.663-3.759.078-.014.011-.028.019-.043.029a3.325 3.325 0 0 0-.79 2.631.735.735 0 0 1-.593.811Zm-17.213-13.18c-.8 1.092-.726 2.762.2 4.7a16.438 16.438 0 0 0 5.183 5.888 15.108 15.108 0 0 0 8.41 3.208 4.552 4.552 0 0 1 2.534-1.89 4.558 4.558 0 0 1 1.022-2.988 15.09 15.09 0 0 0-5.623-7.029 16.448 16.448 0 0 0-7.189-3.135 6.438 6.438 0 0 0-3.21.26.682.682 0 0 1-.117.043 2.917 2.917 0 0 0-1.21.943Zm-5.217-7.01a.734.734 0 0 1-.58.561.71.71 0 0 1-.743-.314l-.516-.779a5.9 5.9 0 0 0-2.284 3.13l.9.254a.731.731 0 0 1 .167 1.337l-1.222.709a4.7 4.7 0 0 0 1.842 3.194 4.943 4.943 0 0 0 5.712-.065 4.15 4.15 0 0 1 2.312-3.171 4.943 4.943 0 0 0-1.681-5.463 4.7 4.7 0 0 0-3.605-.78Z"/><path class="cls-3" d="M212.885 325.452a.7.7 0 0 1-.139.1 4.988 4.988 0 0 1-.3.512 4.813 4.813 0 0 1-.394.445.747.747 0 0 1-.053.164c-.088.157-2.105 3.875 1.834 7.064.653.531 1.633 1.259 2.827 2.146 7.077 5.264 19.85 14.76 20.8 22.884a8.481 8.481 0 0 0 2.408-5.365.737.737 0 0 1 .364-.6l1.429-.829.017-.01.109-.063-3.033-.853a.733.733 0 0 1-.376-.253c-.072-.09-7.191-9.12-12.145-12.731a513.45 513.45 0 0 0-2.839-2.041c-5.02-3.582-7.427-5.371-7.292-6.829a.734.734 0 0 1 .441-.6c1.335-.571 3.785 1.173 8.735 4.862.9.673 1.841 1.373 2.805 2.077 4.955 3.611 15.726 7.631 15.834 7.671a.733.733 0 0 1 .354.281l1.739 2.628.385-1.758a.735.735 0 0 1 .459-.528 8.458 8.458 0 0 0 4.377-3.934c-8.022 1.565-20.978-7.683-28.153-12.814-1.21-.866-2.2-1.575-2.905-2.037-4.242-2.769-7.165.28-7.288.411Zm-82.306-63.438-.213.066a5.094 5.094 0 0 0-3.493 4.789v.226a4.948 4.948 0 0 0 1.866 3.825 319.263 319.263 0 0 0 7.006 5.306.8.8 0 0 1 .074.051c.013.012.027.02.039.032 2.578 1.9 4.981 3.62 6.689 4.8a.742.742 0 0 1 .091.095c.012.012.031.013.043.027a14.936 14.936 0 0 0 3.835 2.3 3.518 3.518 0 0 0 2.652.174 12.839 12.839 0 0 0 5.231-3.343 5.447 5.447 0 0 0 .578-1.408 21.88 21.88 0 0 1 .682-1.889c-3.16-2.259-13.21-9.241-20.868-14.439a4.949 4.949 0 0 0-4.212-.612Zm-5.395-5.795a4.656 4.656 0 0 0-5.476 7.512 4.191 4.191 0 0 0 1.937.76l4.826-6.722a4.2 4.2 0 0 0-1.287-1.55Z"/><path class="cls-3" d="m129.906 260.693.219-.069a6.909 6.909 0 0 1 1.415-.248.388.388 0 0 0 .07-.32 1.047 1.047 0 0 0-.407-.478l-1.514-1.1a2.259 2.259 0 0 0-1.421-.219 1.043 1.043 0 0 0-.431.146l-.027.022a.232.232 0 0 0-.027.025l-5.206 7.25a.36.36 0 0 0-.047.18.713.713 0 0 1 .121.36.681.681 0 0 1-.028.156 2.043 2.043 0 0 0 .609.936l1.513 1.1a1 1 0 0 0 .576.226.4.4 0 0 0 .27-.131 6.766 6.766 0 0 1-.178-1.408v-.26a6.552 6.552 0 0 1 4.493-6.168Zm74.366 53.17a4.432 4.432 0 0 0-3.48-.735 5.262 5.262 0 0 0-3.222 2.091 4.854 4.854 0 0 0 .758 6.8 4.315 4.315 0 0 0 2.563.821 5.179 5.179 0 0 0 4.139-2.177 4.851 4.851 0 0 0-.758-6.8Zm2.667 12.237a2.775 2.775 0 0 0 1.64.525 3.368 3.368 0 0 0 2.685-1.418 3.419 3.419 0 0 0 .637-2.523 2.819 2.819 0 0 0-1.113-1.865 3.282 3.282 0 0 0-3.849 5.281ZM188.5 302.666c-4.346-3.168-9.128-5.083-11.889-4.736a.711.711 0 0 1-.216-.019 30.941 30.941 0 0 1-1.5 3.428.754.754 0 0 1 .078.128c1 2.7 4.018 6.13 7.881 8.949 6.317 4.605 12.207 5.773 13.543 3.942s-1.585-7.084-7.897-11.692Zm-9.446-52.532c-7.121 4.1-8.742 13.3-9.055 15.8a13.358 13.358 0 0 1 8.59 5.533c3.446 5.134 2.558 11.768 2.3 13.278 3.491 5.146 11.1 5.709 13.492 5.757a40.2 40.2 0 0 0-3.394-12.905.73.73 0 0 1 .127-.816c5.439-5.78 5.325-11.146 5.2-12.445a87.59 87.59 0 0 0-10.295-4.9.726.726 0 0 1-.435-.49 16.578 16.578 0 0 0-6.53-8.812Z"/><path class="cls-5" d="M179.5 285.29a.74.74 0 0 1-.1-.543c0-.01.035-.18.077-.456a7.432 7.432 0 0 0-.284 1.322l-.03.228a59.7 59.7 0 0 1-2.263 10.611c.119-.006.232-.02.355-.02a18.017 18.017 0 0 1 7.666 2.313 36.9 36.9 0 0 0-2.5-10.332 11.858 11.858 0 0 1-2.921-3.123Z"/><path class="cls-4" d="m244.425 346.359-1.24-1.872c-1.629-.616-11.19-4.3-15.962-7.778-.967-.7-1.913-1.409-2.817-2.084-2.017-1.5-4.38-3.264-5.9-4.139 1.3 1.175 3.693 2.887 5.741 4.348.921.657 1.882 1.344 2.851 2.051 4.773 3.477 11.2 11.456 12.284 12.819l2.164.609a7.321 7.321 0 0 1 2.882-3.954Zm-113.846-84.345-.213.066a5.085 5.085 0 0 0-2.872 2.412c11.506 3.2 20.942 14.789 23.619 18.345a10.74 10.74 0 0 0 3.287-2.478 5.472 5.472 0 0 0 .578-1.409 22.1 22.1 0 0 1 .682-1.889c-3.16-2.259-13.21-9.241-20.868-14.439a4.949 4.949 0 0 0-4.213-.608Zm121.177 91.556a4.609 4.609 0 0 1 .9-.605 4.942 4.942 0 0 0-1.681-5.462 4.7 4.7 0 0 0-3.605-.78l-.3 1.387a.732.732 0 0 1-.579.561.71.71 0 0 1-.743-.314l-.516-.779a5.808 5.808 0 0 0-1.406 1.371c5.084.806 7.119 3.071 7.93 4.621Zm12.257 3.439a16.462 16.462 0 0 0-7.189-3.136 6.465 6.465 0 0 0-3.211.261.643.643 0 0 1-.116.043 2.909 2.909 0 0 0-1.21.943 22.962 22.962 0 0 1 16.327 11.906 4.56 4.56 0 0 1 1.022-2.988 15.085 15.085 0 0 0-5.623-7.029Zm26.379 25.9a34.7 34.7 0 0 0-3.928-7.76.731.731 0 0 1 .419-1.118c1.955-.511 3.388-3.15 4.142-5.074a7.519 7.519 0 0 1-1.9.229c-2.814 0-6.1-1.294-9.524-2.638-1.627-.64-3.31-1.3-4.915-1.8-1.208-.375-2.831-.663-3.759.078l-.043.029a3.322 3.322 0 0 0-.79 2.632.735.735 0 0 1-.594.813c9.145.943 20.892 14.609 20.892 14.609Zm-78.492-60.23a2.819 2.819 0 0 0-1.113-1.865 3.136 3.136 0 0 0-4.325.89c3.052-.42 4.8 3.5 4.8 3.5a3.416 3.416 0 0 0 .638-2.525Zm-7.628-8.816a4.432 4.432 0 0 0-3.48-.735 5.262 5.262 0 0 0-3.222 2.091c4.3-.657 6.8 2.385 8 4.525a4.739 4.739 0 0 0-1.298-5.881Zm-27.664-15.933a.681.681 0 0 1-.216-.019c-.195.529-.41 1.053-.634 1.573 8.216 2.873 17.623 11.613 20.742 14.665 1.011-1.99-1.9-7.032-8-11.482-4.349-3.167-9.131-5.084-11.892-4.737Zm-50.157-34.522a6.517 6.517 0 0 1 3.455-2.715l.218-.069a6.93 6.93 0 0 1 1.416-.248.388.388 0 0 0 .07-.32 1.047 1.047 0 0 0-.407-.478l-1.514-1.1a2.259 2.259 0 0 0-1.421-.219 1.043 1.043 0 0 0-.431.146c-.008.008-.019.014-.027.022a.232.232 0 0 0-.027.025L125.23 262a5.608 5.608 0 0 1 1.221 1.408Zm-7.551-6.019a4.812 4.812 0 0 0-.922 2.564 10.9 10.9 0 0 1 6.053 1.216l2.441-3.4a4.2 4.2 0 0 0-1.287-1.55 4.53 4.53 0 0 0-6.285 1.17Z"/><path class="cls-5" transform="rotate(-141 154.407 459.451)" d="M150.725 455.663h7.056v7.056h-7.056z"/><path class="cls-4" d="M187.883 430.6c-.883-7.153-3.959-8.611-4.7-8.861a61.013 61.013 0 0 1-6.165 1.871.689.689 0 0 1-.3.078 115.156 115.156 0 0 1-44.019 1.8c-.015 0-.028.009-.044.009h-.009a.722.722 0 0 1-.224-.048 129.087 129.087 0 0 1-16.583-3.584.337.337 0 0 1-.034-.009c-.371-.106-.736-.2-1.108-.31a17.7 17.7 0 0 0-3.231 9.967c43.164 13.043 76.417-.913 76.417-.913Z"/><path class="cls-3" d="M187.363 427.813a11.32 11.32 0 0 0-2.108-4.511c-6.968 2.43-38.305 11.966-71.731.107a18.47 18.47 0 0 0-1.815 5.722c11.402 3.401 44.2 11.101 75.654-1.318Z"/><path class="cls-5" d="M192.689 440.6h5.411v-.008a61.807 61.807 0 0 1-5.812-5.032Zm-90.683 5.805 5.5-.448-.96-5.03a39.777 39.777 0 0 1-4.54 5.478Z"/><path class="cls-5" transform="rotate(-135 153.184 431.512)" d="M150.144 428.472h6.079v6.079h-6.079z"/><path class="cls-5" transform="rotate(-120 119.875 428.233)" d="M116.836 425.194h6.079v6.079h-6.079z"/><path class="cls-5" transform="rotate(-147.628 180.477 427.6)" d="M177.437 424.561h6.079v6.079h-6.079z"/><circle class="cls-7" cx="167.788" cy="430.019" r="1.786"/><circle class="cls-7" cx="135.239" cy="430.749" r="1.786"/><path class="cls-3" d="M158.268 272.634c.444-.6.946-1.226 1.529-1.9a18.572 18.572 0 0 1 1.726-1.76c-1.235-6.36-2.152-12.693-2.72-18.838h-3.135a184.2 184.2 0 0 0 2.6 22.498Zm37.548 91.666a23.866 23.866 0 0 0 3.871-3.235 120.26 120.26 0 0 1-.952-1.444l-.01-.01v-.011a285.308 285.308 0 0 1-26.831-54.064c-.1.079-.18.163-.286.24-1.03.749-2.377 1.7-3.76 2.611 11.863 33.322 27.968 55.913 27.968 55.913Zm-61.083-114.166c-.112 3.7-.1 7 .053 10.808a6.045 6.045 0 0 1 .826.472c.69.468 1.4.954 2.125 1.446a139.592 139.592 0 0 1-.272-12.726Zm39.547 123.143c.813-.2 1.595-.415 2.362-.627 0 0-27.966-42.537-36.668-91.561-1.1-.78-2.346-1.672-3.678-2.645 7.025 51.356 34.853 90.561 37.984 94.833Z"/><path class="cls-3" d="m193.219 360.408-12.31-5.698 4.01-10.715 5.336 1.467 2.202 4.851.762 10.095zm-42.798-34.548 3.832-15.931-11.283-10.209.513 7.48 4.608 9.192 2.33 9.468zm9.379-55.128c.288-.335.575-.645.86-.934l-2.062-6.39-6.514 9.348a639.763 639.763 0 0 1 4.213 2.96 26.662 26.662 0 0 1 3.503-4.984Z"/><path d="m183.766 353.9 2.492-5.1c1.807 3.217 3.457 6 4.868 8.262v.01Zm-37.692-47.819 5.651 4.3-1.838 7.124a259.94 259.94 0 0 1-3.813-11.424Zm8.691-31.451 3.144-4.147c.1.721.23 1.442.355 2.152l.313-.407a24.055 24.055 0 0 0-2.287 3.488c-.418-.292-.93-.658-1.525-1.086Z"/><path class="cls-3" d="m137.737 343.811.017-.006a10.355 10.355 0 0 1 .951-1.1c-2.193-3.764-15.506-28.123-16.241-64.806q-.917.045-1.867.1c.082 39.74 17.14 65.812 17.14 65.812Zm-9.752-.888c-1.96-5.55-12.291-36.2-11.961-64.617l-1.335.1c.8 36.764 10.205 60.629 12.029 64.925a6.661 6.661 0 0 1 1.267-.408Z"/><circle class="cls-3" cx="109.319" cy="272.51" r="1.895"/><circle class="cls-3" cx="118.229" cy="271.457" r="1.895"/><path class="cls-3" d="M126.471 272.838a1.887 1.887 0 0 0 1.458-.7l-.09-.07a6.261 6.261 0 0 1-1.736-2.131 1.81 1.81 0 0 1-.714.18 1.907 1.907 0 0 1-.581-.069 1.871 1.871 0 0 0-.233.892 1.9 1.9 0 0 0 1.896 1.898ZM116.94 375.3c-.1-.268-.218-.591-.351-.961a.517.517 0 0 1-.018-.051c-.529-1.47-1.3-3.71-2.217-6.622a.71.71 0 0 1-.065-.118l-.407-1.3c-.01-.037-.072-.251-.153-.606-4.929-16.256-12.869-49.284-10.256-86.642l-.006-.016a.71.71 0 0 1 .029-.322q.386-5.374 1.075-10.854a.653.653 0 0 1 .012-.1c.739-5.8 1.75-11.672 3.09-17.572h-2.445l-.22.4c-15.3 73.333 8.737 124.553 8.737 124.553 1.038.111 2.104.18 3.195.211ZM96.568 250.134h-2.913c-1.646 5.9-16.113 60.223-6.249 112.02a33.28 33.28 0 0 0 3.267 3.065s-10.896-63.768 5.895-115.085Z"/><path class="cls-3" d="m88.773 358.767 5.679-8.66-6.643-12.268-1.731 5.496v6.978l2.695 8.454zm13.233-36.021-7.554-11.076 6.013-9.929 1.541 10.054v10.951zm-12.325-42.17 4.771-8.26-2.313-10.932-2.458 19.192z"/><path d="m88.112 342.39 3.959 7.719-2.831 4.4a311.321 311.321 0 0 1-1.128-12.119Zm8.545-30.59 3.394-4.387c.126 3.552.335 7 .6 10.32Zm-6.278-35.77c.459-2.8.971-5.588 1.556-8.367l.878 4.648ZM175.052 84.2a2.833 2.833 0 1 0 2.6 3.045 2.832 2.832 0 0 0-2.6-3.045Zm-21.339 2.952a2.833 2.833 0 1 0 2.6 3.045 2.832 2.832 0 0 0-2.6-3.045Zm16.279 13.614a29.33 29.33 0 0 1-7.166.388 1.433 1.433 0 0 1-1.277-1.154 35.088 35.088 0 0 1 .3-14.215.731.731 0 0 0-1.406-.4 35.875 35.875 0 0 0-.335 14.869 2.87 2.87 0 0 0 2.6 2.362c.549.046 1.222.079 2.012.079a33.573 33.573 0 0 0 5.514-.481.731.731 0 1 0-.241-1.441Zm12.751-20.338a24.214 24.214 0 0 0-12.734.188.73.73 0 0 0 .24 1.42.68.68 0 0 0 .237-.041 23.326 23.326 0 0 1 11.908-.15.73.73 0 1 0 .349-1.417Zm-25.288 2.195c-7.054-.735-9.8 1.68-9.916 1.782a.731.731 0 0 0 .974 1.089c.025-.023 2.466-2.079 8.792-1.415a.747.747 0 0 0 .8-.652.733.733 0 0 0-.65-.804Z"/><circle cx="147.045" cy="412.971" r="2.833" transform="rotate(-40.524 147.043 412.97)"/><path d="M168.163 412.846a2.833 2.833 0 1 0-2.6-3.045 2.833 2.833 0 0 0 2.6 3.045Zm-16.279-13.614a29.274 29.274 0 0 1 7.166-.388 1.432 1.432 0 0 1 1.277 1.156 35.1 35.1 0 0 1-.3 14.216.728.728 0 0 0 .5.9.751.751 0 0 0 .2.029.733.733 0 0 0 .7-.528 35.9 35.9 0 0 0 .337-14.87 2.874 2.874 0 0 0-2.6-2.362 30.906 30.906 0 0 0-7.525.4.731.731 0 1 0 .24 1.442Zm-12.752 20.338a25.573 25.573 0 0 0 6.121.742 21.8 21.8 0 0 0 6.613-.928.728.728 0 0 0 .453-.927.737.737 0 0 0-.929-.455 23.307 23.307 0 0 1-11.909.15.738.738 0 0 0-.885.535.73.73 0 0 0 .536.883Zm25.289-2.196a24.634 24.634 0 0 0 2.551.136c5.173 0 7.265-1.829 7.364-1.917a.731.731 0 0 0-.98-1.085c-.025.021-2.482 2.065-8.785 1.411a.731.731 0 0 0-.15 1.455Z"/><path d="M291.847 367.038c-2.738 1.679-7.1-.034-11.711-1.851-1.65-.649-3.358-1.32-5.014-1.836a6.46 6.46 0 0 0-4.231-.178 17.063 17.063 0 0 0-6.017-7.344c-3.724-2.716-7.72-3.9-10.6-3.39a6.309 6.309 0 0 0-2.431-6.115 6.125 6.125 0 0 0-4.131-1.132l.032-.148a10.366 10.366 0 0 0 5.507-6.109.734.734 0 0 0-.214-.759.727.727 0 0 0-.776-.123c-7.039 3.066-21.416-7.224-28.325-12.165-1.233-.88-2.243-1.6-2.96-2.072a7.47 7.47 0 0 0-4.929-1.354 46.617 46.617 0 0 0 1.069-8.739 39.5 39.5 0 0 1 3.832-16.868c.63-1.346 1.4-2.633 2.135-3.879 1.753-2.952 3.566-6.007 3.6-9.915a45.62 45.62 0 0 0-2.3-15.371c-2.567-7.382-20.7-15.693-38.194-12.015a.721.721 0 0 0-.249.107 17.569 17.569 0 0 0-3.206-4.458h66.715a.731.731 0 0 0 .7-.521 171.462 171.462 0 0 0 6.785-47.064 156.206 156.206 0 0 0-4.015-37.222c-2.1-9.075-5.829-20.127-16.052-25.072a.754.754 0 0 0-.28-.069 178.797 178.797 0 0 0-.714-4.006.722.722 0 0 0-.161-.335 44.67 44.67 0 0 0-31.836-13.809.73.73 0 0 0-.678 1l.119.307a31.627 31.627 0 0 0-3.479-1.057 32.516 32.516 0 0 0 3.268-8.361 14.975 14.975 0 0 0 6.314-4.257c4.091-4.855 3.392-11.273 2.611-14.665A22.094 22.094 0 0 0 209.552 90a22.123 22.123 0 0 1-3-10.2c.227.066.449.123.676.191a.683.683 0 0 0 .209.031.729.729 0 0 0 .526-.223c.145-.15 3.522-3.735 3.908-11.13.474-1.278 5.865-15.153 18.357-20.458a.732.732 0 0 0-.137-1.389c-.354-.071-8.612-1.736-14.414 1.5-1.106-.44-4.475-1.562-6.616.15-1.718 1.373-2.136 4.142-1.259 8.14.081.9.037 3.473-1.114 4.546a2.238 2.238 0 0 1-1.969.464 11.051 11.051 0 0 1-8.866-8.486 6.037 6.037 0 1 0-6.419-1.233c-2.253 3.982-7.368 3.474-10.288 2.785-2.734-.647-5.228-3.908-5.317-6.787q.307.04.613.055a7.307 7.307 0 0 0 5.233-1.879 7.263 7.263 0 0 0-4.538-12.631 6.9 6.9 0 0 0-1.659.123 7.264 7.264 0 0 0-14.5.231 6.559 6.559 0 0 0 .062 1.216 7.264 7.264 0 1 0 3.136 13.932 9.271 9.271 0 0 1-2.076 5.632 8.246 8.246 0 0 1-6.008 2.5c-.051.014-5.139.684-9.038-4.878A6.037 6.037 0 1 0 134 48.569a6.055 6.055 0 0 0 4.7 6.159c.282 2.909.046 6.805-1.387 7.286-2.022.69-3.494-3.152-3.506-3.152-.458-2.486-1.511-4.132-3.127-4.9-2.166-1.022-4.642-.083-5.544.336-5.462-2.55-11.619-.676-11.884-.595a.731.731 0 0 0-.03 1.385c9.755 3.5 18.209 13.34 19.346 14.7 1 7.593 4.391 9.419 5.614 9.836a14.322 14.322 0 0 1 .692 6.722c-1.808 10.93.311 17.436 6.271 19.412a34.212 34.212 0 0 0 1.664 7.448c-.1.015-.2.036-.3.046a5.021 5.021 0 0 1-3.522-.813 5.187 5.187 0 0 1-1.963-3.866.734.734 0 0 0-.54-.678.725.725 0 0 0-.807.314c-2 3.142-2.27 6.577-.669 8.552a6.408 6.408 0 0 0 3.259 1.939 12.322 12.322 0 0 0 2.861.332 11.736 11.736 0 0 0 1.667-.116 12.309 12.309 0 0 0 1.83-.425 28.962 28.962 0 0 0 2.853 8.533l-1.437.6a80.389 80.389 0 0 0-1.567-2.183.732.732 0 0 0-.757-.266c-20.767 5.126-26.788 12.935-27.033 13.264a.731.731 0 0 0-.015.854c.021.031.328.478.861 1.287a18.069 18.069 0 0 0-6.108 7.709c-1.728 4.608-3.266 8.345-4.222 10.257a35.884 35.884 0 0 0-2.455 6.393 120.68 120.68 0 0 0-2.654-2.006c-6.818-5.072-21-15.619-20.242-23.25a.731.731 0 0 0-1.141-.676 10.35 10.35 0 0 0-4.134 7.108l-.134.077a6.114 6.114 0 0 0-2.338-3.586 6.3 6.3 0 0 0-6.564-.446 9.062 9.062 0 0 0-.83-2.622 17.9 17.9 0 0 0-5.641-6.437 17.128 17.128 0 0 0-8.835-3.478 6.484 6.484 0 0 0-1.458-3.982c-1-1.42-2.16-2.84-3.284-4.215-3.136-3.837-6.1-7.46-5.339-10.581a.731.731 0 0 0-1.1-.789c-.214.137-4.847 3.151-5.439 6.75-1.817-.478-6.042-1.446-9.124-1.13a.738.738 0 0 0-.515.3.726.726 0 0 0-.124.58c.638 3.033 2.854 6.758 3.86 8.345-3.243 1.663-4.7 7-4.763 7.241a.731.731 0 0 0 1.088.811c2.742-1.68 7.1.036 11.711 1.851 1.651.649 3.358 1.32 5.014 1.836a8.861 8.861 0 0 0 2.614.454 4.389 4.389 0 0 0 1.614-.289A17.05 17.05 0 0 0 57 144.169a17.953 17.953 0 0 0 7.854 3.4 10.631 10.631 0 0 0 1.4.1 7.919 7.919 0 0 0 1.347-.113 6.3 6.3 0 0 0 2.431 6.117 6.1 6.1 0 0 0 3.609 1.161c.173 0 .348-.018.523-.032l-.033.151a10.368 10.368 0 0 0-5.507 6.108.731.731 0 0 0 .991.883c7.041-3.066 21.416 7.226 28.327 12.167 1.23.88 2.24 1.6 2.956 2.07a7.765 7.765 0 0 0 4.284 1.4 6.155 6.155 0 0 0 .648-.053 46.762 46.762 0 0 0-1.072 8.75 39.46 39.46 0 0 1-3.833 16.867c-.629 1.347-1.394 2.636-2.134 3.88-1.753 2.954-3.565 6.006-3.6 9.915a45.619 45.619 0 0 0 2.3 15.371c2.133 6.135 15.02 12.917 29.357 12.917a42.982 42.982 0 0 0 8.837-.9.713.713 0 0 0 .249-.107 17.589 17.589 0 0 0 3.207 4.458H72.432a.731.731 0 0 0-.7.521 171.455 171.455 0 0 0-6.785 47.063 156.313 156.313 0 0 0 4.015 37.223c2.1 9.077 5.833 20.129 16.054 25.072a.769.769 0 0 0 .277.062c.224 1.339.459 2.677.715 4.013a.727.727 0 0 0 .161.335 44.676 44.676 0 0 0 31.836 13.809.73.73 0 0 0 .678-1 19.667 19.667 0 0 1-.119-.307 31.588 31.588 0 0 0 3.48 1.057 32.537 32.537 0 0 0-3.268 8.362 14.95 14.95 0 0 0-6.314 4.257c-4.091 4.855-3.392 11.273-2.61 14.665a22.027 22.027 0 0 0 2.471 6.189 22.1 22.1 0 0 1 3 10.2c-.226-.066-.448-.123-.675-.191a.73.73 0 0 0-.735.193c-.145.15-3.521 3.735-3.909 11.13-.473 1.277-5.865 15.153-18.356 20.457a.732.732 0 0 0 .137 1.39 28.789 28.789 0 0 0 5.374.492 18.9 18.9 0 0 0 9.039-1.989c1.105.44 4.474 1.568 6.618-.15 1.717-1.372 2.136-4.141 1.257-8.14-.081-.9-.037-3.473 1.114-4.545a2.2 2.2 0 0 1 1.969-.464 11.053 11.053 0 0 1 8.867 8.485 6.037 6.037 0 0 0 1.951 11.637c.1 0 .2.007.3.007a6.04 6.04 0 0 0 4.166-10.409c2.252-3.986 7.364-3.48 10.291-2.784 2.731.645 5.225 3.906 5.314 6.784a7.295 7.295 0 0 0-.611-.054 7.263 7.263 0 1 0-.7 14.51 6.791 6.791 0 0 0 1.659-.124 7.276 7.276 0 0 0 6.892 6.677c.12 0 .239.008.358.008a7.265 7.265 0 0 0 7.246-6.913 6.409 6.409 0 0 0-.061-1.218 7.264 7.264 0 0 0 .085-14.515 7.188 7.188 0 0 0-3.222.583 9.269 9.269 0 0 1 2.082-5.636 8.255 8.255 0 0 1 6.008-2.5c.051-.011 5.138-.684 9.038 4.878a5.984 5.984 0 0 0-1.022 3.053 6.055 6.055 0 0 0 5.748 6.33c.1 0 .195.007.292.007a6.031 6.031 0 0 0 1.333-11.915c-.281-2.91-.046-6.805 1.387-7.286 2.025-.681 3.5 3.152 3.507 3.152.458 2.485 1.511 4.132 3.127 4.895 2.168 1.028 4.641.083 5.543-.335 5.462 2.547 11.62.68 11.885.6a.731.731 0 0 0 .03-1.385c-9.755-3.5-18.21-13.342-19.347-14.705-.994-7.593-4.39-9.419-5.614-9.837a14.318 14.318 0 0 1-.692-6.722c1.808-10.929-.31-17.436-6.269-19.412a34.321 34.321 0 0 0-1.666-7.447c.1-.016.2-.037.3-.046a5.011 5.011 0 0 1 3.521.813 5.186 5.186 0 0 1 1.964 3.865.731.731 0 0 0 1.347.365c2-3.143 2.27-6.578.669-8.55a6.4 6.4 0 0 0-3.257-1.941 11.687 11.687 0 0 0-6.36.209 28.953 28.953 0 0 0-2.853-8.533l1.437-.6a77.287 77.287 0 0 0 1.567 2.182.727.727 0 0 0 .582.288.754.754 0 0 0 .175-.021c20.767-5.126 26.788-12.936 27.034-13.264a.731.731 0 0 0 .015-.854c-.021-.031-.328-.478-.861-1.288a18.058 18.058 0 0 0 6.107-7.708c1.728-4.608 3.267-8.345 4.222-10.255a35.929 35.929 0 0 0 2.456-6.394c.658.52 1.56 1.193 2.653 2 6.818 5.072 21 15.619 20.242 23.252a.73.73 0 0 0 .355.7.722.722 0 0 0 .372.1.732.732 0 0 0 .414-.128 10.356 10.356 0 0 0 4.135-7.11l.133-.077a6.05 6.05 0 0 0 5.948 4.751 6.665 6.665 0 0 0 2.955-.717 9.056 9.056 0 0 0 .829 2.62 17.918 17.918 0 0 0 5.641 6.437 17.073 17.073 0 0 0 8.835 3.478 6.484 6.484 0 0 0 1.458 3.982c1 1.42 2.16 2.84 3.284 4.215 3.136 3.837 6.1 7.46 5.339 10.58a.733.733 0 0 0 1.1.79c.214-.138 4.847-3.152 5.439-6.751 1.817.476 6.043 1.447 9.124 1.13a.732.732 0 0 0 .64-.878c-.638-3.032-2.854-6.758-3.861-8.344 3.244-1.663 4.7-7 4.763-7.241a.731.731 0 0 0-1.088-.811ZM223 268.17a44.19 44.19 0 0 1 2.22 14.877c-.031 3.516-1.665 6.268-3.395 9.184-.758 1.275-1.541 2.6-2.2 4.006a40.855 40.855 0 0 0-3.969 17.453 45.583 45.583 0 0 1-1.17 9.114 7.336 7.336 0 0 0-1.1.493 4.249 4.249 0 0 0-6.08-4.065 6.1 6.1 0 0 0-2.169-6.548 5.858 5.858 0 0 0-4.623-.99 6.536 6.536 0 0 0-2.375.994c-.345-3.119-3.616-7.436-8.778-11.2a35.172 35.172 0 0 0-2.877-1.876 35.568 35.568 0 0 1 2.642-8.082.715.715 0 0 0 .043-.18 26.138 26.138 0 0 0 5.47.618c.3 0 .484-.007.537-.01a.73.73 0 0 0 .7-.751 30.8 30.8 0 0 0-.618-5.131 22.944 22.944 0 0 0 3.719.266 49.715 49.715 0 0 0 6.616-.5.73.73 0 0 0 .612-.832.747.747 0 0 0-.831-.614c-.069.009-6.629.983-10.461.115a43.951 43.951 0 0 0-2.4-7.094c6.393-7.044 5.255-13.386 5.2-13.657a.738.738 0 0 0-.32-.475 79.583 79.583 0 0 0-10.5-5.077 14.9 14.9 0 0 0-.376-1.11c16.495-3.467 34.136 4.338 36.483 11.072Zm-58.617 34.9c-2.6.509-6.748.943-8.932.432a.689.689 0 0 0-.128-.034 2.392 2.392 0 0 1-1.057-.507c-1.377-1.35-2.305-4.063-2.705-5.422.769.055 1.57.081 2.368.081a61.419 61.419 0 0 0 6.2-.349.728.728 0 0 0 .642-.809.709.709 0 0 0-.807-.642 47.3 47.3 0 0 1-9.716.109 1.955 1.955 0 0 1-.992-.459 6.586 6.586 0 0 1-1.926-4.016 8.045 8.045 0 0 0 2.227.462c.52.031 1.027.048 1.521.048a17.972 17.972 0 0 0 4.092-.433.731.731 0 0 0-.333-1.423 18.078 18.078 0 0 1-5.191.348 6.026 6.026 0 0 1-4.5-2.3 11.322 11.322 0 0 1-2.175-4.864 27.7 27.7 0 0 0 2.919 1.56 4.954 4.954 0 0 0 3.75.24 14.165 14.165 0 0 0 5.96-3.892 6.472 6.472 0 0 0 .772-1.8 19.965 19.965 0 0 1 4.537-7.719c4.149-4.82 7.844-4.475 8.4-4.395a12.091 12.091 0 0 1 8.063 4.983 16.375 16.375 0 0 1 2.322 9.5c-.6.208-1.592.962-1.95 3.642l-.032.238c-.4 3.012-1.614 12.175-5.891 17.9a4.931 4.931 0 0 1-1.075 1.035c-4.225 3.073-7.623 5.112-8.867 5.321-1.636.245-3.644-2.46-5.173-4.78.458.036.931.053 1.411.053a38.364 38.364 0 0 0 6.543-.68.733.733 0 0 0 .578-.859.745.745 0 0 0-.857-.573Zm-47.538-123.732a5.178 5.178 0 0 1 4.139-2.176 4.319 4.319 0 0 1 2.563.82 4.854 4.854 0 0 1 .758 6.8 5.264 5.264 0 0 1-3.222 2.09 4.424 4.424 0 0 1-3.48-.735 4.851 4.851 0 0 1-.758-6.799Zm-1.433-1.044a3.137 3.137 0 0 1-4.325.89 2.821 2.821 0 0 1-1.113-1.865 3.427 3.427 0 0 1 .638-2.524 3.368 3.368 0 0 1 2.684-1.418 2.767 2.767 0 0 1 1.64.526 3.136 3.136 0 0 1 .476 4.391Zm10.073 7.345c1.337-1.831 7.226-.663 13.543 3.942 3.863 2.819 6.883 6.249 7.881 8.949a.7.7 0 0 0 .079.128 30.948 30.948 0 0 0-1.5 3.428.707.707 0 0 0-.215-.019c-2.762.347-7.543-1.567-11.889-4.736-6.321-4.608-9.235-9.86-7.899-11.692Zm11.471 15.614a18.031 18.031 0 0 0 7.666 2.313c.123 0 .236-.015.355-.021a59.722 59.722 0 0 0-2.263 10.611l-.03.228a7.513 7.513 0 0 1-.283 1.322c.042-.276.074-.446.076-.456a.732.732 0 0 0-.1-.542 11.858 11.858 0 0 0-2.924-3.123 36.9 36.9 0 0 1-2.497-10.332Zm.507 9.08a18.43 18.43 0 0 0-3.354-1.333 41.013 41.013 0 0 0 1.777-4.6 43.718 43.718 0 0 0 1.577 5.933Zm4.719 7.89c.6-.208 1.594-.962 1.951-3.644l.031-.23c.4-3.012 1.611-12.177 5.893-17.9a4.927 4.927 0 0 1 1.074-1.035c4.221-3.073 7.619-5.112 8.867-5.321 1.636-.278 3.645 2.452 5.174 4.779a34.531 34.531 0 0 0-7.956.628.732.732 0 0 0-.578.858.751.751 0 0 0 .856.578c2.6-.508 6.748-.948 8.932-.431a.655.655 0 0 0 .123.032 2.39 2.39 0 0 1 1.062.514c1.375 1.346 2.3 4.052 2.7 5.412a54.285 54.285 0 0 0-8.565.273.73.73 0 0 0 .165 1.451 47.343 47.343 0 0 1 9.716-.11 1.949 1.949 0 0 1 .992.46 6.586 6.586 0 0 1 1.926 4.016 8.038 8.038 0 0 0-2.227-.463 19.789 19.789 0 0 0-5.611.386.73.73 0 1 0 .333 1.422 18.072 18.072 0 0 1 5.189-.347 6.018 6.018 0 0 1 4.5 2.305 11.312 11.312 0 0 1 2.176 4.865 28.172 28.172 0 0 0-2.918-1.563 4.964 4.964 0 0 0-3.75-.241 14.17 14.17 0 0 0-5.957 3.885 6.46 6.46 0 0 0-.773 1.8 19.954 19.954 0 0 1-4.537 7.716c-4.134 4.8-7.82 4.478-8.4 4.4a12.091 12.091 0 0 1-8.066-4.983 16.387 16.387 0 0 1-2.322-9.512Zm11.155 15.977a10.4 10.4 0 0 0 5.72-2.133 190.582 190.582 0 0 1 2.5 17.391l-1.809-.734h-.006a.727.727 0 0 0-.269-.051h-12.684c5.071-4.928 6.287-12.219 6.548-14.473Zm8.794 17.07a.731.731 0 0 0 .269.051h12.682c-5.072 4.931-6.287 12.224-6.548 14.474a10.376 10.376 0 0 0-5.719 2.134 190.198 190.198 0 0 1-2.5-17.394Zm22.789 47.477a17.1 17.1 0 0 0-8.009-2.283 59.309 59.309 0 0 0 2.25-10.617l.031-.236a7.484 7.484 0 0 1 .283-1.317c-.042.273-.074.441-.076.452a.728.728 0 0 0 .1.542 11.852 11.852 0 0 0 2.919 3.111 36.825 36.825 0 0 1 2.502 10.35Zm-.51-9.09a18.474 18.474 0 0 0 3.356 1.334 40.984 40.984 0 0 0-1.776 4.6 43.585 43.585 0 0 0-1.58-5.932Zm-8 8.249a.821.821 0 0 0 .2.023c2.76-.345 7.545 1.57 11.89 4.736 6.316 4.607 9.229 9.86 7.894 11.691s-7.227.664-13.544-3.941c-3.862-2.819-6.883-6.247-7.882-8.952a.749.749 0 0 0-.073-.118 30.591 30.591 0 0 0 1.514-3.437Zm21.162 17.311a5.266 5.266 0 0 1 3.222-2.091 4.42 4.42 0 0 1 3.481.735 5.065 5.065 0 1 1-6.7 1.356Zm8.9 6.485a2.984 2.984 0 1 1 .473 4.391 3.131 3.131 0 0 1-.479-4.393Zm-20.882-62.763a.731.731 0 0 0 .435.49 87.13 87.13 0 0 1 10.294 4.9c.123 1.3.238 6.668-5.2 12.446a.731.731 0 0 0-.128.816 40.176 40.176 0 0 1 3.395 12.9c-2.391-.047-10-.611-13.492-5.756.261-1.511 1.149-8.145-2.3-13.278a13.346 13.346 0 0 0-8.594-5.525c.312-2.493 1.932-11.7 9.054-15.8a16.586 16.586 0 0 1 6.53 8.809Zm1.558-9.078h-6.018a15.255 15.255 0 0 0-1.673-1.208.733.733 0 0 0-.717-.017 16.035 16.035 0 0 0-1.927 1.225h-13.741c-.567-6.145-1.484-12.477-2.72-18.837a18.69 18.69 0 0 0 1.726-1.76 26.663 26.663 0 0 0 3.5-4.985c3.394 2.416 13.183 9.216 20.682 14.3a6.105 6.105 0 0 0 .826.472c.154 3.817.168 7.109.056 10.812Zm-.058-12.488c-7.659-5.2-17.708-12.18-20.868-14.438a22.06 22.06 0 0 0 .681-1.89 5.408 5.408 0 0 1 .579-1.408 12.816 12.816 0 0 1 5.23-3.342 3.515 3.515 0 0 1 2.653.173 14.966 14.966 0 0 1 3.834 2.3c.012.013.031.014.043.026a.635.635 0 0 0 .092.095c1.707 1.177 4.11 2.9 6.689 4.8.011.012.026.021.038.032a.747.747 0 0 0 .074.051 313.837 313.837 0 0 1 7.006 5.307A4.944 4.944 0 0 1 195 232.9v.226a5.091 5.091 0 0 1-3.493 4.788l-.213.067a4.943 4.943 0 0 1-4.21-.606Zm12.771-88.83c1.559.236 4.568.431 6.625-1a4.937 4.937 0 0 0 2.065-3.694c.084-.773.136-1.509.166-2.21 4.734 17.53 10.466 46.539 8.267 78.851-2.7.4-5.531.717-8.334.97-.831-37.418-10.535-61.619-12.215-65.536a8.212 8.212 0 0 0 3.42-7.379Zm-3.393 84.332a6.7 6.7 0 0 0-.178-1.409.394.394 0 0 1 .27-.13.985.985 0 0 1 .576.226l1.513 1.1a2.041 2.041 0 0 1 .609.937.662.662 0 0 0-.027.155.706.706 0 0 0 .12.361.337.337 0 0 1-.047.179l-5.205 7.251a.259.259 0 0 1-.028.024c-.008.008-.018.014-.027.022a1.028 1.028 0 0 1-.431.146 2.252 2.252 0 0 1-1.421-.219l-1.514-1.1a1.055 1.055 0 0 1-.407-.479.386.386 0 0 1 .071-.32 6.865 6.865 0 0 0 1.415-.248l.218-.069a6.55 6.55 0 0 0 4.494-6.168Zm3.768 2.63a4.179 4.179 0 0 1 1.937.759 4.656 4.656 0 0 1-5.476 7.512 4.177 4.177 0 0 1-1.286-1.55Zm-.725-4.02-1.514-1.1a2.4 2.4 0 0 0-1.5-.507 1.849 1.849 0 0 0-.715.18 6.267 6.267 0 0 0-1.735-2.131 317.734 317.734 0 0 0-5.284-4.028c2.157-.027 5.721-.1 9.935-.3h.046c5.511-.262 12.119-.74 18.133-1.609q-.355 4.7-.944 9.481a111.319 111.319 0 0 1-15.349 1.523 3.452 3.452 0 0 0-1.079-1.507Zm7.681-9.9c-2.693.223-5.33.389-7.775.512-.735-36.684-14.048-61.042-16.241-64.807a11.094 11.094 0 0 0 2-2.736c1.717 1.25 6.046 3.871 9.986 2.106 1.819 4.298 11.223 28.163 12.024 64.927Zm-9.234.581c-5.167.233-9.251.276-10.765.283-3.448-26.4-12.41-49.684-20.846-66.817a4.286 4.286 0 0 0 2.984-1.1c1.378 1.537 5.019 5.164 8.625 5.164a5.162 5.162 0 0 0 1.027-.1 8.039 8.039 0 0 0 3.055-1.358c2.462 4.291 15.206 28.189 15.914 63.93Zm14.742 27.697h-24.092c.107-3.549.091-6.726-.042-10.336.084.016.165.042.25.055a1.76 1.76 0 0 0 .047.771 2.435 2.435 0 0 0 .948 1.247l1.514 1.1a3.417 3.417 0 0 0 1.918.528 3.73 3.73 0 0 0 .591-.045 3.078 3.078 0 0 0 .367-.086 5.636 5.636 0 0 0 4.975 2.941 6.186 6.186 0 0 0 4.98-2.572 5.991 5.991 0 0 0-1.128-8.383 5.662 5.662 0 0 0-1.241-.676 112.279 112.279 0 0 0 13.944-1.432 181.987 181.987 0 0 1-3.031 16.888Zm38.789-83.018a154.721 154.721 0 0 1 3.98 36.875 170.574 170.574 0 0 1-6.569 46.143h-19.164A299.3 299.3 0 0 0 239 189.77a38.506 38.506 0 0 0 2.878-11.69.73.73 0 0 0-.674-.783.75.75 0 0 0-.784.673 42.635 42.635 0 0 1-1.215 6.852 222.967 222.967 0 0 0-2.341-41.711c9.173 4.831 12.642 15.179 14.624 23.734Zm-17.019-29c9.864 51.8-4.6 106.121-6.249 112.02H214.2c1.34-5.9 2.351-11.771 3.09-17.572a.638.638 0 0 0 .012-.1q.7-5.475 1.075-10.853a.713.713 0 0 0 .029-.323c0-.006 0-.01-.006-.016 2.614-37.361-5.33-70.388-10.256-86.64a11.357 11.357 0 0 0-.153-.606l-.407-1.3a.7.7 0 0 0-.065-.117 172.384 172.384 0 0 0-2.216-6.622c0-.018-.013-.034-.019-.051a80.715 80.715 0 0 0-.351-.962 43.27 43.27 0 0 1 29.536 13.14Zm-26.18-47.111a20.608 20.608 0 0 1 2.311 5.79c1.226 5.322.386 10.2-2.3 13.395a13.063 13.063 0 0 1-4.809 3.454 52.249 52.249 0 0 0 .237-17.568c.382.076.766.15 1.168.208a.751.751 0 0 0 .105.007.73.73 0 0 0 .1-1.453 17.552 17.552 0 0 1-6.369-2.135l-.015-.009c-7.534-4.363-8.593-13.463-8.736-16.318a127.844 127.844 0 0 1 15.1 3.28 23.551 23.551 0 0 0 3.207 11.347Zm-28.9 21.012a10.926 10.926 0 0 0-2.9-2.017 6.13 6.13 0 0 0-2.439-.479 14.552 14.552 0 0 0-2.726.343 9.666 9.666 0 0 1-3.3.257 2.641 2.641 0 0 1-2.036-1.318 2.017 2.017 0 0 1-.018-1.489 3.278 3.278 0 0 1 1.128-1.523 7.937 7.937 0 0 1 10.152 1.009c.386.414.687.773.96 1.1a9.932 9.932 0 0 0 3.17 2.7 8.406 8.406 0 0 0 4.8 1.339 6.752 6.752 0 0 0 4.488-1.805 6.34 6.34 0 0 0 1.773-3.368c1.18 1.995 1.477 4.06.684 5.4a5.085 5.085 0 0 1-2.354 1.887 11.4 11.4 0 0 1-4.1.811h-.042a10.78 10.78 0 0 1-5.286-1.344 12.4 12.4 0 0 1-1.957-1.505Zm.574 2.321a3.916 3.916 0 0 1-2.271 1.549c-2.633.633-5.741-1.256-5.772-1.275a.77.77 0 0 0-.455-.107l-9.438.913a.74.74 0 0 0-.493.262 3.229 3.229 0 0 1-2.685 1.48c-1.574-.155-3-2.042-3.564-2.982a10.887 10.887 0 0 1 1.533-1.186 5.977 5.977 0 0 1 3.72-.644 9.629 9.629 0 0 0 3.421-.276 4.374 4.374 0 0 0 1.952-1.225 4.617 4.617 0 0 0 1.9.72 10.942 10.942 0 0 0 3.792-.269 7.246 7.246 0 0 1 4.323.048 9.6 9.6 0 0 1 2.5 1.772 18.785 18.785 0 0 0 1.534 1.218Zm12.424-10.14a.73.73 0 0 0-1.279.554 5.482 5.482 0 0 1-1.455 4.334 5.283 5.283 0 0 1-3.545 1.392 6.95 6.95 0 0 1-4-1.149 8.5 8.5 0 0 1-2.774-2.369c-.288-.345-.6-.721-1.01-1.156a9.331 9.331 0 0 0-12.094-1.19 4.806 4.806 0 0 0-1.031 1.057 4.759 4.759 0 0 0-.723-.449 8.948 8.948 0 0 0-11.3 2.821c-.323.469-.568.868-.791 1.232a8.609 8.609 0 0 1-1.33 1.783 56.7 56.7 0 0 1-5.237-33.131 113.615 113.615 0 0 1 42.693-1.76c.13 2.656 1.166 12.658 9.159 17.587-.084 1.781-.616 9.207-3.734 12.694a12.358 12.358 0 0 0-1.552-2.252ZM138.7 78.263c-.743-.25-3.82-1.708-4.7-8.861a.747.747 0 0 0-.155-.369c-.349-.43-8.082-9.943-17.87-14.4a15.368 15.368 0 0 1 8.846 1.134.724.724 0 0 0 .681-.012c.025-.012 2.595-1.408 4.569-.463 1.164.551 1.941 1.843 2.339 3.95.713 1.975 2.638 5.079 5.376 4.156 3.186-1.065 2.487-8.009 2.315-9.391 0-.011-.009-.019-.011-.03a.593.593 0 0 0-.037-.11.74.74 0 0 0-.712-.489 4.593 4.593 0 0 1-3.875-4.738 4.547 4.547 0 0 1 1.5-3.173 4.5 4.5 0 0 1 3.3-1.184 4.582 4.582 0 0 1 3.337 7.467c-.007.009-.009.02-.016.029a.768.768 0 0 0-.07.133.741.741 0 0 0-.052.124 1.857 1.857 0 0 0-.014.276.7.7 0 0 0 .037.124.689.689 0 0 0 .058.144c0 .01.006.021.012.031 3.517 5.376 8.056 5.97 9.88 5.97a5.624 5.624 0 0 0 .808-.047 9.568 9.568 0 0 0 6.96-2.99 10.8 10.8 0 0 0 2.443-7.2l.064-.592a.728.728 0 0 0-.351-.7.719.719 0 0 0-.786.022 5.8 5.8 0 1 1-2.9-10.583c.024 0 .2.031.22.033a.685.685 0 0 0 .622-.257.73.73 0 0 0 .147-.656 5.7 5.7 0 0 1-.211-1.744 5.8 5.8 0 1 1 11.583.59.733.733 0 0 0 .958.747 5.592 5.592 0 0 1 2.084-.3 5.8 5.8 0 1 1-1.737 11.411.75.75 0 0 0-.554.081.72.72 0 0 0-.336.447c-.008.033-.05.2-.053.238-.405 3.692 2.776 8.164 6.42 9.027 5.91 1.4 10.36-.085 12.211-4.07a.468.468 0 0 0 .016-.067.678.678 0 0 0 .029-.118.687.687 0 0 0 .011-.169.719.719 0 0 0-.014-.093.73.73 0 0 0-.059-.178.6.6 0 0 0-.043-.072.713.713 0 0 0-.132-.153c-.01-.009-.015-.022-.025-.03a4.582 4.582 0 1 1 4.027.8.722.722 0 0 0-.517.811v.029c0 .01 0 .025.007.038s0 .014 0 .022v.008a12.513 12.513 0 0 0 10.164 10.2 3.591 3.591 0 0 0 3.2-.839c1.911-1.782 1.586-5.583 1.558-5.835-.752-3.447-.5-5.79.727-6.775 1.514-1.213 4.444-.281 5.448.188a.72.72 0 0 0 .684-.038c3.561-2.134 8.452-2.1 11.32-1.829-12 6.377-16.759 19.753-16.966 20.352a.7.7 0 0 0-.04.2 17.714 17.714 0 0 1-3.232 9.967c-.372-.11-.737-.2-1.108-.31a.318.318 0 0 0-.033-.01 129.126 129.126 0 0 0-16.584-3.583.669.669 0 0 0-.224-.048h-.009c-.016 0-.029.007-.044.008a115.156 115.156 0 0 0-44.019 1.8.721.721 0 0 0-.3.078 61.391 61.391 0 0 0-6.172 1.871Zm1.621 8.328a15.536 15.536 0 0 0-.644-7.129c.814-.292 2.367-.813 4.612-1.415a58.981 58.981 0 0 0 2.642 26.676c-6.182-1.178-8.411-7.27-6.615-18.132Zm6.344 19.569c.089.017.171.043.262.058a.706.706 0 0 0 .121.01.722.722 0 0 0 .382-.12 53.487 53.487 0 0 0 2.479 5.636c0 .009.015.012.02.021a7.872 7.872 0 0 1-1.708 1.05 34.646 34.646 0 0 1-1.561-6.655Zm-.073 11.317a10.964 10.964 0 0 1-3.98-.193 4.8 4.8 0 0 1-2.466-1.439c-.917-1.13-.934-3.071-.138-5.084a6.079 6.079 0 0 0 2.128 2.869 6.529 6.529 0 0 0 4.515 1.085 8.16 8.16 0 0 0 4.364-1.943 9.541 9.541 0 0 0 2.626-3.007c.212-.345.445-.723.749-1.168a7.55 7.55 0 0 1 9.442-2.341 1.711 1.711 0 0 1 .706.535 3.359 3.359 0 0 0 .127 2.343 3.225 3.225 0 0 0 .221.4 2.89 2.89 0 0 1-1.352.862 8.293 8.293 0 0 1-2.927.216 7.259 7.259 0 0 0-4.544.854 17.581 17.581 0 0 0-2.908 2.431c-.6.578-1.166 1.123-1.736 1.57a10.273 10.273 0 0 1-4.832 2.01Zm3.438.5a10.883 10.883 0 0 0 2.293-1.352c.627-.5 1.247-1.092 1.846-1.67l.031-.03c.668 1.032 2.317 3.2 4.5 3.417.121.012.243.017.363.017a4.567 4.567 0 0 0 3.4-1.784l8.912-.864c.833.469 3.844 1.991 6.654 1.328a5.4 5.4 0 0 0 3.2-2.231 12.419 12.419 0 0 0 5.407 1.243h.047a12.88 12.88 0 0 0 4.644-.916 6.675 6.675 0 0 0 3.065-2.495 5.978 5.978 0 0 0 .179-5.029c3.523-3.366 4.349-10.524 4.534-13.345a18.123 18.123 0 0 0 3.084 1.174c.579 3.19 3.653 23.537-9.437 34.217a29.322 29.322 0 0 0 1.062-3.329.731.731 0 1 0-1.418-.357 23.06 23.06 0 0 1-9.007 13.681 24.6 24.6 0 0 0 3.327-11.074.73.73 0 1 0-1.458-.091 22.628 22.628 0 0 1-7.885 16.057c-9.447-2.9-13.1-13.535-13.13-13.644a.731.731 0 0 0-1.387.461 27.36 27.36 0 0 0 4.9 8.376c-8.234-3.931-8.944-9.715-8.973-9.989a.731.731 0 0 0-1.454.143 9.208 9.208 0 0 0 .723 2.507c-5.994-3.987-7.682-12.269-8.027-14.423Zm2.185 10.331a16.312 16.312 0 0 0 6.82 6.329.727.727 0 0 0 .276.061c1.75 2.579 5.03 5.64 11.157 7.71a18.673 18.673 0 0 0 6.855 3.646.787.787 0 0 0 .2.027.728.728 0 0 0 .42-.134 18.988 18.988 0 0 0 3.544-3.51 21.481 21.481 0 0 0 10.095-10.1 25.634 25.634 0 0 0 7.466-7.548 24.9 24.9 0 0 1 4.952 1.622c.634 1.77 1.594 4.578 2.715 8.27a28.243 28.243 0 0 1 .373 9.012 3.489 3.489 0 0 1-1.445 2.65c-2.278 1.594-6.418.6-6.459.592a.732.732 0 0 0-.887.873 6.826 6.826 0 0 1-3.164 7.222c-4.2 2.533-9.714-2.122-9.77-2.17a.731.731 0 0 0-1.161.3c-.015.04-1.6 4.188-5.526 5-3.885.823-8.736-5.148-8.784-5.207a.876.876 0 0 0-.6-.274.735.735 0 0 0-.575.319 3.057 3.057 0 0 1-3.133 1.116 222.654 222.654 0 0 0-14.7-25.258Zm-4.615-1.588c3.131 4.272 30.959 43.482 37.984 94.833a263.128 263.128 0 0 0-5.095-3.638 11.914 11.914 0 0 0-2.587-6.944 6.981 6.981 0 0 0-1.787-1.657c-.285-3.245-1.511-4.994-2.522-5.882a3.425 3.425 0 0 0-1.7-.8c-.288-1.093-1.37-4.79-3.25-6.632a3.608 3.608 0 0 0-1.5-.787l-.06-.093c-1.986-3.1-4.5-6.927-7.318-6.475-2.057.345-6.827 3.645-9.487 5.581-.1.077-.188.16-.286.239a285.278 285.278 0 0 0-26.838-54.065v-.011l-.01-.01c-.414-.637-.736-1.122-.952-1.443 1.481-1.604 8.174-7.879 25.408-12.216Zm-35.087 32.487c.976-1.953 2.538-5.742 4.281-10.395a16.734 16.734 0 0 1 5.541-6.992 284.664 284.664 0 0 1 26.524 53.794 20.2 20.2 0 0 0-.987 1.478c-1.356-2.8-4.253-5.974-7.978-8.691-.147-.107-.293-.2-.44-.308a20.7 20.7 0 0 0 .77-3.95.731.731 0 0 0-.672-.785.713.713 0 0 0-.786.671 18.222 18.222 0 0 1-.589 3.2q-.714-.462-1.417-.871v-.038a41.185 41.185 0 0 0-2.688-6.823.731.731 0 0 0-1.3.676 40.683 40.683 0 0 1 2.156 5.189c-3.316-1.641-6.309-2.314-8.381-1.893a5.931 5.931 0 0 0-9.033-6.729 4.248 4.248 0 0 0-5.731-4.544 6.788 6.788 0 0 0-1.8-6.108 32.209 32.209 0 0 1 2.525-6.881ZM50.99 135.146c-.014.01-.029.019-.043.03-.928.741-2.551.453-3.759.077-1.605-.5-3.288-1.163-4.915-1.8-3.42-1.344-6.71-2.638-9.524-2.638a7.519 7.519 0 0 0-1.9.228c.754-1.924 2.187-4.562 4.143-5.074a.731.731 0 0 0 .418-1.118 34.733 34.733 0 0 1-3.928-7.759 33.225 33.225 0 0 1 8.589 1.37.754.754 0 0 0 .66-.128.727.727 0 0 0 .276-.614c-.109-2.013 1.965-4.184 3.567-5.493.176 3.278 2.912 6.623 5.782 10.136 1.107 1.354 2.253 2.755 3.219 4.132.738 1.047 1.521 2.531 1.066 3.647-.5 1.22-2.25 1.558-2.268 1.563a.733.733 0 0 0-.593.813 3.327 3.327 0 0 1-.79 2.628Zm17.272 10.717a6.439 6.439 0 0 1-3.21.261 16.47 16.47 0 0 1-7.19-3.135 15.087 15.087 0 0 1-5.623-7.03 4.558 4.558 0 0 0 1.022-2.987 4.551 4.551 0 0 0 2.534-1.891 15.1 15.1 0 0 1 8.41 3.209 16.426 16.426 0 0 1 5.183 5.887c.927 1.939 1 3.609.2 4.7a2.9 2.9 0 0 1-1.21.943.672.672 0 0 0-.116.043Zm2.635 6.631a4.939 4.939 0 0 1-1.68-5.462 4.152 4.152 0 0 0 2.311-3.171 4.943 4.943 0 0 1 5.712-.066 4.707 4.707 0 0 1 1.842 3.194l-1.222.71a.731.731 0 0 0 .168 1.336l.9.254a5.892 5.892 0 0 1-2.284 3.13l-.516-.779a.71.71 0 0 0-.743-.314.734.734 0 0 0-.579.561l-.3 1.388a4.7 4.7 0 0 1-3.606-.781Zm8.334-.585a7.274 7.274 0 0 0 1.1-2.225l2.164.61c1.084 1.363 7.511 9.341 12.284 12.819.969.706 1.93 1.394 2.851 2.05 2.048 1.461 4.446 3.174 5.741 4.349-1.522-.876-3.886-2.636-5.9-4.139-.9-.676-1.849-1.38-2.816-2.084-4.773-3.48-14.333-7.163-15.963-7.779l-1.239-1.872a7.322 7.322 0 0 0 1.778-1.729Zm22.47 23.05c-.7-.461-1.695-1.17-2.9-2.036-7.175-5.131-20.131-14.38-28.153-12.815a8.462 8.462 0 0 1 4.377-3.934.733.733 0 0 0 .459-.528l.385-1.758 1.739 2.629a.741.741 0 0 0 .354.28c.109.041 10.88 4.061 15.835 7.672.963.7 1.9 1.4 2.8 2.076 4.95 3.69 7.4 5.433 8.735 4.862a.733.733 0 0 0 .441-.6c.136-1.458-2.272-3.247-7.292-6.829a339.667 339.667 0 0 1-2.839-2.041c-4.955-3.615-12.074-12.645-12.142-12.737a.738.738 0 0 0-.376-.252l-3.032-.854.108-.063.017-.01 1.429-.829a.737.737 0 0 0 .364-.6 8.478 8.478 0 0 1 2.409-5.364c.953 8.123 13.726 17.619 20.8 22.883 1.194.887 2.174 1.616 2.827 2.146 3.939 3.19 1.922 6.908 1.834 7.065a.739.739 0 0 0-.053.163 3.162 3.162 0 0 0-.7.957.746.746 0 0 0-.138.1c-.122.134-3.044 3.184-7.289.417Zm-2.824 56.869a44.206 44.206 0 0 1-2.219-14.877c.03-3.516 1.664-6.268 3.393-9.182.758-1.277 1.542-2.595 2.2-4.008a40.812 40.812 0 0 0 3.969-17.453 45.786 45.786 0 0 1 1.172-9.124 7.243 7.243 0 0 0 1.091-.49 4.565 4.565 0 0 0 .044.851 4.266 4.266 0 0 0 1.7 2.818 4.216 4.216 0 0 0 2.5.807 4.627 4.627 0 0 0 1.844-.4 6.1 6.1 0 0 0 2.172 6.541 5.754 5.754 0 0 0 3.416 1.106 6.389 6.389 0 0 0 1.207-.116 6.574 6.574 0 0 0 2.374-.994c.346 3.119 3.616 7.435 8.779 11.2a34.7 34.7 0 0 0 2.875 1.88 35.527 35.527 0 0 1-2.642 8.077.682.682 0 0 0-.041.176 25.026 25.026 0 0 0-6.009-.6.731.731 0 0 0-.7.752 30.841 30.841 0 0 0 .619 5.136c-4.12-.694-10.062.187-10.336.226a.731.731 0 0 0 .219 1.446c.07-.012 6.633-.98 10.461-.116a43.973 43.973 0 0 0 2.4 7.095c-6.392 7.046-5.255 13.385-5.2 13.657a.736.736 0 0 0 .32.475 79.361 79.361 0 0 0 10.5 5.076c.112.382.238.752.375 1.111-16.508 3.464-34.139-4.336-36.483-11.07Zm37.416 9.229a.732.732 0 0 0-.436-.49 87.523 87.523 0 0 1-10.3-4.9c-.122-1.3-.237-6.666 5.2-12.446a.731.731 0 0 0 .128-.816 40.186 40.186 0 0 1-3.395-12.9c2.391.048 10 .612 13.492 5.757-.261 1.51-1.149 8.145 2.3 13.278a13.351 13.351 0 0 0 8.59 5.533c-.313 2.5-1.934 11.7-9.055 15.8a16.564 16.564 0 0 1-6.524-8.816Zm-1.56 9.077h6.013a15.349 15.349 0 0 0 1.673 1.209.719.719 0 0 0 .372.1.737.737 0 0 0 .345-.085 16.133 16.133 0 0 0 1.928-1.226H158.8c.566 6.138 1.484 12.47 2.721 18.837a18.713 18.713 0 0 0-1.727 1.761 26.792 26.792 0 0 0-3.5 4.985c-3.389-2.414-13.177-9.212-20.682-14.3a6.3 6.3 0 0 0-.824-.462 149.27 149.27 0 0 1-.055-10.819Zm.059 12.489c7.665 5.2 17.713 12.182 20.868 14.438a22.12 22.12 0 0 0-.682 1.892 5.515 5.515 0 0 1-.577 1.406 12.849 12.849 0 0 1-5.231 3.342 3.518 3.518 0 0 1-2.654-.176 14.739 14.739 0 0 1-3.834-2.3.743.743 0 0 0-.1-.082c-.015-.012-.023-.028-.039-.039a267.375 267.375 0 0 1-6.688-4.8.708.708 0 0 0-.1-.077 312.074 312.074 0 0 1-7.015-5.314 4.949 4.949 0 0 1-1.866-3.835v-.216a5.082 5.082 0 0 1 3.49-4.784l.215-.071a4.958 4.958 0 0 1 4.213.616Zm-12.771 88.829c-1.561-.24-4.568-.433-6.626 1a4.936 4.936 0 0 0-2.064 3.694 33.72 33.72 0 0 0-.167 2.209c-4.733-17.53-10.465-46.538-8.266-78.85 2.7-.4 5.53-.717 8.334-.97.83 37.415 10.533 61.613 12.215 65.537a8.209 8.209 0 0 0-3.426 7.38Zm3.394-84.331a6.691 6.691 0 0 0 .177 1.408.4.4 0 0 1-.27.131 1.221 1.221 0 0 1-.576-.226l-1.515-1.106a2.051 2.051 0 0 1-.6-.9c0-.01 0-.018-.008-.028a.734.734 0 0 0 .029-.162.838.838 0 0 0-.116-.39.369.369 0 0 1 .041-.152l5.206-7.251a.232.232 0 0 1 .027-.025l.027-.022a1.058 1.058 0 0 1 .431-.146 2.273 2.273 0 0 1 1.422.219l1.513 1.1c.5.366.449.617.356.776a6.823 6.823 0 0 0-1.405.261l-.247.081a6.542 6.542 0 0 0-4.494 6.156Zm-3.771-2.63a4.188 4.188 0 0 1-1.935-.76 4.241 4.241 0 0 1-1.7-2.911 4.755 4.755 0 0 1 .894-3.43 4.536 4.536 0 0 1 6.286-1.171 4.2 4.2 0 0 1 1.286 1.55Zm.727 4.019 1.513 1.1a2.428 2.428 0 0 0 1.418.509h.086a1.839 1.839 0 0 0 .716-.181 6.261 6.261 0 0 0 1.736 2.131 291.735 291.735 0 0 0 5.273 4.023 237.729 237.729 0 0 0-28.1 1.918q.354-4.7.943-9.481a110.829 110.829 0 0 1 15.341-1.521 3.4 3.4 0 0 0 1.074 1.502Zm-7.682 9.9c2.693-.223 5.331-.389 7.776-.512.734 36.689 14.051 61.049 16.241 64.808a11.145 11.145 0 0 0-2 2.734c-1.719-1.247-6.046-3.87-9.985-2.106-1.821-4.297-11.231-28.181-12.032-64.923Zm9.235-.582c5.168-.233 9.253-.275 10.765-.283 3.449 26.4 12.41 49.685 20.846 66.817a4.3 4.3 0 0 0-2.985 1.1c-1.512-1.682-5.74-5.854-9.65-5.06a8.036 8.036 0 0 0-3.056 1.358c-2.461-4.281-15.212-28.16-15.92-63.931Zm-14.748-27.7h24.091c-.106 3.551-.089 6.726.043 10.33-.086-.017-.17-.039-.256-.052a2.108 2.108 0 0 0-.988-2.014l-1.515-1.1a3.616 3.616 0 0 0-2.51-.483 2.856 2.856 0 0 0-.367.086 5.681 5.681 0 0 0-1.627-1.859 6 6 0 0 0-8.328 1.489 6.215 6.215 0 0 0-1.163 4.482 5.618 5.618 0 0 0 3.537 4.579 112.371 112.371 0 0 0-13.949 1.431 183.099 183.099 0 0 1 3.032-16.883Zm-38.789 83.025a154.88 154.88 0 0 1-3.98-36.876 170.574 170.574 0 0 1 6.569-46.143h19.163a299.288 299.288 0 0 0-9.264 60.1A38.5 38.5 0 0 0 80 321.918a.73.73 0 0 0 .675.782.338.338 0 0 0 .055 0 .731.731 0 0 0 .728-.676 42.739 42.739 0 0 1 1.215-6.848 223.017 223.017 0 0 0 2.34 41.708c-9.171-4.826-12.642-15.175-14.626-23.731Zm17.019 29c-9.862-51.8 4.6-106.12 6.249-112.02h14.018a184.703 184.703 0 0 0-3.09 17.572.69.69 0 0 0-.012.1q-.694 5.474-1.074 10.852a.7.7 0 0 0-.029.32v.015c-2.614 37.368 5.333 70.4 10.258 86.649.081.35.141.56.151.6l.406 1.3a.7.7 0 0 0 .076.153 168.8 168.8 0 0 0 2.207 6.589.44.44 0 0 0 .018.051c.133.371.252.693.351.962a43.268 43.268 0 0 1-29.529-13.142Zm26.18 47.111a20.61 20.61 0 0 1-2.31-5.79c-1.226-5.321-.386-10.2 2.3-13.394a13.043 13.043 0 0 1 4.809-3.454 52.232 52.232 0 0 0-.238 17.568 21.255 21.255 0 0 0-1.167-.208.73.73 0 0 0-.207 1.446 17.562 17.562 0 0 1 6.365 2.132c.007 0 .012.009.019.012 7.533 4.363 8.592 13.464 8.735 16.318a128.143 128.143 0 0 1-15.1-3.281 23.541 23.541 0 0 0-3.206-11.348Zm28.9-21.014a10.855 10.855 0 0 0 2.9 2.02 8.476 8.476 0 0 0 5.166.136 9.581 9.581 0 0 1 3.3-.257 2.639 2.639 0 0 1 2.036 1.317 2.015 2.015 0 0 1 .018 1.492 3.275 3.275 0 0 1-1.129 1.522 7.937 7.937 0 0 1-10.151-1.006c-.387-.416-.686-.775-.96-1.1a9.931 9.931 0 0 0-3.17-2.7 8.655 8.655 0 0 0-4.417-1.349c-.126 0-.253 0-.383.009a6.77 6.77 0 0 0-4.489 1.806 6.334 6.334 0 0 0-1.774 3.366c-1.179-2-1.475-4.058-.68-5.4a5.08 5.08 0 0 1 2.351-1.886 11.4 11.4 0 0 1 4.1-.811h.042a10.787 10.787 0 0 1 5.287 1.344 12.409 12.409 0 0 1 1.954 1.498Zm-.573-2.318a3.9 3.9 0 0 1 2.271-1.547c2.635-.638 5.74 1.254 5.772 1.275a.713.713 0 0 0 .455.107l9.438-.916a.738.738 0 0 0 .493-.261 3.267 3.267 0 0 1 2.687-1.48c1.574.154 3 2.043 3.562 2.982a10.83 10.83 0 0 1-1.533 1.186 6.014 6.014 0 0 1-3.719.644 9.411 9.411 0 0 0-3.422.276 4.354 4.354 0 0 0-1.952 1.225 4.632 4.632 0 0 0-1.9-.721 11.205 11.205 0 0 0-3.792.269 7.239 7.239 0 0 1-4.323-.047 9.583 9.583 0 0 1-2.5-1.773 19.169 19.169 0 0 0-1.536-1.218Zm-12.422 10.142a.73.73 0 0 0 1.278-.556 5.467 5.467 0 0 1 1.453-4.335 5.29 5.29 0 0 1 3.546-1.391 6.963 6.963 0 0 1 4 1.149 8.515 8.515 0 0 1 2.775 2.371c.288.343.6.721 1.009 1.157a9.31 9.31 0 0 0 6.8 2.878 8.864 8.864 0 0 0 5.293-1.692 4.784 4.784 0 0 0 1.026-1.056 4.682 4.682 0 0 0 .723.45 8.3 8.3 0 0 0 3.927.959 9 9 0 0 0 7.372-3.78c.323-.469.569-.869.794-1.235a8.62 8.62 0 0 1 1.327-1.78 56.706 56.706 0 0 1 5.238 33.134 113.548 113.548 0 0 1-42.693 1.757c-.131-2.655-1.166-12.659-9.16-17.588.083-1.776.612-9.2 3.735-12.692a12.321 12.321 0 0 0 1.558 2.251Zm53.688 25.66c.743.249 3.821 1.708 4.7 8.86a.736.736 0 0 0 .156.369c.348.431 8.08 9.943 17.87 14.4a15.4 15.4 0 0 1-8.847-1.138.735.735 0 0 0-.681.012c-.026.015-2.595 1.409-4.567.464-1.165-.552-1.941-1.843-2.34-3.951-.712-1.972-2.639-5.083-5.377-4.156-3.186 1.066-2.487 8.01-2.315 9.392 0 .012.01.022.012.034a.693.693 0 0 0 .034.1.736.736 0 0 0 .72.5 4.578 4.578 0 1 1-5.286 4.3 4.541 4.541 0 0 1 1.02-2.671c.008-.01.01-.022.017-.032a.688.688 0 0 0 .066-.126.757.757 0 0 0 .055-.129.724.724 0 0 0 .011-.131.427.427 0 0 0-.034-.266.685.685 0 0 0-.059-.147c-.006-.009-.006-.021-.012-.03-4.435-6.782-10.5-5.956-10.688-5.923a9.568 9.568 0 0 0-6.96 2.99 10.8 10.8 0 0 0-2.443 7.2l-.063.592a.732.732 0 0 0 1.137.683 5.8 5.8 0 1 1 2.912 10.585c-.025 0-.206-.033-.232-.036a.69.69 0 0 0-.621.257.733.733 0 0 0-.147.657 5.651 5.651 0 0 1 .211 1.743 5.756 5.756 0 0 1-1.893 4.018 5.8 5.8 0 0 1-9.689-4.607.731.731 0 0 0-.957-.747 5.793 5.793 0 0 1-5.705-9.8 5.7 5.7 0 0 1 4.18-1.5 5.857 5.857 0 0 1 1.18.179.733.733 0 0 0 .89-.529c.008-.033.05-.2.053-.237.405-3.692-2.774-8.164-6.419-9.025-5.91-1.409-10.359.081-12.212 4.065a.609.609 0 0 0-.017.071.679.679 0 0 0-.026.108.737.737 0 0 0 .064.455c.01.019.021.036.032.053a.7.7 0 0 0 .148.173c.007.006.01.014.018.02a4.587 4.587 0 0 1 .272 7.017 4.47 4.47 0 0 1-3.3 1.185 4.585 4.585 0 0 1-1-9 .722.722 0 0 0 .516-.8v-.038c0-.013-.006-.032-.009-.048v-.011a12.519 12.519 0 0 0-10.166-10.2 3.618 3.618 0 0 0-3.2.84c-1.911 1.781-1.586 5.583-1.558 5.835.753 3.447.5 5.79-.727 6.775-1.519 1.21-4.447.276-5.448-.188a.74.74 0 0 0-.684.038c-3.56 2.134-8.452 2.091-11.319 1.829 11.995-6.377 16.758-19.753 16.965-20.353a.718.718 0 0 0 .041-.2 17.7 17.7 0 0 1 3.232-9.967c.372.11.736.2 1.106.31.012.005.025.006.037.01a129.142 129.142 0 0 0 16.6 3.588.706.706 0 0 0 .2.043h.009c.014 0 .026-.007.039-.008a115.12 115.12 0 0 0 43.987-1.789h.008a.721.721 0 0 0 .324-.086 61.152 61.152 0 0 0 6.18-1.88Zm-1.621-8.328a15.543 15.543 0 0 0 .645 7.131c-.814.291-2.367.813-4.612 1.414a58.984 58.984 0 0 0-2.643-26.678c6.178 1.179 8.407 7.271 6.611 18.134Zm-6.343-19.569c-.089-.017-.171-.043-.262-.058a.742.742 0 0 0-.5.112 53.526 53.526 0 0 0-2.48-5.638c0-.009-.012-.014-.017-.022a7.833 7.833 0 0 1 1.7-1.05 34.676 34.676 0 0 1 1.56 6.657Zm.073-11.317a10.874 10.874 0 0 1 3.98.193 4.8 4.8 0 0 1 2.465 1.439c.917 1.13.935 3.071.138 5.083a6.088 6.088 0 0 0-2.128-2.869 6.519 6.519 0 0 0-4.515-1.084 8.133 8.133 0 0 0-4.364 1.943 9.5 9.5 0 0 0-2.624 3c-.212.344-.446.725-.751 1.17a7.568 7.568 0 0 1-9.441 2.341 1.7 1.7 0 0 1-.706-.535 3.366 3.366 0 0 0-.128-2.344 3.284 3.284 0 0 0-.221-.4 2.894 2.894 0 0 1 1.352-.862 8.369 8.369 0 0 1 2.927-.217 7.271 7.271 0 0 0 4.545-.854 17.6 17.6 0 0 0 2.91-2.433c.582-.559 1.154-1.113 1.733-1.568a10.271 10.271 0 0 1 4.829-2.002Zm-3.439-.5a10.955 10.955 0 0 0-2.293 1.353c-.626.492-1.245 1.089-1.844 1.668l-.033.031c-.668-1.031-2.316-3.2-4.5-3.417a4.359 4.359 0 0 0-3.759 1.768l-8.912.866c-.833-.471-3.848-2-6.654-1.33a5.4 5.4 0 0 0-3.2 2.233 13.3 13.3 0 0 0-5.452-1.246 12.881 12.881 0 0 0-4.645.916 6.685 6.685 0 0 0-3.064 2.5 5.984 5.984 0 0 0-.179 5.03c-3.523 3.366-4.349 10.524-4.535 13.344a18.123 18.123 0 0 0-3.084-1.174c-.58-3.2-3.649-23.538 9.438-34.215a29.04 29.04 0 0 0-1.063 3.328.731.731 0 0 0 .532.887.721.721 0 0 0 .177.022.731.731 0 0 0 .709-.552 23.06 23.06 0 0 1 9.007-13.68 24.591 24.591 0 0 0-3.326 11.073.731.731 0 0 0 .684.775h.047a.729.729 0 0 0 .728-.685 22.621 22.621 0 0 1 7.883-16.056c9.448 2.9 13.1 13.535 13.132 13.644a.73.73 0 0 0 1.386-.461 27.322 27.322 0 0 0-4.9-8.377c8.234 3.932 8.943 9.716 8.972 9.987a.732.732 0 0 0 .725.659.613.613 0 0 0 .074 0 .729.729 0 0 0 .655-.794 9.217 9.217 0 0 0-.722-2.507c5.984 3.977 7.672 12.259 8.017 14.412Zm-2.185-10.331a16.31 16.31 0 0 0-6.82-6.328.7.7 0 0 0-.281-.068c-1.75-2.578-5.03-5.635-11.151-7.7a18.668 18.668 0 0 0-6.855-3.647.762.762 0 0 0-.619.107 19.048 19.048 0 0 0-3.544 3.511 21.49 21.49 0 0 0-10.095 10.1 25.6 25.6 0 0 0-7.465 7.547 25.064 25.064 0 0 1-4.963-1.621 180.708 180.708 0 0 1-2.711-8.257 28.247 28.247 0 0 1-.377-9.025 3.488 3.488 0 0 1 1.446-2.65c2.276-1.6 6.416-.6 6.46-.592a.732.732 0 0 0 .886-.876 6.821 6.821 0 0 1 3.165-7.219c4.2-2.541 9.714 2.122 9.768 2.172a.722.722 0 0 0 .661.152.73.73 0 0 0 .5-.455c.016-.042 1.576-4.184 5.525-5 3.908-.818 8.736 5.145 8.783 5.207a.706.706 0 0 0 .6.274.734.734 0 0 0 .575-.319 3.056 3.056 0 0 1 3.134-1.118 222.592 222.592 0 0 0 14.7 25.258Zm4.615 1.586c-3.131-4.274-30.96-43.5-37.983-94.833a260.98 260.98 0 0 0 5.094 3.638 11.925 11.925 0 0 0 2.587 6.945 6.994 6.994 0 0 0 1.789 1.658c.283 3.244 1.51 4.992 2.522 5.88a3.407 3.407 0 0 0 1.7.8c.289 1.1 1.37 4.792 3.249 6.636a3.58 3.58 0 0 0 1.506.8l.05.077c1.874 2.921 4.18 6.518 6.837 6.518a2.949 2.949 0 0 0 .485-.041c2.052-.342 6.824-3.644 9.486-5.58.105-.077.188-.16.286-.239a285.245 285.245 0 0 0 26.835 54.066v.011l.008.006c.415.639.738 1.125.954 1.447-1.484 1.602-8.175 7.877-25.404 12.213Zm35.088-32.484c-.976 1.951-2.537 5.74-4.282 10.393a16.732 16.732 0 0 1-5.54 6.992 284.714 284.714 0 0 1-26.524-53.8c.351-.472.676-.967.988-1.473 1.358 2.795 4.254 5.97 7.977 8.686.147.108.294.2.441.3a20.549 20.549 0 0 0-.77 3.954.73.73 0 0 0 .673.785.363.363 0 0 0 .057 0 .731.731 0 0 0 .728-.676 18.153 18.153 0 0 1 .586-3.191c.476.309.949.593 1.418.867v.038a41.11 41.11 0 0 0 2.688 6.822.731.731 0 1 0 1.3-.675 40.693 40.693 0 0 1-2.156-5.192 16.893 16.893 0 0 0 7.087 2.023 6.43 6.43 0 0 0 1.3-.136 6.108 6.108 0 0 0 2.131 6.673 5.77 5.77 0 0 0 3.421 1.1 6.473 6.473 0 0 0 3.479-1.044 4.372 4.372 0 0 0 1.71 4.022 4.214 4.214 0 0 0 2.5.8 4.62 4.62 0 0 0 1.518-.265 6.784 6.784 0 0 0 1.8 6.1 32.308 32.308 0 0 1-2.529 6.899Zm32.313 11.171-.023.013-1.424.826a.739.739 0 0 0-.364.6 8.486 8.486 0 0 1-2.409 5.366c-.953-8.126-13.727-17.621-20.8-22.886-1.194-.887-2.174-1.615-2.827-2.145-3.939-3.19-1.922-6.908-1.834-7.065a.7.7 0 0 0 .037-.115 5.091 5.091 0 0 0 .413-.492 4.807 4.807 0 0 0 .307-.519.706.706 0 0 0 .132-.094c.121-.134 3.044-3.188 7.289-.414.7.461 1.7 1.172 2.908 2.038 7.173 5.129 20.12 14.394 28.152 12.812a8.48 8.48 0 0 1-4.377 3.935.735.735 0 0 0-.46.528l-.385 1.758-1.739-2.629a.738.738 0 0 0-.354-.281c-.108-.04-10.881-4.06-15.834-7.671-.965-.7-1.907-1.406-2.808-2.079-4.949-3.687-7.4-5.424-8.733-4.86a.734.734 0 0 0-.441.6c-.136 1.459 2.269 3.245 7.285 6.825.919.654 1.878 1.339 2.846 2.046 4.954 3.611 12.073 12.64 12.145 12.731a.738.738 0 0 0 .376.252l3.034.854Zm-.138-1.651-2.164-.609c-1.084-1.363-7.511-9.341-12.284-12.819-.972-.709-1.935-1.4-2.858-2.055-2.044-1.461-4.439-3.169-5.734-4.344 1.524.875 3.883 2.633 5.9 4.137.907.675 1.853 1.379 2.822 2.086 4.771 3.48 14.333 7.162 15.962 7.778l1.239 1.872a7.318 7.318 0 0 0-2.882 3.954Zm9.563 3.946a4.3 4.3 0 0 0-.759 1.877 4.938 4.938 0 0 1-5.712.067 4.716 4.716 0 0 1-1.842-3.194l1.222-.71a.732.732 0 0 0-.168-1.337l-.9-.253a5.877 5.877 0 0 1 2.283-3.131l.516.78a.714.714 0 0 0 .743.314.735.735 0 0 0 .58-.562l.3-1.385a4.738 4.738 0 0 1 3.605.779 4.941 4.941 0 0 1 1.682 5.458 4.29 4.29 0 0 0-1.549 1.299Zm14.975 14.655a15.282 15.282 0 0 1-8.411-3.206 16.436 16.436 0 0 1-5.183-5.887c-.926-1.939-1-3.609-.2-4.7a2.906 2.906 0 0 1 1.193-.926.726.726 0 0 0 .16-.074c2.389-.934 6.621.152 10.374 2.889a15.109 15.109 0 0 1 5.624 7.029 4.558 4.558 0 0 0-1.023 2.988 4.555 4.555 0 0 0-2.533 1.889Zm20.8 5.117a.731.731 0 0 0-.419 1.118 34.685 34.685 0 0 1 3.928 7.76 36.123 36.123 0 0 1-8.589-1.37.731.731 0 0 0-.936.742c.109 2.012-1.965 4.184-3.567 5.492-.176-3.278-2.912-6.622-5.782-10.135-1.107-1.354-2.252-2.755-3.219-4.132-.738-1.047-1.52-2.531-1.066-3.647.5-1.22 2.25-1.558 2.268-1.563a.733.733 0 0 0 .594-.816 3.346 3.346 0 0 1 .786-2.626c.018-.012.036-.023.052-.036a2.509 2.509 0 0 1 1.58-.459 7.636 7.636 0 0 1 2.174.386c1.6.5 3.288 1.163 4.915 1.8 4.224 1.66 8.25 3.242 11.423 2.407-.751 1.929-2.183 4.568-4.139 5.081Z"/><path class="cls-11" d="M25.29 103.5a3.625 3.625 0 1 0 3.626 3.625 3.624 3.624 0 0 0-3.626-3.625Zm0 5.316a1.689 1.689 0 1 1 1.687-1.691 1.692 1.692 0 0 1-1.687 1.689Z"/><circle class="cls-12" cx="25.29" cy="92.994" r="14.129"/><path class="cls-11" d="M25.29 78.865v28.258a14.129 14.129 0 0 0 0-28.258Z"/><path class="cls-5" d="M11.264 94.67a14.126 14.126 0 0 0 28.053 0Z"/><path class="cls-6" d="M25.29 107.123A14.128 14.128 0 0 0 39.317 94.67H25.29Z"/><path class="cls-7" d="M38.969 96.545a14.133 14.133 0 0 0 .45-3.551 14.308 14.308 0 0 0-.087-1.557 69.138 69.138 0 0 1-28.1.185c-.044.452-.068.909-.068 1.372a14.122 14.122 0 0 0 .5 3.724 74.071 74.071 0 0 0 27.305-.173Z"/><path class="cls-13" d="M39.4 92.189q-.023-.378-.063-.752a69.183 69.183 0 0 1-14.047 1.535V97.9a73.993 73.993 0 0 0 13.679-1.356q.1-.4.181-.8c.014-.069.025-.138.037-.208.036-.2.069-.4.1-.6.012-.088.023-.177.033-.266q.035-.293.057-.588c.006-.083.014-.166.019-.25.016-.276.026-.554.026-.835q0-.393-.022-.781Z"/><path d="M10.317 22.167h5.046v18.57l19.781-18.57h6.644L18.02 44.37l25.618 27.283H37.05L15.363 48.6v23.05h-5.046Z"/><path class="cls-11" d="M296.585 396.5a3.625 3.625 0 1 0-3.625-3.625 3.624 3.624 0 0 0 3.625 3.625Zm0-5.316a1.689 1.689 0 1 1-1.687 1.691 1.692 1.692 0 0 1 1.687-1.689Z"/><circle class="cls-12" cx="296.585" cy="407.006" r="14.129"/><path class="cls-11" d="M296.585 421.135v-28.258a14.129 14.129 0 1 0 0 28.258Z"/><path class="cls-5" d="M310.612 405.33a14.126 14.126 0 0 0-28.054 0Z"/><path class="cls-6" d="M296.585 392.877a14.128 14.128 0 0 0-14.027 12.453h14.027Z"/><path class="cls-7" d="M282.906 403.455a14.156 14.156 0 0 0-.363 5.108 69.138 69.138 0 0 1 28.1-.185c.044-.452.068-.909.068-1.372a14.122 14.122 0 0 0-.5-3.724 74.071 74.071 0 0 0-27.305.173Z"/><path class="cls-13" d="M282.48 407.811q.022.378.063.752a69.183 69.183 0 0 1 14.042-1.535V402.1a74 74 0 0 0-13.679 1.356q-.1.4-.181.8c-.014.069-.025.138-.037.208-.036.2-.069.4-.1.6-.012.088-.023.177-.033.266q-.034.292-.057.588c-.006.083-.014.166-.019.25a14.41 14.41 0 0 0-.004 1.616Z"/><path d="M311.558 477.833h-5.046v-18.57l-19.781 18.57h-6.644l23.768-22.2-25.618-27.283h6.588l21.687 23.05v-23.05h5.046Z"/></svg>