<svg id="Layer_1" data-name="Layer 1" xmlns="http://www.w3.org/2000/svg" viewBox="0 0 321.875 500"><defs><style>.cls-2{fill:#ef870a}.cls-3{fill:#ffc306}.cls-4{fill:#d90000}.cls-5{fill:#a50404}.cls-6{fill:#05703d}.cls-7{fill:#02592d}</style></defs><path style="fill:#fff" d="M0 0h321.875v500H0z"/><path d="M268.453 481.248H45.383a26.66 26.66 0 0 1-26.63-26.631V125.1a1.25 1.25 0 0 1 2.5 0v329.517a24.158 24.158 0 0 0 24.13 24.131h223.07a1.25 1.25 0 0 1 0 2.5Zm33.42-105.091a1.249 1.249 0 0 1-1.25-1.25V45.388a24.162 24.162 0 0 0-24.13-24.14H53.423a1.25 1.25 0 0 1 0-2.5h223.07a26.665 26.665 0 0 1 26.63 26.64v329.519a1.25 1.25 0 0 1-1.25 1.25Z"/><path class="cls-2" d="M25.29 103.5a3.625 3.625 0 1 0 3.626 3.625 3.624 3.624 0 0 0-3.626-3.625Zm0 5.316a1.689 1.689 0 1 1 1.687-1.691 1.692 1.692 0 0 1-1.687 1.689Z"/><circle class="cls-3" cx="25.29" cy="92.994" r="14.129"/><path class="cls-2" d="M25.29 78.865v28.258a14.129 14.129 0 0 0 0-28.258Z"/><path class="cls-4" d="M11.264 94.67a14.126 14.126 0 0 0 28.053 0Z"/><path class="cls-5" d="M25.29 107.123A14.128 14.128 0 0 0 39.317 94.67H25.29Z"/><path class="cls-6" d="M38.969 96.545a14.133 14.133 0 0 0 .45-3.551 14.308 14.308 0 0 0-.087-1.557 69.138 69.138 0 0 1-28.1.185c-.044.452-.068.909-.068 1.372a14.122 14.122 0 0 0 .5 3.724 74.071 74.071 0 0 0 27.305-.173Z"/><path class="cls-7" d="M39.4 92.189q-.023-.378-.063-.752a69.183 69.183 0 0 1-14.047 1.535V97.9a73.993 73.993 0 0 0 13.679-1.356q.1-.4.181-.8c.014-.069.025-.138.037-.208.036-.2.069-.4.1-.6.012-.088.023-.177.033-.266q.035-.293.057-.588c.006-.083.014-.166.019-.25.016-.276.026-.554.026-.835q0-.393-.022-.781Z"/><path d="M34.131 43.62a17.343 17.343 0 0 1 6.838 5.413 12.027 12.027 0 0 1 2.066 6.918 14.362 14.362 0 0 1-3.555 9.609q-4.356 5.093-12.46 5.093-7.815 0-11.851-4.468a14.382 14.382 0 0 1-4.036-9.849 12.46 12.46 0 0 1 2.114-7.095 17.825 17.825 0 0 1 7.047-5.621 13.3 13.3 0 0 1-5.189-4.452 10.268 10.268 0 0 1-1.729-5.7 11.153 11.153 0 0 1 1.841-6.005 12.845 12.845 0 0 1 5.093-4.613 15.078 15.078 0 0 1 7.031-1.681 14.123 14.123 0 0 1 6.822 1.7 12.724 12.724 0 0 1 4.916 4.613 11.564 11.564 0 0 1 1.778 6.117 9.974 9.974 0 0 1-1.681 5.7 13.913 13.913 0 0 1-5.045 4.321Zm-6.807 2.37a11.335 11.335 0 0 0-8.156 3.155 9.884 9.884 0 0 0-3.294 7.355 9.479 9.479 0 0 0 5.343 8.456 13.049 13.049 0 0 0 5.851 1.244 11.064 11.064 0 0 0 8.189-3.043 9.76 9.76 0 0 0 3.043-7.11 9.424 9.424 0 0 0-3.214-7 10.855 10.855 0 0 0-7.762-3.057ZM27.1 25.747a9.261 9.261 0 0 0-6.432 2.29 7.094 7.094 0 0 0-2.552 5.463 7.621 7.621 0 0 0 2.744 5.686 9.107 9.107 0 0 0 6.4 2.546 8.988 8.988 0 0 0 4.426-1.153 8.431 8.431 0 0 0 3.262-3.155 7.909 7.909 0 0 0 1.169-4.02 7.439 7.439 0 0 0-2.312-5.253Q31.5 25.747 27.1 25.747ZM287.744 456.38a17.343 17.343 0 0 1-6.838-5.413 12.027 12.027 0 0 1-2.066-6.918 14.362 14.362 0 0 1 3.555-9.609q4.356-5.092 12.46-5.093 7.815 0 11.851 4.468a14.382 14.382 0 0 1 4.036 9.849 12.46 12.46 0 0 1-2.114 7.1 17.818 17.818 0 0 1-7.047 5.621 13.3 13.3 0 0 1 5.189 4.452 10.269 10.269 0 0 1 1.73 5.7 11.154 11.154 0 0 1-1.842 6 12.845 12.845 0 0 1-5.093 4.613 15.077 15.077 0 0 1-7.03 1.681 14.124 14.124 0 0 1-6.823-1.7 12.724 12.724 0 0 1-4.916-4.613 11.573 11.573 0 0 1-1.778-6.117 9.975 9.975 0 0 1 1.682-5.7 13.9 13.9 0 0 1 5.044-4.321Zm6.807-2.37a11.339 11.339 0 0 0 8.157-3.155A9.882 9.882 0 0 0 306 443.5a9.479 9.479 0 0 0-5.343-8.456 13.049 13.049 0 0 0-5.851-1.249 11.064 11.064 0 0 0-8.189 3.043 9.76 9.76 0 0 0-3.038 7.111 9.424 9.424 0 0 0 3.214 7 10.855 10.855 0 0 0 7.758 3.061Zm.224 20.243a9.261 9.261 0 0 0 6.432-2.29 7.094 7.094 0 0 0 2.552-5.461 7.621 7.621 0 0 0-2.744-5.686 9.105 9.105 0 0 0-6.4-2.546 8.991 8.991 0 0 0-4.426 1.153 8.421 8.421 0 0 0-3.261 3.155 7.9 7.9 0 0 0-1.17 4.02 7.439 7.439 0 0 0 2.312 5.253q2.306 2.402 6.705 2.402Z"/><path class="cls-2" d="M296.585 396.5a3.625 3.625 0 1 0-3.625-3.625 3.624 3.624 0 0 0 3.625 3.625Zm0-5.316a1.689 1.689 0 1 1-1.687 1.691 1.692 1.692 0 0 1 1.687-1.689Z"/><circle class="cls-3" cx="296.585" cy="407.006" r="14.129"/><path class="cls-2" d="M296.585 421.135v-28.258a14.129 14.129 0 1 0 0 28.258Z"/><path class="cls-4" d="M310.612 405.33a14.126 14.126 0 0 0-28.054 0Z"/><path class="cls-5" d="M296.585 392.877a14.128 14.128 0 0 0-14.027 12.453h14.027Z"/><path class="cls-6" d="M282.906 403.455a14.156 14.156 0 0 0-.363 5.108 69.138 69.138 0 0 1 28.1-.185c.044-.452.068-.909.068-1.372a14.122 14.122 0 0 0-.5-3.724 74.071 74.071 0 0 0-27.305.173Z"/><path class="cls-7" d="M282.48 407.811q.022.378.063.752a69.183 69.183 0 0 1 14.042-1.535V402.1a74 74 0 0 0-13.679 1.356q-.1.4-.181.8c-.014.069-.025.138-.037.208-.036.2-.069.4-.1.6-.012.088-.023.177-.033.266q-.034.292-.057.588c-.006.083-.014.166-.019.25a14.41 14.41 0 0 0-.004 1.616Z"/><circle class="cls-3" cx="91.49" cy="59.625" r="24.46"/><path class="cls-2" d="M91.491 35.165v48.92a24.46 24.46 0 0 0 0-48.92Z"/><path class="cls-4" d="M67.208 62.526a24.455 24.455 0 0 0 48.565 0Z"/><path class="cls-5" d="M91.49 84.085a24.46 24.46 0 0 0 24.282-21.559H91.49Z"/><path class="cls-6" d="M115.17 65.773a24.488 24.488 0 0 0 .78-6.148 24.756 24.756 0 0 0-.151-2.7 119.7 119.7 0 0 1-48.652.321 24.85 24.85 0 0 0-.116 2.375 24.475 24.475 0 0 0 .864 6.446 128.253 128.253 0 0 0 47.275-.294Z"/><path class="cls-7" d="M115.908 58.231q-.039-.656-.109-1.3a119.82 119.82 0 0 1-24.309 2.656v8.532a128.192 128.192 0 0 0 23.68-2.346c.119-.458.221-.922.314-1.39.023-.12.042-.241.064-.361q.095-.516.167-1.041c.021-.153.04-.306.059-.46q.059-.506.1-1.017c.011-.145.024-.288.033-.433.028-.479.046-.96.046-1.446 0-.454-.014-.9-.039-1.352Z"/><circle class="cls-3" cx="91.49" cy="110.748" r="24.46"/><path class="cls-2" d="M91.491 86.289v48.919a24.46 24.46 0 0 0 0-48.919Z"/><path class="cls-4" d="M67.208 113.649a24.455 24.455 0 0 0 48.565 0Z"/><path class="cls-5" d="M91.49 135.208a24.46 24.46 0 0 0 24.282-21.559H91.49Z"/><path class="cls-6" d="M115.17 116.9a24.476 24.476 0 0 0 .78-6.148 24.723 24.723 0 0 0-.151-2.7 119.7 119.7 0 0 1-48.652.32 24.865 24.865 0 0 0-.116 2.375 24.469 24.469 0 0 0 .864 6.446 128.21 128.21 0 0 0 47.275-.293Z"/><path class="cls-7" d="M115.908 109.354q-.039-.654-.109-1.3a119.963 119.963 0 0 1-24.309 2.658v8.531a128.106 128.106 0 0 0 23.68-2.346c.119-.458.221-.922.314-1.39.023-.119.042-.24.064-.36q.095-.517.167-1.041c.021-.153.04-.307.059-.461.039-.336.071-.676.1-1.017.011-.144.024-.288.033-.433.028-.478.046-.96.046-1.446 0-.453-.014-.9-.039-1.351Z"/><circle class="cls-3" cx="91.49" cy="161.872" r="24.46"/><path class="cls-2" d="M91.491 137.412v48.919a24.46 24.46 0 0 0 0-48.919Z"/><path class="cls-4" d="M67.208 164.772a24.455 24.455 0 0 0 48.565 0Z"/><path class="cls-5" d="M91.49 186.331a24.459 24.459 0 0 0 24.282-21.559H91.49Z"/><path class="cls-6" d="M115.17 168.019a24.474 24.474 0 0 0 .78-6.147 24.741 24.741 0 0 0-.151-2.7 119.7 119.7 0 0 1-48.652.321 24.85 24.85 0 0 0-.116 2.375 24.475 24.475 0 0 0 .864 6.446 128.231 128.231 0 0 0 47.275-.295Z"/><path class="cls-7" d="M115.908 160.477q-.039-.654-.109-1.3a119.892 119.892 0 0 1-24.309 2.658v8.532a128.193 128.193 0 0 0 23.68-2.347c.119-.458.221-.922.314-1.39.023-.119.042-.24.064-.36a23.75 23.75 0 0 0 .326-2.519c.011-.144.024-.287.033-.432.028-.479.046-.96.046-1.446 0-.454-.014-.905-.039-1.352Z"/><circle class="cls-3" cx="91.49" cy="212.995" r="24.46"/><path class="cls-2" d="M91.491 188.535v48.92a24.46 24.46 0 0 0 0-48.92Z"/><path class="cls-4" d="M67.208 215.9a24.455 24.455 0 0 0 48.565 0Z"/><path class="cls-5" d="M91.49 237.455a24.46 24.46 0 0 0 24.283-21.555H91.49Z"/><path class="cls-6" d="M115.17 219.143a24.482 24.482 0 0 0 .78-6.148 24.756 24.756 0 0 0-.151-2.7 119.687 119.687 0 0 1-48.652.321 24.865 24.865 0 0 0-.116 2.375 24.469 24.469 0 0 0 .864 6.446 128.253 128.253 0 0 0 47.275-.294Z"/><path class="cls-7" d="M115.908 211.6q-.039-.656-.109-1.3a119.893 119.893 0 0 1-24.309 2.659v8.531a128.106 128.106 0 0 0 23.68-2.346c.119-.458.221-.922.314-1.39.023-.12.042-.241.064-.36q.095-.518.167-1.042c.021-.153.04-.306.059-.46q.059-.505.1-1.017c.011-.144.024-.288.033-.433.028-.479.046-.96.046-1.446 0-.454-.014-.9-.039-1.351Z"/><circle class="cls-3" cx="230.385" cy="59.625" r="24.46"/><path class="cls-2" d="M230.385 35.165v48.92a24.46 24.46 0 0 0 0-48.92Z"/><path class="cls-4" d="M206.1 62.526a24.455 24.455 0 0 0 48.565 0Z"/><path class="cls-5" d="M230.385 84.085a24.459 24.459 0 0 0 24.282-21.559h-24.282Z"/><path class="cls-6" d="M254.064 65.773a24.488 24.488 0 0 0 .78-6.148 24.756 24.756 0 0 0-.151-2.7 119.7 119.7 0 0 1-48.651.321 24.526 24.526 0 0 0-.117 2.375 24.475 24.475 0 0 0 .865 6.446 128.247 128.247 0 0 0 47.274-.294Z"/><path class="cls-7" d="M254.8 58.231q-.037-.656-.109-1.3a119.811 119.811 0 0 1-24.308 2.658v8.532a128.181 128.181 0 0 0 23.679-2.346c.119-.458.222-.922.314-1.39.024-.12.043-.241.064-.361q.094-.516.167-1.041a30.702 30.702 0 0 0 .159-1.477c.011-.145.025-.288.033-.433.028-.479.046-.96.046-1.446q0-.681-.039-1.352Z"/><circle class="cls-3" cx="230.385" cy="110.748" r="24.46"/><path class="cls-2" d="M230.385 86.289v48.919a24.46 24.46 0 0 0 0-48.919Z"/><path class="cls-4" d="M206.1 113.649a24.455 24.455 0 0 0 48.565 0Z"/><path class="cls-5" d="M230.385 135.208a24.459 24.459 0 0 0 24.282-21.559h-24.282Z"/><path class="cls-6" d="M254.064 116.9a24.476 24.476 0 0 0 .78-6.148 24.723 24.723 0 0 0-.151-2.7 119.7 119.7 0 0 1-48.651.32 24.541 24.541 0 0 0-.117 2.375 24.47 24.47 0 0 0 .865 6.446 128.2 128.2 0 0 0 47.274-.293Z"/><path class="cls-7" d="M254.8 109.354q-.037-.654-.109-1.3a119.953 119.953 0 0 1-24.308 2.658v8.531a128.1 128.1 0 0 0 23.679-2.346c.119-.458.222-.922.314-1.39.024-.119.043-.24.064-.36q.094-.517.167-1.041a30.44 30.44 0 0 0 .159-1.478c.011-.144.025-.288.033-.433.028-.478.046-.96.046-1.446q0-.68-.039-1.351Z"/><circle class="cls-3" cx="230.385" cy="161.872" r="24.46"/><path class="cls-2" d="M230.385 137.412v48.919a24.46 24.46 0 0 0 0-48.919Z"/><path class="cls-4" d="M206.1 164.772a24.455 24.455 0 0 0 48.565 0Z"/><path class="cls-5" d="M230.385 186.331a24.458 24.458 0 0 0 24.282-21.559h-24.282Z"/><path class="cls-6" d="M254.064 168.019a24.474 24.474 0 0 0 .78-6.147 24.741 24.741 0 0 0-.151-2.7 119.7 119.7 0 0 1-48.651.321 24.526 24.526 0 0 0-.117 2.375 24.475 24.475 0 0 0 .865 6.446 128.226 128.226 0 0 0 47.274-.295Z"/><path class="cls-7" d="M254.8 160.477q-.037-.654-.109-1.3a119.882 119.882 0 0 1-24.308 2.658v8.532a128.182 128.182 0 0 0 23.679-2.347c.119-.458.222-.922.314-1.39.024-.119.043-.24.064-.36a23.75 23.75 0 0 0 .326-2.519c.011-.144.025-.287.033-.432.028-.479.046-.96.046-1.446q0-.681-.039-1.352Z"/><circle class="cls-3" cx="230.385" cy="212.995" r="24.46"/><path class="cls-2" d="M230.385 188.535v48.92a24.46 24.46 0 0 0 0-48.92Z"/><path class="cls-4" d="M206.1 215.9a24.455 24.455 0 0 0 48.565 0Z"/><path class="cls-5" d="M230.385 237.455a24.459 24.459 0 0 0 24.282-21.555h-24.282Z"/><path class="cls-6" d="M254.064 219.143a24.482 24.482 0 0 0 .78-6.148 24.756 24.756 0 0 0-.151-2.7 119.682 119.682 0 0 1-48.651.321 24.541 24.541 0 0 0-.117 2.375 24.47 24.47 0 0 0 .865 6.446 128.247 128.247 0 0 0 47.274-.294Z"/><path class="cls-7" d="M254.8 211.6q-.037-.656-.109-1.3a119.883 119.883 0 0 1-24.308 2.659v8.531a128.1 128.1 0 0 0 23.679-2.346c.119-.458.222-.922.314-1.39.024-.12.043-.241.064-.36q.094-.518.167-1.042a30.702 30.702 0 0 0 .159-1.477c.011-.144.025-.288.033-.433.028-.479.046-.96.046-1.446q0-.681-.039-1.351Z"/><circle class="cls-3" cx="230.385" cy="440.375" r="24.46"/><path class="cls-2" d="M230.385 464.835v-48.92a24.46 24.46 0 0 0 0 48.92Z"/><path class="cls-4" d="M254.667 437.475a24.454 24.454 0 0 0-48.565 0Z"/><path class="cls-5" d="M230.385 415.915a24.46 24.46 0 0 0-24.283 21.56h24.283Z"/><path class="cls-6" d="M206.705 434.227a24.474 24.474 0 0 0-.629 8.844 119.7 119.7 0 0 1 48.652-.321 24.85 24.85 0 0 0 .116-2.375 24.475 24.475 0 0 0-.864-6.446 128.253 128.253 0 0 0-47.275.298Z"/><path class="cls-7" d="M205.967 441.769q.039.656.109 1.3a119.82 119.82 0 0 1 24.309-2.658v-8.532a128.192 128.192 0 0 0-23.68 2.346c-.118.458-.221.922-.314 1.39-.023.12-.042.241-.064.361q-.094.516-.167 1.041a28.225 28.225 0 0 0-.158 1.477c-.011.145-.024.288-.033.433-.028.479-.046.96-.046 1.446 0 .454.014.9.039 1.352Z"/><circle class="cls-3" cx="230.385" cy="389.252" r="24.46"/><path class="cls-2" d="M230.385 413.711v-48.919a24.46 24.46 0 1 0 0 48.919Z"/><path class="cls-4" d="M254.667 386.351a24.455 24.455 0 0 0-48.565 0Z"/><path class="cls-5" d="M230.385 364.792a24.46 24.46 0 0 0-24.285 21.559h24.283Z"/><path class="cls-6" d="M206.705 383.1a24.468 24.468 0 0 0-.629 8.843 119.7 119.7 0 0 1 48.652-.32c.075-.782.116-1.574.116-2.375a24.469 24.469 0 0 0-.864-6.446 128.21 128.21 0 0 0-47.275.298Z"/><path class="cls-7" d="M205.967 390.646q.039.656.109 1.3a119.963 119.963 0 0 1 24.309-2.658v-8.531a128.106 128.106 0 0 0-23.68 2.346c-.118.458-.221.922-.314 1.39-.023.119-.042.24-.064.36q-.094.518-.167 1.041a28.225 28.225 0 0 0-.158 1.478c-.011.144-.024.288-.033.433-.028.478-.046.96-.046 1.446 0 .453.014.9.039 1.351Z"/><circle class="cls-3" cx="230.385" cy="338.128" r="24.46"/><path class="cls-2" d="M230.385 362.588v-48.919a24.46 24.46 0 1 0 0 48.919Z"/><path class="cls-4" d="M254.667 335.228a24.455 24.455 0 0 0-48.565 0Z"/><path class="cls-5" d="M230.385 313.669a24.459 24.459 0 0 0-24.285 21.559h24.283Z"/><path class="cls-6" d="M206.705 331.981a24.468 24.468 0 0 0-.629 8.843 119.7 119.7 0 0 1 48.652-.321 24.85 24.85 0 0 0 .116-2.375 24.475 24.475 0 0 0-.864-6.446 128.231 128.231 0 0 0-47.275.299Z"/><path class="cls-7" d="M205.967 339.523q.039.654.109 1.3a119.892 119.892 0 0 1 24.309-2.658v-8.532a128.193 128.193 0 0 0-23.68 2.347c-.118.458-.221.922-.314 1.39-.023.119-.042.24-.064.36a23.75 23.75 0 0 0-.325 2.519c-.011.144-.024.287-.033.432-.028.479-.046.96-.046 1.446 0 .454.014.905.039 1.352Z"/><circle class="cls-3" cx="230.385" cy="287.005" r="24.46"/><path class="cls-2" d="M230.385 311.465v-48.92a24.46 24.46 0 0 0 0 48.92Z"/><path class="cls-4" d="M254.667 284.1a24.455 24.455 0 0 0-48.565 0Z"/><path class="cls-5" d="M230.385 262.545A24.46 24.46 0 0 0 206.1 284.1h24.283Z"/><path class="cls-6" d="M206.705 280.857a24.474 24.474 0 0 0-.629 8.844 119.687 119.687 0 0 1 48.652-.321c.075-.782.116-1.574.116-2.375a24.469 24.469 0 0 0-.864-6.446 128.253 128.253 0 0 0-47.275.298Z"/><path class="cls-7" d="M205.967 288.4q.039.656.109 1.3a119.893 119.893 0 0 1 24.309-2.659v-8.531a128.192 128.192 0 0 0-23.68 2.346c-.118.458-.221.922-.314 1.39-.023.12-.042.241-.064.36q-.094.517-.167 1.042a28.225 28.225 0 0 0-.158 1.477c-.011.144-.024.288-.033.433-.028.479-.046.96-.046 1.446 0 .454.014.9.039 1.351Z"/><circle class="cls-3" cx="91.49" cy="440.375" r="24.46"/><path class="cls-2" d="M91.49 464.835v-48.92a24.46 24.46 0 0 0 0 48.92Z"/><path class="cls-4" d="M115.773 437.475a24.454 24.454 0 0 0-48.565 0Z"/><path class="cls-5" d="M91.49 415.915a24.459 24.459 0 0 0-24.282 21.56H91.49Z"/><path class="cls-6" d="M67.811 434.227a24.488 24.488 0 0 0-.78 6.148 24.741 24.741 0 0 0 .151 2.7 119.7 119.7 0 0 1 48.651-.321c.076-.782.117-1.573.117-2.375a24.475 24.475 0 0 0-.865-6.446 128.247 128.247 0 0 0-47.274.294Z"/><path class="cls-7" d="M67.073 441.769q.039.656.109 1.3a119.811 119.811 0 0 1 24.308-2.658v-8.532a128.19 128.19 0 0 0-23.679 2.346c-.119.458-.222.922-.314 1.39-.023.12-.043.241-.064.361q-.094.516-.167 1.041a30.702 30.702 0 0 0-.159 1.477c-.011.145-.025.288-.033.433-.028.479-.046.96-.046 1.446q0 .681.039 1.352Z"/><circle class="cls-3" cx="91.49" cy="389.252" r="24.46"/><path class="cls-2" d="M91.49 413.711v-48.919a24.46 24.46 0 0 0 0 48.919Z"/><path class="cls-4" d="M115.773 386.351a24.455 24.455 0 0 0-48.565 0Z"/><path class="cls-5" d="M91.49 364.792a24.459 24.459 0 0 0-24.282 21.559H91.49Z"/><path class="cls-6" d="M67.811 383.1a24.476 24.476 0 0 0-.78 6.148 24.723 24.723 0 0 0 .151 2.695 119.7 119.7 0 0 1 48.651-.32c.076-.782.117-1.574.117-2.375a24.47 24.47 0 0 0-.865-6.446 128.2 128.2 0 0 0-47.274.298Z"/><path class="cls-7" d="M67.073 390.646q.039.656.109 1.3a119.953 119.953 0 0 1 24.308-2.658v-8.531a128.1 128.1 0 0 0-23.679 2.343c-.119.458-.222.922-.314 1.39-.023.119-.043.24-.064.36q-.094.518-.167 1.041a30.702 30.702 0 0 0-.159 1.478c-.011.144-.025.288-.033.433-.028.478-.046.96-.046 1.446q0 .679.039 1.351Z"/><circle class="cls-3" cx="91.49" cy="338.128" r="24.46"/><path class="cls-2" d="M91.49 362.588v-48.919a24.46 24.46 0 0 0 0 48.919Z"/><path class="cls-4" d="M115.773 335.228a24.455 24.455 0 0 0-48.565 0Z"/><path class="cls-5" d="M91.49 313.669a24.458 24.458 0 0 0-24.282 21.559H91.49Z"/><path class="cls-6" d="M67.811 331.981a24.474 24.474 0 0 0-.78 6.147 24.741 24.741 0 0 0 .151 2.7 119.7 119.7 0 0 1 48.651-.321c.076-.782.117-1.573.117-2.375a24.475 24.475 0 0 0-.865-6.446 128.226 128.226 0 0 0-47.274.295Z"/><path class="cls-7" d="M67.073 339.523q.039.654.109 1.3a119.882 119.882 0 0 1 24.308-2.658v-8.532a128.191 128.191 0 0 0-23.679 2.347c-.119.458-.222.922-.314 1.39-.023.119-.043.24-.064.36a23.75 23.75 0 0 0-.326 2.519c-.011.144-.025.287-.033.432-.028.479-.046.96-.046 1.446q0 .681.039 1.352Z"/><circle class="cls-3" cx="91.49" cy="287.005" r="24.46"/><path class="cls-2" d="M91.49 311.465v-48.92a24.46 24.46 0 0 0 0 48.92Z"/><path class="cls-4" d="M115.773 284.1a24.455 24.455 0 0 0-48.565 0Z"/><path class="cls-5" d="M91.49 262.545A24.459 24.459 0 0 0 67.208 284.1H91.49Z"/><path class="cls-6" d="M67.811 280.857a24.482 24.482 0 0 0-.78 6.148 24.756 24.756 0 0 0 .151 2.7 119.682 119.682 0 0 1 48.651-.321c.076-.782.117-1.574.117-2.375a24.47 24.47 0 0 0-.865-6.446 128.247 128.247 0 0 0-47.274.294Z"/><path class="cls-7" d="M67.073 288.4q.039.656.109 1.3a119.883 119.883 0 0 1 24.308-2.659v-8.531a128.19 128.19 0 0 0-23.679 2.346c-.119.458-.222.922-.314 1.39-.023.12-.043.241-.064.36q-.094.517-.167 1.042a30.702 30.702 0 0 0-.159 1.477c-.011.144-.025.288-.033.433-.028.479-.046.96-.046 1.446q0 .681.039 1.351Z"/><path d="M301.872 376.152a1.25 1.25 0 0 1-1.25-1.25V45.382a24.156 24.156 0 0 0-24.13-24.13H53.422a1.25 1.25 0 0 1 0-2.5h223.07a26.66 26.66 0 0 1 26.63 26.63V374.9a1.249 1.249 0 0 1-1.25 1.252Zm-33.42 105.1H45.382a26.665 26.665 0 0 1-26.63-26.64v-329.52a1.25 1.25 0 0 1 2.5 0v329.52a24.162 24.162 0 0 0 24.13 24.14h223.07a1.25 1.25 0 0 1 0 2.5Z"/></svg>