<svg id="Layer_1" data-name="Layer 1" xmlns="http://www.w3.org/2000/svg" viewBox="0 0 321.875 500"><defs><style>.cls-2{fill:#ef870a}.cls-3{fill:#ffc306}.cls-4{fill:#d90000}.cls-5{fill:#a50404}.cls-6{fill:#05703d}.cls-7{fill:#02592d}</style></defs><path style="fill:#fff" d="M0 0h321.875v500H0z"/><path d="M268.453 481.248H45.383a26.66 26.66 0 0 1-26.63-26.631V125.1a1.25 1.25 0 0 1 2.5 0v329.517a24.157 24.157 0 0 0 24.13 24.131h223.07a1.25 1.25 0 0 1 0 2.5Zm33.42-105.091a1.249 1.249 0 0 1-1.25-1.25V45.388a24.162 24.162 0 0 0-24.13-24.14H53.423a1.25 1.25 0 0 1 0-2.5h223.07a26.665 26.665 0 0 1 26.63 26.64v329.519a1.25 1.25 0 0 1-1.25 1.25Z"/><path class="cls-2" d="M25.29 103.5a3.625 3.625 0 1 0 3.626 3.625 3.624 3.624 0 0 0-3.626-3.625Zm0 5.316a1.689 1.689 0 1 1 1.687-1.691 1.692 1.692 0 0 1-1.687 1.689Z"/><circle class="cls-3" cx="25.29" cy="92.994" r="14.129"/><path class="cls-2" d="M25.29 78.865v28.258a14.129 14.129 0 0 0 0-28.258Z"/><path class="cls-4" d="M11.264 94.67a14.126 14.126 0 0 0 28.053 0Z"/><path class="cls-5" d="M25.29 107.123A14.128 14.128 0 0 0 39.317 94.67H25.29Z"/><path class="cls-6" d="M38.969 96.545a14.133 14.133 0 0 0 .45-3.551 14.308 14.308 0 0 0-.087-1.557 69.138 69.138 0 0 1-28.1.185c-.044.452-.068.909-.068 1.372a14.122 14.122 0 0 0 .5 3.724 74.071 74.071 0 0 0 27.305-.173Z"/><path class="cls-7" d="M39.4 92.189q-.023-.378-.063-.752a69.183 69.183 0 0 1-14.047 1.535V97.9a73.993 73.993 0 0 0 13.679-1.356q.1-.4.181-.8c.014-.069.025-.138.037-.208.036-.2.069-.4.1-.6.012-.088.023-.177.033-.266q.035-.293.057-.588c.006-.083.014-.166.019-.25.016-.276.026-.554.026-.835q0-.393-.022-.781Z"/><path class="cls-2" d="M296.585 396.5a3.625 3.625 0 1 0-3.625-3.625 3.624 3.624 0 0 0 3.625 3.625Zm0-5.316a1.689 1.689 0 1 1-1.687 1.691 1.692 1.692 0 0 1 1.687-1.689Z"/><circle class="cls-3" cx="296.585" cy="407.006" r="14.129"/><path class="cls-2" d="M296.585 421.135v-28.258a14.129 14.129 0 1 0 0 28.258Z"/><path class="cls-4" d="M310.612 405.33a14.126 14.126 0 0 0-28.054 0Z"/><path class="cls-5" d="M296.585 392.877a14.128 14.128 0 0 0-14.027 12.453h14.027Z"/><path class="cls-6" d="M282.906 403.455a14.156 14.156 0 0 0-.363 5.108 69.138 69.138 0 0 1 28.1-.185c.044-.452.068-.909.068-1.372a14.122 14.122 0 0 0-.5-3.724 74.071 74.071 0 0 0-27.305.173Z"/><path class="cls-7" d="M282.48 407.811q.022.378.063.752a69.183 69.183 0 0 1 14.042-1.535V402.1a74 74 0 0 0-13.679 1.356q-.1.4-.181.8c-.014.069-.025.138-.037.208-.036.2-.069.4-.1.6-.012.088-.023.177-.033.266q-.034.292-.057.588c-.006.083-.014.166-.019.25a14.41 14.41 0 0 0-.004 1.616Z"/><circle class="cls-3" cx="91.49" cy="93.813" r="26.035"/><path class="cls-2" d="M91.491 67.778v52.07a26.035 26.035 0 0 0 0-52.07Z"/><path class="cls-4" d="M65.644 96.9a26.03 26.03 0 0 0 51.693 0Z"/><path class="cls-5" d="M91.49 119.848A26.034 26.034 0 0 0 117.337 96.9H91.49Z"/><path class="cls-6" d="M116.7 100.357a26.038 26.038 0 0 0 .669-9.413 127.389 127.389 0 0 1-51.784.341 26.4 26.4 0 0 0-.124 2.528 26.05 26.05 0 0 0 .92 6.861 136.473 136.473 0 0 0 50.319-.317Z"/><path class="cls-7" d="M117.48 92.329q-.04-.7-.116-1.384a127.6 127.6 0 0 1-25.874 2.828v9.081a136.43 136.43 0 0 0 25.205-2.5c.126-.488.235-.982.334-1.48.025-.127.045-.256.068-.383q.1-.55.178-1.108a20.447 20.447 0 0 0 .162-1.573c.012-.154.026-.306.035-.461.03-.509.049-1.022.049-1.539q0-.725-.041-1.438c.003-.013.001-.028 0-.043Z"/><circle class="cls-3" cx="91.49" cy="205.297" r="26.035"/><path class="cls-2" d="M91.491 179.262v52.07a26.035 26.035 0 0 0 0-52.07Z"/><path class="cls-4" d="M65.644 208.384a26.03 26.03 0 0 0 51.693 0Z"/><path class="cls-5" d="M91.49 231.332a26.034 26.034 0 0 0 25.846-22.948H91.49Z"/><path class="cls-6" d="M116.7 211.841a26.038 26.038 0 0 0 .669-9.413 127.407 127.407 0 0 1-51.784.341 26.4 26.4 0 0 0-.124 2.528 26.05 26.05 0 0 0 .92 6.861 136.5 136.5 0 0 0 50.319-.317Z"/><path class="cls-7" d="M117.48 203.813q-.04-.7-.116-1.384a127.6 127.6 0 0 1-25.874 2.829v9.081a136.43 136.43 0 0 0 25.205-2.5c.126-.488.235-.982.334-1.48.025-.127.045-.256.068-.383q.1-.551.178-1.108a20.447 20.447 0 0 0 .162-1.573c.012-.154.026-.306.035-.461.03-.509.049-1.022.049-1.539q0-.725-.041-1.438c.003-.014.001-.029 0-.044Z"/><circle class="cls-3" cx="91.49" cy="149.555" r="26.035"/><path class="cls-2" d="M91.491 123.52v52.07a26.035 26.035 0 0 0 0-52.07Z"/><path class="cls-4" d="M65.644 152.642a26.03 26.03 0 0 0 51.693 0Z"/><path class="cls-5" d="M91.49 175.59a26.034 26.034 0 0 0 25.846-22.948H91.49Z"/><path class="cls-6" d="M116.7 156.1a26.038 26.038 0 0 0 .669-9.413 127.407 127.407 0 0 1-51.784.341 26.4 26.4 0 0 0-.124 2.528 26.05 26.05 0 0 0 .92 6.861 136.5 136.5 0 0 0 50.319-.317Z"/><path class="cls-7" d="M117.48 148.071q-.04-.7-.116-1.384a127.6 127.6 0 0 1-25.874 2.829v9.084a136.43 136.43 0 0 0 25.205-2.5c.126-.488.235-.982.334-1.48.025-.127.045-.256.068-.383q.1-.55.178-1.108a20.447 20.447 0 0 0 .162-1.573c.012-.154.026-.306.035-.461.03-.509.049-1.022.049-1.539q0-.725-.041-1.438c.003-.018.001-.032 0-.047Z"/><circle class="cls-3" cx="230.385" cy="93.813" r="26.035"/><path class="cls-2" d="M230.385 67.778v52.07a26.035 26.035 0 0 0 0-52.07Z"/><path class="cls-4" d="M204.538 96.9a26.03 26.03 0 0 0 51.693 0Z"/><path class="cls-5" d="M230.385 119.848A26.034 26.034 0 0 0 256.231 96.9h-25.846Z"/><path class="cls-6" d="M255.589 100.357a26.05 26.05 0 0 0 .83-6.544 26.4 26.4 0 0 0-.16-2.869 127.394 127.394 0 0 1-51.785.341 26.4 26.4 0 0 0-.124 2.528 26.05 26.05 0 0 0 .92 6.861 136.473 136.473 0 0 0 50.319-.317Z"/><path class="cls-7" d="M256.375 92.329q-.042-.7-.116-1.384a127.616 127.616 0 0 1-25.874 2.829v9.081a136.419 136.419 0 0 0 25.2-2.5c.126-.488.236-.982.334-1.48.025-.127.045-.256.069-.383a26.903 26.903 0 0 0 .24-1.598q.063-.538.1-1.083c.012-.154.026-.306.035-.461.03-.509.049-1.022.049-1.539q0-.725-.041-1.438c.006-.014.004-.029.004-.044Z"/><circle class="cls-3" cx="230.385" cy="205.297" r="26.035"/><path class="cls-2" d="M230.385 179.262v52.07a26.035 26.035 0 0 0 0-52.07Z"/><path class="cls-4" d="M204.538 208.384a26.03 26.03 0 0 0 51.693 0Z"/><path class="cls-5" d="M230.385 231.332a26.034 26.034 0 0 0 25.846-22.948h-25.846Z"/><path class="cls-6" d="M255.589 211.841a26.05 26.05 0 0 0 .83-6.544 26.4 26.4 0 0 0-.16-2.869 127.412 127.412 0 0 1-51.785.341 26.4 26.4 0 0 0-.124 2.528 26.05 26.05 0 0 0 .92 6.861 136.5 136.5 0 0 0 50.319-.317Z"/><path class="cls-7" d="M256.375 203.813q-.042-.7-.116-1.384a127.616 127.616 0 0 1-25.874 2.829v9.081a136.419 136.419 0 0 0 25.2-2.5c.126-.488.236-.982.334-1.48.025-.127.045-.256.069-.383a26.903 26.903 0 0 0 .24-1.598q.063-.538.1-1.083c.012-.154.026-.306.035-.461.03-.509.049-1.022.049-1.539q0-.725-.041-1.438c.006-.014.004-.029.004-.044Z"/><circle class="cls-3" cx="230.385" cy="149.555" r="26.035"/><path class="cls-2" d="M230.385 123.52v52.07a26.035 26.035 0 0 0 0-52.07Z"/><path class="cls-4" d="M204.538 152.642a26.03 26.03 0 0 0 51.693 0Z"/><path class="cls-5" d="M230.385 175.59a26.034 26.034 0 0 0 25.846-22.948h-25.846Z"/><path class="cls-6" d="M255.589 156.1a26.05 26.05 0 0 0 .83-6.544 26.4 26.4 0 0 0-.16-2.869 127.412 127.412 0 0 1-51.785.341 26.4 26.4 0 0 0-.124 2.528 26.05 26.05 0 0 0 .92 6.861 136.5 136.5 0 0 0 50.319-.317Z"/><path class="cls-7" d="M256.375 148.071q-.042-.7-.116-1.384a127.616 127.616 0 0 1-25.874 2.829v9.084a136.419 136.419 0 0 0 25.2-2.5c.126-.488.236-.982.334-1.48.025-.127.045-.256.069-.383a26.903 26.903 0 0 0 .24-1.598q.063-.539.1-1.083c.012-.154.026-.306.035-.461.03-.509.049-1.022.049-1.539q0-.725-.041-1.438c.006-.018.004-.032.004-.047Z"/><circle class="cls-3" cx="230.385" cy="406.187" r="26.035"/><path class="cls-2" d="M230.385 432.222v-52.07a26.035 26.035 0 0 0 0 52.07Z"/><path class="cls-4" d="M256.231 403.1a26.03 26.03 0 0 0-51.693 0Z"/><path class="cls-5" d="M230.385 380.152a26.034 26.034 0 0 0-25.847 22.948h25.847Z"/><path class="cls-6" d="M205.18 399.643a26.038 26.038 0 0 0-.669 9.413 127.389 127.389 0 0 1 51.784-.341 26.4 26.4 0 0 0 .124-2.528 26.05 26.05 0 0 0-.92-6.861 136.473 136.473 0 0 0-50.319.317Z"/><path class="cls-7" d="M204.4 407.671q.04.7.116 1.384a127.6 127.6 0 0 1 25.874-2.829v-9.081a136.43 136.43 0 0 0-25.2 2.5c-.126.488-.235.982-.334 1.48-.025.127-.045.256-.068.383q-.1.551-.178 1.108a20.447 20.447 0 0 0-.162 1.573c-.011.154-.026.306-.035.461a26.14 26.14 0 0 0-.049 1.539q0 .725.042 1.438c-.014.014-.012.029-.006.044Z"/><circle class="cls-3" cx="230.385" cy="294.703" r="26.035"/><path class="cls-2" d="M230.385 320.738v-52.07a26.035 26.035 0 0 0 0 52.07Z"/><path class="cls-4" d="M256.231 291.616a26.03 26.03 0 0 0-51.693 0Z"/><path class="cls-5" d="M230.385 268.668a26.034 26.034 0 0 0-25.847 22.948h25.847Z"/><path class="cls-6" d="M205.18 288.159a26.038 26.038 0 0 0-.669 9.413 127.407 127.407 0 0 1 51.784-.341 26.4 26.4 0 0 0 .124-2.528 26.05 26.05 0 0 0-.92-6.861 136.5 136.5 0 0 0-50.319.317Z"/><path class="cls-7" d="M204.4 296.187q.04.7.116 1.384a127.6 127.6 0 0 1 25.874-2.829v-9.081a136.43 136.43 0 0 0-25.2 2.5c-.126.488-.235.982-.334 1.48-.025.127-.045.256-.068.383q-.1.55-.178 1.109a20.447 20.447 0 0 0-.162 1.572c-.011.154-.026.307-.035.461a26.14 26.14 0 0 0-.049 1.539q0 .725.042 1.438c-.014.014-.012.029-.006.044Z"/><circle class="cls-3" cx="230.385" cy="350.445" r="26.035"/><path class="cls-2" d="M230.385 376.48v-52.07a26.035 26.035 0 1 0 0 52.07Z"/><path class="cls-4" d="M256.231 347.358a26.03 26.03 0 0 0-51.693 0Z"/><path class="cls-5" d="M230.385 324.41a26.034 26.034 0 0 0-25.847 22.948h25.847Z"/><path class="cls-6" d="M205.18 343.9a26.038 26.038 0 0 0-.669 9.413 127.407 127.407 0 0 1 51.784-.341 26.4 26.4 0 0 0 .124-2.528 26.05 26.05 0 0 0-.92-6.861 136.5 136.5 0 0 0-50.319.317Z"/><path class="cls-7" d="M204.4 351.929q.04.7.116 1.384a127.6 127.6 0 0 1 25.874-2.829V341.4a136.43 136.43 0 0 0-25.2 2.5c-.126.488-.235.982-.334 1.48-.025.127-.045.256-.068.383q-.1.55-.178 1.108a20.447 20.447 0 0 0-.162 1.573c-.011.154-.026.306-.035.461a26.14 26.14 0 0 0-.049 1.539q0 .724.042 1.438c-.014.018-.012.032-.006.047Z"/><circle class="cls-3" cx="91.49" cy="406.187" r="26.035"/><path class="cls-2" d="M91.49 432.222v-52.07a26.035 26.035 0 0 0 0 52.07Z"/><path class="cls-4" d="M117.337 403.1a26.03 26.03 0 0 0-51.693 0Z"/><path class="cls-5" d="M91.49 380.152A26.034 26.034 0 0 0 65.644 403.1H91.49Z"/><path class="cls-6" d="M66.286 399.643a26.1 26.1 0 0 0-.83 6.544 26.4 26.4 0 0 0 .16 2.869 127.394 127.394 0 0 1 51.785-.341 26.4 26.4 0 0 0 .124-2.528 26.05 26.05 0 0 0-.92-6.861 136.473 136.473 0 0 0-50.319.317Z"/><path class="cls-7" d="M65.5 407.671q.042.7.116 1.384a127.616 127.616 0 0 1 25.874-2.829v-9.081a136.419 136.419 0 0 0-25.2 2.5c-.126.488-.236.982-.334 1.48-.025.127-.045.256-.069.383a26.903 26.903 0 0 0-.24 1.598q-.063.539-.1 1.083c-.012.154-.026.306-.035.461a26.14 26.14 0 0 0-.049 1.539q0 .725.041 1.438c-.004.014-.004.029-.004.044Z"/><circle class="cls-3" cx="91.49" cy="294.703" r="26.035"/><path class="cls-2" d="M91.49 320.738v-52.07a26.035 26.035 0 0 0 0 52.07Z"/><path class="cls-4" d="M117.337 291.616a26.03 26.03 0 0 0-51.693 0Z"/><path class="cls-5" d="M91.49 268.668a26.034 26.034 0 0 0-25.846 22.948H91.49Z"/><path class="cls-6" d="M66.286 288.159a26.1 26.1 0 0 0-.83 6.544 26.4 26.4 0 0 0 .16 2.869 127.412 127.412 0 0 1 51.785-.341 26.4 26.4 0 0 0 .124-2.528 26.05 26.05 0 0 0-.92-6.861 136.5 136.5 0 0 0-50.319.317Z"/><path class="cls-7" d="M65.5 296.187q.042.7.116 1.384a127.616 127.616 0 0 1 25.874-2.829v-9.081a136.419 136.419 0 0 0-25.2 2.5c-.126.488-.236.982-.334 1.48-.025.127-.045.256-.069.383-.066.367-.126.736-.177 1.109-.023.162-.043.326-.063.489q-.063.538-.1 1.083c-.012.154-.026.307-.035.461a26.14 26.14 0 0 0-.049 1.539q0 .725.041 1.438c-.004.014-.004.029-.004.044Z"/><circle class="cls-3" cx="91.49" cy="350.445" r="26.035"/><path class="cls-2" d="M91.49 376.48v-52.07a26.035 26.035 0 0 0 0 52.07Z"/><path class="cls-4" d="M117.337 347.358a26.03 26.03 0 0 0-51.693 0Z"/><path class="cls-5" d="M91.49 324.41a26.034 26.034 0 0 0-25.846 22.948H91.49Z"/><path class="cls-6" d="M66.286 343.9a26.1 26.1 0 0 0-.83 6.544 26.4 26.4 0 0 0 .16 2.869 127.412 127.412 0 0 1 51.785-.341 26.4 26.4 0 0 0 .124-2.528 26.05 26.05 0 0 0-.92-6.861 136.5 136.5 0 0 0-50.319.317Z"/><path class="cls-7" d="M65.5 351.929q.042.7.116 1.384a127.616 127.616 0 0 1 25.874-2.829V341.4a136.419 136.419 0 0 0-25.2 2.5c-.126.488-.236.982-.334 1.48-.025.127-.045.256-.069.383a26.903 26.903 0 0 0-.24 1.598q-.063.538-.1 1.083c-.012.154-.026.306-.035.461a26.14 26.14 0 0 0-.049 1.539q0 .724.041 1.438c-.004.018-.004.032-.004.047Z"/><path d="M13.776 21.167h30.617L18.567 70.653l-4-2.048 22.289-42.844h-23.08ZM308.1 478.833h-30.618l25.826-49.486 4 2.048-22.287 42.844H308.1Z"/><circle class="cls-3" cx="160.938" cy="74.064" r="26.035"/><path class="cls-2" d="M160.938 48.029V100.1a26.035 26.035 0 0 0 0-52.069Z"/><path class="cls-4" d="M135.091 77.151a26.03 26.03 0 0 0 51.693 0Z"/><path class="cls-5" d="M160.937 100.1a26.034 26.034 0 0 0 25.846-22.947h-25.846Z"/><path class="cls-6" d="M186.142 80.607a26.088 26.088 0 0 0 .83-6.543 26.414 26.414 0 0 0-.16-2.87 127.412 127.412 0 0 1-51.785.342 26.4 26.4 0 0 0-.124 2.528 26.055 26.055 0 0 0 .92 6.861 136.5 136.5 0 0 0 50.319-.318Z"/><path class="cls-7" d="M186.927 72.579q-.04-.7-.115-1.384a127.69 127.69 0 0 1-25.875 2.83v9.081a136.423 136.423 0 0 0 25.2-2.5c.126-.487.236-.981.334-1.479.025-.127.045-.256.068-.384q.1-.55.178-1.108c.022-.163.043-.326.062-.49.043-.358.076-.72.1-1.083.012-.153.026-.306.035-.46.03-.51.049-1.022.049-1.539q0-.724-.041-1.439c.008-.014.006-.024.005-.045Z"/><circle class="cls-3" cx="160.938" cy="425.936" r="26.035"/><path class="cls-2" d="M160.937 451.971V399.9a26.035 26.035 0 0 0 0 52.069Z"/><path class="cls-4" d="M186.784 422.849a26.03 26.03 0 0 0-51.693 0Z"/><path class="cls-5" d="M160.938 399.9a26.034 26.034 0 0 0-25.846 22.947h25.847Z"/><path class="cls-6" d="M135.733 419.393a26.038 26.038 0 0 0-.669 9.413 127.407 127.407 0 0 1 51.784-.342 26.4 26.4 0 0 0 .124-2.528 26.055 26.055 0 0 0-.92-6.861 136.5 136.5 0 0 0-50.319.318Z"/><path class="cls-7" d="M134.948 427.421q.04.7.116 1.384a127.673 127.673 0 0 1 25.874-2.83V416.9a136.431 136.431 0 0 0-25.2 2.5c-.126.487-.236.981-.334 1.479-.025.127-.045.256-.068.384q-.1.551-.178 1.108c-.022.163-.043.326-.062.49-.043.358-.076.72-.1 1.083-.012.153-.026.306-.035.46-.03.51-.049 1.022-.049 1.539q0 .724.041 1.439c-.008.008-.006.023-.005.039Z"/></svg>