<svg id="Layer_1" data-name="Layer 1" xmlns="http://www.w3.org/2000/svg" viewBox="0 0 321.875 500"><defs><style>.cls-2{fill:#ff7f00}.cls-3{fill:#ffb200}.cls-4{fill:#d90000}.cls-5{fill:#a50404}.cls-6{fill:#05703d}.cls-7{fill:#035128}.cls-8{fill:#36a9d8}.cls-9{fill:#7d4437}</style></defs><path style="fill:#fff" d="M0 0h321.875v500H0z"/><path d="M268.453 481.248H45.383a26.66 26.66 0 0 1-26.63-26.631V125.1a1.25 1.25 0 0 1 2.5 0v329.517a24.157 24.157 0 0 0 24.13 24.131h223.07a1.25 1.25 0 0 1 0 2.5Zm33.42-105.091a1.249 1.249 0 0 1-1.25-1.25V45.388a24.162 24.162 0 0 0-24.13-24.14H53.423a1.25 1.25 0 0 1 0-2.5h223.07a26.665 26.665 0 0 1 26.63 26.64v329.519a1.25 1.25 0 0 1-1.25 1.25ZM25.964 21.167 46.57 70.653H41.8l-6.95-16.282H15.817L8.933 70.653H4.007l20.876-49.486Zm-.558 10.513-7.572 17.914H32.94Z"/><path class="cls-2" d="M25.29 103.5a3.625 3.625 0 1 0 3.626 3.625 3.624 3.624 0 0 0-3.626-3.625Zm0 5.316a1.689 1.689 0 1 1 1.687-1.691 1.692 1.692 0 0 1-1.687 1.689Z"/><circle class="cls-3" cx="25.29" cy="92.994" r="14.129"/><path class="cls-2" d="M25.29 78.865v28.258a14.129 14.129 0 0 0 0-28.258Z"/><path class="cls-4" d="M11.264 94.67a14.126 14.126 0 0 0 28.053 0Z"/><path class="cls-5" d="M25.29 107.123A14.128 14.128 0 0 0 39.317 94.67H25.29Z"/><path class="cls-6" d="M38.969 96.545a14.133 14.133 0 0 0 .45-3.551 14.308 14.308 0 0 0-.087-1.557 69.138 69.138 0 0 1-28.1.185c-.044.452-.068.909-.068 1.372a14.122 14.122 0 0 0 .5 3.724 74.071 74.071 0 0 0 27.305-.173Z"/><path class="cls-7" d="M39.4 92.189q-.023-.378-.063-.752a69.183 69.183 0 0 1-14.047 1.535V97.9a73.993 73.993 0 0 0 13.679-1.356q.1-.4.181-.8c.014-.069.025-.138.037-.208.036-.2.069-.4.1-.6.012-.088.023-.177.033-.266q.035-.293.057-.588c.006-.083.014-.166.019-.25.016-.276.026-.554.026-.835q0-.393-.022-.781Z"/><path d="m295.911 478.833-20.606-49.486h4.769l6.951 16.282h19.033l6.884-16.282h4.926l-20.876 49.486Zm.558-10.513 7.572-17.914h-15.106Z"/><path class="cls-2" d="M296.585 396.5a3.625 3.625 0 1 0-3.625-3.625 3.624 3.624 0 0 0 3.625 3.625Zm0-5.316a1.689 1.689 0 1 1-1.687 1.691 1.692 1.692 0 0 1 1.687-1.689Z"/><circle class="cls-3" cx="296.585" cy="407.006" r="14.129"/><path class="cls-2" d="M296.585 421.135v-28.258a14.129 14.129 0 1 0 0 28.258Z"/><path class="cls-4" d="M310.612 405.33a14.126 14.126 0 0 0-28.054 0Z"/><path class="cls-5" d="M296.585 392.877a14.128 14.128 0 0 0-14.027 12.453h14.027Z"/><path class="cls-6" d="M282.906 403.455a14.156 14.156 0 0 0-.363 5.108 69.138 69.138 0 0 1 28.1-.185c.044-.452.068-.909.068-1.372a14.122 14.122 0 0 0-.5-3.724 74.071 74.071 0 0 0-27.305.173Z"/><path class="cls-7" d="M282.48 407.811q.022.378.063.752a69.183 69.183 0 0 1 14.042-1.535V402.1a74 74 0 0 0-13.679 1.356q-.1.4-.181.8c-.014.069-.025.138-.037.208-.036.2-.069.4-.1.6-.012.088-.023.177-.033.266q-.034.292-.057.588c-.006.083-.014.166-.019.25a14.41 14.41 0 0 0-.004 1.616Z"/><path class="cls-8" d="M160.938 96.3a8.862 8.862 0 1 0 8.861 8.862 8.86 8.86 0 0 0-8.861-8.862Zm0 12.995a4.129 4.129 0 1 1 4.123-4.133 4.134 4.134 0 0 1-4.123 4.132Z"/><circle class="cls-3" cx="160.938" cy="70.624" r="34.537"/><path class="cls-2" d="M160.938 36.087v69.074a34.537 34.537 0 0 0 0-69.074Z"/><path class="cls-4" d="M126.65 74.719a34.53 34.53 0 0 0 68.575 0Z"/><path class="cls-5" d="M160.937 105.161a34.537 34.537 0 0 0 34.287-30.442h-34.287Z"/><path class="cls-6" d="M194.373 79.305a34.571 34.571 0 0 0 .888-12.487 169.025 169.025 0 0 1-68.7.452 35.005 35.005 0 0 0-.164 3.354 34.577 34.577 0 0 0 1.22 9.1 181.046 181.046 0 0 0 66.756-.419Z"/><path class="cls-7" d="M195.415 68.655q-.054-.924-.154-1.836a169.329 169.329 0 0 1-34.324 3.753v12.045a180.949 180.949 0 0 0 33.436-3.312c.168-.647.313-1.3.443-1.963.033-.169.06-.34.091-.509a33.828 33.828 0 0 0 .318-2.12c.057-.476.1-.955.138-1.436.015-.2.034-.407.046-.611.04-.676.065-1.356.065-2.042q0-.961-.055-1.908c0-.021-.003-.041-.004-.061Z"/><path class="cls-8" d="M160.938 181.5a8.862 8.862 0 1 0 8.861 8.861 8.859 8.859 0 0 0-8.861-8.861Zm0 13a4.129 4.129 0 1 1 4.123-4.134 4.134 4.134 0 0 1-4.123 4.134Z"/><circle class="cls-3" cx="160.938" cy="155.824" r="34.537"/><path class="cls-2" d="M160.938 121.287v69.074a34.537 34.537 0 0 0 0-69.074Z"/><path class="cls-4" d="M126.65 159.92a34.531 34.531 0 0 0 68.575 0Z"/><path class="cls-5" d="M160.937 190.361a34.536 34.536 0 0 0 34.287-30.441h-34.287Z"/><path class="cls-6" d="M194.373 164.505a34.571 34.571 0 0 0 .888-12.487 169.025 169.025 0 0 1-68.7.453 35 35 0 0 0-.164 3.353 34.584 34.584 0 0 0 1.22 9.1 181.068 181.068 0 0 0 66.756-.419Z"/><path class="cls-7" d="M195.415 153.855q-.054-.924-.154-1.836a169.258 169.258 0 0 1-34.324 3.753v12.047a181.036 181.036 0 0 0 33.436-3.313c.168-.647.313-1.3.443-1.963.033-.169.06-.339.091-.509q.133-.729.236-1.47a34.844 34.844 0 0 0 .22-2.086c.015-.2.034-.406.046-.611.04-.676.065-1.356.065-2.042q0-.96-.055-1.908c0-.017-.003-.041-.004-.062Z"/><path class="cls-8" d="M160.937 403.7a8.862 8.862 0 1 0-8.861-8.862 8.86 8.86 0 0 0 8.861 8.862Zm0-13a4.129 4.129 0 1 1-4.123 4.133 4.134 4.134 0 0 1 4.123-4.127Z"/><circle class="cls-3" cx="160.938" cy="429.376" r="34.537"/><path class="cls-2" d="M160.937 463.913v-69.074a34.537 34.537 0 0 0 0 69.074Z"/><path class="cls-4" d="M195.225 425.281a34.53 34.53 0 0 0-68.574 0Z"/><path class="cls-5" d="M160.938 394.839a34.535 34.535 0 0 0-34.286 30.442h34.287Z"/><path class="cls-6" d="M127.5 420.7a34.565 34.565 0 0 0-.888 12.486 169.025 169.025 0 0 1 68.7-.452c.106-1.1.164-2.222.164-3.354a34.535 34.535 0 0 0-1.22-9.1 181.025 181.025 0 0 0-66.756.42Z"/><path class="cls-7" d="M126.46 431.345q.054.924.154 1.836a169.329 169.329 0 0 1 34.324-3.753v-12.045A180.873 180.873 0 0 0 127.5 420.7c-.167.646-.313 1.3-.443 1.962-.033.169-.06.34-.091.509-.089.487-.168.976-.236 1.47q-.043.324-.082.65c-.056.476-.1.955-.138 1.436-.015.2-.034.407-.046.611-.04.676-.065 1.356-.065 2.042q0 .962.055 1.908a.475.475 0 0 1 .006.057Z"/><path class="cls-8" d="M160.937 318.5a8.862 8.862 0 1 0-8.861-8.861 8.859 8.859 0 0 0 8.861 8.861Zm0-13a4.129 4.129 0 1 1-4.123 4.134 4.134 4.134 0 0 1 4.123-4.129Z"/><circle class="cls-3" cx="160.938" cy="344.176" r="34.537"/><path class="cls-2" d="M160.937 378.713v-69.074a34.537 34.537 0 0 0 0 69.074Z"/><path class="cls-4" d="M195.225 340.08a34.53 34.53 0 0 0-68.574 0Z"/><path class="cls-5" d="M160.938 309.639a34.535 34.535 0 0 0-34.286 30.441h34.287Z"/><path class="cls-6" d="M127.5 335.5a34.571 34.571 0 0 0-.888 12.487 169.025 169.025 0 0 1 68.7-.453c.106-1.1.164-2.221.164-3.353a34.543 34.543 0 0 0-1.22-9.1 181.068 181.068 0 0 0-66.756.419Z"/><path class="cls-7" d="M126.46 346.145q.054.924.154 1.836a169.258 169.258 0 0 1 34.324-3.753v-12.046A181.045 181.045 0 0 0 127.5 335.5c-.167.647-.313 1.3-.443 1.963-.033.169-.06.339-.091.509q-.133.729-.236 1.47-.043.324-.082.649c-.056.476-.1.956-.138 1.437-.015.2-.034.406-.046.611-.04.676-.065 1.356-.065 2.042q0 .962.055 1.908a.341.341 0 0 1 .006.056Z"/><path class="cls-9" d="M180.752 236.39s-39.34-37.326-116.974-22.172c0 0 73-12.6 114.134 28.777Z"/><path class="cls-9" d="M141.123 236.39s39.34-37.326 116.974-22.172c0 0-73-12.6-114.134 28.777Zm-57.459-31.668a17.011 17.011 0 0 1 5.373 6.237S87.815 215.8 81.9 219.5c0 0 6.542-3.367 10.018-7.39.002.002-1.085-4.862-8.254-7.388Zm28.91 0s4.331 2.783 4.983 7.39a65.544 65.544 0 0 1-11.006 7.39 52.715 52.715 0 0 0 14.264-6.526 20.128 20.128 0 0 0-8.241-8.254Zm30.707 5.878s3.606 4.952 2.519 8.9a50.835 50.835 0 0 1-12.6 5 125.606 125.606 0 0 0 14.34-3.469s1.615-7.098-4.259-10.431Z"/><path class="cls-6" d="M65.485 219.5c5.206.121 7.549-3.067 7.566-6.49s-2.3-6.632-7.5-6.559c-6.832.1-14.566 5.837-14.984 6.456.41.622 8.087 6.433 14.918 6.593Zm14.691-13c1.878 3.658 5.12 4.079 7.658 2.8s4.035-4.1 2.013-7.685c-2.653-4.705-9.821-7.9-10.437-7.957-.305.516-1.699 8.042.766 12.842Zm6.872 18.271c2.944-2.925 2.284-6.03.2-7.926s-5.327-2.337-8.153.695c-3.708 3.98-4.456 11.59-4.307 12.171.606.107 8.397-1.102 12.26-4.94Zm24.652 0c2.944-2.925 2.284-6.03.2-7.926s-5.327-2.337-8.153.695c-3.708 3.98-4.456 11.59-4.307 12.171.602.107 8.394-1.102 12.26-4.94Zm27.487 5.829c3.352-2.479 3.165-5.644 1.385-7.815s-4.919-3.063-8.17-.46c-4.266 3.414-6.15 10.837-6.09 11.434.588.19 8.476.093 12.875-3.159Zm-31.202-24.1c1.878 3.658 5.121 4.079 7.658 2.8s4.036-4.1 2.014-7.685c-2.654-4.705-9.821-7.9-10.437-7.957-.305.516-1.7 8.042.765 12.842Zm30.706 5.388c1.878 3.658 5.121 4.079 7.658 2.8s4.036-4.1 2.014-7.685c-2.654-4.705-9.821-7.9-10.437-7.957-.305.519-1.7 8.042.765 12.842Z"/><path class="cls-9" d="M238.211 204.722a17.011 17.011 0 0 0-5.373 6.237s1.223 4.838 7.135 8.543c0 0-6.542-3.367-10.018-7.39 0 0 1.087-4.864 8.256-7.39Zm-28.911 0s-4.331 2.783-4.982 7.39a65.513 65.513 0 0 0 11.005 7.39 52.715 52.715 0 0 1-14.264-6.526 20.128 20.128 0 0 1 8.241-8.254Zm-30.706 5.878s-3.606 4.952-2.519 8.9a50.835 50.835 0 0 0 12.6 5 125.56 125.56 0 0 1-14.339-3.469s-1.616-7.098 4.258-10.431Z"/><path class="cls-6" d="M256.39 219.5c-5.206.121-7.549-3.067-7.566-6.49s2.3-6.632 7.5-6.559c6.833.1 14.566 5.837 14.984 6.456-.408.622-8.087 6.433-14.918 6.593Zm-14.69-13c-1.879 3.658-5.121 4.079-7.658 2.8s-4.036-4.1-2.014-7.685c2.653-4.705 9.821-7.9 10.437-7.957.305.516 1.699 8.042-.765 12.842Zm-6.873 18.271c-2.944-2.925-2.284-6.03-.2-7.926s5.327-2.337 8.153.695c3.708 3.98 4.456 11.59 4.307 12.171-.606.107-8.397-1.102-12.26-4.94Zm-24.649 0c-2.944-2.925-2.284-6.03-.2-7.926s5.327-2.337 8.153.695c3.708 3.98 4.456 11.59 4.307 12.171-.605.107-8.397-1.102-12.26-4.94Zm-27.49 5.829c-3.352-2.479-3.165-5.644-1.385-7.815s4.919-3.063 8.17-.46c4.266 3.414 6.15 10.837 6.09 11.434-.586.19-8.476.093-12.875-3.159Zm31.202-24.1c-1.878 3.658-5.121 4.079-7.658 2.8s-4.036-4.1-2.014-7.685c2.654-4.705 9.821-7.9 10.437-7.957.305.516 1.7 8.042-.765 12.842Zm-30.706 5.388c-1.878 3.658-5.121 4.079-7.658 2.8s-4.036-4.1-2.014-7.685c2.654-4.705 9.821-7.9 10.437-7.957.305.519 1.7 8.042-.765 12.842Z"/><path class="cls-9" d="M180.752 263.61s-39.34 37.326-116.974 22.172c0 0 73 12.6 114.134-28.777Z"/><path class="cls-9" d="M141.123 263.61s39.34 37.326 116.974 22.172c0 0-73 12.6-114.134-28.777Zm-57.459 31.668a17.011 17.011 0 0 0 5.373-6.237S87.815 284.2 81.9 280.5c0 0 6.542 3.367 10.018 7.39.002-.002-1.085 4.862-8.254 7.388Zm28.91 0s4.331-2.783 4.983-7.39a65.544 65.544 0 0 0-11.006-7.39 52.715 52.715 0 0 1 14.264 6.526 20.128 20.128 0 0 1-8.241 8.254Zm30.707-5.878s3.606-4.952 2.519-8.9a50.835 50.835 0 0 0-12.6-5 125.606 125.606 0 0 1 14.34 3.469s1.615 7.098-4.259 10.431Z"/><path class="cls-6" d="M65.485 280.5c5.206-.121 7.549 3.067 7.566 6.49s-2.3 6.632-7.5 6.559c-6.832-.1-14.566-5.837-14.984-6.456.41-.622 8.087-6.433 14.918-6.593Zm14.691 13c1.878-3.658 5.12-4.079 7.658-2.8s4.035 4.1 2.013 7.685c-2.653 4.705-9.821 7.9-10.437 7.957-.305-.516-1.699-8.042.766-12.842Zm6.872-18.271c2.944 2.925 2.284 6.03.2 7.926s-5.327 2.337-8.153-.695c-3.708-3.98-4.456-11.59-4.307-12.171.606-.107 8.397 1.102 12.26 4.94Zm24.652 0c2.944 2.925 2.284 6.03.2 7.926s-5.327 2.337-8.153-.695c-3.708-3.98-4.456-11.59-4.307-12.171.602-.107 8.394 1.102 12.26 4.94Zm27.487-5.829c3.352 2.478 3.165 5.643 1.385 7.814s-4.919 3.063-8.17.461c-4.266-3.415-6.15-10.838-6.09-11.435.588-.189 8.476-.092 12.875 3.16Zm-31.202 24.1c1.878-3.658 5.121-4.079 7.658-2.8s4.036 4.1 2.014 7.685c-2.654 4.705-9.821 7.9-10.437 7.957-.305-.516-1.7-8.042.765-12.842Zm30.706-5.388c1.878-3.658 5.121-4.079 7.658-2.8s4.036 4.1 2.014 7.685c-2.654 4.7-9.821 7.9-10.437 7.957-.305-.519-1.7-8.042.765-12.842Z"/><path class="cls-9" d="M238.211 295.278a17.011 17.011 0 0 1-5.373-6.237s1.223-4.838 7.135-8.543c0 0-6.542 3.367-10.018 7.39 0 0 1.087 4.864 8.256 7.39Zm-28.911 0s-4.331-2.783-4.982-7.39a65.513 65.513 0 0 1 11.005-7.39 52.715 52.715 0 0 0-14.264 6.526 20.128 20.128 0 0 0 8.241 8.254Zm-30.706-5.878s-3.606-4.952-2.519-8.9a50.835 50.835 0 0 1 12.6-5 125.56 125.56 0 0 0-14.339 3.469s-1.616 7.098 4.258 10.431Z"/><path class="cls-6" d="M256.39 280.5c-5.206-.121-7.549 3.067-7.566 6.49s2.3 6.632 7.5 6.559c6.833-.1 14.566-5.837 14.984-6.456-.408-.622-8.087-6.433-14.918-6.593Zm-14.69 13c-1.879-3.658-5.121-4.079-7.658-2.8s-4.036 4.1-2.014 7.685c2.653 4.705 9.821 7.9 10.437 7.957.305-.516 1.699-8.042-.765-12.842Zm-6.873-18.271c-2.944 2.925-2.284 6.03-.2 7.926s5.327 2.337 8.153-.695c3.708-3.98 4.456-11.59 4.307-12.171-.606-.107-8.397 1.102-12.26 4.94Zm-24.649 0c-2.944 2.925-2.284 6.03-.2 7.926s5.327 2.337 8.153-.695c3.708-3.98 4.456-11.59 4.307-12.171-.605-.107-8.397 1.102-12.26 4.94Zm-27.49-5.829c-3.352 2.478-3.165 5.643-1.385 7.814s4.919 3.063 8.17.461c4.266-3.415 6.15-10.838 6.09-11.435-.586-.189-8.476-.092-12.875 3.16Zm31.202 24.1c-1.878-3.658-5.121-4.079-7.658-2.8s-4.036 4.1-2.014 7.685c2.654 4.705 9.821 7.9 10.437 7.957.305-.516 1.7-8.042-.765-12.842Zm-30.706-5.388c-1.878-3.658-5.121-4.079-7.658-2.8s-4.036 4.1-2.014 7.685c2.654 4.7 9.821 7.9 10.437 7.957.305-.519 1.7-8.042-.765-12.842Z"/></svg>