<svg id="Layer_1" data-name="Layer 1" xmlns="http://www.w3.org/2000/svg" viewBox="0 0 321.875 500"><defs><style>.cls-1{fill:#fff}.cls-2{fill:#ef870a}.cls-3{fill:#ffc306}.cls-4{fill:#d90000}.cls-5{fill:#a50404}.cls-6{fill:#05703d}.cls-7{fill:#02592d}.cls-8{fill:#099bdb}.cls-9{fill:#ffb200}.cls-10{fill:#ff7f00}.cls-11{fill:#035128}.cls-12{fill:#f94c10}.cls-13{fill:#f9c9af}</style></defs><path class="cls-1" d="M0 0h321.875v500H0z"/><path d="M268.453 481.248H45.383a26.66 26.66 0 0 1-26.63-26.631V125.1a1.25 1.25 0 0 1 2.5 0v329.517a24.158 24.158 0 0 0 24.13 24.131h223.07a1.25 1.25 0 0 1 0 2.5Zm33.42-105.091a1.249 1.249 0 0 1-1.25-1.25V45.388a24.162 24.162 0 0 0-24.13-24.14H53.423a1.25 1.25 0 0 1 0-2.5h223.07a26.665 26.665 0 0 1 26.63 26.64v329.519a1.25 1.25 0 0 1-1.25 1.25Z"/><path class="cls-2" d="M25.29 103.5a3.625 3.625 0 1 0 3.626 3.625 3.624 3.624 0 0 0-3.626-3.625Zm0 5.316a1.689 1.689 0 1 1 1.687-1.691 1.692 1.692 0 0 1-1.687 1.689Z"/><circle class="cls-3" cx="25.29" cy="92.994" r="14.129"/><path class="cls-2" d="M25.29 78.865v28.258a14.129 14.129 0 0 0 0-28.258Z"/><path class="cls-4" d="M11.264 94.67a14.126 14.126 0 0 0 28.053 0Z"/><path class="cls-5" d="M25.29 107.123A14.128 14.128 0 0 0 39.317 94.67H25.29Z"/><path class="cls-6" d="M38.969 96.545a14.133 14.133 0 0 0 .45-3.551 14.308 14.308 0 0 0-.087-1.557 69.138 69.138 0 0 1-28.1.185c-.044.452-.068.909-.068 1.372a14.122 14.122 0 0 0 .5 3.724 74.071 74.071 0 0 0 27.305-.173Z"/><path class="cls-7" d="M39.4 92.189q-.023-.378-.063-.752a69.183 69.183 0 0 1-14.047 1.535V97.9a73.993 73.993 0 0 0 13.679-1.356q.1-.4.181-.8c.014-.069.025-.138.037-.208.036-.2.069-.4.1-.6.012-.088.023-.177.033-.266q.035-.293.057-.588c.006-.083.014-.166.019-.25.016-.276.026-.554.026-.835q0-.393-.022-.781Z"/><path d="M26.729 22.167a18.244 18.244 0 0 1 14.638 7.143q5.892 7.141 5.893 17.584a26.871 26.871 0 0 1-5.88 17.552q-5.88 7.208-14.337 7.207-8.565 0-14.455-7.175A26.47 26.47 0 0 1 6.7 47.118 29.57 29.57 0 0 1 9.38 34.53a22.309 22.309 0 0 1 7.32-9.08 17 17 0 0 1 10.029-3.283Zm.17 4.58a13.745 13.745 0 0 0-8.1 2.723 18.257 18.257 0 0 0-5.976 7.345 24.025 24.025 0 0 0-2.15 10.285 21.593 21.593 0 0 0 4.756 14.184q4.761 5.79 11.47 5.787a14.216 14.216 0 0 0 8.3-2.659 17.761 17.761 0 0 0 5.95-7.276 24.147 24.147 0 0 0 2.137-10.26 23.537 23.537 0 0 0-2.141-10.146 18.147 18.147 0 0 0-6.015-7.26 14.087 14.087 0 0 0-8.23-2.723Z"/><path class="cls-2" d="M296.585 396.5a3.625 3.625 0 1 0-3.625-3.625 3.624 3.624 0 0 0 3.625 3.625Zm0-5.316a1.689 1.689 0 1 1-1.687 1.691 1.692 1.692 0 0 1 1.687-1.689Z"/><circle class="cls-3" cx="296.585" cy="407.006" r="14.129"/><path class="cls-2" d="M296.585 421.135v-28.258a14.129 14.129 0 1 0 0 28.258Z"/><path class="cls-4" d="M310.612 405.33a14.126 14.126 0 0 0-28.054 0Z"/><path class="cls-5" d="M296.585 392.877a14.128 14.128 0 0 0-14.027 12.453h14.027Z"/><path class="cls-6" d="M282.906 403.455a14.156 14.156 0 0 0-.363 5.108 69.138 69.138 0 0 1 28.1-.185c.044-.452.068-.909.068-1.372a14.122 14.122 0 0 0-.5-3.724 74.071 74.071 0 0 0-27.305.173Z"/><path class="cls-7" d="M282.48 407.811q.022.378.063.752a69.183 69.183 0 0 1 14.042-1.535V402.1a74 74 0 0 0-13.679 1.356q-.1.4-.181.8c-.014.069-.025.138-.037.208-.036.2-.069.4-.1.6-.012.088-.023.177-.033.266q-.034.292-.057.588c-.006.083-.014.166-.019.25a14.41 14.41 0 0 0-.004 1.616Z"/><path d="M295.146 477.833a18.246 18.246 0 0 1-14.638-7.143q-5.892-7.142-5.893-17.584a26.871 26.871 0 0 1 5.88-17.552q5.878-7.207 14.337-7.207 8.565 0 14.455 7.175a26.47 26.47 0 0 1 5.893 17.36 29.57 29.57 0 0 1-2.68 12.588 22.309 22.309 0 0 1-7.319 9.08 17 17 0 0 1-10.035 3.283Zm-.17-4.58a13.745 13.745 0 0 0 8.1-2.723 18.257 18.257 0 0 0 5.976-7.345A24.025 24.025 0 0 0 311.2 452.9a21.593 21.593 0 0 0-4.756-14.184q-4.761-5.788-11.47-5.787a14.216 14.216 0 0 0-8.3 2.659 17.767 17.767 0 0 0-5.95 7.276 24.147 24.147 0 0 0-2.137 10.26 23.537 23.537 0 0 0 2.137 10.148 18.147 18.147 0 0 0 6.015 7.26 14.09 14.09 0 0 0 8.237 2.721Z"/><path class="cls-8" d="M81.981 104.108a8.861 8.861 0 1 0 8.861 8.861 8.859 8.859 0 0 0-8.861-8.861Zm0 12.994a4.129 4.129 0 1 1 4.124-4.133 4.133 4.133 0 0 1-4.124 4.131Z"/><circle class="cls-9" cx="81.981" cy="78.432" r="34.537"/><path class="cls-10" d="M81.981 43.9v69.074a34.537 34.537 0 1 0 0-69.074Z"/><path class="cls-4" d="M47.694 82.527a34.53 34.53 0 0 0 68.574 0Z"/><path class="cls-5" d="M81.981 112.969a34.537 34.537 0 0 0 34.287-30.442H81.981Z"/><path class="cls-6" d="M115.416 87.113a34.55 34.55 0 0 0 .889-12.487 169.013 169.013 0 0 1-68.7.452 35.005 35.005 0 0 0-.164 3.354 34.536 34.536 0 0 0 1.221 9.1 181.041 181.041 0 0 0 66.754-.419Z"/><path class="cls-11" d="M116.458 76.463q-.054-.924-.153-1.836a169.345 169.345 0 0 1-34.324 3.753v12.045a180.947 180.947 0 0 0 33.435-3.312c.168-.647.313-1.3.443-1.963.034-.169.061-.34.091-.509a33.828 33.828 0 0 0 .456-3.556c.016-.2.035-.407.047-.611.039-.676.065-1.356.065-2.042q0-.962-.055-1.908l-.005-.061Z"/><path class="cls-8" d="M239.894 395.893a8.862 8.862 0 1 0-8.861-8.862 8.86 8.86 0 0 0 8.861 8.862Zm0-12.995a4.129 4.129 0 1 1-4.124 4.133 4.134 4.134 0 0 1 4.124-4.131Z"/><circle class="cls-9" cx="239.894" cy="421.568" r="34.537"/><path class="cls-10" d="M239.894 456.105v-69.074a34.537 34.537 0 0 0 0 69.074Z"/><path class="cls-4" d="M274.182 417.473a34.53 34.53 0 0 0-68.575 0Z"/><path class="cls-5" d="M239.894 387.031a34.537 34.537 0 0 0-34.287 30.442h34.287Z"/><path class="cls-6" d="M206.459 412.887a34.5 34.5 0 0 0-.888 12.487 169.008 169.008 0 0 1 68.7-.452c.106-1.1.164-2.222.164-3.354a34.577 34.577 0 0 0-1.22-9.1 181.046 181.046 0 0 0-66.756.419Z"/><path class="cls-11" d="M205.417 423.537q.054.924.154 1.836a169.327 169.327 0 0 1 34.323-3.753v-12.045a180.947 180.947 0 0 0-33.435 3.312c-.168.647-.313 1.3-.443 1.963-.033.169-.06.34-.091.509a33.828 33.828 0 0 0-.318 2.12c-.057.476-.1.955-.138 1.436-.015.2-.035.407-.046.611a34.53 34.53 0 0 0-.066 2.042c0 .641.02 1.277.055 1.908l.005.061Z"/><path class="cls-4" d="M123.559 178.219a107.347 107.347 0 0 1 2.265-24.435.734.734 0 0 1 .872-.535.725.725 0 0 1 .535.875c-.067.284-6.673 28.571 3.044 50a5.753 5.753 0 0 1 1.488-4.168 5.943 5.943 0 0 1 4.557-1.441.751.751 0 0 1 .311.118 24.467 24.467 0 0 1 8.936 12.069.716.716 0 0 1-.024.458 18.577 18.577 0 0 0 7.434-2.03 38.072 38.072 0 0 1 3.835-1.958c-18.075-30.29-20.923-60.914-21.266-73.494l-14.867 3.311a.752.752 0 0 1-.429-.036l-3.929-1.585c-1.913 1.014-14.368 8.653-18.573 37.287 5.452-.145 16.6.345 25.811 5.564Z"/><path class="cls-6" d="M123.612 179.9c-11.06-6.682-25.952-5.866-28.607-5.653a21.288 21.288 0 0 0-1.745 7.337c3.484.267 19.793 1.739 31.045 6.3a85.259 85.259 0 0 1-.693-7.984Z"/><path class="cls-12" d="M152.371 107.264c.037.034.081.081.115.11a14.392 14.392 0 0 0 4.672 2.372 20.223 20.223 0 0 0 10.272.441 22.135 22.135 0 0 0 4.7-1.493h-.142a16.769 16.769 0 0 1-8.746-2.193 22.1 22.1 0 0 1-2.853-2.12c-1.482-1.237-2.671-2.23-4.35-2.23-.11 0-.222 0-.336.012a6.2 6.2 0 0 0-4.007 1.766 1.827 1.827 0 0 0-.425 1.37 3.2 3.2 0 0 0 1.1 1.959Z"/><path class="cls-13" d="M180.488 113.239a.724.724 0 1 1 .675 1.282c-10.034 5.277-18.685 7.925-25.848 7.925a25.64 25.64 0 0 1-4.048-.328 28.851 28.851 0 0 1 .056 4.1c5.992 2.938 20.006 7.219 39.167-3.31a79.389 79.389 0 0 1-.253-9.242 24.322 24.322 0 0 0-.14-4.642 13.9 13.9 0 0 1-1.127-1.243c-3.422-4.34-4.608-10.822-3.528-19.269-.937-1.4-5.164-8.427-1.257-15.82-.052-1.115-.306-6.618-.4-10.16a7.849 7.849 0 0 1 2.51-5.386 11.857 11.857 0 0 0-8.154-.121c-6.2 1.847-14.7-.994-16.3-1.567A36.047 36.047 0 0 1 146.5 58.91c-1.077 0-2.1-.052-3.037-.146a25.425 25.425 0 0 1-3.437-.582c-1.082 2.35-10.862 24.745-3.118 48.357a12.433 12.433 0 0 0 3.573-1.213 19.187 19.187 0 0 0 2.5-1.726c1.6-1.242 3.114-2.449 5.381-2.157a8.345 8.345 0 0 1 2.907.939 5.709 5.709 0 0 1 .666-.481 6.778 6.778 0 0 1-3.4-.845 5.1 5.1 0 0 1-2.383-3.708c-1.067-6.074 2.606-14.618 2.764-14.979a.724.724 0 0 1 1.328.578c-.037.085-3.656 8.507-2.666 14.151a3.681 3.681 0 0 0 1.7 2.714c2.245 1.344 5.881.176 5.919.165a.732.732 0 0 1 .913.462.666.666 0 0 1-.021.287c2.166.031 3.66 1.239 5.225 2.547a20.555 20.555 0 0 0 2.666 1.987c2.98 1.78 6.818 2.36 11.387 1.75a.712.712 0 0 1 .778.469.726.726 0 0 1-.292.86 23.829 23.829 0 0 1-8.144 3.268 24.236 24.236 0 0 1-4.719.474 19.912 19.912 0 0 1-6.295-.962 16.6 16.6 0 0 1-4.791-2.38c-.021.018-.039.038-.06.055a14.449 14.449 0 0 1-4.844 2.264 18.1 18.1 0 0 1-5.058.683 22.223 22.223 0 0 1-3.195-.277 15.333 15.333 0 0 0 8.352 8.03c7.893 3.249 19.435 1.087 33.389-6.255Zm-39.867-27.713a2.6 2.6 0 1 1 2.848-2.331 2.6 2.6 0 0 1-2.848 2.331Zm6.018-7.613-10.127.524h-.039a.724.724 0 0 1-.036-1.448l10.126-.523a.724.724 0 1 1 .076 1.447Zm14.688 7.937a3 3 0 1 1 3.288-2.691 3 3 0 0 1-3.288 2.691Zm10.479-9.231-14.591.212h-.01a.724.724 0 0 1-.011-1.448l14.591-.212a.751.751 0 0 1 .734.715.723.723 0 0 1-.713.733Z"/><path class="cls-6" d="M160.046 205.933a305.17 305.17 0 0 1 3.386-11.793c0-.007-.017-.007-.022-.016-14.625-23.857-18.567-64.2-19.076-70.139-1.106.2-3.667.981-7.34 4.117-.151 3.743-1.047 41.408 21.167 78.506q.906-.357 1.885-.675Z"/><path class="cls-1" d="M149.568 144.532 163 134.1l.222-3.2a33.2 33.2 0 0 1-15.875-5.341 6.42 6.42 0 0 0-1.331.83 257.886 257.886 0 0 0 2.215 16.26Z"/><path class="cls-12" d="M146.6 109.667a13.385 13.385 0 0 0 4.234-1.929 4.341 4.341 0 0 1-1-2.294 3.25 3.25 0 0 1 .471-1.916 6.818 6.818 0 0 0-2.1-.647c-1.68-.172-2.847.719-4.33 1.863a20.268 20.268 0 0 1-2.7 1.851 13.972 13.972 0 0 1-4.47 1.481c-.018.008-.022.031-.041.037a.741.741 0 0 1-.235.038c-.025 0-.046-.02-.071-.023a17.812 17.812 0 0 1-3.159.192 20.193 20.193 0 0 0 3.992 1.4 18.4 18.4 0 0 0 9.409-.053Z"/><path class="cls-9" d="M158.973 258.2a4.375 4.375 0 0 0-4.785-.394 3.6 3.6 0 0 0-1.488 4.279.727.727 0 0 1-.1.738l-.089.112c.238.252.465.507.68.754l.289.33a12.3 12.3 0 0 0 4.451 2.98c.28.122.574.216.859.329a7.231 7.231 0 0 0 2.14-4.46 5.527 5.527 0 0 0-1.957-4.668Z"/><path class="cls-6" d="M160.555 268c.19.066.39.144.6.224a3.877 3.877 0 0 0 1.724.422 2.576 2.576 0 0 0 1.335-.853 7.032 7.032 0 0 1 .918-.769 11.382 11.382 0 0 1 1.594-.832 27.484 27.484 0 0 1 4.989-1.7 21.045 21.045 0 0 1 11.973.37c-.064-.215-.13-.451-.192-.645-5.009-.94-10.795-.812-18.084-.647l-3.154.07a8.674 8.674 0 0 1-2.022 4.235c.106.038.211.085.319.125Z"/><path class="cls-4" d="M120.569 264.489a4.719 4.719 0 0 1 2.791.352c.035-.009.054-.045.091-.049 2.793-.289 5.887-.587 9.156-.877l-7.161-6.043c-1.114.819-4.046 3.266-4.877 6.617Z"/><path class="cls-9" d="M118.509 255.75a.724.724 0 0 1-.279.528c-.03.024-3.248 2.645-4.323 9.836a8.226 8.226 0 0 0 .791 5.039 6.6 6.6 0 0 0 4.3 3.421 4.959 4.959 0 0 0 5.483-2.056 4.792 4.792 0 0 0-1.388-6.2 2.841 2.841 0 0 0-3.833.573 2.492 2.492 0 0 0 .383 3.31.724.724 0 0 1-.9 1.136 3.958 3.958 0 0 1-.685-5.257 3.669 3.669 0 0 1 .925-.923c.672-5.282 5.89-8.67 6.118-8.815a.722.722 0 0 1 .854.059l13.817 11.662a2.964 2.964 0 0 1 .269-.748 2.285 2.285 0 0 1 2.049-1.2 2.091 2.091 0 0 1 1.611.556 3.356 3.356 0 0 1 .5-3.6 2.68 2.68 0 0 1 1.195-.681l-13.655-12.545a.725.725 0 0 1-.023-1.045l1.288-1.292-6.529-4.68-10.239 10.3 2.057 2.058a.723.723 0 0 1 .214.564Z"/><path class="cls-13" d="M161.558 276.632a.751.751 0 0 1-.245-.042 11.368 11.368 0 0 0-2.223-.465 10.768 10.768 0 0 1-2.825-.667 13.685 13.685 0 0 1-4.54-3.78 26.728 26.728 0 0 1-2.59-3.463c-.264-.422-.5-.858-.742-1.3-.189-.345-.377-.689-.58-1.026-.08-.132-.172-.274-.268-.42a6.562 6.562 0 0 1-.844-1.653 1.379 1.379 0 0 0-1.459.274c-.486.5-.5 1.4-.05 2.466 1.268 2.987 2.762 8 2.826 8.214a12.735 12.735 0 0 0 9.406 6.583.724.724 0 0 1-.067 1.445h-.069a14.043 14.043 0 0 1-10.61-7.491c-.035-.091-.492-1.609-1.095-3.437-2.051-4.249-3.271-4.317-3.283-4.317-.671.012-.866.236-.985.455-.663 1.224.223 4.293 1.428 6.121 1.3 1.973 2.091 6.243 2.447 8.61a3.553 3.553 0 0 0 1.43 2.36c2.8 2.046 7.711 3.074 7.76 3.084a.724.724 0 0 1-.145 1.433.739.739 0 0 1-.147-.014c-.214-.045-5.261-1.1-8.322-3.334a4.991 4.991 0 0 1-2.01-3.312c-.574-3.831-1.384-6.757-2.223-8.031a12.021 12.021 0 0 1-1.136-2.3c-.09-.006-.18.027-.266-.015-.6-.287-1.068-.363-1.249-.214-.084.07-.788.8.312 4.915a71.7 71.7 0 0 1 1.088 8.26 3.862 3.862 0 0 0 1.571 2.739 43.905 43.905 0 0 0 8.57 4.8c6.8 2.431 15.3-2.058 17.742-3.491 4.056-2.386 9.877-2.32 10.132-2.32.047 0 .075.042.12.051 7.979-5.436 7.125-15.113 5.731-20.783-.018-.007-.036.006-.054 0-4.193-1.921-8.866-1.419-12.045-.665a25.672 25.672 0 0 0-4.646 1.57 10.88 10.88 0 0 0-1.474.757 5.6 5.6 0 0 0-.722.616 3.816 3.816 0 0 1-2.143 1.237 5.119 5.119 0 0 1-2.441-.511 17.84 17.84 0 0 0-.542-.205 37.268 37.268 0 0 1-2.73-1.045 13.668 13.668 0 0 1-4.958-3.35l-.3-.34a6.445 6.445 0 0 0-2.222-1.912 2.232 2.232 0 0 0-1.675-.03.346.346 0 0 0-.183.3 3.35 3.35 0 0 0 .74 1.695c.107.163.209.318.3.467.213.353.411.714.609 1.075.225.412.45.825.7 1.224a24.923 24.923 0 0 0 2.446 3.27 12.517 12.517 0 0 0 4.032 3.411 9.527 9.527 0 0 0 2.452.561 12.648 12.648 0 0 1 2.509.538.724.724 0 0 1-.245 1.405Z"/><path class="cls-9" d="M143.986 210.567a23.305 23.305 0 0 0-8.009-10.626c-.067 0-.155-.007-.259-.007a4.214 4.214 0 0 0-2.943 1.056c-.918.92-1.255 2.431-1 4.5a.725.725 0 0 1-.615.806 8.835 8.835 0 0 0-5.289 3.146 8.258 8.258 0 0 0-1.145 6.439.729.729 0 0 1-.283.7c-.259.193-6.3 4.831-1.953 13.7a.727.727 0 0 1-.254.925 8.129 8.129 0 0 0-3.263 8.853 115.282 115.282 0 0 0 18.525-2.417c-1.358-3.788-6.229-19.95 6.488-27.075Z"/><path class="cls-8" d="M120.935 230.376c-3.8-8.36.932-13.436 2.3-14.669a9.463 9.463 0 0 1 1.474-7.135 7.939 7.939 0 0 1 .885-.939 40 40 0 0 0-11.588-.534.723.723 0 1 1-.1-1.443 56.173 56.173 0 0 1 6.749-.092 35.389 35.389 0 0 0 4.43-13.043c-.2-.989-.372-1.979-.529-2.968-9.531-4.085-23.31-5.767-29.195-6.327a10.718 10.718 0 0 0-1.978 4.676 21.436 21.436 0 0 1-1.025 3.4 45.983 45.983 0 0 1-2.141 4.27c-.53.969-1.059 1.938-1.534 2.928a51.986 51.986 0 0 0-5.212 19 5.987 5.987 0 0 0 2.932 5.515 15.734 15.734 0 0 0 2.029 1.014 21.819 21.819 0 0 1 2.559 1.414 53.013 53.013 0 0 0 27.246 8.276 11.145 11.145 0 0 1 2.698-3.343Z"/><path class="cls-6" d="M124.861 274.349a144.384 144.384 0 0 1 12.319-1.371 2.5 2.5 0 0 1 .776-1.693 2.056 2.056 0 0 1 1.934-.3 9.427 9.427 0 0 1-.184-1.107c-.02-.014-.046-.008-.065-.024l-5.475-4.62c-3.259.282-6.34.575-9.172.862a6.336 6.336 0 0 1 .742 7.146 5.415 5.415 0 0 1-.875 1.107Z"/><path class="cls-4" d="M201.306 235.51a4.717 4.717 0 0 1-2.79-.352c-.035.009-.054.045-.09.049-2.794.289-5.888.588-9.157.878l7.16 6.042c1.114-.82 4.05-3.266 4.877-6.617Z"/><path class="cls-6" d="M197.011 225.65c-3.614.562-7.75 1.059-12.316 1.371a2.5 2.5 0 0 1-.776 1.693 1.793 1.793 0 0 1-1.185.41 2.956 2.956 0 0 1-.749-.106 9.447 9.447 0 0 1 .185 1.11c.019.013.046 0 .064.02l5.475 4.62c3.259-.28 6.34-.574 9.172-.862a6.336 6.336 0 0 1-.742-7.146 5.4 5.4 0 0 1 .872-1.11Zm-35.69 6.35c-.19-.066-.391-.144-.6-.227a3.831 3.831 0 0 0-1.724-.419 2.58 2.58 0 0 0-1.335.853 7.032 7.032 0 0 1-.918.769 11.382 11.382 0 0 1-1.594.832 27.484 27.484 0 0 1-4.989 1.7 21.1 21.1 0 0 1-11.942-.356c.064.219.127.439.188.635 5 .935 10.782.808 18.058.643l3.153-.07a8.684 8.684 0 0 1 2.023-4.235c-.107-.039-.211-.086-.32-.125Z"/><path class="cls-9" d="M162.9 241.8a4.379 4.379 0 0 0 4.785.394 3.6 3.6 0 0 0 1.488-4.279.727.727 0 0 1 .1-.738l.089-.111a26.47 26.47 0 0 1-.682-.757l-.286-.328a12.294 12.294 0 0 0-4.452-2.977c-.281-.123-.574-.217-.86-.331a7.239 7.239 0 0 0-2.139 4.459 5.527 5.527 0 0 0 1.957 4.668Z"/><path class="cls-13" d="M167.787 210.4c.214.045 5.261 1.1 8.323 3.334a5 5 0 0 1 2.009 3.312c.574 3.831 1.384 6.757 2.223 8.031a12.04 12.04 0 0 1 1.136 2.3c.09.006.179-.027.266.016.6.285 1.067.358 1.249.214.084-.07.788-.8-.312-4.915a71.645 71.645 0 0 1-1.088-8.257 3.865 3.865 0 0 0-1.57-2.742 43.889 43.889 0 0 0-8.571-4.8c-6.805-2.433-15.3 2.053-17.741 3.489-4.058 2.384-9.889 2.327-10.133 2.32-.045 0-.071-.04-.114-.049-7.855 5.391-7.043 15.107-5.7 20.785h.013c4.195 1.919 8.866 1.422 12.045.663a25.672 25.672 0 0 0 4.646-1.57 10.88 10.88 0 0 0 1.474-.757 5.756 5.756 0 0 0 .724-.616 3.8 3.8 0 0 1 2.141-1.237 5.135 5.135 0 0 1 2.441.511c.187.073.369.144.543.205.923.319 1.838.656 2.73 1.05a13.632 13.632 0 0 1 4.957 3.345l.294.337A6.454 6.454 0 0 0 172 237.28a2.268 2.268 0 0 0 1.676.03.347.347 0 0 0 .182-.3 3.35 3.35 0 0 0-.74-1.695c-.107-.163-.209-.318-.3-.467-.21-.351-.407-.709-.6-1.068a28.417 28.417 0 0 0-.7-1.228 24.937 24.937 0 0 0-2.447-3.273 12.554 12.554 0 0 0-4.033-3.411 9.509 9.509 0 0 0-2.451-.561 12.663 12.663 0 0 1-2.509-.538.724.724 0 0 1 .49-1.363 11.368 11.368 0 0 0 2.223.465 10.759 10.759 0 0 1 2.825.667 13.719 13.719 0 0 1 4.54 3.779 26.485 26.485 0 0 1 2.59 3.466c.265.422.5.861.746 1.3.187.342.375.683.576 1.018.08.132.172.274.268.42a6.562 6.562 0 0 1 .844 1.653 1.384 1.384 0 0 0 1.459-.274c.486-.5.5-1.4.05-2.466-1.267-2.985-2.762-8-2.826-8.214a12.733 12.733 0 0 0-9.406-6.583.725.725 0 0 1-.652-.79.707.707 0 0 1 .788-.653 14.037 14.037 0 0 1 10.61 7.491c.035.092.492 1.609 1.094 3.435 2.052 4.253 3.271 4.319 3.284 4.319.672-.012.866-.236.985-.455.663-1.224-.223-4.293-1.427-6.121-1.3-1.973-2.092-6.243-2.448-8.61a3.551 3.551 0 0 0-1.429-2.36c-2.805-2.046-7.712-3.074-7.761-3.084a.724.724 0 1 1 .292-1.419Z"/><path class="cls-6" d="M215.682 187.035a8.06 8.06 0 0 0 3.339 6.745c19.883-.4 34.779-19.757 36.737-22.424-1.862-4.963-4.241-7.064-5.311-7.8-.128.228-.288.438-.423.662a.713.713 0 0 1-.517.811c-8.947 13.833-30.15 20.876-33.825 22.006Zm-11.561 37.317a8.057 8.057 0 0 1 4.337 3.815 9.435 9.435 0 0 1 1.055 4.342c1.357-.164 2.357-.29 2.88-.357.753-2.433.109-7.293-.353-9.789-1.259.383-3.997 1.159-7.919 1.989Z"/><path class="cls-4" d="M230.4 137.947a.765.765 0 0 1-.2.026.742.742 0 0 1-.187-.023l-23.183-6.211c-7.68 15.13-26.828 53.83-32.658 74.793a42.984 42.984 0 0 1 6.705 3.99 5.315 5.315 0 0 1 2.153 3.775 70.979 70.979 0 0 0 1.045 8.016 19.474 19.474 0 0 1 .626 3.252 129.061 129.061 0 0 0 26.094-4.347.658.658 0 0 1-.007-.3c4.693-12.061 5.286-25.945 5.348-27.946a9.786 9.786 0 0 1-1.895-6.519.723.723 0 0 1 .522-.66c.02-.006.2-.06.5-.153a34.541 34.541 0 0 1-8.472-15.4l-7.619-3.756a.725.725 0 0 1 .641-1.3l6.607 3.256a22.934 22.934 0 0 1-.23-7.175.707.707 0 0 1 .839-.587.724.724 0 0 1 .588.837c-.02.118-1.913 11.928 9.108 23.591.011.013.006.031.017.044 6-2.047 24.073-9.042 31.743-21.17-2.842-13.468-7.928-23.3-11.594-27.864Z"/><path class="cls-1" d="M191.276 124.277c-.073 0-.126-.051-.193-.072-9.414 5.149-17.657 6.865-24.367 6.865-.717 0-1.366-.067-2.047-.1l-.223 3.205 12.394 11.246a41.62 41.62 0 0 0 7.889-3.9 167.078 167.078 0 0 1 10.115-16.711 6.653 6.653 0 0 0-1.661-1.763c-.428.253-.84.458-1.264.7a.687.687 0 0 1-.551.529c-.031-.001-.062.001-.092.001Z"/><path class="cls-12" d="M136.521 56.929a60.464 60.464 0 0 1-3.458 11.3l-.619 1.433c-2.452 5.634-5.459 12.555.067 19.395a76.818 76.818 0 0 1 6.1-31.269 14.916 14.916 0 0 1-2.09-.859Z"/><path class="cls-1" d="M183.436 143.984a44.86 44.86 0 0 1-6.529 2.949.731.731 0 0 1-.719-.151l-1.583-1.436a8.255 8.255 0 0 1-4.524 1.49 7.129 7.129 0 0 1-1.322-.125 9.913 9.913 0 0 1-5.259-3.148c-.9 10.956-1.8 30.154.758 47.929a311.211 311.211 0 0 1 19.178-47.508Z"/><path class="cls-8" d="M169.033 145.289a6.357 6.357 0 0 0 4.452-.96l-9.238-8.381a214.953 214.953 0 0 0-.569 5.555c.482.673 2.496 3.256 5.355 3.786Z"/><path class="cls-12" d="M143.6 57.321c6.173.62 15.882-.7 22.891-6.514a.725.725 0 0 1 .925 1.117 26.7 26.7 0 0 1-3.824 2.591c2.907.895 9.392 2.541 14.128 1.127 6.85-2.056 10.7 1.019 10.863 1.151a.724.724 0 0 1-.917 1.12l-.071-.052a6.6 6.6 0 0 0-2.368 4.638c.1 3.942.41 10.326.41 10.326a.728.728 0 0 1-.088.382c-4.086 7.486 1.168 14.618 1.221 14.689a.731.731 0 0 1 .139.533c-1.086 8.16-.019 14.36 3.17 18.43a11.468 11.468 0 0 0 7.039 4.35c4.925.721 8.554-.186 10.8-2.709 4.992-5.609 1.883-17.438 1.852-17.556a.728.728 0 0 1-.006-.356c3.457-14.455-3.741-22.483-3.814-22.561a.731.731 0 0 1-.183-.613 12.509 12.509 0 0 0-5.7-13.087c-.032-.019-.035-.058-.063-.081a.962.962 0 0 1-.268-.456c-.005-.037-.04-.06-.04-.1.013-6.213-1.905-10.95-5.7-14.078-8.088-6.658-22.17-3.978-22.312-3.952a.746.746 0 0 1-.375-.023c-24.528-8.4-34.617 6.936-34.715 7.094-.341.363-5.939 6.033-1.94 11.008 1.491 1.852 4.751 3.161 8.946 3.582Z"/><path class="cls-8" d="M154.067 142.873a3.264 3.264 0 0 0 2.061 1.421c1.63.3 3.741-.7 6.105-2.9.206-2.283.4-4.078.538-5.286Z"/><path class="cls-6" d="M171.965 205.536c.053.021.374.149.885.376 7.046-25.081 32.639-74.791 35.651-80.6-3.732-2.572-8.821-2.846-10.182-2.872-21.235 28.609-33.775 72.263-36.651 83.026a17.59 17.59 0 0 1 10.297.07Z"/><path class="cls-1" d="M155.829 145.711a4.778 4.778 0 0 1-2.916-1.941l-3.054 2.373a.74.74 0 0 1-.55.144.724.724 0 0 1-.485-.3l-.012-.018c2.458 13.522 6.7 30.514 13.735 43.695-2.235-17.335-1.363-35.641-.489-46.237-2.3 1.836-4.403 2.635-6.229 2.284Z"/><path class="cls-6" d="M154.84 295.279a14.548 14.548 0 0 1-4.93-.813c-.053-.021-.374-.15-.885-.377-7.047 25.082-32.639 74.789-35.651 80.6 3.733 2.572 8.822 2.846 10.182 2.871 21.238-28.611 33.785-72.294 36.654-83.036a21.49 21.49 0 0 1-5.37.755Z"/><path class="cls-9" d="M186.361 367.8c.024 1.669.005 2.9-.017 3.644l13.029-1.2 7.672-3.45-5.754-2.32Z"/><path class="cls-4" d="M198.315 321.76a107.369 107.369 0 0 1-2.264 24.455.722.722 0 0 1-.7.554.82.82 0 0 1-.17-.019.726.726 0 0 1-.535-.875c.067-.284 6.673-28.571-3.044-50a5.753 5.753 0 0 1-1.488 4.168 5.624 5.624 0 0 1-3.948 1.471 5.911 5.911 0 0 1-.609-.03.751.751 0 0 1-.311-.118 24.467 24.467 0 0 1-8.936-12.069.716.716 0 0 1 .024-.458 18.6 18.6 0 0 0-7.434 2.03 38.473 38.473 0 0 1-3.835 1.959c18.075 30.29 20.923 60.913 21.267 73.494l14.866-3.312a.739.739 0 0 1 .429.035l3.93 1.586c1.912-1.014 14.367-8.651 18.572-37.287a59.85 59.85 0 0 1-1.6.022c-5.843.001-15.829-.851-24.214-5.606Z"/><path class="cls-6" d="M226.845 318.262h-.007c-5.538-.509-19.355-2.13-29.268-6.148.368 2.7.586 5.383.693 7.983 11.06 6.686 25.951 5.867 28.607 5.656a21.3 21.3 0 0 0 1.745-7.34c-.412-.031-1.024-.082-1.765-.15Z"/><path class="cls-8" d="M200.94 269.623c3.8 8.36-.932 13.436-2.3 14.669a9.459 9.459 0 0 1-1.474 7.135 7.786 7.786 0 0 1-.885.939 39.882 39.882 0 0 0 11.589.534.723.723 0 1 1 .1 1.443 63.1 63.1 0 0 1-4.381.16c-.864 0-1.644-.023-2.374-.058a35.37 35.37 0 0 0-4.425 13.033c.2.989.372 1.979.529 2.967 9.531 4.086 23.313 5.769 29.2 6.327a10.707 10.707 0 0 0 1.978-4.675 21.436 21.436 0 0 1 1.025-3.395 46.17 46.17 0 0 1 2.142-4.273c.528-.966 1.057-1.935 1.532-2.926a51.945 51.945 0 0 0 5.212-19 5.99 5.99 0 0 0-2.932-5.515 16.057 16.057 0 0 0-2.029-1.014 21.819 21.819 0 0 1-2.559-1.414 53.013 53.013 0 0 0-27.246-8.276 11.145 11.145 0 0 1-2.702 3.339Z"/><path class="cls-12" d="M169.5 392.735c-.037-.034-.081-.081-.115-.11a14.382 14.382 0 0 0-4.672-2.372 20.2 20.2 0 0 0-10.272-.441 22.152 22.152 0 0 0-4.7 1.493h.142a16.8 16.8 0 0 1 8.748 2.19 22.1 22.1 0 0 1 2.853 2.12c1.58 1.32 2.819 2.343 4.686 2.218a6.2 6.2 0 0 0 4.007-1.766 1.829 1.829 0 0 0 .425-1.37 3.2 3.2 0 0 0-1.1-1.959Z"/><path class="cls-13" d="M141.387 386.76a.724.724 0 1 1-.674-1.282c12.024-6.324 22.028-8.806 29.9-7.548a29.194 29.194 0 0 1-.06-4.153c-5.992-2.938-20-7.219-39.168 3.313a79.128 79.128 0 0 1 .254 9.239 24.322 24.322 0 0 0 .14 4.642 13.9 13.9 0 0 1 1.127 1.243c3.422 4.34 4.608 10.822 3.528 19.269.938 1.4 5.164 8.426 1.257 15.82.052 1.116.307 6.618.4 10.16a7.843 7.843 0 0 1-2.507 5.383 11.872 11.872 0 0 0 8.151.127c6.193-1.862 14.689.983 16.3 1.564a35.969 35.969 0 0 1 18.378-3.3 25.456 25.456 0 0 1 3.439.582c1.087-2.362 10.859-24.752 3.117-48.355a12.471 12.471 0 0 0-3.573 1.211 19.07 19.07 0 0 0-2.5 1.726c-1.455 1.124-2.835 2.192-4.764 2.192a5.115 5.115 0 0 1-.621-.035 8.346 8.346 0 0 1-2.906-.939 5.62 5.62 0 0 1-.663.478 6.774 6.774 0 0 1 3.391.848 5.1 5.1 0 0 1 2.383 3.708c1.067 6.074-2.606 14.618-2.764 14.979a.724.724 0 0 1-.664.434.743.743 0 0 1-.289-.059.724.724 0 0 1-.374-.953c.036-.085 3.655-8.507 2.665-14.151a3.684 3.684 0 0 0-1.7-2.714c-2.251-1.346-5.884-.176-5.921-.165a.731.731 0 0 1-.913-.462c-.031-.093.013-.18.02-.273-2.167-.018-3.657-1.253-5.224-2.561a20.555 20.555 0 0 0-2.666-1.987c-2.977-1.78-6.8-2.36-11.388-1.75a.714.714 0 0 1-.777-.469.726.726 0 0 1 .293-.86 23.816 23.816 0 0 1 8.143-3.268 21.632 21.632 0 0 1 11.014.488 16.6 16.6 0 0 1 4.791 2.38c.021-.018.039-.038.06-.055a14.6 14.6 0 0 1 4.843-2.264 19.392 19.392 0 0 1 8.241-.436 15.334 15.334 0 0 0-8.339-8c-7.88-3.246-19.426-1.089-33.38 6.253Zm39.867 27.713a2.6 2.6 0 1 1-2.848 2.331 2.6 2.6 0 0 1 2.848-2.331Zm-6.018 7.613 10.127-.523a.712.712 0 0 1 .761.685.725.725 0 0 1-.686.762l-10.126.523h-.039a.724.724 0 0 1-.037-1.447Zm-14.688-7.938a3 3 0 1 1-3.287 2.692 3.006 3.006 0 0 1 3.287-2.692Zm-10.479 9.235 14.591-.215a.771.771 0 0 1 .734.712.724.724 0 0 1-.713.736l-14.591.214h-.01a.724.724 0 0 1-.011-1.447Z"/><path class="cls-6" d="M161.832 294.057c-.562 2.14-1.7 6.307-3.389 11.8 0 .007.017.007.022.016.069.112.134.231.2.345l.028.049c14.432 23.9 18.339 63.838 18.845 69.745 1.106-.2 3.667-.981 7.34-4.117.151-3.742 1.047-41.412-21.17-78.511-.599.24-1.225.462-1.876.673Z"/><path class="cls-1" d="M172.307 355.467 158.875 365.9l-.221 3.189a33.107 33.107 0 0 1 15.874 5.353 6.42 6.42 0 0 0 1.331-.83 257.132 257.132 0 0 0-2.215-16.26Z"/><path class="cls-9" d="M177.889 289.432a23.313 23.313 0 0 0 8.009 10.626 4.3 4.3 0 0 0 3.2-1.049c.918-.919 1.255-2.431 1-4.5a.724.724 0 0 1 .614-.806 8.835 8.835 0 0 0 5.288-3.142 8.258 8.258 0 0 0 1.145-6.439.729.729 0 0 1 .283-.7c.259-.193 6.3-4.831 1.953-13.7a.727.727 0 0 1 .254-.925 8.94 8.94 0 0 0 2.936-3.551.464.464 0 0 1 .026-.055 7.632 7.632 0 0 0 .3-5.247 115 115 0 0 0-18.525 2.419c1.363 3.784 6.234 19.946-6.483 27.069Zm58.858-42.613a.753.753 0 0 1-.582-.141.722.722 0 0 1-.274-.531c-.211-3.829-1.434-6.564-3.635-8.129-3.7-2.629-8.987-1.151-9.038-1.139a.731.731 0 0 1-.581-.08.722.722 0 0 1-.331-.484c-.526-2.812-1.485-4.472-2.851-4.93-1.879-.627-4.144 1.118-4.721 1.6l-4.909 15.464 33.068-.009a8.431 8.431 0 0 0-6.146-1.621Z"/><path class="cls-8" d="M222.365 194.965c1.392 2.494 6.773 11.806 11.154 15.259a23.241 23.241 0 0 1 8.337-4.346.718.718 0 0 1 .872.535.725.725 0 0 1-.535.874A22.566 22.566 0 0 0 231.677 214a21.327 21.327 0 0 0-3.135 5.171c-1.6 3.431-6.263 10.224-7.261 11.665a8.2 8.2 0 0 1 2.294 4.471c1.745-.347 6.116-.889 9.521 1.528 2.423 1.723 3.83 4.571 4.186 8.473a10.074 10.074 0 0 1 3.228.356c11.5-6.593 18.283-19.664 20.667-25a9 9 0 0 0 .81-3.862c-.351-17.486-7.719-34.98-9.606-39.184-5.852 6.308-16.655 15.72-30.016 17.347Z"/><path class="cls-4" d="M195.474 258.831a.726.726 0 0 1-.422-.134l-7.721-5.536a.726.726 0 0 1-.09-1.1l1.359-1.361-13.711-12.6a1.768 1.768 0 0 1-.465.451 2.81 2.81 0 0 1-1.442.351 4.221 4.221 0 0 1-1.529-.285 4.562 4.562 0 0 1-.687-.37 5.107 5.107 0 0 1-2.324 5.189 5.375 5.375 0 0 1-2.786.75 5.944 5.944 0 0 1-3.64-1.243 6.817 6.817 0 0 1-2.474-5.136l-3.038.067c-2.714.061-5.224.12-7.569.12a61.9 61.9 0 0 1-10-.663c.113.305.2.523.207.541a.726.726 0 0 1-.5.988 113.143 113.143 0 0 1-17.691 2.531 42.573 42.573 0 0 0-2 6.964l6.938-6.977a.732.732 0 0 1 .936-.078l7.722 5.536a.727.727 0 0 1 .091 1.1l-1.356 1.36 13.711 12.6a1.8 1.8 0 0 1 .465-.451 3.664 3.664 0 0 1 2.972-.066 4.51 4.51 0 0 1 .686.37 5.108 5.108 0 0 1 2.324-5.189 5.787 5.787 0 0 1 6.426.493 6.815 6.815 0 0 1 2.474 5.136l3.039-.067c6.988-.157 12.61-.277 17.57.533-.1-.264-.182-.467-.208-.528a.725.725 0 0 1 .5-.988 112.948 112.948 0 0 1 17.694-2.534 42.54 42.54 0 0 0 2-6.965l-6.939 6.978a.733.733 0 0 1-.522.213Zm17.542-25.298s-1.319.172-3.606.448c0 .039 0 .077-.008.116-.9 5.986-3.184 9.049-4.276 10.209l2.043 2.044a.724.724 0 0 1 0 1.023l-1.09 1.1h2.221l4.745-14.946c-.012-.003-.019.005-.029.006Z"/><path class="cls-6" d="M117.752 275.647a8.069 8.069 0 0 1-4.335-3.815 9.435 9.435 0 0 1-1.055-4.342c-1.357.165-2.358.292-2.88.36-.752 2.43-.109 7.29.353 9.787 1.259-.384 3.996-1.16 7.917-1.99Z"/><path class="cls-9" d="M203.366 244.249a.722.722 0 0 1 .28-.528c.029-.024 3.247-2.645 4.322-9.836a8.226 8.226 0 0 0-.791-5.039 6.588 6.588 0 0 0-4.3-3.418 4.969 4.969 0 0 0-5.484 2.053 4.792 4.792 0 0 0 1.388 6.2 2.849 2.849 0 0 0 3.833-.573 2.492 2.492 0 0 0-.383-3.31.724.724 0 0 1 .9-1.136 3.959 3.959 0 0 1 .684 5.257 3.669 3.669 0 0 1-.925.923c-.673 5.283-5.89 8.67-6.118 8.815a.732.732 0 0 1-.854-.059L182.1 231.932a2.964 2.964 0 0 1-.269.748 2.285 2.285 0 0 1-2.049 1.2 1.327 1.327 0 0 1-.224.018 2.389 2.389 0 0 1-1.39-.583 3.359 3.359 0 0 1-.5 3.6 2.668 2.668 0 0 1-1.209.668l13.67 12.561a.724.724 0 0 1 .023 1.044l-1.287 1.29 6.528 4.68 10.239-10.3-2.057-2.058a.723.723 0 0 1-.209-.551Z"/><path class="cls-1" d="M166.046 354.288a4.782 4.782 0 0 1 2.916 1.941l3.054-2.373a.77.77 0 0 1 .55-.144.722.722 0 0 1 .485.3l.012.017c-2.458-13.522-6.7-30.516-13.735-43.695 2.235 17.332 1.363 35.638.489 46.236 2.298-1.839 4.398-2.637 6.229-2.282Z"/><path class="cls-8" d="M167.808 357.126a3.264 3.264 0 0 0-2.061-1.421c-1.627-.316-3.741.7-6.105 2.9-.206 2.284-.4 4.078-.537 5.286Zm-14.966-2.416a6.345 6.345 0 0 0-4.452.959l9.238 8.382c.139-1.192.347-3.092.569-5.555-.482-.673-2.497-3.256-5.355-3.786Z"/><path class="cls-9" d="m91.674 363.5-8.3 2.329 7.521 5.715 21.136 2.58c.365-.7 1.177-2.275 2.333-4.545Z"/><path class="cls-1" d="M138.438 356.015a44.845 44.845 0 0 1 6.53-2.949.707.707 0 0 1 .719.151l1.591 1.443a7.832 7.832 0 0 1 5.838-1.372 9.913 9.913 0 0 1 5.259 3.148c.9-10.956 1.8-30.155-.758-47.93a311.3 311.3 0 0 1-19.179 47.509Z"/><path class="cls-4" d="M91.473 362.052a.776.776 0 0 1 .383 0l23.183 6.211c7.68-15.13 26.827-53.829 32.658-74.792a43 43 0 0 1-6.705-3.991 5.315 5.315 0 0 1-2.153-3.772 65.351 65.351 0 0 0-1.045-8.019 19.357 19.357 0 0 1-.625-3.252 129.032 129.032 0 0 0-26.094 4.347.673.673 0 0 1 .006.3c-4.692 12.061-5.286 25.945-5.348 27.946a9.78 9.78 0 0 1 1.895 6.519.723.723 0 0 1-.522.66c-.02.006-.2.06-.5.153a34.526 34.526 0 0 1 8.472 15.4l7.62 3.756a.725.725 0 0 1-.321 1.375.735.735 0 0 1-.321-.074l-6.607-3.256a22.934 22.934 0 0 1 .23 7.175.725.725 0 0 1-.712.6.538.538 0 0 1-.126-.012.724.724 0 0 1-.589-.837c.02-.118 1.914-11.928-9.106-23.589-.013-.013-.007-.033-.018-.046-6 2.047-24.074 9.041-31.744 21.17 2.842 13.468 7.929 23.3 11.594 27.863Z"/><path class="cls-1" d="M85.129 253.18a.744.744 0 0 1 .581.142.718.718 0 0 1 .274.53c.211 3.829 1.434 6.564 3.635 8.129 3.7 2.629 8.989 1.153 9.038 1.139a.721.721 0 0 1 .2-.028.707.707 0 0 1 .381.108.723.723 0 0 1 .332.484c.525 2.815 1.485 4.472 2.851 4.93 1.866.629 4.143-1.118 4.72-1.6l4.909-15.464-33.068.009a8.464 8.464 0 0 0 6.147 1.621Z"/><path class="cls-8" d="M99.511 305.034c-1.393-2.494-6.774-11.806-11.155-15.259a23.272 23.272 0 0 1-8.337 4.347.691.691 0 0 1-.168.018.724.724 0 0 1-.169-1.428A22.557 22.557 0 0 0 90.2 286a21.331 21.331 0 0 0 3.135-5.17c1.6-3.432 6.263-10.225 7.261-11.665a8.212 8.212 0 0 1-2.296-4.475c-1.741.349-6.114.894-9.521-1.528-2.423-1.723-3.83-4.571-4.186-8.473a10.139 10.139 0 0 1-3.225-.356c-11.5 6.589-18.283 19.661-20.67 25a9.014 9.014 0 0 0-.81 3.862c.352 17.494 7.718 34.982 9.606 39.186 5.852-6.307 16.654-15.72 30.017-17.347Z"/><path class="cls-12" d="M178.268 442.678c-6.172-.629-15.879.7-22.889 6.514a.725.725 0 0 1-.925-1.117 26.674 26.674 0 0 1 3.83-2.587c-2.9-.895-9.393-2.544-14.134-1.129-6.851 2.061-10.7-1.021-10.862-1.153a.724.724 0 0 1 .917-1.12c.006 0 .053.037.071.051a6.607 6.607 0 0 0 2.367-4.636c-.1-3.943-.41-10.327-.41-10.327a.728.728 0 0 1 .088-.382c4.086-7.486-1.168-14.618-1.221-14.689a.731.731 0 0 1-.139-.533c1.086-8.16.019-14.36-3.17-18.43a11.468 11.468 0 0 0-7.039-4.35c-4.929-.719-8.554.187-10.8 2.709-4.992 5.609-1.883 17.438-1.851 17.556a.728.728 0 0 1 .005.356c-3.457 14.455 3.742 22.483 3.815 22.561a.731.731 0 0 1 .183.613 12.507 12.507 0 0 0 5.7 13.087c.032.018.035.059.064.081a.634.634 0 0 1 .166.21.615.615 0 0 1 .1.246c.006.036.04.06.04.1-.014 6.213 1.9 10.95 5.7 14.078 8.087 6.659 22.169 3.978 22.312 3.952a.705.705 0 0 1 .375.023c24.521 8.4 34.616-6.938 34.715-7.094.342-.363 5.94-6.033 1.941-11.008-1.485-1.851-4.748-3.16-8.949-3.582Z"/><path class="cls-6" d="M106.193 312.964a8.057 8.057 0 0 0-3.339-6.745c-19.87.4-34.779 19.762-36.737 22.426 1.862 4.963 4.241 7.064 5.311 7.8.128-.228.288-.438.423-.662a.713.713 0 0 1 .517-.811c8.947-13.835 30.15-20.878 33.825-22.008Z"/><path class="cls-1" d="M130.741 375.8c10.427-5.717 19.4-7.17 26.468-6.807l.22-3.162-12.394-11.251a41.579 41.579 0 0 0-7.89 3.9 167.243 167.243 0 0 1-10.114 16.71 6.683 6.683 0 0 0 1.661 1.766c.427-.254.846-.48 1.269-.719a.686.686 0 0 1 .546-.51c.086-.006.154.048.234.073Z"/><path class="cls-4" d="M108.858 266.468s1.319-.174 3.607-.45c0-.039 0-.077.008-.116.9-5.986 3.184-9.049 4.276-10.208l-2.043-2.045a.724.724 0 0 1 0-1.023l1.088-1.094h-2.215l-4.745 14.947c.007-.001.014-.01.024-.011Z"/><path class="cls-12" d="M175.279 390.332a13.523 13.523 0 0 0-4.234 1.929 4.341 4.341 0 0 1 1 2.294 3.249 3.249 0 0 1-.47 1.916 6.8 6.8 0 0 0 2.1.647c1.685.181 2.849-.717 4.332-1.865a20.593 20.593 0 0 1 2.693-1.853 14.009 14.009 0 0 1 4.484-1.491c.012 0 .015-.02.028-.025.033-.011.063.013.1.007a17.109 17.109 0 0 1 3.367-.217 20.335 20.335 0 0 0-3.992-1.4 18.427 18.427 0 0 0-9.408.058Zm10.075 52.737a60.535 60.535 0 0 1 3.458-11.3l.619-1.434c2.452-5.634 5.459-12.555-.067-19.395a76.828 76.828 0 0 1-6.1 31.27 14.9 14.9 0 0 1 2.09.859Z"/><path class="cls-9" d="M135.514 132.2c-.024-1.669-.005-2.9.017-3.643l-13.029 1.2-7.67 3.447 5.752 2.32Zm94.686 4.3 8.3-2.329-7.521-5.715-21.136-2.58c-.365.7-1.176 2.275-2.333 4.545Z"/><path d="m208.501 128.474 20.697 5.202 3.201-1.023-2.111-2.18-22.216-3.544.429 1.545zm-72.751 1.149-12.725 1.562-4.907 1.605 4.147.886 13.485-2.491v-1.562z"/><path class="cls-9" d="M186.364 367.8c.023 1.669 0 2.9-.018 3.643l13.03-1.2 7.669-3.447-5.751-2.32Zm-94.688-4.3-8.3 2.329 7.521 5.715 21.136 2.58c.365-.7 1.177-2.275 2.334-4.545Z"/><path d="m113.376 371.525-20.696-5.202-3.202 1.023 2.111 2.18 22.216 3.544-.429-1.545zm72.752-1.149 12.725-1.562 4.906-1.605-4.146-.886-13.485 2.491v1.562z"/><path d="M253.44 176.455c2.339-2.632 3.68-4.511 3.725-4.576a.722.722 0 0 0 .086-.657c-2.714-7.54-6.634-9.271-6.8-9.342a.715.715 0 0 0-.871.285c-2.841-12.465-7.572-21.761-11.16-26.469l1.871-.526a.724.724 0 0 0 .243-1.275l-8.834-6.715a.737.737 0 0 0-.351-.142L209.7 124.4c-4.737-3.527-11.468-3.408-11.759-3.408a.731.731 0 0 0-.563.29c-.551.739-1.093 1.495-1.633 2.253a10.664 10.664 0 0 0-2.071-1.941.718.718 0 0 0-.807-.04c-.335.2-.661.377-.992.569-.251-2.855-.225-5.9-.188-8.428.021-1.4.032-2.467.009-3.28a11.928 11.928 0 0 0 5.246 2.234 22.515 22.515 0 0 0 3.294.257c3.795 0 6.737-1.153 8.774-3.443 5.215-5.861 2.623-17.088 2.213-18.71 3.235-13.8-2.662-21.863-3.966-23.434a14.142 14.142 0 0 0-6.122-14.03c-.073-6.466-2.154-11.446-6.216-14.79-8.187-6.738-21.476-4.619-23.316-4.289-25.467-8.622-36.12 7.587-36.124 7.625-.068.066-6.767 6.823-1.948 12.816a7.783 7.783 0 0 0 1.664 1.515 59.771 59.771 0 0 1-3.464 11.5l-.612 1.421c-2.631 6.044-6.213 14.3 1.485 22.243a61.455 61.455 0 0 0 2.861 15.461 20.208 20.208 0 0 1-5.452-.252.743.743 0 0 0-.795.441.724.724 0 0 0 .261.87 21.875 21.875 0 0 0 7.377 3.287c.076.018.14.021.215.038l.108.257a16.368 16.368 0 0 0 9.338 9.393 20.552 20.552 0 0 0 3.274 1.008 32.255 32.255 0 0 1 .127 3.654 17.216 17.216 0 0 1-1.813-1.154c-.5-.521-1.35-.192-2.248.394-.089-.96-.132-1.528-.136-1.575a.722.722 0 0 0-.672-.67c-.15-.028-3.506-.165-9.044 4.58l-13.754 1.27a.712.712 0 0 0-.231.061l-9.33 4.192a.724.724 0 0 0 .026 1.332l1.9.766c-3.842 2.431-14.466 11.4-18.322 37.929-.006.038.026.066.026.1a36.644 36.644 0 0 0-1.877.139.722.722 0 0 0-.576.408 22.087 22.087 0 0 0-2.038 9.042.728.728 0 0 0 .679.689c.028 0 .464.031 1.174.089a13.745 13.745 0 0 0-1.7 4.487 20.222 20.222 0 0 1-.952 3.178 45.074 45.074 0 0 1-2.076 4.133c-.543.99-1.084 1.981-1.569 2.994a53.414 53.414 0 0 0-5.359 19.529 7.444 7.444 0 0 0 3.641 6.861 16.655 16.655 0 0 0 2.217 1.106 21.648 21.648 0 0 1 2.36 1.318 55.06 55.06 0 0 0 27.4 8.45 9.1 9.1 0 0 0 .114 5.9.724.724 0 0 0 .686.491h.021c.017 0 .344-.012.889-.039a45.244 45.244 0 0 0-2.148 8.328c-.014.087.041.155.056.236l-.126.127c-.077-.028-.135-.092-.221-.092h-4c-.018 0-.028.018-.046.019l-35.7.01a.724.724 0 0 0-.55 1.195 9.483 9.483 0 0 0 3.042 2.372c-11.27 6.958-17.918 19.748-20.3 25.06a10.4 10.4 0 0 0-.934 4.48c.376 18.755 8.666 37.447 9.994 40.326-2.339 2.633-3.68 4.511-3.725 4.576a.727.727 0 0 0-.086.658c2.715 7.537 6.634 9.268 6.8 9.339a.758.758 0 0 0 .282.056.716.716 0 0 0 .591-.333C75.138 350.3 79.867 359.6 83.455 364.3l-1.871.526a.725.725 0 0 0-.243 1.276l8.837 6.714a.737.737 0 0 0 .351.142l21.666 2.644c4.342 3.226 10.347 3.408 11.54 3.408h.2a.731.731 0 0 0 .563-.29c.551-.739 1.093-1.5 1.633-2.253a10.7 10.7 0 0 0 2.069 1.944.728.728 0 0 0 .435.144.71.71 0 0 0 .374-.1c.335-.2.661-.377.992-.57a84.07 84.07 0 0 1 .188 8.426c-.021 1.4-.032 2.467-.009 3.28a11.942 11.942 0 0 0-5.246-2.234c-5.416-.8-9.476.272-12.068 3.186-5.215 5.861-2.623 17.088-2.213 18.71-3.235 13.805 2.662 21.863 3.967 23.434a14.141 14.141 0 0 0 6.122 14.03c.073 6.466 2.153 11.446 6.216 14.79 8.185 6.738 21.476 4.621 23.315 4.289a44.023 44.023 0 0 0 14.127 2.524c15.344 0 22-10.121 22-10.152.068-.066 6.768-6.823 1.95-12.816a7.819 7.819 0 0 0-1.666-1.515 59.7 59.7 0 0 1 3.465-11.5l.611-1.421c2.632-6.044 6.213-14.3-1.485-22.243a61.383 61.383 0 0 0-2.862-15.459 20.207 20.207 0 0 1 5.453.25.732.732 0 0 0 .795-.441.724.724 0 0 0-.261-.87 21.925 21.925 0 0 0-7.377-3.287c-.075-.018-.143-.026-.217-.042l-.106-.253a16.364 16.364 0 0 0-9.338-9.393 20.328 20.328 0 0 0-3.276-1.033 31.924 31.924 0 0 1-.124-3.629 17.183 17.183 0 0 1 1.812 1.154c.5.522 1.349.192 2.248-.394.089.961.133 1.528.136 1.575a.722.722 0 0 0 .672.67.858.858 0 0 0 .109 0c.632 0 3.878-.25 8.936-4.585l13.753-1.267a.713.713 0 0 0 .231-.062l9.331-4.194a.724.724 0 0 0-.025-1.332l-1.9-.766c3.842-2.431 14.465-11.4 18.321-37.929.006-.037-.025-.065-.026-.1a35.889 35.889 0 0 0 1.877-.138.725.725 0 0 0 .577-.408 22.084 22.084 0 0 0 2.037-9.044.727.727 0 0 0-.679-.689c-.028 0-.464-.031-1.174-.089a13.753 13.753 0 0 0 1.7-4.487 20.45 20.45 0 0 1 .954-3.178 45.083 45.083 0 0 1 2.077-4.133c.54-.99 1.081-1.983 1.566-2.994a53.413 53.413 0 0 0 5.351-19.529 7.452 7.452 0 0 0-3.642-6.863 17.3 17.3 0 0 0-2.215-1.1 21.547 21.547 0 0 1-2.361-1.318 55.06 55.06 0 0 0-27.4-8.45 9.1 9.1 0 0 0-.113-5.9.745.745 0 0 0-.708-.491c-.017 0-.344.012-.888.039a45.314 45.314 0 0 0 2.148-8.328c.014-.087-.04-.156-.056-.237l.124-.125c.077.029.136.093.224.093h4c.02 0 .032-.019.052-.021l35.689-.01a.724.724 0 0 0 .55-1.195 9.5 9.5 0 0 0-3.04-2.371c11.273-6.962 17.918-19.749 20.293-25.061a10.4 10.4 0 0 0 .934-4.479c-.379-18.757-8.67-37.448-9.997-40.325Zm2.318-5.1c-1.958 2.667-16.854 22.026-36.737 22.424a8.057 8.057 0 0 1-3.339-6.745c3.675-1.13 24.878-8.173 33.825-22.01a.713.713 0 0 0 .517-.811c.135-.224.295-.434.423-.662 1.07.741 3.453 2.842 5.311 7.805Zm-35.716 58.726c-.047-.017-.085-.055-.132-.071-2.456-.814-5.03 1-5.937 1.727.714-3.847-.607-10.159-.67-10.46a.7.7 0 0 0-.9-.532c3.917-10.458 4.9-22.034 5.127-26.3a7.548 7.548 0 0 0 .932.691.733.733 0 0 0 .358.094h.01c.661-.008 1.3-.1 1.949-.147.445.822 6.461 11.842 11.624 16.1a20.282 20.282 0 0 0-5.171 7.374c-1.557 3.343-6.34 10.298-7.19 11.525Zm-10.529 2.427a9.435 9.435 0 0 0-1.055-4.342 8.057 8.057 0 0 0-4.337-3.815c3.922-.829 6.66-1.606 7.919-1.989.462 2.5 1.106 7.356.353 9.789-.523.068-1.523.194-2.88.358Zm-5.936 12.3 2.057 2.058L195.4 257.16l-6.528-4.68 1.287-1.29a.724.724 0 0 0-.023-1.044l-13.67-12.561a2.658 2.658 0 0 0 1.209-.668 3.359 3.359 0 0 0 .5-3.6 2.389 2.389 0 0 0 1.39.583 1.327 1.327 0 0 0 .224-.018 2.285 2.285 0 0 0 2.049-1.2 2.964 2.964 0 0 0 .269-.748l13.817 11.662a.732.732 0 0 0 .854.059c.228-.145 5.445-3.532 6.118-8.815a3.669 3.669 0 0 0 .925-.923 3.959 3.959 0 0 0-.684-5.257.724.724 0 0 0-.9 1.136 2.492 2.492 0 0 1 .383 3.31 2.849 2.849 0 0 1-3.833.573 4.792 4.792 0 0 1-1.388-6.2 4.969 4.969 0 0 1 5.484-2.053 6.588 6.588 0 0 1 4.3 3.418 8.226 8.226 0 0 1 .791 5.039c-1.075 7.191-4.293 9.812-4.322 9.836a.724.724 0 0 0-.069 1.085Zm-43.5-20.034a12.663 12.663 0 0 0 2.509.538 9.509 9.509 0 0 1 2.451.561 12.554 12.554 0 0 1 4.033 3.411 24.937 24.937 0 0 1 2.447 3.273c.25.4.477.813.7 1.228.2.359.394.717.6 1.068.089.149.191.3.3.467a3.35 3.35 0 0 1 .74 1.695.347.347 0 0 1-.182.3 2.268 2.268 0 0 1-1.676-.03 6.454 6.454 0 0 1-2.224-1.915l-.294-.337a13.632 13.632 0 0 0-4.957-3.345 35.167 35.167 0 0 0-2.73-1.05 16.918 16.918 0 0 1-.543-.205 5.135 5.135 0 0 0-2.441-.511 3.8 3.8 0 0 0-2.141 1.237 5.756 5.756 0 0 1-.724.616 10.88 10.88 0 0 1-1.474.757 25.672 25.672 0 0 1-4.646 1.57c-3.179.759-7.85 1.256-12.045-.663h-.013c-1.347-5.678-2.159-15.394 5.7-20.785.043.009.069.049.114.049.244.007 6.075.064 10.133-2.32 2.442-1.435 10.936-5.922 17.741-3.489a43.889 43.889 0 0 1 8.571 4.8 3.865 3.865 0 0 1 1.57 2.742 71.645 71.645 0 0 0 1.088 8.257c1.1 4.114.4 4.845.312 4.915-.182.144-.649.071-1.249-.214-.087-.043-.176-.01-.266-.016a12.04 12.04 0 0 0-1.136-2.3c-.839-1.274-1.649-4.2-2.223-8.031a5 5 0 0 0-2.009-3.312c-3.062-2.235-8.109-3.289-8.323-3.334a.724.724 0 1 0-.292 1.419c.049.01 4.956 1.038 7.761 3.084a3.555 3.555 0 0 1 1.429 2.36c.356 2.367 1.146 6.637 2.448 8.61 1.2 1.828 2.09 4.9 1.427 6.121-.119.219-.313.443-.985.455-.013 0-1.232-.066-3.284-4.319-.6-1.826-1.059-3.343-1.093-3.435a14.04 14.04 0 0 0-10.611-7.491.707.707 0 0 0-.788.653.725.725 0 0 0 .652.79 12.733 12.733 0 0 1 9.406 6.583c.064.21 1.559 5.229 2.826 8.214.454 1.07.436 1.969-.05 2.466a1.384 1.384 0 0 1-1.459.274 6.562 6.562 0 0 0-.844-1.653 8.86 8.86 0 0 1-.268-.42c-.2-.335-.389-.676-.576-1.018-.241-.441-.481-.88-.746-1.3a26.485 26.485 0 0 0-2.59-3.466 13.719 13.719 0 0 0-4.54-3.779 10.759 10.759 0 0 0-2.825-.667 11.3 11.3 0 0 1-2.223-.465.724.724 0 0 0-.49 1.363Zm9.1 13.147a3.6 3.6 0 0 1-1.488 4.279 4.379 4.379 0 0 1-4.785-.394 5.527 5.527 0 0 1-1.957-4.668 7.239 7.239 0 0 1 2.139-4.459c.286.114.579.208.86.331a12.294 12.294 0 0 1 4.452 2.977l.286.328c.215.248.444.5.682.757l-.089.111a.727.727 0 0 0-.102.736Zm-12.709-1.49c-7.276.165-13.056.292-18.058-.643-.061-.2-.124-.416-.188-.635a21.1 21.1 0 0 0 11.942.356 27.484 27.484 0 0 0 4.989-1.7 11.382 11.382 0 0 0 1.594-.832 7.032 7.032 0 0 0 .918-.769 2.58 2.58 0 0 1 1.335-.853 3.831 3.831 0 0 1 1.724.419c.208.083.409.161.6.227.109.038.213.085.321.123a8.684 8.684 0 0 0-2.023 4.235Zm27.453-7.715a2.5 2.5 0 0 0 .776-1.693c4.566-.312 8.7-.809 12.316-1.371a5.4 5.4 0 0 0-.872 1.11 6.336 6.336 0 0 0 .742 7.146c-2.832.287-5.913.582-9.172.862l-5.475-4.62c-.018-.016-.045-.007-.064-.02a9.447 9.447 0 0 0-.185-1.11 2.956 2.956 0 0 0 .749.106 1.793 1.793 0 0 0 1.183-.412Zm14.507 6.493c.036 0 .055-.04.09-.049a4.717 4.717 0 0 0 2.79.352c-.827 3.351-3.763 5.8-4.877 6.617l-7.16-6.042c3.267-.287 6.361-.587 9.155-.88Zm50.064-71.22c-7.67 12.128-25.744 19.123-31.743 21.17-.011-.013-.006-.031-.017-.044-11.021-11.663-9.128-23.473-9.108-23.591a.724.724 0 0 0-.588-.837.707.707 0 0 0-.839.587 22.935 22.935 0 0 0 .23 7.175l-6.607-3.256a.725.725 0 0 0-.641 1.3l7.619 3.756a34.541 34.541 0 0 0 8.472 15.4c-.3.093-.479.147-.5.153a.723.723 0 0 0-.522.66 9.78 9.78 0 0 0 1.895 6.519c-.062 2-.655 15.885-5.348 27.946a.658.658 0 0 0 .007.3 129.136 129.136 0 0 1-26.094 4.347 19.492 19.492 0 0 0-.626-3.252 70.979 70.979 0 0 1-1.045-8.016 5.315 5.315 0 0 0-2.153-3.775 42.984 42.984 0 0 0-6.705-3.99c5.83-20.963 24.978-59.663 32.658-74.793l23.183 6.211a.742.742 0 0 0 .187.023.765.765 0 0 0 .2-.026l6.494-1.824c3.661 4.554 8.747 14.387 11.589 27.855Zm-9.992-29.821-8.3 2.329-22.694-6.079c1.156-2.27 1.968-3.84 2.333-4.545l21.136 2.58Zm-40.179-11.73c1.361.026 6.45.3 10.182 2.872-3.012 5.811-28.605 55.521-35.651 80.6a24.84 24.84 0 0 0-.885-.376 17.582 17.582 0 0 0-10.3-.072c2.877-10.762 15.417-54.415 36.652-83.024Zm-34.062 69.054c-2.56-17.775-1.66-36.973-.756-47.929a9.906 9.906 0 0 0 5.258 3.148 7.129 7.129 0 0 0 1.322.125 8.255 8.255 0 0 0 4.524-1.49l1.583 1.436a.731.731 0 0 0 .719.151 44.918 44.918 0 0 0 6.529-2.948 311.284 311.284 0 0 0-19.181 47.507Zm4.776-46.2c-2.859-.53-4.873-3.113-5.355-3.786.222-2.463.43-4.363.569-5.555l9.238 8.381a6.357 6.357 0 0 1-4.454.957Zm-6.8-3.892c-2.364 2.2-4.475 3.2-6.105 2.9a3.264 3.264 0 0 1-2.061-1.421l8.7-6.762a224.56 224.56 0 0 0-.536 5.283Zm-9.32 2.373a4.778 4.778 0 0 0 2.916 1.941c1.826.351 3.929-.448 6.229-2.281-.874 10.6-1.746 28.9.489 46.237-7.039-13.181-11.277-30.173-13.735-43.695l.012.018a.724.724 0 0 0 .485.3.739.739 0 0 0 .55-.144Zm40.27-20.723a6.653 6.653 0 0 1 1.661 1.763 167.078 167.078 0 0 0-10.115 16.711 41.62 41.62 0 0 1-7.889 3.9l-12.394-11.246.223-3.205c.681.035 1.33.1 2.047.1 6.71 0 14.953-1.716 24.367-6.865.067.021.12.072.193.072h.092a.687.687 0 0 0 .551-.529c.422-.246.834-.451 1.262-.704ZM136.6 42.734c.1-.158 10.187-15.5 34.715-7.094a.746.746 0 0 0 .375.023c.142-.026 14.224-2.706 22.312 3.952 3.8 3.128 5.714 7.865 5.7 14.078 0 .037.035.06.04.1a.962.962 0 0 0 .268.456c.028.022.031.063.063.081a12.509 12.509 0 0 1 5.7 13.087.731.731 0 0 0 .183.613c.073.078 7.271 8.106 3.814 22.561a.728.728 0 0 0 .006.356c.031.118 3.14 11.947-1.852 17.556-2.247 2.522-5.876 3.43-10.8 2.709a11.468 11.468 0 0 1-7.039-4.35c-3.189-4.07-4.256-10.27-3.17-18.43a.731.731 0 0 0-.139-.533c-.053-.071-5.307-7.2-1.221-14.689a.728.728 0 0 0 .088-.382s-.305-6.384-.41-10.326a6.6 6.6 0 0 1 2.368-4.638l.071.052a.724.724 0 0 0 .917-1.12c-.16-.132-4.013-3.206-10.863-1.151-4.736 1.414-11.222-.232-14.128-1.127a26.7 26.7 0 0 0 3.824-2.591.725.725 0 0 0-.925-1.117c-7.009 5.812-16.718 7.134-22.891 6.514-4.2-.424-7.46-1.73-8.947-3.579-4-4.978 1.598-10.645 1.941-11.011Zm-4.154 26.925.619-1.434a60.438 60.438 0 0 0 3.458-11.3 14.916 14.916 0 0 0 2.091.856 76.818 76.818 0 0 0-6.1 31.269c-5.529-6.836-2.522-13.757-.07-19.391Zm.752 38.662a17.9 17.9 0 0 0 3.159-.193c.025 0 .046.023.071.023a.741.741 0 0 0 .235-.038c.019-.006.023-.029.041-.036a14 14 0 0 0 4.47-1.482 20.268 20.268 0 0 0 2.7-1.851c1.483-1.144 2.65-2.035 4.33-1.863a6.818 6.818 0 0 1 2.1.647 3.25 3.25 0 0 0-.471 1.916 4.341 4.341 0 0 0 1 2.294 13.385 13.385 0 0 1-4.234 1.929 18.4 18.4 0 0 1-9.408.054 20.254 20.254 0 0 1-3.991-1.4Zm22.507-6.154a5.5 5.5 0 0 1 .336-.012c1.679 0 2.868.993 4.35 2.231a22.2 22.2 0 0 0 2.853 2.119 16.769 16.769 0 0 0 8.746 2.193h.142a22.135 22.135 0 0 1-4.7 1.493 20.223 20.223 0 0 1-10.272-.441 14.382 14.382 0 0 1-4.672-2.372c-.034-.029-.078-.076-.115-.11a3.2 3.2 0 0 1-1.1-1.959 1.829 1.829 0 0 1 .425-1.37 6.2 6.2 0 0 1 4.002-1.772Zm-4.436 19.951a25.64 25.64 0 0 0 4.048.328c7.163 0 15.814-2.648 25.847-7.925a.724.724 0 1 0-.674-1.282c-13.954 7.342-25.5 9.5-33.385 6.255a15.333 15.333 0 0 1-8.352-8.03 22.233 22.233 0 0 0 3.195.278 18.1 18.1 0 0 0 5.058-.684 14.449 14.449 0 0 0 4.844-2.264c.021-.017.039-.037.06-.055a16.6 16.6 0 0 0 4.791 2.38 19.912 19.912 0 0 0 6.295.962 24.228 24.228 0 0 0 4.719-.474 23.816 23.816 0 0 0 8.143-3.268.725.725 0 0 0 .293-.86.712.712 0 0 0-.778-.469c-4.569.61-8.407.03-11.387-1.75a20.555 20.555 0 0 1-2.666-1.987c-1.565-1.308-3.059-2.516-5.225-2.547a.666.666 0 0 0 .021-.287.732.732 0 0 0-.913-.462c-.038.011-3.674 1.178-5.919-.165a3.681 3.681 0 0 1-1.7-2.714c-.99-5.644 2.629-14.066 2.665-14.151a.724.724 0 1 0-1.327-.578c-.158.361-3.831 8.905-2.764 14.979a5.1 5.1 0 0 0 2.383 3.708 6.778 6.778 0 0 0 3.4.845 5.807 5.807 0 0 0-.667.481 8.333 8.333 0 0 0-2.906-.939c-2.267-.292-3.778.915-5.381 2.157a19.187 19.187 0 0 1-2.5 1.726 12.4 12.4 0 0 1-3.573 1.213c-7.744-23.612 2.036-46.007 3.118-48.357a25.425 25.425 0 0 0 3.437.582c.941.094 1.96.146 3.037.146a36.047 36.047 0 0 0 15.339-3.448c1.606.573 10.108 3.414 16.3 1.567a11.857 11.857 0 0 1 8.154.121 7.849 7.849 0 0 0-2.51 5.386c.095 3.542.349 9.044.4 10.16-3.907 7.393.32 14.417 1.257 15.82-1.08 8.447.106 14.929 3.528 19.269a13.9 13.9 0 0 0 1.127 1.243 24.322 24.322 0 0 1 .14 4.642 79.389 79.389 0 0 0 .253 9.242c-19.161 10.529-33.175 6.248-39.167 3.311a28.863 28.863 0 0 0-.06-4.105Zm-3.92 3.437a33.2 33.2 0 0 0 15.875 5.341L163 134.1l-13.432 10.435-1.337-1.887a257.886 257.886 0 0 1-2.215-16.26 6.42 6.42 0 0 1 1.331-.833Zm16.063 68.569c0 .009.017.009.022.016a303.308 303.308 0 0 0-3.386 11.793q-.979.317-1.885.675c-22.214-37.1-21.318-74.763-21.166-78.506 3.672-3.136 6.233-3.921 7.339-4.117.507 5.939 4.449 46.282 19.074 70.139ZM122.5 129.757l13.029-1.2a84.76 84.76 0 0 0-.017 3.643l-14.93 3.326-5.752-2.32Zm-6.181 5.61 3.929 1.585a.752.752 0 0 0 .429.036l14.867-3.312c.343 12.581 3.191 43.205 21.266 73.5a38.072 38.072 0 0 0-3.835 1.958 18.577 18.577 0 0 1-7.434 2.03.716.716 0 0 0 .024-.458 24.467 24.467 0 0 0-8.936-12.069.751.751 0 0 0-.311-.118 5.943 5.943 0 0 0-4.557 1.441 5.753 5.753 0 0 0-1.488 4.168c-9.717-21.428-3.111-49.715-3.044-50a.725.725 0 0 0-.535-.875.734.734 0 0 0-.872.535 107.347 107.347 0 0 0-2.265 24.435c-9.211-5.221-20.356-5.709-25.811-5.565 4.207-28.638 16.662-36.277 18.575-37.291Zm10.645 71.133a21.538 21.538 0 0 0-4.7-.837 38.523 38.523 0 0 0 3.676-9.5 53.651 53.651 0 0 0 3.283 9.162 11.009 11.009 0 0 0-2.259 1.175Zm-31.959-32.249c2.654-.213 17.547-1.029 28.607 5.653.107 2.6.325 5.278.693 7.984-11.253-4.561-27.561-6.033-31.045-6.3a21.288 21.288 0 0 1 1.745-7.337Zm-4.014 51.188a21.819 21.819 0 0 0-2.559-1.414 15.734 15.734 0 0 1-2.029-1.014 5.988 5.988 0 0 1-2.932-5.515 51.976 51.976 0 0 1 5.212-19c.475-.991 1-1.96 1.534-2.929a46.239 46.239 0 0 0 2.142-4.27 21.533 21.533 0 0 0 1.024-3.4 10.718 10.718 0 0 1 1.978-4.676c5.885.56 19.664 2.242 29.195 6.327.157.989.328 1.979.529 2.968a35.389 35.389 0 0 1-4.43 13.043 56.173 56.173 0 0 0-6.749.092.723.723 0 1 0 .1 1.443 40 40 0 0 1 11.588.534 7.851 7.851 0 0 0-.884.939 9.459 9.459 0 0 0-1.475 7.135c-1.367 1.233-6.094 6.309-2.3 14.669a11.145 11.145 0 0 0-2.7 3.339 53.013 53.013 0 0 1-27.244-8.271Zm31.245 5.763a.727.727 0 0 0 .254-.925c-4.343-8.867 1.694-13.5 1.953-13.7a.729.729 0 0 0 .283-.7 8.258 8.258 0 0 1 1.145-6.439 8.835 8.835 0 0 1 5.289-3.146.725.725 0 0 0 .615-.806c-.255-2.065.082-3.577 1-4.5a4.214 4.214 0 0 1 2.943-1.056c.1 0 .192 0 .259.007a23.305 23.305 0 0 1 8.009 10.626c-12.717 7.125-7.846 23.287-6.488 27.071a115.282 115.282 0 0 1-18.525 2.417 8.129 8.129 0 0 1 3.263-8.851Zm9.508 18.654L145.4 262.4a2.68 2.68 0 0 0-1.195.681 3.357 3.357 0 0 0-.5 3.6 2.091 2.091 0 0 0-1.611-.556 2.285 2.285 0 0 0-2.049 1.2 2.964 2.964 0 0 0-.269.748l-13.82-11.673a.722.722 0 0 0-.854-.059c-.228.145-5.446 3.533-6.118 8.815a3.669 3.669 0 0 0-.925.923 3.958 3.958 0 0 0 .685 5.257.724.724 0 0 0 .9-1.136 2.492 2.492 0 0 1-.383-3.31 2.841 2.841 0 0 1 3.833-.573 4.792 4.792 0 0 1 1.388 6.2 4.959 4.959 0 0 1-5.482 2.057 6.6 6.6 0 0 1-4.3-3.421 8.226 8.226 0 0 1-.791-5.039c1.075-7.191 4.293-9.812 4.323-9.836a.724.724 0 0 0 .068-1.084l-2.057-2.059 10.239-10.3 6.529 4.68-1.287 1.292a.724.724 0 0 0 .022 1.045Zm30.056 25.371a12.648 12.648 0 0 0-2.509-.538 9.527 9.527 0 0 1-2.452-.561 12.517 12.517 0 0 1-4.032-3.411 24.923 24.923 0 0 1-2.446-3.27c-.25-.4-.475-.812-.7-1.224-.2-.361-.4-.722-.609-1.075-.089-.149-.191-.3-.3-.467a3.35 3.35 0 0 1-.74-1.695.347.347 0 0 1 .182-.3 2.234 2.234 0 0 1 1.676.03 6.445 6.445 0 0 1 2.222 1.912l.3.34a13.668 13.668 0 0 0 4.958 3.35c.892.389 1.807.726 2.73 1.045.173.061.355.132.542.205a5.107 5.107 0 0 0 2.441.511 3.816 3.816 0 0 0 2.143-1.237 5.6 5.6 0 0 1 .722-.616 10.939 10.939 0 0 1 1.474-.757 25.672 25.672 0 0 1 4.646-1.57c3.179-.754 7.852-1.256 12.045.665.018.008.036 0 .054 0 1.394 5.67 2.248 15.347-5.731 20.784-.045-.01-.073-.052-.12-.052-.255 0-6.076-.066-10.133 2.32-2.442 1.433-10.945 5.922-17.741 3.491a43.905 43.905 0 0 1-8.57-4.8 3.862 3.862 0 0 1-1.571-2.739 71.7 71.7 0 0 0-1.088-8.26c-1.1-4.114-.4-4.845-.312-4.915.181-.149.645-.073 1.249.214.086.042.176.009.266.015a12.021 12.021 0 0 0 1.136 2.3c.839 1.274 1.649 4.2 2.223 8.031a4.993 4.993 0 0 0 2.01 3.312c3.061 2.235 8.108 3.289 8.322 3.334a.739.739 0 0 0 .147.014.724.724 0 0 0 .145-1.433c-.049-.01-4.956-1.038-7.76-3.084a3.553 3.553 0 0 1-1.43-2.36c-.356-2.367-1.146-6.637-2.447-8.61-1.2-1.828-2.091-4.9-1.428-6.121.119-.219.314-.443.986-.455.011 0 1.231.068 3.282 4.317.6 1.828 1.06 3.345 1.095 3.437a14.037 14.037 0 0 0 10.61 7.491h.069a.724.724 0 0 0 .067-1.445 12.735 12.735 0 0 1-9.406-6.583c-.064-.21-1.559-5.227-2.826-8.214-.454-1.068-.436-1.969.05-2.466a1.381 1.381 0 0 1 1.459-.274 6.562 6.562 0 0 0 .844 1.653c.1.146.188.288.268.42.2.337.391.681.58 1.025.239.439.478.875.742 1.3a26.807 26.807 0 0 0 2.59 3.464 13.694 13.694 0 0 0 4.54 3.779 10.768 10.768 0 0 0 2.825.667 11.3 11.3 0 0 1 2.223.465.751.751 0 0 0 .245.042.724.724 0 0 0 .245-1.405Zm-9.1-13.147a3.6 3.6 0 0 1 1.488-4.279 4.375 4.375 0 0 1 4.785.394 5.527 5.527 0 0 1 1.957 4.668 7.231 7.231 0 0 1-2.14 4.46c-.285-.113-.579-.207-.859-.329a12.3 12.3 0 0 1-4.451-2.98l-.289-.33c-.215-.247-.442-.5-.68-.754l.089-.112a.727.727 0 0 0 .1-.738Zm12.71 1.49c7.289-.165 13.075-.293 18.084.648.062.193.128.429.192.644a21.045 21.045 0 0 0-11.973-.37 27.484 27.484 0 0 0-4.989 1.7 11.382 11.382 0 0 0-1.594.832 7.032 7.032 0 0 0-.918.769 2.576 2.576 0 0 1-1.335.853 3.877 3.877 0 0 1-1.724-.422c-.208-.08-.408-.158-.6-.224-.108-.038-.213-.085-.321-.123a8.674 8.674 0 0 0 2.022-4.235Zm-27.454 7.715a2.5 2.5 0 0 0-.776 1.693c-4.567.312-8.7.81-12.319 1.371a5.415 5.415 0 0 0 .875-1.11 6.336 6.336 0 0 0-.742-7.146c2.832-.287 5.914-.58 9.172-.862l5.475 4.62c.019.016.045.01.065.024a9.427 9.427 0 0 0 .184 1.107 2.056 2.056 0 0 0-1.934.303Zm-33.607 34.267a7.548 7.548 0 0 0-.932-.691.56.56 0 0 0-.368-.094c-.661.008-1.3.1-1.949.147-.445-.822-6.461-11.842-11.624-16.1a20.282 20.282 0 0 0 5.171-7.374c1.554-3.342 6.337-10.3 7.187-11.523.047.018.084.056.132.072a4.094 4.094 0 0 0 1.3.2 8.114 8.114 0 0 0 4.636-1.93c-.713 3.845.607 10.157.67 10.458a.723.723 0 0 0 .709.573.733.733 0 0 0 .191-.031c-3.912 10.461-4.891 22.029-5.123 26.293Zm5.486-27.916c-.462-2.5-1.1-7.356-.353-9.786.522-.068 1.523-.2 2.88-.36a9.435 9.435 0 0 0 1.055 4.342 8.069 8.069 0 0 0 4.335 3.815c-3.921.83-6.658 1.606-7.917 1.989Zm13.616-12.844c-.037 0-.056.04-.091.049a4.719 4.719 0 0 0-2.791-.352c.827-3.351 3.763-5.8 4.877-6.617l7.161 6.043c-3.269.29-6.363.585-9.156.877Zm-8.745-11.143 2.043 2.044c-1.092 1.16-3.38 4.223-4.276 10.209-.006.039 0 .077-.008.116-2.288.276-3.607.45-3.607.45s-.017.009-.026.011l4.745-14.947h2.215l-1.088 1.094a.724.724 0 0 0 .002 1.023Zm-2.656-2.1-4.909 15.464c-.577.481-2.854 2.228-4.72 1.6-1.366-.458-2.326-2.115-2.851-4.93a.723.723 0 0 0-.332-.484.706.706 0 0 0-.38-.108.723.723 0 0 0-.2.028c-.049.014-5.34 1.49-9.038-1.139-2.2-1.565-3.424-4.3-3.635-8.129a.72.72 0 0 0-.274-.53.744.744 0 0 0-.581-.142 8.464 8.464 0 0 1-6.147-1.62Zm-52.162 31.64a9 9 0 0 1 .81-3.862c2.387-5.335 9.168-18.407 20.67-25a10.168 10.168 0 0 0 3.225.356c.356 3.9 1.763 6.75 4.187 8.474 3.406 2.421 7.779 1.876 9.52 1.527a8.212 8.212 0 0 0 2.294 4.472c-1 1.44-5.665 8.233-7.261 11.664A21.327 21.327 0 0 1 90.2 286a22.566 22.566 0 0 1-10.516 6.715.724.724 0 0 0 .169 1.428.691.691 0 0 0 .168-.018 23.272 23.272 0 0 0 8.337-4.347c4.381 3.453 9.762 12.765 11.155 15.259-13.363 1.627-24.165 11.04-30.017 17.343-1.89-4.207-9.256-21.695-9.608-39.189Zm11.54 53.256c-1.07-.738-3.449-2.839-5.311-7.8 1.958-2.664 16.867-22.028 36.737-22.426a8.057 8.057 0 0 1 3.339 6.745c-3.675 1.13-24.878 8.173-33.825 22.01a.713.713 0 0 0-.517.811c-.135.224-.295.434-.423.662Zm1.957-.435c7.67-12.129 25.745-19.123 31.744-21.17.011.013 0 .033.018.046 11.02 11.661 9.126 23.471 9.106 23.589a.724.724 0 0 0 .589.837.6.6 0 0 0 .126.012.725.725 0 0 0 .712-.6 22.934 22.934 0 0 0-.23-7.175l6.607 3.256a.734.734 0 0 0 .321.073.725.725 0 0 0 .321-1.374l-7.62-3.756a34.526 34.526 0 0 0-8.472-15.4c.3-.093.479-.147.5-.153a.723.723 0 0 0 .522-.66 9.78 9.78 0 0 0-1.895-6.519c.062-2 .656-15.885 5.348-27.946a.672.672 0 0 0-.006-.3 129.106 129.106 0 0 1 26.094-4.347 19.375 19.375 0 0 0 .625 3.252 65.351 65.351 0 0 1 1.045 8.019 5.315 5.315 0 0 0 2.153 3.772 43 43 0 0 0 6.705 3.991c-5.831 20.963-24.978 59.662-32.658 74.792l-23.183-6.211a.776.776 0 0 0-.383 0l-6.494 1.823c-3.666-4.548-8.753-14.381-11.595-27.849Zm9.992 29.819 8.3-2.329 22.693 6.079a710.794 710.794 0 0 1-2.333 4.545L90.9 371.546Zm40.179 11.73c-1.36-.026-6.449-.3-10.182-2.872 3.012-5.811 28.6-55.518 35.651-80.6.511.227.832.356.885.377a14.548 14.548 0 0 0 4.93.813 21.49 21.49 0 0 0 5.37-.755c-2.869 10.744-15.416 54.427-36.654 83.039Zm34.061-69.055c2.561 17.775 1.661 36.974.758 47.93a9.913 9.913 0 0 0-5.259-3.148 7.832 7.832 0 0 0-5.838 1.372l-1.591-1.443a.707.707 0 0 0-.719-.151 44.971 44.971 0 0 0-6.53 2.949 311.3 311.3 0 0 0 19.179-47.507Zm-4.775 46.2c2.859.53 4.873 3.113 5.355 3.786-.222 2.463-.43 4.363-.569 5.555l-9.238-8.382a6.345 6.345 0 0 1 4.452-.953Zm6.8 3.892c2.364-2.2 4.478-3.213 6.105-2.9a3.264 3.264 0 0 1 2.061 1.421l-8.7 6.762c.135-1.198.328-2.993.534-5.279Zm9.32-2.373a4.782 4.782 0 0 0-2.916-1.941c-1.831-.355-3.931.443-6.229 2.28.874-10.6 1.746-28.9-.489-46.236 7.038 13.179 11.277 30.173 13.735 43.695l-.012-.017a.722.722 0 0 0-.485-.3.77.77 0 0 0-.55.144Zm-40.27 20.726a6.7 6.7 0 0 1-1.661-1.766 167.243 167.243 0 0 0 10.114-16.71 41.579 41.579 0 0 1 7.89-3.9l12.394 11.246-.22 3.163c-7.071-.364-16.041 1.089-26.468 6.806-.08-.02-.148-.074-.234-.069a.684.684 0 0 0-.546.51c-.423.246-.842.471-1.269.726Zm56.585 80.31c-.1.156-10.194 15.492-34.715 7.094a.705.705 0 0 0-.375-.023c-.143.026-14.225 2.706-22.312-3.952-3.8-3.128-5.714-7.865-5.7-14.078 0-.037-.034-.061-.04-.1a.615.615 0 0 0-.1-.246.634.634 0 0 0-.166-.21c-.029-.022-.032-.063-.064-.081a12.507 12.507 0 0 1-5.7-13.087.731.731 0 0 0-.183-.613c-.073-.078-7.272-8.106-3.815-22.561a.728.728 0 0 0-.005-.356c-.032-.118-3.141-11.947 1.852-17.556 2.246-2.522 5.871-3.428 10.8-2.709a11.468 11.468 0 0 1 7.039 4.35c3.189 4.07 4.256 10.27 3.17 18.43a.731.731 0 0 0 .139.533c.053.071 5.307 7.2 1.221 14.689a.728.728 0 0 0-.088.382s.305 6.384.41 10.326a6.607 6.607 0 0 1-2.367 4.637l-.071-.051a.724.724 0 0 0-.917 1.12c.162.132 4.011 3.214 10.862 1.153 4.741-1.415 11.23.234 14.134 1.129a26.674 26.674 0 0 0-3.83 2.587.725.725 0 0 0 .925 1.117c7.01-5.809 16.717-7.144 22.889-6.514 4.2.424 7.464 1.73 8.95 3.579 3.997 4.984-1.601 10.652-1.943 11.017Zm4.154-26.925-.619 1.434a60.535 60.535 0 0 0-3.458 11.3 14.9 14.9 0 0 0-2.09-.854 76.828 76.828 0 0 0 6.1-31.27c5.526 6.841 2.519 13.762.067 19.396Zm-.753-38.661a17.035 17.035 0 0 0-3.367.216c-.034.006-.064-.018-.1-.007-.013 0-.016.02-.028.025a14.009 14.009 0 0 0-4.483 1.493 20.593 20.593 0 0 0-2.692 1.849c-1.483 1.148-2.647 2.046-4.332 1.865a6.8 6.8 0 0 1-2.1-.647 3.249 3.249 0 0 0 .47-1.916 4.341 4.341 0 0 0-1-2.294 13.523 13.523 0 0 1 4.234-1.929 18.427 18.427 0 0 1 9.407-.054 20.273 20.273 0 0 1 3.991 1.405Zm-22.506 6.153c-1.867.125-3.106-.9-4.686-2.218a22.1 22.1 0 0 0-2.853-2.12 16.8 16.8 0 0 0-8.748-2.19h-.142a22.152 22.152 0 0 1 4.7-1.493 20.2 20.2 0 0 1 10.272.441 14.382 14.382 0 0 1 4.672 2.372c.034.029.078.076.116.11a3.2 3.2 0 0 1 1.1 1.959 1.827 1.827 0 0 1-.425 1.37 6.2 6.2 0 0 1-4.006 1.775Zm4.44-19.9c-7.871-1.258-17.875 1.224-29.9 7.548a.724.724 0 1 0 .674 1.282c13.954-7.342 25.5-9.5 33.385-6.255a15.334 15.334 0 0 1 8.339 8 19.392 19.392 0 0 0-8.241.436 14.576 14.576 0 0 0-4.843 2.264c-.021.017-.039.037-.06.055a16.6 16.6 0 0 0-4.791-2.38 21.632 21.632 0 0 0-11.014-.488 23.816 23.816 0 0 0-8.143 3.268.726.726 0 0 0-.293.86.714.714 0 0 0 .777.469c4.583-.61 8.411-.03 11.388 1.75a20.555 20.555 0 0 1 2.666 1.987c1.567 1.308 3.057 2.543 5.224 2.561-.007.093-.051.18-.02.273a.731.731 0 0 0 .913.462c.037-.011 3.67-1.181 5.921.165a3.684 3.684 0 0 1 1.7 2.714c.99 5.645-2.629 14.066-2.665 14.151a.724.724 0 0 0 .374.953.743.743 0 0 0 .289.059.724.724 0 0 0 .664-.434c.158-.361 3.831-8.9 2.764-14.979a5.1 5.1 0 0 0-2.383-3.708 6.763 6.763 0 0 0-3.391-.847 5.744 5.744 0 0 0 .663-.479 8.346 8.346 0 0 0 2.906.939 5.115 5.115 0 0 0 .621.035c1.929 0 3.309-1.068 4.764-2.192a19.07 19.07 0 0 1 2.5-1.726 12.471 12.471 0 0 1 3.573-1.211c7.742 23.6-2.03 45.993-3.117 48.355a25.456 25.456 0 0 0-3.439-.582 35.969 35.969 0 0 0-18.378 3.3c-1.613-.581-10.109-3.426-16.3-1.564a11.886 11.886 0 0 1-8.151-.126 7.847 7.847 0 0 0 2.507-5.384c-.094-3.542-.349-9.044-.4-10.16 3.907-7.393-.319-14.417-1.257-15.82 1.08-8.447-.106-14.929-3.528-19.269a13.9 13.9 0 0 0-1.127-1.243 24.322 24.322 0 0 1-.14-4.642 79.128 79.128 0 0 0-.254-9.239c19.163-10.532 33.176-6.251 39.168-3.314a29.2 29.2 0 0 0 .055 4.16Zm3.916-3.486a33.107 33.107 0 0 0-15.874-5.353l.221-3.189 13.432-10.435 1.337 1.888a257.025 257.025 0 0 1 2.215 16.259 6.42 6.42 0 0 1-1.331.834ZM158.7 306.269a.778.778 0 0 0-.028-.049c-.069-.114-.134-.233-.2-.345 0-.009-.017-.009-.022-.016a306.79 306.79 0 0 0 3.389-11.8q.977-.317 1.879-.671c22.217 37.1 21.321 74.769 21.17 78.511-3.673 3.136-6.234 3.921-7.34 4.117-.513-5.909-4.42-45.843-18.848-69.747Zm40.677 63.976-13.029 1.2c.022-.746.041-1.975.017-3.644l14.93-3.326 5.754 2.32Zm6.182-5.613-3.93-1.585a.74.74 0 0 0-.429-.036l-14.866 3.312c-.344-12.581-3.192-43.2-21.267-73.494a38.473 38.473 0 0 0 3.835-1.959 18.6 18.6 0 0 1 7.434-2.03.716.716 0 0 0-.024.458 24.467 24.467 0 0 0 8.936 12.069.751.751 0 0 0 .311.118 5.911 5.911 0 0 0 .609.03 5.624 5.624 0 0 0 3.948-1.471 5.753 5.753 0 0 0 1.488-4.168c9.717 21.428 3.111 49.715 3.044 50a.726.726 0 0 0 .535.875.82.82 0 0 0 .17.019.722.722 0 0 0 .7-.554 107.369 107.369 0 0 0 2.264-24.455c8.386 4.755 18.371 5.607 24.215 5.607.579 0 1.1-.009 1.6-.022-4.211 28.635-16.665 36.272-18.577 37.286ZM194.91 293.5a21.4 21.4 0 0 0 4.7.837 38.564 38.564 0 0 0-3.676 9.5 53.651 53.651 0 0 0-3.283-9.162 11 11 0 0 0 2.259-1.175Zm31.96 32.249c-2.656.211-17.547 1.03-28.607-5.656a85.325 85.325 0 0 0-.693-7.983c9.913 4.018 23.73 5.639 29.268 6.148h.007c.741.068 1.353.119 1.765.151a21.3 21.3 0 0 1-1.74 7.341Zm4.014-51.19a21.819 21.819 0 0 0 2.559 1.414 16.057 16.057 0 0 1 2.029 1.014 5.992 5.992 0 0 1 2.928 5.513 51.955 51.955 0 0 1-5.212 19c-.475.99-1 1.959-1.532 2.925a46.17 46.17 0 0 0-2.142 4.273 21.436 21.436 0 0 0-1.025 3.395 10.716 10.716 0 0 1-1.978 4.676c-5.883-.559-19.665-2.242-29.2-6.328a70.187 70.187 0 0 0-.529-2.967 35.37 35.37 0 0 1 4.425-13.033c.73.035 1.51.058 2.374.058 1.3 0 2.76-.047 4.381-.16a.723.723 0 1 0-.1-1.443 39.882 39.882 0 0 1-11.589-.534 7.786 7.786 0 0 0 .885-.939 9.463 9.463 0 0 0 1.474-7.135c1.367-1.233 6.094-6.309 2.3-14.669a11.145 11.145 0 0 0 2.7-3.339 53.013 53.013 0 0 1 27.252 8.28Zm-28.284-9.368a.464.464 0 0 0-.026.055 8.94 8.94 0 0 1-2.936 3.551.727.727 0 0 0-.254.925c4.343 8.867-1.694 13.5-1.953 13.7a.73.73 0 0 0-.283.7 8.257 8.257 0 0 1-1.148 6.439 8.835 8.835 0 0 1-5.289 3.146.724.724 0 0 0-.614.806c.254 2.065-.083 3.577-1 4.5a4.3 4.3 0 0 1-3.2 1.049 23.313 23.313 0 0 1-8.009-10.626c12.717-7.123 7.846-23.285 6.488-27.069a115.125 115.125 0 0 1 18.525-2.419 7.632 7.632 0 0 1-.301 5.243Zm-1.669-6.585a112.948 112.948 0 0 0-17.694 2.534.725.725 0 0 0-.5.988c.026.061.107.264.208.528-4.96-.81-10.582-.69-17.57-.533l-3.039.067a6.815 6.815 0 0 0-2.474-5.136 5.789 5.789 0 0 0-6.426-.493 5.11 5.11 0 0 0-2.324 5.189 4.693 4.693 0 0 0-.686-.37 3.664 3.664 0 0 0-2.972.066 1.812 1.812 0 0 0-.465.45L133.28 249.3l1.356-1.36a.727.727 0 0 0-.091-1.1l-7.722-5.536a.732.732 0 0 0-.936.078l-6.938 6.977a42.573 42.573 0 0 1 2-6.964 113.143 113.143 0 0 0 17.691-2.531.724.724 0 0 0 .5-.988c-.007-.018-.093-.236-.206-.541a61.9 61.9 0 0 0 10 .663c2.345 0 4.855-.058 7.569-.12l3.038-.067a6.817 6.817 0 0 0 2.474 5.136 5.944 5.944 0 0 0 3.64 1.243 5.375 5.375 0 0 0 2.786-.75 5.107 5.107 0 0 0 2.324-5.189 4.562 4.562 0 0 0 .687.37 4.221 4.221 0 0 0 1.529.285 2.81 2.81 0 0 0 1.442-.351 1.78 1.78 0 0 0 .465-.45L188.6 250.7l-1.354 1.358a.726.726 0 0 0 .09 1.1l7.721 5.536a.73.73 0 0 0 .936-.078l6.939-6.978a42.649 42.649 0 0 1-2 6.968Zm6.237-12.256-2.043-2.044c1.092-1.16 3.38-4.223 4.276-10.209.006-.039 0-.077.008-.116 2.287-.276 3.606-.448 3.606-.448s.017-.009.026-.01l-4.741 14.946h-2.216l1.09-1.1a.724.724 0 0 0-.005-1.019Zm2.656 2.1 4.909-15.464c.577-.481 2.842-2.226 4.721-1.6 1.366.458 2.325 2.118 2.851 4.93a.722.722 0 0 0 .331.484.731.731 0 0 0 .581.08c.051-.012 5.341-1.49 9.038 1.139 2.2 1.565 3.424 4.3 3.635 8.129a.722.722 0 0 0 .274.531.751.751 0 0 0 .581.141 8.433 8.433 0 0 1 6.147 1.62Zm51.352-27.778c-2.384 5.332-9.162 18.4-20.667 25a10.074 10.074 0 0 0-3.228-.356c-.356-3.9-1.763-6.75-4.186-8.474-3.405-2.416-7.776-1.874-9.521-1.527a8.2 8.2 0 0 0-2.294-4.471c1-1.441 5.665-8.234 7.261-11.665a21.327 21.327 0 0 1 3.136-5.179 22.566 22.566 0 0 1 10.516-6.715.725.725 0 0 0-.337-1.41 23.272 23.272 0 0 0-8.337 4.347c-4.381-3.453-9.762-12.765-11.154-15.259 13.361-1.627 24.164-11.039 30.016-17.341 1.887 4.2 9.255 21.7 9.606 39.184a9 9 0 0 1-.81 3.864Z"/><path d="M161.924 79.871a3 3 0 1 0 2.691 3.288 3.005 3.005 0 0 0-2.691-3.288Zm-20.786.477a2.6 2.6 0 1 0 2.331 2.847 2.6 2.6 0 0 0-2.331-2.847Zm30.647-5.177-14.591.212a.724.724 0 0 0 .011 1.448h.01l14.591-.212a.723.723 0 0 0 .713-.733.75.75 0 0 0-.734-.715Zm-25.222 1.295-10.126.523a.724.724 0 0 0 .036 1.448h.039l10.127-.524a.724.724 0 1 0-.076-1.447Zm13.389 343.662a3 3 0 1 0-2.691-3.288 3 3 0 0 0 2.691 3.288Zm20.785-.476a2.6 2.6 0 1 0-2.331-2.848 2.6 2.6 0 0 0 2.331 2.848Zm-30.657 5.178h.01l14.591-.214a.724.724 0 0 0 .713-.736.771.771 0 0 0-.734-.712l-14.591.215a.724.724 0 0 0 .011 1.447Zm25.193-1.297h.039l10.126-.523a.725.725 0 0 0 .686-.762.713.713 0 0 0-.761-.686l-10.127.524a.724.724 0 0 0 .037 1.447Z"/></svg>