<svg id="Layer_1" data-name="Layer 1" xmlns="http://www.w3.org/2000/svg" viewBox="0 0 321.875 500"><defs><style>.cls-2{fill:#ffc306}.cls-3{fill:#ef870a}.cls-4{fill:#d90000}.cls-5{fill:#a50404}.cls-6{fill:#05703d}.cls-7{fill:#02592d}</style></defs><path style="fill:#fff" d="M0 0h321.875v500H0z"/><path d="M268.453 481.248H45.383a26.66 26.66 0 0 1-26.63-26.631V125.1a1.25 1.25 0 0 1 2.5 0v329.517a24.158 24.158 0 0 0 24.13 24.131h223.07a1.25 1.25 0 0 1 0 2.5Zm33.42-105.091a1.249 1.249 0 0 1-1.25-1.25V45.388a24.162 24.162 0 0 0-24.13-24.14H53.423a1.25 1.25 0 0 1 0-2.5h223.07a26.665 26.665 0 0 1 26.63 26.64v329.519a1.25 1.25 0 0 1-1.25 1.25Z"/><circle class="cls-2" cx="89.454" cy="102.973" r="21.848"/><path class="cls-3" d="M89.454 81.125v43.7a21.849 21.849 0 0 0 0-43.7Z"/><path class="cls-4" d="M67.764 105.564a21.844 21.844 0 0 0 43.38 0Z"/><path class="cls-5" d="M89.454 124.822a21.848 21.848 0 0 0 21.69-19.258h-21.69Z"/><path class="cls-6" d="M110.605 108.465a21.845 21.845 0 0 0 .562-7.9 106.918 106.918 0 0 1-43.457.286c-.068.7-.1 1.405-.1 2.121a21.867 21.867 0 0 0 .772 5.758 114.545 114.545 0 0 0 42.223-.265Z"/><path class="cls-7" d="M111.264 101.728q-.034-.585-.1-1.162a107.128 107.128 0 0 1-21.713 2.374v7.62a114.486 114.486 0 0 0 21.151-2.095c.106-.409.2-.824.28-1.242.021-.107.038-.215.058-.322a21.702 21.702 0 0 0 .288-2.249c.01-.129.022-.257.029-.387.026-.428.042-.858.042-1.292q0-.608-.035-1.207Z"/><circle class="cls-2" cx="89.454" cy="148.638" r="21.848"/><path class="cls-3" d="M89.454 126.79v43.7a21.849 21.849 0 0 0 0-43.7Z"/><path class="cls-4" d="M67.764 151.229a21.844 21.844 0 0 0 43.38 0Z"/><path class="cls-5" d="M89.454 170.487a21.848 21.848 0 0 0 21.69-19.258h-21.69Z"/><path class="cls-6" d="M110.605 154.13a21.845 21.845 0 0 0 .562-7.9 106.918 106.918 0 0 1-43.457.286c-.068.7-.1 1.405-.1 2.121a21.867 21.867 0 0 0 .772 5.758 114.545 114.545 0 0 0 42.223-.265Z"/><path class="cls-7" d="M111.264 147.393q-.034-.585-.1-1.162a107.128 107.128 0 0 1-21.71 2.369v7.62a114.486 114.486 0 0 0 21.151-2.095c.106-.409.2-.824.28-1.242.021-.107.038-.215.058-.322a21.702 21.702 0 0 0 .288-2.249c.01-.129.022-.257.029-.387.026-.428.042-.858.042-1.292q0-.607-.035-1.207Z"/><circle class="cls-2" cx="89.454" cy="194.303" r="21.848"/><path class="cls-3" d="M89.454 172.455v43.7a21.849 21.849 0 0 0 0-43.7Z"/><path class="cls-4" d="M67.764 196.894a21.844 21.844 0 0 0 43.38 0Z"/><path class="cls-5" d="M89.454 216.152a21.848 21.848 0 0 0 21.69-19.258h-21.69Z"/><path class="cls-6" d="M110.605 199.8a21.845 21.845 0 0 0 .562-7.9 106.918 106.918 0 0 1-43.457.286c-.068.7-.1 1.406-.1 2.121a21.867 21.867 0 0 0 .772 5.758 114.545 114.545 0 0 0 42.223-.265Z"/><path class="cls-7" d="M111.264 193.058q-.034-.585-.1-1.162a107.128 107.128 0 0 1-21.713 2.374v7.62a114.486 114.486 0 0 0 21.151-2.095c.106-.409.2-.824.28-1.242.021-.107.038-.215.058-.322a21.702 21.702 0 0 0 .288-2.249c.01-.129.022-.257.029-.387.026-.428.042-.858.042-1.292q0-.608-.035-1.207Z"/><circle class="cls-2" cx="232.421" cy="102.973" r="21.848"/><path class="cls-3" d="M232.422 81.125v43.7a21.849 21.849 0 0 0 0-43.7Z"/><path class="cls-4" d="M210.731 105.564a21.844 21.844 0 0 0 43.38 0Z"/><path class="cls-5" d="M232.421 124.822a21.847 21.847 0 0 0 21.689-19.258h-21.69Z"/><path class="cls-6" d="M253.573 108.465a21.9 21.9 0 0 0 .7-5.492 22.245 22.245 0 0 0-.134-2.407 106.923 106.923 0 0 1-43.458.286c-.067.7-.1 1.405-.1 2.121a21.826 21.826 0 0 0 .773 5.758 114.545 114.545 0 0 0 42.219-.266Z"/><path class="cls-7" d="M254.232 101.728q-.035-.585-.1-1.162a107.13 107.13 0 0 1-21.714 2.374v7.62a114.5 114.5 0 0 0 21.152-2.095c.106-.409.2-.824.28-1.242.021-.107.038-.215.057-.322a20.239 20.239 0 0 0 .202-1.341q.052-.452.087-.908c.01-.129.022-.257.029-.387.025-.428.041-.858.041-1.292q0-.608-.034-1.207Z"/><circle class="cls-2" cx="232.421" cy="148.638" r="21.848"/><path class="cls-3" d="M232.422 126.79v43.7a21.849 21.849 0 0 0 0-43.7Z"/><path class="cls-4" d="M210.731 151.229a21.844 21.844 0 0 0 43.38 0Z"/><path class="cls-5" d="M232.421 170.487a21.847 21.847 0 0 0 21.689-19.258h-21.69Z"/><path class="cls-6" d="M253.573 154.13a21.9 21.9 0 0 0 .7-5.492 22.245 22.245 0 0 0-.134-2.407 106.923 106.923 0 0 1-43.458.286c-.067.7-.1 1.405-.1 2.121a21.826 21.826 0 0 0 .773 5.758 114.545 114.545 0 0 0 42.219-.266Z"/><path class="cls-7" d="M254.232 147.393q-.035-.585-.1-1.162a107.13 107.13 0 0 1-21.714 2.374v7.62a114.5 114.5 0 0 0 21.152-2.095c.106-.409.2-.824.28-1.242.021-.107.038-.215.057-.322a20.239 20.239 0 0 0 .202-1.341q.052-.451.087-.908c.01-.129.022-.257.029-.387.025-.428.041-.858.041-1.292q0-.607-.034-1.207Z"/><circle class="cls-2" cx="232.421" cy="194.303" r="21.848"/><path class="cls-3" d="M232.422 172.455v43.7a21.849 21.849 0 0 0 0-43.7Z"/><path class="cls-4" d="M210.731 196.894a21.844 21.844 0 0 0 43.38 0Z"/><path class="cls-5" d="M232.421 216.152a21.847 21.847 0 0 0 21.689-19.258h-21.69Z"/><path class="cls-6" d="M253.573 199.8a21.9 21.9 0 0 0 .7-5.492 22.245 22.245 0 0 0-.134-2.407 106.923 106.923 0 0 1-43.458.286c-.067.7-.1 1.406-.1 2.121a21.826 21.826 0 0 0 .773 5.758 114.545 114.545 0 0 0 42.219-.266Z"/><path class="cls-7" d="M254.232 193.058q-.035-.585-.1-1.162a107.13 107.13 0 0 1-21.714 2.374v7.62a114.5 114.5 0 0 0 21.152-2.095c.106-.409.2-.824.28-1.242.021-.107.038-.215.057-.322a20.239 20.239 0 0 0 .202-1.341q.052-.451.087-.908c.01-.129.022-.257.029-.387.025-.428.041-.858.041-1.292q0-.608-.034-1.207Z"/><path d="M161.373 38.687q1.124-1.355 3.049-4.1a34.248 34.248 0 0 0 2.293-3.521 3.359 3.359 0 0 0 .366-1.4 1.718 1.718 0 0 0-.882-1.549 4.149 4.149 0 0 0-1.914-.608q-.987-.069-.986-.5 0-.39 1.421-.39h9.606a5.623 5.623 0 0 1 1.18.069.316.316 0 0 1 .218.344c0 .259-.29.405-.871.435a6.957 6.957 0 0 0-3.909 1.424 29.58 29.58 0 0 0-5.032 5.7q-3.232 4.371-3.6 5.1 6.672 9.981 9.422 12.941t5.067 3.051q.825.046.825.5 0 .39-.871.39-.368 0-1.88-.092-2.156-.137-4.035-.137-3.209 0-6.121.137c-.244.016-.489.023-.733.023q-1.1 0-1.1-.389 0-.459.6-.459 2.912 0 2.912-1.813 0-1.9-6.74-10.691a47.066 47.066 0 0 0-3.68 4.968q-2.946 4.278-2.946 5.379 0 .78 1.112 1.378a7.2 7.2 0 0 0 2.832.733q.847.066.848.447 0 .424-.8.424l-.848-.022-4.677-.115q-4.126 0-5.662.16-.963 0-.963-.447c0-.282.237-.424.711-.424a6.979 6.979 0 0 0 2.854-.573 6.241 6.241 0 0 0 2.171-1.56q.882-1 3.909-5.277t4.195-6.138q-7.887-11.517-9.709-13a7.094 7.094 0 0 0-4.138-1.618c-.413-.03-.619-.177-.619-.447s.382-.4 1.146-.4h12.059a3.693 3.693 0 0 1 1.043.08.408.408 0 0 1-.034.688 6.407 6.407 0 0 1-1.513.172 2.484 2.484 0 0 0-1.33.493 1.221 1.221 0 0 0-.55.976q0 .665 2.2 4.037a57.209 57.209 0 0 0 4.104 5.621Z"/><circle class="cls-2" cx="232.421" cy="397.027" r="21.848"/><path class="cls-3" d="M232.421 418.875v-43.7a21.849 21.849 0 0 0 0 43.7Z"/><path class="cls-4" d="M254.111 394.436a21.843 21.843 0 0 0-43.379 0Z"/><path class="cls-5" d="M232.421 375.178a21.847 21.847 0 0 0-21.689 19.258h21.689Z"/><path class="cls-6" d="M211.27 391.535a21.9 21.9 0 0 0-.7 5.492 22.244 22.244 0 0 0 .135 2.407 106.918 106.918 0 0 1 43.457-.286c.068-.7.1-1.405.1-2.121a21.867 21.867 0 0 0-.772-5.758 114.545 114.545 0 0 0-42.22.266Z"/><path class="cls-7" d="M210.611 398.272q.034.585.1 1.162a107.128 107.128 0 0 1 21.713-2.374v-7.62a114.494 114.494 0 0 0-21.151 2.1c-.106.409-.2.824-.28 1.242-.021.107-.038.215-.058.322a21.702 21.702 0 0 0-.288 2.25c-.01.128-.022.257-.029.386a21.28 21.28 0 0 0-.042 1.292q0 .608.035 1.207Z"/><circle class="cls-2" cx="232.421" cy="351.362" r="21.848"/><path class="cls-3" d="M232.421 373.21v-43.7a21.849 21.849 0 0 0 0 43.7Z"/><path class="cls-4" d="M254.111 348.771a21.843 21.843 0 0 0-43.379 0Z"/><path class="cls-5" d="M232.421 329.513a21.847 21.847 0 0 0-21.689 19.258h21.689Z"/><path class="cls-6" d="M211.27 345.87a21.9 21.9 0 0 0-.7 5.492 22.244 22.244 0 0 0 .135 2.407 106.918 106.918 0 0 1 43.457-.286c.068-.7.1-1.405.1-2.121a21.867 21.867 0 0 0-.772-5.758 114.545 114.545 0 0 0-42.22.266Z"/><path class="cls-7" d="M210.611 352.607q.034.585.1 1.162a107.128 107.128 0 0 1 21.713-2.374v-7.62a114.494 114.494 0 0 0-21.151 2.1c-.106.409-.2.824-.28 1.242-.021.107-.038.215-.058.322a21.702 21.702 0 0 0-.288 2.249c-.01.129-.022.258-.029.387a21.28 21.28 0 0 0-.042 1.292q0 .607.035 1.207Z"/><circle class="cls-2" cx="232.421" cy="305.697" r="21.848"/><path class="cls-3" d="M232.421 327.545v-43.7a21.849 21.849 0 0 0 0 43.7Z"/><path class="cls-4" d="M254.111 303.106a21.843 21.843 0 0 0-43.379 0Z"/><path class="cls-5" d="M232.421 283.848a21.847 21.847 0 0 0-21.689 19.258h21.689Z"/><path class="cls-6" d="M211.27 300.205a21.9 21.9 0 0 0-.7 5.492 22.244 22.244 0 0 0 .135 2.407 106.918 106.918 0 0 1 43.457-.286c.068-.7.1-1.4.1-2.121a21.867 21.867 0 0 0-.772-5.758 114.545 114.545 0 0 0-42.22.266Z"/><path class="cls-7" d="M210.611 306.942q.034.585.1 1.162a107.128 107.128 0 0 1 21.713-2.374v-7.62a114.494 114.494 0 0 0-21.151 2.095c-.106.409-.2.824-.28 1.242-.021.107-.038.215-.058.322a21.702 21.702 0 0 0-.288 2.249c-.01.129-.022.257-.029.387a21.28 21.28 0 0 0-.042 1.292q0 .607.035 1.207Z"/><circle class="cls-2" cx="89.454" cy="397.027" r="21.848"/><path class="cls-3" d="M89.454 418.875v-43.7a21.849 21.849 0 0 0 0 43.7Z"/><path class="cls-4" d="M111.144 394.436a21.844 21.844 0 0 0-43.38 0Z"/><path class="cls-5" d="M89.454 375.178a21.848 21.848 0 0 0-21.69 19.258h21.69Z"/><path class="cls-6" d="M68.3 391.535a21.9 21.9 0 0 0-.7 5.492 22.245 22.245 0 0 0 .134 2.407 106.923 106.923 0 0 1 43.458-.286c.067-.7.1-1.405.1-2.121a21.826 21.826 0 0 0-.773-5.758 114.545 114.545 0 0 0-42.219.266Z"/><path class="cls-7" d="M67.643 398.272q.034.585.1 1.162a107.13 107.13 0 0 1 21.714-2.374v-7.62a114.5 114.5 0 0 0-21.152 2.1c-.106.409-.2.824-.28 1.242-.021.107-.038.215-.057.322a21.704 21.704 0 0 0-.202 1.341q-.053.451-.087.909c-.01.128-.022.257-.029.386-.025.428-.041.858-.041 1.292q0 .608.034 1.207Z"/><circle class="cls-2" cx="89.454" cy="351.362" r="21.848"/><path class="cls-3" d="M89.454 373.21v-43.7a21.849 21.849 0 0 0 0 43.7Z"/><path class="cls-4" d="M111.144 348.771a21.844 21.844 0 0 0-43.38 0Z"/><path class="cls-5" d="M89.454 329.513a21.848 21.848 0 0 0-21.69 19.258h21.69Z"/><path class="cls-6" d="M68.3 345.87a21.9 21.9 0 0 0-.7 5.492 22.245 22.245 0 0 0 .134 2.407 106.923 106.923 0 0 1 43.458-.286c.067-.7.1-1.405.1-2.121a21.826 21.826 0 0 0-.773-5.758 114.545 114.545 0 0 0-42.219.266Z"/><path class="cls-7" d="M67.643 352.607q.034.585.1 1.162a107.13 107.13 0 0 1 21.711-2.369v-7.62a114.5 114.5 0 0 0-21.152 2.1c-.106.409-.2.824-.28 1.242-.021.107-.038.215-.057.322a21.704 21.704 0 0 0-.202 1.341q-.053.452-.087.908c-.01.129-.022.258-.029.387-.025.428-.041.858-.041 1.292q0 .607.034 1.207Z"/><circle class="cls-2" cx="89.454" cy="305.697" r="21.848"/><path class="cls-3" d="M89.454 327.545v-43.7a21.849 21.849 0 0 0 0 43.7Z"/><path class="cls-4" d="M111.144 303.106a21.844 21.844 0 0 0-43.38 0Z"/><path class="cls-5" d="M89.454 283.848a21.848 21.848 0 0 0-21.69 19.258h21.69Z"/><path class="cls-6" d="M68.3 300.205a21.9 21.9 0 0 0-.7 5.492 22.245 22.245 0 0 0 .134 2.407 106.923 106.923 0 0 1 43.458-.286c.067-.7.1-1.4.1-2.121a21.826 21.826 0 0 0-.773-5.758 114.545 114.545 0 0 0-42.219.266Z"/><path class="cls-7" d="M67.643 306.942q.034.585.1 1.162a107.13 107.13 0 0 1 21.714-2.374v-7.62a114.5 114.5 0 0 0-21.157 2.095c-.106.409-.2.824-.28 1.242-.021.107-.038.215-.057.322a21.704 21.704 0 0 0-.202 1.341q-.053.452-.087.908c-.01.129-.022.257-.029.387-.025.428-.041.858-.041 1.292q0 .607.034 1.207Z"/><path d="M160.5 461.313q-1.124 1.355-3.049 4.1a34.248 34.248 0 0 0-2.293 3.521 3.359 3.359 0 0 0-.366 1.4 1.716 1.716 0 0 0 .882 1.549 4.149 4.149 0 0 0 1.914.608q.987.069.986.5 0 .39-1.421.39h-9.606a5.623 5.623 0 0 1-1.18-.069.316.316 0 0 1-.218-.344c0-.259.29-.405.871-.435a6.957 6.957 0 0 0 3.909-1.424 29.58 29.58 0 0 0 5.032-5.7q3.232-4.371 3.6-5.105-6.671-9.981-9.422-12.941t-5.067-3.051q-.825-.047-.825-.5 0-.39.871-.39.368 0 1.88.092 2.156.137 4.035.137 3.21 0 6.121-.137c.244-.016.489-.023.734-.023q1.1 0 1.1.389 0 .459-.6.459-2.912 0-2.912 1.813 0 1.9 6.74 10.691a47.119 47.119 0 0 0 3.68-4.967q2.946-4.28 2.946-5.38 0-.78-1.112-1.378a7.2 7.2 0 0 0-2.831-.733q-.849-.066-.849-.447 0-.425.8-.424l.848.023 4.677.114q4.126 0 5.662-.16.963 0 .963.447c0 .282-.237.424-.711.424a6.979 6.979 0 0 0-2.854.573 6.241 6.241 0 0 0-2.178 1.572q-.882 1-3.908 5.277t-4.2 6.138q7.887 11.517 9.709 13a7.094 7.094 0 0 0 4.138 1.618c.413.03.619.177.619.447s-.382.4-1.146.4h-12.047a3.693 3.693 0 0 1-1.043-.08.408.408 0 0 1 .034-.688 6.41 6.41 0 0 1 1.514-.172 2.484 2.484 0 0 0 1.329-.493 1.221 1.221 0 0 0 .55-.976q0-.664-2.2-4.037a57.487 57.487 0 0 0-4.106-5.628Z"/><circle class="cls-2" cx="160.938" cy="82.424" r="21.848"/><path class="cls-3" d="M160.938 60.576v43.7a21.848 21.848 0 1 0 0-43.7Z"/><path class="cls-4" d="M139.247 85.015a21.844 21.844 0 0 0 43.38 0Z"/><path class="cls-5" d="M160.937 104.272a21.847 21.847 0 0 0 21.689-19.257h-21.69Z"/><path class="cls-6" d="M182.089 87.916a21.9 21.9 0 0 0 .7-5.492 22.263 22.263 0 0 0-.135-2.408 106.918 106.918 0 0 1-43.457.287c-.068.7-.1 1.405-.1 2.121a21.826 21.826 0 0 0 .772 5.758 114.566 114.566 0 0 0 42.22-.266Z"/><path class="cls-7" d="M182.748 81.179q-.034-.585-.1-1.162a107.06 107.06 0 0 1-21.714 2.375v7.62a114.5 114.5 0 0 0 21.152-2.095c.106-.41.2-.824.28-1.242.021-.107.038-.215.058-.322q.084-.462.149-.93a20.146 20.146 0 0 0 .139-1.32c.01-.129.022-.257.029-.386.025-.428.042-.858.042-1.292 0-.405-.013-.808-.035-1.207Z"/><circle class="cls-2" cx="160.938" cy="128.089" r="21.848"/><path class="cls-3" d="M160.938 106.241v43.7a21.848 21.848 0 1 0 0-43.7Z"/><path class="cls-4" d="M139.247 130.68a21.844 21.844 0 0 0 43.38 0Z"/><path class="cls-5" d="M160.937 149.937a21.847 21.847 0 0 0 21.689-19.257h-21.69Z"/><path class="cls-6" d="M182.089 133.581a21.9 21.9 0 0 0 .7-5.492 22.263 22.263 0 0 0-.135-2.408 106.918 106.918 0 0 1-43.457.287c-.068.7-.1 1.405-.1 2.121a21.826 21.826 0 0 0 .772 5.758 114.566 114.566 0 0 0 42.22-.266Z"/><path class="cls-7" d="M182.748 126.844q-.034-.585-.1-1.162a107.06 107.06 0 0 1-21.714 2.375v7.62a114.5 114.5 0 0 0 21.152-2.095c.106-.41.2-.824.28-1.242.021-.107.038-.215.058-.322q.084-.462.149-.93c.018-.137.036-.273.052-.411.036-.3.064-.6.087-.909.01-.129.022-.257.029-.386.025-.428.042-.858.042-1.292 0-.405-.013-.808-.035-1.207Z"/><circle class="cls-2" cx="160.938" cy="173.754" r="21.848"/><path class="cls-3" d="M160.938 151.906v43.7a21.848 21.848 0 1 0 0-43.7Z"/><path class="cls-4" d="M139.247 176.345a21.844 21.844 0 0 0 43.38 0Z"/><path class="cls-5" d="M160.937 195.6a21.847 21.847 0 0 0 21.689-19.257h-21.69Z"/><path class="cls-6" d="M182.089 179.246a21.9 21.9 0 0 0 .7-5.492 22.263 22.263 0 0 0-.135-2.408 106.918 106.918 0 0 1-43.457.287c-.068.7-.1 1.405-.1 2.121a21.826 21.826 0 0 0 .772 5.758 114.566 114.566 0 0 0 42.22-.266Z"/><path class="cls-7" d="M182.748 172.509q-.034-.585-.1-1.162a107.06 107.06 0 0 1-21.714 2.375v7.62a114.5 114.5 0 0 0 21.152-2.095c.106-.41.2-.824.28-1.242.021-.107.038-.215.058-.322q.084-.462.149-.93c.018-.137.036-.273.052-.411.036-.3.064-.6.087-.909.01-.129.022-.257.029-.386.025-.428.042-.858.042-1.292 0-.405-.013-.808-.035-1.207Z"/><circle class="cls-2" cx="160.938" cy="219.419" r="21.848"/><path class="cls-3" d="M160.938 197.571v43.7a21.848 21.848 0 1 0 0-43.7Z"/><path class="cls-4" d="M139.247 222.01a21.844 21.844 0 0 0 43.38 0Z"/><path class="cls-5" d="M160.937 241.267a21.847 21.847 0 0 0 21.689-19.257h-21.69Z"/><path class="cls-6" d="M182.089 224.911a21.9 21.9 0 0 0 .7-5.492 22.263 22.263 0 0 0-.135-2.408 106.918 106.918 0 0 1-43.457.287c-.068.7-.1 1.405-.1 2.121a21.826 21.826 0 0 0 .772 5.758 114.566 114.566 0 0 0 42.22-.266Z"/><path class="cls-7" d="M182.748 218.174q-.034-.585-.1-1.162a107.06 107.06 0 0 1-21.714 2.375v7.62a114.5 114.5 0 0 0 21.152-2.095c.106-.41.2-.824.28-1.242.021-.107.038-.215.058-.322q.084-.462.149-.93c.018-.137.036-.273.052-.411.036-.3.064-.6.087-.909.01-.129.022-.257.029-.386.025-.428.042-.858.042-1.292 0-.405-.013-.808-.035-1.207Z"/><circle class="cls-2" cx="160.938" cy="417.576" r="21.848"/><path class="cls-3" d="M160.937 439.424v-43.7a21.848 21.848 0 0 0 0 43.7Z"/><path class="cls-4" d="M182.628 414.985a21.844 21.844 0 0 0-43.38 0Z"/><path class="cls-5" d="M160.938 395.728a21.847 21.847 0 0 0-21.689 19.257h21.69Z"/><path class="cls-6" d="M139.786 412.085a21.888 21.888 0 0 0-.7 5.491 22.264 22.264 0 0 0 .134 2.408 106.918 106.918 0 0 1 43.457-.287c.068-.7.1-1.405.1-2.121a21.826 21.826 0 0 0-.773-5.758 114.545 114.545 0 0 0-42.218.267Z"/><path class="cls-7" d="M139.127 418.821q.034.585.1 1.162a107.06 107.06 0 0 1 21.714-2.375v-7.62a114.412 114.412 0 0 0-21.152 2.1c-.106.409-.2.823-.28 1.241-.021.107-.038.215-.058.322q-.084.462-.149.93c-.018.137-.036.274-.052.411q-.053.452-.087.909c-.01.129-.022.257-.029.386-.025.428-.041.858-.041 1.292q0 .607.034 1.207Z"/><circle class="cls-2" cx="160.938" cy="371.911" r="21.848"/><path class="cls-3" d="M160.937 393.759v-43.7a21.848 21.848 0 0 0 0 43.7Z"/><path class="cls-4" d="M182.628 369.32a21.844 21.844 0 0 0-43.38 0Z"/><path class="cls-5" d="M160.938 350.063a21.847 21.847 0 0 0-21.689 19.257h21.69Z"/><path class="cls-6" d="M139.786 366.419a21.9 21.9 0 0 0-.7 5.492 22.264 22.264 0 0 0 .134 2.408 106.918 106.918 0 0 1 43.457-.287c.068-.7.1-1.4.1-2.121a21.826 21.826 0 0 0-.773-5.758 114.566 114.566 0 0 0-42.218.266Z"/><path class="cls-7" d="M139.127 373.156q.034.585.1 1.162a107.06 107.06 0 0 1 21.714-2.375v-7.62a114.5 114.5 0 0 0-21.152 2.095c-.106.41-.2.824-.28 1.242-.021.107-.038.215-.058.322q-.084.462-.149.93c-.018.137-.036.274-.052.411q-.053.451-.087.909c-.01.129-.022.257-.029.386-.025.428-.041.858-.041 1.292q0 .607.034 1.207Z"/><circle class="cls-2" cx="160.938" cy="326.246" r="21.848"/><path class="cls-3" d="M160.937 348.094V304.4a21.848 21.848 0 0 0 0 43.7Z"/><path class="cls-4" d="M182.628 323.655a21.844 21.844 0 0 0-43.38 0Z"/><path class="cls-5" d="M160.938 304.4a21.847 21.847 0 0 0-21.689 19.257h21.69Z"/><path class="cls-6" d="M139.786 320.754a21.9 21.9 0 0 0-.7 5.492 22.264 22.264 0 0 0 .134 2.408 106.918 106.918 0 0 1 43.457-.287c.068-.7.1-1.405.1-2.121a21.826 21.826 0 0 0-.773-5.758 114.566 114.566 0 0 0-42.218.266Z"/><path class="cls-7" d="M139.127 327.491q.034.585.1 1.162a107.06 107.06 0 0 1 21.714-2.375v-7.62a114.5 114.5 0 0 0-21.152 2.1c-.106.41-.2.824-.28 1.242-.021.107-.038.215-.058.322q-.084.462-.149.93c-.018.137-.036.274-.052.411q-.053.452-.087.909c-.01.129-.022.257-.029.386-.025.428-.041.858-.041 1.292q0 .608.034 1.207Z"/><circle class="cls-2" cx="160.938" cy="280.581" r="21.848"/><path class="cls-3" d="M160.937 302.429v-43.7a21.848 21.848 0 0 0 0 43.7Z"/><path class="cls-4" d="M182.628 277.99a21.844 21.844 0 0 0-43.38 0Z"/><path class="cls-5" d="M160.938 258.733a21.847 21.847 0 0 0-21.689 19.257h21.69Z"/><path class="cls-6" d="M139.786 275.089a21.9 21.9 0 0 0-.7 5.492 22.264 22.264 0 0 0 .134 2.408 106.918 106.918 0 0 1 43.457-.287c.068-.7.1-1.4.1-2.121a21.826 21.826 0 0 0-.773-5.758 114.566 114.566 0 0 0-42.218.266Z"/><path class="cls-7" d="M139.127 281.826q.034.585.1 1.162a107.06 107.06 0 0 1 21.714-2.375v-7.62a114.5 114.5 0 0 0-21.152 2.095c-.106.41-.2.824-.28 1.242-.021.107-.038.215-.058.322q-.084.462-.149.93c-.018.137-.036.274-.052.411q-.053.452-.087.909c-.01.129-.022.257-.029.386-.025.428-.041.858-.041 1.292q0 .607.034 1.207Z"/><path d="M7.217 22.167h9.722v49.486h-4.911V27.011H4.257Zm12.919 24.759q0-9.321 2.1-14.413a16.806 16.806 0 0 1 5.937-7.72 14.839 14.839 0 0 1 8.579-2.626 15.2 15.2 0 0 1 8.713 2.642 17.661 17.661 0 0 1 6.173 7.928q2.271 5.284 2.271 14.189 0 8.873-2.237 14.125a17.587 17.587 0 0 1-6.172 7.927 15.221 15.221 0 0 1-8.747 2.675 14.808 14.808 0 0 1-8.545-2.595 16.873 16.873 0 0 1-5.938-7.735q-2.134-5.14-2.134-14.397Zm4.676.08q0 7.983 1.5 12.07a12.827 12.827 0 0 0 4.424 6.2 10.15 10.15 0 0 0 12.346.048 12.618 12.618 0 0 0 4.34-6.2 35.213 35.213 0 0 0 1.85-12.118 34.646 34.646 0 0 0-1.648-11.651 13.61 13.61 0 0 0-4.558-6.635 10.1 10.1 0 0 0-12.33 0 12.915 12.915 0 0 0-4.41 6.18q-1.513 4.091-1.514 12.106Zm289.846 430.827h-9.722v-49.486h4.911v44.642h7.771Zm-12.919-24.759q0 9.321-2.1 14.414a16.809 16.809 0 0 1-5.937 7.719 14.837 14.837 0 0 1-8.579 2.626 15.2 15.2 0 0 1-8.713-2.642 17.661 17.661 0 0 1-6.173-7.928q-2.271-5.284-2.271-14.189 0-8.873 2.237-14.125a17.588 17.588 0 0 1 6.174-7.927 15.218 15.218 0 0 1 8.746-2.675 14.806 14.806 0 0 1 8.545 2.6 16.873 16.873 0 0 1 5.938 7.735q2.133 5.136 2.133 14.392Zm-4.676-.08q0-7.983-1.5-12.07a12.827 12.827 0 0 0-4.424-6.2 10.15 10.15 0 0 0-12.346-.048 12.618 12.618 0 0 0-4.34 6.2 35.237 35.237 0 0 0-1.85 12.118 34.646 34.646 0 0 0 1.648 11.651 13.6 13.6 0 0 0 4.559 6.635 10.094 10.094 0 0 0 12.329 0 12.915 12.915 0 0 0 4.407-6.184q1.517-4.088 1.517-12.102Z"/><path class="cls-3" d="M25.29 103.5a3.625 3.625 0 1 0 3.626 3.625 3.624 3.624 0 0 0-3.626-3.625Zm0 5.316a1.689 1.689 0 1 1 1.687-1.691 1.692 1.692 0 0 1-1.687 1.689Z"/><circle class="cls-2" cx="25.29" cy="92.994" r="14.129"/><path class="cls-3" d="M25.29 78.865v28.258a14.129 14.129 0 0 0 0-28.258Z"/><path class="cls-4" d="M11.264 94.67a14.126 14.126 0 0 0 28.053 0Z"/><path class="cls-5" d="M25.29 107.123A14.128 14.128 0 0 0 39.317 94.67H25.29Z"/><path class="cls-6" d="M38.969 96.545a14.133 14.133 0 0 0 .45-3.551 14.308 14.308 0 0 0-.087-1.557 69.138 69.138 0 0 1-28.1.185c-.044.452-.068.909-.068 1.372a14.122 14.122 0 0 0 .5 3.724 74.071 74.071 0 0 0 27.305-.173Z"/><path class="cls-7" d="M39.4 92.189q-.023-.378-.063-.752a69.183 69.183 0 0 1-14.047 1.535V97.9a73.993 73.993 0 0 0 13.679-1.356q.1-.4.181-.8c.014-.069.025-.138.037-.208.036-.2.069-.4.1-.6.012-.088.023-.177.033-.266q.035-.293.057-.588c.006-.083.014-.166.019-.25.016-.276.026-.554.026-.835q0-.393-.022-.781Z"/><path class="cls-3" d="M296.585 396.5a3.625 3.625 0 1 0-3.625-3.625 3.624 3.624 0 0 0 3.625 3.625Zm0-5.316a1.689 1.689 0 1 1-1.687 1.691 1.692 1.692 0 0 1 1.687-1.689Z"/><circle class="cls-2" cx="296.585" cy="407.006" r="14.129"/><path class="cls-3" d="M296.585 421.135v-28.258a14.129 14.129 0 1 0 0 28.258Z"/><path class="cls-4" d="M310.612 405.33a14.126 14.126 0 0 0-28.054 0Z"/><path class="cls-5" d="M296.585 392.877a14.128 14.128 0 0 0-14.027 12.453h14.027Z"/><path class="cls-6" d="M282.906 403.455a14.156 14.156 0 0 0-.363 5.108 69.138 69.138 0 0 1 28.1-.185c.044-.452.068-.909.068-1.372a14.122 14.122 0 0 0-.5-3.724 74.071 74.071 0 0 0-27.305.173Z"/><path class="cls-7" d="M282.48 407.811q.022.378.063.752a69.183 69.183 0 0 1 14.042-1.535V402.1a74 74 0 0 0-13.679 1.356q-.1.4-.181.8c-.014.069-.025.138-.037.208-.036.2-.069.4-.1.6-.012.088-.023.177-.033.266q-.034.292-.057.588c-.006.083-.014.166-.019.25a14.41 14.41 0 0 0-.004 1.616Z"/></svg>