<svg id="Layer_1" data-name="Layer 1" xmlns="http://www.w3.org/2000/svg" viewBox="0 0 321.875 500"><defs><style>.cls-2{fill:#ef870a}.cls-3{fill:#ffc306}.cls-4{fill:#d90000}.cls-5{fill:#a50404}.cls-6{fill:#05703d}.cls-7{fill:#02592d}.cls-8{fill:#099bdb}.cls-9{fill:#ffb200}.cls-10{fill:#ff7f00}.cls-11{fill:#035128}.cls-12{fill:#f9c9af}.cls-13{fill:#f94c10}.cls-14{fill:#94dced}</style></defs><path style="fill:#fff" d="M0 1h321.875v500H0z"/><path d="M268.453 482.248H45.383a26.66 26.66 0 0 1-26.63-26.631V126.1a1.25 1.25 0 0 1 2.5 0v329.517a24.158 24.158 0 0 0 24.13 24.131h223.07a1.25 1.25 0 0 1 0 2.5Zm33.42-105.091a1.249 1.249 0 0 1-1.25-1.25V46.388a24.162 24.162 0 0 0-24.13-24.14H53.423a1.25 1.25 0 0 1 0-2.5h223.07a26.665 26.665 0 0 1 26.63 26.64v329.519a1.25 1.25 0 0 1-1.25 1.25Z"/><path class="cls-2" d="M25.29 104.5a3.625 3.625 0 1 0 3.626 3.625 3.624 3.624 0 0 0-3.626-3.625Zm0 5.316a1.689 1.689 0 1 1 1.687-1.691 1.692 1.692 0 0 1-1.687 1.689Z"/><circle class="cls-3" cx="25.29" cy="93.994" r="14.129"/><path class="cls-2" d="M25.29 79.865v28.258a14.129 14.129 0 0 0 0-28.258Z"/><path class="cls-4" d="M11.264 95.67a14.126 14.126 0 0 0 28.053 0Z"/><path class="cls-5" d="M25.29 108.123A14.128 14.128 0 0 0 39.317 95.67H25.29Z"/><path class="cls-6" d="M38.969 97.545a14.133 14.133 0 0 0 .45-3.551 14.308 14.308 0 0 0-.087-1.557 69.138 69.138 0 0 1-28.1.185c-.044.452-.068.909-.068 1.372a14.122 14.122 0 0 0 .5 3.724 74.071 74.071 0 0 0 27.305-.173Z"/><path class="cls-7" d="M39.4 93.189q-.023-.378-.063-.752a69.183 69.183 0 0 1-14.047 1.535V98.9a73.993 73.993 0 0 0 13.679-1.356q.1-.4.181-.8c.014-.069.025-.138.037-.208.036-.2.069-.4.1-.6.012-.088.023-.177.033-.266q.035-.293.057-.588c.006-.083.014-.166.019-.25.016-.276.026-.554.026-.835q0-.393-.022-.781Z"/><path d="M9.309 23.167h4.824v29.14a60.35 60.35 0 0 0 .2 6.465A10.716 10.716 0 0 0 16 63.547a9.869 9.869 0 0 0 4.036 3.215 12.635 12.635 0 0 0 5.48 1.3 10.806 10.806 0 0 0 4.594-1.018 10.213 10.213 0 0 0 3.676-2.822 11.519 11.519 0 0 0 2.165-4.364 36.047 36.047 0 0 0 .493-7.548V23.167h4.824v29.14a35.493 35.493 0 0 1-1.264 10.452 14.211 14.211 0 0 1-5.053 6.94 14.473 14.473 0 0 1-9.172 2.954 17.577 17.577 0 0 1-10.009-2.789 13.435 13.435 0 0 1-5.57-7.384q-.887-2.822-.886-10.173Z"/><path class="cls-2" d="M296.585 397.5a3.625 3.625 0 1 0-3.625-3.625 3.624 3.624 0 0 0 3.625 3.625Zm0-5.316a1.689 1.689 0 1 1-1.687 1.691 1.692 1.692 0 0 1 1.687-1.689Z"/><circle class="cls-3" cx="296.585" cy="408.006" r="14.129"/><path class="cls-2" d="M296.585 422.135v-28.258a14.129 14.129 0 1 0 0 28.258Z"/><path class="cls-4" d="M310.612 406.33a14.126 14.126 0 0 0-28.054 0Z"/><path class="cls-5" d="M296.585 393.877a14.128 14.128 0 0 0-14.027 12.453h14.027Z"/><path class="cls-6" d="M282.906 404.455a14.156 14.156 0 0 0-.363 5.108 69.138 69.138 0 0 1 28.1-.185c.044-.452.068-.909.068-1.372a14.122 14.122 0 0 0-.5-3.724 74.071 74.071 0 0 0-27.305.173Z"/><path class="cls-7" d="M282.48 408.811q.022.378.063.752a69.183 69.183 0 0 1 14.042-1.535V403.1a74 74 0 0 0-13.679 1.356q-.1.4-.181.8c-.014.069-.025.138-.037.208-.036.2-.069.4-.1.6-.012.088-.023.177-.033.266q-.034.292-.057.588c-.006.083-.014.166-.019.25a14.41 14.41 0 0 0-.004 1.616Z"/><path d="M312.566 478.833h-4.824v-29.14a60.35 60.35 0 0 0-.2-6.465 10.715 10.715 0 0 0-1.673-4.775 9.879 9.879 0 0 0-4.037-3.215 12.635 12.635 0 0 0-5.48-1.3 10.806 10.806 0 0 0-4.594 1.018 10.224 10.224 0 0 0-3.676 2.822 11.519 11.519 0 0 0-2.165 4.364 36.119 36.119 0 0 0-.493 7.548v29.14H280.6v-29.14a35.5 35.5 0 0 1 1.263-10.452 14.207 14.207 0 0 1 5.054-6.94 14.469 14.469 0 0 1 9.172-2.954 17.576 17.576 0 0 1 10.008 2.789 13.435 13.435 0 0 1 5.579 7.384q.887 2.822.886 10.173Z"/><path class="cls-8" d="M63.986 241.573a8.862 8.862 0 1 0 8.861 8.862 8.86 8.86 0 0 0-8.861-8.862Zm0 13a4.129 4.129 0 1 1 4.124-4.133 4.133 4.133 0 0 1-4.124 4.128Z"/><circle class="cls-9" cx="63.986" cy="215.898" r="34.537"/><path class="cls-10" d="M63.986 181.361v69.074a34.537 34.537 0 0 0 0-69.074Z"/><path class="cls-4" d="M29.7 219.993a34.53 34.53 0 0 0 68.574 0Z"/><path class="cls-5" d="M63.986 250.435a34.537 34.537 0 0 0 34.287-30.442H63.986Z"/><path class="cls-6" d="M97.421 224.579a34.558 34.558 0 0 0 1.1-8.681 34.908 34.908 0 0 0-.213-3.806 169.013 169.013 0 0 1-68.7.452 35.005 35.005 0 0 0-.164 3.354A34.536 34.536 0 0 0 30.67 225a181.041 181.041 0 0 0 66.751-.421Z"/><path class="cls-11" d="M98.463 213.929q-.054-.924-.153-1.836a169.345 169.345 0 0 1-34.324 3.753v12.046a180.947 180.947 0 0 0 33.435-3.312c.168-.647.313-1.3.443-1.963.034-.169.061-.34.091-.509a33.828 33.828 0 0 0 .456-3.556c.016-.2.035-.407.047-.611.039-.676.065-1.356.065-2.042q0-.961-.055-1.908l-.005-.062Z"/><path class="cls-8" d="M257.889 260.427a8.862 8.862 0 1 0-8.861-8.862 8.86 8.86 0 0 0 8.861 8.862Zm0-13a4.129 4.129 0 1 1-4.124 4.133 4.134 4.134 0 0 1 4.124-4.128Z"/><circle class="cls-9" cx="257.889" cy="286.102" r="34.537"/><path class="cls-10" d="M257.889 320.639v-69.074a34.537 34.537 0 0 0 0 69.074Z"/><path class="cls-4" d="M292.176 282.007a34.53 34.53 0 0 0-68.574 0Z"/><path class="cls-5" d="M257.889 251.565a34.537 34.537 0 0 0-34.289 30.442h34.287Z"/><path class="cls-6" d="M224.454 277.421a34.5 34.5 0 0 0-.888 12.487 169.025 169.025 0 0 1 68.7-.452c.106-1.1.164-2.222.164-3.354a34.577 34.577 0 0 0-1.22-9.1 181.046 181.046 0 0 0-66.756.419Z"/><path class="cls-11" d="M223.412 288.071q.054.924.154 1.836a169.327 169.327 0 0 1 34.323-3.753v-12.045a180.947 180.947 0 0 0-33.435 3.312c-.168.647-.313 1.3-.443 1.963-.034.169-.06.34-.091.509a33.828 33.828 0 0 0-.456 3.556c-.015.2-.035.407-.046.611a34.53 34.53 0 0 0-.066 2.042q0 .962.055 1.908l.005.061Z"/><path class="cls-12" d="M158.947 62.645c.054-.049.075-.125.145-.157 7.978-3.725 8.15-8.444 8.153-8.492a.737.737 0 0 1 .732-.723h.007a.731.731 0 0 1 .726.73 4.784 4.784 0 0 1-.146 1l1.669 1.4c.7-2.329.677-4.1-.137-5.228a4.562 4.562 0 0 0-3.643-1.506c-1.561 0-5.09 1.809-6.316 2.505a.733.733 0 1 1-.725-1.274 26.6 26.6 0 0 1 6.092-2.584 5.783 5.783 0 0 0-3.511-2.9c-3.707-.93-8.012 2.281-8.052 2.312a.734.734 0 0 1-.888-1.169 15.464 15.464 0 0 1 6-2.646 4.034 4.034 0 0 0-2.467-1.983c-3.006-.792-6.811 1.966-6.85 1.995a.733.733 0 1 1-.868-1.181 15.632 15.632 0 0 1 3.361-1.761c-1.49-1.034-3.649-.918-6.444.372a16.325 16.325 0 0 0-4.356 2.887c-6.728 6.326-9.465 15.038-10.126 17.464 2.816.674 6.191 1.767 8.28 3.408a30.382 30.382 0 0 1 19.364-2.469Z"/><path class="cls-9" d="M148.1 36.75a17.192 17.192 0 0 1 17.985 3.229 34.833 34.833 0 0 1 5.91 7.8c2.048 3.306 4 6.417 7 8.484l1.64-1.768 3.278 2.36a12.61 12.61 0 0 0 2.139-2.081c-5.849-1.16-9.026-6.164-12.071-11.063-2.193-3.526-4.457-7.169-7.683-9.171a21.047 21.047 0 0 0-19.745-1.048 7.976 7.976 0 0 1 1.543 3.26Z"/><path class="cls-9" d="m183.891 58.634-3.052-2.2-10.468 11.283c.6.441 1.019.789 1.233.974a16.523 16.523 0 0 1 5.768 2.2c2.269-2.08 13.56-12.659 15.044-18.589a9.354 9.354 0 0 0-1.367-7.885 5.7 5.7 0 0 0-3.67-2.252 3.317 3.317 0 0 0-2.493.758 3.424 3.424 0 0 0-1.131 3.916 3.129 3.129 0 0 0 3.359 1.935 4.525 4.525 0 0 0 1.284-.22l.89-.329.093.944c.546 5.6-4.843 9.057-5.072 9.2Zm-4.636 110.541c.007.2.012.37.019.435a10.588 10.588 0 0 0 1.468 4.139c1.8 2.81 5.869 4.08 8.935 4.08h.091c2.237-.022 5.079-1.026 6.384-3.228 1.658-2.8-.145-5.869-2.522-7.535-3.707-2.6-8.131-1.82-10.436-1.124l-.248.074-6.454-2.612a43.87 43.87 0 0 1-3.341.9l5.591 2.846c.449.229.458.539.513 2.025Z"/><path class="cls-4" d="M121.213 237.765h.65c11.162-44.519 35.94-66.321 43.624-72.176a58.615 58.615 0 0 1-6.044.322c-10.768 0-24.291-3.132-33.639-16.273a10.309 10.309 0 0 1-2.2.243 13.448 13.448 0 0 1-5.671-1.322c-5.209-2.46-7.988-7.557-6.194-11.36 1.336-2.83 4.836-4.156 8.687-3.637a15.63 15.63 0 0 1-7.378-7.65.724.724 0 0 1-.343-.22 60.058 60.058 0 0 0-11.335-10.836.733.733 0 0 1 .825-1.212c.079.054.8.556 1.878 1.411a32.8 32.8 0 0 0 6.388-5.333 35.984 35.984 0 0 1 1.3-9 5.386 5.386 0 0 1-2.588-2.147l-.549-.837.964-.272c3.543-1 4.2-3.6 5.194-7.545.092-.364.192-.749.291-1.129a70.1 70.1 0 0 0-12.806-6.7.688.688 0 0 1-.271.277 109.044 109.044 0 0 0-26.537 15.812 16.315 16.315 0 0 0-4.893 17.892c2.725 7.813 6.1 13.754 8.236 16.176 2.271 2.572 4.154 6.036 6.537 10.421 1.515 2.79 3.236 5.951 5.395 9.518a124.171 124.171 0 0 0 13.69 17.775c.076.066 2.8 2.564 3.328 4.938.692 3.109 3.627 13.657 7.9 21.082.055.057 2.727 3.481 3.233 6.533.167 1 .248 2.681.348 4.807.194 4.09.461 9.689 1.568 13.49 1.499 5.135 1.341 12.187.412 16.952Z"/><path class="cls-9" d="M140.43 43.176c.287-.27.633-.494.944-.745a5.492 5.492 0 0 1-.935-.286 4.256 4.256 0 0 1-2.188-2.058 3.391 3.391 0 0 1 1.3-4.369.733.733 0 0 1 .654 1.312 1.965 1.965 0 0 0-.621 2.439 2.825 2.825 0 0 0 1.446 1.331 4.891 4.891 0 0 0 2.141.342 18.983 18.983 0 0 1 2.006-1.115c.378-.175.718-.291 1.069-.424.016-.029 0-.064.021-.092a2.677 2.677 0 0 0 .468-1.3c-.009-.014-.028-.015-.036-.031a.69.69 0 0 1 .037-.653 4.686 4.686 0 0 0-.066-.5 6.69 6.69 0 0 0-2.774-4.1c-2.83-1.816-6.908-1-9.477.74a6.824 6.824 0 0 0-3.259 6.174 6.537 6.537 0 0 0 6.849 5.9 32.3 32.3 0 0 1 2.421-2.565Z"/><path class="cls-13" d="M200.344 369.469a34.236 34.236 0 0 0-17.286-7.034l-2.006 4.252c-3.955 4.8-3.455 13.223-3.132 16.186a20.6 20.6 0 0 1 5.372-2.038.723.723 0 0 1 .881.547.733.733 0 0 1-.547.88c-4.607 1.083-7.907 3.261-9.8 6.475-2.52 4.269-1.891 9.266-1.531 11.122 2.887-2.453 6.254-3.739 10.435-2.463a.733.733 0 0 1-.43 1.4c-7.289-2.233-11.9 4.675-16.348 11.352-2.157 3.238-4.194 6.3-6.435 8.012-6.487 4.963-14.286 1.661-16.679.439-.611 1.48-1.8 5.108-.3 8.22 1.222 2.543 3.987 4.254 8.217 5.077l.208.041.155.147a18.392 18.392 0 0 0 1.926 1.528c.017.013.041.006.056.021s0 .019.013.026c4.736 3.315 17.464 9.779 34.032-1.181l.222-.148.269.031c.466.051 11.144 1.126 13.986-11.362a3.414 3.414 0 0 1-.568.058 2.238 2.238 0 0 1-.558-.06.733.733 0 0 1-.52-.9.744.744 0 0 1 .9-.52 1.938 1.938 0 0 0 1.333-.354.365.365 0 0 1 .034-.018c.761-.494 1.706-1.6 2.474-4.033.387-1.219.68-2.385.955-3.476.913-3.621 1.713-6.79 5.191-8.238-.474-.5-1.08-.931-1.476-.759l-1.549.656.573-1.581a33.044 33.044 0 0 0 1.551-9.835 15.166 15.166 0 0 1 1.808-7.6c-.6 0-1.446.01-2.612.1l-.981.077.207-.964c.072-.352 1.816-8.985-8.04-14.083Z"/><path class="cls-6" d="M85.125 333.179c3.512-6.995 14.2-19.013 16.474-21.055a21.669 21.669 0 0 0 3.865-5.008 8.25 8.25 0 0 0 .489-1.313 2.634 2.634 0 0 1-1.085.571 3.176 3.176 0 0 1-2.517-.575c-11.042-5.295-18.171-23.26-19.932-28.123-11.44 13.292-17.15 36.676-17.649 38.783 1.406 6.358 16.93 14.905 20.355 16.72Z"/><path class="cls-8" d="M113.736 253.66a13.435 13.435 0 0 0 4.3.871 17.2 17.2 0 0 0 5.616-.184 3.635 3.635 0 0 0 2.756-3.557v-5.347a7.04 7.04 0 0 1 .847-4.109 6.111 6.111 0 0 1 2.161-1.91.655.655 0 0 1-.107-.1 3.068 3.068 0 0 0-.641-.1h-14.657a3.259 3.259 0 0 0-1.577.4c-.905.5-1.957 1.36-1.838 2.611.17 1.787.342 5.4.427 7.4a4.738 4.738 0 0 0 .757 2.359h.129l.008.194a4.266 4.266 0 0 0 1.819 1.472Z"/><path class="cls-8" d="m114.606 257.921.242-.074a4.776 4.776 0 0 1 3.467.248c.38.187.761.4 1.142.611 6.868.358 11.606.2 13.688-.458l.132-.041.138.01c.189-.031 1.945 0 2.14-2.849.248-3.636.11-10.579.11-10.651a3.179 3.179 0 0 0-.828-2.4c-.942-.99-2.6-1.418-4.927-1.313-.071 0-.1-.045-.164-.057a4.285 4.285 0 0 0-1.253 1.167 5.635 5.635 0 0 0-.623 3.316v5.357a5.093 5.093 0 0 1-3.87 4.982 15.207 15.207 0 0 1-3.552.384 18.8 18.8 0 0 1-2.56-.165 14.59 14.59 0 0 1-4.71-.973 5.5 5.5 0 0 1-1.065-.641 5.168 5.168 0 0 0 2.493 3.547Z"/><path class="cls-14" d="M178.556 71.8a8.612 8.612 0 0 1 2.112 2.743 10.819 10.819 0 0 1 .362 7.527l64.816 53.714a63.866 63.866 0 0 1 4.9-5.994l-68.7-61.325a144.652 144.652 0 0 1-3.49 3.335Z"/><path class="cls-8" d="M245.846 135.782a96.82 96.82 0 0 1 2.427-3.152L178.556 71.8a8.6 8.6 0 0 1 2.112 2.743 10.819 10.819 0 0 1 .362 7.527Z"/><path class="cls-14" d="M143.319 430.191a8.6 8.6 0 0 1-2.112-2.743 10.819 10.819 0 0 1-.362-7.527l-64.816-53.713a63.866 63.866 0 0 1-4.9 5.994l68.7 61.325a129.336 129.336 0 0 1 3.49-3.336Z"/><path class="cls-8" d="M76.029 366.208a97.86 97.86 0 0 1-2.427 3.151l69.717 60.833a8.612 8.612 0 0 1-2.112-2.743 10.819 10.819 0 0 1-.362-7.527Z"/><path class="cls-9" d="M123.378 237.765h5.287a4.281 4.281 0 0 1 .819.092c6.706-18.626 21.548-51.435 47.542-69.931l-6.153-3.133c-.724.14-1.5.275-2.329.4-.905.585-32.152 21.154-45.166 72.572Z"/><path class="cls-13" d="M121.531 132.521a34.247 34.247 0 0 0 17.288 7.034l2-4.252c3.958-4.8 3.457-13.226 3.135-16.187a20.653 20.653 0 0 1-5.375 2.038.635.635 0 0 1-.167.019.732.732 0 0 1-.167-1.445c4.607-1.084 7.907-3.262 9.8-6.476 2.528-4.282 1.889-9.3 1.53-11.139a11.072 11.072 0 0 1-7.24 2.98 10.884 10.884 0 0 1-3.195-.5.734.734 0 0 1 .43-1.4c7.286 2.228 11.9-4.672 16.348-11.35 2.157-3.24 4.194-6.3 6.435-8.012 6.489-4.967 14.289-1.663 16.682-.439.608-1.479 1.792-5.111.3-8.222-1.221-2.543-3.987-4.251-8.217-5.074l-.207-.041-.156-.148a18.523 18.523 0 0 0-1.93-1.529c-.016-.012-.038-.006-.052-.02s0-.017-.012-.024c-4.735-3.313-17.462-9.777-34.032 1.179l-.222.148-.27-.031c-.475-.062-11.141-1.126-13.984 11.356a2.85 2.85 0 0 1 1.124.008.733.733 0 1 1-.377 1.417 1.986 1.986 0 0 0-1.331.354c-.013.01-.027.012-.041.021-.759.493-1.7 1.595-2.469 4.027-.384 1.22-.678 2.384-.952 3.474-.914 3.625-1.713 6.8-5.194 8.244.474.493 1.076.918 1.477.758l1.548-.656-.573 1.582a33.018 33.018 0 0 0-1.55 9.835 15.173 15.173 0 0 1-1.809 7.6c.592 0 1.444-.012 2.613-.1l.98-.076-.207.964c-.073.354-1.812 8.984 8.039 14.083Z"/><path class="cls-9" d="M113.071 137.825c-1.451 3.073 1.014 7.293 5.492 9.407a10.975 10.975 0 0 0 7.145.934 11.564 11.564 0 0 1 3.093-6.884 1.785 1.785 0 0 1 .276-.183 10.832 10.832 0 0 0-5.253-5.014c-4.479-2.111-9.303-1.331-10.753 1.74Z"/><path class="cls-6" d="M175.75 162.1a13.635 13.635 0 0 0-2.2-6.456c-.493.131-1.356.335-2.478.548-.013 0-.021.015-.035.015h-.019c-7.125 1.344-25.524 2.988-40.6-11.481a.734.734 0 0 1 1.017-1.059c.305.293.615.561.923.841l.752-1.8a19.57 19.57 0 0 0-2.964-.508.3.3 0 0 0-.274.1 10.3 10.3 0 0 0-2.739 6.678c15.94 22.154 44.394 14.422 48.617 13.122Z"/><path class="cls-12" d="M178.807 84.926c-1.3-.709-9.3-4.727-15.554.065-2.047 1.565-4.018 4.526-6.1 7.659a55.162 55.162 0 0 1-6.328 8.321c0 .007.01.009.012.015.081.287 1.952 7.122-1.51 13a13.692 13.692 0 0 1-3.99 4.268c.306 2.206 1.368 12.128-3.318 17.909l-2.305 4.957-.518-.05a36.488 36.488 0 0 1-3.592-.545l-2.086 5.006c13.887 11.741 30.016 10.533 36.814 9.317a22.983 22.983 0 0 1 2.256-8.69 56.98 56.98 0 0 1-4.849.214c-5.731 0-11.934-.94-16.449-3.963a.733.733 0 0 1 .816-1.217c9.22 6.175 26 3.171 29.683 1.813 2.8-1.037 2.415-2.813 1.444-5.613a6.48 6.48 0 0 1-.37-3.142l-.248.028.1-.912c.055-.5.079-.928.088-1.29a10.448 10.448 0 0 1-4.294 1.7l-1.67.215.98-1.37a2.183 2.183 0 0 0 .454-1.047c-5.875 3.584-15.056 3.626-15.461 3.626h-3.722l3.438-1.41c.074-.031 7.291-3.008 9.629-5.37 1.877-1.9 6.024-6.1 11.117-5.684a.687.687 0 0 1 .574-.35c2.066 0 3.975-1.453 5.213-2.67a1.933 1.933 0 0 0 .2-2.51 85.027 85.027 0 0 1-7.78-13.714 8.266 8.266 0 0 1-1.112-4.433 28.951 28.951 0 0 0-1.562-14.133Zm-7.542 25.112a3.074 3.074 0 1 1 3.073-3.073 3.073 3.073 0 0 1-3.073 3.073Zm3.891-9.009a20.658 20.658 0 0 0-13.385 2 .709.709 0 0 1-.381.11.733.733 0 0 1-.389-1.355 21.689 21.689 0 0 1 14.413-2.2.731.731 0 0 1 .592.85.713.713 0 0 1-.85.595Z"/><path class="cls-9" d="M161.016 63.156a30.4 30.4 0 0 1 8.136 3.719l4.944-5.326-6.051-5.071c-.833 1.831-2.729 4.387-7.029 6.678Z"/><path class="cls-13" d="m186.308 130.765.081-.132a4.23 4.23 0 0 0 .212-4.1 4.056 4.056 0 0 0-3.17-2.336 7.521 7.521 0 0 0-.855-.05c-4.132 0-7.58 3.489-9.295 5.223a26.988 26.988 0 0 1-6.487 4.1c3.39-.389 8.2-1.329 11.428-3.615l.506-.358.437.439a2.324 2.324 0 0 1 .527 2.057 7.13 7.13 0 0 0 3.19-1.957l.952-1.1.319 1.422a8.467 8.467 0 0 1 .1 2.111 4.5 4.5 0 0 0 2.055-1.704Zm-50.741 240.46-.081.131a4.226 4.226 0 0 0-.212 4.1 4.05 4.05 0 0 0 3.171 2.338c4.521.525 8.317-3.321 10.149-5.173a26.955 26.955 0 0 1 6.487-4.1c-3.39.389-8.2 1.329-11.428 3.614l-.506.358-.436-.439a2.319 2.319 0 0 1-.528-2.056 7.13 7.13 0 0 0-3.183 1.959l-.95 1.105-.322-1.42a8.673 8.673 0 0 1-.1-2.114 4.478 4.478 0 0 0-2.061 1.697Z"/><path class="cls-6" d="M206.109 415.621a8.847 8.847 0 0 1-2.822 4.623c-2.5 13.743-13.623 13.712-15.55 13.6a43.213 43.213 0 0 1-3.98 2.294c3.555 2.343 10.352 3.393 11.615 3.573a109.932 109.932 0 0 0 26.834-17.236 77.816 77.816 0 0 1-15.821-7.8c-.092.313-.174.625-.276.946Z"/><path class="cls-12" d="M168.872 439.97a28.248 28.248 0 0 1-5.91-.663c-.062.065-.092.155-.179.195-7.978 3.724-8.15 8.441-8.153 8.489a.737.737 0 0 1-.732.723h-.007a.73.73 0 0 1-.725-.73 4.745 4.745 0 0 1 .144-1l-1.668-1.4c-.7 2.329-.676 4.1.137 5.226a4.564 4.564 0 0 0 3.646 1.508c1.558 0 5.087-1.808 6.315-2.505a.733.733 0 0 1 .726 1.274 26.662 26.662 0 0 1-6.094 2.585 5.791 5.791 0 0 0 3.515 2.9c3.71.949 8.007-2.281 8.047-2.312a.734.734 0 1 1 .888 1.169 15.5 15.5 0 0 1-6 2.643 4.034 4.034 0 0 0 2.469 1.985c3.011.783 6.812-1.963 6.85-1.994a.733.733 0 1 1 .868 1.181 15.219 15.219 0 0 1-3.352 1.766c1.49 1.032 3.646.915 6.435-.378a16.278 16.278 0 0 0 4.356-2.887c6.73-6.327 9.466-15.037 10.126-17.463-2.818-.675-6.2-1.769-8.286-3.414a31.815 31.815 0 0 1-13.416 3.102Z"/><path class="cls-4" d="M200.662 264.224h-.65c-11.159 44.507-35.927 66.31-43.618 72.173 11.267-1.167 28.475.2 39.682 15.96a12.541 12.541 0 0 1 7.858 1.069c5.209 2.46 7.988 7.556 6.194 11.359-1.148 2.429-3.886 3.751-7.074 3.751a12.187 12.187 0 0 1-1.632-.124 15.624 15.624 0 0 1 7.419 7.708.708.708 0 0 1 .321.172 60.045 60.045 0 0 0 11.338 10.842.733.733 0 0 1-.413 1.338.726.726 0 0 1-.412-.126c-.079-.054-.8-.556-1.878-1.412a32.769 32.769 0 0 0-6.388 5.335 35.964 35.964 0 0 1-1.3 8.994 5.4 5.4 0 0 1 2.589 2.147l.548.838-.964.272c-3.543 1-4.2 3.6-5.191 7.539-.092.366-.193.752-.292 1.133a69.871 69.871 0 0 0 12.8 6.7.684.684 0 0 1 .271-.278 109.044 109.044 0 0 0 26.546-15.809 16.315 16.315 0 0 0 4.893-17.892c-2.72-7.807-6.1-13.752-8.236-16.179-2.271-2.572-4.154-6.036-6.54-10.421-1.515-2.789-3.232-5.948-5.392-9.515a124.171 124.171 0 0 0-13.69-17.775c-.076-.067-2.8-2.565-3.328-4.939-.692-3.109-3.627-13.657-7.9-21.082-.055-.057-2.727-3.481-3.233-6.532-.167-1-.248-2.682-.348-4.808-.193-4.089-.461-9.689-1.568-13.49-1.497-5.135-1.341-12.184-.412-16.948Z"/><path class="cls-8" d="M208.139 248.33a13.407 13.407 0 0 0-4.3-.871 17.207 17.207 0 0 0-5.617.184 3.634 3.634 0 0 0-2.756 3.557v5.354a6.993 6.993 0 0 1-.85 4.1 6.058 6.058 0 0 1-2.158 1.907.7.7 0 0 1 .107.1 3.068 3.068 0 0 0 .641.1h14.655a3.261 3.261 0 0 0 1.579-.4c.9-.5 1.954-1.358 1.835-2.608-.17-1.792-.341-5.4-.427-7.4a4.739 4.739 0 0 0-.757-2.361h-.126l-.008-.189a4.278 4.278 0 0 0-1.818-1.473Z"/><path class="cls-9" d="M181.445 458.813c-.29.273-.64.5-.955.755a5.761 5.761 0 0 1 .946.276 4.262 4.262 0 0 1 2.188 2.059 3.4 3.4 0 0 1-1.3 4.369.733.733 0 0 1-.653-1.313 1.968 1.968 0 0 0 .62-2.438 2.821 2.821 0 0 0-1.446-1.331 4.766 4.766 0 0 0-2.137-.345 19.063 19.063 0 0 1-2.01 1.118 16.54 16.54 0 0 1-1.073.441c-.013.023 0 .051-.017.074a2.679 2.679 0 0 0-.467 1.3c.008.015.027.016.035.031a.692.692 0 0 1-.037.654 4.72 4.72 0 0 0 .066.5 6.687 6.687 0 0 0 2.775 4.1c2.829 1.817 6.907.994 9.476-.74a6.825 6.825 0 0 0 3.259-6.175 6.541 6.541 0 0 0-6.849-5.9 31.932 31.932 0 0 1-2.421 2.565Zm-13.955 7.719a17.558 17.558 0 0 1-11.705-4.522 34.833 34.833 0 0 1-5.91-7.8c-2.048-3.305-4-6.417-7-8.483l-1.64 1.767-3.278-2.36a12.585 12.585 0 0 0-2.139 2.082c5.849 1.16 9.026 6.164 12.072 11.062 2.192 3.527 4.456 7.17 7.682 9.172a21.074 21.074 0 0 0 19.744 1.047 7.977 7.977 0 0 1-1.535-3.238 16.383 16.383 0 0 1-6.291 1.273Z"/><path class="cls-9" d="m137.984 443.355 3.052 2.195 10.476-11.285a24.167 24.167 0 0 1-1.241-.967 16.523 16.523 0 0 1-5.768-2.2c-2.27 2.08-13.56 12.659-15.041 18.586a9.352 9.352 0 0 0 1.364 7.888 5.713 5.713 0 0 0 3.672 2.252 3.2 3.2 0 0 0 2.491-.759 3.423 3.423 0 0 0 1.131-3.915 3.148 3.148 0 0 0-3.359-1.935 4.564 4.564 0 0 0-1.284.219l-.89.33-.093-.945c-.546-5.595 4.843-9.057 5.073-9.2Z"/><path class="cls-12" d="M267.722 146.254a35.994 35.994 0 0 1-1.663-.22c-1.584-.264-4.168 1.036-5.027 1.561a.732.732 0 0 1-.764-1.25c.143-.088 3.57-2.15 6.032-1.756.5.083 1.04.145 1.594.21.617.071 1.219.145 1.787.241a2.082 2.082 0 0 0-.566-1.544c-1.684-1.959-6.132-2.985-7.363-2.985a12.278 12.278 0 0 0-4.437 1.565.733.733 0 1 1-.716-1.279c.126-.071 3.14-1.751 5.153-1.751a15.956 15.956 0 0 1 5.289 1.332 3.626 3.626 0 0 0-.608-1.26 11.4 11.4 0 0 0-6.263-3.779c-1.858-.258-5.239 1.434-6.368 2.116a.733.733 0 0 1-.758-1.255c.183-.11 4.509-2.711 7.336-2.312a12.13 12.13 0 0 1 4.135 1.664 26 26 0 0 0-2.543-4.847c-.754-.754-7.485-1.307-9.078-.914-.747.3-3.77 3.982-6.357 7.506v.007a48.543 48.543 0 0 0-3.672 5.564c-1.343 2.686-1.593 17.9-1.4 21.4a37.94 37.94 0 0 1 0 5.275c-.007.065-.06.1-.082.161a76.029 76.029 0 0 1 12.057 8.46c8.248-5.176 8.418-15.481 8.477-19.4.007-.489.014-.878.033-1.145A28.775 28.775 0 0 1 263 152.1l.124-.4.41-.095a20.468 20.468 0 0 0 4.106-1.943l.325-.1 2.426-.186c.446-.034 1.019-.146 1.222-.477a2.027 2.027 0 0 0-.208-1.64c-.257-.604-2.318-.845-3.683-1.005Z"/><path class="cls-8" d="M207.272 244.068c-.076.022-.174.054-.245.074a5.152 5.152 0 0 1-1.446.21 4.607 4.607 0 0 1-2.021-.458c-.38-.186-.761-.4-1.142-.61-6.865-.354-11.6-.2-13.688.458l-.132.04-.138-.009c-.2.007-1.942 0-2.14 2.848-.246 3.634-.11 10.582-.11 10.651a3.182 3.182 0 0 0 .828 2.4c.943.99 2.6 1.422 4.927 1.312.065 0 .1.044.154.054a4.257 4.257 0 0 0 1.263-1.163 5.606 5.606 0 0 0 .623-3.309v-5.364a5.093 5.093 0 0 1 3.873-4.979 18 18 0 0 1 6.112-.22 14.583 14.583 0 0 1 4.71.974 5.563 5.563 0 0 1 1.067.641 5.19 5.19 0 0 0-2.495-3.55Z"/><path class="cls-4" d="m218.761 197.431-.157-.1c-3.177 2.074-7.127 7.666-7.959 8.874.032.153.069.305.1.458.781.605 3.33 2.724 4.165 5.2a.731.731 0 0 1-.46.928.7.7 0 0 1-.234.039.735.735 0 0 1-.7-.5 9.32 9.32 0 0 0-2.385-3.375 38.653 38.653 0 0 1 .477 7.03.735.735 0 0 1-.733.709h-.024a.734.734 0 0 1-.708-.757c.494-14.508-9.752-32.864-13.695-39.363a9.421 9.421 0 0 1-6.671 2.721h-.108c-3.566 0-8.064-1.463-10.168-4.758a12.04 12.04 0 0 1-1.685-4.731 12.68 12.68 0 0 1-.031-.575v-.046c-25.594 18.258-40.262 50.672-46.91 69.121a9.485 9.485 0 0 1 1.415.772.7.7 0 0 1 .265.644 5.906 5.906 0 0 1 3.364 1.613 4.615 4.615 0 0 1 1.2 3.455c.012.186.146 6.979-.11 10.679a4.35 4.35 0 0 1-1.908 3.737 3.4 3.4 0 0 1-1.637.477 30.075 30.075 0 0 1-7.635.677c-1.16 0-2.464-.032-3.836-.08 15.947 10.9 31.488 40.151 32.19 41.485a.733.733 0 0 1-.308.99.711.711 0 0 1-.341.084.732.732 0 0 1-.649-.391c-.184-.347-18.5-34.844-35.22-43.035a3.345 3.345 0 0 0-2.41-.157c-5 1.468-21.841 7.3-30.275 20.934 2.811 6.824 9.229 20.087 18.128 24.369l.155.1c3.177-2.07 7.128-7.663 7.96-8.873-.031-.152-.069-.305-.1-.457-.782-.606-3.33-2.725-4.165-5.2a.733.733 0 1 1 1.389-.467 9.308 9.308 0 0 0 2.385 3.374 38.653 38.653 0 0 1-.477-7.03.8.8 0 0 1 .757-.708.732.732 0 0 1 .708.756c-.492 14.513 9.752 32.867 13.695 39.364a9.421 9.421 0 0 1 6.671-2.721h.108c3.567 0 8.064 1.462 10.168 4.757a12.045 12.045 0 0 1 1.685 4.731c.007.053.019.284.031.575v.046c25.592-18.255 40.262-50.67 46.91-69.121a9.485 9.485 0 0 1-1.415-.772.7.7 0 0 1-.268-.623 5.862 5.862 0 0 1-3.361-1.634 4.614 4.614 0 0 1-1.2-3.455c-.012-.186-.143-6.978.11-10.679a4.356 4.356 0 0 1 1.908-3.736 3.4 3.4 0 0 1 1.637-.477c2.019-.6 5.873-.8 11.462-.6-15.943-10.909-31.477-40.145-32.179-41.479a.733.733 0 1 1 1.3-.682c.184.346 18.5 34.843 35.219 43.034a3.316 3.316 0 0 0 2.409.158c5-1.468 21.841-7.3 30.276-20.934-2.808-6.83-9.226-20.092-18.125-24.375Z"/><path class="cls-9" d="M160.9 438.812a30.4 30.4 0 0 1-8.169-3.709l-4.954 5.338 6.051 5.071c.837-1.837 2.744-4.403 7.072-6.7Z"/><path class="cls-12" d="M143.071 417.064c1.3.709 9.3 4.726 15.551-.066 2.047-1.565 4.02-4.526 6.108-7.661a55.319 55.319 0 0 1 6.323-8.321s-.006-.006-.008-.011c-.081-.288-1.951-7.124 1.508-13a13.694 13.694 0 0 1 3.992-4.27c-.306-2.209-1.369-12.128 3.316-17.907l2.307-4.958.518.05c1.255.124 2.447.316 3.591.545l2.085-5c-13.887-11.74-30.016-10.531-36.814-9.316a23.027 23.027 0 0 1-2.258 8.695c6.807-.587 15.461-.167 21.3 3.743a.732.732 0 0 1-.816 1.216c-5.943-3.981-15.018-4.142-21.712-3.393-.008 0-.014.006-.021.006h-.008a39.508 39.508 0 0 0-7.942 1.577c-2.8 1.038-2.415 2.813-1.444 5.614a6.448 6.448 0 0 1 .37 3.143l.253-.027-.1.909c-.054.5-.081.93-.088 1.291a10.449 10.449 0 0 1 4.292-1.7l1.671-.214-.981 1.369a2.171 2.171 0 0 0-.453 1.048c5.874-3.584 15.055-3.627 15.46-3.627h3.717l-3.438 1.41c-.074.031-7.291 3.009-9.629 5.371-1.794 1.815-5.676 5.74-10.436 5.74-.226 0-.457-.022-.687-.04a.692.692 0 0 1-.568.334c-2.066 0-3.975 1.453-5.213 2.67a1.935 1.935 0 0 0-.2 2.509A85.29 85.29 0 0 1 140.4 398.5a8.254 8.254 0 0 1 1.111 4.433 28.919 28.919 0 0 0 1.56 14.131Zm7.54-25.113a3.074 3.074 0 1 1-3.074 3.074 3.073 3.073 0 0 1 3.074-3.074Zm-3.892 9.009a20.578 20.578 0 0 0 13.385-2 .732.732 0 0 1 .77 1.245 20.874 20.874 0 0 1-10.326 2.565 23.205 23.205 0 0 1-4.087-.365.732.732 0 1 1 .258-1.441Z"/><path class="cls-9" d="M208.805 364.165c1.45-3.073-1.014-7.294-5.493-9.408a10.986 10.986 0 0 0-7.145-.934 11.563 11.563 0 0 1-3.093 6.885 1.774 1.774 0 0 1-.271.189 10.86 10.86 0 0 0 5.248 5.007c4.481 2.112 9.305 1.329 10.754-1.739Z"/><path class="cls-12" d="M75.34 364.685a48.549 48.549 0 0 0 3.672-5.563c1.336-2.67 1.617-17.475 1.4-21.4a37.3 37.3 0 0 1 0-5.278c.006-.065.061-.1.082-.157a75.994 75.994 0 0 1-12.059-8.462c-8.249 5.177-8.419 15.481-8.478 19.4-.007.489-.014.878-.033 1.145a28.859 28.859 0 0 1-1.059 5.511l-.124.4-.411.1a20.51 20.51 0 0 0-4.106 1.942l-.324.1-2.427.186c-.446.033-1.019.145-1.221.477a2.019 2.019 0 0 0 .207 1.639c.26.6 2.322.845 3.686 1 .575.066 1.143.133 1.663.219 1.6.279 4.168-1.033 5.027-1.56a.732.732 0 1 1 .764 1.25 12.573 12.573 0 0 1-5.349 1.808 4.256 4.256 0 0 1-.683-.052c-.5-.084-1.04-.146-1.593-.21a36.974 36.974 0 0 1-1.788-.241 2.083 2.083 0 0 0 .566 1.544c1.684 1.959 6.132 2.984 7.363 2.984a12.272 12.272 0 0 0 4.438-1.565.733.733 0 1 1 .715 1.279c-.126.072-3.14 1.751-5.153 1.751a15.974 15.974 0 0 1-5.289-1.331 3.642 3.642 0 0 0 .608 1.26 11.411 11.411 0 0 0 6.263 3.779c1.892.274 5.241-1.434 6.368-2.116a.733.733 0 0 1 .758 1.255c-.171.1-3.929 2.355-6.714 2.355a4.492 4.492 0 0 1-.62-.043 12.143 12.143 0 0 1-4.137-1.665 25.961 25.961 0 0 0 2.543 4.847c.757.757 7.49 1.322 9.079.914.746-.3 3.769-3.982 6.356-7.506Z"/><path class="cls-9" d="M143.13 334.833c-.44-.224-.452-.539-.506-2.016-.007-.205-.012-.37-.019-.434a10.571 10.571 0 0 0-1.468-4.14c-1.8-2.81-5.869-4.079-8.935-4.079h-.09c-2.238.021-5.08 1.026-6.385 3.228-1.658 2.8.145 5.869 2.522 7.532 3.7 2.6 8.129 1.82 10.436 1.126l.248-.074 6.454 2.61a44.812 44.812 0 0 1 3.337-.9l-5.587-2.845Z"/><path class="cls-6" d="M146.125 339.886a13.641 13.641 0 0 0 2.2 6.458 37.477 37.477 0 0 1 2.475-.549c.014 0 .023-.016.038-.016h.007c.005 0 .008 0 .014.006 7.125-1.347 25.524-2.985 40.6 11.482a.734.734 0 0 1-1.017 1.06c-.305-.293-.615-.562-.923-.841l-.751 1.8a19.517 19.517 0 0 0 2.963.509.3.3 0 0 0 .274-.1 10.3 10.3 0 0 0 2.739-6.678c-15.944-22.159-44.401-14.434-48.619-13.131Z"/><path class="cls-9" d="M198.5 264.224h-5.29a4.2 4.2 0 0 1-.819-.092c-6.7 18.629-21.548 51.438-47.542 69.931L151 337.2a61.468 61.468 0 0 1 2.342-.407c1.041-.678 32.171-21.269 45.158-72.569Z"/><path class="cls-6" d="M115.767 86.368a8.864 8.864 0 0 1 2.823-4.632c2.5-13.73 13.631-13.681 15.548-13.587a43.871 43.871 0 0 1 3.961-2.305c-3.561-2.335-10.335-3.383-11.6-3.562a109.963 109.963 0 0 0-26.83 17.236 77.854 77.854 0 0 1 15.823 7.8c.09-.318.172-.626.275-.95Zm120.984 82.442c-3.513 7-14.2 19.013-16.475 21.056a21.669 21.669 0 0 0-3.865 5.008 8.245 8.245 0 0 0-.489 1.312 2.627 2.627 0 0 1 1.085-.57 2.544 2.544 0 0 1 .63-.076 3.336 3.336 0 0 1 1.89.651c11.039 5.294 18.168 23.26 19.929 28.122 11.44-13.292 17.15-36.676 17.649-38.783-1.405-6.358-16.928-14.904-20.354-16.72Z"/><path class="cls-9" d="M257.105 185.53a9.484 9.484 0 0 0-2.194-3.848c-5.316 15.033-13.535 31.8-13.535 31.8-7.4-15.477-18.5-20.708-22.5-22.149a23.577 23.577 0 0 0-2.463 3.546 8.245 8.245 0 0 0-.489 1.312 2.627 2.627 0 0 1 1.085-.57 2.544 2.544 0 0 1 .63-.076 3.336 3.336 0 0 1 1.89.651c11.039 5.294 18.168 23.26 19.929 28.122 11.442-13.297 17.148-36.681 17.647-38.788Z"/><ellipse class="cls-4" cx="243.547" cy="187.127" rx="4.726" ry="3.99" transform="rotate(-60 243.546 187.127)"/><ellipse class="cls-4" cx="122.758" cy="67.875" rx="3.182" ry="2.686" transform="rotate(-30 122.757 67.875)"/><path class="cls-9" d="M115.492 87.317c.09-.316.172-.625.275-.949a9.53 9.53 0 0 1 2.469-4.339 109.81 109.81 0 0 0-14.53-5.889 79.959 79.959 0 0 0-4.037 3.378 77.879 77.879 0 0 1 15.823 7.799Z"/><path class="cls-6" d="M206.108 415.621a8.853 8.853 0 0 1-2.823 4.632c-2.5 13.73-13.631 13.682-15.548 13.587a43.267 43.267 0 0 1-3.961 2.305c3.561 2.335 10.335 3.383 11.6 3.562a109.932 109.932 0 0 0 26.834-17.236 77.852 77.852 0 0 1-15.822-7.8c-.095.317-.177.629-.28.95ZM85.125 333.179c3.512-6.995 14.2-19.013 16.474-21.055a21.669 21.669 0 0 0 3.865-5.008 8.25 8.25 0 0 0 .489-1.313 2.623 2.623 0 0 1-1.085.571 2.544 2.544 0 0 1-.63.076 3.344 3.344 0 0 1-1.89-.651c-11.039-5.295-18.168-23.26-19.929-28.123-11.44 13.292-17.15 36.676-17.649 38.783 1.406 6.358 16.93 14.905 20.355 16.72Z"/><path class="cls-9" d="M64.771 316.459a9.448 9.448 0 0 0 2.194 3.848C72.28 305.275 80.5 288.513 80.5 288.513 87.9 303.99 99 309.22 103 310.662a23.634 23.634 0 0 0 2.463-3.546 8.37 8.37 0 0 0 .49-1.313 2.633 2.633 0 0 1-1.086.571 2.544 2.544 0 0 1-.63.076 3.344 3.344 0 0 1-1.89-.651c-11.039-5.295-18.168-23.26-19.929-28.123-11.439 13.292-17.149 36.676-17.647 38.783Z"/><ellipse class="cls-4" cx="78.329" cy="314.862" rx="4.726" ry="3.99" transform="rotate(-60 78.33 314.862)"/><ellipse class="cls-4" cx="199.117" cy="434.114" rx="3.182" ry="2.686" transform="rotate(-30 199.118 434.113)"/><path class="cls-9" d="M206.384 414.672c-.091.316-.173.625-.276.949a9.515 9.515 0 0 1-2.469 4.339 109.476 109.476 0 0 0 14.531 5.889 80.287 80.287 0 0 0 4.036-3.378 77.852 77.852 0 0 1-15.822-7.799Z"/><path d="M175.414 99.588a21.689 21.689 0 0 0-14.413 2.2.733.733 0 0 0 .389 1.355.717.717 0 0 0 .381-.109 20.655 20.655 0 0 1 13.385-2.005.713.713 0 0 0 .85-.591.731.731 0 0 0-.592-.85Z"/><circle cx="171.265" cy="106.965" r="3.074"/><path d="M272.754 146.681a2.508 2.508 0 0 0-1.608-1.282 3.5 3.5 0 0 0-.919-2.86 7.14 7.14 0 0 0-1.647-1.338 4.436 4.436 0 0 0-.963-2.947 8.435 8.435 0 0 0-.761-.89c-.008-.026.011-.052 0-.079-.27-.656-2.672-6.439-3.849-7.615-1.419-1.425-9.035-1.659-10.471-1.3a2.312 2.312 0 0 0-.707.423l-68.755-61.37c4.236-4.308 9.7-10.5 10.764-14.764a10.7 10.7 0 0 0-1.635-9.145 7.2 7.2 0 0 0-4.664-2.806 4.8 4.8 0 0 0-3.584 1.085 4.926 4.926 0 0 0-1.565 5.583 4.633 4.633 0 0 0 4.813 2.863c.233-.014.484-.033.744-.073a7.163 7.163 0 0 1-.985 3.292c-5.631-.781-8.607-5.5-11.729-10.524-2.279-3.667-4.636-7.461-8.153-9.642a22.574 22.574 0 0 0-21.58-.942 7.109 7.109 0 0 0-.815-.662c-3.515-2.25-8.213-1.181-11.09.764a8.26 8.26 0 0 0-3.9 7.515 7.977 7.977 0 0 0 7.178 7.174 42.436 42.436 0 0 0-7 14.244 46.737 46.737 0 0 0-3.388-.584l-.206-.026-.19.088c-17.825 8.155-28.218 18.326-28.321 18.429l-.856.846 1.145.37c.03.01.986.325 2.51.908A110.346 110.346 0 0 0 74.524 97.05a17.785 17.785 0 0 0-5.342 19.5c2.455 7.039 5.8 13.579 8.522 16.663 2.16 2.448 4.006 5.848 6.347 10.152 1.525 2.8 3.252 5.982 5.428 9.577a125.4 125.4 0 0 0 13.921 18.066c.692.63 2.567 2.615 2.923 4.213.7 3.166 3.7 13.91 8.119 21.581.026.031 2.553 3.275 3 5.955.153.916.234 2.641.329 4.636.2 4.163.47 9.863 1.625 13.831 1.463 5.013 1.272 11.962.329 16.541h-5.711a4.7 4.7 0 0 0-2.288.582c-1.819 1.007-2.737 2.436-2.587 4.03.167 1.756.337 5.34.423 7.32a6.169 6.169 0 0 0 .938 2.971c-.007.049-.019.1-.022.145v.241a7.145 7.145 0 0 0 2.4 5.417c-6.486 2.159-20.613 8.046-28.552 20.067a65.589 65.589 0 0 1-.926-2.51l-.4-1.189-.845.924c-12.75 13.929-18.794 40.262-18.853 40.524l-.034.148.029.15c.374 2 1.928 4.131 4.039 6.213-8.6 5.652-8.779 16.316-8.84 20.409-.007.453-.012.814-.028 1.062a27.047 27.047 0 0 1-.893 4.805 23.251 23.251 0 0 0-3.953 1.906l-2.255.175a2.812 2.812 0 0 0-2.364 1.176 3.218 3.218 0 0 0 .114 2.977 2.505 2.505 0 0 0 1.608 1.282 3.5 3.5 0 0 0 .919 2.86 7.165 7.165 0 0 0 1.647 1.339 4.435 4.435 0 0 0 .963 2.946 8.232 8.232 0 0 0 .762.89c.007.027-.012.053 0 .079.27.656 2.673 6.44 3.849 7.616 1.042 1.045 5.418 1.45 8.241 1.45a11.474 11.474 0 0 0 2.231-.15 2.314 2.314 0 0 0 .706-.422l68.755 61.37c-4.236 4.308-9.7 10.5-10.761 14.761a10.685 10.685 0 0 0 1.632 9.148 7.2 7.2 0 0 0 4.666 2.806 5.182 5.182 0 0 0 .54.028 4.717 4.717 0 0 0 3.042-1.114 4.925 4.925 0 0 0 1.565-5.583 4.658 4.658 0 0 0-4.813-2.863 7.7 7.7 0 0 0-.744.074 7.163 7.163 0 0 1 .985-3.293c5.631.782 8.607 5.5 11.729 10.525 2.279 3.667 4.636 7.46 8.153 9.641a22 22 0 0 0 11.588 3.247 22.976 22.976 0 0 0 9.994-2.305 7.07 7.07 0 0 0 .814.661 8.367 8.367 0 0 0 4.562 1.265 12.047 12.047 0 0 0 6.528-2.028 8.262 8.262 0 0 0 3.9-7.516 8.009 8.009 0 0 0-7.169-7.185 42.419 42.419 0 0 0 6.994-14.233c1.864.388 3.242.566 3.388.585l.206.026.19-.088c17.826-8.155 28.218-18.326 28.321-18.429l.857-.847-1.146-.37c-.03-.01-.987-.324-2.511-.908a110.34 110.34 0 0 0 26.041-15.633 17.786 17.786 0 0 0 5.342-19.5c-2.45-7.031-5.8-13.573-8.522-16.665-2.16-2.448-4.009-5.848-6.349-10.155-1.522-2.8-3.25-5.976-5.426-9.572a125.294 125.294 0 0 0-13.919-18.061c-.692-.63-2.567-2.615-2.923-4.214-.7-3.166-3.7-13.909-8.119-21.58-.026-.031-2.553-3.276-3-5.955-.153-.916-.234-2.641-.329-4.636-.2-4.163-.47-9.863-1.625-13.831-1.463-5.018-1.271-11.967-.329-16.541h5.712a4.736 4.736 0 0 0 2.29-.583c1.818-1.006 2.734-2.438 2.584-4.029-.167-1.761-.337-5.342-.422-7.32a6.185 6.185 0 0 0-.942-2.977 2.342 2.342 0 0 0 .03-.38 7.155 7.155 0 0 0-2.4-5.418c6.487-2.159 20.613-8.047 28.551-20.067.587 1.509.911 2.466.926 2.511l.394 1.188.844-.923c12.75-13.929 18.794-40.262 18.854-40.525l.033-.148-.029-.15c-.374-2-1.928-4.13-4.039-6.213 8.6-5.652 8.779-16.316 8.84-20.409.007-.453.012-.813.028-1.061a27.062 27.062 0 0 1 .893-4.806 23.175 23.175 0 0 0 3.953-1.906l2.255-.174a2.815 2.815 0 0 0 2.364-1.176 3.22 3.22 0 0 0-.115-2.983ZM240 164.349a41.677 41.677 0 0 1 .035 4.582 97.69 97.69 0 0 0-3.282-1.777l-.682-.346-.318.7c-2.968 6.564-14.224 19.269-16.453 21.273a22.762 22.762 0 0 0-4.194 5.44c-.759 1.644-.952 2.848-.592 3.679a1.484 1.484 0 0 0 .47.612 51.977 51.977 0 0 0-4.756 5.751c-2.857-11.724-9.347-23.29-12.807-28.922 2.127-3.6-.035-7.434-2.946-9.474-3.063-2.145-7.124-2.639-11.45-1.4l-5.818-2.357a14.476 14.476 0 0 0-2.809-7.781l-.315-.37-.463.146c-.038.012-.684.206-1.806.451a22.91 22.91 0 0 1 2.5-8.576 40.045 40.045 0 0 0 7.984-1.6c4.355-1.611 3.131-5.137 2.32-7.471a4.321 4.321 0 0 1-.175-2.956 5.967 5.967 0 0 0 3.1-2.39l.09-.143a5.68 5.68 0 0 0 .3-5.514 5.607 5.607 0 0 0-2.145-2.365 11.274 11.274 0 0 0 4.312-2.777 3.408 3.408 0 0 0 .348-4.423 83.878 83.878 0 0 1-7.656-13.519 6.957 6.957 0 0 1-.962-3.574 30.315 30.315 0 0 0-1.631-14.817c.093-.2.22-.5.358-.856l64.434 53.4a51.842 51.842 0 0 0-3.435 5.247c-1.647 3.269-1.716 19.342-1.556 22.127Zm-111.33 73.416h-5.287c13.014-51.418 44.261-71.987 45.166-72.569.827-.128 1.6-.263 2.329-.4l6.153 3.133c-25.994 18.5-40.836 51.305-47.542 69.931a4.281 4.281 0 0 0-.824-.095Zm-2.957-89.6a10.975 10.975 0 0 1-7.145-.934c-4.478-2.114-6.943-6.334-5.492-9.407s6.274-3.851 10.753-1.74a10.838 10.838 0 0 1 5.254 5.014 1.748 1.748 0 0 0-.277.183 11.561 11.561 0 0 0-3.098 6.885Zm-17.947-29.93a59.025 59.025 0 0 0-2.49-2.2 33.958 33.958 0 0 0 5.069-4.077c-.453 4.056-2.081 5.781-2.1 5.8Zm.822.747a12.706 12.706 0 0 0 3.357.079 14.519 14.519 0 0 0 .169 3.667 65.785 65.785 0 0 0-3.6-3.764Zm4.915-.553.207-.964-.98.076c-1.169.088-2.021.1-2.613.1a15.173 15.173 0 0 0 1.809-7.6 33.026 33.026 0 0 1 1.55-9.835l.573-1.582-1.548.656c-.4.16-1-.265-1.477-.758 3.481-1.449 4.28-4.62 5.194-8.244.274-1.09.568-2.254.952-3.474.767-2.433 1.71-3.534 2.469-4.027.014-.009.028-.011.041-.021a1.993 1.993 0 0 1 1.331-.354.733.733 0 1 0 .377-1.417 2.84 2.84 0 0 0-1.124-.007c2.836-12.478 13.504-11.414 13.979-11.352l.27.031.221-.148c16.571-10.956 29.3-4.492 34.033-1.179.007.007 0 .018.012.025s.036.007.052.019a18.523 18.523 0 0 1 1.93 1.529l.156.148.207.041c4.23.823 7 2.531 8.217 5.074 1.494 3.112.31 6.743-.3 8.222-2.393-1.224-10.193-4.528-16.682.439-2.241 1.713-4.278 4.772-6.435 8.012-4.45 6.678-9.062 13.578-16.348 11.35a.734.734 0 0 0-.43 1.4 10.879 10.879 0 0 0 3.195.5 11.072 11.072 0 0 0 7.24-2.98c.359 1.843 1 6.857-1.53 11.139-1.9 3.214-5.2 5.392-9.8 6.476a.732.732 0 0 0 .167 1.445.635.635 0 0 0 .167-.019 20.653 20.653 0 0 0 5.375-2.038c.322 2.961.823 11.385-3.135 16.187l-2 4.251a34.241 34.241 0 0 1-17.288-7.033c-9.857-5.095-8.118-13.725-8.037-14.087Zm54.547-61.952 6.051 5.071-4.944 5.326a30.4 30.4 0 0 0-8.136-3.719c4.295-2.29 6.191-4.846 7.024-6.677Zm3.239-6.161a5.609 5.609 0 0 0-4.153-2.079 7.454 7.454 0 0 0-4.79-4.237 7.26 7.26 0 0 0-1.687-.208 5.7 5.7 0 0 0-3.707-3.273 6.819 6.819 0 0 0-3.048-.01c-1.061-1.124-2.881-2.091-5.861-1.451a4.6 4.6 0 0 0 .131-.752 15.705 15.705 0 0 1 16.933 2.766 33.747 33.747 0 0 1 5.647 7.482c2 3.23 4.1 6.537 7.257 8.781l-2.919 3.145-3.672-3.08c.031-.05.083-.081.1-.139.997-3.012.916-5.348-.236-6.944Zm10.193 53.177a85.027 85.027 0 0 0 7.78 13.714 1.934 1.934 0 0 1-.2 2.51c-1.238 1.217-3.147 2.67-5.213 2.67a.687.687 0 0 0-.574.35c-5.093-.419-9.24 3.781-11.117 5.684-2.338 2.362-9.555 5.339-9.629 5.37l-3.439 1.409h3.717c.405 0 9.586-.043 15.46-3.627a2.169 2.169 0 0 1-.453 1.047l-.98 1.37 1.67-.215a10.448 10.448 0 0 0 4.294-1.7 15.12 15.12 0 0 1-.088 1.29l-.1.912.248-.028a6.475 6.475 0 0 0 .37 3.141c.971 2.8 1.36 4.577-1.444 5.614-3.681 1.358-20.464 4.362-29.683-1.813a.733.733 0 0 0-.816 1.217c4.515 3.023 10.718 3.963 16.449 3.963 1.676 0 3.308-.082 4.848-.214a23 23 0 0 0-2.255 8.69c-6.8 1.216-22.927 2.424-36.814-9.317l2.086-5.006c1.144.229 2.336.421 3.592.545l.518.051 2.305-4.958c4.686-5.781 3.624-15.7 3.318-17.909a13.692 13.692 0 0 0 3.99-4.268c3.462-5.877 1.591-12.712 1.51-13 0-.006-.009-.008-.012-.014a55.222 55.222 0 0 0 6.328-8.322c2.087-3.133 4.058-6.093 6.1-7.659 6.255-4.792 14.249-.774 15.554-.065a28.951 28.951 0 0 1 1.558 14.135 8.266 8.266 0 0 0 1.117 4.434Zm4.912 27.14-.081.131a4.5 4.5 0 0 1-2.057 1.7 8.467 8.467 0 0 0-.1-2.111l-.319-1.422-.952 1.1a7.13 7.13 0 0 1-3.19 1.957 2.324 2.324 0 0 0-.527-2.057l-.437-.439-.506.358c-3.223 2.286-8.038 3.226-11.428 3.615a26.988 26.988 0 0 0 6.487-4.1c1.715-1.735 5.163-5.223 9.295-5.223a7.521 7.521 0 0 1 .855.05 4.056 4.056 0 0 1 3.17 2.336 4.232 4.232 0 0 1-.215 4.106Zm-55.854 10.128a9.725 9.725 0 0 0-1.248-2.108 36.787 36.787 0 0 0 4.858 1.544l-.479 1.148a19.211 19.211 0 0 0-3.136-.583Zm-.67 1.529a.3.3 0 0 1 .274-.1 19.57 19.57 0 0 1 2.964.508l-.752 1.8c-.308-.28-.618-.548-.923-.841a.734.734 0 0 0-1.017 1.059c15.079 14.469 33.478 12.825 40.6 11.481h.019c.014 0 .022-.014.035-.015a37.176 37.176 0 0 0 2.478-.548 13.635 13.635 0 0 1 2.2 6.456c-4.223 1.3-32.677 9.031-48.624-13.132a10.3 10.3 0 0 1 2.741-6.667Zm48.877 24.863-5.591-2.847c1.691-.4 2.855-.747 3.341-.9l6.454 2.612.248-.074c2.305-.7 6.729-1.476 10.436 1.124 2.377 1.666 4.18 4.734 2.522 7.535-1.3 2.2-4.147 3.206-6.385 3.228h-.09c-3.066 0-7.139-1.269-8.935-4.08a10.582 10.582 0 0 1-1.468-4.139c-.007-.065-.012-.23-.019-.435-.06-1.488-.069-1.798-.518-2.023Zm67.1-31.372L181.03 82.068a10.819 10.819 0 0 0-.362-7.527 8.612 8.612 0 0 0-2.112-2.743c.714-.656 1.969-1.832 3.482-3.335l68.7 61.325a63.866 63.866 0 0 0-4.892 5.994Zm-58.733-87.007a3.129 3.129 0 0 1-3.359-1.935 3.424 3.424 0 0 1 1.131-3.916 3.317 3.317 0 0 1 2.493-.758 5.7 5.7 0 0 1 3.67 2.252 9.354 9.354 0 0 1 1.367 7.885c-1.484 5.93-12.775 16.509-15.044 18.589a16.523 16.523 0 0 0-5.768-2.2 20.08 20.08 0 0 0-1.233-.974l10.468-11.278 3.052 2.2.418-.262c.229-.146 5.618-3.607 5.072-9.2l-.093-.945-.89.329a4.525 4.525 0 0 1-1.284.213Zm-20.807-14.237c3.226 2 5.49 5.645 7.683 9.171 3.045 4.9 6.222 9.9 12.071 11.063a12.61 12.61 0 0 1-2.139 2.081l-3.278-2.359L179 56.26c-3-2.067-4.956-5.178-7-8.484a34.833 34.833 0 0 0-5.91-7.8 17.19 17.19 0 0 0-17.99-3.226 7.976 7.976 0 0 0-1.543-3.26 21.047 21.047 0 0 1 19.75 1.047Zm-35.151 5.3a6.824 6.824 0 0 1 3.259-6.174c2.569-1.737 6.647-2.556 9.477-.74a6.69 6.69 0 0 1 2.774 4.1 4.686 4.686 0 0 1 .066.5.69.69 0 0 0-.037.653c.008.015.027.017.036.031a2.677 2.677 0 0 1-.468 1.3c-.019.028 0 .063-.021.092-.351.133-.691.249-1.069.424a18.983 18.983 0 0 0-2.006 1.115 4.891 4.891 0 0 1-2.141-.342 2.825 2.825 0 0 1-1.446-1.331 1.965 1.965 0 0 1 .621-2.439.733.733 0 0 0-.654-1.312 3.39 3.39 0 0 0-1.3 4.368 4.26 4.26 0 0 0 2.188 2.06 5.582 5.582 0 0 0 .935.285c-.311.251-.657.475-.944.745a32.3 32.3 0 0 0-2.425 2.566 6.537 6.537 0 0 1-6.845-5.9Zm10.276 4.407a16.325 16.325 0 0 1 4.356-2.887c2.795-1.29 4.954-1.406 6.444-.371a15.6 15.6 0 0 0-3.361 1.76.733.733 0 1 0 .868 1.181c.039-.029 3.844-2.787 6.85-1.995a4.034 4.034 0 0 1 2.467 1.983 15.464 15.464 0 0 0-6 2.646.734.734 0 0 0 .888 1.169c.04-.031 4.345-3.243 8.052-2.312a5.783 5.783 0 0 1 3.511 2.9 26.6 26.6 0 0 0-6.092 2.584.733.733 0 1 0 .725 1.274c1.226-.7 4.755-2.505 6.316-2.505a4.562 4.562 0 0 1 3.643 1.506c.814 1.129.842 2.9.137 5.228L168.564 55a4.784 4.784 0 0 0 .146-1 .731.731 0 0 0-.726-.73h-.007a.737.737 0 0 0-.732.723c0 .048-.175 4.767-8.153 8.492-.07.032-.091.108-.145.157a30.382 30.382 0 0 0-19.361 2.472c-2.089-1.641-5.464-2.734-8.28-3.408.661-2.423 3.394-11.135 10.126-17.461ZM126.5 62.282c1.261.179 8.035 1.227 11.6 3.562a43.871 43.871 0 0 0-3.961 2.305c-1.917-.094-13.045-.143-15.548 13.587a8.864 8.864 0 0 0-2.823 4.632c-.1.325-.185.633-.276.949a77.827 77.827 0 0 0-15.822-7.8 110 110 0 0 1 26.83-17.235Zm-5.7 158.531c-1.107-3.8-1.374-9.4-1.568-13.49-.1-2.125-.181-3.805-.348-4.807-.506-3.052-3.178-6.476-3.233-6.533-4.273-7.425-7.208-17.973-7.9-21.082-.529-2.374-3.252-4.872-3.328-4.938a124.171 124.171 0 0 1-13.69-17.775c-2.159-3.567-3.88-6.728-5.395-9.518-2.383-4.385-4.266-7.849-6.537-10.421-2.135-2.422-5.511-8.363-8.236-16.177a16.313 16.313 0 0 1 4.893-17.891 109.044 109.044 0 0 1 26.546-15.809.688.688 0 0 0 .271-.277 70.1 70.1 0 0 1 12.806 6.7c-.1.38-.2.765-.291 1.129-.993 3.944-1.651 6.55-5.194 7.545l-.964.272.549.837a5.386 5.386 0 0 0 2.588 2.147 35.984 35.984 0 0 0-1.3 9 32.8 32.8 0 0 1-6.388 5.333 40.387 40.387 0 0 0-1.878-1.411.733.733 0 0 0-.825 1.212 60.058 60.058 0 0 1 11.335 10.836.724.724 0 0 0 .343.22 15.63 15.63 0 0 0 7.378 7.65c-3.851-.519-7.351.807-8.687 3.638-1.794 3.8.985 8.9 6.194 11.359a13.448 13.448 0 0 0 5.671 1.322 10.309 10.309 0 0 0 2.2-.243c9.348 13.141 22.87 16.273 33.639 16.273a58.615 58.615 0 0 0 6.044-.322c-7.684 5.855-32.462 27.657-43.624 72.176h-.65c.921-4.768 1.079-11.82-.421-16.955Zm-8.367 18.815a3.259 3.259 0 0 1 1.577-.4h14.654a3.068 3.068 0 0 1 .641.1.655.655 0 0 0 .107.1 6.111 6.111 0 0 0-2.161 1.91 7.04 7.04 0 0 0-.847 4.109v5.347a3.635 3.635 0 0 1-2.756 3.557 17.2 17.2 0 0 1-5.616.184 13.435 13.435 0 0 1-4.3-.871 4.266 4.266 0 0 1-1.819-1.476l-.008-.194h-.13a4.747 4.747 0 0 1-.756-2.359c-.085-2-.257-5.609-.427-7.4-.115-1.247.937-2.106 1.842-2.607Zm-.321 14.746a5.5 5.5 0 0 0 1.065.641 14.59 14.59 0 0 0 4.71.973 18.8 18.8 0 0 0 2.56.165 15.207 15.207 0 0 0 3.552-.384 5.093 5.093 0 0 0 3.873-4.979v-5.357a5.635 5.635 0 0 1 .623-3.316 4.285 4.285 0 0 1 1.253-1.167c.062.012.093.058.164.057 2.324-.105 3.985.322 4.927 1.313a3.175 3.175 0 0 1 .828 2.4c0 .072.138 7.015-.11 10.651-.195 2.851-1.951 2.818-2.14 2.849l-.138-.01-.132.041c-2.082.661-6.82.816-13.688.458-.381-.211-.762-.424-1.142-.611a4.776 4.776 0 0 0-3.467-.248l-.242.074a5.17 5.17 0 0 1-2.495-3.55Zm-47.341 62.085c.5-2.107 6.208-25.491 17.648-38.783 1.761 4.863 8.89 22.828 19.932 28.123a3.176 3.176 0 0 0 2.517.575 2.632 2.632 0 0 0 1.085-.57 8.281 8.281 0 0 1-.489 1.312 21.669 21.669 0 0 1-3.865 5.008c-2.274 2.042-12.962 14.06-16.474 21.055-3.425-1.815-18.949-10.362-20.354-16.72Zm59.688 10.192c-2.126 3.6.035 7.434 2.946 9.472 3.066 2.148 7.129 2.644 11.45 1.4l5.819 2.354a14.483 14.483 0 0 0 2.808 7.784l.315.369.463-.145c.039-.011.684-.205 1.806-.449a22.922 22.922 0 0 1-2.5 8.575 40.187 40.187 0 0 0-7.984 1.6c-4.355 1.61-3.131 5.137-2.319 7.47a4.315 4.315 0 0 1 .174 2.957 5.958 5.958 0 0 0-3.1 2.39l-.09.143a5.684 5.684 0 0 0-.3 5.514 5.609 5.609 0 0 0 2.147 2.364 11.274 11.274 0 0 0-4.311 2.777 3.407 3.407 0 0 0-.346 4.424 84.008 84.008 0 0 1 7.644 13.5 6.991 6.991 0 0 1 .971 3.593 30.272 30.272 0 0 0 1.633 14.818c-.093.2-.221.5-.358.857l-64.436-53.4a51.728 51.728 0 0 0 3.435-5.247c1.629-3.256 1.706-19.342 1.553-22.131a41.134 41.134 0 0 1-.035-4.581 94.428 94.428 0 0 0 3.28 1.775l.682.346.318-.7c2.968-6.563 14.224-19.268 16.453-21.272a22.753 22.753 0 0 0 4.194-5.44c.759-1.644.952-2.849.592-3.679a1.481 1.481 0 0 0-.47-.613 52.205 52.205 0 0 0 4.756-5.75c2.86 11.729 9.351 23.295 12.81 28.925Zm68.751-62.426h5.29c-12.984 51.3-44.114 71.889-45.157 72.563-.833.128-1.613.266-2.342.407l-6.149-3.132c25.994-18.493 40.837-51.3 47.542-69.93a4.281 4.281 0 0 0 .816.092Zm2.957 89.6a10.986 10.986 0 0 1 7.145.934c4.479 2.114 6.943 6.335 5.493 9.408s-6.273 3.851-10.754 1.739a10.86 10.86 0 0 1-5.251-5.006 1.774 1.774 0 0 0 .271-.189 11.563 11.563 0 0 0 3.096-6.888Zm17.947 29.93a57.632 57.632 0 0 0 2.49 2.2 33.9 33.9 0 0 0-5.069 4.079c.453-4.057 2.082-5.782 2.1-5.8Zm-.822-.747a12.564 12.564 0 0 0-3.357-.078 14.526 14.526 0 0 0-.169-3.668 65.823 65.823 0 0 0 3.6 3.765Zm-4.915.554-.207.964.98-.077c1.167-.09 2.017-.1 2.613-.1a15.166 15.166 0 0 0-1.808 7.6 33.024 33.024 0 0 1-1.551 9.834l-.573 1.582 1.549-.656c.4-.172 1 .263 1.476.759-3.478 1.448-4.277 4.617-5.191 8.238-.275 1.091-.568 2.257-.955 3.477-.768 2.436-1.713 3.539-2.474 4.032a.365.365 0 0 0-.034.018 1.938 1.938 0 0 1-1.333.354.744.744 0 0 0-.9.52.733.733 0 0 0 .52.9 2.23 2.23 0 0 0 .558.06 3.424 3.424 0 0 0 .568-.058c-2.842 12.488-13.52 11.413-13.986 11.362l-.269-.031-.222.148c-16.568 10.96-29.3 4.5-34.032 1.181-.008-.007 0-.019-.013-.026s-.039-.008-.056-.021a18.392 18.392 0 0 1-1.926-1.528l-.155-.147-.208-.041c-4.23-.823-7-2.534-8.217-5.077-1.494-3.111-.31-6.74.3-8.22 2.393 1.222 10.192 4.524 16.679-.439 2.241-1.713 4.278-4.774 6.435-8.011 4.45-6.679 9.059-13.586 16.348-11.353a.733.733 0 0 0 .43-1.4c-4.181-1.276-7.548.01-10.435 2.463-.36-1.856-.989-6.853 1.531-11.122 1.9-3.214 5.2-5.392 9.8-6.475a.733.733 0 0 0 .547-.881.723.723 0 0 0-.881-.546 20.6 20.6 0 0 0-5.372 2.038c-.323-2.963-.823-11.386 3.132-16.186l2.006-4.252a34.236 34.236 0 0 1 17.286 7.034c9.863 5.088 8.119 13.721 8.04 14.081Zm-54.547 61.95-6.051-5.071 4.954-5.338a30.4 30.4 0 0 0 8.169 3.709c-4.33 2.297-6.237 4.863-7.072 6.7Zm-3.239 6.16a5.61 5.61 0 0 0 4.153 2.08 7.456 7.456 0 0 0 4.785 4.241 7.215 7.215 0 0 0 1.682.2 5.7 5.7 0 0 0 3.712 3.281 5.976 5.976 0 0 0 1.508.184 7.877 7.877 0 0 0 1.542-.175 5.342 5.342 0 0 0 4.053 1.678 8.672 8.672 0 0 0 1.8-.219 4.618 4.618 0 0 0-.129.745 15.7 15.7 0 0 1-16.933-2.767 33.724 33.724 0 0 1-5.647-7.482c-2-3.23-4.1-6.537-7.257-8.78l2.919-3.146 3.682 3.087c-.032.05-.093.071-.112.131-.991 3.01-.91 5.346.242 6.942Zm-10.754-18.146L71.132 372.2a63.708 63.708 0 0 0 4.9-5.994l64.817 53.714a10.815 10.815 0 0 0 .361 7.524 8.6 8.6 0 0 0 2.112 2.746c-.722.657-1.972 1.834-3.485 3.336Zm.563-35.026a85.29 85.29 0 0 0-7.781-13.714 1.936 1.936 0 0 1 .2-2.51c1.238-1.216 3.147-2.669 5.213-2.669a.692.692 0 0 0 .568-.334c.23.018.461.04.687.04 4.76 0 8.642-3.925 10.436-5.74 2.338-2.362 9.555-5.34 9.629-5.371l3.438-1.41h-3.717c-.405 0-9.586.043-15.46 3.627a2.171 2.171 0 0 1 .453-1.048l.981-1.369-1.671.214a10.444 10.444 0 0 0-4.292 1.7c.007-.36.034-.792.088-1.291l.1-.909-.253.028a6.451 6.451 0 0 0-.37-3.144c-.971-2.8-1.36-4.576 1.444-5.614a39.508 39.508 0 0 1 7.942-1.577h.008c.007 0 .013-.005.021-.005 6.694-.749 15.769-.588 21.712 3.393a.732.732 0 0 0 .816-1.216c-5.839-3.91-14.493-4.33-21.3-3.743a23.051 23.051 0 0 0 2.258-8.695c6.8-1.215 22.927-2.424 36.814 9.316l-2.086 5a36.445 36.445 0 0 0-3.59-.545l-.518-.05-2.307 4.958c-4.685 5.779-3.622 15.7-3.316 17.907a13.694 13.694 0 0 0-3.992 4.27c-3.459 5.876-1.589 12.712-1.508 13 0 0 .007.006.008.011a55.319 55.319 0 0 0-6.323 8.321c-2.088 3.135-4.061 6.1-6.108 7.661-6.254 4.792-14.247.776-15.551.066a28.919 28.919 0 0 1-1.561-14.136 8.251 8.251 0 0 0-1.112-4.422Zm-2.775-28.967a8.667 8.667 0 0 0 .1 2.114l.322 1.42.95-1.105a7.13 7.13 0 0 1 3.186-1.962 2.319 2.319 0 0 0 .528 2.056l.436.439.506-.357c3.223-2.286 8.038-3.226 11.428-3.615a26.955 26.955 0 0 0-6.487 4.1c-1.832 1.852-5.628 5.7-10.149 5.173a4.05 4.05 0 0 1-3.171-2.338 4.226 4.226 0 0 1 .212-4.1l.081-.131a4.478 4.478 0 0 1 2.057-1.699Zm53.718-8.3a9.8 9.8 0 0 0 1.249 2.109 36.518 36.518 0 0 0-4.86-1.546l.478-1.148a19.369 19.369 0 0 0 3.132.58Zm.668-1.53a.3.3 0 0 1-.274.1 19.517 19.517 0 0 1-2.963-.509l.751-1.8c.308.279.618.548.923.841a.734.734 0 0 0 1.017-1.06c-15.077-14.467-33.476-12.829-40.6-11.482-.006 0-.009-.006-.014-.006h-.007c-.015 0-.024.016-.038.016a36.674 36.674 0 0 0-2.475.55 13.65 13.65 0 0 1-2.2-6.459c4.218-1.3 32.677-9.028 48.624 13.134a10.3 10.3 0 0 1-2.745 6.672Zm-48.885-24.873 5.587 2.845c-1.692.4-2.853.748-3.337.9l-6.454-2.61-.248.074c-2.307.694-6.731 1.47-10.436-1.126-2.377-1.663-4.18-4.729-2.522-7.532 1.305-2.2 4.147-3.207 6.385-3.228h.09c3.066 0 7.139 1.269 8.935 4.079a10.571 10.571 0 0 1 1.468 4.14c.007.064.012.229.019.434.061 1.484.073 1.799.513 2.024ZM68.982 372.2c-1.589.408-8.322-.157-9.079-.914a25.961 25.961 0 0 1-2.543-4.847 12.143 12.143 0 0 0 4.14 1.661 4.481 4.481 0 0 0 .62.043c2.785 0 6.543-2.253 6.714-2.355a.733.733 0 0 0-.758-1.255c-1.127.682-4.476 2.39-6.368 2.116a11.411 11.411 0 0 1-6.263-3.779 3.642 3.642 0 0 1-.608-1.26 15.974 15.974 0 0 0 5.289 1.331c2.013 0 5.027-1.679 5.153-1.751a.733.733 0 1 0-.715-1.279 12.272 12.272 0 0 1-4.438 1.565c-1.231 0-5.679-1.026-7.363-2.984a2.082 2.082 0 0 1-.566-1.544c.568.1 1.171.169 1.788.241.553.064 1.1.126 1.593.21a4.256 4.256 0 0 0 .683.052 12.573 12.573 0 0 0 5.349-1.808.732.732 0 1 0-.764-1.25c-.859.527-3.428 1.839-5.027 1.56a35.994 35.994 0 0 0-1.663-.22c-1.364-.159-3.426-.4-3.686-1a2.019 2.019 0 0 1-.207-1.639c.2-.332.775-.444 1.221-.477l2.427-.186.324-.1a20.51 20.51 0 0 1 4.106-1.942l.411-.1.124-.4a28.879 28.879 0 0 0 1.059-5.511c.019-.267.026-.656.033-1.145.059-3.923.229-14.227 8.478-19.4a75.994 75.994 0 0 0 12.054 8.454c-.021.058-.076.092-.082.157a37.3 37.3 0 0 0 0 5.278c.217 3.922-.064 18.727-1.4 21.4a48.631 48.631 0 0 1-3.672 5.564v.007c-2.595 3.523-5.618 7.207-6.364 7.507Zm65.779 81.018a3.148 3.148 0 0 1 3.359 1.935 3.422 3.422 0 0 1-1.131 3.915 3.2 3.2 0 0 1-2.491.759 5.713 5.713 0 0 1-3.672-2.252 9.348 9.348 0 0 1-1.364-7.888c1.481-5.927 12.771-16.506 15.041-18.586a16.543 16.543 0 0 0 5.768 2.2c.208.179.668.543 1.241.966l-10.476 11.283-3.052-2.195-.417.263c-.23.145-5.619 3.607-5.073 9.2l.093.945.89-.33a4.558 4.558 0 0 1 1.284-.217Zm20.807 14.237c-3.226-2-5.49-5.645-7.682-9.172-3.046-4.9-6.223-9.9-12.072-11.062a12.585 12.585 0 0 1 2.139-2.082l3.278 2.36 1.64-1.767c3 2.066 4.956 5.178 7 8.483a34.833 34.833 0 0 0 5.91 7.8 17.558 17.558 0 0 0 11.705 4.522 16.383 16.383 0 0 0 6.287-1.27 7.977 7.977 0 0 0 1.535 3.238 21.077 21.077 0 0 1-19.74-1.052Zm35.151-5.3a6.826 6.826 0 0 1-3.259 6.175c-2.569 1.734-6.647 2.558-9.476.739a6.683 6.683 0 0 1-2.775-4.1 4.706 4.706 0 0 1-.066-.5.69.69 0 0 0 .037-.653c-.008-.015-.027-.016-.035-.031a2.682 2.682 0 0 1 .467-1.3c.016-.023 0-.051.017-.074.348-.132.7-.269 1.073-.441a19.063 19.063 0 0 0 2.01-1.118 4.766 4.766 0 0 1 2.137.345 2.821 2.821 0 0 1 1.446 1.331 1.968 1.968 0 0 1-.62 2.438.733.733 0 0 0 .653 1.313 3.4 3.4 0 0 0 1.3-4.369 4.262 4.262 0 0 0-2.188-2.059 5.761 5.761 0 0 0-.946-.276c.315-.255.665-.482.955-.755a31.932 31.932 0 0 0 2.425-2.565 6.541 6.541 0 0 1 6.845 5.896Zm-10.276-4.407a16.278 16.278 0 0 1-4.356 2.887c-2.789 1.293-4.945 1.41-6.435.378a15.219 15.219 0 0 0 3.348-1.77.733.733 0 1 0-.868-1.181c-.038.031-3.839 2.777-6.85 1.994a4.034 4.034 0 0 1-2.469-1.985 15.5 15.5 0 0 0 6-2.643.734.734 0 1 0-.888-1.169c-.04.031-4.337 3.261-8.047 2.312a5.788 5.788 0 0 1-3.515-2.9 26.662 26.662 0 0 0 6.094-2.585.733.733 0 0 0-.726-1.274c-1.228.7-4.757 2.505-6.315 2.505a4.564 4.564 0 0 1-3.646-1.508c-.813-1.127-.842-2.9-.137-5.226l1.668 1.4a4.78 4.78 0 0 0-.145 1 .731.731 0 0 0 .726.73h.007a.737.737 0 0 0 .732-.723c0-.048.175-4.765 8.153-8.489.087-.04.117-.13.179-.195a28.25 28.25 0 0 0 5.91.662 31.813 31.813 0 0 0 13.411-3.1c2.089 1.645 5.468 2.739 8.286 3.414-.651 2.425-3.387 11.136-10.117 17.462Zm14.929-18.037c-1.263-.18-8.06-1.23-11.615-3.573a43.213 43.213 0 0 0 3.98-2.294c1.927.116 13.053.147 15.55-13.6a8.841 8.841 0 0 0 2.821-4.623c.1-.324.185-.633.277-.95a77.762 77.762 0 0 0 15.821 7.8 109.932 109.932 0 0 1-26.834 17.236Zm5.7-158.531c1.107 3.8 1.375 9.4 1.568 13.49.1 2.126.181 3.806.348 4.808.506 3.051 3.178 6.475 3.233 6.532 4.273 7.425 7.208 17.973 7.9 21.082.529 2.374 3.252 4.872 3.328 4.939a124.105 124.105 0 0 1 13.69 17.775c2.16 3.567 3.877 6.726 5.392 9.515 2.386 4.385 4.269 7.849 6.54 10.421 2.138 2.427 5.516 8.372 8.236 16.179a16.315 16.315 0 0 1-4.893 17.892 109.044 109.044 0 0 1-26.546 15.809.684.684 0 0 0-.271.278 69.922 69.922 0 0 1-12.8-6.7c.1-.382.2-.768.292-1.134.992-3.941 1.648-6.544 5.191-7.539l.964-.272-.548-.838a5.4 5.4 0 0 0-2.589-2.147 35.964 35.964 0 0 0 1.3-8.994 32.769 32.769 0 0 1 6.388-5.335 40.65 40.65 0 0 0 1.878 1.412.736.736 0 0 0 1.018-.193.734.734 0 0 0-.193-1.019 60.045 60.045 0 0 1-11.333-10.841.7.7 0 0 0-.321-.172 15.624 15.624 0 0 0-7.419-7.708 12.187 12.187 0 0 0 1.632.124c3.187 0 5.926-1.322 7.074-3.751 1.794-3.8-.985-8.9-6.194-11.359a12.541 12.541 0 0 0-7.858-1.069c-11.207-15.761-28.415-17.127-39.682-15.96 7.691-5.863 32.459-27.665 43.618-72.172h.65c-.932 4.755-1.088 11.804.409 16.943Zm8.37-18.817a3.261 3.261 0 0 1-1.579.4H193.21a3.072 3.072 0 0 1-.641-.1.7.7 0 0 0-.107-.1 6.058 6.058 0 0 0 2.158-1.907 6.993 6.993 0 0 0 .85-4.1v-5.354a3.634 3.634 0 0 1 2.756-3.557 17.2 17.2 0 0 1 5.616-.184 13.408 13.408 0 0 1 4.3.871 4.278 4.278 0 0 1 1.822 1.478l.008.189h.126a4.739 4.739 0 0 1 .757 2.361c.086 1.994.257 5.6.427 7.4.118 1.24-.934 2.1-1.838 2.599Zm.32-14.743a5.563 5.563 0 0 0-1.067-.641 14.583 14.583 0 0 0-4.71-.974 18 18 0 0 0-6.112.22A5.092 5.092 0 0 0 194 251.2v5.363a5.608 5.608 0 0 1-.623 3.31 4.257 4.257 0 0 1-1.263 1.163c-.058-.01-.089-.055-.154-.054-2.322.11-3.985-.322-4.927-1.312a3.182 3.182 0 0 1-.828-2.4c0-.069-.136-7.017.11-10.651.2-2.853 1.944-2.841 2.14-2.848l.138.009.132-.04c2.085-.659 6.823-.812 13.688-.458.381.21.762.424 1.142.61a4.607 4.607 0 0 0 2.021.458 5.152 5.152 0 0 0 1.446-.21c.071-.02.169-.052.245-.074a5.19 5.19 0 0 1 2.497 3.55Zm-3.15-4.881a3.316 3.316 0 0 1-2.409-.158c-16.721-8.19-35.035-42.688-35.219-43.034a.733.733 0 1 0-1.3.682c.7 1.334 16.236 30.57 32.179 41.479-5.589-.2-9.443.006-11.462.6a3.4 3.4 0 0 0-1.637.477 4.356 4.356 0 0 0-1.908 3.736c-.253 3.7-.122 10.493-.11 10.679a4.614 4.614 0 0 0 1.2 3.455 5.869 5.869 0 0 0 3.361 1.635.7.7 0 0 0 .268.622 9.383 9.383 0 0 0 1.415.772c-6.648 18.451-21.318 50.866-46.91 69.121v-.046a12.779 12.779 0 0 0-.031-.575 12.045 12.045 0 0 0-1.685-4.731c-2.1-3.295-6.6-4.757-10.168-4.757h-.108a9.421 9.421 0 0 0-6.671 2.721c-3.943-6.5-14.187-24.851-13.695-39.364a.732.732 0 0 0-.708-.756.8.8 0 0 0-.757.708 38.653 38.653 0 0 0 .477 7.03 9.308 9.308 0 0 1-2.385-3.374.733.733 0 1 0-1.389.467c.835 2.473 3.383 4.592 4.165 5.2.03.152.068.3.1.457-.832 1.209-4.783 6.8-7.96 8.873a3.425 3.425 0 0 1-.155-.1c-8.9-4.282-15.317-17.545-18.128-24.369 8.434-13.63 25.279-19.466 30.275-20.934a3.345 3.345 0 0 1 2.41.157c16.72 8.191 35.036 42.689 35.22 43.035a.732.732 0 0 0 .649.391.711.711 0 0 0 .341-.084.733.733 0 0 0 .308-.99c-.7-1.334-16.243-30.581-32.19-41.485 1.372.048 2.676.08 3.836.08a30.075 30.075 0 0 0 7.635-.677 3.4 3.4 0 0 0 1.637-.477 4.35 4.35 0 0 0 1.908-3.737c.256-3.7.122-10.493.11-10.679a4.615 4.615 0 0 0-1.2-3.455 5.9 5.9 0 0 0-3.364-1.613.7.7 0 0 0-.265-.644 9.485 9.485 0 0 0-1.415-.772c6.648-18.449 21.316-50.863 46.91-69.121v.046c.012.291.024.523.031.575a12.04 12.04 0 0 0 1.685 4.731c2.1 3.295 6.6 4.758 10.168 4.758h.108a9.421 9.421 0 0 0 6.671-2.721c3.943 6.5 14.189 24.855 13.695 39.363a.733.733 0 0 0 .708.757h.024a.735.735 0 0 0 .733-.709 38.653 38.653 0 0 0-.477-7.03 9.32 9.32 0 0 1 2.385 3.375.735.735 0 0 0 .7.5.7.7 0 0 0 .234-.039.731.731 0 0 0 .46-.928c-.835-2.473-3.384-4.592-4.165-5.2-.031-.153-.068-.3-.1-.458.832-1.208 4.782-6.8 7.959-8.874l.157.1c8.9 4.283 15.317 17.545 18.128 24.37-8.436 13.631-25.281 19.467-30.277 20.935Zm50.491-57.2c-.5 2.106-6.209 25.49-17.649 38.782-1.761-4.862-8.89-22.828-19.929-28.122a3.334 3.334 0 0 0-1.89-.652 2.547 2.547 0 0 0-.63.077 2.627 2.627 0 0 0-1.085.57 8.245 8.245 0 0 1 .489-1.312 21.669 21.669 0 0 1 3.865-5.008c2.274-2.043 12.962-14.06 16.475-21.056 3.428 1.808 18.951 10.354 20.356 16.713Zm14.513-36.639c-.2.331-.776.443-1.222.477l-2.426.186-.325.1a20.468 20.468 0 0 1-4.106 1.943l-.41.095-.124.4a28.775 28.775 0 0 0-1.06 5.512c-.019.267-.026.656-.033 1.145-.059 3.922-.229 14.227-8.477 19.4a76.094 76.094 0 0 0-12.057-8.46c.022-.058.075-.1.082-.161a37.94 37.94 0 0 0 0-5.275c-.2-3.5.055-18.711 1.4-21.4a48.543 48.543 0 0 1 3.672-5.564v-.008c2.587-3.524 5.61-7.2 6.356-7.506 1.594-.393 8.325.16 9.079.914a26 26 0 0 1 2.543 4.847 12.15 12.15 0 0 0-4.135-1.664c-2.827-.4-7.152 2.2-7.336 2.312a.733.733 0 0 0 .759 1.255c1.128-.683 4.509-2.374 6.367-2.116a11.4 11.4 0 0 1 6.263 3.779 3.626 3.626 0 0 1 .608 1.26 15.956 15.956 0 0 0-5.289-1.332c-2.013 0-5.027 1.68-5.153 1.751a.733.733 0 1 0 .716 1.279 12.278 12.278 0 0 1 4.437-1.565c1.231 0 5.679 1.026 7.363 2.985a2.082 2.082 0 0 1 .566 1.544c-.568-.1-1.171-.17-1.787-.241-.554-.065-1.1-.127-1.594-.21-2.462-.394-5.889 1.667-6.032 1.756a.732.732 0 0 0 .764 1.25c.859-.525 3.443-1.825 5.027-1.56.52.085 1.088.152 1.663.219 1.365.16 3.426.4 3.686 1a2.027 2.027 0 0 1 .215 1.653Z"/><path d="M146.461 402.4a23.205 23.205 0 0 0 4.087.365 20.874 20.874 0 0 0 10.326-2.565.732.732 0 0 0-.77-1.245 20.578 20.578 0 0 1-13.385 2 .732.732 0 1 0-.258 1.441Z"/><circle cx="150.611" cy="395.025" r="3.074"/></svg>