<svg id="Layer_1" data-name="Layer 1" xmlns="http://www.w3.org/2000/svg" viewBox="0 0 321.875 500"><defs><style>.cls-2{fill:none}.cls-3{fill:#d90000}.cls-4{fill:#a50404}.cls-5{fill:#ffc306}.cls-6{fill:#ef870a}</style></defs><path style="fill:#fff" d="M0 0h321.875v500H0z"/><path d="M268.453 481.247H45.383a26.66 26.66 0 0 1-26.63-26.63V125.1a1.25 1.25 0 0 1 2.5 0v329.517a24.157 24.157 0 0 0 24.13 24.13h223.07a1.25 1.25 0 0 1 0 2.5Zm33.42-105.09a1.249 1.249 0 0 1-1.25-1.25V45.388a24.163 24.163 0 0 0-24.13-24.141H53.423a1.25 1.25 0 0 1 0-2.5h223.07a26.665 26.665 0 0 1 26.63 26.641v329.519a1.25 1.25 0 0 1-1.25 1.25Z"/><path class="cls-2" d="M37.6 85.157a8.2 8.2 0 0 0-11.559 0l-.755.755-.755-.755a8.173 8.173 0 0 0-11.554 11.559 12.107 12.107 0 0 0 2.955 2.18 26.322 26.322 0 0 1 9.358 7.943 26.339 26.339 0 0 1 9.358-7.939 12.093 12.093 0 0 0 2.956-2.18 8.2 8.2 0 0 0-.004-11.563Z"/><path class="cls-3" d="M25.29 85.912v20.927a26.33 26.33 0 0 0-9.358-7.939 12.107 12.107 0 0 1-2.955-2.18 8.173 8.173 0 0 1 11.558-11.563Z"/><path class="cls-4" d="M25.29 85.912v20.927a26.33 26.33 0 0 1 9.358-7.939 12.093 12.093 0 0 0 2.956-2.18 8.173 8.173 0 0 0-11.559-11.563Z"/><path d="M7.217 22.167h9.722v49.486h-4.911V27.011H4.257Zm12.919 24.759q0-9.321 2.1-14.414a16.809 16.809 0 0 1 5.937-7.719 14.839 14.839 0 0 1 8.579-2.626 15.191 15.191 0 0 1 8.713 2.642 17.663 17.663 0 0 1 6.173 7.927q2.271 5.286 2.271 14.19 0 8.873-2.237 14.125a17.587 17.587 0 0 1-6.172 7.927 15.221 15.221 0 0 1-8.747 2.675 14.808 14.808 0 0 1-8.545-2.595 16.873 16.873 0 0 1-5.938-7.735q-2.134-5.14-2.134-14.397Zm4.676.08q0 7.983 1.5 12.07a12.827 12.827 0 0 0 4.424 6.2 10.15 10.15 0 0 0 12.346.048 12.618 12.618 0 0 0 4.34-6.2 35.217 35.217 0 0 0 1.85-12.118 34.646 34.646 0 0 0-1.648-11.651 13.618 13.618 0 0 0-4.558-6.636 10.1 10.1 0 0 0-12.33 0 12.918 12.918 0 0 0-4.41 6.181q-1.513 4.091-1.514 12.106Z"/><path class="cls-2" d="M284.271 414.843a8.2 8.2 0 0 0 11.559 0l.755-.755.755.755a8.173 8.173 0 1 0 11.56-11.559 12.088 12.088 0 0 0-2.955-2.18 26.341 26.341 0 0 1-9.358-7.943 26.341 26.341 0 0 1-9.358 7.943 12.093 12.093 0 0 0-2.956 2.18 8.2 8.2 0 0 0-.002 11.559Z"/><path class="cls-3" d="M296.585 414.088v-20.927a26.341 26.341 0 0 0 9.358 7.943 12.088 12.088 0 0 1 2.955 2.18 8.173 8.173 0 1 1-11.558 11.559Z"/><path class="cls-4" d="M296.585 414.088v-20.927a26.341 26.341 0 0 1-9.358 7.943 12.093 12.093 0 0 0-2.956 2.18 8.173 8.173 0 0 0 11.559 11.559Z"/><path d="M314.658 477.833h-9.722v-49.486h4.911v44.642h7.771Zm-12.919-24.759q0 9.321-2.1 14.413a16.8 16.8 0 0 1-5.937 7.719 14.838 14.838 0 0 1-8.579 2.627 15.192 15.192 0 0 1-8.713-2.643 17.658 17.658 0 0 1-6.173-7.927q-2.271-5.284-2.271-14.189 0-8.873 2.237-14.125a17.591 17.591 0 0 1 6.174-7.928 15.217 15.217 0 0 1 8.746-2.674 14.813 14.813 0 0 1 8.545 2.594 16.876 16.876 0 0 1 5.938 7.736q2.133 5.141 2.133 14.397Zm-4.676-.08q0-7.983-1.5-12.07a12.823 12.823 0 0 0-4.424-6.2 10.152 10.152 0 0 0-12.346-.049 12.621 12.621 0 0 0-4.34 6.2 35.237 35.237 0 0 0-1.85 12.118 34.646 34.646 0 0 0 1.648 11.651 13.6 13.6 0 0 0 4.559 6.635 10.094 10.094 0 0 0 12.329 0 12.915 12.915 0 0 0 4.407-6.184q1.517-4.087 1.517-12.101Z"/><path class="cls-5" d="M160.938 70.124V109.7c-5.381-7.876-13.467-12.818-17.7-15.024a22.869 22.869 0 0 1-5.59-4.122A15.458 15.458 0 0 1 159.51 68.7Z"/><path class="cls-6" d="M160.938 70.124V109.7c5.38-7.876 13.466-12.818 17.7-15.024a22.874 22.874 0 0 0 5.591-4.122A15.459 15.459 0 0 0 162.365 68.7Z"/><path class="cls-3" d="M160.938 112.774v39.58c-5.381-7.876-13.467-12.818-17.7-15.024a22.869 22.869 0 0 1-5.59-4.122 15.458 15.458 0 0 1 21.861-21.862Z"/><path class="cls-4" d="M160.938 112.774v39.58c5.38-7.876 13.466-12.818 17.7-15.024a22.874 22.874 0 0 0 5.591-4.122 15.459 15.459 0 0 0-21.862-21.862Z"/><path class="cls-5" d="M160.938 155.424V195c-5.381-7.876-13.467-12.818-17.7-15.024a22.869 22.869 0 0 1-5.59-4.122A15.458 15.458 0 0 1 159.51 154Z"/><path class="cls-6" d="M160.938 155.424V195c5.38-7.876 13.466-12.818 17.7-15.024a22.874 22.874 0 0 0 5.591-4.122A15.459 15.459 0 0 0 162.365 154Z"/><path class="cls-3" d="M160.938 198.074v39.58c-5.381-7.876-13.467-12.818-17.7-15.024a22.869 22.869 0 0 1-5.59-4.122 15.458 15.458 0 0 1 21.861-21.862Z"/><path class="cls-4" d="M160.938 198.074v39.58c5.38-7.876 13.466-12.818 17.7-15.024a22.874 22.874 0 0 0 5.591-4.122 15.459 15.459 0 0 0-21.862-21.862Z"/><path class="cls-3" d="M89.454 88.709v39.58c-5.381-7.876-13.467-12.818-17.7-15.024a22.847 22.847 0 0 1-5.59-4.123 15.458 15.458 0 0 1 21.862-21.861Z"/><path class="cls-4" d="M89.454 88.709v39.58c5.38-7.876 13.466-12.818 17.7-15.024a22.852 22.852 0 0 0 5.591-4.123 15.458 15.458 0 1 0-21.864-21.861Z"/><path class="cls-3" d="M89.454 134.223V173.8c-5.381-7.876-13.467-12.817-17.7-15.023a22.873 22.873 0 0 1-5.59-4.123A15.458 15.458 0 1 1 88.026 132.8Z"/><path class="cls-4" d="M89.454 134.223V173.8c5.38-7.876 13.466-12.817 17.7-15.023a22.878 22.878 0 0 0 5.591-4.123A15.458 15.458 0 1 0 90.881 132.8Z"/><path class="cls-3" d="M89.454 179.738v39.58c-5.381-7.876-13.467-12.817-17.7-15.023a22.873 22.873 0 0 1-5.59-4.123 15.458 15.458 0 1 1 21.862-21.862Z"/><path class="cls-4" d="M89.454 179.738v39.58c5.38-7.876 13.466-12.817 17.7-15.023a22.878 22.878 0 0 0 5.591-4.123 15.459 15.459 0 1 0-21.864-21.862Z"/><path class="cls-3" d="M232.421 88.709v39.58c-5.38-7.876-13.466-12.818-17.7-15.024a22.852 22.852 0 0 1-5.591-4.123 15.458 15.458 0 1 1 21.862-21.861Z"/><path class="cls-4" d="M232.421 88.709v39.58c5.381-7.876 13.467-12.818 17.7-15.024a22.847 22.847 0 0 0 5.59-4.123 15.458 15.458 0 0 0-21.861-21.861Z"/><path class="cls-3" d="M232.421 134.223V173.8c-5.38-7.876-13.466-12.817-17.7-15.023a22.878 22.878 0 0 1-5.591-4.123 15.458 15.458 0 1 1 21.864-21.854Z"/><path class="cls-4" d="M232.421 134.223V173.8c5.381-7.876 13.467-12.817 17.7-15.023a22.873 22.873 0 0 0 5.59-4.123 15.458 15.458 0 0 0-21.862-21.854Z"/><path class="cls-3" d="M232.421 179.738v39.58c-5.38-7.876-13.466-12.817-17.7-15.023a22.878 22.878 0 0 1-5.591-4.123 15.459 15.459 0 1 1 21.862-21.862Z"/><path class="cls-4" d="M232.421 179.738v39.58c5.381-7.876 13.467-12.817 17.7-15.023a22.873 22.873 0 0 0 5.59-4.123 15.458 15.458 0 0 0-21.861-21.862Z"/><path d="M161.373 38.687q1.124-1.356 3.049-4.1a34.248 34.248 0 0 0 2.293-3.521 3.362 3.362 0 0 0 .366-1.4 1.718 1.718 0 0 0-.882-1.55 4.159 4.159 0 0 0-1.914-.607q-.987-.069-.986-.5 0-.39 1.421-.39h9.606a5.623 5.623 0 0 1 1.18.069.315.315 0 0 1 .218.343q0 .39-.871.436a6.963 6.963 0 0 0-3.909 1.423 29.627 29.627 0 0 0-5.032 5.7q-3.232 4.369-3.6 5.1 6.672 9.981 9.422 12.941t5.067 3.051c.55.03.825.2.825.5q0 .39-.871.39-.368 0-1.88-.092-2.156-.137-4.035-.137-3.209 0-6.121.137c-.244.016-.489.023-.733.023q-1.1 0-1.1-.39 0-.458.6-.458 2.912 0 2.912-1.813 0-1.9-6.74-10.691a47.119 47.119 0 0 0-3.68 4.967q-2.946 4.279-2.946 5.38 0 .78 1.112 1.377a7.2 7.2 0 0 0 2.832.734q.847.066.848.447 0 .424-.8.424l-.848-.023-4.677-.114q-4.126 0-5.662.16-.963 0-.963-.447 0-.425.711-.424a6.979 6.979 0 0 0 2.854-.573 6.254 6.254 0 0 0 2.171-1.559q.882-1 3.909-5.277t4.195-6.138q-7.887-11.517-9.709-13a7.088 7.088 0 0 0-4.138-1.618c-.413-.031-.619-.178-.619-.447s.382-.4 1.146-.4h12.059a3.693 3.693 0 0 1 1.043.08.408.408 0 0 1-.034.688 6.407 6.407 0 0 1-1.513.172 2.484 2.484 0 0 0-1.33.493 1.22 1.22 0 0 0-.55.976q0 .665 2.2 4.037a57.33 57.33 0 0 0 4.104 5.621Z"/><path class="cls-5" d="M160.938 429.876V390.3c5.38 7.876 13.466 12.817 17.7 15.023a22.878 22.878 0 0 1 5.591 4.123 15.458 15.458 0 0 1-21.864 21.854Z"/><path class="cls-6" d="M160.938 429.876V390.3c-5.381 7.876-13.467 12.817-17.7 15.023a22.873 22.873 0 0 0-5.59 4.123A15.458 15.458 0 0 0 159.51 431.3Z"/><path class="cls-3" d="M160.938 387.226v-39.58c5.38 7.876 13.466 12.817 17.7 15.023a22.878 22.878 0 0 1 5.591 4.123 15.458 15.458 0 0 1-21.862 21.861Z"/><path class="cls-4" d="M160.938 387.226v-39.58c-5.381 7.876-13.467 12.817-17.7 15.023a22.873 22.873 0 0 0-5.59 4.123 15.458 15.458 0 0 0 21.861 21.861Z"/><path class="cls-5" d="M160.938 344.576V305c5.38 7.876 13.466 12.817 17.7 15.023a22.878 22.878 0 0 1 5.591 4.123A15.458 15.458 0 0 1 162.365 346Z"/><path class="cls-6" d="M160.938 344.576V305c-5.381 7.876-13.467 12.817-17.7 15.023a22.873 22.873 0 0 0-5.59 4.123A15.458 15.458 0 0 0 159.51 346Z"/><path class="cls-3" d="M160.938 301.926v-39.58c5.38 7.876 13.466 12.817 17.7 15.023a22.878 22.878 0 0 1 5.591 4.123 15.458 15.458 0 0 1-21.862 21.861Z"/><path class="cls-4" d="M160.938 301.926v-39.58c-5.381 7.876-13.467 12.817-17.7 15.023a22.873 22.873 0 0 0-5.59 4.123 15.458 15.458 0 0 0 21.861 21.861Z"/><path class="cls-3" d="M232.421 411.291v-39.58c5.381 7.876 13.467 12.817 17.7 15.023a22.873 22.873 0 0 1 5.59 4.123 15.458 15.458 0 0 1-21.861 21.862Z"/><path class="cls-4" d="M232.421 411.291v-39.58c-5.38 7.876-13.466 12.817-17.7 15.023a22.878 22.878 0 0 0-5.591 4.123 15.459 15.459 0 1 0 21.862 21.862Z"/><path class="cls-3" d="M232.421 365.776V326.2c5.381 7.876 13.467 12.818 17.7 15.024a22.869 22.869 0 0 1 5.59 4.122 15.458 15.458 0 1 1-21.862 21.854Z"/><path class="cls-4" d="M232.421 365.776V326.2c-5.38 7.876-13.466 12.818-17.7 15.024a22.874 22.874 0 0 0-5.591 4.122 15.459 15.459 0 1 0 21.864 21.854Z"/><path class="cls-3" d="M232.421 320.262v-39.581c5.381 7.877 13.467 12.818 17.7 15.024a22.873 22.873 0 0 1 5.59 4.123 15.458 15.458 0 1 1-21.861 21.861Z"/><path class="cls-4" d="M232.421 320.262v-39.581c-5.38 7.877-13.466 12.818-17.7 15.024a22.878 22.878 0 0 0-5.591 4.123 15.458 15.458 0 1 0 21.862 21.861Z"/><path class="cls-3" d="M89.454 411.291v-39.58c5.38 7.876 13.466 12.817 17.7 15.023a22.878 22.878 0 0 1 5.591 4.123 15.459 15.459 0 0 1-21.862 21.862Z"/><path class="cls-4" d="M89.454 411.291v-39.58c-5.381 7.876-13.467 12.817-17.7 15.023a22.873 22.873 0 0 0-5.59 4.123 15.458 15.458 0 0 0 21.861 21.862Z"/><path class="cls-3" d="M89.454 365.776V326.2c5.38 7.876 13.466 12.818 17.7 15.024a22.874 22.874 0 0 1 5.591 4.122A15.459 15.459 0 1 1 90.881 367.2Z"/><path class="cls-4" d="M89.454 365.776V326.2c-5.381 7.876-13.467 12.818-17.7 15.024a22.869 22.869 0 0 0-5.59 4.122A15.458 15.458 0 1 0 88.026 367.2Z"/><path class="cls-3" d="M89.454 320.262v-39.581c5.38 7.877 13.466 12.818 17.7 15.024a22.878 22.878 0 0 1 5.591 4.123 15.458 15.458 0 1 1-21.862 21.861Z"/><path class="cls-4" d="M89.454 320.262v-39.581c-5.381 7.877-13.467 12.818-17.7 15.024a22.873 22.873 0 0 0-5.59 4.123 15.458 15.458 0 1 0 21.861 21.861Z"/><path d="M160.5 461.313q-1.124 1.355-3.049 4.1a34.4 34.4 0 0 0-2.293 3.52 3.366 3.366 0 0 0-.366 1.4 1.718 1.718 0 0 0 .882 1.549 4.16 4.16 0 0 0 1.914.608q.987.069.986.5 0 .39-1.421.39h-9.606a5.623 5.623 0 0 1-1.18-.069.316.316 0 0 1-.218-.344q0-.39.871-.435a6.964 6.964 0 0 0 3.909-1.424 29.58 29.58 0 0 0 5.032-5.7q3.232-4.371 3.6-5.105-6.671-9.981-9.422-12.941t-5.067-3.051q-.825-.047-.825-.5 0-.389.871-.389.368 0 1.88.091 2.156.138 4.035.138 3.21 0 6.121-.138.366-.022.734-.023 1.1 0 1.1.39 0 .459-.6.459-2.912 0-2.912 1.813 0 1.9 6.74 10.69a46.88 46.88 0 0 0 3.68-4.967q2.946-4.278 2.946-5.379c0-.52-.371-.981-1.112-1.378a7.2 7.2 0 0 0-2.831-.733q-.849-.066-.849-.448 0-.423.8-.424l.848.023 4.677.115q4.126 0 5.662-.161.963 0 .963.447 0 .425-.711.425a6.979 6.979 0 0 0-2.854.573 6.241 6.241 0 0 0-2.178 1.572q-.882 1-3.908 5.277t-4.2 6.138q7.887 11.517 9.709 13a7.089 7.089 0 0 0 4.138 1.619c.413.03.619.177.619.447s-.382.4-1.146.4h-12.047a3.693 3.693 0 0 1-1.043-.08.351.351 0 0 1-.172-.356.347.347 0 0 1 .206-.332 6.41 6.41 0 0 1 1.514-.172 2.484 2.484 0 0 0 1.329-.493 1.221 1.221 0 0 0 .55-.976q0-.664-2.2-4.037a57.245 57.245 0 0 0-4.106-5.629Z"/></svg>