<svg id="Layer_1" data-name="Layer 1" xmlns="http://www.w3.org/2000/svg" viewBox="0 0 321.875 500"><defs><style>.cls-2{fill:#d90000}.cls-3{fill:#05703d}.cls-4{fill:#ffb200}.cls-5{fill:#f9c9af}.cls-6{fill:#099bdb}.cls-7{fill:#ff7f00}.cls-10,.cls-8{fill:none}.cls-8{stroke:#000;stroke-miterlimit:10;stroke-width:1.5px}.cls-9{fill:#a50404}</style></defs><path style="fill:#fff" d="M0 0h321.875v500H0z"/><path d="M268.453 481.248H45.383a26.66 26.66 0 0 1-26.63-26.63V125.1a1.25 1.25 0 0 1 2.5 0v329.52a24.157 24.157 0 0 0 24.13 24.13h223.07a1.25 1.25 0 0 1 0 2.5Zm33.42-105.091a1.249 1.249 0 0 1-1.25-1.25V45.388a24.162 24.162 0 0 0-24.13-24.14H53.423a1.25 1.25 0 0 1 0-2.5h223.07a26.665 26.665 0 0 1 26.63 26.64v329.519a1.25 1.25 0 0 1-1.25 1.25Z"/><path class="cls-2" d="M164.233 141.382c-3.45 1.59-18.182 9.95-14.131 35.3 4.322-2.159 22.435-12.772 14.131-35.3Z"/><path class="cls-3" d="M135.215 174.183a.758.758 0 0 1 .09.108 30.444 30.444 0 0 0 7.708 5.9c5.674 3.342 13.626 7.324 21.582 6.871h.015a19.768 19.768 0 0 0 5.209-.987 25.025 25.025 0 0 0 10.468-6.577c10.137-10.734 11.386-28.679 2.784-40.006a25.55 25.55 0 0 0-14.952-9.267 33.267 33.267 0 0 0-7.428-.83 31.52 31.52 0 0 0-19 6.1 29.251 29.251 0 0 0-9.423 12.677c-2.2 5.793-1.46 12.085-.429 18.56a14.541 14.541 0 0 0 3.376 7.451Zm42.869-26.221a.743.743 0 0 1 1.412-.349c4.449 9.219 5.108 16.929 1.965 22.92-4.579 8.72-15.457 10.507-15.917 10.579a.888.888 0 0 1-.115.007.744.744 0 0 1-.437-1.345c13.681-9.938 13.099-31.594 13.092-31.812ZM164.4 139.7a.741.741 0 0 1 .951.428c10.436 26.813-15.263 38.217-15.523 38.329a.74.74 0 0 1-.294.06.725.725 0 0 1-.354-.09.738.738 0 0 1-.379-.525c-5.288-30.097 15.386-38.125 15.599-38.202Zm-27.839 8.465c2.3-5.176 7.267-8.627 14.762-10.259a.743.743 0 0 1 .636 1.295c-.146.123-14.568 12.491-10.931 32.071a.74.74 0 0 1-.474.832.723.723 0 0 1-.257.046.742.742 0 0 1-.645-.375c-.315-.544-7.597-13.483-3.094-23.61Z"/><path class="cls-2" d="M80.74 224.819c.1-.492.186-.98.31-1.486.027-.093 1.744-5.453 9.774-4.885l42.02-41.783c.42-.843.751-1.482.958-1.874a16.048 16.048 0 0 1-2.475-4.274l-54.756 54.157a29.733 29.733 0 0 1 4.169.145Z"/><path class="cls-4" d="M130.146 235.706c1.266-.358 1.789-2.743 1.119-5.1a6.693 6.693 0 0 0-1.732-3.035 2.511 2.511 0 0 0-1.556-.758 1.311 1.311 0 0 0-.348.046 2.171 2.171 0 0 0-1.245 1.6 5.6 5.6 0 0 0-.169 1.569.7.7 0 0 1 .009.214 7.794 7.794 0 0 0 .286 1.712c.741 2.614 2.528 4.076 3.636 3.752Zm15.248 15.941v.011c.255.36.517.719.794 1.076h6.292v-.717c-1.7-11.265-6.344-18.184-7.955-20.3a7.888 7.888 0 0 1-5.18 2.62 34.78 34.78 0 0 0 6.026 17.29c.008.006.017.011.023.02Z"/><path class="cls-2" d="M134.866 246.456c1.495 1.22 3.606 1.483 6.27.808a35.889 35.889 0 0 1-3.282-12.921 8.028 8.028 0 0 1-4.838-2.227 5.828 5.828 0 0 1-.977 3.97.75.75 0 0 1 .026.273c-.008.071-.702 7.241 2.801 10.097Z"/><path class="cls-4" d="M133.66 252.5c3.011 1.394 6.372 1.129 9.993-.749a33.419 33.419 0 0 1-1.849-3.121 12.631 12.631 0 0 1-3.319.5 6.988 6.988 0 0 1-4.564-1.518c-3.326-2.72-3.478-8.255-3.395-10.466a2.709 2.709 0 0 1-.724.1 3.271 3.271 0 0 1-1.478-.382 14 14 0 0 0-.715 6.492 11.061 11.061 0 0 0 6.051 9.144Zm6.374-19.774a6.469 6.469 0 0 0 3.81-2.53c0-.01.014-.017.018-.027.079-.109.159-.216.232-.331a6.511 6.511 0 0 0-5.516-9.967 6.51 6.51 0 1 0 1.456 12.855Z"/><path class="cls-5" d="M82.516 238.274c-2.046-3.208-2.71-7.236-2.027-11.984-1.234-.127-5.354-.447-7.977.58-3.039 1.191-13.4 8.86-14.468 9.656-.636.87-5.726 7.837-8.127 11.84-2.692 4.486-2.29 5.6-2.286 5.614l.232-.031a2.914 2.914 0 0 0 1.279.033h.019a4.518 4.518 0 0 0 1.8-1.069c1.586-1.361 5.747-7.841 7.216-10.223a.743.743 0 1 1 1.266.779c-.22.359-5.428 8.786-7.514 10.572a6.492 6.492 0 0 1-2.1 1.289 27.352 27.352 0 0 1-1.557 2.366 1.509 1.509 0 0 0-.334 1.162c.026.049.178.1.523.088 1.955-.146 4.667-1.46 7.441-3.6 3.065-2.367 7.781-8.467 7.828-8.531a.745.745 0 0 1 1.179.911c-.2.257-4.88 6.313-8.1 8.8a27.077 27.077 0 0 1-2.949 1.99 6.815 6.815 0 0 0 5.3-.528c3.494-2.046 10.192-8.444 10.259-8.509a.744.744 0 0 1 1.029 1.075 108.907 108.907 0 0 1-8.58 7.4 5.849 5.849 0 0 0 2.879-.507 96.959 96.959 0 0 0 9.279-5.076c1.769-1.043 3.048-1.8 3.549-2.019.191-.085.5-.2.9-.349 2.281-.845 7.625-2.822 9.726-6.557a.745.745 0 0 1 .057-.067 14.351 14.351 0 0 1-5.742-5.105Z"/><path class="cls-6" d="M127.222 225.427a3.486 3.486 0 0 1 3.326 1.056c.013.012.023.027.036.039a7.994 7.994 0 0 1 14.011-5.4 15.287 15.287 0 0 0 2.909-3.285c3.684-5.617 12.416-19.415 16.069-29.249-.078 0-.156.008-.234.008-7.88 0-15.537-3.859-21.081-7.122a33.632 33.632 0 0 1-7.406-5.478c-1.572 3.041-6.488 12.986-8.67 22.48a.739.739 0 0 1-.522.547 30.2 30.2 0 0 0-12.96 8.677c-5.886 6.807-18.815 14.31-19.362 14.624a.69.69 0 0 1-.114.031c-.164 2.882.461 7.793 5.07 13.137a193.548 193.548 0 0 0 26.453-5.9 6.779 6.779 0 0 1 .2-1.513 3.473 3.473 0 0 1 2.275-2.652Z"/><path class="cls-4" d="M97.489 236.819c-6.693-7.5-5.977-14.4-5.456-16.759a16.489 16.489 0 0 0-2.436-.191c-5.831 0-7.056 3.677-7.112 3.859-1.377 5.609-.947 10.247 1.285 13.747a13.513 13.513 0 0 0 7.772 5.551c4.6-1.5 6.494-3.992 7.09-4.981-.4-.4-.76-.8-1.116-1.2-.01-.007-.016-.017-.027-.026Z"/><path class="cls-2" d="M187.009 253.545c-1.492-1.215-3.6-1.482-6.271-.808a35.858 35.858 0 0 1 3.283 12.928 8.047 8.047 0 0 1 4.839 2.227 5.83 5.83 0 0 1 .977-3.975.721.721 0 0 1-.027-.275c.007-.071.704-7.236-2.801-10.097Zm-10.526-5.191a27.53 27.53 0 0 0-.8-1.08h-6.291v.714c1.7 11.265 6.344 18.184 7.955 20.3a7.922 7.922 0 0 1 4.161-2.459 7.828 7.828 0 0 1 1.019-.157 34.776 34.776 0 0 0-6.039-17.309Z"/><path class="cls-2" d="M188.216 247.505c-3.009-1.394-6.372-1.127-10 .751a33.269 33.269 0 0 1 1.851 3.124c3.286-.9 5.943-.57 7.882 1.015 3.326 2.72 3.478 8.253 3.395 10.464a3.012 3.012 0 0 1 2.2.283 14.007 14.007 0 0 0 .713-6.489 11.21 11.21 0 0 0-6.041-9.148Zm3.514 16.795c-1.266.358-1.789 2.743-1.119 5.1.741 2.607 2.527 4.055 3.637 3.747.931-.263 1.454-1.625 1.4-3.264a.676.676 0 0 1 0-.119 7.694 7.694 0 0 0-.284-1.717c-.613-2.15-2.081-3.8-3.3-3.8a1.259 1.259 0 0 0-.334.053ZM149 140.046c-5.539 1.7-9.262 4.626-11.085 8.725-2.7 6.076-.7 13.5 1.083 18.056-.708-13.358 6.408-22.869 10.002-26.781Z"/><path class="cls-5" d="M241.265 57.17c.254-.041.994-.18 1.335-1.606a3.721 3.721 0 0 1-.191-.338 23.3 23.3 0 0 1-1.752-6.323 8.025 8.025 0 0 0-.925.738 2.877 2.877 0 0 0-.855 2.264 19.686 19.686 0 0 0 .558 3.958 1.725 1.725 0 0 0 1.83 1.307Z"/><path class="cls-2" d="M232.987 117.429c-2.061 1.537-3.242 3.95-3.522 7.187a33.682 33.682 0 0 1 15.986-8.829 27.5 27.5 0 0 0-4.786-.452 12.831 12.831 0 0 0-7.678 2.094Zm26.071 10.104c-16.624 1.917-22.314 11.094-23.622 13.738 5.263 1.539 9.934 1.217 13.887-.966 6.045-3.334 8.853-10.168 9.735-12.772Zm-6.531 25.813c4.038-1.685 6.542-5.314 7.876-7.872a36.4 36.4 0 0 1-18.984 7.557c4.129 1.562 7.854 1.669 11.108.315Zm-72.378 16.486c2.565-4.9 2.346-11.122-.646-18.541-.35 6.136-2.168 19.168-11.028 27.524 3.47-1.152 8.914-3.715 11.674-8.983Z"/><path class="cls-6" d="M224.577 221.987a3.979 3.979 0 0 1 1.871.4c1.26.7 1.494 2.062 1.7 3.268a5.161 5.161 0 0 0 .624 2.038c.662.944 2.077 1.2 4.467.811 4.817-.8 9.728-1.9 13.722-4.314a11.412 11.412 0 0 1-1.154.022.743.743 0 0 1-.451-1.315c.259-.215.511-.44.753-.672a31.089 31.089 0 0 1-7.767 2.449c-3.254.564-5.661-.017-6.964-1.689a7.727 7.727 0 0 1-1.181-2.7 5.479 5.479 0 0 0-1.1-2.382c-1.066-1.074-3.006-.905-4.45-.574a21.986 21.986 0 0 0-8.792 4.285c-.008.006-.018.008-.026.013a24.194 24.194 0 0 1-.2 2.437 18.805 18.805 0 0 1 8.948-2.077Z"/><path class="cls-2" d="M175.108 235.655A148.467 148.467 0 0 1 147.3 233.1a48.932 48.932 0 0 1 6.662 18.8l.007 1.571a.743.743 0 0 1-.743.743h-7.4a.741.741 0 0 1-.582-.281 33.027 33.027 0 0 1-.729-.953 14.6 14.6 0 0 1-6.827 1.9 10.967 10.967 0 0 1-4.657-1.034 12.539 12.539 0 0 1-6.905-10.341 14.863 14.863 0 0 1 .962-7.559 7.467 7.467 0 0 1-1.382-1.98l-8.335 16.375c-.01.02-.031.027-.042.046a.727.727 0 0 1-.183.2.814.814 0 0 1-.11.074.716.716 0 0 1-.212.058.693.693 0 0 1-.116.033c-.014 0-.027-.009-.041-.01H101.48c3.41 4.7 8.367 15.5 9.283 17.517 7.511-1.746 34.312-7 63.811-1.361a48.948 48.948 0 0 1-6.66-18.8l-.007-1.568a.742.742 0 0 1 .743-.743h7.394a.734.734 0 0 1 .581.28c.255.32.5.641.736.963 4.118-2.182 7.98-2.491 11.48-.873a12.543 12.543 0 0 1 6.9 10.342 14.886 14.886 0 0 1-.959 7.557 7.462 7.462 0 0 1 1.386 1.968l8.329-16.362a.66.66 0 0 1 .081-.1.625.625 0 0 1 .071-.09.736.736 0 0 1 .2-.134c.009 0 .016-.01.025-.014a.725.725 0 0 1 .377-.057H220.4c-3.411-4.7-8.368-15.5-9.284-17.516a165.292 165.292 0 0 1-36.008 3.904Z"/><path class="cls-6" d="m212.433 214.37-.016.174c.559-.211 1.118-.418 1.676-.642a.728.728 0 0 1 .6.022.738.738 0 0 1 .389.464c.023.082.169.62.327 1.48a19.9 19.9 0 0 1 4.457-5.973c2.293-1.929 5.982-3.164 9.057-1.568a11.9 11.9 0 0 1 1.205.746 6.117 6.117 0 0 0 1.727.922c1.572.423 3.167-.683 4.049-1.76a16.168 16.168 0 0 0 1.794-3c.286-.564.572-1.128.887-1.673a17.756 17.756 0 0 1 9.286-7.691.6.6 0 0 1-.1-.174.736.736 0 0 1 .1-.784 8.556 8.556 0 0 1 1.231-1.056 18.99 18.99 0 0 0-10.96 4.718c-.405.366-.809.753-1.217 1.145-2.025 1.945-4.329 4.169-7.306 3.915a10.37 10.37 0 0 1-3.247-.978c-1.282-.54-2.488-1.058-3.634-.736a5.252 5.252 0 0 0-1.8 1.116 29.37 29.37 0 0 0-8.043 10.93.723.723 0 0 1-.462.403Z"/><path class="cls-2" d="M221.4 124.2c-3.628 3.912-13.952 11.465-39.62 11.627a24.836 24.836 0 0 1 2.476 2.759c9.023 11.881 7.728 30.688-2.886 41.928a26.476 26.476 0 0 1-11.073 6.965 21.177 21.177 0 0 1-5.111 1.037c-3.324 9.322-11.183 22.072-15.947 29.382 9.223 2.026 35.842 6.427 61.706-2.809a.766.766 0 0 1-.039-.231c.013-.467.46-11.622 11.842-27.447 11.077-15.4 10.924-27.014 10.922-27.13.253-24.668-9.87-34.175-12.27-36.081Z"/><path class="cls-4" d="M148.34 219.22a16.756 16.756 0 0 1-2.872 3.1 7.968 7.968 0 0 1-.022 8.137c.187.232.442.565.736.974a.749.749 0 0 1 .263 0c32.841 6.582 62.608-.666 66.038-1.552a24.171 24.171 0 0 0 1.36-14.28c-27.534 10.754-56.488 5.663-65.503 3.621Z"/><path class="cls-5" d="M251.722 45.875a1.449 1.449 0 0 0 1.593.445 1.064 1.064 0 0 0 .571-1.152 35.665 35.665 0 0 1 .266-5.234 3.073 3.073 0 0 1 .046-2.583 2.6 2.6 0 0 1 2.274-1.135c1.312-.063 2.63-.032 3.907 0l.538.01c.012-.013.015-.03.028-.042l.9-.887c-.967-.771-5.629-4.191-9.428-1.887a4.612 4.612 0 0 0-2.157 2.038 6.5 6.5 0 0 0-.474 1.436.736.736 0 0 1-.068.331A11.874 11.874 0 0 0 250 41.9a9.194 9.194 0 0 0 1.722 3.975Z"/><path class="cls-2" d="m271.118 28.234-8.19 8.084a3.492 3.492 0 0 1 1.762.948c.524.455 1.011.969 1.5 1.482.154.163.308.319.461.478l7.584-7.782a3.1 3.1 0 0 0-.493-2.309 3.531 3.531 0 0 0-2.624-.901Z"/><path class="cls-5" d="M266.106 40.845a.737.737 0 0 1-.109-.161c-.305-.3-.6-.607-.892-.914-.451-.477-.9-.956-1.391-1.38a1.837 1.837 0 0 0-1.456-.654c-.638 0-1.277-.019-1.916-.034-1.249-.034-2.543-.06-3.8 0-.387.019-.887.107-1.071.409a1.878 1.878 0 0 0 .118 1.421c.766 1.722 3.766 1.743 4.864 1.6a.771.771 0 0 1 .829.625c.217 1.4 1.979 4.217 2.64 5.18a.746.746 0 0 1-.112.971c-4.321 3.943-3.041 8.434-2.984 8.623a.743.743 0 0 1-1.422.433 10.057 10.057 0 0 1 2.941-9.712 44.784 44.784 0 0 1-.568-.9L247 61.511a.73.73 0 0 1 .2.353 18.12 18.12 0 0 0 6.279 9.3.725.725 0 0 1 .267.586c3.59-.158 10.616-.864 16.066-3.843a.731.731 0 0 1-.168-.614c3.376-17.321.572-24.142-.83-24.668a7.544 7.544 0 0 1-2.489-1.635.761.761 0 0 1-.219-.145Zm-17.563 10.709a1.182 1.182 0 0 0 1.257.063 1.884 1.884 0 0 0 .839-1.782 16.911 16.911 0 0 0-.56-3.666 12.387 12.387 0 0 1-1.52-3.92 13.825 13.825 0 0 1-.406-4.452 3.572 3.572 0 0 0-2.46 1.372c-.742 1.484-.51 6.246.051 8.279a6.936 6.936 0 0 0 2.799 4.106Z"/><path class="cls-3" d="M250.368 113.5a24.2 24.2 0 0 0-6.061-2.061c-.022-.005-.043-.005-.064-.012a26.493 26.493 0 0 0-12.908.742c-3.419 1.046-7.54 3.417-9.054 6.955a22.361 22.361 0 0 1 .878 2.227.746.746 0 0 1-.043.573 8.369 8.369 0 0 1-.749 1.134c2.783 2.16 12.871 11.724 12.785 36.588 6.017 1.156 10.989 1.323 15.17.5a17.887 17.887 0 0 0 12.123-8.938c3.279-5.756 3.887-13.239 1.67-20.526-2.315-7.628-7.458-14.05-13.747-17.182Zm-21.1 13.615a.743.743 0 0 1-.6.307.673.673 0 0 1-.22-.034.743.743 0 0 1-.523-.692c-.11-4.788 1.3-8.308 4.183-10.46 6.1-4.552 16.533-1.259 16.974-1.117a.744.744 0 0 1-.1 1.441c-13.645 2.345-19.659 10.469-19.718 10.552Zm4.923 15.328a.736.736 0 0 1-.437-.378.745.745 0 0 1-.034-.578c.2-.555 5.069-13.571 26.315-15.549a.745.745 0 0 1 .791.922c-.107.419-2.683 10.279-10.772 14.746a17.087 17.087 0 0 1-8.39 2.113 24.261 24.261 0 0 1-7.477-1.279Zm28.856.666c-.108.348-2.73 8.6-9.934 11.607a13.862 13.862 0 0 1-5.408 1.068 21.722 21.722 0 0 1-9.916-2.757.748.748 0 0 1-.372-.865.774.774 0 0 1 .771-.537 34.606 34.606 0 0 0 23.648-9.286.744.744 0 0 1 1.211.77Z"/><path class="cls-4" d="M252.723 82.872c6.473 1.661 18.089-2.339 20.474-3.208.239-3.708-1.052-8.928-1.637-11.056-7.131 4.438-17.2 4.61-19.653 4.673-1.248 3.909.336 8.385.816 9.591Z"/><path class="cls-6" d="M256.4 84.76c-.378 0-.75-.011-1.116-.03-.511 2.529-3.6 16.861-9.543 25.5a25.553 25.553 0 0 1 5.289 1.932c6.647 3.314 12.071 10.07 14.506 18.078a31.631 31.631 0 0 1 1.288 6.852c10.17-24.582 5.117-52.152 4.507-55.214-3.531 1.153-9.705 2.882-14.931 2.882Z"/><path class="cls-5" d="M243.753 54.587a2.4 2.4 0 0 0 .246.4l.012.014a2.1 2.1 0 0 0 1.959.861.925.925 0 0 0 .869-.7 5.864 5.864 0 0 0 .052-3.046 8.617 8.617 0 0 1-2.58-4.275 21.272 21.272 0 0 1-.553-4.394 7.429 7.429 0 0 0-1.753 3.38 2.547 2.547 0 0 0-.017.76 23.673 23.673 0 0 0 1.765 7Z"/><path class="cls-7" d="M172.581 47.157a12.868 12.868 0 0 0-5.295.439.735.735 0 0 1-.914-.521.742.742 0 0 1 .522-.912c5.441-1.489 8.526-.012 12.429 1.854.964.46 1.984.947 3.114 1.423 5.273 2.23 11.8.005 11.87-.017a.744.744 0 0 1 .654 1.322c-.277.184-6.712 4.61-2.389 14.286a26.464 26.464 0 0 0 5.57 6.942c3.969 3.515 8.079 17.12 3.25 28.612a5 5 0 0 0 3.294-1.8.712.712 0 0 1 .652-.309.741.741 0 0 1 .608.391 21.526 21.526 0 0 1 2.261 6.832 9.154 9.154 0 0 0 3.985-3.445.726.726 0 0 1 .8-.327.744.744 0 0 1 .568.649c0 .031.051.508.054 1.179 2.162-1.249 6.985-4.977 8.551-13.966.046-.159 1.241-3.609-.533-9.37a27.106 27.106 0 0 1-1.272-7.019 24.517 24.517 0 0 1 .369-4.435 18.069 18.069 0 0 0 .262-5.142 21.634 21.634 0 0 0-1.4-5.141c-1.807-4.43-4.844-7.57-8.551-8.841a15.778 15.778 0 0 0-8.47-.276.752.752 0 0 1-.882-.576.744.744 0 0 1 .574-.881 20.529 20.529 0 0 1 4.383-.46c-.663-2.53-2.572-4.6-5.714-6.146a17.459 17.459 0 0 0-9.625-1.376l-.416.049a8.105 8.105 0 0 1-3.619-.114 8.05 8.05 0 0 1-2.282-1.356 21.68 21.68 0 0 0-.644-.474 10.128 10.128 0 0 0-7.405-1.7 20.59 20.59 0 0 0-2.6.659c-.773.23-1.545.46-2.334.617a29.52 29.52 0 0 1-3.18.4c-2.5.228-4.861.441-6.416 2.024-1.227 1.252-1.62 3.055-2.036 4.965a13.34 13.34 0 0 1-1.829 5.028 12.919 12.919 0 0 1-3.3 2.953 18.011 18.011 0 0 0-2.158 1.687 10.1 10.1 0 0 0-2.747 8.263c.318 2.876 2.276 6.222 4.195 8.461a44 44 0 0 1 18.046-24.431Zm-7.429 48.864a.737.737 0 0 1 .374-.1.749.749 0 0 1 .45.15c3.28 2.493 6.278 4.624 9.744 5.466a10.274 10.274 0 0 0 8.141-1.321c-4.175.484-7.271-.182-9.23-2.005a12.169 12.169 0 0 1-.915-.976 6.882 6.882 0 0 0-2.432-1.994 7.586 7.586 0 0 0-4.918-.318.723.723 0 0 1-.665-.179 6.066 6.066 0 0 0-3.743-1.8 4.013 4.013 0 0 0-1.836.364c-.579.189-1.338.438-2.483.733a16.249 16.249 0 0 1-5.26.8 9.511 9.511 0 0 1-1.328-.162 12.14 12.14 0 0 0 14.1 1.338Z"/><path class="cls-5" d="M189.248 107.268a.745.745 0 0 1-.168 1.039 32.564 32.564 0 0 1-11.4 5.015c.157 1.672.5 6.14-.053 8.308 7.3 1.625 26.057 4.446 36.054-6.413a34.153 34.153 0 0 1-2.6-9.55 9.861 9.861 0 0 1-3.409 1.8.87.87 0 0 1-.175.02.746.746 0 0 1-.743-.768 15.854 15.854 0 0 0-1.656-6.2 7.985 7.985 0 0 1-4.93 1.651.745.745 0 0 1-.646-1.065c5.337-11.1 1.445-24.641-2.369-28.021a27.319 27.319 0 0 1-5.929-7.422c-3.149-7.045-1.036-11.717.869-14.152a18.3 18.3 0 0 1-10.237-.7c-1.153-.484-2.194-.983-3.178-1.453a33.02 33.02 0 0 0-4.042-1.722c-2.165 1.219-25.064 14.963-19.256 45.424a56.567 56.567 0 0 0 1.884-.456c1.1-.287 1.833-.526 2.39-.71a5.634 5.634 0 0 1 2.375-.436 7.29 7.29 0 0 1 4.385 1.935 8.9 8.9 0 0 1 5.483.5 8.26 8.26 0 0 1 2.934 2.367 11.29 11.29 0 0 0 .808.864c1.928 1.792 5.351 2.218 10.18 1.279a.743.743 0 0 1 .751 1.157 9.781 9.781 0 0 1-8.183 3.784 12.926 12.926 0 0 1-3.022-.356c-3.6-.876-6.639-2.968-9.905-5.435a13.81 13.81 0 0 1-8.643 1.426c.43 1.464.9 2.946 1.443 4.432a14.218 14.218 0 0 0 15.662 9.175 33.483 33.483 0 0 0 14.283-5.481.743.743 0 0 1 1.043.164ZM159.08 68.892a.745.745 0 0 1 .462-.942c.169-.051 4.259-1.4 10.351 2.05a.743.743 0 1 1-.733 1.293c-5.462-3.089-9.1-1.946-9.14-1.934a.745.745 0 0 1-.94-.467Zm1.662 7.118A2.676 2.676 0 1 1 163.4 79a2.838 2.838 0 0 1-2.658-2.99Zm10.469 15.6c-.526.039-1.027.056-1.5.056a14.782 14.782 0 0 1-5.344-.85.744.744 0 0 1-.454-.707c.228-7.451 5.822-12.907 6.06-13.137A.744.744 0 1 1 171 78.047c-.052.051-5.113 5-5.576 11.564a16.273 16.273 0 0 0 5.676.521.721.721 0 0 1 .8.687.743.743 0 0 1-.689.794Zm8.662-18.91a.756.756 0 0 1-.885-.566.743.743 0 0 1 .564-.886 18.8 18.8 0 0 1 12.719 2.41.745.745 0 0 1-.379 1.386.734.734 0 0 1-.376-.1 17.623 17.623 0 0 0-11.643-2.244Zm4.933 10.79a3.01 3.01 0 1 1 2.658-2.99 2.839 2.839 0 0 1-2.658 2.992Z"/><path class="cls-4" d="M181.371 134.348c30.628-.1 39.076-11.037 40.267-12.853-1.78-5.091-4.325-6.662-5.326-7.1-11.638 15.755-37.394 9.25-41.589 8.057a19.534 19.534 0 0 0-2.83 6.763.739.739 0 0 1-.281.476 27.3 27.3 0 0 1 9.073 5.127.737.737 0 0 1 .686-.47Z"/><path class="cls-2" d="M223.813 83.17 261.014 45a13.818 13.818 0 0 1-1.037-2.347 7.548 7.548 0 0 1-4.518-1.044c-.122 1.679-.088 3.467-.088 3.492a2.5 2.5 0 0 1-1.47 2.583 2.633 2.633 0 0 1-1.036.211 2.87 2.87 0 0 1-.944-.179 16.956 16.956 0 0 1 .2 2.067 3.376 3.376 0 0 1-1.6 3.13 2.679 2.679 0 0 1-1.3.341 2.629 2.629 0 0 1-.686-.1 7.357 7.357 0 0 1-.27 2.413 2.427 2.427 0 0 1-2.057 1.753 3.373 3.373 0 0 1-.53.043 3.51 3.51 0 0 1-1.923-.59 2.918 2.918 0 0 1-2.257 1.856 3.056 3.056 0 0 1-.465.037 2.976 2.976 0 0 1-.68-.089L222.8 75.897a.632.632 0 0 1-.67.184 28.886 28.886 0 0 0 .918 3.89 24.7 24.7 0 0 1 .765 3.199Z"/><path class="cls-8" d="m170.795 129.842 6.853-3.91 7.158 5.814 6.315-4.958 7.399 3.972 4.004-5.789 6.061 2.562 3.832-6.907 6.49 1.315.645-6.065"/><path class="cls-2" d="M157.642 358.619c3.45-1.59 18.182-9.949 14.131-35.3-4.322 2.159-22.435 12.772-14.131 35.3Z"/><path class="cls-3" d="M186.66 325.818a.707.707 0 0 1-.09-.108 30.444 30.444 0 0 0-7.708-5.9c-5.674-3.342-13.626-7.324-21.582-6.871h-.015a19.768 19.768 0 0 0-5.209.987 25.017 25.017 0 0 0-10.468 6.578c-10.137 10.733-11.386 28.678-2.784 40a25.553 25.553 0 0 0 14.952 9.267 33.269 33.269 0 0 0 7.429.83 31.519 31.519 0 0 0 19-6.1 29.259 29.259 0 0 0 9.423-12.678c2.2-5.793 1.46-12.085.429-18.56a14.541 14.541 0 0 0-3.377-7.445Zm-42.869 26.221a.743.743 0 0 1-1.412.349c-4.449-9.219-5.108-16.929-1.965-22.92 4.579-8.72 15.457-10.507 15.917-10.579a.888.888 0 0 1 .115-.007.744.744 0 0 1 .437 1.345c-13.683 9.938-13.099 31.594-13.092 31.812Zm13.687 8.262a.741.741 0 0 1-.951-.428c-10.436-26.813 15.263-38.217 15.523-38.329a.74.74 0 0 1 .294-.06.725.725 0 0 1 .354.09.738.738 0 0 1 .379.525c5.285 30.101-15.389 38.125-15.599 38.201Zm27.839-8.465c-2.3 5.176-7.267 8.627-14.762 10.259a.743.743 0 0 1-.636-1.3c.146-.123 14.568-12.491 10.931-32.07a.741.741 0 0 1 .474-.833.723.723 0 0 1 .257-.046.741.741 0 0 1 .645.375c.312.549 7.594 13.489 3.091 23.615Z"/><path class="cls-2" d="M241.135 275.182c-.1.492-.186.98-.31 1.486-.027.093-1.744 5.453-9.774 4.885l-42.02 41.783a91.49 91.49 0 0 1-.958 1.874 16.048 16.048 0 0 1 2.475 4.274l54.752-54.157a29.575 29.575 0 0 1-4.165-.145Z"/><path class="cls-4" d="M191.729 264.3c-1.266.359-1.789 2.743-1.119 5.1a6.7 6.7 0 0 0 1.732 3.036 2.516 2.516 0 0 0 1.556.757 1.311 1.311 0 0 0 .348-.046 2.171 2.171 0 0 0 1.245-1.6 5.6 5.6 0 0 0 .169-1.569.7.7 0 0 1-.009-.214 7.8 7.8 0 0 0-.286-1.712c-.741-2.619-2.528-4.081-3.636-3.752Zm-15.248-15.945v-.012c-.255-.36-.517-.719-.794-1.075h-6.292v.716c1.7 11.265 6.344 18.184 7.955 20.3a7.925 7.925 0 0 1 4.162-2.459 7.843 7.843 0 0 1 1.019-.161 34.8 34.8 0 0 0-6.027-17.29c-.004-.005-.017-.01-.023-.019Z"/><path class="cls-2" d="M187.009 253.545c-1.495-1.219-3.606-1.483-6.27-.808a35.889 35.889 0 0 1 3.282 12.921 8.028 8.028 0 0 1 4.838 2.227 5.828 5.828 0 0 1 .977-3.97.75.75 0 0 1-.026-.273c.008-.07.702-7.236-2.801-10.097Z"/><path class="cls-4" d="M188.215 247.505c-3.011-1.394-6.372-1.129-9.993.749a33.2 33.2 0 0 1 1.849 3.121 12.673 12.673 0 0 1 3.319-.5 6.988 6.988 0 0 1 4.564 1.518c3.326 2.72 3.478 8.255 3.395 10.466a2.708 2.708 0 0 1 .724-.1 3.269 3.269 0 0 1 1.478.381 14 14 0 0 0 .715-6.492 11.063 11.063 0 0 0-6.051-9.143Zm-6.374 19.77a6.469 6.469 0 0 0-3.81 2.53c0 .01-.013.017-.018.027-.079.109-.159.217-.232.331a6.511 6.511 0 0 0 5.516 9.967 6.51 6.51 0 1 0-1.456-12.855Z"/><path class="cls-5" d="M239.359 261.727c2.046 3.208 2.71 7.236 2.027 11.984 1.234.128 5.354.448 7.977-.58 3.039-1.191 13.4-8.86 14.468-9.656.636-.869 5.726-7.836 8.127-11.84 2.692-4.486 2.29-5.6 2.286-5.614l-.231.031a2.919 2.919 0 0 0-1.28-.033h-.019a4.518 4.518 0 0 0-1.8 1.069c-1.586 1.361-5.747 7.841-7.216 10.223a.743.743 0 0 1-1.266-.779c.22-.359 5.428-8.786 7.514-10.572a6.5 6.5 0 0 1 2.1-1.289 27.1 27.1 0 0 1 1.556-2.366 1.509 1.509 0 0 0 .334-1.162c-.026-.049-.178-.1-.523-.087-1.955.145-4.667 1.459-7.441 3.6-3.065 2.367-7.781 8.467-7.828 8.531a.745.745 0 0 1-1.179-.911c.2-.257 4.88-6.313 8.1-8.8a27.077 27.077 0 0 1 2.949-1.99 6.815 6.815 0 0 0-5.3.528c-3.494 2.046-10.192 8.444-10.259 8.509a.744.744 0 0 1-1.029-1.075 108.907 108.907 0 0 1 8.58-7.4 5.849 5.849 0 0 0-2.879.507 96.959 96.959 0 0 0-9.279 5.076c-1.769 1.044-3.047 1.8-3.549 2.019-.191.085-.5.2-.9.349-2.281.845-7.625 2.822-9.726 6.558-.015.026-.04.042-.057.066a14.359 14.359 0 0 1 5.743 5.104Z"/><path class="cls-6" d="M194.653 274.574a3.488 3.488 0 0 1-3.326-1.055c-.013-.012-.023-.028-.036-.04a7.995 7.995 0 0 1-14.011 5.405 15.258 15.258 0 0 0-2.909 3.284c-3.684 5.617-12.416 19.415-16.069 29.249.078 0 .156-.008.234-.008 7.88 0 15.537 3.859 21.081 7.122a33.632 33.632 0 0 1 7.406 5.478c1.572-3.04 6.488-12.986 8.67-22.479a.739.739 0 0 1 .522-.548 30.2 30.2 0 0 0 12.962-8.678c5.886-6.807 18.815-14.31 19.362-14.624a.675.675 0 0 1 .115-.031c.163-2.882-.462-7.793-5.071-13.137a193.548 193.548 0 0 0-26.453 5.9 6.8 6.8 0 0 1-.2 1.514 3.473 3.473 0 0 1-2.277 2.648Z"/><path class="cls-4" d="M224.386 263.182c6.693 7.5 5.977 14.4 5.456 16.759a16.489 16.489 0 0 0 2.436.191c5.831 0 7.056-3.677 7.112-3.859 1.377-5.608.947-10.247-1.285-13.747a13.513 13.513 0 0 0-7.772-5.551c-4.6 1.5-6.494 3.992-7.09 4.982.4.4.76.8 1.116 1.2.01.006.017.016.027.025Z"/><path class="cls-2" d="M134.866 246.457c1.492 1.214 3.6 1.481 6.271.807a35.858 35.858 0 0 1-3.283-12.928 8.047 8.047 0 0 1-4.839-2.227 5.824 5.824 0 0 1-.977 3.975.723.723 0 0 1 .027.275c-.007.071-.703 7.241 2.801 10.098Zm38.008 113.498c5.539-1.7 9.262-4.626 11.085-8.724 2.7-6.077.7-13.5-1.083-18.057.709 13.358-6.407 22.869-10.002 26.781Z"/><path class="cls-5" d="M80.61 442.831c-.254.041-.994.18-1.335 1.606a3.721 3.721 0 0 1 .191.338 23.3 23.3 0 0 1 1.752 6.323 8.025 8.025 0 0 0 .925-.738A2.876 2.876 0 0 0 83 448.1a19.686 19.686 0 0 0-.558-3.958 1.725 1.725 0 0 0-1.832-1.311Z"/><path class="cls-2" d="M88.888 382.572c2.061-1.537 3.242-3.95 3.522-7.187a33.682 33.682 0 0 1-15.986 8.829 27.4 27.4 0 0 0 4.786.452 12.831 12.831 0 0 0 7.678-2.094Zm-26.071-10.104c16.624-1.917 22.314-11.094 23.622-13.738-5.263-1.539-9.934-1.217-13.887.966-6.045 3.334-8.852 10.168-9.735 12.772Zm6.531-25.813c-4.038 1.685-6.542 5.314-7.876 7.873a36.392 36.392 0 0 1 18.984-7.558c-4.129-1.562-7.856-1.67-11.108-.315Zm72.378-16.485c-2.565 4.895-2.346 11.121.647 18.54.349-6.136 2.167-19.167 11.027-27.524-3.47 1.152-8.914 3.714-11.674 8.984Z"/><path class="cls-6" d="M97.3 278.014a3.991 3.991 0 0 1-1.872-.4c-1.26-.7-1.494-2.063-1.7-3.269a5.161 5.161 0 0 0-.624-2.038c-.662-.944-2.077-1.2-4.467-.811-4.817.8-9.728 1.9-13.722 4.314a11.412 11.412 0 0 1 1.154-.022.743.743 0 0 1 .451 1.315c-.259.215-.511.44-.753.673a31.05 31.05 0 0 1 7.767-2.45c3.254-.564 5.661.017 6.964 1.69a7.714 7.714 0 0 1 1.181 2.7 5.474 5.474 0 0 0 1.1 2.382c1.066 1.075 3.006.9 4.45.574a21.986 21.986 0 0 0 8.792-4.285c.008-.006.018-.008.026-.013.025-.779.087-1.593.2-2.437a18.8 18.8 0 0 1-8.947 2.077Z"/><path class="cls-2" d="M146.768 264.346a148.465 148.465 0 0 1 27.807 2.552 48.932 48.932 0 0 1-6.662-18.8l-.007-1.571a.743.743 0 0 1 .743-.743h7.4a.741.741 0 0 1 .582.281c.252.316.493.634.729.953a14.6 14.6 0 0 1 6.827-1.895 10.967 10.967 0 0 1 4.657 1.034 12.539 12.539 0 0 1 6.905 10.341 14.863 14.863 0 0 1-.962 7.559 7.467 7.467 0 0 1 1.382 1.98l8.335-16.375c.01-.019.031-.027.042-.046a.742.742 0 0 1 .183-.2.814.814 0 0 1 .11-.074.716.716 0 0 1 .212-.058.693.693 0 0 1 .116-.033c.014 0 .027.009.041.01H220.4c-3.41-4.7-8.367-15.5-9.283-17.516-7.511 1.746-34.312 7-63.811 1.36a48.955 48.955 0 0 1 6.66 18.8l.007 1.568a.743.743 0 0 1-.743.744h-7.394a.735.735 0 0 1-.581-.281c-.255-.32-.5-.641-.736-.963-4.118 2.183-7.98 2.491-11.48.873a12.541 12.541 0 0 1-6.9-10.342 14.886 14.886 0 0 1 .959-7.557 7.472 7.472 0 0 1-1.386-1.967l-8.329 16.361a.616.616 0 0 1-.081.1.625.625 0 0 1-.071.09.736.736 0 0 1-.2.134c-.009 0-.016.01-.025.014a.723.723 0 0 1-.376.057h-15.151c3.411 4.7 8.368 15.5 9.284 17.516a165.3 165.3 0 0 1 36.005-3.906Z"/><path class="cls-6" d="m109.442 285.631.016-.174c-.559.211-1.118.418-1.676.642a.728.728 0 0 1-.6-.022.738.738 0 0 1-.389-.464c-.023-.082-.169-.62-.327-1.48a19.9 19.9 0 0 1-4.457 5.973c-2.293 1.929-5.982 3.164-9.057 1.568a12.07 12.07 0 0 1-1.2-.745 6.1 6.1 0 0 0-1.727-.923c-1.571-.423-3.167.683-4.049 1.76a16.168 16.168 0 0 0-1.794 3c-.286.564-.572 1.128-.887 1.673A17.756 17.756 0 0 1 74 304.132a.6.6 0 0 1 .1.174.734.734 0 0 1-.1.784 8.556 8.556 0 0 1-1.231 1.056 18.983 18.983 0 0 0 10.96-4.718c.405-.366.809-.753 1.217-1.145 2.025-1.944 4.329-4.169 7.306-3.915a10.4 10.4 0 0 1 3.247.978c1.282.54 2.488 1.058 3.634.736a5.236 5.236 0 0 0 1.8-1.116 29.37 29.37 0 0 0 8.043-10.93.723.723 0 0 1 .466-.405Z"/><path class="cls-2" d="M100.477 375.8c3.627-3.912 13.951-11.464 39.619-11.627a24.836 24.836 0 0 1-2.476-2.759c-9.023-11.881-7.728-30.688 2.886-41.928a26.476 26.476 0 0 1 11.073-6.965 21.177 21.177 0 0 1 5.111-1.037c3.324-9.321 11.183-22.072 15.947-29.382-9.223-2.026-35.842-6.427-61.706 2.809a.772.772 0 0 1 .039.231c-.013.467-.46 11.622-11.842 27.447C88.051 327.993 88.2 339.6 88.206 339.72c-.254 24.668 9.866 34.18 12.271 36.08Z"/><path class="cls-4" d="M173.535 280.781a16.788 16.788 0 0 1 2.872-3.105 7.968 7.968 0 0 1 .022-8.137 22.91 22.91 0 0 1-.736-.974.749.749 0 0 1-.263 0c-32.841-6.582-62.608.666-66.038 1.552a24.171 24.171 0 0 0-1.36 14.28c27.534-10.749 56.488-5.658 65.503-3.616Z"/><path class="cls-5" d="M70.153 454.126a1.449 1.449 0 0 0-1.593-.445 1.064 1.064 0 0 0-.571 1.152 35.665 35.665 0 0 1-.266 5.234 3.073 3.073 0 0 1-.046 2.583 2.6 2.6 0 0 1-2.274 1.135c-1.312.063-2.63.032-3.906 0l-.539-.01c-.012.013-.015.03-.028.042l-.9.887c.968.771 5.629 4.191 9.428 1.887a4.607 4.607 0 0 0 2.157-2.038 6.5 6.5 0 0 0 .474-1.436.736.736 0 0 1 .068-.331 11.874 11.874 0 0 0-.286-4.682 9.194 9.194 0 0 0-1.718-3.978Z"/><path class="cls-2" d="m50.757 471.767 8.19-8.084a3.492 3.492 0 0 1-1.762-.948c-.524-.455-1.011-.969-1.5-1.482-.154-.163-.307-.319-.461-.478l-7.584 7.782a3.1 3.1 0 0 0 .493 2.309 3.531 3.531 0 0 0 2.624.901Z"/><path class="cls-5" d="M55.769 459.156a.737.737 0 0 1 .109.161c.306.3.6.608.892.915.451.477.9.956 1.391 1.379a1.837 1.837 0 0 0 1.456.654c.638 0 1.277.019 1.916.034 1.249.034 2.543.06 3.8 0 .387-.019.887-.107 1.071-.409a1.878 1.878 0 0 0-.118-1.421c-.766-1.722-3.766-1.743-4.864-1.6a.77.77 0 0 1-.829-.625c-.217-1.4-1.979-4.217-2.64-5.18a.746.746 0 0 1 .112-.971c4.322-3.943 3.041-8.434 2.984-8.622a.743.743 0 0 1 1.422-.434 10.057 10.057 0 0 1-2.941 9.712c.158.242.354.552.568.9l14.777-15.159a.73.73 0 0 1-.2-.353 18.12 18.12 0 0 0-6.279-9.3.725.725 0 0 1-.267-.586c-3.59.158-10.616.864-16.066 3.843a.731.731 0 0 1 .168.614c-3.376 17.321-.572 24.142.83 24.668a7.56 7.56 0 0 1 2.489 1.635.761.761 0 0 1 .219.145Zm17.563-10.709a1.182 1.182 0 0 0-1.257-.063 1.882 1.882 0 0 0-.838 1.782 16.866 16.866 0 0 0 .559 3.666 12.4 12.4 0 0 1 1.52 3.92 13.825 13.825 0 0 1 .406 4.452 3.572 3.572 0 0 0 2.46-1.372c.742-1.484.51-6.246-.051-8.279a6.936 6.936 0 0 0-2.799-4.106Z"/><path class="cls-3" d="M71.508 386.5a24.179 24.179 0 0 0 6.06 2.061c.022 0 .044 0 .065.012a26.49 26.49 0 0 0 12.907-.742c3.419-1.046 7.54-3.417 9.054-6.955a22.361 22.361 0 0 1-.878-2.227.746.746 0 0 1 .043-.573 8.369 8.369 0 0 1 .749-1.134c-2.783-2.16-12.871-11.724-12.785-36.588-6.017-1.156-10.989-1.322-15.17-.5A17.887 17.887 0 0 0 59.43 348.8c-3.279 5.756-3.887 13.239-1.67 20.526 2.32 7.621 7.458 14.043 13.748 17.174Zm21.1-13.614a.741.741 0 0 1 .6-.308.7.7 0 0 1 .22.034.743.743 0 0 1 .523.692c.11 4.789-1.3 8.308-4.183 10.46-6.1 4.552-16.533 1.259-16.974 1.117a.744.744 0 0 1 .1-1.441c13.644-2.34 19.658-10.468 19.717-10.55Zm-4.923-15.329a.744.744 0 0 1 .471.956c-.2.555-5.069 13.571-26.315 15.549a.745.745 0 0 1-.791-.922c.107-.419 2.683-10.279 10.772-14.746a17.087 17.087 0 0 1 8.39-2.113 24.261 24.261 0 0 1 7.476 1.28Zm-28.853-.657c.108-.348 2.73-8.6 9.934-11.607a13.862 13.862 0 0 1 5.408-1.068 21.722 21.722 0 0 1 9.916 2.757.748.748 0 0 1 .372.865.774.774 0 0 1-.771.537 34.611 34.611 0 0 0-23.648 9.286.744.744 0 0 1-1.211-.77Z"/><path class="cls-4" d="M69.152 417.129c-6.473-1.66-18.089 2.339-20.474 3.208-.239 3.708 1.052 8.928 1.637 11.056 7.131-4.438 17.2-4.61 19.653-4.672 1.248-3.91-.335-8.386-.816-9.592Z"/><path class="cls-6" d="M65.474 415.241c.378 0 .75.011 1.116.03.511-2.529 3.6-16.861 9.543-25.5a25.553 25.553 0 0 1-5.289-1.932c-6.647-3.314-12.071-10.07-14.506-18.078a31.631 31.631 0 0 1-1.288-6.852c-10.17 24.582-5.117 52.152-4.507 55.214 3.528-1.153 9.706-2.882 14.931-2.882Z"/><path class="cls-5" d="M78.123 445.414a2.472 2.472 0 0 0-.247-.4l-.012-.014a2.1 2.1 0 0 0-1.959-.861.925.925 0 0 0-.869.695 5.864 5.864 0 0 0-.052 3.046 8.617 8.617 0 0 1 2.58 4.275 21.272 21.272 0 0 1 .553 4.394 7.429 7.429 0 0 0 1.753-3.38 2.514 2.514 0 0 0 .017-.76 23.665 23.665 0 0 0-1.764-6.995Z"/><path class="cls-7" d="M149.294 452.844a12.868 12.868 0 0 0 5.295-.439.743.743 0 1 1 .392 1.433c-5.441 1.489-8.526.012-12.429-1.854-.964-.46-1.984-.947-3.114-1.423-5.273-2.23-11.8 0-11.87.017a.744.744 0 0 1-.654-1.322c.277-.184 6.712-4.61 2.389-14.286a26.464 26.464 0 0 0-5.57-6.942c-3.969-3.515-8.079-17.12-3.25-28.612a5 5 0 0 0-3.294 1.8.713.713 0 0 1-.652.31.744.744 0 0 1-.608-.392 21.553 21.553 0 0 1-2.261-6.832 9.147 9.147 0 0 0-3.984 3.445.728.728 0 0 1-.8.327.743.743 0 0 1-.568-.649c0-.031-.051-.508-.054-1.179-2.161 1.249-6.985 4.977-8.551 13.966-.046.159-1.241 3.609.533 9.371a27.057 27.057 0 0 1 1.271 7.015 24.509 24.509 0 0 1-.369 4.435 18.069 18.069 0 0 0-.262 5.142 21.634 21.634 0 0 0 1.4 5.141c1.807 4.43 4.844 7.57 8.551 8.841a15.781 15.781 0 0 0 8.471.276.752.752 0 0 1 .881.576.744.744 0 0 1-.574.881 20.529 20.529 0 0 1-4.383.46c.663 2.531 2.572 4.6 5.714 6.147a17.468 17.468 0 0 0 9.625 1.375l.416-.049a6.289 6.289 0 0 1 5.9 1.47c.214.162.427.322.644.474a10.123 10.123 0 0 0 7.405 1.695 20.59 20.59 0 0 0 2.6-.659c.773-.23 1.545-.46 2.334-.617a29.774 29.774 0 0 1 3.18-.4c2.5-.228 4.861-.44 6.416-2.024 1.228-1.251 1.62-3.055 2.036-4.965a13.357 13.357 0 0 1 1.829-5.028 12.919 12.919 0 0 1 3.3-2.953 18.011 18.011 0 0 0 2.158-1.687 10.1 10.1 0 0 0 2.747-8.263c-.318-2.876-2.276-6.222-4.195-8.461a44 44 0 0 1-18.045 24.439Zm7.429-48.864a.739.739 0 0 1-.374.1.756.756 0 0 1-.45-.15c-3.28-2.494-6.277-4.624-9.744-5.467a10.27 10.27 0 0 0-8.141 1.322c4.175-.484 7.271.181 9.23 2a12.169 12.169 0 0 1 .915.976 6.882 6.882 0 0 0 2.432 1.994 7.586 7.586 0 0 0 4.918.318.725.725 0 0 1 .666.179 6.061 6.061 0 0 0 3.742 1.8 4.013 4.013 0 0 0 1.836-.364c.579-.189 1.338-.438 2.483-.733a16.251 16.251 0 0 1 5.261-.8 9.668 9.668 0 0 1 1.327.162 12.14 12.14 0 0 0-14.1-1.338Z"/><path class="cls-5" d="M132.628 392.733a.744.744 0 0 1 .167-1.039 32.582 32.582 0 0 1 11.4-5.015c-.157-1.672-.5-6.14.053-8.308-7.3-1.625-26.057-4.446-36.053 6.413a34.181 34.181 0 0 1 2.6 9.55 9.861 9.861 0 0 1 3.409-1.8.876.876 0 0 1 .175-.019.744.744 0 0 1 .743.767 15.854 15.854 0 0 0 1.656 6.2 7.982 7.982 0 0 1 4.93-1.652.745.745 0 0 1 .646 1.065c-5.337 11.1-1.445 24.642 2.369 28.021a27.319 27.319 0 0 1 5.929 7.422c3.149 7.045 1.037 11.717-.868 14.152a18.3 18.3 0 0 1 10.236.7c1.153.484 2.194.983 3.178 1.453a33.02 33.02 0 0 0 4.042 1.722c2.165-1.219 25.064-14.963 19.256-45.423-.537.117-1.143.265-1.884.456-1.1.286-1.833.525-2.39.709a5.634 5.634 0 0 1-2.375.436 7.294 7.294 0 0 1-4.385-1.934 8.911 8.911 0 0 1-5.483-.5 8.262 8.262 0 0 1-2.934-2.368 11.29 11.29 0 0 0-.808-.864c-1.928-1.792-5.351-2.218-10.18-1.279a.75.75 0 0 1-.767-.324.742.742 0 0 1 .016-.832 9.781 9.781 0 0 1 8.183-3.785 12.98 12.98 0 0 1 3.022.356c3.6.877 6.639 2.968 9.905 5.435a13.816 13.816 0 0 1 8.643-1.426 71.97 71.97 0 0 0-1.443-4.432 14.218 14.218 0 0 0-15.662-9.175 33.483 33.483 0 0 0-14.283 5.481.741.741 0 0 1-1.043-.163Zm30.167 38.377a.744.744 0 0 1-.462.941c-.169.051-4.259 1.4-10.351-2.05a.743.743 0 1 1 .733-1.293c5.462 3.089 9.1 1.946 9.14 1.934a.745.745 0 0 1 .94.468Zm-1.662-7.119a2.676 2.676 0 1 1-2.657-2.99 2.838 2.838 0 0 1 2.657 2.99Zm-10.469-15.6a20.293 20.293 0 0 1 1.5-.056 14.782 14.782 0 0 1 5.344.85.745.745 0 0 1 .454.707c-.228 7.451-5.822 12.907-6.06 13.137a.744.744 0 1 1-1.031-1.072c.052-.051 5.113-5 5.576-11.564a16.273 16.273 0 0 0-5.676-.521.721.721 0 0 1-.8-.687.743.743 0 0 1 .693-.797ZM142 427.3a.756.756 0 0 1 .885.566.745.745 0 0 1-.564.887 18.814 18.814 0 0 1-12.719-2.411.744.744 0 0 1 .379-1.385.733.733 0 0 1 .376.1A17.623 17.623 0 0 0 142 427.3Zm-4.933-10.79a3.01 3.01 0 1 1-2.658 2.99 2.839 2.839 0 0 1 2.66-2.991Z"/><path class="cls-4" d="M140.5 365.653c-30.628.1-39.075 11.037-40.267 12.853 1.78 5.091 4.325 6.662 5.326 7.1 11.638-15.755 37.394-9.25 41.589-8.057a19.534 19.534 0 0 0 2.83-6.763.739.739 0 0 1 .281-.476 27.3 27.3 0 0 1-9.073-5.127.737.737 0 0 1-.686.47Z"/><path class="cls-2" d="M98.062 416.831 60.861 455a13.818 13.818 0 0 1 1.037 2.347 7.548 7.548 0 0 1 4.518 1.044c.122-1.679.088-3.467.088-3.492a2.5 2.5 0 0 1 1.47-2.583 2.651 2.651 0 0 1 1.036-.211 2.9 2.9 0 0 1 .944.179 16.956 16.956 0 0 1-.2-2.067 3.376 3.376 0 0 1 1.6-3.13 2.679 2.679 0 0 1 1.3-.341 2.629 2.629 0 0 1 .686.1 7.36 7.36 0 0 1 .27-2.413 2.427 2.427 0 0 1 2.057-1.752 3.258 3.258 0 0 1 .53-.044 3.51 3.51 0 0 1 1.923.59 2.919 2.919 0 0 1 2.258-1.856 3.053 3.053 0 0 1 .464-.037 2.976 2.976 0 0 1 .68.089L99.071 424.1a.745.745 0 0 1 .523-.213.755.755 0 0 1 .146.029 28.886 28.886 0 0 0-.918-3.89 24.7 24.7 0 0 1-.76-3.195Z"/><path class="cls-8" d="m151.08 370.159-6.853 3.91-7.158-5.814-6.315 4.958-7.399-3.972-4.004 5.789-6.061-2.562-3.832 6.907-6.49-1.315-.645 6.065"/><path class="cls-2" d="M88.992 59.508v54.948C81.522 103.521 70.3 96.662 64.421 93.6a31.792 31.792 0 0 1-7.76-5.723 21.46 21.46 0 0 1 30.349-30.35Z"/><path class="cls-9" d="M88.992 59.508v54.948c7.469-10.935 18.695-17.794 24.57-20.857a31.8 31.8 0 0 0 7.761-5.723 21.46 21.46 0 0 0-30.349-30.349Z"/><path class="cls-2" d="M232.883 440.492v-54.948c7.47 10.934 18.695 17.794 24.571 20.857a31.767 31.767 0 0 1 7.76 5.723 21.46 21.46 0 0 1-30.349 30.349Z"/><path class="cls-9" d="M232.883 440.492v-54.948c-7.469 10.934-18.694 17.794-24.57 20.857a31.772 31.772 0 0 0-7.761 5.723 21.46 21.46 0 0 0 30.348 30.349Z"/><path d="M26.729 22.167a18.246 18.246 0 0 1 14.638 7.142q5.892 7.143 5.893 17.585a26.871 26.871 0 0 1-5.88 17.552q-5.88 7.208-14.337 7.207-8.565 0-14.455-7.175A26.47 26.47 0 0 1 6.7 47.118 29.57 29.57 0 0 1 9.38 34.53a22.309 22.309 0 0 1 7.32-9.08 17 17 0 0 1 10.029-3.283Zm.17 4.58a13.745 13.745 0 0 0-8.1 2.723 18.257 18.257 0 0 0-5.976 7.345 24.025 24.025 0 0 0-2.15 10.285 21.593 21.593 0 0 0 4.756 14.184q4.761 5.788 11.47 5.787a14.216 14.216 0 0 0 8.3-2.659 17.767 17.767 0 0 0 5.95-7.276 24.147 24.147 0 0 0 2.137-10.26 23.537 23.537 0 0 0-2.141-10.146 18.147 18.147 0 0 0-6.015-7.26 14.087 14.087 0 0 0-8.23-2.723Zm268.247 451.086a18.246 18.246 0 0 1-14.638-7.143q-5.892-7.142-5.893-17.584a26.871 26.871 0 0 1 5.88-17.552q5.878-7.207 14.337-7.207 8.565 0 14.455 7.175a26.47 26.47 0 0 1 5.893 17.36 29.57 29.57 0 0 1-2.68 12.588 22.309 22.309 0 0 1-7.319 9.08 17 17 0 0 1-10.035 3.283Zm-.17-4.58a13.745 13.745 0 0 0 8.1-2.723 18.257 18.257 0 0 0 5.976-7.345A24.025 24.025 0 0 0 311.2 452.9a21.593 21.593 0 0 0-4.756-14.184q-4.761-5.79-11.47-5.787a14.216 14.216 0 0 0-8.3 2.659 17.761 17.761 0 0 0-5.95 7.276 24.147 24.147 0 0 0-2.137 10.26 23.537 23.537 0 0 0 2.137 10.148 18.147 18.147 0 0 0 6.015 7.26 14.09 14.09 0 0 0 8.237 2.721Z"/><path class="cls-10" d="M37.6 85.157a8.2 8.2 0 0 0-11.559 0l-.755.755-.755-.755a8.173 8.173 0 0 0-11.554 11.559 12.107 12.107 0 0 0 2.955 2.18 26.322 26.322 0 0 1 9.358 7.943 26.339 26.339 0 0 1 9.358-7.939 12.093 12.093 0 0 0 2.956-2.18 8.2 8.2 0 0 0-.004-11.563Z"/><path class="cls-2" d="M25.29 85.912v20.927a26.33 26.33 0 0 0-9.358-7.939 12.107 12.107 0 0 1-2.955-2.18 8.173 8.173 0 0 1 11.558-11.563Z"/><path class="cls-9" d="M25.29 85.912v20.927a26.33 26.33 0 0 1 9.358-7.939 12.093 12.093 0 0 0 2.956-2.18 8.173 8.173 0 0 0-11.559-11.563Z"/><path class="cls-10" d="M284.271 414.843a8.2 8.2 0 0 0 11.559 0l.755-.755.755.755a8.173 8.173 0 1 0 11.56-11.559 12.088 12.088 0 0 0-2.955-2.18 26.33 26.33 0 0 1-9.358-7.943 26.33 26.33 0 0 1-9.358 7.943 12.093 12.093 0 0 0-2.956 2.18 8.2 8.2 0 0 0-.002 11.559Z"/><path class="cls-2" d="M296.585 414.088v-20.927a26.33 26.33 0 0 0 9.358 7.943 12.088 12.088 0 0 1 2.955 2.18 8.173 8.173 0 1 1-11.558 11.559Z"/><path class="cls-9" d="M296.585 414.088v-20.927a26.33 26.33 0 0 1-9.358 7.943 12.093 12.093 0 0 0-2.956 2.18 8.173 8.173 0 0 0 11.559 11.559Z"/><path d="M191.516 74.944a.734.734 0 0 0 .376.1.745.745 0 0 0 .379-1.386 18.8 18.8 0 0 0-12.719-2.41.743.743 0 0 0-.564.886.756.756 0 0 0 .885.566 17.623 17.623 0 0 1 11.643 2.244Zm-22.356-3.651a.743.743 0 1 0 .733-1.293c-6.092-3.447-10.182-2.1-10.351-2.05a.744.744 0 0 0 .478 1.409c.036-.012 3.68-1.159 9.14 1.934Z"/><ellipse cx="184.806" cy="80.502" rx="2.657" ry="2.99"/><path d="M166.057 76.01A2.676 2.676 0 1 0 163.4 79a2.839 2.839 0 0 0 2.657-2.99Zm5.043 14.122a16.273 16.273 0 0 1-5.676-.521c.463-6.563 5.524-11.513 5.576-11.564a.744.744 0 1 0-1.031-1.072c-.238.23-5.832 5.686-6.06 13.137a.744.744 0 0 0 .454.707 14.782 14.782 0 0 0 5.344.85c.475 0 .976-.017 1.5-.056a.743.743 0 0 0 .688-.794.721.721 0 0 0-.795-.687ZM148.8 177.9a.738.738 0 0 0 .379.525.725.725 0 0 0 .354.09.74.74 0 0 0 .294-.06c.26-.112 25.959-11.516 15.523-38.329a.741.741 0 0 0-.951-.428c-.212.079-20.886 8.107-15.599 38.202Zm15.435-36.52c8.3 22.528-9.809 33.141-14.131 35.3-4.053-25.348 10.679-33.708 14.129-35.298Zm.757 38.394a.744.744 0 0 0 .437 1.345.888.888 0 0 0 .115-.007c.46-.072 11.338-1.859 15.917-10.579 3.143-5.991 2.484-13.7-1.965-22.92a.743.743 0 0 0-1.412.349c.007.218.589 21.874-13.092 31.812Zm14.508-28.483c2.992 7.419 3.211 13.645.646 18.541-2.76 5.264-8.2 7.831-11.674 8.983 8.863-8.356 10.681-21.388 11.028-27.524Zm-39.206 20.859a.723.723 0 0 0 .257-.046.74.74 0 0 0 .474-.832c-3.637-19.58 10.785-31.948 10.931-32.071a.743.743 0 0 0-.636-1.295c-7.5 1.632-12.461 5.083-14.762 10.259-4.5 10.127 2.779 23.066 3.091 23.61a.742.742 0 0 0 .645.375Zm-2.378-23.379c1.823-4.1 5.546-7.028 11.085-8.725-3.595 3.912-10.711 13.423-10 26.781-1.789-4.556-3.787-11.98-1.085-18.056ZM250.05 141.6c8.089-4.467 10.665-14.327 10.772-14.746a.745.745 0 0 0-.791-.922c-21.246 1.978-26.118 14.994-26.315 15.549a.745.745 0 0 0 .034.578.736.736 0 0 0 .437.378 24.261 24.261 0 0 0 7.473 1.276 17.087 17.087 0 0 0 8.39-2.113Zm-14.614-.332c1.308-2.644 7-11.821 23.622-13.738-.882 2.6-3.69 9.438-9.735 12.772-3.953 2.186-8.623 2.508-13.887.969Zm27.296.991a.742.742 0 0 0-.9.077 34.606 34.606 0 0 1-23.648 9.286.774.774 0 0 0-.771.537.748.748 0 0 0 .372.865 21.722 21.722 0 0 0 9.916 2.757 13.862 13.862 0 0 0 5.408-1.068c7.2-3.011 9.826-11.259 9.934-11.607a.743.743 0 0 0-.311-.847Zm-10.205 11.087c-3.254 1.358-6.979 1.247-11.108-.315a36.4 36.4 0 0 0 18.984-7.557c-1.334 2.558-3.838 6.187-7.876 7.872Zm-2.939-37.469a.745.745 0 0 0-.513-.761c-.441-.142-10.871-3.435-16.974 1.117-2.885 2.152-4.293 5.672-4.183 10.46a.743.743 0 0 0 .523.692.673.673 0 0 0 .22.034.743.743 0 0 0 .6-.307c.059-.083 6.073-8.207 19.708-10.555a.743.743 0 0 0 .619-.68Zm-20.123 8.739c.28-3.237 1.461-5.65 3.522-7.187a12.831 12.831 0 0 1 7.678-2.094 27.5 27.5 0 0 1 4.786.452 33.682 33.682 0 0 0-15.986 8.829Zm-99.104 300.442a.745.745 0 0 0-.756 1.283 19.3 19.3 0 0 0 9.789 2.67 14.406 14.406 0 0 0 2.93-.26.744.744 0 0 0-.324-1.451 17.672 17.672 0 0 1-11.639-2.242Zm22.355 3.65a.743.743 0 1 0-.733 1.293 16.232 16.232 0 0 0 7.974 2.353 7.956 7.956 0 0 0 2.377-.3.744.744 0 0 0-.478-1.409c-.037.007-3.679 1.155-9.14-1.937Zm-15.647-6.219a3.01 3.01 0 1 0-2.657-2.99 2.839 2.839 0 0 0 2.657 2.99Zm18.75 1.502a2.676 2.676 0 1 0 2.657-2.99 2.839 2.839 0 0 0-2.657 2.99Z"/><path d="M275.644 31.975a4.723 4.723 0 0 0-.753-3.779 4.793 4.793 0 0 0-4.115-1.44.751.751 0 0 0-.493.212l-7.373 7.275c-.84-.7-6.393-5.051-11.264-2.108a6.033 6.033 0 0 0-2.727 2.672 7.744 7.744 0 0 0-.509 1.431c-1.075.152-3.24.652-4.047 2.266a7.908 7.908 0 0 0-.582 2.838 9.5 9.5 0 0 0-3.235 5.2 3.728 3.728 0 0 0-.058.705 10.377 10.377 0 0 0-1.778 1.316 4.354 4.354 0 0 0-1.319 3.42 21.228 21.228 0 0 0 .611 4.28 3.363 3.363 0 0 0 .98 1.589l-17.038 16.81a24.94 24.94 0 0 1-.1-1.315 23.116 23.116 0 0 1 .353-4.168 19.413 19.413 0 0 0 .263-5.564 23.176 23.176 0 0 0-1.5-5.495c-1.972-4.834-5.327-8.274-9.448-9.688a14.771 14.771 0 0 0-3.323-.71c-.659-3.175-2.878-5.719-6.611-7.557a18.894 18.894 0 0 0-10.449-1.515l-.426.048a6.957 6.957 0 0 1-2.969-.046 6.913 6.913 0 0 1-1.855-1.13 24.981 24.981 0 0 0-.689-.511 11.658 11.658 0 0 0-8.5-1.942 22.294 22.294 0 0 0-2.786.7c-.729.218-1.458.436-2.2.586a29.423 29.423 0 0 1-3.021.38c-2.658.239-5.406.487-7.343 2.462-1.528 1.556-1.986 3.658-2.429 5.689a12.06 12.06 0 0 1-1.59 4.488 11.6 11.6 0 0 1-2.94 2.6 19.579 19.579 0 0 0-2.333 1.833 11.457 11.457 0 0 0-3.193 9.5c.4 3.627 2.915 7.509 4.946 9.734a.73.73 0 0 0 .306.193 47.721 47.721 0 0 0-.193 20.094 8.107 8.107 0 0 1-1.465.041 5.505 5.505 0 0 1-3.874-1.591.744.744 0 0 0-1.174.9 13.756 13.756 0 0 0 7.747 5.915 73.838 73.838 0 0 0 1.713 5.332 15.7 15.7 0 0 0 17.3 10.133c.7-.115 1.379-.245 2.05-.386.19 2.1.409 5.942-.036 7.627a38.433 38.433 0 0 1-1.565-.419.757.757 0 0 0-.84.3 20.936 20.936 0 0 0-3.357 7.837.723.723 0 0 0 .022.3 32.141 32.141 0 0 0-1.992-.539c-9.7-2.217-20.3-.1-27.667 5.539a30.353 30.353 0 0 0-9.907 13.331c-2.334 6.135-1.571 12.639-.508 19.321a17.688 17.688 0 0 0 .442 1.984c-.008.007-.018.01-.026.018L74.231 224.9a11.165 11.165 0 0 0-2.261.586c-3.376 1.322-14.435 9.565-14.9 9.916a.78.78 0 0 0-.154.155c-.057.077-5.682 7.731-8.27 12.046-2.107 3.512-2.9 5.872-2.352 7.02a1.285 1.285 0 0 0 1.007.741l.31.051c.122.021.251.041.381.06-.312.493-.649 1-.879 1.288a2.821 2.821 0 0 0-.489 2.786 1.765 1.765 0 0 0 1.7.884c.081 0 .166 0 .254-.01a10.7 10.7 0 0 0 3.484-.985 9.755 9.755 0 0 0 3.936.869 7.651 7.651 0 0 0 3.918-1.046c.129-.076.27-.168.406-.253a4.171 4.171 0 0 0 2 .454 8.076 8.076 0 0 0 2.984-.649 96.875 96.875 0 0 0 9.482-5.173c1.6-.942 2.974-1.755 3.4-1.942.173-.077.453-.181.815-.314 2.435-.9 8.137-3.012 10.5-7.221a.75.75 0 0 0 .071-.216 11.992 11.992 0 0 0 1.864.579.69.69 0 0 0 .144.015.791.791 0 0 0 .222-.034c6.683-2.1 8.373-6.154 8.44-6.326a.74.74 0 0 0-.171-.809c-.193-.187-.373-.373-.555-.559a196.851 196.851 0 0 0 25.309-5.691 9.31 9.31 0 0 0 .192.939l-8.751 17.193H99.931a.743.743 0 0 0-.547 1.246c3.04 3.3 8.646 15.359 9.906 18.112-.374.1-.6.156-.623.163a.747.747 0 0 0-.471.394 21.483 21.483 0 0 0-1.637 4.9c-.01.006-.021 0-.03.011a17.193 17.193 0 0 1-9.2 2.452 2.654 2.654 0 0 1-1.183-.215c-.593-.327-.758-1.056-.959-2.217a6.367 6.367 0 0 0-.873-2.639c-1.354-1.936-4.033-1.738-5.925-1.424-6.264 1.037-12.7 2.579-17.332 6.793a.744.744 0 0 0 .794 1.233 9.837 9.837 0 0 1 2.183-.644 15.879 15.879 0 0 0-1.821 2.4.742.742 0 0 0 1.026 1.021 29.655 29.655 0 0 1 10.545-4.04c1.866-.329 4.343-.395 5.534 1.137a6.5 6.5 0 0 1 .926 2.2 6.646 6.646 0 0 0 1.472 3.012 4.7 4.7 0 0 0 3.487 1.273 10.485 10.485 0 0 0 2.356-.3 23.438 23.438 0 0 0 8.48-3.882c.02.53.056 1.02.1 1.488a.754.754 0 0 0-.219.249c-1.258 2.419-2.685 5.159-4.871 6.994-1.918 1.61-4.956 2.663-7.416 1.385a10.625 10.625 0 0 1-1.061-.659 7.329 7.329 0 0 0-2.17-1.126c-2.258-.595-4.422.831-5.586 2.257a17.565 17.565 0 0 0-1.966 3.263 32.11 32.11 0 0 1-.853 1.61 16.2 16.2 0 0 1-12.008 7.858.743.743 0 0 0 .021 1.479l1.556.128a7.161 7.161 0 0 1-2.489.961.743.743 0 0 0 .054 1.47 19.347 19.347 0 0 0 2.043.108 20.47 20.47 0 0 0 13.558-5.17c.416-.373.831-.77 1.25-1.175 1.888-1.81 3.841-3.681 6.164-3.507a9.176 9.176 0 0 1 2.779.864c1.463.627 2.977 1.266 4.621.8a6.512 6.512 0 0 0 2.354-1.417 30.875 30.875 0 0 0 6.7-8c-1.2 4.7-4.035 12.384-10.677 21.622-9.759 13.567-11.026 24.089-11.18 27.124-6.088-1.148-11.166-1.3-15.474-.447a19.6 19.6 0 0 0-13.128 9.659A25.1 25.1 0 0 0 55 359.328c-12.3 26.161-6.348 56.969-5.876 59.27-.8.278-1.311.473-1.413.511a.745.745 0 0 0-.472.618c-.521 5.016 1.829 12.736 1.929 13.06a.738.738 0 0 0 .469.484.7.7 0 0 0 .242.042.751.751 0 0 0 .425-.134c.124-.086.253-.167.38-.251-3.272 17.2-.7 24.888 1.859 25.846a5.544 5.544 0 0 1 1.609.979l-7.73 7.93a.729.729 0 0 0-.19.343 4.721 4.721 0 0 0 .754 3.779 4.577 4.577 0 0 0 3.732 1.448c.125 0 .254 0 .383-.007a.757.757 0 0 0 .493-.213l7.373-7.274c.629.526 3.925 3.122 7.6 3.122a6.974 6.974 0 0 0 3.668-1.014 6.038 6.038 0 0 0 2.726-2.673 7.817 7.817 0 0 0 .509-1.431c1.075-.151 3.24-.651 4.048-2.266a7.931 7.931 0 0 0 .581-2.838 9.481 9.481 0 0 0 3.232-5.2 3.561 3.561 0 0 0 .06-.705 10.516 10.516 0 0 0 1.779-1.319 4.35 4.35 0 0 0 1.319-3.42 21.228 21.228 0 0 0-.611-4.28 3.4 3.4 0 0 0-.974-1.595l17.031-16.805c.045.443.083.883.1 1.316a23.039 23.039 0 0 1-.354 4.169 19.415 19.415 0 0 0-.263 5.565 23.149 23.149 0 0 0 1.5 5.493c1.969 4.834 5.324 8.274 9.446 9.688a14.746 14.746 0 0 0 3.323.708c.659 3.176 2.878 5.721 6.611 7.559a18.85 18.85 0 0 0 10.45 1.515l.424-.048a6.937 6.937 0 0 1 2.972.048 6.86 6.86 0 0 1 1.853 1.128c.229.175.458.347.69.511a11.649 11.649 0 0 0 6.662 2.09 11.39 11.39 0 0 0 1.834-.148 22.294 22.294 0 0 0 2.786-.7c.729-.218 1.458-.436 2.2-.586a29.493 29.493 0 0 1 3.021-.38c2.658-.239 5.406-.487 7.345-2.462 1.527-1.556 1.985-3.657 2.427-5.688a12.059 12.059 0 0 1 1.59-4.489 11.636 11.636 0 0 1 2.94-2.595 19.413 19.413 0 0 0 2.331-1.832 11.437 11.437 0 0 0 3.2-9.5c-.4-3.626-2.914-7.511-4.945-9.736a.711.711 0 0 0-.306-.194 47.723 47.723 0 0 0 .192-20.094 8.1 8.1 0 0 1 1.465-.04 5.521 5.521 0 0 1 3.876 1.593.743.743 0 0 0 1.174-.9 13.757 13.757 0 0 0-7.748-5.917 73.261 73.261 0 0 0-1.714-5.33 15.723 15.723 0 0 0-17.3-10.136c-.7.115-1.378.246-2.049.386-.19-2.1-.409-5.941.036-7.625.958.239 1.526.408 1.565.42a.741.741 0 0 0 .84-.3 20.951 20.951 0 0 0 3.356-7.839.723.723 0 0 0-.022-.3c.654.195 1.313.383 1.993.539a34.723 34.723 0 0 0 7.745.869 33.05 33.05 0 0 0 19.922-6.408A30.347 30.347 0 0 0 191 352.359c2.332-6.13 1.572-12.637.509-19.321a17.657 17.657 0 0 0-.442-1.985c.008-.007.018-.009.025-.016l56.571-55.952a11.138 11.138 0 0 0 2.244-.569c3.376-1.322 14.436-9.564 14.9-9.916a.8.8 0 0 0 .154-.154c.057-.078 5.683-7.732 8.27-12.046 2.1-3.511 2.9-5.873 2.352-7.018a1.287 1.287 0 0 0-1.007-.743l-.31-.051a11.158 11.158 0 0 0-.38-.063c.3-.478.638-.987.877-1.286a2.818 2.818 0 0 0 .488-2.786 1.821 1.821 0 0 0-1.948-.874 10.787 10.787 0 0 0-3.483.986 8.671 8.671 0 0 0-7.856.176c-.129.076-.27.167-.406.253-.751-.4-2.343-.863-4.983.195a96.4 96.4 0 0 0-9.487 5.178c-1.594.939-2.969 1.75-3.391 1.937-.173.077-.454.181-.816.314-2.435.9-8.138 3.012-10.506 7.222a.7.7 0 0 0-.07.216 12.226 12.226 0 0 0-1.865-.58.737.737 0 0 0-.367.02c-6.681 2.1-8.37 6.153-8.438 6.325a.739.739 0 0 0 .172.809c.192.187.372.373.554.559a196.83 196.83 0 0 0-25.3 5.691 9.343 9.343 0 0 0-.2-.937l8.752-17.194h16.33a.742.742 0 0 0 .546-1.247c-3.04-3.294-8.646-15.358-9.905-18.112.38-.1.6-.156.624-.162a.747.747 0 0 0 .47-.4 21.434 21.434 0 0 0 1.637-4.9c.01-.006.021-.006.03-.011a16.951 16.951 0 0 1 9.2-2.452 2.666 2.666 0 0 1 1.185.215c.592.327.756 1.056.957 2.217a6.38 6.38 0 0 0 .872 2.639 4.369 4.369 0 0 0 3.806 1.624 13.112 13.112 0 0 0 2.122-.2c6.266-1.039 12.7-2.583 17.33-6.8a.743.743 0 0 0-.794-1.232 9.9 9.9 0 0 1-2.182.643 15.873 15.873 0 0 0 1.82-2.4.743.743 0 0 0-1.026-1.021 29.6 29.6 0 0 1-10.544 4.04c-1.864.329-4.342.4-5.534-1.138a6.483 6.483 0 0 1-.927-2.2 6.651 6.651 0 0 0-1.472-3.012c-1.244-1.254-3.207-1.59-5.843-.975a23.5 23.5 0 0 0-8.479 3.881 27.464 27.464 0 0 0-.1-1.5.736.736 0 0 0 .221-.233c1.259-2.419 2.686-5.159 4.872-6.994 1.915-1.61 4.95-2.66 7.416-1.385a10.336 10.336 0 0 1 1.058.659 7.334 7.334 0 0 0 2.171 1.126c2.258.6 4.424-.833 5.587-2.254a17.591 17.591 0 0 0 1.971-3.273c.273-.54.546-1.082.847-1.6a16.208 16.208 0 0 1 12.01-7.859.743.743 0 0 0-.024-1.479l-1.555-.128a7.161 7.161 0 0 1 2.489-.961.742.742 0 0 0-.053-1.469 20.4 20.4 0 0 0-15.6 5.061c-.417.373-.832.773-1.252 1.175-1.887 1.81-3.876 3.647-6.162 3.507a9.176 9.176 0 0 1-2.779-.864c-1.463-.624-2.975-1.264-4.623-.8a6.516 6.516 0 0 0-2.351 1.409 30.909 30.909 0 0 0-6.7 8c1.205-4.7 4.036-12.383 10.677-21.617 9.762-13.574 11.027-24.1 11.181-27.13a51.788 51.788 0 0 0 9.513 1 30.534 30.534 0 0 0 5.961-.55 19.589 19.589 0 0 0 13.127-9.659 25.1 25.1 0 0 0 3.14-11.266c12.3-26.161 6.346-56.97 5.876-59.27.8-.277 1.311-.472 1.413-.511a.744.744 0 0 0 .472-.617c.521-5.017-1.83-12.737-1.93-13.061a.74.74 0 0 0-.469-.484.722.722 0 0 0-.667.092c-.124.086-.252.167-.379.251 3.272-17.2.7-24.887-1.858-25.846a5.574 5.574 0 0 1-1.609-.979l7.728-7.929a.737.737 0 0 0 .189-.333Zm-25.926 5.238a.736.736 0 0 0 .068-.331 6.5 6.5 0 0 1 .474-1.436 4.612 4.612 0 0 1 2.157-2.038c3.8-2.3 8.461 1.116 9.428 1.887l-.9.887c-.013.012-.016.029-.028.042l-.538-.01c-1.277-.03-2.6-.061-3.907 0a2.6 2.6 0 0 0-2.274 1.135 3.073 3.073 0 0 0-.046 2.583 35.665 35.665 0 0 0-.266 5.234 1.064 1.064 0 0 1-.571 1.152 1.449 1.449 0 0 1-1.593-.445A9.194 9.194 0 0 1 250 41.9a11.874 11.874 0 0 1-.282-4.687Zm-4.025 1.956a3.572 3.572 0 0 1 2.46-1.372 13.825 13.825 0 0 0 .406 4.452 12.387 12.387 0 0 0 1.52 3.92 16.911 16.911 0 0 1 .56 3.666 1.884 1.884 0 0 1-.839 1.782 1.182 1.182 0 0 1-1.257-.063 6.936 6.936 0 0 1-2.8-4.106c-.56-2.033-.792-6.795-.05-8.279Zm-3.688 7.662a7.429 7.429 0 0 1 1.753-3.38 21.272 21.272 0 0 0 .553 4.394 8.617 8.617 0 0 0 2.58 4.275 5.864 5.864 0 0 1-.052 3.046.925.925 0 0 1-.869.7 2.1 2.1 0 0 1-1.959-.866l-.011-.014a2.4 2.4 0 0 1-.246-.4 23.673 23.673 0 0 1-1.765-7 2.547 2.547 0 0 1 .016-.755Zm-3.128 5.074a2.877 2.877 0 0 1 .855-2.264 8.025 8.025 0 0 1 .925-.738 23.3 23.3 0 0 0 1.752 6.323 3.721 3.721 0 0 0 .191.338c-.341 1.426-1.081 1.565-1.335 1.606a1.725 1.725 0 0 1-1.83-1.307 19.686 19.686 0 0 1-.558-3.958Zm-16.6 24.213a.749.749 0 0 0 .524-.213l17.553-17.32a2.976 2.976 0 0 0 .68.089 3.056 3.056 0 0 0 .465-.037 2.918 2.918 0 0 0 2.257-1.856 3.51 3.51 0 0 0 1.923.59 3.373 3.373 0 0 0 .53-.043 2.427 2.427 0 0 0 2.057-1.753 7.357 7.357 0 0 0 .27-2.413 2.629 2.629 0 0 0 .686.1 2.679 2.679 0 0 0 1.3-.341 3.376 3.376 0 0 0 1.6-3.13 16.956 16.956 0 0 0-.2-2.067 2.87 2.87 0 0 0 .944.179 2.633 2.633 0 0 0 1.036-.211 2.5 2.5 0 0 0 1.47-2.583c0-.025-.034-1.813.088-3.492a7.548 7.548 0 0 0 4.518 1.044A13.818 13.818 0 0 0 261.014 45l-37.2 38.166a24.7 24.7 0 0 0-.76-3.191 28.886 28.886 0 0 1-.918-3.89.755.755 0 0 0 .145.033ZM251.5 83.8a.734.734 0 0 0 .464.4 12.364 12.364 0 0 0 1.832.382c-.6 2.862-3.812 17.238-9.636 25.309a28.128 28.128 0 0 0-13.259.848c-1.694.519-6.985 2.449-9.459 6.746-2.394-4.092-5.127-4.678-5.271-4.7a.766.766 0 0 0-.748.3c-.217.308-.452.591-.68.883a34.657 34.657 0 0 1-2.153-8.312.736.736 0 0 0 .492.014c.342-.128 8.4-3.283 10.513-15.5a13.071 13.071 0 0 0 .448-5.131.571.571 0 0 0 .072-.049l21.758-22.322a19.662 19.662 0 0 0 6.053 9.123h-.518a.661.661 0 0 0-.716.474c-2.017 5.211.691 11.277.808 11.535ZM150.34 63.133a10.1 10.1 0 0 1 2.747-8.263 18.011 18.011 0 0 1 2.158-1.687 12.919 12.919 0 0 0 3.3-2.953 13.34 13.34 0 0 0 1.829-5.028c.416-1.91.809-3.713 2.036-4.965 1.555-1.583 3.915-1.8 6.416-2.024a29.52 29.52 0 0 0 3.18-.4c.789-.157 1.561-.387 2.334-.617a20.59 20.59 0 0 1 2.6-.659 10.128 10.128 0 0 1 7.405 1.7c.217.152.43.312.644.474a8.05 8.05 0 0 0 2.282 1.356 8.105 8.105 0 0 0 3.619.114l.416-.049a17.459 17.459 0 0 1 9.625 1.376c3.142 1.547 5.051 3.616 5.714 6.146a20.529 20.529 0 0 0-4.383.46.744.744 0 0 0-.574.881.752.752 0 0 0 .882.576 15.778 15.778 0 0 1 8.47.276c3.707 1.271 6.744 4.411 8.551 8.841a21.634 21.634 0 0 1 1.4 5.141 18.069 18.069 0 0 1-.262 5.142 24.517 24.517 0 0 0-.369 4.435 27.106 27.106 0 0 0 1.271 7.016c1.774 5.761.579 9.211.533 9.37-1.566 8.989-6.389 12.717-8.551 13.966 0-.671-.05-1.148-.054-1.179a.744.744 0 0 0-.568-.649.726.726 0 0 0-.8.327 9.154 9.154 0 0 1-3.985 3.445 21.526 21.526 0 0 0-2.261-6.832.741.741 0 0 0-.608-.391.712.712 0 0 0-.652.309 5 5 0 0 1-3.294 1.8c4.829-11.492.719-25.1-3.25-28.612a26.464 26.464 0 0 1-5.57-6.942c-4.323-9.676 2.112-14.1 2.389-14.286a.744.744 0 0 0-.654-1.322c-.065.022-6.6 2.247-11.87.017-1.13-.476-2.15-.963-3.114-1.423-3.9-1.866-6.988-3.343-12.429-1.854a.742.742 0 0 0-.522.912.735.735 0 0 0 .914.521 12.868 12.868 0 0 1 5.295-.439 44 44 0 0 0-18.046 24.437c-1.918-2.242-3.876-5.588-4.194-8.464Zm.71 31.55a9.511 9.511 0 0 0 1.328.162 16.249 16.249 0 0 0 5.26-.8c1.145-.3 1.9-.544 2.483-.733a4.013 4.013 0 0 1 1.836-.364 6.066 6.066 0 0 1 3.743 1.8.723.723 0 0 0 .665.179 7.586 7.586 0 0 1 4.918.318 6.882 6.882 0 0 1 2.432 1.994 12.169 12.169 0 0 0 .915.976c1.959 1.823 5.055 2.489 9.23 2.005a10.274 10.274 0 0 1-8.141 1.321c-3.466-.842-6.464-2.973-9.744-5.466a.749.749 0 0 0-.45-.15.737.737 0 0 0-.374.1 12.14 12.14 0 0 1-14.1-1.338Zm22.876 17.9a14.218 14.218 0 0 1-15.662-9.175 73.356 73.356 0 0 1-1.443-4.432 13.81 13.81 0 0 0 8.643-1.426c3.266 2.467 6.3 4.559 9.905 5.435a12.926 12.926 0 0 0 3.022.356 9.781 9.781 0 0 0 8.183-3.784.743.743 0 0 0-.751-1.157c-4.829.939-8.252.513-10.18-1.279a11.29 11.29 0 0 1-.808-.864 8.26 8.26 0 0 0-2.934-2.367 8.9 8.9 0 0 0-5.483-.5 7.29 7.29 0 0 0-4.385-1.935 5.634 5.634 0 0 0-2.375.436c-.557.184-1.289.423-2.39.71-.741.19-1.347.338-1.884.456-5.808-30.457 17.091-44.202 19.256-45.421a33.02 33.02 0 0 1 4.042 1.722c.984.47 2.025.969 3.178 1.453a18.3 18.3 0 0 0 10.237.7c-1.905 2.435-4.018 7.107-.869 14.152a27.319 27.319 0 0 0 5.929 7.422c3.814 3.38 7.706 16.919 2.369 28.021a.745.745 0 0 0 .646 1.065 7.985 7.985 0 0 0 4.93-1.651 15.854 15.854 0 0 1 1.656 6.2.746.746 0 0 0 .743.768.87.87 0 0 0 .175-.02 9.861 9.861 0 0 0 3.409-1.8 34.153 34.153 0 0 0 2.6 9.55c-10 10.859-28.758 8.038-36.054 6.413.553-2.168.21-6.636.053-8.308a32.564 32.564 0 0 0 11.4-5.015.744.744 0 1 0-.871-1.206 33.483 33.483 0 0 1-14.287 5.48Zm-2.033 16.633a19.534 19.534 0 0 1 2.83-6.763c4.195 1.193 29.951 7.7 41.589-8.057 1 .438 3.546 2.009 5.326 7.1-1.191 1.816-9.639 12.753-40.267 12.853a.737.737 0 0 0-.686.47 27.3 27.3 0 0 0-9.073-5.127.739.739 0 0 0 .281-.477Zm-39.627 18.954a29.251 29.251 0 0 1 9.423-12.677 31.52 31.52 0 0 1 19-6.1 33.267 33.267 0 0 1 7.428.83 25.55 25.55 0 0 1 14.952 9.267c8.6 11.327 7.353 29.272-2.784 40.006a25.025 25.025 0 0 1-10.468 6.577 19.768 19.768 0 0 1-5.209.987h-.008c-7.956.453-15.908-3.529-21.582-6.871a30.444 30.444 0 0 1-7.708-5.9.758.758 0 0 0-.09-.108 14.541 14.541 0 0 1-3.378-7.453c-1.036-6.473-1.778-12.765.424-18.558Zm-.939 22.347a16.048 16.048 0 0 0 2.475 4.274 91.49 91.49 0 0 0-.958 1.874l-42.02 41.783c-8.03-.568-9.747 4.792-9.774 4.885-.124.506-.214.994-.31 1.486a29.733 29.733 0 0 0-4.169-.145Zm-37.72 48.572a.745.745 0 0 0-.506-.358c-.139-.025-.26-.034-.395-.057l38.239-38.023a97.759 97.759 0 0 0-6.115 17.07 31.519 31.519 0 0 0-13.257 9c-4.869 5.631-15.1 11.982-18.119 13.8a7.288 7.288 0 0 1 .212-.815.741.741 0 0 0-.059-.617ZM88.2 243.431c-2.1 3.735-7.445 5.712-9.726 6.557-.4.148-.712.264-.9.349-.5.223-1.78.976-3.549 2.019a96.959 96.959 0 0 1-9.279 5.076 5.849 5.849 0 0 1-2.879.507 108.907 108.907 0 0 0 8.58-7.4.744.744 0 0 0-1.029-1.075c-.067.065-6.765 6.463-10.259 8.509a6.815 6.815 0 0 1-5.3.528 27.077 27.077 0 0 0 2.949-1.99c3.216-2.484 7.9-8.54 8.1-8.8a.745.745 0 0 0-1.179-.911c-.047.064-4.763 6.164-7.828 8.531-2.774 2.143-5.486 3.457-7.441 3.6-.345.009-.5-.039-.523-.088a1.509 1.509 0 0 1 .334-1.162 27.352 27.352 0 0 0 1.557-2.366 6.492 6.492 0 0 0 2.1-1.289c2.086-1.786 7.294-10.213 7.514-10.572a.743.743 0 1 0-1.266-.779c-1.469 2.382-5.63 8.862-7.216 10.223a4.518 4.518 0 0 1-1.8 1.069h-.019a2.914 2.914 0 0 1-1.279-.033l-.232.031c0-.009-.406-1.128 2.286-5.614 2.4-4 7.491-10.97 8.127-11.84 1.07-.8 11.429-8.465 14.468-9.656 2.623-1.027 6.743-.707 7.977-.58-.683 4.748-.019 8.776 2.027 11.984a14.351 14.351 0 0 0 5.742 5.09.745.745 0 0 0-.057.082Zm3.341-.405a13.513 13.513 0 0 1-7.772-5.551c-2.232-3.5-2.662-8.138-1.285-13.747.056-.182 1.281-3.859 7.112-3.859a16.489 16.489 0 0 1 2.436.191c-.521 2.356-1.237 9.256 5.456 16.759l.027.028c.356.4.717.8 1.116 1.2-.595.987-2.492 3.481-7.089 4.979Zm33.407-14.95a6.779 6.779 0 0 0-.2 1.513 193.548 193.548 0 0 1-26.453 5.9c-4.609-5.344-5.234-10.255-5.07-13.137a.69.69 0 0 0 .114-.031c.547-.314 13.476-7.817 19.362-14.624a30.2 30.2 0 0 1 12.962-8.678.739.739 0 0 0 .522-.547c2.182-9.494 7.1-19.439 8.67-22.48a33.632 33.632 0 0 0 7.406 5.478c5.544 3.263 13.2 7.122 21.081 7.122.078 0 .156-.008.234-.008-3.653 9.834-12.385 23.632-16.069 29.249a15.287 15.287 0 0 1-2.909 3.285 7.994 7.994 0 0 0-14.011 5.4c-.013-.012-.023-.027-.036-.039a3.162 3.162 0 0 0-5.6 1.593Zm3.375 8.783a3.271 3.271 0 0 0 1.478.382 2.709 2.709 0 0 0 .724-.1c-.083 2.211.069 7.746 3.395 10.466a6.988 6.988 0 0 0 4.564 1.518 12.631 12.631 0 0 0 3.319-.5 33.419 33.419 0 0 0 1.849 3.121c-3.621 1.878-6.982 2.143-9.993.749a11.061 11.061 0 0 1-6.051-9.145 14 14 0 0 1 .716-6.491Zm-1.814-4.9a7.794 7.794 0 0 1-.286-1.712.7.7 0 0 0-.009-.214 5.6 5.6 0 0 1 .169-1.569 2.171 2.171 0 0 1 1.245-1.6 1.311 1.311 0 0 1 .348-.046 2.511 2.511 0 0 1 1.556.758 6.693 6.693 0 0 1 1.732 3.035c.67 2.358.147 4.743-1.119 5.1-1.107.319-2.894-1.143-3.635-3.753Zm5.529 4.128a5.828 5.828 0 0 0 .977-3.97 8.028 8.028 0 0 0 4.838 2.227 35.889 35.889 0 0 0 3.282 12.921c-2.664.675-4.775.412-6.27-.808-3.5-2.861-2.809-10.026-2.8-10.1a.75.75 0 0 0-.026-.271Zm5.083-16.05a6.508 6.508 0 0 1 7.8 4.89 6.477 6.477 0 0 1-.828 4.912c-.073.115-.153.222-.232.331 0 .01-.014.017-.018.027a6.507 6.507 0 1 1-6.722-10.16Zm2.226 14.3a7.888 7.888 0 0 0 5.18-2.62c1.611 2.119 6.257 9.038 7.955 20.3v.717h-6.292a30.596 30.596 0 0 1-.794-1.076v-.011c-.006-.009-.015-.014-.02-.023a34.78 34.78 0 0 1-6.028-17.29Zm-29.954 35.783c3.43-.889 33.195-8.129 66.038-1.552a.731.731 0 0 0 .264 0c.294.407.549.74.735.972a7.976 7.976 0 0 0-.023 8.138 16.779 16.779 0 0 0-2.871 3.1c-9.018-2.039-37.981-7.129-65.5 3.619a24.16 24.16 0 0 1 1.357-14.277Zm84.16-6.978a3.012 3.012 0 0 0-2.2-.283c.083-2.211-.069-7.744-3.395-10.464-1.939-1.585-4.6-1.917-7.882-1.015a33.269 33.269 0 0 0-1.851-3.124c3.623-1.878 6.986-2.145 10-.751a11.21 11.21 0 0 1 6.05 9.148 14.007 14.007 0 0 1-.722 6.489Zm1.813 4.9a7.694 7.694 0 0 1 .284 1.717.676.676 0 0 0 0 .119c.051 1.639-.472 3-1.4 3.264-1.11.308-2.9-1.14-3.637-3.747-.67-2.358-.147-4.743 1.119-5.1a1.259 1.259 0 0 1 .341-.048c1.212 0 2.68 1.646 3.293 3.796Zm-5.529-4.126a5.83 5.83 0 0 0-.977 3.975 8.047 8.047 0 0 0-4.839-2.227 35.858 35.858 0 0 0-3.283-12.928c2.668-.674 4.779-.407 6.271.808 3.505 2.861 2.808 10.026 2.8 10.1a.721.721 0 0 0 .028.273Zm-1.024 13.16a6.509 6.509 0 1 1-11.03-6.913c.072-.116.152-.223.231-.332 0-.009.013-.017.018-.026a6.466 6.466 0 0 1 3.809-2.531 6.546 6.546 0 0 1 1.435-.163h.034a6.508 6.508 0 0 1 5.5 9.965Zm-6.285-11.406a7.828 7.828 0 0 0-1.019.157 7.922 7.922 0 0 0-4.161 2.459c-1.611-2.119-6.256-9.038-7.955-20.3v-.714h6.291c.278.358.541.719.8 1.08l.006.008a34.776 34.776 0 0 1 6.038 17.311Zm-76.482 12.7c-.008.006-.019.007-.026.014a22 22 0 0 1-8.793 4.285c-1.444.331-3.385.5-4.45-.574a5.47 5.47 0 0 1-1.1-2.38 7.757 7.757 0 0 0-1.181-2.7c-1.3-1.677-3.709-2.258-6.965-1.689a31.3 31.3 0 0 0-7.767 2.449c.244-.232.495-.457.754-.672a.743.743 0 0 0-.451-1.315 9.709 9.709 0 0 0-1.155.022c4-2.418 8.907-3.515 13.725-4.311 2.381-.395 3.8-.138 4.464.808a5.151 5.151 0 0 1 .624 2.038c.208 1.206.445 2.571 1.7 3.268a3.97 3.97 0 0 0 1.87.4 18.982 18.982 0 0 0 8.943-2.079c-.104.846-.167 1.66-.192 2.439Zm-5.106 18.593a5.153 5.153 0 0 1-1.8 1.116c-1.142.332-2.352-.189-3.631-.735a10.365 10.365 0 0 0-3.249-.979c-2.995-.242-5.283 1.974-7.308 3.917-.407.392-.81.78-1.215 1.143a18.969 18.969 0 0 1-10.962 4.718 8.557 8.557 0 0 0 1.232-1.055.739.739 0 0 0 .161-.777.717.717 0 0 0-.115-.2 17.726 17.726 0 0 0 9.232-7.666c.317-.55.605-1.116.892-1.685a16.109 16.109 0 0 1 1.79-2.993c.883-1.082 2.475-2.2 4.048-1.76a6.1 6.1 0 0 1 1.726.923 12.581 12.581 0 0 0 1.208.746c3.077 1.59 6.762.36 9.056-1.57a19.853 19.853 0 0 0 4.457-5.972c.158.86.3 1.4.328 1.48a.741.741 0 0 0 .388.465.731.731 0 0 0 .327.074.715.715 0 0 0 .277-.053c.557-.224 1.117-.43 1.675-.641 0 .052-.01.107-.016.171a.726.726 0 0 0-.459.407 29.338 29.338 0 0 1-8.042 10.929Zm-1.811 15.626c11.382-15.827 11.828-26.982 11.841-27.449a.765.765 0 0 0-.039-.23c25.853-9.226 52.482-4.831 61.707-2.809-4.767 7.314-12.632 20.074-15.953 29.4a21.1 21.1 0 0 0-5.106 1.021 26.46 26.46 0 0 0-11.072 6.965c-10.614 11.237-11.909 30.047-2.885 41.928a24.629 24.629 0 0 0 2.475 2.758c-25.666.163-35.99 7.716-39.618 11.629-2.4-1.9-12.526-11.41-12.272-36.082-.002-.12-.184-11.688 10.922-27.128ZM59.431 348.8a17.872 17.872 0 0 1 12.124-8.938c4.182-.822 9.155-.658 15.168.5-.084 24.867 10 34.429 12.787 36.588a8.259 8.259 0 0 0-.749 1.135.744.744 0 0 0-.044.574 22.545 22.545 0 0 0 .877 2.224c-1.513 3.54-5.635 5.91-9.054 6.955a26.534 26.534 0 0 1-12.946.732c-.019 0-.038-.007-.057-.011a24.164 24.164 0 0 1-6.029-2.052c-6.289-3.135-11.428-9.557-13.747-17.18-2.217-7.29-1.608-14.773 1.67-20.527Zm38.4 66.164a.571.571 0 0 0-.072.049L76 437.335a19.642 19.642 0 0 0-6.055-9.127c.321 0 .508 0 .522.006a.884.884 0 0 0 .717-.474c2.015-5.215-.694-11.281-.81-11.538a.74.74 0 0 0-.464-.4 12.336 12.336 0 0 0-1.832-.384c.6-2.868 3.815-17.239 9.636-25.308a26.946 26.946 0 0 0 4.811.436 28.927 28.927 0 0 0 8.449-1.283c1.693-.519 6.984-2.449 9.458-6.746 2.394 4.092 5.128 4.678 5.272 4.705a.816.816 0 0 0 .139.012.75.75 0 0 0 .609-.314c.217-.309.452-.592.681-.884a34.675 34.675 0 0 1 2.152 8.314.7.7 0 0 0-.493-.013c-.342.128-8.394 3.28-10.511 15.5a13.077 13.077 0 0 0-.447 5.125Zm-42.78-52.059a31.68 31.68 0 0 0 1.288 6.852c2.435 8.008 7.858 14.764 14.5 18.078a25.558 25.558 0 0 0 5.29 1.931c-5.945 8.644-9.034 22.98-9.544 25.506-5.436-.283-12.265 1.615-16.047 2.847-.604-3.06-5.651-30.642 4.513-55.214Zm-4.736 68.488c-.584-2.128-1.875-7.347-1.635-11.056 2.384-.867 14-4.881 20.472-3.208.479 1.208 2.06 5.692.817 9.591h-.14c-2.689-.002-12.512.315-19.514 4.673Zm.443 40.374a3.285 3.285 0 0 1-2.62-.9 3.085 3.085 0 0 1-.493-2.309l7.584-7.781c.152.158.3.314.459.477.486.513.972 1.027 1.5 1.482a3.5 3.5 0 0 0 1.763.949Zm7.4-10.155a19.5 19.5 0 0 1-1.391-1.383 37.84 37.84 0 0 0-.887-.909.775.775 0 0 0-.112-.163.718.718 0 0 0-.218-.14 7.555 7.555 0 0 0-2.488-1.637c-1.4-.525-4.207-7.347-.831-24.668a.731.731 0 0 0-.168-.614c5.45-2.978 12.474-3.687 16.065-3.846a.727.727 0 0 0 .267.589 18.117 18.117 0 0 1 6.279 9.3.738.738 0 0 0 .2.354l-14.78 15.16a29.12 29.12 0 0 0-.567-.9 10.055 10.055 0 0 0 2.94-9.712.756.756 0 0 0-.929-.494.744.744 0 0 0-.492.93 8.77 8.77 0 0 1-2.985 8.62.746.746 0 0 0-.112.971c.661.964 2.424 3.777 2.64 5.18a.759.759 0 0 0 .829.625c1.091-.145 4.1-.128 4.864 1.6a1.878 1.878 0 0 1 .118 1.421c-.183.3-.683.39-1.07.409-1.252.065-2.547.036-3.8 0-.639-.014-1.278-.031-1.916-.034a1.85 1.85 0 0 1-1.454-.659Zm14 1.178a.731.731 0 0 0-.066.323 6.515 6.515 0 0 1-.474 1.442 4.622 4.622 0 0 1-2.157 2.038c-3.8 2.311-8.46-1.114-9.429-1.886l.9-.888c.012-.012.017-.029.028-.042.18 0 .359.006.538.011.732.017 1.477.036 2.226.036.56 0 1.121-.012 1.682-.039a2.6 2.6 0 0 0 2.273-1.133 3.082 3.082 0 0 0 .045-2.586 35.5 35.5 0 0 0 .266-5.233 1.063 1.063 0 0 1 .572-1.152 1.456 1.456 0 0 1 1.593.445 9.2 9.2 0 0 1 1.717 3.98 11.865 11.865 0 0 1 .285 4.684Zm4.025-1.956a3.571 3.571 0 0 1-2.46 1.37 13.817 13.817 0 0 0-.406-4.451 12.345 12.345 0 0 0-1.52-3.921 16.828 16.828 0 0 1-.558-3.666 1.884 1.884 0 0 1 .837-1.782 1.189 1.189 0 0 1 1.257.063 6.934 6.934 0 0 1 2.8 4.108c.559 2.031.792 6.793.049 8.279Zm3.687-7.664a7.417 7.417 0 0 1-1.751 3.38 21.24 21.24 0 0 0-.554-4.392 8.624 8.624 0 0 0-2.578-4.276 5.846 5.846 0 0 1 .051-3.049.92.92 0 0 1 .871-.69 2.068 2.068 0 0 1 1.958.859l.009.011a2.45 2.45 0 0 1 .249.4 23.66 23.66 0 0 1 1.763 7 2.433 2.433 0 0 1-.019.757ZM83 448.1a2.874 2.874 0 0 1-.853 2.261 8.063 8.063 0 0 1-.928.741 23.275 23.275 0 0 0-1.751-6.321c-.056-.118-.126-.224-.192-.334.34-1.432 1.082-1.571 1.336-1.612a1.751 1.751 0 0 1 1.83 1.307A19.7 19.7 0 0 1 83 448.1Zm16.071-24-17.538 17.3a2.872 2.872 0 0 0-1.159-.037 2.919 2.919 0 0 0-2.261 1.865 3.441 3.441 0 0 0-2.448-.553 2.416 2.416 0 0 0-2.059 1.748 7.385 7.385 0 0 0-.27 2.426 2.613 2.613 0 0 0-1.986.237 3.373 3.373 0 0 0-1.6 3.127 17.073 17.073 0 0 0 .2 2.061 2.766 2.766 0 0 0-1.979.038A2.5 2.5 0 0 0 66.5 454.9c0 .025.035 1.816-.088 3.494a7.7 7.7 0 0 0-4.518-1.046A13.809 13.809 0 0 0 60.861 455l37.2-38.166a24.573 24.573 0 0 0 .761 3.193 29.027 29.027 0 0 1 .917 3.887.737.737 0 0 0-.669.186Zm72.465 12.774a10.084 10.084 0 0 1-2.747 8.26 17.989 17.989 0 0 1-2.158 1.687 12.939 12.939 0 0 0-3.3 2.954 13.364 13.364 0 0 0-1.831 5.025c-.415 1.91-.807 3.714-2.035 4.965-1.556 1.583-3.916 1.8-6.416 2.024a30.117 30.117 0 0 0-3.181.4c-.789.157-1.561.388-2.334.617a20.59 20.59 0 0 1-2.6.659 10.112 10.112 0 0 1-7.4-1.695 18.189 18.189 0 0 1-.646-.477 6.3 6.3 0 0 0-5.9-1.467l-.414.049a17.511 17.511 0 0 1-9.627-1.376c-3.142-1.545-5.051-3.616-5.714-6.148a20.793 20.793 0 0 0 4.383-.455.744.744 0 0 0 .574-.881.755.755 0 0 0-.881-.577 15.8 15.8 0 0 1-8.471-.278c-3.709-1.271-6.745-4.411-8.55-8.841a21.643 21.643 0 0 1-1.405-5.139 18.086 18.086 0 0 1 .262-5.144 24.419 24.419 0 0 0 .369-4.435 26.974 26.974 0 0 0-1.271-7.013c-1.773-5.764-.578-9.213-.532-9.374 1.568-8.988 6.39-12.716 8.55-13.965 0 .671.05 1.147.054 1.176a.742.742 0 0 0 1.367.325 9.16 9.16 0 0 1 3.985-3.445 21.572 21.572 0 0 0 2.262 6.832.744.744 0 0 0 .608.392.768.768 0 0 0 .652-.313 5 5 0 0 1 3.292-1.8c-4.828 11.491-.718 25.1 3.25 28.611a26.4 26.4 0 0 1 5.572 6.943c4.322 9.676-2.112 14.1-2.388 14.285a.744.744 0 0 0-.255.949.731.731 0 0 0 .909.372c.066-.024 6.594-2.241 11.868-.016 1.13.477 2.15.963 3.115 1.423 2.786 1.331 5.154 2.464 8.259 2.464a15.713 15.713 0 0 0 4.169-.607.743.743 0 0 0 .522-.913.731.731 0 0 0-.914-.52 12.877 12.877 0 0 1-5.291.437 44.008 44.008 0 0 0 18.043-24.438c1.919 2.24 3.877 5.588 4.195 8.465Zm-.709-31.55a9.076 9.076 0 0 0-1.328-.165 16.254 16.254 0 0 0-5.261.8c-1.144.3-1.9.545-2.482.733a4.181 4.181 0 0 1-1.837.363 6.033 6.033 0 0 1-3.741-1.8.747.747 0 0 0-.5-.2.737.737 0 0 0-.162.017 7.6 7.6 0 0 1-4.917-.317 6.872 6.872 0 0 1-2.433-2 12.856 12.856 0 0 0-.914-.974c-1.96-1.825-5.065-2.486-9.23-2a10.247 10.247 0 0 1 8.141-1.322c3.467.842 6.464 2.973 9.744 5.466a.746.746 0 0 0 .824.049 12.134 12.134 0 0 1 14.1 1.341Zm-22.877-17.9a14.215 14.215 0 0 1 15.662 9.177 73.004 73.004 0 0 1 1.442 4.43 13.779 13.779 0 0 0-8.641 1.426c-3.266-2.467-6.3-4.558-9.905-5.434-3.733-.9-8.646-.2-11.206 3.427a.742.742 0 0 0 .751 1.157c4.829-.941 8.251-.518 10.181 1.279a11.482 11.482 0 0 1 .807.864 8.262 8.262 0 0 0 2.934 2.367 8.8 8.8 0 0 0 5.482.5 7.27 7.27 0 0 0 4.386 1.935c.093 0 .182.007.269.007a6.206 6.206 0 0 0 2.107-.443 35.47 35.47 0 0 1 2.391-.709c.74-.191 1.346-.339 1.882-.457 5.808 30.448-17.071 44.2-19.252 45.425a32.921 32.921 0 0 1-4.046-1.723c-.983-.47-2.025-.969-3.178-1.453a18.3 18.3 0 0 0-10.236-.7c1.906-2.435 4.017-7.107.87-14.152a27.384 27.384 0 0 0-5.931-7.422c-3.814-3.379-7.706-16.919-2.369-28.02a.744.744 0 0 0-.647-1.065 7.785 7.785 0 0 0-4.928 1.648 15.834 15.834 0 0 1-1.657-6.195.739.739 0 0 0-.274-.6.792.792 0 0 0-.644-.148 9.845 9.845 0 0 0-3.408 1.8 34.164 34.164 0 0 0-2.6-9.552c10-10.861 28.758-8.038 36.054-6.411-.552 2.168-.21 6.636-.053 8.308a32.549 32.549 0 0 0-11.4 5.014.744.744 0 0 0 .871 1.206 33.55 33.55 0 0 1 14.285-5.491Zm2.033-16.633a19.535 19.535 0 0 1-2.828 6.764c-4.2-1.192-29.952-7.7-41.589 8.056-1-.438-3.547-2.007-5.326-7.1 1.191-1.818 9.638-12.755 40.266-12.854a.739.739 0 0 0 .686-.471 27.286 27.286 0 0 0 9.073 5.127.736.736 0 0 0-.283.473Zm39.627-18.955a29.271 29.271 0 0 1-9.421 12.678c-7.022 5.374-17.148 7.393-26.431 5.272a25.551 25.551 0 0 1-14.951-9.266c-8.6-11.328-7.354-29.273 2.783-40.007a25.008 25.008 0 0 1 10.467-6.577c9.569-3.229 19.884 1.809 26.806 5.883a30.453 30.453 0 0 1 7.705 5.892.724.724 0 0 0 .1.117 14.548 14.548 0 0 1 3.374 7.448c1.027 6.473 1.769 12.767-.433 18.555Zm.94-22.348a16.075 16.075 0 0 0-2.475-4.274c.206-.392.537-1.03.958-1.873l42.019-41.781c.405.028.812.059 1.185.059 7.026 0 8.565-4.859 8.59-4.946.124-.506.214-.994.311-1.486a30.14 30.14 0 0 0 3.145.167c.329 0 .68-.014 1.029-.028Zm37.719-48.571a.745.745 0 0 0 .506.358c.139.026.26.034.4.057l-38.239 38.022a97.769 97.769 0 0 0 6.115-17.069 31.531 31.531 0 0 0 13.256-9c4.869-5.633 15.1-11.985 18.119-13.8a7.269 7.269 0 0 1-.212.816.739.739 0 0 0 .054.611Zm5.408-24.342c2.1-3.735 7.443-5.712 9.724-6.557.4-.148.713-.264.905-.349.5-.223 1.775-.976 3.542-2.016a96.851 96.851 0 0 1 9.284-5.079 5.822 5.822 0 0 1 2.882-.508 109.213 109.213 0 0 0-8.582 7.4.744.744 0 0 0 1.029 1.075c.067-.065 6.766-6.464 10.258-8.509a6.815 6.815 0 0 1 5.3-.528 26.806 26.806 0 0 0-2.951 1.99c-3.216 2.484-7.9 8.543-8.095 8.8a.743.743 0 1 0 1.179.905c.047-.06 4.762-6.161 7.827-8.528 2.77-2.14 5.483-3.452 7.442-3.6.342-.008.5.038.522.087a1.506 1.506 0 0 1-.335 1.162 27.44 27.44 0 0 0-1.557 2.368 6.479 6.479 0 0 0-2.1 1.287c-2.086 1.787-7.294 10.216-7.514 10.574a.743.743 0 0 0 1.266.78c1.469-2.382 5.63-8.865 7.216-10.226a4.547 4.547 0 0 1 1.8-1.064l.024-.006a2.941 2.941 0 0 1 1.278.029l.23-.031c0 .009.406 1.125-2.284 5.614-2.4 4-7.491 10.97-8.128 11.84-1.07.8-11.429 8.465-14.468 9.656-2.625 1.025-6.743.705-7.977.579.683-4.746.019-8.775-2.027-11.983a14.34 14.34 0 0 0-5.748-5.092c.012-.035.041-.045.057-.075Zm-3.343.405a13.518 13.518 0 0 1 7.773 5.553c2.232 3.5 2.662 8.136 1.286 13.745-.065.206-1.608 4.861-9.55 3.668.549-2.484 1.332-10.017-6.6-17.984.597-.995 2.493-3.489 7.09-4.987Zm-33.2 13.439a193.355 193.355 0 0 1 26.451-5.9c4.6 5.339 5.232 10.246 5.071 13.129a.609.609 0 0 0-.116.039c-.547.315-13.476 7.817-19.362 14.626a30.2 30.2 0 0 1-12.961 8.676.741.741 0 0 0-.522.547c-2.182 9.494-7.1 19.437-8.67 22.478a33.639 33.639 0 0 0-7.406-5.476c-5.6-3.294-13.359-7.177-21.32-7.1 3.65-9.835 12.388-23.643 16.074-29.263a15.33 15.33 0 0 1 2.906-3.281 8.038 8.038 0 0 0 1.773 1.509 7.929 7.929 0 0 0 4.23 1.222 8.009 8.009 0 0 0 8.011-8.147 3.894 3.894 0 0 0 2.612 1.207 2.742 2.742 0 0 0 .75-.1c1.504-.439 2.398-2.085 2.478-4.171Zm23.266-21.157h-15.147a.725.725 0 0 0-.377.057c-.009 0-.016.01-.025.014a.736.736 0 0 0-.2.134.625.625 0 0 0-.071.09.66.66 0 0 0-.081.1l-8.329 16.362a7.462 7.462 0 0 0-1.386-1.968 14.886 14.886 0 0 0 .959-7.557 12.543 12.543 0 0 0-6.9-10.342c-3.5-1.618-7.362-1.309-11.48.873a31.562 31.562 0 0 0-.736-.963.734.734 0 0 0-.581-.28h-7.396a.742.742 0 0 0-.743.743l.007 1.568a48.948 48.948 0 0 0 6.66 18.8c-29.5-5.643-56.3-.385-63.811 1.361-.916-2.02-5.873-12.813-9.283-17.517h15.191c.014 0 .027.01.041.01a.693.693 0 0 0 .116-.033.716.716 0 0 0 .212-.058.814.814 0 0 0 .11-.074.727.727 0 0 0 .183-.2c.011-.019.032-.026.042-.046l8.335-16.375a7.467 7.467 0 0 0 1.382 1.98 14.863 14.863 0 0 0-.962 7.559 12.539 12.539 0 0 0 6.905 10.341 10.967 10.967 0 0 0 4.657 1.034 14.6 14.6 0 0 0 6.827-1.9c.236.319.477.637.729.953a.741.741 0 0 0 .582.281h7.4a.743.743 0 0 0 .743-.743l-.007-1.571a48.932 48.932 0 0 0-6.662-18.8 148.467 148.467 0 0 0 27.808 2.552 165.292 165.292 0 0 0 36-3.909c.916 2.027 5.873 12.821 9.288 17.524Zm-7.913-19.381c-3.43.886-33.2 8.134-66.038 1.552a.749.749 0 0 0-.263 0 22.91 22.91 0 0 0-.736-.974 7.968 7.968 0 0 0 .022-8.137 16.756 16.756 0 0 0 2.872-3.1c9.015 2.042 37.969 7.133 65.5-3.619a24.171 24.171 0 0 1-1.361 14.278Zm3.347-8.254c.008 0 .018-.007.026-.013a21.986 21.986 0 0 1 8.792-4.285c1.444-.331 3.384-.5 4.45.574a5.479 5.479 0 0 1 1.1 2.382 7.727 7.727 0 0 0 1.181 2.7c1.3 1.672 3.71 2.253 6.964 1.689a31.089 31.089 0 0 0 7.767-2.449 14.15 14.15 0 0 1-.753.672.743.743 0 0 0 .451 1.315 11.412 11.412 0 0 0 1.154-.022c-3.994 2.416-8.905 3.515-13.722 4.314-2.39.39-3.8.133-4.467-.811a5.161 5.161 0 0 1-.624-2.038c-.209-1.206-.443-2.571-1.7-3.268a3.979 3.979 0 0 0-1.871-.4 18.805 18.805 0 0 0-8.943 2.077c.104-.844.166-1.658.191-2.437Zm5.1-18.592a5.252 5.252 0 0 1 1.8-1.116c1.146-.322 2.352.2 3.634.736a10.37 10.37 0 0 0 3.247.978c2.977.254 5.281-1.97 7.306-3.915.408-.392.812-.779 1.217-1.145a18.99 18.99 0 0 1 10.96-4.718 8.556 8.556 0 0 0-1.231 1.056.736.736 0 0 0-.1.784.6.6 0 0 0 .1.174 17.756 17.756 0 0 0-9.286 7.691c-.315.545-.6 1.109-.887 1.673a16.168 16.168 0 0 1-1.794 3c-.882 1.077-2.477 2.183-4.049 1.76a6.117 6.117 0 0 1-1.727-.922 11.9 11.9 0 0 0-1.205-.746c-3.075-1.6-6.764-.361-9.057 1.568a19.9 19.9 0 0 0-4.457 5.973c-.158-.86-.3-1.4-.327-1.48a.738.738 0 0 0-.389-.464.728.728 0 0 0-.6-.022c-.558.224-1.117.431-1.676.642 0-.053.01-.109.016-.174a.723.723 0 0 0 .459-.405 29.37 29.37 0 0 1 8.047-10.928Zm1.812-15.624c-11.382 15.825-11.829 26.98-11.842 27.447a.766.766 0 0 0 .039.231c-25.864 9.236-52.483 4.835-61.706 2.809 4.764-7.31 12.623-20.06 15.947-29.382a21.177 21.177 0 0 0 5.111-1.037 26.476 26.476 0 0 0 11.073-6.965c10.614-11.24 11.909-30.047 2.886-41.928a24.836 24.836 0 0 0-2.476-2.759c25.668-.162 35.992-7.715 39.62-11.627 2.4 1.906 12.524 11.413 12.27 36.081.003.119.156 11.727-10.921 27.13Zm39.7-36.208a17.887 17.887 0 0 1-12.123 8.938c-4.181.825-9.153.658-15.17-.5.086-24.864-10-34.428-12.785-36.588a8.369 8.369 0 0 0 .749-1.134.746.746 0 0 0 .043-.573 22.361 22.361 0 0 0-.878-2.227c1.514-3.538 5.635-5.909 9.054-6.955a26.493 26.493 0 0 1 12.908-.742c.021.007.042.007.064.012a24.2 24.2 0 0 1 6.061 2.061c6.289 3.135 11.427 9.557 13.747 17.18 2.216 7.289 1.608 14.772-1.671 20.525Zm4.38-14.107a31.631 31.631 0 0 0-1.288-6.852c-2.435-8.008-7.859-14.764-14.506-18.078a25.553 25.553 0 0 0-5.289-1.932c5.945-8.643 9.032-22.975 9.543-25.5.366.019.738.03 1.116.03 5.225 0 11.4-1.729 14.931-2.878.609 3.058 5.667 30.628-4.508 55.214Zm4.735-68.488c.585 2.128 1.876 7.348 1.637 11.056-2.385.869-14 4.869-20.474 3.208-.48-1.206-2.064-5.682-.816-9.591 2.448-.063 12.521-.235 19.652-4.673Zm-2.747-25.987c1.4.526 4.206 7.347.83 24.668a.731.731 0 0 0 .168.614c-5.45 2.979-12.476 3.685-16.066 3.843a.725.725 0 0 0-.267-.586 18.12 18.12 0 0 1-6.279-9.3.73.73 0 0 0-.2-.353l14.781-15.164c.214.351.411.661.568.9a10.057 10.057 0 0 0-2.941 9.712.743.743 0 0 0 1.422-.433c-.057-.189-1.337-4.68 2.984-8.623a.746.746 0 0 0 .112-.971c-.661-.963-2.423-3.776-2.64-5.18a.771.771 0 0 0-.829-.625c-1.1.145-4.1.124-4.864-1.6a1.878 1.878 0 0 1-.118-1.421c.184-.3.684-.39 1.071-.409 1.253-.06 2.547-.034 3.8 0 .639.015 1.278.032 1.916.034a1.837 1.837 0 0 1 1.456.654c.489.424.94.9 1.391 1.38.29.307.587.614.892.914a.737.737 0 0 0 .109.161.761.761 0 0 0 .218.141 7.544 7.544 0 0 0 2.485 1.644Zm5.418-11.177-7.584 7.782c-.153-.159-.307-.315-.461-.478-.485-.513-.972-1.027-1.5-1.482a3.492 3.492 0 0 0-1.762-.948l8.19-8.084a3.531 3.531 0 0 1 2.62.9 3.1 3.1 0 0 1 .496 2.31Z"/><path d="M150.773 409.87a16.347 16.347 0 0 1 5.678.52c-.464 6.563-5.525 11.513-5.577 11.564a.744.744 0 0 0 1.032 1.073c.237-.231 5.831-5.687 6.059-13.138a.744.744 0 0 0-.454-.707 15.6 15.6 0 0 0-6.847-.794.743.743 0 0 0-.688.794.709.709 0 0 0 .797.688Zm22.304-87.77a.744.744 0 0 0-1.027-.554c-.26.111-25.959 11.515-15.522 38.328a.745.745 0 0 0 .694.475.725.725 0 0 0 .257-.047c.21-.078 20.884-8.102 15.598-38.202Zm-15.434 36.52c-8.305-22.528 9.808-33.141 14.13-35.3 4.053 25.349-10.679 33.709-14.13 35.299Zm-.759-38.392a.745.745 0 0 0 .25-.886.764.764 0 0 0-.8-.453c-.46.072-11.338 1.859-15.916 10.579-3.144 5.991-2.485 13.7 1.964 22.922a.738.738 0 0 0 .669.421.723.723 0 0 0 .178-.022.742.742 0 0 0 .565-.747c-.009-.218-.594-21.875 13.09-31.814Zm-14.51 28.483c-2.992-7.42-3.211-13.647-.646-18.541 2.76-5.265 8.2-7.831 11.674-8.984-8.859 8.357-10.679 21.39-11.028 27.525Zm38.95-20.811a.74.74 0 0 0-.474.832c3.638 19.58-10.784 31.948-10.93 32.071a.743.743 0 0 0 .478 1.312.673.673 0 0 0 .159-.017c7.493-1.631 12.459-5.083 14.761-10.259 4.5-10.124-2.78-23.066-3.092-23.61a.741.741 0 0 0-.902-.329Zm2.635 23.334c-1.823 4.1-5.545 7.027-11.083 8.724 3.594-3.912 10.711-13.423 10-26.781 1.788 4.553 3.785 11.978 1.083 18.054ZM71.825 358.4c-8.088 4.466-10.664 14.328-10.77 14.747a.742.742 0 0 0 .721.925.531.531 0 0 0 .069 0c21.246-1.98 26.118-15 26.315-15.551a.744.744 0 0 0-.471-.956c-5.999-1.945-11.334-1.665-15.864.835Zm-9.007 14.072c.881-2.605 3.689-9.441 9.735-12.775a15.631 15.631 0 0 1 7.672-1.919 22.148 22.148 0 0 1 6.211.953c-1.319 2.645-7.046 11.825-23.618 13.74Zm-3.673-14.729a.751.751 0 0 0 .4.116.739.739 0 0 0 .5-.194 34.629 34.629 0 0 1 23.649-9.286.725.725 0 0 0 .771-.537.75.75 0 0 0-.373-.865c-5.73-2.972-10.888-3.543-15.325-1.689-7.2 3.011-9.825 11.259-9.933 11.607a.746.746 0 0 0 .311.848Zm10.2-11.088a12.424 12.424 0 0 1 4.825-.944 17.8 17.8 0 0 1 6.283 1.259 36.38 36.38 0 0 0-18.984 7.558c1.338-2.559 3.841-6.187 7.88-7.873Zm2.943 37.469a.745.745 0 0 0 .513.761 30.184 30.184 0 0 0 8.376 1.285 14.324 14.324 0 0 0 8.6-2.4c2.884-2.153 4.292-5.67 4.182-10.458a.744.744 0 0 0-1.346-.419c-.059.082-6.073 8.2-19.708 10.552a.745.745 0 0 0-.617.679Zm20.123-8.736c-.28 3.236-1.46 5.647-3.521 7.187-3.557 2.651-9.028 2.259-12.465 1.639a33.693 33.693 0 0 0 15.986-8.826Z"/></svg>