<svg id="Layer_1" data-name="Layer 1" xmlns="http://www.w3.org/2000/svg" viewBox="0 0 321.875 500"><defs><style>.cls-2{fill:none}.cls-3{fill:#d90000}.cls-4{fill:#a50404}</style></defs><path style="fill:#fff" d="M0 0h321.875v500H0z"/><path d="M268.453 481.248H45.383a26.66 26.66 0 0 1-26.63-26.63V125.1a1.25 1.25 0 0 1 2.5 0v329.52a24.157 24.157 0 0 0 24.13 24.13h223.07a1.25 1.25 0 0 1 0 2.5Zm33.42-105.091a1.249 1.249 0 0 1-1.25-1.25V45.388a24.162 24.162 0 0 0-24.13-24.14H53.423a1.25 1.25 0 0 1 0-2.5h223.07a26.665 26.665 0 0 1 26.63 26.64v329.519a1.25 1.25 0 0 1-1.25 1.25Z"/><path class="cls-2" d="M37.6 85.157a8.2 8.2 0 0 0-11.559 0l-.755.755-.755-.755a8.173 8.173 0 0 0-11.554 11.559 12.107 12.107 0 0 0 2.955 2.18 26.322 26.322 0 0 1 9.358 7.943 26.339 26.339 0 0 1 9.358-7.939 12.093 12.093 0 0 0 2.956-2.18 8.2 8.2 0 0 0-.004-11.563Z"/><path class="cls-3" d="M25.29 85.912v20.927a26.33 26.33 0 0 0-9.358-7.939 12.107 12.107 0 0 1-2.955-2.18 8.173 8.173 0 0 1 11.558-11.563Z"/><path class="cls-4" d="M25.29 85.912v20.927a26.33 26.33 0 0 1 9.358-7.939 12.093 12.093 0 0 0 2.956-2.18 8.173 8.173 0 0 0-11.559-11.563Z"/><path d="m23.96 70.653-3.876-2.5 12.748-19.291a15.42 15.42 0 0 1-4.81.843 12.763 12.763 0 0 1-9.534-4.051 13.8 13.8 0 0 1-3.913-9.978 14.376 14.376 0 0 1 1.89-7.334 13.925 13.925 0 0 1 5.365-5.221 14.946 14.946 0 0 1 7.446-1.954 14.332 14.332 0 0 1 7.223 1.89 13.53 13.53 0 0 1 5.2 5.285 14.651 14.651 0 0 1 1.89 7.238 17.716 17.716 0 0 1-1.169 6.1 37.927 37.927 0 0 1-4.18 7.671Zm5.146-25.079a9.871 9.871 0 0 0 9.908-9.9 9.9 9.9 0 0 0-9.93-9.9 9.9 9.9 0 0 0-9.9 9.9 9.906 9.906 0 0 0 9.919 9.9Z"/><path class="cls-2" d="M284.271 414.843a8.2 8.2 0 0 0 11.559 0l.755-.755.755.755a8.173 8.173 0 1 0 11.56-11.559 12.088 12.088 0 0 0-2.955-2.18 26.33 26.33 0 0 1-9.358-7.943 26.33 26.33 0 0 1-9.358 7.943 12.093 12.093 0 0 0-2.956 2.18 8.2 8.2 0 0 0-.002 11.559Z"/><path class="cls-3" d="M296.585 414.088v-20.927a26.33 26.33 0 0 0 9.358 7.943 12.088 12.088 0 0 1 2.955 2.18 8.173 8.173 0 1 1-11.558 11.559Z"/><path class="cls-4" d="M296.585 414.088v-20.927a26.33 26.33 0 0 1-9.358 7.943 12.093 12.093 0 0 0-2.956 2.18 8.173 8.173 0 0 0 11.559 11.559Z"/><path d="m297.916 429.347 3.875 2.5-12.748 19.293a15.42 15.42 0 0 1 4.81-.843 12.763 12.763 0 0 1 9.534 4.051 13.8 13.8 0 0 1 3.913 9.978 14.387 14.387 0 0 1-1.889 7.334 13.946 13.946 0 0 1-5.365 5.221 14.952 14.952 0 0 1-7.447 1.954 14.335 14.335 0 0 1-7.223-1.89 13.536 13.536 0 0 1-5.2-5.285 14.651 14.651 0 0 1-1.89-7.238 17.716 17.716 0 0 1 1.169-6.1 37.927 37.927 0 0 1 4.18-7.671Zm-5.147 25.079a9.906 9.906 0 1 0 7.015 2.9 9.539 9.539 0 0 0-7.015-2.9Z"/><path class="cls-3" d="M91.49 78.568v45.072c-6.127-8.969-15.335-14.6-20.154-17.108a26.052 26.052 0 0 1-6.366-4.695 17.6 17.6 0 1 1 24.895-24.9Z"/><path class="cls-4" d="M91.49 78.568v45.072c6.128-8.969 15.335-14.6 20.155-17.108a26.071 26.071 0 0 0 6.366-4.695 17.6 17.6 0 1 0-24.895-24.9Z"/><path class="cls-3" d="M91.49 130.4v45.07c-6.127-8.969-15.335-14.6-20.154-17.108a26.052 26.052 0 0 1-6.366-4.695 17.6 17.6 0 1 1 24.895-24.9Z"/><path class="cls-4" d="M91.49 130.4v45.07c6.128-8.969 15.335-14.6 20.155-17.108a26.071 26.071 0 0 0 6.366-4.695 17.6 17.6 0 1 0-24.895-24.9Z"/><path class="cls-3" d="M91.49 182.228V227.3c-6.127-8.969-15.335-14.6-20.154-17.108a26.078 26.078 0 0 1-6.366-4.7A17.6 17.6 0 1 1 89.865 180.6Z"/><path class="cls-4" d="M91.49 182.228V227.3c6.128-8.969 15.335-14.6 20.155-17.108a26.1 26.1 0 0 0 6.366-4.7A17.6 17.6 0 1 0 93.116 180.6Z"/><path class="cls-3" d="M230.385 78.568v45.072c-6.128-8.969-15.335-14.6-20.155-17.108a26.071 26.071 0 0 1-6.366-4.695 17.6 17.6 0 1 1 24.895-24.9Z"/><path class="cls-4" d="M230.385 78.568v45.072c6.127-8.969 15.335-14.6 20.154-17.108a26.033 26.033 0 0 0 6.366-4.695 17.6 17.6 0 0 0-24.895-24.9Z"/><path class="cls-3" d="M230.385 130.4v45.07c-6.128-8.969-15.335-14.6-20.155-17.108a26.071 26.071 0 0 1-6.366-4.695 17.6 17.6 0 1 1 24.895-24.9Z"/><path class="cls-4" d="M230.385 130.4v45.07c6.127-8.969 15.335-14.6 20.154-17.108a26.033 26.033 0 0 0 6.366-4.695 17.6 17.6 0 1 0-24.895-24.9Z"/><path class="cls-3" d="M230.385 182.228V227.3c-6.128-8.969-15.335-14.6-20.155-17.108a26.1 26.1 0 0 1-6.366-4.7 17.6 17.6 0 0 1 24.895-24.892Z"/><path class="cls-4" d="M230.385 182.228V227.3c6.127-8.969 15.335-14.6 20.154-17.108a26.059 26.059 0 0 0 6.366-4.7A17.6 17.6 0 0 0 232.01 180.6Z"/><path class="cls-3" d="M230.385 421.432V376.36c6.127 8.969 15.335 14.6 20.154 17.108a26.033 26.033 0 0 1 6.366 4.695 17.6 17.6 0 0 1-24.895 24.895Z"/><path class="cls-4" d="M230.385 421.432V376.36c-6.128 8.969-15.335 14.6-20.155 17.108a26.071 26.071 0 0 0-6.366 4.695 17.6 17.6 0 0 0 24.895 24.895Z"/><path class="cls-3" d="M230.385 369.6v-45.07c6.127 8.969 15.335 14.6 20.154 17.108a26.008 26.008 0 0 1 6.366 4.7 17.6 17.6 0 0 1-24.895 24.895Z"/><path class="cls-4" d="M230.385 369.6v-45.07c-6.128 8.969-15.335 14.6-20.155 17.108a26.045 26.045 0 0 0-6.366 4.7 17.6 17.6 0 0 0 24.895 24.895Z"/><path class="cls-3" d="M230.385 317.772V272.7c6.127 8.969 15.335 14.6 20.154 17.108a26.059 26.059 0 0 1 6.361 4.692 17.6 17.6 0 0 1-24.89 24.9Z"/><path class="cls-4" d="M230.385 317.772V272.7c-6.128 8.969-15.335 14.6-20.155 17.108a26.1 26.1 0 0 0-6.366 4.695 17.6 17.6 0 0 0 24.895 24.897Z"/><path class="cls-3" d="M91.49 421.432V376.36c6.128 8.969 15.335 14.6 20.155 17.108a26.071 26.071 0 0 1 6.366 4.695 17.6 17.6 0 1 1-24.895 24.895Z"/><path class="cls-4" d="M91.49 421.432V376.36c-6.127 8.969-15.335 14.6-20.154 17.108a26.052 26.052 0 0 0-6.366 4.695 17.6 17.6 0 1 0 24.895 24.895Z"/><path class="cls-3" d="M91.49 369.6v-45.07c6.128 8.969 15.335 14.6 20.155 17.108a26.045 26.045 0 0 1 6.366 4.7 17.6 17.6 0 1 1-24.895 24.895Z"/><path class="cls-4" d="M91.49 369.6v-45.07c-6.127 8.969-15.335 14.6-20.154 17.108a26.026 26.026 0 0 0-6.366 4.7 17.6 17.6 0 1 0 24.895 24.895Z"/><path class="cls-3" d="M91.49 317.772V272.7c6.128 8.969 15.335 14.6 20.155 17.108a26.1 26.1 0 0 1 6.366 4.695A17.6 17.6 0 1 1 93.116 319.4Z"/><path class="cls-4" d="M91.49 317.772V272.7c-6.127 8.969-15.335 14.6-20.154 17.108a26.078 26.078 0 0 0-6.366 4.692 17.6 17.6 0 1 0 24.895 24.9Z"/><path class="cls-3" d="M160.938 52.652v45.073c-6.128-8.969-15.336-14.6-20.155-17.108a26.078 26.078 0 0 1-6.366-4.7 17.6 17.6 0 0 1 24.9-24.895Z"/><path class="cls-4" d="M160.938 52.652v45.073c6.127-8.969 15.335-14.6 20.154-17.108a26.078 26.078 0 0 0 6.366-4.7 17.6 17.6 0 0 0-24.9-24.895Z"/><path class="cls-3" d="M160.938 104.483v45.072c-6.128-8.969-15.336-14.6-20.155-17.108a26.052 26.052 0 0 1-6.366-4.7 17.6 17.6 0 0 1 24.9-24.895Z"/><path class="cls-4" d="M160.938 104.483v45.072c6.127-8.969 15.335-14.6 20.154-17.108a26.052 26.052 0 0 0 6.366-4.7 17.6 17.6 0 0 0-24.9-24.895Z"/><path class="cls-3" d="M160.938 156.313v45.073c-6.128-8.969-15.336-14.6-20.155-17.109a26.048 26.048 0 0 1-6.366-4.694 17.6 17.6 0 0 1 24.9-24.9Z"/><path class="cls-4" d="M160.938 156.313v45.073c6.127-8.969 15.335-14.6 20.154-17.109a26.048 26.048 0 0 0 6.366-4.694 17.6 17.6 0 0 0-24.9-24.9Z"/><path class="cls-3" d="M160.938 447.348v-45.073c6.127 8.969 15.335 14.6 20.154 17.108a26.078 26.078 0 0 1 6.366 4.695 17.6 17.6 0 0 1-24.9 24.9Z"/><path class="cls-4" d="M160.938 447.348v-45.073c-6.128 8.969-15.336 14.6-20.155 17.108a26.078 26.078 0 0 0-6.366 4.695 17.6 17.6 0 0 0 24.9 24.9Z"/><path class="cls-3" d="M160.938 395.517v-45.072c6.127 8.969 15.335 14.6 20.154 17.108a26.052 26.052 0 0 1 6.366 4.695 17.6 17.6 0 0 1-24.9 24.895Z"/><path class="cls-4" d="M160.938 395.517v-45.072c-6.128 8.969-15.336 14.6-20.155 17.108a26.052 26.052 0 0 0-6.366 4.695 17.6 17.6 0 0 0 24.9 24.895Z"/><path class="cls-3" d="M160.938 343.687v-45.073c6.127 8.969 15.335 14.6 20.154 17.109a26.048 26.048 0 0 1 6.366 4.694 17.6 17.6 0 1 1-24.9 24.9Z"/><path class="cls-4" d="M160.938 343.687v-45.073c-6.128 8.969-15.336 14.6-20.155 17.109a26.048 26.048 0 0 0-6.366 4.694 17.6 17.6 0 1 0 24.9 24.9Z"/></svg>