<svg id="Layer_1" data-name="Layer 1" xmlns="http://www.w3.org/2000/svg" viewBox="0 0 321.875 500"><defs><style>.cls-2{fill:none}.cls-3{fill:#d90000}.cls-4{fill:#a50404}</style></defs><path style="fill:#fff" d="M0 0h321.875v500H0z"/><path d="M268.453 481.248H45.383a26.66 26.66 0 0 1-26.63-26.63V125.1a1.25 1.25 0 0 1 2.5 0v329.52a24.157 24.157 0 0 0 24.13 24.13h223.07a1.25 1.25 0 0 1 0 2.5Zm33.42-105.091a1.249 1.249 0 0 1-1.25-1.25V45.388a24.162 24.162 0 0 0-24.13-24.14H53.423a1.25 1.25 0 0 1 0-2.5h223.07a26.665 26.665 0 0 1 26.63 26.64v329.519a1.25 1.25 0 0 1-1.25 1.25Z"/><path class="cls-2" d="M37.6 85.157a8.2 8.2 0 0 0-11.559 0l-.755.755-.755-.755a8.173 8.173 0 0 0-11.554 11.559 12.107 12.107 0 0 0 2.955 2.18 26.322 26.322 0 0 1 9.358 7.943 26.339 26.339 0 0 1 9.358-7.939 12.093 12.093 0 0 0 2.956-2.18 8.2 8.2 0 0 0-.004-11.563Z"/><path class="cls-3" d="M25.29 85.912v20.927a26.33 26.33 0 0 0-9.358-7.939 12.107 12.107 0 0 1-2.955-2.18 8.173 8.173 0 0 1 11.558-11.563Z"/><path class="cls-4" d="M25.29 85.912v20.927a26.33 26.33 0 0 1 9.358-7.939 12.093 12.093 0 0 0 2.956-2.18 8.173 8.173 0 0 0-11.559-11.563Z"/><path d="M34.131 43.62a17.343 17.343 0 0 1 6.838 5.413 12.027 12.027 0 0 1 2.066 6.918 14.362 14.362 0 0 1-3.555 9.609q-4.356 5.093-12.46 5.093-7.815 0-11.851-4.468a14.382 14.382 0 0 1-4.036-9.849 12.46 12.46 0 0 1 2.114-7.095 17.825 17.825 0 0 1 7.047-5.621 13.3 13.3 0 0 1-5.189-4.452 10.268 10.268 0 0 1-1.729-5.7 11.153 11.153 0 0 1 1.841-6.005 12.845 12.845 0 0 1 5.093-4.613 15.078 15.078 0 0 1 7.031-1.681 14.123 14.123 0 0 1 6.822 1.7 12.724 12.724 0 0 1 4.916 4.613 11.564 11.564 0 0 1 1.778 6.117 9.974 9.974 0 0 1-1.681 5.7 13.913 13.913 0 0 1-5.045 4.321Zm-6.807 2.37a11.335 11.335 0 0 0-8.156 3.155 9.884 9.884 0 0 0-3.294 7.355 9.479 9.479 0 0 0 5.343 8.456 13.049 13.049 0 0 0 5.851 1.244 11.064 11.064 0 0 0 8.189-3.043 9.76 9.76 0 0 0 3.043-7.11 9.424 9.424 0 0 0-3.214-7 10.855 10.855 0 0 0-7.762-3.057ZM27.1 25.747a9.257 9.257 0 0 0-6.432 2.29 7.094 7.094 0 0 0-2.552 5.463 7.621 7.621 0 0 0 2.744 5.686 9.107 9.107 0 0 0 6.4 2.546 8.988 8.988 0 0 0 4.426-1.153 8.431 8.431 0 0 0 3.262-3.155 7.912 7.912 0 0 0 1.169-4.02 7.439 7.439 0 0 0-2.312-5.253Q31.5 25.747 27.1 25.747Z"/><path class="cls-2" d="M284.271 414.843a8.2 8.2 0 0 0 11.559 0l.755-.755.755.755a8.173 8.173 0 1 0 11.56-11.559 12.088 12.088 0 0 0-2.955-2.18 26.33 26.33 0 0 1-9.358-7.943 26.33 26.33 0 0 1-9.358 7.943 12.093 12.093 0 0 0-2.956 2.18 8.2 8.2 0 0 0-.002 11.559Z"/><path class="cls-3" d="M296.585 414.088v-20.927a26.33 26.33 0 0 0 9.358 7.943 12.088 12.088 0 0 1 2.955 2.18 8.173 8.173 0 1 1-11.558 11.559Z"/><path class="cls-4" d="M296.585 414.088v-20.927a26.33 26.33 0 0 1-9.358 7.943 12.093 12.093 0 0 0-2.956 2.18 8.173 8.173 0 0 0 11.559 11.559Z"/><path d="M287.744 456.38a17.343 17.343 0 0 1-6.838-5.413 12.029 12.029 0 0 1-2.066-6.918 14.362 14.362 0 0 1 3.555-9.609q4.356-5.092 12.46-5.093 7.815 0 11.851 4.468a14.382 14.382 0 0 1 4.036 9.849 12.46 12.46 0 0 1-2.114 7.1 17.818 17.818 0 0 1-7.047 5.621 13.3 13.3 0 0 1 5.189 4.452 10.269 10.269 0 0 1 1.73 5.7 11.154 11.154 0 0 1-1.842 6 12.853 12.853 0 0 1-5.093 4.613 15.077 15.077 0 0 1-7.03 1.681 14.124 14.124 0 0 1-6.823-1.7 12.724 12.724 0 0 1-4.916-4.613 11.573 11.573 0 0 1-1.778-6.117 9.975 9.975 0 0 1 1.682-5.7 13.9 13.9 0 0 1 5.044-4.321Zm6.807-2.37a11.339 11.339 0 0 0 8.157-3.155A9.882 9.882 0 0 0 306 443.5a9.479 9.479 0 0 0-5.343-8.456 13.049 13.049 0 0 0-5.851-1.249 11.064 11.064 0 0 0-8.189 3.043 9.76 9.76 0 0 0-3.038 7.111 9.424 9.424 0 0 0 3.214 7 10.855 10.855 0 0 0 7.758 3.061Zm.224 20.243a9.261 9.261 0 0 0 6.432-2.29 7.094 7.094 0 0 0 2.552-5.461 7.621 7.621 0 0 0-2.744-5.686 9.105 9.105 0 0 0-6.4-2.546 8.991 8.991 0 0 0-4.426 1.153 8.421 8.421 0 0 0-3.261 3.155 7.9 7.9 0 0 0-1.17 4.02 7.439 7.439 0 0 0 2.312 5.253q2.306 2.402 6.705 2.402Z"/><path class="cls-3" d="M87.776 46.765V90.52c-5.948-8.707-14.887-14.169-19.565-16.608a25.294 25.294 0 0 1-6.18-4.558A17.089 17.089 0 0 1 86.2 45.187Z"/><path class="cls-4" d="M87.776 46.765V90.52c5.948-8.707 14.887-14.169 19.566-16.608a25.313 25.313 0 0 0 6.18-4.558 17.089 17.089 0 0 0-24.167-24.167Z"/><path class="cls-3" d="M87.776 93.6v43.755c-5.948-8.707-14.887-14.17-19.565-16.609a25.264 25.264 0 0 1-6.18-4.557A17.089 17.089 0 0 1 86.2 92.026Z"/><path class="cls-4" d="M87.776 93.6v43.755c5.948-8.707 14.887-14.17 19.566-16.609a25.283 25.283 0 0 0 6.18-4.557 17.089 17.089 0 0 0-24.167-24.163Z"/><path class="cls-3" d="M87.776 140.442V184.2c-5.948-8.707-14.887-14.169-19.565-16.608a25.316 25.316 0 0 1-6.18-4.557A17.089 17.089 0 1 1 86.2 138.864Z"/><path class="cls-4" d="M87.776 140.442V184.2c5.948-8.707 14.887-14.169 19.566-16.608a25.335 25.335 0 0 0 6.18-4.557 17.089 17.089 0 0 0-24.167-24.168Z"/><path class="cls-3" d="M87.776 187.281v43.755c-5.948-8.707-14.887-14.169-19.565-16.608a25.294 25.294 0 0 1-6.18-4.558A17.089 17.089 0 1 1 86.2 185.7Z"/><path class="cls-4" d="M87.776 187.281v43.755c5.948-8.707 14.887-14.169 19.566-16.608a25.313 25.313 0 0 0 6.18-4.558 17.089 17.089 0 1 0-24.167-24.17Z"/><path class="cls-3" d="M234.1 46.765V90.52c-5.948-8.707-14.887-14.169-19.566-16.608a25.313 25.313 0 0 1-6.18-4.558 17.089 17.089 0 0 1 24.168-24.167Z"/><path class="cls-4" d="M234.1 46.765V90.52c5.948-8.707 14.887-14.169 19.565-16.608a25.275 25.275 0 0 0 6.18-4.558 17.089 17.089 0 0 0-24.167-24.167Z"/><path class="cls-3" d="M234.1 93.6v43.755c-5.948-8.707-14.887-14.17-19.566-16.609a25.283 25.283 0 0 1-6.18-4.557 17.089 17.089 0 0 1 24.168-24.167Z"/><path class="cls-4" d="M234.1 93.6v43.755c5.948-8.707 14.887-14.17 19.565-16.609a25.246 25.246 0 0 0 6.18-4.557 17.089 17.089 0 0 0-24.167-24.167Z"/><path class="cls-3" d="M234.1 140.442V184.2c-5.948-8.707-14.887-14.169-19.566-16.608a25.335 25.335 0 0 1-6.18-4.557 17.089 17.089 0 0 1 24.168-24.168Z"/><path class="cls-4" d="M234.1 140.442V184.2c5.948-8.707 14.887-14.169 19.565-16.608a25.3 25.3 0 0 0 6.18-4.557 17.089 17.089 0 0 0-24.167-24.168Z"/><path class="cls-3" d="M234.1 187.281v43.755c-5.948-8.707-14.887-14.169-19.566-16.608a25.313 25.313 0 0 1-6.18-4.558 17.089 17.089 0 1 1 24.167-24.17Z"/><path class="cls-4" d="M234.1 187.281v43.755c5.948-8.707 14.887-14.169 19.565-16.608a25.275 25.275 0 0 0 6.18-4.558 17.089 17.089 0 0 0-24.168-24.17Z"/><path class="cls-3" d="M234.1 453.235V409.48c5.948 8.707 14.887 14.169 19.565 16.608a25.275 25.275 0 0 1 6.18 4.558 17.089 17.089 0 1 1-24.167 24.167Z"/><path class="cls-4" d="M234.1 453.235V409.48c-5.948 8.707-14.887 14.169-19.566 16.608a25.313 25.313 0 0 0-6.18 4.558 17.089 17.089 0 1 0 24.168 24.167Z"/><path class="cls-3" d="M234.1 406.4v-43.759c5.948 8.707 14.887 14.17 19.565 16.608a25.275 25.275 0 0 1 6.18 4.558 17.089 17.089 0 0 1-24.167 24.167Z"/><path class="cls-4" d="M234.1 406.4v-43.759c-5.948 8.707-14.887 14.17-19.566 16.608a25.313 25.313 0 0 0-6.18 4.558 17.089 17.089 0 0 0 24.168 24.167Z"/><path class="cls-3" d="M234.1 359.558V315.8c5.948 8.707 14.887 14.169 19.565 16.608a25.3 25.3 0 0 1 6.18 4.557 17.089 17.089 0 0 1-24.167 24.168Z"/><path class="cls-4" d="M234.1 359.558V315.8c-5.948 8.707-14.887 14.169-19.566 16.608a25.335 25.335 0 0 0-6.18 4.557 17.089 17.089 0 0 0 24.168 24.168Z"/><path class="cls-3" d="M234.1 312.719v-43.755c5.948 8.707 14.887 14.169 19.565 16.608a25.275 25.275 0 0 1 6.18 4.558 17.089 17.089 0 0 1-24.168 24.17Z"/><path class="cls-4" d="M234.1 312.719v-43.755c-5.948 8.707-14.887 14.169-19.566 16.608a25.313 25.313 0 0 0-6.18 4.558 17.089 17.089 0 0 0 24.167 24.17Z"/><path class="cls-3" d="M87.776 453.235V409.48c5.948 8.707 14.887 14.169 19.566 16.608a25.313 25.313 0 0 1 6.18 4.558 17.089 17.089 0 1 1-24.167 24.167Z"/><path class="cls-4" d="M87.776 453.235V409.48c-5.948 8.707-14.887 14.169-19.565 16.608a25.294 25.294 0 0 0-6.18 4.558A17.089 17.089 0 1 0 86.2 454.813Z"/><path class="cls-3" d="M87.776 406.4v-43.759c5.948 8.707 14.887 14.17 19.566 16.608a25.313 25.313 0 0 1 6.18 4.558 17.089 17.089 0 0 1-24.167 24.167Z"/><path class="cls-4" d="M87.776 406.4v-43.759c-5.948 8.707-14.887 14.17-19.565 16.608a25.294 25.294 0 0 0-6.18 4.558A17.089 17.089 0 0 0 86.2 407.974Z"/><path class="cls-3" d="M87.776 359.558V315.8c5.948 8.707 14.887 14.169 19.566 16.608a25.335 25.335 0 0 1 6.18 4.557 17.089 17.089 0 0 1-24.167 24.168Z"/><path class="cls-4" d="M87.776 359.558V315.8c-5.948 8.707-14.887 14.169-19.565 16.608a25.316 25.316 0 0 0-6.18 4.557A17.089 17.089 0 0 0 86.2 361.136Z"/><path class="cls-3" d="M87.776 312.719v-43.755c5.948 8.707 14.887 14.169 19.566 16.608a25.313 25.313 0 0 1 6.18 4.558 17.089 17.089 0 0 1-24.167 24.17Z"/><path class="cls-4" d="M87.776 312.719v-43.755c-5.948 8.707-14.887 14.169-19.565 16.608a25.294 25.294 0 0 0-6.18 4.558A17.089 17.089 0 1 0 86.2 314.3Z"/></svg>