<svg id="Layer_1" data-name="Layer 1" xmlns="http://www.w3.org/2000/svg" viewBox="0 0 321.875 500"><defs><style>.cls-1{fill:#fff}.cls-2{fill:#036816}.cls-3{fill:#088425}.cls-4{fill:none}.cls-5{fill:#d90000}.cls-6{fill:#a50404}.cls-7{fill:#990419}.cls-8{fill:#2896e8}.cls-9{fill:#007acc}.cls-10{fill:#0267b2}.cls-11{fill:#ffc306}.cls-12{fill:#ffed94}.cls-13{fill:#ef870a}.cls-14{fill:#e26905}</style></defs><path class="cls-1" d="M0 0h321.875v500H0z"/><path d="M268.453 481.248H45.383a26.66 26.66 0 0 1-26.63-26.63V125.1a1.25 1.25 0 0 1 2.5 0v329.52a24.156 24.156 0 0 0 24.13 24.13h223.07a1.25 1.25 0 0 1 0 2.5Zm33.42-105.091a1.249 1.249 0 0 1-1.25-1.25V45.388a24.162 24.162 0 0 0-24.13-24.14H53.423a1.25 1.25 0 0 1 0-2.5h223.07a26.665 26.665 0 0 1 26.63 26.64v329.519a1.25 1.25 0 0 1-1.25 1.25Z"/><path class="cls-2" d="M83.951 314.658c7.547 3.189 11.614 7.9 10.948 10.327s-6.145 2.884-13.608-.614c-7.362-3.452-16.277-10.571-18.907-13.871 3.67-.5 14.121 1.012 21.567 4.158Z"/><path class="cls-2" d="M102.99 333.7c-3.189-7.547-7.9-11.614-10.327-10.948s-2.884 6.145.614 13.608c3.452 7.362 10.572 16.277 13.873 18.906.494-3.672-1.014-14.123-4.16-21.566Z"/><path class="cls-3" d="M82.005 327.368c5.542-5.805 11.35-7.213 13.419-5.144s.661 7.877-5.144 13.419c-5.727 5.466-15.436 10.4-19.434 11.159.764-4.002 5.693-13.702 11.159-19.434Z"/><path class="cls-2" d="M83.951 185.342c7.547-3.19 11.614-7.9 10.948-10.327s-6.145-2.884-13.608.614c-7.362 3.452-16.277 10.571-18.907 13.871 3.67.5 14.121-1.012 21.567-4.158Z"/><path class="cls-2" d="M102.99 166.3c-3.189 7.547-7.9 11.614-10.327 10.948s-2.884-6.145.614-13.608c3.452-7.362 10.572-16.277 13.873-18.907.494 3.673-1.014 14.124-4.16 21.567Z"/><path class="cls-3" d="M82.005 172.632c5.542 5.805 11.35 7.213 13.419 5.144s.661-7.877-5.144-13.419c-5.727-5.466-15.436-10.4-19.434-11.159.764 4.002 5.693 13.707 11.159 19.434Z"/><path class="cls-2" d="M237.925 314.658c-7.548 3.189-11.614 7.9-10.949 10.327s6.146 2.884 13.608-.614c7.362-3.452 16.277-10.572 18.907-13.873-3.67-.498-14.121 1.014-21.566 4.16Z"/><path class="cls-2" d="M218.885 333.7c3.19-7.547 7.9-11.614 10.327-10.948s2.884 6.145-.614 13.608c-3.451 7.362-10.571 16.277-13.873 18.906-.494-3.672 1.014-14.123 4.16-21.566Z"/><path class="cls-3" d="M239.87 327.368c-5.541-5.805-11.35-7.213-13.419-5.144s-.66 7.877 5.144 13.419c5.727 5.466 15.437 10.4 19.434 11.159-.764-4.002-5.693-13.702-11.159-19.434Z"/><path class="cls-2" d="M237.925 185.342c-7.548-3.19-11.614-7.9-10.949-10.327s6.146-2.884 13.608.614c7.362 3.452 16.277 10.572 18.907 13.873-3.67.498-14.121-1.014-21.566-4.16Z"/><path class="cls-2" d="M218.885 166.3c3.19 7.547 7.9 11.614 10.327 10.948s2.884-6.145-.614-13.608c-3.451-7.362-10.571-16.277-13.873-18.907-.494 3.673 1.014 14.124 4.16 21.567Z"/><path class="cls-3" d="M239.87 172.632c-5.541 5.805-11.35 7.213-13.419 5.144s-.66-7.877 5.144-13.419c5.727-5.466 15.437-10.4 19.434-11.159-.764 4.002-5.693 13.707-11.159 19.434Z"/><path class="cls-4" d="M37.6 85.157a8.2 8.2 0 0 0-11.559 0l-.755.755-.754-.755a8.173 8.173 0 0 0-11.555 11.559 12.107 12.107 0 0 0 2.955 2.18 26.322 26.322 0 0 1 9.358 7.943 26.339 26.339 0 0 1 9.358-7.939 12.093 12.093 0 0 0 2.956-2.18 8.2 8.2 0 0 0-.004-11.563Z"/><path class="cls-5" d="M25.29 85.912v20.927a26.33 26.33 0 0 0-9.358-7.939 12.107 12.107 0 0 1-2.955-2.18 8.173 8.173 0 0 1 11.559-11.563Z"/><path class="cls-6" d="M25.29 85.912v20.927a26.339 26.339 0 0 1 9.358-7.939 12.093 12.093 0 0 0 2.956-2.18 8.173 8.173 0 0 0-11.559-11.563Z"/><path class="cls-4" d="M284.271 414.843a8.2 8.2 0 0 0 11.559 0l.755-.755.755.755a8.173 8.173 0 1 0 11.56-11.559 12.088 12.088 0 0 0-2.955-2.18 26.33 26.33 0 0 1-9.358-7.943 26.33 26.33 0 0 1-9.358 7.943 12.093 12.093 0 0 0-2.956 2.18 8.2 8.2 0 0 0-.002 11.559Z"/><path class="cls-5" d="M296.585 414.088v-20.927a26.33 26.33 0 0 0 9.358 7.943 12.088 12.088 0 0 1 2.955 2.18 8.173 8.173 0 1 1-11.558 11.559Z"/><path class="cls-6" d="M296.585 414.088v-20.927a26.33 26.33 0 0 1-9.358 7.943 12.093 12.093 0 0 0-2.956 2.18 8.173 8.173 0 0 0 11.559 11.559Z"/><path class="cls-5" d="M160.938 47.066v51.287c-6.972-10.206-17.45-16.609-22.938-19.467a29.665 29.665 0 0 1-7.243-5.342 20.03 20.03 0 0 1 28.327-28.327Z"/><path class="cls-6" d="M160.938 47.066v51.287c6.972-10.206 17.449-16.609 22.933-19.467a29.67 29.67 0 0 0 7.244-5.342 20.03 20.03 0 0 0-28.327-28.327Z"/><path class="cls-5" d="M160.938 106.043v51.286c-6.972-10.206-17.45-16.608-22.934-19.467a29.665 29.665 0 0 1-7.243-5.342 20.03 20.03 0 0 1 28.327-28.327Z"/><path class="cls-6" d="M160.938 106.043v51.286c6.972-10.206 17.449-16.608 22.933-19.467a29.67 29.67 0 0 0 7.244-5.342 20.03 20.03 0 0 0-28.327-28.327Z"/><path class="cls-5" d="M160.938 452.934v-51.287c6.972 10.206 17.449 16.608 22.933 19.467a29.67 29.67 0 0 1 7.244 5.342 20.03 20.03 0 0 1-28.327 28.327Z"/><path class="cls-6" d="M160.938 452.934v-51.287c-6.972 10.206-17.45 16.608-22.934 19.467a29.665 29.665 0 0 0-7.243 5.342 20.03 20.03 0 0 0 28.327 28.327Z"/><path class="cls-5" d="M160.938 393.957v-51.286c6.972 10.2 17.449 16.608 22.933 19.467a29.67 29.67 0 0 1 7.244 5.342 20.03 20.03 0 0 1-28.327 28.327Z"/><path class="cls-6" d="M160.938 393.957v-51.286c-6.972 10.2-17.45 16.608-22.934 19.467a29.665 29.665 0 0 0-7.243 5.342 20.03 20.03 0 0 0 28.327 28.327Z"/><path class="cls-7" d="M197.379 274.834a16.779 16.779 0 0 1-3.4-.382 21.336 21.336 0 0 1-9.828-4.573 11.593 11.593 0 0 1-2.764 1.079 14.608 14.608 0 0 1-3.721.481h-.461c-.761 0-1.565-.042-2.39-.124-2.175-.2-11.637-.754-13.811-.754a3.494 3.494 0 0 1-2.27-.86l-.041.037-.263.176a3.5 3.5 0 0 1-.7.329l-.442.118h-.649c-1.943.028-3.9.081-5.789.16h-.761c-2.266.116-4.324.25-6.24.409-.1.008-.2.013-.3.013a3.47 3.47 0 0 1-3.106-1.934l-1.093.117-1.07 1.338-.243.281-.315.278-.489.349h-.177l-.187.093h-.848a160.35 160.35 0 0 0-6.083.88l-.08.012h-.493a3.531 3.531 0 0 1-1.577-.379 14.081 14.081 0 0 1-1.425.732 16.754 16.754 0 0 1-4.08 1.4 13.871 13.871 0 0 1-2.862.3 10.386 10.386 0 0 1-6.605-2.082 8.965 8.965 0 0 1-3.728-8.85c0-.106.019-.29.019-.29.06-.453.131-.852.217-1.25a13.335 13.335 0 0 1 .513-1.916 20.357 20.357 0 0 1 1.392-3.087l-.272.3-.233.2-.251.181-.347.2-.466.192h-.134c-2.112.615-3.846 1.15-5.447 1.68a3.541 3.541 0 0 1-3.082-.426 3.3 3.3 0 0 1-1.467-2.709v-17.394l.167-.475.153-.266.167-.255 2.321-2.977.182-.2.235-.222.289-.223.27-.153.323-.154.057-.018c2.1-.687 4.9-1.577 7.837-2.371a11.9 11.9 0 0 1 3.767-.6 12.077 12.077 0 0 1 2.707.307l.847-.9.2-.2.232-.183.276-.187.3-.153.461-.154h.226c1.755-.391 3.712-.792 5.82-1.193a3.494 3.494 0 0 1 .669-.064 3.544 3.544 0 0 1 2.152.733 3.273 3.273 0 0 1 1.282 2.583v7.921q1.661-.271 3.315-.516 1.7-4.067 3.418-8.108a3.22 3.22 0 0 1 .19-.381l.186-.275 2.706-3.53.248-.277.57-.474h.164l.529-.239h.776c2.111-.207 12.881-.786 15.12-.786a3.479 3.479 0 0 1 3.024 1.741l.016.028.312-.4.277-.32.28-.227.325-.227.349-.185.472-.158h.869c2.211.054 6.861.311 7.057.321l8.02.695c.152 0 4.438.5 5.939.712a3.431 3.431 0 0 1 2.276 1.328l.68 1.047.1-.111.216-.2.348-.266.488-.26h.145l.173-.067h1.565l.087.016c2.3.41 4.176.771 5.891 1.138a3.363 3.363 0 0 1 2.7 3.013 11.476 11.476 0 0 1 8.67-.6 17.627 17.627 0 0 1 8.789 5.715l.152.2.221.346.191.447v.9a2.448 2.448 0 0 1 0 .295v.862l-.12.29-.118.219-.177.257-.147.191a3.336 3.336 0 0 1 1.374 2.666v9.025l-.249.391-.147.2-1.726 2.124a6.506 6.506 0 0 1 6.342 6.4l-.006.177a6.493 6.493 0 0 1-6.485 6.166c-.111 0-.344-.009-.348-.009a7.221 7.221 0 0 1-2.424-.42 3.523 3.523 0 0 1-1.384.289h-2.467a3.591 3.591 0 0 1-1.18-.2 4.965 4.965 0 0 1-.77.061c-.083 0-.165 0-.248-.007a10.532 10.532 0 0 1-5.238 5.147 10 10 0 0 1-4.2.927Zm-83.564-21.557a20.707 20.707 0 0 1 1.785-1.777v-.335a16.369 16.369 0 0 1-1.781.947Z"/><path class="cls-7" d="M215.612 257.314a6.484 6.484 0 0 0-1.544.186 3.489 3.489 0 0 0-.106-.452l.2-.134.187-.159.173-.2 2.423-2.982.093-.12.093-.146v-8.733a2.343 2.343 0 0 0-1.651-2.21l-.279-.093.879-1.131.146-.213.093-.173v-.733a2.382 2.382 0 0 0 0-.239v-.692l-.08-.187-.133-.213-.12-.16a16.741 16.741 0 0 0-8.333-5.4 10.5 10.5 0 0 0-9.079 1.211l-.266.2v-1.518a2.357 2.357 0 0 0-1.917-2.276 173.873 173.873 0 0 0-5.858-1.132h-1.291l-.173.067h-.08l-.2.106-.213.16-.146.133-.12.133-.8 1.025-1.4-2.156a2.464 2.464 0 0 0-1.625-.945c-1.85-.267-5.857-.706-5.883-.706l-7.988-.692s-4.806-.266-7-.32h-.706l-.239.08-.227.12-.213.146-.213.173-.186.214-1.238 1.584-.745-1.332a2.466 2.466 0 0 0-2.157-1.238c-2.223 0-13.113.586-15.07.786h-.612l-.266.12-.2.119h-.08l-.159.133-.08.067-.147.16-2.675 3.487-.147.213a2.371 2.371 0 0 0-.133.267q-1.824 4.3-3.634 8.626c-1.664.24-3.341.506-5.019.786v-9.093a2.29 2.29 0 0 0-.892-1.8 2.529 2.529 0 0 0-2.023-.479c-1.957.373-3.994.786-5.9 1.211h-.173l-.239.08-.186.093-.16.107-.187.146-.133.133-1.251 1.332a11.081 11.081 0 0 0-6.537.146c-2.662.719-5.218 1.518-7.787 2.357l-.2.092-.213.121-.159.119-.174.16-.133.146-2.276 2.916-.133.2-.107.187-.08.226v.213q-.006.12 0 .24v16.76a2.3 2.3 0 0 0 1.025 1.89 2.542 2.542 0 0 0 2.21.306 162.864 162.864 0 0 1 5.618-1.73h.08l.226-.094.213-.119.173-.12.187-.16.159-.173 2.277-2.915.119-.16v-1.811a15.355 15.355 0 0 0 2.783-1.477q.519-.333 1-.679v2.662a19.433 19.433 0 0 0-5.817 8.387 12.4 12.4 0 0 0-.48 1.8c-.079.373-.146.746-.2 1.145 0 0-.016.148-.021.3a7.98 7.98 0 0 0 3.309 7.914 9.54 9.54 0 0 0 6.03 1.9 12.885 12.885 0 0 0 2.663-.279 15.914 15.914 0 0 0 3.874-1.331 13.264 13.264 0 0 0 1.837-1 2.511 2.511 0 0 0 1.571.559h.412a166.07 166.07 0 0 1 6.177-.892h.679l.187-.093h.093l.186-.133.226-.2.173-.2 1.331-1.664 2.237-.24.24.559a2.461 2.461 0 0 0 2.462 1.438c2.091-.173 4.221-.306 6.324-.413h.719c1.93-.08 3.9-.133 5.83-.159h.52l.252-.067a2.454 2.454 0 0 0 .466-.213l.2-.133.16-.147.16-.186.359-.453.253.36a2.476 2.476 0 0 0 2 1.038c2.21 0 11.768.559 13.911.759q1.2.12 2.29.12h.4a13.606 13.606 0 0 0 3.541-.453 10.649 10.649 0 0 0 3.115-1.331 20.405 20.405 0 0 0 9.931 4.819 15.886 15.886 0 0 0 3.208.359A8.952 8.952 0 0 0 201.4 273a9.47 9.47 0 0 0 5.019-5.325 3.914 3.914 0 0 0 1.743 0 2.547 2.547 0 0 0 1.079.24h2.459a2.519 2.519 0 0 0 1.331-.387 6.3 6.3 0 0 0 2.543.52 5.5 5.5 0 0 0 5.772-5.209v-.116a5.47 5.47 0 0 0-5.531-5.411q-.099-.002-.203.002Z"/><path class="cls-5" d="M169.432 254.092s.4 2.463-3.487 5.9l-1.6-1.971Zm-67.173-13.525q3.82-1.251 7.681-2.316c4.566-1.265 7.708 0 7.708 3.993 0 3.994-3.195 6.87-7.828 8.161l-1.863.532v4.527q-2.863.825-5.7 1.757Zm7.242 5.964c1.464-.413 2.449-1.331 2.449-2.5 0-1.211-.905-1.6-2.436-1.171l-1.571.452v3.715Z"/><path class="cls-5" d="M119.764 240.354s-.718 7.229-9.984 10.064c0 0-.466-5.032-.319-4.979s10.303-5.085 10.303-5.085Zm-10.876 10.783 1.345 1.424-2.276 2.903-2.077-.972 1.051-2.969 1.957-.386zm-6.629-10.57 2.276-2.915 1.944 2.13-.493 3.634-2.662.439-1.065-3.288z"/><path class="cls-5" d="M118.886 235.615c1.957-.439 3.847-.825 5.817-1.2V246.7q4.1-.773 8.227-1.331v4.766q-7.055 1-14.044 2.556Zm21.459-3.182q2.916-.292 5.844-.492 3.728 8.147 7.455 16.44-3.209.081-6.416.28l-.932-2.183q-3.089.2-6.177.519l-.905 2.33q-3.142.332-6.284.772 3.7-8.907 7.415-17.666Zm4.486 10.2-1.61-3.914-1.611 4.193Z"/><path class="cls-5" d="m141.796 234.018-1.451-1.585 2.277-2.915 1.384 1.345-2.21 3.155zm14.124 11.448-2.276 2.915-3.048-1.504.399-2.689 4.925 1.278zm-14.43.945-2.276 2.916-1.984-1.451.546-2.729 2.915-.094.799 1.358z"/><path class="cls-5" d="M155.228 242.391q-3.341-5.325-6.656-10.583 3.315-.147 6.656-.173l3.035 5.471 3.062-5.418q3.275.08 6.55.279-3.328 5.139-6.656 10.4v5.977q-2.955-.066-5.911 0Z"/><path class="cls-5" d="m152.3 229.611-1.678-.679-2.276 2.902 3.554 2.756 2.516-2.969-2.116-2.01zm9.664 4.22-.692-2.116 2.276-2.916 1.385 2.583-2.969 2.449zm0 10.157 1.465 1.478-2.277 2.902-1.903-1.877.905-2.449 1.81-.054zm6.43-11.954q2.955.186 5.9.479v16.667q-2.941-.292-5.9-.479Z"/><path class="cls-5" d="m169.446 233.645-1.052-1.611 2.276-2.902 2.543 2.969-3.767 1.544zm6.27 11.315.865 1.318-2.29 2.902-1.943-2.409 1.158-2.437 2.21.626z"/><path class="cls-5" d="M176.355 232.726q2.756.306 5.5.692 3.127 4.114 6.23 8.347V234.4q2.9.506 5.777 1.118v16.667q-2.582-.546-5.178-1.012-3.249-4.432-6.51-8.733v7.7q-2.9-.414-5.831-.733Z"/><path class="cls-5" d="m180.442 231.768-1.811-1.944-4.34 2.689 3.288 4.526 3.874-2.915-1.011-2.356zm8.839 3.927-1.185-1.291 2.276-2.902 2.783 3.474-3.874.719zm-5.981 9.065c.106.187 1.158 2.463 1.158 2.463l-2.277 2.916-2.143-2.343 1.1-3.355Zm11.359 2.157 1.491 2.356-2.276 2.916-2.676-2.157 1.504-3.261 1.957.146zm.799-2.676c0-4.965 4.1-7.827 9.518-6.323a14.382 14.382 0 0 1 7.149 4.673l-3.169 2.715a7.99 7.99 0 0 0-3.794-2.556 2.808 2.808 0 0 0-3.86 2.9 5.39 5.39 0 0 0 4.1 5.072 3.741 3.741 0 0 0 1.957.187v-1.664l-2.942-.839v-3.566q4.154 1.146 8.267 2.49v7.708a10.839 10.839 0 0 1-7.535.213c-5.338-1.438-9.691-5.831-9.691-11.01Z"/><path class="cls-5" d="M201.688 235.083a10.5 10.5 0 0 0-5.977 7.721l2.116.572 3.874-4.46Zm3.98 11.302c-.146-.147-1.251-1.465-1.251-1.465l2.276-2.915 2.29 2.875a11.426 11.426 0 0 1-.759 2.21Zm7.828 3.94 1.464 1.85-2.276 2.902-2.343-1.198.945-2.782 2.21-.772zm-.652-11.369 1.557.679-2.276 2.916-2.197-.094.253-2.729 2.663-.772zM112.323 264.01l.124-.077c.237-5.29 6.336-12.188 9.128-9.987 3.821-.786 6.43.572 7.907 2.875q-2.409 1.731-4.819 3.528a2.662 2.662 0 0 0-3.155-1.331 4.366 4.366 0 0 0-3.248 4.353c0 2.17 1.331 3.381 3.248 2.982a4.676 4.676 0 0 0 3.289-2.742q2.409.839 4.819 1.757a11.544 11.544 0 0 1-8.254 6.017c-4.832.932-9.474-1.655-9.039-7.375Z"/><path class="cls-5" d="M121.1 251.922s-7.708 4.087-8.773 12.088l2.276.506 5.432-7.282Zm9.008 1.278 1.651.666-2.29 2.902-2.769-1.131 3.408-2.437zm-.732 10.171 2.5-.985s-2.663 6.656-8.534 8.267l.8-3.9Zm7.175-11.662q2.916-.358 5.844-.612 3.714 8.067 7.442 16.281-3.208.147-6.417.413l-.932-2.157q-3.089.267-6.163.652l-.905 2.357q-3.143.4-6.27.905 3.687-9.025 7.401-17.839Zm4.473 10.1-1.611-3.887-1.61 4.22Zm9.545-11.164q4.326-.187 8.64-.16c3.141 0 5.138.838 6.376 2.05a5.327 5.327 0 0 1 1.611 3.994 5.152 5.152 0 0 1-3.5 5.031q2.063 2.889 4.113 5.831-3.368-.173-6.749-.226l-3.315-4.806h-1.265v4.766q-2.957 0-5.911.16Zm8.467 7.721c1.411 0 2.276-.573 2.276-1.6 0-1.065-.879-1.611-2.25-1.624h-2.582v3.262Zm9.598-7.588q3.381.186 6.762.5c7 .693 10.477 4.58 10.477 9.492 0 4.952-3.554 7.8-10.65 7.109q-3.275-.306-6.563-.493-.025-8.275-.026-16.608Zm6.882 12.327c2.663.253 4.433-.573 4.433-2.969 0-2.4-1.731-3.674-4.433-3.994l-.985-.093V263Z"/><path class="cls-5" d="M187.657 260.868a10.543 10.543 0 0 1-10.517 7.162l.666-4.726Zm-14.404-10.929-2.33-2.063-2.289 2.902 1.464 3.447 3.155-4.286z"/><path class="cls-5" d="m185.78 266.739 3.128-3.035a13.174 13.174 0 0 0 6.11 3.1c1.039.213 1.491 0 1.491-.4 0-.479-.545-.865-2.409-1.6-3.9-1.558-7.362-3.155-7.362-6.656 0-3.155 2.663-5.245 7.415-4.287a14.649 14.649 0 0 1 7.828 3.994l-2.822 3.088a11.176 11.176 0 0 0-5.206-2.769c-.865-.173-1.331 0-1.331.44 0 .452.48.825 2.317 1.53 4.446 1.7 7.4 3.728 7.4 7.069 0 3.5-2.982 4.859-7.654 3.9a17.886 17.886 0 0 1-8.905-4.374Z"/><path class="cls-5" d="M204.6 265.022a7.282 7.282 0 0 1-6.762 6.39l.4-3.448Zm-2.34-10.544 1.984.413-2.277 2.902-3.061 1.225 3.354-4.54zm-14.869 12.727-1.611-.466 2.276-2.902 2.876-.08-1.132 3.062-2.409.386zm-.666-9.172a7.547 7.547 0 0 1 5.884-7.255l-1.078 4.286-3.874 4.526Zm-48.709-3.994-1.465-2.356 2.277-2.916 1.597 2.011-2.409 3.261zm11.448 9.066 2.649 1.331-2.276 2.915-3.115-.985.546-3.634 2.196.373zm-12.38.772.612 1.81-2.276 2.916-2.224-1.212 1.598-3.514h2.29zm14.603-11.568-1.118-1.664 2.276-2.903 1.984 1.372-1.544 4.339-1.598-1.144zm15.203 10.676 3.221 1.504-2.276 2.916-4.566-1.611.665-3.381 2.956.572zm-9.199-.626 1.065 1.864-2.276 2.915a9.993 9.993 0 0 1-2.05-.971c0-.187 1.078-4.154 1.078-4.154ZM122.507 234.6a16.81 16.81 0 0 1-1.331-1.5l-2.277 2.529 2.862 2.663Zm11.608 11.119 1.092 1.478-2.277 2.915-2.436-1.558.306-2.063 3.315-.772zm-25.626-3.594 5.831-1.052-.852 3.208-5.977 1.877.998-4.033z"/><path class="cls-1" d="M104.535 237.652q3.82-1.251 7.681-2.317c4.567-1.264 7.708 0 7.708 3.994s-3.2 6.869-7.827 8.161l-1.864.532v4.526q-2.862.825-5.7 1.757Zm7.242 5.964c1.464-.413 2.45-1.332 2.45-2.5 0-1.211-.906-1.6-2.437-1.172l-1.57.453v3.714Z"/><path class="cls-1" d="M104.336 254.585v-17.066h.133c2.529-.826 5.125-1.611 7.694-2.33s4.9-.612 6.31.4a4.326 4.326 0 0 1 1.664 3.754c0 3.888-2.9 6.936-7.987 8.347l-1.717.493v4.526h-.147c-1.9.546-3.82 1.145-5.7 1.757Zm.4-16.8v16.254a156.2 156.2 0 0 1 5.325-1.637v-4.526h.146l1.864-.533c4.886-1.331 7.694-4.26 7.694-7.987a3.991 3.991 0 0 0-1.5-3.448c-1.331-.932-3.368-1.052-5.95-.333s-5.091 1.398-7.58 2.21Zm5.325 6.523v-4.114h.146l1.571-.466a2.515 2.515 0 0 1 2.143.107 1.436 1.436 0 0 1 .546 1.251c0 1.225-.972 2.237-2.662 2.663l-1.544.439Zm.4-3.834v3.315l1.331-.36c1.451-.4 2.317-1.331 2.317-2.316a1.078 1.078 0 0 0-.386-.945 2.184 2.184 0 0 0-1.784 0Zm10.701-7.402q2.9-.653 5.818-1.2v11.9q4.1-.771 8.227-1.331v4.766q-7.056 1-14.045 2.556Z"/><path class="cls-1" d="M120.963 249.992v-17.053h.159c1.931-.426 3.887-.838 5.818-1.2h.239v11.9q3.995-.738 7.988-1.331h.226v5.152h-.173a178.517 178.517 0 0 0-14.031 2.556Zm.4-16.747v16.268c4.486-1 9.079-1.837 13.645-2.476v-4.38q-3.993.579-7.987 1.331h-.24v-11.9c-1.811.385-3.622.758-5.419 1.157Z"/><path class="cls-1" d="M142.622 229.518q2.914-.292 5.844-.493 3.727 8.148 7.454 16.441-3.207.079-6.416.28l-.932-2.184q-3.089.2-6.177.52l-.905 2.329q-3.141.333-6.283.772 3.701-8.905 7.415-17.665Zm4.486 10.2L145.5 235.8l-1.614 4.2Z"/><path class="cls-1" d="m134.887 247.436.133-.306a2101.275 2101.275 0 0 1 7.415-17.679v-.106h.12c1.944-.2 3.914-.359 5.857-.493h.147v.12c2.5 5.472 5 11.009 7.455 16.441l.119.266h-.292c-2.13 0-4.287.146-6.4.28h-.146l-.932-2.184c-1.97.134-3.994.293-5.9.493l-.905 2.33h-.12c-2.09.226-4.194.479-6.27.772Zm7.868-17.732a1898.105 1898.105 0 0 0-7.242 17.306 217.72 217.72 0 0 1 5.817-.719l.905-2.329h.16c2.05-.213 4.127-.386 6.19-.519h.147l.932 2.183c1.983-.12 3.993-.213 5.99-.266-2.383-5.325-4.832-10.65-7.282-16.055-1.877.053-3.754.213-5.6.4Zm.825 10.517.107-.293 1.61-4.193.187-.466.2.466 1.611 3.914.093.239h-.266l-3.221.266Zm1.917-3.874-1.331 3.435 2.662-.227Zm12.008 3.168q-3.342-5.323-6.656-10.583 3.314-.145 6.656-.173l3.035 5.471 3.062-5.418q3.274.081 6.549.28-3.327 5.139-6.656 10.4v5.977q-2.955-.066-5.911 0Z"/><path class="cls-1" d="M163.628 245.666h-6.31v-6.044a765.757 765.757 0 0 0-6.656-10.53l-.173-.28h.333c2.2-.093 4.433-.159 6.656-.173h.12v.107l2.862 5.152 2.875-5.112v-.107h.12c2.17 0 4.38.147 6.55.28h.333l-.173.266c-2.224 3.421-4.46 6.909-6.657 10.357Zm-4.659-.44h4.26V239.4c2.143-3.368 4.326-6.776 6.5-10.131-2.023-.12-4.06-.213-6.083-.266l-3 5.325-.173.319-.173-.319-2.982-5.328c-2.037 0-4.113.066-6.15.16a1532.8 1532.8 0 0 1 6.5 10.3v5.764Zm11.701-16.147q2.957.186 5.9.479v16.667q-2.943-.292-5.9-.479Z"/><path class="cls-1" d="M176.781 246.478h-.227a234.261 234.261 0 0 0-5.9-.479h-.186v-17.08h.213c1.97.133 3.993.293 5.91.479h.187Zm-5.9-.879c1.824.12 3.675.266 5.5.453v-16.268a187.776 187.776 0 0 0-5.5-.452Zm7.763-15.775q2.757.306 5.5.692 3.129 4.114 6.23 8.347V231.5q2.9.507 5.778 1.119v16.667q-2.583-.546-5.178-1.012-3.249-4.433-6.51-8.733v7.694q-2.9-.412-5.831-.732Z"/><path class="cls-1" d="M196.35 249.513h-.24c-1.7-.359-3.448-.706-5.178-1.012h-.08a788.213 788.213 0 0 0-6.137-8.253v7.321h-.226a175.377 175.377 0 0 0-5.818-.732h-.171v-17.226h.226c1.824.2 3.688.426 5.512.692h.079c1.957 2.583 3.994 5.219 5.871 7.855v-6.976h.24c1.93.346 3.874.719 5.777 1.118h.16Zm-5.325-1.424c1.611.292 3.248.612 4.859.945v-16.268a216.342 216.342 0 0 0-5.325-1.038v7.734l-.36-.492a780.84 780.84 0 0 0-6.176-8.281 171.932 171.932 0 0 0-5.192-.652v16.281c1.81.2 3.634.426 5.431.679v-8.054l.36.479a453.406 453.406 0 0 1 6.469 8.667Zm6.709-6.75c0-4.965 4.1-7.827 9.518-6.323a14.371 14.371 0 0 1 7.149 4.673l-3.182 2.7a7.983 7.983 0 0 0-3.794-2.556 2.808 2.808 0 0 0-3.86 2.9 5.392 5.392 0 0 0 4.1 5.072 3.74 3.74 0 0 0 1.957.186v-1.664l-2.942-.838v-3.568q4.154 1.144 8.267 2.489v7.708a10.833 10.833 0 0 1-7.535.213c-5.325-1.431-9.678-5.831-9.678-10.992Z"/><path class="cls-1" d="M211.206 253.147a14.262 14.262 0 0 1-3.834-.572c-5.791-1.624-9.838-6.244-9.838-11.236a6.658 6.658 0 0 1 2.666-5.639 8.237 8.237 0 0 1 7.109-.865 14.543 14.543 0 0 1 7.241 4.739l.12.146-.146.12-3.182 2.769-.16.133-.133-.146a7.716 7.716 0 0 0-3.687-2.49 2.943 2.943 0 0 0-2.529.293 2.848 2.848 0 0 0-1.065 2.41 5.23 5.23 0 0 0 3.993 4.885 3.98 3.98 0 0 0 1.7.213v-1.331l-2.795-.785h-.147v-3.994l.253.066c2.769.759 5.551 1.6 8.28 2.49h.133v7.987h-.106a8.908 8.908 0 0 1-3.873.807Zm-6.749-18.384a6.8 6.8 0 0 0-3.994 1.2 6.326 6.326 0 0 0-2.5 5.325c0 4.832 3.928 9.319 9.545 10.876a10.876 10.876 0 0 0 7.282-.16v-7.455c-2.6-.838-5.232-1.637-7.867-2.369v3.168l2.8.8h.147v1.952h-.147a3.992 3.992 0 0 1-2.063-.187 5.616 5.616 0 0 1-4.247-5.258A3.207 3.207 0 0 1 204.63 240a3.342 3.342 0 0 1 2.889-.36 7.986 7.986 0 0 1 3.754 2.463l2.888-2.5a14.107 14.107 0 0 0-6.922-4.459 10.22 10.22 0 0 0-2.782-.386Zm-89.804 27.117a11.619 11.619 0 0 1 9.2-10.849c3.821-.786 6.43.572 7.908 2.875q-2.41 1.731-4.819 3.528a2.661 2.661 0 0 0-3.155-1.331 4.365 4.365 0 0 0-3.248 4.353c0 2.17 1.331 3.381 3.248 2.982a4.674 4.674 0 0 0 3.288-2.743q2.409.839 4.819 1.757a11.541 11.541 0 0 1-8.254 6.018c-4.834.93-8.987-1.425-8.987-6.59Z"/><path class="cls-1" d="M121.482 268.829a7.4 7.4 0 0 1-4.58-1.438 6.655 6.655 0 0 1-2.462-5.511 11.808 11.808 0 0 1 9.318-11.036c3.541-.732 6.43.32 8.121 2.969l.093.146-.147.107a536.39 536.39 0 0 0-4.819 3.527l-.186.134-.12-.187a2.489 2.489 0 0 0-2.942-1.331 4.192 4.192 0 0 0-3.088 4.167 2.949 2.949 0 0 0 .985 2.422 2.419 2.419 0 0 0 2.023.373 4.432 4.432 0 0 0 3.142-2.662l.08-.16h.173c1.6.559 3.221 1.145 4.819 1.757l.213.08-.107.187a11.834 11.834 0 0 1-8.386 6.123 10.809 10.809 0 0 1-2.13.333Zm4.486-17.878a10.217 10.217 0 0 0-2.077.226 11.41 11.41 0 0 0-9.039 10.65 6.283 6.283 0 0 0 2.317 5.218 7.788 7.788 0 0 0 6.416 1.132 11.289 11.289 0 0 0 7.987-5.738 227.783 227.783 0 0 0-4.433-1.611 4.845 4.845 0 0 1-3.341 2.663 2.822 2.822 0 0 1-2.369-.439 3.318 3.318 0 0 1-1.132-2.663 4.525 4.525 0 0 1 3.408-4.539 2.847 2.847 0 0 1 3.261 1.331c1.491-1.118 3-2.223 4.5-3.3a6.324 6.324 0 0 0-5.5-2.928Zm12.86-2.184q2.914-.358 5.844-.612 3.714 8.067 7.441 16.281-3.209.147-6.416.413l-.932-2.157q-3.089.267-6.164.652l-.901 2.356q-3.141.4-6.27.9 3.683-8.994 7.398-17.833Zm4.472 10.1-1.61-3.887-1.611 4.22Z"/><path class="cls-1" d="m131.106 266.845.134-.319a2220.722 2220.722 0 0 1 7.4-17.838v-.107h.12c1.93-.239 3.9-.439 5.844-.612h.147v.12c2.5 5.431 5 10.9 7.441 16.28l.12.253h-.293c-2.13.094-4.287.24-6.4.413h-.147l-.931-2.157c-1.957.174-3.994.387-5.9.613l-.905 2.356h-.12c-2.077.266-4.18.572-6.257.905Zm7.855-17.905a2695.114 2695.114 0 0 0-7.229 17.413c1.93-.306 3.874-.586 5.8-.839l.906-2.356h.119c2.05-.253 4.127-.466 6.177-.652h.147l.931 2.156c1.984-.16 3.994-.293 5.978-.386a1977.244 1977.244 0 0 0-7.269-15.9c-1.837.147-3.714.347-5.551.56Zm.812 10.491.106-.293 1.611-4.22.186-.48.2.466 1.611 3.888.093.239h-.266l-3.222.333Zm1.917-3.914-1.332 3.461 2.663-.28Zm11.155-7.801q4.327-.186 8.64-.16c3.142 0 5.139.839 6.377 2.05a5.323 5.323 0 0 1 1.61 3.994 5.152 5.152 0 0 1-3.487 4.952q2.063 2.889 4.113 5.831-3.368-.174-6.749-.227l-3.342-4.779h-1.264v4.766q-2.957 0-5.911.16Zm8.467 7.761c1.411 0 2.276-.573 2.276-1.6 0-1.065-.878-1.61-2.249-1.624h-2.583v3.262Z"/><path class="cls-1" d="M170.5 264.7h-.4c-2.236-.12-4.5-.2-6.736-.226h-.107v-.08l-3.341-4.7h-.958v4.766h-.2c-1.957 0-3.994.066-5.911.159h-.213v-17.063h.187a187.75 187.75 0 0 1 8.653-.16 9.107 9.107 0 0 1 6.509 2.1 5.468 5.468 0 0 1 1.678 4.153 5.326 5.326 0 0 1-3.395 5.032c1.331 1.864 2.662 3.767 3.994 5.644Zm-7.029-.625c2.077 0 4.181.106 6.244.213-1.331-1.838-2.663-3.688-3.9-5.512l-.133-.186.227-.093a4.927 4.927 0 0 0 3.368-4.779 5.114 5.114 0 0 0-1.558-3.888 8.72 8.72 0 0 0-6.23-1.983c-2.8 0-5.644 0-8.44.16v16.28a196.3 196.3 0 0 1 5.511-.146V259.3h1.571v.08Zm-4.912-8.374v-3.647h2.783c1.53 0 2.449.679 2.449 1.81a1.571 1.571 0 0 1-.479 1.172 2.863 2.863 0 0 1-2 .612h-2.756Zm.4-3.261v2.875h2.356a2.423 2.423 0 0 0 1.7-.506 1.182 1.182 0 0 0 .359-.905c0-1.238-1.331-1.424-2.05-1.424Zm11.951-4.564q3.381.186 6.763.5c7 .693 10.476 4.58 10.476 9.492 0 4.952-3.554 7.8-10.649 7.109q-3.276-.306-6.563-.493-.027-8.284-.027-16.608Zm6.882 12.327c2.663.253 4.433-.573 4.433-2.969 0-2.4-1.73-3.674-4.433-3.994l-.985-.093v6.953Z"/><path class="cls-1" d="M179.523 265.328q-.985 0-2.063-.107c-2.17-.2-4.367-.372-6.55-.492h-.186v-17.013h.213c2.249.133 4.526.306 6.762.519 6.656.652 10.65 4.273 10.65 9.678a6.8 6.8 0 0 1-2.236 5.418 9.849 9.849 0 0 1-6.59 1.997Zm-8.4-.972c2.117.12 4.26.28 6.377.479 3.754.36 6.562-.239 8.36-1.784a6.44 6.44 0 0 0 2.1-5.138c0-5.192-3.847-8.666-10.29-9.319-2.17-.2-4.367-.372-6.537-.5Zm7.575-3.914h-.919l-.985-.093h-.186v-7.335h.226l.985.093c2.969.28 4.606 1.744 4.606 4.114a3.01 3.01 0 0 1-.945 2.4 4.166 4.166 0 0 1-2.78.821Zm-1.678-.506.8.08a4.5 4.5 0 0 0 3.4-.679 2.661 2.661 0 0 0 .812-2.1c0-2.756-2.317-3.554-4.247-3.741l-.759-.066Zm11.036 3.888 3.129-3.036a13.151 13.151 0 0 0 6.11 3.1c1.038.213 1.491 0 1.491-.4 0-.479-.546-.865-2.41-1.6-3.9-1.557-7.361-3.155-7.361-6.656 0-3.155 2.662-5.245 7.415-4.286a14.641 14.641 0 0 1 7.827 3.993l-2.822 3.089a11.163 11.163 0 0 0-5.205-2.769c-.865-.173-1.331 0-1.331.439 0 .453.479.825 2.316 1.531 4.446 1.7 7.4 3.727 7.4 7.069 0 3.5-2.982 4.859-7.655 3.9a17.88 17.88 0 0 1-8.904-4.374Z"/><path class="cls-1" d="M199.718 268.736a13.728 13.728 0 0 1-2.756-.306 17.943 17.943 0 0 1-9.066-4.473l-.133-.133.133-.134 3.129-3.035.133-.133.146.133a12.951 12.951 0 0 0 6 3.062c.786.16 1.065.067 1.158 0a.239.239 0 0 0 .08-.213c0-.373-.625-.759-2.29-1.424-4.1-1.624-7.481-3.275-7.481-6.856a4.366 4.366 0 0 1 1.651-3.608 7.322 7.322 0 0 1 6-.865 14.739 14.739 0 0 1 7.987 4.1l.12.133-.12.133-2.809 3.089-.133.16-.147-.147a11.074 11.074 0 0 0-5.111-2.662 1.324 1.324 0 0 0-.932 0 .237.237 0 0 0-.093.213c0 .319.359.652 2.183 1.331 3.727 1.424 7.521 3.408 7.521 7.255a3.994 3.994 0 0 1-1.491 3.368 5.9 5.9 0 0 1-3.679 1.012Zm-11.382-4.912a17.673 17.673 0 0 0 8.719 4.233c2.663.559 4.806.333 6.071-.639a3.648 3.648 0 0 0 1.331-3.062c0-2.875-2.183-4.939-7.282-6.9-1.864-.719-2.436-1.118-2.436-1.717a.614.614 0 0 1 .24-.506 1.6 1.6 0 0 1 1.331-.12 11.3 11.3 0 0 1 5.152 2.663l2.555-2.8a14.367 14.367 0 0 0-7.6-3.86 6.935 6.935 0 0 0-5.657.785 3.993 3.993 0 0 0-1.5 3.3c0 3.354 3.275 4.925 7.242 6.509 1.944.772 2.529 1.185 2.529 1.771a.61.61 0 0 1-.239.506 1.908 1.908 0 0 1-1.5.08 13.324 13.324 0 0 1-6.057-3.022Zm20.94-4.034h2.463v5.644h-2.463zm3.035 2.836a3.355 3.355 0 0 1 6.656 0 3.355 3.355 0 0 1-6.656 0Zm4.287 0a.985.985 0 0 0-.972-1 .958.958 0 0 0-.959.958v.027a.987.987 0 0 0 .972 1 .959.959 0 0 0 .959-.959Z"/><ellipse class="cls-1" cx="207.252" cy="263.997" rx="1.371" ry="1.318"/><ellipse class="cls-1" cx="210.341" cy="258.046" rx="1.371" ry="1.318"/><path d="M25.964 21.167 46.57 70.653H41.8l-6.95-16.282H15.817L8.933 70.653H4.007l20.876-49.486Zm-.558 10.513-7.572 17.914h15.107Zm270.505 447.153-20.606-49.486h4.769l6.951 16.282h19.034l6.883-16.282h4.926l-20.876 49.486Zm.558-10.513 7.572-17.914h-15.106Z"/><path class="cls-8" d="M99.061 291.952a71.8 71.8 0 0 0 6.46 8.23c-22.96 4.95-34.24-24.86-35.88-29.79-1.77-5.35-7.14-9.69-7.14-9.69-1.45-1.24-2.9-2.48-4.34-3.74-.93-.79-1.86-1.6-2.78-2.42-1.66-1.48-3.29-2.98-4.87-4.54a72.831 72.831 0 0 1-6.43-7.15c-3.68-4.71-6.99-10.36-7.34-16.47a17.217 17.217 0 0 1 2.88-10.3c1.79-2.74 5.04-6.28 8.59-6.28a.66.66 0 0 1 .14.01h.08a1.087 1.087 0 0 1 .18.01 2.635 2.635 0 0 1 .28.02c.17.02.35.05.52.08.14.03.28.06.42.1l.1.03c.13.04.26.08.38.13a2.388 2.388 0 0 1 .37.15 3.418 3.418 0 0 1 .43.21 4.122 4.122 0 0 1 .45.27 4.832 4.832 0 0 1 .58.43c.01.01.01.01.02.01.12.12.24.23.35.34.09.09.17.18.26.27.06.07.12.13.17.2a.555.555 0 0 1 .06.08c.1.12.19.25.28.38.03.04.05.09.08.13.08.12.15.24.22.37a.886.886 0 0 1 .08.17c.06.12.12.23.17.35.03.08.06.16.09.23a.88.88 0 0 1 .05.15l.06.18c.03.09.05.19.08.28s.05.2.07.3c.02.12.04.24.06.37l.03.22c.02.21.03.41.03.62a6.066 6.066 0 0 1-7.45 5.94s-.04.07-.1.2c-.03.06-.06.14-.1.24a1.888 1.888 0 0 0-.06.18 1.293 1.293 0 0 0-.07.21c-.01.05-.03.09-.04.14a4.25 4.25 0 0 0-.14.61c-.03.15-.05.31-.07.48-.36 3.14.73 9.75 11.89 19.15 1.67 1.42 3.57 2.89 5.73 4.42.63.46 1.28.91 1.96 1.37.57.4 1.14.78 1.69 1.17h.01c.19.13.38.26.56.39a2.307 2.307 0 0 0 .19.14c.17.13.34.26.52.38.43.3.84.6 1.25.9.06.04.11.08.16.12.14.1.28.2.41.3s.27.2.4.31c.32.24.65.48.96.72.08.06.15.12.23.18.14.11.28.21.41.32.33.24.64.49.95.74a76.15 76.15 0 0 1 6.85 6.09q1.65 1.65 2.95 3.23l.7.85c.51.65 1 1.29 1.44 1.93.21.3.41.59.61.89 0 .01.01.01.02.02.19.3.37.6.55.89.37.59.7 1.19 1 1.77l1.5.62a74.065 74.065 0 0 0 9.85 21.16Z"/><path class="cls-9" d="M89.211 270.792a74.065 74.065 0 0 0 9.85 21.16c-16.12-3.46-19.86-22.6-21.7-25.6a39.674 39.674 0 0 0-6.7-7.43q-2.925-3.06-6.77-6.38c-.96-.84-1.96-1.68-3.02-2.54-.51-.41-1.03-.83-1.56-1.25q-2.145-1.695-3.94-3.29c-17.31-15.3-12.64-23.94-11.68-25.34a2.094 2.094 0 0 1 .15-.21c.43.12-.03.1.43.12a5.119 5.119 0 0 0 .68-.01c2.89-.24 4.38-2.93 4.53-6.19a6.563 6.563 0 0 0-1.13-4.02v-.01a.22.22 0 0 1 .08.01 1.087 1.087 0 0 1 .18.01 2.635 2.635 0 0 1 .28.02c.17.02.35.05.52.08.14.03.28.06.42.1l.1.03c.13.04.26.08.38.13a2.388 2.388 0 0 1 .37.15 3.418 3.418 0 0 1 .43.21 4.122 4.122 0 0 1 .45.27 4.832 4.832 0 0 1 .58.43c.01.01.01.01.02.01.12.12.24.23.35.34a.176.176 0 0 1 .05.04l.04.04c.06.06.12.13.17.19s.12.13.17.2a.555.555 0 0 1 .06.08c.1.12.19.25.28.38.03.04.05.09.08.13.08.12.15.24.22.37a.886.886 0 0 1 .08.17c.06.12.12.23.17.35.03.08.06.16.09.23a.88.88 0 0 1 .05.15l.06.18c.03.09.05.19.08.28s.05.2.07.3c.02.12.04.24.06.37l.03.22c.02.21.03.41.03.62a6.066 6.066 0 0 1-7.45 5.94s-.04.07-.1.2c-.03.06-.06.14-.1.24a1.888 1.888 0 0 0-.06.18 1.293 1.293 0 0 0-.07.21c-.01.05-.03.09-.04.14a4.25 4.25 0 0 0-.14.61c-.03.15-.05.31-.07.48-.36 3.14.73 9.75 11.89 19.15 1.67 1.42 3.57 2.89 5.73 4.42.63.46 1.28.91 1.96 1.37.57.4 1.14.78 1.69 1.17h.01c.19.13.38.26.56.39a2.307 2.307 0 0 0 .19.14c.17.13.34.26.52.38.43.3.84.6 1.25.9.06.04.11.08.16.12.14.1.28.2.41.3s.27.2.4.31c.32.24.65.48.96.72.08.06.15.12.23.18.14.11.28.21.41.32s.27.21.4.32c.19.14.37.28.55.42s.35.29.52.43a75.676 75.676 0 0 1 6.33 5.66 52.825 52.825 0 0 1 3.65 4.08c.51.65 1 1.29 1.44 1.93.21.3.41.59.61.89 0 .01.01.01.02.02.19.3.37.6.55.89.37.59.7 1.19 1 1.77Z"/><path class="cls-10" d="M44.948 217.153c-1.161 3.678 1.906 4.683 1.906 4.683a5.587 5.587 0 0 0-.579 2.055c-4.892-3.007-1.327-6.738-1.327-6.738Z"/><ellipse class="cls-11" cx="30.241" cy="249.71" rx="4.645" ry="4.032"/><ellipse class="cls-12" cx="28.054" cy="248.408" rx="1.893" ry="1.643" transform="rotate(-73.892 28.054 248.407)"/><path class="cls-11" d="M33.596 247.484h45.29v5.032h-45.29z"/><path class="cls-13" d="M33.596 250h45.29v2.516h-45.29z"/><rect class="cls-11" x="29.983" y="243.807" width="4.903" height="12.387" rx="2.452"/><path class="cls-13" d="M32.435 251.871a2.459 2.459 0 0 1-2.452-2.452v4.323a2.452 2.452 0 1 0 4.9 0v-4.323a2.458 2.458 0 0 1-2.448 2.452Zm49.032 4.029-4.677-.725c-1.01-.156-1.775-1.375-1.775-2.828v-4.119c0-1.453.765-2.672 1.775-2.829l4.677-.725Z"/><path class="cls-14" d="M75.015 248.963v3.387c0 1.453.765 2.672 1.775 2.828l4.677.725v-3.387l-4.677-.725c-1.01-.156-1.775-1.376-1.775-2.828Z"/><path class="cls-8" d="M99.051 208.052a73.983 73.983 0 0 0-9.84 21.15l-1.5.62a32.565 32.565 0 0 1-2.67 4.27c-.15.2-.3.4-.46.6q-.555.735-1.2 1.5c-.25.31-.52.62-.8.93-.55.63-1.15 1.27-1.78 1.92-.68.7-1.41 1.41-2.18 2.13-.65.61-1.33 1.23-2.05 1.84-.78.69-1.6 1.37-2.46 2.06-.34.28-.7.57-1.07.85-.27.21-.53.42-.81.64-.39.29-.79.6-1.19.9-.13.1-.27.2-.4.3-.81.61-1.66 1.22-2.53 1.84a.55.55 0 0 0-.09.07c-.16.11-.31.22-.47.33h-.01c-.55.39-1.12.77-1.69 1.17-.68.46-1.33.91-1.96 1.37-2.16 1.53-4.06 3-5.73 4.42-11.17 9.41-12.25 16.02-11.89 19.15v.02c.02.16.04.31.07.45a.5.5 0 0 1 .02.12 4.317 4.317 0 0 0 .11.48q.1.33.18.54c.04.1.07.18.1.24.06.13.1.2.1.2a6.1 6.1 0 0 1 7.45 5.94c0 .21-.01.42-.03.62l-.03.23-.06.37c-.02.1-.05.19-.07.29s-.05.2-.08.29a1.688 1.688 0 0 1-.08.24c-.01.03-.02.05-.03.08-.03.08-.06.16-.09.23a3.778 3.778 0 0 1-.17.35 1.417 1.417 0 0 1-.08.18c-.07.13-.14.25-.22.37a1.48 1.48 0 0 0-.08.13c-.09.13-.18.26-.28.38-.02.03-.04.05-.06.08-.11.13-.22.26-.34.38l-.09.09c-.11.12-.23.22-.35.33l-.02.02a5.677 5.677 0 0 1-.91.63 1.819 1.819 0 0 1-.31.16.313.313 0 0 1-.1.05 3.294 3.294 0 0 1-.39.17.59.59 0 0 0-.08.04 5.467 5.467 0 0 1-1.46.35c-.18.01-.36.03-.54.03a.66.66 0 0 1-.14.01c-3.55 0-6.8-3.54-8.59-6.29a17.187 17.187 0 0 1-2.88-10.29c.35-6.11 3.66-11.76 7.34-16.47a74 74 0 0 1 6.43-7.15c1.57-1.56 3.2-3.06 4.86-4.54.92-.82 1.85-1.63 2.79-2.42 1.44-1.26 2.89-2.5 4.34-3.74 0 0 5.37-4.34 7.14-9.69 1.64-4.93 12.92-34.74 35.87-29.79a71.8 71.8 0 0 0-6.46 8.23Z"/><path class="cls-9" d="M99.051 208.052a73.983 73.983 0 0 0-9.84 21.15l-1.5.62a32.565 32.565 0 0 1-2.67 4.27c-.15.2-.3.4-.46.6q-.555.735-1.2 1.5c-.25.31-.52.62-.8.93-.56.63-1.15 1.27-1.78 1.92-.68.7-1.41 1.41-2.18 2.13-.65.6-1.33 1.22-2.05 1.84-.78.68-1.6 1.36-2.46 2.06-.34.28-.7.57-1.07.85-.27.21-.53.42-.81.64-.39.29-.79.6-1.19.9-.13.1-.27.2-.4.3s-.27.2-.41.3c-.46.34-.93.68-1.41 1.03-.24.17-.47.34-.71.51a.55.55 0 0 0-.09.07c-.16.1-.32.22-.48.33-.55.39-1.12.77-1.69 1.17-.68.46-1.33.91-1.96 1.37-2.16 1.53-4.06 3-5.73 4.42-11.17 9.41-12.25 16.02-11.89 19.15v.02c.02.16.04.31.07.45a.5.5 0 0 1 .02.12 4.317 4.317 0 0 0 .11.48q.1.33.18.54c.04.1.07.18.1.24.06.13.1.2.1.2a6.1 6.1 0 0 1 7.45 5.94c0 .21-.01.42-.03.62l-.03.23-.06.37c-.02.1-.05.19-.07.29s-.05.2-.08.29a1.688 1.688 0 0 1-.08.24c-.01.03-.02.05-.03.08-.03.08-.06.16-.09.23a3.778 3.778 0 0 1-.17.35 1.417 1.417 0 0 1-.08.18c-.07.13-.14.25-.22.37a1.48 1.48 0 0 0-.08.13c-.09.13-.18.26-.28.38-.02.03-.04.05-.06.08-.11.13-.22.26-.34.38-.01.02-.03.03-.04.05a.176.176 0 0 1-.05.04c-.11.12-.23.22-.35.33l-.02.02a5.677 5.677 0 0 1-.91.63 1.819 1.819 0 0 1-.31.16.313.313 0 0 1-.1.05 3.294 3.294 0 0 1-.39.17.59.59 0 0 0-.08.04 6.355 6.355 0 0 1-1.46.35c-.18.01-.36.03-.54.03a6.544 6.544 0 0 0 1.13-4.02c-.15-3.28-1.65-5.97-4.54-6.19a4.97 4.97 0 0 0-.67-.01c-.46.02 0 0-.43.12a2.094 2.094 0 0 1-.15-.21c-.96-1.4-5.64-10.04 11.69-25.34 1.2-1.07 2.51-2.16 3.93-3.29.53-.42 1.05-.84 1.56-1.25 1.06-.86 2.06-1.7 3.02-2.54q3.855-3.315 6.77-6.39a39.674 39.674 0 0 0 6.7-7.43c1.839-3 5.58-22.12 21.69-25.59Z"/><path class="cls-10" d="M44.948 282.847c-1.161-3.678 1.906-4.683 1.906-4.683a5.587 5.587 0 0 1-.579-2.055c-4.892 3.007-1.327 6.738-1.327 6.738Z"/><path class="cls-11" d="M92.334 250c0-28.787 14.545-53.863 36.063-67.044a70.664 70.664 0 0 0 0 134.089C106.879 303.863 92.334 278.787 92.334 250Z"/><path class="cls-13" d="M86.321 249.994c0 29.81 17.175 55.434 41.811 66.882-21.372-13.226-35.8-38.208-35.8-66.876 0-28.7 14.458-53.706 35.869-66.92-24.673 11.431-41.88 37.075-41.88 66.914Z"/><path class="cls-8" d="M222.814 291.952a71.8 71.8 0 0 1-6.46 8.23c22.96 4.95 34.24-24.86 35.88-29.79 1.77-5.35 7.14-9.69 7.14-9.69 1.45-1.24 2.9-2.48 4.34-3.74.93-.79 1.86-1.6 2.78-2.42 1.66-1.48 3.29-2.98 4.87-4.54a72.831 72.831 0 0 0 6.43-7.15c3.68-4.71 6.99-10.36 7.34-16.47a17.217 17.217 0 0 0-2.88-10.3c-1.79-2.74-5.04-6.28-8.59-6.28a.66.66 0 0 0-.14.01h-.08a1.087 1.087 0 0 0-.18.01 2.635 2.635 0 0 0-.28.02c-.17.02-.35.05-.52.08-.14.03-.28.06-.42.1l-.1.03c-.13.04-.26.08-.38.13a2.388 2.388 0 0 0-.37.15 3.418 3.418 0 0 0-.43.21 4.122 4.122 0 0 0-.45.27 4.832 4.832 0 0 0-.58.43c-.01.01-.01.01-.02.01-.12.12-.24.23-.35.34-.09.09-.17.18-.26.27-.06.07-.12.13-.17.2a.555.555 0 0 0-.06.08c-.1.12-.19.25-.28.38-.03.04-.05.09-.08.13-.08.12-.15.24-.22.37a.886.886 0 0 0-.08.17c-.06.12-.12.23-.17.35-.03.08-.06.16-.09.23a.88.88 0 0 0-.05.15l-.06.18c-.03.09-.05.19-.08.28s-.05.2-.07.3c-.02.12-.04.24-.06.37l-.03.22c-.02.21-.03.41-.03.62a6.066 6.066 0 0 0 7.45 5.94s.04.07.1.2c.03.06.06.14.1.24a1.888 1.888 0 0 1 .06.18 1.293 1.293 0 0 1 .07.21c.01.05.03.09.04.14a4.25 4.25 0 0 1 .14.61c.03.15.05.31.07.48.36 3.14-.73 9.75-11.89 19.15a82.127 82.127 0 0 1-5.73 4.42c-.63.46-1.28.91-1.96 1.37-.57.4-1.14.78-1.69 1.17h-.01c-.19.13-.38.26-.56.39a2.307 2.307 0 0 1-.19.14c-.17.13-.34.26-.52.38-.43.3-.84.6-1.25.9-.06.04-.11.08-.16.12-.14.1-.28.2-.41.3s-.27.2-.4.31c-.32.24-.65.48-.96.72-.08.06-.15.12-.23.18-.14.11-.28.21-.41.32-.33.24-.64.49-.95.74a76.15 76.15 0 0 0-6.85 6.09q-1.65 1.65-2.95 3.23l-.7.85c-.51.65-1 1.29-1.44 1.93-.21.3-.41.59-.61.89 0 .01-.01.01-.02.02-.19.3-.37.6-.55.89-.37.59-.7 1.19-1 1.77l-1.5.62a74.065 74.065 0 0 1-9.85 21.16Z"/><path class="cls-9" d="M232.664 270.792a74.065 74.065 0 0 1-9.85 21.16c16.12-3.46 19.86-22.6 21.7-25.6a39.674 39.674 0 0 1 6.7-7.43q2.925-3.06 6.77-6.38c.96-.84 1.96-1.68 3.02-2.54.51-.41 1.03-.83 1.56-1.25q2.145-1.695 3.94-3.29c17.31-15.3 12.64-23.94 11.68-25.34a2.094 2.094 0 0 0-.15-.21c-.43.12.03.1-.43.12a5.119 5.119 0 0 1-.68-.01c-2.89-.24-4.38-2.93-4.53-6.19a6.563 6.563 0 0 1 1.13-4.02v-.01a.22.22 0 0 0-.08.01 1.087 1.087 0 0 0-.18.01 2.635 2.635 0 0 0-.28.02c-.17.02-.35.05-.52.08-.14.03-.28.06-.42.1l-.1.03c-.13.04-.26.08-.38.13a2.388 2.388 0 0 0-.37.15 3.418 3.418 0 0 0-.43.21 4.122 4.122 0 0 0-.45.27 4.832 4.832 0 0 0-.58.43c-.01.01-.01.01-.02.01-.12.12-.24.23-.35.34a.176.176 0 0 0-.05.04l-.04.04c-.06.06-.12.13-.17.19s-.12.13-.17.2a.555.555 0 0 0-.06.08c-.1.12-.19.25-.28.38-.03.04-.05.09-.08.13-.08.12-.15.24-.22.37a.886.886 0 0 0-.08.17c-.06.12-.12.23-.17.35-.03.08-.06.16-.09.23a.88.88 0 0 0-.05.15l-.06.18c-.03.09-.05.19-.08.28s-.05.2-.07.3c-.02.12-.04.24-.06.37l-.03.22c-.02.21-.03.41-.03.62a6.066 6.066 0 0 0 7.45 5.94s.04.07.1.2c.03.06.06.14.1.24a1.888 1.888 0 0 1 .06.18 1.293 1.293 0 0 1 .07.21c.01.05.03.09.04.14a4.25 4.25 0 0 1 .14.61c.03.15.05.31.07.48.36 3.14-.73 9.75-11.89 19.15a82.127 82.127 0 0 1-5.73 4.42c-.63.46-1.28.91-1.96 1.37-.57.4-1.14.78-1.69 1.17h-.01c-.19.13-.38.26-.56.39a2.307 2.307 0 0 1-.19.14c-.17.13-.34.26-.52.38-.43.3-.84.6-1.25.9-.06.04-.11.08-.16.12-.14.1-.28.2-.41.3s-.27.2-.4.31c-.32.24-.65.48-.96.72-.08.06-.15.12-.23.18-.14.11-.28.21-.41.32s-.27.21-.4.32c-.19.14-.37.28-.55.42s-.35.29-.52.43a75.676 75.676 0 0 0-6.33 5.66 52.825 52.825 0 0 0-3.65 4.08c-.51.65-1 1.29-1.44 1.93-.21.3-.41.59-.61.89 0 .01-.01.01-.02.02-.19.3-.37.6-.55.89-.37.59-.7 1.19-1 1.77Z"/><path class="cls-10" d="M276.927 217.153c1.161 3.678-1.906 4.683-1.906 4.683a5.587 5.587 0 0 1 .579 2.055c4.892-3.007 1.327-6.738 1.327-6.738Z"/><ellipse class="cls-11" cx="291.634" cy="249.71" rx="4.645" ry="4.032"/><ellipse class="cls-12" cx="293.821" cy="248.408" rx="1.643" ry="1.893" transform="rotate(-16.108 293.825 248.411)"/><path class="cls-11" transform="rotate(-180 265.634 250)" d="M242.989 247.484h45.29v5.032h-45.29z"/><path class="cls-13" d="M242.989 250h45.29v2.516h-45.29z"/><rect class="cls-11" x="286.989" y="243.807" width="4.903" height="12.387" rx="2.452" transform="rotate(180 289.44 250)"/><path class="cls-13" d="M289.441 251.871a2.458 2.458 0 0 0 2.451-2.452v4.323a2.452 2.452 0 1 1-4.9 0v-4.323a2.459 2.459 0 0 0 2.449 2.452Zm-49.033 4.029 4.677-.725c1.01-.156 1.775-1.375 1.775-2.828v-4.119c0-1.453-.765-2.672-1.775-2.829l-4.677-.725Z"/><path class="cls-14" d="M246.86 248.963v3.387c0 1.453-.765 2.672-1.775 2.828l-4.677.725v-3.387l4.677-.725c1.015-.156 1.775-1.376 1.775-2.828Z"/><path class="cls-8" d="M222.824 208.052a73.983 73.983 0 0 1 9.84 21.15l1.5.62a32.565 32.565 0 0 0 2.67 4.27c.15.2.3.4.46.6q.555.735 1.2 1.5c.25.31.52.62.8.93.55.63 1.15 1.27 1.78 1.92.68.7 1.41 1.41 2.18 2.13.65.61 1.33 1.23 2.05 1.84.78.69 1.6 1.37 2.46 2.06.34.28.7.57 1.07.85.27.21.53.42.81.64.39.29.79.6 1.19.9.13.1.27.2.4.3.81.61 1.66 1.22 2.53 1.84a.55.55 0 0 1 .09.07c.16.11.31.22.47.33h.01c.55.39 1.12.77 1.69 1.17.68.46 1.33.91 1.96 1.37 2.16 1.53 4.06 3 5.73 4.42 11.17 9.41 12.25 16.02 11.89 19.15v.02c-.02.16-.04.31-.07.45a.5.5 0 0 0-.02.12 4.317 4.317 0 0 1-.11.48q-.105.33-.18.54c-.04.1-.07.18-.1.24-.06.13-.1.2-.1.2a6.1 6.1 0 0 0-7.45 5.94c0 .21.01.42.03.62l.03.23.06.37c.02.1.05.19.07.29s.05.2.08.29a1.688 1.688 0 0 0 .08.24c.01.03.02.05.03.08.03.08.06.16.09.23a3.778 3.778 0 0 0 .17.35 1.417 1.417 0 0 0 .08.18c.07.13.14.25.22.37a1.48 1.48 0 0 1 .08.13c.09.13.18.26.28.38.02.03.04.05.06.08.11.13.22.26.34.38l.09.09c.11.12.23.22.35.33l.02.02a5.677 5.677 0 0 0 .91.63 1.819 1.819 0 0 0 .31.16.313.313 0 0 0 .1.05 3.294 3.294 0 0 0 .39.17.59.59 0 0 1 .08.04 5.467 5.467 0 0 0 1.46.35c.18.01.36.03.54.03a.66.66 0 0 0 .14.01c3.55 0 6.8-3.54 8.59-6.29a17.187 17.187 0 0 0 2.88-10.29c-.35-6.11-3.66-11.76-7.34-16.47a74 74 0 0 0-6.43-7.15c-1.57-1.56-3.2-3.06-4.86-4.54-.92-.82-1.85-1.63-2.79-2.42-1.44-1.26-2.89-2.5-4.34-3.74 0 0-5.37-4.34-7.14-9.69-1.64-4.93-12.92-34.74-35.87-29.79a71.8 71.8 0 0 1 6.46 8.23Z"/><path class="cls-9" d="M222.824 208.052a73.983 73.983 0 0 1 9.84 21.15l1.5.62a32.565 32.565 0 0 0 2.67 4.27c.15.2.3.4.46.6q.555.735 1.2 1.5c.25.31.52.62.8.93.56.63 1.15 1.27 1.78 1.92.68.7 1.41 1.41 2.18 2.13.65.6 1.33 1.22 2.05 1.84.78.68 1.6 1.36 2.46 2.06.34.28.7.57 1.07.85.27.21.53.42.81.64.39.29.79.6 1.19.9.13.1.27.2.4.3s.27.2.41.3c.46.34.93.68 1.41 1.03.24.17.47.34.71.51a.55.55 0 0 1 .09.07c.16.1.32.22.48.33.55.39 1.12.77 1.69 1.17.68.46 1.33.91 1.96 1.37 2.16 1.53 4.06 3 5.73 4.42 11.17 9.41 12.25 16.02 11.89 19.15v.02c-.02.16-.04.31-.07.45a.5.5 0 0 0-.02.12 4.317 4.317 0 0 1-.11.48q-.105.33-.18.54c-.04.1-.07.18-.1.24-.06.13-.1.2-.1.2a6.1 6.1 0 0 0-7.45 5.94c0 .21.01.42.03.62l.03.23.06.37c.02.1.05.19.07.29s.05.2.08.29a1.688 1.688 0 0 0 .08.24c.01.03.02.05.03.08.03.08.06.16.09.23a3.778 3.778 0 0 0 .17.35 1.417 1.417 0 0 0 .08.18c.07.13.14.25.22.37a1.48 1.48 0 0 1 .08.13c.09.13.18.26.28.38.02.03.04.05.06.08.11.13.22.26.34.38.01.02.03.03.04.05a.176.176 0 0 0 .05.04c.11.12.23.22.35.33l.02.02a5.677 5.677 0 0 0 .91.63 1.819 1.819 0 0 0 .31.16.313.313 0 0 0 .1.05 3.294 3.294 0 0 0 .39.17.59.59 0 0 1 .08.04 6.355 6.355 0 0 0 1.46.35c.18.01.36.03.54.03a6.544 6.544 0 0 1-1.13-4.02c.15-3.28 1.65-5.97 4.54-6.19a4.97 4.97 0 0 1 .67-.01c.46.02 0 0 .43.12a2.094 2.094 0 0 0 .15-.21c.96-1.4 5.64-10.04-11.69-25.34-1.2-1.07-2.51-2.16-3.93-3.29-.53-.42-1.05-.84-1.56-1.25-1.06-.86-2.06-1.7-3.02-2.54q-3.855-3.315-6.77-6.39a39.674 39.674 0 0 1-6.7-7.43c-1.84-3-5.58-22.12-21.69-25.59Z"/><path class="cls-10" d="M276.927 282.847c1.161-3.678-1.906-4.683-1.906-4.683a5.587 5.587 0 0 0 .579-2.055c4.892 3.007 1.327 6.738 1.327 6.738Z"/><path class="cls-11" d="M229.541 250c0-28.787-14.545-53.863-36.063-67.044a70.664 70.664 0 0 1 0 134.089C215 303.863 229.541 278.787 229.541 250Z"/><path class="cls-13" d="M235.554 249.994c0 29.81-17.175 55.434-41.811 66.882 21.372-13.226 35.8-38.208 35.8-66.876 0-28.7-14.458-53.706-35.868-66.92 24.672 11.431 41.879 37.075 41.879 66.914Z"/></svg>