<svg id="Layer_1" data-name="Layer 1" xmlns="http://www.w3.org/2000/svg" viewBox="0 0 321.875 500"><defs><style>.cls-2{fill:#d90000}.cls-3{fill:#05703d}.cls-4{fill:#f9c9af}.cls-5{fill:#099bdb}.cls-6{fill:#ffb200}.cls-7{fill:#ff7f00}.cls-8{fill:none}.cls-9{fill:#a50404}</style></defs><path style="fill:#fff" d="M0 0h321.875v500H0z"/><path d="M268.453 481.248H45.383a26.66 26.66 0 0 1-26.63-26.63V125.1a1.25 1.25 0 0 1 2.5 0v329.52a24.157 24.157 0 0 0 24.13 24.13h223.07a1.25 1.25 0 0 1 0 2.5Zm33.42-105.091a1.249 1.249 0 0 1-1.25-1.25V45.388a24.162 24.162 0 0 0-24.13-24.14H53.423a1.25 1.25 0 0 1 0-2.5h223.07a26.665 26.665 0 0 1 26.63 26.64v329.519a1.25 1.25 0 0 1-1.25 1.25Z"/><path class="cls-2" d="M252.044 141.438c-.49-3.024-1.8-7.6-5.3-10.209-2.778-2.071-6.5-2.581-11.073-1.523 3.845 1.416 11.629 4.958 16.373 11.732Z"/><path class="cls-3" d="M248.743 156.5a.706.706 0 0 1-.634.594c-.534.044-1.068.065-1.6.065-6.46 0-12.327-3.128-14.536-4.461a55.118 55.118 0 0 1-.706 4 38.725 38.725 0 0 0 9.938 4.931.719.719 0 0 1 .2 1.277 11.2 11.2 0 0 1-6.066 1.618 15.389 15.389 0 0 1-5.931-1.291 56.292 56.292 0 0 1-1.79 4.563 9.587 9.587 0 0 0 10.3 4.435c.237-.072.464-.189.7-.269a.693.693 0 0 1 .3-.473.648.648 0 0 1 .765.063c7.754-3.066 14.465-10.332 17.356-19.086 2.544-7.7 1.653-15.132-2.509-20.932-6.4-8.922-18.764-10.748-28.065-8.023a38.171 38.171 0 0 1 4.81 11.565c19.702 6.096 17.492 21.276 17.468 21.424Zm-15.73-27.536c6.068-1.945 10.97-1.573 14.568 1.116 6.086 4.545 6.156 13.961 6.156 14.36a.707.707 0 0 1-.534.692.673.673 0 0 1-.166.02.7.7 0 0 1-.621-.382c-5.384-10.528-19.234-14.4-19.374-14.437a.717.717 0 0 1-.029-1.369Z"/><path class="cls-2" d="M239.14 162.452a41.942 41.942 0 0 1-8.237-4.28q-.459 1.88-1.041 3.719a12.448 12.448 0 0 0 9.278.561Z"/><path class="cls-4" d="M244.287 243.053c-.616.044-.908.6-1.059 1.08a11.8 11.8 0 0 1 1.542-1.163c-.17.03-.37.075-.483.083Z"/><path class="cls-5" d="m69.435 75.2-7.468-7.246a.952.952 0 0 0-1.357.035l-4.279 4.576a.985.985 0 0 0 .033 1.379l7.467 7.246a1.127 1.127 0 0 0 .685.269.945.945 0 0 0 .673-.3l4.278-4.574a.991.991 0 0 0-.032-1.385Z"/><path class="cls-6" d="M101.706 164.137a18.391 18.391 0 0 1 12.4-11.466c.01 0 .013-.016.024-.02s.023.007.036 0a22.2 22.2 0 0 1 3.1-.652c-1.483-1.492-3.95-4.328-4.858-7.473-.219-.759-.448-1.785-.707-2.957-.925-4.171-2.322-10.474-5.222-12.331a3.247 3.247 0 0 0-2.594-.416c-.071.019-.13-.027-.2-.032-.075 1.689-.152 2.925-.16 3.057a.712.712 0 0 1-.319.552 11.318 11.318 0 0 1-6.23 1.557 29.809 29.809 0 0 1-9.148-1.7.709.709 0 0 1-.423-.441c-.135-.4-.344-.921-.594-1.5a5.573 5.573 0 0 0-2.845 2.034c-1.052 1.474-1.386 3.511-.989 6.062 1.294 8.325.549 14.318-2.351 18.668 4.145-.295 15.074-.292 21.08 7.058Z"/><path class="cls-4" d="M102.151 131.389a105.747 105.747 0 0 0 .154-11.751c-.074-.726-.121-1.657-.171-2.706l-.01-.191c-.2-4.138-.495-10.388-2.856-14.7a52.146 52.146 0 0 1-4.533-10.894l-.21-.692a2.379 2.379 0 0 0-1.9-1.68c-.752 0-1.175.875-1.4 1.608a9.3 9.3 0 0 0 .219 5.621 6.264 6.264 0 0 1 .338 1.7 9.043 9.043 0 0 1-.467 2.094 16.884 16.884 0 0 0-.923 6.4.712.712 0 0 1-.629.78.7.7 0 0 1-.764-.641c-.036-.376-.013-.735-.014-1.1a35.574 35.574 0 0 0-5.45-2.16.715.715 0 0 1-.509-.866.708.708 0 0 1 .85-.517 22.872 22.872 0 0 1 2.732.938L75.6 92.3a2.451 2.451 0 0 0-.856 1.412c-.128.719.532 5.988.927 9.135.27 2.159.5 4.02.568 4.881.1 1.374 1.515 3.435 2.88 5.431.753 1.1 1.533 2.24 2.171 3.361 1.486 2.606 6.04 11.008 7.323 14.5 1.614.548 9.212 2.887 13.538.369Z"/><path class="cls-2" d="M247.423 155.715c.208-2.656.038-13.779-15.807-19.017a47.994 47.994 0 0 1 .538 14.438c1.488.937 8.213 4.885 15.269 4.579Z"/><path class="cls-6" d="M89.97 99.392a9.28 9.28 0 0 0 .409-1.7A5.756 5.756 0 0 0 90.1 96.4a24.04 24.04 0 0 1-.335-1.277L70.4 77.65l-3.9 4.165 22.625 21.246a27.236 27.236 0 0 1 .845-3.669Z"/><path class="cls-4" d="M102.135 104.336c.581-.594 1.229-5.651.716-7.067a3.23 3.23 0 0 0-2-1.843 50.161 50.161 0 0 1-.255 6.145 18.314 18.314 0 0 1 1.194 2.9 1.08 1.08 0 0 0 .345-.135Zm-2.98-11.048c-.369-.829-1.693-1.209-2.706-1.34a49.07 49.07 0 0 0 2.931 7.26c.147-2.376.168-5.036-.225-5.92ZM86.65 87.556a.687.687 0 0 1 .976-.144.723.723 0 0 1 .147.995 4.942 4.942 0 0 0-.73 2.361l2.438 2.2a9.27 9.27 0 0 1 .4-3 4.138 4.138 0 0 1 1.177-2 12.124 12.124 0 0 0-3.483-3.448c-2.163-.285-4.495.929-5.646 1.64l3.836 3.463a6.134 6.134 0 0 1 .885-2.067Z"/><path class="cls-5" d="M71.01 75.285c5.66-5.961 20.31-6.478 23.972-6.508-3.274-22.945-20.06-25.435-24.165-25.7 2.965 14.163-5.123 22.319-7.412 24.3l7 6.787a2.347 2.347 0 0 1 .605 1.121Z"/><path class="cls-2" d="m59.413 67.197-2.68-7.595-11.945-2.144 3.259 11.122 7.619 2.625 3.747-4.008z"/><path class="cls-5" d="m44.933 82.113.345 11.022 10.044.149a32.347 32.347 0 0 1 6.838-11.75l-5.985-5.807c-1.404 1.405-6.027 5.662-11.242 6.386Z"/><path class="cls-4" d="M250.281 244.7a1.382 1.382 0 0 0 .511-1.253c-.133-.712-1.139-.91-1.81-.961-.667.235-3.978 1.467-5.577 3.509-.011.014-.031.012-.043.025.166.836.363 1.918.492 2.946a2.209 2.209 0 0 1-1.418 2.391 3.464 3.464 0 0 1-1.329.261 3.849 3.849 0 0 0 .878-.022 11.042 11.042 0 0 0 3.757-2.776 14.514 14.514 0 0 1 4.539-4.12Zm1.695 6.83a11.345 11.345 0 0 1-.99 1.16c-.047.048-.093.074-.141.118a7.708 7.708 0 0 0 2.809.773c1.631-.255 2.3-1.03 3.313-2.2.329-.383.682-.792 1.1-1.221a6.121 6.121 0 0 1 2.091-1.592c.136-.058.136-.058.187-.128a2.244 2.244 0 0 0 .36-.97 1.349 1.349 0 0 0-.616-.97 5.381 5.381 0 0 0-2.813.263c-.354 1.576-2.275 2.643-3.712 3.309a4.219 4.219 0 0 0-1.588 1.458Zm1.01-2.758c1.827-.847 2.818-1.643 2.946-2.365a1.42 1.42 0 0 0-.251-1.088 1.787 1.787 0 0 0-1.186-.717 4.125 4.125 0 0 0-2.1.461c-.221.086-.441.172-.661.251-.041.014-.078-.014-.12-.008a2.152 2.152 0 0 1-.753.69 13.151 13.151 0 0 0-4 3.679 8.025 8.025 0 0 1-1.5 1.5 2.877 2.877 0 0 0 2.85 1.687 5.545 5.545 0 0 0 1.787-1.19 10.275 10.275 0 0 0 .871-1.026 5.528 5.528 0 0 1 2.117-1.874Z"/><path class="cls-6" d="M259.317 206.55c-10.635 6.385-18.124 5.408-21.555 4.319a22.726 22.726 0 0 1 2.221 5c.34 1.312-.093 2.765-.594 4.445-.654 2.2-1.368 4.671-.529 7.385 6.449-2.372 16.875-2.448 21.022 4.539 1.365-.9 4.837-3.348 5.767-5.456.947-2.144 3.624-4.17 5.185-5.217-6.275-3.204-10.383-12.258-11.517-15.015Z"/><path class="cls-4" d="m239.286 229.057 2.143 1.92.109-.18a.689.689 0 0 1 .964-.23.72.72 0 0 1 .226.982c-.021.034-2.129 3.5-2.684 4.723-.073.16-.177.369-.3.617-.863 1.72-2.659 5.3-1.9 9.219a25.782 25.782 0 0 0 2.016 3.6 1.893 1.893 0 0 0 2.039.337.786.786 0 0 0 .57-.894c-.245-1.949-.764-4.212-.769-4.235a.7.7 0 0 1-.017-.219c.076-1 .7-2.935 2.512-3.061 1.7-.121 8.134-2.511 10.647-7.2a.7.7 0 0 1 .95-.286.72.72 0 0 1 .279.968 15.442 15.442 0 0 1-6.424 6.021c1.893.315 2.4 1.384 2.525 2.042a2.4 2.4 0 0 1 0 .448 4.933 4.933 0 0 1 2.52-.439c.017 0 .03.015.047.017a.67.67 0 0 1 .146-.281c3.912-3.3 4.081-8.569 4.078-9.516-3.548-6.789-13.563-6.634-19.677-4.353Z"/><path class="cls-6" d="M182.088 208.005c-9.947-2.228-34.323-6.745-46.257-.627-.372.4-2.659 3.175-2.856 10.916a42.027 42.027 0 0 1 14.791-2.3 76.384 76.384 0 0 1 19.3 2.679c21.768 5.705 43.511 1.3 46.094.153a14.362 14.362 0 0 0 1.007-10.716c-3.198.54-18.753 2.89-32.079-.105Z"/><path class="cls-5" d="M259.385 148.839a30.249 30.249 0 0 1-1.012 4.088c-2.972 8.992-9.817 16.5-17.792 19.808 1.772 2.606 6.689 9.5 11.337 12.917a.721.721 0 0 1 .221.889 46.639 46.639 0 0 0-3.579 14.359 37.067 37.067 0 0 1-1.847 9 33.626 33.626 0 0 0 12.587-5 .685.685 0 0 1 .592-.068.711.711 0 0 1 .428.423 43.921 43.921 0 0 0 5.782 10.3c5.574-9.288 9.4-20.635 10.808-25.183a11.145 11.145 0 0 0 .212-5.656c-3.603-16.543-14.734-31.943-17.737-35.877Z"/><path class="cls-6" d="M238.5 236.239c.113-.227.209-.417.277-.566.36-.794 1.27-2.367 1.949-3.515-.054-.027-.118-.021-.166-.064l-24.5-21.939a15.6 15.6 0 0 1-.687 7.039l22.67 19.983c.165-.356.323-.677.457-.938Z"/><path class="cls-4" d="m236.455 246.063-1.211.372a.673.673 0 0 1-.2.03.7.7 0 0 1-.67-.506.714.714 0 0 1 .468-.888l1.469-.452a15.252 15.252 0 0 1 1.144-6.075l-3.81-3.358c-.728 1.256-2.269 4.709-2.232 11.511a2.985 2.985 0 0 0 1.288 2.449c2.315 1.587 3.2 1.627 3.427 1.608a5.553 5.553 0 0 0 2.186-.8 29.165 29.165 0 0 1-1.8-3.408c-.031-.167-.033-.322-.059-.483Z"/><path class="cls-5" d="M154.541 174.6a.689.689 0 0 1 .411-.284 78.46 78.46 0 0 0-24.672-22.133c-.748.5-6.217 4.263-9.256 9.037a21.113 21.113 0 0 1 2.935 5.484.716.716 0 0 1-.416.915.683.683 0 0 1-.241.044.7.7 0 0 1-.658-.467 21.055 21.055 0 0 0-5.746-8.46c-.455-.441-.842-.817-1.127-1.151a11.468 11.468 0 0 1-1.887-3.371 16.577 16.577 0 0 0-11.233 11.6.706.706 0 0 1-.547.548.718.718 0 0 1-.138.014.7.7 0 0 1-.575-.306c-2.634-3.874-6.759-5.81-10.744-6.763 1.338 4.674 7.006 22.783 18.055 36.535a11.393 11.393 0 0 0 13.417 3.324c8.581-3.747 24.204-11.924 32.422-24.566Z"/><path class="cls-2" d="M182.389 206.613c10.774 2.42 23.05 1.28 28.8.5-.234-4.914 1.469-15.158 2.306-19.82a31.634 31.634 0 0 0-4.126 5.679.7.7 0 0 1-.957.26.721.721 0 0 1-.252-.975 37.969 37.969 0 0 1 6.284-8.058c.73-.771 1.49-1.569 2.29-2.463a76.83 76.83 0 0 0 3.214-3.817c12.653-16.029 16.543-43.109.98-59.212a68.279 68.279 0 0 1-26.146 5.057A67.494 67.494 0 0 1 175 120.808c10.083 8.28 13.965 22.915 8.957 35.8a31.921 31.921 0 0 1-25.657 19.767 2.7 2.7 0 0 1-.37.024 2.876 2.876 0 0 1-2.21-1.088c-.012.025 0 .054-.014.078a53.292 53.292 0 0 1-11.053 11.961c-.37.982-3 8.015-5.985 17.372 12.448-4.017 32.31-.667 43.721 1.891Z"/><path class="cls-2" d="M174.45 158.713c2.874-3.349 3.9-8.144 3.071-14.283-1.421 4.586-5.388 12.886-16.282 19.709 3.393-.148 9.466-1.06 13.211-5.426Z"/><path class="cls-6" d="M220.391 117.4c-.262-3.649-3.555-7.455-4.688-8.664-13.327 8.258-37.094 2.966-40.564 2.131a22.2 22.2 0 0 0-4.13 7.083 67.807 67.807 0 0 0 49.382-.55Z"/><path class="cls-2" d="M168.4 127.791c-3.5.314-19.585 3.036-19.6 26.6 4.052-.807 21.7-5.537 19.6-26.6Z"/><path class="cls-7" d="M218.255 72.587a20.014 20.014 0 0 0 .787-12.657l-.27-1.075 1.072.2a8.817 8.817 0 0 0 1.063.1c-1.219-1.1-2.821-2.774-3.25-4.347-.672-2.465-4.55-15.024-14.939-20.19-6.351-3.164-13.957-2.938-22.6.638 2.693 6.081 11.504 20.683 38.137 37.331Z"/><path class="cls-2" d="M217.049 80.772c3.05-2.087 2.93-4.71 2.806-5.527-34.055-20.623-40.894-38.191-42.023-41.987a20.209 20.209 0 0 0-5.237 2.355c7.76 23.017 40.627 42.907 44.454 45.159Z"/><path class="cls-7" d="m166.414 46.853-.113.683a11.071 11.071 0 0 0 .735 5.788c1.145-1.125 3.6-3.316 5.949-4.022l1.026-.302-.133 1.081a13.663 13.663 0 0 0 1.61 7.752 7.075 7.075 0 0 1 .828-1.021l.983-1 .2 1.4c.013.091 1.324 8.632 7.174 13.3a8.19 8.19 0 0 1 .728-3.767l.754-1.439.525 1.541a22.527 22.527 0 0 0 3.412 6.079 7.467 7.467 0 0 1 1.256 6.336c1.06-.409 2.5-1.2 2.824-2.576l.668-2.862.692 2.854c.02.082 1.845 7.427 6.193 11.417v-2.91l1.292 2.082a16.757 16.757 0 0 0 6.21 5.526 12.98 12.98 0 0 1 .216-4.283l.306-1.311.892 1a16.591 16.591 0 0 0 1.434 1.381 22.955 22.955 0 0 1 1.928-8.975c-8.432-5.2-33.786-22.145-41.932-42.372a38.137 38.137 0 0 1-14.426 4.719 24.392 24.392 0 0 0 8.1 3.77Z"/><path class="cls-2" d="M155.122 121.97a31.112 31.112 0 0 0-2-.065c-5.544 0-9.729 1.549-12.481 4.624-3.756 4.2-4.073 10.425-3.785 14.5 3.244-11.97 13.012-17.111 18.266-19.059Z"/><path class="cls-4" d="M186.149 94.609a.717.717 0 0 1-.432.908 47.711 47.711 0 0 1-6.821 1.847c.5 2.114 1.725 8.414-.3 12.767 7.221 1.377 23.953 3.689 34.707-1.7a.69.69 0 0 1-.247-.245 29.466 29.466 0 0 1-3.631-13.786 17.1 17.1 0 0 1-6.3-4.651v1.2l-1.1-.783c-4.162-2.956-6.435-8.61-7.357-11.442a8.237 8.237 0 0 1-4.224 2.3l-1.277.251.5-1.226c.014-.037 1.441-3.634-.651-6.211a23.174 23.174 0 0 1-2.876-4.648 11.009 11.009 0 0 0 .037 2.664l.246 1.555-1.31-.838c-5.749-3.681-7.955-10.511-8.684-13.589a4.157 4.157 0 0 0-.234.46l-.456 1.13-.739-.963a13.963 13.963 0 0 1-2.578-8.561 20.336 20.336 0 0 0-5.02 3.924l-.6.652-.492-.738a11.242 11.242 0 0 1-1.469-6.916 18.106 18.106 0 0 1-2.124-.7c-.831.727-3.338 3.206-3 6.493.462 4.549-1.892 15.629-6.092 21.621a1.416 1.416 0 0 0 .244 1.857 9.47 9.47 0 0 0 3.706 1.523l.331.083a.713.713 0 0 1 .415.306 12.966 12.966 0 0 1 1.866 5.863 35.416 35.416 0 0 1 5.508.054.713.713 0 0 1-.079 1.42.441.441 0 0 1-.081-.005 35.2 35.2 0 0 0-5.475-.034c-.063.388-.124.779-.2 1.16-.405 2.168-.756 4.041.723 6.025 1.843 2.477 11.26 5.266 24.674.529a.691.691 0 0 1 .892.444Zm-19.26-26.083a2.6 2.6 0 1 1 2.129-2.554 2.37 2.37 0 0 1-2.129 2.554Zm6.875-8.373a.694.694 0 0 1-.972.192c-4.006-2.75-9.922-.71-9.981-.689a.69.69 0 0 1-.89-.439.715.715 0 0 1 .431-.907c.267-.1 6.629-2.3 11.222.851a.725.725 0 0 1 .19.992Z"/><path class="cls-3" d="M129.59 149.531a1.485 1.485 0 0 0 .748 1.036 80.185 80.185 0 0 1 14.344 10.256 81.221 81.221 0 0 1 12.033 13.494 1.475 1.475 0 0 0 1.4.643 30.513 30.513 0 0 0 24.541-18.877c5.3-13.626.216-29.322-11.817-36.512a28.222 28.222 0 0 0-14.49-3.965 27.5 27.5 0 0 0-21.818 10.405c-6.775 8.771-5.712 19.371-4.941 23.52Zm47.306-8.687a.7.7 0 0 1 .653-.64.674.674 0 0 1 .727.55c1.852 8.241.918 14.6-2.778 18.9-4.557 5.308-11.956 5.941-15.238 5.941a19.38 19.38 0 0 1-1.643-.06.7.7 0 0 1-.621-.564.715.715 0 0 1 .349-.77c17.019-9.515 18.538-23.22 18.555-23.357Zm-7.183-13.89c2.982 25.274-21.273 28.953-21.518 28.986a.773.773 0 0 1-.095.007.7.7 0 0 1-.456-.172.715.715 0 0 1-.244-.529c-.423-28.13 21.384-28.914 21.6-28.919a.671.671 0 0 1 .713.627Zm-30.107-1.382c3.925-4.388 10.377-5.948 19.176-4.644a.716.716 0 0 1 .03 1.407c-.19.037-19.008 3.908-21.375 23.056a.708.708 0 0 1-.655.624h-.04a.7.7 0 0 1-.68-.543c-.122-.515-2.928-12.661 3.544-19.9Z"/><path class="cls-4" d="M104.146 106.943c.484.148.673.118.749.078.049-.03.221-.181.348-.828.488-2.481.659-5.554-.323-6.747a1.289 1.289 0 0 0-.527-.388c0 2.122-.384 4.9-1.156 6.062.236.896.641 1.739.909 1.823Z"/><path class="cls-6" d="m103.518 116.575 24.319 22.832a30.058 30.058 0 0 1 2.04-8.075l-25.155-22.7c-.048-.043-.044-.109-.077-.16a3.513 3.513 0 0 1-.9-.16 2.314 2.314 0 0 1-1.23-1.17 59.283 59.283 0 0 1 1.003 9.433Z"/><path class="cls-2" d="M222.482 86.409c1.873 1.353 4.01 1.711 6.273 2.089l1.071.183c1.618.29 3.751 1.251 4.436 3.008a3.475 3.475 0 0 1-.038 2.507 18.243 18.243 0 0 1-1.047 2.149c-1.684 3.131-3.744 6.958-.123 11.788a6.315 6.315 0 0 1 .553-2.233.7.7 0 0 1 .569-.392.8.8 0 0 1 .625.293 4.185 4.185 0 0 0 .387.44c-.627-2.049-.973-5.456.957-10.04.082-.148 2.364-3.72 1.448-6.526a4.694 4.694 0 0 0-3.123-2.836c-.36-.054-10.589-1.949-13.886-7.95a7.464 7.464 0 0 1-1.652 2.185 8.823 8.823 0 0 0 3.55 5.335Z"/><path d="m198.055 218.193-6.576-5.05-8.244 4.23-6.85-5.256-7.929 4.114-7.302-5.799-6.166 3.623-7.539-3.802-6.885 4.348-6.809-3.14.331-2.049 6.329 2.917 6.924-4.371 7.576 3.821 6.409-3.767 7.361 5.847 7.908-4.103 6.855 5.259 8.245-4.229 6.328 4.859 5.275-4.282 4.787 3.343 6.74-4.403 1.094 1.675-7.871 5.141-4.66-3.253-5.331 4.327z"/><path class="cls-6" d="M174.143 112.066a22.784 22.784 0 0 0-2.648 4.666c24.366 8.785 46.592.25 48.733-.392a16.86 16.86 0 0 0-3.608-6.568c-16.627 8.405-37.958 3.486-42.477 2.294Z"/><path d="m175.196 112.936 3.048 3.484 4.442-2.09-7.49-1.394zm10.39 1.742 4.589 2.704 4.258-2.378-8.847-.326zm12.839.513 5.441 1.854 2.72-3.249-8.161 1.395zm12.266-2.201 4.962 1.069.764-3.665-5.726 2.596z"/><path class="cls-2" d="M208.351 249.447c.016-.014.034-.023.05-.035a.729.729 0 0 1 .122-.068.669.669 0 0 1 .272-.063.776.776 0 0 1 .117.013h18.555c-1.963-10.218-13.953-26.074-15.849-28.529a93.128 93.128 0 0 1-21.026 2.217 94.99 94.99 0 0 1-23.877-2.922c-17.4-4.559-28.422-2.03-32.425-.7-.5 1.376-2.72 6.506-10.469 15.254-7.884 8.9-9.727 14.4-10.011 15.38a.7.7 0 0 1-.287.56.562.562 0 0 1-.05.035.692.692 0 0 1-.122.068.67.67 0 0 1-.272.064.778.778 0 0 1-.117-.014H94.408c1.963 10.218 13.953 26.074 15.85 28.529a93.117 93.117 0 0 1 21.025-2.217 95 95 0 0 1 23.878 2.922c17.4 4.559 28.422 2.03 32.424.7.5-1.376 2.72-6.506 10.469-15.254 7.884-8.9 9.727-14.4 10.011-15.38a.7.7 0 0 1 .286-.56ZM69.831 358.562c.491 3.024 1.8 7.6 5.3 10.209 2.778 2.071 6.5 2.581 11.073 1.523-3.845-1.416-11.627-4.958-16.373-11.732Z"/><path class="cls-3" d="M73.133 343.5a.7.7 0 0 1 .633-.594q.8-.066 1.6-.065c6.459 0 12.327 3.128 14.535 4.461.188-1.342.42-2.677.706-4a38.725 38.725 0 0 0-9.938-4.931.719.719 0 0 1-.2-1.277 11.207 11.207 0 0 1 6.066-1.618 15.389 15.389 0 0 1 5.931 1.291 56.148 56.148 0 0 1 1.79-4.563 9.586 9.586 0 0 0-10.3-4.435c-.237.072-.464.189-.7.269a.7.7 0 0 1-.3.473.646.646 0 0 1-.764-.063c-7.755 3.066-14.466 10.332-17.357 19.086-2.544 7.7-1.652 15.132 2.509 20.932 6.4 8.922 18.764 10.748 28.066 8.023a38.121 38.121 0 0 1-4.81-11.565c-19.7-6.096-17.492-21.276-17.467-21.424Zm15.73 27.536c-6.069 1.945-10.97 1.573-14.569-1.116-6.086-4.545-6.156-13.961-6.156-14.36a.707.707 0 0 1 .534-.692.673.673 0 0 1 .166-.02.7.7 0 0 1 .621.382c5.384 10.528 19.234 14.4 19.374 14.437a.717.717 0 0 1 .03 1.369Z"/><path class="cls-2" d="M82.735 337.548a41.942 41.942 0 0 1 8.237 4.28 57.026 57.026 0 0 1 1.041-3.719 12.448 12.448 0 0 0-9.278-.561Z"/><path class="cls-4" d="M77.588 256.947c.616-.044.908-.6 1.059-1.08a11.8 11.8 0 0 1-1.542 1.163c.167-.03.367-.075.483-.083Z"/><path class="cls-5" d="m252.44 424.8 7.468 7.246a.952.952 0 0 0 1.357-.035l4.279-4.576a.987.987 0 0 0-.032-1.379l-7.468-7.246a1.127 1.127 0 0 0-.685-.269.943.943 0 0 0-.672.3l-4.279 4.574a.992.992 0 0 0 .032 1.385Z"/><path class="cls-6" d="M220.169 335.863a18.391 18.391 0 0 1-12.4 11.466c-.01 0-.013.016-.024.02s-.023-.007-.036 0a22.2 22.2 0 0 1-3.1.652 19.256 19.256 0 0 1 4.859 7.473c.218.759.447 1.785.707 2.957.924 4.171 2.321 10.474 5.222 12.331a3.244 3.244 0 0 0 2.593.416c.071-.019.13.027.2.032.075-1.689.152-2.925.16-3.057a.715.715 0 0 1 .319-.552 11.318 11.318 0 0 1 6.23-1.557 29.809 29.809 0 0 1 9.148 1.7.709.709 0 0 1 .423.441c.135.4.344.921.594 1.5a5.573 5.573 0 0 0 2.845-2.034c1.052-1.474 1.386-3.512.989-6.062-1.294-8.325-.549-14.318 2.352-18.668-4.15.295-15.079.292-21.081-7.058Z"/><path class="cls-4" d="M219.724 368.611a105.747 105.747 0 0 0-.154 11.751c.074.726.121 1.657.171 2.706l.01.191c.2 4.138.5 10.388 2.856 14.7a52.089 52.089 0 0 1 4.533 10.894l.21.692a2.38 2.38 0 0 0 1.9 1.68c.752 0 1.175-.875 1.4-1.608a9.3 9.3 0 0 0-.219-5.621 6.3 6.3 0 0 1-.338-1.7 9 9 0 0 1 .468-2.094 16.9 16.9 0 0 0 .922-6.4.712.712 0 0 1 .63-.78.7.7 0 0 1 .763.641c.036.376.013.735.015 1.1a35.515 35.515 0 0 0 5.449 2.16.712.712 0 0 1-.341 1.383 22.8 22.8 0 0 1-2.731-.938l11 10.334a2.451 2.451 0 0 0 .856-1.412c.128-.719-.532-5.988-.927-9.135-.27-2.159-.5-4.02-.568-4.881-.1-1.374-1.515-3.435-2.88-5.431-.753-1.1-1.533-2.24-2.171-3.361-1.486-2.606-6.04-11.008-7.323-14.5-1.607-.55-9.205-2.889-13.531-.371Z"/><path class="cls-2" d="M74.452 344.285c-.208 2.656-.038 13.779 15.807 19.017a47.994 47.994 0 0 1-.538-14.438c-1.488-.937-8.213-4.885-15.269-4.579Z"/><path class="cls-6" d="M231.905 400.608a9.28 9.28 0 0 0-.409 1.7 5.756 5.756 0 0 0 .283 1.286c.108.377.228.805.335 1.277l19.363 17.476 3.9-4.165-22.625-21.246a27.084 27.084 0 0 1-.847 3.672Z"/><path class="cls-4" d="M219.74 395.664c-.581.594-1.229 5.651-.716 7.067a3.233 3.233 0 0 0 2 1.843 49.9 49.9 0 0 1 .256-6.145 18.224 18.224 0 0 1-1.195-2.9 1.089 1.089 0 0 0-.345.135Zm2.98 11.048c.369.829 1.693 1.209 2.706 1.34a49.07 49.07 0 0 0-2.931-7.26c-.147 2.376-.168 5.036.225 5.92Zm12.505 5.732a.687.687 0 0 1-.976.144.722.722 0 0 1-.146-1 4.947 4.947 0 0 0 .729-2.361l-2.437-2.2a9.325 9.325 0 0 1-.4 3 4.154 4.154 0 0 1-1.177 2 12.111 12.111 0 0 0 3.482 3.448c2.164.285 4.5-.929 5.646-1.64l-3.836-3.463a6.134 6.134 0 0 1-.885 2.072Z"/><path class="cls-5" d="M250.865 424.715c-5.66 5.961-20.31 6.478-23.972 6.508 3.275 22.945 20.06 25.435 24.165 25.7-2.964-14.163 5.123-22.319 7.413-24.3l-7-6.787a2.347 2.347 0 0 1-.606-1.121Z"/><path class="cls-2" d="m262.462 432.803 2.68 7.595 11.945 2.144-3.259-11.122-7.619-2.625-3.747 4.008z"/><path class="cls-5" d="m276.942 417.887-.345-11.022-10.044-.149a32.347 32.347 0 0 1-6.838 11.75l5.985 5.807c1.4-1.405 6.028-5.662 11.242-6.386Z"/><path class="cls-4" d="M71.6 255.3a1.38 1.38 0 0 0-.512 1.253c.134.712 1.139.91 1.81.961.667-.235 3.978-1.467 5.577-3.509.011-.014.031-.012.043-.025a43.573 43.573 0 0 1-.492-2.946 2.209 2.209 0 0 1 1.418-2.391 3.466 3.466 0 0 1 1.33-.261 3.857 3.857 0 0 0-.879.022 11.042 11.042 0 0 0-3.757 2.776 14.523 14.523 0 0 1-4.538 4.12Zm-1.7-6.83a11.345 11.345 0 0 1 .99-1.16c.047-.048.093-.074.141-.118a7.708 7.708 0 0 0-2.809-.773c-1.631.255-2.3 1.03-3.313 2.2-.329.383-.682.792-1.1 1.221a6.121 6.121 0 0 1-2.091 1.592c-.136.058-.136.058-.187.128a2.259 2.259 0 0 0-.36.97 1.351 1.351 0 0 0 .616.97 5.381 5.381 0 0 0 2.813-.263c.354-1.576 2.275-2.643 3.712-3.309a4.211 4.211 0 0 0 1.588-1.458Zm-1.011 2.758c-1.827.847-2.817 1.643-2.946 2.365a1.416 1.416 0 0 0 .252 1.088 1.783 1.783 0 0 0 1.185.717 4.131 4.131 0 0 0 2.1-.461c.221-.086.44-.172.66-.251.041-.014.078.014.12.008a2.152 2.152 0 0 1 .753-.69 13.151 13.151 0 0 0 4-3.679 8 8 0 0 1 1.5-1.5 2.879 2.879 0 0 0-2.851-1.687 5.545 5.545 0 0 0-1.787 1.19 10.411 10.411 0 0 0-.875 1.024 5.521 5.521 0 0 1-2.111 1.876Z"/><path class="cls-6" d="M62.558 293.45c10.635-6.385 18.124-5.408 21.555-4.319a22.726 22.726 0 0 1-2.221-5c-.339-1.312.093-2.765.594-4.445.654-2.2 1.368-4.671.529-7.385-6.449 2.372-16.875 2.448-21.022-4.539-1.365.9-4.837 3.348-5.767 5.456-.947 2.144-3.624 4.17-5.185 5.217 6.275 3.204 10.383 12.258 11.517 15.015Z"/><path class="cls-4" d="m82.589 270.943-2.143-1.92-.109.18a.689.689 0 0 1-.964.23.72.72 0 0 1-.226-.982c.021-.034 2.129-3.5 2.685-4.723.073-.16.176-.369.3-.617.863-1.72 2.659-5.3 1.9-9.219a25.782 25.782 0 0 0-2.016-3.6 1.893 1.893 0 0 0-2.039-.337.786.786 0 0 0-.57.894c.245 1.949.764 4.212.769 4.235a.7.7 0 0 1 .017.219c-.076 1-.7 2.935-2.512 3.061-1.7.121-8.134 2.511-10.647 7.2a.7.7 0 0 1-.95.286.721.721 0 0 1-.279-.968 15.442 15.442 0 0 1 6.424-6.021c-1.893-.315-2.4-1.384-2.524-2.042a2.312 2.312 0 0 1 0-.448 4.931 4.931 0 0 1-2.519.439c-.018 0-.031-.015-.048-.017a.67.67 0 0 1-.146.281c-3.912 3.305-4.081 8.569-4.078 9.516 3.546 6.789 13.559 6.634 19.675 4.353Z"/><path class="cls-6" d="M139.787 292c9.947 2.228 34.323 6.745 46.257.627.372-.4 2.659-3.175 2.856-10.916a42.027 42.027 0 0 1-14.791 2.3 76.384 76.384 0 0 1-19.3-2.679c-21.768-5.7-43.511-1.3-46.094-.153a14.362 14.362 0 0 0-1.007 10.716c3.198-.545 18.753-2.895 32.079.105Z"/><path class="cls-5" d="M62.49 351.161a30.249 30.249 0 0 1 1.012-4.088c2.972-8.992 9.817-16.5 17.792-19.808-1.771-2.606-6.689-9.5-11.337-12.917a.719.719 0 0 1-.22-.889 46.69 46.69 0 0 0 3.578-14.359 37.067 37.067 0 0 1 1.847-9 33.626 33.626 0 0 0-12.582 5 .685.685 0 0 1-.592.068.713.713 0 0 1-.428-.423 43.921 43.921 0 0 0-5.782-10.3c-5.574 9.288-9.4 20.635-10.807 25.183a11.134 11.134 0 0 0-.212 5.656c3.597 16.543 14.728 31.943 17.731 35.877Z"/><path class="cls-6" d="M83.379 263.761c-.113.227-.209.417-.276.566-.361.794-1.271 2.367-1.95 3.515.054.027.119.021.166.064l24.5 21.939a15.6 15.6 0 0 1 .687-7.039l-22.67-19.983c-.169.356-.327.677-.457.938Z"/><path class="cls-4" d="m85.42 253.937 1.211-.372a.673.673 0 0 1 .2-.03.7.7 0 0 1 .67.506.713.713 0 0 1-.468.888l-1.469.452a15.235 15.235 0 0 1-1.144 6.075l3.81 3.358c.728-1.256 2.27-4.709 2.232-11.511a2.985 2.985 0 0 0-1.288-2.449c-2.315-1.587-3.2-1.627-3.426-1.608a5.541 5.541 0 0 0-2.186.8 29.259 29.259 0 0 1 1.8 3.408c.03.167.038.322.058.483Z"/><path class="cls-5" d="M167.334 325.4a.689.689 0 0 1-.411.284 78.46 78.46 0 0 0 24.677 22.133c.749-.5 6.217-4.263 9.256-9.037a21.113 21.113 0 0 1-2.935-5.484.717.717 0 0 1 .417-.915.675.675 0 0 1 .241-.044.7.7 0 0 1 .657.467 21.055 21.055 0 0 0 5.746 8.46c.455.441.842.817 1.128 1.151a11.462 11.462 0 0 1 1.886 3.371 16.577 16.577 0 0 0 11.233-11.6.707.707 0 0 1 .547-.548.718.718 0 0 1 .138-.014.7.7 0 0 1 .575.306c2.634 3.874 6.759 5.81 10.744 6.763-1.338-4.674-7.006-22.783-18.054-36.535a11.394 11.394 0 0 0-13.418-3.324c-8.586 3.747-24.208 11.924-32.427 24.566Z"/><path class="cls-2" d="M139.487 293.387c-10.775-2.42-23.051-1.28-28.8-.5.233 4.914-1.47 15.158-2.307 19.82a31.634 31.634 0 0 0 4.126-5.679.7.7 0 0 1 .957-.26.722.722 0 0 1 .253.975 38 38 0 0 1-6.285 8.058c-.73.771-1.49 1.569-2.29 2.463a76.83 76.83 0 0 0-3.214 3.817c-12.653 16.029-16.543 43.109-.98 59.212a68.284 68.284 0 0 1 26.146-5.057 67.494 67.494 0 0 1 19.778 2.961c-10.083-8.28-13.965-22.915-8.957-35.8a31.921 31.921 0 0 1 25.658-19.767 2.715 2.715 0 0 1 .37-.024 2.876 2.876 0 0 1 2.21 1.088c.012-.025 0-.054.014-.078a53.315 53.315 0 0 1 11.053-11.961c.37-.982 3-8.015 5.985-17.372-12.444 4.017-32.304.662-43.717-1.896Z"/><path class="cls-2" d="M147.426 341.287c-2.875 3.349-3.9 8.144-3.072 14.283 1.421-4.586 5.388-12.886 16.282-19.709-3.393.148-9.466 1.06-13.21 5.426Z"/><path class="cls-6" d="M101.484 382.6c.262 3.649 3.555 7.455 4.688 8.664 13.327-8.258 37.094-2.966 40.564-2.131a22.2 22.2 0 0 0 4.13-7.083 67.807 67.807 0 0 0-49.382.55Z"/><path class="cls-2" d="M153.479 372.209c3.5-.314 19.586-3.036 19.6-26.6-4.056.807-21.708 5.537-19.6 26.6Z"/><path class="cls-7" d="M103.62 427.413a20.013 20.013 0 0 0-.786 12.657l.27 1.075-1.072-.2a8.851 8.851 0 0 0-1.064-.1c1.219 1.1 2.822 2.774 3.251 4.347.671 2.465 4.549 15.024 14.939 20.19 6.35 3.164 13.957 2.938 22.6-.638-2.694-6.081-11.505-20.683-38.138-37.331Z"/><path class="cls-2" d="M104.826 419.228c-3.05 2.087-2.93 4.71-2.8 5.527 34.051 20.623 40.893 38.191 42.022 41.987a20.221 20.221 0 0 0 5.238-2.355c-7.765-23.017-40.632-42.907-44.46-45.159Z"/><path class="cls-7" d="m155.461 453.147.113-.683a11.071 11.071 0 0 0-.735-5.788c-1.145 1.125-3.6 3.316-5.949 4.022l-1.026.306.134-1.081a13.678 13.678 0 0 0-1.611-7.752 7.008 7.008 0 0 1-.828 1.021l-.983 1-.2-1.4c-.013-.091-1.324-8.632-7.173-13.3a8.2 8.2 0 0 1-.729 3.767l-.753 1.439-.526-1.541a22.527 22.527 0 0 0-3.412-6.079 7.467 7.467 0 0 1-1.256-6.336c-1.06.409-2.5 1.2-2.824 2.576l-.667 2.862-.693-2.854c-.02-.082-1.845-7.427-6.192-11.417v2.91l-1.293-2.082a16.757 16.757 0 0 0-6.21-5.526 12.976 12.976 0 0 1-.215 4.283l-.307 1.311-.892-1a16.591 16.591 0 0 0-1.434-1.381 22.955 22.955 0 0 1-1.928 8.975c8.432 5.2 33.786 22.145 41.932 42.372a38.137 38.137 0 0 1 14.426-4.719 24.383 24.383 0 0 0-8.1-3.77Z"/><path class="cls-2" d="M166.753 378.03c.683.044 1.35.065 2 .065 5.543 0 9.728-1.549 12.48-4.624 3.756-4.2 4.073-10.425 3.785-14.5-3.237 11.97-13.011 17.111-18.265 19.059Z"/><path class="cls-4" d="M135.726 405.391a.717.717 0 0 1 .432-.908 47.711 47.711 0 0 1 6.821-1.847c-.5-2.114-1.725-8.414.3-12.767-7.221-1.377-23.953-3.689-34.706 1.7a.7.7 0 0 1 .246.244 29.471 29.471 0 0 1 3.633 13.792 17.1 17.1 0 0 1 6.3 4.651v-1.2l1.1.783c4.163 2.956 6.435 8.61 7.357 11.442a8.235 8.235 0 0 1 4.225-2.305l1.276-.251-.5 1.226c-.014.037-1.441 3.634.651 6.211a23.128 23.128 0 0 1 2.876 4.648 10.95 10.95 0 0 0-.037-2.664l-.246-1.555 1.31.838c5.749 3.681 7.956 10.511 8.685 13.589a4.24 4.24 0 0 0 .233-.46l.457-1.13.742.959a13.963 13.963 0 0 1 2.578 8.561 20.336 20.336 0 0 0 5.02-3.924l.6-.652.492.738a11.242 11.242 0 0 1 1.469 6.916 18.106 18.106 0 0 1 2.124.7c.832-.727 3.338-3.206 3-6.493-.462-4.549 1.892-15.629 6.092-21.621a1.416 1.416 0 0 0-.244-1.857 9.47 9.47 0 0 0-3.706-1.523l-.331-.083a.716.716 0 0 1-.415-.306 12.966 12.966 0 0 1-1.866-5.863 35.416 35.416 0 0 1-5.508-.054.713.713 0 0 1 .079-1.42.457.457 0 0 1 .082 0 35.2 35.2 0 0 0 5.475.034c.062-.388.123-.779.194-1.16.405-2.168.756-4.041-.723-6.025-1.843-2.477-11.259-5.266-24.674-.529a.691.691 0 0 1-.893-.435Zm19.26 26.083a2.6 2.6 0 1 1-2.129 2.554 2.37 2.37 0 0 1 2.129-2.554Zm-6.874 8.373a.693.693 0 0 1 .971-.192c4.006 2.75 9.922.71 9.981.689a.69.69 0 0 1 .89.439.715.715 0 0 1-.431.907c-.267.1-6.629 2.3-11.222-.851a.724.724 0 0 1-.189-.992Z"/><path class="cls-3" d="M192.285 350.469a1.485 1.485 0 0 0-.748-1.036 80.185 80.185 0 0 1-14.344-10.256 81.221 81.221 0 0 1-12.033-13.494 1.475 1.475 0 0 0-1.4-.643 30.515 30.515 0 0 0-24.541 18.877c-5.3 13.626-.216 29.322 11.817 36.512a28.222 28.222 0 0 0 14.49 3.965 27.5 27.5 0 0 0 21.819-10.405c6.774-8.771 5.711-19.371 4.94-23.52Zm-47.306 8.687a.7.7 0 0 1-.653.64.674.674 0 0 1-.727-.55c-1.852-8.241-.918-14.6 2.778-18.9 4.557-5.308 11.956-5.941 15.238-5.941.941 0 1.543.051 1.643.06a.7.7 0 0 1 .621.564.715.715 0 0 1-.349.77c-17.019 9.515-18.538 23.22-18.551 23.357Zm7.183 13.89c-2.982-25.274 21.273-28.953 21.518-28.986a.773.773 0 0 1 .095-.007.7.7 0 0 1 .456.172.715.715 0 0 1 .244.529c.423 28.13-21.383 28.914-21.6 28.919a.671.671 0 0 1-.713-.627Zm30.107 1.382c-3.925 4.388-10.376 5.948-19.176 4.644a.716.716 0 0 1-.03-1.407c.19-.037 19.009-3.908 21.375-23.056a.709.709 0 0 1 .655-.624h.04a.7.7 0 0 1 .68.543c.123.515 2.928 12.66-3.544 19.9Z"/><path class="cls-4" d="M217.729 393.057c-.484-.148-.673-.118-.749-.078-.049.03-.221.181-.348.828-.488 2.481-.659 5.554.323 6.747a1.289 1.289 0 0 0 .527.388c0-2.122.384-4.9 1.156-6.062-.238-.896-.638-1.739-.909-1.823Z"/><path class="cls-6" d="m218.357 383.425-24.318-22.832a30.1 30.1 0 0 1-2.039 8.075l25.156 22.7c.047.043.043.109.076.16a3.513 3.513 0 0 1 .9.16 2.314 2.314 0 0 1 1.23 1.17 59.283 59.283 0 0 1-1.005-9.433Z"/><path class="cls-2" d="M99.393 413.591c-1.873-1.353-4.01-1.711-6.273-2.089l-1.071-.183c-1.618-.29-3.751-1.251-4.436-3.008a3.475 3.475 0 0 1 .038-2.507 18.4 18.4 0 0 1 1.047-2.149c1.684-3.131 3.744-6.958.123-11.788a6.315 6.315 0 0 1-.553 2.233.7.7 0 0 1-.569.392.8.8 0 0 1-.625-.293 4.044 4.044 0 0 0-.387-.44c.628 2.049.973 5.456-.957 10.04-.082.148-2.364 3.72-1.447 6.526a4.692 4.692 0 0 0 3.123 2.836c.359.054 10.588 1.949 13.885 7.95a7.469 7.469 0 0 1 1.652-2.185 8.823 8.823 0 0 0-3.55-5.335Z"/><path d="m123.82 281.807 6.576 5.05 8.244-4.23 6.85 5.256 7.929-4.114 7.302 5.799 6.166-3.623 7.539 3.802 6.885-4.348 6.809 3.14-.331 2.049-6.329-2.917-6.924 4.371-7.576-3.821-6.409 3.767-7.361-5.847-7.908 4.103-6.855-5.259-8.245 4.229-6.328-4.859-5.274 4.282-4.788-3.343-6.74 4.403-1.094-1.675 7.872-5.141 4.659 3.253 5.331-4.327z"/><path class="cls-6" d="M147.732 387.934a22.841 22.841 0 0 0 2.649-4.666c-24.367-8.785-46.593-.25-48.734.392a16.861 16.861 0 0 0 3.609 6.568c16.626-8.405 37.957-3.486 42.476-2.294Z"/><path d="m146.679 387.064-3.048-3.484-4.442 2.09 7.49 1.394zm-10.39-1.742-4.589-2.704-4.258 2.378 8.847.326zm-12.839-.513-5.441-1.854-2.72 3.249 8.161-1.395zm-12.266 2.201-4.962-1.069-.764 3.665 5.726-2.596zM9.309 22.167h4.824v29.14a60.35 60.35 0 0 0 .2 6.465A10.716 10.716 0 0 0 16 62.547a9.869 9.869 0 0 0 4.036 3.215 12.635 12.635 0 0 0 5.48 1.3 10.806 10.806 0 0 0 4.594-1.018 10.224 10.224 0 0 0 3.676-2.822 11.519 11.519 0 0 0 2.165-4.364 36.047 36.047 0 0 0 .493-7.548V22.167h4.824v29.14a35.493 35.493 0 0 1-1.264 10.452 14.211 14.211 0 0 1-5.053 6.94 14.473 14.473 0 0 1-9.172 2.954 17.577 17.577 0 0 1-10.009-2.789 13.435 13.435 0 0 1-5.57-7.384q-.887-2.822-.886-10.173Zm303.257 455.666h-4.824v-29.14a60.35 60.35 0 0 0-.2-6.465 10.715 10.715 0 0 0-1.673-4.775 9.879 9.879 0 0 0-4.037-3.215 12.635 12.635 0 0 0-5.48-1.3 10.806 10.806 0 0 0-4.594 1.018 10.213 10.213 0 0 0-3.676 2.822 11.519 11.519 0 0 0-2.165 4.364 36.119 36.119 0 0 0-.493 7.548v29.14H280.6v-29.14a35.5 35.5 0 0 1 1.263-10.452 14.207 14.207 0 0 1 5.054-6.94 14.469 14.469 0 0 1 9.172-2.954 17.576 17.576 0 0 1 10.008 2.789 13.435 13.435 0 0 1 5.579 7.384q.887 2.822.886 10.173Z"/><path class="cls-8" d="M37.6 85.157a8.2 8.2 0 0 0-11.559 0l-.755.755-.755-.755a8.173 8.173 0 0 0-11.554 11.559 12.107 12.107 0 0 0 2.955 2.18 26.322 26.322 0 0 1 9.358 7.943 26.339 26.339 0 0 1 9.358-7.939 12.093 12.093 0 0 0 2.956-2.18 8.2 8.2 0 0 0-.004-11.563Z"/><path class="cls-2" d="M25.29 85.912v20.927a26.33 26.33 0 0 0-9.358-7.939 12.107 12.107 0 0 1-2.955-2.18 8.173 8.173 0 0 1 11.558-11.563Z"/><path class="cls-9" d="M25.29 85.912v20.927a26.33 26.33 0 0 1 9.358-7.939 12.093 12.093 0 0 0 2.956-2.18 8.173 8.173 0 0 0-11.559-11.563Z"/><path class="cls-8" d="M284.271 414.843a8.2 8.2 0 0 0 11.559 0l.755-.755.755.755a8.173 8.173 0 1 0 11.56-11.559 12.088 12.088 0 0 0-2.955-2.18 26.33 26.33 0 0 1-9.358-7.943 26.33 26.33 0 0 1-9.358 7.943 12.093 12.093 0 0 0-2.956 2.18 8.2 8.2 0 0 0-.002 11.559Z"/><path class="cls-2" d="M296.585 414.088v-20.927a26.33 26.33 0 0 0 9.358 7.943 12.088 12.088 0 0 1 2.955 2.18 8.173 8.173 0 1 1-11.558 11.559Z"/><path class="cls-9" d="M296.585 414.088v-20.927a26.33 26.33 0 0 1-9.358 7.943 12.093 12.093 0 0 0-2.956 2.18 8.173 8.173 0 0 0 11.559 11.559Z"/><path d="M166.889 63.417a2.6 2.6 0 1 0 2.129 2.555 2.371 2.371 0 0 0-2.129-2.555Zm-4.537-5.107a.715.715 0 0 0-.431.907.69.69 0 0 0 .89.439c.059-.021 5.975-2.061 9.981.689a.694.694 0 0 0 .972-.192.725.725 0 0 0-.19-.992c-4.593-3.152-10.954-.949-11.222-.851Zm-48.828 192.243a.562.562 0 0 1-.05.035.562.562 0 0 0 .05-.035Zm-.172.103a.7.7 0 0 1-.241.049h-.148a.577.577 0 0 0 .389-.049Zm94.712-.649c.029-.1.047-.17.048-.175a.713.713 0 0 1 .238-.389.706.706 0 0 0-.286.564Z"/><path d="M278.484 184.408c-4.223-19.416-18.632-37.272-18.784-37.461a22.969 22.969 0 0 0-4.033-16.248c-6.886-9.6-20.22-11.478-30.045-8.416a35.546 35.546 0 0 0-3.851-4.744c-.207-5.028-5.26-10.016-5.481-10.23a.69.69 0 0 0-.862-.083c-.357.235-.729.453-1.1.666a.7.7 0 0 0-.059-.43 28.263 28.263 0 0 1-3.422-12.5l.278.1-.313-1.291a12.3 12.3 0 0 1-.209-3.62 13.748 13.748 0 0 0 1.8 1.439l1.134.735-.059-1.367c0-.057-.2-5.606 1.74-9.619.816.49 1.353.8 1.51.888a.692.692 0 0 0 .706-.014c.109-.067.2-.139.3-.208a10.374 10.374 0 0 0 3.936 5.569c2.136 1.541 4.535 1.943 6.855 2.333l1.057.181c1.318.234 2.938 1 3.377 2.128a2.083 2.083 0 0 1-.046 1.474 17.1 17.1 0 0 1-.966 1.97c-1.85 3.438-4.647 8.637 1.33 14.91a.693.693 0 0 0 .5.216.68.68 0 0 0 .306-.072.717.717 0 0 0 .388-.736 8.665 8.665 0 0 1 .062-2.409 5.626 5.626 0 0 0 2.052 1.165.685.685 0 0 0 .775-.281.724.724 0 0 0-.021-.838c-.029-.037-2.841-3.894.027-10.738.111-.17 2.681-4.181 1.552-7.648a6.079 6.079 0 0 0-4.1-3.764c-.115-.019-11.537-2.129-13.558-8.483-.01-.033-.046-.043-.06-.073a6.225 6.225 0 0 0-.06-2.316.711.711 0 0 0-.315-.413c-.468-.282-.908-.562-1.366-.843a21.286 21.286 0 0 0 1.157-12.771 10.79 10.79 0 0 0 2.23-.107l1.67-.263-1.363-1.018c-1-.745-3.692-3.052-4.156-4.756-.7-2.569-4.745-15.657-15.674-21.093-6.728-3.343-14.724-3.135-23.762.607a14.469 14.469 0 0 1-.56-1.707.717.717 0 0 0-.319-.459.678.678 0 0 0-.545-.081 20.088 20.088 0 0 0-6.812 3.079.722.722 0 0 0-.236.785c.142.444.313.883.473 1.325-1.832 1.043-8.731 4.686-15.968 4.744l-1.974.016 1.543 1.254a32.59 32.59 0 0 0 6.114 3.784 9.134 9.134 0 0 0-2.966 7.24c.441 4.331-1.818 14.907-5.839 20.645a2.858 2.858 0 0 0 .455 3.753 10.4 10.4 0 0 0 4.293 1.838l.048.011c.441.778 1.773 3.343 1.488 5.524a29.825 29.825 0 0 1-.28 1.662c-.428 2.293-.871 4.663.984 7.156 1.514 2.03 5.855 3.65 11.9 3.65a38.743 38.743 0 0 0 6.149-.536c.457 1.929 1.717 8.3-.353 12.226a59.314 59.314 0 0 1-2.072-.463.711.711 0 0 0-.661.183 22.693 22.693 0 0 0-4.7 7.8c-12.363-6.232-27.948-3.038-36.3 7.763a26.513 26.513 0 0 0-2.955 4.839l-24.5-22.113a2.9 2.9 0 0 0 .64-1.384c.342-1.743.968-6.009-.624-7.94a2.666 2.666 0 0 0-1.662-.941 3.885 3.885 0 0 0-.167-.813 4.693 4.693 0 0 0-2.424-2.535 3.164 3.164 0 0 0-1.01-.278 5.094 5.094 0 0 0-.3-1.265c-.8-1.8-3.306-2.147-4.43-2.212l-.141-.462a3.755 3.755 0 0 0-3.235-2.676h-.009a2.539 2.539 0 0 0-.288.02 13.655 13.655 0 0 0-4.118-4.141.672.672 0 0 0-.26-.1c-2.942-.486-5.977 1.291-7.1 2.038l-9.429-8.511a.664.664 0 0 0 .392-.177c5.718-6.466 23.785-6.3 23.971-6.278.2.086.4-.083.533-.237a.725.725 0 0 0 .172-.566c-3.475-27.51-26-27.777-26.546-27.777h-.008a.7.7 0 0 0-.546.274.726.726 0 0 0-.127.608c3.539 14.811-5.314 22.663-6.984 23.989a2.287 2.287 0 0 0-1.649-.094l-2.706-7.666a.7.7 0 0 0-.537-.462l-13.462-2.416a.708.708 0 0 0-.792.907l3.687 12.582a.711.711 0 0 0 .447.471l7.559 2.605a2.44 2.44 0 0 0-.149.877 2.377 2.377 0 0 0 .539 1.4c-1.359 1.348-6.09 5.681-11.046 6.069a.707.707 0 0 0-.646.733l.387 12.365a.706.706 0 0 0 .689.69l11.245.167h.011a.7.7 0 0 0 .678-.534 30.78 30.78 0 0 1 6.7-11.731 2.279 2.279 0 0 0 1.267.428h.06a2.293 2.293 0 0 0 .821-.187l9.2 8.641a3.779 3.779 0 0 0-1.206 2.12c-.155.871.262 4.354.916 9.572.268 2.137.5 3.985.562 4.807.132 1.764 1.586 3.89 3.126 6.139.737 1.076 1.5 2.193 2.109 3.26 1.345 2.359 4.365 7.96 6.141 11.778a6.937 6.937 0 0 0-3.369 2.48c-1.293 1.792-1.716 4.2-1.257 7.146 1.363 8.768.4 14.759-3.031 18.853a.722.722 0 0 0-.081.8.684.684 0 0 0 .711.362 35.521 35.521 0 0 1 9.9.323c.862 3.15 6.6 22.926 18.52 37.768a12.825 12.825 0 0 0 9.989 4.786 12.606 12.606 0 0 0 5.064-1.058 99.912 99.912 0 0 0 19.876-11.466 413.473 413.473 0 0 0-5.534 16.3 21.37 21.37 0 0 0-1.915.851.752.752 0 0 0-.139.1c-.139.123-3.4 3.112-3.4 13.113a.714.714 0 0 0 .329.6.653.653 0 0 0 .583.057c-1.022 2.173-3.619 6.769-9.692 13.625-7.519 8.487-9.684 13.932-10.223 15.626h.552a.705.705 0 0 1 .7.71c.284-.983 2.127-6.48 10.011-15.38 7.749-8.748 9.967-13.878 10.469-15.254 4-1.326 15.023-3.855 32.424.7a95 95 0 0 0 23.878 2.922 93.136 93.136 0 0 0 21.026-2.217c1.9 2.455 13.887 18.311 15.849 28.529h-18.547.038a.713.713 0 0 1 .529.85 7.936 7.936 0 0 1-.163.57h18.777c.044 0 .07-.038.111-.046.044.009.076.046.122.046a.872.872 0 0 0 .1-.006.71.71 0 0 0 .592-.808c-1.453-10.157-13.072-25.815-15.938-29.552a5.223 5.223 0 0 0 .933-.37.692.692 0 0 0 .243-.241 10.619 10.619 0 0 0 .573-1.139l17.736 15.633c-.82 1.314-2.6 5.021-2.556 12.471a4.423 4.423 0 0 0 1.905 3.623c2.4 1.65 3.565 1.856 4.1 1.856a2.234 2.234 0 0 0 .263-.016 6.181 6.181 0 0 0 1.677-.453 5.138 5.138 0 0 0 3.467 1.321 5.817 5.817 0 0 0 .932-.076 13.938 13.938 0 0 0 1.861-.975 4.2 4.2 0 0 0 3.728 2.3 4.883 4.883 0 0 0 .543-.03 6.61 6.61 0 0 0 1.142-.537 8.392 8.392 0 0 0 4.085 1.292 6.29 6.29 0 0 0 4.307-2.68c.311-.36.644-.748 1.042-1.154a4.793 4.793 0 0 1 1.641-1.283 1.615 1.615 0 0 0 .772-.6 3.578 3.578 0 0 0 .629-1.8 2.845 2.845 0 0 0-1.475-2.316.621.621 0 0 0-.212-.065 7.229 7.229 0 0 0-3.242.178 2.917 2.917 0 0 0-.359-.8 3.147 3.147 0 0 0-.769-.714c3.925-3.534 4.3-8.642 4.314-10.147 1.228-.792 5.406-3.627 6.567-6.256 1.152-2.609 5.718-5.271 5.764-5.3a.717.717 0 0 0-.111-1.291 14.222 14.222 0 0 1-5.53-4.091c5.57-9.137 9.4-20.1 11.19-25.886a12.581 12.581 0 0 0 .244-6.387Zm-23.947-52.868c4.161 5.8 5.052 13.234 2.509 20.932-2.892 8.754-9.6 16.02-17.357 19.086a.648.648 0 0 0-.765-.063.693.693 0 0 0-.3.473c-.236.08-.464.2-.7.269a9.587 9.587 0 0 1-10.3-4.435 56.292 56.292 0 0 0 1.79-4.563 15.386 15.386 0 0 0 5.931 1.29 11.208 11.208 0 0 0 6.066-1.617.721.721 0 0 0 .3-.7.713.713 0 0 0-.5-.573 38.725 38.725 0 0 1-9.938-4.931c.286-1.325.518-2.66.706-4 2.209 1.333 8.076 4.461 14.536 4.461.528 0 1.062-.021 1.6-.065a.706.706 0 0 0 .634-.594c.024-.153 2.234-15.332-17.462-21.422a38.171 38.171 0 0 0-4.81-11.565c9.295-2.731 21.661-.905 28.06 8.017Zm-24.675 30.351q.585-1.84 1.041-3.719a41.942 41.942 0 0 0 8.237 4.28 12.448 12.448 0 0 1-9.278-.561Zm1.754-25.193c15.845 5.238 16.015 16.361 15.807 19.017-7.056.306-13.781-3.642-15.269-4.579a47.994 47.994 0 0 0-.538-14.436Zm2.854-49.859a4.692 4.692 0 0 1 3.123 2.836c.916 2.806-1.366 6.378-1.448 6.526-1.93 4.584-1.584 7.991-.957 10.04a4.013 4.013 0 0 1-.387-.441.8.8 0 0 0-.625-.292.7.7 0 0 0-.569.392 6.315 6.315 0 0 0-.553 2.233c-3.621-4.83-1.561-8.657.123-11.788a18.243 18.243 0 0 0 1.047-2.149 3.475 3.475 0 0 0 .038-2.507c-.685-1.757-2.818-2.718-4.436-3.008l-1.071-.183c-2.263-.378-4.4-.736-6.273-2.089a8.823 8.823 0 0 1-3.55-5.335 7.464 7.464 0 0 0 1.652-2.185c3.297 6.001 13.526 7.896 13.886 7.95Zm-31.752-52.226c10.389 5.166 14.267 17.725 14.939 20.19.429 1.573 2.031 3.251 3.25 4.347a8.817 8.817 0 0 1-1.063-.1l-1.072-.2.27 1.075a20.02 20.02 0 0 1-.786 12.657c-26.634-16.648-35.445-31.25-38.141-37.336 8.646-3.572 16.252-3.797 22.603-.633Zm-24.886-1.356c1.129 3.8 7.971 21.365 42.023 41.988.124.817.244 3.44-2.806 5.527-3.827-2.252-36.694-22.142-44.449-45.159a20.235 20.235 0 0 1 5.232-2.356Zm-20.182 9.69a38.137 38.137 0 0 0 14.426-4.719c8.147 20.227 33.5 37.171 41.932 42.372a22.974 22.974 0 0 0-1.928 8.975 16.591 16.591 0 0 1-1.434-1.381l-.892-1-.306 1.311a12.98 12.98 0 0 0-.216 4.283 16.757 16.757 0 0 1-6.21-5.526l-1.292-2.082v2.91c-4.348-3.99-6.173-11.335-6.193-11.417l-.692-2.854-.668 2.861c-.321 1.374-1.764 2.168-2.824 2.577a7.47 7.47 0 0 0-1.256-6.337 22.513 22.513 0 0 1-3.412-6.078l-.525-1.541-.754 1.439a8.19 8.19 0 0 0-.728 3.767c-5.85-4.672-7.161-13.213-7.174-13.3l-.2-1.4-.983 1a7.075 7.075 0 0 0-.828 1.021 13.663 13.663 0 0 1-1.61-7.752l.128-1.076-1.026.306c-2.352.7-4.8 2.9-5.949 4.022a11.071 11.071 0 0 1-.735-5.788l.113-.683-.665-.137a24.372 24.372 0 0 1-8.099-3.773Zm2.934 50.694c-1.479-1.984-1.128-3.857-.723-6.025.071-.381.132-.772.2-1.161a35.34 35.34 0 0 1 5.475.035.441.441 0 0 0 .081.005.713.713 0 0 0 .079-1.42 35.416 35.416 0 0 0-5.508-.054 12.983 12.983 0 0 0-1.865-5.863.718.718 0 0 0-.416-.306l-.331-.083a9.476 9.476 0 0 1-3.706-1.523 1.416 1.416 0 0 1-.244-1.857c4.2-5.992 6.554-17.072 6.092-21.622-.334-3.286 2.173-5.765 3-6.492a18.168 18.168 0 0 0 2.124.7 11.242 11.242 0 0 0 1.469 6.916l.492.738.6-.652a20.3 20.3 0 0 1 5.019-3.924A13.963 13.963 0 0 0 175 59.609l.743.959.456-1.13a4.157 4.157 0 0 1 .234-.46c.729 3.078 2.935 9.908 8.684 13.589l1.31.838-.246-1.555a11.019 11.019 0 0 1-.037-2.665 23.15 23.15 0 0 0 2.876 4.649c2.092 2.577.665 6.174.651 6.211l-.5 1.226 1.277-.251a8.237 8.237 0 0 0 4.224-2.3c.922 2.832 3.195 8.486 7.357 11.442l1.1.783v-1.2a17.1 17.1 0 0 0 6.3 4.651 29.466 29.466 0 0 0 3.633 13.791.69.69 0 0 0 .247.245c-10.754 5.389-27.486 3.077-34.707 1.7 2.023-4.353.8-10.653.3-12.767a47.711 47.711 0 0 0 6.821-1.847.717.717 0 0 0 .432-.908.691.691 0 0 0-.891-.439c-13.42 4.736-22.837 1.947-24.68-.53Zm14.556 17.221c3.47.836 27.236 6.128 40.563-2.13 1.133 1.209 4.426 5.015 4.688 8.664a67.807 67.807 0 0 1-49.382.55 22.188 22.188 0 0 1 4.131-7.084Zm-40.606 15.149a27.5 27.5 0 0 1 21.818-10.4 28.226 28.226 0 0 1 14.49 3.964c12.033 7.191 17.114 22.887 11.817 36.513a30.513 30.513 0 0 1-24.541 18.877 1.475 1.475 0 0 1-1.4-.643 81.22 81.22 0 0 0-12.032-13.494 80.229 80.229 0 0 0-14.345-10.256 1.487 1.487 0 0 1-.748-1.036c-.774-4.154-1.837-14.754 4.941-23.525Zm-15.2 26c-.044-.038-4.4-3.774-5.582-7.88-.213-.736-.432-1.731-.684-2.866-1.034-4.665-2.45-11.053-5.843-13.225a4.553 4.553 0 0 0-3.483-.621 69.208 69.208 0 0 0-.044-7.922c-.026-.256-.045-.568-.065-.87l24.055 22.585a36.385 36.385 0 0 0 .528 8.589 2.912 2.912 0 0 0 .815 1.525 36.5 36.5 0 0 0-8.927 8.73c-.828-.973-1.614-1.739-2.239-2.345-.418-.406-.776-.752-1.04-1.059a9.993 9.993 0 0 1-1.578-2.8 22.545 22.545 0 0 1 3.688-.585.7.7 0 0 0 .617-.492.72.72 0 0 0-.219-.769Zm-14.94-52.948a1.289 1.289 0 0 1 .527.388c.982 1.193.811 4.266.324 6.747-.128.647-.3.8-.349.828-.076.04-.265.07-.749-.078-.268-.084-.673-.927-.909-1.823.771-1.163 1.151-3.945 1.155-6.067Zm-.651 9.249a3.513 3.513 0 0 0 .9.16c.033.051.029.117.077.16l25.155 22.705a30.058 30.058 0 0 0-2.04 8.075l-24.319-22.832a59.283 59.283 0 0 0-1.006-9.438 2.314 2.314 0 0 0 1.232 1.165Zm-2.891-12.882a3.235 3.235 0 0 1 2 1.844c.513 1.415-.135 6.473-.716 7.067a1.08 1.08 0 0 1-.345.136 18.364 18.364 0 0 0-1.194-2.9 50.139 50.139 0 0 0 .254-6.152Zm-1.7-2.137c.393.884.372 3.544.226 5.92a48.986 48.986 0 0 1-2.932-7.26c1.016.126 2.34.506 2.709 1.335Zm-11.573-8.778a12.124 12.124 0 0 1 3.483 3.448 4.138 4.138 0 0 0-1.177 2 9.27 9.27 0 0 0-.4 3l-2.438-2.2a4.942 4.942 0 0 1 .73-2.361.723.723 0 0 0-.147-.995.687.687 0 0 0-.976.144 6.122 6.122 0 0 0-.881 2.062l-3.836-3.463c1.147-.706 3.479-1.92 5.642-1.635ZM70.817 43.077c4.105.265 20.891 2.755 24.165 25.7-3.662.03-18.312.547-23.972 6.508a2.347 2.347 0 0 0-.61-1.121l-7-6.787c2.294-1.977 10.382-10.137 7.417-24.3Zm-22.77 25.5-3.259-11.119L56.733 59.6l2.68 7.6-3.747 4.008Zm7.275 24.7-10.044-.149-.345-11.022c5.215-.724 9.838-4.981 11.242-6.386l5.986 5.807a32.331 32.331 0 0 0-6.839 11.757Zm9.867-12.132a.949.949 0 0 1-.673.3 1.127 1.127 0 0 1-.685-.269l-7.467-7.246a.985.985 0 0 1-.033-1.379l4.279-4.576a.952.952 0 0 1 1.357-.035l7.468 7.26a.99.99 0 0 1 .032 1.381Zm1.313.663 3.9-4.165 19.359 17.483c.107.472.228.9.335 1.277a5.756 5.756 0 0 1 .283 1.286 9.28 9.28 0 0 1-.409 1.7 27.236 27.236 0 0 0-.843 3.669Zm14.789 34.7c-.638-1.12-1.418-2.26-2.171-3.36-1.365-2-2.776-4.057-2.88-5.431-.064-.861-.3-2.722-.568-4.881-.395-3.147-1.055-8.416-.927-9.135A2.451 2.451 0 0 1 75.6 92.3l11 10.333a23.038 23.038 0 0 0-2.732-.937.708.708 0 0 0-.85.517.715.715 0 0 0 .509.866 35.532 35.532 0 0 1 5.45 2.16c0 .366-.022.725.014 1.1a.7.7 0 0 0 .764.641.712.712 0 0 0 .629-.78 16.884 16.884 0 0 1 .923-6.4 9.043 9.043 0 0 0 .467-2.094 6.264 6.264 0 0 0-.338-1.7 9.3 9.3 0 0 1-.219-5.621c.223-.733.646-1.606 1.4-1.608a2.379 2.379 0 0 1 1.9 1.68l.21.692a52.168 52.168 0 0 0 4.533 10.894c2.361 4.308 2.659 10.558 2.856 14.7l.01.191c.05 1.049.1 1.98.171 2.706a105.747 105.747 0 0 1-.154 11.751c-4.326 2.518-11.924.179-13.537-.365-1.275-3.499-5.829-11.901-7.315-14.508Zm-.664 40.563c2.9-4.349 3.645-10.342 2.351-18.667-.4-2.551-.063-4.588.989-6.062a5.573 5.573 0 0 1 2.845-2.034c.25.579.459 1.1.594 1.5a.709.709 0 0 0 .423.441 29.809 29.809 0 0 0 9.148 1.7 11.318 11.318 0 0 0 6.23-1.557.712.712 0 0 0 .319-.552c.008-.132.085-1.368.16-3.057.069 0 .128.051.2.032a3.247 3.247 0 0 1 2.594.416c2.9 1.857 4.3 8.16 5.222 12.331.259 1.172.488 2.2.707 2.957.908 3.145 3.375 5.981 4.858 7.473a22.342 22.342 0 0 0-3.1.651c-.013 0-.023-.007-.036 0s-.014.016-.024.02a18.391 18.391 0 0 0-12.4 11.466c-6.007-7.342-16.936-7.345-21.08-7.048Zm41.492 42.086a11.393 11.393 0 0 1-13.417-3.324c-11.049-13.752-16.717-31.861-18.055-36.535 3.985.953 8.11 2.889 10.744 6.762a.7.7 0 0 0 .575.307.718.718 0 0 0 .138-.014.707.707 0 0 0 .547-.548 16.577 16.577 0 0 1 11.233-11.6 11.468 11.468 0 0 0 1.887 3.371c.286.334.672.71 1.127 1.151a21.048 21.048 0 0 1 5.746 8.46.7.7 0 0 0 .658.467.683.683 0 0 0 .241-.044.716.716 0 0 0 .416-.915 21.142 21.142 0 0 0-2.934-5.484c3.038-4.774 8.507-8.536 9.255-9.037a78.46 78.46 0 0 1 24.672 22.133.689.689 0 0 0-.411.284c-8.218 12.651-23.841 20.828-32.422 24.576Zm22.537-11.817a53.292 53.292 0 0 0 11.053-11.961c.015-.024 0-.053.015-.078a2.873 2.873 0 0 0 2.209 1.088 2.7 2.7 0 0 0 .37-.024 31.921 31.921 0 0 0 25.658-19.767c5.008-12.885 1.126-27.52-8.957-35.8a67.494 67.494 0 0 0 19.778 2.961 68.279 68.279 0 0 0 26.146-5.057c15.563 16.1 11.673 43.183-.98 59.212a79.068 79.068 0 0 1-3.214 3.817c-.8.894-1.56 1.692-2.29 2.463a37.969 37.969 0 0 0-6.284 8.058.722.722 0 0 0 .252.975.7.7 0 0 0 .958-.26 31.584 31.584 0 0 1 4.13-5.667c-.837 4.662-2.54 14.906-2.306 19.82-5.75.774-18.026 1.915-28.8-.506-11.411-2.557-31.273-5.907-43.717-1.89 2.983-9.359 5.61-16.392 5.979-17.374Zm68.5 31.48c-2.583 1.144-24.326 5.552-46.094-.153a76.384 76.384 0 0 0-19.3-2.679 42.027 42.027 0 0 0-14.791 2.3c.2-7.741 2.484-10.514 2.856-10.916 11.934-6.118 36.31-1.6 46.257.627 13.326 2.992 28.881.645 32.076.109a14.362 14.362 0 0 1-1.003 10.722Zm1.339-12.222c-.034.007-.73.136-1.913.313-.233-5.841 2.339-19.687 2.689-21.539l.178-.187a107.36 107.36 0 0 0 2.318-2.493 81.334 81.334 0 0 0 3.272-3.885 51.64 51.64 0 0 0 5.906-9.569 11.013 11.013 0 0 0 9 4.618 9.978 9.978 0 0 0 2.361-.257c.313-.095.612-.246.922-.355 1.559 2.33 6.476 9.374 11.407 13.206a48.572 48.572 0 0 0-3.472 14.306 34.1 34.1 0 0 1-2.028 9.324c-5.571.487-8.7-1.307-8.754-1.338a.7.7 0 0 0-.867.123.725.725 0 0 0-.073.889 28.257 28.257 0 0 1 3.187 6.466 7.876 7.876 0 0 1-.58 3.67 14.5 14.5 0 0 0-.751 7.378l-21.787-19.511c-.077-.238-.143-.473-.234-.714a.72.72 0 0 0-.776-.435Zm.874 10.586a15.61 15.61 0 0 0 .688-7.039l24.5 21.939c.048.043.112.037.167.064-.68 1.148-1.59 2.721-1.95 3.515-.068.148-.163.339-.277.566-.13.258-.288.582-.456.938Zm20.756 33.56c-.222.019-1.112-.021-3.427-1.608a2.985 2.985 0 0 1-1.288-2.449c-.037-6.8 1.5-10.255 2.232-11.512l3.811 3.359a15.234 15.234 0 0 0-1.145 6.075l-1.469.451a.715.715 0 0 0-.468.889.7.7 0 0 0 .67.506.673.673 0 0 0 .2-.03l1.211-.372c.026.161.028.316.06.479a29.165 29.165 0 0 0 1.8 3.408 5.569 5.569 0 0 1-2.186.814Zm5.859.843a3.849 3.849 0 0 1-.878.022 3.464 3.464 0 0 0 1.329-.261 2.209 2.209 0 0 0 1.418-2.391 43.573 43.573 0 0 0-.492-2.946c.012-.014.032-.011.043-.025 1.6-2.042 4.91-3.274 5.577-3.509.671.051 1.677.249 1.81.961a1.382 1.382 0 0 1-.511 1.253 14.514 14.514 0 0 0-4.539 4.12 11.042 11.042 0 0 1-3.756 2.789Zm1.243-7.464c.151-.477.444-1.036 1.059-1.08.116-.008.316-.052.483-.083a11.8 11.8 0 0 0-1.541 1.173Zm4.99 8.731a2.877 2.877 0 0 1-2.85-1.687 8 8 0 0 0 1.5-1.5 13.151 13.151 0 0 1 4-3.679 2.144 2.144 0 0 0 .753-.69c.042-.006.079.022.12.008.22-.079.44-.165.661-.251a4.137 4.137 0 0 1 2.1-.462 1.792 1.792 0 0 1 1.186.718 1.42 1.42 0 0 1 .251 1.088c-.128.722-1.119 1.518-2.946 2.365a5.528 5.528 0 0 0-2.11 1.876 10.393 10.393 0 0 1-.87 1.026 5.554 5.554 0 0 1-1.794 1.198Zm9.061-6.1a5.381 5.381 0 0 1 2.813-.263 1.349 1.349 0 0 1 .616.97 2.244 2.244 0 0 1-.36.97c-.051.069-.051.069-.187.128a6.121 6.121 0 0 0-2.091 1.592c-.421.429-.774.838-1.1 1.221-1.013 1.172-1.682 1.947-3.313 2.2a7.718 7.718 0 0 1-2.809-.773c.048-.044.094-.071.141-.118a11.245 11.245 0 0 0 .99-1.161 4.23 4.23 0 0 1 1.592-1.46c1.43-.66 3.355-1.723 3.709-3.299Zm-2.4-3.835a.67.67 0 0 0-.146.281c-.017 0-.03-.014-.047-.017a4.935 4.935 0 0 0-2.52.439 2.4 2.4 0 0 0 0-.448c-.124-.658-.632-1.727-2.525-2.042a15.448 15.448 0 0 0 6.424-6.021.72.72 0 0 0-.279-.968.7.7 0 0 0-.949.286c-2.514 4.686-8.948 7.076-10.648 7.2-1.813.125-2.436 2.059-2.512 3.061a.7.7 0 0 0 .017.219c0 .023.524 2.286.769 4.235a.786.786 0 0 1-.57.894 1.893 1.893 0 0 1-2.039-.337 25.782 25.782 0 0 1-2.016-3.6c-.757-3.923 1.039-7.5 1.9-9.219.125-.248.229-.457.3-.617.555-1.226 2.663-4.689 2.684-4.723a.72.72 0 0 0-.226-.982.689.689 0 0 0-.964.23l-.109.179-2.143-1.919c6.116-2.281 16.129-2.436 19.674 4.353.01.954-.159 6.218-4.071 9.523Zm15.952-21.362c-1.561 1.047-4.238 3.073-5.185 5.217-.93 2.108-4.4 4.552-5.767 5.456-4.147-6.987-14.573-6.911-21.022-4.539-.839-2.714-.125-5.187.53-7.385.5-1.681.933-3.133.593-4.445a22.68 22.68 0 0 0-2.221-5c3.431 1.089 10.92 2.066 21.556-4.319 1.137 2.765 5.245 11.819 11.52 15.022Zm6.071-31.193c-1.41 4.548-5.234 15.895-10.808 25.183a43.921 43.921 0 0 1-5.782-10.3.711.711 0 0 0-.428-.423.685.685 0 0 0-.592.068 33.626 33.626 0 0 1-12.582 4.993 37.067 37.067 0 0 0 1.847-9 46.628 46.628 0 0 1 3.579-14.355.721.721 0 0 0-.221-.889c-4.648-3.416-9.565-10.311-11.337-12.917 7.975-3.313 14.82-10.816 17.792-19.808a30.249 30.249 0 0 0 1.012-4.088c3 3.934 14.134 19.334 17.732 35.876a11.145 11.145 0 0 1-.213 5.667Z"/><path d="M208.524 249.344a.7.7 0 0 0-.123.068.673.673 0 0 1 .123-.068ZM147.4 155.246a.716.716 0 0 0 .244.529.694.694 0 0 0 .456.171.769.769 0 0 0 .095-.006c.245-.033 24.5-3.712 21.519-28.986a.671.671 0 0 0-.71-.627c-.22.004-22.027.789-21.604 28.919Zm21-27.455c2.108 21.063-15.544 25.793-19.6 26.6.011-23.564 16.1-26.291 19.6-26.6Zm-31.658 18.224h.04a.708.708 0 0 0 .655-.624c2.367-19.148 21.185-23.019 21.375-23.056a.716.716 0 0 0-.03-1.407c-8.8-1.3-15.251.256-19.176 4.644-6.472 7.239-3.666 19.385-3.544 19.9a.7.7 0 0 0 .68.543Zm3.9-19.486c2.752-3.075 6.937-4.624 12.481-4.624.646 0 1.313.021 2 .065-5.254 1.948-15.027 7.089-18.262 19.06-.289-4.076.029-10.305 3.784-14.501Zm17.703 37.676a.715.715 0 0 0-.349.77.7.7 0 0 0 .621.564c.1.009.7.06 1.643.06 3.282 0 10.681-.633 15.238-5.941 3.7-4.3 4.63-10.663 2.778-18.9a.674.674 0 0 0-.727-.55.7.7 0 0 0-.653.64c-.013.133-1.532 13.838-18.551 23.357Zm19.176-19.775c.832 6.139-.2 10.934-3.071 14.283-3.745 4.366-9.818 5.278-13.211 5.426 10.894-6.823 14.861-15.123 16.282-19.709Zm55.521-14.093c.14.038 13.99 3.909 19.374 14.437a.7.7 0 0 0 .621.382.687.687 0 0 0 .167-.02.707.707 0 0 0 .533-.692c0-.4-.07-9.815-6.156-14.36-3.6-2.69-8.5-3.061-14.568-1.116a.717.717 0 0 0 .029 1.369Zm13.706.892c3.5 2.608 4.806 7.185 5.3 10.209-4.746-6.774-12.528-10.316-16.369-11.732 4.573-1.058 8.291-.548 11.069 1.523Zm-91.762 305.354a2.6 2.6 0 1 0-2.129-2.555 2.371 2.371 0 0 0 2.129 2.555Zm4.538 5.107a.716.716 0 0 0 .43-.907.69.69 0 0 0-.89-.439c-.059.021-5.975 2.061-9.981-.689a.694.694 0 0 0-.972.192.726.726 0 0 0 .19.992c4.593 3.151 10.955.949 11.223.851Zm49-192.346a.665.665 0 0 1 .241-.05h.147a.778.778 0 0 0-.117-.014.662.662 0 0 0-.271.064Zm-.173.102.05-.034c-.016.012-.034.021-.05.034Z"/><path d="M208.065 250.01c-.284.984-2.127 6.48-10.011 15.38-7.749 8.748-9.967 13.878-10.469 15.254-4 1.326-15.022 3.855-32.424-.7a95 95 0 0 0-23.878-2.922 93.136 93.136 0 0 0-21.026 2.217c-1.9-2.455-13.886-18.311-15.849-28.53h18.555-.038a.712.712 0 0 1-.529-.85c.009-.039.058-.241.163-.571H93.782c-.043 0-.07.039-.111.047-.043-.009-.076-.047-.122-.047a.874.874 0 0 0-.1.007.71.71 0 0 0-.592.808c1.453 10.156 13.072 25.815 15.938 29.552a5.173 5.173 0 0 0-.932.37.687.687 0 0 0-.244.241 10.619 10.619 0 0 0-.573 1.139l-17.738-15.641c.82-1.314 2.6-5.022 2.556-12.471a4.423 4.423 0 0 0-1.905-3.623c-2.4-1.65-3.565-1.856-4.1-1.856a2.234 2.234 0 0 0-.263.016 6.217 6.217 0 0 0-1.677.452 5.143 5.143 0 0 0-3.466-1.32 5.82 5.82 0 0 0-.933.076 13.938 13.938 0 0 0-1.861.975 4.2 4.2 0 0 0-3.728-2.3 4.853 4.853 0 0 0-.542.03 6.6 6.6 0 0 0-1.143.537 8.392 8.392 0 0 0-4.083-1.28 6.289 6.289 0 0 0-4.306 2.68c-.312.36-.645.748-1.043 1.154a4.8 4.8 0 0 1-1.64 1.283 1.612 1.612 0 0 0-.773.6 3.588 3.588 0 0 0-.629 1.8 2.847 2.847 0 0 0 1.475 2.316.621.621 0 0 0 .212.065 7.214 7.214 0 0 0 3.242-.178 2.917 2.917 0 0 0 .359.8 3.124 3.124 0 0 0 .769.713c-3.925 3.535-4.3 8.643-4.314 10.148-1.228.792-5.405 3.627-6.567 6.256-1.152 2.608-5.718 5.27-5.764 5.3a.717.717 0 0 0 .111 1.291 14.219 14.219 0 0 1 5.53 4.09c-5.57 9.138-9.4 20.1-11.19 25.887a12.592 12.592 0 0 0-.244 6.392c4.223 19.415 18.632 37.272 18.784 37.461a22.965 22.965 0 0 0 4.033 16.242c6.886 9.6 20.22 11.479 30.045 8.417a35.546 35.546 0 0 0 3.851 4.744c.207 5.027 5.26 10.016 5.481 10.23a.69.69 0 0 0 .862.083c.357-.235.729-.453 1.1-.666a.7.7 0 0 0 .059.43 28.242 28.242 0 0 1 3.422 12.5l-.278-.1.314 1.291a12.364 12.364 0 0 1 .208 3.621 13.584 13.584 0 0 0-1.8-1.439l-1.133-.736.058 1.367c0 .057.2 5.606-1.74 9.619-.816-.49-1.353-.8-1.51-.888a.693.693 0 0 0-.341-.09.686.686 0 0 0-.365.1c-.109.067-.2.139-.3.208a10.363 10.363 0 0 0-3.936-5.569c-2.136-1.541-4.535-1.943-6.855-2.333l-1.057-.181c-1.318-.234-2.938-1-3.377-2.128a2.083 2.083 0 0 1 .046-1.474 17.264 17.264 0 0 1 .966-1.97c1.851-3.438 4.647-8.637-1.33-14.91a.693.693 0 0 0-.5-.216.683.683 0 0 0-.306.072.718.718 0 0 0-.388.736 8.665 8.665 0 0 1-.062 2.409 5.626 5.626 0 0 0-2.052-1.165.685.685 0 0 0-.775.281.723.723 0 0 0 .021.837c.029.038 2.841 3.895-.027 10.739-.111.17-2.68 4.18-1.552 7.648a6.079 6.079 0 0 0 4.1 3.764c.115.019 11.537 2.129 13.558 8.483.01.033.046.043.06.073a6.225 6.225 0 0 0 .06 2.316.715.715 0 0 0 .315.413c.468.282.908.562 1.366.843a21.286 21.286 0 0 0-1.157 12.771 10.79 10.79 0 0 0-2.23.107l-1.67.262 1.363 1.019c1 .745 3.692 3.052 4.157 4.756.7 2.569 4.745 15.657 15.673 21.093 6.728 3.343 14.725 3.134 23.762-.607a14.168 14.168 0 0 1 .56 1.707.721.721 0 0 0 .319.459.682.682 0 0 0 .545.081 20.088 20.088 0 0 0 6.812-3.079.722.722 0 0 0 .236-.785c-.142-.444-.313-.883-.473-1.325 1.832-1.043 8.731-4.686 15.968-4.744l1.974-.017-1.543-1.253a32.431 32.431 0 0 0-6.114-3.785 9.13 9.13 0 0 0 2.966-7.239c-.441-4.331 1.818-14.908 5.839-20.645a2.858 2.858 0 0 0-.455-3.753 10.4 10.4 0 0 0-4.293-1.838l-.047-.011c-.442-.778-1.774-3.343-1.489-5.524.074-.564.177-1.117.28-1.662.428-2.293.871-4.663-.984-7.156-1.514-2.03-5.855-3.65-11.9-3.65a38.743 38.743 0 0 0-6.149.536c-.457-1.929-1.717-8.3.353-12.226 1.274.265 2.028.452 2.072.463a.711.711 0 0 0 .661-.183 22.7 22.7 0 0 0 4.7-7.8c12.363 6.231 27.948 3.038 36.3-7.763a26.487 26.487 0 0 0 2.955-4.84l24.5 22.114a2.894 2.894 0 0 0-.639 1.384c-.343 1.743-.969 6.009.623 7.939a2.662 2.662 0 0 0 1.662.942 3.871 3.871 0 0 0 .167.813 4.7 4.7 0 0 0 2.424 2.535 3.164 3.164 0 0 0 1.01.278 5.139 5.139 0 0 0 .3 1.265c.8 1.8 3.306 2.147 4.43 2.212l.141.462a3.755 3.755 0 0 0 3.235 2.676h.009a2.539 2.539 0 0 0 .288-.02 13.667 13.667 0 0 0 4.125 4.142.705.705 0 0 0 .26.1c2.942.486 5.977-1.291 7.1-2.038l9.43 8.511a.664.664 0 0 0-.393.177c-5.718 6.466-23.785 6.3-23.971 6.278-.205-.086-.4.084-.533.237a.725.725 0 0 0-.172.566c3.475 27.51 26 27.777 26.546 27.777h.009a.7.7 0 0 0 .545-.274.726.726 0 0 0 .127-.608c-3.539-14.811 5.314-22.663 6.984-23.989a2.287 2.287 0 0 0 1.649.094l2.706 7.669a.707.707 0 0 0 .537.462l13.462 2.416a.708.708 0 0 0 .792-.907l-3.687-12.582a.712.712 0 0 0-.446-.471l-7.56-2.6a2.447 2.447 0 0 0 .149-.877 2.382 2.382 0 0 0-.539-1.4c1.36-1.347 6.091-5.68 11.046-6.067a.709.709 0 0 0 .646-.734l-.387-12.364a.7.7 0 0 0-.689-.689l-11.245-.167h-.011a.7.7 0 0 0-.678.534 30.785 30.785 0 0 1-6.7 11.731 2.284 2.284 0 0 0-1.268-.428h-.06a2.318 2.318 0 0 0-.821.186l-9.2-8.64a3.779 3.779 0 0 0 1.206-2.12c.155-.871-.262-4.355-.916-9.572-.268-2.138-.5-3.985-.562-4.807-.132-1.763-1.586-3.889-3.126-6.138-.737-1.078-1.5-2.194-2.109-3.261-1.345-2.359-4.365-7.959-6.141-11.778a6.944 6.944 0 0 0 3.369-2.48c1.293-1.792 1.716-4.2 1.258-7.146-1.364-8.769-.4-14.759 3.03-18.853a.722.722 0 0 0 .081-.805.684.684 0 0 0-.711-.363 35.453 35.453 0 0 1-9.9-.322c-.862-3.15-6.6-22.926-18.52-37.769a12.828 12.828 0 0 0-9.989-4.786 12.6 12.6 0 0 0-5.063 1.059 99.9 99.9 0 0 0-19.877 11.465 412.89 412.89 0 0 0 5.534-16.3 21.37 21.37 0 0 0 1.915-.851.752.752 0 0 0 .139-.1c.139-.123 3.4-3.113 3.4-13.113a.712.712 0 0 0-.329-.6.652.652 0 0 0-.582-.057c1.022-2.173 3.618-6.769 9.691-13.625 7.519-8.487 9.684-13.932 10.223-15.627h-.551a.705.705 0 0 1-.715-.714Zm-100.686 43.382c.034-.007.73-.136 1.913-.313.233 5.84-2.338 19.687-2.689 21.539l-.178.187a103.44 103.44 0 0 0-2.318 2.493 80.727 80.727 0 0 0-3.271 3.885 51.59 51.59 0 0 0-5.907 9.569 11.011 11.011 0 0 0-9-4.619 10.017 10.017 0 0 0-2.361.258c-.313.095-.612.246-.922.355-1.559-2.33-6.476-9.374-11.407-13.206a48.572 48.572 0 0 0 3.472-14.306 34.137 34.137 0 0 1 2.028-9.324c5.571-.487 8.7 1.307 8.754 1.337a.7.7 0 0 0 .867-.123.723.723 0 0 0 .073-.888 28.316 28.316 0 0 1-3.187-6.467 7.864 7.864 0 0 1 .581-3.669 14.515 14.515 0 0 0 .75-7.378l21.787 19.511c.077.238.143.473.234.713a.719.719 0 0 0 .781.446Zm-.874-10.586a15.594 15.594 0 0 0-.687 7.038l-24.5-21.938c-.047-.043-.112-.037-.167-.064.68-1.148 1.591-2.721 1.951-3.515.067-.149.163-.339.277-.566.129-.258.287-.582.455-.938Zm-20.756-33.56c.222-.019 1.112.021 3.427 1.608a2.985 2.985 0 0 1 1.288 2.449c.037 6.8-1.5 10.255-2.232 11.511l-3.81-3.358a15.252 15.252 0 0 0 1.144-6.075l1.469-.451a.714.714 0 0 0 .468-.889.7.7 0 0 0-.67-.506.673.673 0 0 0-.2.03l-1.211.372c-.026-.161-.028-.316-.06-.479a29.165 29.165 0 0 0-1.8-3.408 5.569 5.569 0 0 1 2.187-.804Zm-5.859-.846a3.85 3.85 0 0 1 .878-.022 3.464 3.464 0 0 0-1.329.261 2.209 2.209 0 0 0-1.418 2.391c.129 1.028.326 2.11.493 2.946-.013.013-.033.011-.044.025-1.6 2.042-4.91 3.274-5.577 3.509-.671-.051-1.676-.249-1.81-.961a1.381 1.381 0 0 1 .511-1.253 14.514 14.514 0 0 0 4.539-4.12 11.042 11.042 0 0 1 3.757-2.776Zm-1.243 7.464c-.151.477-.443 1.036-1.059 1.079-.116.009-.316.053-.483.083a11.637 11.637 0 0 0 1.542-1.159Zm-4.99-8.731a2.878 2.878 0 0 1 2.851 1.687 8 8 0 0 0-1.5 1.5 13.151 13.151 0 0 1-4 3.679 2.152 2.152 0 0 0-.753.69c-.042.006-.079-.022-.12-.008-.22.079-.439.165-.661.251a4.125 4.125 0 0 1-2.1.461 1.783 1.783 0 0 1-1.185-.717 1.416 1.416 0 0 1-.252-1.088c.129-.722 1.119-1.518 2.946-2.365A5.521 5.521 0 0 0 71 249.352a10.159 10.159 0 0 1 .871-1.025 5.56 5.56 0 0 1 1.786-1.191Zm-9.061 6.1a5.381 5.381 0 0 1-2.813.263 1.349 1.349 0 0 1-.616-.97 2.244 2.244 0 0 1 .36-.97c.051-.07.051-.07.187-.128a6.121 6.121 0 0 0 2.091-1.592c.421-.429.774-.838 1.1-1.221 1.013-1.172 1.682-1.947 3.313-2.2a7.708 7.708 0 0 1 2.809.773c-.047.044-.094.07-.141.118a11.345 11.345 0 0 0-.99 1.16 4.211 4.211 0 0 1-1.591 1.46c-1.434.674-3.355 1.737-3.705 3.313Zm2.4 3.835a.659.659 0 0 0 .146-.281c.017 0 .03.014.047.016a4.934 4.934 0 0 0 2.52-.437 2.472 2.472 0 0 0 0 .447c.124.658.632 1.727 2.525 2.042a15.442 15.442 0 0 0-6.424 6.021.721.721 0 0 0 .279.968.7.7 0 0 0 .95-.286c2.513-4.686 8.947-7.077 10.647-7.2 1.813-.125 2.436-2.059 2.512-3.061a.7.7 0 0 0-.017-.219c0-.023-.524-2.286-.769-4.235a.785.785 0 0 1 .57-.894 1.891 1.891 0 0 1 2.039.337 25.782 25.782 0 0 1 2.016 3.6c.757 3.923-1.039 7.5-1.9 9.219-.125.248-.229.457-.3.617-.555 1.226-2.663 4.688-2.684 4.723a.721.721 0 0 0 .226.982.689.689 0 0 0 .964-.23l.109-.18 2.143 1.92c-6.116 2.281-16.129 2.436-19.674-4.353-.009-.941.16-6.205 4.072-9.51Zm-15.955 21.368c1.561-1.047 4.238-3.073 5.185-5.218.93-2.107 4.4-4.551 5.767-5.455 4.148 6.987 14.573 6.911 21.022 4.539.839 2.714.125 5.186-.529 7.385-.5 1.68-.934 3.133-.594 4.445a22.726 22.726 0 0 0 2.221 5c-3.431-1.089-10.92-2.066-21.555 4.319-1.134-2.758-5.242-11.812-11.517-15.015Zm-6.282 36.849a11.134 11.134 0 0 1 .212-5.656c1.41-4.548 5.233-15.9 10.807-25.183a43.921 43.921 0 0 1 5.782 10.3.708.708 0 0 0 .428.423.685.685 0 0 0 .592-.068 33.626 33.626 0 0 1 12.582-4.993 37.067 37.067 0 0 0-1.847 9 46.628 46.628 0 0 1-3.579 14.355.721.721 0 0 0 .221.889c4.648 3.416 9.566 10.311 11.337 12.917-7.975 3.313-14.82 10.816-17.792 19.808a30.249 30.249 0 0 0-1.012 4.088c-3.003-3.938-14.134-19.338-17.731-35.88Zm22.58 53.175c-4.162-5.8-5.052-13.234-2.51-20.932 2.893-8.754 9.6-16.021 17.357-19.086a.65.65 0 0 0 .765.064.7.7 0 0 0 .3-.474c.235-.08.463-.2.7-.269a9.587 9.587 0 0 1 10.3 4.434 56.314 56.314 0 0 0-1.79 4.564 15.386 15.386 0 0 0-5.931-1.29 11.208 11.208 0 0 0-6.066 1.617.72.72 0 0 0 .2 1.277A38.725 38.725 0 0 1 90.6 343.3a55.504 55.504 0 0 0-.706 4c-2.209-1.333-8.076-4.461-14.536-4.461-.528 0-1.062.021-1.6.065a.7.7 0 0 0-.633.594c-.025.152-2.235 15.332 17.461 21.422a38.171 38.171 0 0 0 4.81 11.565c-9.296 2.723-21.658.897-28.057-8.025Zm24.675-30.35a56.382 56.382 0 0 0-1.042 3.718 41.887 41.887 0 0 0-8.237-4.28 12.447 12.447 0 0 1 9.279.562Zm-1.755 25.19c-15.845-5.238-16.015-16.361-15.807-19.017 7.056-.306 13.781 3.642 15.27 4.578a47.968 47.968 0 0 0 .537 14.439Zm-2.853 49.859a4.688 4.688 0 0 1-3.123-2.836c-.917-2.806 1.365-6.378 1.447-6.526 1.93-4.584 1.584-7.991.957-10.041a4.1 4.1 0 0 1 .387.441.8.8 0 0 0 .625.293.7.7 0 0 0 .569-.392 6.315 6.315 0 0 0 .553-2.233c3.621 4.83 1.561 8.657-.123 11.788a18.243 18.243 0 0 0-1.047 2.149 3.475 3.475 0 0 0-.038 2.507c.685 1.757 2.818 2.717 4.436 3.008l1.071.183c2.263.378 4.4.736 6.273 2.089a8.823 8.823 0 0 1 3.55 5.335 7.451 7.451 0 0 0-1.652 2.185c-3.297-5.998-13.526-7.894-13.885-7.948Zm31.752 52.226c-10.39-5.167-14.268-17.725-14.94-20.19-.429-1.573-2.031-3.252-3.25-4.347a8.965 8.965 0 0 1 1.063.1l1.072.2-.27-1.075a20.014 20.014 0 0 1 .787-12.657c26.633 16.648 35.444 31.25 38.14 37.336-8.646 3.573-16.252 3.798-22.602.635Zm24.885 1.355c-1.129-3.8-7.971-21.364-42.023-41.987-.124-.817-.244-3.44 2.806-5.527 3.828 2.252 36.694 22.142 44.455 45.159a20.238 20.238 0 0 1-5.238 2.357Zm20.182-9.69a38.152 38.152 0 0 0-14.426 4.72c-8.146-20.227-33.5-37.171-41.931-42.372a22.97 22.97 0 0 0 1.927-8.975 16.591 16.591 0 0 1 1.434 1.381l.892 1 .307-1.312a12.969 12.969 0 0 0 .215-4.282 16.757 16.757 0 0 1 6.21 5.526l1.292 2.082v-2.91c4.348 3.99 6.173 11.335 6.193 11.416l.692 2.855.668-2.861c.321-1.374 1.764-2.168 2.824-2.577a7.467 7.467 0 0 0 1.256 6.336 22.527 22.527 0 0 1 3.412 6.079l.526 1.541.753-1.439a8.207 8.207 0 0 0 .729-3.767c5.849 4.672 7.16 13.213 7.173 13.3l.206 1.4.982-1a7.156 7.156 0 0 0 .829-1.021 13.683 13.683 0 0 1 1.61 7.752l-.134 1.078 1.026-.306c2.352-.706 4.8-2.9 5.949-4.023a11.075 11.075 0 0 1 .735 5.789l-.113.683.665.136a24.4 24.4 0 0 1 8.099 3.773Zm-2.934-50.693c1.479 1.984 1.128 3.857.723 6.025-.071.381-.132.772-.2 1.161a35.344 35.344 0 0 1-5.474-.036.57.57 0 0 0-.082 0 .713.713 0 0 0-.079 1.42 35.54 35.54 0 0 0 5.508.054 12.96 12.96 0 0 0 1.866 5.862.711.711 0 0 0 .415.307l.332.083a9.471 9.471 0 0 1 3.7 1.523 1.416 1.416 0 0 1 .244 1.857c-4.2 5.992-6.554 17.072-6.092 21.622.334 3.286-2.172 5.765-3 6.492a18.152 18.152 0 0 0-2.123-.7 11.251 11.251 0 0 0-1.47-6.916l-.492-.738-.6.652a20.336 20.336 0 0 1-5.02 3.924 13.963 13.963 0 0 0-2.578-8.561l-.742-.959-.457 1.13a4.24 4.24 0 0 1-.233.46c-.73-3.078-2.936-9.908-8.685-13.589l-1.31-.838.246 1.555a11.019 11.019 0 0 1 .037 2.665 23.1 23.1 0 0 0-2.876-4.649c-2.091-2.576-.665-6.174-.651-6.211l.5-1.226-1.277.251a8.237 8.237 0 0 0-4.224 2.305c-.922-2.832-3.194-8.486-7.357-11.443l-1.1-.782v1.2a17.087 17.087 0 0 0-6.3-4.651 29.466 29.466 0 0 0-3.633-13.791.69.69 0 0 0-.247-.245c10.754-5.389 27.486-3.077 34.707-1.7-2.022 4.353-.8 10.653-.3 12.766a47.669 47.669 0 0 0-6.821 1.849.716.716 0 0 0-.432.907.692.692 0 0 0 .891.439c13.427-4.739 22.843-1.949 24.686.528Zm-14.555-17.222c-3.47-.835-27.237-6.127-40.564 2.131-1.133-1.209-4.426-5.015-4.688-8.664a67.807 67.807 0 0 1 49.382-.55 22.2 22.2 0 0 1-4.13 7.085Zm40.605-15.148a27.5 27.5 0 0 1-21.818 10.4 28.221 28.221 0 0 1-14.49-3.964c-12.033-7.19-17.114-22.886-11.817-36.513a30.515 30.515 0 0 1 24.541-18.876 1.475 1.475 0 0 1 1.4.643 81.221 81.221 0 0 0 12.033 13.494 80.236 80.236 0 0 0 14.344 10.256 1.485 1.485 0 0 1 .748 1.035c.774 4.156 1.838 14.756-4.941 23.527Zm15.2-25.995c.044.037 4.4 3.774 5.582 7.88.213.736.433 1.731.684 2.866 1.034 4.665 2.45 11.053 5.843 13.225a4.549 4.549 0 0 0 3.483.621 69.44 69.44 0 0 0 .044 7.922c.026.256.045.568.065.87l-24.055-22.585a36.381 36.381 0 0 0-.528-8.589 2.912 2.912 0 0 0-.815-1.525 36.5 36.5 0 0 0 8.927-8.73c.828.973 1.614 1.739 2.239 2.345.419.406.776.752 1.04 1.058a10.011 10.011 0 0 1 1.578 2.8 22.545 22.545 0 0 1-3.688.585.7.7 0 0 0-.617.492.722.722 0 0 0 .219.767Zm14.94 52.948a1.289 1.289 0 0 1-.527-.388c-.982-1.193-.811-4.266-.323-6.747.127-.647.3-.8.348-.828.076-.04.265-.07.749.079.268.083.673.926.909 1.822-.771 1.16-1.151 3.942-1.155 6.064Zm.651-9.249a3.513 3.513 0 0 0-.9-.16c-.033-.051-.029-.118-.077-.161L192 368.668a30.058 30.058 0 0 0 2.04-8.075l24.319 22.832a59.283 59.283 0 0 0 1.006 9.438 2.314 2.314 0 0 0-1.232-1.17Zm2.891 12.882a3.232 3.232 0 0 1-2-1.844c-.514-1.416.135-6.473.715-7.067a1.08 1.08 0 0 1 .345-.136 18.314 18.314 0 0 0 1.194 2.9 50.158 50.158 0 0 0-.253 6.149Zm1.7 2.137c-.393-.884-.372-3.544-.225-5.921a49.117 49.117 0 0 1 2.931 7.261c-1.016-.129-2.34-.509-2.709-1.338Zm11.576 8.773a12.11 12.11 0 0 1-3.482-3.448 4.155 4.155 0 0 0 1.177-2 9.307 9.307 0 0 0 .4-3l2.438 2.2a4.936 4.936 0 0 1-.73 2.36.724.724 0 0 0 .147 1 .688.688 0 0 0 .976-.144 6.122 6.122 0 0 0 .881-2.062l3.836 3.463c-1.151.704-3.483 1.918-5.642 1.633Zm16.762 41.438c-4.1-.265-20.891-2.755-24.165-25.7 3.662-.029 18.312-.547 23.972-6.508a2.347 2.347 0 0 0 .61 1.121l7 6.787c-2.297 1.979-10.384 10.139-7.42 24.302Zm22.77-25.5 3.26 11.122-11.949-2.143-2.68-7.6 3.747-4.008Zm-7.275-24.7 10.044.149.345 11.022c-5.214.724-9.838 4.981-11.242 6.386l-5.985-5.807a32.347 32.347 0 0 0 6.835-11.755Zm-9.867 12.132a.942.942 0 0 1 .673-.3 1.125 1.125 0 0 1 .685.269l7.467 7.246a.967.967 0 0 1 .3.682.979.979 0 0 1-.265.7l-4.279 4.576a.952.952 0 0 1-1.357.035l-7.467-7.246a.989.989 0 0 1-.033-1.38Zm-1.313-.664-3.9 4.166-19.362-17.476a24.04 24.04 0 0 0-.335-1.277 5.756 5.756 0 0 1-.283-1.286 9.262 9.262 0 0 1 .409-1.7 27.236 27.236 0 0 0 .843-3.669Zm-14.789-34.7c.638 1.121 1.418 2.261 2.171 3.361 1.365 2 2.777 4.057 2.88 5.431.064.861.3 2.723.568 4.881.4 3.147 1.055 8.416.927 9.135a2.452 2.452 0 0 1-.855 1.412l-11-10.334a22.872 22.872 0 0 0 2.732.938.712.712 0 0 0 .341-1.383 35.574 35.574 0 0 1-5.45-2.16c0-.366.022-.725-.014-1.1a.7.7 0 0 0-.764-.641.712.712 0 0 0-.629.78 16.887 16.887 0 0 1-.923 6.4 9.1 9.1 0 0 0-.467 2.094 6.3 6.3 0 0 0 .338 1.7 9.3 9.3 0 0 1 .219 5.621c-.223.733-.646 1.606-1.4 1.608a2.379 2.379 0 0 1-1.9-1.68l-.21-.692a52.111 52.111 0 0 0-4.533-10.894c-2.361-4.308-2.659-10.558-2.856-14.7l-.01-.191c-.05-1.049-.1-1.98-.171-2.706a105.747 105.747 0 0 1 .154-11.751c4.326-2.518 11.924-.179 13.537.365 1.272 3.49 5.828 11.892 7.312 14.498Zm.664-40.563c-2.9 4.35-3.645 10.342-2.351 18.668.4 2.55.063 4.588-.989 6.062a5.573 5.573 0 0 1-2.845 2.034c-.25-.579-.459-1.1-.594-1.5a.707.707 0 0 0-.423-.441 29.8 29.8 0 0 0-9.148-1.7 11.319 11.319 0 0 0-6.23 1.558.718.718 0 0 0-.319.552c-.008.131-.085 1.368-.16 3.057-.069 0-.128-.051-.2-.032a3.247 3.247 0 0 1-2.594-.416c-2.9-1.857-4.3-8.16-5.222-12.331-.259-1.172-.488-2.2-.707-2.957-.908-3.145-3.374-5.981-4.858-7.473a22.342 22.342 0 0 0 3.1-.651c.013 0 .024.007.036 0s.014-.016.024-.02a18.391 18.391 0 0 0 12.4-11.466c6 7.343 16.929 7.345 21.077 7.048Zm-41.492-42.085a11.394 11.394 0 0 1 13.417 3.323c11.049 13.753 16.717 31.862 18.055 36.536-3.985-.953-8.109-2.89-10.744-6.763a.7.7 0 0 0-.575-.306.718.718 0 0 0-.138.014.709.709 0 0 0-.547.548 16.575 16.575 0 0 1-11.233 11.6 11.445 11.445 0 0 0-1.887-3.371c-.286-.335-.672-.71-1.127-1.151a21.055 21.055 0 0 1-5.746-8.46.7.7 0 0 0-.658-.467.663.663 0 0 0-.241.045.715.715 0 0 0-.416.914 21.142 21.142 0 0 0 2.934 5.484c-3.038 4.774-8.506 8.536-9.255 9.037a78.46 78.46 0 0 1-24.672-22.133.689.689 0 0 0 .411-.284c8.215-12.649 23.838-20.826 32.419-24.574Zm-22.54 11.809a53.292 53.292 0 0 0-11.053 11.961c-.015.024 0 .053-.014.078a2.811 2.811 0 0 0-2.58-1.065 31.924 31.924 0 0 0-25.658 19.768c-5.008 12.885-1.126 27.52 8.957 35.8a67.494 67.494 0 0 0-19.778-2.961 68.279 68.279 0 0 0-26.146 5.057c-15.563-16.1-11.673-43.183.98-59.212a79.577 79.577 0 0 1 3.214-3.818c.8-.893 1.56-1.691 2.29-2.462a38 38 0 0 0 6.285-8.058.722.722 0 0 0-.253-.975.7.7 0 0 0-.957.26 31.634 31.634 0 0 1-4.126 5.679c.837-4.663 2.54-14.906 2.306-19.82 5.75-.775 18.026-1.915 28.8.5 11.41 2.558 31.272 5.908 43.717 1.891-2.988 9.362-5.614 16.395-5.984 17.377Zm8.825-20.028c-11.934 6.117-36.31 1.6-46.257-.627-13.326-2.992-28.881-.645-32.076-.109a14.362 14.362 0 0 1 1.007-10.716c2.583-1.144 24.326-5.552 46.094.153a76.338 76.338 0 0 0 19.3 2.679 42.027 42.027 0 0 0 14.791-2.3c-.203 7.744-2.487 10.518-2.859 10.92Z"/><path d="M113.352 250.656a.729.729 0 0 0 .122-.068.729.729 0 0 1-.122.068Zm.172-.103a.7.7 0 0 0 .287-.56c-.029.1-.047.17-.048.175a.711.711 0 0 1-.239.385Zm95.426-1.253h-.185a.665.665 0 0 0-.241.05.673.673 0 0 0-.123.068l-.05.034a.713.713 0 0 0-.238.389s-.019.075-.048.175a.705.705 0 0 0 .7.709h.551c.1-.329.154-.531.163-.57a.713.713 0 0 0-.529-.855Z"/><path d="M112.925 250.7h.186a.7.7 0 0 0 .241-.049.729.729 0 0 0 .122-.068.562.562 0 0 0 .05-.035.711.711 0 0 0 .238-.388s.019-.075.048-.175a.705.705 0 0 0-.7-.71h-.552c-.105.33-.154.532-.163.571a.712.712 0 0 0 .53.854Zm61.55 94.054a.715.715 0 0 0-.244-.529.7.7 0 0 0-.456-.172.773.773 0 0 0-.095.007c-.245.033-24.5 3.711-21.518 28.987a.671.671 0 0 0 .709.626c.22-.005 22.029-.789 21.604-28.919Zm-21 27.455c-2.108-21.063 15.545-25.793 19.6-26.6-.011 23.564-16.1 26.291-19.596 26.6Zm31.658-18.224h-.04a.708.708 0 0 0-.655.624c-2.366 19.148-21.185 23.019-21.375 23.056a.715.715 0 0 0 .03 1.406c8.8 1.3 15.251-.255 19.176-4.644 6.472-7.239 3.666-19.384 3.544-19.9a.7.7 0 0 0-.68-.542Zm-3.9 19.486c-2.752 3.076-6.937 4.623-12.481 4.623-.646 0-1.313-.02-2-.065 5.254-1.947 15.028-7.088 18.262-19.059.286 4.076-.028 10.305-3.784 14.501ZM163.53 335.8a.717.717 0 0 0 .349-.771.7.7 0 0 0-.621-.564c-.1-.009-.7-.06-1.643-.06-3.282 0-10.681.633-15.238 5.941-3.7 4.3-4.63 10.663-2.778 18.9a.674.674 0 0 0 .727.55.7.7 0 0 0 .653-.64c.013-.137 1.532-13.842 18.551-23.356Zm-19.176 19.77c-.832-6.139.2-10.934 3.072-14.283 3.744-4.366 9.818-5.278 13.21-5.426-10.894 6.823-14.861 15.123-16.282 19.709Zm-55.521 14.093c-.14-.038-13.99-3.909-19.374-14.437a.7.7 0 0 0-.621-.383.674.674 0 0 0-.166.021.707.707 0 0 0-.534.692c0 .4.07 9.815 6.156 14.359 3.6 2.69 8.5 3.062 14.568 1.117a.717.717 0 0 0-.029-1.369Zm-13.706-.892c-3.5-2.608-4.8-7.185-5.3-10.21 4.747 6.775 12.528 10.317 16.369 11.733-4.572 1.058-8.291.547-11.069-1.523Z"/><path class="cls-2" d="M62.025 191.691v54.947c-7.47-10.934-18.695-17.793-24.57-20.856a31.779 31.779 0 0 1-7.761-5.723 21.46 21.46 0 0 1 30.349-30.35Z"/><path class="cls-9" d="M62.025 191.691v54.947c7.47-10.934 18.7-17.793 24.57-20.856a31.8 31.8 0 0 0 7.761-5.723 21.46 21.46 0 0 0-30.349-30.35Z"/><path class="cls-2" d="M259.85 308.309v-54.947c7.47 10.934 18.695 17.793 24.571 20.856a31.792 31.792 0 0 1 7.76 5.723 21.46 21.46 0 0 1-30.349 30.35Z"/><path class="cls-9" d="M259.85 308.309v-54.947c-7.469 10.934-18.7 17.793-24.57 20.856a31.8 31.8 0 0 0-7.761 5.723 21.46 21.46 0 0 0 30.349 30.35Z"/></svg>