<svg id="Layer_1" data-name="Layer 1" xmlns="http://www.w3.org/2000/svg" viewBox="0 0 321.875 500"><defs><style>.cls-2{fill:#02592d}.cls-3{fill:#05703d}.cls-4{fill:#ffc306}.cls-5{fill:#ef870a}</style></defs><path style="fill:#fff" d="M0 0h321.875v500H0z"/><path d="M268.453 481.248H45.383a26.66 26.66 0 0 1-26.63-26.63V125.1a1.25 1.25 0 0 1 2.5 0v329.52a24.157 24.157 0 0 0 24.13 24.13h223.07a1.25 1.25 0 0 1 0 2.5Zm33.42-105.09a1.25 1.25 0 0 1-1.25-1.25V45.388a24.162 24.162 0 0 0-24.13-24.14H53.423a1.25 1.25 0 0 1 0-2.5h223.07a26.665 26.665 0 0 1 26.63 26.64v329.52a1.25 1.25 0 0 1-1.25 1.25Z"/><path class="cls-2" d="M157.662 100.2a40.267 40.267 0 0 0-8.732-7.814 59.034 59.034 0 0 0-11.193-5.986c-.648-.3-1.289-.519-1.968-.755a43.093 43.093 0 0 1-1.145-.409 32.318 32.318 0 0 0-3.094-1.015l-3.3-.94-3.293-.71a43.668 43.668 0 0 0-4.572-.8c-.739-.1-1.477-.2-2.212-.322-1.418-.176-2.933-.288-4.4-.394-.832-.062-1.664-.123-2.5-.2l.16-1.425c.815.038 1.634.065 2.453.092 1.508.049 3.069.1 4.61.228.767.09 1.5.161 2.225.231a47.138 47.138 0 0 1 4.875.646l3.42.591 3.456.827c1.157.249 2.276.594 3.413.955.386.128.766.242 1.146.356.729.218 1.482.445 2.209.74a64.644 64.644 0 0 1 12.286 5.87 45.068 45.068 0 0 1 10.2 8.271l.56.629-4.133 1.931Z"/><path class="cls-2" d="M160.958 98.646a44.692 44.692 0 0 0-10.013-8.116 63.745 63.745 0 0 0-12.143-5.8c-1.052-.427-2.19-.708-3.279-1.067s-2.194-.69-3.336-.935l-3.385-.812-3.453-.6c-2.282-.465-4.647-.581-6.965-.858-2.333-.193-4.688-.206-7.022-.317 2.33.206 4.669.314 6.975.6 2.29.369 4.616.577 6.844 1.13l3.363.728 3.274.934a33.665 33.665 0 0 1 3.207 1.048c1.042.4 2.131.712 3.131 1.172a59.865 59.865 0 0 1 11.379 6.088 41.1 41.1 0 0 1 8.908 7.976Zm-3.296 42.864a40.264 40.264 0 0 0-8.732-7.813 59.04 59.04 0 0 0-11.193-5.99c-.648-.3-1.289-.519-1.968-.755a39.815 39.815 0 0 1-1.145-.409 32.311 32.311 0 0 0-3.094-1.014l-3.3-.941-3.293-.71a43.409 43.409 0 0 0-4.572-.8c-.739-.1-1.477-.2-2.212-.323-1.418-.176-2.933-.287-4.4-.394-.832-.062-1.664-.123-2.5-.2l.16-1.425c.815.038 1.634.065 2.453.092 1.508.049 3.069.1 4.61.228.767.091 1.5.162 2.225.231a47.138 47.138 0 0 1 4.875.646l3.42.591 3.456.827c1.157.249 2.276.594 3.413.956.386.127.766.241 1.146.355.729.219 1.482.445 2.209.74a64.7 64.7 0 0 1 12.286 5.87 45.068 45.068 0 0 1 10.2 8.271l.56.629-4.133 1.931Z"/><path class="cls-2" d="M160.958 139.958a44.692 44.692 0 0 0-10.013-8.116 63.745 63.745 0 0 0-12.143-5.8c-1.052-.427-2.19-.708-3.279-1.067s-2.194-.69-3.336-.935l-3.385-.812-3.453-.6c-2.282-.465-4.647-.581-6.965-.857-2.333-.194-4.688-.207-7.022-.318 2.33.207 4.669.314 6.975.6 2.29.369 4.616.577 6.844 1.13l3.363.728 3.274.934a33.389 33.389 0 0 1 3.207 1.049c1.042.4 2.131.712 3.131 1.171a59.865 59.865 0 0 1 11.379 6.088 41.131 41.131 0 0 1 8.908 7.976Zm-3.296 42.864a40.29 40.29 0 0 0-8.732-7.813 59.04 59.04 0 0 0-11.193-5.99c-.648-.3-1.289-.519-1.968-.754a43.11 43.11 0 0 1-1.145-.41 32.311 32.311 0 0 0-3.094-1.014l-3.3-.941-3.293-.71a43.409 43.409 0 0 0-4.572-.8c-.739-.1-1.477-.2-2.212-.323-1.418-.175-2.933-.287-4.4-.394-.832-.062-1.664-.123-2.5-.2l.16-1.425c.815.038 1.634.065 2.453.092 1.508.049 3.069.1 4.61.228.767.091 1.5.162 2.225.232a46.6 46.6 0 0 1 4.875.646l3.42.591 3.456.826c1.157.249 2.276.594 3.413.956.386.128.766.241 1.146.355.729.219 1.482.445 2.209.74a64.71 64.71 0 0 1 12.286 5.871 45.039 45.039 0 0 1 10.2 8.27l.56.629-4.133 1.931Z"/><path class="cls-2" d="M160.958 181.27a44.66 44.66 0 0 0-10.013-8.115 63.688 63.688 0 0 0-12.143-5.8c-1.052-.426-2.19-.707-3.279-1.067s-2.194-.69-3.336-.934l-3.385-.812-3.453-.6c-2.282-.465-4.647-.581-6.965-.857-2.333-.194-4.688-.206-7.022-.318 2.33.207 4.669.314 6.975.6 2.29.37 4.616.578 6.844 1.13l3.363.728 3.274.934a33.67 33.67 0 0 1 3.207 1.049c1.042.4 2.131.712 3.131 1.171a59.812 59.812 0 0 1 11.379 6.089 41.127 41.127 0 0 1 8.908 7.975Zm-3.296 42.865a40.267 40.267 0 0 0-8.732-7.814 58.978 58.978 0 0 0-11.193-5.989c-.648-.3-1.289-.52-1.968-.755a43.11 43.11 0 0 1-1.145-.41c-1.024-.377-2.039-.741-3.094-1.014l-3.3-.94-3.293-.71a43.409 43.409 0 0 0-4.572-.8c-.739-.1-1.477-.2-2.212-.323-1.418-.175-2.933-.287-4.4-.394-.832-.062-1.664-.123-2.5-.2l.16-1.424c.815.038 1.634.065 2.453.092 1.508.048 3.069.1 4.61.227.767.091 1.5.162 2.225.232a46.867 46.867 0 0 1 4.875.646l3.42.591 3.456.826c1.157.249 2.276.595 3.413.956.386.128.766.242 1.146.355.729.219 1.482.446 2.209.74a64.71 64.71 0 0 1 12.286 5.871 45.041 45.041 0 0 1 10.2 8.271l.56.629-4.133 1.931Z"/><path class="cls-2" d="M160.958 222.582a44.715 44.715 0 0 0-10.013-8.115 63.748 63.748 0 0 0-12.143-5.8c-1.052-.426-2.19-.707-3.279-1.067s-2.194-.689-3.336-.934l-3.385-.812-3.453-.6c-2.282-.465-4.647-.581-6.965-.857-2.333-.194-4.688-.206-7.022-.318 2.33.207 4.669.314 6.975.6 2.29.37 4.616.578 6.844 1.13l3.363.728 3.274.934a33.67 33.67 0 0 1 3.207 1.049c1.042.4 2.131.712 3.131 1.171a59.812 59.812 0 0 1 11.379 6.089 41.127 41.127 0 0 1 8.908 7.975Zm3.255-122.382a40.267 40.267 0 0 1 8.732-7.814 59.034 59.034 0 0 1 11.193-5.986c.649-.3 1.289-.519 1.968-.755.384-.133.768-.266 1.145-.409a32.318 32.318 0 0 1 3.094-1.015l3.3-.94 3.293-.71a43.668 43.668 0 0 1 4.572-.8c.739-.1 1.477-.2 2.212-.322 1.418-.176 2.933-.288 4.4-.394.832-.062 1.664-.123 2.5-.2l-.16-1.425c-.815.038-1.634.065-2.453.092-1.508.049-3.069.1-4.61.228-.766.09-1.5.161-2.225.231a47.138 47.138 0 0 0-4.875.646l-3.42.591-3.456.827c-1.157.249-2.276.594-3.413.955-.385.128-.765.242-1.146.356-.728.218-1.482.445-2.209.74a64.644 64.644 0 0 0-12.286 5.87 45.068 45.068 0 0 0-10.2 8.271l-.56.629 4.133 1.931Z"/><path class="cls-2" d="M160.917 98.646a44.692 44.692 0 0 1 10.013-8.116 63.745 63.745 0 0 1 12.143-5.8c1.052-.427 2.19-.708 3.279-1.067s2.194-.69 3.336-.935l3.385-.812 3.453-.6c2.282-.465 4.647-.581 6.965-.858 2.333-.193 4.688-.206 7.022-.317-2.33.206-4.669.314-6.975.6-2.289.369-4.616.577-6.844 1.13l-3.363.728-3.274.934a33.665 33.665 0 0 0-3.207 1.048c-1.042.4-2.131.712-3.13 1.172a59.843 59.843 0 0 0-11.38 6.088 41.128 41.128 0 0 0-8.908 7.976Zm3.296 42.864a40.264 40.264 0 0 1 8.732-7.813 59.04 59.04 0 0 1 11.193-5.99c.649-.3 1.289-.519 1.968-.755.384-.132.768-.266 1.145-.409a32.311 32.311 0 0 1 3.094-1.014l3.3-.941 3.293-.71a43.409 43.409 0 0 1 4.572-.8c.739-.1 1.477-.2 2.212-.323 1.418-.176 2.933-.287 4.4-.394.832-.062 1.664-.123 2.5-.2l-.16-1.425c-.815.038-1.634.065-2.453.092-1.508.049-3.069.1-4.61.228-.766.091-1.5.162-2.225.231a47.138 47.138 0 0 0-4.875.646l-3.42.591-3.456.827c-1.157.249-2.276.594-3.413.956-.385.127-.765.241-1.146.355-.728.219-1.482.445-2.209.74a64.7 64.7 0 0 0-12.286 5.87 45.068 45.068 0 0 0-10.2 8.271l-.56.629 4.133 1.931Z"/><path class="cls-2" d="M160.917 139.958a44.692 44.692 0 0 1 10.013-8.116 63.745 63.745 0 0 1 12.143-5.8c1.052-.427 2.19-.708 3.279-1.067s2.194-.69 3.336-.935l3.385-.812 3.453-.6c2.282-.465 4.647-.581 6.965-.857 2.333-.194 4.688-.207 7.022-.318-2.33.207-4.669.314-6.975.6-2.289.369-4.616.577-6.844 1.13l-3.363.728-3.274.934a33.389 33.389 0 0 0-3.207 1.049c-1.042.4-2.131.712-3.13 1.171a59.843 59.843 0 0 0-11.38 6.088 41.154 41.154 0 0 0-8.908 7.976Zm3.296 42.864a40.29 40.29 0 0 1 8.732-7.813 59.04 59.04 0 0 1 11.193-5.99c.649-.3 1.289-.519 1.968-.754.384-.133.768-.267 1.145-.41a32.311 32.311 0 0 1 3.094-1.014l3.3-.941 3.293-.71a43.409 43.409 0 0 1 4.572-.8c.739-.1 1.477-.2 2.212-.323 1.418-.175 2.933-.287 4.4-.394.832-.062 1.664-.123 2.5-.2l-.16-1.425c-.815.038-1.634.065-2.453.092-1.508.049-3.069.1-4.61.228-.766.091-1.5.162-2.225.232a46.6 46.6 0 0 0-4.875.646l-3.42.591-3.456.826c-1.157.249-2.276.594-3.413.956-.385.128-.765.241-1.146.355-.728.219-1.482.445-2.209.74a64.71 64.71 0 0 0-12.286 5.871 45.039 45.039 0 0 0-10.2 8.27l-.56.629 4.133 1.931Z"/><path class="cls-2" d="M160.917 181.27a44.66 44.66 0 0 1 10.013-8.115 63.688 63.688 0 0 1 12.143-5.8c1.052-.426 2.19-.707 3.279-1.067s2.194-.69 3.336-.934l3.385-.812 3.453-.6c2.282-.465 4.647-.581 6.965-.857 2.333-.194 4.688-.206 7.022-.318-2.33.207-4.669.314-6.975.6-2.289.37-4.616.578-6.844 1.13l-3.363.728-3.274.934a33.67 33.67 0 0 0-3.207 1.049c-1.042.4-2.131.712-3.13 1.171a59.79 59.79 0 0 0-11.38 6.089 41.15 41.15 0 0 0-8.908 7.975Zm3.296 42.865a40.267 40.267 0 0 1 8.732-7.814 58.978 58.978 0 0 1 11.193-5.989c.649-.3 1.289-.52 1.968-.755.384-.133.768-.267 1.145-.41 1.024-.377 2.039-.741 3.094-1.014l3.3-.94 3.293-.71a43.409 43.409 0 0 1 4.572-.8c.739-.1 1.477-.2 2.212-.323 1.418-.175 2.933-.287 4.4-.394.832-.062 1.664-.123 2.5-.2l-.16-1.424c-.815.038-1.634.065-2.453.092-1.508.048-3.069.1-4.61.227-.766.091-1.5.162-2.225.232a46.867 46.867 0 0 0-4.875.646l-3.42.591-3.456.826c-1.157.249-2.276.595-3.413.956-.385.128-.765.242-1.146.355-.728.219-1.482.446-2.209.74a64.71 64.71 0 0 0-12.286 5.871 45.041 45.041 0 0 0-10.2 8.271l-.56.629 4.133 1.931Z"/><path class="cls-2" d="M160.917 222.582a44.715 44.715 0 0 1 10.013-8.115 63.748 63.748 0 0 1 12.143-5.8c1.052-.426 2.19-.707 3.279-1.067s2.194-.689 3.336-.934l3.385-.812 3.453-.6c2.282-.465 4.647-.581 6.965-.857 2.333-.194 4.688-.206 7.022-.318-2.33.207-4.669.314-6.975.6-2.289.37-4.616.578-6.844 1.13l-3.363.728-3.274.934a33.67 33.67 0 0 0-3.207 1.049c-1.042.4-2.131.712-3.13 1.171a59.79 59.79 0 0 0-11.38 6.089 41.15 41.15 0 0 0-8.908 7.975Z"/><path class="cls-3" d="m113.642 80.954-1.37-1.049 1.37-1.049c5.768-4.414 5.768-11.637 0-16.059s-15.216-4.415-20.984 0A17.967 17.967 0 0 0 88.7 66.9a40.911 40.911 0 0 1-14.42 13 40.92 40.92 0 0 1 14.42 13 17.967 17.967 0 0 0 3.957 4.106c5.768 4.415 15.206 4.415 20.984 0s5.769-11.638.001-16.052Z"/><path class="cls-3" d="M113.642 104.109c-5.778-4.415-15.216-4.415-20.984 0a17.971 17.971 0 0 0-3.957 4.107 40.91 40.91 0 0 1-14.42 13 40.92 40.92 0 0 1 14.42 13 17.971 17.971 0 0 0 3.957 4.107c5.768 4.414 15.206 4.414 20.984 0s5.768-11.645 0-16.06l-1.37-1.049 1.37-1.049c5.768-4.411 5.768-11.634 0-16.056Z"/><path class="cls-3" d="M113.642 145.421c-5.778-4.414-15.216-4.414-20.984 0a17.971 17.971 0 0 0-3.957 4.107 40.91 40.91 0 0 1-14.42 13 40.92 40.92 0 0 1 14.42 13 17.971 17.971 0 0 0 3.957 4.107c5.768 4.414 15.206 4.414 20.984 0s5.768-11.645 0-16.06l-1.37-1.049 1.37-1.049c5.768-4.411 5.768-11.634 0-16.056Z"/><path class="cls-3" d="M113.642 186.733c-5.778-4.414-15.216-4.414-20.984 0a17.971 17.971 0 0 0-3.958 4.107 40.92 40.92 0 0 1-14.42 13 40.91 40.91 0 0 1 14.42 13 17.971 17.971 0 0 0 3.957 4.107c5.768 4.414 15.206 4.414 20.984 0s5.768-11.645 0-16.06l-1.37-1.048 1.37-1.049c5.769-4.412 5.769-11.635.001-16.057Z"/><path class="cls-2" d="M112.272 79.905H74.281a40.92 40.92 0 0 1 14.42 13 17.988 17.988 0 0 0 3.957 4.106c5.768 4.415 15.206 4.415 20.984 0s5.768-11.645 0-16.059Zm0 41.312H74.281a40.92 40.92 0 0 1 14.42 13 17.988 17.988 0 0 0 3.957 4.106c5.768 4.415 15.206 4.415 20.984 0s5.768-11.645 0-16.059Zm0 41.312H74.281a40.92 40.92 0 0 1 14.42 13 17.992 17.992 0 0 0 3.957 4.107c5.768 4.414 15.206 4.414 20.984 0s5.768-11.645 0-16.06Zm0 41.313H74.281a40.91 40.91 0 0 1 14.42 13 17.992 17.992 0 0 0 3.957 4.107c5.768 4.414 15.206 4.414 20.984 0s5.768-11.645 0-16.06Z"/><path class="cls-3" d="m208.233 80.954 1.37-1.049-1.37-1.049c-5.768-4.414-5.768-11.637 0-16.059s15.216-4.415 20.984 0a17.967 17.967 0 0 1 3.957 4.106 40.911 40.911 0 0 0 14.42 13 40.92 40.92 0 0 0-14.42 13 17.967 17.967 0 0 1-3.957 4.106c-5.768 4.415-15.206 4.415-20.984 0s-5.768-11.641 0-16.055Z"/><path class="cls-3" d="M208.233 104.109c5.778-4.415 15.216-4.415 20.984 0a17.971 17.971 0 0 1 3.957 4.107 40.91 40.91 0 0 0 14.42 13 40.92 40.92 0 0 0-14.42 13 17.971 17.971 0 0 1-3.957 4.107c-5.768 4.414-15.206 4.414-20.984 0s-5.768-11.645 0-16.06l1.37-1.049-1.37-1.049c-5.768-4.411-5.768-11.634 0-16.056Z"/><path class="cls-3" d="M208.233 145.421c5.778-4.414 15.216-4.414 20.984 0a17.971 17.971 0 0 1 3.957 4.107 40.91 40.91 0 0 0 14.42 13 40.92 40.92 0 0 0-14.42 13 17.971 17.971 0 0 1-3.957 4.107c-5.768 4.414-15.206 4.414-20.984 0s-5.768-11.645 0-16.06l1.37-1.049-1.37-1.049c-5.768-4.411-5.768-11.634 0-16.056Z"/><path class="cls-3" d="M208.233 186.733c5.778-4.414 15.216-4.414 20.984 0a17.971 17.971 0 0 1 3.957 4.107 40.92 40.92 0 0 0 14.42 13 40.91 40.91 0 0 0-14.42 13 17.971 17.971 0 0 1-3.957 4.107c-5.768 4.414-15.206 4.414-20.984 0s-5.768-11.645 0-16.06l1.37-1.048-1.37-1.049c-5.768-4.412-5.768-11.635 0-16.057Z"/><path class="cls-2" d="M209.6 79.905h37.991a40.92 40.92 0 0 0-14.42 13 17.967 17.967 0 0 1-3.957 4.106c-5.768 4.415-15.206 4.415-20.984 0s-5.768-11.645 0-16.059Zm0 41.312h37.991a40.92 40.92 0 0 0-14.42 13 17.967 17.967 0 0 1-3.957 4.106c-5.768 4.415-15.206 4.415-20.984 0s-5.768-11.645 0-16.059Zm0 41.312h37.991a40.92 40.92 0 0 0-14.42 13 17.971 17.971 0 0 1-3.957 4.107c-5.768 4.414-15.206 4.414-20.984 0s-5.768-11.645 0-16.06Zm0 41.313h37.991a40.91 40.91 0 0 0-14.42 13 17.971 17.971 0 0 1-3.957 4.107c-5.768 4.414-15.206 4.414-20.984 0s-5.768-11.645 0-16.06Z"/><path class="cls-4" d="M165.045 229h-8.219a.424.424 0 0 1 .044-.054l1.238-166.55h5.656L165 228.942a.23.23 0 0 0 .045.058Z"/><path class="cls-5" d="M165.045 229h-4.109V62.392h2.828L165 228.942a.23.23 0 0 0 .045.058Z"/><path class="cls-4" d="M158.273 227.472s-3.435 1.693-1.227 6.288 8.832 7.739 14.72 7.255c0 0-2.127-.564-3.108-4.434s-3.925-11.447-10.385-9.109Z"/><ellipse class="cls-5" cx="161.548" cy="233.709" rx="2.206" ry="3.895" transform="rotate(-43.439 161.547 233.708)"/><path class="cls-3" d="M180.067 44.156a19.328 19.328 0 0 0-4.591-3.957 43.118 43.118 0 0 1-14.539-14.42A43.116 43.116 0 0 1 146.4 40.2a19.332 19.332 0 0 0-4.592 3.957 16.719 16.719 0 0 0 0 20.984 11.48 11.48 0 0 0 17.957 0l1.172-1.371 1.173 1.371a11.48 11.48 0 0 0 17.957 0 16.719 16.719 0 0 0 0-20.985Z"/><path class="cls-2" d="M160.938 63.77V25.779A43.116 43.116 0 0 0 175.475 40.2a19.29 19.29 0 0 1 4.592 3.957 16.719 16.719 0 0 1 0 20.984 11.48 11.48 0 0 1-17.957 0Zm3.275 336.03a40.267 40.267 0 0 0 8.732 7.814 59.034 59.034 0 0 0 11.193 5.989c.649.3 1.289.519 1.968.755.384.133.768.266 1.145.409a32.318 32.318 0 0 0 3.094 1.015l3.3.94 3.293.71a43.668 43.668 0 0 0 4.572.8c.739.1 1.477.2 2.212.322 1.418.176 2.933.288 4.4.395.832.061 1.664.122 2.5.2l-.16 1.425c-.815-.038-1.634-.065-2.453-.092-1.508-.049-3.069-.1-4.61-.228a106.5 106.5 0 0 0-2.225-.231 47.138 47.138 0 0 1-4.875-.646l-3.42-.591-3.456-.827c-1.157-.249-2.276-.594-3.413-.955a39.402 39.402 0 0 0-1.146-.356c-.728-.218-1.482-.445-2.209-.74a64.644 64.644 0 0 1-12.286-5.87 45.068 45.068 0 0 1-10.2-8.271l-.56-.629 4.133-1.931Z"/><path class="cls-2" d="M160.917 401.354a44.692 44.692 0 0 0 10.013 8.116 63.745 63.745 0 0 0 12.143 5.8c1.052.427 2.19.708 3.279 1.067s2.194.69 3.336.935l3.385.812 3.453.6c2.282.465 4.647.581 6.965.858 2.333.193 4.688.206 7.022.317-2.33-.206-4.669-.314-6.975-.6-2.289-.369-4.616-.577-6.844-1.13l-3.363-.728-3.274-.934a33.665 33.665 0 0 1-3.207-1.048c-1.042-.4-2.131-.712-3.13-1.172a59.843 59.843 0 0 1-11.38-6.088 41.128 41.128 0 0 1-8.908-7.976Zm3.296-42.864a40.264 40.264 0 0 0 8.732 7.813 59.04 59.04 0 0 0 11.193 5.99c.649.3 1.289.519 1.968.755.384.132.768.266 1.145.409a32.311 32.311 0 0 0 3.094 1.014l3.3.941 3.293.71a43.409 43.409 0 0 0 4.572.8c.739.1 1.477.2 2.212.323 1.418.176 2.933.287 4.4.394.832.062 1.664.123 2.5.2l-.16 1.425c-.815-.038-1.634-.065-2.453-.092-1.508-.049-3.069-.1-4.61-.228-.766-.091-1.5-.162-2.225-.231a47.138 47.138 0 0 1-4.875-.646l-3.42-.591-3.456-.827c-1.157-.249-2.276-.594-3.413-.956a42.708 42.708 0 0 0-1.146-.355c-.728-.219-1.482-.445-2.209-.74a64.7 64.7 0 0 1-12.286-5.87 45.068 45.068 0 0 1-10.2-8.271l-.56-.629 4.133-1.931Z"/><path class="cls-2" d="M160.917 360.042a44.692 44.692 0 0 0 10.013 8.116 63.745 63.745 0 0 0 12.143 5.8c1.052.427 2.19.708 3.279 1.067s2.194.69 3.336.935l3.385.812 3.453.6c2.282.465 4.647.581 6.965.857 2.333.194 4.688.207 7.022.318-2.33-.207-4.669-.314-6.975-.6-2.289-.369-4.616-.577-6.844-1.13l-3.363-.728-3.274-.934a33.389 33.389 0 0 1-3.207-1.049c-1.042-.4-2.131-.712-3.13-1.171a59.843 59.843 0 0 1-11.38-6.088 41.154 41.154 0 0 1-8.908-7.976Zm3.296-42.864a40.29 40.29 0 0 0 8.732 7.813 59.04 59.04 0 0 0 11.193 5.99c.649.3 1.289.519 1.968.754.384.133.768.267 1.145.41a32.311 32.311 0 0 0 3.094 1.014l3.3.941 3.293.71a43.409 43.409 0 0 0 4.572.8c.739.1 1.477.2 2.212.323 1.418.175 2.933.287 4.4.394.832.062 1.664.123 2.5.2l-.16 1.425c-.815-.038-1.634-.065-2.453-.092-1.508-.049-3.069-.1-4.61-.228-.766-.091-1.5-.162-2.225-.232a46.6 46.6 0 0 1-4.875-.646l-3.42-.591-3.456-.826c-1.157-.249-2.276-.594-3.413-.956-.385-.128-.765-.241-1.146-.355-.728-.219-1.482-.445-2.209-.74a64.71 64.71 0 0 1-12.286-5.871 45.039 45.039 0 0 1-10.2-8.27l-.56-.629 4.133-1.931Z"/><path class="cls-2" d="M160.917 318.73a44.66 44.66 0 0 0 10.013 8.115 63.688 63.688 0 0 0 12.143 5.8c1.052.426 2.19.707 3.279 1.067s2.194.69 3.336.935l3.385.811 3.453.6c2.282.465 4.647.581 6.965.857 2.333.194 4.688.206 7.022.318-2.33-.207-4.669-.314-6.975-.6-2.289-.37-4.616-.578-6.844-1.13l-3.363-.728-3.274-.934a33.67 33.67 0 0 1-3.207-1.049c-1.042-.4-2.131-.712-3.13-1.171a59.79 59.79 0 0 1-11.38-6.089 41.15 41.15 0 0 1-8.908-7.975Zm3.296-42.864a40.29 40.29 0 0 0 8.732 7.813 58.978 58.978 0 0 0 11.193 5.989c.649.3 1.289.52 1.968.755.384.133.768.267 1.145.41 1.024.377 2.039.741 3.094 1.014l3.3.94 3.293.71a43.409 43.409 0 0 0 4.572.8c.739.1 1.477.2 2.212.323 1.418.175 2.933.287 4.4.394.832.062 1.664.123 2.5.2l-.16 1.424c-.815-.038-1.634-.065-2.453-.092-1.508-.048-3.069-.1-4.61-.227-.766-.091-1.5-.162-2.225-.232a46.867 46.867 0 0 1-4.875-.646l-3.42-.591-3.456-.826c-1.157-.249-2.276-.595-3.413-.956a36.501 36.501 0 0 0-1.146-.355c-.728-.219-1.482-.446-2.209-.74a64.71 64.71 0 0 1-12.286-5.871 45.041 45.041 0 0 1-10.2-8.271l-.56-.629 4.133-1.931Z"/><path class="cls-2" d="M160.917 277.418a44.715 44.715 0 0 0 10.013 8.115 63.748 63.748 0 0 0 12.143 5.8c1.052.426 2.19.707 3.279 1.067s2.194.689 3.336.934l3.385.812 3.453.6c2.282.465 4.647.581 6.965.857 2.333.194 4.688.206 7.022.318-2.33-.207-4.669-.314-6.975-.6-2.289-.37-4.616-.578-6.844-1.13l-3.363-.728-3.274-.934a33.67 33.67 0 0 1-3.207-1.049c-1.042-.4-2.131-.712-3.13-1.171a59.79 59.79 0 0 1-11.38-6.089 41.15 41.15 0 0 1-8.908-7.975ZM157.662 399.8a40.267 40.267 0 0 1-8.732 7.814 59.034 59.034 0 0 1-11.193 5.989c-.648.3-1.289.519-1.968.755-.384.133-.767.266-1.145.409a32.318 32.318 0 0 1-3.094 1.015l-3.3.94-3.293.71a43.668 43.668 0 0 1-4.572.8c-.739.1-1.477.2-2.212.322-1.418.176-2.933.288-4.4.395-.832.061-1.664.122-2.5.2l.16 1.425c.815-.038 1.634-.065 2.453-.092 1.508-.049 3.069-.1 4.61-.228.767-.09 1.5-.161 2.225-.231a47.138 47.138 0 0 0 4.875-.646l3.42-.591 3.456-.827c1.157-.249 2.276-.594 3.413-.955.386-.128.766-.242 1.146-.356.729-.218 1.482-.445 2.209-.74a64.644 64.644 0 0 0 12.286-5.87 45.068 45.068 0 0 0 10.2-8.271l.56-.629-4.133-1.931Z"/><path class="cls-2" d="M160.958 401.354a44.692 44.692 0 0 1-10.013 8.116 63.745 63.745 0 0 1-12.143 5.8c-1.052.427-2.19.708-3.279 1.067s-2.194.69-3.336.935l-3.385.812-3.453.6c-2.282.465-4.647.581-6.965.858-2.333.193-4.688.206-7.022.317 2.33-.206 4.669-.314 6.975-.6 2.29-.369 4.616-.577 6.844-1.13l3.363-.728 3.274-.934a33.665 33.665 0 0 0 3.207-1.048c1.042-.4 2.131-.712 3.131-1.172a59.865 59.865 0 0 0 11.379-6.088 41.1 41.1 0 0 0 8.908-7.976Zm-3.296-42.864a40.264 40.264 0 0 1-8.732 7.813 59.04 59.04 0 0 1-11.193 5.99c-.648.3-1.289.519-1.968.755-.384.132-.767.266-1.145.409a32.311 32.311 0 0 1-3.094 1.014l-3.3.941-3.293.71a43.409 43.409 0 0 1-4.572.8c-.739.1-1.477.2-2.212.323-1.418.176-2.933.287-4.4.394-.832.062-1.664.123-2.5.2l.16 1.425c.815-.038 1.634-.065 2.453-.092 1.508-.049 3.069-.1 4.61-.228a95.05 95.05 0 0 1 2.225-.231 47.138 47.138 0 0 0 4.875-.646l3.42-.591 3.456-.827c1.157-.249 2.276-.594 3.413-.956.386-.127.766-.241 1.146-.355.729-.219 1.482-.445 2.209-.74a64.7 64.7 0 0 0 12.286-5.87 45.068 45.068 0 0 0 10.2-8.271l.56-.629-4.133-1.931Z"/><path class="cls-2" d="M160.958 360.042a44.692 44.692 0 0 1-10.013 8.116 63.745 63.745 0 0 1-12.143 5.8c-1.052.427-2.19.708-3.279 1.067s-2.194.69-3.336.935l-3.385.812-3.453.6c-2.282.465-4.647.581-6.965.857-2.333.194-4.688.207-7.022.318 2.33-.207 4.669-.314 6.975-.6 2.29-.369 4.616-.577 6.844-1.13l3.363-.728 3.274-.934a33.389 33.389 0 0 0 3.207-1.049c1.042-.4 2.131-.712 3.131-1.171a59.865 59.865 0 0 0 11.379-6.088 41.131 41.131 0 0 0 8.908-7.976Zm-3.296-42.864a40.29 40.29 0 0 1-8.732 7.813 59.04 59.04 0 0 1-11.193 5.99c-.648.3-1.289.519-1.968.754a43.11 43.11 0 0 0-1.145.41 32.311 32.311 0 0 1-3.094 1.014l-3.3.941-3.293.71a43.409 43.409 0 0 1-4.572.8c-.739.1-1.477.2-2.212.323-1.418.175-2.933.287-4.4.394-.832.062-1.664.123-2.5.2l.16 1.425c.815-.038 1.634-.065 2.453-.092 1.508-.049 3.069-.1 4.61-.228.767-.091 1.5-.162 2.225-.232a46.6 46.6 0 0 0 4.875-.646l3.42-.591 3.456-.826c1.157-.249 2.276-.594 3.413-.956.386-.128.766-.241 1.146-.355.729-.219 1.482-.445 2.209-.74a64.71 64.71 0 0 0 12.286-5.871 45.039 45.039 0 0 0 10.2-8.27l.56-.629-4.133-1.931Z"/><path class="cls-2" d="M160.958 318.73a44.66 44.66 0 0 1-10.013 8.115 63.688 63.688 0 0 1-12.143 5.8c-1.052.426-2.19.707-3.279 1.067s-2.194.69-3.336.935l-3.385.811-3.453.6c-2.282.465-4.647.581-6.965.857-2.333.194-4.688.206-7.022.318 2.33-.207 4.669-.314 6.975-.6 2.29-.37 4.616-.578 6.844-1.13l3.363-.728 3.274-.934a33.67 33.67 0 0 0 3.207-1.049c1.042-.4 2.131-.712 3.131-1.171a59.812 59.812 0 0 0 11.379-6.089 41.127 41.127 0 0 0 8.908-7.975Zm-3.296-42.864a40.29 40.29 0 0 1-8.732 7.813 58.978 58.978 0 0 1-11.193 5.989c-.648.3-1.289.52-1.968.755a43.11 43.11 0 0 0-1.145.41c-1.024.377-2.039.741-3.094 1.014l-3.3.94-3.293.71a43.409 43.409 0 0 1-4.572.8c-.739.1-1.477.2-2.212.323-1.418.175-2.933.287-4.4.394-.832.062-1.664.123-2.5.2l.16 1.424c.815-.038 1.634-.065 2.453-.092 1.508-.048 3.069-.1 4.61-.227.767-.091 1.5-.162 2.225-.232a46.867 46.867 0 0 0 4.875-.646l3.42-.591 3.456-.826c1.157-.249 2.276-.595 3.413-.956.386-.128.766-.242 1.146-.355.729-.219 1.482-.446 2.209-.74a64.71 64.71 0 0 0 12.286-5.871 45.041 45.041 0 0 0 10.2-8.271l.56-.629-4.133-1.931Z"/><path class="cls-2" d="M160.958 277.418a44.715 44.715 0 0 1-10.013 8.115 63.748 63.748 0 0 1-12.143 5.8c-1.052.426-2.19.707-3.279 1.067s-2.194.689-3.336.934l-3.385.812-3.453.6c-2.282.465-4.647.581-6.965.857-2.333.194-4.688.206-7.022.318 2.33-.207 4.669-.314 6.975-.6 2.29-.37 4.616-.578 6.844-1.13l3.363-.728 3.274-.934a33.67 33.67 0 0 0 3.207-1.049c1.042-.4 2.131-.712 3.131-1.171a59.812 59.812 0 0 0 11.379-6.089 41.127 41.127 0 0 0 8.908-7.975Z"/><path class="cls-3" d="m208.233 419.046 1.37 1.049-1.37 1.049c-5.768 4.414-5.768 11.637 0 16.059s15.216 4.415 20.984 0a17.967 17.967 0 0 0 3.957-4.106 40.911 40.911 0 0 1 14.42-13 40.92 40.92 0 0 1-14.42-13 17.967 17.967 0 0 0-3.957-4.106c-5.768-4.415-15.206-4.415-20.984 0s-5.768 11.641 0 16.055Z"/><path class="cls-3" d="M208.233 395.891c5.778 4.415 15.216 4.415 20.984 0a17.971 17.971 0 0 0 3.957-4.107 40.92 40.92 0 0 1 14.42-13 40.92 40.92 0 0 1-14.42-13 17.971 17.971 0 0 0-3.957-4.107c-5.768-4.414-15.206-4.414-20.984 0s-5.768 11.645 0 16.06l1.37 1.049-1.37 1.049c-5.768 4.411-5.768 11.634 0 16.056Z"/><path class="cls-3" d="M208.233 354.579c5.778 4.414 15.216 4.414 20.984 0a17.971 17.971 0 0 0 3.957-4.107 40.91 40.91 0 0 1 14.42-13 40.92 40.92 0 0 1-14.42-13 17.971 17.971 0 0 0-3.957-4.107c-5.768-4.414-15.206-4.414-20.984 0s-5.768 11.645 0 16.06l1.37 1.049-1.37 1.049c-5.768 4.411-5.768 11.634 0 16.056Z"/><path class="cls-3" d="M208.233 313.267c5.778 4.414 15.216 4.414 20.984 0a17.971 17.971 0 0 0 3.957-4.107 40.92 40.92 0 0 1 14.42-13 40.91 40.91 0 0 1-14.42-13 17.971 17.971 0 0 0-3.957-4.107c-5.768-4.414-15.206-4.414-20.984 0s-5.768 11.645 0 16.06l1.37 1.048-1.37 1.049c-5.768 4.412-5.768 11.635 0 16.057Z"/><path class="cls-2" d="M209.6 420.1h37.991a40.92 40.92 0 0 1-14.42-13 17.967 17.967 0 0 0-3.957-4.106c-5.768-4.415-15.206-4.415-20.984 0s-5.768 11.645 0 16.059Zm0-41.317h37.991a40.92 40.92 0 0 1-14.42-13 17.967 17.967 0 0 0-3.957-4.106c-5.768-4.415-15.206-4.415-20.984 0s-5.768 11.645 0 16.059Zm0-41.312h37.991a40.92 40.92 0 0 1-14.42-13 17.971 17.971 0 0 0-3.957-4.107c-5.768-4.414-15.206-4.414-20.984 0s-5.768 11.645 0 16.06Zm0-41.313h37.991a40.91 40.91 0 0 1-14.42-13 17.971 17.971 0 0 0-3.957-4.107c-5.768-4.414-15.206-4.414-20.984 0s-5.768 11.645 0 16.06Z"/><path class="cls-3" d="m113.642 419.046-1.37 1.049 1.37 1.049c5.768 4.414 5.768 11.637 0 16.059s-15.216 4.415-20.984 0A17.967 17.967 0 0 1 88.7 433.1a40.911 40.911 0 0 0-14.42-13 40.92 40.92 0 0 0 14.42-13 17.967 17.967 0 0 1 3.957-4.106c5.768-4.415 15.206-4.415 20.984 0s5.769 11.638.001 16.052Z"/><path class="cls-3" d="M113.642 395.891c-5.778 4.415-15.216 4.415-20.984 0a17.971 17.971 0 0 1-3.957-4.107 40.92 40.92 0 0 0-14.42-13 40.92 40.92 0 0 0 14.42-13 17.971 17.971 0 0 1 3.957-4.107c5.768-4.414 15.206-4.414 20.984 0s5.768 11.645 0 16.06l-1.37 1.049 1.37 1.049c5.768 4.411 5.768 11.634 0 16.056Z"/><path class="cls-3" d="M113.642 354.579c-5.778 4.414-15.216 4.414-20.984 0a17.971 17.971 0 0 1-3.957-4.107 40.91 40.91 0 0 0-14.42-13 40.92 40.92 0 0 0 14.42-13 17.971 17.971 0 0 1 3.957-4.107c5.768-4.414 15.206-4.414 20.984 0s5.768 11.645 0 16.06l-1.37 1.049 1.37 1.049c5.768 4.411 5.768 11.634 0 16.056Z"/><path class="cls-3" d="M113.642 313.267c-5.778 4.414-15.216 4.414-20.984 0a17.971 17.971 0 0 1-3.958-4.107 40.92 40.92 0 0 0-14.42-13 40.91 40.91 0 0 0 14.42-13 17.971 17.971 0 0 1 3.957-4.107c5.768-4.414 15.206-4.414 20.984 0s5.768 11.645 0 16.06l-1.37 1.048 1.37 1.049c5.769 4.412 5.769 11.635.001 16.057Z"/><path class="cls-2" d="M112.272 420.1H74.281a40.92 40.92 0 0 0 14.42-13 17.988 17.988 0 0 1 3.957-4.106c5.768-4.415 15.206-4.415 20.984 0s5.768 11.645 0 16.059Zm0-41.317H74.281a40.92 40.92 0 0 0 14.42-13 17.988 17.988 0 0 1 3.957-4.106c5.768-4.415 15.206-4.415 20.984 0s5.768 11.645 0 16.059Zm0-41.312H74.281a40.92 40.92 0 0 0 14.42-13 17.992 17.992 0 0 1 3.957-4.107c5.768-4.414 15.206-4.414 20.984 0s5.768 11.645 0 16.06Zm0-41.313H74.281a40.91 40.91 0 0 0 14.42-13 17.992 17.992 0 0 1 3.957-4.107c5.768-4.414 15.206-4.414 20.984 0s5.768 11.645 0 16.06Z"/><path class="cls-4" d="M156.83 271h8.219a.424.424 0 0 1-.044.054l-1.238 166.55h-5.656l-1.237-166.55a.23.23 0 0 0-.044-.054Z"/><path class="cls-5" d="M156.83 271h4.109v166.6h-2.828l-1.237-166.55a.23.23 0 0 0-.044-.05Z"/><path class="cls-4" d="M163.6 272.528s3.434-1.693 1.226-6.288-8.832-7.739-14.72-7.255c0 0 2.127.564 3.108 4.434s3.928 11.447 10.386 9.109Z"/><ellipse class="cls-5" cx="160.327" cy="266.291" rx="2.206" ry="3.895" transform="rotate(-43.439 160.327 266.29)"/><path class="cls-3" d="M141.808 455.844a19.313 19.313 0 0 0 4.592 3.956 43.125 43.125 0 0 1 14.538 14.42 43.116 43.116 0 0 1 14.537-14.42 19.332 19.332 0 0 0 4.592-3.957 16.717 16.717 0 0 0 0-20.983 11.479 11.479 0 0 0-17.957 0l-1.172 1.37-1.173-1.37a11.479 11.479 0 0 0-17.957 0 16.717 16.717 0 0 0 0 20.984Z"/><path class="cls-2" d="M160.938 436.23v37.991A43.125 43.125 0 0 0 146.4 459.8a19.29 19.29 0 0 1-4.592-3.957 16.719 16.719 0 0 1 0-20.984 11.48 11.48 0 0 1 17.957 0Z"/><path d="m23.96 70.653-3.876-2.5 12.748-19.291a15.42 15.42 0 0 1-4.81.843 12.763 12.763 0 0 1-9.534-4.051 13.8 13.8 0 0 1-3.913-9.978 14.378 14.378 0 0 1 1.89-7.334 13.932 13.932 0 0 1 5.365-5.221 14.946 14.946 0 0 1 7.446-1.954 14.332 14.332 0 0 1 7.223 1.89 13.53 13.53 0 0 1 5.2 5.285 14.651 14.651 0 0 1 1.89 7.238 17.716 17.716 0 0 1-1.169 6.1 37.927 37.927 0 0 1-4.18 7.671Zm5.146-25.079a9.871 9.871 0 0 0 9.908-9.9 9.9 9.9 0 0 0-9.93-9.9 9.9 9.9 0 0 0-9.9 9.9 9.906 9.906 0 0 0 9.919 9.9Zm268.81 383.773 3.875 2.5-12.748 19.293a15.42 15.42 0 0 1 4.81-.843 12.763 12.763 0 0 1 9.534 4.051 13.8 13.8 0 0 1 3.913 9.978 14.385 14.385 0 0 1-1.889 7.334 13.946 13.946 0 0 1-5.365 5.221 14.952 14.952 0 0 1-7.447 1.954 14.335 14.335 0 0 1-7.223-1.89 13.53 13.53 0 0 1-5.2-5.285 14.651 14.651 0 0 1-1.89-7.238 17.716 17.716 0 0 1 1.169-6.1 37.927 37.927 0 0 1 4.18-7.671Zm-5.147 25.079a9.906 9.906 0 1 0 7.015 2.9 9.539 9.539 0 0 0-7.015-2.9Z"/><path class="cls-2" d="M26.265 99.982c.974 4.862-3.284 11.785-3.284 11.785-1.516.442-3.493-2.357-3.493-2.357 4.42-3.535 4.714-9.428 4.714-9.428Z"/><path class="cls-3" d="M36.175 88.809a11.167 11.167 0 0 0-2.613-2.371A25.16 25.16 0 0 1 25.29 77.8a25.15 25.15 0 0 1-8.271 8.639 11.167 11.167 0 0 0-2.613 2.371 10.431 10.431 0 0 0 0 12.572 6.33 6.33 0 0 0 10.217 0l.667-.821.668.821a6.33 6.33 0 0 0 10.217 0 10.434 10.434 0 0 0 0-12.573Z"/><path class="cls-2" d="M25.29 100.56V77.8a25.16 25.16 0 0 0 8.272 8.639 11.167 11.167 0 0 1 2.613 2.371 10.434 10.434 0 0 1 0 12.572 6.33 6.33 0 0 1-10.217 0Zm270.321 299.457c-.974-4.861 3.284-11.784 3.284-11.784 1.516-.442 3.492 2.356 3.492 2.356-4.419 3.536-4.714 9.428-4.714 9.428Z"/><path class="cls-3" d="M285.7 411.19a11.182 11.182 0 0 0 2.612 2.371 25.16 25.16 0 0 1 8.272 8.639 25.169 25.169 0 0 1 8.272-8.639 11.167 11.167 0 0 0 2.613-2.371 10.433 10.433 0 0 0 0-12.571 6.331 6.331 0 0 0-10.218 0l-.667.821-.667-.821a6.33 6.33 0 0 0-10.217 0 10.433 10.433 0 0 0 0 12.571Z"/><path class="cls-2" d="M296.585 399.44v22.76a25.155 25.155 0 0 0-8.271-8.64 11.145 11.145 0 0 1-2.613-2.371 10.43 10.43 0 0 1 0-12.571 6.33 6.33 0 0 1 10.217 0Z"/></svg>