<svg id="Layer_1" data-name="Layer 1" xmlns="http://www.w3.org/2000/svg" viewBox="0 0 321.875 500"><defs><style>.cls-2{fill:#ffc306}.cls-3{fill:#383838}.cls-4{fill:#d90000}.cls-5{fill:#f9c9af}.cls-6{fill:#05703d}.cls-7{fill:#02592d}</style></defs><path style="fill:#fff" d="M0 1h321.875v500H0z"/><path d="M268.453 482.248H45.383a26.66 26.66 0 0 1-26.63-26.63V126.1a1.25 1.25 0 0 1 2.5 0v329.52a24.157 24.157 0 0 0 24.13 24.13h223.07a1.25 1.25 0 0 1 0 2.5Zm33.42-105.09a1.25 1.25 0 0 1-1.25-1.25V46.388a24.162 24.162 0 0 0-24.13-24.14H53.423a1.25 1.25 0 0 1 0-2.5h223.07a26.665 26.665 0 0 1 26.63 26.64v329.52a1.25 1.25 0 0 1-1.25 1.25Z"/><path class="cls-2" d="m137.364 111.085-7.8-1.176a1.335 1.335 0 0 0-.741.629c-.243.446-.4 1.3.166 2.889l8.268 1.247a4.95 4.95 0 0 1 .107-3.589Zm22.244 3.354-20.83-3.141a3.758 3.758 0 0 0 .092 3.618L159.291 118c.017-.622.15-2.015.317-3.561Z"/><path class="cls-3" d="M167.061 69.113c-4.063.917-8.263 1.606-12.475 2.2a59.624 59.624 0 0 0-3.933.7 11.737 11.737 0 0 1 4.591 5.406c.177.434.328.881.478 1.329a11.333 11.333 0 0 0 .9 2.178 5.284 5.284 0 0 0 8.244 1.079 3.259 3.259 0 0 0 1.086-2.786 1.838 1.838 0 0 0-.887-1.191 1.229 1.229 0 0 0-1.019-.138.677.677 0 0 1-.873-.422.685.685 0 0 1 .422-.872 2.6 2.6 0 0 1 2.149.24 3.211 3.211 0 0 1 1.553 2.111 4.516 4.516 0 0 1-1.471 4.035 6.385 6.385 0 0 1-.866.7 7.923 7.923 0 0 0 4.787 5.282 4.351 4.351 0 0 0 4.919-1.316 2.728 2.728 0 0 0-.579-3.681 3.05 3.05 0 0 0-2.686-.4.863.863 0 0 0-.513.859.686.686 0 0 1-1.371-.027 2.224 2.224 0 0 1 1.3-2.068 4.33 4.33 0 0 1 4.119.551 4.066 4.066 0 0 1 .852 5.555 5.056 5.056 0 0 1-2.324 1.738 56.543 56.543 0 0 0 2.412 7.093.6.6 0 0 1 .305-.063 6.158 6.158 0 0 0 6.518-8.991 13.258 13.258 0 0 0-1.678-2.251 10.856 10.856 0 0 1-2.25-3.42 10.889 10.889 0 0 1-.456-2.36 12.269 12.269 0 0 0-.28-1.711 5.771 5.771 0 0 0-2.475-3.369 12.163 12.163 0 0 0-2.9-1.178 20.674 20.674 0 0 1-2.087-.734c-1.573-.685-3.322-2.133-3.512-4.078Z"/><path class="cls-4" d="M154.4 69.954c17.437-2.449 29.934-6.163 37.09-15.516-8.634 2.961-18.374 2.67-30.458-.975-2.757-.829-5.434-1.813-8.023-2.766-7.082-2.6-13.774-5.059-21.63-4.408-6.542.542-12.078 2.561-16.009 5.836-4.562 3.8-7.4 10.117-7.783 17.318a60.341 60.341 0 0 0 .82 11.275 57.959 57.959 0 0 1 .782 12.3 25.182 25.182 0 0 1-5.385 14.026 22.625 22.625 0 0 0 12.5-8.168c1.444-1.892 2.8-3.774 4.125-5.622 7.936-11.054 14.797-20.61 33.971-23.3Z"/><path class="cls-3" d="M120.636 95.292c-.453.628-.909 1.256-1.373 1.89a6.9 6.9 0 0 1 1.168 3.016 11.188 11.188 0 0 1 .039 2.052 5.134 5.134 0 0 0 .43 2.928 5.8 5.8 0 0 0 3.306 2.748 6.336 6.336 0 0 0 4.759-.636 41.07 41.07 0 0 1-8.329-11.998Z"/><path class="cls-2" d="M107.044 80.9a61.325 61.325 0 0 1-.83-11.531c.4-7.583 3.42-14.253 8.274-18.3 4.148-3.456 9.948-5.584 16.772-6.148 8.164-.674 14.99 1.831 22.217 4.488 2.57.944 5.227 1.921 7.944 2.74 12.639 3.805 22.623 3.916 31.406.362a32.48 32.48 0 0 0 3.914-9.052c-4.728 2.43-20.563 9.332-34.593 1.225-10-5.78-30.773-11.025-45.618-4.586-8.543 3.7-14.064 10.676-16.408 20.729a31.727 31.727 0 0 0-.632 9.773c.234 2.895.6 7.131 1.09 12.167.138 1.416.338 2.755.53 4.035 1.076 7.2 1.936 12.946-9.747 20.964a33.857 33.857 0 0 0 10.136-.209 23.3 23.3 0 0 0 6.318-14.644 56.853 56.853 0 0 0-.773-12.013Z"/><path class="cls-5" d="M158.443 120.672c.184-.464.365-.926.515-1.34l-14-2.111c3.207 2.29 9.435 5.96 13.485 3.451Z"/><path class="cls-2" d="M191.2 183.423c-1.829-30.161-11.488-50.479-13.659-54.69a64.542 64.542 0 0 0-1.212 2.059 27.073 27.073 0 0 1-1.577 5.572c.923 1.875 8.061 17 10.355 40.487a132.994 132.994 0 0 0 6.093 6.572Zm-.4 25.449a168.8 168.8 0 0 0 .715-15.214 95.952 95.952 0 0 1-5.736-4.949 158.163 158.163 0 0 1-.953 20.642c1.851-.109 3.961-.263 5.974-.479Z"/><path class="cls-4" d="M144.152 170.183c2.023.267 11.871 1.225 20.247-3.186a62.3 62.3 0 0 1 2.3-9.225c.193-.544.5-1.291.833-2.121a41.256 41.256 0 0 0 1.706-4.694c.223-.91-1.177-2.273-2.278-3.116a34.072 34.072 0 0 0-.806 2.1.682.682 0 0 1-.649.464 11.917 11.917 0 0 1-12.3-9.7.681.681 0 0 1 .1-.475c.235-.362.429-.718.629-1.075a4.585 4.585 0 0 0-4.319 2.19 97.231 97.231 0 0 1-6.812 8.439l-.416.478c-.014.015-.038.01-.052.024-.54.86-3.578 6.559 1.817 19.897Z"/><path class="cls-6" d="M210.677 205.172a81.788 81.788 0 0 1-12.03-6.4 106.64 106.64 0 0 1-1.128 9.041 4.6 4.6 0 0 1 3.288.87 54.182 54.182 0 0 0 9.87-3.511Z"/><path class="cls-2" d="M192.864 194.7a170.017 170.017 0 0 1-.677 14.008 34 34 0 0 0 3.915-.69c.573-3.291 1-6.686 1.253-10.1q-2.334-1.572-4.491-3.218Z"/><path class="cls-4" d="M197.838 191.431a126.085 126.085 0 0 1-13.77-13.7.6.6 0 0 1-.132-.151 141.822 141.822 0 0 1-15.21-21.22c-.293.723-.56 1.383-.731 1.867-.248.7-.707 2.257-1.145 3.893 1.35 2.651 15.906 30.068 45.371 42.223a14.811 14.811 0 0 0 2.195-1.544 95.292 95.292 0 0 1-16.46-11.275.554.554 0 0 1-.118-.093Z"/><path class="cls-2" d="M178.386 127.391c1.181 2.182 12.589 24.073 14.292 57.5a118.03 118.03 0 0 0 4.987 4.588c.016-33.9-14.744-62.8-16.482-66.08a56.655 56.655 0 0 0-2.797 3.992Z"/><path class="cls-6" d="M169.3 143.821a9.049 9.049 0 0 0-1.76 2.739c1.089.785 3.513 2.777 3.037 4.723a29.181 29.181 0 0 1-1.193 3.452 135.688 135.688 0 0 0 14.141 20.252c-2.206-19.751-7.742-33.118-9.518-36.993a17.531 17.531 0 0 1-4.707 5.827Zm-33.062 101.315a51.622 51.622 0 0 0 8.454 5.153h7.519c8.7-6.679 17.1-13.367 24.361-21.595a24.5 24.5 0 0 0 3.192-4.626 2.434 2.434 0 0 1-1.35-1.081c-20.076-.186-32.731-3.843-36.4-5.062-1.7.751-12.9 5.788-19.383 10.5a37.935 37.935 0 0 0 2.92 5.646 41.894 41.894 0 0 0 10.687 11.065Z"/><path class="cls-2" d="M141.824 250.289a52.589 52.589 0 0 1-6.41-4.06 43.143 43.143 0 0 1-11.014-11.413 39.2 39.2 0 0 1-3.139-6.086.575.575 0 0 1-.09-.073.645.645 0 0 1-.084-.324c-.134-.331-.3-.648-.429-.983a16.321 16.321 0 0 0-7.038 5.193 10.215 10.215 0 0 0-.718 1.486 70.751 70.751 0 0 0 15.541 16.26Z"/><path class="cls-6" d="M153.317 137.78a6.173 6.173 0 0 1 1.29.059 23.194 23.194 0 0 0 1.778-8.8c.028-.5.055-.993.09-1.477a18.942 18.942 0 0 1 1.262-5.059 7.774 7.774 0 0 1-2.451.394c-5.645 0-12.037-5.169-13.147-6.1l-7.783-1.174a21.274 21.274 0 0 1-3.239 1.1c5.16 3.16 16.009 10.67 22.2 21.057Zm5.49 40.546a61.717 61.717 0 0 1-13.635 1.45c-1.92 0-3.173-.078-3.336-.087a.692.692 0 0 1-.493-.261c-5.394-6.866-6.733-14.843-7.014-19.595a35.336 35.336 0 0 1-3.454 4.159 20.33 20.33 0 0 1-.726.58c-1.722 1.337-5.305 4.118-5.815 7.648a.686.686 0 0 1-.678.587.838.838 0 0 1-.1-.007.686.686 0 0 1-.58-.777c.59-4.075 4.468-7.087 6.331-8.535.279-.216.511-.4.675-.535a39.625 39.625 0 0 0 3.58-4.389 25.8 25.8 0 0 1-10.615 2.751h-.28a16.858 16.858 0 0 1-12.07-4.941 21.216 21.216 0 0 1-6.032-13.525c-3.784 10.133-.851 25.4.695 30.694 1.867 6.385 2.825 10.563 2.835 10.605A74.624 74.624 0 0 0 114.556 202a8.236 8.236 0 0 0 10.387 3.71c17.1-7.067 30.064-22.503 33.864-27.384Z"/><path class="cls-4" d="M177.983 221.609a76.442 76.442 0 0 1 .027-9.07 3.009 3.009 0 0 1 .219-.924c-20.929-.512-32.04-5.688-34.431-6.945a11.425 11.425 0 0 0-2.141 11.683c2.008.726 14.797 4.998 36.326 5.256Z"/><path class="cls-6" d="M110.335 135.319a17.115 17.115 0 0 0 2.837 15.085 11.96 11.96 0 0 0 10.314 4.777c4.372-.238 8.652-2.9 11.529-6.561.485-3.62 1.341-7.253 1.349-7.291a.676.676 0 0 1 .825-.509.686.686 0 0 1 .509.825c-.006.025-.422 1.8-.834 4.081a14.46 14.46 0 0 0 1.677-6.295 4.116 4.116 0 0 1-.282-7.405 48.513 48.513 0 0 0-13.432-8.957 4.9 4.9 0 0 1-2.978 4.42 5.37 5.37 0 0 1-2.2.482 4.547 4.547 0 0 1-3.26-1.32c-.015.012-.012.034-.028.046a16.8 16.8 0 0 0-6.026 8.622Z"/><path class="cls-2" d="M121.282 126.239a3.287 3.287 0 0 0 1.958-4.174 2.754 2.754 0 0 0-1.767-1.483 3.488 3.488 0 0 0-1.022-.15 3.954 3.954 0 0 0-1.642.366 3.787 3.787 0 0 0-1.915 1.865 2.763 2.763 0 0 0-.044 2.307 3.284 3.284 0 0 0 4.432 1.269Z"/><path class="cls-4" d="M124.472 121.472c.009 0 .018-.006.028 0 .293.1 7.219 2.5 15.276 10.088a3.944 3.944 0 0 1 .437-.045 4.05 4.05 0 0 1 4.074 4.772 66.811 66.811 0 0 1 3.789 4.862c.128-.184.292-.39.409-.566a6.055 6.055 0 0 1 3.373-2.547c-7.7-12.534-22.3-20.707-24.074-21.666a8.485 8.485 0 0 0-5.458 3.091 4.049 4.049 0 0 1 2.146 2.011Z"/><path class="cls-2" d="M111.559 155.4a15.76 15.76 0 0 0 11.369 4.545 25.363 25.363 0 0 0 11.344-3.238c.018-.582.046-.965.053-1.046a.712.712 0 0 1 .054-.212c1.586-3.649 3.375-5.818 5.316-6.465a18.129 18.129 0 0 0 2.4-9.67 4.066 4.066 0 0 1-1.881.474c-.108 0-.209-.023-.315-.032-.357 8.166-8.191 16.35-16.338 16.793q-.391.019-.777.02a13.365 13.365 0 0 1-10.689-5.318 18.528 18.528 0 0 1-3.072-16.326 18.187 18.187 0 0 1 6.522-9.331c.024-.019.056-.007.082-.022-.006-.013-.018-.023-.024-.036a3.952 3.952 0 0 1-.344-1.793c-6.138 3.447-9.407 9.4-9.4 17.355a20.1 20.1 0 0 0 5.7 14.302Zm-16.386 14.23a3.414 3.414 0 1 0 3.414 3.415 3.419 3.419 0 0 0-3.414-3.415Z"/><path class="cls-4" d="M95.859 183.379a35.9 35.9 0 0 1 .3-2.12 18.936 18.936 0 0 0 .343-3.641 4.571 4.571 0 0 1-4.2-.768 10.6 10.6 0 0 0-1.016 2.933c-.062.365-.106.735-.15 1.1a12.761 12.761 0 0 1-.4 2.206 8.207 8.207 0 0 1-2.474 3.688 8.888 8.888 0 0 0 1.341-.232.7.7 0 0 1 .594.127.684.684 0 0 1 .261.547 6.027 6.027 0 0 0 2.938 5.092 9.144 9.144 0 0 1 .9-3.962.687.687 0 0 1 1.023-.252 4.589 4.589 0 0 0 1.464.712 9.1 9.1 0 0 1-.924-5.43Z"/><path class="cls-2" d="M104.627 138.5a22.075 22.075 0 0 1 2.047-7.654C92.454 143.81 94.1 164.3 94.582 168.32a4.809 4.809 0 0 1 .591-.06 4.746 4.746 0 0 1 2.081.5c-.2-4.343-.151-18.056 7.236-30.158.032-.055.095-.064.137-.102Z"/><path class="cls-4" d="M72.542 86.313C78.521 71.02 94.676 70.548 98.12 70.624a35.654 35.654 0 0 1 .009-5.747 6.217 6.217 0 0 0-1.9.5.689.689 0 0 1-.732-.067c-3.4-2.63-8.994-.245-9.049-.221a.693.693 0 0 1-.518.012c-4.164-1.6-8.029 1.876-8.067 1.911a.689.689 0 0 1-.528.179c-2.592-.241-4.571.283-5.883 1.568-2.063 2.019-1.853 5.3-1.851 5.334a.691.691 0 0 1-.4.676c-.192.087-4.68 2.193-3 6.363a.689.689 0 0 1-.135.724c-.2.215-4.835 5.319-.942 11.363a.681.681 0 0 1 .1.292c0 .038.446 3.7 2.591 5.124a3.872 3.872 0 0 0 3.373.342.7.7 0 0 1 .355-.007 4.505 4.505 0 0 0 3.056-.37 2.72 2.72 0 0 0 1.155-1.908.689.689 0 0 1 .435-.518c.053-.02 5.331-2.032 5.844-6.32a.686.686 0 0 1 .471-.568c.182-.061 4.453-1.491 4.535-5.368a.686.686 0 0 1 .656-.669c.09 0 9.038-.451 9.61-5.129a.685.685 0 0 1 1.023-.511c-.022-.025.129-.038.375-.092a740.087 740.087 0 0 1-.354-4.026 29.977 29.977 0 0 0-25.807 12.822Zm143.649 128.245a26.322 26.322 0 0 0-.937-10.658c-3.869 3.293-11.352 5.4-13.744 6.015.56 2.1.542 6.557.489 8.834a43.408 43.408 0 0 0 14.192-4.191Z"/><path class="cls-2" d="M86.162 63.724c1.006-.395 4.67-1.623 7.949-.609C87.451 56 72.542 51.934 72.542 51.934c17.083 1.649 23.4 9.345 24.926 11.638a5.962 5.962 0 0 1 .806-.085c.013-.094.017-.19.03-.282-.008-.046-.049-.079-.047-.126.289-7.811-4.276-8.719-4.471-8.752a.7.7 0 0 1-.506-.389 9.025 9.025 0 0 0-6.18-4.856.685.685 0 0 1-.477-.328 4.938 4.938 0 0 0-4.514-2.434.706.706 0 0 1-.541-.194c-3.11-3.054-7.931-.738-7.978-.709a.666.666 0 0 1-.578.011 6.481 6.481 0 0 0-7.208 1.32.689.689 0 0 1-.42.21c-2.564.3-4.329 1.154-5.246 2.541a5.042 5.042 0 0 0-.573 3.842.7.7 0 0 1-.039.489 4.5 4.5 0 0 0 .022 3.506c.734 1.571 2.509 2.738 5.275 3.465a.7.7 0 0 1 .364.238c.074.092 1.95 2.3 6.768 1.274a.683.683 0 0 1 .455.059 19.431 19.431 0 0 0 7.252 1.876 8.548 8.548 0 0 1 6.5-.524Z"/><path class="cls-5" d="M174.614 113.63c-1.569-2.765-3.918-2.233-4.026-2.208-4.511 2.534-5.673 8.118-5.684 8.174a.686.686 0 0 1-.672.55.666.666 0 0 1-.133-.013.683.683 0 0 1-.54-.8 15.62 15.62 0 0 1 2.055-4.87c.254-3.4.915-9.034 1.345-10.124.081-.2.2-.439.336-.707a4.421 4.421 0 0 0 .646-3.442c-.109-.348-.246-.39-.291-.4-.374-.107-1.151.3-1.627.665a46.525 46.525 0 0 0-4.4 8.4c-.315 2.663-.965 8.216-.965 9.275a10.642 10.642 0 0 1-.964 3.11 23.135 23.135 0 0 0-1.852 6.428c-.034.477-.061.961-.089 1.454a23.887 23.887 0 0 1-2.029 9.587c0 .053.029.1.012.153-.03.094-.114.137-.175.206a19.34 19.34 0 0 1-.947 1.679c.29 1.4 2.1 8.033 10.413 8.283.492-1.365 1.9-5.012 3.311-6.188 1.636-1.365 5.277-4.4 6.662-12.393a.63.63 0 0 1 .074-.212c.226-.415 5.358-9.733 10.083-12.718a3.12 3.12 0 0 0-2.687-.734c-2.032.235-5.177 3.926-6.688 5.7-.471.554-.826.964-1.009 1.129a.685.685 0 1 1-.918-1.017c.162-.148.469-.513.883-1a31 31 0 0 1 5.078-5.033c0-.013-.014-.02-.015-.033a2.577 2.577 0 0 0-.91-1.834 3.539 3.539 0 0 0-3.1-.062c-3.521 1.115-6.176 7.279-6.2 7.342a.686.686 0 0 1-.631.417.7.7 0 0 1-.267-.054.686.686 0 0 1-.363-.9c.108-.263 2.581-6.01 6.284-7.81Z"/><path class="cls-5" d="M171.327 90.6a6.051 6.051 0 0 1-2.039-.355 9.382 9.382 0 0 1-5.552-5.888 6.62 6.62 0 0 1-8.29-2.734 12.6 12.6 0 0 1-1.023-2.441c-.141-.419-.282-.84-.449-1.249a10.364 10.364 0 0 0-5.206-5.443c-.015-.007-.018-.027-.033-.036-14.222 3.6-20.3 11.984-27.165 21.541.727 1.715 4.512 10 11.638 15.073l26.55 4c.251-2.225.512-4.349.532-4.52 1.133-3.58 4.5-8.732 4.647-8.95a.7.7 0 0 1 .136-.152c.277-.227 1.722-1.354 2.966-.984a1.818 1.818 0 0 1 1.21 1.307 5.706 5.706 0 0 1-.733 4.478c-.113.221-.215.417-.281.587a58.5 58.5 0 0 0-1.073 7.624 11.894 11.894 0 0 1 2.915-2.3 4.9 4.9 0 0 1 4.287.978 10.76 10.76 0 0 0 4.4-6.218c-3.826-4.345-6.083-12.3-6.631-14.407a5.845 5.845 0 0 1-.806.089Zm-18.979.665a2.6 2.6 0 1 1-3.79-.573 2.715 2.715 0 0 1 3.79.576Zm-1.643-7.723a.684.684 0 1 1 .394 1.311c-7.582 2.278-7.982 6.271-7.985 6.311a.686.686 0 0 1-.683.632.515.515 0 0 1-.055 0 .685.685 0 0 1-.629-.737c.016-.202.488-4.971 8.958-7.514ZM127.891 101.6a.686.686 0 0 1-.638.436.711.711 0 0 1-.251-.047.685.685 0 0 1-.387-.889 8.242 8.242 0 0 1 6.963-5.554.665.665 0 0 1 .711.654.685.685 0 0 1-.652.715 6.9 6.9 0 0 0-5.746 4.685Zm9.556 3.728a2.832 2.832 0 1 1 .253-3.826 2.713 2.713 0 0 1-.253 3.827Zm15.935 1.214a13.768 13.768 0 0 1-2.938 1.825 2.48 2.48 0 0 1-1.067.243 2.393 2.393 0 0 1-1.7-.7 57.024 57.024 0 0 1-6.367-8.772.685.685 0 0 1 1.178-.7c.034.058 3.445 5.771 6.161 8.5a1.046 1.046 0 0 0 1.2.188 12.41 12.41 0 0 0 2.629-1.62.685.685 0 1 1 .9 1.031Z"/><path class="cls-2" d="M140.213 132.883a2.769 2.769 0 1 0 2.767 2.768 2.771 2.771 0 0 0-2.767-2.768Zm60.413 86.498c.112-3.949-.069-8.812-.588-9.553a2.649 2.649 0 0 0-2.095-.665 6.833 6.833 0 0 0-1.111.087c-3.717 1.056-11.408 1.49-15.657 1.653a1.807 1.807 0 0 0-1.8 1.689c-.251 6.215-.134 8.968.058 9.474a1.193 1.193 0 0 0 1.333.755c.227-.014 14.368-.543 17.063-1.053a3.467 3.467 0 0 0 2.797-2.387Zm-3.781-1.1a.7.7 0 0 1-.029.17 2.6 2.6 0 0 1-2.223 1.6c-1.412.208-8.326.4-8.619.413a1.256 1.256 0 0 1-.195.013 1.625 1.625 0 0 1-1.48-.85c-.106-.216-.3-.613-.122-4.1a1.805 1.805 0 0 1 1.893-1.553 56.491 56.491 0 0 0 7.653-.618c.477-.069 1.92-.212 2.6.54.555.617.59 2.725.522 4.387Z"/><path class="cls-4" d="M193.963 214.707a55.055 55.055 0 0 1-7.853.64c-.363.009-.561.192-.564.254a15.242 15.242 0 0 0 0 3.452c.021.038.229.055.33.047 2.522-.074 7.456-.248 8.522-.4a1.384 1.384 0 0 0 1.086-.6 11.642 11.642 0 0 0-.2-3.317 2.891 2.891 0 0 0-1.321-.076Z"/><path class="cls-2" d="M168.731 250.7c.035-.076.043-.163.1-.22 0 0 0-.009.006-.013 10.519-9.626 17.348-23.423 18.829-26.582-2.89.142-5.45.243-6.387.279a25.645 25.645 0 0 1-3.679 5.436c-7.314 8.287-15.739 15-24.455 21.7-.037.076-.045.163-.105.22v.01c-10.52 9.629-17.348 23.424-18.83 26.583a634.97 634.97 0 0 1 6.388-.28 25.671 25.671 0 0 1 3.683-5.433c7.319-8.295 15.737-15 24.45-21.7Z"/><path class="cls-6" d="m141.741 148.926.04-.046c1.672-1.924 3.806-4.391 5.452-6.565a64.516 64.516 0 0 0-3.491-4.533 4.043 4.043 0 0 1-.375.516c.006.026.033.038.037.064a19.481 19.481 0 0 1-2.092 10.474 3.135 3.135 0 0 1 .429.09Zm37.464 61.348a3.253 3.253 0 0 1 1.918-.74c.617-.024 1.434-.062 2.32-.106a156.73 156.73 0 0 0 .954-22.037 103.64 103.64 0 0 1-18.051-23.3c-.216.89-.393 1.7-.494 2.306a.685.685 0 0 1 .387.212c2.882 3.252.277 7.757-1.5 9.684a.657.657 0 0 1-.222.161 28.9 28.9 0 0 1-3.536 1.281 105.921 105.921 0 0 1-13.85 15.042 46.992 46.992 0 0 1-1.256 11.355c4.091 1.825 15.076 5.824 33.33 6.142Z"/><path class="cls-2" d="M140.132 150.277c-1.062.352-2.692 1.615-4.449 5.613-.083 1.245-.646 13.073 6.548 22.447 2.015.1 13.593.466 21.585-3.074.567-.663 3.627-4.462 1.734-7.311-9.846 5.473-21.5 3.614-22 3.532a.683.683 0 0 1-.521-.415c-5.139-12.484-3.256-18.766-2.189-20.915a2.258 2.258 0 0 0-.708.123Zm68.158 87.39a55.469 55.469 0 0 1-10.69-14.477c-.969.135-2.569.267-4.423.389.926 3.2 5.091 15.549 16.048 23.482a17.629 17.629 0 0 0 14.952 2.566c6.1-1.691 13.954-4.613 17.4-9.042l-4.282-3.7a45.27 45.27 0 0 1-7.5 4.325 19.339 19.339 0 0 1-21.505-3.543Z"/><path class="cls-4" d="M191.774 223.667c-.84.05-1.7.1-2.56.142-.281.635-7.042 15.628-18.211 26.48h41.416a17.955 17.955 0 0 1-4-2.117c-11.67-8.449-15.867-21.707-16.645-24.505Z"/><path class="cls-6" d="M215.881 216.315c-.018-.013-.016-.038-.032-.052a44.994 44.994 0 0 1-14.067 3.905 4.764 4.764 0 0 1-2.8 2.686 54.049 54.049 0 0 0 10.257 13.823 17.989 17.989 0 0 0 19.983 3.292 45.173 45.173 0 0 0 5.787-3.185c-7.147-11.862-19.009-20.384-19.128-20.469Z"/><path class="cls-2" d="M257.893 171.6a3.039 3.039 0 1 0-3.037-3.038 3.041 3.041 0 0 0 3.037 3.038Zm-36.031 47.821a90.403 90.403 0 0 1 3.946 3.7l6.852-7.282a269.596 269.596 0 0 0-7.2-5.046Zm25.961-32.036 7.691-5.744.838-8.96a4.4 4.4 0 0 1-1.433-.883l-8.023 5.347-1.445 8.41a2.264 2.264 0 0 0 2.372 1.83Zm7.694-79.823c-22.585-7.435-36.981 2.042-38.975 3.479a10.949 10.949 0 0 0 .419 1.144c.059.131.128.255.19.386a39.16 39.16 0 0 1 34.774-3.137.685.685 0 0 1 .434.683c-.027.413-.681 9.909-4.276 16.273l2.446.369a31.6 31.6 0 0 0 4.988-19.197Z"/><path class="cls-5" d="M215.444 118.724a.692.692 0 0 1-.94-.237 25.838 25.838 0 0 1-2.936-6.293 18.452 18.452 0 0 1-4.336-4.328c-.461-.605-.886-1.209-1.278-1.765a12.675 12.675 0 0 0-1.72-2.162 1.777 1.777 0 0 0-.14.324c-.73 2.135.22 7.333 5.878 12.2a.686.686 0 0 1-.9 1.04 23.512 23.512 0 0 1-2.523-2.554 16.012 16.012 0 0 1-.847 5.046l16.091 2.427a8.643 8.643 0 0 0-2.373-3.833 22.968 22.968 0 0 1-3.714-5.845 10.478 10.478 0 0 1-.968-3.574l-.018-.287a2.947 2.947 0 0 0-.6-2.042c-.148-.147-.536-.464-.911-.265-.5.278-.8 1.865-.7 2.971.127 1.45.3 3.436 3.173 8.23a.688.688 0 0 1-.238.947Z"/><path class="cls-4" d="M227.917 113.682a78.884 78.884 0 0 1-8.7 2.441 17.4 17.4 0 0 0 1.223 1.552 9.613 9.613 0 0 1 2.822 4.972l23.37 3.524c3.2-5.285 4.129-13.541 4.318-15.644a37.743 37.743 0 0 0-33.184 3.279c.205.378.422.739.641 1.1a83.254 83.254 0 0 0 9.022-2.5.685.685 0 0 1 .488 1.281Z"/><path class="cls-5" d="M196.809 111.268c-1.593.888-3.609 4.426-3.657 6.416-.014.613.031 1.044.3 1.3.178.174.5.364 1.288.118a5.013 5.013 0 0 0 .889-1.135c.927-1.386 2.293-3.387 4.741-3.469 0-.319-.007-.635-.011-.926a23.337 23.337 0 0 1 .052-2.711 6.752 6.752 0 0 0-3.602.407Z"/><path class="cls-6" d="M253.442 90.24a4.32 4.32 0 0 0-2.336-.929c-26.059-2.177-42.512 7.309-51.354 12.406-2.706 1.56-4.661 2.686-6.045 2.983-5.653 1.216-7.471.721-7.66.656a33.816 33.816 0 0 0-5.283-1.287l-.685.418c.035.1.106.181.1.284-.018.171-.5 4.039-4.872 7.36a7.317 7.317 0 0 1 .651 1.054 4.458 4.458 0 0 1 3.743.4 3.672 3.672 0 0 1 1.382 2.229 4.468 4.468 0 0 1 5.513 1.309l5.191.781v-.249c.058-2.441 2.38-6.481 4.359-7.581a8.3 8.3 0 0 1 4.75-.532 2.9 2.9 0 0 1 2.065-1 8.413 8.413 0 0 1-.16-4.718c.1-.292.4-1.176 1.209-1.292 1.008-.138 1.83 1.022 3.069 2.782.382.544.8 1.134 1.247 1.725a21.44 21.44 0 0 0 2.866 3.13c-.012-.122-.025-.247-.034-.357-.09-1 0-3.652 1.392-4.424a2.079 2.079 0 0 1 2.546.493 4.118 4.118 0 0 1 1 2.927l.017.276c.012.169.068.354.093.528a35.317 35.317 0 0 1 7.935-3.823c.016-.015.012-.039.03-.053.342-.27 8.467-6.646 14.867-8.41a.678.678 0 0 1 .843.477.686.686 0 0 1-.478.843c-3.87 1.068-8.542 4.008-11.489 6.053 6.98-1.717 16.636-2.276 28.454 1.7a.684.684 0 0 1 .458.54c.063.392 1.388 9.265-4.353 19.255 5.4-3.539 9.51-9.5 11.9-17.388a4.12 4.12 0 0 0 .162-1.787c-1.177-8.126-8.15-14.441-11.093-16.779Z"/><path class="cls-6" d="m196.814 118.661.695.1c.328-1.063 1.823-1.283 2.676-1.315a8.321 8.321 0 0 0 .167-1.591c-1.692.091-2.71 1.57-3.538 2.806Z"/><path class="cls-2" d="M215.276 199.145c-.127.78-.253 1.559-.392 2.352.337.181.667.371 1.007.547.019.01.02.033.036.043a.662.662 0 0 1 .292.33c.031.082.276.762.564 1.847 5.323 1.591 24.124 15.951 27.8 18.786l16.982-26.485c-7.2-5.305-5.159-11.6-5.137-11.663a.677.677 0 0 1 .866-.426.684.684 0 0 1 .431.866 6.194 6.194 0 0 0-.238 1.649 2.167 2.167 0 0 0 1.846-.23 1.794 1.794 0 0 0 .61-1.069 2.824 2.824 0 0 0-.475-2.411 3.669 3.669 0 0 0-2.611-1.281l-.007.076a.689.689 0 0 1-.272.485l-3.468 2.59c0 .073.035.141.008.214a6.117 6.117 0 0 0-.365 1.519 10.157 10.157 0 0 0 1.96 6.588 10.931 10.931 0 0 0 2.491 2.483.684.684 0 0 1 .161.948l-3.393 4.892-3.4 4.9-6.77 9.762a.681.681 0 0 1-.485.29.409.409 0 0 1-.078 0 .685.685 0 0 1-.459-.177c-13.889-12.524-27.3-17.309-27.435-17.356-.029-.014-.038-.052-.069-.069Z"/><path class="cls-2" d="M247.277 188.726a3.6 3.6 0 0 1-2.929-2.117c-13.107 8.326-14.76 18.075-14.776 18.175a.633.633 0 0 1-.044.122 99.368 99.368 0 0 1 5.8 3.883 30.589 30.589 0 0 0 11.949-20.063Z"/><path class="cls-6" d="M206.666 132.581a13.955 13.955 0 0 1-8.733-2.845 16.132 16.132 0 0 1-5.588 1.255 4.152 4.152 0 0 1-1.572-.248 2.641 2.641 0 0 1-1.471-3.4c.633-1.581 2.481-2.418 3.912-2.848l-10.758-1.621c2.105 4 16.94 33.487 16.581 67.773a94.868 94.868 0 0 0 14.572 10.153c7.26-41.892-3.537-65.2-5-68.1a28.335 28.335 0 0 0-1.943-.119Z"/><path class="cls-4" d="M225.256 129.646a3.756 3.756 0 0 1-1.137 1.829 42.752 42.752 0 0 0 14.68-.107l-13.59-2.049a.644.644 0 0 1 .047.327Z"/><path class="cls-2" d="M204.933 121.271a4.1 4.1 0 0 1-2.478 1.521c-.167.007-.33.01-.489.01a4.962 4.962 0 0 1-3.688-1.187 2.977 2.977 0 0 1-.755-1.461l-1.643-.247a1.8 1.8 0 0 1-.723.5 3.557 3.557 0 0 1-1.07.181 2.222 2.222 0 0 1-1.583-.616 2.119 2.119 0 0 1-.453-.645l-5.777-.87a14.262 14.262 0 0 0-3.549 3.068l70.167 10.578c1.343.123 5.037.036 5.549-1.876a.538.538 0 0 0 0-.531c-.141-.223-.851-.959-4.078-1.053a9.733 9.733 0 0 1-1.17-.1Zm50.022 7.837c1.39-.195 2.6.211 2.693.906s-.951 1.417-2.341 1.61-2.6-.21-2.693-.905.951-1.419 2.341-1.611Z"/><path class="cls-5" d="M195.2 125.447c-1.073.136-3.993.83-4.612 2.378a1.287 1.287 0 0 0 .719 1.655c1.432.612 6.546-.684 8.743-2.476a.685.685 0 1 1 .866 1.062 9.679 9.679 0 0 1-1.567 1 13.127 13.127 0 0 0 7.353 2.142 21.591 21.591 0 0 1 4.6.573c1.207.375 7.923 1.042 11.144-.763a2.79 2.79 0 0 0 1.485-1.715c.018-.072.085-.1.121-.163l-28.311-4.268a.655.655 0 0 1-.541.575Zm6.064-6.989a.752.752 0 0 1-.63.361 3.179 3.179 0 0 0-1.834.364 1.844 1.844 0 0 0 .462 1.477 4.083 4.083 0 0 0 3.094.765 3.052 3.052 0 0 0 2.044-1.825c.727-1.486.831-4.929.811-6.349a16.757 16.757 0 0 1-1.81-3.353c-.254-.011-1.456-.038-1.612.932a19.409 19.409 0 0 0-.061 2.722c.009.585.013 1.164.006 1.73a7.73 7.73 0 0 1-.47 3.176Z"/><path class="cls-6" d="M138.364 45.106c5.235.681 10.077 2.455 15.113 4.306 2.143.787 4.349 1.592 6.6 2.314l2.47-6.823c-.132-.074-.265-.139-.4-.216-5.559-3.211-14.441-6.254-23.784-7.223Z"/><path class="cls-2" d="m184.511 390.913 7.8 1.176a1.338 1.338 0 0 0 .741-.629c.242-.446.4-1.3-.166-2.889l-8.268-1.247a4.95 4.95 0 0 1-.107 3.589Zm-22.244-3.354L183.1 390.7a3.757 3.757 0 0 0-.093-3.619L162.584 384c-.017.619-.151 2.013-.317 3.559Z"/><path class="cls-3" d="M154.814 432.885c4.062-.917 8.263-1.606 12.475-2.2a58.563 58.563 0 0 0 3.933-.7 11.731 11.731 0 0 1-4.591-5.406 22.093 22.093 0 0 1-.478-1.33 11.387 11.387 0 0 0-.9-2.177 5.284 5.284 0 0 0-8.244-1.079 3.261 3.261 0 0 0-1.087 2.786 1.84 1.84 0 0 0 .888 1.191 1.229 1.229 0 0 0 1.019.138.676.676 0 0 1 .872.422.684.684 0 0 1-.421.872 2.6 2.6 0 0 1-2.149-.241 3.209 3.209 0 0 1-1.553-2.11 4.518 4.518 0 0 1 1.471-4.036 6.393 6.393 0 0 1 .866-.694 7.92 7.92 0 0 0-4.788-5.282 4.349 4.349 0 0 0-4.918 1.316 2.728 2.728 0 0 0 .578 3.681 3.051 3.051 0 0 0 2.686.395.865.865 0 0 0 .514-.859.686.686 0 0 1 1.371.026 2.224 2.224 0 0 1-1.3 2.069 4.329 4.329 0 0 1-4.119-.551 4.066 4.066 0 0 1-.852-5.555 5.049 5.049 0 0 1 2.324-1.738A56.829 56.829 0 0 0 146 404.73a.6.6 0 0 1-.305.063 6.157 6.157 0 0 0-6.518 8.991 13.3 13.3 0 0 0 1.678 2.251 8.385 8.385 0 0 1 2.706 5.78 12.124 12.124 0 0 0 .28 1.711 5.771 5.771 0 0 0 2.475 3.369 12.172 12.172 0 0 0 2.894 1.178 20.932 20.932 0 0 1 2.088.733c1.579.686 3.326 2.134 3.516 4.079Z"/><path class="cls-4" d="M167.48 432.044c-17.438 2.449-29.934 6.162-37.09 15.515 8.634-2.96 18.374-2.669 30.458.976 2.757.829 5.434 1.813 8.023 2.766 7.082 2.6 13.773 5.059 21.63 4.408 6.542-.542 12.078-2.561 16.008-5.836 4.562-3.8 7.4-10.117 7.783-17.318a60.34 60.34 0 0 0-.819-11.275 57.964 57.964 0 0 1-.782-12.3 25.194 25.194 0 0 1 5.384-14.027 22.627 22.627 0 0 0-12.495 8.169c-1.444 1.891-2.8 3.774-4.125 5.621-7.945 11.057-14.807 20.61-33.975 23.301Z"/><path class="cls-3" d="M201.239 406.705c.453-.628.908-1.255 1.372-1.889a6.9 6.9 0 0 1-1.167-3.016 11.2 11.2 0 0 1-.039-2.053 5.132 5.132 0 0 0-.43-2.927 5.8 5.8 0 0 0-3.307-2.748 6.336 6.336 0 0 0-4.759.636 41.091 41.091 0 0 1 8.33 11.997Z"/><path class="cls-2" d="M214.831 421.1a61.409 61.409 0 0 1 .83 11.531c-.4 7.583-3.42 14.253-8.274 18.3-4.148 3.456-9.948 5.584-16.773 6.148-8.163.674-14.989-1.831-22.216-4.488-2.57-.944-5.227-1.921-7.945-2.74-12.638-3.806-22.622-3.916-31.4-.362a32.48 32.48 0 0 0-3.914 9.052c4.728-2.43 20.563-9.333 34.593-1.226 10 5.781 30.772 11.026 45.617 4.587 8.544-3.7 14.065-10.676 16.409-20.729a31.758 31.758 0 0 0 .632-9.765c-.235-2.9-.6-7.132-1.09-12.167-.138-1.416-.339-2.755-.53-4.035-1.077-7.2-1.936-12.946 9.747-20.964a33.864 33.864 0 0 0-10.137.209 23.308 23.308 0 0 0-6.318 14.644 56.92 56.92 0 0 0 .769 12.005Z"/><path class="cls-5" d="M163.432 381.326c-.184.464-.366.926-.516 1.339l14 2.112c-3.206-2.29-9.434-5.96-13.484-3.451Z"/><path class="cls-2" d="M130.673 318.575c1.83 30.161 11.489 50.479 13.66 54.69a62.973 62.973 0 0 0 1.212-2.06 27.018 27.018 0 0 1 1.577-5.571c-.923-1.875-8.062-17-10.355-40.487a132.065 132.065 0 0 0-6.094-6.572Zm.4-25.449a168.803 168.803 0 0 0-.716 15.214 95.992 95.992 0 0 1 5.736 4.948 158.149 158.149 0 0 1 .954-20.641c-1.847.109-3.959.263-5.974.479Z"/><path class="cls-4" d="M177.723 331.815c-2.024-.267-11.871-1.225-20.247 3.185a62.24 62.24 0 0 1-2.3 9.225c-.193.544-.5 1.292-.833 2.122a41.531 41.531 0 0 0-1.707 4.693c-.222.911 1.178 2.274 2.279 3.117.354-.843.643-1.62.806-2.1a.682.682 0 0 1 .648-.464 11.915 11.915 0 0 1 12.3 9.7.681.681 0 0 1-.1.475c-.235.362-.43.718-.629 1.075a4.586 4.586 0 0 0 4.319-2.19 97.065 97.065 0 0 1 6.811-8.439l.416-.478c.015-.016.039-.01.053-.024.54-.86 3.579-6.559-1.816-19.897Z"/><path class="cls-6" d="M111.2 296.826a81.778 81.778 0 0 1 12.03 6.4c.252-3.056.628-6.084 1.129-9.04a4.6 4.6 0 0 1-3.288-.87 54.211 54.211 0 0 0-9.871 3.51Z"/><path class="cls-2" d="M129.011 307.3c.037-4.647.253-9.345.676-14.008a34.076 34.076 0 0 0-3.915.69c-.572 3.291-1 6.686-1.252 10.1q2.334 1.57 4.491 3.218Z"/><path class="cls-4" d="M124.036 310.567a126.009 126.009 0 0 1 13.771 13.695.618.618 0 0 1 .132.151 141.712 141.712 0 0 1 15.209 21.22c.294-.723.56-1.383.732-1.868.248-.7.706-2.256 1.145-3.892-1.35-2.651-15.906-30.068-45.371-42.223a14.811 14.811 0 0 0-2.195 1.544 95.284 95.284 0 0 1 16.459 11.275.554.554 0 0 1 .118.098Z"/><path class="cls-2" d="M143.489 374.607c-1.181-2.182-12.59-24.073-14.292-57.5a118.03 118.03 0 0 0-4.987-4.588c-.016 33.9 14.743 62.8 16.482 66.08a56.225 56.225 0 0 0 2.797-3.992Z"/><path class="cls-6" d="M152.577 358.177a9 9 0 0 0 1.76-2.74c-1.088-.784-3.513-2.776-3.036-4.722a29.181 29.181 0 0 1 1.193-3.452 135.688 135.688 0 0 0-14.141-20.252c2.2 19.751 7.742 33.118 9.518 36.993a17.532 17.532 0 0 1 4.706-5.827Zm33.06-101.315a51.7 51.7 0 0 0-8.454-5.154h-7.519c-8.7 6.68-17.1 13.368-24.361 21.6a24.463 24.463 0 0 0-3.192 4.626 2.434 2.434 0 0 1 1.35 1.081c20.076.186 32.731 3.843 36.4 5.062 1.7-.751 12.9-5.788 19.383-10.5a37.846 37.846 0 0 0-2.921-5.646 41.862 41.862 0 0 0-10.686-11.069Z"/><path class="cls-2" d="M180.051 251.708a52.833 52.833 0 0 1 6.41 4.06 43.167 43.167 0 0 1 11.014 11.414 39.325 39.325 0 0 1 3.139 6.085.644.644 0 0 1 .09.074.652.652 0 0 1 .084.324c.134.331.3.648.429.983a16.335 16.335 0 0 0 7.038-5.193 10.319 10.319 0 0 0 .718-1.486 70.777 70.777 0 0 0-15.541-16.261Z"/><path class="cls-6" d="M168.558 364.218a6.173 6.173 0 0 1-1.29-.059 23.174 23.174 0 0 0-1.778 8.8c-.028.5-.056.993-.09 1.476a18.939 18.939 0 0 1-1.262 5.06 7.766 7.766 0 0 1 2.451-.395c5.644 0 12.037 5.169 13.147 6.1l7.782 1.173a21.44 21.44 0 0 1 3.24-1.1c-5.158-3.158-16.01-10.668-22.2-21.055Zm-5.491-40.546a61.725 61.725 0 0 1 13.636-1.45c1.92 0 3.172.078 3.335.087a.694.694 0 0 1 .494.261c5.394 6.865 6.733 14.843 7.014 19.6a35.252 35.252 0 0 1 3.454-4.164c.176-.152.425-.346.726-.58 1.722-1.337 5.3-4.119 5.815-7.648a.686.686 0 0 1 .677-.587.824.824 0 0 1 .1.007.685.685 0 0 1 .581.776c-.591 4.076-4.468 7.088-6.332 8.536-.279.216-.51.395-.675.535a39.808 39.808 0 0 0-3.58 4.388 25.841 25.841 0 0 1 10.616-2.751h.28a16.858 16.858 0 0 1 12.07 4.941 21.215 21.215 0 0 1 6.031 13.524c3.785-10.132.852-25.4-.694-30.693-1.867-6.385-2.825-10.563-2.835-10.6A74.649 74.649 0 0 0 207.319 300a8.239 8.239 0 0 0-10.387-3.71c-17.1 7.064-30.064 22.501-33.865 27.382Z"/><path class="cls-4" d="M143.891 280.389a76.594 76.594 0 0 1-.026 9.07 3.016 3.016 0 0 1-.219.924c20.929.512 32.04 5.688 34.43 6.944a11.422 11.422 0 0 0 2.142-11.683c-2.008-.725-14.797-4.997-36.327-5.255Z"/><path class="cls-6" d="M211.54 366.679a17.115 17.115 0 0 0-2.837-15.085 11.963 11.963 0 0 0-10.314-4.777c-4.372.238-8.652 2.9-11.529 6.561-.485 3.62-1.341 7.253-1.349 7.291a.676.676 0 0 1-.825.509.686.686 0 0 1-.509-.826c.006-.025.422-1.8.834-4.08a14.475 14.475 0 0 0-1.678 6.3 4.115 4.115 0 0 1 .283 7.4 48.513 48.513 0 0 0 13.432 8.957 4.9 4.9 0 0 1 2.978-4.42 5.35 5.35 0 0 1 2.2-.482 4.549 4.549 0 0 1 3.26 1.32c.015-.012.012-.035.027-.046a16.8 16.8 0 0 0 6.027-8.622Z"/><path class="cls-2" d="M200.593 375.759a3.284 3.284 0 0 0-1.958 4.173 2.753 2.753 0 0 0 1.767 1.484 3.516 3.516 0 0 0 1.022.15 3.957 3.957 0 0 0 1.642-.366 3.791 3.791 0 0 0 1.915-1.865 2.763 2.763 0 0 0 .044-2.307 3.284 3.284 0 0 0-4.432-1.269Z"/><path class="cls-4" d="M197.4 380.526c-.01 0-.018.006-.028 0-.293-.1-7.219-2.5-15.277-10.088a3.926 3.926 0 0 1-.436.045 4.142 4.142 0 0 1-4.138-4.138 3.994 3.994 0 0 1 .064-.634 66.822 66.822 0 0 1-3.79-4.862c-.128.184-.291.39-.408.565a6.053 6.053 0 0 1-3.373 2.548c7.7 12.534 22.3 20.707 24.074 21.666a8.478 8.478 0 0 0 5.457-3.092 4.038 4.038 0 0 1-2.145-2.01Z"/><path class="cls-2" d="M210.315 346.6a15.755 15.755 0 0 0-11.368-4.545 25.371 25.371 0 0 0-11.344 3.237c-.018.582-.046.966-.053 1.047a.684.684 0 0 1-.055.212c-1.585 3.649-3.374 5.818-5.315 6.465a18.118 18.118 0 0 0-2.4 9.669 4.078 4.078 0 0 1 1.881-.474c.108 0 .209.024.315.033.356-8.166 8.191-16.351 16.338-16.793.26-.014.52-.02.777-.02a13.361 13.361 0 0 1 10.688 5.318 18.525 18.525 0 0 1 3.073 16.326 18.193 18.193 0 0 1-6.522 9.331c-.025.019-.056.007-.083.022.006.013.019.023.025.036a3.965 3.965 0 0 1 .344 1.793c6.137-3.447 9.407-9.4 9.4-17.355a20.1 20.1 0 0 0-5.701-14.302Zm16.385-14.232a3.415 3.415 0 1 0-3.414-3.416 3.42 3.42 0 0 0 3.414 3.416Z"/><path class="cls-4" d="M226.016 318.619c-.072.708-.186 1.412-.3 2.12a18.936 18.936 0 0 0-.343 3.641 4.569 4.569 0 0 1 4.195.768 10.6 10.6 0 0 0 1.017-2.933c.062-.366.106-.736.15-1.1a12.761 12.761 0 0 1 .4-2.206 8.214 8.214 0 0 1 2.473-3.688 8.875 8.875 0 0 0-1.34.232.7.7 0 0 1-.594-.127.684.684 0 0 1-.261-.547 6.029 6.029 0 0 0-2.939-5.093 9.137 9.137 0 0 1-.9 3.962.685.685 0 0 1-1.023.252 4.607 4.607 0 0 0-1.464-.711 9.11 9.11 0 0 1 .929 5.43Z"/><path class="cls-2" d="M217.248 363.5a22.053 22.053 0 0 1-2.048 7.654c14.221-12.966 12.576-33.453 12.092-37.476a4.112 4.112 0 0 1-2.671-.436c.2 4.343.15 18.056-7.236 30.158-.032.051-.095.06-.137.1Z"/><path class="cls-4" d="M249.333 415.684c-5.979 15.293-22.134 15.766-25.578 15.689a35.666 35.666 0 0 1-.009 5.748 6.194 6.194 0 0 0 1.9-.5.691.691 0 0 1 .733.067c3.4 2.63 8.993.245 9.049.22a.7.7 0 0 1 .518-.011c4.164 1.6 8.029-1.876 8.067-1.911a.687.687 0 0 1 .528-.179c2.592.241 4.571-.283 5.883-1.568 2.062-2.019 1.853-5.3 1.851-5.334a.691.691 0 0 1 .4-.676c.192-.087 4.68-2.193 3-6.363a.688.688 0 0 1 .135-.725c.2-.214 4.834-5.318.942-11.362a.681.681 0 0 1-.105-.292c0-.038-.446-3.7-2.591-5.124a3.869 3.869 0 0 0-3.373-.342.7.7 0 0 1-.355.007 4.5 4.5 0 0 0-3.056.37 2.717 2.717 0 0 0-1.155 1.908.691.691 0 0 1-.435.518c-.053.02-5.331 2.032-5.845 6.319a.685.685 0 0 1-.47.569c-.182.061-4.454 1.49-4.535 5.368a.686.686 0 0 1-.656.669c-.091 0-9.038.451-9.61 5.129a.685.685 0 0 1-1.023.511c.022.025-.129.038-.376.092.132 1.454.253 2.818.355 4.026a29.979 29.979 0 0 0 25.811-12.823ZM105.684 287.44a26.322 26.322 0 0 0 .937 10.658c3.869-3.293 11.352-5.4 13.744-6.015-.56-2.1-.542-6.557-.49-8.835a43.416 43.416 0 0 0-14.191 4.192Z"/><path class="cls-2" d="M235.713 438.274c-1.006.395-4.67 1.622-7.949.609 6.66 7.119 21.569 11.181 21.569 11.181-17.083-1.649-23.4-9.345-24.926-11.638a5.979 5.979 0 0 1-.806.085c-.013.094-.018.19-.03.282.008.046.048.078.047.126-.289 7.81 4.276 8.719 4.471 8.752a.7.7 0 0 1 .506.388 9.023 9.023 0 0 0 6.181 4.857.687.687 0 0 1 .477.328 4.938 4.938 0 0 0 4.514 2.434.7.7 0 0 1 .541.194c3.11 3.054 7.931.738 7.978.709a.666.666 0 0 1 .578-.011 6.478 6.478 0 0 0 7.208-1.321.694.694 0 0 1 .42-.21c2.564-.3 4.329-1.153 5.246-2.54a5.042 5.042 0 0 0 .573-3.842.7.7 0 0 1 .038-.489 4.5 4.5 0 0 0-.021-3.507c-.734-1.57-2.509-2.737-5.275-3.464a.7.7 0 0 1-.365-.239c-.073-.091-1.949-2.3-6.767-1.274a.68.68 0 0 1-.456-.058 19.437 19.437 0 0 0-7.252-1.877 8.54 8.54 0 0 1-6.5.525Z"/><path class="cls-5" d="M147.261 388.368c1.568 2.765 3.918 2.232 4.026 2.208 4.511-2.534 5.673-8.118 5.684-8.174a.686.686 0 0 1 .671-.551.69.69 0 0 1 .674.817 15.62 15.62 0 0 1-2.055 4.87c-.254 3.4-.915 9.034-1.346 10.123-.08.2-.2.44-.336.708a4.421 4.421 0 0 0-.645 3.442c.108.348.246.39.291.4.374.107 1.151-.3 1.627-.665a46.525 46.525 0 0 0 4.4-8.4c.315-2.663.965-8.216.965-9.276a10.638 10.638 0 0 1 .964-3.109 23.168 23.168 0 0 0 1.851-6.428c.035-.477.062-.961.089-1.454a23.907 23.907 0 0 1 2.03-9.587c0-.053-.029-.1-.012-.153.029-.094.114-.137.174-.207.278-.552.589-1.11.948-1.678-.29-1.4-2.1-8.033-10.413-8.283-.492 1.365-1.9 5.012-3.311 6.188-1.636 1.365-5.278 4.4-6.662 12.393a.662.662 0 0 1-.074.211c-.226.416-5.358 9.734-10.084 12.719a3.123 3.123 0 0 0 2.688.734c2.032-.235 5.177-3.927 6.688-5.7.47-.553.826-.963 1.009-1.128a.685.685 0 1 1 .918 1.017c-.162.148-.469.513-.883 1a31.039 31.039 0 0 1-5.078 5.033c0 .013.014.019.015.033a2.569 2.569 0 0 0 .909 1.834 3.541 3.541 0 0 0 3.1.062c3.521-1.115 6.175-7.279 6.2-7.342a.687.687 0 0 1 .632-.417.7.7 0 0 1 .267.054.686.686 0 0 1 .363.9c-.108.259-2.581 6.006-6.284 7.806Z"/><path class="cls-5" d="M150.548 411.4a6.075 6.075 0 0 1 2.039.354 9.386 9.386 0 0 1 5.552 5.889 6.62 6.62 0 0 1 8.29 2.734 12.621 12.621 0 0 1 1.023 2.44c.141.42.282.841.449 1.249a10.364 10.364 0 0 0 5.2 5.444c.016.007.018.027.033.036 14.223-3.6 20.3-11.985 27.166-21.542-.727-1.714-4.512-10-11.638-15.072l-26.55-4c-.251 2.225-.512 4.349-.533 4.52-1.132 3.58-4.5 8.732-4.646 8.95a.752.752 0 0 1-.136.152c-.277.227-1.722 1.354-2.966.984a1.817 1.817 0 0 1-1.211-1.307 5.706 5.706 0 0 1 .734-4.478c.113-.221.214-.417.281-.587a58.5 58.5 0 0 0 1.073-7.624 11.913 11.913 0 0 1-2.915 2.3 4.9 4.9 0 0 1-4.287-.978 10.76 10.76 0 0 0-4.4 6.218c3.825 4.345 6.083 12.3 6.63 14.407a5.877 5.877 0 0 1 .812-.089Zm18.978-.665a2.6 2.6 0 1 1 3.791.573 2.715 2.715 0 0 1-3.791-.578Zm1.644 7.723a.685.685 0 1 1-.394-1.312c7.581-2.277 7.982-6.271 7.985-6.311a.685.685 0 0 1 .683-.631.487.487 0 0 1 .054 0 .685.685 0 0 1 .63.736c-.017.2-.488 4.97-8.958 7.513Zm22.814-18.058a.686.686 0 0 1 .638-.435.705.705 0 0 1 .25.047.685.685 0 0 1 .388.888 8.243 8.243 0 0 1-6.964 5.555.666.666 0 0 1-.711-.654.688.688 0 0 1 .653-.716 6.894 6.894 0 0 0 5.746-4.685Zm-9.556-3.727a2.832 2.832 0 1 1-.254 3.825 2.713 2.713 0 0 1 .254-3.829Zm-15.936-1.214a13.8 13.8 0 0 1 2.939-1.825 2.48 2.48 0 0 1 1.067-.243 2.393 2.393 0 0 1 1.7.7 57.024 57.024 0 0 1 6.367 8.772.685.685 0 1 1-1.178.7c-.034-.057-3.445-5.771-6.162-8.5a1.046 1.046 0 0 0-1.2-.188 12.429 12.429 0 0 0-2.628 1.62.685.685 0 0 1-.9-1.031Z"/><path class="cls-2" d="M181.662 369.115a2.769 2.769 0 1 0-2.768-2.768 2.771 2.771 0 0 0 2.768 2.768Zm-60.413-86.498c-.113 3.949.069 8.812.588 9.553a2.647 2.647 0 0 0 2.095.665 6.843 6.843 0 0 0 1.111-.087c3.716-1.056 11.408-1.49 15.657-1.653a1.807 1.807 0 0 0 1.8-1.689c.251-6.215.135-8.968-.058-9.475a1.193 1.193 0 0 0-1.332-.754c-.227.014-14.368.543-17.063 1.053a3.467 3.467 0 0 0-2.798 2.387Zm3.781 1.1a.7.7 0 0 1 .029-.17 2.6 2.6 0 0 1 2.223-1.6c1.411-.208 8.326-.4 8.619-.413a1.247 1.247 0 0 1 .195-.014 1.627 1.627 0 0 1 1.48.85c.106.217.3.614.122 4.1a1.8 1.8 0 0 1-1.893 1.552 56.473 56.473 0 0 0-7.653.619c-.477.068-1.92.211-2.6-.541-.552-.615-.591-2.723-.522-4.385Z"/><path class="cls-4" d="M127.911 287.291a55.071 55.071 0 0 1 7.854-.64c.363-.009.561-.192.564-.255a15.321 15.321 0 0 0 0-3.451c-.022-.038-.229-.055-.33-.047-2.523.074-7.456.248-8.523.4a1.383 1.383 0 0 0-1.085.6 11.607 11.607 0 0 0 .2 3.317 2.9 2.9 0 0 0 1.32.076Z"/><path class="cls-2" d="M153.144 251.3c-.036.075-.044.162-.1.22 0 0 0 .009-.006.013-10.519 9.626-17.348 23.423-18.829 26.582 2.89-.142 5.45-.243 6.387-.279a25.608 25.608 0 0 1 3.684-5.434c7.314-8.287 15.739-15 24.455-21.7a.669.669 0 0 1 .105-.22v-.01c10.52-9.629 17.348-23.424 18.829-26.583-2.89.142-5.45.244-6.387.279a25.644 25.644 0 0 1-3.682 5.432c-7.323 8.292-15.743 15-24.456 21.7Z"/><path class="cls-6" d="m180.134 353.072-.04.046c-1.672 1.924-3.806 4.391-5.452 6.565a64.447 64.447 0 0 0 3.491 4.533 4.043 4.043 0 0 1 .375-.516c-.007-.026-.034-.038-.037-.064a19.481 19.481 0 0 1 2.092-10.474 3.135 3.135 0 0 1-.429-.09Zm-37.464-61.349a3.26 3.26 0 0 1-1.918.741c-.617.024-1.434.062-2.321.106a156.722 156.722 0 0 0-.953 22.037 103.64 103.64 0 0 1 18.051 23.3c.216-.891.393-1.7.493-2.306a.685.685 0 0 1-.387-.212c-2.881-3.252-.276-7.757 1.5-9.684a.677.677 0 0 1 .222-.161 28.794 28.794 0 0 1 3.536-1.281 105.97 105.97 0 0 1 13.851-15.042A46.974 46.974 0 0 1 176 297.868c-4.091-1.828-15.076-5.826-33.33-6.145Z"/><path class="cls-2" d="M181.743 351.721c1.062-.352 2.692-1.615 4.449-5.613.082-1.245.646-13.073-6.548-22.447-2.016-.1-13.593-.466-21.585 3.074-.568.663-3.627 4.462-1.734 7.311 9.846-5.473 21.5-3.615 22-3.532a.684.684 0 0 1 .521.415c5.138 12.484 3.256 18.766 2.189 20.915a2.292 2.292 0 0 0 .708-.123Zm-68.159-87.39a55.449 55.449 0 0 1 10.695 14.477c.969-.135 2.569-.268 4.423-.389-.926-3.2-5.092-15.55-16.049-23.483a17.626 17.626 0 0 0-14.953-2.565c-6.1 1.691-13.955 4.613-17.4 9.042l4.282 3.7a45.2 45.2 0 0 1 7.5-4.325 19.338 19.338 0 0 1 21.502 3.543Z"/><path class="cls-4" d="M130.1 278.33c.84-.049 1.7-.1 2.559-.141.282-.635 7.042-15.629 18.212-26.481h-41.416a17.944 17.944 0 0 1 4 2.118c11.67 8.449 15.868 21.707 16.645 24.504Z"/><path class="cls-6" d="M105.993 285.682c.019.014.016.039.033.053a44.949 44.949 0 0 1 14.066-3.905 4.767 4.767 0 0 1 2.8-2.686 54.023 54.023 0 0 0-10.256-13.823 17.989 17.989 0 0 0-19.983-3.292 45.173 45.173 0 0 0-5.787 3.185c7.146 11.862 19.007 20.386 19.127 20.468Z"/><path class="cls-2" d="M63.981 330.394a3.039 3.039 0 1 0 3.038 3.038 3.042 3.042 0 0 0-3.038-3.038Zm36.032-47.817a90.388 90.388 0 0 1-3.947-3.7l-6.851 7.282a272.634 272.634 0 0 0 7.2 5.046Zm-25.961 32.036-7.691 5.744-.838 8.96a4.4 4.4 0 0 1 1.433.883l8.023-5.348 1.445-8.409a2.264 2.264 0 0 0-2.372-1.83Zm-7.694 79.822c22.585 7.436 36.98-2.042 38.974-3.479a10.7 10.7 0 0 0-.418-1.143c-.06-.132-.129-.256-.19-.386a39.16 39.16 0 0 1-34.774 3.137.686.686 0 0 1-.434-.683c.027-.413.681-9.909 4.276-16.273l-2.446-.369a31.591 31.591 0 0 0-4.988 19.196Z"/><path class="cls-5" d="M106.431 383.274a.691.691 0 0 1 .94.237 25.838 25.838 0 0 1 2.936 6.293 18.452 18.452 0 0 1 4.336 4.328c.461.605.886 1.209 1.278 1.765a12.571 12.571 0 0 0 1.72 2.161 1.913 1.913 0 0 0 .14-.323c.73-2.135-.221-7.333-5.878-12.205a.686.686 0 0 1 .894-1.04 23.434 23.434 0 0 1 2.524 2.554 16.023 16.023 0 0 1 .847-5.047l-16.091-2.426a8.633 8.633 0 0 0 2.373 3.833 22.916 22.916 0 0 1 3.713 5.845 10.453 10.453 0 0 1 .969 3.574l.018.287a2.948 2.948 0 0 0 .6 2.042c.148.147.536.464.91.265.5-.278.8-1.865.706-2.971-.127-1.451-.3-3.436-3.173-8.23a.687.687 0 0 1 .238-.942Z"/><path class="cls-4" d="M93.958 388.316a79.132 79.132 0 0 1 8.7-2.442 17.352 17.352 0 0 0-1.224-1.551 9.626 9.626 0 0 1-2.822-4.973l-23.369-3.523c-3.2 5.285-4.129 13.541-4.319 15.644a37.741 37.741 0 0 0 33.184-3.279c-.2-.378-.422-.739-.64-1.1a82.961 82.961 0 0 0-9.022 2.5.685.685 0 0 1-.488-1.281Z"/><path class="cls-5" d="M125.066 390.73c1.592-.888 3.609-4.426 3.657-6.416.013-.613-.032-1.044-.3-1.3-.178-.174-.5-.364-1.287-.119a5.024 5.024 0 0 0-.889 1.136c-.927 1.386-2.293 3.387-4.742 3.469 0 .319.008.635.012.926a23.337 23.337 0 0 1-.052 2.711 6.752 6.752 0 0 0 3.601-.407Z"/><path class="cls-6" d="M68.432 411.758a4.317 4.317 0 0 0 2.337.928c26.058 2.178 42.512-7.308 51.354-12.4 2.706-1.56 4.661-2.686 6.045-2.983 5.653-1.216 7.47-.721 7.659-.656a33.972 33.972 0 0 0 5.284 1.287l.685-.418c-.036-.1-.106-.181-.1-.285.017-.17.5-4.039 4.872-7.359a7.478 7.478 0 0 1-.652-1.055 4.449 4.449 0 0 1-3.742-.4 3.668 3.668 0 0 1-1.382-2.228 4.473 4.473 0 0 1-5.513-1.309l-5.191-.781v.249c-.058 2.441-2.381 6.481-4.359 7.581a8.3 8.3 0 0 1-4.75.532 2.9 2.9 0 0 1-2.065 1 8.422 8.422 0 0 1 .16 4.718c-.1.292-.4 1.175-1.209 1.292-1.009.138-1.831-1.022-3.069-2.783-.382-.544-.8-1.133-1.247-1.724a21.443 21.443 0 0 0-2.866-3.13c.012.122.025.246.034.357.09 1 0 3.652-1.392 4.424a2.079 2.079 0 0 1-2.546-.493 4.118 4.118 0 0 1-1-2.927l-.018-.277c-.011-.168-.067-.353-.092-.527a35.317 35.317 0 0 1-7.935 3.823c-.016.015-.013.039-.03.053-.342.27-8.467 6.646-14.867 8.41A.678.678 0 0 1 82 404.2a.686.686 0 0 1 .478-.844c3.87-1.067 8.542-4.007 11.489-6.052-6.981 1.717-16.636 2.276-28.454-1.7a.684.684 0 0 1-.458-.54c-.063-.393-1.388-9.265 4.353-19.255-5.4 3.539-9.511 9.5-11.9 17.388a4.116 4.116 0 0 0-.162 1.786c1.171 8.122 8.143 14.437 11.086 16.775Z"/><path class="cls-6" d="m125.06 383.337-.694-.1c-.328 1.063-1.823 1.283-2.676 1.315a8.392 8.392 0 0 0-.168 1.591c1.692-.091 2.711-1.57 3.538-2.806Z"/><path class="cls-2" d="M106.6 302.852c.126-.779.252-1.558.392-2.351-.337-.181-.668-.371-1.008-.548-.018-.009-.019-.032-.035-.042a.658.658 0 0 1-.292-.33 22.048 22.048 0 0 1-.565-1.847c-5.322-1.591-24.123-15.951-27.8-18.786L60.31 305.432c7.2 5.306 5.159 11.6 5.137 11.664a.685.685 0 0 1-1.3-.44 6.11 6.11 0 0 0 .238-1.649 2.165 2.165 0 0 0-1.845.23 1.791 1.791 0 0 0-.61 1.069 2.824 2.824 0 0 0 .475 2.411A3.667 3.667 0 0 0 65.017 320l.008-.076a.684.684 0 0 1 .272-.485l3.468-2.591c0-.072-.035-.14-.009-.213a6.088 6.088 0 0 0 .366-1.519 10.146 10.146 0 0 0-1.961-6.588 10.907 10.907 0 0 0-2.49-2.483.685.685 0 0 1-.162-.948l3.394-4.892 3.4-4.9 6.77-9.762a.679.679 0 0 1 .484-.29.425.425 0 0 1 .079 0 .689.689 0 0 1 .459.177c13.888 12.523 27.3 17.309 27.434 17.355.03.015.039.051.071.067Z"/><path class="cls-2" d="M74.6 313.272a3.6 3.6 0 0 1 2.929 2.117c13.107-8.326 14.76-18.075 14.775-18.175a.636.636 0 0 1 .045-.122 99.368 99.368 0 0 1-5.8-3.883A30.584 30.584 0 0 0 74.6 313.272Z"/><path class="cls-6" d="M115.208 369.416a13.956 13.956 0 0 1 8.734 2.846 16.132 16.132 0 0 1 5.588-1.255 4.155 4.155 0 0 1 1.572.248 2.639 2.639 0 0 1 1.47 3.4c-.632 1.581-2.48 2.418-3.911 2.848l10.757 1.621c-2.1-4-16.94-33.487-16.58-67.773a94.829 94.829 0 0 0-14.573-10.156c-7.26 41.892 3.537 65.2 5 68.1 1.035.098 1.928.121 1.943.121Z"/><path class="cls-4" d="M96.619 372.352a3.749 3.749 0 0 1 1.137-1.829 42.727 42.727 0 0 0-14.68.107l13.589 2.049a.644.644 0 0 1-.046-.327Z"/><path class="cls-2" d="M116.942 380.727a4.112 4.112 0 0 1 2.477-1.522c.168-.006.33-.009.489-.009a4.964 4.964 0 0 1 3.689 1.187 2.977 2.977 0 0 1 .755 1.461l1.643.247a1.8 1.8 0 0 1 .723-.5 3.547 3.547 0 0 1 1.07-.181 2.222 2.222 0 0 1 1.583.616 2.119 2.119 0 0 1 .453.645l5.777.87a14.262 14.262 0 0 0 3.549-3.068l-70.167-10.582c-1.344-.122-5.037-.035-5.549 1.876a.54.54 0 0 0 0 .532c.141.223.851.959 4.077 1.052a9.733 9.733 0 0 1 1.171.1Zm-50.023-7.837c-1.389.195-2.595-.211-2.692-.906s.951-1.417 2.34-1.611 2.6.211 2.694.906-.951 1.421-2.342 1.611Z"/><path class="cls-5" d="M126.677 376.551c1.072-.137 3.993-.83 4.612-2.378a1.288 1.288 0 0 0-.719-1.656c-1.432-.611-6.547.685-8.743 2.477a.686.686 0 0 1-.867-1.063 9.79 9.79 0 0 1 1.567-1 13.123 13.123 0 0 0-7.352-2.142 21.577 21.577 0 0 1-4.6-.573c-1.207-.375-7.923-1.042-11.145.762a2.8 2.8 0 0 0-1.485 1.716c-.017.072-.084.1-.12.163l28.311 4.268a.654.654 0 0 1 .541-.574Zm-6.067 6.989a.753.753 0 0 1 .631-.361 3.179 3.179 0 0 0 1.834-.364 1.848 1.848 0 0 0-.462-1.477 4.084 4.084 0 0 0-3.095-.765 3.052 3.052 0 0 0-2.044 1.827c-.727 1.486-.832 4.929-.811 6.349a16.757 16.757 0 0 1 1.81 3.353c.254.011 1.455.038 1.612-.932a19.409 19.409 0 0 0 .061-2.722 62.653 62.653 0 0 1-.007-1.73v-.006a7.758 7.758 0 0 1 .471-3.172Z"/><path class="cls-6" d="M183.511 456.891c-5.235-.68-10.077-2.454-15.113-4.305-2.143-.787-4.349-1.592-6.6-2.314l-2.47 6.823c.132.074.265.139.4.215 5.558 3.212 14.441 6.255 23.784 7.224Z"/><path d="M9.309 23.167h4.824v29.14a60.35 60.35 0 0 0 .2 6.465A10.716 10.716 0 0 0 16 63.547a9.869 9.869 0 0 0 4.036 3.215 12.635 12.635 0 0 0 5.48 1.3 10.806 10.806 0 0 0 4.594-1.018 10.213 10.213 0 0 0 3.676-2.822 11.519 11.519 0 0 0 2.165-4.364 36.047 36.047 0 0 0 .493-7.548V23.167h4.824v29.14a35.493 35.493 0 0 1-1.264 10.452 14.211 14.211 0 0 1-5.053 6.94 14.473 14.473 0 0 1-9.172 2.954 17.577 17.577 0 0 1-10.009-2.789 13.435 13.435 0 0 1-5.57-7.384q-.887-2.822-.886-10.173Zm303.257 455.666h-4.824v-29.14a60.35 60.35 0 0 0-.2-6.465 10.715 10.715 0 0 0-1.673-4.775 9.879 9.879 0 0 0-4.037-3.215 12.635 12.635 0 0 0-5.48-1.3 10.806 10.806 0 0 0-4.594 1.018 10.224 10.224 0 0 0-3.676 2.822 11.519 11.519 0 0 0-2.165 4.364 36.119 36.119 0 0 0-.493 7.548v29.14H280.6v-29.14a35.5 35.5 0 0 1 1.263-10.452 14.207 14.207 0 0 1 5.054-6.94 14.469 14.469 0 0 1 9.172-2.954 17.576 17.576 0 0 1 10.008 2.789 13.435 13.435 0 0 1 5.579 7.384q.887 2.822.886 10.173Z"/><path class="cls-6" d="M64.985 233.378c3.335 9.309-2.347 21.231-2.347 21.231-3.216 1.287-5.83-3.766-5.83-3.766 8.821-8.177 3.654-16.9 3.654-16.9Z"/><path class="cls-6" d="M94.565 206.064a31.037 31.037 0 0 0-7.48-6.108c-5.662-3.269-16.481-10.59-23.68-22.259-7.2 11.669-18.018 18.99-23.681 22.259a31.057 31.057 0 0 0-7.48 6.108c-8.04 8.9-8.04 23.472 0 32.391a19.355 19.355 0 0 0 29.251 0l1.91-2.115 1.91 2.115a19.354 19.354 0 0 0 29.25 0c8.041-8.919 8.041-23.487 0-32.391Z"/><path class="cls-7" d="M63.405 236.34V177.7c7.2 11.669 18.018 18.99 23.68 22.259a31.033 31.033 0 0 1 7.48 6.108c8.041 8.9 8.041 23.473 0 32.391a19.354 19.354 0 0 1-29.25 0Zm-.496 16.776s.572-3.45-3.388-3.366a3.507 3.507 0 0 0-3.206 1.83 3.381 3.381 0 0 0 .059 2.45 23.4 23.4 0 0 0 .975 2.694c1.034 2.411.173 3.788.173 3.788s5.158-2.996 5.387-7.396Z"/><path d="M193.723 213.359a56.33 56.33 0 0 1-7.653.618 1.8 1.8 0 0 0-1.893 1.553c-.182 3.485.016 3.882.122 4.1a1.625 1.625 0 0 0 1.48.85 1.256 1.256 0 0 0 .195-.013c.293-.009 7.207-.205 8.619-.413a2.6 2.6 0 0 0 2.223-1.6.7.7 0 0 0 .029-.17c.068-1.662.033-3.77-.525-4.384-.677-.752-2.12-.61-2.597-.541Zm1.757 4.739a1.384 1.384 0 0 1-1.086.6c-1.066.156-6 .33-8.522.4-.1.008-.309-.009-.33-.047a15.245 15.245 0 0 1 0-3.451c0-.063.2-.246.565-.255a55.043 55.043 0 0 0 7.853-.64 2.885 2.885 0 0 1 1.312.074 11.59 11.59 0 0 1 .208 3.321ZM142.376 91.8a.515.515 0 0 0 .055 0 .686.686 0 0 0 .683-.631c0-.041.4-4.034 7.984-6.312a.684.684 0 1 0-.393-1.311c-8.47 2.543-8.942 7.312-8.958 7.515a.685.685 0 0 0 .629.739Zm-8.087 4.4a.664.664 0 0 0-.711-.653 8.242 8.242 0 0 0-6.963 5.555.685.685 0 0 0 .387.888.709.709 0 0 0 .251.046.686.686 0 0 0 .638-.435 6.894 6.894 0 0 1 5.746-4.684.687.687 0 0 0 .652-.717Zm14.269-5.5a2.832 2.832 0 1 0 3.79.573 2.715 2.715 0 0 0-3.79-.573Zm-14.648 10.231a2.832 2.832 0 1 0 3.79.572 2.716 2.716 0 0 0-3.79-.572Zm18.57 4.581a12.41 12.41 0 0 1-2.629 1.62 1.046 1.046 0 0 1-1.2-.188c-2.716-2.732-6.127-8.446-6.161-8.5a.685.685 0 0 0-1.178.7 57.024 57.024 0 0 0 6.367 8.772 2.393 2.393 0 0 0 1.7.7 2.48 2.48 0 0 0 1.067-.243 13.768 13.768 0 0 0 2.938-1.825.685.685 0 1 0-.9-1.031Zm100.134 25.207c.1.695 1.3 1.1 2.693.906s2.438-.915 2.341-1.611-1.3-1.1-2.693-.906-2.438.915-2.341 1.611Z"/><path d="M265.679 109.2a5.467 5.467 0 0 0 .208-2.38c-1.242-8.611-8.521-15.219-11.593-17.66a5.7 5.7 0 0 0-3.074-1.218c-26.48-2.22-43.181 7.411-52.153 12.582a27.4 27.4 0 0 1-5.648 2.834c-5.263 1.128-6.949.687-6.957.689a30.821 30.821 0 0 0-5.791-1.374.653.653 0 0 0-.418.1l-.985.6a24.936 24.936 0 0 1-2.805-4.776 7.179 7.179 0 0 0 .759.068 7.521 7.521 0 0 0 6.678-11.103 14.537 14.537 0 0 0-1.843-2.491 9.666 9.666 0 0 1-2-2.979 9.732 9.732 0 0 1-.39-2.068 13.659 13.659 0 0 0-.316-1.905 7.168 7.168 0 0 0-3.069-4.176 13.414 13.414 0 0 0-3.217-1.325 19.09 19.09 0 0 1-1.951-.685c-1.364-.59-2.675-1.771-2.706-3.128 10.277-2.48 19.466-6.677 25.195-15.178a.629.629 0 0 0 .277-.39 33.961 33.961 0 0 0 4.568-10.97.69.69 0 0 0-.266-.712.678.678 0 0 0-.759-.029c-.185.112-18.68 11.177-34.6 1.974-9.546-5.517-30.707-11.658-46.848-4.658C107.5 42.519 101.9 49.287 99.245 58.9c-1.034-4.246-3.846-5.512-4.862-5.83a10.318 10.318 0 0 0-6.742-5.27 6.311 6.311 0 0 0-5.324-2.853h-.008c-3.328-3.012-7.838-1.4-9.033-.89A7.925 7.925 0 0 0 65 45.626c-2.862.373-4.881 1.422-6 3.117a6.372 6.372 0 0 0-.806 4.736A5.814 5.814 0 0 0 58.3 57.9c.891 1.926 2.9 3.331 5.981 4.176.618.634 2.96 2.577 7.731 1.629a21.76 21.76 0 0 0 5.636 1.731c-.194.143-.355.27-.472.366-2.878-.219-5.125.453-6.687 1.988a8.579 8.579 0 0 0-2.262 5.936c-1.982 1.062-4.732 3.7-3.435 7.529-1.069 1.35-4.639 6.608-.9 12.576.118.812.757 4.334 3.168 5.943a4.721 4.721 0 0 0 2.68.8 6.406 6.406 0 0 0 1.67-.233 5.717 5.717 0 0 0 3.933-.584 3.941 3.941 0 0 0 1.685-2.438c1.279-.554 5.556-2.693 6.312-6.878 1.2-.486 4.609-2.18 5.036-5.863 2.132-.19 9.03-1.142 10.177-5.642.081-.008.192-.038.283-.054.118 1.276.243 2.606.382 4.018.14 1.442.343 2.8.538 4.105 1.087 7.271 1.873 12.524-10.582 20.573a.685.685 0 0 0 .215 1.243 31.8 31.8 0 0 0 6.429.6 34.021 34.021 0 0 0 5.936-.519c.018 0 .032.022.05.022.045 0 .081-.043.125-.052a24.455 24.455 0 0 0 15.456-9.172c.34-.445.66-.887.992-1.331a5.7 5.7 0 0 1 .7 2.011 10.069 10.069 0 0 1 .028 1.807 6.363 6.363 0 0 0 .6 3.657 7.155 7.155 0 0 0 4.093 3.386 6.386 6.386 0 0 0 1.932.3 7.868 7.868 0 0 0 2.657-.506 2.55 2.55 0 0 0-.741.816c-.606 1.076-.535 2.575.212 4.455a.684.684 0 0 0 .535.426l3.1.468c-.774.224-1.525.419-2.034.543a44.068 44.068 0 0 0-1.216-.678.7.7 0 0 0-.375-.074 9.894 9.894 0 0 0-6.975 4.1v.005a5.291 5.291 0 0 0-2.645.459 5.18 5.18 0 0 0-2.5 2.378c-.026.009-.053-.008-.079 0a19.7 19.7 0 0 0-6.818 5.372c-18.284 13.283-16.1 37.4-15.6 41.37a4.755 4.755 0 0 0-1.958 7.144 11.849 11.849 0 0 0-1.35 3.734c-.067.39-.113.783-.16 1.173a11.382 11.382 0 0 1-.35 1.972 7.961 7.961 0 0 1-3.536 4.154.685.685 0 0 0 .275 1.26 10.114 10.114 0 0 0 2.967-.062 7.343 7.343 0 0 0 4.8 6.017.7.7 0 0 0 .221.035.684.684 0 0 0 .679-.778 7.742 7.742 0 0 1 .4-3.663 5.992 5.992 0 0 0 3.24.687.685.685 0 0 0 .375-1.221c-1.772-1.4-1.781-4.116-1.628-5.608.069-.678.18-1.359.289-2.039a17.809 17.809 0 0 0 .32-4.46 4.75 4.75 0 0 0 .858-7.192 57.256 57.256 0 0 1 3.4-23.144c-1.963 10.079.477 22.535 1.854 27.247 1.854 6.342 2.8 10.485 2.815 10.536a76.065 76.065 0 0 0 6.591 18.188 9.6 9.6 0 0 0 12.114 4.322 76.077 76.077 0 0 0 20.279-12.961 43.864 43.864 0 0 1-1.13 9.528 11.344 11.344 0 0 1-.6-.317.688.688 0 0 0-.819.093 13.05 13.05 0 0 0-2.714 13.792c-3.289 1.485-12.477 5.79-18.393 10.024-.112-.292-.26-.571-.365-.867a.678.678 0 0 0-.827-.43 17.251 17.251 0 0 0-8.407 5.938 11.593 11.593 0 0 0-1 2.124.684.684 0 0 0 .084.62 73.675 73.675 0 0 0 14.686 15.826H103.74c-.043 0-.069.038-.11.046a19.32 19.32 0 0 0-6.3.664c-6.54 1.813-15.062 5.035-18.523 10.081a.684.684 0 0 0 .117.906l5.177 4.473a.687.687 0 0 0 .87.02c.009-.007.288-.22.755-.549A67.694 67.694 0 0 0 95.1 277.9l-7 7.447a453.677 453.677 0 0 1-10.558-7.937.687.687 0 0 0-.537-.134.694.694 0 0 0-.461.306L58.8 305.249a.684.684 0 0 0 .189.935c3.757 2.576 4.974 5.352 5.294 7.4a3.452 3.452 0 0 0-2.527.531 3.08 3.08 0 0 0-1.167 1.9 4.21 4.21 0 0 0 .728 3.545 4.982 4.982 0 0 0 3.569 1.812l-.717 7.677c-.065 0-.126-.019-.192-.019a4.409 4.409 0 1 0 4.409 4.409 4.354 4.354 0 0 0-.583-2.149l8.178-5.452a.685.685 0 0 0 .3-.455l1.463-8.515c12.748-7.885 15.387-16.977 15.83-19.011a76.783 76.783 0 0 0 12.5 6.232.63.63 0 0 0 .325-.019c-5.856 37.594 2.817 59.756 5.236 65a6.477 6.477 0 0 1-.655-.161c-1.282-.395-7.78-1.066-11.557.559a43.3 43.3 0 0 0-20.092.606l-10.18-1.535c-.249-.022-6.124-.533-6.982 2.739a1.8 1.8 0 0 0 .07 1.7c.638 1.1 2.349 1.669 5.231 1.754a9.054 9.054 0 0 1 .971.079c-5.568 3.728-9.795 9.889-12.241 17.989a5.474 5.474 0 0 0-.208 2.38c1.242 8.62 8.521 15.222 11.592 17.658a5.666 5.666 0 0 0 3.075 1.222c2.66.223 5.221.326 7.686.326 22.071 0 36.4-8.259 44.466-12.91a27.334 27.334 0 0 1 5.649-2.833c5.262-1.129 6.948-.69 6.957-.687a31.223 31.223 0 0 0 5.79 1.374.647.647 0 0 0 .419-.1l.984-.6a24.816 24.816 0 0 1 2.8 4.767 7.51 7.51 0 0 0-7.436 11.048 14.536 14.536 0 0 0 1.844 2.492 7.105 7.105 0 0 1 2.385 5.046 13.37 13.37 0 0 0 .316 1.9 7.151 7.151 0 0 0 3.068 4.174 13.5 13.5 0 0 0 3.221 1.33 19.692 19.692 0 0 1 1.948.682c1.364.589 2.676 1.771 2.706 3.128-10.273 2.48-19.461 6.675-25.19 15.17a.629.629 0 0 0-.283.4 33.979 33.979 0 0 0-4.567 10.971.685.685 0 0 0 1.025.74c.185-.111 18.661-11.174 34.6-1.976 6.494 3.75 18.359 7.79 30.364 7.79a41.438 41.438 0 0 0 16.486-3.13c8.486-3.679 14.085-10.446 16.739-20.06 1.035 4.245 3.846 5.511 4.862 5.832a10.314 10.314 0 0 0 6.743 5.273 6.309 6.309 0 0 0 5.323 2.854h.009a6.989 6.989 0 0 0 4.825 1.778 11.231 11.231 0 0 0 4.207-.888 7.929 7.929 0 0 0 8.281-1.575c2.862-.373 4.881-1.419 6-3.117a6.367 6.367 0 0 0 .807-4.736 5.808 5.808 0 0 0-.108-4.415c-.89-1.925-2.9-3.331-5.981-4.176-.619-.636-2.964-2.581-7.731-1.631a21.8 21.8 0 0 0-5.638-1.729c.2-.143.357-.271.474-.368 2.874.219 5.124-.45 6.686-1.985a8.571 8.571 0 0 0 2.262-5.937c1.983-1.064 4.733-3.7 3.436-7.529 1.069-1.35 4.64-6.61.9-12.578-.117-.812-.756-4.332-3.166-5.94a5.154 5.154 0 0 0-4.351-.569 5.715 5.715 0 0 0-3.932.584 3.943 3.943 0 0 0-1.686 2.441c-1.28.553-5.557 2.69-6.313 6.875-1.2.487-4.607 2.182-5.036 5.863-2.131.19-9.03 1.142-10.177 5.644-.08.008-.191.038-.283.054a688.798 688.798 0 0 0-.381-4.02c-.14-1.441-.344-2.8-.538-4.1-1.088-7.273-1.874-12.526 10.582-20.575a.685.685 0 0 0-.216-1.243 34.514 34.514 0 0 0-12.365-.082.559.559 0 0 0-.145.021 24.5 24.5 0 0 0-15.496 9.172c-.34.445-.661.887-.992 1.331a5.676 5.676 0 0 1-.7-2.011 9.955 9.955 0 0 1-.029-1.805 6.37 6.37 0 0 0-.6-3.659 7.153 7.153 0 0 0-4.093-3.384 6.981 6.981 0 0 0-4.58.2 2.558 2.558 0 0 0 .732-.812c.606-1.075.534-2.572-.213-4.453a.687.687 0 0 0-.534-.426l-3.1-.467c.774-.225 1.527-.42 2.036-.544.728.418 1.19.665 1.216.679a.705.705 0 0 0 .315.075h.061a9.9 9.9 0 0 0 6.974-4.1c.008-.013 0-.027.007-.039.149.013.289.056.439.056a5.365 5.365 0 0 0 2.2-.481 5.18 5.18 0 0 0 2.483-2.364.728.728 0 0 0 .095-.021 19.675 19.675 0 0 0 6.817-5.37c18.282-13.281 16.1-37.391 15.6-41.369a4.757 4.757 0 0 0 1.957-7.147 11.83 11.83 0 0 0 1.35-3.733c.067-.389.114-.781.161-1.174a11.41 11.41 0 0 1 .35-1.97 7.981 7.981 0 0 1 3.537-4.156.685.685 0 0 0-.278-1.26 9.955 9.955 0 0 0-2.966.062 7.339 7.339 0 0 0-4.8-6.016.675.675 0 0 0-.656.12.684.684 0 0 0-.244.62 7.765 7.765 0 0 1-.4 3.668 6.066 6.066 0 0 0-3.238-.69.686.686 0 0 0-.377 1.221c1.772 1.4 1.781 4.116 1.629 5.61-.07.681-.18 1.361-.29 2.042a17.85 17.85 0 0 0-.32 4.455 4.754 4.754 0 0 0-.858 7.194 57.124 57.124 0 0 1-3.4 23.15c1.966-10.078-.475-22.54-1.853-27.252-1.854-6.343-2.8-10.485-2.815-10.537a76.067 76.067 0 0 0-6.59-18.188 9.61 9.61 0 0 0-12.114-4.324 76.086 76.086 0 0 0-20.279 12.961 43.826 43.826 0 0 1 1.13-9.525c.384.193.587.308.6.317a.7.7 0 0 0 .347.094.688.688 0 0 0 .471-.188 13.047 13.047 0 0 0 2.715-13.792c3.29-1.486 12.479-5.791 18.393-10.025.113.293.26.57.365.866a.687.687 0 0 0 .646.455.627.627 0 0 0 .181-.025 17.257 17.257 0 0 0 8.407-5.936 11.643 11.643 0 0 0 1-2.124.685.685 0 0 0-.084-.62 73.679 73.679 0 0 0-14.687-15.826h22.518c.083 0 .138-.06.212-.087.343.018.682.078 1.028.078a19.374 19.374 0 0 0 5.166-.7c6.54-1.814 15.063-5.036 18.523-10.08a.683.683 0 0 0-.118-.905l-5.176-4.473a.682.682 0 0 0-.87-.02c-.009.006-.289.219-.756.547a67.756 67.756 0 0 0-9.37-11.916l7.006-7.444a455.34 455.34 0 0 1 10.557 7.935.684.684 0 0 0 .42.143.746.746 0 0 0 .116-.009.694.694 0 0 0 .461-.306l17.738-27.665a.684.684 0 0 0-.189-.935c-3.759-2.577-4.975-5.355-5.294-7.406a3.868 3.868 0 0 0 .591.064 3.37 3.37 0 0 0 1.935-.591 3.073 3.073 0 0 0 1.167-1.9 4.209 4.209 0 0 0-.728-3.545 4.974 4.974 0 0 0-3.569-1.809l.718-7.68c.065 0 .126.019.191.019a4.409 4.409 0 1 0-4.408-4.408 4.357 4.357 0 0 0 .583 2.149l-8.178 5.454a.68.68 0 0 0-.295.455l-1.464 8.513c-12.744 7.885-15.385 16.974-15.829 19.011a76.7 76.7 0 0 0-12.5-6.231.66.66 0 0 0-.324.019c5.856-37.6-2.82-59.764-5.238-65 .235.048.459.1.657.162a22.276 22.276 0 0 0 5.039.48 17.344 17.344 0 0 0 6.449-1.055 39.245 39.245 0 0 0 8.624.932 42.956 42.956 0 0 0 11.539-1.522l10.178 1.535c.062 0 .479.043 1.081.043 1.8 0 5.259-.328 5.9-2.782a1.793 1.793 0 0 0-.071-1.7c-.638-1.1-2.349-1.669-5.23-1.751a9.246 9.246 0 0 1-.968-.082c5.564-3.737 9.793-9.9 12.243-18Zm-96.988 13.131a.7.7 0 0 0 .267.054.685.685 0 0 0 .631-.417c.026-.063 2.681-6.227 6.2-7.342a3.539 3.539 0 0 1 3.1.062 2.577 2.577 0 0 1 .91 1.834c0 .013.014.02.015.032a31 31 0 0 0-5.078 5.034c-.414.487-.721.852-.883 1a.685.685 0 1 0 .918 1.017c.183-.165.538-.576 1.008-1.129 1.512-1.773 4.657-5.465 6.689-5.7a3.123 3.123 0 0 1 2.687.734c-4.725 2.985-9.857 12.3-10.083 12.718a.63.63 0 0 0-.074.212c-1.385 7.989-5.026 11.028-6.662 12.393-1.407 1.176-2.819 4.823-3.312 6.188-8.308-.249-10.122-6.886-10.412-8.283.359-.568.67-1.126.947-1.679.061-.069.145-.112.175-.206.017-.052-.016-.1-.012-.153a23.887 23.887 0 0 0 2.029-9.587c.028-.493.055-.977.089-1.454a23.135 23.135 0 0 1 1.852-6.428 10.679 10.679 0 0 0 .964-3.109c0-1.06.65-6.613.965-9.276a46.525 46.525 0 0 1 4.4-8.4c.476-.368 1.253-.772 1.627-.665.045.014.182.056.291.4a4.421 4.421 0 0 1-.646 3.442c-.136.268-.255.5-.336.707-.43 1.09-1.091 6.721-1.345 10.124a15.62 15.62 0 0 0-2.055 4.87.683.683 0 0 0 .539.8.681.681 0 0 0 .806-.537c.011-.056 1.173-5.64 5.684-8.174.108-.025 2.457-.557 4.026 2.208-3.7 1.8-6.176 7.547-6.286 7.806a.686.686 0 0 0 .365.908Zm48.487 93.236a.674.674 0 0 0 .311-.456 25.414 25.414 0 0 0-.334-9.276 52.127 52.127 0 0 1 7.145 4.181l-3.527 8.453a76.99 76.99 0 0 0-3.595-2.898Zm-19.345 6.2c-2.695.511-16.836 1.039-17.063 1.053a1.2 1.2 0 0 1-1.333-.754c-.192-.507-.309-3.26-.058-9.475a1.807 1.807 0 0 1 1.8-1.689c4.249-.163 11.94-.6 15.657-1.653a6.839 6.839 0 0 1 1.11-.087 2.65 2.65 0 0 1 2.1.665c.519.741.7 5.6.588 9.553a3.467 3.467 0 0 1-2.801 2.388Zm-28.992 28.7s0 .009-.006.014c-.061.056-.069.143-.1.219-8.713 6.692-17.133 13.4-24.456 21.7a25.671 25.671 0 0 0-3.683 5.433c-.937.036-3.5.137-6.387.28 1.481-3.159 8.309-16.954 18.829-26.583v-.01c.06-.057.068-.144.105-.22 8.716-6.7 17.141-13.414 24.455-21.7a25.639 25.639 0 0 0 3.684-5.433c.937-.036 3.5-.137 6.387-.279-1.48 3.159-8.309 16.956-18.828 26.582Zm-26.4 29.47c.193.5.309 3.253.059 9.47a1.811 1.811 0 0 1-1.8 1.691c-4.248.163-11.94.6-15.656 1.653-.645.112-2.621.257-3.206-.578-.52-.742-.7-5.606-.588-9.552a3.464 3.464 0 0 1 2.793-2.387c2.589-.493 15.7-1 16.936-1.05h.126a1.434 1.434 0 0 1 .2-.014 1.151 1.151 0 0 1 1.132.77Zm37.207 43.725c7.194 9.377 6.63 21.2 6.548 22.447-1.757 4-3.388 5.263-4.45 5.613a2.2 2.2 0 0 1-.71.123c1.067-2.146 2.95-8.428-2.19-20.912a.683.683 0 0 0-.521-.415 35.344 35.344 0 0 0-5.388-.371 34.713 34.713 0 0 0-16.608 3.9c-1.892-2.847 1.166-6.648 1.734-7.311 7.987-3.536 19.563-3.173 21.581-3.071Zm5.041 37.517a.663.663 0 0 0 .159.018.685.685 0 0 0 .666-.527c.009-.038.864-3.669 1.35-7.289 2.876-3.664 7.157-6.324 11.529-6.56A11.973 11.973 0 0 1 208.7 351.6a17.116 17.116 0 0 1 2.837 15.086 16.818 16.818 0 0 1-6.026 8.62c-.016.012-.014.035-.029.049a4.264 4.264 0 0 0-1.832-1.118 5.309 5.309 0 0 0-6.223 2.827 4.312 4.312 0 0 0-.387 1.867 48.5 48.5 0 0 1-13.427-8.955 4.113 4.113 0 0 0-.282-7.4 14.455 14.455 0 0 1 1.677-6.3 90.69 90.69 0 0 1-.835 4.079.686.686 0 0 0 .512.827Zm-.256 5.171a2.768 2.768 0 1 1-2.767-2.768 2.77 2.77 0 0 1 2.763 2.771Zm-5.958-2.713c0 .027.029.042.036.067a4.124 4.124 0 0 0-.374.515 65.448 65.448 0 0 1-3.491-4.535c1.648-2.175 3.785-4.644 5.458-6.57l.029-.033a3.007 3.007 0 0 0 .427.095 19.483 19.483 0 0 0-2.089 10.464Zm-10.541-.788c.2-.356.393-.711.628-1.072a.687.687 0 0 0 .1-.475 11.915 11.915 0 0 0-12.295-9.7.686.686 0 0 0-.649.464 35.36 35.36 0 0 1-.806 2.1c-1.1-.844-2.5-2.207-2.279-3.117a41.9 41.9 0 0 1 1.707-4.7c.337-.83.64-1.577.833-2.122a62.289 62.289 0 0 0 2.3-9.224c8.377-4.4 18.223-3.448 20.248-3.184 5.394 13.337 2.357 19.034 1.8 19.9-.014.014-.038.011-.052.027l-.41.47a97.34 97.34 0 0 0-6.818 8.444 4.59 4.59 0 0 1-4.311 2.192ZM183 387.088a3.755 3.755 0 0 1 .092 3.618l-20.829-3.141c.166-1.544.3-2.937.316-3.556Zm-20.089-4.416c.15-.415.332-.878.517-1.343 4.048-2.5 10.281 1.167 13.492 3.456Zm1.117-8.33a23.138 23.138 0 0 1-1.852 6.427 10.633 10.633 0 0 0-.963 3.108c0 1.059-.65 6.612-.966 9.276a46.4 46.4 0 0 1-4.4 8.4 2.6 2.6 0 0 1-1.626.665c-.045-.013-.182-.056-.292-.4a4.424 4.424 0 0 1 .646-3.44c.136-.268.256-.5.336-.707.431-1.092 1.091-6.724 1.346-10.125a15.565 15.565 0 0 0 2.054-4.869.684.684 0 0 0-.539-.8.677.677 0 0 0-.805.538 14.934 14.934 0 0 1-1.865 4.415.688.688 0 0 0-.136.2 10.738 10.738 0 0 1-3.689 3.561c-.1.033-2.44.592-4.021-2.212 3.7-1.8 6.176-7.546 6.287-7.805a.685.685 0 1 0-1.262-.535c-.026.062-2.681 6.226-6.2 7.339a3.526 3.526 0 0 1-3.1-.062 2.573 2.573 0 0 1-.909-1.832c0-.013-.015-.019-.016-.032a31.036 31.036 0 0 0 5.081-5.036c.412-.484.719-.85.881-1a.685.685 0 1 0-.918-1.018c-.184.165-.538.576-1.007 1.127-1.512 1.774-4.657 5.466-6.691 5.7a3.181 3.181 0 0 1-2.687-.732c4.726-2.987 9.857-12.3 10.084-12.718a.668.668 0 0 0 .074-.212c1.385-7.991 5.026-11.027 6.662-12.393 1.406-1.175 2.819-4.825 3.312-6.19 8.308.25 10.122 6.889 10.412 8.285-.36.569-.671 1.129-.949 1.681-.06.068-.144.112-.173.2-.017.053.016.1.012.153a23.876 23.876 0 0 0-2.03 9.587c-.026.494-.052.978-.087 1.456Zm-9.7-18.9a9.042 9.042 0 0 1-1.758 2.737 17.544 17.544 0 0 0-4.708 5.829c-1.776-3.874-7.313-17.242-9.518-37a135.773 135.773 0 0 1 14.141 20.252 29.6 29.6 0 0 0-1.194 3.454c-.467 1.954 1.957 3.946 3.046 4.73Zm-17.57-30.293c2.293 23.488 9.434 38.615 10.356 40.487a27.061 27.061 0 0 0-1.579 5.574 61.482 61.482 0 0 1-1.211 2.059c-2.169-4.208-11.83-24.525-13.659-54.691a129.85 129.85 0 0 1 6.102 6.573Zm-7.57-8.037c1.7 33.432 13.115 55.324 14.293 57.5a56.33 56.33 0 0 1-2.8 3.994c-1.741-3.284-16.5-32.181-16.483-66.081a114.417 114.417 0 0 1 5.002 4.589Zm24.692 26.658a50.131 50.131 0 0 1-.731 1.867 141.969 141.969 0 0 0-15.231-21.243.576.576 0 0 0-.123-.141 126.23 126.23 0 0 0-13.759-13.682.625.625 0 0 0-.115-.1 95.331 95.331 0 0 0-16.462-11.271 14.785 14.785 0 0 1 2.2-1.545c29.461 12.157 44.016 39.566 45.368 42.221-.441 1.636-.9 3.196-1.147 3.894Zm-49.18-57.337a.684.684 0 0 0-.311.456 25.409 25.409 0 0 0 .334 9.275 52.262 52.262 0 0 1-7.145-4.182l3.527-8.45a71.401 71.401 0 0 0 3.595 2.901Zm19.823 17.661c.257-3.42.68-6.811 1.252-10.1a34.313 34.313 0 0 1 3.915-.689 170.194 170.194 0 0 0-.676 14.006q-2.16-1.65-4.494-3.217Zm-1.292-.859a81.682 81.682 0 0 0-12.029-6.4 54.264 54.264 0 0 1 9.887-3.51 4.259 4.259 0 0 0 2.828.892c.156 0 .3-.006.44-.013a104.851 104.851 0 0 0-1.129 9.031Zm-2.863-11.146c-2.392.613-9.876 2.722-13.745 6.015a26.31 26.31 0 0 1-.935-10.657 43.257 43.257 0 0 1 14.19-4.192c-.055 2.277-.078 6.733.487 8.834Zm9.992 16.257c.009-5.044.248-10.158.715-15.214 2.015-.216 4.125-.37 5.975-.478a158.11 158.11 0 0 0-.954 20.64 96.551 96.551 0 0 0-5.739-4.948Zm70.45-99.667a4.6 4.6 0 0 0-3.288-.87c.5-2.956.877-5.984 1.128-9.041a81.788 81.788 0 0 0 12.03 6.4 54.182 54.182 0 0 1-9.873 3.511Zm-4.7-.666a34.276 34.276 0 0 1-3.916.69c.424-4.663.64-9.361.677-14.008q2.157 1.649 4.491 3.215a105.986 105.986 0 0 1-1.262 10.103Zm-5.3.859c-2.015.216-4.125.37-5.974.479a158.163 158.163 0 0 0 .953-20.642 95.605 95.605 0 0 0 5.737 4.948 171.352 171.352 0 0 1-.726 15.215Zm10.708 1.043c2.392-.612 9.875-2.722 13.744-6.014a26.3 26.3 0 0 1 .936 10.656A43.354 43.354 0 0 1 202 218.749c.052-2.277.07-6.733-.49-8.834Zm12.906-7.111a14.811 14.811 0 0 1-2.195 1.544c-29.465-12.155-44.021-39.571-45.371-42.223.439-1.636.9-3.2 1.145-3.893.171-.484.438-1.144.731-1.867a141.822 141.822 0 0 0 15.21 21.22.6.6 0 0 0 .132.151 126.174 126.174 0 0 0 13.77 13.7.554.554 0 0 0 .118.1 95.292 95.292 0 0 0 16.452 11.264Zm-72.185-24.467c-7.194-9.374-6.63-21.2-6.548-22.447 1.757-4 3.387-5.261 4.449-5.613a2.288 2.288 0 0 1 .711-.123c-1.067 2.149-2.95 8.431 2.189 20.915a.685.685 0 0 0 .521.415c.5.082 12.151 1.941 22-3.532 1.892 2.849-1.167 6.648-1.734 7.311-8.003 3.537-19.581 3.17-21.596 3.074Zm-5.042-37.517a.676.676 0 0 0-.825.509c-.008.038-.864 3.671-1.35 7.29-2.876 3.666-7.156 6.324-11.528 6.561a11.957 11.957 0 0 1-10.314-4.776 17.115 17.115 0 0 1-2.837-15.085 16.8 16.8 0 0 1 6.025-8.622c.016-.012.013-.034.028-.046a4.546 4.546 0 0 0 3.26 1.319 5.368 5.368 0 0 0 2.2-.481 4.9 4.9 0 0 0 2.978-4.42 48.513 48.513 0 0 1 13.432 8.957 4.115 4.115 0 0 0 .282 7.4 14.461 14.461 0 0 1-1.677 6.3c.412-2.278.828-4.056.834-4.08a.686.686 0 0 0-.516-.826Zm.257-5.169a2.767 2.767 0 1 1 2.767 2.769 2.771 2.771 0 0 1-2.775-2.769Zm5.958 2.711c0-.026-.03-.038-.037-.064a4.043 4.043 0 0 0 .375-.516 65.674 65.674 0 0 1 3.491 4.533c-1.646 2.174-3.78 4.641-5.452 6.565l-.04.046a3.135 3.135 0 0 0-.429-.09 19.482 19.482 0 0 0 2.08-10.474Zm10.542.788c-.2.357-.394.713-.629 1.075a.681.681 0 0 0-.1.475 11.917 11.917 0 0 0 12.3 9.7.682.682 0 0 0 .649-.464 35.63 35.63 0 0 1 .806-2.1c1.1.843 2.5 2.206 2.278 3.116a41.45 41.45 0 0 1-1.706 4.694c-.337.83-.64 1.577-.833 2.122A62.258 62.258 0 0 0 164.4 167c-8.376 4.411-18.224 3.453-20.247 3.186-5.395-13.338-2.357-19.037-1.8-19.9.014-.014.038-.009.052-.024l.416-.478a97.231 97.231 0 0 0 6.812-8.439 4.585 4.585 0 0 1 4.313-2.195Zm23.6-10.417c2.171 4.211 11.83 24.529 13.659 54.69a132.476 132.476 0 0 1-6.093-6.572c-2.294-23.484-9.432-38.612-10.356-40.487a27.007 27.007 0 0 0 1.578-5.572c.134-.261.567-1.026 1.2-2.059ZM174 137.994c1.776 3.875 7.312 17.242 9.518 36.993a135.688 135.688 0 0 1-14.141-20.252 29.243 29.243 0 0 0 1.193-3.452c.476-1.946-1.948-3.939-3.037-4.723a9.049 9.049 0 0 1 1.76-2.739 17.543 17.543 0 0 0 4.707-5.827Zm18.674 46.9c-1.7-33.425-13.111-55.316-14.293-57.5a57.12 57.12 0 0 1 2.8-3.993c1.739 3.282 16.5 32.179 16.483 66.08a121.447 121.447 0 0 1-4.986-4.592Zm-53.804-69.978a3.758 3.758 0 0 1-.092-3.618l20.83 3.141c-.167 1.546-.3 2.939-.317 3.556Zm20.088 4.416c-.15.414-.331.876-.515 1.34-4.05 2.509-10.278-1.161-13.489-3.451Zm15.406-8.194a4.9 4.9 0 0 0-4.287-.977 11.894 11.894 0 0 0-2.915 2.3 58.758 58.758 0 0 1 1.072-7.624c.067-.17.169-.366.282-.587a5.7 5.7 0 0 0 .733-4.477 1.817 1.817 0 0 0-1.21-1.308c-1.244-.37-2.689.757-2.966.984a.724.724 0 0 0-.136.152c-.143.218-3.514 5.369-4.647 8.95-.02.171-.281 2.295-.532 4.52l-26.55-4C126.082 104 122.3 95.713 121.57 94c6.868-9.558 12.942-17.945 27.165-21.542.015.009.018.029.033.036a10.364 10.364 0 0 1 5.206 5.443c.167.408.308.83.449 1.25a12.559 12.559 0 0 0 1.023 2.44 6.624 6.624 0 0 0 8.29 2.734 9.384 9.384 0 0 0 5.552 5.888 6.051 6.051 0 0 0 2.039.355 5.845 5.845 0 0 0 .806-.089c.548 2.1 2.8 10.062 6.631 14.407a10.762 10.762 0 0 1-4.4 6.216Zm-3.787-37.947a20.674 20.674 0 0 0 2.087.734 12.163 12.163 0 0 1 2.9 1.178 5.771 5.771 0 0 1 2.475 3.369 12.245 12.245 0 0 1 .28 1.711 10.889 10.889 0 0 0 .456 2.36 10.856 10.856 0 0 0 2.25 3.42 13.312 13.312 0 0 1 1.678 2.251 6.157 6.157 0 0 1-6.518 8.99.613.613 0 0 0-.305.064 56.543 56.543 0 0 1-2.412-7.093 5.056 5.056 0 0 0 2.324-1.738 4.066 4.066 0 0 0-.852-5.555 4.33 4.33 0 0 0-4.119-.551 2.224 2.224 0 0 0-1.3 2.068.686.686 0 0 0 1.371.027.863.863 0 0 1 .514-.859 3.049 3.049 0 0 1 2.685.4 2.728 2.728 0 0 1 .579 3.681 4.351 4.351 0 0 1-4.919 1.316 7.923 7.923 0 0 1-4.787-5.282 6.315 6.315 0 0 0 .865-.7 4.513 4.513 0 0 0 1.472-4.035 3.213 3.213 0 0 0-1.553-2.111 2.607 2.607 0 0 0-2.148-.236.686.686 0 0 0-.422.873.676.676 0 0 0 .873.421 1.233 1.233 0 0 1 1.019.139 1.843 1.843 0 0 1 .888 1.191 3.261 3.261 0 0 1-1.087 2.786 5.284 5.284 0 0 1-8.244-1.079 11.306 11.306 0 0 1-.9-2.178c-.15-.448-.3-.894-.479-1.329a11.729 11.729 0 0 0-4.59-5.406 55.924 55.924 0 0 1 3.933-.7c4.212-.592 8.413-1.281 12.475-2.2.185 1.939 1.934 3.388 3.511 4.073Zm-98.168-10.82a.689.689 0 0 0-.455-.058c-4.818 1.031-6.694-1.182-6.768-1.273a.692.692 0 0 0-.364-.239c-2.766-.727-4.541-1.894-5.275-3.465a4.508 4.508 0 0 1-.022-3.507.692.692 0 0 0 .039-.488 5.042 5.042 0 0 1 .573-3.842c.917-1.387 2.682-2.242 5.246-2.541a.693.693 0 0 0 .42-.209 6.477 6.477 0 0 1 7.207-1.321.668.668 0 0 0 .579-.011c.047-.029 4.868-2.345 7.978.709a.705.705 0 0 0 .54.194 4.938 4.938 0 0 1 4.515 2.434.685.685 0 0 0 .477.328 9.027 9.027 0 0 1 6.181 4.857.7.7 0 0 0 .506.388c.195.033 4.76.941 4.471 8.752 0 .048.039.08.047.126-.013.092-.018.188-.03.282a5.962 5.962 0 0 0-.806.085c-1.524-2.293-7.843-9.989-24.926-11.638 0 0 14.909 4.062 21.569 11.181-3.279-1.014-6.943.213-7.949.608a8.547 8.547 0 0 0-6.5.526 19.435 19.435 0 0 1-7.253-1.878Zm25.926 15.235a.685.685 0 0 0-1.023.511c-.572 4.678-9.52 5.124-9.61 5.129a.686.686 0 0 0-.656.669c-.082 3.877-4.353 5.307-4.535 5.367a.686.686 0 0 0-.47.569c-.514 4.288-5.792 6.3-5.845 6.32a.689.689 0 0 0-.435.518 2.716 2.716 0 0 1-1.155 1.911 4.5 4.5 0 0 1-3.056.371.711.711 0 0 0-.355.006 3.869 3.869 0 0 1-3.373-.341c-2.146-1.428-2.587-5.086-2.591-5.124a.681.681 0 0 0-.1-.292c-3.893-6.044.743-11.148.942-11.362a.691.691 0 0 0 .135-.725c-1.682-4.17 2.806-6.276 3-6.363a.69.69 0 0 0 .4-.676c0-.031-.212-3.315 1.851-5.334 1.312-1.285 3.291-1.809 5.883-1.568a.689.689 0 0 0 .528-.179c.038-.035 3.9-3.511 8.067-1.911a.693.693 0 0 0 .518-.012c.055-.024 5.653-2.409 9.049.221a.689.689 0 0 0 .732.067 6.217 6.217 0 0 1 1.9-.5 35.552 35.552 0 0 0-.009 5.748c-3.444-.077-19.6.4-25.578 15.688a29.977 29.977 0 0 1 25.807-12.826c.1 1.208.223 2.572.354 4.025-.246.055-.397.067-.375.093Zm-6.972 30.155C103.046 99.743 102.186 94 101.11 86.8c-.192-1.28-.392-2.619-.53-4.035a739.215 739.215 0 0 1-1.09-12.168 31.723 31.723 0 0 1 .632-9.764c2.344-10.055 7.865-17.033 16.408-20.733 14.845-6.439 35.614-1.194 45.618 4.586 14.03 8.107 29.865 1.205 34.593-1.225a32.48 32.48 0 0 1-3.914 9.052c-8.783 3.554-18.767 3.444-31.406-.362-2.717-.819-5.374-1.8-7.944-2.74-7.227-2.657-14.053-5.162-22.217-4.488-6.824.564-12.624 2.692-16.772 6.148-4.854 4.047-7.87 10.717-8.274 18.3a61.325 61.325 0 0 0 .83 11.531 56.919 56.919 0 0 1 .773 12 23.3 23.3 0 0 1-6.318 14.644 33.857 33.857 0 0 1-10.136.215Zm24.937-8.888a22.625 22.625 0 0 1-12.5 8.168 25.182 25.182 0 0 0 5.385-14.026 57.959 57.959 0 0 0-.782-12.3 60.341 60.341 0 0 1-.82-11.275c.385-7.2 3.221-13.514 7.783-17.318 3.931-3.275 9.467-5.294 16.009-5.836C139.23 45.638 145.922 48.1 153 50.7c2.589.953 5.266 1.937 8.022 2.767 12.085 3.644 21.825 3.935 30.459.974-7.156 9.353-19.653 13.067-37.09 15.516-19.169 2.691-26.03 12.241-33.975 23.3-1.323 1.843-2.677 3.724-4.116 5.616Zm7.911 9.053a5.794 5.794 0 0 1-3.306-2.749 5.127 5.127 0 0 1-.43-2.926 11.2 11.2 0 0 0-.039-2.053 6.916 6.916 0 0 0-1.168-3.016c.464-.634.92-1.262 1.373-1.89a41.07 41.07 0 0 0 8.329 12 6.335 6.335 0 0 1-4.764.634Zm5.849.375c.136.12.275.238.414.358l-.834-.126a.542.542 0 0 0-.057 0c.158-.075.317-.153.472-.233Zm-1.228 2.237a1.332 1.332 0 0 1 .741-.629l7.8 1.176a4.95 4.95 0 0 0-.1 3.589l-8.268-1.247c-.575-1.586-.421-2.443-.178-2.889Zm5.529 5.084 7.783 1.174c1.11.935 7.5 6.1 13.147 6.1a7.775 7.775 0 0 0 2.451-.4 18.942 18.942 0 0 0-1.262 5.059c-.035.484-.062.975-.09 1.477a23.194 23.194 0 0 1-1.778 8.8 6.173 6.173 0 0 0-1.29-.059c-6.191-10.387-17.04-17.9-22.2-21.06a21.274 21.274 0 0 0 3.234-1.091Zm-6.572.746c1.776.959 16.374 9.132 24.074 21.666a6.053 6.053 0 0 0-3.374 2.548c-.116.175-.28.381-.408.565a66.26 66.26 0 0 0-3.789-4.862 4.05 4.05 0 0 0-4.074-4.772 3.944 3.944 0 0 0-.437.045c-8.057-7.583-14.983-9.989-15.276-10.088h-.028a4.043 4.043 0 0 0-2.146-2.012 8.477 8.477 0 0 1 5.453-3.09Zm-10.89 6.3a3.787 3.787 0 0 1 1.915-1.865 3.954 3.954 0 0 1 1.642-.366 3.488 3.488 0 0 1 1.022.15 2.757 2.757 0 0 1 1.767 1.483 3.555 3.555 0 0 1-6.39 2.905 2.763 2.763 0 0 1 .039-2.312Zm-1.636 1.081a3.945 3.945 0 0 0 .344 1.792c.006.014.018.024.024.037-.026.015-.058 0-.082.021a18.194 18.194 0 0 0-6.522 9.332 18.528 18.528 0 0 0 3.072 16.326 13.363 13.363 0 0 0 10.689 5.318c.257 0 .517-.006.777-.02 8.147-.443 15.981-8.627 16.338-16.793.106.009.207.033.315.033a4.078 4.078 0 0 0 1.881-.474 18.128 18.128 0 0 1-2.4 9.669c-1.941.647-3.73 2.816-5.316 6.465a.7.7 0 0 0-.054.212c-.007.081-.035.464-.053 1.047a25.374 25.374 0 0 1-11.344 3.237 15.76 15.76 0 0 1-11.372-4.551 20.092 20.092 0 0 1-5.706-14.3c-.003-7.956 3.267-13.909 9.404-17.356Zm-19.1 57.515a37.78 37.78 0 0 0-.3 2.12 9.1 9.1 0 0 0 .927 5.434 4.589 4.589 0 0 1-1.464-.712.686.686 0 0 0-1.023.253 9.138 9.138 0 0 0-.9 3.962 6.03 6.03 0 0 1-2.938-5.093.687.687 0 0 0-.261-.547.7.7 0 0 0-.594-.127 8.888 8.888 0 0 1-1.341.232 8.213 8.213 0 0 0 2.474-3.688 12.761 12.761 0 0 0 .4-2.206c.044-.368.088-.739.15-1.1a10.6 10.6 0 0 1 1.016-2.933 4.564 4.564 0 0 0 4.2.767 18.939 18.939 0 0 1-.351 3.633Zm-.985-4.8a3.415 3.415 0 1 1 3.414-3.414 3.417 3.417 0 0 1-3.419 3.409Zm2.08-7.7a4.109 4.109 0 0 0-2.67-.436c-.484-4.023-2.129-24.51 12.091-37.476a22.075 22.075 0 0 0-2.047 7.654c-.042.04-.1.049-.137.1-7.395 12.094-7.441 25.807-7.242 30.15Zm27.69 36.952A8.238 8.238 0 0 1 114.556 202a74.656 74.656 0 0 1-6.46-17.847c-.01-.043-.968-4.221-2.835-10.606-1.546-5.291-4.479-20.561-.695-30.694a21.218 21.218 0 0 0 6.032 13.525 16.859 16.859 0 0 0 12.07 4.942h.28a25.815 25.815 0 0 0 10.615-2.75 39.693 39.693 0 0 1-3.58 4.388c-.164.14-.4.319-.675.535-1.863 1.448-5.741 4.46-6.331 8.536a.685.685 0 0 0 .58.776.854.854 0 0 0 .1.007.687.687 0 0 0 .678-.587c.51-3.529 4.093-6.311 5.815-7.648.3-.234.55-.428.726-.58a35.16 35.16 0 0 0 3.453-4.159c.282 4.752 1.621 12.729 7.015 19.6a.692.692 0 0 0 .493.261c.163.009 1.416.087 3.336.087a61.717 61.717 0 0 0 13.635-1.45c-3.801 4.871-16.765 20.307-33.865 27.372Zm22.184-12.933a105.921 105.921 0 0 0 13.85-15.042 29.067 29.067 0 0 0 3.536-1.281.657.657 0 0 0 .222-.161c1.781-1.927 4.386-6.431 1.5-9.684a.685.685 0 0 0-.387-.212c.1-.606.278-1.415.494-2.306a103.64 103.64 0 0 0 18.051 23.3 156.73 156.73 0 0 1-.954 22.037c-.886.044-1.7.082-2.32.106a3.254 3.254 0 0 0-1.918.74c-18.254-.318-29.239-4.317-33.333-6.144a47.027 47.027 0 0 0 1.254-11.361ZM143.8 204.67c2.391 1.257 13.5 6.433 34.431 6.945a3 3 0 0 0-.219.924 76.669 76.669 0 0 0-.027 9.07c-21.529-.259-34.318-4.531-36.326-5.256a11.425 11.425 0 0 1 2.141-11.683Zm-1.782 13.255c3.666 1.219 16.322 4.876 36.4 5.062a2.434 2.434 0 0 0 1.35 1.081 24.533 24.533 0 0 1-3.192 4.627c-7.262 8.227-15.665 14.915-24.361 21.594h-7.519a51.622 51.622 0 0 1-8.454-5.153 41.878 41.878 0 0 1-10.685-11.061 37.935 37.935 0 0 1-2.92-5.646c6.482-4.716 17.682-9.753 19.379-10.504Zm-29.114 16.1a10.319 10.319 0 0 1 .718-1.486 16.324 16.324 0 0 1 7.038-5.194c.125.336.3.653.429.984a.642.642 0 0 0 .084.324c.024.032.061.046.089.073a39.3 39.3 0 0 0 3.14 6.086 43.127 43.127 0 0 0 11.014 11.413 52.589 52.589 0 0 0 6.41 4.06h-13.383a70.772 70.772 0 0 1-15.543-16.256Zm37.967 17.686c-11.169 10.855-17.928 25.847-18.209 26.478-.859.045-1.72.093-2.559.143-.78-2.8-4.978-16.058-16.644-24.506a17.976 17.976 0 0 0-3.882-2.115Zm-66.284 13.4-4.282-3.7c3.445-4.43 11.3-7.353 17.4-9.044a17.657 17.657 0 0 1 14.952 2.566c10.956 7.933 15.122 20.284 16.048 23.483-1.854.122-3.453.254-4.422.389a55.47 55.47 0 0 0-10.694-14.476 19.347 19.347 0 0 0-21.5-3.547 44.869 44.869 0 0 0-7.504 4.334Zm8.071-3.081a17.975 17.975 0 0 1 19.983 3.293A53.965 53.965 0 0 1 122.9 279.15a4.77 4.77 0 0 0-2.8 2.686 44.912 44.912 0 0 0-14.066 3.9c-.017-.014-.015-.039-.033-.052-.121-.088-11.981-8.607-19.125-20.469a45.266 45.266 0 0 1 5.78-3.18Zm3.411 16.845a88.014 88.014 0 0 0 3.946 3.7l-3.6 8.622a270.525 270.525 0 0 1-7.2-5.046Zm-32.086 57.6a3.039 3.039 0 1 1 3.038-3.038 3.041 3.041 0 0 1-3.04 3.038Zm11-11.616-8.021 5.346a4.409 4.409 0 0 0-1.434-.883l.837-8.958 7.69-5.745a2.264 2.264 0 0 1 2.373 1.828Zm-6.706-17.127a12.252 12.252 0 0 0-2.265-2.382l3.02-4.355c1.687-2.434 3.375-4.865 3.395-4.9l6.33-9.126a99.75 99.75 0 0 0 6.663 5.4 31.228 31.228 0 0 0-12.228 21.18l-2.763 2.064c.019-.122.051-.252.062-.369a11.353 11.353 0 0 0-2.218-7.512ZM92.3 297.22c-.015.1-1.669 9.85-14.775 18.173a3.606 3.606 0 0 0-2.93-2.115 30.587 30.587 0 0 1 11.952-20.063 99.666 99.666 0 0 0 5.8 3.882.671.671 0 0 0-.047.123Zm14.223 5.573c-.134-.047-13.545-4.834-27.434-17.358a.69.69 0 0 0-.538-.172.681.681 0 0 0-.485.29l-6.774 9.769-3.392 4.89-3.4 4.9a.685.685 0 0 0 .167.942 10.874 10.874 0 0 1 2.49 2.48 10.151 10.151 0 0 1 1.961 6.588 6.127 6.127 0 0 1-.365 1.522c-.027.072.01.14.008.213l-3.461 2.592a.678.678 0 0 0-.272.484l-.008.077a3.684 3.684 0 0 1-2.611-1.288 2.826 2.826 0 0 1-.474-2.412 1.8 1.8 0 0 1 .61-1.069 2.157 2.157 0 0 1 1.846-.228 6.1 6.1 0 0 1-.239 1.647.685.685 0 0 0 .432.866.7.7 0 0 0 .219.038.683.683 0 0 0 .647-.464c.022-.065 2.066-6.358-5.137-11.661l16.981-26.487c3.676 2.835 22.476 17.195 27.8 18.786.288 1.085.534 1.767.564 1.849a.669.669 0 0 0 .292.331c.017.01.018.033.036.042.34.176.671.367 1.008.548-.139.793-.265 1.571-.392 2.351-.034-.017-.044-.054-.077-.066Zm1.74-1.593a94.943 94.943 0 0 1 14.573 10.155c-.36 34.288 14.476 63.772 16.581 67.774l-10.758-1.621c1.431-.431 3.279-1.268 3.911-2.849a2.637 2.637 0 0 0-1.47-3.4c-1.407-.591-4.52-.05-7.143 1.015a13.976 13.976 0 0 0-8.751-2.855c-.015 0-.911-.024-1.945-.124-1.461-2.908-12.254-26.217-4.996-68.095Zm2.31 69.017a21.591 21.591 0 0 0 4.6.573 13.156 13.156 0 0 1 7.359 2.149 9.949 9.949 0 0 0-1.574 1 .685.685 0 1 0 .866 1.062c2.2-1.792 7.317-3.074 8.745-2.474a1.289 1.289 0 0 1 .718 1.655c-.62 1.548-3.54 2.242-4.612 2.378a.653.653 0 0 0-.54.57l-28.315-4.269c.038-.059.106-.091.124-.162a2.792 2.792 0 0 1 1.485-1.716c3.225-1.803 9.94-1.139 11.146-.766Zm-12.82.311a3.749 3.749 0 0 0-1.136 1.828.636.636 0 0 0 .047.328l-13.582-2.048a42.8 42.8 0 0 1 14.673-.108ZM63.432 372.3a.538.538 0 0 1 0-.531c.512-1.912 4.208-2 5.549-1.876l70.167 10.581a14.235 14.235 0 0 1-3.549 3.067l-5.777-.87a2.16 2.16 0 0 0-.454-.647 2.484 2.484 0 0 0-2.651-.433 1.8 1.8 0 0 0-.722.5l-1.646-.247a2.968 2.968 0 0 0-.756-1.463c-.836-.859-2.23-1.244-4.174-1.173a4.1 4.1 0 0 0-2.479 1.519l-48.263-7.277a9.714 9.714 0 0 0-1.17-.1c-3.224-.088-3.934-.824-4.075-1.05Zm43.938 11.214a.685.685 0 1 0-1.175.7c2.872 4.8 3.046 6.78 3.173 8.232.1 1.1-.207 2.689-.706 2.967-.373.208-.761-.113-.911-.263a2.943 2.943 0 0 1-.6-2.041l-.018-.288a10.4 10.4 0 0 0-.969-3.578 22.969 22.969 0 0 0-3.713-5.841 8.634 8.634 0 0 1-2.373-3.834L116.167 382a16.068 16.068 0 0 0-.847 5.045 23.592 23.592 0 0 0-2.52-2.545.685.685 0 0 0-.894 1.039c5.657 4.87 6.608 10.07 5.878 12.2a1.852 1.852 0 0 1-.14.324 12.736 12.736 0 0 1-1.717-2.155c-.393-.558-.819-1.165-1.281-1.769a18.48 18.48 0 0 0-4.336-4.332 25.908 25.908 0 0 0-2.94-6.29ZM66.357 394.44a31.6 31.6 0 0 1 4.989-19.2l2.445.369c-3.595 6.366-4.248 15.86-4.275 16.274a.685.685 0 0 0 .433.682 38.46 38.46 0 0 0 14.137 2.713 39.583 39.583 0 0 0 20.639-5.848c.061.129.13.252.189.382a10.863 10.863 0 0 1 .419 1.145c-1.99 1.443-16.387 10.925-38.976 3.483Zm32.255-15.085a9.626 9.626 0 0 0 2.823 4.975 17.139 17.139 0 0 1 1.223 1.551 78.263 78.263 0 0 0-8.7 2.442.685.685 0 0 0 .245 1.325.654.654 0 0 0 .244-.045 82.585 82.585 0 0 1 9.022-2.5c.219.355.436.717.641 1.095a37.635 37.635 0 0 1-33.185 3.277c.189-2.1 1.117-10.352 4.318-15.644Zm19.862 12.751a16.789 16.789 0 0 0-1.811-3.353c-.021-1.422.084-4.864.811-6.349a3.045 3.045 0 0 1 2.045-1.825 4.1 4.1 0 0 1 3.093.763 1.85 1.85 0 0 1 .463 1.479 2.988 2.988 0 0 1-1.835.364.8.8 0 0 0-.63.361 7.764 7.764 0 0 0-.471 3.172c-.006.568 0 1.149.007 1.734a19.542 19.542 0 0 1-.062 2.722c-.155.97-1.355.946-1.61.932Zm5.892-8.868.7.1c-.828 1.236-1.847 2.7-3.538 2.8a8.421 8.421 0 0 1 .166-1.583c.849-.032 2.345-.255 2.672-1.317Zm-2.85 5.194c-.005-.293-.01-.612-.012-.934 2.444-.094 3.814-2.079 4.741-3.461a5.036 5.036 0 0 1 .892-1.137c.868-.282 1.184.02 1.284.116a1.7 1.7 0 0 1 .3 1.3c-.046 1.95-2.1 5.546-3.657 6.416a6.711 6.711 0 0 1-3.6.41 23.6 23.6 0 0 0 .052-2.71Zm19.594 9.5a34.237 34.237 0 0 1-5.283-1.288c-.188-.062-2.006-.562-7.659.654-1.384.3-3.34 1.423-6.046 2.983-8.841 5.1-25.308 14.585-51.353 12.408a4.315 4.315 0 0 1-2.336-.93c-2.943-2.336-9.916-8.647-11.088-16.781a4.125 4.125 0 0 1 .163-1.787c2.387-7.888 6.5-13.847 11.9-17.385-5.74 9.989-4.416 18.86-4.352 19.252a.683.683 0 0 0 .458.54 54.854 54.854 0 0 0 17.564 3.021 45.476 45.476 0 0 0 10.869-1.3c-2.949 2.045-7.61 4.974-11.467 6.038a.685.685 0 0 0 .181 1.345.64.64 0 0 0 .183-.024c6.4-1.765 14.524-8.141 14.867-8.411.021-.015.017-.044.035-.062a35.357 35.357 0 0 0 7.93-3.819c.025.176.081.36.093.533l.017.274a4.117 4.117 0 0 0 1 2.929 2.308 2.308 0 0 0 1.62.737 1.878 1.878 0 0 0 .926-.246c1.392-.774 1.482-3.42 1.392-4.421l-.034-.358a21.246 21.246 0 0 1 2.866 3.131c.451.591.867 1.182 1.25 1.726 1.168 1.662 1.962 2.791 2.9 2.791a1.053 1.053 0 0 0 .167-.013c.807-.114 1.11-1 1.21-1.292a8.419 8.419 0 0 0-.166-4.735 2.866 2.866 0 0 0 2.065-.984 11.805 11.805 0 0 0 1.662.12 6.512 6.512 0 0 0 3.094-.652c1.979-1.1 4.3-5.14 4.359-7.58v-.248l5.192.782a4.472 4.472 0 0 0 5.513 1.306 3.666 3.666 0 0 0 1.381 2.229 3.62 3.62 0 0 0 2.16.636 6.787 6.787 0 0 0 1.595-.235 7.422 7.422 0 0 0 .65 1.044c-4.388 3.323-4.866 7.2-4.883 7.369-.01.1.061.187.095.283Zm6.4-7.07a4.884 4.884 0 0 0 3.138 1.122 3.968 3.968 0 0 0 1.149-.145 11.924 11.924 0 0 0 2.916-2.3 58.933 58.933 0 0 1-1.073 7.625 6.93 6.93 0 0 1-.282.586 5.7 5.7 0 0 0-.733 4.476 1.817 1.817 0 0 0 1.211 1.307 1.853 1.853 0 0 0 .527.074 4.445 4.445 0 0 0 2.439-1.058.724.724 0 0 0 .136-.152c.143-.218 3.513-5.367 4.646-8.95.021-.171.282-2.293.532-4.517l26.554 4c7.123 5.071 10.907 13.352 11.634 15.068-6.867 9.559-12.942 17.946-27.164 21.544-.016-.009-.018-.029-.034-.037a10.357 10.357 0 0 1-5.206-5.443c-.167-.411-.309-.832-.451-1.252a12.59 12.59 0 0 0-1.02-2.438 6.536 6.536 0 0 0-8.281-2.7 9.382 9.382 0 0 0-5.561-5.918 6.007 6.007 0 0 0-2.853-.3c-.564-2.155-2.818-10.057-6.623-14.376a10.769 10.769 0 0 1 4.399-6.212Zm3.788 37.947a20.963 20.963 0 0 0-2.084-.734 12.148 12.148 0 0 1-2.9-1.18 5.758 5.758 0 0 1-2.474-3.366 12.171 12.171 0 0 1-.28-1.711 8.383 8.383 0 0 0-2.706-5.783 13.253 13.253 0 0 1-1.678-2.248 6.159 6.159 0 0 1 6.524-8.987.582.582 0 0 0 .324-.017 56.834 56.834 0 0 1 2.388 7.03 5.063 5.063 0 0 0-2.32 1.754 4.067 4.067 0 0 0 .852 5.555 4.567 4.567 0 0 0 2.669.855 3.371 3.371 0 0 0 1.449-.3 2.224 2.224 0 0 0 1.3-2.07.685.685 0 0 0-.671-.7.668.668 0 0 0-.7.671.862.862 0 0 1-.515.859 3 3 0 0 1-2.686-.395 2.729 2.729 0 0 1-.577-3.681 4.353 4.353 0 0 1 4.919-1.314 8.036 8.036 0 0 1 4.792 5.3 6.448 6.448 0 0 0-.872.675 4.526 4.526 0 0 0-1.47 4.038 3.2 3.2 0 0 0 1.555 2.11 2.575 2.575 0 0 0 2.148.239.686.686 0 1 0-.454-1.294 1.3 1.3 0 0 1-1.017-.136 1.845 1.845 0 0 1-.888-1.192 3.268 3.268 0 0 1 1.079-2.787 5.286 5.286 0 0 1 8.245 1.077 11.355 11.355 0 0 1 .9 2.178c.15.448.3.9.48 1.331a11.712 11.712 0 0 0 4.592 5.408 55.381 55.381 0 0 1-3.934.7c-4.211.591-8.412 1.28-12.475 2.2-.188-1.949-1.936-3.394-3.513-4.081Zm98.168 10.818a.688.688 0 0 0 .455.058c4.815-1.031 6.694 1.184 6.767 1.276a.692.692 0 0 0 .364.239c2.767.727 4.542 1.894 5.276 3.464a4.508 4.508 0 0 1 .022 3.5.7.7 0 0 0-.039.486 5.1 5.1 0 0 1-.582 3.857c-.919 1.381-2.682 2.231-5.237 2.528a.683.683 0 0 0-.421.212 6.554 6.554 0 0 1-7.207 1.321.685.685 0 0 0-.577.011c-.049.024-4.883 2.326-7.979-.71a.621.621 0 0 0-.54-.194 4.966 4.966 0 0 1-4.515-2.434.69.69 0 0 0-.478-.328 9.024 9.024 0 0 1-6.181-4.856.684.684 0 0 0-.51-.388c-.048-.009-4.757-.879-4.466-8.752 0-.048-.039-.08-.047-.126.013-.093.018-.19.029-.284a6.147 6.147 0 0 0 .807-.084c1.525 2.293 7.844 9.988 24.925 11.637 0 0-14.882-4.053-21.551-11.162a9.271 9.271 0 0 0 2.706.4 15.235 15.235 0 0 0 5.226-1.026 8.524 8.524 0 0 0 6.5-.525 19.446 19.446 0 0 1 7.253 1.884ZM223.54 424.4a.684.684 0 0 0 1.022-.511c.573-4.68 9.52-5.126 9.61-5.131a.685.685 0 0 0 .656-.669c.083-3.875 4.354-5.307 4.536-5.367a.689.689 0 0 0 .47-.569c.514-4.288 5.791-6.3 5.844-6.318a.689.689 0 0 0 .436-.518 2.714 2.714 0 0 1 1.156-1.907 4.5 4.5 0 0 1 3.055-.373.658.658 0 0 0 .355-.006 3.848 3.848 0 0 1 3.373.343c2.146 1.428 2.586 5.084 2.591 5.122a.684.684 0 0 0 .1.293c3.894 6.043-.742 11.15-.942 11.364a.69.69 0 0 0-.135.725c1.682 4.167-2.806 6.275-3 6.362a.7.7 0 0 0-.4.676 7.539 7.539 0 0 1-1.85 5.334c-1.313 1.281-3.291 1.8-5.884 1.566a.642.642 0 0 0-.527.179c-.039.035-3.905 3.516-8.067 1.914a.707.707 0 0 0-.518.011c-.055.025-5.664 2.4-9.049-.221a.677.677 0 0 0-.732-.067 6.184 6.184 0 0 1-1.9.5 35.782 35.782 0 0 0 .009-5.748c3.443.078 19.6-.4 25.577-15.69a29.976 29.976 0 0 1-25.813 12.826c-.1-1.208-.223-2.571-.355-4.024.253-.06.403-.072.382-.096Zm6.971-30.157c-11.683 8.018-10.823 13.765-9.746 20.966.192 1.281.392 2.617.53 4.034a752.5 752.5 0 0 1 1.09 12.169 31.763 31.763 0 0 1-.632 9.765c-2.344 10.052-7.865 17.026-16.408 20.729-14.848 6.427-35.615 1.187-45.619-4.589a29.206 29.206 0 0 0-14.8-3.828 45.515 45.515 0 0 0-19.789 5.055 32.474 32.474 0 0 1 3.917-9.055c8.78-3.552 18.763-3.44 31.4.363 2.717.819 5.376 1.8 7.946 2.742 6.417 2.358 12.517 4.6 19.519 4.6.882 0 1.781-.035 2.7-.111 6.824-.567 12.624-2.693 16.772-6.151 4.854-4.044 7.869-10.713 8.274-18.3a61.435 61.435 0 0 0-.83-11.534 56.848 56.848 0 0 1-.774-12 23.306 23.306 0 0 1 6.324-14.648 33.762 33.762 0 0 1 10.126-.209Zm-24.932 8.888a22.643 22.643 0 0 1 12.5-8.173 25.184 25.184 0 0 0-5.389 14.031 57.9 57.9 0 0 0 .782 12.3 60.453 60.453 0 0 1 .819 11.277c-.384 7.2-3.221 13.515-7.783 17.316-3.93 3.277-9.465 5.3-16.008 5.838-7.864.643-14.548-1.809-21.628-4.41-2.589-.953-5.267-1.936-8.024-2.766-12.088-3.637-21.827-3.929-30.458-.974 7.157-9.352 19.653-13.065 37.089-15.515 19.169-2.692 26.03-12.243 33.975-23.3 1.328-1.855 2.681-3.734 4.125-5.626Zm-7.91-9.051a5.781 5.781 0 0 1 3.306 2.747 5.137 5.137 0 0 1 .429 2.929 11.254 11.254 0 0 0 .04 2.05 6.887 6.887 0 0 0 1.168 3.016c-.465.634-.92 1.262-1.373 1.89a41.067 41.067 0 0 0-8.33-12 6.335 6.335 0 0 1 4.76-.634Zm-5.853-.38a27.805 27.805 0 0 0-.408-.351l.832.125a.3.3 0 0 0 .042 0 16.73 16.73 0 0 0-.466.226Zm1.232-2.232a1.336 1.336 0 0 1-.741.629l-7.8-1.175a4.955 4.955 0 0 0 .1-3.589l8.267 1.246a3.745 3.745 0 0 1 .174 2.887Zm-5.528-5.084-7.781-1.174c-1.211-1.022-9.5-7.728-15.605-5.7a19.028 19.028 0 0 0 1.266-5.069c.034-.484.061-.975.09-1.477a23.175 23.175 0 0 1 1.777-8.8 5.958 5.958 0 0 0 .965.08c.106 0 .219-.011.329-.016 6.192 10.384 17.038 17.891 22.2 21.054a21.207 21.207 0 0 0-3.241 1.1Zm6.57-.745c-.219-.118-.64-.35-1.211-.682h-.006c-4.07-2.361-16.1-9.988-22.85-20.975a6.081 6.081 0 0 0 3.367-2.556c.117-.175.28-.382.409-.566a66.005 66.005 0 0 0 3.788 4.862 3.976 3.976 0 0 0 4.511 4.728c8.058 7.582 14.983 9.988 15.277 10.088h.034a4.041 4.041 0 0 0 2.154 1.987 8.542 8.542 0 0 1-5.473 3.112Zm8.976-4.431a3.292 3.292 0 0 1-4.431-1.269 2.756 2.756 0 0 1 .044-2.307 3.785 3.785 0 0 1 1.914-1.865 3.961 3.961 0 0 1 1.642-.366 3.489 3.489 0 0 1 1.023.15 2.755 2.755 0 0 1 1.766 1.483 3.284 3.284 0 0 1-1.958 4.172Zm3.547-2.946a3.929 3.929 0 0 0-.34-1.794c0-.011-.014-.022-.02-.033.025-.014.054-.007.078-.025a18.191 18.191 0 0 0 6.522-9.33 18.525 18.525 0 0 0-3.073-16.325 13.383 13.383 0 0 0-11.465-5.3c-8.148.441-15.982 8.625-16.337 16.793-.107-.009-.208-.032-.316-.032a4.1 4.1 0 0 0-1.882.473 18.134 18.134 0 0 1 2.4-9.67c1.941-.646 3.729-2.816 5.315-6.466a.669.669 0 0 0 .054-.212c.008-.08.036-.464.054-1.043a25.312 25.312 0 0 1 11.343-3.238 15.77 15.77 0 0 1 11.369 4.544 20.093 20.093 0 0 1 5.706 14.3c.003 7.958-3.268 13.912-9.408 17.356Zm19.1-57.513c.114-.707.228-1.414.3-2.121a9.117 9.117 0 0 0-.927-5.435 4.615 4.615 0 0 1 1.463.712.671.671 0 0 0 .571.114.687.687 0 0 0 .453-.366 9.166 9.166 0 0 0 .9-3.964 6.028 6.028 0 0 1 2.938 5.095.689.689 0 0 0 .856.674 8.492 8.492 0 0 1 1.341-.235 8.228 8.228 0 0 0-2.474 3.69 12.7 12.7 0 0 0-.4 2.2c-.044.371-.088.739-.151 1.105a10.585 10.585 0 0 1-1.015 2.933 4.562 4.562 0 0 0-4.2-.768 18.881 18.881 0 0 1 .348-3.636Zm.986 4.8a3.416 3.416 0 1 1-2.375 5.86.719.719 0 0 0-.073-.073 3.409 3.409 0 0 1 2.448-5.787Zm-2.081 7.7a4.729 4.729 0 0 0 2.081.5 4.621 4.621 0 0 0 .591-.06c.484 4.029 2.124 24.512-12.094 37.477a22.052 22.052 0 0 0 2.047-7.623.643.643 0 0 0 .139-.132c7.388-12.104 7.438-25.811 7.239-30.163ZM196.932 296.3a8.241 8.241 0 0 1 10.387 3.712 74.71 74.71 0 0 1 6.46 17.847c.009.042.968 4.221 2.834 10.605 1.547 5.291 4.481 20.56.695 30.692a21.217 21.217 0 0 0-6.031-13.523 16.831 16.831 0 0 0-12.351-4.939 25.793 25.793 0 0 0-10.616 2.752 39.983 39.983 0 0 1 3.581-4.392c.165-.14.4-.319.675-.537 1.864-1.446 5.741-4.455 6.331-8.531a.684.684 0 0 0-.58-.776.676.676 0 0 0-.776.58c-.511 3.527-4.094 6.308-5.815 7.645-.3.234-.55.428-.727.58a35.609 35.609 0 0 0-3.453 4.159c-.282-4.75-1.62-12.727-7.014-19.595a.7.7 0 0 0-.493-.261 65.282 65.282 0 0 0-16.961 1.352c3.813-4.902 16.769-20.318 33.854-27.37Zm-22.185 12.933a106.338 106.338 0 0 0-13.824 15.007 28.857 28.857 0 0 0-3.562 1.315.677.677 0 0 0-.222.161c-1.78 1.927-4.386 6.434-1.5 9.684a.68.68 0 0 0 .386.212c-.1.6-.277 1.415-.494 2.3a103.621 103.621 0 0 0-18.051-23.3 156.682 156.682 0 0 1 .954-22.035c.887-.045 1.7-.083 2.322-.106a3.264 3.264 0 0 0 1.915-.743c18.255.319 29.24 4.319 33.335 6.146a47.06 47.06 0 0 0-1.259 11.354Zm3.329-11.894c-2.39-1.257-13.5-6.433-34.43-6.947a3 3 0 0 0 .219-.923 74.222 74.222 0 0 0 .038-9.069c21.522.261 34.307 4.529 36.315 5.254a11.43 11.43 0 0 1-2.142 11.68Zm1.785-13.256c-3.664-1.218-16.327-4.876-36.419-5.062a2.431 2.431 0 0 0-1.371-1.082 25.026 25.026 0 0 1 3.232-4.626c7.27-8.235 15.669-14.92 24.361-21.593h7.523a51.62 51.62 0 0 1 8.45 5.153 41.926 41.926 0 0 1 10.685 11.061 38.021 38.021 0 0 1 2.921 5.646c-6.484 4.708-17.677 9.744-19.382 10.498Zm29.112-16.1a10.522 10.522 0 0 1-.718 1.486 16.332 16.332 0 0 1-7.038 5.191c-.126-.337-.3-.654-.431-.986a.645.645 0 0 0-.082-.319c-.019-.026-.055-.024-.077-.045a39.337 39.337 0 0 0-3.152-6.115 43.127 43.127 0 0 0-11.014-11.413 52.562 52.562 0 0 0-6.406-4.06h13.377a70.757 70.757 0 0 1 15.541 16.254ZM171 250.289c11.169-10.852 17.93-25.845 18.211-26.48.859-.045 1.72-.092 2.56-.142.778 2.8 4.976 16.056 16.643 24.5a17.955 17.955 0 0 0 4 2.117Zm66.287-13.4 4.282 3.7c-3.445 4.428-11.3 7.351-17.4 9.042a17.629 17.629 0 0 1-14.952-2.566c-10.957-7.933-15.122-20.285-16.048-23.482 1.854-.121 3.454-.254 4.423-.389a55.469 55.469 0 0 0 10.694 14.477 19.339 19.339 0 0 0 21.5 3.547 45.2 45.2 0 0 0 7.504-4.329Zm-8.071 3.08a17.989 17.989 0 0 1-19.983-3.292 54.049 54.049 0 0 1-10.257-13.823 4.764 4.764 0 0 0 2.8-2.686 44.966 44.966 0 0 0 14.067-3.905c.016.014.014.039.033.052.12.089 11.98 8.607 19.124 20.469a45.173 45.173 0 0 1-5.781 3.185Zm-3.411-16.845a88.6 88.6 0 0 0-3.946-3.7l3.6-8.625c2.28 1.537 4.742 3.27 7.2 5.046Zm32.085-57.6a3.039 3.039 0 1 1-3.037 3.039 3.041 3.041 0 0 1 3.04-3.036Zm-11 11.619 8.023-5.348a4.384 4.384 0 0 0 1.433.883l-.838 8.96-7.691 5.744a2.264 2.264 0 0 1-2.372-1.83Zm6.71 17.127a12.306 12.306 0 0 0 2.266 2.385c-.595.856-1.808 2.6-3.021 4.354a3326.052 3326.052 0 0 1-3.4 4.9l-6.329 9.126a99.81 99.81 0 0 0-6.663-5.4 31.236 31.236 0 0 0 12.228-21.179l2.763-2.065c-.019.122-.052.25-.062.367a11.353 11.353 0 0 0 2.218 7.512Zm-24.029 10.514c.015-.1 1.669-9.849 14.776-18.175a3.6 3.6 0 0 0 2.929 2.117 30.585 30.585 0 0 1-11.949 20.062 99.837 99.837 0 0 0-5.8-3.882.633.633 0 0 0 .045-.122Zm-14.223-5.573c.134.047 13.546 4.832 27.435 17.356a.685.685 0 0 0 .459.177.409.409 0 0 0 .078 0 .681.681 0 0 0 .485-.29l6.77-9.762 3.4-4.9 3.393-4.892a.684.684 0 0 0-.161-.948 10.931 10.931 0 0 1-2.491-2.483 10.153 10.153 0 0 1-1.96-6.588 6.117 6.117 0 0 1 .365-1.519c.027-.073-.01-.141-.008-.213l3.468-2.591a.687.687 0 0 0 .272-.485l.007-.077a3.674 3.674 0 0 1 2.611 1.287 2.82 2.82 0 0 1 .474 2.411 1.789 1.789 0 0 1-.609 1.069 2.164 2.164 0 0 1-1.846.229 6.131 6.131 0 0 1 .239-1.648.686.686 0 0 0-.432-.866.677.677 0 0 0-.866.426c-.022.065-2.065 6.358 5.137 11.663l-16.985 26.483c-3.676-2.835-22.477-17.2-27.8-18.786a21.837 21.837 0 0 0-.564-1.847.662.662 0 0 0-.292-.33c-.016-.01-.018-.034-.035-.043-.341-.176-.671-.367-1.008-.547.139-.793.265-1.572.392-2.352.031.017.04.055.073.066Zm-1.74 1.593a94.868 94.868 0 0 1-14.572-10.156c.359-34.286-14.476-63.77-16.581-67.773l10.758 1.621c-1.431.43-3.279 1.267-3.912 2.848a2.641 2.641 0 0 0 1.471 3.4 4.155 4.155 0 0 0 1.572.248 16.137 16.137 0 0 0 5.588-1.255 13.961 13.961 0 0 0 8.733 2.846c.016 0 .911.023 1.944.123 1.463 2.894 12.26 26.206 5 68.094Zm-2.31-69.019a21.591 21.591 0 0 0-4.6-.573 13.127 13.127 0 0 1-7.353-2.142 9.734 9.734 0 0 0 1.568-1 .685.685 0 0 0-.867-1.062c-2.2 1.792-7.311 3.088-8.744 2.477a1.288 1.288 0 0 1-.718-1.656c.619-1.548 3.539-2.242 4.612-2.378a.655.655 0 0 0 .54-.571l28.311 4.268c-.036.059-.1.091-.121.163a2.787 2.787 0 0 1-1.485 1.715c-3.219 1.801-9.935 1.134-11.141.759Zm12.819-.31a3.755 3.755 0 0 0 1.138-1.829.644.644 0 0 0-.047-.327l13.59 2.049a42.732 42.732 0 0 1-14.68.107Zm34.325-1.776a.538.538 0 0 1 0 .531c-.512 1.912-4.206 2-5.549 1.876l-70.167-10.578a14.262 14.262 0 0 1 3.549-3.068l5.777.87a2.119 2.119 0 0 0 .453.645 2.222 2.222 0 0 0 1.583.616 3.557 3.557 0 0 0 1.07-.181 1.8 1.8 0 0 0 .723-.5l1.643.247a2.977 2.977 0 0 0 .755 1.461 4.961 4.961 0 0 0 3.688 1.186c.159 0 .322 0 .49-.008a4.111 4.111 0 0 0 2.476-1.522l48.263 7.277a9.733 9.733 0 0 0 1.17.1c3.226.089 3.934.825 4.077 1.049ZM214.5 118.487a.686.686 0 1 0 1.176-.7c-2.873-4.794-3.046-6.78-3.173-8.23-.1-1.106.207-2.692.7-2.971.375-.2.763.118.911.265a2.945 2.945 0 0 1 .6 2.041l.018.288a10.472 10.472 0 0 0 .968 3.574 22.968 22.968 0 0 0 3.714 5.845 8.637 8.637 0 0 1 2.373 3.833L205.707 120a16.023 16.023 0 0 0 .847-5.047 23.512 23.512 0 0 0 2.523 2.554.686.686 0 0 0 .9-1.04c-5.658-4.872-6.608-10.07-5.878-12.2a1.777 1.777 0 0 1 .14-.324 12.675 12.675 0 0 1 1.72 2.162c.392.556.817 1.16 1.278 1.765a18.452 18.452 0 0 0 4.336 4.328 25.838 25.838 0 0 0 2.927 6.289Zm41.013-10.925a31.6 31.6 0 0 1-4.988 19.2l-2.446-.369c3.595-6.364 4.249-15.86 4.276-16.273a.687.687 0 0 0-.434-.683 39.157 39.157 0 0 0-34.774 3.137c-.061-.131-.131-.255-.19-.386a10.949 10.949 0 0 1-.419-1.144c1.998-1.439 16.394-10.917 38.979-3.482Zm-32.255 15.086a9.612 9.612 0 0 0-2.822-4.973 17.4 17.4 0 0 1-1.223-1.552 78.884 78.884 0 0 0 8.7-2.441.685.685 0 0 0-.488-1.281 83.254 83.254 0 0 1-9.022 2.5 21.143 21.143 0 0 1-.64-1.1 37.744 37.744 0 0 1 33.183-3.278c-.189 2.1-1.119 10.359-4.318 15.644ZM203.4 109.9a16.816 16.816 0 0 0 1.811 3.353c.02 1.42-.084 4.863-.811 6.349a3.052 3.052 0 0 1-2.045 1.827 4.091 4.091 0 0 1-3.095-.765 1.847 1.847 0 0 1-.461-1.477 3.179 3.179 0 0 1 1.834-.364.754.754 0 0 0 .63-.361 7.742 7.742 0 0 0 .472-3.172v-.006c.006-.565 0-1.146-.007-1.73a19.409 19.409 0 0 1 .061-2.722c.157-.974 1.359-.947 1.611-.932Zm-5.892 8.869-.695-.1c.828-1.236 1.846-2.715 3.538-2.8a8.412 8.412 0 0 1-.167 1.591c-.852.022-2.347.24-2.675 1.305Zm2.85-5.193c0 .291.008.607.011.926-2.448.082-3.815 2.083-4.742 3.469a4.968 4.968 0 0 1-.889 1.136c-.784.245-1.109.055-1.287-.119-.269-.256-.314-.687-.3-1.3.048-1.99 2.064-5.528 3.657-6.416a6.75 6.75 0 0 1 3.6-.407 23.59 23.59 0 0 0-.049 2.707ZM252.47 126.2c5.741-9.99 4.416-18.862 4.353-19.255a.686.686 0 0 0-.458-.54c-11.818-3.98-21.474-3.421-28.455-1.7 2.948-2.045 7.62-4.985 11.489-6.053a.685.685 0 0 0 .479-.843.679.679 0 0 0-.843-.477c-6.4 1.764-14.525 8.14-14.867 8.41-.018.013-.014.038-.03.052a35.351 35.351 0 0 0-7.935 3.824c-.025-.174-.081-.359-.093-.527l-.017-.277a4.118 4.118 0 0 0-1-2.927 2.079 2.079 0 0 0-2.546-.493c-1.391.772-1.482 3.422-1.392 4.424.009.11.022.235.034.357a21.33 21.33 0 0 1-2.866-3.13c-.45-.591-.865-1.18-1.247-1.725-1.239-1.76-2.061-2.92-3.069-2.782-.806.116-1.109 1-1.209 1.292a8.41 8.41 0 0 0 .16 4.717 2.9 2.9 0 0 0-2.065 1 8.3 8.3 0 0 0-4.75.532c-1.979 1.1-4.3 5.14-4.36 7.581v.249l-5.19-.781a4.468 4.468 0 0 0-5.513-1.309 3.672 3.672 0 0 0-1.382-2.229 4.458 4.458 0 0 0-3.743-.4 7.372 7.372 0 0 0-.651-1.054c4.376-3.321 4.854-7.189 4.872-7.36.01-.1-.061-.188-.1-.284l.685-.418a33.816 33.816 0 0 1 5.283 1.287c.189.065 2.007.56 7.66-.656 1.384-.3 3.339-1.423 6.045-2.983 8.842-5.1 25.295-14.583 51.354-12.406a4.32 4.32 0 0 1 2.336.929c2.943 2.337 9.916 8.653 11.088 16.78a4.123 4.123 0 0 1-.163 1.787c-2.384 7.888-6.495 13.844-11.894 17.388Z"/><path d="M135.9 281.537c-.294.009-7.208.208-8.619.415a2.6 2.6 0 0 0-2.223 1.6.651.651 0 0 0-.029.169c-.069 1.662-.033 3.771.524 4.382a2.469 2.469 0 0 0 1.819.6 5.6 5.6 0 0 0 .779-.056 57.577 57.577 0 0 1 7.654-.618 1.81 1.81 0 0 0 1.892-1.555c.181-3.485-.016-3.882-.121-4.094a1.643 1.643 0 0 0-1.676-.843Zm.428 4.864c0 .055-.185.245-.563.256a56.394 56.394 0 0 0-7.854.64 2.972 2.972 0 0 1-1.313-.075 11.589 11.589 0 0 1-.2-3.315 1.383 1.383 0 0 1 1.087-.6c1.067-.159 6-.333 8.522-.406a.53.53 0 0 1 .33.049 17.669 17.669 0 0 1-.008 3.45Zm43.177 123.809a.709.709 0 0 0-.744.618c0 .04-.49 4.069-7.985 6.32a.685.685 0 0 0 .2 1.341.676.676 0 0 0 .2-.029c8.47-2.543 8.941-7.315 8.957-7.518a.68.68 0 0 0-.628-.732Zm8.08-4.41a.684.684 0 0 0 .683.655h.028a8.24 8.24 0 0 0 6.964-5.552.685.685 0 0 0-1.276-.5 6.9 6.9 0 0 1-5.746 4.683.684.684 0 0 0-.653.714Zm-14.269 5.509a2.832 2.832 0 1 0-3.79-.574 2.715 2.715 0 0 0 3.79.574Zm14.648-10.237a2.832 2.832 0 1 0-3.789-.572 2.716 2.716 0 0 0 3.789.572Zm-18.57-4.582a12.517 12.517 0 0 1 2.631-1.617 1.044 1.044 0 0 1 1.2.187c2.716 2.731 6.127 8.444 6.161 8.5a.683.683 0 0 0 .589.335.694.694 0 0 0 .35-.1.687.687 0 0 0 .239-.94c-.143-.24-3.531-5.916-6.368-8.769a2.427 2.427 0 0 0-2.764-.455 13.743 13.743 0 0 0-2.939 1.822.685.685 0 1 0 .9 1.031ZM69.26 371.286c-.1-.7-1.3-1.1-2.692-.907s-2.439.916-2.342 1.61 1.3 1.1 2.694.906 2.437-.914 2.34-1.609Z"/><path class="cls-7" d="M26.265 99.982c.974 4.862-3.284 11.785-3.284 11.785-1.516.442-3.493-2.357-3.493-2.357 4.42-3.535 4.714-9.428 4.714-9.428Z"/><path class="cls-6" d="M36.175 88.809a11.167 11.167 0 0 0-2.613-2.371A25.16 25.16 0 0 1 25.29 77.8a25.15 25.15 0 0 1-8.271 8.639 11.167 11.167 0 0 0-2.613 2.371 10.431 10.431 0 0 0 0 12.572 6.33 6.33 0 0 0 10.217 0l.667-.821.668.821a6.33 6.33 0 0 0 10.217 0 10.434 10.434 0 0 0 0-12.573Z"/><path class="cls-7" d="M25.29 100.56V77.8a25.16 25.16 0 0 0 8.272 8.639 11.167 11.167 0 0 1 2.613 2.371 10.434 10.434 0 0 1 0 12.572 6.33 6.33 0 0 1-10.217 0Zm270.321 299.457c-.974-4.861 3.284-11.784 3.284-11.784 1.516-.442 3.492 2.356 3.492 2.356-4.419 3.536-4.714 9.428-4.714 9.428Z"/><path class="cls-6" d="M285.7 411.19a11.182 11.182 0 0 0 2.612 2.371 25.16 25.16 0 0 1 8.272 8.639 25.169 25.169 0 0 1 8.272-8.639 11.167 11.167 0 0 0 2.613-2.371 10.433 10.433 0 0 0 0-12.571 6.331 6.331 0 0 0-10.218 0l-.667.821-.667-.821a6.33 6.33 0 0 0-10.217 0 10.433 10.433 0 0 0 0 12.571Z"/><path class="cls-7" d="M296.585 399.44v22.76a25.155 25.155 0 0 0-8.271-8.64 11.145 11.145 0 0 1-2.613-2.371 10.43 10.43 0 0 1 0-12.571 6.33 6.33 0 0 1 10.217 0Z"/><path class="cls-6" d="M256.889 268.622c-3.334-9.31 2.348-21.232 2.348-21.232 3.216-1.286 5.83 3.767 5.83 3.767-8.822 8.177-3.654 16.9-3.654 16.9Z"/><path class="cls-6" d="M227.309 295.935a31.037 31.037 0 0 0 7.48 6.109c5.663 3.268 16.482 10.59 23.681 22.259 7.2-11.669 18.018-18.991 23.681-22.259a31.037 31.037 0 0 0 7.48-6.109c8.04-8.9 8.04-23.472 0-32.391a19.355 19.355 0 0 0-29.251 0l-1.91 2.115-1.91-2.115a19.355 19.355 0 0 0-29.251 0c-8.04 8.919-8.04 23.488 0 32.391Z"/><path class="cls-7" d="M258.47 265.659V324.3c-7.2-11.67-18.018-18.991-23.681-22.259a31.037 31.037 0 0 1-7.48-6.109c-8.04-8.9-8.04-23.472 0-32.391a19.356 19.356 0 0 1 29.251 0Zm.495-16.775s-.571 3.45 3.389 3.365a3.505 3.505 0 0 0 3.205-1.83 3.386 3.386 0 0 0-.058-2.45 23.646 23.646 0 0 0-.976-2.693c-1.033-2.411-.172-3.788-.172-3.788s-5.153 2.996-5.388 7.396Z"/></svg>