<svg id="Layer_1" data-name="Layer 1" xmlns="http://www.w3.org/2000/svg" viewBox="0 0 321.875 500"><defs><style>.cls-2{fill:#02592d}.cls-3{fill:#ffc306}.cls-4{fill:#ef870a}.cls-5{fill:#05703d}</style></defs><path style="fill:#fff" d="M0 0h321.875v500H0z"/><path d="M268.453 481.248H45.383a26.66 26.66 0 0 1-26.63-26.63V125.1a1.25 1.25 0 0 1 2.5 0v329.52a24.156 24.156 0 0 0 24.13 24.13h223.07a1.25 1.25 0 0 1 0 2.5Zm33.42-105.09a1.25 1.25 0 0 1-1.25-1.25V45.388a24.162 24.162 0 0 0-24.13-24.14H53.423a1.25 1.25 0 0 1 0-2.5h223.07a26.665 26.665 0 0 1 26.63 26.64v329.52a1.25 1.25 0 0 1-1.25 1.25Z"/><path class="cls-2" d="m160.4 112.689.533-.629a43.388 43.388 0 0 1 9.7-8.268 60.547 60.547 0 0 1 11.741-5.892c.647-.276 1.364-.5 2.058-.721.362-.114.723-.228 1.079-.352a33.727 33.727 0 0 1 3.283-.965l3.2-.806 3.353-.613a42.923 42.923 0 0 1 4.608-.639 83.43 83.43 0 0 0 2.077-.228c1.507-.131 2.991-.182 4.427-.231.779-.027 1.558-.054 2.334-.092l.152 1.425c-.791.074-1.583.134-2.375.2-1.393.107-2.834.219-4.223.4-.66.112-1.363.214-2.064.316a39.492 39.492 0 0 0-4.321.789l-3.231.736-3.05.915a30.057 30.057 0 0 0-2.979 1.025c-.35.139-.715.273-1.08.406-.646.236-1.256.458-1.828.734a55.507 55.507 0 0 0-10.7 6.012 39.073 39.073 0 0 0-8.306 7.812l-.454.6Z"/><path class="cls-2" d="M161.649 112.468a42.98 42.98 0 0 1 9.528-8.116 59.456 59.456 0 0 1 11.555-5.8c1-.426 2.083-.707 3.119-1.067a32.564 32.564 0 0 1 3.175-.934l3.221-.812 3.286-.6c2.172-.464 4.422-.581 6.627-.857 2.221-.194 4.462-.206 6.682-.318-2.217.207-4.443.314-6.637.6-2.178.369-4.392.577-6.512 1.13l-3.2.727-3.116.935a30.987 30.987 0 0 0-3.052 1.048c-.991.4-2.028.712-2.978 1.172a56.077 56.077 0 0 0-10.829 6.088 39.905 39.905 0 0 0-8.476 7.975Zm-1.249 47.483.533-.629a43.382 43.382 0 0 1 9.7-8.267 60.518 60.518 0 0 1 11.741-5.892c.647-.276 1.364-.5 2.058-.721.362-.114.723-.228 1.079-.352a32.712 32.712 0 0 1 3.284-.965l3.2-.806 3.353-.614a42.834 42.834 0 0 1 4.617-.639c.692-.071 1.382-.141 2.069-.227 1.506-.132 2.99-.182 4.426-.231.779-.027 1.558-.054 2.334-.092l.152 1.425c-.791.073-1.583.134-2.375.2-1.393.107-2.834.219-4.223.4-.66.112-1.363.214-2.064.316a39.492 39.492 0 0 0-4.321.789l-3.232.735-3.049.916a30.362 30.362 0 0 0-2.98 1.024c-.351.14-.719.275-1.086.409-.643.236-1.251.457-1.821.732a55.507 55.507 0 0 0-10.7 6.012 39.073 39.073 0 0 0-8.306 7.812l-.454.6Z"/><path class="cls-2" d="M161.649 159.731a42.98 42.98 0 0 1 9.528-8.116 59.4 59.4 0 0 1 11.555-5.8c1-.426 2.083-.707 3.119-1.067a32.564 32.564 0 0 1 3.175-.934l3.221-.812 3.286-.6c2.172-.465 4.422-.581 6.627-.857 2.221-.194 4.462-.206 6.682-.318-2.217.207-4.443.314-6.637.6-2.178.37-4.392.578-6.512 1.131l-3.2.727-3.116.934a30.992 30.992 0 0 0-3.052 1.049c-.991.4-2.028.712-2.978 1.171a56.081 56.081 0 0 0-10.829 6.089 39.905 39.905 0 0 0-8.476 7.975Zm-1.249 47.078.533-.629a43.357 43.357 0 0 1 9.7-8.267 60.547 60.547 0 0 1 11.741-5.892c.647-.276 1.364-.5 2.058-.722.362-.113.723-.227 1.079-.351a32.716 32.716 0 0 1 3.284-.966l3.2-.805 3.353-.614a42.586 42.586 0 0 1 4.617-.639c.692-.071 1.382-.141 2.069-.227 1.506-.132 2.99-.183 4.426-.232.779-.027 1.558-.053 2.334-.091l.152 1.424c-.791.074-1.583.135-2.375.2-1.393.107-2.834.219-4.223.4-.66.113-1.363.215-2.064.317a39.492 39.492 0 0 0-4.321.789l-3.232.734-3.049.917a30.621 30.621 0 0 0-2.98 1.023c-.351.141-.719.276-1.086.41-.643.235-1.251.457-1.821.732a55.507 55.507 0 0 0-10.7 6.012 39.1 39.1 0 0 0-8.306 7.811l-.454.6Z"/><path class="cls-2" d="M161.649 206.588a42.949 42.949 0 0 1 9.528-8.115 59.344 59.344 0 0 1 11.555-5.8c1-.426 2.083-.707 3.119-1.067a32.288 32.288 0 0 1 3.175-.934l3.221-.812 3.286-.6c2.172-.465 4.422-.581 6.627-.857 2.221-.194 4.462-.206 6.682-.318-2.217.207-4.443.314-6.637.6-2.178.37-4.392.578-6.512 1.13l-3.2.728-3.116.934a30.992 30.992 0 0 0-3.052 1.049c-.991.4-2.028.712-2.978 1.171a56.081 56.081 0 0 0-10.829 6.089 39.905 39.905 0 0 0-8.476 7.975Zm-4.558-92.568a39.06 39.06 0 0 0-8.31-7.814 55.264 55.264 0 0 0-10.65-5.989 20.176 20.176 0 0 0-1.873-.755 44.37 44.37 0 0 1-1.09-.409 29.664 29.664 0 0 0-2.944-1.015l-3.141-.94-3.134-.71a39.534 39.534 0 0 0-4.351-.8c-.7-.1-1.406-.2-2.105-.322-1.349-.176-2.79-.288-4.183-.4-.792-.062-1.585-.122-2.376-.2l.152-1.425c.776.038 1.555.065 2.334.092 1.436.049 2.921.1 4.388.227.729.091 1.423.162 2.117.232a42.832 42.832 0 0 1 4.639.646l3.254.591 3.288.827a33.6 33.6 0 0 1 3.248.955c.367.128.728.242 1.09.356.694.218 1.411.445 2.1.739a60.3 60.3 0 0 1 11.69 5.871 43.373 43.373 0 0 1 9.707 8.271l.533.629-3.933 1.931Z"/><path class="cls-2" d="M160.227 112.468a43 43 0 0 0-9.528-8.116 59.456 59.456 0 0 0-11.555-5.8c-1-.426-2.084-.707-3.12-1.067a32.482 32.482 0 0 0-3.175-.934l-3.22-.812-3.286-.6c-2.172-.464-4.422-.581-6.628-.857-2.22-.194-4.461-.206-6.682-.318 2.217.207 4.443.314 6.637.6 2.179.369 4.392.577 6.512 1.13l3.2.727 3.116.935a30.969 30.969 0 0 1 3.051 1.048c.992.4 2.028.712 2.979 1.172a56.069 56.069 0 0 1 10.828 6.088 39.887 39.887 0 0 1 8.477 7.975Zm-3.136 48.815a39.06 39.06 0 0 0-8.31-7.814 55.264 55.264 0 0 0-10.65-5.989c-.615-.3-1.223-.517-1.866-.753a42.74 42.74 0 0 1-1.1-.413 30.273 30.273 0 0 0-2.943-1.013l-3.141-.941-3.134-.709a39.534 39.534 0 0 0-4.351-.8c-.7-.1-1.406-.2-2.105-.322-1.349-.176-2.79-.288-4.183-.4-.792-.062-1.585-.123-2.376-.2l.152-1.425c.776.038 1.555.065 2.334.092 1.436.049 2.921.1 4.388.227.725.09 1.416.161 2.107.231a42.988 42.988 0 0 1 4.648.645l3.255.593 3.288.827a32.392 32.392 0 0 1 3.249.956c.366.127.727.241 1.089.355.694.218 1.411.445 2.1.739a60.272 60.272 0 0 1 11.69 5.871 43.345 43.345 0 0 1 9.707 8.27l.533.629-3.932 1.932Z"/><path class="cls-2" d="M160.227 159.731a43 43 0 0 0-9.528-8.116 59.4 59.4 0 0 0-11.555-5.8c-1-.426-2.084-.707-3.12-1.067a32.482 32.482 0 0 0-3.175-.934l-3.22-.812-3.286-.6c-2.172-.465-4.422-.581-6.628-.857-2.22-.194-4.461-.206-6.682-.318 2.217.207 4.443.314 6.637.6 2.179.37 4.392.578 6.512 1.131l3.2.727 3.116.934a30.974 30.974 0 0 1 3.051 1.049c.992.4 2.028.712 2.979 1.171a56.073 56.073 0 0 1 10.828 6.089 39.887 39.887 0 0 1 8.477 7.975Zm-3.136 48.409a39.083 39.083 0 0 0-8.31-7.813 55.323 55.323 0 0 0-10.65-5.99c-.615-.295-1.223-.517-1.866-.752a39.345 39.345 0 0 1-1.1-.414 30.535 30.535 0 0 0-2.943-1.012l-3.141-.942-3.134-.708a39.534 39.534 0 0 0-4.351-.8c-.7-.1-1.406-.2-2.105-.323-1.349-.175-2.79-.287-4.183-.394-.792-.062-1.585-.123-2.376-.2l.152-1.424c.776.038 1.555.064 2.334.091 1.436.049 2.921.1 4.388.228.725.09 1.416.161 2.107.231a42.741 42.741 0 0 1 4.648.645l3.255.593 3.288.826a32.4 32.4 0 0 1 3.249.957c.366.127.727.241 1.089.354.694.219 1.411.446 2.1.74a60.3 60.3 0 0 1 11.69 5.871 43.319 43.319 0 0 1 9.707 8.27l.533.629-3.932 1.931Z"/><path class="cls-2" d="M160.227 206.588a42.972 42.972 0 0 0-9.528-8.115 59.344 59.344 0 0 0-11.555-5.8c-1-.426-2.084-.707-3.12-1.067a32.208 32.208 0 0 0-3.175-.934l-3.22-.812-3.286-.6c-2.172-.465-4.422-.581-6.628-.857-2.22-.194-4.461-.206-6.682-.318 2.217.207 4.443.314 6.637.6 2.179.37 4.392.578 6.512 1.13l3.2.728 3.116.934a30.974 30.974 0 0 1 3.051 1.049c.992.4 2.028.712 2.979 1.171a56.073 56.073 0 0 1 10.828 6.089 39.887 39.887 0 0 1 8.477 7.975Z"/><path class="cls-3" d="M165.045 218.794h-8.219a.428.428 0 0 1 .044-.051l1.238-156.351h5.656L165 218.743a.221.221 0 0 0 .045.051Z"/><path class="cls-4" d="M165.045 218.794h-4.109V62.392h2.828L165 218.743a.221.221 0 0 0 .045.051Z"/><path class="cls-5" d="M114.925 75.209c-6.44-4.921-16.959-4.921-23.388 0a20.044 20.044 0 0 0-4.41 4.577 45.606 45.606 0 0 1-16.072 14.49 45.616 45.616 0 0 1 16.072 14.491 20.068 20.068 0 0 0 4.41 4.578c6.429 4.92 16.948 4.92 23.388 0s6.428-12.979 0-17.9l-1.525-1.169 1.528-1.168c6.425-4.921 6.425-12.971-.003-17.899Zm0 93.81c-6.44-4.92-16.959-4.92-23.388 0a20.064 20.064 0 0 0-4.41 4.577 45.607 45.607 0 0 1-16.072 14.491 45.616 45.616 0 0 1 16.072 14.491 20.044 20.044 0 0 0 4.41 4.577c6.429 4.92 16.948 4.92 23.388 0s6.428-12.979 0-17.9l-1.528-1.169 1.528-1.169c6.428-4.917 6.428-12.969 0-17.898Z"/><path class="cls-5" d="M114.925 122.114c-6.44-4.92-16.959-4.92-23.388 0a20.044 20.044 0 0 0-4.41 4.577 45.616 45.616 0 0 1-16.072 14.491 45.6 45.6 0 0 1 16.072 14.491 20.064 20.064 0 0 0 4.41 4.577c6.429 4.92 16.948 4.92 23.388 0s6.428-12.979 0-17.9l-1.528-1.168 1.528-1.169c6.428-4.92 6.428-12.971 0-17.899Zm92.026-8.769c6.439 4.92 16.958 4.92 23.387 0a20.026 20.026 0 0 0 4.41-4.578 45.616 45.616 0 0 1 16.072-14.491 45.606 45.606 0 0 1-16.072-14.49 20 20 0 0 0-4.41-4.577c-6.429-4.921-16.948-4.921-23.387 0s-6.429 12.978 0 17.9l1.527 1.168-1.527 1.169c-6.429 4.92-6.429 12.97 0 17.899Zm27.797 60.255a20.022 20.022 0 0 0-4.41-4.577c-6.429-4.92-16.948-4.92-23.387 0s-6.429 12.979 0 17.9l1.527 1.169-1.527 1.169c-6.429 4.92-6.429 12.97 0 17.9s16.958 4.92 23.387 0a20 20 0 0 0 4.41-4.577 45.616 45.616 0 0 1 16.072-14.491 45.607 45.607 0 0 1-16.072-14.493Z"/><path class="cls-5" d="M234.748 126.691a20 20 0 0 0-4.41-4.577c-6.429-4.92-16.948-4.92-23.387 0s-6.429 12.979 0 17.9l1.527 1.169-1.527 1.168c-6.429 4.921-6.429 12.971 0 17.9s16.958 4.92 23.387 0a20.022 20.022 0 0 0 4.41-4.577 45.6 45.6 0 0 1 16.072-14.491 45.616 45.616 0 0 1-16.072-14.492Z"/><path class="cls-3" d="M158.273 217.363s-3.435 1.589-1.227 5.9 8.832 7.265 14.72 6.811c0 0-2.126-.53-3.108-4.162s-3.925-10.744-10.385-8.549Z"/><ellipse class="cls-4" cx="161.548" cy="223.219" rx="2.137" ry="3.775" transform="rotate(-46.958 161.546 223.217)"/><path class="cls-2" d="M113.4 94.277H71.055a45.606 45.606 0 0 1 16.072 14.49 20 20 0 0 0 4.41 4.577c6.429 4.921 16.948 4.921 23.387 0s6.429-12.978 0-17.9Zm0 93.81H71.055a45.607 45.607 0 0 1 16.072 14.491 20.022 20.022 0 0 0 4.41 4.577c6.429 4.92 16.948 4.92 23.387 0s6.429-12.979 0-17.9Zm0-46.905H71.055a45.6 45.6 0 0 1 16.072 14.491 20.022 20.022 0 0 0 4.41 4.577c6.429 4.92 16.948 4.92 23.387 0s6.429-12.979 0-17.9Zm95.078-46.905h42.342a45.606 45.606 0 0 0-16.072 14.49 20 20 0 0 1-4.41 4.577c-6.429 4.921-16.948 4.921-23.387 0s-6.429-12.978 0-17.9Zm0 93.81h42.342a45.607 45.607 0 0 0-16.072 14.491 20.022 20.022 0 0 1-4.41 4.577c-6.429 4.92-16.948 4.92-23.387 0s-6.429-12.979 0-17.9Zm0-46.905h42.342a45.6 45.6 0 0 0-16.072 14.491 20.022 20.022 0 0 1-4.41 4.577c-6.429 4.92-16.948 4.92-23.387 0s-6.429-12.979 0-17.9Z"/><path class="cls-2" d="M113.4 94.277H71.055a45.606 45.606 0 0 1 16.072 14.49 20 20 0 0 0 4.41 4.577c6.429 4.921 16.948 4.921 23.387 0s6.429-12.978 0-17.9Zm0 93.81H71.055a45.607 45.607 0 0 1 16.072 14.491 20.022 20.022 0 0 0 4.41 4.577c6.429 4.92 16.948 4.92 23.387 0s6.429-12.979 0-17.9Zm0-46.905H71.055a45.6 45.6 0 0 1 16.072 14.491 20.022 20.022 0 0 0 4.41 4.577c6.429 4.92 16.948 4.92 23.387 0s6.429-12.979 0-17.9Zm95.078-46.905h42.342a45.606 45.606 0 0 0-16.072 14.49 20 20 0 0 1-4.41 4.577c-6.429 4.921-16.948 4.921-23.387 0s-6.429-12.978 0-17.9Zm0 93.81h42.342a45.607 45.607 0 0 0-16.072 14.491 20.022 20.022 0 0 1-4.41 4.577c-6.429 4.92-16.948 4.92-23.387 0s-6.429-12.979 0-17.9Zm0-46.905h42.342a45.6 45.6 0 0 0-16.072 14.491 20.022 20.022 0 0 1-4.41 4.577c-6.429 4.92-16.948 4.92-23.387 0s-6.429-12.979 0-17.9Z"/><path class="cls-5" d="M180.952 50.251a20.16 20.16 0 0 0-4.8-4.109 44.974 44.974 0 0 1-15.215-14.972 44.964 44.964 0 0 1-15.21 14.972 20.16 20.16 0 0 0-4.8 4.109 17.254 17.254 0 0 0 0 21.787 12.068 12.068 0 0 0 18.788 0l1.226-1.422 1.227 1.422a12.068 12.068 0 0 0 18.788 0 17.254 17.254 0 0 0-.004-21.787Z"/><path class="cls-2" d="M160.938 70.616V31.17a44.964 44.964 0 0 0 15.21 14.972 20.184 20.184 0 0 1 4.805 4.109 17.258 17.258 0 0 1 0 21.788 12.069 12.069 0 0 1-18.788 0Zm.539 316.695-.533.629a43.388 43.388 0 0 1-9.7 8.268A60.547 60.547 0 0 1 139.5 402.1c-.647.276-1.364.5-2.058.721-.362.114-.723.228-1.079.352a33.727 33.727 0 0 1-3.283.965l-3.2.806-3.353.613a42.672 42.672 0 0 1-4.608.639 83.43 83.43 0 0 0-2.077.228c-1.507.131-2.991.182-4.427.231-.779.027-1.558.054-2.334.092l-.152-1.425c.791-.073 1.584-.134 2.375-.2 1.393-.107 2.834-.219 4.223-.4.66-.112 1.363-.214 2.065-.316a39.474 39.474 0 0 0 4.32-.789l3.231-.736 3.05-.915a30.057 30.057 0 0 0 2.979-1.025c.35-.139.715-.273 1.08-.406.646-.236 1.256-.458 1.828-.734a55.507 55.507 0 0 0 10.7-6.012 39.073 39.073 0 0 0 8.306-7.812l.454-.6Z"/><path class="cls-2" d="M160.226 387.532a42.98 42.98 0 0 1-9.528 8.116 59.476 59.476 0 0 1-11.554 5.8c-1 .426-2.084.707-3.12 1.067a32.564 32.564 0 0 1-3.175.934l-3.221.812-3.286.6c-2.171.464-4.422.581-6.627.857-2.221.194-4.461.206-6.682.318 2.217-.207 4.443-.314 6.637-.6 2.178-.369 4.392-.577 6.512-1.13l3.2-.727 3.116-.935a30.9 30.9 0 0 0 3.052-1.048c.991-.4 2.028-.712 2.978-1.171a56.134 56.134 0 0 0 10.829-6.089 39.881 39.881 0 0 0 8.476-7.975Zm1.251-47.483-.533.629a43.382 43.382 0 0 1-9.7 8.267 60.518 60.518 0 0 1-11.741 5.892c-.647.276-1.364.5-2.058.721-.362.114-.723.228-1.079.352a32.712 32.712 0 0 1-3.284.965l-3.2.806-3.353.614a42.834 42.834 0 0 1-4.617.639c-.692.071-1.382.141-2.069.227-1.506.132-2.99.182-4.426.231-.779.027-1.558.054-2.334.092l-.152-1.425c.791-.073 1.584-.134 2.375-.2 1.393-.107 2.834-.219 4.223-.4.66-.112 1.363-.214 2.065-.316a39.474 39.474 0 0 0 4.32-.789l3.232-.735 3.049-.916a30.362 30.362 0 0 0 2.98-1.024c.351-.14.719-.275 1.086-.409.643-.235 1.251-.457 1.821-.732a55.507 55.507 0 0 0 10.7-6.012 39.073 39.073 0 0 0 8.306-7.812l.454-.6Z"/><path class="cls-2" d="M160.226 340.27a43 43 0 0 1-9.528 8.115 59.42 59.42 0 0 1-11.554 5.8c-1 .426-2.084.707-3.12 1.067a32.564 32.564 0 0 1-3.175.934l-3.221.812-3.286.6c-2.171.465-4.422.581-6.627.857-2.221.194-4.461.206-6.682.318 2.217-.207 4.443-.314 6.637-.6 2.178-.37 4.392-.578 6.512-1.13l3.2-.728 3.116-.934a30.9 30.9 0 0 0 3.052-1.049c.991-.4 2.028-.712 2.978-1.171a56.081 56.081 0 0 0 10.829-6.089 39.881 39.881 0 0 0 8.476-7.975Zm1.251-47.079-.533.629a43.357 43.357 0 0 1-9.7 8.267 60.547 60.547 0 0 1-11.741 5.892c-.647.276-1.364.5-2.058.722-.362.114-.723.227-1.079.351a32.716 32.716 0 0 1-3.284.966l-3.2.805-3.353.614a42.586 42.586 0 0 1-4.617.639c-.692.071-1.382.141-2.069.227-1.506.132-2.99.183-4.426.232-.779.027-1.558.053-2.334.091l-.152-1.424c.791-.074 1.584-.135 2.375-.2 1.393-.107 2.834-.219 4.223-.4.66-.113 1.363-.215 2.065-.317a39.237 39.237 0 0 0 4.32-.789l3.232-.734 3.049-.917a30.356 30.356 0 0 0 2.98-1.023c.351-.141.719-.276 1.086-.41.643-.235 1.251-.457 1.821-.731a55.565 55.565 0 0 0 10.7-6.013 39.1 39.1 0 0 0 8.306-7.811l.454-.6Z"/><path class="cls-2" d="M160.226 293.412a42.949 42.949 0 0 1-9.528 8.115 59.364 59.364 0 0 1-11.554 5.8c-1 .426-2.084.707-3.12 1.067a32.568 32.568 0 0 1-3.175.935l-3.221.811-3.286.6c-2.171.465-4.422.581-6.627.857-2.221.194-4.461.206-6.682.318 2.217-.207 4.443-.314 6.637-.6 2.178-.37 4.392-.578 6.512-1.13l3.2-.728 3.116-.934a30.9 30.9 0 0 0 3.052-1.049c.991-.4 2.028-.712 2.978-1.171a56.081 56.081 0 0 0 10.829-6.089 39.881 39.881 0 0 0 8.476-7.975Zm4.558 92.568a39.06 39.06 0 0 0 8.31 7.814 55.264 55.264 0 0 0 10.65 5.989c.618.3 1.227.519 1.873.755.365.133.731.267 1.09.409a29.664 29.664 0 0 0 2.944 1.015l3.142.94 3.133.71a39.534 39.534 0 0 0 4.351.8c.7.1 1.406.2 2.105.322 1.349.176 2.79.288 4.184.395.791.062 1.584.123 2.375.2l-.152 1.425c-.776-.038-1.555-.065-2.334-.092-1.436-.049-2.921-.1-4.388-.227a88.595 88.595 0 0 0-2.117-.232 42.586 42.586 0 0 1-4.639-.646l-3.254-.591-3.288-.827a33.6 33.6 0 0 1-3.248-.955 37.283 37.283 0 0 0-1.09-.356c-.694-.218-1.411-.445-2.1-.739a60.3 60.3 0 0 1-11.69-5.871 43.373 43.373 0 0 1-9.707-8.271l-.533-.629 3.933-1.931Z"/><path class="cls-2" d="M161.648 387.532a43 43 0 0 0 9.528 8.116 59.485 59.485 0 0 0 11.555 5.8c1 .426 2.084.707 3.12 1.067a32.564 32.564 0 0 0 3.175.934l3.221.812 3.285.6c2.172.464 4.422.581 6.628.857 2.22.194 4.461.206 6.682.318-2.217-.207-4.443-.314-6.637-.6-2.179-.369-4.392-.577-6.512-1.13l-3.2-.727-3.117-.935a30.969 30.969 0 0 1-3.051-1.048c-.992-.4-2.028-.712-2.979-1.171a56.155 56.155 0 0 1-10.828-6.089 39.887 39.887 0 0 1-8.477-7.975Zm3.136-48.815a39.06 39.06 0 0 0 8.31 7.814 55.264 55.264 0 0 0 10.65 5.989c.615.3 1.223.518 1.866.753.368.134.736.269 1.1.413a30.273 30.273 0 0 0 2.943 1.013l3.142.941 3.133.709a39.534 39.534 0 0 0 4.351.8c.7.1 1.406.2 2.105.322 1.349.176 2.79.288 4.184.395.791.062 1.584.123 2.375.2l-.152 1.425c-.776-.038-1.555-.065-2.334-.092-1.436-.049-2.921-.1-4.388-.227a92.573 92.573 0 0 0-2.107-.231 42.988 42.988 0 0 1-4.648-.645l-3.255-.593-3.288-.827a32.547 32.547 0 0 1-3.249-.956 39.328 39.328 0 0 0-1.089-.355c-.694-.218-1.411-.445-2.1-.739a60.272 60.272 0 0 1-11.69-5.871 43.367 43.367 0 0 1-9.707-8.27l-.533-.629 3.933-1.932Z"/><path class="cls-2" d="M161.648 340.27a43.025 43.025 0 0 0 9.528 8.115 59.428 59.428 0 0 0 11.555 5.8c1 .426 2.084.707 3.12 1.067a32.564 32.564 0 0 0 3.175.934l3.221.812 3.285.6c2.172.465 4.422.581 6.628.857 2.22.194 4.461.206 6.682.318-2.217-.207-4.443-.314-6.637-.6-2.179-.37-4.392-.578-6.512-1.13l-3.2-.728-3.117-.934a30.974 30.974 0 0 1-3.051-1.049c-.992-.4-2.028-.712-2.979-1.171a56.1 56.1 0 0 1-10.828-6.089 39.887 39.887 0 0 1-8.477-7.975Zm3.136-48.41a39.083 39.083 0 0 0 8.31 7.813 55.323 55.323 0 0 0 10.65 5.99c.615.3 1.223.517 1.866.752.368.134.736.269 1.1.414a30.265 30.265 0 0 0 2.943 1.012l3.142.942 3.133.708a39.3 39.3 0 0 0 4.351.8c.7.1 1.406.2 2.105.323 1.349.175 2.79.287 4.184.394.791.062 1.584.123 2.375.2l-.152 1.424c-.776-.038-1.555-.064-2.334-.091-1.436-.049-2.921-.1-4.388-.228a92.573 92.573 0 0 0-2.107-.231 42.741 42.741 0 0 1-4.648-.645l-3.255-.593-3.288-.826a32.553 32.553 0 0 1-3.249-.957c-.366-.127-.727-.24-1.089-.354-.694-.219-1.411-.446-2.1-.74a60.3 60.3 0 0 1-11.69-5.871 43.341 43.341 0 0 1-9.707-8.27l-.533-.629 3.933-1.931Z"/><path class="cls-2" d="M161.648 293.412a42.972 42.972 0 0 0 9.528 8.115 59.372 59.372 0 0 0 11.555 5.8c1 .426 2.084.707 3.12 1.067a32.568 32.568 0 0 0 3.175.935l3.221.811 3.285.6c2.172.465 4.422.581 6.628.857 2.22.194 4.461.206 6.682.318-2.217-.207-4.443-.314-6.637-.6-2.179-.37-4.392-.578-6.512-1.13l-3.2-.728-3.117-.934a30.974 30.974 0 0 1-3.051-1.049c-.992-.4-2.028-.712-2.979-1.171a56.1 56.1 0 0 1-10.828-6.089 39.887 39.887 0 0 1-8.477-7.975Z"/><path class="cls-3" d="M156.83 281.206h8.219a.428.428 0 0 1-.044.051l-1.238 156.351h-5.656l-1.237-156.351a.214.214 0 0 0-.044-.051Z"/><path class="cls-4" d="M156.83 281.206h4.109v156.4h-2.828l-1.237-156.351a.214.214 0 0 0-.044-.049Z"/><path class="cls-5" d="M206.95 424.791c6.44 4.921 16.959 4.921 23.388 0a20.039 20.039 0 0 0 4.41-4.576 45.6 45.6 0 0 1 16.072-14.491 45.616 45.616 0 0 1-16.072-14.491 20.047 20.047 0 0 0-4.41-4.578c-6.429-4.919-16.948-4.919-23.388 0s-6.428 12.979 0 17.9l1.528 1.169-1.528 1.168c-6.428 4.921-6.428 12.971 0 17.899Zm0-93.81c6.44 4.92 16.959 4.92 23.388 0a20.043 20.043 0 0 0 4.41-4.577 45.616 45.616 0 0 1 16.072-14.491 45.616 45.616 0 0 1-16.072-14.491 20.043 20.043 0 0 0-4.41-4.577c-6.429-4.92-16.948-4.92-23.388 0s-6.428 12.979 0 17.9l1.528 1.169-1.528 1.169c-6.428 4.917-6.428 12.969 0 17.898Z"/><path class="cls-5" d="M206.95 377.886c6.44 4.92 16.959 4.92 23.388 0a20.023 20.023 0 0 0 4.41-4.577 45.606 45.606 0 0 1 16.072-14.49 45.607 45.607 0 0 1-16.072-14.492 20.043 20.043 0 0 0-4.41-4.577c-6.429-4.92-16.948-4.92-23.388 0s-6.428 12.979 0 17.9l1.528 1.169-1.528 1.168c-6.428 4.92-6.428 12.971 0 17.899Zm-92.026 8.769c-6.439-4.919-16.958-4.919-23.387 0a20.026 20.026 0 0 0-4.41 4.578 45.616 45.616 0 0 1-16.072 14.491 45.6 45.6 0 0 1 16.072 14.491 20.018 20.018 0 0 0 4.41 4.576c6.429 4.921 16.948 4.921 23.387 0s6.429-12.978 0-17.9l-1.527-1.168 1.527-1.169c6.429-4.92 6.429-12.97 0-17.899ZM87.127 326.4a20.022 20.022 0 0 0 4.41 4.577c6.429 4.92 16.948 4.92 23.387 0s6.429-12.979 0-17.9l-1.527-1.169 1.527-1.169c6.429-4.92 6.429-12.97 0-17.9s-16.958-4.92-23.387 0a20.022 20.022 0 0 0-4.41 4.577 45.616 45.616 0 0 1-16.072 14.491A45.616 45.616 0 0 1 87.127 326.4Z"/><path class="cls-5" d="M87.127 373.309a20 20 0 0 0 4.41 4.577c6.429 4.92 16.948 4.92 23.387 0s6.429-12.979 0-17.9l-1.527-1.168 1.527-1.169c6.429-4.921 6.429-12.971 0-17.9s-16.958-4.92-23.387 0a20.022 20.022 0 0 0-4.41 4.577 45.607 45.607 0 0 1-16.072 14.492 45.606 45.606 0 0 1 16.072 14.491Z"/><path class="cls-3" d="M163.6 282.637s3.435-1.589 1.227-5.9-8.832-7.265-14.72-6.811c0 0 2.127.53 3.108 4.162s3.927 10.744 10.385 8.549Z"/><ellipse class="cls-4" cx="160.327" cy="276.781" rx="2.137" ry="3.775" transform="rotate(-46.958 160.325 276.78)"/><path class="cls-2" d="M208.478 405.724h42.342a45.616 45.616 0 0 1-16.072-14.491 20 20 0 0 0-4.41-4.577c-6.429-4.921-16.948-4.921-23.387 0s-6.429 12.978 0 17.9Zm0-93.811h42.342a45.607 45.607 0 0 1-16.072-14.491 20.022 20.022 0 0 0-4.41-4.577c-6.429-4.92-16.948-4.92-23.387 0s-6.429 12.979 0 17.9Zm0 46.905h42.342a45.6 45.6 0 0 1-16.072-14.491 20.042 20.042 0 0 0-4.41-4.577c-6.429-4.92-16.948-4.92-23.387 0s-6.429 12.979 0 17.9ZM113.4 405.724H71.055a45.616 45.616 0 0 0 16.072-14.491 20 20 0 0 1 4.41-4.577c6.429-4.921 16.948-4.921 23.387 0s6.429 12.978 0 17.9Zm0-93.811H71.055a45.607 45.607 0 0 0 16.072-14.491 20.022 20.022 0 0 1 4.41-4.577c6.429-4.92 16.948-4.92 23.387 0s6.429 12.979 0 17.9Zm0 46.905H71.055a45.6 45.6 0 0 0 16.072-14.491 20.042 20.042 0 0 1 4.41-4.577c6.429-4.92 16.948-4.92 23.387 0s6.429 12.979 0 17.9Z"/><path class="cls-2" d="M208.478 405.724h42.342a45.616 45.616 0 0 1-16.072-14.491 20 20 0 0 0-4.41-4.577c-6.429-4.921-16.948-4.921-23.387 0s-6.429 12.978 0 17.9Zm0-93.811h42.342a45.607 45.607 0 0 1-16.072-14.491 20.022 20.022 0 0 0-4.41-4.577c-6.429-4.92-16.948-4.92-23.387 0s-6.429 12.979 0 17.9Zm0 46.905h42.342a45.6 45.6 0 0 1-16.072-14.491 20.042 20.042 0 0 0-4.41-4.577c-6.429-4.92-16.948-4.92-23.387 0s-6.429 12.979 0 17.9ZM113.4 405.724H71.055a45.616 45.616 0 0 0 16.072-14.491 20 20 0 0 1 4.41-4.577c6.429-4.921 16.948-4.921 23.387 0s6.429 12.978 0 17.9Zm0-93.811H71.055a45.607 45.607 0 0 0 16.072-14.491 20.022 20.022 0 0 1 4.41-4.577c6.429-4.92 16.948-4.92 23.387 0s6.429 12.979 0 17.9Zm0 46.905H71.055a45.6 45.6 0 0 0 16.072-14.491 20.042 20.042 0 0 1 4.41-4.577c6.429-4.92 16.948-4.92 23.387 0s6.429 12.979 0 17.9Z"/><path class="cls-5" d="M140.923 449.749a20.16 20.16 0 0 0 4.8 4.109 44.974 44.974 0 0 1 15.211 14.972 44.964 44.964 0 0 1 15.21-14.972 20.16 20.16 0 0 0 4.8-4.109 17.254 17.254 0 0 0 0-21.787 12.068 12.068 0 0 0-18.788 0l-1.226 1.422-1.227-1.422a12.068 12.068 0 0 0-18.788 0 17.254 17.254 0 0 0 .008 21.787Z"/><path class="cls-2" d="M160.938 429.384v39.446a44.974 44.974 0 0 0-15.211-14.972 20.16 20.16 0 0 1-4.8-4.109 17.255 17.255 0 0 1 0-21.788 12.069 12.069 0 0 1 18.788 0Z"/><path d="M13.776 21.167h30.617L18.567 70.653l-4-2.048 22.289-42.844h-23.08ZM308.1 478.833h-30.618l25.826-49.486 4 2.048-22.287 42.844H308.1Z"/><path class="cls-2" d="M26.264 99.982c.975 4.862-3.283 11.785-3.283 11.785-1.516.442-3.493-2.357-3.493-2.357 4.419-3.535 4.714-9.428 4.714-9.428Z"/><path class="cls-5" d="M36.174 88.809a11.163 11.163 0 0 0-2.612-2.371A25.16 25.16 0 0 1 25.29 77.8a25.16 25.16 0 0 1-8.272 8.639 11.182 11.182 0 0 0-2.612 2.371 10.431 10.431 0 0 0 0 12.572 6.33 6.33 0 0 0 10.217 0l.667-.821.667.821a6.33 6.33 0 0 0 10.217 0 10.431 10.431 0 0 0 0-12.573Z"/><path class="cls-2" d="M25.29 100.56V77.8a25.16 25.16 0 0 0 8.272 8.639 11.163 11.163 0 0 1 2.612 2.371 10.431 10.431 0 0 1 0 12.572 6.33 6.33 0 0 1-10.217 0Zm270.321 299.457c-.975-4.861 3.283-11.784 3.283-11.784 1.516-.442 3.493 2.356 3.493 2.356-4.419 3.536-4.714 9.428-4.714 9.428Z"/><path class="cls-5" d="M285.7 411.19a11.163 11.163 0 0 0 2.612 2.371 25.169 25.169 0 0 1 8.272 8.639 25.169 25.169 0 0 1 8.272-8.639 11.182 11.182 0 0 0 2.612-2.371 10.43 10.43 0 0 0 0-12.571 6.33 6.33 0 0 0-10.217 0l-.667.821-.667-.821a6.33 6.33 0 0 0-10.217 0 10.43 10.43 0 0 0 0 12.571Z"/><path class="cls-2" d="M296.585 399.44v22.76a25.165 25.165 0 0 0-8.272-8.64 11.141 11.141 0 0 1-2.612-2.371 10.43 10.43 0 0 1 0-12.571 6.33 6.33 0 0 1 10.217 0Z"/></svg>