<svg id="Layer_1" data-name="Layer 1" xmlns="http://www.w3.org/2000/svg" viewBox="0 0 321.875 500"><defs><style>.cls-1{fill:#fff}.cls-2{fill:#099bdb}.cls-3{fill:#d90000}.cls-4{fill:#a50404}.cls-5{fill:#05703d}.cls-6{fill:#02592d}.cls-7{fill:#ffb200}.cls-8{fill:#f9c9af}.cls-9{fill:#ff7f00}.cls-10{fill:#383838}</style></defs><path class="cls-1" d="M0 0h321.875v500H0z"/><path d="M268.453 481.248H45.383a26.66 26.66 0 0 1-26.63-26.63V125.1a1.25 1.25 0 0 1 2.5 0v329.52a24.157 24.157 0 0 0 24.13 24.13h223.07a1.25 1.25 0 0 1 0 2.5Zm33.42-105.09a1.25 1.25 0 0 1-1.25-1.25V45.388a24.162 24.162 0 0 0-24.13-24.14H53.423a1.25 1.25 0 0 1 0-2.5h223.07a26.665 26.665 0 0 1 26.63 26.64v329.52a1.25 1.25 0 0 1-1.25 1.25Z"/><path class="cls-2" d="M47.162 109.018a12.9 12.9 0 0 1 7.458 0c3.935 1.243 6.007 3.315 12.429 3.107s13.018 6.965 13.759 17.155l-.978.836s-.974-5.769-8.017-5.769-14.5-1.035-17.4-7.457-7.251-7.872-7.251-7.872Z"/><path class="cls-3" d="M121.115 114c-13.257-2.382-21.336 3.418-26.826 7.457a22.468 22.468 0 0 1-6.321 3.5c3.3-5.784 5.6-13.759 5.251-24.735L90.25 90.49l-2.279 1.864.829 7.872s4.971 29.157-20.439 34.051l.847 5.389a29.863 29.863 0 0 0 16-10.606c4.385-.8 9.082 1.465 9.082 1.465 15.728 4.074 24.444-7.719 26.619-11.155s7.354-4.784 7.354-4.784a26.716 26.716 0 0 1-7.148-.586Z"/><path class="cls-4" d="M68.361 134.277s-1.8-.078-3.039 2.408-4.971 4.558-4.971 4.558 6.767 1.092 9.943-2.561c0 0 2.072-3.775-1.933-4.405Z"/><path class="cls-5" d="M124.228 65.959a33.046 33.046 0 0 0-7.959-6.5c-6.026-3.478-17.538-11.268-25.2-23.686-7.66 12.418-19.169 20.208-25.198 23.686a33.046 33.046 0 0 0-7.959 6.5c-8.556 9.475-8.556 24.977 0 34.468a20.6 20.6 0 0 0 31.126 0l2.032-2.251 2.033 2.251a20.6 20.6 0 0 0 31.125 0c8.556-9.491 8.556-24.993 0-34.468Z"/><path class="cls-6" d="M91.07 98.176v-62.4c7.661 12.418 19.173 20.208 25.2 23.686a33.046 33.046 0 0 1 7.959 6.5c8.556 9.475 8.556 24.977 0 34.468a20.6 20.6 0 0 1-31.125 0Z"/><path class="cls-2" d="M274.713 390.981a12.9 12.9 0 0 1-7.458 0c-3.936-1.242-6.007-3.314-12.429-3.107s-13.019-6.964-13.76-17.154l.979-.836s.973 5.768 8.017 5.768 14.5 1.036 17.4 7.458 7.251 7.871 7.251 7.871Z"/><path class="cls-3" d="M200.759 386c13.258 2.382 21.337-3.418 26.826-7.458a22.431 22.431 0 0 1 6.322-3.5c-3.3 5.784-5.6 13.758-5.251 24.734l2.969 9.737 2.279-1.865-.829-7.872s-4.972-29.157 20.439-34.051l-.847-5.389a29.87 29.87 0 0 0-16 10.606c-4.385.8-9.083-1.464-9.083-1.464-15.728-4.075-24.444 7.719-26.619 11.155s-7.353 4.784-7.353 4.784a26.712 26.712 0 0 1 7.147.583Z"/><path class="cls-4" d="M253.514 365.723s1.795.077 3.038-2.409 4.972-4.557 4.972-4.557-6.767-1.093-9.943 2.561c0 0-2.072 3.775 1.933 4.405Z"/><path class="cls-5" d="M197.646 434.04a33 33 0 0 0 7.96 6.5c6.025 3.478 17.538 11.269 25.2 23.686 7.661-12.417 19.174-20.208 25.2-23.686a32.984 32.984 0 0 0 7.96-6.5c8.556-9.474 8.556-24.977 0-34.467a20.6 20.6 0 0 0-31.126 0l-2.033 2.251-2.032-2.251a20.6 20.6 0 0 0-31.126 0c-8.558 9.49-8.558 24.993-.003 34.467Z"/><path class="cls-6" d="M230.8 401.823v62.4c-7.66-12.418-19.173-20.209-25.2-23.687a33.027 33.027 0 0 1-7.96-6.5c-8.556-9.474-8.556-24.977 0-34.467a20.6 20.6 0 0 1 31.126 0Z"/><path d="M10.317 22.167h5.046v18.57l19.781-18.57h6.644L18.02 44.37l25.618 27.283H37.05L15.363 48.6v23.05h-5.046Zm301.241 455.666h-5.046v-18.57l-19.781 18.57h-6.644l23.768-22.2-25.618-27.283h6.588l21.687 23.05v-23.05h5.046Z"/><path class="cls-5" d="M160.022 250.965a15.277 15.277 0 0 1 6.445-2.469 10.722 10.722 0 0 0-4.111.227 3.871 3.871 0 0 0-.5.309 15.25 15.25 0 0 1-6.439 2.469 10.865 10.865 0 0 0 4.107-.226 4.118 4.118 0 0 0 .498-.31Z"/><path class="cls-7" d="M105.985 192.141a99.42 99.42 0 0 0-4.389 2.645 40.212 40.212 0 0 1 21.035 9.455 17.389 17.389 0 0 0 2.711-3.509c.031-.052.092-.059.132-.1-.077-.161-.16-.308-.236-.473a52.8 52.8 0 0 0-6.285-9.963.247.247 0 0 1-.029-.006 22.988 22.988 0 0 0-5.789-1.71c-4.696 2.279-7.122 3.645-7.15 3.661Z"/><path class="cls-3" d="M158.714 225.392a17.169 17.169 0 0 1 4.351 1.17c-.486-22.608 4.233-47.575 8.011-63.678a39.576 39.576 0 0 1-4.977-.808c-3.708 15.608-8.362 40.386-7.385 63.316Zm11.454-78.613c-.478 1.573-1.968 6.616-3.726 13.87a38.077 38.077 0 0 0 4.976.786c1.746-7.312 3.242-12.588 3.846-14.656Z"/><path class="cls-7" d="M140.7 206.49a2.115 2.115 0 0 0-.4-.036 5.129 5.129 0 0 0-2.683.965 5.4 5.4 0 0 0-1.782 1.918 1.012 1.012 0 0 0 1.12 1.645 5.4 5.4 0 0 0 2.438-.953c1.6-1.089 2.324-2.593 1.905-3.207a.88.88 0 0 0-.598-.332Z"/><path class="cls-5" d="M127.574 181.9a124.961 124.961 0 0 0 8.335 11.777c3.408 4.271 4.786 7.836 4.095 10.6a4.614 4.614 0 0 1-.31.761 4.053 4.053 0 0 1 1.287 0 2.334 2.334 0 0 1 1.55.955 2.386 2.386 0 0 1 .272 1.945 8.14 8.14 0 0 1 3.583.8 9.852 9.852 0 0 1-2.619-6.651 10.508 10.508 0 0 1 7.863-9.894 8.774 8.774 0 0 1-3.681-7.053 9.3 9.3 0 0 1 7.461-8.8 8.079 8.079 0 0 1-2.588-5.856c0-4.815 4.433-8.733 9.885-8.733a11.255 11.255 0 0 1 1.9.18l.049-.211a32.148 32.148 0 0 1-11.733-5.763c-6.372 12.411-17.45 22.162-25.349 25.943Zm-11.258 5.062c-.331.155-.641.3-.956.451.622.152 1.21.323 1.773.51-.272-.323-.544-.644-.817-.961Z"/><path class="cls-7" d="M142.056 209.487a7.05 7.05 0 0 1-4.113 2.77 7.3 7.3 0 0 0 .54 7.608c2.225 3.27 6.372 4.344 9.241 2.392s3.386-6.2 1.161-9.474a7.309 7.309 0 0 0-6.829-3.296Zm-2.001-156.509h-.092a2.745 2.745 0 0 0-2.071.863 3.356 3.356 0 0 0 .627 4.654 3.94 3.94 0 0 0 2.527 1.061 2.833 2.833 0 0 0 2.162-.863 2.729 2.729 0 0 0 .685-1.991 4.081 4.081 0 0 0-3.838-3.724Zm78.095 1.258a3.349 3.349 0 0 0-.2 4.689 2.926 2.926 0 0 0 1.991.685 4.081 4.081 0 0 0 3.724-3.839 2.763 2.763 0 0 0-.863-2.162 3.357 3.357 0 0 0-4.652.627Z"/><path class="cls-3" d="M213.262 67.57c1.71 4.415 5.176 16.782-4.838 25.35q1.047.387 2.092.812c1.242-.794 6.113-4.242 7.551-10.2 1.145-4.752-.122-9.986-3.748-15.561-.354-.144-.705-.271-1.057-.401Z"/><path class="cls-7" d="M151.63 96.744c4.442-1.693 27.99-9.607 57 .07l.931-1.86c-26.325-10.5-54.149-2.236-58.771-.722ZM148.87 64.1c.013 0 .022-.009.035-.011 7.247-2.185 31.389-8.116 58.36-.114.015.007.03.006.045.013 1.594.474 3.2.988 4.806 1.563h.01c.759.271 1.519.558 2.281.853a34.526 34.526 0 0 1 3.365-5.824 4.01 4.01 0 0 1-.822-.564c-1.833-1.671-1.787-4.716.1-6.789s4.922-2.392 6.753-.723a4.054 4.054 0 0 1 .7.873 33.259 33.259 0 0 1 8.239-4.946 11.938 11.938 0 0 0-13.024.784.734.734 0 0 1-.759.043c-.051-.021-5.231-2.66-9.033-.292a4.754 4.754 0 0 0-2.09 5.942.747.747 0 0 1-.384.977 25.324 25.324 0 0 1-9.22 1.85A15.306 15.306 0 0 1 187 53.341c-.036-.037-.027-.091-.054-.133s-.082-.052-.1-.1.008-.1 0-.153a.629.629 0 0 1 0-.273.638.638 0 0 1 .107-.253c.028-.044.019-.1.058-.138s.089-.027.131-.054.053-.083.1-.1a4.724 4.724 0 0 0 2.893-4.516 4.927 4.927 0 0 0-2.063-4.014.743.743 0 0 1 0-1.2 4.931 4.931 0 0 0 2.063-4.017 4.987 4.987 0 0 0-4.98-4.98 4.867 4.867 0 0 0-1.633.3.742.742 0 0 1-.979-.585 4.953 4.953 0 0 0-9.834.372.742.742 0 0 1-1.108.586 4.907 4.907 0 0 0-2.452-.675 4.987 4.987 0 0 0-4.98 4.98 4.934 4.934 0 0 0 2.061 4.017.743.743 0 0 1 0 1.2 4.965 4.965 0 0 0 2.334 8.96.712.712 0 0 1 .516.351c.008.012 0 .028.008.04a.706.706 0 0 1 .122.432c0 .016-.018.025-.021.04a.716.716 0 0 1-.166.319c-.03.037-.039.086-.076.117s-.025.066-.056.087c-4.075 2.813-7.456 3.723-10.122 3.723a9.836 9.836 0 0 1-7.381-3.057.745.745 0 0 1-.143-.637c1.144-4.8-1.313-5.964-1.419-6.012-3.568-1.664-7.181.706-7.217.73a.749.749 0 0 1-.97-.13c-3.964-4.535-10.908-2.416-13.837-1.236a59.329 59.329 0 0 1 8.814 5.762c.064-.083.111-.176.183-.255a4.275 4.275 0 0 1 3.3-1.347 5.559 5.559 0 0 1 5.282 5.142 4.2 4.2 0 0 1-1.069 3.059 3.911 3.911 0 0 1-.387.342 35.731 35.731 0 0 1 3.365 4.569c.359-.122.89-.293 1.58-.504Zm28.241-25.944a5.545 5.545 0 1 1-5.543 5.546 5.553 5.553 0 0 1 5.543-5.543Z"/><path class="cls-7" d="M177.111 47.763a4.06 4.06 0 1 0-4.058-4.058 4.064 4.064 0 0 0 4.058 4.058Zm44.466 184.982c-.016-.021-.041-.031-.054-.055a41.163 41.163 0 0 1-3.183-7.854 154.716 154.716 0 0 1-47.463 9.4 5.1 5.1 0 0 1 1.366 4.387 6.746 6.746 0 0 1 .684.529 9.248 9.248 0 0 1 2.073 3.465 126.975 126.975 0 0 0 44.465-8.219 51.91 51.91 0 0 1 2.112-1.653Z"/><path class="cls-5" d="M152.969 92.023c.75-.211 1.622-.444 2.592-.686-8.721-9.341-4.229-22.952-2.684-26.8a80.602 80.602 0 0 0-3.36.921c-1.155 1.905-8.234 14.807 3.452 26.565Zm60.624 148.124a44.458 44.458 0 0 1 2.914-3.081c-2.857 1-5.667 1.843-8.408 2.579a9.351 9.351 0 0 1 3.492 2.742 70.102 70.102 0 0 0 2.002-2.24Zm-6.781-147.79c11.695-9.192 5.549-23.4 4.547-25.5q-1.633-.578-3.256-1.085c1.147 4.118 3.724 16.791-4.413 25.6q1.562.453 3.122.985Z"/><path class="cls-2" d="M154.673 64.1v.009c-.082.166-7.849 16.694 2.539 26.828 9.6-2.224 27.014-4.778 44.881-.022 9.094-9.081 5.076-23.277 4.316-25.643-21.678-6.317-41.441-3.548-51.736-1.172Zm29.5 12.191L174.042 87.28a.745.745 0 0 1-.522.24h-.02a.738.738 0 0 1-.513-.206l-11.282-10.782a.744.744 0 0 1-.038-1.035l10.852-12.01a.745.745 0 0 1 .551-.245.74.74 0 0 1 .552.247L184.181 75.3a.745.745 0 0 1-.007 1Z"/><path class="cls-7" d="m163.253 75.957 10.209 9.761 9.161-9.933-9.555-10.688-9.815 10.86z"/><path class="cls-3" d="m167.336 75.725 5.905 5.646 5.299-5.745-5.527-6.182-5.677 6.281z"/><path class="cls-5" d="M176.347 248.031a2.83 2.83 0 0 1 .067.309 17 17 0 0 1 4.717.939 14.381 14.381 0 0 0 1.566.629c-.183-.218-.346-.433-.54-.653a.745.745 0 0 1 .295-1.19l17.356-6.488a127.744 127.744 0 0 1-23.916 2.531h-.646a5.06 5.06 0 0 1-.323 2.109 4.512 4.512 0 0 1 1.424 1.814Z"/><path class="cls-7" d="M110.773 255.48c.842 2.419 3.679 3.6 4.5 3.894l22.633-8.462c-3.72-4.479-5.188-8.683-4.368-12.506.958-4.47 4.752-7.036 6.368-7.946l-6.23-10.808c-2.283-1.408-4.346-1.84-6.153-1.287a7.422 7.422 0 0 0-4.058 3.81.717.717 0 0 1-.711.45q-.49-.019-.958-.02c-3.86 0-6.487.977-7.812 2.912-2.264 3.3-.085 8.451-.063 8.5a.745.745 0 0 1-.326.948c-2.789 1.514-4.356 3.379-4.661 5.539-.564 3.983 3.28 7.826 3.318 7.865a.742.742 0 0 1 .09.955c-1.642 2.354-2.173 4.425-1.569 6.156Z"/><path class="cls-8" d="M162.119 235.994a26.3 26.3 0 0 1 8.729 1.849c.047-2.156-2.236-3.672-2.262-3.689a13.841 13.841 0 0 0-8.421-2.027.73.73 0 0 1-.827-.648.744.744 0 0 1 .648-.827 15.968 15.968 0 0 1 6.862.966 4.616 4.616 0 0 0-1-1.842 15.507 15.507 0 0 0-11.079-2.929 2.062 2.062 0 0 0-.4.1 61.564 61.564 0 0 0-6.673 2.967 36.766 36.766 0 0 1-8.894 3.114 10.179 10.179 0 0 0-3.806 5.7c-.615 2.889.339 6.1 2.789 9.552.054-.006.092-.05.15-.045a11.871 11.871 0 0 1 3.449 1.139 14.974 14.974 0 0 0 4.164.8 1.846 1.846 0 0 1 .191-.317c.515-.675 1.5-.965 2.92-.89a3.128 3.128 0 0 1 2.215 1.037 5.162 5.162 0 0 0 .655.53c.077-.033.132-.1.22-.107 5.868-.336 8.173-1.884 9.28-2.628a4.118 4.118 0 0 1 .811-.472c1.114-.419 3.506-.648 6.878-.034a5.641 5.641 0 0 1 3.316 1.616 1.681 1.681 0 0 0 1.281.631c1.007.063 1.507-.121 1.652-.31a.453.453 0 0 0 .047-.267c0-.008-.006-.013-.005-.02a.546.546 0 0 1 .021-.072 1.905 1.905 0 0 0-.084-.374c-.264-.783-1.964-1.961-3.086-2.549-3.319-2.392-10.434-2.764-10.507-2.766a.745.745 0 0 1-.706-.779.77.77 0 0 1 .779-.707c.31.015 7.628.4 11.212 2.992.145.073.538.288 1.008.587.662-2.554-1.706-5.019-1.733-5.044-2.816-2.491-9.766-2.752-9.837-2.755a.743.743 0 0 1-.718-.767.783.783 0 0 1 .761-.715Z"/><path class="cls-7" d="M105.01 171.6c-2.174 1.031-3.144 2.619-2.871 4.719a2.093 2.093 0 0 0 1.086 1.48.479.479 0 0 0 .353.068 5.179 5.179 0 0 1 2.75-.818 6.378 6.378 0 0 1 4.225 1.834c4.438 3.91 12.373 12.637 16.035 20.656 2.515 5.507 5.323 6.93 6.772 7.29a3.856 3.856 0 0 0 3.367-.641.712.712 0 0 1 .162-.094 3.321 3.321 0 0 0 1.68-2.221c.38-1.569.025-4.452-3.821-9.27-7.749-9.708-13.657-20.146-13.764-23-.026-.085-.873-4.571 1.229-6.8a2.3 2.3 0 0 0-1.739-2.165 2.889 2.889 0 0 0-2.411.024 3.483 3.483 0 0 0-1.751 2.073c-.046.114-1.427 3.417.017 11.8a43.006 43.006 0 0 1 2.616 3.659 1.849 1.849 0 0 1 .76-.2 3.077 3.077 0 0 1 2.421 1.478c1.785 2.329 4.227 9.829 4.329 10.146.864 1.956 3.727 7.345 6.281 7.947a1.758 1.758 0 0 0 1.608-.426.743.743 0 0 1 .951 1.142 3.261 3.261 0 0 1-2.9.73c-3.729-.882-6.967-8.051-7.323-8.866-.051-.145-2.491-7.643-4.124-9.769-.439-.573-.921-.924-1.165-.9a.574.574 0 0 0-.387.239.756.756 0 0 1-.617.33h-.017a.744.744 0 0 1-.619-.344c-7.653-12.301-13.087-10.13-13.133-10.101Z"/><path class="cls-9" d="M138.569 203.873c.28-1.154.156-3.022-1.456-5.844a5.16 5.16 0 0 1-1.572 1.576.731.731 0 0 1-.246.677 3.261 3.261 0 0 1-2.9.73c-3.729-.882-6.967-8.051-7.323-8.866-.051-.145-2.491-7.643-4.124-9.769-.439-.573-.921-.924-1.165-.9a.574.574 0 0 0-.387.239.756.756 0 0 1-.617.33h-.017a.744.744 0 0 1-.619-.344c-7.65-12.31-13.084-10.134-13.13-10.105-2.174 1.031-3.144 2.619-2.871 4.719a2.093 2.093 0 0 0 1.086 1.48.479.479 0 0 0 .353.068 5.179 5.179 0 0 1 2.75-.818 6.378 6.378 0 0 1 4.225 1.834c4.438 3.91 12.373 12.637 16.035 20.656 2.515 5.507 5.323 6.93 6.772 7.29a3.856 3.856 0 0 0 3.367-.641.712.712 0 0 1 .162-.094 3.321 3.321 0 0 0 1.677-2.218Z"/><path class="cls-7" d="M172.92 177.761c3.771-.746 6.407-3.43 6.407-6.533 0-3.359-3.04-6.144-7.122-6.645-3.741 16.214-8.228 40.645-7.643 62.666 0 0-.005.007-.005.012a18.633 18.633 0 0 1 2.252 1.388l.031.032c.056-.017.091-.072.152-.076 5.314-.374 9.476-4.041 9.476-8.344 0-3.134-2.155-5.983-5.623-7.434a.743.743 0 0 1 .048-1.388c3.933-1.343 6.475-4.5 6.475-8.042 0-3.708-2.825-7.011-7.031-8.218a.743.743 0 0 1 .116-1.451c4.61-.559 8.088-3.8 8.088-7.527 0-3.043-2.247-5.795-5.722-7.011a.744.744 0 0 1-.5-.755.736.736 0 0 1 .601-.674ZM113.425 167.2a3.787 3.787 0 0 1-1.551 2.405 3.731 3.731 0 0 1-2.109.645c-.095 0-.191-.029-.286-.036l.084.547a16.749 16.749 0 0 1 4.952 3.715 32.916 32.916 0 0 1-.242-6.919Zm103.201 47.762c2.242-1.052 9.276-4.218 14.665-5.45a102.07 102.07 0 0 1-7.28-8.138 22.243 22.243 0 0 0-10.1 5.136 43.544 43.544 0 0 0 2.715 8.452Z"/><path class="cls-5" d="M175.271 163.109c-.928 0-1.828-.03-2.7-.085l-.027.114c4.75.649 8.27 4.019 8.27 8.09 0 3.226-2.228 6.068-5.614 7.408a8.805 8.805 0 0 1 4.828 7.565c0 3.838-2.806 7.133-6.949 8.467a9.494 9.494 0 0 1-.154 17.535 9.437 9.437 0 0 1 5.03 8.058c0 4.963-4.322 9.018-10.147 9.719a4.353 4.353 0 0 1 .615 2.373c.252.138.5.271.754.432a152.293 152.293 0 0 0 48.776-9.379 39.6 39.6 0 0 1-1.144-6.885l-.237.113a.761.761 0 0 1-.324.072.73.73 0 0 1-.259-.046.747.747 0 0 1-.423-.4 41.817 41.817 0 0 1-3.188-9.928.743.743 0 0 1 .237-.653 25.507 25.507 0 0 1 1.714-1.39 68.157 68.157 0 0 1-1.951-9.561.741.741 0 0 1 .636-.835.727.727 0 0 1 .835.636 73.4 73.4 0 0 0 1.753 8.863 23.547 23.547 0 0 1 7.391-3.321c-16.893-21.954-14.417-40.122-12.65-48.848-14.204 9.042-25.952 11.886-35.072 11.886Z"/><path class="cls-7" d="M176.27 148.661a327.798 327.798 0 0 0-3.35 12.884c9.4.528 22.064-2.012 37.842-12.354.1-.5.21-.988.282-1.379 1.216-6.7-2.731-10.062-2.9-10.2l-2.394-2.027c-.152.277-.351.517-.518.782-.018.066-.073.1-.108.163-6.784 10.443-25.399 11.947-28.854 12.131Z"/><path class="cls-5" d="M134.7 208.407c-.091 0-.174.042-.266.042a5.852 5.852 0 0 1-1.434-.179 9.759 9.759 0 0 1-5.077-3.637 41.146 41.146 0 0 0 1.454 12.061 10.5 10.5 0 0 1 5.248 1.8.751.751 0 0 1 .244.257l6.71 11.643a.716.716 0 0 1 .037.358 36.305 36.305 0 0 0 5.409-2.165l.137-.067-2.593-3.81h-.066a9.192 9.192 0 0 1-8.289-12.333 2.4 2.4 0 0 1-1.729-.918 2.693 2.693 0 0 1 .022-2.786c.048-.089.137-.173.193-.266Z"/><path class="cls-1" d="M149.475 211.112c-.01 0-.02-.013-.031-.018l.019.023Z"/><path class="cls-7" d="M153.744 193.273c-4.84.559-8.492 4.344-8.492 8.806a8.973 8.973 0 0 0 6.886 8.489.743.743 0 0 1-.1 1.451 11.059 11.059 0 0 0-1.671.384 8.813 8.813 0 0 1 .784 7.777l3.841 5.144a15.039 15.039 0 0 1 2.231-.063c-.916-22.228 3.392-46.126 7.038-61.845a9.559 9.559 0 0 0-1.554-.184c-4.632 0-8.4 3.253-8.4 7.248a6.912 6.912 0 0 0 3.3 5.723.743.743 0 0 1-.363 1.361c-4.382.279-7.814 3.6-7.814 7.568a7.539 7.539 0 0 0 4.542 6.731.743.743 0 0 1-.232 1.41Z"/><path class="cls-3" d="M153.823 223.759a13.367 13.367 0 0 0 3.374 1.5h.026c-.157-3.8-.151-7.641-.032-11.485a9.361 9.361 0 0 0-5.5 2.712 8.246 8.246 0 0 1-.536 3.692Zm17.482-3.048c.254-2.717-2.506-5.3-6.548-6.487-.2 3.875-.276 7.734-.214 11.535 3.757-.598 6.526-2.523 6.762-5.048Z"/><path class="cls-7" d="M148.561 223.485a7 7 0 0 1-2.337 1.011l2.288 3.363c2.449-1.178 4.057-1.829 4.913-2.15l-3.05-4.085a6.973 6.973 0 0 1-1.814 1.861Z"/><path class="cls-3" d="m147.508 66.1-.161.056c-.521.491-5.606 5.457-5.488 12.382.085 4.984 2.842 9.819 8.163 14.383.3-.1.768-.251 1.363-.433-9.946-10.578-5.93-22.144-3.877-26.388Z"/><path class="cls-10" d="M197.828 95.445a20.679 20.679 0 0 1 3.549 14.439c-.08.605-.186 1.2-.3 1.8a24.266 24.266 0 0 0-.385 2.8 6.713 6.713 0 0 0 1.55 5.115c1.587 1.608 4.049 1.579 5.391 1.434a8.183 8.183 0 0 0 3.677-1.238 4.914 4.914 0 0 0 2.13-3.035 3.451 3.451 0 0 0-1.035-3.28 2.15 2.15 0 0 0-2.861.128 2 2 0 0 0-.426 1.585 1.587 1.587 0 0 0 .665 1.153.744.744 0 1 1-.788 1.263 3.066 3.066 0 0 1-1.347-2.213 3.459 3.459 0 0 1 .793-2.784 3.63 3.63 0 0 1 4.891-.293 4.91 4.91 0 0 1 1.564 4.731 6.4 6.4 0 0 1-2.754 3.978 9.629 9.629 0 0 1-4.339 1.48 11.3 11.3 0 0 1-1.331.08 8.228 8.228 0 0 1-3.528-.757 13.065 13.065 0 0 0 3.857 5.573 8.4 8.4 0 0 0 6.76 1.325 5.045 5.045 0 0 0 3.466-2.489 2.906 2.906 0 0 0 .172-2.118 1.455 1.455 0 0 0-.762-.868 1.638 1.638 0 0 0-1.471.152.729.729 0 0 0-.355.7.742.742 0 0 1-.684.8.693.693 0 0 1-.8-.685 2.216 2.216 0 0 1 .994-2.034 2.981 2.981 0 0 1 1.115-.439 11.76 11.76 0 0 0-1.072-12.394 22.183 22.183 0 0 0-1.7-1.84 17.793 17.793 0 0 1-2.368-2.726 11.653 11.653 0 0 1-1.841-6.521 90.956 90.956 0 0 0-10.427-2.822ZM153.3 97.717c-.368.128-.671.24-.93.336a.69.69 0 0 1-.153.3c-2.888 2.486-2.2 6.564-1.584 10.16a23.633 23.633 0 0 1 .435 3.546c.023 3.14-.17 6.994-1.506 9.721a1.981 1.981 0 0 1 1.4 1.864.766.766 0 0 1-.771.713.742.742 0 0 1-.714-.771c.01-.227-.338-.4-.522-.462a1.926 1.926 0 0 0-1.524.143 2.21 2.21 0 0 0-1.074 1.385c-.573 2.141 1.638 4.049 3.454 4.6 1.747.536 4.068.182 5.155-1.262-4.906-12.604-2.6-26.056-1.666-30.273Z"/><path class="cls-3" d="M234.412 212.551c-.644-.6-1.248-1.2-1.861-1.8-4.646.878-11.231 3.706-14.294 5.1a40.588 40.588 0 0 0 4.529 16.045c1.625-1.115 2.738-1.73 2.844-1.787a.743.743 0 1 1 .7 1.311 45.439 45.439 0 0 0-11.606 9.691c-.815.956-1.6 1.822-2.361 2.629.04.1.1.179.136.281a5.872 5.872 0 0 1 .3 1.873c12.149 1.177 20.659 3.457 26.362 5.634h13.412c.774-.582 3.81-3.014 4.989-6.145-1.068-7.993-4.915-15.21-23.15-32.832Z"/><path class="cls-2" d="M245.5 205.745c-30.693-27.07-26.952-43.045-24.94-51.628.191-.815.365-1.553.484-2.216 1.108-6.206-.2-9.875-.517-10.646-2.18-1.514-7.147-2.607-9.965-3.132a12.816 12.816 0 0 1 1.945 9.954 60.14 60.14 0 0 1-.349 1.715v.007l-.017.085c-1.925 9.072-7.043 33.17 23.3 61.591 23.161 22.38 23.561 28.381 24.079 40.051h8.322c.082-26.552-22.116-45.589-22.342-45.781Z"/><path class="cls-3" d="M222.769 144.248a25.421 25.421 0 0 1-.266 7.914c-.121.687-.3 1.452-.5 2.293-1.94 8.281-5.551 23.692 24.463 50.166.22.182 22.94 19.649 22.852 46.905h3.651c11.748-73.186-41.399-102.898-50.2-107.278Z"/><path class="cls-2" d="M98.778 194.87a.676.676 0 0 1 .108-.072 98.167 98.167 0 0 1 6.366-3.948c.032-.021 3.443-1.944 10.057-5.054a73.832 73.832 0 0 0-4.4-4.554c-1.5.644-3.051 1.277-4.64 1.873-14.361 5.384-24.35 14.25-29.69 26.35A47.566 47.566 0 0 0 72.6 230.5c.136-.814.326-1.7.547-2.625.035-.245.07-.5.1-.723.014-.089.086-.139.125-.214 2.251-8.463 8.536-20.738 25.406-32.068Z"/><path class="cls-7" d="M108.7 164.988a6.806 6.806 0 0 1-1.919.989 3.223 3.223 0 0 0 .5 1.388 3.174 3.174 0 0 0 1.828 1.314 2.345 2.345 0 0 0 1.921-.305 2.763 2.763 0 0 0 .435-3.858 3.246 3.246 0 0 0-1.133-.99 6.914 6.914 0 0 1-1.632 1.462Zm-.834-1.226a4.881 4.881 0 0 0 2.346-3.282c.9-4.511-3.621-10.961-5.323-13.387l-.421-.607a4.1 4.1 0 0 1-.375-4.078 3.365 3.365 0 0 0-2.186 1.565c-1.241 2.392 1.308 6.84 2.532 8.975.322.562.58 1.014.718 1.316a3.1 3.1 0 0 1-5.035 3.526c-.288-.3-.615-.706-1.021-1.211-1.538-1.921-4.675-5.916-7.42-5.645a3.364 3.364 0 0 0-2.256 1.463h.157a4.071 4.071 0 0 1 3.5 1.845l.407.609c1.634 2.475 5.978 9.048 10.508 9.863a4.83 4.83 0 0 0 3.869-.952Z"/><path class="cls-3" d="M105.75 181.722a101.351 101.351 0 0 0 3.958-1.6c-.043-.037-.095-.089-.137-.126-1.821-1.608-3.57-1.9-5.2-.875a1.807 1.807 0 0 1-1.775.019 3.571 3.571 0 0 1-1.927-2.634c-.25-1.93.191-4.585 3.719-6.259a5.6 5.6 0 0 1 3.586-.067l-.058-.376a4.551 4.551 0 0 1-2.572-3.562l-.074.006a129.57 129.57 0 0 0-21.7 29.845c5.63-6.127 13.042-10.944 22.18-14.371Z"/><path class="cls-7" d="M100.262 155.65c.368.462.665.834.876 1.052a1.643 1.643 0 0 0 2.179.331 1.623 1.623 0 0 0 .515-2.094c-.15-.329-.389-.74-.682-1.25a33.149 33.149 0 0 1-2.266-4.565c-.055-.034-.124-.028-.169-.077a16.1 16.1 0 0 0-5.35-3.69A16.041 16.041 0 0 0 97 152.014a34.1 34.1 0 0 1 3.262 3.636ZM165 160.284c1.418-5.848 2.658-10.263 3.343-12.6a17.562 17.562 0 0 1-8.306-6.31l-2.6 1.222a44.762 44.762 0 0 1-3.817 12.007 29.909 29.909 0 0 0 11.38 5.681Z"/><path class="cls-8" d="M180.4 142.179c4.3-1.541 10.018-4.438 12.835-9.5a.743.743 0 0 1 1.3.726c-2.441 4.383-7.028 7.8-13.631 10.168a19.118 19.118 0 0 1-6.424 1.127 16.9 16.9 0 0 1-10.507-3.549 6.671 6.671 0 0 1-.607 1.752 16.158 16.158 0 0 0 5.408 3.348l.136-.444a.746.746 0 0 1 .709-.517h6.641a.742.742 0 0 1 .711.96l-.263.886c4.269-.309 20.728-2.08 26.962-11.06-2.32-5.025-1.753-12.193-1.706-12.739a12.146 12.146 0 0 1-.938-2.907 8.294 8.294 0 0 1-1.814-6.027 25.093 25.093 0 0 1 .409-2.98c.1-.578.206-1.156.281-1.737a19.067 19.067 0 0 0-4.266-14.668 86.8 86.8 0 0 0-40.686 2.149c-.812 3.271-5.936 26.558 8.547 41.576 4.127 4.285 10.758 5.634 16.903 3.436Zm1.655-28.583a3.421 3.421 0 1 1 3.42-3.421 3.422 3.422 0 0 1-3.417 3.425Zm-6.155-10.907c.245-.136 6.136-3.3 14.877-.046a.743.743 0 0 1-.259 1.439.753.753 0 0 1-.259-.046c-8.1-3.014-13.59-.075-13.643-.046a.743.743 0 0 1-.716-1.3Zm-1.078 27.982a.742.742 0 0 1-.743.743h-4.462a.743.743 0 1 1 0-1.485h4.462a.741.741 0 0 1 .745.742Zm-6.707-22.507a.74.74 0 0 1 .544.9c-.019.079-1.94 8.015-1.555 13.606a1.017 1.017 0 0 0 1.021.922h4.8a.743.743 0 0 1 0 1.485h-4.8a2.5 2.5 0 0 1-2.5-2.3c-.4-5.826 1.511-13.73 1.594-14.063a.741.741 0 0 1 .898-.55Zm-13.246-1.905a.743.743 0 0 1-.344-1.4 17.925 17.925 0 0 1 11.4-1.057.743.743 0 1 1-.319 1.451 16.664 16.664 0 0 0-10.39.922.729.729 0 0 1-.345.084Zm5.445 8.666a3.3 3.3 0 1 1 3.3-3.3 3.3 3.3 0 0 1-3.298 3.3Z"/><path class="cls-3" d="M112.7 163.679a4.754 4.754 0 0 1 .752 1.918l1.006.425a8.914 8.914 0 0 1 .464-1.81 4.883 4.883 0 0 1 2.5-2.886 4.41 4.41 0 0 1 3.6-.067 3.708 3.708 0 0 1 2.631 4.034.733.733 0 0 1-.23.406c-1.451 1.313-1.19 4.586-.965 5.737a6.643 6.643 0 0 0 .51 1.833c15.349-9.773 20.664-20.937 22.418-26.279-4.79.925-22.964 4.941-33.826 14.423-.028.025-.068.018-.1.038a6.277 6.277 0 0 1-.321.84 4.768 4.768 0 0 1 1.561 1.388Z"/><path class="cls-2" d="M123.561 174.66a65.026 65.026 0 0 0 3.244 5.98c.013-.007.014-.024.027-.031 10.494-4.967 26.926-20.864 29.362-39.422-1.065-.1-3.848.131-8.562 3.156-.432 2.53-3.779 17.494-24.071 30.317Z"/><path class="cls-3" d="M83.26 246.987a.7.7 0 0 1 .569.323c5.576 2.065 13.783 4.194 25.365 5.316a10.863 10.863 0 0 1 1.591-3.649c-1.1-1.234-3.869-4.781-3.323-8.673.348-2.5 1.983-4.619 4.857-6.322-.573-1.625-1.8-6.039.438-9.3a7.019 7.019 0 0 1 2.8-2.338c-6.385-1.245-8.8-.677-8.832-.668a.761.761 0 0 1-.9-.528.739.739 0 0 1 .515-.907c.1-.029 1.957-.507 6.684.162a51.291 51.291 0 0 0 8.191-15.387 38.517 38.517 0 0 0-21.671-8.905C82.6 207.5 76.658 219.785 74.636 227.951a99.352 99.352 0 0 0-.917 11.369 5.166 5.166 0 0 0 2.537 4.464 44.549 44.549 0 0 0 6.732 3.2Z"/><path class="cls-9" d="M107.866 163.762a63.81 63.81 0 0 1-3.969-5.354 3.083 3.083 0 0 1-3.775-.618c-.288-.3-.615-.706-1.021-1.211-1.538-1.921-4.675-5.916-7.42-5.645a3.364 3.364 0 0 0-2.256 1.463h.157a4.071 4.071 0 0 1 3.5 1.845l.407.609c1.634 2.475 5.978 9.048 10.508 9.863a4.83 4.83 0 0 0 3.869-.952Zm-.578 3.603a3.174 3.174 0 0 0 1.828 1.314 2.345 2.345 0 0 0 1.921-.305l-2.33-3.389a6.806 6.806 0 0 1-1.919.989 3.223 3.223 0 0 0 .5 1.391Z"/><path class="cls-9" d="M100.262 155.65c.368.462.665.834.876 1.052a1.665 1.665 0 0 0 1.916.472c-3.663-5.406-7.689-11.817-7.689-11.817A16.041 16.041 0 0 0 97 152.014a34.1 34.1 0 0 1 3.262 3.636Zm9.503 14.598c-.095 0-.191-.029-.286-.036l.084.547a16.749 16.749 0 0 1 4.952 3.715l-2.744-4.812a3.727 3.727 0 0 1-2.006.586Zm38.835 53.203c-.015.011-.029.024-.044.034a7 7 0 0 1-2.337 1.011l2.288 3.363c.961-.462 1.787-.84 2.5-1.152Zm-12.761-14.114a1.012 1.012 0 0 0 1.12 1.645 5.4 5.4 0 0 0 2.438-.953c-2.615-1.228-1.776-2.61-1.776-2.61a5.4 5.4 0 0 0-1.782 1.918Zm3.597 2.374a7.631 7.631 0 0 1-1.493.546 7.3 7.3 0 0 0 .54 7.608c2.225 3.27 6.372 4.344 9.241 2.392-6.468-3.891-7.976-8.226-8.288-10.546Z"/><ellipse class="cls-3" cx="166.962" cy="170.836" rx="5.092" ry="8.569" transform="rotate(-84.652 166.962 170.836)"/><ellipse class="cls-3" cx="163.461" cy="185.774" rx="5.882" ry="9.898" transform="rotate(-84.652 163.461 185.773)"/><ellipse class="cls-3" cx="160.986" cy="203.177" rx="6.762" ry="11.378" transform="rotate(-84.652 160.986 203.177)"/><path class="cls-7" d="M215.889 307.859a99.42 99.42 0 0 0 4.389-2.645 40.209 40.209 0 0 1-21.035-9.455 17.422 17.422 0 0 0-2.712 3.509c-.03.052-.092.059-.131.1.077.161.16.308.235.473a52.852 52.852 0 0 0 6.286 9.963.247.247 0 0 1 .029.006 22.988 22.988 0 0 0 5.789 1.71c4.696-2.279 7.121-3.645 7.15-3.661Z"/><path class="cls-3" d="M163.16 274.608a17.117 17.117 0 0 1-4.351-1.17c.486 22.608-4.233 47.575-8.011 63.678a39.6 39.6 0 0 1 4.977.808c3.708-15.608 8.362-40.386 7.385-63.316Zm-11.454 78.613c.478-1.573 1.968-6.616 3.726-13.87a38.1 38.1 0 0 0-4.976-.786c-1.746 7.312-3.242 12.588-3.846 14.656Z"/><path class="cls-7" d="M181.171 293.51a2.115 2.115 0 0 0 .4.036 5.123 5.123 0 0 0 2.682-.965 5.392 5.392 0 0 0 1.783-1.918 1.012 1.012 0 0 0-1.12-1.645 5.4 5.4 0 0 0-2.438.953c-1.6 1.089-2.324 2.593-1.906 3.207a.884.884 0 0 0 .599.332Z"/><path class="cls-5" d="M194.3 318.1a124.961 124.961 0 0 0-8.335-11.777c-3.408-4.271-4.787-7.835-4.095-10.595a4.529 4.529 0 0 1 .31-.761 4.053 4.053 0 0 1-1.287 0 2.334 2.334 0 0 1-1.55-.955 2.386 2.386 0 0 1-.272-1.945 8.137 8.137 0 0 1-3.583-.8 9.852 9.852 0 0 1 2.619 6.651 10.509 10.509 0 0 1-7.863 9.894 8.774 8.774 0 0 1 3.681 7.053 9.3 9.3 0 0 1-7.461 8.8 8.08 8.08 0 0 1 2.588 5.856c0 4.815-4.433 8.733-9.885 8.733a11.255 11.255 0 0 1-1.9-.18l-.049.211a32.148 32.148 0 0 1 11.733 5.763c6.372-12.416 17.449-22.167 25.349-25.948Zm11.258-5.062c.331-.155.641-.3.956-.451a22.87 22.87 0 0 1-1.774-.51c.273.323.545.644.818.961Z"/><path class="cls-7" d="M179.818 290.513a7.05 7.05 0 0 1 4.113-2.77 7.3 7.3 0 0 0-.54-7.608c-2.225-3.27-6.373-4.343-9.241-2.392s-3.386 6.2-1.161 9.474a7.308 7.308 0 0 0 6.829 3.296Zm2.001 156.509h.092a2.745 2.745 0 0 0 2.071-.863 3.356 3.356 0 0 0-.627-4.654 3.942 3.942 0 0 0-2.527-1.061 2.836 2.836 0 0 0-2.163.863 2.733 2.733 0 0 0-.684 1.991 4.081 4.081 0 0 0 3.838 3.724Zm-78.095-1.258a3.349 3.349 0 0 0 .2-4.689 2.926 2.926 0 0 0-1.991-.685 4.081 4.081 0 0 0-3.724 3.839 2.76 2.76 0 0 0 .863 2.162 3.357 3.357 0 0 0 4.652-.627Z"/><path class="cls-3" d="M108.612 432.43c-1.71-4.415-5.176-16.782 4.837-25.35q-1.046-.387-2.091-.812c-1.242.794-6.113 4.243-7.551 10.205-1.145 4.752.122 9.986 3.748 15.561.353.139.705.266 1.057.396Z"/><path class="cls-7" d="M170.244 403.256c-4.443 1.693-27.99 9.607-57-.07l-.931 1.86c26.324 10.5 54.149 2.236 58.77.722ZM173 435.9c-.013 0-.022.009-.035.011-7.247 2.186-31.39 8.116-58.36.114-.016-.007-.03-.006-.045-.013a92.246 92.246 0 0 1-4.807-1.563h-.009a90.772 90.772 0 0 1-2.281-.853 34.6 34.6 0 0 1-3.365 5.824 4.01 4.01 0 0 1 .822.564c1.833 1.671 1.787 4.716-.1 6.789s-4.922 2.392-6.752.723a4.024 4.024 0 0 1-.7-.873 33.259 33.259 0 0 1-8.239 4.946 11.937 11.937 0 0 0 13.023-.784.735.735 0 0 1 .76-.043c.051.021 5.231 2.66 9.033.292a4.754 4.754 0 0 0 2.09-5.942.747.747 0 0 1 .384-.977 25.311 25.311 0 0 1 9.22-1.85 15.308 15.308 0 0 1 11.239 4.4c.036.037.027.091.054.133s.082.052.1.1-.009.1 0 .153a.629.629 0 0 1 0 .273.652.652 0 0 1-.107.253c-.029.044-.02.1-.058.138s-.09.027-.131.054-.053.083-.1.1a4.724 4.724 0 0 0-2.893 4.516 4.927 4.927 0 0 0 2.063 4.014.743.743 0 0 1 0 1.2 4.931 4.931 0 0 0-2.063 4.017 4.987 4.987 0 0 0 4.98 4.98 4.861 4.861 0 0 0 1.632-.3.743.743 0 0 1 .98.585 4.953 4.953 0 0 0 9.834-.372.742.742 0 0 1 1.107-.586 4.911 4.911 0 0 0 2.453.675 4.986 4.986 0 0 0 4.979-4.98 4.933 4.933 0 0 0-2.06-4.017.743.743 0 0 1 0-1.2 4.966 4.966 0 0 0-2.334-8.96.712.712 0 0 1-.516-.351c-.008-.012 0-.028-.008-.04a.7.7 0 0 1-.122-.432c0-.016.018-.025.021-.04a.716.716 0 0 1 .166-.319c.03-.037.039-.086.075-.117s.026-.066.057-.087c4.075-2.813 7.456-3.723 10.121-3.723a9.837 9.837 0 0 1 7.382 3.057.744.744 0 0 1 .142.637c-1.144 4.8 1.314 5.964 1.42 6.012 3.567 1.664 7.181-.706 7.217-.73a.749.749 0 0 1 .97.13c3.964 4.535 10.908 2.416 13.837 1.236a59.329 59.329 0 0 1-8.814-5.762c-.064.083-.112.176-.184.255a4.271 4.271 0 0 1-3.3 1.347 5.561 5.561 0 0 1-5.283-5.142 4.2 4.2 0 0 1 1.069-3.059 4.028 4.028 0 0 1 .387-.342 35.793 35.793 0 0 1-3.364-4.569c-.363.116-.894.287-1.587.498Zm-28.242 25.944a5.545 5.545 0 1 1 5.544-5.546 5.554 5.554 0 0 1-5.54 5.543Z"/><path class="cls-7" d="M144.762 452.237a4.06 4.06 0 1 0 4.059 4.058 4.064 4.064 0 0 0-4.059-4.058ZM100.3 267.255c.015.021.041.031.053.055a41.106 41.106 0 0 1 3.184 7.854 154.716 154.716 0 0 1 47.463-9.4 5.1 5.1 0 0 1-1.366-4.387 6.873 6.873 0 0 1-.685-.529 9.276 9.276 0 0 1-2.077-3.464 126.971 126.971 0 0 0-44.464 8.219 55.813 55.813 0 0 1-2.108 1.652Z"/><path class="cls-5" d="M168.905 407.977c-.751.211-1.622.444-2.592.686 8.721 9.341 4.229 22.952 2.684 26.8a80.602 80.602 0 0 0 3.36-.921c1.155-1.905 8.234-14.807-3.452-26.565Zm-60.624-148.124a44.458 44.458 0 0 1-2.914 3.081c2.857-1 5.666-1.843 8.408-2.579a9.361 9.361 0 0 1-3.493-2.742 70.114 70.114 0 0 0-2.001 2.24Zm6.78 147.79c-11.7 9.192-5.548 23.4-4.546 25.5q1.633.577 3.255 1.085c-1.147-4.118-3.724-16.791 4.414-25.6q-1.563-.452-3.123-.985Z"/><path class="cls-2" d="M167.2 435.9v-.009c.081-.166 7.848-16.694-2.539-26.828-9.6 2.224-27.014 4.778-44.881.022-9.095 9.081-5.076 23.277-4.316 25.643 21.679 6.317 41.442 3.548 51.736 1.172Zm-29.5-12.191 10.131-10.985a.752.752 0 0 1 .523-.24h.024a.738.738 0 0 1 .513.206l11.278 10.782a.744.744 0 0 1 .038 1.035l-10.852 12.01a.745.745 0 0 1-.551.245.739.739 0 0 1-.551-.247l-10.56-11.815a.745.745 0 0 1 .007-.995Z"/><path class="cls-7" d="m158.62 424.043-10.208-9.761-9.162 9.933 9.556 10.688 9.814-10.86z"/><path class="cls-3" d="m154.537 424.275-5.905-5.646-5.299 5.745 5.528 6.182 5.676-6.281z"/><path class="cls-5" d="M145.526 251.969c-.037-.113-.042-.2-.067-.309a17 17 0 0 1-4.716-.939 14.381 14.381 0 0 0-1.566-.629c.183.218.346.433.54.653a.745.745 0 0 1-.3 1.19l-17.356 6.488a127.743 127.743 0 0 1 23.915-2.531h.647a5.06 5.06 0 0 1 .323-2.109 4.515 4.515 0 0 1-1.42-1.814Z"/><path class="cls-7" d="M211.1 244.52c-.842-2.419-3.679-3.6-4.5-3.894l-22.633 8.462c3.72 4.479 5.188 8.683 4.368 12.506-.958 4.47-4.753 7.036-6.368 7.946l6.23 10.808c2.283 1.408 4.346 1.84 6.153 1.287a7.419 7.419 0 0 0 4.058-3.81.716.716 0 0 1 .711-.45q.49.019.958.02c3.86 0 6.486-.977 7.812-2.912 2.263-3.3.084-8.451.063-8.5a.744.744 0 0 1 .326-.948c2.789-1.514 4.356-3.379 4.661-5.539.563-3.983-3.28-7.826-3.319-7.865a.743.743 0 0 1-.089-.955c1.645-2.354 2.174-4.425 1.569-6.156Z"/><path class="cls-8" d="M159.755 264.006a26.3 26.3 0 0 1-8.729-1.849c-.047 2.156 2.236 3.672 2.262 3.689a13.84 13.84 0 0 0 8.421 2.027.73.73 0 0 1 .827.648.744.744 0 0 1-.648.827 15.973 15.973 0 0 1-6.863-.966 4.612 4.612 0 0 0 1 1.842 15.506 15.506 0 0 0 11.079 2.929 2.062 2.062 0 0 0 .4-.1 61.564 61.564 0 0 0 6.673-2.967 36.766 36.766 0 0 1 8.894-3.114 10.184 10.184 0 0 0 3.806-5.7c.615-2.89-.339-6.1-2.789-9.553-.054.006-.092.05-.15.045a11.871 11.871 0 0 1-3.449-1.139 14.974 14.974 0 0 0-4.164-.8 1.786 1.786 0 0 1-.192.317c-.515.675-1.5.965-2.919.89a3.128 3.128 0 0 1-2.215-1.037 5.105 5.105 0 0 0-.656-.53c-.076.033-.131.1-.22.107-5.867.336-8.172 1.884-9.28 2.628a4.114 4.114 0 0 1-.81.472c-1.115.419-3.507.648-6.878.034a5.632 5.632 0 0 1-3.316-1.616 1.681 1.681 0 0 0-1.282-.631c-1.006-.063-1.507.121-1.652.31a.461.461 0 0 0-.047.267c0 .008.007.013.006.02a.548.548 0 0 1-.022.072 1.833 1.833 0 0 0 .085.374c.264.783 1.964 1.961 3.086 2.549 3.318 2.392 10.434 2.764 10.506 2.766a.745.745 0 0 1 .707.779.771.771 0 0 1-.779.707c-.31-.015-7.628-.4-11.213-2.992a13.637 13.637 0 0 1-1.007-.587c-.663 2.554 1.706 5.019 1.733 5.044 2.815 2.491 9.766 2.752 9.836 2.755a.744.744 0 0 1 .719.767.783.783 0 0 1-.76.716Z"/><path class="cls-7" d="M216.864 328.4c2.174-1.031 3.144-2.619 2.871-4.719a2.093 2.093 0 0 0-1.086-1.48.479.479 0 0 0-.353-.068 5.179 5.179 0 0 1-2.75.818 6.378 6.378 0 0 1-4.225-1.834c-4.438-3.91-12.374-12.637-16.035-20.656-2.516-5.507-5.323-6.929-6.772-7.29a3.856 3.856 0 0 0-3.367.641.712.712 0 0 1-.162.094 3.324 3.324 0 0 0-1.681 2.221c-.38 1.569-.024 4.452 3.822 9.27 7.749 9.708 13.657 20.146 13.764 23 .026.085.873 4.571-1.229 6.8a2.3 2.3 0 0 0 1.739 2.165 2.889 2.889 0 0 0 2.411-.024 3.487 3.487 0 0 0 1.751-2.073c.046-.114 1.427-3.417-.017-11.8a43.226 43.226 0 0 1-2.617-3.659 1.84 1.84 0 0 1-.759.2 3.077 3.077 0 0 1-2.421-1.478c-1.785-2.329-4.228-9.829-4.329-10.146-.864-1.956-3.727-7.345-6.281-7.947a1.76 1.76 0 0 0-1.609.426.743.743 0 0 1-.95-1.142 3.26 3.26 0 0 1 2.9-.73c3.73.882 6.968 8.051 7.324 8.866.05.145 2.491 7.643 4.123 9.769.44.573.922.924 1.166.9a.574.574 0 0 0 .387-.239.754.754 0 0 1 .617-.33h.017a.744.744 0 0 1 .619.344c7.652 12.306 13.086 10.13 13.132 10.101Z"/><path class="cls-9" d="M183.3 296.127c-.279 1.154-.155 3.022 1.456 5.844a5.183 5.183 0 0 1 1.573-1.576.729.729 0 0 1 .246-.677 3.26 3.26 0 0 1 2.9-.73c3.73.882 6.968 8.051 7.324 8.866.05.145 2.491 7.643 4.123 9.769.44.573.922.924 1.166.9a.574.574 0 0 0 .387-.239.754.754 0 0 1 .617-.33h.017a.744.744 0 0 1 .619.344c7.65 12.31 13.084 10.134 13.13 10.1 2.174-1.031 3.144-2.619 2.871-4.719a2.093 2.093 0 0 0-1.086-1.48.479.479 0 0 0-.353-.068 5.179 5.179 0 0 1-2.75.818 6.378 6.378 0 0 1-4.225-1.834c-4.438-3.91-12.374-12.637-16.035-20.656-2.516-5.507-5.323-6.929-6.772-7.29a3.856 3.856 0 0 0-3.367.641.712.712 0 0 1-.162.094 3.324 3.324 0 0 0-1.679 2.223Z"/><path class="cls-7" d="M148.954 322.24c-3.771.745-6.407 3.429-6.407 6.532 0 3.359 3.04 6.144 7.122 6.645 3.741-16.214 8.228-40.645 7.643-62.666v-.012a18.555 18.555 0 0 1-2.252-1.388l-.031-.032c-.056.017-.092.072-.153.076-5.313.374-9.475 4.041-9.475 8.344 0 3.134 2.155 5.983 5.623 7.434a.742.742 0 0 1-.049 1.388c-3.932 1.343-6.474 4.5-6.474 8.042 0 3.708 2.825 7.012 7.031 8.218a.743.743 0 0 1-.116 1.451c-4.61.559-8.088 3.8-8.088 7.527 0 3.043 2.247 5.8 5.722 7.011a.743.743 0 0 1-.1 1.43Zm59.495 10.56a3.786 3.786 0 0 1 1.551-2.4 3.731 3.731 0 0 1 2.109-.645c.094 0 .191.029.286.036l-.084-.547a16.736 16.736 0 0 1-4.952-3.715 32.916 32.916 0 0 1 .242 6.919Zm-103.201-47.762c-2.242 1.052-9.276 4.218-14.665 5.45a102.07 102.07 0 0 1 7.28 8.138 22.253 22.253 0 0 0 10.1-5.136 43.621 43.621 0 0 0-2.715-8.452Z"/><path class="cls-5" d="M146.6 336.891c.928 0 1.828.03 2.7.085l.027-.114c-4.75-.649-8.27-4.019-8.27-8.09 0-3.226 2.227-6.068 5.613-7.408a8.806 8.806 0 0 1-4.827-7.565c0-3.838 2.8-7.132 6.948-8.467a9.494 9.494 0 0 1 .155-17.535 9.437 9.437 0 0 1-5.03-8.058c0-4.963 4.322-9.018 10.147-9.719a4.353 4.353 0 0 1-.615-2.373c-.252-.138-.5-.271-.754-.432a152.324 152.324 0 0 0-48.776 9.379 39.6 39.6 0 0 1 1.144 6.885c.133-.062.228-.108.237-.113a.755.755 0 0 1 .324-.072.73.73 0 0 1 .259.046.75.75 0 0 1 .423.4 41.779 41.779 0 0 1 3.187 9.928.741.741 0 0 1-.237.653c-.573.517-1.144.959-1.713 1.39a67.956 67.956 0 0 1 1.95 9.561.739.739 0 0 1-.636.835.726.726 0 0 1-.834-.636 73.821 73.821 0 0 0-1.753-8.863 23.559 23.559 0 0 1-7.392 3.321c16.894 21.954 14.417 40.122 12.651 48.848 14.207-9.042 25.955-11.886 35.072-11.886Z"/><path class="cls-7" d="M145.6 351.339a327.798 327.798 0 0 0 3.35-12.884c-9.4-.527-22.064 2.012-37.842 12.354-.1.5-.21.988-.282 1.379-1.217 6.695 2.731 10.062 2.9 10.2l2.394 2.027c.151-.277.351-.517.518-.782.018-.066.072-.1.108-.163 6.788-10.443 25.403-11.947 28.854-12.131Z"/><path class="cls-5" d="M187.176 291.593c.092 0 .174-.042.266-.042a5.86 5.86 0 0 1 1.43.179 9.761 9.761 0 0 1 5.076 3.637 41.115 41.115 0 0 0-1.453-12.061 10.5 10.5 0 0 1-5.249-1.8.761.761 0 0 1-.244-.257l-6.709-11.643a.716.716 0 0 1-.037-.358 36.263 36.263 0 0 0-5.409 2.165l-.137.067 2.593 3.81h.066a9.192 9.192 0 0 1 8.289 12.333 2.4 2.4 0 0 1 1.729.918 2.7 2.7 0 0 1-.022 2.786c-.046.089-.135.173-.189.266Z"/><path class="cls-1" d="M172.4 288.888c.01 0 .019.013.03.018-.007-.007-.012-.016-.018-.023Z"/><path class="cls-7" d="M168.13 306.727c4.84-.559 8.492-4.344 8.492-8.806a8.973 8.973 0 0 0-6.886-8.489.743.743 0 0 1 .1-1.451 11.031 11.031 0 0 0 1.671-.384 8.816 8.816 0 0 1-.783-7.777l-3.841-5.144a15.039 15.039 0 0 1-2.231.063c.916 22.228-3.392 46.126-7.038 61.845a9.559 9.559 0 0 0 1.554.184c4.632 0 8.4-3.253 8.4-7.248a6.914 6.914 0 0 0-3.3-5.723.743.743 0 0 1 .363-1.361c4.382-.279 7.814-3.6 7.814-7.568a7.539 7.539 0 0 0-4.542-6.731.743.743 0 0 1 .232-1.41Z"/><path class="cls-3" d="M168.051 276.241a13.358 13.358 0 0 0-3.375-1.5h-.025c.157 3.8.151 7.641.032 11.485a9.361 9.361 0 0 0 5.5-2.712 8.246 8.246 0 0 1 .536-3.692Zm-17.482 3.048c-.255 2.717 2.506 5.3 6.548 6.487.2-3.875.275-7.734.214-11.535-3.755.598-6.526 2.523-6.762 5.048Z"/><path class="cls-7" d="M173.313 276.515a7 7 0 0 1 2.337-1.011l-2.288-3.363c-2.449 1.178-4.057 1.829-4.913 2.15l3.05 4.085a6.973 6.973 0 0 1 1.814-1.861Z"/><path class="cls-3" d="m174.365 433.9.162-.056c.52-.491 5.606-5.457 5.488-12.382-.085-4.984-2.842-9.819-8.163-14.383-.3.1-.769.251-1.363.433 9.946 10.578 5.93 22.144 3.876 26.388Z"/><path class="cls-10" d="M124.046 404.555a20.674 20.674 0 0 1-3.549-14.439c.08-.6.186-1.2.3-1.8a24.456 24.456 0 0 0 .385-2.8 6.714 6.714 0 0 0-1.551-5.115c-1.586-1.608-4.048-1.579-5.391-1.434a8.183 8.183 0 0 0-3.676 1.238 4.915 4.915 0 0 0-2.131 3.035 3.456 3.456 0 0 0 1.035 3.28 2.151 2.151 0 0 0 2.862-.128 1.992 1.992 0 0 0 .425-1.584 1.581 1.581 0 0 0-.665-1.154.745.745 0 0 1 .789-1.263 3.066 3.066 0 0 1 1.347 2.213 3.463 3.463 0 0 1-.793 2.784 3.63 3.63 0 0 1-4.891.293 4.91 4.91 0 0 1-1.564-4.731 6.4 6.4 0 0 1 2.754-3.978 9.625 9.625 0 0 1 4.339-1.48 11.3 11.3 0 0 1 1.33-.08 8.229 8.229 0 0 1 3.529.757 13.066 13.066 0 0 0-3.858-5.573 8.4 8.4 0 0 0-6.76-1.325 5.043 5.043 0 0 0-3.465 2.489 2.906 2.906 0 0 0-.172 2.118 1.452 1.452 0 0 0 .762.868 1.636 1.636 0 0 0 1.47-.152.729.729 0 0 0 .356-.7.741.741 0 0 1 .684-.8.693.693 0 0 1 .8.685 2.216 2.216 0 0 1-.994 2.034 2.987 2.987 0 0 1-1.115.439 11.758 11.758 0 0 0 1.072 12.394 22.025 22.025 0 0 0 1.7 1.84 17.793 17.793 0 0 1 2.368 2.726 11.653 11.653 0 0 1 1.841 6.521 90.956 90.956 0 0 0 10.427 2.822Zm44.532-2.272c.367-.128.671-.24.93-.336a.69.69 0 0 1 .153-.3c2.888-2.486 2.2-6.564 1.584-10.16a23.633 23.633 0 0 1-.435-3.546c-.023-3.14.17-6.994 1.506-9.721a1.979 1.979 0 0 1-1.4-1.864.766.766 0 0 1 .771-.713.743.743 0 0 1 .714.771c-.01.227.338.4.522.462a1.93 1.93 0 0 0 1.524-.142 2.213 2.213 0 0 0 1.073-1.386c.574-2.141-1.637-4.049-3.453-4.6-1.747-.536-4.068-.182-5.155 1.262 4.902 12.604 2.596 26.056 1.666 30.273Z"/><path class="cls-3" d="M87.462 287.449c.643.6 1.248 1.2 1.86 1.8 4.647-.878 11.232-3.706 14.3-5.1a40.588 40.588 0 0 0-4.529-16.045c-1.625 1.115-2.738 1.73-2.844 1.787a.744.744 0 0 1-.7-1.311 45.433 45.433 0 0 0 11.607-9.691c.814-.956 1.6-1.822 2.361-2.629-.04-.1-.1-.179-.136-.281a5.872 5.872 0 0 1-.3-1.873c-12.149-1.177-20.659-3.457-26.362-5.634H69.3c-.774.582-3.809 3.014-4.988 6.145 1.068 7.993 4.915 15.21 23.15 32.832Z"/><path class="cls-2" d="M76.375 294.255c30.694 27.07 26.953 43.045 24.941 51.628-.192.815-.366 1.553-.484 2.216-1.108 6.206.2 9.875.517 10.646 2.179 1.514 7.147 2.607 9.965 3.132a12.816 12.816 0 0 1-1.945-9.954c.087-.487.211-1.067.349-1.715v-.008c.008-.032.011-.053.018-.085 1.925-9.072 7.043-33.17-23.3-61.591-23.161-22.38-23.561-28.381-24.079-40.051h-8.319c-.089 26.553 22.11 45.59 22.337 45.782Z"/><path class="cls-3" d="M99.1 355.752a25.426 25.426 0 0 1 .267-7.914c.121-.687.3-1.452.5-2.293 1.94-8.281 5.551-23.692-24.463-50.166-.22-.182-22.94-19.649-22.853-46.905H48.9C37.156 321.66 90.3 351.372 99.1 355.752Z"/><path class="cls-2" d="M223.1 305.13a.676.676 0 0 1-.108.072 98.167 98.167 0 0 1-6.366 3.948c-.033.021-3.443 1.944-10.057 5.054a73.832 73.832 0 0 0 4.4 4.554c1.5-.644 3.051-1.277 4.64-1.873 14.361-5.384 24.35-14.25 29.69-26.35a47.548 47.548 0 0 0 3.985-21.037c-.135.814-.325 1.7-.546 2.625-.035.245-.07.5-.1.723-.015.089-.086.139-.125.214-2.262 8.465-8.547 20.74-25.413 32.07Z"/><path class="cls-7" d="M213.171 335.012a6.806 6.806 0 0 1 1.919-.989 3.236 3.236 0 0 0-.5-1.388 3.179 3.179 0 0 0-1.829-1.314 2.343 2.343 0 0 0-1.92.3 2.763 2.763 0 0 0-.435 3.858 3.237 3.237 0 0 0 1.133.99 6.914 6.914 0 0 1 1.632-1.457Zm.837 1.226a4.878 4.878 0 0 0-2.346 3.282c-.9 4.511 3.62 10.961 5.323 13.387l.421.607a4.1 4.1 0 0 1 .375 4.078 3.365 3.365 0 0 0 2.186-1.565c1.241-2.392-1.308-6.84-2.532-8.975-.322-.562-.581-1.014-.719-1.316a3.1 3.1 0 0 1 5.036-3.526c.288.3.614.706 1.021 1.211 1.538 1.921 4.675 5.916 7.419 5.645a3.366 3.366 0 0 0 2.257-1.463h-.157a4.071 4.071 0 0 1-3.5-1.845l-.407-.609c-1.634-2.475-5.978-9.048-10.508-9.863a4.83 4.83 0 0 0-3.869.952Z"/><path class="cls-3" d="M216.124 318.278a101.351 101.351 0 0 0-3.958 1.6c.042.037.095.089.137.126 1.821 1.608 3.569 1.9 5.2.875a1.809 1.809 0 0 1 1.776-.019 3.575 3.575 0 0 1 1.927 2.634c.249 1.93-.191 4.585-3.72 6.259a5.6 5.6 0 0 1-3.585.067l.058.376a4.557 4.557 0 0 1 2.572 3.562l.074-.006a129.57 129.57 0 0 0 21.7-29.845c-5.633 6.127-13.043 10.944-22.181 14.371Z"/><path class="cls-7" d="M221.612 344.35c-.368-.462-.666-.834-.876-1.052a1.643 1.643 0 0 0-2.179-.331 1.624 1.624 0 0 0-.515 2.094c.15.329.389.74.682 1.25a33.041 33.041 0 0 1 2.265 4.565c.056.034.124.028.17.077a16.1 16.1 0 0 0 5.35 3.69 16.041 16.041 0 0 0-1.637-6.657 34.1 34.1 0 0 1-3.26-3.636Zm-64.742-4.634c-1.418 5.848-2.658 10.263-3.343 12.6a17.558 17.558 0 0 1 8.305 6.31l2.6-1.222a44.727 44.727 0 0 1 3.817-12.007 29.909 29.909 0 0 0-11.379-5.681Z"/><path class="cls-8" d="M141.471 357.821c-4.3 1.541-10.018 4.438-12.836 9.5a.743.743 0 1 1-1.3-.726c2.44-4.382 7.028-7.8 13.631-10.168a19.118 19.118 0 0 1 6.424-1.127 16.9 16.9 0 0 1 10.507 3.549 6.671 6.671 0 0 1 .607-1.752 16.158 16.158 0 0 0-5.408-3.348l-.137.444a.744.744 0 0 1-.708.517h-6.641a.743.743 0 0 1-.712-.96c.011-.034.108-.357.264-.886-4.269.309-20.728 2.08-26.962 11.06 2.32 5.025 1.753 12.193 1.706 12.739a12.146 12.146 0 0 1 .938 2.907 8.3 8.3 0 0 1 1.814 6.028 25.313 25.313 0 0 1-.409 2.979c-.1.578-.206 1.156-.281 1.737a19.07 19.07 0 0 0 4.265 14.668 86.8 86.8 0 0 0 40.686-2.149c.813-3.271 5.937-26.558-8.547-41.576-4.122-4.285-10.753-5.634-16.901-3.436Zm-1.655 28.579a3.421 3.421 0 1 1-3.421 3.421 3.421 3.421 0 0 1 3.421-3.421Zm6.156 10.907c-.245.136-6.136 3.3-14.877.046a.743.743 0 0 1 .259-1.439.753.753 0 0 1 .259.046c8.1 3.014 13.589.075 13.643.046a.743.743 0 0 1 .716 1.3Zm1.078-27.982a.742.742 0 0 1 .743-.743h4.462a.743.743 0 0 1 0 1.485h-4.462a.741.741 0 0 1-.743-.738Zm6.707 22.507a.739.739 0 0 1-.544-.9c.019-.079 1.939-8.015 1.555-13.606a1.017 1.017 0 0 0-1.021-.922h-4.8a.743.743 0 0 1 0-1.485h4.8a2.5 2.5 0 0 1 2.5 2.3c.4 5.826-1.512 13.73-1.594 14.064a.742.742 0 0 1-.896.553Zm13.246 1.9a.743.743 0 0 1 .344 1.4 17.925 17.925 0 0 1-11.4 1.057.743.743 0 1 1 .319-1.451 16.666 16.666 0 0 0 10.39-.922.729.729 0 0 1 .344-.075Zm-5.445-8.666a3.3 3.3 0 1 1-3.3 3.3 3.3 3.3 0 0 1 3.3-3.291Z"/><path class="cls-3" d="M209.173 336.321a4.74 4.74 0 0 1-.752-1.918l-1.006-.425a8.789 8.789 0 0 1-.465 1.81 4.876 4.876 0 0 1-2.5 2.886 4.408 4.408 0 0 1-3.6.067 3.707 3.707 0 0 1-2.631-4.034.733.733 0 0 1 .23-.406c1.451-1.313 1.189-4.586.965-5.737a6.679 6.679 0 0 0-.51-1.833c-15.349 9.773-20.664 20.937-22.418 26.279 4.79-.925 22.964-4.941 33.826-14.423.028-.025.067-.018.1-.038a6.277 6.277 0 0 1 .321-.84 4.768 4.768 0 0 1-1.56-1.388Z"/><path class="cls-2" d="M198.313 325.34a65.026 65.026 0 0 0-3.244-5.98c-.013.007-.014.024-.027.031-10.5 4.967-26.926 20.864-29.362 39.422 1.064.1 3.848-.131 8.562-3.156.43-2.53 3.779-17.494 24.071-30.317Z"/><path class="cls-3" d="M238.614 253.013a.7.7 0 0 1-.569-.323c-5.577-2.065-13.783-4.194-25.366-5.316a10.842 10.842 0 0 1-1.591 3.649c1.1 1.234 3.87 4.781 3.324 8.673-.349 2.5-1.984 4.619-4.857 6.322.573 1.625 1.795 6.039-.438 9.3a7.019 7.019 0 0 1-2.8 2.338c6.385 1.245 8.8.677 8.831.668a.762.762 0 0 1 .905.528.74.74 0 0 1-.515.907c-.1.029-1.957.507-6.684-.162a51.291 51.291 0 0 0-8.191 15.387 38.515 38.515 0 0 0 21.671 8.9c16.944-11.383 22.886-23.673 24.908-31.839a99.352 99.352 0 0 0 .917-11.369 5.168 5.168 0 0 0-2.537-4.464 44.549 44.549 0 0 0-6.732-3.2Z"/><path class="cls-9" d="M214.008 336.238a64.035 64.035 0 0 1 3.969 5.354 3.084 3.084 0 0 1 3.775.618c.288.3.614.706 1.021 1.211 1.538 1.921 4.675 5.916 7.419 5.645a3.366 3.366 0 0 0 2.257-1.463h-.157a4.071 4.071 0 0 1-3.5-1.845l-.407-.609c-1.634-2.475-5.978-9.048-10.508-9.863a4.83 4.83 0 0 0-3.869.952Zm.578-3.603a3.179 3.179 0 0 0-1.829-1.314 2.343 2.343 0 0 0-1.92.3l2.33 3.389a6.806 6.806 0 0 1 1.919-.989 3.236 3.236 0 0 0-.5-1.386Z"/><path class="cls-9" d="M221.612 344.35c-.368-.462-.666-.834-.876-1.052a1.665 1.665 0 0 0-1.916-.472c3.663 5.406 7.689 11.817 7.689 11.817a16.041 16.041 0 0 0-1.637-6.657 34.1 34.1 0 0 1-3.26-3.636Zm-9.503-14.598c.094 0 .191.029.286.036l-.084-.547a16.736 16.736 0 0 1-4.952-3.715l2.744 4.812a3.727 3.727 0 0 1 2.006-.586Zm-38.84-53.203c.015-.011.028-.024.044-.034a7 7 0 0 1 2.337-1.011l-2.288-3.363c-.961.462-1.788.84-2.5 1.152Zm12.766 14.114a1.012 1.012 0 0 0-1.12-1.645 5.4 5.4 0 0 0-2.438.953c2.615 1.228 1.775 2.61 1.775 2.61a5.392 5.392 0 0 0 1.783-1.918Zm-3.597-2.374a7.631 7.631 0 0 1 1.493-.546 7.3 7.3 0 0 0-.54-7.608c-2.225-3.27-6.373-4.343-9.241-2.392 6.468 3.891 7.975 8.226 8.288 10.546Z"/><ellipse class="cls-3" cx="154.912" cy="329.164" rx="5.092" ry="8.569" transform="rotate(-84.652 154.912 329.164)"/><ellipse class="cls-3" cx="158.413" cy="314.226" rx="5.882" ry="9.898" transform="rotate(-84.652 158.412 314.227)"/><ellipse class="cls-3" cx="160.888" cy="296.823" rx="6.762" ry="11.378" transform="rotate(-84.652 160.888 296.823)"/><path d="M190.779 102.643c-8.741-3.253-14.632-.09-14.877.046a.743.743 0 0 0 .716 1.3c.053-.029 5.543-2.968 13.643.046a.753.753 0 0 0 .259.046.743.743 0 0 0 .259-1.439Zm-25.179 2.609a.743.743 0 1 0 .319-1.451 17.925 17.925 0 0 0-11.4 1.057.742.742 0 0 0 .344 1.4.727.727 0 0 0 .343-.084 16.664 16.664 0 0 1 10.394-.922Zm8.065 19.08a.74.74 0 0 0-.742-.742h-4.8a1.017 1.017 0 0 1-1.021-.922c-.385-5.591 1.536-13.527 1.555-13.606a.742.742 0 1 0-1.441-.354c-.083.334-2 8.238-1.594 14.064a2.5 2.5 0 0 0 2.5 2.3h4.8a.741.741 0 0 0 .743-.74Zm.416 5.597h-4.462a.743.743 0 1 0 0 1.485h4.462a.743.743 0 1 0 0-1.485Zm7.976-23.175a3.421 3.421 0 1 0 3.421 3.421 3.421 3.421 0 0 0-3.421-3.421Zm-21.741 1.569a3.3 3.3 0 1 0 3.3 3.3 3.3 3.3 0 0 0-3.3-3.3Zm12.757-45.081a.747.747 0 0 0-.551.244L161.667 75.5a.744.744 0 0 0 .038 1.035l11.278 10.782a.738.738 0 0 0 .513.206h.024a.745.745 0 0 0 .522-.24L184.174 76.3a.746.746 0 0 0 .007-1l-10.557-11.811a.739.739 0 0 0-.551-.247Zm.389 22.476-10.209-9.762 9.815-10.856 9.555 10.688Zm3.65-36.47a5.545 5.545 0 1 0-5.544-5.543 5.55 5.55 0 0 0 5.544 5.543Zm0-9.6a4.06 4.06 0 1 1-4.059 4.061 4.065 4.065 0 0 1 4.059-4.065Z"/><path d="M222.447 142.442a10.589 10.589 0 0 0-.662-2.007.734.734 0 0 0-.218-.261c-3.042-2.282-11.192-3.618-12.629-3.84l-2.951-2.5a.743.743 0 0 0-1.152.254c-.063.134-.155.248-.222.379a26.673 26.673 0 0 1-1.251-8.641 11.275 11.275 0 0 0 2.583 2.789 9.95 9.95 0 0 0 5.74 1.824 9.39 9.39 0 0 0 2.234-.267 6.5 6.5 0 0 0 4.453-3.286 4.39 4.39 0 0 0 .23-3.261 2.921 2.921 0 0 0-1.526-1.714 2.326 2.326 0 0 0-.25-.075 13.316 13.316 0 0 0-1.487-13.409 24.124 24.124 0 0 0-1.816-1.966 16.426 16.426 0 0 1-2.179-2.493 9.9 9.9 0 0 1-1.6-6.049l1.418-2.837a19.132 19.132 0 0 0 8.349-11.191c1.246-5.134-.051-10.724-3.855-16.615a32.855 32.855 0 0 1 3.612-6.229 4.454 4.454 0 0 0 .533.047c.073 0 .143 0 .213-.005a5.559 5.559 0 0 0 5.142-5.282 4.7 4.7 0 0 0-.077-.978 31.759 31.759 0 0 1 9.538-5.525.744.744 0 0 0 .213-1.277 13.606 13.606 0 0 0-15.578-.274c-1.412-.641-6.208-2.484-10.107-.041a6.188 6.188 0 0 0-2.916 7.06c-2.437.883-11.3 3.524-17.467-1.849a6.246 6.246 0 0 0 2.854-5.308A6.455 6.455 0 0 0 189.649 43a6.443 6.443 0 0 0-5.831-10.93 6.438 6.438 0 0 0-12.434.269 6.173 6.173 0 0 0-2.244-.421A6.452 6.452 0 0 0 164.634 43a6.422 6.422 0 0 0 2.072 10.578c-8.336 5.081-12.884 1.415-13.932.358 1.209-5.773-2.223-7.277-2.344-7.325a9.2 9.2 0 0 0-8.1.524c-5.935-6-16.151-.742-16.591-.51a.744.744 0 0 0 .015 1.323 58.009 58.009 0 0 1 10.156 6.462 5.145 5.145 0 0 0 1.607 5.183 5.406 5.406 0 0 0 3.49 1.448h.131a4.5 4.5 0 0 0 1.464-.258 35.592 35.592 0 0 1 3.412 4.592c-1.422 1.439-5.751 6.385-5.64 13.169.087 5.487 3.062 10.753 8.84 15.65l1.255 3.763c.008.023.037.031.047.052-2.625 3.023-1.945 7.273-1.353 10.754a22.851 22.851 0 0 1 .416 3.309c.022 3.132-.128 7.036-1.512 9.464v.021a3.434 3.434 0 0 0-1.345.405 3.717 3.717 0 0 0-1.8 2.309c-.769 2.883 1.714 5.568 4.457 6.405a7.218 7.218 0 0 0 2.078.3 6.131 6.131 0 0 0 4.133-1.471 34.865 34.865 0 0 0 6.84 10.27c.058.061.124.111.183.171a5.389 5.389 0 0 1-.355 1.827 12.67 12.67 0 0 1-1.292-1.712.747.747 0 0 0-.965-.308l-2.271 1.068c.006-.052.018-.1.024-.153a.739.739 0 0 0-.454-.77c-.348-.142-3.64-1.284-10.758 3.379a.752.752 0 0 0-.331.527 15.389 15.389 0 0 1-.343 1.58c-3.289.575-22.037 4.231-34.1 13.959.071-4.872-3.867-10.548-5.661-13.106l-.408-.59a2.994 2.994 0 0 1 .495-3.746.747.747 0 0 0 .153-.844.737.737 0 0 0-.743-.428c-2.537.239-4.225 1.132-5.016 2.658a5.371 5.371 0 0 0-.385 3.272 18.139 18.139 0 0 0-5.327-2.992.75.75 0 0 0-.668.085.741.741 0 0 0-.324.59 18.211 18.211 0 0 0 .824 6.045 5.368 5.368 0 0 0-3.18-.833c-1.707.177-3.158 1.42-4.309 3.693a.742.742 0 0 0 .125.849.76.76 0 0 0 .844.165 2.965 2.965 0 0 1 3.664.914l.4.592c1.687 2.553 6.1 9.21 11.094 10.407a133.388 133.388 0 0 0-24 35.212c-.039.085 0 .172-.01.261a46.958 46.958 0 0 0-4.1 7.316c-5.771 13.076-4.186 25.632-2.945 28.783a57.29 57.29 0 0 0-.042 1.657 6.663 6.663 0 0 0 3.257 5.756 40.113 40.113 0 0 0 3.688 1.925H69.058c-.081 0-.135.062-.208.086s-.15 0-.215.048a19.174 19.174 0 0 0-4.6 4.809 128.98 128.98 0 0 1-.2-3.736l-.021-.5a.7.7 0 0 0-.155-.341c-.031-.048-.029-.114-.07-.153a.736.736 0 0 0-.518-.215h-14.8a.743.743 0 0 0-.733.622C34.671 325.6 94.47 355.252 99.428 357.558a10.675 10.675 0 0 0 .662 2.007.734.734 0 0 0 .218.261c3.042 2.282 11.193 3.618 12.629 3.84l2.947 2.494a.737.737 0 0 0 .481.177.717.717 0 0 0 .159-.017.736.736 0 0 0 .513-.411c.063-.135.157-.25.224-.382a26.659 26.659 0 0 1 1.252 8.642 11.3 11.3 0 0 0-2.583-2.787 9.9 9.9 0 0 0-7.972-1.56 6.492 6.492 0 0 0-4.455 3.287 4.4 4.4 0 0 0-.232 3.26 2.926 2.926 0 0 0 1.528 1.717 2.361 2.361 0 0 0 .248.075 13.316 13.316 0 0 0 1.489 13.406 23.674 23.674 0 0 0 1.819 1.969 16.656 16.656 0 0 1 2.176 2.491 9.922 9.922 0 0 1 1.6 6.048l-1.418 2.838a19.128 19.128 0 0 0-8.349 11.193c-1.246 5.134.051 10.724 3.855 16.615a32.969 32.969 0 0 1-3.613 6.229 5.25 5.25 0 0 0-4.436 1.748 5.391 5.391 0 0 0-1.449 3.835 4.579 4.579 0 0 0 .087.626 31.759 31.759 0 0 1-9.551 5.532.744.744 0 0 0-.212 1.277 13.5 13.5 0 0 0 15.578.273c1.412.641 6.2 2.479 10.107.044a6.187 6.187 0 0 0 2.916-7.06c2.439-.88 11.316-3.512 17.467 1.847a6.243 6.243 0 0 0-2.854 5.307 6.461 6.461 0 0 0 1.967 4.621 6.441 6.441 0 0 0 5.831 10.927 6.416 6.416 0 0 0 6.184 4.639 6.487 6.487 0 0 0 6.245-4.907 6.232 6.232 0 0 0 2.249.421 6.45 6.45 0 0 0 4.506-11.08 6.424 6.424 0 0 0-2.074-10.581c8.34-5.092 12.884-1.417 13.932-.355-1.207 5.77 2.225 7.275 2.346 7.323a9.231 9.231 0 0 0 8.1-.522 10.1 10.1 0 0 0 7.428 2.858 22.169 22.169 0 0 0 9.166-2.351.744.744 0 0 0-.015-1.323 57.9 57.9 0 0 1-10.156-6.455 5.141 5.141 0 0 0-1.608-5.183 5.425 5.425 0 0 0-3.489-1.451 3.893 3.893 0 0 0-1.622.228 35.328 35.328 0 0 1-3.385-4.564c1.422-1.437 5.749-6.383 5.64-13.167-.087-5.487-3.059-10.753-8.84-15.653l-1.255-3.763c-.008-.023-.037-.03-.047-.052 2.624-3.022 1.942-7.268 1.353-10.749a22.9 22.9 0 0 1-.416-3.313c-.022-3.13.128-7.034 1.512-9.462.008-.014 0-.029 0-.043a3.4 3.4 0 0 0 1.339-.383 3.721 3.721 0 0 0 1.8-2.312c.769-2.885-1.714-5.57-4.457-6.4a6.674 6.674 0 0 0-6.211 1.17 34.9 34.9 0 0 0-6.84-10.271c-.057-.059-.126-.1-.184-.163a5.368 5.368 0 0 1 .357-1.832 12.815 12.815 0 0 1 1.291 1.712.75.75 0 0 0 .65.378.743.743 0 0 0 .315-.07l2.271-1.069c-.006.051-.018.1-.024.152a.738.738 0 0 0 .454.769 4.122 4.122 0 0 0 1.509.225c1.64 0 4.642-.588 9.249-3.6a.752.752 0 0 0 .331-.527 15.222 15.222 0 0 1 .344-1.582c3.29-.576 22.037-4.23 34.1-13.959-.073 4.87 3.864 10.544 5.658 13.1l.411.59a3 3 0 0 1-.5 3.747.744.744 0 0 0 .52 1.274h.07c2.537-.24 4.225-1.132 5.016-2.658a5.367 5.367 0 0 0 .385-3.271 18.269 18.269 0 0 0 5.335 2.989.751.751 0 0 0 .67-.085.741.741 0 0 0 .324-.59 18.249 18.249 0 0 0-.825-6.044 5.28 5.28 0 0 0 3.181.829c1.707-.176 3.158-1.419 4.309-3.693a.743.743 0 0 0-.969-1.013 2.955 2.955 0 0 1-3.664-.914l-.4-.593c-1.687-2.553-6.1-9.208-11.1-10.406a133.285 133.285 0 0 0 24.014-35.212c.04-.086 0-.173.011-.263a46.989 46.989 0 0 0 4.1-7.312c5.773-13.074 4.188-25.635 2.947-28.786a57.11 57.11 0 0 0 .042-1.657 6.67 6.67 0 0 0-3.257-5.756 40.5 40.5 0 0 0-3.688-1.925h10.121a.746.746 0 0 0 .423-.131 19.167 19.167 0 0 0 4.6-4.81c.086 1.194.143 2.424.2 3.734l.021.5a.688.688 0 0 0 .155.341c.031.049.029.114.07.154a.735.735 0 0 0 .518.214h14.8a.743.743 0 0 0 .733-.621c12.864-77.992-46.93-107.643-51.889-109.95Zm-1.923-1.187c.32.771 1.626 4.44.518 10.646-.118.663-.293 1.4-.484 2.216-2.012 8.583-5.753 24.558 24.94 51.628.228.192 22.426 19.229 22.338 45.781h-8.322c-.518-11.67-.918-17.671-24.079-40.051-30.341-28.42-25.223-52.519-23.3-61.591l.017-.085v-.007c.138-.648.261-1.228.349-1.714a12.817 12.817 0 0 0-1.945-9.955c2.822.525 7.789 1.618 9.968 3.132Zm-10.9 110.375c.039.039 3.882 3.865 3.323 7.858-.3 2.162-1.872 4.027-4.663 5.543a.742.742 0 0 0-.326.948c.022.054 2.208 5.186-.061 8.5-1.431 2.09-4.375 3.057-8.772 2.895a.715.715 0 0 0-.711.45 7.423 7.423 0 0 1-4.058 3.812c-1.8.553-3.87.123-6.153-1.289l-6.23-10.807c1.616-.909 5.41-3.475 6.368-7.947.82-3.824-.648-8.027-4.368-12.506l22.633-8.46c.822.295 3.657 1.475 4.5 3.891.6 1.732.075 3.805-1.572 6.158a.742.742 0 0 0 .085.954Zm1.917 84.844a3.264 3.264 0 0 1-1.133-.993 2.763 2.763 0 0 1 .435-3.857 2.321 2.321 0 0 1 1.92-.305 3.174 3.174 0 0 1 1.829 1.313 3.262 3.262 0 0 1 .507 1.414 6.793 6.793 0 0 0-1.922.966 6.914 6.914 0 0 0-1.641 1.462Zm-3.091-3.674-.847-.357a32.775 32.775 0 0 0-.243-6.917 16.752 16.752 0 0 0 4.952 3.712l.081.532a3.678 3.678 0 0 0-3.943 3.03Zm8.161.945c-.026 0-.051.008-.076.01a4.543 4.543 0 0 0-2.572-3.566l-.058-.376a5.618 5.618 0 0 0 3.587-.066c3.528-1.674 3.968-4.329 3.719-6.262a3.575 3.575 0 0 0-1.932-2.634 1.807 1.807 0 0 0-1.77.025c-1.631 1.02-3.382.728-5.2-.878-.041-.037-.093-.089-.136-.126a114.471 114.471 0 0 1 3.955-1.6c9.139-3.428 16.551-8.245 22.184-14.377a129.611 129.611 0 0 1-21.701 29.85Zm-5.289-12.63c3.11 2.738 5.7 1.814 6.977 1.018.034-.024.16-.024.351.065a2.1 2.1 0 0 1 1.086 1.481c.273 2.1-.7 3.688-2.871 4.718-.051.022-5.487 2.194-13.13-10.1a.741.741 0 0 0-.619-.343.831.831 0 0 0-.634.326.575.575 0 0 1-.389.242h-.01c-.29 0-.721-.336-1.154-.9-1.632-2.126-4.072-9.623-4.123-9.768-.356-.815-3.594-7.984-7.324-8.867a3.261 3.261 0 0 0-2.9.731.742.742 0 1 0 .95 1.141 1.745 1.745 0 0 1 1.606-.425c2.554.6 5.418 5.99 6.281 7.947.1.317 2.544 7.817 4.329 10.146a3.182 3.182 0 0 0 2.419 1.48 1.868 1.868 0 0 0 .762-.2 43.114 43.114 0 0 0 2.616 3.657c1.444 8.385.063 11.688.017 11.8a3.488 3.488 0 0 1-1.748 2.073 2.914 2.914 0 0 1-2.414.024 2.3 2.3 0 0 1-1.739-2.165c2.1-2.232 1.255-6.716 1.229-6.8-.109-2.854-6.02-13.294-13.764-23-3.846-4.817-4.2-7.7-3.822-9.27a3.323 3.323 0 0 1 1.681-2.218.691.691 0 0 0 .162-.094 3.9 3.9 0 0 1 3.367-.641c1.449.36 4.257 1.783 6.772 7.29 3.665 8.022 11.598 16.746 16.036 20.652Zm-42.373 22.931a32.171 32.171 0 0 0-11.733-5.765l.049-.21a11.179 11.179 0 0 0 1.9.182c5.451 0 9.885-3.918 9.885-8.736a8.082 8.082 0 0 0-2.584-5.855 9.293 9.293 0 0 0 7.459-8.794 8.783 8.783 0 0 0-3.683-7.055 10.5 10.5 0 0 0 7.865-9.892 9.866 9.866 0 0 0-2.7-6.736 8.171 8.171 0 0 0 3.572.888c.027 0 .056-.007.084-.008a2.379 2.379 0 0 0 .281 1.95 2.548 2.548 0 0 0 2.22 1.016c.123 0 .249 0 .38-.017.078-.007.164-.048.244-.059a4.542 4.542 0 0 0-.314.775c-.694 2.757.682 6.322 4.092 10.593A124.733 124.733 0 0 1 194.3 318.1c-7.9 3.781-18.976 13.533-25.351 25.946Zm-17.242 9.173h-5.1c.6-2.068 2.1-7.345 3.846-14.656a38.247 38.247 0 0 1 4.976.786c-1.754 7.251-3.244 12.297-3.722 13.87Zm-.907-16.113c3.778-16.1 8.5-41.065 8.007-63.669a17.357 17.357 0 0 0 4.354 1.185c.973 22.922-3.678 47.69-7.385 63.293a39.89 39.89 0 0 0-4.976-.809Zm-45.553-52.069a43.526 43.526 0 0 1 2.713 8.451 22.255 22.255 0 0 1-10.1 5.136 101.875 101.875 0 0 0-7.28-8.138c5.394-1.231 12.425-4.396 14.667-5.449Zm1.028 11.571a73.471 73.471 0 0 1 1.753 8.861.741.741 0 0 0 .735.644.7.7 0 0 0 .1-.008.74.74 0 0 0 .636-.834 68.339 68.339 0 0 0-1.95-9.56c.569-.43 1.139-.872 1.713-1.389a.746.746 0 0 0 .237-.653 41.819 41.819 0 0 0-3.19-9.93.755.755 0 0 0-.424-.4.739.739 0 0 0-.583.029l-.234.111a39.558 39.558 0 0 0-1.142-6.879 152.189 152.189 0 0 1 48.764-9.385c.254.164.508.32.766.46a4.36 4.36 0 0 0 .613 2.342c-5.825.7-10.147 4.76-10.147 9.72a9.435 9.435 0 0 0 5.03 8.057 9.494 9.494 0 0 0-.157 17.534c-4.14 1.335-6.946 4.629-6.946 8.467a8.807 8.807 0 0 0 4.828 7.566c-3.389 1.34-5.616 4.184-5.616 7.41 0 4.071 3.52 7.439 8.272 8.087l-.031.13c-9.46-.6-22.119 1.832-37.771 11.8 1.767-8.721 4.255-26.9-12.647-48.861a23.572 23.572 0 0 0 7.391-3.319Zm5.978-48.238c-.038-.039-3.881-3.882-3.318-7.865.3-2.16 1.872-4.025 4.661-5.539a.745.745 0 0 0 .326-.948c-.022-.051-2.2-5.2.063-8.5 1.325-1.935 3.952-2.912 7.812-2.912.312 0 .631.007.958.019a.715.715 0 0 0 .711-.449 7.422 7.422 0 0 1 4.058-3.81c1.807-.553 3.87-.121 6.153 1.287l6.23 10.809c-1.616.909-5.41 3.475-6.368 7.944-.82 3.824.648 8.028 4.368 12.507l-22.633 8.462c-.822-.3-3.659-1.475-4.5-3.894-.6-1.731-.075-3.8 1.57-6.155a.742.742 0 0 0-.091-.956Zm-1.914-84.844a3.246 3.246 0 0 1 1.133.99 2.764 2.764 0 0 1-.435 3.858 2.345 2.345 0 0 1-1.921.305 3.174 3.174 0 0 1-1.828-1.314 3.223 3.223 0 0 1-.5-1.388 6.806 6.806 0 0 0 1.919-.989 6.914 6.914 0 0 0 1.632-1.462Zm3.086 3.671.848.358a32.847 32.847 0 0 0 .242 6.919 16.749 16.749 0 0 0-4.952-3.715l-.084-.547c.095.007.191.036.286.036a3.731 3.731 0 0 0 2.109-.645 3.786 3.786 0 0 0 1.551-2.403Zm-8.16-.945c.025 0 .05 0 .074-.006a4.551 4.551 0 0 0 2.572 3.562l.058.376a5.6 5.6 0 0 0-3.586.067c-3.528 1.673-3.968 4.329-3.719 6.259a3.571 3.571 0 0 0 1.927 2.634 1.8 1.8 0 0 0 1.775-.02c1.635-1.023 3.384-.732 5.2.876.042.037.094.089.137.126-1.3.545-2.6 1.088-3.958 1.6-9.138 3.427-16.548 8.244-22.182 14.375a129.57 129.57 0 0 1 21.702-29.849Zm5.288 12.631a6.378 6.378 0 0 0-4.225-1.834 5.176 5.176 0 0 0-2.75.818c-.034.022-.162.024-.353-.068a2.093 2.093 0 0 1-1.086-1.48c-.273-2.1.7-3.688 2.871-4.719.046-.029 5.48-2.2 13.13 10.105a.741.741 0 0 0 .619.343h.017a.756.756 0 0 0 .617-.328.57.57 0 0 1 .387-.24c.244-.026.725.324 1.166.9 1.632 2.126 4.072 9.624 4.123 9.769.356.815 3.594 7.984 7.324 8.866a3.26 3.26 0 0 0 2.9-.73.743.743 0 0 0-.951-1.142 1.758 1.758 0 0 1-1.608.426c-2.554-.6-5.418-5.991-6.281-7.947-.1-.317-2.544-7.817-4.329-10.146a3.077 3.077 0 0 0-2.419-1.476 1.849 1.849 0 0 0-.76.2 43.006 43.006 0 0 0-2.616-3.659c-1.444-8.383-.063-11.686-.017-11.8a3.483 3.483 0 0 1 1.751-2.073 2.889 2.889 0 0 1 2.411-.024 2.3 2.3 0 0 1 1.739 2.165c-2.1 2.23-1.255 6.716-1.229 6.8.107 2.849 6.015 13.287 13.764 23 3.846 4.818 4.2 7.7 3.822 9.27a3.324 3.324 0 0 1-1.681 2.221.691.691 0 0 0-.162.094 3.856 3.856 0 0 1-3.367.641c-1.449-.36-4.257-1.783-6.772-7.29-3.662-8.025-11.597-16.752-16.035-20.662Zm42.373-22.93a32.148 32.148 0 0 0 11.733 5.763l-.05.211a11.243 11.243 0 0 0-1.9-.18c-5.452 0-9.885 3.918-9.885 8.734a8.078 8.078 0 0 0 2.588 5.855 9.3 9.3 0 0 0-7.461 8.8 8.774 8.774 0 0 0 3.681 7.053 10.508 10.508 0 0 0-7.863 9.894 9.856 9.856 0 0 0 2.619 6.652 8.112 8.112 0 0 0-3.583-.8 2.388 2.388 0 0 0-.272-1.946 2.334 2.334 0 0 0-1.55-.955 4.053 4.053 0 0 0-1.287 0 4.579 4.579 0 0 0 .31-.761c.691-2.759-.687-6.324-4.095-10.6a124.827 124.827 0 0 1-8.335-11.776c7.897-3.778 18.975-13.529 25.35-25.944Zm17.242-9.174h5.1c-.6 2.068-2.1 7.344-3.846 14.656a38.077 38.077 0 0 1-4.976-.786c1.754-7.249 3.244-12.297 3.722-13.87Zm.908 16.1c-3.778 16.1-8.5 41.07-8.011 63.678a17.117 17.117 0 0 0-4.351-1.17c-.977-22.93 3.677-47.708 7.385-63.316a39.576 39.576 0 0 0 4.977.813Zm1.743 16.306c3.475 1.216 5.722 3.969 5.722 7.011 0 3.732-3.478 6.968-8.088 7.527a.743.743 0 0 0-.116 1.451c4.206 1.207 7.031 4.51 7.031 8.218 0 3.543-2.542 6.7-6.475 8.042a.743.743 0 0 0-.048 1.388c3.468 1.451 5.623 4.3 5.623 7.435 0 4.3-4.162 7.969-9.476 8.344-.061 0-.1.058-.152.075l-.031-.032a18.633 18.633 0 0 0-2.252-1.388s.005-.007.005-.012c-.585-22.021 3.9-46.452 7.643-62.666 4.082.5 7.122 3.286 7.122 6.645 0 3.1-2.636 5.787-6.407 6.532a.743.743 0 0 0-.1 1.43Zm-12.654 52.937a13.841 13.841 0 0 1 8.421 2.027c.026.017 2.309 1.533 2.261 3.689a26.293 26.293 0 0 0-8.728-1.849.783.783 0 0 0-.767.718.743.743 0 0 0 .719.767c.07 0 7.021.264 9.836 2.755.027.025 2.395 2.49 1.733 5.044-.47-.3-.863-.514-1.008-.587-3.584-2.595-10.9-2.977-11.212-2.991a.769.769 0 0 0-.779.706.745.745 0 0 0 .706.779c.073 0 7.188.374 10.507 2.766 1.122.588 2.822 1.766 3.086 2.55a1.878 1.878 0 0 1 .084.373.546.546 0 0 0-.021.072c0 .007.006.012.006.02a.453.453 0 0 1-.048.267c-.145.189-.645.373-1.651.31a1.681 1.681 0 0 1-1.282-.631 5.636 5.636 0 0 0-3.316-1.616c-3.372-.614-5.763-.384-6.878.034a4.118 4.118 0 0 0-.811.472c-1.107.744-3.412 2.292-9.28 2.629-.088 0-.143.073-.22.107a5.254 5.254 0 0 1-.655-.531 3.128 3.128 0 0 0-2.216-1.037c-1.419-.075-2.4.215-2.919.89a1.846 1.846 0 0 0-.191.317 15 15 0 0 1-4.165-.8 11.861 11.861 0 0 0-3.448-1.139c-.058 0-.1.039-.15.045-2.45-3.456-3.4-6.663-2.789-9.552a10.179 10.179 0 0 1 3.806-5.7 36.766 36.766 0 0 0 8.894-3.114 61.468 61.468 0 0 1 6.673-2.967 2.062 2.062 0 0 1 .4-.1 15.506 15.506 0 0 1 11.079 2.929 4.616 4.616 0 0 1 1 1.842 15.968 15.968 0 0 0-6.862-.966.743.743 0 0 0-.648.827.73.73 0 0 0 .833.65Zm15.081 11.978h.647a127.743 127.743 0 0 0 23.915-2.531l-17.356 6.488a.745.745 0 0 0-.295 1.19c.194.22.357.435.54.653a14.381 14.381 0 0 1-1.566-.629 17 17 0 0 0-4.717-.939 2.83 2.83 0 0 0-.067-.309 4.506 4.506 0 0 0-1.424-1.817 5.057 5.057 0 0 0 .323-2.101Zm5.048 25.5L187 281.248a.733.733 0 0 0 .245.256 10.577 10.577 0 0 0 5.256 1.83 41.176 41.176 0 0 1 1.445 12.033 9.757 9.757 0 0 0-5.076-3.637 5.755 5.755 0 0 0-1.676-.144 4.15 4.15 0 0 0 .513-1.254 2.247 2.247 0 0 0-2.031-2.777 9.151 9.151 0 0 0-8.356-12.238l-2.613-3.837.135-.066a36.343 36.343 0 0 1 5.412-2.166.722.722 0 0 0 .04.359Zm-12.4 38.528a7.544 7.544 0 0 1 4.544 6.733c0 3.964-3.432 7.289-7.814 7.567a.744.744 0 0 0-.363 1.362 6.905 6.905 0 0 1 3.3 5.72c0 4-3.769 7.251-8.4 7.251a9.654 9.654 0 0 1-1.553-.185c3.645-15.717 7.952-39.611 7.039-61.836.223.008.45.019.652.019a13.337 13.337 0 0 0 1.578-.091l3.843 5.144a8.8 8.8 0 0 0 .784 7.777 10.875 10.875 0 0 1-1.672.382.744.744 0 0 0-.1 1.452 8.977 8.977 0 0 1 6.886 8.491c0 4.462-3.652 8.245-8.492 8.8a.743.743 0 0 0-.234 1.41Zm5.465-35.994 2.3 3.381a6.513 6.513 0 0 0-4.164 2.852l-3.051-4.085c.873-.319 2.497-.982 4.918-2.141Zm-.9 16.721.11.127c-.06-.032-.112-.072-.173-.1Zm.527-1.648c-2.227-3.27-1.705-7.519 1.161-9.471s7.012-.88 9.239 2.392a7.3 7.3 0 0 1 .542 7.608 6.757 6.757 0 0 0-4.062 2.765 7.318 7.318 0 0 1-6.876-3.287Zm7.708 4.678a5.857 5.857 0 0 1 4.218-2.874c.085-.007.169-.009.249-.009a1.168 1.168 0 0 1 .994.365.891.891 0 0 1 .09.68 4.585 4.585 0 0 1-2 2.527 5.369 5.369 0 0 1-2.437.953 1.01 1.01 0 0 1-1.118-1.642Zm2.384-24.924a36.784 36.784 0 0 0-8.9 3.116 62.224 62.224 0 0 1-6.668 2.965 2.076 2.076 0 0 1-.407.1 15.355 15.355 0 0 1-11.079-2.929 4.639 4.639 0 0 1-1-1.823 15.851 15.851 0 0 0 5.56 1.008 11.677 11.677 0 0 0 1.3-.063.746.746 0 0 0 .648-.827.724.724 0 0 0-.827-.648 13.86 13.86 0 0 1-8.419-2.025c-.026-.017-2.3-1.546-2.262-3.689a26.22 26.22 0 0 0 8.732 1.854h.024a.743.743 0 0 0 .024-1.485c-.07 0-7.021-.261-9.838-2.752-.026-.027-2.4-2.481-1.731-5.046.47.3.863.514 1.008.586 3.584 2.595 10.9 2.978 11.212 2.992h.036a.743.743 0 0 0 .037-1.485c-.073 0-7.188-.375-10.507-2.767-1.124-.587-2.822-1.763-3.086-2.547a1.789 1.789 0 0 1-.08-.414c0-.012.016-.02.017-.033s-.007-.013-.006-.022a.443.443 0 0 1 .048-.266c.142-.188.648-.394 1.651-.309a1.682 1.682 0 0 1 1.282.631 5.634 5.634 0 0 0 3.316 1.616c3.364.609 5.759.382 6.878-.034a4.221 4.221 0 0 0 .811-.472c1.107-.745 3.412-2.293 9.28-2.629.088 0 .143-.074.22-.107a5.178 5.178 0 0 1 .655.53 3.109 3.109 0 0 0 2.215 1.038c1.4.053 2.4-.215 2.92-.89a1.911 1.911 0 0 0 .19-.317 14.838 14.838 0 0 1 4.165.8 11.857 11.857 0 0 0 3.449 1.137h.075c.024 0 .054-.028.086-.033 2.44 3.451 3.393 6.653 2.78 9.54a10.194 10.194 0 0 1-3.805 5.706Zm-33.408 68.454c-4.085-.5-7.124-3.287-7.124-6.643 0-3.1 2.636-5.79 6.409-6.535a.742.742 0 0 0 .1-1.429c-3.475-1.217-5.722-3.969-5.722-7.012 0-3.731 3.478-6.967 8.088-7.526a.743.743 0 0 0 .116-1.451c-4.206-1.207-7.031-4.508-7.031-8.216 0-3.541 2.542-6.7 6.475-8.044a.743.743 0 0 0 .048-1.388c-3.468-1.451-5.623-4.3-5.623-7.433 0-4.3 4.162-7.969 9.476-8.346.06 0 .095-.057.15-.075l.033.034a18.164 18.164 0 0 0 2.252 1.382c0 .007-.007.012-.007.018.59 22.019-3.899 46.449-7.64 62.664Zm-3.039-79.515a125.735 125.735 0 0 0-24.564 2.524l17.356-6.489a.744.744 0 0 0 .295-1.19c-.194-.22-.357-.434-.54-.652a14.177 14.177 0 0 1 1.568.631 17.08 17.08 0 0 0 4.713.937 3.149 3.149 0 0 0 .069.311 4.507 4.507 0 0 0 1.424 1.815 5.041 5.041 0 0 0-.321 2.113Zm8.783-4.4a15.267 15.267 0 0 0 6.439-2.468 3.73 3.73 0 0 1 .5-.31 10.722 10.722 0 0 1 4.111-.227 15.277 15.277 0 0 0-6.445 2.469 4.2 4.2 0 0 1-.5.31 10.865 10.865 0 0 1-4.105.226Zm-13.833-21.108-6.709-11.643a.751.751 0 0 0-.245-.256 10.49 10.49 0 0 0-5.249-1.8 41.152 41.152 0 0 1-1.452-12.061A9.757 9.757 0 0 0 133 208.27a5.852 5.852 0 0 0 1.429.179c.092 0 .175-.037.266-.042-.053.092-.142.177-.188.27a2.693 2.693 0 0 0-.022 2.786 2.4 2.4 0 0 0 1.729.918 9.192 9.192 0 0 0 8.289 12.333h.066l2.593 3.81-.137.067a36.305 36.305 0 0 1-5.409 2.165.716.716 0 0 0-.035-.363Zm7.3-17.61c2.225 3.273 1.705 7.522-1.161 9.474s-7.016.878-9.242-2.392a7.3 7.3 0 0 1-.539-7.608 7.05 7.05 0 0 0 4.113-2.77 7.309 7.309 0 0 1 6.833 3.297Zm5.091-20.92a7.539 7.539 0 0 1-4.542-6.731c0-3.964 3.432-7.289 7.814-7.567a.744.744 0 0 0 .363-1.362 6.911 6.911 0 0 1-3.3-5.722c0-4 3.768-7.249 8.4-7.249a9.559 9.559 0 0 1 1.554.184c-3.646 15.719-7.954 39.617-7.038 61.845a15.039 15.039 0 0 0-2.231.063l-3.841-5.144a8.813 8.813 0 0 0-.784-7.777 11.059 11.059 0 0 1 1.671-.384.743.743 0 0 0 .1-1.451 8.973 8.973 0 0 1-6.886-8.489c0-4.462 3.652-8.247 8.492-8.806a.743.743 0 0 0 .232-1.41Zm-5.464 36-2.288-3.363a6.64 6.64 0 0 0 4.151-2.872l3.05 4.085c-.852.318-2.46.97-4.909 2.147Zm.951-16.742-.018-.023c.01 0 .019.013.03.018Zm-10.059-1.091a5.4 5.4 0 0 1-2.438.953 1.012 1.012 0 0 1-1.12-1.645 5.4 5.4 0 0 1 1.782-1.918 5.129 5.129 0 0 1 2.683-.965 2.115 2.115 0 0 1 .4.036.888.888 0 0 1 .6.332c.414.614-.307 2.118-1.907 3.207Zm-22.264-22.106a22.716 22.716 0 0 0-1.773-.51c.315-.149.625-.3.956-.451.27.317.542.638.814.961Zm-4 .556a22.988 22.988 0 0 1 5.789 1.71.247.247 0 0 0 .029.006 52.826 52.826 0 0 1 6.286 9.964c.075.165.158.312.235.472-.04.042-.1.049-.131.1a17.422 17.422 0 0 1-2.712 3.509 40.209 40.209 0 0 0-21.035-9.455c1.4-.888 2.845-1.772 4.388-2.645.028-.015 2.454-1.381 7.15-3.661Zm9.351 17.442c.058.014.107.064.167.064a.736.736 0 0 0 .484-.179 18.276 18.276 0 0 0 3.1-3.7c.071.126.145.246.218.368a45.843 45.843 0 0 0 1.417 14.34 6.859 6.859 0 0 0-.806.14 8.586 8.586 0 0 0-4.74 4.174 19.991 19.991 0 0 0-3.9.315 64.67 64.67 0 0 0-3.738-.76 52.3 52.3 0 0 0 7.797-14.762Zm-8.7 54.435c-2.748.737-5.566 1.6-8.429 2.594a43.876 43.876 0 0 0 2.93-3.1 70.405 70.405 0 0 1 2-2.242 9.377 9.377 0 0 0 3.493 2.748Zm-11.375 5.244a126.991 126.991 0 0 1 44.46-8.214 9.252 9.252 0 0 0 2.076 3.464 6.859 6.859 0 0 0 .684.529 5.1 5.1 0 0 0 1.368 4.384 154.748 154.748 0 0 0-47.462 9.4 41.219 41.219 0 0 0-3.184-7.857c-.013-.024-.044-.026-.059-.048a52.744 52.744 0 0 0 2.117-1.658Zm102.329 46.478c.563.187 1.149.358 1.769.509-.314.148-.624.3-.954.449-.272-.319-.543-.636-.815-.961Zm4-.557a22.962 22.962 0 0 1-5.786-1.707h-.024a52.8 52.8 0 0 1-6.291-9.97c-.075-.164-.158-.311-.235-.471.04-.042.1-.05.131-.1a17.41 17.41 0 0 1 2.709-3.509 40.252 40.252 0 0 0 21.036 9.454 99.485 99.485 0 0 1-4.386 2.643c-.034.011-2.459 1.378-7.158 3.657Zm-9.347-17.442a.7.7 0 0 0-.652.118 18.207 18.207 0 0 0-3.1 3.7c-.071-.127-.146-.246-.218-.368a45.916 45.916 0 0 0-1.406-14.3 6.681 6.681 0 0 0 .792-.182 8.6 8.6 0 0 0 4.743-4.176 18.17 18.17 0 0 0 4.01-.289c1.337.311 2.535.552 3.619.742a52.249 52.249 0 0 0-7.792 14.752Zm8.709-54.431a119.48 119.48 0 0 0 8.408-2.579 44.445 44.445 0 0 0-2.914 3.081 72.655 72.655 0 0 1-2 2.24 9.361 9.361 0 0 0-3.497-2.745Zm11.37-5.247A126.975 126.975 0 0 1 175 242.617a9.262 9.262 0 0 0-2.077-3.464 6.859 6.859 0 0 0-.684-.529 5.1 5.1 0 0 0-1.366-4.387 154.748 154.748 0 0 0 47.463-9.4 41.137 41.137 0 0 0 3.183 7.854c.013.024.038.034.054.055a50.144 50.144 0 0 0-2.104 1.654Zm-50.294-1.613c-.249-.161-.5-.293-.755-.432a4.344 4.344 0 0 0-.614-2.373c5.825-.7 10.147-4.756 10.147-9.718a9.438 9.438 0 0 0-5.03-8.059 9.494 9.494 0 0 0 .154-17.535c4.143-1.335 6.949-4.629 6.949-8.467a8.805 8.805 0 0 0-4.828-7.565c3.386-1.34 5.614-4.182 5.614-7.408 0-4.071-3.52-7.441-8.27-8.09l.027-.114a42.97 42.97 0 0 0 2.7.085c9.12 0 20.868-2.844 35.07-11.887-1.767 8.726-4.243 26.894 12.65 48.848a23.547 23.547 0 0 0-7.391 3.321 73.4 73.4 0 0 1-1.753-8.863.727.727 0 0 0-.835-.636.741.741 0 0 0-.636.835 68.157 68.157 0 0 0 1.951 9.561c-.569.431-1.14.873-1.714 1.39a.746.746 0 0 0-.237.653 41.832 41.832 0 0 0 3.188 9.928.75.75 0 0 0 .423.4.73.73 0 0 0 .259.046.758.758 0 0 0 .324-.072l.237-.113a39.587 39.587 0 0 0 1.144 6.885 152.293 152.293 0 0 1-48.778 9.377Zm47.451-17.822a43.566 43.566 0 0 1-2.711-8.453 22.243 22.243 0 0 1 10.1-5.136 102.07 102.07 0 0 0 7.28 8.138c-5.399 1.23-12.431 4.395-14.673 5.448Zm-10.881-79.384 2.394 2.026c.169.14 4.116 3.507 2.9 10.2-.072.391-.177.881-.282 1.379-15.778 10.343-28.447 12.881-37.842 12.354a333.358 333.358 0 0 1 3.35-12.884c3.455-.184 22.07-1.688 28.849-12.138.036-.058.09-.1.108-.163.168-.256.368-.501.519-.777Zm4.358-30.791a17.793 17.793 0 0 0 2.368 2.726 22.025 22.025 0 0 1 1.7 1.84 11.76 11.76 0 0 1 1.072 12.394 2.987 2.987 0 0 0-1.115.439 2.216 2.216 0 0 0-.994 2.034.691.691 0 0 0 .8.684.741.741 0 0 0 .685-.8.727.727 0 0 1 .355-.7 1.642 1.642 0 0 1 1.471-.153 1.46 1.46 0 0 1 .762.869 2.911 2.911 0 0 1-.172 2.118 5.045 5.045 0 0 1-3.466 2.489 8.4 8.4 0 0 1-6.76-1.325 13.065 13.065 0 0 1-3.857-5.573 8.229 8.229 0 0 0 3.529.757 11.513 11.513 0 0 0 1.33-.079 9.642 9.642 0 0 0 4.339-1.481 6.4 6.4 0 0 0 2.754-3.978 4.912 4.912 0 0 0-1.564-4.731 3.631 3.631 0 0 0-4.891.293 3.459 3.459 0 0 0-.793 2.784 3.068 3.068 0 0 0 1.34 2.216.745.745 0 1 0 .789-1.263 1.585 1.585 0 0 1-.666-1.154 2 2 0 0 1 .426-1.584 2.15 2.15 0 0 1 2.861-.128 3.452 3.452 0 0 1 1.035 3.28 4.914 4.914 0 0 1-2.13 3.035 8.17 8.17 0 0 1-3.677 1.238c-1.342.145-3.8.174-5.391-1.434a6.713 6.713 0 0 1-1.55-5.115 24.02 24.02 0 0 1 .385-2.8c.109-.6.215-1.2.3-1.8a20.679 20.679 0 0 0-3.549-14.439 90.956 90.956 0 0 1 10.434 2.822 11.653 11.653 0 0 0 1.833 6.516Zm-58.477-8.047-.84-2.512c4.622-1.514 32.446-9.782 58.771.722l-.931 1.86c-29.01-9.677-52.557-1.763-57-.07Zm1.247-32.207c-1.545 3.848-6.037 17.459 2.684 26.8-.97.242-1.842.475-2.592.686-11.686-11.758-4.607-24.66-3.452-26.565a78.91 78.91 0 0 1 3.36-.921Zm58.482 2.321c1 2.1 7.148 16.307-4.547 25.5q-1.56-.532-3.122-.987c8.137-8.806 5.56-21.479 4.413-25.6q1.621.509 3.256 1.087Zm-4.951-1.582c.76 2.366 4.778 16.562-4.316 25.643-17.868-4.756-35.283-2.2-44.881.022-10.388-10.134-2.62-26.662-2.539-26.828V64.1c10.296-2.375 30.059-5.145 51.736 1.176Zm11.659 18.251c-1.438 5.962-6.309 9.411-7.551 10.2q-1.044-.424-2.092-.812c10.014-8.568 6.548-20.935 4.838-25.35.352.134.7.257 1.057.4 3.626 5.576 4.893 10.81 3.748 15.562ZM222.6 58.3a3.912 3.912 0 0 1-2.66 1.311 2.926 2.926 0 0 1-1.991-.685 3.655 3.655 0 0 1 4.852-5.316 2.762 2.762 0 0 1 .863 2.162A3.93 3.93 0 0 1 222.6 58.3Zm-81.556 1.257a3.94 3.94 0 0 1-2.527-1.061 3.356 3.356 0 0 1-.627-4.654 2.749 2.749 0 0 1 2.071-.863h.092a4.081 4.081 0 0 1 3.838 3.724 2.729 2.729 0 0 1-.685 1.991 2.833 2.833 0 0 1-2.16.862Zm2.873.48a3.8 3.8 0 0 0 .387-.342 4.2 4.2 0 0 0 1.069-3.059 5.559 5.559 0 0 0-5.282-5.142 4.275 4.275 0 0 0-3.3 1.347c-.072.079-.119.172-.183.255a59.381 59.381 0 0 0-8.814-5.762c2.929-1.18 9.873-3.3 13.837 1.236a.749.749 0 0 0 .97.13c.036-.024 3.649-2.394 7.217-.73.106.048 2.563 1.212 1.419 6.013a.744.744 0 0 0 .143.636 9.836 9.836 0 0 0 7.381 3.057c2.666 0 6.047-.91 10.122-3.722.031-.022.03-.063.056-.088s.046-.08.076-.117a.718.718 0 0 0 .166-.318c0-.016.019-.025.021-.041a.706.706 0 0 0-.122-.432c-.007-.012 0-.028-.008-.04a.712.712 0 0 0-.516-.351 4.965 4.965 0 0 1-2.334-8.96.743.743 0 0 0 0-1.2 4.933 4.933 0 0 1-2.061-4.017 4.987 4.987 0 0 1 4.98-4.98 4.907 4.907 0 0 1 2.452.675.742.742 0 0 0 1.107-.585 4.953 4.953 0 0 1 9.834-.372.736.736 0 0 0 .353.522.727.727 0 0 0 .626.063 4.871 4.871 0 0 1 1.633-.3 4.987 4.987 0 0 1 4.98 4.98 4.93 4.93 0 0 1-2.063 4.017.743.743 0 0 0 0 1.2 4.927 4.927 0 0 1 2.063 4.014 4.723 4.723 0 0 1-2.893 4.516c-.048.02-.06.075-.1.1s-.095.018-.131.054-.03.094-.058.138a.638.638 0 0 0-.107.253.629.629 0 0 0 0 .273c.009.052-.021.1 0 .153s.074.06.1.1.018.1.054.133a15.306 15.306 0 0 0 11.239 4.4 25.324 25.324 0 0 0 9.22-1.85.747.747 0 0 0 .384-.977 4.753 4.753 0 0 1 2.09-5.942c3.8-2.368 8.982.271 9.033.292a.733.733 0 0 0 .759-.043 11.938 11.938 0 0 1 13.024-.784 33.283 33.283 0 0 0-8.24 4.946 4.019 4.019 0 0 0-.7-.873c-1.831-1.669-4.859-1.347-6.753.723s-1.934 5.118-.1 6.789a4.01 4.01 0 0 0 .822.564 34.526 34.526 0 0 0-3.365 5.824 96.472 96.472 0 0 0-2.281-.853h-.01a93.15 93.15 0 0 0-4.806-1.563c-.015-.007-.03-.006-.045-.013-26.971-8-51.113-2.071-58.36.114-.013 0-.022.008-.035.011-.69.208-1.221.379-1.586.5a35.731 35.731 0 0 0-3.362-4.573Zm-2.06 18.5c-.118-6.925 4.967-11.891 5.488-12.382l.161-.056c-2.053 4.245-6.069 15.811 3.877 26.388-.595.182-1.064.333-1.363.433-5.32-4.564-8.076-9.399-8.161-14.383Zm7.952 50.719c-1.816-.551-4.027-2.459-3.454-4.6a2.207 2.207 0 0 1 1.074-1.385 1.926 1.926 0 0 1 1.524-.143c.184.06.532.234.522.462a.743.743 0 0 0 .714.771.766.766 0 0 0 .771-.713 1.981 1.981 0 0 0-1.4-1.864c1.336-2.727 1.529-6.581 1.506-9.721a23.515 23.515 0 0 0-.436-3.546c-.611-3.6-1.3-7.674 1.585-10.16a.692.692 0 0 0 .153-.3c.259-.1.562-.208.93-.337-.93 4.217-3.236 17.669 1.67 30.278-1.089 1.44-3.41 1.794-5.157 1.258ZM174.48 144.7a19.122 19.122 0 0 0 6.424-1.127c6.6-2.366 11.19-5.786 13.631-10.168a.743.743 0 0 0-1.3-.725c-2.817 5.057-8.535 7.954-12.835 9.5-6.148 2.2-12.779.849-16.9-3.432-14.484-15.018-9.36-38.305-8.548-41.576a86.8 86.8 0 0 1 40.686-2.149 19.062 19.062 0 0 1 4.262 14.667c-.074.581-.178 1.159-.28 1.737a25.093 25.093 0 0 0-.409 2.98 8.289 8.289 0 0 0 1.814 6.027 12.146 12.146 0 0 0 .938 2.907c-.047.546-.614 7.714 1.706 12.739-6.234 8.98-22.693 10.751-26.962 11.06l.263-.886a.742.742 0 0 0-.711-.96h-6.641a.746.746 0 0 0-.709.517l-.136.444a16.158 16.158 0 0 1-5.408-3.348 6.653 6.653 0 0 0 .607-1.753 16.89 16.89 0 0 0 10.508 3.546Zm-14.439-3.326a17.562 17.562 0 0 0 8.306 6.31c-.685 2.333-1.925 6.748-3.343 12.6a29.909 29.909 0 0 1-11.378-5.677 44.727 44.727 0 0 0 3.817-12.007Zm-3.847-.191c-2.436 18.558-18.868 34.455-29.362 39.422-.013.007-.014.024-.027.031a65.026 65.026 0 0 1-3.244-5.98c20.292-12.823 23.64-27.787 24.071-30.317 4.714-3.021 7.497-3.256 8.562-3.152Zm-33.227 32.082a6.679 6.679 0 0 1-.51-1.833c-.225-1.151-.486-4.424.965-5.737a.733.733 0 0 0 .23-.406 3.708 3.708 0 0 0-2.631-4.034 4.41 4.41 0 0 0-3.6.067 4.883 4.883 0 0 0-2.5 2.886 8.914 8.914 0 0 0-.464 1.81l-1.006-.424a4.456 4.456 0 0 0-2.313-3.307 6.175 6.175 0 0 0 .321-.84c.03-.02.07-.013.1-.038 10.862-9.481 29.036-13.5 33.826-14.423-1.754 5.346-7.069 16.514-22.418 26.283Zm-27.6-27.912a16.085 16.085 0 0 1 5.349 3.69c.046.049.115.043.17.077a33.149 33.149 0 0 0 2.266 4.565c.293.51.532.921.682 1.25a1.623 1.623 0 0 1-.515 2.094 1.643 1.643 0 0 1-2.179-.331c-.211-.218-.508-.59-.876-1.052A34.1 34.1 0 0 0 97 152.014a16.041 16.041 0 0 1-1.635-6.657Zm-1.88 9.493-.406-.61a4.071 4.071 0 0 0-3.5-1.845h-.157a3.363 3.363 0 0 1 2.256-1.463c2.745-.271 5.882 3.724 7.42 5.645.407.5.733.914 1.021 1.211a3.1 3.1 0 0 0 5.035-3.526c-.138-.3-.4-.754-.718-1.315-1.224-2.136-3.773-6.584-2.532-8.976a3.362 3.362 0 0 1 2.186-1.565 4.1 4.1 0 0 0 .375 4.078l.421.607c1.7 2.426 6.223 8.876 5.323 13.387a4.881 4.881 0 0 1-2.346 3.282 4.83 4.83 0 0 1-3.872.95c-4.529-.806-8.873-7.382-10.508-9.856ZM72.6 230.5a47.566 47.566 0 0 1 3.986-21.037c5.34-12.1 15.329-20.966 29.69-26.35 1.589-.6 3.138-1.229 4.64-1.872a76.5 76.5 0 0 1 4.4 4.553c-6.614 3.11-10.025 5.033-10.057 5.054a100.404 100.404 0 0 0-6.366 3.948.676.676 0 0 0-.108.072c-16.87 11.326-23.155 23.6-25.406 32.07-.039.075-.11.125-.125.214-.034.221-.069.478-.1.723a32.17 32.17 0 0 0-.554 2.625Zm3.66 13.282a5.166 5.166 0 0 1-2.537-4.464 99.352 99.352 0 0 1 .917-11.369c2.022-8.166 7.964-20.456 24.908-31.839a38.507 38.507 0 0 1 21.671 8.905 51.291 51.291 0 0 1-8.191 15.387c-4.727-.669-6.587-.191-6.684-.162a.739.739 0 0 0-.515.907.759.759 0 0 0 .9.527c.032-.008 2.447-.576 8.832.669a7.029 7.029 0 0 0-2.805 2.338c-2.232 3.26-1.011 7.674-.437 9.3-2.874 1.7-4.509 3.826-4.857 6.322-.546 3.891 2.225 7.439 3.323 8.673a10.878 10.878 0 0 0-1.591 3.65c-11.582-1.123-19.789-3.252-25.365-5.317a.7.7 0 0 0-.569-.324h-.272a44.466 44.466 0 0 1-6.732-3.201Zm-6.96 4.689h13.412c5.7 2.178 14.215 4.46 26.36 5.637a5.861 5.861 0 0 0 .3 1.871c.036.1.1.183.136.281a70.358 70.358 0 0 0-2.359 2.631 45.457 45.457 0 0 1-11.606 9.691.743.743 0 0 0 .35 1.4.736.736 0 0 0 .351-.087c.106-.057 1.22-.672 2.845-1.787a40.591 40.591 0 0 1 4.528 16.045c-3.062 1.39-9.648 4.218-14.294 5.095-.613-.6-1.217-1.2-1.861-1.8-18.235-17.621-22.082-24.839-23.151-32.829 1.181-3.132 4.217-5.566 4.989-6.148Zm-20.4 0h3.651c-.088 27.257 22.632 46.726 22.852 46.908 30.014 26.471 26.4 41.882 24.463 50.163-.2.842-.377 1.606-.5 2.293a25.439 25.439 0 0 0-.266 7.917c-8.794-4.379-61.943-34.094-50.2-107.281Zm52.447 110.274c-.32-.771-1.626-4.443-.518-10.649.118-.662.293-1.4.484-2.215 2.012-8.584 5.753-24.558-24.94-51.626-.228-.192-22.426-19.231-22.338-45.784h8.322c.518 11.671.918 17.672 24.079 40.052 30.341 28.42 25.223 52.518 23.3 61.59l-.018.089c-.138.647-.262 1.228-.349 1.714a12.82 12.82 0 0 0 1.945 9.957c-2.814-.521-7.784-1.614-9.963-3.128Zm14.777 5.676-2.39-2.024v-.006c-.169-.14-4.116-3.507-2.9-10.2.072-.391.177-.88.281-1.377 15.779-10.346 28.447-12.884 37.843-12.355a334.182 334.182 0 0 1-3.35 12.883c-3.457.184-22.084 1.691-28.859 12.151-.031.054-.081.089-.1.149-.169.258-.369.502-.521.779Zm-4.354 30.789a17.9 17.9 0 0 0-2.363-2.724 21.6 21.6 0 0 1-1.7-1.843 11.758 11.758 0 0 1-1.073-12.391 3.009 3.009 0 0 0 1.116-.439 2.222 2.222 0 0 0 .994-2.036.71.71 0 0 0-.8-.685.741.741 0 0 0-.684.8.732.732 0 0 1-.358.7 1.609 1.609 0 0 1-1.468.153 1.458 1.458 0 0 1-.762-.871 2.906 2.906 0 0 1 .172-2.116 5.027 5.027 0 0 1 3.466-2.489 8.4 8.4 0 0 1 6.76 1.325 13.065 13.065 0 0 1 3.861 5.581 8.842 8.842 0 0 0-4.865-.688 9.739 9.739 0 0 0-4.337 1.48 6.409 6.409 0 0 0-2.754 3.981 4.907 4.907 0 0 0 1.564 4.728 3.627 3.627 0 0 0 4.891-.292 3.459 3.459 0 0 0 .793-2.782 3.062 3.062 0 0 0-1.347-2.213.745.745 0 0 0-.789 1.263 1.585 1.585 0 0 1 .666 1.154 1.991 1.991 0 0 1-.426 1.581 2.152 2.152 0 0 1-2.861.128 3.447 3.447 0 0 1-1.035-3.277 4.912 4.912 0 0 1 2.13-3.037 8.26 8.26 0 0 1 3.677-1.239c1.332-.15 3.806-.171 5.39 1.435a6.719 6.719 0 0 1 1.551 5.115 23.5 23.5 0 0 1-.382 2.781 41.582 41.582 0 0 0-.3 1.826 20.67 20.67 0 0 0 3.551 14.438 91.146 91.146 0 0 1-10.436-2.823 11.681 11.681 0 0 0-1.842-6.524Zm58.475 8.044.84 2.513c-4.62 1.517-32.433 9.793-58.771-.724l.931-1.859c29.006 9.674 52.555 1.76 57 .07ZM169 435.462c1.545-3.848 6.04-17.459-2.686-26.8a92.71 92.71 0 0 0 2.593-.685c11.693 11.759 4.6 24.667 3.453 26.566-.89.263-2.017.58-3.36.919Zm-58.477-2.319c-.95-2.051-7-16.407 4.536-25.494 1.043.357 2.087.676 3.13.979-8.138 8.8-5.561 21.478-4.414 25.6q-1.623-.509-3.255-1.085Zm4.946 1.58c-.76-2.371-4.78-16.577 4.328-25.654a83.768 83.768 0 0 0 21.482 2.708 104.948 104.948 0 0 0 23.387-2.72c10.39 10.134 2.621 26.662 2.54 26.828v.009c-10.299 2.38-30.063 5.148-51.74-1.171Zm-11.658-18.25c1.439-5.967 6.318-9.419 7.554-10.209.7.285 1.406.538 2.109.8-10.039 8.566-6.569 20.949-4.857 25.368-.353-.134-.7-.258-1.058-.4-3.629-5.573-4.896-10.807-3.751-15.559ZM99.273 441.7a3.863 3.863 0 0 1 2.806-1.311 2.7 2.7 0 0 1 1.845.685 2.76 2.76 0 0 1 .863 2.162 3.94 3.94 0 0 1-1.061 2.527 3.351 3.351 0 0 1-4.654.626 2.731 2.731 0 0 1-.861-1.922 3.91 3.91 0 0 1 1.062-2.767Zm84.083-.194a3.061 3.061 0 1 1-4.063 4.453 3.929 3.929 0 0 1-1.293-2.422 2.671 2.671 0 0 1 2.822-3.1 3.934 3.934 0 0 1 2.534 1.068Zm-5.405-1.547a4.609 4.609 0 0 0-.382.345 4.233 4.233 0 0 0-1.043 3.408 5.562 5.562 0 0 0 5.382 4.791 4.243 4.243 0 0 0 3.173-1.344c.071-.079.118-.171.182-.254a59.225 59.225 0 0 0 8.815 5.761c-2.929 1.185-9.866 3.3-13.839-1.234a.74.74 0 0 0-.97-.13c-.036.021-3.679 2.372-7.215.728-.106-.049-2.563-1.212-1.422-6.013a.746.746 0 0 0-.142-.636c-.061-.073-6.008-7.268-17.5.665-.02.014-.018.042-.037.057a1 1 0 0 0-.264.452.505.505 0 0 0-.018.055.706.706 0 0 0 .122.432c.007.012 0 .027.008.039a.711.711 0 0 0 .516.35 4.968 4.968 0 0 1 2.334 8.963.743.743 0 0 0 0 1.2 4.932 4.932 0 0 1 2.061 4.015 4.987 4.987 0 0 1-4.98 4.98 4.918 4.918 0 0 1-2.452-.675.753.753 0 0 0-.714-.012.737.737 0 0 0-.394.6 4.953 4.953 0 0 1-9.834.375.74.74 0 0 0-.351-.522.754.754 0 0 0-.626-.063 4.956 4.956 0 0 1-4.552-8.695.743.743 0 0 0 0-1.2 4.928 4.928 0 0 1-2.063-4.017 4.721 4.721 0 0 1 2.893-4.515c.048-.021.06-.075.1-.1s.094-.018.13-.053.03-.095.058-.138a.642.642 0 0 0 .107-.254.624.624 0 0 0 0-.272c-.009-.053.021-.1 0-.154s-.075-.06-.1-.1-.018-.1-.054-.131c-7.844-7.933-19.948-2.769-20.459-2.549a.747.747 0 0 0-.384.977 4.751 4.751 0 0 1-2.09 5.94c-3.8 2.382-8.98-.266-9.033-.293a.739.739 0 0 0-.76.044 11.935 11.935 0 0 1-13.023.783 33.2 33.2 0 0 0 8.242-4.946 4 4 0 0 0 .7.873 4.176 4.176 0 0 0 2.847 1.069 5.344 5.344 0 0 0 3.906-1.792 5.4 5.4 0 0 0 1.448-3.49 4.227 4.227 0 0 0-1.347-3.3 3.993 3.993 0 0 0-.819-.566 34.577 34.577 0 0 0 3.365-5.825c.7.272 1.4.515 2.1.767a.7.7 0 0 0 .223.081q2.442.872 4.859 1.587a.719.719 0 0 0 .232.072 100.568 100.568 0 0 0 28.269 4 103.633 103.633 0 0 0 31.429-4.7 35.672 35.672 0 0 0 3.366 4.563Zm2.065-18.5c.118 6.927-4.971 11.892-5.489 12.38l-.161.056c2.054-4.245 6.071-15.812-3.878-26.389a50.99 50.99 0 0 0 1.364-.433c5.322 4.568 8.079 9.406 8.164 14.39Zm-7.95-50.719c1.814.551 4.025 2.454 3.452 4.6a2.238 2.238 0 0 1-1.074 1.388 1.869 1.869 0 0 1-1.521.143c-.259-.084-.535-.266-.528-.464a.741.741 0 0 0-.716-.769.76.76 0 0 0-.769.716 2 2 0 0 0 1.407 1.861c-1.336 2.726-1.529 6.578-1.506 9.716a23.568 23.568 0 0 0 .436 3.553c.609 3.6 1.3 7.672-1.585 10.156a.7.7 0 0 0-.154.3c-.259.1-.563.209-.93.338.929-4.21 3.234-17.643-1.655-30.243 1.086-1.446 3.385-1.827 5.143-1.291Zm-31.092-14.321c-6.511 2.327-11.225 5.844-13.634 10.166a.743.743 0 0 0 1.3.725c2.82-5.06 8.537-7.955 12.837-9.493 6.134-2.2 12.773-.853 16.9 3.43 14.488 15.024 9.358 38.316 8.547 41.578a86.749 86.749 0 0 1-40.684 2.149 19.058 19.058 0 0 1-4.267-14.668c.075-.591.182-1.176.286-1.759a25.327 25.327 0 0 0 .4-2.96 8.287 8.287 0 0 0-1.813-6.023 12.113 12.113 0 0 0-.939-2.91c.047-.544.615-7.716-1.706-12.74 6.237-8.979 22.693-10.751 26.962-11.061-.156.53-.253.853-.263.887a.742.742 0 0 0 .711.96h6.641a.747.747 0 0 0 .709-.518l.135-.442a16.143 16.143 0 0 1 5.41 3.349 6.579 6.579 0 0 0-.608 1.76 17.687 17.687 0 0 0-16.924-2.426Zm20.86 2.2a17.531 17.531 0 0 0-8.306-6.31c.684-2.333 1.924-6.748 3.342-12.6a29.924 29.924 0 0 1 11.379 5.679 44.724 44.724 0 0 0-3.817 12.005Zm3.847.188c2.436-18.555 18.868-34.452 29.362-39.422.013-.006.014-.023.026-.029a64.9 64.9 0 0 1 3.244 5.979c-20.29 12.825-23.639 27.789-24.07 30.319-4.716 3.028-7.485 3.253-8.562 3.156Zm33.227-32.081a6.682 6.682 0 0 1 .512 1.835c.225 1.149.489 4.416-.967 5.737a.743.743 0 0 0-.23.406 3.71 3.71 0 0 0 2.631 4.034 4.8 4.8 0 0 0 1.768.351 4.232 4.232 0 0 0 1.836-.418 4.89 4.89 0 0 0 2.494-2.886 8.892 8.892 0 0 0 .465-1.812l1 .424a4.464 4.464 0 0 0 2.313 3.309 6.291 6.291 0 0 0-.321.841c-.031.02-.07.01-.1.034-10.861 9.483-29.034 13.5-33.825 14.424 1.762-5.341 7.077-16.505 22.424-26.276Zm27.6 27.912a16.167 16.167 0 0 1-5.347-3.688c-.046-.049-.115-.042-.169-.075a32.874 32.874 0 0 0-2.267-4.569c-.293-.51-.532-.921-.682-1.248a1.625 1.625 0 0 1 .518-2.1 1.644 1.644 0 0 1 2.176.331c.211.218.508.591.876 1.053a34.425 34.425 0 0 0 3.256 3.633 16.062 16.062 0 0 1 1.639 6.666Zm1.882-9.493.406.61a4.09 4.09 0 0 0 3.654 1.842 3.364 3.364 0 0 1-2.256 1.464c-2.7.324-5.882-3.725-7.42-5.645-.407-.506-.733-.914-1.021-1.212a3.1 3.1 0 0 0-5.035 3.526c.138.3.4.755.718 1.316 1.224 2.136 3.773 6.583 2.532 8.975a3.361 3.361 0 0 1-2.186 1.565 4.1 4.1 0 0 0-.375-4.078l-.423-.607c-1.7-2.425-6.221-8.873-5.321-13.384a4.881 4.881 0 0 1 2.346-3.282 4.942 4.942 0 0 1 2.967-1.035 5.064 5.064 0 0 1 .907.085c4.528.815 8.872 7.389 10.507 9.863Zm20.886-75.65a47.543 47.543 0 0 1-3.983 21.037c-5.343 12.1-15.331 20.964-29.693 26.348-1.6.6-3.156 1.233-4.641 1.869a76.376 76.376 0 0 1-4.393-4.549c6.615-3.112 10.025-5.034 10.057-5.055a98.193 98.193 0 0 0 6.358-3.943.6.6 0 0 0 .117-.078c16.853-11.315 23.144-23.583 25.4-32.047a.687.687 0 0 0 .132-.234c.035-.227.071-.49.106-.741a39.51 39.51 0 0 0 .54-2.602Zm-3.657-13.285a5.171 5.171 0 0 1 2.537 4.465 99.436 99.436 0 0 1-.916 11.366c-2.022 8.167-7.965 20.46-24.913 31.843a38.5 38.5 0 0 1-21.667-8.9 51.255 51.255 0 0 1 8.194-15.39 32.055 32.055 0 0 0 4.4.358 9.346 9.346 0 0 0 2.281-.2.736.736 0 0 0 .515-.907.761.761 0 0 0-.907-.527c-.025.009-2.42.579-8.774-.656a7.179 7.179 0 0 0 2.75-2.348c2.232-3.26 1.011-7.676.437-9.3 2.874-1.7 4.506-3.827 4.857-6.322.544-3.892-2.228-7.437-3.326-8.671a10.858 10.858 0 0 0 1.591-3.65c11.584 1.124 19.792 3.252 25.368 5.316a.7.7 0 0 0 .569.322h.27a44.508 44.508 0 0 1 6.734 3.204Zm6.955-4.687h-13.412c-5.7-2.177-14.213-4.457-26.362-5.634a5.872 5.872 0 0 0-.3-1.873c-.036-.1-.1-.183-.136-.281a70.921 70.921 0 0 0 2.361-2.629 45.457 45.457 0 0 1 11.606-9.691.743.743 0 1 0-.7-1.311c-.106.057-1.219.672-2.844 1.787a40.584 40.584 0 0 1-4.529-16.045c3.063-1.391 9.648-4.219 14.294-5.1.613.6 1.217 1.2 1.861 1.8 18.235 17.622 22.082 24.839 23.151 32.83-1.18 3.137-4.216 5.568-4.99 6.15Zm20.4 0h-3.654c.088-27.256-22.632-46.723-22.852-46.9-30.014-26.474-26.4-41.885-24.463-50.166.2-.841.377-1.606.5-2.293a25.421 25.421 0 0 0 .266-7.914c8.799 4.378 61.947 34.09 50.2 107.276Z"/><path d="M131.1 397.357a22.175 22.175 0 0 0 7.759 1.463 15.635 15.635 0 0 0 7.118-1.509.743.743 0 0 0-.716-1.3c-.056.029-5.582 2.956-13.643-.046a.743.743 0 1 0-.518 1.393Zm25.171-2.612a.743.743 0 0 0-.319 1.451 19.419 19.419 0 0 0 4.172.455 16.679 16.679 0 0 0 7.224-1.512.742.742 0 1 0-.687-1.315 16.621 16.621 0 0 1-10.39.921Zm-8.061-19.08a.741.741 0 0 0 .742.743h4.8a1.016 1.016 0 0 1 1.021.921c.385 5.594-1.536 13.53-1.555 13.609a.74.74 0 0 0 .544.9.777.777 0 0 0 .177.021.742.742 0 0 0 .72-.565c.083-.334 2-8.238 1.594-14.067a2.5 2.5 0 0 0-2.5-2.3h-4.8a.74.74 0 0 0-.743.738Zm-.416-5.594h4.462a.743.743 0 1 0 0-1.485h-4.462a.743.743 0 1 0 0 1.485Zm-7.976 23.174a3.422 3.422 0 1 0-3.422-3.422 3.422 3.422 0 0 0 3.422 3.422Zm21.741-1.57a3.3 3.3 0 1 0-3.3-3.3 3.3 3.3 0 0 0 3.3 3.3ZM148.8 436.758a.747.747 0 0 0 .551-.244l10.857-12.014a.745.745 0 0 0-.038-1.036l-11.278-10.779a.738.738 0 0 0-.513-.206h-.024a.745.745 0 0 0-.522.24L137.7 423.705a.746.746 0 0 0-.007 1l10.557 11.807a.739.739 0 0 0 .55.246Zm-.389-22.476 10.209 9.759-9.813 10.859-9.555-10.688Zm-3.648 36.467a5.545 5.545 0 1 0 5.544 5.546 5.553 5.553 0 0 0-5.544-5.546Zm0 9.6a4.06 4.06 0 1 1 4.059-4.058 4.064 4.064 0 0 1-4.059 4.062Z"/><path class="cls-3" d="m166.442 160.649-.343 1.427a11.1 11.1 0 0 0 .566 1.447c.1.048 2.032.532 2.032.532a1.927 1.927 0 0 0 .847 0c.218-.121 1.532-1.171 1.532-1.171l.342-1.449-1.608-1.469s-1.831-.121-2-.145a7.685 7.685 0 0 0-1.368.828ZM150.8 337.106l-.343 1.457 1.038 1.742a8.576 8.576 0 0 0 1.113 0c.1-.048 2.825-.956 2.825-.956l.343-1.434-1.595-1.147h-1.6Z"/><path class="cls-6" d="M26.265 99.982c.974 4.862-3.284 11.785-3.284 11.785-1.516.442-3.493-2.357-3.493-2.357 4.42-3.535 4.714-9.428 4.714-9.428Z"/><path class="cls-5" d="M36.175 88.809a11.167 11.167 0 0 0-2.613-2.371A25.16 25.16 0 0 1 25.29 77.8a25.15 25.15 0 0 1-8.271 8.639 11.167 11.167 0 0 0-2.613 2.371 10.431 10.431 0 0 0 0 12.572 6.33 6.33 0 0 0 10.217 0l.667-.821.668.821a6.33 6.33 0 0 0 10.217 0 10.434 10.434 0 0 0 0-12.573Z"/><path class="cls-6" d="M25.29 100.56V77.8a25.16 25.16 0 0 0 8.272 8.639 11.167 11.167 0 0 1 2.613 2.371 10.434 10.434 0 0 1 0 12.572 6.33 6.33 0 0 1-10.217 0Zm270.321 299.457c-.974-4.861 3.284-11.784 3.284-11.784 1.516-.442 3.492 2.356 3.492 2.356-4.419 3.536-4.714 9.428-4.714 9.428Z"/><path class="cls-5" d="M285.7 411.19a11.182 11.182 0 0 0 2.612 2.371 25.16 25.16 0 0 1 8.272 8.639 25.169 25.169 0 0 1 8.272-8.639 11.167 11.167 0 0 0 2.613-2.371 10.433 10.433 0 0 0 0-12.571 6.331 6.331 0 0 0-10.218 0l-.667.821-.667-.821a6.33 6.33 0 0 0-10.217 0 10.433 10.433 0 0 0 0 12.571Z"/><path class="cls-6" d="M296.585 399.44v22.76a25.155 25.155 0 0 0-8.271-8.64 11.145 11.145 0 0 1-2.613-2.371 10.43 10.43 0 0 1 0-12.571 6.33 6.33 0 0 1 10.217 0Z"/></svg>