<svg id="Layer_1" data-name="Layer 1" xmlns="http://www.w3.org/2000/svg" viewBox="0 0 321.875 500"><defs><style>.cls-2{fill:#05703d}.cls-3{fill:#02592d}.cls-4{fill:#ffc306}.cls-5{fill:#ef870a}</style></defs><path style="fill:#fff" d="M0 0h321.875v500H0z"/><path d="M268.453 481.248H45.383a26.66 26.66 0 0 1-26.63-26.63V125.1a1.25 1.25 0 0 1 2.5 0v329.52a24.157 24.157 0 0 0 24.13 24.13h223.07a1.25 1.25 0 0 1 0 2.5Zm33.42-105.09a1.25 1.25 0 0 1-1.25-1.25V45.388a24.162 24.162 0 0 0-24.13-24.14H53.423a1.25 1.25 0 0 1 0-2.5h223.07a26.665 26.665 0 0 1 26.63 26.64v329.52a1.25 1.25 0 0 1-1.25 1.25Z"/><path class="cls-2" d="M115.56 78.924c-5.544-4.183-14.6-4.183-20.133 0a17.072 17.072 0 0 0-3.8 3.891A39.083 39.083 0 0 1 77.8 95.134a39.093 39.093 0 0 1 13.836 12.32 17.092 17.092 0 0 0 3.8 3.891c5.534 4.183 14.589 4.183 20.133 0s5.534-11.034 0-15.217l-1.315-.994 1.315-.994c5.525-4.182 5.525-11.026-.009-15.216Z"/><path class="cls-2" d="M115.56 118.069c-5.544-4.183-14.6-4.183-20.133 0a17.072 17.072 0 0 0-3.8 3.891A39.083 39.083 0 0 1 77.8 134.279 39.093 39.093 0 0 1 91.631 146.6a17.092 17.092 0 0 0 3.8 3.891c5.534 4.183 14.589 4.183 20.133 0s5.534-11.034 0-15.217l-1.315-.994 1.315-.993c5.53-4.187 5.53-11.028-.004-15.218Z"/><path class="cls-2" d="M115.56 157.214c-5.544-4.183-14.6-4.183-20.133 0a17.072 17.072 0 0 0-3.8 3.891A39.083 39.083 0 0 1 77.8 173.424a39.093 39.093 0 0 1 13.836 12.32 17.092 17.092 0 0 0 3.8 3.891c5.534 4.183 14.589 4.183 20.133 0s5.534-11.034 0-15.217l-1.315-.994 1.315-.993c5.525-4.184 5.525-11.031-.009-15.217Z"/><path class="cls-2" d="M115.56 196.358c-5.544-4.182-14.6-4.182-20.133 0a17.1 17.1 0 0 0-3.8 3.892A39.083 39.083 0 0 1 77.8 212.569a39.084 39.084 0 0 1 13.836 12.32 17.092 17.092 0 0 0 3.8 3.891c5.534 4.183 14.589 4.183 20.133 0s5.534-11.034 0-15.217l-1.315-.994 1.315-.993c5.525-4.184 5.525-11.028-.009-15.218Zm0-139.375-1.315-.994L115.56 55c5.534-4.182 5.534-11.026 0-15.216s-14.6-4.183-20.133 0a17.072 17.072 0 0 0-3.8 3.891A39.083 39.083 0 0 1 77.8 55.989a39.093 39.093 0 0 1 13.836 12.32 17.092 17.092 0 0 0 3.8 3.891c5.534 4.183 14.589 4.183 20.133 0s5.525-11.034-.009-15.217Z"/><path class="cls-3" d="M114.245 95.134H77.8a39.079 39.079 0 0 1 13.835 12.32 17.118 17.118 0 0 0 3.8 3.891c5.534 4.183 14.589 4.183 20.133 0s5.534-11.034 0-15.217Zm0 39.145H77.8A39.079 39.079 0 0 1 91.63 146.6a17.118 17.118 0 0 0 3.8 3.891c5.534 4.183 14.589 4.183 20.133 0s5.534-11.034 0-15.217Zm0 39.145H77.8a39.079 39.079 0 0 1 13.835 12.32 17.118 17.118 0 0 0 3.8 3.891c5.534 4.183 14.589 4.183 20.133 0s5.534-11.034 0-15.217Zm0 39.145H77.8a39.069 39.069 0 0 1 13.835 12.32 17.118 17.118 0 0 0 3.8 3.891c5.534 4.183 14.589 4.183 20.133 0s5.534-11.034 0-15.217Zm0-156.58H77.8a39.079 39.079 0 0 1 13.83 12.32 17.118 17.118 0 0 0 3.8 3.891c5.534 4.183 14.589 4.183 20.133 0s5.534-11.034 0-15.217Z"/><path class="cls-3" d="M157.7 114.363a38.47 38.47 0 0 0-8.379-7.4 56.862 56.862 0 0 0-10.739-5.675c-.622-.281-1.237-.492-1.888-.715a46.194 46.194 0 0 1-1.1-.388 31.1 31.1 0 0 0-2.968-.961l-3.168-.891-3.16-.673a42.1 42.1 0 0 0-4.387-.755c-.708-.1-1.417-.193-2.122-.306-1.36-.166-2.813-.272-4.218-.373-.8-.059-1.6-.117-2.395-.187l.153-1.35a167 167 0 0 0 2.353.087c1.448.047 2.945.095 4.424.216.735.086 1.435.153 2.135.22a45.421 45.421 0 0 1 4.677.612l3.282.56 3.315.783c1.11.236 2.184.563 3.275.905.37.121.734.229 1.1.337.7.207 1.422.422 2.12.7a62.327 62.327 0 0 1 11.787 5.563 43.12 43.12 0 0 1 9.788 7.837l.537.6-3.965 1.829Z"/><path class="cls-3" d="M160.858 112.892a42.8 42.8 0 0 0-9.607-7.69 61.508 61.508 0 0 0-11.651-5.494c-1.009-.4-2.1-.671-3.146-1.011s-2.105-.654-3.2-.886l-3.247-.769-3.313-.567c-2.19-.441-4.459-.551-6.683-.812-2.239-.184-4.5-.2-6.737-.3 2.235.2 4.48.3 6.692.569 2.2.35 4.428.547 6.566 1.071l3.227.689 3.142.886c1.058.269 2.07.628 3.077.993s2.044.675 3 1.11a57.7 57.7 0 0 1 10.918 5.769 39.3 39.3 0 0 1 8.546 7.557Zm-3.158 40.616a38.47 38.47 0 0 0-8.379-7.4 56.862 56.862 0 0 0-10.739-5.675c-.622-.281-1.237-.492-1.888-.715a46.194 46.194 0 0 1-1.1-.388 31.1 31.1 0 0 0-2.968-.961l-3.168-.892-3.16-.672a42.1 42.1 0 0 0-4.387-.755c-.708-.1-1.417-.193-2.122-.306-1.36-.166-2.813-.272-4.218-.373-.8-.059-1.6-.117-2.395-.187l.153-1.35a167 167 0 0 0 2.353.087c1.448.047 2.945.095 4.424.216.735.086 1.435.153 2.135.22a45.147 45.147 0 0 1 4.677.612l3.282.56 3.315.783c1.11.236 2.184.563 3.275.905.37.121.734.229 1.1.337.7.207 1.422.422 2.12.7a62.327 62.327 0 0 1 11.787 5.563 43.12 43.12 0 0 1 9.788 7.837l.537.6-3.965 1.829Z"/><path class="cls-3" d="M160.858 152.037a42.773 42.773 0 0 0-9.607-7.69 61.508 61.508 0 0 0-11.651-5.494c-1.009-.4-2.1-.671-3.146-1.011s-2.105-.654-3.2-.886l-3.247-.769-3.313-.567c-2.19-.441-4.459-.551-6.683-.812-2.239-.184-4.5-.2-6.737-.3 2.235.2 4.48.3 6.692.57 2.2.35 4.428.547 6.566 1.071l3.227.689 3.142.886c1.058.269 2.07.628 3.077.993s2.044.675 3 1.11a57.7 57.7 0 0 1 10.918 5.769 39.3 39.3 0 0 1 8.546 7.557Zm-3.158 40.616a38.47 38.47 0 0 0-8.379-7.4 56.862 56.862 0 0 0-10.739-5.675c-.622-.281-1.237-.492-1.888-.715a46.194 46.194 0 0 1-1.1-.388 31.1 31.1 0 0 0-2.968-.961l-3.168-.892-3.16-.672a42.1 42.1 0 0 0-4.387-.755c-.708-.1-1.417-.193-2.122-.306-1.36-.166-2.813-.272-4.218-.373-.8-.059-1.6-.117-2.395-.187l.153-1.35a167 167 0 0 0 2.353.087c1.448.047 2.945.095 4.424.216.735.086 1.435.153 2.135.219a45.426 45.426 0 0 1 4.677.613l3.282.56 3.315.783c1.11.235 2.184.563 3.275.905.37.121.734.229 1.1.337.7.207 1.422.422 2.12.7a62.327 62.327 0 0 1 11.787 5.563 43.12 43.12 0 0 1 9.788 7.837l.537.6-3.965 1.829Z"/><path class="cls-3" d="M160.858 191.182a42.773 42.773 0 0 0-9.607-7.69A61.447 61.447 0 0 0 139.6 178c-1.009-.4-2.1-.671-3.146-1.011s-2.105-.654-3.2-.886l-3.247-.769-3.313-.567c-2.19-.441-4.459-.551-6.683-.812-2.239-.184-4.5-.2-6.737-.3 2.235.2 4.48.3 6.692.57 2.2.35 4.428.547 6.566 1.071l3.227.689 3.142.886c1.058.269 2.07.628 3.077.993s2.044.675 3 1.11a57.7 57.7 0 0 1 10.918 5.769 39.3 39.3 0 0 1 8.546 7.557ZM157.7 231.8a38.47 38.47 0 0 0-8.379-7.4 56.862 56.862 0 0 0-10.739-5.675c-.622-.281-1.237-.492-1.888-.715a46.194 46.194 0 0 1-1.1-.388 31.1 31.1 0 0 0-2.968-.961l-3.168-.892-3.16-.672a42.1 42.1 0 0 0-4.387-.755c-.708-.1-1.417-.193-2.122-.306-1.36-.166-2.813-.272-4.218-.373-.8-.059-1.6-.117-2.395-.187l.153-1.35a167 167 0 0 0 2.353.087c1.448.047 2.945.095 4.424.216.735.086 1.435.153 2.135.219a45.7 45.7 0 0 1 4.677.612l3.282.561 3.315.783c1.11.235 2.184.563 3.275.9.37.121.734.229 1.1.337.7.207 1.422.422 2.12.7a62.327 62.327 0 0 1 11.787 5.563 43.093 43.093 0 0 1 9.788 7.837l.537.6-3.965 1.829Z"/><path class="cls-3" d="M160.858 230.327a42.773 42.773 0 0 0-9.607-7.69 61.447 61.447 0 0 0-11.651-5.494c-1.009-.4-2.1-.671-3.146-1.011s-2.105-.654-3.2-.886l-3.247-.769-3.313-.567c-2.19-.441-4.459-.551-6.683-.813-2.239-.183-4.5-.2-6.737-.3 2.235.2 4.48.3 6.692.57 2.2.35 4.428.547 6.566 1.071l3.227.689 3.142.886c1.058.269 2.07.628 3.077.993s2.044.675 3 1.11a57.643 57.643 0 0 1 10.918 5.769 39.3 39.3 0 0 1 8.546 7.557Zm3.122-115.964a38.446 38.446 0 0 1 8.379-7.4 56.862 56.862 0 0 1 10.739-5.675c.622-.281 1.237-.492 1.888-.715.368-.126.736-.253 1.1-.388a31.1 31.1 0 0 1 2.968-.961l3.168-.891 3.16-.673a42.1 42.1 0 0 1 4.387-.755c.708-.1 1.417-.193 2.122-.306 1.36-.166 2.813-.272 4.218-.373.8-.059 1.6-.117 2.395-.187l-.153-1.35c-.783.036-1.568.062-2.354.087-1.447.047-2.944.095-4.423.216-.736.086-1.435.153-2.135.22a45.476 45.476 0 0 0-4.678.612l-3.281.56-3.315.783c-1.11.236-2.184.563-3.275.905-.37.121-.734.229-1.1.337-.7.207-1.423.422-2.12.7a62.327 62.327 0 0 0-11.787 5.563 43.1 43.1 0 0 0-9.788 7.837l-.537.6 3.965 1.829Z"/><path class="cls-3" d="M160.818 112.892a42.8 42.8 0 0 1 9.607-7.69 61.508 61.508 0 0 1 11.651-5.494c1.009-.4 2.1-.671 3.146-1.011s2.1-.654 3.2-.886l3.247-.769 3.313-.567c2.19-.441 4.459-.551 6.683-.812 2.239-.184 4.5-.2 6.737-.3-2.235.2-4.48.3-6.692.569-2.2.35-4.428.547-6.566 1.071l-3.227.689-3.142.886c-1.058.269-2.07.628-3.077.993s-2.044.675-3 1.11a57.7 57.7 0 0 0-10.918 5.769 39.305 39.305 0 0 0-8.547 7.557Zm3.162 40.616a38.446 38.446 0 0 1 8.379-7.4 56.862 56.862 0 0 1 10.739-5.675c.622-.281 1.237-.492 1.888-.715.368-.126.736-.253 1.1-.388a31.1 31.1 0 0 1 2.968-.961l3.168-.892 3.16-.672a42.1 42.1 0 0 1 4.387-.755c.708-.1 1.417-.193 2.122-.306 1.36-.166 2.813-.272 4.218-.373.8-.059 1.6-.117 2.395-.187l-.153-1.35c-.783.036-1.568.062-2.354.087-1.447.047-2.944.095-4.423.216-.736.086-1.435.153-2.135.22a45.2 45.2 0 0 0-4.678.612l-3.281.56-3.315.783c-1.11.236-2.184.563-3.275.905-.37.121-.734.229-1.1.337-.7.207-1.423.422-2.12.7a62.327 62.327 0 0 0-11.787 5.563 43.1 43.1 0 0 0-9.788 7.837l-.537.6 3.965 1.829Z"/><path class="cls-3" d="M160.818 152.037a42.773 42.773 0 0 1 9.607-7.69 61.508 61.508 0 0 1 11.651-5.494c1.009-.4 2.1-.671 3.146-1.011s2.1-.654 3.2-.886l3.247-.769 3.313-.567c2.19-.441 4.459-.551 6.683-.812 2.239-.184 4.5-.2 6.737-.3-2.235.2-4.48.3-6.692.57-2.2.35-4.428.547-6.566 1.071l-3.227.689-3.142.886c-1.058.269-2.07.628-3.077.993s-2.044.675-3 1.11a57.7 57.7 0 0 0-10.918 5.769 39.305 39.305 0 0 0-8.547 7.557Zm3.162 40.616a38.446 38.446 0 0 1 8.379-7.4 56.862 56.862 0 0 1 10.739-5.675c.622-.281 1.237-.492 1.888-.715.368-.126.736-.253 1.1-.388a31.1 31.1 0 0 1 2.968-.961l3.168-.892 3.16-.672a42.1 42.1 0 0 1 4.387-.755c.708-.1 1.417-.193 2.122-.306 1.36-.166 2.813-.272 4.218-.373.8-.059 1.6-.117 2.395-.187l-.153-1.35c-.783.036-1.568.062-2.354.087-1.447.047-2.944.095-4.423.216-.736.086-1.435.153-2.135.219a45.481 45.481 0 0 0-4.678.613l-3.281.56-3.315.783c-1.11.235-2.184.563-3.275.905-.37.121-.734.229-1.1.337-.7.207-1.423.422-2.12.7a62.327 62.327 0 0 0-11.787 5.563 43.1 43.1 0 0 0-9.783 7.838l-.537.6 3.965 1.829Z"/><path class="cls-3" d="M160.818 191.182a42.773 42.773 0 0 1 9.607-7.69A61.447 61.447 0 0 1 182.076 178c1.009-.4 2.1-.671 3.146-1.011s2.1-.654 3.2-.886l3.247-.769 3.313-.567c2.19-.441 4.459-.551 6.683-.812 2.239-.184 4.5-.2 6.737-.3-2.235.2-4.48.3-6.692.57-2.2.35-4.428.547-6.566 1.071l-3.227.689-3.142.886c-1.058.269-2.07.628-3.077.993s-2.044.675-3 1.11a57.7 57.7 0 0 0-10.918 5.769 39.305 39.305 0 0 0-8.547 7.557Zm3.162 40.618a38.446 38.446 0 0 1 8.379-7.4 56.862 56.862 0 0 1 10.739-5.675c.622-.281 1.237-.492 1.888-.715.368-.126.736-.253 1.1-.388a31.1 31.1 0 0 1 2.968-.961l3.168-.892 3.16-.672a42.1 42.1 0 0 1 4.387-.755c.708-.1 1.417-.193 2.122-.306 1.36-.166 2.813-.272 4.218-.373.8-.059 1.6-.117 2.395-.187l-.153-1.35c-.783.036-1.568.062-2.354.087-1.447.047-2.944.095-4.423.216-.736.086-1.435.153-2.135.219a45.753 45.753 0 0 0-4.678.612l-3.281.561-3.315.783c-1.11.235-2.184.563-3.275.9-.37.121-.734.229-1.1.337-.7.207-1.423.422-2.12.7a62.327 62.327 0 0 0-11.787 5.563 43.071 43.071 0 0 0-9.788 7.837l-.537.6 3.965 1.829Z"/><path class="cls-3" d="M160.818 230.327a42.773 42.773 0 0 1 9.607-7.69 61.447 61.447 0 0 1 11.651-5.494c1.009-.4 2.1-.671 3.146-1.011s2.1-.654 3.2-.886l3.247-.769 3.313-.567c2.19-.441 4.459-.551 6.683-.813 2.239-.183 4.5-.2 6.737-.3-2.235.2-4.48.3-6.692.57-2.2.35-4.428.547-6.566 1.071l-3.227.689-3.142.886c-1.058.269-2.07.628-3.077.993s-2.044.675-3 1.11a57.643 57.643 0 0 0-10.918 5.769 39.305 39.305 0 0 0-8.547 7.557ZM157.7 75.218a38.47 38.47 0 0 0-8.379-7.4 56.862 56.862 0 0 0-10.739-5.675c-.622-.281-1.237-.492-1.888-.715a46.194 46.194 0 0 1-1.1-.388 31.1 31.1 0 0 0-2.968-.961l-3.168-.891-3.16-.673a42.1 42.1 0 0 0-4.387-.755c-.708-.1-1.417-.193-2.122-.306-1.36-.166-2.813-.272-4.218-.373-.8-.059-1.6-.117-2.395-.187l.153-1.35a167 167 0 0 0 2.353.087c1.448.047 2.945.095 4.424.216.735.086 1.435.153 2.135.22a45.421 45.421 0 0 1 4.677.612l3.282.56 3.315.783c1.11.236 2.184.563 3.275.905.37.121.734.229 1.1.337.7.207 1.422.422 2.12.7a62.327 62.327 0 0 1 11.787 5.563 43.12 43.12 0 0 1 9.788 7.837l.537.6-3.965 1.829Z"/><path class="cls-3" d="M160.858 73.747a42.8 42.8 0 0 0-9.607-7.69 61.508 61.508 0 0 0-11.651-5.494c-1.009-.4-2.1-.67-3.146-1.011s-2.105-.654-3.2-.886l-3.247-.769-3.313-.567c-2.19-.441-4.459-.551-6.683-.812-2.239-.184-4.5-.2-6.737-.3 2.235.2 4.48.3 6.692.569 2.2.35 4.428.547 6.566 1.071l3.227.69 3.142.885c1.058.269 2.07.628 3.077.993s2.044.675 3 1.11A57.7 57.7 0 0 1 149.9 67.3a39.3 39.3 0 0 1 8.546 7.557Z"/><path class="cls-3" d="M163.98 75.218a38.446 38.446 0 0 1 8.379-7.4 56.862 56.862 0 0 1 10.741-5.679c.622-.281 1.237-.492 1.888-.715.368-.126.736-.253 1.1-.388a31.1 31.1 0 0 1 2.968-.961l3.168-.891 3.16-.673a42.1 42.1 0 0 1 4.387-.755c.708-.1 1.417-.193 2.122-.306 1.36-.166 2.813-.272 4.218-.373.8-.059 1.6-.117 2.395-.187l-.153-1.35c-.783.036-1.568.062-2.354.087-1.447.047-2.944.095-4.423.216-.736.086-1.435.153-2.135.22a45.476 45.476 0 0 0-4.678.612l-3.281.56-3.315.783c-1.11.236-2.184.563-3.275.905-.37.121-.734.229-1.1.337-.7.207-1.423.422-2.12.7a62.327 62.327 0 0 0-11.787 5.563 43.1 43.1 0 0 0-9.788 7.837l-.537.6 3.965 1.829Z"/><path class="cls-3" d="M160.818 73.747a42.8 42.8 0 0 1 9.607-7.69 61.508 61.508 0 0 1 11.651-5.494c1.009-.4 2.1-.67 3.146-1.011s2.1-.654 3.2-.886l3.247-.769 3.313-.567c2.19-.441 4.459-.551 6.683-.812 2.239-.184 4.5-.2 6.737-.3-2.235.2-4.48.3-6.692.569-2.2.35-4.428.547-6.566 1.071l-3.227.69-3.142.885c-1.058.269-2.07.628-3.077.993s-2.044.675-3 1.11a57.7 57.7 0 0 0-10.92 5.764 39.305 39.305 0 0 0-8.547 7.557Z"/><path class="cls-2" d="M206.315 78.924c5.544-4.183 14.6-4.183 20.133 0a17.1 17.1 0 0 1 3.8 3.891 39.069 39.069 0 0 0 13.832 12.319 39.079 39.079 0 0 0-13.835 12.32 17.118 17.118 0 0 1-3.8 3.891c-5.534 4.183-14.589 4.183-20.133 0s-5.534-11.034 0-15.217l1.315-.994-1.315-.994c-5.531-4.182-5.531-11.026.003-15.216Z"/><path class="cls-2" d="M206.315 118.069c5.544-4.183 14.6-4.183 20.133 0a17.1 17.1 0 0 1 3.8 3.891 39.069 39.069 0 0 0 13.835 12.319 39.079 39.079 0 0 0-13.835 12.32 17.118 17.118 0 0 1-3.8 3.891c-5.534 4.183-14.589 4.183-20.133 0s-5.534-11.034 0-15.217l1.315-.994-1.315-.993c-5.534-4.186-5.534-11.027 0-15.217Z"/><path class="cls-2" d="M206.315 157.214c5.544-4.183 14.6-4.183 20.133 0a17.1 17.1 0 0 1 3.8 3.891 39.069 39.069 0 0 0 13.835 12.319 39.079 39.079 0 0 0-13.835 12.32 17.118 17.118 0 0 1-3.8 3.891c-5.534 4.183-14.589 4.183-20.133 0s-5.534-11.034 0-15.217l1.315-.994-1.315-.993c-5.534-4.184-5.534-11.031 0-15.217Z"/><path class="cls-2" d="M206.315 196.358c5.544-4.182 14.6-4.182 20.133 0a17.122 17.122 0 0 1 3.8 3.892 39.069 39.069 0 0 0 13.835 12.319 39.069 39.069 0 0 0-13.835 12.32 17.118 17.118 0 0 1-3.8 3.891c-5.534 4.183-14.589 4.183-20.133 0s-5.534-11.034 0-15.217l1.315-.994-1.315-.993c-5.534-4.184-5.534-11.028 0-15.218Zm0-139.375 1.315-.994-1.315-.989c-5.534-4.182-5.534-11.026 0-15.216s14.6-4.183 20.133 0a17.1 17.1 0 0 1 3.8 3.891 39.069 39.069 0 0 0 13.832 12.314 39.079 39.079 0 0 0-13.835 12.32 17.118 17.118 0 0 1-3.8 3.891c-5.534 4.183-14.589 4.183-20.133 0s-5.531-11.034.003-15.217Z"/><path class="cls-3" d="M207.63 95.134h36.45a39.079 39.079 0 0 0-13.835 12.32 17.118 17.118 0 0 1-3.8 3.891c-5.534 4.183-14.589 4.183-20.133 0s-5.534-11.034 0-15.217Zm0 39.145h36.45a39.079 39.079 0 0 0-13.835 12.32 17.118 17.118 0 0 1-3.8 3.891c-5.534 4.183-14.589 4.183-20.133 0s-5.534-11.034 0-15.217Zm0 39.145h36.45a39.079 39.079 0 0 0-13.835 12.32 17.118 17.118 0 0 1-3.8 3.891c-5.534 4.183-14.589 4.183-20.133 0s-5.534-11.034 0-15.217Zm0 39.145h36.45a39.069 39.069 0 0 0-13.835 12.32 17.118 17.118 0 0 1-3.8 3.891c-5.534 4.183-14.589 4.183-20.133 0s-5.534-11.034 0-15.217Zm0-156.58h36.45a39.079 39.079 0 0 0-13.835 12.32 17.118 17.118 0 0 1-3.8 3.891c-5.534 4.183-14.589 4.183-20.133 0s-5.534-11.034 0-15.217Z"/><path class="cls-4" d="M165.045 233.847h-8.219a.375.375 0 0 1 .044-.056l1.218-170.158a2.848 2.848 0 0 1 2.848-2.828 2.848 2.848 0 0 1 2.848 2.828L165 233.791a.259.259 0 0 0 .045.056Z"/><path class="cls-5" d="m165 233.791-1.216-170.158a2.848 2.848 0 0 0-2.848-2.828v173.042h4.11a.3.3 0 0 1-.046-.056Z"/><path class="cls-4" d="M158.273 232.278s-3.435 1.743-1.227 6.471 8.832 7.965 14.72 7.467c0 0-2.127-.581-3.108-4.563s-3.925-11.78-10.385-9.375Z"/><ellipse class="cls-5" cx="161.548" cy="238.698" rx="2.235" ry="3.956" transform="rotate(-41.849 161.545 238.695)"/><path class="cls-2" d="M206.315 421.076c5.544 4.183 14.6 4.183 20.133 0a17.1 17.1 0 0 0 3.8-3.891 39.069 39.069 0 0 1 13.835-12.319 39.079 39.079 0 0 1-13.835-12.32 17.118 17.118 0 0 0-3.8-3.891c-5.534-4.183-14.589-4.183-20.133 0s-5.534 11.034 0 15.217l1.315.994-1.315.993c-5.534 4.183-5.534 11.027 0 15.217Z"/><path class="cls-2" d="M206.315 381.931c5.544 4.183 14.6 4.183 20.133 0a17.1 17.1 0 0 0 3.8-3.891 39.069 39.069 0 0 1 13.835-12.319 39.079 39.079 0 0 1-13.835-12.32 17.118 17.118 0 0 0-3.8-3.891c-5.534-4.183-14.589-4.183-20.133 0s-5.534 11.034 0 15.217l1.315.994-1.315.993c-5.534 4.186-5.534 11.027 0 15.217Z"/><path class="cls-2" d="M206.315 342.786c5.544 4.183 14.6 4.183 20.133 0a17.1 17.1 0 0 0 3.8-3.891 39.069 39.069 0 0 1 13.835-12.319 39.079 39.079 0 0 1-13.835-12.32 17.118 17.118 0 0 0-3.8-3.891c-5.534-4.183-14.589-4.183-20.133 0s-5.534 11.034 0 15.217l1.315.994-1.315.993c-5.534 4.184-5.534 11.031 0 15.217Z"/><path class="cls-2" d="M206.315 303.642c5.544 4.182 14.6 4.182 20.133 0a17.122 17.122 0 0 0 3.8-3.892 39.069 39.069 0 0 1 13.835-12.319 39.069 39.069 0 0 1-13.835-12.32 17.118 17.118 0 0 0-3.8-3.891c-5.534-4.183-14.589-4.183-20.133 0s-5.534 11.034 0 15.217l1.315.994-1.315.993c-5.534 4.184-5.534 11.028 0 15.218Zm0 139.375 1.315.994-1.315.994c-5.534 4.182-5.534 11.026 0 15.216s14.6 4.183 20.133 0a17.1 17.1 0 0 0 3.8-3.891 39.069 39.069 0 0 1 13.835-12.319 39.079 39.079 0 0 1-13.835-12.32 17.118 17.118 0 0 0-3.8-3.891c-5.534-4.183-14.589-4.183-20.133 0s-5.534 11.034 0 15.217Z"/><path class="cls-3" d="M207.63 404.866h36.45a39.079 39.079 0 0 1-13.835-12.32 17.118 17.118 0 0 0-3.8-3.891c-5.534-4.183-14.589-4.183-20.133 0s-5.534 11.034 0 15.217Zm0-39.145h36.45a39.079 39.079 0 0 1-13.835-12.32 17.118 17.118 0 0 0-3.8-3.891c-5.534-4.183-14.589-4.183-20.133 0s-5.534 11.034 0 15.217Zm0-39.145h36.45a39.079 39.079 0 0 1-13.835-12.32 17.118 17.118 0 0 0-3.8-3.891c-5.534-4.183-14.589-4.183-20.133 0s-5.534 11.034 0 15.217Zm0-39.145h36.45a39.079 39.079 0 0 1-13.835-12.32 17.118 17.118 0 0 0-3.8-3.891c-5.534-4.183-14.589-4.183-20.133 0s-5.534 11.034 0 15.217Zm0 156.58h36.45a39.079 39.079 0 0 1-13.835-12.32 17.118 17.118 0 0 0-3.8-3.891c-5.534-4.183-14.589-4.183-20.133 0s-5.534 11.034 0 15.217Z"/><path class="cls-3" d="M164.18 385.637a38.463 38.463 0 0 0 8.378 7.4 56.862 56.862 0 0 0 10.739 5.675c.622.281 1.237.492 1.888.715.368.126.737.253 1.1.388a31.1 31.1 0 0 0 2.968.961l3.168.891 3.16.673a42.1 42.1 0 0 0 4.387.755c.708.1 1.417.193 2.122.306 1.361.166 2.814.272 4.218.373.8.059 1.6.117 2.4.187l-.153 1.35c-.782-.036-1.568-.062-2.353-.087-1.448-.047-2.945-.1-4.424-.216-.735-.086-1.435-.153-2.135-.22a45.421 45.421 0 0 1-4.677-.612l-3.281-.56-3.316-.783c-1.11-.236-2.184-.563-3.275-.9a39.19 39.19 0 0 0-1.1-.337c-.7-.207-1.422-.422-2.12-.7a62.356 62.356 0 0 1-11.787-5.563 43.142 43.142 0 0 1-9.788-7.837l-.537-.6 3.966-1.829Z"/><path class="cls-3" d="M161.018 387.108a42.778 42.778 0 0 0 9.607 7.69 61.5 61.5 0 0 0 11.65 5.494c1.01.4 2.1.671 3.146 1.011s2.105.654 3.2.886l3.248.769 3.313.567c2.189.441 4.458.551 6.682.812 2.239.184 4.5.2 6.738.3-2.236-.195-4.48-.3-6.693-.569-2.2-.35-4.428-.547-6.566-1.071l-3.226-.689-3.142-.886c-1.059-.269-2.071-.628-3.077-.993s-2.045-.675-3-1.11a57.7 57.7 0 0 1-10.918-5.769 39.323 39.323 0 0 1-8.546-7.557Zm3.162-40.616a38.463 38.463 0 0 0 8.378 7.4 56.862 56.862 0 0 0 10.739 5.675c.622.281 1.237.492 1.888.715.368.126.737.253 1.1.388a31.1 31.1 0 0 0 2.968.961l3.168.892 3.16.672a42.1 42.1 0 0 0 4.387.755c.708.1 1.417.193 2.122.306 1.361.166 2.814.272 4.218.373.8.059 1.6.117 2.4.187l-.153 1.35c-.782-.036-1.568-.062-2.353-.087-1.448-.047-2.945-.1-4.424-.216-.735-.086-1.435-.153-2.135-.22a45.147 45.147 0 0 1-4.677-.612l-3.281-.56-3.316-.783c-1.11-.236-2.184-.563-3.275-.905a39.19 39.19 0 0 0-1.1-.337c-.7-.207-1.422-.422-2.12-.7a62.356 62.356 0 0 1-11.787-5.563 43.142 43.142 0 0 1-9.788-7.837l-.537-.6 3.966-1.829Z"/><path class="cls-3" d="M161.018 347.963a42.751 42.751 0 0 0 9.607 7.69 61.5 61.5 0 0 0 11.65 5.494c1.01.4 2.1.671 3.146 1.011s2.105.654 3.2.886l3.248.769 3.313.567c2.189.441 4.458.551 6.682.812 2.239.184 4.5.2 6.738.3-2.236-.2-4.48-.3-6.693-.57-2.2-.35-4.428-.547-6.566-1.071l-3.226-.689-3.142-.886c-1.059-.269-2.071-.628-3.077-.993s-2.045-.675-3-1.11a57.7 57.7 0 0 1-10.918-5.769 39.323 39.323 0 0 1-8.546-7.557Zm3.162-40.616a38.463 38.463 0 0 0 8.378 7.4 56.862 56.862 0 0 0 10.739 5.675c.622.281 1.237.492 1.888.715.368.126.737.253 1.1.388a31.1 31.1 0 0 0 2.968.961l3.168.892 3.16.672a42.1 42.1 0 0 0 4.387.755c.708.1 1.417.193 2.122.306 1.361.166 2.814.272 4.218.373.8.059 1.6.117 2.4.187l-.153 1.35c-.782-.036-1.568-.062-2.353-.087-1.448-.047-2.945-.095-4.424-.216a94.044 94.044 0 0 0-2.135-.219 45.426 45.426 0 0 1-4.677-.613l-3.281-.56-3.316-.783c-1.11-.235-2.184-.563-3.275-.905a39.19 39.19 0 0 0-1.1-.337c-.7-.207-1.422-.422-2.12-.7a62.356 62.356 0 0 1-11.787-5.563 43.142 43.142 0 0 1-9.788-7.837l-.537-.6 3.966-1.829Z"/><path class="cls-3" d="M161.018 308.818a42.751 42.751 0 0 0 9.607 7.69 61.437 61.437 0 0 0 11.65 5.492c1.01.4 2.1.671 3.146 1.011s2.105.654 3.2.886l3.248.769 3.313.567c2.189.441 4.458.551 6.682.812 2.239.184 4.5.2 6.738.3-2.236-.2-4.48-.3-6.693-.57-2.2-.35-4.428-.547-6.566-1.071l-3.226-.689-3.142-.886c-1.059-.269-2.071-.628-3.077-.993s-2.045-.675-3-1.11a57.7 57.7 0 0 1-10.918-5.769 39.323 39.323 0 0 1-8.546-7.557Zm3.162-40.618a38.463 38.463 0 0 0 8.378 7.4 56.862 56.862 0 0 0 10.739 5.675c.622.281 1.237.492 1.888.715.368.126.737.253 1.1.388a31.1 31.1 0 0 0 2.968.961l3.168.892 3.16.672a42.1 42.1 0 0 0 4.387.755c.708.1 1.417.193 2.122.306 1.361.166 2.814.272 4.218.373.8.059 1.6.117 2.4.187l-.153 1.35c-.782-.036-1.568-.062-2.353-.087-1.448-.047-2.945-.1-4.424-.216a94.044 94.044 0 0 0-2.135-.219 45.7 45.7 0 0 1-4.677-.612l-3.281-.561-3.316-.783c-1.11-.235-2.184-.563-3.275-.9a39.19 39.19 0 0 0-1.1-.337c-.7-.207-1.422-.422-2.12-.7a62.356 62.356 0 0 1-11.787-5.563 43.115 43.115 0 0 1-9.788-7.837l-.537-.6 3.966-1.829Z"/><path class="cls-3" d="M161.018 269.673a42.751 42.751 0 0 0 9.607 7.69 61.437 61.437 0 0 0 11.65 5.494c1.01.4 2.1.671 3.146 1.011s2.105.654 3.2.886l3.248.769 3.313.567c2.189.441 4.458.551 6.682.812 2.239.184 4.5.2 6.738.3-2.236-.2-4.48-.3-6.693-.57-2.2-.35-4.428-.547-6.566-1.071l-3.226-.689-3.142-.886c-1.059-.269-2.071-.628-3.077-.993s-2.045-.675-3-1.11a57.643 57.643 0 0 1-10.918-5.769 39.323 39.323 0 0 1-8.546-7.557ZM157.9 385.637a38.463 38.463 0 0 1-8.378 7.4 56.923 56.923 0 0 1-10.739 5.675c-.623.281-1.238.492-1.889.715-.368.126-.736.253-1.1.388a31.1 31.1 0 0 1-2.968.961l-3.168.891-3.159.673a42.149 42.149 0 0 1-4.387.755c-.709.1-1.417.193-2.122.306-1.361.166-2.814.272-4.219.373-.8.059-1.6.117-2.395.187l.153 1.35c.783-.036 1.568-.062 2.354-.087 1.447-.047 2.945-.1 4.424-.216.735-.086 1.434-.153 2.134-.22a45.476 45.476 0 0 0 4.678-.612l3.281-.56 3.315-.783c1.111-.236 2.184-.563 3.275-.9.37-.121.735-.229 1.1-.337.7-.207 1.422-.422 2.119-.7a62.364 62.364 0 0 0 11.788-5.563 43.113 43.113 0 0 0 9.787-7.837l.537-.6-3.965-1.829Z"/><path class="cls-3" d="M161.057 387.108a42.8 42.8 0 0 1-9.607 7.69 61.508 61.508 0 0 1-11.651 5.494c-1.009.4-2.1.671-3.145 1.011s-2.1.654-3.2.886l-3.247.769-3.313.567c-2.19.441-4.459.551-6.683.812-2.239.184-4.5.2-6.737.3 2.235-.195 4.48-.3 6.692-.569 2.2-.35 4.429-.547 6.566-1.071l3.227-.689 3.142-.886c1.058-.269 2.07-.628 3.077-.993s2.044-.675 3-1.11a57.7 57.7 0 0 0 10.918-5.769 39.305 39.305 0 0 0 8.547-7.557Zm-3.157-40.616a38.463 38.463 0 0 1-8.378 7.4 56.923 56.923 0 0 1-10.739 5.675c-.623.281-1.238.492-1.889.715-.368.126-.736.253-1.1.388a31.1 31.1 0 0 1-2.968.961l-3.168.892-3.159.672a42.149 42.149 0 0 1-4.387.755c-.709.1-1.417.193-2.122.306-1.361.166-2.814.272-4.219.373-.8.059-1.6.117-2.395.187l.153 1.35c.783-.036 1.568-.062 2.354-.087 1.447-.047 2.945-.1 4.424-.216.735-.086 1.434-.153 2.134-.22a45.2 45.2 0 0 0 4.678-.612l3.281-.56 3.315-.783c1.111-.236 2.184-.563 3.275-.905.37-.121.735-.229 1.1-.337.7-.207 1.422-.422 2.119-.7a62.364 62.364 0 0 0 11.788-5.563 43.113 43.113 0 0 0 9.787-7.837l.537-.6-3.965-1.829Z"/><path class="cls-3" d="M161.057 347.963a42.773 42.773 0 0 1-9.607 7.69 61.508 61.508 0 0 1-11.651 5.494c-1.009.4-2.1.671-3.145 1.011s-2.1.654-3.2.886l-3.247.769-3.313.567c-2.19.441-4.459.551-6.683.812-2.239.184-4.5.2-6.737.3 2.235-.2 4.48-.3 6.692-.57 2.2-.35 4.429-.547 6.566-1.071l3.227-.689 3.142-.886c1.058-.269 2.07-.628 3.077-.993s2.044-.675 3-1.11a57.7 57.7 0 0 0 10.918-5.769 39.305 39.305 0 0 0 8.547-7.557Zm-3.157-40.616a38.463 38.463 0 0 1-8.378 7.4 56.923 56.923 0 0 1-10.739 5.675c-.623.281-1.238.492-1.889.715-.368.126-.736.253-1.1.388a31.1 31.1 0 0 1-2.968.961l-3.168.892-3.159.672a42.149 42.149 0 0 1-4.387.755c-.709.1-1.417.193-2.122.306-1.361.166-2.814.272-4.219.373-.8.059-1.6.117-2.395.187l.153 1.35c.783-.036 1.568-.062 2.354-.087 1.447-.047 2.945-.095 4.424-.216a93.967 93.967 0 0 1 2.134-.219 45.481 45.481 0 0 0 4.678-.613l3.281-.56 3.315-.783c1.111-.235 2.184-.563 3.275-.905.37-.121.735-.229 1.1-.337.7-.207 1.422-.422 2.119-.7a62.364 62.364 0 0 0 11.788-5.563 43.113 43.113 0 0 0 9.787-7.837l.537-.6-3.965-1.829Z"/><path class="cls-3" d="M161.057 308.818a42.773 42.773 0 0 1-9.607 7.69A61.447 61.447 0 0 1 139.8 322c-1.009.4-2.1.671-3.145 1.011s-2.1.654-3.2.886l-3.247.769-3.313.567c-2.19.441-4.459.551-6.683.812-2.239.184-4.5.2-6.737.3 2.235-.2 4.48-.3 6.692-.57 2.2-.35 4.429-.547 6.566-1.071l3.227-.689 3.142-.886c1.058-.269 2.07-.628 3.077-.993s2.044-.675 3-1.11a57.7 57.7 0 0 0 10.918-5.769 39.305 39.305 0 0 0 8.547-7.557ZM157.9 268.2a38.463 38.463 0 0 1-8.378 7.4 56.923 56.923 0 0 1-10.739 5.675c-.623.281-1.238.492-1.889.715-.368.126-.736.253-1.1.388a31.1 31.1 0 0 1-2.968.961l-3.168.892-3.159.672a42.149 42.149 0 0 1-4.387.755c-.709.1-1.417.193-2.122.306-1.361.166-2.814.272-4.219.373-.8.059-1.6.117-2.395.187l.153 1.35c.783-.036 1.568-.062 2.354-.087 1.447-.047 2.945-.1 4.424-.216a93.967 93.967 0 0 1 2.134-.219 45.753 45.753 0 0 0 4.678-.612l3.281-.561 3.315-.783c1.111-.235 2.184-.563 3.275-.9.37-.121.735-.229 1.1-.337.7-.207 1.422-.422 2.119-.7a62.364 62.364 0 0 0 11.788-5.563 43.086 43.086 0 0 0 9.787-7.837l.537-.6-3.965-1.829Z"/><path class="cls-3" d="M161.057 269.673a42.773 42.773 0 0 1-9.607 7.69 61.447 61.447 0 0 1-11.651 5.494c-1.009.4-2.1.671-3.145 1.011s-2.1.654-3.2.886l-3.247.769-3.313.567c-2.19.441-4.459.551-6.683.812-2.239.184-4.5.2-6.737.3 2.235-.2 4.48-.3 6.692-.57 2.2-.35 4.429-.547 6.566-1.071l3.227-.689 3.142-.886c1.058-.269 2.07-.628 3.077-.993s2.044-.675 3-1.11a57.643 57.643 0 0 0 10.918-5.769 39.305 39.305 0 0 0 8.547-7.557Zm3.123 155.109a38.463 38.463 0 0 0 8.378 7.4 56.862 56.862 0 0 0 10.739 5.675c.622.281 1.237.492 1.888.715.368.126.737.253 1.1.388a31.1 31.1 0 0 0 2.968.961l3.168.891 3.16.673a42.1 42.1 0 0 0 4.387.755c.708.1 1.417.193 2.122.306 1.361.166 2.814.272 4.218.373.8.059 1.6.117 2.4.187l-.153 1.35c-.782-.036-1.568-.062-2.353-.087-1.448-.047-2.945-.095-4.424-.216-.735-.086-1.435-.153-2.135-.22a45.421 45.421 0 0 1-4.677-.612l-3.281-.56-3.316-.783c-1.11-.236-2.184-.563-3.275-.905-.37-.122-.734-.229-1.1-.337-.7-.207-1.422-.422-2.12-.7a62.356 62.356 0 0 1-11.787-5.563 43.142 43.142 0 0 1-9.788-7.837l-.537-.6 3.966-1.829Z"/><path class="cls-3" d="M161.018 426.253a42.778 42.778 0 0 0 9.607 7.69 61.5 61.5 0 0 0 11.65 5.494c1.01.4 2.1.67 3.146 1.011s2.105.654 3.2.886l3.248.769 3.313.567c2.189.441 4.458.551 6.682.812 2.239.184 4.5.2 6.738.3-2.236-.195-4.48-.3-6.693-.569-2.2-.35-4.428-.547-6.566-1.071l-3.226-.69-3.142-.885c-1.059-.269-2.071-.628-3.077-.993s-2.045-.675-3-1.11a57.7 57.7 0 0 1-10.918-5.769 39.323 39.323 0 0 1-8.546-7.557Z"/><path class="cls-3" d="M157.9 424.782a38.463 38.463 0 0 1-8.378 7.4 56.923 56.923 0 0 1-10.739 5.675c-.623.281-1.238.492-1.889.715-.368.126-.736.253-1.1.388a31.1 31.1 0 0 1-2.968.961l-3.168.891-3.159.673a42.149 42.149 0 0 1-4.387.755c-.709.1-1.417.193-2.122.306-1.361.166-2.814.272-4.219.373-.8.059-1.6.117-2.395.187l.153 1.35c.783-.036 1.568-.062 2.354-.087 1.447-.047 2.945-.095 4.424-.216.735-.086 1.434-.153 2.134-.22a45.476 45.476 0 0 0 4.678-.612l3.281-.56 3.315-.783c1.111-.236 2.184-.563 3.275-.905.37-.122.735-.229 1.1-.337.7-.207 1.422-.422 2.119-.7a62.364 62.364 0 0 0 11.788-5.563 43.113 43.113 0 0 0 9.787-7.837l.537-.6-3.965-1.829Z"/><path class="cls-3" d="M161.057 426.253a42.8 42.8 0 0 1-9.607 7.69 61.508 61.508 0 0 1-11.651 5.494c-1.009.4-2.1.67-3.145 1.011s-2.1.654-3.2.886l-3.247.769-3.313.567c-2.19.441-4.459.551-6.683.812-2.239.184-4.5.2-6.737.3 2.235-.195 4.48-.3 6.692-.569 2.2-.35 4.429-.547 6.566-1.071l3.227-.69 3.142-.885c1.058-.269 2.07-.628 3.077-.993s2.044-.675 3-1.11A57.7 57.7 0 0 0 150.1 432.7a39.305 39.305 0 0 0 8.547-7.557Z"/><path class="cls-2" d="M115.56 421.076c-5.544 4.183-14.6 4.183-20.133 0a17.1 17.1 0 0 1-3.8-3.891A39.069 39.069 0 0 0 77.8 404.866a39.079 39.079 0 0 0 13.835-12.32 17.118 17.118 0 0 1 3.8-3.891c5.534-4.183 14.589-4.183 20.133 0s5.534 11.034 0 15.217l-1.315.994 1.315.993c5.526 4.183 5.526 11.027-.008 15.217Z"/><path class="cls-2" d="M115.56 381.931c-5.544 4.183-14.6 4.183-20.133 0a17.1 17.1 0 0 1-3.8-3.891A39.069 39.069 0 0 0 77.8 365.721 39.079 39.079 0 0 0 91.63 353.4a17.118 17.118 0 0 1 3.8-3.891c5.534-4.183 14.589-4.183 20.133 0s5.534 11.034 0 15.217l-1.315.994 1.315.993c5.531 4.187 5.531 11.028-.003 15.218Z"/><path class="cls-2" d="M115.56 342.786c-5.544 4.183-14.6 4.183-20.133 0a17.1 17.1 0 0 1-3.8-3.891A39.069 39.069 0 0 0 77.8 326.576a39.079 39.079 0 0 0 13.835-12.32 17.118 17.118 0 0 1 3.8-3.891c5.534-4.183 14.589-4.183 20.133 0s5.534 11.034 0 15.217l-1.315.994 1.315.993c5.526 4.184 5.526 11.031-.008 15.217Z"/><path class="cls-2" d="M115.56 303.642c-5.544 4.182-14.6 4.182-20.133 0a17.122 17.122 0 0 1-3.8-3.892A39.069 39.069 0 0 0 77.8 287.431a39.069 39.069 0 0 0 13.835-12.32 17.118 17.118 0 0 1 3.8-3.891c5.534-4.183 14.589-4.183 20.133 0s5.534 11.034 0 15.217l-1.315.994 1.315.993c5.526 4.184 5.526 11.028-.008 15.218Zm0 139.375-1.315.994 1.315.994c5.534 4.182 5.534 11.026 0 15.216s-14.6 4.183-20.133 0a17.1 17.1 0 0 1-3.8-3.891A39.069 39.069 0 0 0 77.8 444.011a39.079 39.079 0 0 0 13.835-12.32 17.118 17.118 0 0 1 3.8-3.891c5.534-4.183 14.589-4.183 20.133 0s5.526 11.034-.008 15.217Z"/><path class="cls-3" d="M114.245 404.866H77.8a39.079 39.079 0 0 0 13.835-12.32 17.118 17.118 0 0 1 3.8-3.891c5.534-4.183 14.589-4.183 20.133 0s5.534 11.034 0 15.217Zm0-39.145H77.8A39.079 39.079 0 0 0 91.63 353.4a17.118 17.118 0 0 1 3.8-3.891c5.534-4.183 14.589-4.183 20.133 0s5.534 11.034 0 15.217Zm0-39.145H77.8a39.079 39.079 0 0 0 13.835-12.32 17.118 17.118 0 0 1 3.8-3.891c5.534-4.183 14.589-4.183 20.133 0s5.534 11.034 0 15.217Zm0-39.145H77.8a39.079 39.079 0 0 0 13.835-12.32 17.118 17.118 0 0 1 3.8-3.891c5.534-4.183 14.589-4.183 20.133 0s5.534 11.034 0 15.217Zm0 156.58H77.8a39.079 39.079 0 0 0 13.835-12.32 17.118 17.118 0 0 1 3.8-3.891c5.534-4.183 14.589-4.183 20.133 0s5.534 11.034 0 15.217Z"/><path class="cls-4" d="M156.83 266.153h8.219a.375.375 0 0 1-.044.056l-1.217 170.158a2.85 2.85 0 0 1-2.849 2.828 2.848 2.848 0 0 1-2.848-2.828l-1.217-170.158a.259.259 0 0 0-.044-.056Z"/><path class="cls-5" d="m156.874 266.209 1.217 170.158a2.848 2.848 0 0 0 2.848 2.828V266.153h-4.109a.259.259 0 0 1 .044.056Z"/><path class="cls-4" d="M163.6 267.721s3.434-1.742 1.226-6.471-8.832-7.964-14.72-7.466c0 0 2.127.581 3.108 4.563s3.928 11.78 10.386 9.374Z"/><ellipse class="cls-5" cx="160.327" cy="261.302" rx="2.235" ry="3.956" transform="rotate(-41.849 160.325 261.3)"/><path d="M7.217 22.167h9.722v49.486h-4.911V27.011H4.257Zm12.919 24.759q0-9.321 2.1-14.413a16.806 16.806 0 0 1 5.937-7.72 14.839 14.839 0 0 1 8.579-2.626 15.2 15.2 0 0 1 8.713 2.642 17.661 17.661 0 0 1 6.173 7.928q2.271 5.284 2.271 14.189 0 8.873-2.237 14.125a17.587 17.587 0 0 1-6.172 7.927 15.221 15.221 0 0 1-8.747 2.675 14.808 14.808 0 0 1-8.545-2.595 16.873 16.873 0 0 1-5.938-7.735q-2.134-5.14-2.134-14.397Zm4.676.08q0 7.983 1.5 12.07a12.827 12.827 0 0 0 4.424 6.2 10.15 10.15 0 0 0 12.346.048 12.618 12.618 0 0 0 4.34-6.2 35.213 35.213 0 0 0 1.85-12.118 34.646 34.646 0 0 0-1.648-11.651 13.61 13.61 0 0 0-4.558-6.635 10.1 10.1 0 0 0-12.33 0 12.915 12.915 0 0 0-4.41 6.18q-1.513 4.091-1.514 12.106Zm289.846 430.827h-9.722v-49.486h4.911v44.642h7.771Zm-12.919-24.759q0 9.321-2.1 14.414a16.809 16.809 0 0 1-5.937 7.719 14.837 14.837 0 0 1-8.579 2.626 15.2 15.2 0 0 1-8.713-2.642 17.661 17.661 0 0 1-6.173-7.928q-2.271-5.284-2.271-14.189 0-8.873 2.237-14.125a17.588 17.588 0 0 1 6.174-7.927 15.218 15.218 0 0 1 8.746-2.675 14.806 14.806 0 0 1 8.545 2.6 16.873 16.873 0 0 1 5.938 7.735q2.133 5.136 2.133 14.392Zm-4.676-.08q0-7.983-1.5-12.07a12.827 12.827 0 0 0-4.424-6.2 10.15 10.15 0 0 0-12.346-.048 12.618 12.618 0 0 0-4.34 6.2 35.237 35.237 0 0 0-1.85 12.118 34.646 34.646 0 0 0 1.648 11.651 13.6 13.6 0 0 0 4.559 6.635 10.094 10.094 0 0 0 12.329 0 12.915 12.915 0 0 0 4.407-6.184q1.517-4.088 1.517-12.102ZM161.373 38.687q1.124-1.355 3.049-4.1a34.248 34.248 0 0 0 2.293-3.521 3.359 3.359 0 0 0 .366-1.4 1.718 1.718 0 0 0-.882-1.549 4.149 4.149 0 0 0-1.914-.608q-.987-.069-.986-.5 0-.39 1.421-.39h9.606a5.623 5.623 0 0 1 1.18.069.316.316 0 0 1 .218.344c0 .259-.29.405-.871.435a6.957 6.957 0 0 0-3.909 1.424 29.58 29.58 0 0 0-5.032 5.7q-3.232 4.371-3.6 5.1 6.672 9.981 9.422 12.941t5.067 3.051q.825.046.825.5 0 .39-.871.39-.368 0-1.88-.092-2.156-.137-4.035-.137-3.209 0-6.121.137c-.244.016-.489.023-.733.023q-1.1 0-1.1-.389 0-.459.6-.459 2.912 0 2.912-1.813 0-1.9-6.74-10.691a47.066 47.066 0 0 0-3.68 4.968q-2.946 4.278-2.946 5.379 0 .78 1.112 1.378a7.2 7.2 0 0 0 2.832.733q.847.066.848.447 0 .424-.8.424l-.848-.022-4.677-.115q-4.126 0-5.662.16-.963 0-.963-.447c0-.282.237-.424.711-.424a6.979 6.979 0 0 0 2.854-.573 6.241 6.241 0 0 0 2.171-1.56q.882-1 3.909-5.277t4.195-6.138q-7.887-11.517-9.709-13a7.094 7.094 0 0 0-4.138-1.618c-.413-.03-.619-.177-.619-.447s.382-.4 1.146-.4h12.059a3.693 3.693 0 0 1 1.043.08.408.408 0 0 1-.034.688 6.407 6.407 0 0 1-1.513.172 2.484 2.484 0 0 0-1.33.493 1.221 1.221 0 0 0-.55.976q0 .665 2.2 4.037a57.209 57.209 0 0 0 4.104 5.621Zm-.873 422.626q-1.124 1.355-3.049 4.1a34.248 34.248 0 0 0-2.293 3.521 3.359 3.359 0 0 0-.366 1.4 1.716 1.716 0 0 0 .882 1.549 4.149 4.149 0 0 0 1.914.608q.987.069.986.5 0 .39-1.421.39h-9.606a5.623 5.623 0 0 1-1.18-.069.316.316 0 0 1-.218-.344c0-.259.29-.405.871-.435a6.957 6.957 0 0 0 3.909-1.424 29.58 29.58 0 0 0 5.032-5.7q3.232-4.371 3.6-5.105-6.671-9.981-9.422-12.941t-5.067-3.051q-.825-.047-.825-.5 0-.39.871-.39.368 0 1.88.092 2.156.137 4.035.137 3.21 0 6.121-.137c.244-.016.489-.023.734-.023q1.1 0 1.1.389 0 .459-.6.459-2.912 0-2.912 1.813 0 1.9 6.74 10.691a47.119 47.119 0 0 0 3.68-4.967q2.946-4.28 2.946-5.38 0-.78-1.112-1.378a7.2 7.2 0 0 0-2.831-.733q-.849-.066-.849-.447 0-.425.8-.424l.848.023 4.677.114q4.126 0 5.662-.16.963 0 .963.447c0 .282-.237.424-.711.424a6.979 6.979 0 0 0-2.854.573 6.241 6.241 0 0 0-2.178 1.572q-.882 1-3.908 5.277t-4.2 6.138q7.887 11.517 9.709 13a7.094 7.094 0 0 0 4.138 1.618c.413.03.619.177.619.447s-.382.4-1.146.4h-12.047a3.693 3.693 0 0 1-1.043-.08.408.408 0 0 1 .034-.688 6.41 6.41 0 0 1 1.514-.172 2.484 2.484 0 0 0 1.329-.493 1.221 1.221 0 0 0 .55-.976q0-.664-2.2-4.037a57.487 57.487 0 0 0-4.106-5.628Z"/><path class="cls-3" d="M26.265 99.982c.974 4.862-3.284 11.785-3.284 11.785-1.516.442-3.493-2.357-3.493-2.357 4.42-3.535 4.714-9.428 4.714-9.428Z"/><path class="cls-2" d="M36.175 88.809a11.167 11.167 0 0 0-2.613-2.371A25.16 25.16 0 0 1 25.29 77.8a25.15 25.15 0 0 1-8.271 8.639 11.167 11.167 0 0 0-2.613 2.371 10.431 10.431 0 0 0 0 12.572 6.33 6.33 0 0 0 10.217 0l.667-.821.668.821a6.33 6.33 0 0 0 10.217 0 10.434 10.434 0 0 0 0-12.573Z"/><path class="cls-3" d="M25.29 100.56V77.8a25.16 25.16 0 0 0 8.272 8.639 11.167 11.167 0 0 1 2.613 2.371 10.434 10.434 0 0 1 0 12.572 6.33 6.33 0 0 1-10.217 0Zm270.321 299.457c-.974-4.861 3.284-11.784 3.284-11.784 1.516-.442 3.492 2.356 3.492 2.356-4.419 3.536-4.714 9.428-4.714 9.428Z"/><path class="cls-2" d="M285.7 411.19a11.182 11.182 0 0 0 2.612 2.371 25.16 25.16 0 0 1 8.272 8.639 25.169 25.169 0 0 1 8.272-8.639 11.167 11.167 0 0 0 2.613-2.371 10.433 10.433 0 0 0 0-12.571 6.331 6.331 0 0 0-10.218 0l-.667.821-.667-.821a6.33 6.33 0 0 0-10.217 0 10.433 10.433 0 0 0 0 12.571Z"/><path class="cls-3" d="M296.585 399.44v22.76a25.155 25.155 0 0 0-8.271-8.64 11.145 11.145 0 0 1-2.613-2.371 10.43 10.43 0 0 1 0-12.571 6.33 6.33 0 0 1 10.217 0Z"/></svg>