<svg xmlns="http://www.w3.org/2000/svg" viewBox="0 0 103 160"><path fill="#fff" d="M0 0h103v160H0z"/><path d="M93.86 121.655a6.88 6.88 0 0 1-5.797-3.992 6.88 6.88 0 0 1 5.796-3.99 3.997 3.997 0 1 1 0 7.982zm-12.227 0a6.88 6.88 0 0 0 5.796-3.992 6.88 6.88 0 0 0-5.796-3.99 3.997 3.997 0 1 0 0 7.982zm9.995-12.414h-7.763l3.881 4.043 3.882-4.043zm.109 16.085a6.88 6.88 0 0 0-3.99-5.796 6.88 6.88 0 0 0-3.992 5.796 3.997 3.997 0 1 0 7.982 0zM31.135 58.623a4.933 4.933 0 0 1 4.155 2.963 4.933 4.933 0 0 1-4.154 2.962 2.963 2.963 0 1 1 0-5.925zm8.763 0a4.933 4.933 0 0 0-4.154 2.963 4.933 4.933 0 0 0 4.154 2.962 2.963 2.963 0 1 0 0-5.925zm-7.163 9.214h5.564l-2.782-3-2.782 3zm-.079-11.939a5.11 5.11 0 0 0 2.86 4.302 5.11 5.11 0 0 0 2.86-4.302 2.872 2.872 0 1 0-5.72 0zm7.242 45.478a4.933 4.933 0 0 1-4.154-2.962 4.933 4.933 0 0 1 4.154-2.962 2.963 2.963 0 1 1 0 5.924zm-8.763 0a4.933 4.933 0 0 0 4.155-2.962 4.933 4.933 0 0 0-4.154-2.962 2.963 2.963 0 1 0 0 5.924zm7.164-9.213h-5.564l2.782 3 2.782-3zm.078 11.939a5.11 5.11 0 0 0-2.86-4.302 5.11 5.11 0 0 0-2.86 4.302 2.872 2.872 0 1 0 5.72 0zm1.521 16.968a4.934 4.934 0 0 1-4.154-2.962 4.933 4.933 0 0 1 4.154-2.963 2.963 2.963 0 1 1 0 5.925zm-8.763 0a4.934 4.934 0 0 0 4.155-2.962 4.933 4.933 0 0 0-4.155-2.963 2.963 2.963 0 1 0 0 5.925zm7.164-9.214h-5.564l2.782 3.001 2.782-3.001zm.078 11.939a5.11 5.11 0 0 0-2.86-4.302 5.11 5.11 0 0 0-2.86 4.302 2.872 2.872 0 1 0 5.72 0zM31.135 38.93a4.934 4.934 0 0 1 4.155 2.962 4.933 4.933 0 0 1-4.154 2.963 2.963 2.963 0 1 1 0-5.925zm8.763 0a4.934 4.934 0 0 0-4.154 2.962 4.933 4.933 0 0 0 4.154 2.963 2.963 2.963 0 1 0 0-5.925zm-7.163 9.214h5.564l-2.782-3.001-2.782 3.001zm-.079-11.939a5.11 5.11 0 0 0 2.86 4.302 5.11 5.11 0 0 0 2.86-4.302 2.872 2.872 0 1 0-5.72 0zm-1.521 42.112a4.933 4.933 0 0 1 4.155 2.963 4.933 4.933 0 0 1-4.154 2.962 2.963 2.963 0 1 1 0-5.924zm8.763 0a4.933 4.933 0 0 0-4.154 2.963 4.933 4.933 0 0 0 4.154 2.962 2.963 2.963 0 1 0 0-5.924zm-7.163 9.214h5.564l-2.782-3.001-2.782 3.001zm-.079-11.939a5.11 5.11 0 0 0 2.86 4.302 5.11 5.11 0 0 0 2.86-4.302 2.872 2.872 0 1 0-5.72 0zm30.446-16.969a4.933 4.933 0 0 1 4.154 2.963 4.933 4.933 0 0 1-4.154 2.962 2.963 2.963 0 1 1 0-5.925zm8.763 0a4.933 4.933 0 0 0-4.155 2.963 4.933 4.933 0 0 0 4.154 2.962 2.963 2.963 0 1 0 0-5.925zm-7.164 9.214h5.564l-2.782-3-2.782 3zm-.078-11.939a5.11 5.11 0 0 0 2.86 4.302 5.11 5.11 0 0 0 2.86-4.302 2.872 2.872 0 1 0-5.72 0zm7.242 45.478a4.933 4.933 0 0 1-4.155-2.962 4.933 4.933 0 0 1 4.154-2.962 2.963 2.963 0 1 1 0 5.924zm-8.763 0a4.933 4.933 0 0 0 4.154-2.962 4.933 4.933 0 0 0-4.154-2.962 2.963 2.963 0 1 0 0 5.924zm7.163-9.213h-5.564l2.782 3 2.782-3zm.079 11.939a5.11 5.11 0 0 0-2.86-4.302 5.11 5.11 0 0 0-2.861 4.302 2.872 2.872 0 1 0 5.72 0zm1.521 16.968a4.934 4.934 0 0 1-4.155-2.962 4.933 4.933 0 0 1 4.155-2.963 2.963 2.963 0 1 1 0 5.925zm-8.763 0a4.934 4.934 0 0 0 4.154-2.962 4.933 4.933 0 0 0-4.154-2.963 2.963 2.963 0 1 0 0 5.925zm7.163-9.214h-5.564l2.782 3.001 2.782-3.001zm.079 11.939a5.11 5.11 0 0 0-2.86-4.302 5.11 5.11 0 0 0-2.861 4.302 2.872 2.872 0 1 0 5.72 0zM63.102 38.93a4.934 4.934 0 0 1 4.154 2.962 4.933 4.933 0 0 1-4.154 2.963 2.963 2.963 0 1 1 0-5.925zm8.763 0a4.934 4.934 0 0 0-4.155 2.962 4.933 4.933 0 0 0 4.154 2.963 2.963 2.963 0 1 0 0-5.925zm-7.164 9.214h5.564l-2.782-3.001-2.782 3.001zm-.078-11.939a5.11 5.11 0 0 0 2.86 4.302 5.11 5.11 0 0 0 2.86-4.302 2.872 2.872 0 1 0-5.72 0zm-1.521 42.112a4.933 4.933 0 0 1 4.154 2.963 4.933 4.933 0 0 1-4.154 2.962 2.963 2.963 0 1 1 0-5.924zm8.763 0a4.933 4.933 0 0 0-4.155 2.963 4.933 4.933 0 0 0 4.154 2.962 2.963 2.963 0 1 0 0-5.924zm-7.164 9.214h5.564l-2.782-3.001-2.782 3.001zm-.078-11.939a5.11 5.11 0 0 0 2.86 4.302 5.11 5.11 0 0 0 2.86-4.302 2.872 2.872 0 1 0-5.72 0zM9.14 38.345a6.88 6.88 0 0 1 5.797 3.992 6.88 6.88 0 0 1-5.796 3.99 3.997 3.997 0 1 1 0-7.982zm12.227 0a6.88 6.88 0 0 0-5.796 3.992 6.88 6.88 0 0 0 5.796 3.99 3.997 3.997 0 1 0 0-7.982zm-9.995 12.414h7.763l-3.881-4.043-3.882 4.043zm-.109-16.085a6.88 6.88 0 0 0 3.99 5.796 6.88 6.88 0 0 0 3.992-5.796 4.089 4.089 0 0 0-3.991-4.208 4.089 4.089 0 0 0-3.991 4.208zM5.012 4.758H9.51v22.886H7.237V6.998H3.643zm18.564-.001h.452V20.33h2.702v2.125h-2.702v5.19h-2.215v-5.19H11.127zM21.812 20.33v-9.377l-6.614 9.377z"/><path d="M93.86 121.655a6.88 6.88 0 0 1-5.797-3.992 6.88 6.88 0 0 1 5.796-3.99 3.997 3.997 0 1 1 0 7.982zm-12.227 0a6.88 6.88 0 0 0 5.796-3.992 6.88 6.88 0 0 0-5.796-3.99 3.997 3.997 0 1 0 0 7.982zm9.995-12.414h-7.763l3.881 4.043 3.882-4.043zm.109 16.085a6.88 6.88 0 0 0-3.99-5.796 6.88 6.88 0 0 0-3.992 5.796 3.997 3.997 0 1 0 7.982 0zm6.251 29.917H93.49v-22.887h2.272v20.646h3.594zm-18.564 0h-.452V139.67H76.27v-2.125h2.701v-5.19h2.216v5.19h10.685zm1.763-15.572v9.377l6.615-9.377zM46.963 48.444a5.106 5.106 0 0 1 4.302 2.962 5.106 5.106 0 0 1-4.302 2.963 2.966 2.966 0 1 1 0-5.925zm9.074 0a5.106 5.106 0 0 0-4.302 2.962 5.106 5.106 0 0 0 4.302 2.963 2.966 2.966 0 1 0 0-5.925zm-7.418 9.214h5.762L51.5 54.657l-2.881 3.001zm-.081-11.94a5.106 5.106 0 0 0 2.962 4.303 5.106 5.106 0 0 0 2.962-4.302 2.966 2.966 0 1 0-5.924 0zM46.963 68.36a5.106 5.106 0 0 1 4.302 2.962 5.106 5.106 0 0 1-4.302 2.962 2.966 2.966 0 1 1 0-5.925zm9.074 0a5.106 5.106 0 0 0-4.302 2.962 5.106 5.106 0 0 0 4.302 2.962 2.966 2.966 0 1 0 0-5.925zm-7.418 9.213h5.762L51.5 74.572l-2.881 3.001zm-.081-11.939a5.106 5.106 0 0 0 2.962 4.302 5.106 5.106 0 0 0 2.962-4.302 2.966 2.966 0 1 0-5.924 0zm7.499 26.006a5.106 5.106 0 0 1-4.302-2.962 5.106 5.106 0 0 1 4.302-2.962 2.966 2.966 0 1 1 0 5.925zm-9.074 0a5.106 5.106 0 0 0 4.302-2.962 5.106 5.106 0 0 0-4.302-2.962 2.966 2.966 0 1 0 0 5.925zm7.418-9.213h-5.762l2.881 3.001 2.881-3.001zm.081 11.939a5.106 5.106 0 0 0-2.962-4.302 5.106 5.106 0 0 0-2.962 4.302 2.966 2.966 0 1 0 5.924 0zm1.575 17.19a5.106 5.106 0 0 1-4.302-2.962 5.106 5.106 0 0 1 4.302-2.962 2.966 2.966 0 1 1 0 5.924zm-9.074 0a5.106 5.106 0 0 0 4.302-2.962 5.106 5.106 0 0 0-4.302-2.962 2.966 2.966 0 1 0 0 5.924zm7.418-9.214h-5.762l2.881 3.001 2.881-3.001zm.081 11.939a5.106 5.106 0 0 0-2.962-4.302 5.106 5.106 0 0 0-2.962 4.302 2.966 2.966 0 1 0 5.924 0z"/></svg>