<svg xmlns="http://www.w3.org/2000/svg" viewBox="0 0 103 160"><path fill="#fff" d="M0 0h103v160H0z"/><path d="M93.86 121.655a6.88 6.88 0 0 1-5.797-3.992 6.88 6.88 0 0 1 5.796-3.99 3.997 3.997 0 1 1 0 7.982zm-12.227 0a6.88 6.88 0 0 0 5.796-3.992 6.88 6.88 0 0 0-5.796-3.99 3.997 3.997 0 1 0 0 7.982zm9.995-12.414h-7.763l3.881 4.043 3.882-4.043zm.109 16.085a6.88 6.88 0 0 0-3.99-5.796 6.88 6.88 0 0 0-3.992 5.796 3.997 3.997 0 1 0 7.982 0zM31.135 58.623a4.933 4.933 0 0 1 4.155 2.963 4.933 4.933 0 0 1-4.154 2.962 2.963 2.963 0 1 1 0-5.925zm8.763 0a4.933 4.933 0 0 0-4.154 2.963 4.933 4.933 0 0 0 4.154 2.962 2.963 2.963 0 1 0 0-5.925zm-7.163 9.214h5.564l-2.782-3-2.782 3zm-.079-11.939a5.11 5.11 0 0 0 2.86 4.302 5.11 5.11 0 0 0 2.86-4.302 2.872 2.872 0 1 0-5.72 0zm7.242 45.478a4.933 4.933 0 0 1-4.154-2.962 4.933 4.933 0 0 1 4.154-2.962 2.963 2.963 0 1 1 0 5.924zm-8.763 0a4.933 4.933 0 0 0 4.155-2.962 4.933 4.933 0 0 0-4.154-2.962 2.963 2.963 0 1 0 0 5.924zm7.164-9.213h-5.564l2.782 3 2.782-3zm.078 11.939a5.11 5.11 0 0 0-2.86-4.302 5.11 5.11 0 0 0-2.86 4.302 2.872 2.872 0 1 0 5.72 0zm1.521 16.968a4.934 4.934 0 0 1-4.154-2.962 4.933 4.933 0 0 1 4.154-2.963 2.963 2.963 0 1 1 0 5.925zm-8.763 0a4.934 4.934 0 0 0 4.155-2.962 4.933 4.933 0 0 0-4.155-2.963 2.963 2.963 0 1 0 0 5.925zm7.164-9.214h-5.564l2.782 3.001 2.782-3.001zm.078 11.939a5.11 5.11 0 0 0-2.86-4.302 5.11 5.11 0 0 0-2.86 4.302 2.872 2.872 0 1 0 5.72 0zM31.135 38.93a4.934 4.934 0 0 1 4.155 2.962 4.933 4.933 0 0 1-4.154 2.963 2.963 2.963 0 1 1 0-5.925zm8.763 0a4.934 4.934 0 0 0-4.154 2.962 4.933 4.933 0 0 0 4.154 2.963 2.963 2.963 0 1 0 0-5.925zm-7.163 9.214h5.564l-2.782-3.001-2.782 3.001zm-.079-11.939a5.11 5.11 0 0 0 2.86 4.302 5.11 5.11 0 0 0 2.86-4.302 2.872 2.872 0 1 0-5.72 0zm-1.521 42.112a4.933 4.933 0 0 1 4.155 2.963 4.933 4.933 0 0 1-4.154 2.962 2.963 2.963 0 1 1 0-5.924zm8.763 0a4.933 4.933 0 0 0-4.154 2.963 4.933 4.933 0 0 0 4.154 2.962 2.963 2.963 0 1 0 0-5.924zm-7.163 9.214h5.564l-2.782-3.001-2.782 3.001zm-.079-11.939a5.11 5.11 0 0 0 2.86 4.302 5.11 5.11 0 0 0 2.86-4.302 2.872 2.872 0 1 0-5.72 0zm14.463-16.969a4.933 4.933 0 0 1 4.154 2.963 4.933 4.933 0 0 1-4.154 2.962 2.963 2.963 0 1 1 0-5.925zm8.762 0a4.933 4.933 0 0 0-4.154 2.963 4.933 4.933 0 0 0 4.154 2.962 2.963 2.963 0 1 0 0-5.925zm-7.163 9.214h5.564l-2.782-3-2.782 3zm-.078-11.939A5.11 5.11 0 0 0 51.5 60.2a5.11 5.11 0 0 0 2.86-4.302 2.872 2.872 0 1 0-5.72 0zm7.241 45.478a4.933 4.933 0 0 1-4.154-2.962 4.933 4.933 0 0 1 4.154-2.962 2.963 2.963 0 1 1 0 5.924zm-8.762 0a4.933 4.933 0 0 0 4.154-2.962 4.933 4.933 0 0 0-4.154-2.962 2.963 2.963 0 1 0 0 5.924zm7.163-9.213h-5.564l2.782 3 2.782-3zm.078 11.939A5.11 5.11 0 0 0 51.5 99.8a5.11 5.11 0 0 0-2.86 4.302 2.872 2.872 0 1 0 5.72 0zm1.521 16.968a4.934 4.934 0 0 1-4.154-2.962 4.933 4.933 0 0 1 4.154-2.963 2.963 2.963 0 1 1 0 5.925zm-8.762 0a4.934 4.934 0 0 0 4.154-2.962 4.933 4.933 0 0 0-4.154-2.963 2.963 2.963 0 1 0 0 5.925zm7.163-9.214h-5.564l2.782 3.001 2.782-3.001zm.078 11.939a5.11 5.11 0 0 0-2.86-4.302 5.11 5.11 0 0 0-2.86 4.302 2.872 2.872 0 1 0 5.72 0zM47.119 38.93a4.934 4.934 0 0 1 4.154 2.962 4.933 4.933 0 0 1-4.154 2.963 2.963 2.963 0 1 1 0-5.925zm8.762 0a4.934 4.934 0 0 0-4.154 2.962 4.933 4.933 0 0 0 4.154 2.963 2.963 2.963 0 1 0 0-5.925zm-7.163 9.214h5.564L51.5 45.143l-2.782 3.001zm-.078-11.939a5.11 5.11 0 0 0 2.86 4.302 5.11 5.11 0 0 0 2.86-4.302 2.872 2.872 0 1 0-5.72 0zm-1.521 42.112a4.933 4.933 0 0 1 4.154 2.963 4.933 4.933 0 0 1-4.154 2.962 2.963 2.963 0 1 1 0-5.924zm8.762 0a4.933 4.933 0 0 0-4.154 2.963 4.933 4.933 0 0 0 4.154 2.962 2.963 2.963 0 1 0 0-5.924zm-7.163 9.214h5.564L51.5 84.53l-2.782 3.001zm-.078-11.939a5.11 5.11 0 0 0 2.86 4.302 5.11 5.11 0 0 0 2.86-4.302 2.872 2.872 0 1 0-5.72 0zm14.462-16.969a4.933 4.933 0 0 1 4.154 2.963 4.933 4.933 0 0 1-4.154 2.962 2.963 2.963 0 1 1 0-5.925zm8.763 0a4.933 4.933 0 0 0-4.155 2.963 4.933 4.933 0 0 0 4.154 2.962 2.963 2.963 0 1 0 0-5.925zm-7.164 9.214h5.564l-2.782-3-2.782 3zm-.078-11.939a5.11 5.11 0 0 0 2.86 4.302 5.11 5.11 0 0 0 2.86-4.302 2.872 2.872 0 1 0-5.72 0zm7.242 45.478a4.933 4.933 0 0 1-4.155-2.962 4.933 4.933 0 0 1 4.154-2.962 2.963 2.963 0 1 1 0 5.924zm-8.763 0a4.933 4.933 0 0 0 4.154-2.962 4.933 4.933 0 0 0-4.154-2.962 2.963 2.963 0 1 0 0 5.924zm7.163-9.213h-5.564l2.782 3 2.782-3zm.079 11.939a5.11 5.11 0 0 0-2.86-4.302 5.11 5.11 0 0 0-2.861 4.302 2.872 2.872 0 1 0 5.72 0zm1.521 16.968a4.934 4.934 0 0 1-4.155-2.962 4.933 4.933 0 0 1 4.155-2.963 2.963 2.963 0 1 1 0 5.925zm-8.763 0a4.934 4.934 0 0 0 4.154-2.962 4.933 4.933 0 0 0-4.154-2.963 2.963 2.963 0 1 0 0 5.925zm7.163-9.214h-5.564l2.782 3.001 2.782-3.001zm.079 11.939a5.11 5.11 0 0 0-2.86-4.302 5.11 5.11 0 0 0-2.861 4.302 2.872 2.872 0 1 0 5.72 0zM63.102 38.93a4.934 4.934 0 0 1 4.154 2.962 4.933 4.933 0 0 1-4.154 2.963 2.963 2.963 0 1 1 0-5.925zm8.763 0a4.934 4.934 0 0 0-4.155 2.962 4.933 4.933 0 0 0 4.154 2.963 2.963 2.963 0 1 0 0-5.925zm-7.164 9.214h5.564l-2.782-3.001-2.782 3.001zm-.078-11.939a5.11 5.11 0 0 0 2.86 4.302 5.11 5.11 0 0 0 2.86-4.302 2.872 2.872 0 1 0-5.72 0zm-1.521 42.112a4.933 4.933 0 0 1 4.154 2.963 4.933 4.933 0 0 1-4.154 2.962 2.963 2.963 0 1 1 0-5.924zm8.763 0a4.933 4.933 0 0 0-4.155 2.963 4.933 4.933 0 0 0 4.154 2.962 2.963 2.963 0 1 0 0-5.924zm-7.164 9.214h5.564l-2.782-3.001-2.782 3.001zm-.078-11.939a5.11 5.11 0 0 0 2.86 4.302 5.11 5.11 0 0 0 2.86-4.302 2.872 2.872 0 1 0-5.72 0zM9.14 38.345a6.88 6.88 0 0 1 5.797 3.992 6.88 6.88 0 0 1-5.796 3.99 3.997 3.997 0 1 1 0-7.982zm12.227 0a6.88 6.88 0 0 0-5.796 3.992 6.88 6.88 0 0 0 5.796 3.99 3.997 3.997 0 1 0 0-7.982zm-9.995 12.414h7.763l-3.881-4.043-3.882 4.043zm-.109-16.085a6.88 6.88 0 0 0 3.99 5.796 6.88 6.88 0 0 0 3.992-5.796 4.089 4.089 0 0 0-3.991-4.208 4.089 4.089 0 0 0-3.991 4.208zM5.012 4.758H9.51v22.886H7.237V6.998H3.643zm20.64-.001v2.125H17.72l-1.118 6.089a9.38 9.38 0 0 1 2.623-.428 6.703 6.703 0 0 1 5.026 2.042 7.206 7.206 0 0 1 1.978 5.228 8.194 8.194 0 0 1-1.017 4.037 7.095 7.095 0 0 1-2.755 2.815 8.04 8.04 0 0 1-4.014.98 6.645 6.645 0 0 1-4.583-1.663 6.803 6.803 0 0 1-2.231-4.302h2.291a5.03 5.03 0 0 0 .873 2.094 4.445 4.445 0 0 0 1.639 1.298 4.89 4.89 0 0 0 2.147.493 5.022 5.022 0 0 0 3.78-1.667 5.825 5.825 0 0 0 1.578-4.168 4.93 4.93 0 0 0-1.426-3.668 5.188 5.188 0 0 0-3.81-1.409 12.618 12.618 0 0 0-4.78 1.2l2.064-11.096z"/><path d="M93.86 121.655a6.88 6.88 0 0 1-5.797-3.992 6.88 6.88 0 0 1 5.796-3.99 3.997 3.997 0 1 1 0 7.982zm-12.227 0a6.88 6.88 0 0 0 5.796-3.992 6.88 6.88 0 0 0-5.796-3.99 3.997 3.997 0 1 0 0 7.982zm9.995-12.414h-7.763l3.881 4.043 3.882-4.043zm.109 16.085a6.88 6.88 0 0 0-3.99-5.796 6.88 6.88 0 0 0-3.992 5.796 3.997 3.997 0 1 0 7.982 0zm6.251 29.917H93.49v-22.887h2.272v20.646h3.594zm-20.64 0v-2.125h7.932l1.118-6.089a9.38 9.38 0 0 1-2.623.428 6.703 6.703 0 0 1-5.026-2.041 7.206 7.206 0 0 1-1.978-5.229 8.194 8.194 0 0 1 1.017-4.037 7.095 7.095 0 0 1 2.754-2.815 8.04 8.04 0 0 1 4.015-.98 6.645 6.645 0 0 1 4.583 1.663 6.803 6.803 0 0 1 2.231 4.302H89.08a5.03 5.03 0 0 0-.873-2.094 4.445 4.445 0 0 0-1.639-1.298 4.89 4.89 0 0 0-2.147-.493 5.022 5.022 0 0 0-3.78 1.667 5.825 5.825 0 0 0-1.578 4.168 4.93 4.93 0 0 0 1.427 3.668 5.188 5.188 0 0 0 3.81 1.41 12.618 12.618 0 0 0 4.78-1.2l-2.064 11.095z"/></svg>