<svg xmlns="http://www.w3.org/2000/svg" viewBox="0 0 103 160"><path fill="#fff" d="M0 0h103v160H0z"/><path d="M5.029 4.758h4.496v22.886H7.253V6.998H3.66zM15.036 12.3h-2.141a7.67 7.67 0 0 1 2.208-5.423 7.1 7.1 0 0 1 5.229-2.12 6.654 6.654 0 0 1 6.89 6.681 7.31 7.31 0 0 1-.909 3.561 25.593 25.593 0 0 1-3.526 4.501l-5.561 5.989h10.3v2.155H12.364l8.529-9.218a27.418 27.418 0 0 0 3.377-4.124 5.546 5.546 0 0 0 .782-2.833 4.36 4.36 0 0 0-1.404-3.242 4.755 4.755 0 0 0-3.438-1.36 4.815 4.815 0 0 0-3.559 1.427 6.13 6.13 0 0 0-1.615 4.006zm.234 38.46-.483-1.108a21.84 21.84 0 0 0-7.674-9.277l-.3-.206.3-.206a21.84 21.84 0 0 0 7.673-9.277l.484-1.108.484 1.108a21.84 21.84 0 0 0 7.673 9.277l.3.206-.3.206a21.84 21.84 0 0 0-7.673 9.277zm82.702 104.483h-4.497v-22.887h2.272v20.646h3.594zM87.965 147.7h2.14a7.67 7.67 0 0 1-2.208 5.423 7.1 7.1 0 0 1-5.229 2.12 6.654 6.654 0 0 1-6.89-6.681 7.31 7.31 0 0 1 .909-3.561 25.593 25.593 0 0 1 3.526-4.501l5.561-5.989h-10.3v-2.155h15.162l-8.529 9.218a27.418 27.418 0 0 0-3.377 4.124 5.546 5.546 0 0 0-.782 2.833 4.36 4.36 0 0 0 1.404 3.242 4.755 4.755 0 0 0 3.438 1.36 4.815 4.815 0 0 0 3.559-1.426 6.13 6.13 0 0 0 1.615-4.007zm-.235-38.46.483 1.108a21.84 21.84 0 0 0 7.674 9.277l.3.206-.3.206a21.84 21.84 0 0 0-7.673 9.277l-.484 1.108-.484-1.108a21.84 21.84 0 0 0-7.673-9.277l-.3-.206.3-.206a21.84 21.84 0 0 0 7.673-9.277zM35.517 59.154l.343.787a15.531 15.531 0 0 0 5.457 6.598l.214.146-.214.146a15.53 15.53 0 0 0-5.457 6.598l-.343.787-.344-.787a15.53 15.53 0 0 0-5.457-6.598l-.214-.146.214-.146a15.531 15.531 0 0 0 5.457-6.598zm0-26.516.343.787a15.53 15.53 0 0 0 5.457 6.598l.214.146-.214.146a15.53 15.53 0 0 0-5.457 6.598l-.343.787-.344-.787a15.53 15.53 0 0 0-5.457-6.598l-.214-.146.214-.146a15.53 15.53 0 0 0 5.457-6.598zm0 53.311.343.787a15.53 15.53 0 0 0 5.457 6.597l.214.147-.214.146a15.53 15.53 0 0 0-5.457 6.597l-.343.788-.344-.788a15.53 15.53 0 0 0-5.457-6.597l-.214-.146.214-.147a15.53 15.53 0 0 0 5.457-6.597zm0 26.351.343.787a15.53 15.53 0 0 0 5.457 6.598l.214.146-.214.146a15.53 15.53 0 0 0-5.457 6.598l-.343.787-.344-.787a15.53 15.53 0 0 0-5.457-6.598l-.214-.146.214-.146a15.53 15.53 0 0 0 5.457-6.598zM51.5 59.154l.344.787A15.53 15.53 0 0 0 57.3 66.54l.213.146-.213.146a15.53 15.53 0 0 0-5.457 6.598l-.344.787-.344-.787a15.53 15.53 0 0 0-5.455-6.6l-.213-.146.213-.146a15.53 15.53 0 0 0 5.457-6.598zm0-26.516.344.787a15.53 15.53 0 0 0 5.457 6.598l.213.146-.213.146a15.53 15.53 0 0 0-5.457 6.598l-.344.787-.344-.787a15.53 15.53 0 0 0-5.457-6.598l-.213-.146.213-.146a15.53 15.53 0 0 0 5.457-6.598zm0 53.311.344.787a15.53 15.53 0 0 0 5.457 6.597l.213.147-.213.146a15.53 15.53 0 0 0-5.457 6.597l-.344.788-.344-.788a15.53 15.53 0 0 0-5.457-6.597l-.213-.146.213-.147a15.53 15.53 0 0 0 5.457-6.597zm0 26.351.344.787a15.53 15.53 0 0 0 5.457 6.598l.213.146-.213.146a15.53 15.53 0 0 0-5.457 6.598l-.344.787-.344-.787a15.53 15.53 0 0 0-5.457-6.598l-.213-.146.213-.146a15.53 15.53 0 0 0 5.457-6.598zm15.983-53.146.344.787a15.531 15.531 0 0 0 5.457 6.598l.214.146-.214.146a15.53 15.53 0 0 0-5.457 6.598l-.344.787-.344-.787a15.53 15.53 0 0 0-5.456-6.598l-.214-.146.214-.146a15.531 15.531 0 0 0 5.457-6.598zm0-26.516.344.787a15.53 15.53 0 0 0 5.457 6.598l.214.146-.214.146a15.53 15.53 0 0 0-5.457 6.598l-.344.787-.344-.787a15.53 15.53 0 0 0-5.456-6.598l-.214-.146.214-.146a15.53 15.53 0 0 0 5.457-6.598zm0 53.311.344.787a15.53 15.53 0 0 0 5.457 6.597l.214.147-.214.146a15.53 15.53 0 0 0-5.457 6.597l-.344.788-.344-.788a15.53 15.53 0 0 0-5.456-6.597l-.214-.146.214-.147a15.53 15.53 0 0 0 5.457-6.597zm0 26.351.344.787a15.53 15.53 0 0 0 5.457 6.598l.214.146-.214.146a15.53 15.53 0 0 0-5.457 6.598l-.344.787-.344-.787a15.53 15.53 0 0 0-5.456-6.598l-.214-.146.214-.146a15.53 15.53 0 0 0 5.457-6.598z" fill="#d90000"/></svg>