<svg xmlns="http://www.w3.org/2000/svg" viewBox="0 0 103 160"><path fill="#fff" d="M0 0h103v160H0z"/><path d="m51.5 58.95.961 2.2a43.41 43.41 0 0 0 15.253 18.441l.597.409-.597.409A43.41 43.41 0 0 0 52.461 98.85l-.961 2.2-.961-2.2a43.41 43.41 0 0 0-15.253-18.441L34.689 80l.597-.409A43.41 43.41 0 0 0 50.539 61.15zM15.254 29.578l.483 1.107a21.84 21.84 0 0 0 7.674 9.278l.3.206-.3.206a21.84 21.84 0 0 0-7.674 9.277l-.483 1.107-.484-1.107a21.84 21.84 0 0 0-7.674-9.277l-.3-.206.3-.206a21.84 21.84 0 0 0 7.674-9.277zM11.971 4.627h4.497v22.887h-2.272V6.868h-3.594zm75.775 125.795-.483-1.107a21.84 21.84 0 0 0-7.674-9.278l-.3-.206.3-.206a21.84 21.84 0 0 0 7.674-9.277l.483-1.107.484 1.107a21.84 21.84 0 0 0 7.673 9.277l.3.206-.3.206a21.84 21.84 0 0 0-7.673 9.278zm3.283 24.951h-4.497v-22.887h2.272v20.646h3.594z" fill="#d90000"/></svg>