<svg xmlns="http://www.w3.org/2000/svg" viewBox="0 0 103 160"><path fill="#fff" d="M0 0h103v160H0z"/><path d="M5.985 4.757h4.497v22.887H8.21V6.998H4.616zm12.055 0h4.497v22.887h-2.272V6.998h-3.594zM15.254 50.76l-.484-1.108a21.84 21.84 0 0 0-7.674-9.277l-.3-.206.3-.206a21.84 21.84 0 0 0 7.674-9.277l.484-1.108.483 1.108a21.84 21.84 0 0 0 7.674 9.277l.3.206-.3.206a21.84 21.84 0 0 0-7.674 9.277zm81.761 104.483h-4.497v-22.887h2.272v20.646h3.594zm-12.055 0h-4.497v-22.887h2.272v20.646h3.594zm2.786-46.003.484 1.108a21.84 21.84 0 0 0 7.673 9.277l.3.206-.3.206a21.84 21.84 0 0 0-7.673 9.277l-.484 1.108-.483-1.108a21.84 21.84 0 0 0-7.674-9.277l-.3-.206.3-.206a21.84 21.84 0 0 0 7.674-9.277zM35.517 59.154l.343.787a15.531 15.531 0 0 0 5.457 6.598l.214.146-.214.146a15.53 15.53 0 0 0-5.457 6.598l-.343.787-.344-.787a15.53 15.53 0 0 0-5.457-6.598l-.214-.146.214-.146a15.531 15.531 0 0 0 5.457-6.598zm0-26.516.343.787a15.53 15.53 0 0 0 5.457 6.598l.214.146-.214.146a15.53 15.53 0 0 0-5.457 6.598l-.343.787-.344-.787a15.53 15.53 0 0 0-5.457-6.598l-.214-.146.214-.146a15.53 15.53 0 0 0 5.457-6.598zM51.5 99.124l.344.788a15.53 15.53 0 0 0 5.457 6.597l.213.146-.213.147a15.53 15.53 0 0 0-5.457 6.597l-.344.787-.344-.787a15.53 15.53 0 0 0-5.457-6.597l-.213-.147.213-.146a15.53 15.53 0 0 0 5.457-6.597zm0-53.228.344.787a15.53 15.53 0 0 0 5.457 6.598l.213.146-.213.146a15.53 15.53 0 0 0-5.457 6.598l-.344.787-.344-.787a15.53 15.53 0 0 0-5.457-6.598l-.213-.146.213-.146a15.53 15.53 0 0 0 5.457-6.598zM35.517 85.949l.343.787a15.53 15.53 0 0 0 5.457 6.597l.214.147-.214.146a15.53 15.53 0 0 0-5.457 6.597l-.343.788-.344-.788a15.53 15.53 0 0 0-5.457-6.597l-.214-.146.214-.147a15.53 15.53 0 0 0 5.457-6.597zm0 26.351.343.787a15.53 15.53 0 0 0 5.457 6.598l.214.146-.214.146a15.53 15.53 0 0 0-5.457 6.598l-.343.787-.344-.787a15.53 15.53 0 0 0-5.457-6.598l-.214-.146.214-.146a15.53 15.53 0 0 0 5.457-6.598zm31.966-53.146.344.787a15.531 15.531 0 0 0 5.457 6.598l.214.146-.214.146a15.53 15.53 0 0 0-5.457 6.598l-.344.787-.344-.787a15.53 15.53 0 0 0-5.456-6.598l-.214-.146.214-.146a15.531 15.531 0 0 0 5.457-6.598zm0-26.516.344.787a15.53 15.53 0 0 0 5.457 6.598l.214.146-.214.146a15.53 15.53 0 0 0-5.457 6.598l-.344.787-.344-.787a15.53 15.53 0 0 0-5.456-6.598l-.214-.146.214-.146a15.53 15.53 0 0 0 5.457-6.598zm0 53.311.344.787a15.53 15.53 0 0 0 5.457 6.597l.214.147-.214.146a15.53 15.53 0 0 0-5.457 6.597l-.344.788-.344-.788a15.53 15.53 0 0 0-5.456-6.597l-.214-.146.214-.147a15.53 15.53 0 0 0 5.457-6.597zm0 26.351.344.787a15.53 15.53 0 0 0 5.457 6.598l.214.146-.214.146a15.53 15.53 0 0 0-5.457 6.598l-.344.787-.344-.787a15.53 15.53 0 0 0-5.456-6.598l-.214-.146.214-.146a15.53 15.53 0 0 0 5.457-6.598zM51.5 72.469l.344.787a15.53 15.53 0 0 0 5.457 6.598l.213.146-.213.146a15.53 15.53 0 0 0-5.457 6.598l-.344.787-.344-.787a15.53 15.53 0 0 0-5.457-6.598L45.486 80l.213-.146a15.53 15.53 0 0 0 5.457-6.598z" fill="#d90000"/></svg>