<svg xmlns="http://www.w3.org/2000/svg" viewBox="0 0 103 160"><path fill="#fff" d="M0 0h103v160H0z"/><path d="M5.012 4.758H9.51v22.886H7.237V6.998H3.643zm20.64-.001v2.125H17.72l-1.118 6.089a9.38 9.38 0 0 1 2.623-.428 6.703 6.703 0 0 1 5.026 2.042 7.206 7.206 0 0 1 1.978 5.228 8.194 8.194 0 0 1-1.017 4.037 7.095 7.095 0 0 1-2.755 2.815 8.04 8.04 0 0 1-4.014.98 6.645 6.645 0 0 1-4.583-1.663 6.803 6.803 0 0 1-2.231-4.302h2.291a5.03 5.03 0 0 0 .873 2.094 4.445 4.445 0 0 0 1.639 1.298 4.89 4.89 0 0 0 2.147.493 5.022 5.022 0 0 0 3.78-1.667 5.825 5.825 0 0 0 1.578-4.168 4.93 4.93 0 0 0-1.426-3.668 5.188 5.188 0 0 0-3.81-1.409 12.618 12.618 0 0 0-4.78 1.2l2.064-11.096zM15.254 50.76l-.484-1.108a21.84 21.84 0 0 0-7.674-9.277l-.3-.206.3-.206a21.84 21.84 0 0 0 7.674-9.277l.484-1.108.483 1.108a21.84 21.84 0 0 0 7.674 9.277l.3.206-.3.206a21.84 21.84 0 0 0-7.674 9.277zm82.734 104.483H93.49v-22.887h2.272v20.646h3.594zm-20.64 0v-2.125h7.932l1.118-6.089a9.38 9.38 0 0 1-2.623.428 6.703 6.703 0 0 1-5.026-2.041 7.206 7.206 0 0 1-1.978-5.229 8.194 8.194 0 0 1 1.017-4.037 7.095 7.095 0 0 1 2.754-2.815 8.04 8.04 0 0 1 4.015-.98 6.645 6.645 0 0 1 4.583 1.663 6.803 6.803 0 0 1 2.231 4.302H89.08a5.03 5.03 0 0 0-.873-2.094 4.445 4.445 0 0 0-1.639-1.298 4.89 4.89 0 0 0-2.147-.493 5.022 5.022 0 0 0-3.78 1.667 5.825 5.825 0 0 0-1.578 4.168 4.93 4.93 0 0 0 1.427 3.668 5.188 5.188 0 0 0 3.81 1.41 12.618 12.618 0 0 0 4.78-1.2l-2.064 11.095zm10.398-46.003.484 1.108a21.84 21.84 0 0 0 7.673 9.277l.3.206-.3.206a21.84 21.84 0 0 0-7.673 9.277l-.484 1.108-.483-1.108a21.84 21.84 0 0 0-7.674-9.277l-.3-.206.3-.206a21.84 21.84 0 0 0 7.674-9.277zm-20.263 3.06.344.787a15.53 15.53 0 0 0 5.457 6.598l.214.146-.214.146a15.53 15.53 0 0 0-5.457 6.598l-.344.787-.344-.787a15.53 15.53 0 0 0-5.456-6.598l-.214-.146.214-.146a15.53 15.53 0 0 0 5.457-6.598zm0-39.831.344.787a15.53 15.53 0 0 0 5.457 6.598l.214.146-.214.146a15.53 15.53 0 0 0-5.457 6.598l-.344.787-.344-.787a15.53 15.53 0 0 0-5.456-6.598L61.469 80l.214-.146a15.53 15.53 0 0 0 5.457-6.598zm0 19.916.344.787a15.531 15.531 0 0 0 5.457 6.597l.214.146-.214.147a15.53 15.53 0 0 0-5.457 6.597l-.344.787-.344-.787a15.53 15.53 0 0 0-5.456-6.597l-.214-.146.214-.147a15.531 15.531 0 0 0 5.457-6.597zm0-39.832.344.788a15.53 15.53 0 0 0 5.457 6.597l.214.146-.214.147a15.531 15.531 0 0 0-5.457 6.597l-.344.787-.344-.787a15.531 15.531 0 0 0-5.456-6.597l-.214-.147.214-.146a15.53 15.53 0 0 0 5.457-6.597zm0-19.915.344.787a15.53 15.53 0 0 0 5.457 6.598l.214.146-.214.146a15.53 15.53 0 0 0-5.457 6.598l-.344.787-.344-.787a15.53 15.53 0 0 0-5.456-6.598l-.214-.146.214-.146a15.53 15.53 0 0 0 5.457-6.598zM51.5 112.3l.344.787a15.53 15.53 0 0 0 5.457 6.598l.213.146-.213.146a15.53 15.53 0 0 0-5.457 6.598l-.344.787-.344-.787a15.53 15.53 0 0 0-5.457-6.598l-.213-.146.213-.146a15.53 15.53 0 0 0 5.457-6.598zm0-39.831.344.787a15.53 15.53 0 0 0 5.457 6.598l.213.146-.213.146a15.53 15.53 0 0 0-5.457 6.598l-.344.787-.344-.787a15.53 15.53 0 0 0-5.457-6.598L45.486 80l.213-.146a15.53 15.53 0 0 0 5.457-6.598zm0 19.916.344.787a15.53 15.53 0 0 0 5.457 6.597l.213.146-.213.147a15.53 15.53 0 0 0-5.457 6.597l-.344.787-.344-.787a15.53 15.53 0 0 0-5.457-6.597l-.213-.146.213-.147a15.53 15.53 0 0 0 5.457-6.597zm0-39.832.344.788a15.53 15.53 0 0 0 5.457 6.597l.213.146-.213.147a15.53 15.53 0 0 0-5.457 6.597l-.344.787-.344-.787a15.53 15.53 0 0 0-5.457-6.597l-.213-.147.213-.146a15.53 15.53 0 0 0 5.457-6.597zm0-19.915.344.787a15.53 15.53 0 0 0 5.457 6.598l.213.146-.213.146a15.53 15.53 0 0 0-5.457 6.598l-.344.787-.344-.787a15.53 15.53 0 0 0-5.457-6.598l-.213-.146.213-.146a15.53 15.53 0 0 0 5.457-6.598zM35.517 112.3l.343.787a15.53 15.53 0 0 0 5.457 6.598l.214.146-.214.146a15.53 15.53 0 0 0-5.457 6.598l-.343.787-.344-.787a15.53 15.53 0 0 0-5.457-6.598l-.214-.146.214-.146a15.53 15.53 0 0 0 5.457-6.598zm0-39.831.343.787a15.53 15.53 0 0 0 5.457 6.598l.214.146-.214.146a15.53 15.53 0 0 0-5.457 6.598l-.343.787-.344-.787a15.53 15.53 0 0 0-5.457-6.598L29.502 80l.214-.146a15.53 15.53 0 0 0 5.457-6.598zm0 19.916.343.787a15.531 15.531 0 0 0 5.457 6.597l.214.146-.214.147a15.53 15.53 0 0 0-5.457 6.597l-.343.787-.344-.787a15.53 15.53 0 0 0-5.457-6.597l-.214-.146.214-.147a15.531 15.531 0 0 0 5.457-6.597zm0-39.832.343.788a15.53 15.53 0 0 0 5.457 6.597l.214.146-.214.147a15.531 15.531 0 0 0-5.457 6.597l-.343.787-.344-.787a15.531 15.531 0 0 0-5.457-6.597l-.214-.147.214-.146a15.53 15.53 0 0 0 5.457-6.597zm0-19.915.343.787a15.53 15.53 0 0 0 5.457 6.598l.214.146-.214.146a15.53 15.53 0 0 0-5.457 6.598l-.343.787-.344-.787a15.53 15.53 0 0 0-5.457-6.598l-.214-.146.214-.146a15.53 15.53 0 0 0 5.457-6.598z" fill="#d90000"/></svg>