<svg xmlns="http://www.w3.org/2000/svg" viewBox="0 0 103 160"><path fill="#fff" d="M0 0h103v160H0z"/><path d="M5.012 4.758H9.51v22.886H7.237V6.998H3.643zm18.564-.001h.452V20.33h2.702v2.125h-2.702v5.19h-2.215v-5.19H11.127zM21.812 20.33v-9.377l-6.614 9.377zm-6.558 30.43-.484-1.108a21.84 21.84 0 0 0-7.674-9.277l-.3-.206.3-.206a21.84 21.84 0 0 0 7.674-9.277l.484-1.108.483 1.108a21.84 21.84 0 0 0 7.674 9.277l.3.206-.3.206a21.84 21.84 0 0 0-7.674 9.277zm82.734 104.483H93.49v-22.887h2.272v20.646h3.594zm-18.564 0h-.452V139.67H76.27v-2.125h2.701v-5.19h2.216v5.19h10.685zm1.763-15.572v9.377l6.615-9.377zm6.559-30.431.484 1.108a21.84 21.84 0 0 0 7.673 9.277l.3.206-.3.206a21.84 21.84 0 0 0-7.673 9.277l-.484 1.108-.483-1.108a21.84 21.84 0 0 0-7.674-9.277l-.3-.206.3-.206a21.84 21.84 0 0 0 7.674-9.277zm-20.263 3.06.344.787a15.53 15.53 0 0 0 5.457 6.598l.214.146-.214.146a15.53 15.53 0 0 0-5.457 6.598l-.344.787-.344-.787a15.53 15.53 0 0 0-5.456-6.598l-.214-.146.214-.146a15.53 15.53 0 0 0 5.457-6.598zm0-39.831.344.787a15.53 15.53 0 0 0 5.457 6.598l.214.146-.214.146a15.53 15.53 0 0 0-5.457 6.598l-.344.787-.344-.787a15.53 15.53 0 0 0-5.456-6.598L61.469 80l.214-.146a15.53 15.53 0 0 0 5.457-6.598zm0 19.916.344.787a15.531 15.531 0 0 0 5.457 6.597l.214.146-.214.147a15.53 15.53 0 0 0-5.457 6.597l-.344.787-.344-.787a15.53 15.53 0 0 0-5.456-6.597l-.214-.146.214-.147a15.531 15.531 0 0 0 5.457-6.597zm0-39.832.344.788a15.53 15.53 0 0 0 5.457 6.597l.214.146-.214.147a15.531 15.531 0 0 0-5.457 6.597l-.344.787-.344-.787a15.531 15.531 0 0 0-5.456-6.597l-.214-.147.214-.146a15.53 15.53 0 0 0 5.457-6.597zm0-19.915.344.787a15.53 15.53 0 0 0 5.457 6.598l.214.146-.214.146a15.53 15.53 0 0 0-5.457 6.598l-.344.787-.344-.787a15.53 15.53 0 0 0-5.456-6.598l-.214-.146.214-.146a15.53 15.53 0 0 0 5.457-6.598zM35.517 112.3l.343.787a15.53 15.53 0 0 0 5.457 6.598l.214.146-.214.146a15.53 15.53 0 0 0-5.457 6.598l-.343.787-.344-.787a15.53 15.53 0 0 0-5.457-6.598l-.214-.146.214-.146a15.53 15.53 0 0 0 5.457-6.598zm0-39.831.343.787a15.53 15.53 0 0 0 5.457 6.598l.214.146-.214.146a15.53 15.53 0 0 0-5.457 6.598l-.343.787-.344-.787a15.53 15.53 0 0 0-5.457-6.598L29.502 80l.214-.146a15.53 15.53 0 0 0 5.457-6.598zm0 19.916.343.787a15.531 15.531 0 0 0 5.457 6.597l.214.146-.214.147a15.53 15.53 0 0 0-5.457 6.597l-.343.787-.344-.787a15.53 15.53 0 0 0-5.457-6.597l-.214-.146.214-.147a15.531 15.531 0 0 0 5.457-6.597zm0-39.832.343.788a15.53 15.53 0 0 0 5.457 6.597l.214.146-.214.147a15.531 15.531 0 0 0-5.457 6.597l-.343.787-.344-.787a15.531 15.531 0 0 0-5.457-6.597l-.214-.147.214-.146a15.53 15.53 0 0 0 5.457-6.597zm0-19.915.343.787a15.53 15.53 0 0 0 5.457 6.598l.214.146-.214.146a15.53 15.53 0 0 0-5.457 6.598l-.343.787-.344-.787a15.53 15.53 0 0 0-5.457-6.598l-.214-.146.214-.146a15.53 15.53 0 0 0 5.457-6.598zM51.5 62.511l.344.787a15.53 15.53 0 0 0 5.457 6.598l.213.146-.213.147a15.53 15.53 0 0 0-5.457 6.597l-.344.787-.344-.787a15.53 15.53 0 0 0-5.457-6.598l-.213-.146.213-.146a15.53 15.53 0 0 0 5.457-6.597zm0 39.831.344.788a15.53 15.53 0 0 0 5.457 6.597l.213.146-.213.147a15.53 15.53 0 0 0-5.457 6.597l-.344.787-.344-.787a15.53 15.53 0 0 0-5.457-6.597l-.213-.147.213-.146a15.53 15.53 0 0 0 5.457-6.597zm0-19.915.344.787a15.53 15.53 0 0 0 5.457 6.598l.213.146-.213.146a15.53 15.53 0 0 0-5.457 6.597l-.344.788-.344-.788a15.53 15.53 0 0 0-5.457-6.597l-.213-.146.213-.147a15.53 15.53 0 0 0 5.457-6.597zm0-39.831.344.787A15.53 15.53 0 0 0 57.3 49.98l.213.146-.213.147a15.53 15.53 0 0 0-5.457 6.597l-.344.787-.344-.787a15.53 15.53 0 0 0-5.457-6.597l-.213-.147.213-.146a15.53 15.53 0 0 0 5.457-6.597z" fill="#d90000"/></svg>