<svg xmlns="http://www.w3.org/2000/svg" viewBox="0 0 103 160"><path fill="#fff" d="M0 0h103v160H0z"/><path d="M5.012 4.758H9.51v22.886H7.237V6.998H3.643zm10.576 5.599h-2.222a7.342 7.342 0 0 1 2.326-4.148 6.09 6.09 0 0 1 4.06-1.452 6.708 6.708 0 0 1 3.177.778 5.755 5.755 0 0 1 2.281 2.096 5.2 5.2 0 0 1 .807 2.755 4.996 4.996 0 0 1-2.8 4.46 6.35 6.35 0 0 1 2.578 1.866 5.965 5.965 0 0 1 1.422 3.881 6.925 6.925 0 0 1-.978 3.533 6.782 6.782 0 0 1-2.666 2.6 7.776 7.776 0 0 1-3.778.919 6.937 6.937 0 0 1-4.695-1.623 7.94 7.94 0 0 1-2.459-4.762h2.133a6.184 6.184 0 0 0 1.615 3.066 4.976 4.976 0 0 0 3.437 1.2 5.176 5.176 0 0 0 3.807-1.422 4.542 4.542 0 0 0 1.437-3.333 4.313 4.313 0 0 0-.719-2.385 4.525 4.525 0 0 0-1.926-1.674 10.688 10.688 0 0 0-3.74-.696v-2a6.862 6.862 0 0 0 2.725-.526 3.973 3.973 0 0 0 1.785-1.34 3.091 3.091 0 0 0 .556-1.778 3.227 3.227 0 0 0-1.134-2.46 4.083 4.083 0 0 0-2.866-1.036 3.848 3.848 0 0 0-2.43.792 5.98 5.98 0 0 0-1.733 2.689zm-.334 40.403-.484-1.108a21.84 21.84 0 0 0-7.674-9.277l-.3-.206.3-.206a21.84 21.84 0 0 0 7.674-9.277l.484-1.108.483 1.108a21.84 21.84 0 0 0 7.674 9.277l.3.206-.3.206a21.84 21.84 0 0 0-7.674 9.277zm82.734 104.483H93.49v-22.887h2.272v20.646h3.594zm-10.576-5.6h2.222a7.342 7.342 0 0 1-2.326 4.148 6.09 6.09 0 0 1-4.06 1.452 6.708 6.708 0 0 1-3.177-.778 5.755 5.755 0 0 1-2.28-2.096 5.2 5.2 0 0 1-.808-2.756 4.996 4.996 0 0 1 2.8-4.458 6.35 6.35 0 0 1-2.578-1.867 5.965 5.965 0 0 1-1.422-3.881 6.925 6.925 0 0 1 .978-3.533 6.782 6.782 0 0 1 2.666-2.6 7.776 7.776 0 0 1 3.778-.919 6.937 6.937 0 0 1 4.695 1.623 7.94 7.94 0 0 1 2.459 4.762h-2.133a6.184 6.184 0 0 0-1.614-3.066 4.976 4.976 0 0 0-3.437-1.2 5.176 5.176 0 0 0-3.807 1.422 4.542 4.542 0 0 0-1.437 3.333 4.313 4.313 0 0 0 .718 2.385 4.525 4.525 0 0 0 1.926 1.674 10.688 10.688 0 0 0 3.74.696v2a6.862 6.862 0 0 0-2.726.526 3.973 3.973 0 0 0-1.785 1.34 3.091 3.091 0 0 0-.555 1.778 3.227 3.227 0 0 0 1.133 2.46 4.083 4.083 0 0 0 2.866 1.036 3.848 3.848 0 0 0 2.43-.792 5.98 5.98 0 0 0 1.734-2.689zm.334-40.403.484 1.108a21.84 21.84 0 0 0 7.673 9.277l.3.206-.3.206a21.84 21.84 0 0 0-7.673 9.277l-.484 1.108-.483-1.108a21.84 21.84 0 0 0-7.674-9.277l-.3-.206.3-.206a21.84 21.84 0 0 0 7.674-9.277zM51.5 112.3l.344.787a15.53 15.53 0 0 0 5.457 6.598l.213.146-.213.146a15.53 15.53 0 0 0-5.457 6.598l-.344.787-.344-.787a15.53 15.53 0 0 0-5.457-6.598l-.213-.146.213-.146a15.53 15.53 0 0 0 5.457-6.598zm0-39.831.344.787a15.53 15.53 0 0 0 5.457 6.598l.213.146-.213.146a15.53 15.53 0 0 0-5.457 6.598l-.344.787-.344-.787a15.53 15.53 0 0 0-5.457-6.598L45.486 80l.213-.146a15.53 15.53 0 0 0 5.457-6.598zm0 19.916.344.787a15.53 15.53 0 0 0 5.457 6.597l.213.146-.213.147a15.53 15.53 0 0 0-5.457 6.597l-.344.787-.344-.787a15.53 15.53 0 0 0-5.457-6.597l-.213-.146.213-.147a15.53 15.53 0 0 0 5.457-6.597zm0-39.832.344.788a15.53 15.53 0 0 0 5.457 6.597l.213.146-.213.147a15.53 15.53 0 0 0-5.457 6.597l-.344.787-.344-.787a15.53 15.53 0 0 0-5.457-6.597l-.213-.147.213-.146a15.53 15.53 0 0 0 5.457-6.597zm0-19.915.344.787a15.53 15.53 0 0 0 5.457 6.598l.213.146-.213.146a15.53 15.53 0 0 0-5.457 6.598l-.344.787-.344-.787a15.53 15.53 0 0 0-5.457-6.598l-.213-.146.213-.146a15.53 15.53 0 0 0 5.457-6.598zM35.517 62.511l.343.787a15.53 15.53 0 0 0 5.457 6.598l.214.146-.214.147a15.53 15.53 0 0 0-5.457 6.597l-.343.787-.344-.787a15.53 15.53 0 0 0-5.457-6.598l-.214-.146.214-.146a15.53 15.53 0 0 0 5.457-6.597zm0 39.831.343.788a15.53 15.53 0 0 0 5.457 6.597l.214.146-.214.147a15.53 15.53 0 0 0-5.457 6.597l-.343.787-.344-.787a15.53 15.53 0 0 0-5.457-6.597l-.214-.147.214-.146a15.53 15.53 0 0 0 5.457-6.597zm0-19.915.343.787a15.53 15.53 0 0 0 5.457 6.598l.214.146-.214.146a15.53 15.53 0 0 0-5.457 6.597l-.343.788-.344-.788a15.53 15.53 0 0 0-5.457-6.597l-.214-.146.214-.147a15.53 15.53 0 0 0 5.457-6.597zm0-39.831.343.787a15.53 15.53 0 0 0 5.457 6.597l.214.146-.214.147a15.53 15.53 0 0 0-5.456 6.597l-.344.787-.344-.787a15.53 15.53 0 0 0-5.457-6.597l-.214-.147.214-.146a15.53 15.53 0 0 0 5.457-6.597zm31.966 19.915.344.787a15.53 15.53 0 0 0 5.457 6.598l.214.146-.214.147a15.53 15.53 0 0 0-5.457 6.597l-.344.787-.344-.787a15.53 15.53 0 0 0-5.456-6.598l-.214-.146.214-.146a15.53 15.53 0 0 0 5.457-6.598zm0 39.831.344.788a15.53 15.53 0 0 0 5.457 6.597l.214.146-.214.147a15.53 15.53 0 0 0-5.457 6.597l-.344.787-.344-.787a15.53 15.53 0 0 0-5.456-6.597l-.214-.147.214-.146a15.53 15.53 0 0 0 5.457-6.597zm0-19.915.344.787a15.53 15.53 0 0 0 5.457 6.598l.214.146-.214.146a15.53 15.53 0 0 0-5.457 6.597l-.344.788-.344-.788a15.53 15.53 0 0 0-5.456-6.597l-.214-.146.214-.147a15.53 15.53 0 0 0 5.457-6.597zm0-39.831.344.787a15.53 15.53 0 0 0 5.457 6.597l.214.146-.214.147a15.53 15.53 0 0 0-5.457 6.597l-.344.787-.343-.787a15.53 15.53 0 0 0-5.457-6.597l-.213-.147.213-.146a15.53 15.53 0 0 0 5.457-6.597z" fill="#d90000"/></svg>