<svg xmlns="http://www.w3.org/2000/svg" viewBox="0 0 103 160"><path fill="#fff" d="M0 0h103v160H0z"/><path d="M4.915 4.757h4.497v22.887H7.14V6.998H3.546zm8.523 11.451a18.07 18.07 0 0 1 .973-6.666 7.774 7.774 0 0 1 2.746-3.57 6.862 6.862 0 0 1 3.967-1.215 7.026 7.026 0 0 1 4.03 1.223 8.166 8.166 0 0 1 2.856 3.666 16.923 16.923 0 0 1 1.05 6.562 16.986 16.986 0 0 1-1.035 6.533 8.132 8.132 0 0 1-2.855 3.667 7.039 7.039 0 0 1-4.045 1.236 6.85 6.85 0 0 1-3.952-1.2 7.804 7.804 0 0 1-2.747-3.577 17.892 17.892 0 0 1-.988-6.659zm2.163.037a17.126 17.126 0 0 0 .692 5.582 5.93 5.93 0 0 0 2.046 2.868 4.695 4.695 0 0 0 5.71.022 5.837 5.837 0 0 0 2.008-2.867 16.291 16.291 0 0 0 .855-5.604 16.025 16.025 0 0 0-.762-5.389 6.294 6.294 0 0 0-2.108-3.069 4.67 4.67 0 0 0-5.703 0 5.975 5.975 0 0 0-2.038 2.86 17.008 17.008 0 0 0-.7 5.597zm-.298 34.515-.484-1.108a21.84 21.84 0 0 0-7.674-9.277l-.3-.206.3-.206a21.84 21.84 0 0 0 7.674-9.277l.484-1.108.483 1.108a21.84 21.84 0 0 0 7.674 9.277l.3.206-.3.206a21.84 21.84 0 0 0-7.674 9.277zm82.782 104.483h-4.497v-22.887h2.272v20.646h3.594zm-8.523-11.451a18.07 18.07 0 0 1-.973 6.666 7.774 7.774 0 0 1-2.746 3.57 6.862 6.862 0 0 1-3.967 1.215 7.026 7.026 0 0 1-4.03-1.223 8.166 8.166 0 0 1-2.855-3.666 21.084 21.084 0 0 1-.016-13.095 8.132 8.132 0 0 1 2.855-3.667 7.039 7.039 0 0 1 4.045-1.236 6.85 6.85 0 0 1 3.952 1.2 7.804 7.804 0 0 1 2.746 3.577 17.892 17.892 0 0 1 .989 6.659zm-2.163-.037a17.126 17.126 0 0 0-.692-5.583 5.93 5.93 0 0 0-2.046-2.867 4.695 4.695 0 0 0-5.71-.022 5.837 5.837 0 0 0-2.007 2.867 16.291 16.291 0 0 0-.856 5.605 16.025 16.025 0 0 0 .762 5.388 6.294 6.294 0 0 0 2.108 3.07 4.67 4.67 0 0 0 5.703 0 5.975 5.975 0 0 0 2.038-2.86 17.008 17.008 0 0 0 .7-5.598zm.298-34.515.484 1.108a21.84 21.84 0 0 0 7.673 9.277l.3.206-.3.206a21.84 21.84 0 0 0-7.673 9.277l-.484 1.108-.483-1.108a21.84 21.84 0 0 0-7.674-9.277l-.3-.206.3-.206a21.84 21.84 0 0 0 7.674-9.277zm-52.18-50.086.343.787a15.531 15.531 0 0 0 5.457 6.598l.214.146-.214.146a15.53 15.53 0 0 0-5.457 6.598l-.343.787-.344-.787a15.53 15.53 0 0 0-5.457-6.598l-.214-.146.214-.146a15.531 15.531 0 0 0 5.457-6.598zm0-26.516.343.787a15.53 15.53 0 0 0 5.457 6.598l.214.146-.214.146a15.53 15.53 0 0 0-5.457 6.598l-.343.787-.344-.787a15.53 15.53 0 0 0-5.457-6.598l-.214-.146.214-.146a15.53 15.53 0 0 0 5.457-6.598zM51.5 99.124l.344.788a15.53 15.53 0 0 0 5.457 6.597l.213.146-.213.147a15.53 15.53 0 0 0-5.457 6.597l-.344.787-.344-.787a15.53 15.53 0 0 0-5.457-6.597l-.213-.147.213-.146a15.53 15.53 0 0 0 5.457-6.597zm0-53.228.344.787a15.53 15.53 0 0 0 5.457 6.598l.213.146-.213.146a15.53 15.53 0 0 0-5.457 6.598l-.344.787-.344-.787a15.53 15.53 0 0 0-5.457-6.598l-.213-.146.213-.146a15.53 15.53 0 0 0 5.457-6.598zM35.517 85.949l.343.787a15.53 15.53 0 0 0 5.457 6.597l.214.147-.214.146a15.53 15.53 0 0 0-5.457 6.597l-.343.788-.344-.788a15.53 15.53 0 0 0-5.457-6.597l-.214-.146.214-.147a15.53 15.53 0 0 0 5.457-6.597zm0 26.351.343.787a15.53 15.53 0 0 0 5.457 6.598l.214.146-.214.146a15.53 15.53 0 0 0-5.457 6.598l-.343.787-.344-.787a15.53 15.53 0 0 0-5.457-6.598l-.214-.146.214-.146a15.53 15.53 0 0 0 5.457-6.598zm31.966-53.146.344.787a15.531 15.531 0 0 0 5.457 6.598l.214.146-.214.146a15.53 15.53 0 0 0-5.457 6.598l-.344.787-.344-.787a15.53 15.53 0 0 0-5.456-6.598l-.214-.146.214-.146a15.531 15.531 0 0 0 5.457-6.598zm0-26.516.344.787a15.53 15.53 0 0 0 5.457 6.598l.214.146-.214.146a15.53 15.53 0 0 0-5.457 6.598l-.344.787-.344-.787a15.53 15.53 0 0 0-5.456-6.598l-.214-.146.214-.146a15.53 15.53 0 0 0 5.457-6.598zm0 53.311.344.787a15.53 15.53 0 0 0 5.457 6.597l.214.147-.214.146a15.53 15.53 0 0 0-5.457 6.597l-.344.788-.344-.788a15.53 15.53 0 0 0-5.456-6.597l-.214-.146.214-.147a15.53 15.53 0 0 0 5.457-6.597zm0 26.351.344.787a15.53 15.53 0 0 0 5.457 6.598l.214.146-.214.146a15.53 15.53 0 0 0-5.457 6.598l-.344.787-.344-.787a15.53 15.53 0 0 0-5.456-6.598l-.214-.146.214-.146a15.53 15.53 0 0 0 5.457-6.598z" fill="#d90000"/></svg>