<svg xmlns="http://www.w3.org/2000/svg" viewBox="0 0 103 160"><defs><style>.cls-2{fill:#d90000}</style></defs><g id="HEARTS"><path fill="#fff" d="M0 0h103v160H0z"/><path class="cls-2" d="M5.012 4.758H9.51v22.886H7.237V6.998H3.643zm10.576 5.599h-2.222a7.342 7.342 0 0 1 2.326-4.148 6.09 6.09 0 0 1 4.06-1.452 6.708 6.708 0 0 1 3.177.778 5.755 5.755 0 0 1 2.281 2.096 5.2 5.2 0 0 1 .807 2.755 4.996 4.996 0 0 1-2.8 4.46 6.35 6.35 0 0 1 2.578 1.866 5.965 5.965 0 0 1 1.422 3.881 6.925 6.925 0 0 1-.978 3.533 6.782 6.782 0 0 1-2.666 2.6 7.776 7.776 0 0 1-3.778.919 6.937 6.937 0 0 1-4.695-1.623 7.94 7.94 0 0 1-2.459-4.762h2.133a6.184 6.184 0 0 0 1.615 3.066 4.976 4.976 0 0 0 3.437 1.2 5.176 5.176 0 0 0 3.807-1.422 4.542 4.542 0 0 0 1.437-3.333 4.313 4.313 0 0 0-.719-2.385 4.525 4.525 0 0 0-1.926-1.674 10.688 10.688 0 0 0-3.74-.696v-2a6.862 6.862 0 0 0 2.725-.526 3.973 3.973 0 0 0 1.785-1.34 3.091 3.091 0 0 0 .556-1.778 3.227 3.227 0 0 0-1.134-2.46 4.083 4.083 0 0 0-2.866-1.036 3.848 3.848 0 0 0-2.43.792 5.98 5.98 0 0 0-1.733 2.689zm8.009 22.538a5.542 5.542 0 0 0-7.813 0l-.53.53-.53-.53A5.525 5.525 0 0 0 6.91 40.71l.53.53 7.813 7.813 8.344-8.343a5.54 5.54 0 0 0 0-7.815zm74.391 122.348H93.49v-22.887h2.272v20.646h3.594zm-10.576-5.6h2.222a7.342 7.342 0 0 1-2.326 4.148 6.09 6.09 0 0 1-4.06 1.452 6.708 6.708 0 0 1-3.177-.778 5.755 5.755 0 0 1-2.28-2.096 5.2 5.2 0 0 1-.808-2.756 4.996 4.996 0 0 1 2.8-4.458 6.35 6.35 0 0 1-2.578-1.867 5.965 5.965 0 0 1-1.422-3.881 6.925 6.925 0 0 1 .978-3.533 6.782 6.782 0 0 1 2.666-2.6 7.776 7.776 0 0 1 3.778-.919 6.937 6.937 0 0 1 4.695 1.623 7.94 7.94 0 0 1 2.459 4.762h-2.133a6.184 6.184 0 0 0-1.614-3.066 4.976 4.976 0 0 0-3.437-1.2 5.176 5.176 0 0 0-3.807 1.422 4.542 4.542 0 0 0-1.437 3.333 4.313 4.313 0 0 0 .718 2.385 4.525 4.525 0 0 0 1.926 1.674 10.688 10.688 0 0 0 3.74.696v2a6.862 6.862 0 0 0-2.726.526 3.973 3.973 0 0 0-1.785 1.34 3.091 3.091 0 0 0-.555 1.778 3.227 3.227 0 0 0 1.133 2.46 4.083 4.083 0 0 0 2.866 1.036 3.848 3.848 0 0 0 2.43-.792 5.98 5.98 0 0 0 1.734-2.689zm-8.009-22.538a5.542 5.542 0 0 0 7.813 0l.53-.53.53.53a5.525 5.525 0 0 0 7.814-7.815l-.53-.53-7.813-7.813-8.344 8.343a5.54 5.54 0 0 0 0 7.815zM57.29 74.932a3.846 3.846 0 0 0-5.422 0l-.368.368-.368-.368a3.834 3.834 0 0 0-5.422 5.423l.368.368 5.422 5.422 5.79-5.79a3.845 3.845 0 0 0 0-5.423zM41.306 45.059a3.846 3.846 0 0 0-5.421 0l-.368.368-.368-.368a3.834 3.834 0 0 0-5.422 5.423l.368.368 5.422 5.422 5.79-5.79a3.845 3.845 0 0 0 0-5.423zm0 19.915a3.846 3.846 0 0 0-5.421 0l-.368.368-.368-.368a3.834 3.834 0 0 0-5.422 5.423l.368.368 5.422 5.422 5.79-5.79a3.845 3.845 0 0 0 0-5.423zM29.727 114.9a3.846 3.846 0 0 0 5.422 0l.368-.368.368.368a3.834 3.834 0 1 0 5.422-5.423l-.368-.368-5.422-5.422-5.79 5.79a3.845 3.845 0 0 0 0 5.423zm0-19.915a3.846 3.846 0 0 0 5.422 0l.368-.368.368.368a3.834 3.834 0 1 0 5.422-5.423l-.368-.368-5.422-5.422-5.79 5.79a3.845 3.845 0 0 0 0 5.423zm43.546-49.926a3.846 3.846 0 0 0-5.422 0l-.368.368-.368-.368a3.834 3.834 0 1 0-5.422 5.423l.369.368 5.421 5.422 5.79-5.79a3.845 3.845 0 0 0 0-5.423zm0 19.915a3.846 3.846 0 0 0-5.422 0l-.368.368-.368-.368a3.834 3.834 0 0 0-5.422 5.423l.369.368 5.421 5.422 5.79-5.79a3.845 3.845 0 0 0 0-5.423zM61.694 114.9a3.846 3.846 0 0 0 5.421 0l.368-.368.368.368a3.834 3.834 0 1 0 5.422-5.423l-.368-.368-5.422-5.422-5.79 5.79a3.845 3.845 0 0 0 0 5.423zm0-19.915a3.846 3.846 0 0 0 5.421 0l.368-.368.368.368a3.834 3.834 0 1 0 5.422-5.423l-.368-.368-5.422-5.422-5.79 5.79a3.845 3.845 0 0 0 0 5.423zM57.29 35.1a3.846 3.846 0 0 0-5.422 0l-.368.369-.368-.368a3.834 3.834 0 1 0-5.422 5.423l.368.368 5.422 5.422 5.79-5.79a3.845 3.845 0 0 0 0-5.423zm0 19.916a3.846 3.846 0 0 0-5.422 0l-.368.368-.368-.368a3.834 3.834 0 0 0-5.422 5.423l.368.368L51.5 66.23l5.79-5.79a3.845 3.845 0 0 0 0-5.423zm-11.58 69.842a3.846 3.846 0 0 0 5.422 0l.368-.368.368.368a3.834 3.834 0 0 0 5.422-5.423l-.368-.368-5.422-5.422-5.79 5.79a3.845 3.845 0 0 0 0 5.423z"/><path class="cls-2" d="M57.29 74.932a3.846 3.846 0 0 0-5.422 0l-.368.368-.368-.368a3.834 3.834 0 0 0-5.422 5.423l.368.368 5.422 5.422 5.79-5.79a3.845 3.845 0 0 0 0-5.423zm-11.58 30.01a3.846 3.846 0 0 0 5.422 0l.368-.368.368.368a3.834 3.834 0 1 0 5.422-5.423l-.368-.368L51.5 93.73l-5.79 5.79a3.845 3.845 0 0 0 0 5.422z"/></g></svg>