<svg xmlns="http://www.w3.org/2000/svg" viewBox="0 0 103 160"><path fill="#fff" d="M0 0h103v160H0z"/><path d="M5.985 4.757h4.497v22.887H8.21V6.998H4.616zm12.055 0h4.497v22.887h-2.272V6.998h-3.594zm5.557 28.138a5.542 5.542 0 0 0-7.813 0l-.53.53-.53-.53A5.525 5.525 0 0 0 6.91 40.71l.53.53 7.813 7.813 8.344-8.343a5.54 5.54 0 0 0 0-7.815zm73.418 122.348h-4.497v-22.887h2.272v20.646h3.594zm-12.055 0h-4.497v-22.887h2.272v20.646h3.594zm-5.557-28.138a5.542 5.542 0 0 0 7.813 0l.53-.53.53.53a5.525 5.525 0 0 0 7.814-7.815l-.53-.53-7.813-7.813-8.344 8.343a5.54 5.54 0 0 0 0 7.815zM41.306 35.121a3.846 3.846 0 0 0-5.421 0l-.368.368-.368-.368a3.834 3.834 0 0 0-5.422 5.423l.368.369 5.422 5.421 5.79-5.79a3.845 3.845 0 0 0 0-5.423zm0 26.517a3.846 3.846 0 0 0-5.421 0l-.368.368-.368-.368a3.834 3.834 0 0 0-5.422 5.423l.368.368 5.422 5.422 5.79-5.79a3.845 3.845 0 0 0 0-5.424zM57.29 48.38a3.846 3.846 0 0 0-5.422 0l-.368.367-.368-.368a3.834 3.834 0 0 0-5.422 5.424l.368.368 5.422 5.421 5.79-5.79a3.845 3.845 0 0 0 0-5.423zm0 26.573a3.846 3.846 0 0 0-5.422 0l-.368.367-.368-.367a3.834 3.834 0 0 0-5.422 5.422l.368.369 5.422 5.421 5.79-5.79a3.845 3.845 0 0 0 0-5.422zm-11.58 36.75a3.846 3.846 0 0 0 5.422 0l.368-.368.368.368a3.834 3.834 0 0 0 5.422-5.423l-.368-.368-5.422-5.422-5.79 5.79a3.845 3.845 0 0 0 0 5.423zm-15.983 13.176a3.846 3.846 0 0 0 5.422 0l.368-.368.368.368a3.834 3.834 0 1 0 5.422-5.423l-.368-.368-5.422-5.422-5.79 5.79a3.845 3.845 0 0 0 0 5.423zm0-26.352a3.846 3.846 0 0 0 5.422 0l.368-.368.368.368a3.834 3.834 0 0 0 5.422-5.423l-.368-.368-5.422-5.422-5.79 5.79a3.845 3.845 0 0 0 0 5.423zm43.546-63.406a3.846 3.846 0 0 0-5.422 0l-.368.368-.368-.368a3.834 3.834 0 1 0-5.422 5.423l.369.369 5.421 5.421 5.79-5.79a3.845 3.845 0 0 0 0-5.423zm-11.579 89.758a3.846 3.846 0 0 0 5.421 0l.368-.368.368.368a3.834 3.834 0 1 0 5.422-5.423l-.368-.368-5.422-5.422-5.79 5.79a3.845 3.845 0 0 0 0 5.423zm11.579-63.241a3.846 3.846 0 0 0-5.422 0l-.368.368-.368-.368a3.834 3.834 0 0 0-5.422 5.423l.369.368 5.421 5.422 5.79-5.79a3.845 3.845 0 0 0 0-5.424zM61.694 98.527a3.846 3.846 0 0 0 5.421 0l.368-.368.368.368a3.834 3.834 0 0 0 5.422-5.423l-.368-.368-5.422-5.422-5.79 5.79a3.845 3.845 0 0 0 0 5.423z" fill="#d90000"/></svg>