<svg xmlns="http://www.w3.org/2000/svg" viewBox="0 0 103 160"><path fill="#fff" d="M0 0h103v160H0z"/><path d="M5.029 4.758h4.496v22.886H7.253V6.998H3.66zM15.036 12.3h-2.141a7.67 7.67 0 0 1 2.208-5.423 7.1 7.1 0 0 1 5.229-2.12 6.654 6.654 0 0 1 6.89 6.681 7.31 7.31 0 0 1-.909 3.561 25.593 25.593 0 0 1-3.526 4.501l-5.561 5.989h10.3v2.155H12.364l8.529-9.218a27.418 27.418 0 0 0 3.377-4.124 5.546 5.546 0 0 0 .782-2.833 4.36 4.36 0 0 0-1.404-3.242 4.755 4.755 0 0 0-3.438-1.36 4.815 4.815 0 0 0-3.559 1.427 6.13 6.13 0 0 0-1.615 4.006zm8.577 20.595a5.542 5.542 0 0 0-7.813 0l-.53.53-.53-.53a5.525 5.525 0 0 0-7.814 7.815l.53.53 7.814 7.814 8.343-8.344a5.54 5.54 0 0 0 0-7.815zm74.359 122.348h-4.497v-22.887h2.272v20.646h3.594zM87.965 147.7h2.14a7.67 7.67 0 0 1-2.208 5.423 7.1 7.1 0 0 1-5.229 2.12 6.654 6.654 0 0 1-6.89-6.681 7.31 7.31 0 0 1 .909-3.561 25.593 25.593 0 0 1 3.526-4.501l5.561-5.989h-10.3v-2.155h15.162l-8.529 9.218a27.418 27.418 0 0 0-3.377 4.124 5.546 5.546 0 0 0-.782 2.833 4.36 4.36 0 0 0 1.404 3.242 4.755 4.755 0 0 0 3.438 1.36 4.815 4.815 0 0 0 3.559-1.426 6.13 6.13 0 0 0 1.615-4.007zm-8.579-20.595a5.542 5.542 0 0 0 7.814 0l.53-.53.53.53a5.525 5.525 0 0 0 7.813-7.815l-.53-.53-7.813-7.814-8.344 8.344a5.54 5.54 0 0 0 0 7.815zm-38.08-91.984a3.846 3.846 0 0 0-5.421 0l-.368.368-.368-.368a3.834 3.834 0 0 0-5.422 5.423l.368.369 5.422 5.421 5.79-5.79a3.845 3.845 0 0 0 0-5.423zm0 26.517a3.846 3.846 0 0 0-5.421 0l-.368.368-.368-.368a3.834 3.834 0 0 0-5.422 5.423l.368.368 5.422 5.422 5.79-5.79a3.845 3.845 0 0 0 0-5.424zm-11.579 63.241a3.846 3.846 0 0 0 5.422 0l.368-.368.368.368a3.834 3.834 0 1 0 5.422-5.423l-.368-.368-5.422-5.422-5.79 5.79a3.845 3.845 0 0 0 0 5.423zm0-26.352a3.846 3.846 0 0 0 5.422 0l.368-.368.368.368a3.834 3.834 0 0 0 5.422-5.423l-.368-.368-5.422-5.422-5.79 5.79a3.845 3.845 0 0 0 0 5.423zm43.546-63.406a3.846 3.846 0 0 0-5.422 0l-.368.368-.368-.368a3.834 3.834 0 1 0-5.422 5.423l.369.369 5.421 5.421 5.79-5.79a3.845 3.845 0 0 0 0-5.423zm-11.579 89.758a3.846 3.846 0 0 0 5.421 0l.368-.368.368.368a3.834 3.834 0 1 0 5.422-5.423l-.368-.368-5.422-5.422-5.79 5.79a3.845 3.845 0 0 0 0 5.423zm11.579-63.241a3.846 3.846 0 0 0-5.422 0l-.368.368-.368-.368a3.834 3.834 0 0 0-5.422 5.423l.369.368 5.421 5.422 5.79-5.79a3.845 3.845 0 0 0 0-5.424zM61.694 98.527a3.846 3.846 0 0 0 5.421 0l.368-.368.368.368a3.834 3.834 0 0 0 5.422-5.423l-.368-.368-5.422-5.422-5.79 5.79a3.845 3.845 0 0 0 0 5.423zM57.29 35.121a3.846 3.846 0 0 0-5.422 0l-.368.368-.368-.368a3.834 3.834 0 0 0-5.422 5.423l.368.369 5.422 5.421 5.79-5.79a3.845 3.845 0 0 0 0-5.423zm-11.58 89.758a3.846 3.846 0 0 0 5.422 0l.368-.368.368.368a3.834 3.834 0 0 0 5.422-5.423l-.368-.368-5.422-5.422-5.79 5.79a3.845 3.845 0 0 0 0 5.423zm11.58-63.241a3.846 3.846 0 0 0-5.422 0l-.368.368-.368-.368a3.834 3.834 0 0 0-5.422 5.423l.368.368L51.5 72.85l5.79-5.79a3.845 3.845 0 0 0 0-5.422zM45.71 98.527a3.846 3.846 0 0 0 5.422 0l.368-.368.368.368a3.834 3.834 0 0 0 5.422-5.423l-.368-.368-5.422-5.422-5.79 5.79a3.845 3.845 0 0 0 0 5.423z" fill="#d90000"/></svg>