<svg xmlns="http://www.w3.org/2000/svg" viewBox="0 0 103 160"><path fill="#fff" d="M0 0h103v160H0z"/><path d="M5.012 4.758H9.51v22.886H7.237V6.998H3.643zm20.64-.001v2.125H17.72l-1.118 6.089a9.38 9.38 0 0 1 2.623-.428 6.703 6.703 0 0 1 5.026 2.042 7.206 7.206 0 0 1 1.978 5.228 8.194 8.194 0 0 1-1.017 4.037 7.095 7.095 0 0 1-2.755 2.815 8.04 8.04 0 0 1-4.014.98 6.645 6.645 0 0 1-4.583-1.663 6.803 6.803 0 0 1-2.231-4.302h2.291a5.03 5.03 0 0 0 .873 2.094 4.445 4.445 0 0 0 1.639 1.298 4.89 4.89 0 0 0 2.147.493 5.022 5.022 0 0 0 3.78-1.667 5.825 5.825 0 0 0 1.578-4.168 4.93 4.93 0 0 0-1.426-3.668 5.188 5.188 0 0 0-3.81-1.409 12.618 12.618 0 0 0-4.78 1.2l2.064-11.096zm-2.055 28.138a5.542 5.542 0 0 0-7.813 0l-.53.53-.53-.53A5.525 5.525 0 0 0 6.91 40.71l.53.53 7.813 7.813 8.344-8.343a5.54 5.54 0 0 0 0-7.815zm74.391 122.348H93.49v-22.887h2.272v20.646h3.594zm-20.64 0v-2.125h7.932l1.118-6.089a9.38 9.38 0 0 1-2.623.428 6.703 6.703 0 0 1-5.026-2.041 7.206 7.206 0 0 1-1.978-5.229 8.194 8.194 0 0 1 1.017-4.037 7.095 7.095 0 0 1 2.754-2.815 8.04 8.04 0 0 1 4.015-.98 6.645 6.645 0 0 1 4.583 1.663 6.803 6.803 0 0 1 2.231 4.302H89.08a5.03 5.03 0 0 0-.873-2.094 4.445 4.445 0 0 0-1.639-1.298 4.89 4.89 0 0 0-2.147-.493 5.022 5.022 0 0 0-3.78 1.667 5.825 5.825 0 0 0-1.578 4.168 4.93 4.93 0 0 0 1.427 3.668 5.188 5.188 0 0 0 3.81 1.41 12.618 12.618 0 0 0 4.78-1.2l-2.064 11.095zm2.055-28.138a5.542 5.542 0 0 0 7.813 0l.53-.53.53.53a5.525 5.525 0 0 0 7.814-7.815l-.53-.53-7.813-7.813-8.344 8.343a5.54 5.54 0 0 0 0 7.815zm-6.13-91.984a3.846 3.846 0 0 0-5.422 0l-.368.368-.368-.368a3.834 3.834 0 1 0-5.422 5.423l.369.369 5.421 5.421 5.79-5.79a3.845 3.845 0 0 0 0-5.423zm0 19.916a3.846 3.846 0 0 0-5.422 0l-.368.368-.368-.368a3.834 3.834 0 1 0-5.422 5.423l.368.368 5.422 5.422 5.79-5.79a3.845 3.845 0 0 0 0-5.423zm-11.579 69.842a3.846 3.846 0 0 0 5.421 0l.368-.368.368.368a3.834 3.834 0 1 0 5.422-5.423l-.368-.368-5.422-5.422-5.79 5.79a3.845 3.845 0 0 0 0 5.423zm11.579-49.926a3.846 3.846 0 0 0-5.422 0l-.368.367-.368-.367a3.834 3.834 0 1 0-5.422 5.422l.369.369 5.421 5.422 5.79-5.79a3.845 3.845 0 0 0 0-5.424zm-11.579 30.01a3.846 3.846 0 0 0 5.421 0l.368-.368.368.368a3.834 3.834 0 1 0 5.422-5.423l-.368-.368-5.422-5.422-5.79 5.79a3.845 3.845 0 0 0 0 5.423zM41.306 35.121a3.846 3.846 0 0 0-5.421 0l-.368.368-.368-.368a3.834 3.834 0 0 0-5.422 5.423l.368.369 5.422 5.421 5.79-5.79a3.845 3.845 0 0 0 0-5.423zm0 19.916a3.846 3.846 0 0 0-5.421 0l-.368.368-.368-.368a3.834 3.834 0 0 0-5.422 5.423l.368.368 5.422 5.422 5.79-5.79a3.845 3.845 0 0 0 0-5.423zm-11.579 69.842a3.846 3.846 0 0 0 5.422 0l.368-.368.368.368a3.834 3.834 0 1 0 5.422-5.423l-.368-.368-5.422-5.422-5.79 5.79a3.845 3.845 0 0 0 0 5.423zm11.579-49.926a3.846 3.846 0 0 0-5.421 0l-.368.367-.368-.367a3.834 3.834 0 0 0-5.422 5.422l.368.369 5.422 5.422 5.79-5.79a3.845 3.845 0 0 0 0-5.424zm-11.579 30.01a3.846 3.846 0 0 0 5.422 0l.368-.368.368.368a3.834 3.834 0 1 0 5.422-5.423l-.368-.368-5.422-5.422-5.79 5.79a3.845 3.845 0 0 0 0 5.423zM57.29 35.121a3.846 3.846 0 0 0-5.422 0l-.368.368-.368-.368a3.834 3.834 0 0 0-5.422 5.423l.368.369 5.422 5.421 5.79-5.79a3.845 3.845 0 0 0 0-5.423zm0 19.916a3.846 3.846 0 0 0-5.422 0l-.368.368-.368-.368a3.834 3.834 0 0 0-5.422 5.423l.368.368L51.5 66.25l5.79-5.79a3.845 3.845 0 0 0 0-5.423zm-11.58 69.842a3.846 3.846 0 0 0 5.422 0l.368-.368.368.368a3.834 3.834 0 0 0 5.422-5.423l-.368-.368-5.422-5.422-5.79 5.79a3.845 3.845 0 0 0 0 5.423zm11.58-49.926a3.846 3.846 0 0 0-5.422 0l-.368.367-.368-.367a3.834 3.834 0 0 0-5.422 5.422l.368.369 5.422 5.421 5.79-5.79a3.845 3.845 0 0 0 0-5.422zm-11.58 30.01a3.846 3.846 0 0 0 5.422 0l.368-.368.368.368a3.834 3.834 0 1 0 5.422-5.423l-.368-.368L51.5 93.75l-5.79 5.79a3.845 3.845 0 0 0 0 5.423z" fill="#d90000"/></svg>