<svg id="JOKERS" xmlns="http://www.w3.org/2000/svg" viewBox="0 0 103 160"><defs><style>.cls-2{fill:#ffc614}.cls-3{fill:#f49908}.cls-4{fill:#f9c19b}.cls-5{fill:#383838}</style></defs><path fill="#fff" d="M0 0h103v160H0z"/><path d="M87.225 116.97a2.42 2.42 0 0 0-1.508-1.09 2.498 2.498 0 0 0-.563-.065 2.432 2.432 0 0 0-2.363 1.87 2.374 2.374 0 0 0 .019 1.11 6.52 6.52 0 0 1-1.96.317 5.092 5.092 0 0 1-2.928-.877 4.213 4.213 0 0 1-1.51-1.92 3.2 3.2 0 0 1-.55-2.931c.761-2.068 4.031-3.037 4.063-3.046a.2.2 0 0 0-.032-.392 12.166 12.166 0 0 0-1.319-.077 5.75 5.75 0 0 0-3.45.947 38.204 38.204 0 0 1 .165-7.277c.15-.925.378-1.853.613-2.807.087-.355.174-.71.257-1.066a43.117 43.117 0 0 0 1.028-12.543 4.398 4.398 0 0 0-.63-2.339 3.34 3.34 0 0 0-2.67-1.227 4.428 4.428 0 0 0-.254-.007 10.577 10.577 0 0 0-1.651.174l-.222.035c-.25.039-.5.078-.75.108a13.454 13.454 0 0 1-1.719.1c-.98 0-1.98-.079-2.968-.158l-.126-.01-.051.035a.098.098 0 0 0-.053-.04 6.256 6.256 0 0 1-3.718-2.909 1.989 1.989 0 0 0 .846-1.385 2.936 2.936 0 0 0-.374-1.728.766.766 0 0 0-.677-.395 19.593 19.593 0 0 0-2.267-12.819.513.513 0 0 0 .054.005l.172.003a11.098 11.098 0 0 0 2.305-.244.234.234 0 0 0 .06.022 31 31 0 0 0 2.121.077 40.506 40.506 0 0 0 4.825-.361 6.115 6.115 0 0 0 2.215-.564 6.154 6.154 0 0 0 2.158-2.344 71.272 71.272 0 0 0 5.814-11.418l.007.003.125.02a2.74 2.74 0 0 0 .297.02.977.977 0 0 0 .458-.099 1.253 1.253 0 0 0 .379-.337 6.167 6.167 0 0 0 1.271-2.671c.082-.402.025-.916-.408-1.04l-.973-.255a2.99 2.99 0 0 0 1.654-.911 12.457 12.457 0 0 0 1.624-2.092c.048-.048 1.18-1.22.615-3.738a24.007 24.007 0 0 0 .927-2.49.454.454 0 0 0-.44-.564.567.567 0 0 0-.174.033 1.003 1.003 0 0 0-.14.06c.075-.277.148-.56.208-.825.033-.152.063-.283.09-.388a.549.549 0 0 0-.528-.683.686.686 0 0 0-.27.067 1.625 1.625 0 0 0-.857.907 4.827 4.827 0 0 0 .007-1.208.598.598 0 0 0-.381-.434.568.568 0 0 0-.55.082c-.58.45-.746 1.302-1.076 3l-.105.533a4.602 4.602 0 0 1-1.538 2.595 3.513 3.513 0 0 0-1.111-2.164.839.839 0 0 0-.576-.29c-.006 0-.102.01-.108.012a.71.71 0 0 0-.506.536 2.463 2.463 0 0 0 .03 1.168 3.357 3.357 0 0 1 .084.712 3.296 3.296 0 0 1-.305 1.094l-.062.154a5.198 5.198 0 0 0-.434 1.925 1.734 1.734 0 0 0 .483 1.14l-.086.283a2.658 2.658 0 0 0-.877-.18.873.873 0 0 0-.557.161 2.608 2.608 0 0 0-.704.986 6.87 6.87 0 0 0-.531 1.742 1.936 1.936 0 0 0 .07 1.108 1.746 1.746 0 0 0 .832.788 23.626 23.626 0 0 1-4.002 4.911l-.359.332a13.882 13.882 0 0 0-1.22 1.214 7.104 7.104 0 0 0-1.493 2.975 8.32 8.32 0 0 1-.594.023q-.324 0-.677-.022c-.445-.029-.856-.06-1.243-.09l-.136-.01a32.875 32.875 0 0 0-2.153-.115 5.179 5.179 0 0 0 .204-1.139.715.715 0 0 0 .1.01 1.822 1.822 0 0 0 .415-3.594 1.913 1.913 0 0 0-.42-.048 1.805 1.805 0 0 0-1.624 2.619 5.347 5.347 0 0 1-2.53 1.62 3.53 3.53 0 0 1-.73.07 9.805 9.805 0 0 1-1.321-.122 20.935 20.935 0 0 0-.593-.077 6.154 6.154 0 0 0-.687-.04 3.94 3.94 0 0 0-1.173.167l-.009-.016a4.894 4.894 0 0 1-1.358-3.87 4.696 4.696 0 0 0 .71-2.764 5.682 5.682 0 0 0-.506-1.892l.018-.021c.55-6.302 8.317-6.83 8.99-6.864a2.25 2.25 0 0 0 1.259 1.026 2.303 2.303 0 0 0 .689.106 2.27 2.27 0 1 0-2.066-3.15 20.675 20.675 0 0 0-7.97-1.746 10.831 10.831 0 0 0-2.887.322l-.016.01a22.823 22.823 0 0 0-6.084-2.808 20.504 20.504 0 0 0-5.738-.825 21.851 21.851 0 0 0-12.081 3.806l-.016-.018a2.23 2.23 0 0 0-1.404-.49 2.264 2.264 0 1 0 1.772 3.672 2.218 2.218 0 0 0 .441-1.032 8.857 8.857 0 0 1 2.31-.313 9.404 9.404 0 0 1 3.993.92c-1.653 1.6-1.404 4.616-1.389 4.786-2.228 1.36-7.343 5.086-8.594 11.19a2.212 2.212 0 0 0-1.473.55 2.264 2.264 0 0 0 1.327 3.967q.08.006.16.006a2.27 2.27 0 0 0 2.257-2.106 2.233 2.233 0 0 0-.507-1.572 11.3 11.3 0 0 1 7.98-3.794 9.99 9.99 0 0 1 2.76.398c.414.285 4.106 2.782 6.355 3.012a10.234 10.234 0 0 1 1.449.345c.342.184.449.75.436 1.18a.848.848 0 0 1-.6.687 3.397 3.397 0 0 1-.928.154l-.21.019a5.472 5.472 0 0 0-2.526.923 9.93 9.93 0 0 0-1.49 1.358 18.18 18.18 0 0 1-.705.711 9.444 9.444 0 0 1-5.548 2.504 2.243 2.243 0 0 0-.605-1.028 2.277 2.277 0 0 0-1.611-.625h-.005a2.264 2.264 0 0 0 .053 4.526h.053a2.244 2.244 0 0 0 1.585-.7.798.798 0 0 0 .054-.065 11.976 11.976 0 0 0 3.706 1.017c.551.048 1.175.102 1.799.102.143 0 .29-.008.448-.023a9.347 9.347 0 0 0-1.402 2.018 2.234 2.234 0 0 0-1.34 3.289 2.045 2.045 0 0 0 .166.23 8.759 8.759 0 0 1-1.577 3.592 9.325 9.325 0 0 0-1.01-.058 12.685 12.685 0 0 0-2.463.261c-.58.114-1.165.251-1.745.389a20.41 20.41 0 0 1-3.751.64l-.006.002a1.516 1.516 0 0 0-1.26-1.127 7.439 7.439 0 0 0-.908-.064 9.615 9.615 0 0 0-1.072.078 1.374 1.374 0 0 0-.572.164 2.432 2.432 0 0 0-.787 1.144l-.385-.01a1.74 1.74 0 0 0-.92-.843 4.615 4.615 0 0 0-1.575-.24c-.134 0-.555.016-.555.016-.144.007-.29.014-.434.014a2.24 2.24 0 0 1-.696-.09 3.31 3.31 0 0 1-.647-.319 2.48 2.48 0 0 0-1.173-.418.663.663 0 0 0-.588.304.762.762 0 0 0 .035.736 3.517 3.517 0 0 0 1.671 1.768 4.538 4.538 0 0 1-2.958.589l-.535-.08a16.28 16.28 0 0 0-2.126-.237 1.871 1.871 0 0 0-1.064.255.574.574 0 0 0-.26.49.6.6 0 0 0 .283.506 4.8 4.8 0 0 0 1.13.391 1.661 1.661 0 0 0-1.184.572.547.547 0 0 0 .372.896c.101.009.228.023.423.047.246.029.529.056.814.078a1.646 1.646 0 0 0-.128.148.447.447 0 0 0-.045.45.453.453 0 0 0 .372.267c.289.027.753.04 1.278.04.463 0 .969-.012 1.444-.033a4.933 4.933 0 0 0 2.56.814 2.573 2.573 0 0 0 1.062-.19 13.004 13.004 0 0 0 2.555-.852 3.392 3.392 0 0 0 .889-.6 1.137 1.137 0 0 0 .81.955 7.065 7.065 0 0 0 1.862.25h.075a1.376 1.376 0 0 0 .693-.144 1.415 1.415 0 0 0 .507-.614c.064-.123.118-.25.17-.378l.058-.135a13.279 13.279 0 0 1 2.426-.216 27.538 27.538 0 0 1 3.57.3 25.927 25.927 0 0 0 3.312.28 10.886 10.886 0 0 0 2.415-.255 5.32 5.32 0 0 0 2.489-1.205 7.518 7.518 0 0 0 1.313-1.821c.091-.158.182-.315.274-.468a29.904 29.904 0 0 1 2.404-3.267 27.287 27.287 0 0 0 2.087-2.852 15.665 15.665 0 0 1 1.082 4.948l-.168-.013a.827.827 0 0 0-.75.478c-.746 1.62-.234 2.488.137 2.86a1.252 1.252 0 0 0 .37.24 2.889 2.889 0 0 0-.907 1.617c-.055.189-.112.383-.175.56a12.242 12.242 0 0 0-.375 1.385 11.797 11.797 0 0 1-.355 1.31 5.967 5.967 0 0 1-5.33 3.804 2.256 2.256 0 0 0-3.88-1.359 2.257 2.257 0 0 0 3.144 3.237 4.177 4.177 0 0 0 1.617.717 11.147 11.147 0 0 0 2.653.323 10.218 10.218 0 0 0 4.936-1.27 4.795 4.795 0 0 1-.737 2.354 8.791 8.791 0 0 1-2.334 2.103 2.232 2.232 0 0 0-1.01-.598 2.284 2.284 0 0 0-.573-.074 2.254 2.254 0 1 0 2.18 2.828 2.175 2.175 0 0 0 .055-.462 12.235 12.235 0 0 0 2.923-.383c-2.381 3.835-2.131 6.772-1.736 8.238a12.87 12.87 0 0 0-5.968 4.965c-.253.436-.472.899-.683 1.345a25.95 25.95 0 0 1-.426.873 16.108 16.108 0 0 1-2.65 3.536 3.621 3.621 0 0 0-.61-1.347 3.266 3.266 0 0 0-2.184-1.236.206.206 0 0 0-.175.097.2.2 0 0 0 .005.212 6.455 6.455 0 0 1 .881 3.498 4.355 4.355 0 0 1-2.278.851l-.112.02a3.793 3.793 0 0 0-2.568 1.726 3.039 3.039 0 0 0-.021 3.079 5.259 5.259 0 0 0 .774.901 6.01 6.01 0 0 1 .601.663 5.89 5.89 0 0 1 .858 2.46 12.56 12.56 0 0 0 .334 1.421 6.239 6.239 0 0 0 3.116 3.625 7.77 7.77 0 0 0 3.28.766 5.12 5.12 0 0 0 1.24-.142l.01-.007a2.385 2.385 0 0 0 2.182 1.387 2.44 2.44 0 0 0 2.405-2.887 2.45 2.45 0 0 0-2.394-1.999 2.464 2.464 0 0 0-2.02 1.062 2.326 2.326 0 0 0-.23.447c-1.826-1.315-2.84-2.774-3.005-4.34a5.353 5.353 0 0 1 1.282-3.816.19.19 0 0 0 .035-.095c2.436.155 3.11 1.452 3.116 1.464a.2.2 0 0 0 .181.115l.039-.004a.199.199 0 0 0 .161-.187 4.48 4.48 0 0 0-1.089-3.492 3.589 3.589 0 0 0-1.364-.82c.487-.508 1.026-.978 1.61-1.48.805-.69 1.716-1.474 2.864-2.64a238.848 238.848 0 0 1 5.647-5.535 7.393 7.393 0 0 0 3.328-4.545 17.823 17.823 0 0 1 2.538-3.923 25.042 25.042 0 0 0 4.679-8.931l.176.009c.213.01.426.021.64.021a19.818 19.818 0 0 0 2.933-.216 33.132 33.132 0 0 0 6.573-1.773 14.654 14.654 0 0 0-1.414 6.866 21.132 21.132 0 0 0 .58 3.264c.083.36.166.718.242 1.079a28.11 28.11 0 0 1 .551 7.205 5.239 5.239 0 0 0-1.775-.3 7.952 7.952 0 0 0-1.484.15.2.2 0 0 0-.052.373c.028.015 2.85 1.49 3.088 2.73a.687.687 0 0 1-.173.62c-1.549 1.791-2.066 3.39-1.539 4.753a3.807 3.807 0 0 0 3.31 1.94c.063 0 .126-.002.187-.006l.296-.027a5.124 5.124 0 0 1 .558-.037 2.507 2.507 0 0 1 1.759.674 10.317 10.317 0 0 0 5.54 1.985 5.825 5.825 0 0 0 1.077-.098 5.228 5.228 0 0 0 3.6-2.728 2.423 2.423 0 0 0 2.51-3.655zM26.398 79.508l.001-.002v.002zm33.727-15.245h.004v.003z"/><path class="cls-2" d="M79.488 49.41a.093.093 0 0 1 .057 0c.006.002.007.008.012.011.079.01.157.028.237.037a1.012 1.012 0 0 0 .582-.046.965.965 0 0 0 .285-.26 5.869 5.869 0 0 0 1.209-2.54c.046-.224.056-.62-.192-.692l-1.326-.346-.353.777c.362.057.758.107 1.205.141a.1.1 0 0 1-.008.2h-.007c-4.14-.32-4.576-1.755-4.593-1.815a.1.1 0 0 1 .07-.123.102.102 0 0 1 .123.07.998.998 0 0 0 .21.312.092.092 0 0 1-.004-.041l.27-.89c-.008 0-.015.004-.024 0-.352-.154-.987-.292-1.232-.1a2.348 2.348 0 0 0-.618.878 6.546 6.546 0 0 0-.507 1.665 1.67 1.67 0 0 0 .048.936 1.623 1.623 0 0 0 .835.718.097.097 0 0 1 .075.012.094.094 0 0 1 .03.04l.023.012a12.858 12.858 0 0 0 3.593 1.044z"/><path class="cls-3" d="M65.206 60.648a1.506 1.506 0 0 0 .934 1.805 1.521 1.521 0 0 0 1.916-2.056 1.503 1.503 0 0 0-.12-.166 2.584 2.584 0 0 1-.942.768.338.338 0 0 1 .005.152.348.348 0 0 1-.183.196.345.345 0 0 1-.266.009.35.35 0 1 1 .244-.655c.054.02.084.07.12.112a2.34 2.34 0 0 0 .9-.751 1.486 1.486 0 0 0-.61-.458 1.534 1.534 0 0 0-.534-.097 1.524 1.524 0 0 0-1.424.99c-.018.047-.026.097-.04.146zM43.728 97.195a1.944 1.944 0 0 0-2.376 2.406c.01-.004.019-.012.03-.012l.083.001a3.041 3.041 0 0 0 1.374-.385.41.41 0 0 1-.011-.225.416.416 0 0 1 .193-.254.403.403 0 0 1 .316-.042.416.416 0 0 1 .296.508.419.419 0 0 1-.404.31.433.433 0 0 1-.105-.014.405.405 0 0 1-.18-.11 3.228 3.228 0 0 1-1.477.412l-.055-.001a1.965 1.965 0 0 0 .13.281 1.955 1.955 0 1 0 2.187-2.875zM64.45 42.49a1.953 1.953 0 0 0 2.512-2.288c-.01.003-.017.01-.027.01h-.009a2.984 2.984 0 0 0-1.479.308.406.406 0 0 1 0 .226.415.415 0 0 1-.206.244.416.416 0 0 1-.319.026.417.417 0 0 1-.27-.525.416.416 0 0 1 .525-.27.404.404 0 0 1 .175.12 3.203 3.203 0 0 1 1.56-.329 1.994 1.994 0 0 0-.115-.291 1.964 1.964 0 0 0-3.617.297 1.969 1.969 0 0 0 1.27 2.472zm-9.103 21.079c.004-.013.015-.019.023-.028a1.95 1.95 0 0 0-1.714-1.822 1.967 1.967 0 0 0-.24-.015 1.954 1.954 0 1 0 .771 3.746.092.092 0 0 1-.017-.033 2.989 2.989 0 0 0-.585-1.398.41.41 0 0 1-.163.056.45.45 0 0 1-.052-.002.416.416 0 1 1 .463-.364.407.407 0 0 1-.084.195 3.187 3.187 0 0 1 .615 1.462 1.832 1.832 0 0 0 1.003-1.712.093.093 0 0 1-.02-.085zM28.004 38.708a1.96 1.96 0 0 0-3.105 2.07 3.203 3.203 0 0 1 1.479-.593.413.413 0 1 1 .454.477.396.396 0 0 1-.05.003.41.41 0 0 1-.258-.09.403.403 0 0 1-.126-.189 3 3 0 0 0-1.4.567.092.092 0 0 1-.033.012 1.943 1.943 0 0 0 .599.822 1.965 1.965 0 0 0 2.44-3.079z"/><path class="cls-4" d="m79.804 46.298.454-.998a.89.89 0 0 1-.646-.32.1.1 0 0 1 .027-.138.099.099 0 0 1 .139.027.723.723 0 0 0 .543.243 2.532 2.532 0 0 0 1.9-.856 12.742 12.742 0 0 0 1.614-2.078c.026-.03 1.191-1.228.485-3.8a.278.278 0 0 0-.175-.188.24.24 0 0 0-.23.03 1.198 1.198 0 0 0-.507.905c-.025.26-.036.497-.048.725a2.942 2.942 0 0 1-.355 1.581.1.1 0 0 1-.167-.11 2.794 2.794 0 0 0 .323-1.48c.01-.23.022-.47.048-.736a1.477 1.477 0 0 1 .14-.493 13.114 13.114 0 0 1-.834 1.165.101.101 0 0 1-.142.014.1.1 0 0 1-.013-.14 11.116 11.116 0 0 0 1.733-2.977 1.587 1.587 0 0 1 .328-.564c.138-.421.248-.906.335-1.298.037-.167.07-.313.1-.425a.245.245 0 0 0-.076-.246.237.237 0 0 0-.25-.047l-.069.027a1.352 1.352 0 0 0-.74.85 24.87 24.87 0 0 1-1.58 3.595.1.1 0 0 1-.087.051.105.105 0 0 1-.048-.011.1.1 0 0 1-.04-.136 28.49 28.49 0 0 0 1.033-2.159.1.1 0 0 1-.015-.072 10.073 10.073 0 0 0 .222-2.631.3.3 0 0 0-.193-.217.278.278 0 0 0-.262.037c-.491.38-.65 1.196-.966 2.82l-.104.534A5.154 5.154 0 0 1 79 40.275a.087.087 0 0 1-.041.01.1.1 0 0 1-.041-.19 4.317 4.317 0 0 0 .684-.43.1.1 0 0 1-.025-.07 3.06 3.06 0 0 0-1.05-2.226c-.163-.157-.302-.222-.416-.199a.44.44 0 0 0-.277.328 2.193 2.193 0 0 0 .037 1.028 3.624 3.624 0 0 1 .09.776 3.518 3.518 0 0 1-.328 1.197l-.062.154a4.914 4.914 0 0 0-.412 1.81 2.005 2.005 0 0 0 .88 1.427.1.1 0 0 1-.067.174.097.097 0 0 1-.067-.025 7.732 7.732 0 0 1-.295-.282l-.425 1.395a.1.1 0 0 1-.096.07h-.005a5.136 5.136 0 0 0 2.717 1.096c.002-.006-.001-.013.002-.02z"/><path class="cls-4" d="M83.8 38.057a.445.445 0 0 1 .412-.055.472.472 0 0 1 .28.288 21.315 21.315 0 0 0 .82-2.217.156.156 0 0 0-.192-.188l-.07-.082.03.095a1.288 1.288 0 0 0-.796.839 8.134 8.134 0 0 1-.745 1.57 1.472 1.472 0 0 1 .261-.25z"/><path class="cls-5" d="M32.508 120.164a3.486 3.486 0 0 0-2.364 1.582 2.733 2.733 0 0 0-.024 2.769 4.935 4.935 0 0 0 .726.843 6.318 6.318 0 0 1 .635.7 6.223 6.223 0 0 1 .91 2.582 12.302 12.302 0 0 0 .326 1.388 5.934 5.934 0 0 0 2.964 3.446 6.883 6.883 0 0 0 4.315.602.09.09 0 0 1 .065.009 2.358 2.358 0 0 1-.102-.351 2.324 2.324 0 0 1 .044-1.019.103.103 0 0 1-.041-.013c-1.976-1.39-3.068-2.952-3.245-4.642a5.67 5.67 0 0 1 1.36-4.05c.004-.005.01-.004.015-.007a8.7 8.7 0 0 0-.922.018.103.103 0 0 1-.107-.092.1.1 0 0 1 .092-.107c2.804-.208 3.975.827 4.381 1.35a4.013 4.013 0 0 0-1.008-2.946 4.305 4.305 0 0 0-3.195-1.037h-.026a.618.618 0 0 1-.465-.21.645.645 0 0 1-.15-.535 4.807 4.807 0 0 0-.61-3.832 3.053 3.053 0 0 0-1.759-1.09 5.887 5.887 0 0 1 .396 5.15.1.1 0 1 1-.181-.087 4.385 4.385 0 0 0 .374-1.27 5.079 5.079 0 0 1-2.293.829zm7.568-51.554a8.626 8.626 0 0 0-1.612 2.18 2.084 2.084 0 0 1 1.26.22 15.56 15.56 0 0 0 1.914-2.884 4.252 4.252 0 0 1-1.562.485z"/><path class="cls-4" d="M52.234 45.32a8.146 8.146 0 0 1-.438-1.291 4.399 4.399 0 0 0-.866-1.895 4.17 4.17 0 0 0-3.022-1.526c-.043 0-.087 0-.13.003a2.917 2.917 0 0 0-1.851.938 4.447 4.447 0 0 1-1.265.861 7.498 7.498 0 0 1-1.388.367 4.102 4.102 0 0 0-2.206.923 4.339 4.339 0 0 0-1.378 3.579 7.795 7.795 0 0 0 1.953 3.899c2.164 2.69 4.178 4.057 6.337 4.304a7.062 7.062 0 0 0 3.439-.532 4.442 4.442 0 0 0 2.88-4.408 6.942 6.942 0 0 0-.787-2.47zM41.79 47.828a.1.1 0 0 1-.078.118.068.068 0 0 1-.02.001.1.1 0 0 1-.098-.08c-.004-.017-.342-1.84 2.344-2.542a.1.1 0 0 1 .122.07.1.1 0 0 1-.071.123c-2.495.653-2.212 2.243-2.198 2.31zm2.524 1.147c-.034 0-.066-.002-.1-.005a.97.97 0 1 1 .198-1.93.97.97 0 0 1 .866 1.065.972.972 0 0 1-.965.87zm3.242-5.06a2.925 2.925 0 0 1 3.111-.24.1.1 0 0 1 .05.131.098.098 0 0 1-.132.05 2.716 2.716 0 0 0-2.895.207.098.098 0 0 1-.067.025.1.1 0 0 1-.067-.173zm3.07 1.866v.001a.866.866 0 0 1-.86.775.918.918 0 0 1-.089-.005.864.864 0 1 1 .177-1.72.866.866 0 0 1 .772.949zm-3.077.262a.102.102 0 0 1 .141.005c.1.107 2.43 2.642 2.098 3.716-.266.859-1.24.96-1.681.96-.123 0-.205-.008-.218-.01a.1.1 0 0 1 .01-.199h.01c.011 0 1.396.13 1.687-.81.248-.8-1.398-2.813-2.052-3.521a.1.1 0 0 1 .005-.142zm3.173 5.587a5.235 5.235 0 0 1-2.356.577 4.462 4.462 0 0 1-2.112-.5.1.1 0 0 1-.034-.137.098.098 0 0 1 .137-.034 4.636 4.636 0 0 0 4.275-.086.1.1 0 0 1 .09.18z"/><path class="cls-5" d="M62.102 72.734a20.382 20.382 0 0 0-.46-2.99 18.998 18.998 0 0 0-.7-2.37 18.282 18.282 0 0 0-1.38-2.93 17.507 17.507 0 0 1-4-.71 1.093 1.093 0 0 1 0 .18 2.134 2.134 0 0 1-.69 1.33 1.232 1.232 0 0 1-.12.11 2.14 2.14 0 0 1-1.32.46 2.454 2.454 0 0 1-.27-.02 2.12 2.12 0 0 1-1.38-.75 10.616 10.616 0 0 1-.6 1.03 14.072 14.072 0 0 1-3.1 3.51c-.22.19-.45.36-.68.53-.37.27-.74.52-1.13.75h-.01a14.106 14.106 0 0 1-5.38 1.91 2.1 2.1 0 0 1-.06.7 2.155 2.155 0 0 1-2.08 1.6 2.076 2.076 0 0 1-.55-.07 2.162 2.162 0 0 1-.96-.56 8.736 8.736 0 0 1-1.58 3.57 6.182 6.182 0 0 1 1.86.54.088.088 0 0 1 .04.13.1.1 0 0 1-.13.05 8.39 8.39 0 0 0-5.46-.36c-.57.11-1.15.25-1.71.39a21.45 21.45 0 0 1-3.83.65.052.052 0 0 1-.04-.02c0 .04.02.07.02.11a10.023 10.023 0 0 1-.78 3.9 18.912 18.912 0 0 1 5.99.09 15.715 15.715 0 0 0 5.64.03 4.928 4.928 0 0 0 2.35-1.13 7.285 7.285 0 0 0 1.26-1.75c.09-.16.19-.32.28-.47a29.194 29.194 0 0 1 2.43-3.3l.01-.01c.46-.57.92-1.15 1.36-1.74a13.463 13.463 0 0 0 2.04-3.69.079.079 0 0 1 .04-.04h.01c.01-.02.04-.03.08-.02.01 0 .02.02.02.02.02.01.03.01.04.03a.108.108 0 0 1 0 .08 9.736 9.736 0 0 1-.89 1.94c-.13.24-.22.38-.22.38a13.722 13.722 0 0 1 .6 1.68 17.682 17.682 0 0 1 .47 2.16 13.554 13.554 0 0 1 .15 1.62 41.071 41.071 0 0 0 6.82-.06 32.524 32.524 0 0 0 5.17-.88c.86-.23 1.73-.5 2.58-.82a19.284 19.284 0 0 0 .29-2.74 20.09 20.09 0 0 0-.04-2.05zm-6.4-5.67a1.385 1.385 0 0 1 1.19 1.01 1.34 1.34 0 0 1 .04.49 1.392 1.392 0 0 1-.5.93 1.365 1.365 0 0 1-.86.3h-.15a1.39 1.39 0 0 1-.92-.5 1.366 1.366 0 0 1-.3-1.01 1.389 1.389 0 0 1 .55-.96 1.414 1.414 0 0 1 .95-.26zm2.74 6.93a1.339 1.339 0 0 1-.49.92 1.381 1.381 0 0 1-.87.31c-.04 0-.09-.01-.14-.01a1.373 1.373 0 0 1-1.22-1.5 1.06 1.06 0 0 1 .09-.35 1.358 1.358 0 0 1 1.41-.88 1.373 1.373 0 0 1 1.22 1.47z"/><path class="cls-2" d="m61.642 69.743-4.75-1.67-2.14-.75-3.57-1.25a10.616 10.616 0 0 0 .6-1.03 2.12 2.12 0 0 0 1.38.75 2.454 2.454 0 0 0 .27.02 2.14 2.14 0 0 0 1.32-.46 1.232 1.232 0 0 0 .12-.11l6.07 2.13a18.998 18.998 0 0 1 .7 2.37zm.5 5.04-3.7-.83-2.63-.59-8.64-1.94-.14-.03h-.01l-.83-.19.07-.34h.01l.35-1.61 1.46.33 14.02 3.15a20.09 20.09 0 0 1 .04 2.05zm-2.87 3.56a32.524 32.524 0 0 1-5.17.88l-6.97-1.56a17.682 17.682 0 0 0-.47-2.16z"/><path class="cls-5" d="M47.4 70.117a7.447 7.447 0 0 1-.27 1.28s-.01-.02-.02-.02a.1.1 0 0 0-.13.06 18.197 18.197 0 0 1-3.41 5.44 29.206 29.206 0 0 0-2.43 3.3c-.09.15-.19.31-.28.47a7.288 7.288 0 0 1-1.26 1.75 4.929 4.929 0 0 1-2.35 1.13 15.712 15.712 0 0 1-5.64-.03 18.913 18.913 0 0 0-5.99-.09 10.02 10.02 0 0 0 .78-3.9c0-.04-.02-.07-.02-.11a.052.052 0 0 0 .04.02 21.44 21.44 0 0 0 3.83-.65c.56-.14 1.14-.28 1.71-.39a8.39 8.39 0 0 1 5.46.36.1.1 0 0 0 .13-.05.088.088 0 0 0-.04-.13 6.182 6.182 0 0 0-1.86-.54 8.736 8.736 0 0 0 1.58-3.57 2.16 2.16 0 0 0 .96.56 2.075 2.075 0 0 0 .55.07 2.155 2.155 0 0 0 2.08-1.6 2.101 2.101 0 0 0 .06-.7 14.282 14.282 0 0 0 6.52-2.66z"/><path class="cls-3" d="M36.973 73.428a3.043 3.043 0 0 0 1.375-.386.41.41 0 0 1-.011-.224.417.417 0 1 1 .404.521.405.405 0 0 1-.108-.014.413.413 0 0 1-.18-.11 3.231 3.231 0 0 1-1.479.413l-.052-.001a2.099 2.099 0 1 0-.059-.189c.01-.003.018-.011.029-.011a.206.206 0 0 0 .08.001zm26.59-17.186a1.522 1.522 0 0 0 1.646-2.279 1.498 1.498 0 0 0-.14-.15 2.582 2.582 0 0 1-.84.88.338.338 0 0 1 .025.15.348.348 0 0 1-.339.27.397.397 0 0 1-.082-.01.35.35 0 0 1-.102-.64.357.357 0 0 1 .264-.041.34.34 0 0 1 .133.096 2.335 2.335 0 0 0 .8-.858 1.484 1.484 0 0 0-.663-.378 1.521 1.521 0 1 0-.702 2.96zM57.2 72.689q-.06-.006-.12-.006a1.17 1.17 0 0 0-.908 1.909 1.17 1.17 0 0 0 2.073-.618 1.173 1.173 0 0 0-1.045-1.285z"/><path class="cls-2" d="M65.781 62.503a9.189 9.189 0 0 1-5.65 1.76h-.17a16.122 16.122 0 0 1-4.39-.74 2.182 2.182 0 0 0-.45-1.19 2.15 2.15 0 0 0-3.47 2.54 14.502 14.502 0 0 1-10.79 7.71 2.164 2.164 0 0 0-.97-1.47 15.438 15.438 0 0 0 2.1-3.21c.07-.14.14-.29.21-.44a8.693 8.693 0 0 1 .85-1.52 2.614 2.614 0 0 1 1.78-1.12.103.103 0 0 0 .1-.11c-.01-.05-.06-.1-.11-.09a2.792 2.792 0 0 0-1.93 1.2 8.851 8.851 0 0 0-.87 1.56c-.06.14-.13.27-.2.41-1.2.86-3.03.71-4.51.58a11.843 11.843 0 0 1-3.64-1 2.112 2.112 0 0 0 .38-1.27 2.42 2.42 0 0 0-.03-.25 9.746 9.746 0 0 0 5.79-2.59c.25-.23.48-.48.71-.72a9.556 9.556 0 0 1 1.45-1.32 5.079 5.079 0 0 1 2.39-.87l.26-.03a3.442 3.442 0 0 0 .95-.16 1.158 1.158 0 0 0 .79-.96c.01-.26-.01-1.14-.59-1.45a9.631 9.631 0 0 0-1.55-.38c-2.26-.23-6.2-2.95-6.24-2.97-.01-.01-.02-.01-.03-.02-6.6-1.95-11.06 3.43-11.1 3.48a.073.073 0 0 0-.02.06 2.14 2.14 0 0 0-1.23-.6c1.59-7.97 9.81-11.8 9.89-11.84a.092.092 0 0 0 .05-.13.1.1 0 0 0-.13-.05c-.02.01-.49.23-1.2.65-.03-.33-.19-3.23 1.41-4.62.02-.01.02-.03.03-.05a9.175 9.175 0 0 1 1.7 1.09.108.108 0 0 0 .07.03.102.102 0 0 0 .07-.04.097.097 0 0 0 0-.14 9.904 9.904 0 0 0-8.55-1.89 2.034 2.034 0 0 0-.26-1.08 1.682 1.682 0 0 0-.35-.5.061.061 0 0 0 .04-.01 20.688 20.688 0 0 1 17.56-2.95 21.681 21.681 0 0 1 7.36 3.75.087.087 0 0 0 .06.03.124.124 0 0 0 .08-.04.097.097 0 0 0-.01-.14 13.243 13.243 0 0 0-1.11-.82c.63-.17 4.71-1.06 10.66 1.48a2.156 2.156 0 0 0 .09 1.4c-1.06.06-8.47.72-9.21 6.89-.05-.12-.11-.24-.16-.35l-1.28-2.76a7.444 7.444 0 0 1-.42-1.26 4.67 4.67 0 0 0-.91-1.97 4.339 4.339 0 0 0-3.31-1.59 3.14 3.14 0 0 0-1.98.99 4.398 4.398 0 0 1-1.2.82 8.05 8.05 0 0 1-1.36.36 4.221 4.221 0 0 0-2.3.97 4.548 4.548 0 0 0-1.44 3.74 7.94 7.94 0 0 0 1.99 4.01c2.21 2.73 4.26 4.12 6.48 4.38.23.02.46.04.7.04a7.699 7.699 0 0 0 2.83-.59 4.812 4.812 0 0 0 2.09-1.59 5.185 5.185 0 0 0 1.43 3.81 2.389 2.389 0 0 0-.58.34.097.097 0 0 0-.01.14.075.075 0 0 0 .07.04.09.09 0 0 0 .07-.03 3.251 3.251 0 0 1 2.52-.49c.19.02.39.05.59.07a6.21 6.21 0 0 0 2.15.05 5.661 5.661 0 0 0 2.7-1.72 1.67 1.67 0 0 0 1 .68c0 .01 0 0 .01.01a5.062 5.062 0 0 1-1.89 3.7.052.052 0 0 0-.02.04c-.12-.02-.24-.05-.36-.07a8.993 8.993 0 0 0-3.19.06.101.101 0 0 0-.08.12.104.104 0 0 0 .12.08 8.843 8.843 0 0 1 3.12-.07c.36.06.72.14 1.07.22a8.325 8.325 0 0 0 1.89.29 3.613 3.613 0 0 0 .79-.09 1.718 1.718 0 0 0 .8 1.78z"/><path class="cls-5" d="M47.772 40.413a3.14 3.14 0 0 0-1.98.99 4.398 4.398 0 0 1-1.2.82c-4.2-5.39-12.08-4.04-15.91-2.97a1.682 1.682 0 0 0-.35-.5.061.061 0 0 0 .04-.01 20.688 20.688 0 0 1 17.56-2.95 21.681 21.681 0 0 1 7.36 3.75.087.087 0 0 0 .06.03.124.124 0 0 0 .08-.04.097.097 0 0 0-.01-.14 13.243 13.243 0 0 0-1.11-.82c.63-.17 4.71-1.06 10.66 1.48a2.156 2.156 0 0 0 .09 1.4c-1.06.06-8.47.72-9.21 6.89-.05-.12-.11-.24-.16-.35l-1.28-2.76a7.444 7.444 0 0 1-.42-1.26 4.67 4.67 0 0 0-.91-1.97 4.339 4.339 0 0 0-3.31-1.59zm18.009 22.09a9.189 9.189 0 0 1-5.65 1.76h-.17a16.122 16.122 0 0 1-4.39-.74 2.182 2.182 0 0 0-.45-1.19 2.165 2.165 0 0 0-3.03-.37l-1.81-6.44a7.098 7.098 0 0 0 1.21-.39 4.812 4.812 0 0 0 2.09-1.59 5.185 5.185 0 0 0 1.43 3.81 2.389 2.389 0 0 0-.58.34.097.097 0 0 0-.01.14.075.075 0 0 0 .07.04.09.09 0 0 0 .07-.03 3.251 3.251 0 0 1 2.52-.49c.19.02.39.05.59.07a6.21 6.21 0 0 0 2.15.05 5.661 5.661 0 0 0 2.7-1.72 1.67 1.67 0 0 0 1 .68c0 .01 0 0 .01.01a5.062 5.062 0 0 1-1.89 3.7.052.052 0 0 0-.02.04c-.12-.02-.24-.05-.36-.07a8.993 8.993 0 0 0-3.19.06.101.101 0 0 0-.08.12.104.104 0 0 0 .12.08 8.843 8.843 0 0 1 3.12-.07c.36.06.72.14 1.07.22a8.325 8.325 0 0 0 1.89.29 3.613 3.613 0 0 0 .79-.09 1.718 1.718 0 0 0 .8 1.78z"/><path d="M61.856 80.858a1.725 1.725 0 0 0 1.066-1.39 2.647 2.647 0 0 0-.338-1.552.488.488 0 0 0-.61-.218c-6.224 2.372-13.153 1.938-15.13 1.748a.392.392 0 0 0-.048-.002.523.523 0 0 0-.473.305c-.637 1.382-.31 2.135.076 2.523a1.12 1.12 0 0 0 .609.305 28.01 28.01 0 0 0 14.848-1.72z" fill="#663f2e"/><path class="cls-5" d="M65.037 60.509c.009-.028.012-.056.022-.083a1.722 1.722 0 1 1 1.01 2.215c-.032-.012-.058-.03-.09-.044l-.005.01a8.345 8.345 0 0 1-2.951 1.466 33.859 33.859 0 0 0 6.383-.312 5.782 5.782 0 0 0 2.107-.53 5.935 5.935 0 0 0 2.047-2.24 70.976 70.976 0 0 0 5.802-11.398 13.06 13.06 0 0 1-3.547-1.045 24.012 24.012 0 0 1-4.12 5.077l-.362.334a13.825 13.825 0 0 0-1.194 1.186 6.798 6.798 0 0 0-1.485 3.048.1.1 0 0 1-.098.08.07.07 0 0 1-.02-.002.097.097 0 0 1-.064-.047c-.201.015-.41.025-.633.025-.227 0-.465-.008-.712-.023a92.391 92.391 0 0 1-1.383-.099c-.846-.065-1.579-.122-2.308-.122h-.01a5.45 5.45 0 0 1-1.587 2.223c.169.036.343.066.506.103a5.767 5.767 0 0 0 2.692.178z"/><path class="cls-3" d="M55.684 67.265a1.244 1.244 0 0 0-.12-.006 1.17 1.17 0 0 0-.908 1.91 1.16 1.16 0 0 0 .788.424 1.176 1.176 0 0 0 .858-.256 1.17 1.17 0 0 0-.618-2.072zM25.47 57.506a2.31 2.31 0 0 0-.142-.005 1.964 1.964 0 0 0-1.479 3.253 1.983 1.983 0 0 0 .228.216 3.2 3.2 0 0 1 .885-1.326.409.409 0 0 1-.046-.207.418.418 0 0 1 .416-.389l.029.001a.418.418 0 0 1 .244.733.411.411 0 0 1-.272.101h-.031a.4.4 0 0 1-.21-.085 2.998 2.998 0 0 0-.835 1.259c-.005.014-.023.013-.032.023a1.942 1.942 0 0 0 .969.345c.047.003.093.005.14.005a1.964 1.964 0 0 0 .135-3.924zm13.058 32.677a1.95 1.95 0 0 0-3.257.963c.012.002.024-.001.035.006a2.996 2.996 0 0 0 1.465.368.412.412 0 0 1 .1-.204.418.418 0 0 1 .291-.13h.01a.418.418 0 0 1 .302.707.418.418 0 0 1-.293.129h-.01a.398.398 0 0 1-.393-.302 3.198 3.198 0 0 1-1.546-.382 1.962 1.962 0 1 0 3.296-1.155z"/><path class="cls-2" d="M51.242 97.55a10.486 10.486 0 0 1-2.483 1.066.097.097 0 0 1 .023.128c-3.439 5.347-1.59 8.96-1.57 8.996a.1.1 0 0 1-.041.135.089.089 0 0 1-.047.012.1.1 0 0 1-.089-.053 4.053 4.053 0 0 1-.206-.534 12.625 12.625 0 0 0-5.884 4.868c-.247.428-.463.883-.672 1.323-.137.291-.28.592-.43.883a14.936 14.936 0 0 1-2.912 3.765 6.936 6.936 0 0 1-.042 2.337.442.442 0 0 0 .104.37.391.391 0 0 0 .332.143 5.915 5.915 0 0 1 1.676.177.095.095 0 0 1 .014-.04 21.302 21.302 0 0 1 1.764-1.627c.803-.69 1.713-1.472 2.858-2.636a237.064 237.064 0 0 1 5.684-5.564 7.217 7.217 0 0 0 3.221-4.399 17.87 17.87 0 0 1 2.584-4.012 24.72 24.72 0 0 0 4.634-8.86 18.046 18.046 0 0 1-4.777-.877 8.968 8.968 0 0 1-3.74 4.399z"/><path class="cls-5" d="M59.217 84.519a6.155 6.155 0 0 1 2.457-1.043.104.104 0 0 1 .109.09.1.1 0 0 1-.091.109 4.265 4.265 0 0 0-1.405.464 14.763 14.763 0 0 1 5.097-.302 6.506 6.506 0 0 1-3.295-2.862c-.003-.007 0-.014-.002-.02-.053.028-.098.066-.153.089a28.48 28.48 0 0 1-10.646 2.082 26.548 26.548 0 0 1-4.28-.347c-.644.2-.861.933-1.069 1.645-.056.192-.115.392-.18.577a11.94 11.94 0 0 0-.363 1.336 12.003 12.003 0 0 1-.368 1.358 6.256 6.256 0 0 1-5.705 4.013 2.145 2.145 0 0 1-.512 1.297 3.854 3.854 0 0 0 1.557.7 10.51 10.51 0 0 0 7.591-.97.097.097 0 0 1 .037-.004 7.415 7.415 0 0 0-.464-2.633.1.1 0 0 1 .06-.127.098.098 0 0 1 .128.059 6.235 6.235 0 0 1-.321 5.538 9.238 9.238 0 0 1-2.462 2.218 2.15 2.15 0 0 1 .432 1.12 11.122 11.122 0 0 0 5.77-1.527 8.645 8.645 0 0 0 3.863-4.895 15.39 15.39 0 0 0 .349-1.666c.071-.418.146-.853.246-1.276a7.928 7.928 0 0 1 1.75-3.503 9.975 9.975 0 0 1 1.86-1.511l.004-.005z"/><path class="cls-2" d="M74.994 103.492c.151-.938.382-1.876.605-2.78.091-.372.182-.742.269-1.113a42.848 42.848 0 0 0 1.02-12.455 4.16 4.16 0 0 0-.573-2.184 3.048 3.048 0 0 0-2.439-1.105 10.112 10.112 0 0 0-1.993.188c-.278.044-.557.088-.836.123a23.532 23.532 0 0 1-4.748-.059l-.153-.011c-.011.004-.015.02-.028.02a.094.094 0 0 1-.028-.004c-.024-.007-.044-.019-.068-.026-2.38-.19-4.636-.327-6.723.615a9.75 9.75 0 0 0-1.805 1.472 7.734 7.734 0 0 0-1.704 3.415c-.098.416-.172.847-.243 1.264a15.688 15.688 0 0 1-.353 1.686c-.041.143-.096.283-.146.424a17.859 17.859 0 0 0 4.846.877l.007-.002.004.002a19.848 19.848 0 0 0 3.842-.18 38.544 38.544 0 0 0 8.655-2.585.102.102 0 0 1 .13.056.1.1 0 0 1-.055.13c-.546.22-1.119.445-1.707.666a.099.099 0 0 1-.002.068 14.625 14.625 0 0 0-1.52 7.032 20.668 20.668 0 0 0 .559 3.155c.088.382.177.764.257 1.147a28.322 28.322 0 0 1 .553 7.473 4.016 4.016 0 0 1 2.2 2.634c.071.147.251.418.405.423h.004c.096 0 .179-.113.232-.209a2.93 2.93 0 0 0 .16-.421 4.639 4.639 0 0 1 1.22-2.064 40.082 40.082 0 0 1 .156-7.672z"/><path class="cls-4" d="M13.847 83.906a.444.444 0 0 1 .19-.37 1.484 1.484 0 0 1 .333-.166 8.363 8.363 0 0 1-1.624.184c-.049 0-.098 0-.146-.002a1.285 1.285 0 0 0-1.026.473l-.024.033a.147.147 0 0 0-.015.152.152.152 0 0 0 .127.092 23.572 23.572 0 0 0 2.426.018l-.036-.023a.478.478 0 0 1-.205-.39z"/><path class="cls-3" d="M84.683 120.321a2.13 2.13 0 0 0 2.287-3.194 2.156 2.156 0 0 0-.213-.28 3.441 3.441 0 0 1-1.185 1.27.436.436 0 0 1-.415.571.464.464 0 0 1-.103-.011.444.444 0 0 1 .205-.864.435.435 0 0 1 .211.13 3.25 3.25 0 0 0 1.119-1.203c.007-.014.022-.02.034-.03a2.108 2.108 0 0 0-.975-.537 2.143 2.143 0 0 0-.495-.059 2.127 2.127 0 0 0-.542 4.186.101.101 0 0 1 .06.006c.006.003.007.01.012.015z"/><path class="cls-2" d="M22.96 79.47c-.016-.068-.03-.14-.046-.206a.1.1 0 1 1 .194-.047c.332 1.394.583 3.16-.429 4.467a.099.099 0 0 1-.079.038.1.1 0 0 1-.079-.16 2.968 2.968 0 0 0 .307-.49l-.941.008h-.001c-.009 0-.014-.007-.022-.009a2.331 2.331 0 0 1-.288.41.092.092 0 0 1 .043-.009.1.1 0 0 1 .08.116.821.821 0 0 0 .61.857 6.736 6.736 0 0 0 1.784.24h.072a1.118 1.118 0 0 0 .545-.105 1.138 1.138 0 0 0 .391-.49 9.88 9.88 0 0 0 1.097-4.58 1.24 1.24 0 0 0-1.09-1.223 6.652 6.652 0 0 0-1.909.014 1.076 1.076 0 0 0-.448.12 2.203 2.203 0 0 0-.663.986c-.001.006-.008.008-.01.014l.857.037c.01 0 .016.009.024.012z"/><path class="cls-4" d="M22.995 79.632a.099.099 0 0 1-.065.025h-.004l-1.457-.063c.058.122.114.245.168.373a.1.1 0 1 1-.185.076 2.04 2.04 0 0 0-1.053-1.305 4.948 4.948 0 0 0-1.845-.212l-.165.007a3.529 3.529 0 0 1-1.239-.088 3.647 3.647 0 0 1-.7-.343 2.21 2.21 0 0 0-.959-.377l-.037-.001a.417.417 0 0 0-.363.153.5.5 0 0 0 .05.458 3.05 3.05 0 0 0 1.747 1.73.1.1 0 0 1 .059.048 4.24 4.24 0 0 0 .632-.503.1.1 0 1 1 .145.138 5.145 5.145 0 0 1-4.186 1.366l-.536-.079c-1.64-.244-2.462-.364-2.983-.027a.27.27 0 0 0-.122.234.3.3 0 0 0 .14.255 9.926 9.926 0 0 0 2.556.665.099.099 0 0 1 .058.036c1.265-.081 2.368-.252 2.383-.254a.103.103 0 0 1 .115.083.1.1 0 0 1-.083.114 23.54 23.54 0 0 1-3.914.295h-.047a1.34 1.34 0 0 0-1.003.419.93.93 0 0 0-.047.053.24.24 0 0 0-.039.25.244.244 0 0 0 .207.154c.114.01.263.027.431.048.4.047.896.106 1.342.115a1.586 1.586 0 0 1 .604-.123l.143.002a11.29 11.29 0 0 0 3.274-.645.103.103 0 0 1 .128.06.1.1 0 0 1-.06.128 13.052 13.052 0 0 1-1.378.4 1.462 1.462 0 0 1 .514.032c.26.063.489.132.71.198a2.818 2.818 0 0 0 1.502.189.097.097 0 0 1 .121.072.1.1 0 0 1-.073.12 2.917 2.917 0 0 1-1.608-.189 15.078 15.078 0 0 0-.7-.197 1.196 1.196 0 0 0-1.022.179.247.247 0 0 0-.105.205.278.278 0 0 0 .12.227c.1.07.19.112.287.172l.042-.002a.115.115 0 0 1 .101.088 3.781 3.781 0 0 0 3.293.556 12.889 12.889 0 0 0 2.518-.84 2.486 2.486 0 0 0 1.439-1.506.719.719 0 0 0-.05-.594.1.1 0 0 1 .022-.14.098.098 0 0 1 .14.02.913.913 0 0 1 .081.764 1.88 1.88 0 0 1-.095.228l.964-.008a5.551 5.551 0 0 0 .087-3.24z"/><path class="cls-5" d="M77.75 118.482a4.386 4.386 0 0 1-1.596-2.014 3.472 3.472 0 0 1-.574-3.188c.646-1.75 2.848-2.727 3.811-3.08-2.277-.173-3.585.35-4.372 1.05a.081.081 0 0 1-.017.017 4.44 4.44 0 0 0-1.193 2.025 2.949 2.949 0 0 1-.176.456c-.118.213-.263.33-.418.311-.325-.013-.56-.507-.586-.562-.036-.17-.749-3.518-5.226-2.807.73.408 2.768 1.642 2.992 2.802a.996.996 0 0 1-.24.874c-1.472 1.7-1.972 3.196-1.487 4.448a3.558 3.558 0 0 0 3.034 1.748c.055 0 .11-.002.164-.005.086-.006.176-.016.271-.025a3.564 3.564 0 0 1 1.467.083 3.037 3.037 0 0 1 1.084.62c.593.49 3.59 2.345 6.371 1.823a4.952 4.952 0 0 0 3.406-2.597 2.306 2.306 0 0 1-1.292-.992 2.332 2.332 0 0 1-.203-.413c-.005.003-.006.01-.012.01a5.845 5.845 0 0 1-5.207-.584z"/><path class="cls-3" d="M33.245 64.737a1.95 1.95 0 0 0-1.355-.542h-.047a1.944 1.944 0 0 0-1.856 1.505c.012.002.025-.001.036.006a2.994 2.994 0 0 0 1.465.369.408.408 0 0 1 .099-.204.42.42 0 0 1 .292-.13.377.377 0 0 1 .298.116.417.417 0 0 1-.576.604.41.41 0 0 1-.106-.186 3.192 3.192 0 0 1-1.546-.384 1.976 1.976 0 0 0-.024.315 1.964 1.964 0 0 0 1.963 1.917h.047a1.964 1.964 0 0 0 1.31-3.385zm7.805 70.335a2.13 2.13 0 0 0 3.221-2.497 3.458 3.458 0 0 1-1.572.76.432.432 0 0 1-.07.224.448.448 0 0 1-.618.115.445.445 0 1 1 .504-.734.432.432 0 0 1 .15.197 3.272 3.272 0 0 0 1.487-.722.092.092 0 0 1 .043-.016 2.139 2.139 0 1 0-3.146 2.674z"/><path d="M50.626 45.78a.864.864 0 1 0-1.53.457.856.856 0 0 0 .582.314.9.9 0 0 0 .088.005.866.866 0 0 0 .86-.775zm-6.213 1.258a.97.97 0 1 0-.2 1.931c.035.003.067.005.1.005a.97.97 0 0 0 .1-1.936z"/><path d="M87.225 116.97a2.42 2.42 0 0 0-1.508-1.09 2.498 2.498 0 0 0-.563-.065 2.432 2.432 0 0 0-2.363 1.87 2.374 2.374 0 0 0 .019 1.11 6.52 6.52 0 0 1-1.96.317 5.092 5.092 0 0 1-2.928-.877 4.213 4.213 0 0 1-1.51-1.92 3.2 3.2 0 0 1-.55-2.931c.761-2.068 4.031-3.037 4.063-3.046a.2.2 0 0 0-.032-.392 12.166 12.166 0 0 0-1.319-.077 5.75 5.75 0 0 0-3.45.947 38.204 38.204 0 0 1 .165-7.277c.15-.925.378-1.853.613-2.807.087-.355.174-.71.257-1.066a43.117 43.117 0 0 0 1.028-12.543 4.398 4.398 0 0 0-.63-2.339 3.34 3.34 0 0 0-2.67-1.227 4.428 4.428 0 0 0-.254-.007 10.577 10.577 0 0 0-1.651.174l-.222.035c-.25.039-.5.078-.75.108a13.454 13.454 0 0 1-1.719.1c-.98 0-1.98-.079-2.968-.158l-.126-.01-.051.035a.098.098 0 0 0-.053-.04 6.256 6.256 0 0 1-3.718-2.909 1.989 1.989 0 0 0 .846-1.385 2.936 2.936 0 0 0-.374-1.728.766.766 0 0 0-.677-.395 19.593 19.593 0 0 0-2.267-12.819.513.513 0 0 0 .054.005l.172.003a11.098 11.098 0 0 0 2.305-.244.234.234 0 0 0 .06.022 31 31 0 0 0 2.121.077 40.506 40.506 0 0 0 4.825-.361 6.115 6.115 0 0 0 2.215-.564 6.154 6.154 0 0 0 2.158-2.344 71.272 71.272 0 0 0 5.814-11.418l.007.003.125.02a2.74 2.74 0 0 0 .297.02.977.977 0 0 0 .458-.099 1.253 1.253 0 0 0 .379-.337 6.167 6.167 0 0 0 1.271-2.671c.082-.402.025-.916-.408-1.04l-.973-.255a2.99 2.99 0 0 0 1.654-.911 12.457 12.457 0 0 0 1.624-2.092c.048-.048 1.18-1.22.615-3.738a24.007 24.007 0 0 0 .927-2.49.454.454 0 0 0-.44-.564.567.567 0 0 0-.174.033 1.003 1.003 0 0 0-.14.06c.075-.277.148-.56.208-.825.033-.152.063-.283.09-.388a.549.549 0 0 0-.528-.683.686.686 0 0 0-.27.067 1.625 1.625 0 0 0-.857.907 4.827 4.827 0 0 0 .007-1.208.598.598 0 0 0-.381-.434.568.568 0 0 0-.55.082c-.58.45-.746 1.302-1.076 3l-.105.533a4.602 4.602 0 0 1-1.538 2.595 3.513 3.513 0 0 0-1.111-2.164.839.839 0 0 0-.576-.29c-.006 0-.102.01-.108.012a.71.71 0 0 0-.506.536 2.463 2.463 0 0 0 .03 1.168 3.357 3.357 0 0 1 .084.712 3.296 3.296 0 0 1-.305 1.094l-.062.154a5.198 5.198 0 0 0-.434 1.925 1.734 1.734 0 0 0 .483 1.14l-.086.283a2.658 2.658 0 0 0-.877-.18.873.873 0 0 0-.557.161 2.608 2.608 0 0 0-.704.986 6.87 6.87 0 0 0-.531 1.742 1.936 1.936 0 0 0 .07 1.108 1.746 1.746 0 0 0 .832.788 23.626 23.626 0 0 1-4.002 4.911l-.359.332a13.882 13.882 0 0 0-1.22 1.214 7.104 7.104 0 0 0-1.493 2.975 8.32 8.32 0 0 1-.594.023q-.324 0-.677-.022c-.445-.029-.856-.06-1.243-.09l-.136-.01a32.875 32.875 0 0 0-2.153-.115 5.179 5.179 0 0 0 .204-1.139.715.715 0 0 0 .1.01 1.822 1.822 0 0 0 .415-3.594 1.913 1.913 0 0 0-.42-.048 1.805 1.805 0 0 0-1.624 2.619 5.347 5.347 0 0 1-2.53 1.62 3.53 3.53 0 0 1-.73.07 9.805 9.805 0 0 1-1.321-.122 20.935 20.935 0 0 0-.593-.077 6.154 6.154 0 0 0-.687-.04 3.94 3.94 0 0 0-1.173.167l-.009-.016a4.894 4.894 0 0 1-1.358-3.87 4.696 4.696 0 0 0 .71-2.764 5.682 5.682 0 0 0-.506-1.892l.018-.021c.55-6.302 8.317-6.83 8.99-6.864a2.25 2.25 0 0 0 1.259 1.026 2.303 2.303 0 0 0 .689.106 2.27 2.27 0 1 0-2.066-3.15 20.675 20.675 0 0 0-7.97-1.746 10.831 10.831 0 0 0-2.887.322l-.016.01a22.823 22.823 0 0 0-6.084-2.808 20.504 20.504 0 0 0-5.738-.825 21.851 21.851 0 0 0-12.081 3.806l-.016-.018a2.23 2.23 0 0 0-1.404-.49 2.264 2.264 0 1 0 1.772 3.672 2.218 2.218 0 0 0 .441-1.032 8.857 8.857 0 0 1 2.31-.313 9.404 9.404 0 0 1 3.993.92c-1.653 1.6-1.404 4.616-1.389 4.786-2.228 1.36-7.343 5.086-8.594 11.19a2.212 2.212 0 0 0-1.473.55 2.264 2.264 0 0 0 1.327 3.967q.08.006.16.006a2.27 2.27 0 0 0 2.257-2.106 2.233 2.233 0 0 0-.507-1.572 11.3 11.3 0 0 1 7.98-3.794 9.99 9.99 0 0 1 2.76.398c.414.285 4.106 2.782 6.355 3.012a10.234 10.234 0 0 1 1.449.345c.342.184.449.75.436 1.18a.848.848 0 0 1-.6.687 3.397 3.397 0 0 1-.928.154l-.21.019a5.472 5.472 0 0 0-2.526.923 9.93 9.93 0 0 0-1.49 1.358 18.18 18.18 0 0 1-.705.711 9.444 9.444 0 0 1-5.548 2.504 2.243 2.243 0 0 0-.605-1.028 2.277 2.277 0 0 0-1.611-.625h-.005a2.264 2.264 0 0 0 .053 4.526h.053a2.244 2.244 0 0 0 1.585-.7.798.798 0 0 0 .054-.065 11.976 11.976 0 0 0 3.706 1.017c.551.048 1.175.102 1.799.102.143 0 .29-.008.448-.023a9.347 9.347 0 0 0-1.402 2.018 2.234 2.234 0 0 0-1.34 3.289 2.045 2.045 0 0 0 .166.23 8.759 8.759 0 0 1-1.577 3.592 9.325 9.325 0 0 0-1.01-.058 12.685 12.685 0 0 0-2.463.261c-.58.114-1.165.251-1.745.389a20.41 20.41 0 0 1-3.751.64l-.006.002a1.516 1.516 0 0 0-1.26-1.127 7.439 7.439 0 0 0-.908-.064 9.615 9.615 0 0 0-1.072.078 1.374 1.374 0 0 0-.572.164 2.432 2.432 0 0 0-.787 1.144l-.385-.01a1.74 1.74 0 0 0-.92-.843 4.615 4.615 0 0 0-1.575-.24c-.134 0-.555.016-.555.016-.144.007-.29.014-.434.014a2.24 2.24 0 0 1-.696-.09 3.31 3.31 0 0 1-.647-.319 2.48 2.48 0 0 0-1.173-.418.663.663 0 0 0-.588.304.762.762 0 0 0 .035.736 3.517 3.517 0 0 0 1.671 1.768 4.538 4.538 0 0 1-2.958.589l-.535-.08a16.28 16.28 0 0 0-2.126-.237 1.871 1.871 0 0 0-1.064.255.574.574 0 0 0-.26.49.6.6 0 0 0 .283.506 4.8 4.8 0 0 0 1.13.391 1.661 1.661 0 0 0-1.184.572.547.547 0 0 0 .372.896c.101.009.228.023.423.047.246.029.529.056.814.078a1.646 1.646 0 0 0-.128.148.447.447 0 0 0-.045.45.453.453 0 0 0 .372.267c.289.027.753.04 1.278.04.463 0 .969-.012 1.444-.033a4.933 4.933 0 0 0 2.56.814 2.573 2.573 0 0 0 1.062-.19 13.004 13.004 0 0 0 2.555-.852 3.392 3.392 0 0 0 .889-.6 1.137 1.137 0 0 0 .81.955 7.065 7.065 0 0 0 1.862.25h.075a1.376 1.376 0 0 0 .693-.144 1.415 1.415 0 0 0 .507-.614c.064-.123.118-.25.17-.378l.058-.135a13.279 13.279 0 0 1 2.426-.216 27.538 27.538 0 0 1 3.57.3 25.927 25.927 0 0 0 3.312.28 10.886 10.886 0 0 0 2.415-.255 5.32 5.32 0 0 0 2.489-1.205 7.518 7.518 0 0 0 1.313-1.821c.091-.158.182-.315.274-.468a29.904 29.904 0 0 1 2.404-3.267 27.287 27.287 0 0 0 2.087-2.852 15.665 15.665 0 0 1 1.082 4.948l-.168-.013a.827.827 0 0 0-.75.478c-.746 1.62-.234 2.488.137 2.86a1.252 1.252 0 0 0 .37.24 2.889 2.889 0 0 0-.907 1.617c-.055.189-.112.383-.175.56a12.242 12.242 0 0 0-.375 1.385 11.797 11.797 0 0 1-.355 1.31 5.967 5.967 0 0 1-5.33 3.804 2.256 2.256 0 0 0-3.88-1.359 2.257 2.257 0 0 0 3.144 3.237 4.177 4.177 0 0 0 1.617.717 11.147 11.147 0 0 0 2.653.323 10.218 10.218 0 0 0 4.936-1.27 4.795 4.795 0 0 1-.737 2.354 8.791 8.791 0 0 1-2.334 2.103 2.232 2.232 0 0 0-1.01-.598 2.284 2.284 0 0 0-.573-.074 2.254 2.254 0 1 0 2.18 2.828 2.175 2.175 0 0 0 .055-.462 12.235 12.235 0 0 0 2.923-.383c-2.381 3.835-2.131 6.772-1.736 8.238a12.87 12.87 0 0 0-5.968 4.965c-.253.436-.472.899-.683 1.345a25.95 25.95 0 0 1-.426.873 16.108 16.108 0 0 1-2.65 3.536 3.621 3.621 0 0 0-.61-1.347 3.266 3.266 0 0 0-2.184-1.236.206.206 0 0 0-.175.097.2.2 0 0 0 .005.212 6.455 6.455 0 0 1 .881 3.498 4.355 4.355 0 0 1-2.278.851l-.112.02a3.793 3.793 0 0 0-2.568 1.726 3.039 3.039 0 0 0-.021 3.079 5.259 5.259 0 0 0 .774.901 6.01 6.01 0 0 1 .601.663 5.89 5.89 0 0 1 .858 2.46 12.56 12.56 0 0 0 .334 1.421 6.239 6.239 0 0 0 3.116 3.625 7.77 7.77 0 0 0 3.28.766 5.12 5.12 0 0 0 1.24-.142l.01-.007a2.385 2.385 0 0 0 2.182 1.387 2.44 2.44 0 0 0 2.405-2.887 2.45 2.45 0 0 0-2.394-1.999 2.464 2.464 0 0 0-2.02 1.062 2.326 2.326 0 0 0-.23.447c-1.826-1.315-2.84-2.774-3.005-4.34a5.353 5.353 0 0 1 1.282-3.816.19.19 0 0 0 .035-.095c2.436.155 3.11 1.452 3.116 1.464a.2.2 0 0 0 .181.115l.039-.004a.199.199 0 0 0 .161-.187 4.48 4.48 0 0 0-1.089-3.492 3.589 3.589 0 0 0-1.364-.82c.487-.508 1.026-.978 1.61-1.48.805-.69 1.716-1.474 2.864-2.64a238.848 238.848 0 0 1 5.647-5.535 7.393 7.393 0 0 0 3.328-4.545 17.823 17.823 0 0 1 2.538-3.923 25.042 25.042 0 0 0 4.679-8.931l.176.009c.213.01.426.021.64.021a19.818 19.818 0 0 0 2.933-.216 33.132 33.132 0 0 0 6.573-1.773 14.654 14.654 0 0 0-1.414 6.866 21.132 21.132 0 0 0 .58 3.264c.083.36.166.718.242 1.079a28.11 28.11 0 0 1 .551 7.205 5.239 5.239 0 0 0-1.775-.3 7.952 7.952 0 0 0-1.484.15.2.2 0 0 0-.052.373c.028.015 2.85 1.49 3.088 2.73a.687.687 0 0 1-.173.62c-1.549 1.791-2.066 3.39-1.539 4.753a3.807 3.807 0 0 0 3.31 1.94c.063 0 .126-.002.187-.006l.296-.027a5.124 5.124 0 0 1 .558-.037 2.507 2.507 0 0 1 1.759.674 10.317 10.317 0 0 0 5.54 1.985 5.825 5.825 0 0 0 1.077-.098 5.228 5.228 0 0 0 3.6-2.728 2.423 2.423 0 0 0 2.51-3.655zM68.44 58.325a.315.315 0 0 0 .067.042.26.26 0 0 0 .048.005.201.201 0 0 0 .196-.16 6.697 6.697 0 0 1 1.463-3.002 13.61 13.61 0 0 1 1.186-1.178l.362-.333a24.117 24.117 0 0 0 4.09-5.027 13.152 13.152 0 0 0 3.369.996 70.882 70.882 0 0 1-5.746 11.269 5.851 5.851 0 0 1-2.009 2.207 5.71 5.71 0 0 1-2.07.517 40.55 40.55 0 0 1-4.782.356c-.327 0-.676-.008-1.041-.02a8.114 8.114 0 0 0 2.454-1.313l.007.05a1.831 1.831 0 1 0-1.063-2.318 3.5 3.5 0 0 1-.79.09 8.322 8.322 0 0 1-1.814-.273l-.323-.066a5.496 5.496 0 0 0 1.446-2.06c.708.002 1.421.056 2.246.12.429.033.886.067 1.384.098q.375.024.719.024c.212 0 .41-.01.601-.024zm6.543-11.66a6.442 6.442 0 0 1 .499-1.64 2.261 2.261 0 0 1 .59-.842.52.52 0 0 1 .308-.073 2.409 2.409 0 0 1 .76.16l-.192.633c-.04-.063-.063-.108-.063-.108a.205.205 0 0 0-.225-.14h-.02a.203.203 0 0 0-.14.246c.044.16.547 1.57 4.689 1.888h.007a.2.2 0 0 0 .152-.33.398.398 0 0 0-.136-.068 15.03 15.03 0 0 1-1.067-.122l.263-.579 1.242.324c.166.048.164.371.122.577a5.769 5.769 0 0 1-1.188 2.495.875.875 0 0 1-.254.236.584.584 0 0 1-.275.054 2.017 2.017 0 0 1-.25-.02l-.216-.033-.006-.008a.46.46 0 0 0-.08-.004v-.002a12.833 12.833 0 0 1-3.593-1.047l-.013-.003a.98.98 0 0 0-.05-.028l-.03-.008c-.003-.003-.001-.009-.005-.01a1.55 1.55 0 0 1-.788-.669 1.585 1.585 0 0 1-.041-.88zm-9.68 14.008.001-.005a.655.655 0 0 0 .015-.089.165.165 0 0 0 .021-.047 1.424 1.424 0 0 1 1.33-.925 1.437 1.437 0 0 1 .5.09 1.341 1.341 0 0 1 .506.369 2.24 2.24 0 0 1-.748.622.244.244 0 0 0-.098-.08.459.459 0 0 0-.158-.029.451.451 0 0 0-.187.04.45.45 0 0 0 .03.83.449.449 0 0 0 .342-.011.447.447 0 0 0 .235-.252.284.284 0 0 0 0-.128 2.75 2.75 0 0 0 .838-.668l.035.048a1.421 1.421 0 0 1-1.292 2.012 1.431 1.431 0 0 1-.498-.09 1.407 1.407 0 0 1-.872-1.687zm19.17-22.6a.534.534 0 0 0-.226-.165.55.55 0 0 0-.19-.034.54.54 0 0 0-.207.067 7.576 7.576 0 0 0 .53-1.173 1.3 1.3 0 0 1 .261-.46.097.097 0 0 0 .013-.02.093.093 0 0 0 .017-.013 1.094 1.094 0 0 1 .43-.28.265.265 0 0 0 .108.054l.007-.001a19.57 19.57 0 0 1-.744 2.025zm.241-3.858a.146.146 0 0 1 .046.147c-.03.113-.063.261-.1.429-.087.385-.194.86-.33 1.277a1.677 1.677 0 0 0-.33.575 11.063 11.063 0 0 1-1.715 2.943.2.2 0 0 0 .025.281.376.376 0 0 0 .129.046.38.38 0 0 0 .154-.072c.003-.004.22-.269.514-.688-.022.235-.034.455-.045.683a2.724 2.724 0 0 1-.307 1.43.202.202 0 0 0 .055.275.2.2 0 0 0 .28-.054 3.047 3.047 0 0 0 .373-1.65c.01-.221.022-.45.046-.702a1.1 1.1 0 0 1 .465-.832l.139-.017a.176.176 0 0 1 .111.119l.067.264v.002l.001.004a3.768 3.768 0 0 1-.542 3.45 12.633 12.633 0 0 1-1.6 2.062 2.482 2.482 0 0 1-1.802.826h-.018a.64.64 0 0 1-.468-.198.198.198 0 0 0-.167-.09.386.386 0 0 0-.113.035.2.2 0 0 0-.053.277.92.92 0 0 0 .591.327l-.373.841a5.263 5.263 0 0 1-2.499-.974.187.187 0 0 0 .035-.049l.377-1.24c.06.058.117.116.18.171a.374.374 0 0 0 .134.052.392.392 0 0 0 .148-.064.201.201 0 0 0-.014-.283 1.927 1.927 0 0 1-.847-1.355 4.827 4.827 0 0 1 .405-1.772l.062-.155a3.588 3.588 0 0 0 .335-1.23 3.716 3.716 0 0 0-.091-.798 2.12 2.12 0 0 1-.04-.98.339.339 0 0 1 .227-.26c.054 0 .15.03.3.175a2.964 2.964 0 0 1 1.021 2.145.228.228 0 0 0 .009.036 4.245 4.245 0 0 1-.61.378.2.2 0 0 0-.105.112.388.388 0 0 0 .005.154.202.202 0 0 0 .182.116l.082-.017a5.227 5.227 0 0 0 2.737-3.565l.104-.534c.311-1.6.468-2.403.929-2.76a.146.146 0 0 1 .1-.028.624.624 0 0 1 .067.004.201.201 0 0 1 .129.145 10.194 10.194 0 0 1-.223 2.592.285.285 0 0 0 .01.08 28.64 28.64 0 0 1-1.017 2.121.201.201 0 0 0 .082.273.44.44 0 0 0 .094.022.199.199 0 0 0 .175-.102A24.892 24.892 0 0 0 83.816 35a1.25 1.25 0 0 1 .685-.788l-.039-.092zM63.91 53.34a1.406 1.406 0 0 1 .332.04 1.347 1.347 0 0 1 .548.301 2.213 2.213 0 0 1-.665.712.244.244 0 0 0-.11-.069 1.78 1.78 0 0 0-.102-.01.45.45 0 0 0-.101.886c.006.002.096.012.103.012a.446.446 0 0 0 .436-.347.283.283 0 0 0-.016-.126 2.742 2.742 0 0 0 .748-.767l.04.044a1.423 1.423 0 0 1-.463 1.957 1.43 1.43 0 0 1-.745.21 1.422 1.422 0 0 1-.005-2.843zm-6.323 4.075.089.113a10.172 10.172 0 0 0 1.354.122 3.84 3.84 0 0 0 .811-.08 5.65 5.65 0 0 0 2.676-1.676 1.803 1.803 0 0 0 .904.605 4.918 4.918 0 0 1-1.845 3.564l-.004.008a9.585 9.585 0 0 0-.295-.06 9.125 9.125 0 0 0-1.437-.113 8.96 8.96 0 0 0-1.79.18.195.195 0 0 0-.128.085.388.388 0 0 0-.03.15.206.206 0 0 0 .225.157l.01-.001a8.753 8.753 0 0 1 1.716-.171 8.844 8.844 0 0 1 1.37.108c.363.059.72.14 1.07.22a8.616 8.616 0 0 0 1.909.286 3.925 3.925 0 0 0 .686-.076 1.812 1.812 0 0 0 .74 1.656 9.163 9.163 0 0 1-5.49 1.674v.1l-.17-.1a16.252 16.252 0 0 1-4.306-.72 2.224 2.224 0 0 0-1.96-2.026 2.474 2.474 0 0 0-.269-.016 2.253 2.253 0 0 0-2.24 1.985 2.21 2.21 0 0 0 .355 1.487 14.412 14.412 0 0 1-10.604 7.587 2.246 2.246 0 0 0-.903-1.364 15.832 15.832 0 0 0 2.052-3.149l.21-.441a8.561 8.561 0 0 1 .84-1.507 2.484 2.484 0 0 1 1.71-1.077.202.202 0 0 0 .137-.069.39.39 0 0 0 .047-.146.202.202 0 0 0-.21-.184h-.003a2.88 2.88 0 0 0-2.002 1.236 8.853 8.853 0 0 0-.88 1.578l-.183.382a3.679 3.679 0 0 1-1.717.6h-.004l-.004-.002-.01.003a.337.337 0 0 0-.04.005 7.983 7.983 0 0 1-.896.046c-.6 0-1.213-.052-1.76-.099a11.532 11.532 0 0 1-3.507-.958 2.236 2.236 0 0 0 .342-1.212 1.369 1.369 0 0 0-.017-.163 9.858 9.858 0 0 0 5.741-2.604c.248-.234.486-.483.721-.728a9.703 9.703 0 0 1 1.428-1.306 5.074 5.074 0 0 1 2.342-.853l.266-.024a3.504 3.504 0 0 0 .97-.172 1.248 1.248 0 0 0 .86-1.05c.008-.278-.016-1.207-.649-1.544a10.203 10.203 0 0 0-1.58-.39c-2.252-.23-6.158-2.926-6.255-2.98a10.249 10.249 0 0 0-2.91-.432 11.653 11.653 0 0 0-8.276 3.915 2.221 2.221 0 0 0-1.075-.515c1.623-7.835 9.735-11.644 9.817-11.681a.199.199 0 0 0 .104-.112.391.391 0 0 0-.005-.153.192.192 0 0 0-.2-.103.522.522 0 0 0-.064.004c-.004.001-.42.2-1.07.576-.03-.69-.029-3.141 1.38-4.376a9.166 9.166 0 0 1 1.608 1.036.405.405 0 0 0 .132.049.385.385 0 0 0 .15-.067.2.2 0 0 0-.017-.282 10.196 10.196 0 0 0-6.241-2.235 9.226 9.226 0 0 0-2.282.296 2.049 2.049 0 0 0-.58-1.398 21.45 21.45 0 0 1 11.838-3.724 20.203 20.203 0 0 1 5.617.803 21.477 21.477 0 0 1 7.321 3.73.405.405 0 0 0 .129.046.391.391 0 0 0 .151-.068.203.203 0 0 0-.025-.286 14.815 14.815 0 0 0-.932-.697 11.784 11.784 0 0 1 2.461-.232 20.32 20.32 0 0 1 7.846 1.728 2.226 2.226 0 0 0 .073 1.25c-1.245.088-8.152.854-9.103 6.682l-1.32-2.85a7.868 7.868 0 0 1-.422-1.247 4.614 4.614 0 0 0-.931-2.014 4.493 4.493 0 0 0-3.258-1.626l-.132.003a3.188 3.188 0 0 0-2.034 1.013 4.251 4.251 0 0 1-1.179.808 7.383 7.383 0 0 1-1.334.35 4.346 4.346 0 0 0-2.35.996 4.647 4.647 0 0 0-1.475 3.83 8.059 8.059 0 0 0 2.017 4.057c2.217 2.755 4.295 4.158 6.538 4.415a6.362 6.362 0 0 0 .714.04 7.691 7.691 0 0 0 2.873-.591 5.077 5.077 0 0 0 1.944-1.415 5.252 5.252 0 0 0 1.38 3.505 2.229 2.229 0 0 0-.491.3.202.202 0 0 0-.025.282.398.398 0 0 0 .153.07.382.382 0 0 0 .129-.047 2.626 2.626 0 0 1 1.749-.517 6.145 6.145 0 0 1 .698.042c.167.019.335.041.502.064l.014-.098zm14.115 63.047a3.483 3.483 0 0 1-2.941-1.684c-.47-1.215.024-2.677 1.469-4.347a1.092 1.092 0 0 0 .263-.958c-.207-1.075-1.86-2.18-2.788-2.725a7.161 7.161 0 0 1 .883-.057 3.743 3.743 0 0 1 3.95 2.846c.046.102.295.607.709.623.123 0 .306-.062.473-.364a3.026 3.026 0 0 0 .183-.474 4.33 4.33 0 0 1 1.165-1.981l.006-.012.011-.005a5.07 5.07 0 0 1 3.458-1.057c.126 0 .254.002.386.007-1.076.45-2.866 1.408-3.443 2.972a3.536 3.536 0 0 0 .574 3.254 4.507 4.507 0 0 0 1.634 2.063 5.484 5.484 0 0 0 3.154.952 6.682 6.682 0 0 0 2.067-.346 2.46 2.46 0 0 0 .173.353 2.376 2.376 0 0 0 1.225.984 4.823 4.823 0 0 1-3.272 2.453 5.363 5.363 0 0 1-1 .09 9.847 9.847 0 0 1-5.29-1.892 3.109 3.109 0 0 0-1.118-.638 3.215 3.215 0 0 0-.902-.127 5.86 5.86 0 0 0-.636.044l-.234.021zm-.842-28.428a.254.254 0 0 0 .005-.037 75.786 75.786 0 0 0 1.65-.644.198.198 0 0 0 .109-.107.398.398 0 0 0 .002-.152c-.027-.068-.087-.114-.211-.114a.443.443 0 0 0-.05.002 38.494 38.494 0 0 1-8.633 2.578 19.318 19.318 0 0 1-2.828.203q-.498 0-.994-.023h-.003l-.004.002-.005-.002a17.945 17.945 0 0 1-4.72-.843l.004-.013c.039-.105.077-.21.108-.318a15.84 15.84 0 0 0 .356-1.697c.07-.415.144-.844.242-1.257a7.628 7.628 0 0 1 1.68-3.371 9.556 9.556 0 0 1 1.78-1.453 9.525 9.525 0 0 1 4.003-.739c.871 0 1.757.065 2.663.137h.008c.005 0 .005-.007.01-.008.016.004.026.009.043.013l.068.005a.133.133 0 0 0 .044-.009l.01-.007a.342.342 0 0 0 .094.028c.927.074 1.978.159 2.998.159a14.315 14.315 0 0 0 1.77-.1c.28-.037.56-.08.912-.137a10.92 10.92 0 0 1 1.69-.178l.21.004a2.952 2.952 0 0 1 2.362 1.063 4.086 4.086 0 0 1 .555 2.132 42.768 42.768 0 0 1-1.018 12.426c-.083.354-.17.708-.27 1.11-.222.905-.452 1.84-.606 2.79a39.838 39.838 0 0 0-.157 7.652 4.82 4.82 0 0 0-1.217 2.078 2.706 2.706 0 0 1-.15.394c-.069.125-.124.158-.144.158-.075-.003-.23-.182-.31-.344a4.167 4.167 0 0 0-2.198-2.671 28.4 28.4 0 0 0-.557-7.436c-.08-.385-.168-.767-.257-1.15a20.613 20.613 0 0 1-.557-3.139 14.533 14.533 0 0 1 1.513-6.985zm-33.712 31.689a.199.199 0 0 0-.137.07.382.382 0 0 0-.048.143.205.205 0 0 0 .215.185 8.3 8.3 0 0 1 .615-.022h.08a5.654 5.654 0 0 0-1.255 3.972c.177 1.695 1.26 3.26 3.28 4.68a2.399 2.399 0 0 0-.036 1 1.927 1.927 0 0 0 .067.236 4.765 4.765 0 0 1-1.103.123 7.328 7.328 0 0 1-3.1-.726 5.83 5.83 0 0 1-2.913-3.387 12.266 12.266 0 0 1-.323-1.378 6.29 6.29 0 0 0-.927-2.62 6.482 6.482 0 0 0-.645-.713 4.824 4.824 0 0 1-.713-.824 2.631 2.631 0 0 1 .025-2.665 3.384 3.384 0 0 1 2.297-1.534l.111-.02a5.445 5.445 0 0 0 2.134-.745 4.221 4.221 0 0 1-.324 1.044c-.047.1-.005.218.18.286a.198.198 0 0 0 .182-.114 5.888 5.888 0 0 0-.293-5.039 2.946 2.946 0 0 1 1.486.998 4.714 4.714 0 0 1 .59 3.754.748.748 0 0 0 .174.618.734.734 0 0 0 .567.244c.001 0 .17-.006.262-.006a4.089 4.089 0 0 1 2.861 1.013 3.77 3.77 0 0 1 .975 2.603 4.719 4.719 0 0 0-3.564-1.203q-.34 0-.72.027zm1.831-2.662a5.817 5.817 0 0 0-1.439-.175l-.248.005a.299.299 0 0 1-.225-.112.34.34 0 0 1-.08-.286 7.096 7.096 0 0 0 .045-2.315 15.005 15.005 0 0 0 2.9-3.758c.148-.287.288-.584.431-.886.208-.438.422-.89.668-1.316a12.463 12.463 0 0 1 5.74-4.778 3.931 3.931 0 0 0 .176.441.198.198 0 0 0 .177.106l.092-.023a.197.197 0 0 0 .098-.117.397.397 0 0 0-.014-.153c-.018-.036-1.823-3.625 1.566-8.894a.189.189 0 0 0 .026-.125 10.581 10.581 0 0 0 2.402-1.039 9.046 9.046 0 0 0 3.745-4.364 18.275 18.275 0 0 0 4.596.846 25.011 25.011 0 0 1-4.586 8.707 17.658 17.658 0 0 0-2.605 4.055 7.266 7.266 0 0 1-3.217 4.37c-.7.661-3.174 3.015-5.662 5.543-1.145 1.164-2.051 1.944-2.853 2.632a17.513 17.513 0 0 0-1.733 1.636zm3.963-21.57a.49.49 0 0 0 .158.095.507.507 0 0 0 .13.016.519.519 0 0 0 .5-.385.517.517 0 0 0-.366-.63.54.54 0 0 0-.137-.018.502.502 0 0 0-.257.071.516.516 0 0 0-.239.315.505.505 0 0 0 .009.187 2.878 2.878 0 0 1-1.275.349l-.028.003a1.823 1.823 0 0 1 1.794-2.263 1.854 1.854 0 0 1 1.403.644.58.58 0 0 0 .022.025 1.854 1.854 0 0 1-1.899 2.98 1.842 1.842 0 0 1-1.13-.858 1.392 1.392 0 0 1-.063-.14 3.332 3.332 0 0 0 1.378-.392zm2.504-.69a2.238 2.238 0 0 0-.38-.986 9.173 9.173 0 0 0 2.416-2.191 6.334 6.334 0 0 0 .332-5.628.199.199 0 0 0-.212-.121h-.043a.2.2 0 0 0-.114.104.387.387 0 0 0-.006.154 7.306 7.306 0 0 1 .455 2.522 10.297 10.297 0 0 1-4.948 1.262 10.842 10.842 0 0 1-2.554-.309 3.882 3.882 0 0 1-1.44-.626 2.228 2.228 0 0 0 .46-1.182 6.378 6.378 0 0 0 5.71-4.072 12.258 12.258 0 0 0 .375-1.385 11.818 11.818 0 0 1 .355-1.31c.066-.185.126-.387.183-.582.198-.678.405-1.377.99-1.57a26.652 26.652 0 0 0 4.263.344 28.393 28.393 0 0 0 10.684-2.09.63.63 0 0 0 .078-.042 6.524 6.524 0 0 0 2.858 2.613 24.215 24.215 0 0 0-1.482-.05 13.877 13.877 0 0 0-1.686.095.217.217 0 0 0 .142-.192.207.207 0 0 0-.217-.183 6.178 6.178 0 0 0-2.502 1.059l-.003.003-.004.002-.017.01a10.134 10.134 0 0 0-1.868 1.52 8.029 8.029 0 0 0-1.772 3.548c-.1.422-.175.854-.248 1.283a15.267 15.267 0 0 1-.346 1.655 7.55 7.55 0 0 1-.154.476l-.005.017-.011.013a.25.25 0 0 0-.008.034 8.605 8.605 0 0 1-3.64 4.296 11.007 11.007 0 0 1-5.64 1.509zm-10.117-7.31a3.343 3.343 0 0 0 1.392.326.5.5 0 0 0 .094.162.513.513 0 0 0 .356.142h.013a.517.517 0 0 0 .345-.891.522.522 0 0 0-.37-.143.513.513 0 0 0-.362.16.498.498 0 0 0-.084.17 3.148 3.148 0 0 1-1.317-.322 1.82 1.82 0 0 1 .427-.778 1.866 1.866 0 0 1 2.636-.062 1.865 1.865 0 1 1-3.13 1.236zM46.83 79.547h.004c.62.06 1.904.16 3.552.16A33.615 33.615 0 0 0 62.01 77.79a.407.407 0 0 1 .148-.028.389.389 0 0 1 .34.201 2.547 2.547 0 0 1 .324 1.493 1.623 1.623 0 0 1-1.004 1.308 27.958 27.958 0 0 1-10.534 2.058 26.268 26.268 0 0 1-4.252-.343l-.007-.001-.007-.001a1.021 1.021 0 0 1-.548-.276c-.363-.366-.668-1.082-.056-2.41a.435.435 0 0 1 .416-.246zm.435-8.01a.23.23 0 0 0-.192-.264.2.2 0 0 0-.187.138 17.939 17.939 0 0 1-3.397 5.4 30.131 30.131 0 0 0-2.435 3.31l-.28.477a7.202 7.202 0 0 1-1.237 1.727 4.917 4.917 0 0 1-2.305 1.108 10.495 10.495 0 0 1-2.33.246 25.454 25.454 0 0 1-3.275-.28 28.117 28.117 0 0 0-3.594-.297 11.002 11.002 0 0 0-2.278.228 10.12 10.12 0 0 0 .743-3.822h-.015a20.948 20.948 0 0 0 3.805-.652c.555-.131 1.13-.267 1.695-.377a12.989 12.989 0 0 1 2.487-.269 6.804 6.804 0 0 1 2.99.633.2.2 0 0 0 .191-.263.394.394 0 0 0-.101-.116 6.174 6.174 0 0 0-1.736-.51 8.251 8.251 0 0 0 1.429-3.368 2.213 2.213 0 0 0 .922.519 2.255 2.255 0 0 0 2.754-1.606 2.16 2.16 0 0 0 .06-.637 14.824 14.824 0 0 0 10.825-7.651 2.225 2.225 0 0 0 1.345.69 2.406 2.406 0 0 0 .276.015 2.253 2.253 0 0 0 2.234-1.985.69.69 0 0 0 .004-.068 16.902 16.902 0 0 0 3.836.676 19.395 19.395 0 0 1 2.258 12.918 33.38 33.38 0 0 1-11.377 1.848c-1.283 0-2.327-.06-3.006-.114a16.162 16.162 0 0 0-1.203-5.355 11.183 11.183 0 0 0 1.093-2.3zm-25.5 11.92a.17.17 0 0 0-.032-.026 2.375 2.375 0 0 0 .177-.251l.737-.006a2.737 2.737 0 0 1-.206.327.202.202 0 0 0 .038.281.409.409 0 0 0 .121.04.384.384 0 0 0 .158-.076c1.038-1.34.785-3.136.448-4.55a.207.207 0 0 0-.225-.15h-.016a.226.226 0 0 0-.148.242l.015.067-.605-.026a2.02 2.02 0 0 1 .577-.822.988.988 0 0 1 .406-.105 8.75 8.75 0 0 1 1.023-.076 6.867 6.867 0 0 1 .863.062 1.139 1.139 0 0 1 1.002 1.124 9.85 9.85 0 0 1-.796 3.922l-.015.034q-.127.293-.274.576a1.052 1.052 0 0 1-.352.45 1.166 1.166 0 0 1-.568.093 6.62 6.62 0 0 1-1.757-.238.726.726 0 0 1-.538-.743.394.394 0 0 0-.032-.149zm-9.699.308a.093.093 0 0 0 .03-.02l.007.004a1.297 1.297 0 0 1 .492-.096l.15.002a7.786 7.786 0 0 0 1.153-.108.535.535 0 0 0-.152.36.558.558 0 0 0 .115.319c-.318.009-.64.016-.941.016-.514 0-.97-.012-1.25-.039l-.018-.116a1.098 1.098 0 0 1 .414-.322zm2.584.543a.23.23 0 0 0-.143-.084l-.001-.003-.12-.07a1.759 1.759 0 0 1-.163-.1.178.178 0 0 1-.077-.145.148.148 0 0 1 .063-.124 1.065 1.065 0 0 1 .627-.203 1.315 1.315 0 0 1 .313.04c.253.064.478.13.7.197a4.26 4.26 0 0 0 1.205.246 1.822 1.822 0 0 0 .45-.055.195.195 0 0 0 .124-.09.383.383 0 0 0 .023-.154.203.203 0 0 0-.22-.145h-.022a1.461 1.461 0 0 1-.35.042 4.007 4.007 0 0 1-1.1-.229 14.31 14.31 0 0 0-.658-.183c.492-.137.815-.256.82-.257a.2.2 0 0 0 .118-.255c-.025-.071-.091-.121-.218-.121h-.04a11.206 11.206 0 0 1-3.239.64l-.143-.002a1.702 1.702 0 0 0-.616.122 14.03 14.03 0 0 1-1.317-.115c-.17-.02-.32-.038-.434-.047a.145.145 0 0 1-.124-.092c-.021-.052-.013-.106.067-.199a1.272 1.272 0 0 1 .973-.386c.142.005.286.008.432.008a24.897 24.897 0 0 0 3.502-.304.2.2 0 0 0 .13-.08.407.407 0 0 0 .036-.148.207.207 0 0 0-.231-.166h-.008a30.08 30.08 0 0 1-2.335.25.286.286 0 0 0-.066-.032 10.017 10.017 0 0 1-2.518-.65.199.199 0 0 1-.094-.172.17.17 0 0 1 .076-.15 1.51 1.51 0 0 1 .85-.191 15.999 15.999 0 0 1 2.065.233l.536.078a4.807 4.807 0 0 0 .716.053 5.358 5.358 0 0 0 3.557-1.447.2.2 0 0 0-.145-.339.407.407 0 0 0-.144.06 4.2 4.2 0 0 1-.56.45.255.255 0 0 0-.031-.02 2.95 2.95 0 0 1-1.685-1.676c-.079-.17-.097-.293-.054-.366a.355.355 0 0 1 .303-.103h.006a2.17 2.17 0 0 1 .92.367 3.672 3.672 0 0 0 .714.349 2.65 2.65 0 0 0 .816.107c.15 0 .299-.007.458-.015l.164-.007c.112-.004.232-.007.357-.007a4.279 4.279 0 0 1 1.45.214 1.962 1.962 0 0 1 .994 1.248c.027.066.087.112.209.112a.534.534 0 0 0 .054-.003.224.224 0 0 0 .107-.26c-.032-.08-.068-.153-.103-.229l1.289.056a5.283 5.283 0 0 1-.081 3.017l-.738.006a.71.71 0 0 0 .04-.103 1.009 1.009 0 0 0-.097-.847.202.202 0 0 0-.161-.083.391.391 0 0 0-.119.04.197.197 0 0 0-.08.13.393.393 0 0 0 .037.15.634.634 0 0 1 .032.508 2.386 2.386 0 0 1-1.383 1.44 12.979 12.979 0 0 1-2.517.84 2.438 2.438 0 0 1-.901.146 4.56 4.56 0 0 1-2.296-.692zm11.752-4.805.01.006h-.014zM53.86 63.891a.494.494 0 0 0 .072-.17.51.51 0 0 0-.106-.38.543.543 0 0 0-.406-.197.501.501 0 0 0-.317.108.517.517 0 0 0-.089.726.517.517 0 0 0 .345.194l.063.003a.344.344 0 0 0 .12-.039 3.17 3.17 0 0 1 .532 1.246 1.846 1.846 0 0 1-.663.132 1.74 1.74 0 0 1-.213-.014 1.855 1.855 0 0 1 .218-3.696 1.767 1.767 0 0 1 .227.015 1.849 1.849 0 0 1 1.627 1.727.088.088 0 0 0 .037.056.157.157 0 0 0-.04.102 1.295 1.295 0 0 1-.005.18 1.847 1.847 0 0 1-.697 1.235 1.361 1.361 0 0 1-.133.085 3.331 3.331 0 0 0-.572-1.313zm-13.734 4.811a4.223 4.223 0 0 0 1.285-.387 15.489 15.489 0 0 1-1.721 2.576 2.191 2.191 0 0 0-.377-.148 2.225 2.225 0 0 0-.563-.072c-.035 0-.07.005-.106.007a8.404 8.404 0 0 1 1.482-1.976zm-1.386 2.367a1.833 1.833 0 0 1 .472.061 1.855 1.855 0 1 1-2.129 2.588 3.366 3.366 0 0 0 1.368-.39.382.382 0 0 0 .29.11.516.516 0 0 0 .129-1.014.517.517 0 0 0-.63.368.499.499 0 0 0 .008.188 3.018 3.018 0 0 1-1.3.354 1.817 1.817 0 0 1-.002-.883 1.856 1.856 0 0 1 1.794-1.382zm45.982 49.157-.005-.009a.342.342 0 0 0-.077-.012l-.003-.002a2.029 2.029 0 0 1 .516-3.989 2.045 2.045 0 0 1 .472.057 2.002 2.002 0 0 1 .855.457 3.103 3.103 0 0 1-1.018 1.098.528.528 0 0 0-.181-.11.591.591 0 0 0-.124-.014.543.543 0 0 0-.125 1.073.612.612 0 0 0 .126.013.544.544 0 0 0 .527-.417.52.52 0 0 0-.012-.204 3.58 3.58 0 0 0 1.092-1.145 1.75 1.75 0 0 1 .12.158 2.024 2.024 0 0 1-2.163 3.046zM30.038 66.042a3.333 3.333 0 0 0 1.401.33.493.493 0 0 0 .092.16.517.517 0 1 0 .716-.748.498.498 0 0 0-.362-.142h-.008a.432.432 0 0 0-.447.33 3.19 3.19 0 0 1-1.319-.321 1.83 1.83 0 0 1 .429-.778 1.88 1.88 0 0 1 1.35-.578 1.864 1.864 0 0 1 1.348 3.15 1.88 1.88 0 0 1-1.35.578 1.863 1.863 0 0 1-1.863-1.82 1.367 1.367 0 0 1 .013-.16zm-4.704-4.712-.133-.005a1.847 1.847 0 0 1-.831-.282 2.858 2.858 0 0 1 .75-1.13.495.495 0 0 0 .173.068l.04.001a.517.517 0 0 0 .389-.856.533.533 0 0 0-.39-.178.519.519 0 0 0-.517.482.497.497 0 0 0 .04.18 3.344 3.344 0 0 0-.815 1.188 1.316 1.316 0 0 1-.116-.11 1.865 1.865 0 0 1 1.403-3.088l.135.005a1.865 1.865 0 0 1-.128 3.725zm1.022-20.834a.487.487 0 0 0 .106.156.51.51 0 0 0 .32.113l.06-.003a.518.518 0 0 0 .456-.575.506.506 0 0 0-.192-.344.514.514 0 0 0-.322-.114.52.52 0 0 0-.407.197.513.513 0 0 0-.068.17 3.349 3.349 0 0 0-1.336.516 1.856 1.856 0 1 1 3.667-.206l-.006.063a1.865 1.865 0 0 1-3.009 1.24 1.82 1.82 0 0 1-.525-.704 2.87 2.87 0 0 1 1.255-.509zm39.264-1.651a1.843 1.843 0 0 1 1.088.922 1.4 1.4 0 0 1 .056.14l-.036-.002a3.37 3.37 0 0 0-1.368.325.503.503 0 0 0-.152-.104.529.529 0 0 0-.16-.024.504.504 0 0 0-.234.056.517.517 0 0 0 .078.953.497.497 0 0 0 .159.025.526.526 0 0 0 .236-.057.51.51 0 0 0 .256-.302.5.5 0 0 0 .002-.19 2.96 2.96 0 0 1 1.187-.284h.14a1.826 1.826 0 0 1-.047.886 1.864 1.864 0 1 1-2.627-2.228 1.83 1.83 0 0 1 .848-.207 1.867 1.867 0 0 1 .574.091zM51.38 54.858a7.274 7.274 0 0 1-2.722.561 6.005 6.005 0 0 1-.666-.037c-2.132-.244-4.125-1.6-6.271-4.266a7.703 7.703 0 0 1-1.931-3.847 4.235 4.235 0 0 1 1.346-3.494 4.012 4.012 0 0 1 2.157-.9 7.682 7.682 0 0 0 1.407-.372 4.518 4.518 0 0 0 1.292-.88 2.846 2.846 0 0 1 1.79-.913l.127-.003a4.089 4.089 0 0 1 2.946 1.493 4.323 4.323 0 0 1 .845 1.855 8.149 8.149 0 0 0 .443 1.308l1.278 2.752a6.865 6.865 0 0 1 .777 2.432 4.343 4.343 0 0 1-2.817 4.31zm-9.113 76.405a1.978 1.978 0 0 1 1.788 1.1 3.117 3.117 0 0 1-1.355.66.521.521 0 0 0-.129-.166.538.538 0 0 0-.307-.095.544.544 0 1 0 .448.853.527.527 0 0 0 .062-.196 3.596 3.596 0 0 0 1.442-.677 1.627 1.627 0 0 1 .056.193 2.026 2.026 0 0 1-.326 1.528 2.042 2.042 0 0 1-3.692-.785 2.043 2.043 0 0 1 1.636-2.38 2.054 2.054 0 0 1 .377-.035z"/><path d="M48.084 50.42c-.082 0-.14-.004-.185-.006a.2.2 0 0 0-.2.18.203.203 0 0 0 .188.22c.026.002.106.008.22.008.438 0 1.489-.1 1.777-1.03.344-1.112-1.867-3.54-2.121-3.815a.205.205 0 0 0-.146-.061.39.39 0 0 0-.135.052.226.226 0 0 0-.011.284c.895.968 2.238 2.753 2.03 3.424s-1.061.743-1.417.743zm-3.948-4.898a.382.382 0 0 0 .021-.153c-.022-.085-.094-.142-.225-.142h-.019c-2.76.723-2.42 2.64-2.417 2.659a.201.201 0 0 0 .196.16l.04-.004a.195.195 0 0 0 .127-.085.39.39 0 0 0 .03-.15c-.013-.063-.278-1.565 2.125-2.194a.195.195 0 0 0 .122-.091zm3.487-1.335a.384.384 0 0 0 .133-.051 2.406 2.406 0 0 1 1.492-.488 3.538 3.538 0 0 1 1.379.317.203.203 0 0 0 .182-.12.196.196 0 0 0 .004-.151.374.374 0 0 0-.105-.112 3.522 3.522 0 0 0-1.455-.333 2.801 2.801 0 0 0-1.763.59.378.378 0 0 0-.067.137.393.393 0 0 0 .05.144.387.387 0 0 0 .15.067zm3.042 7.167a.794.794 0 0 0-.078.005 4.936 4.936 0 0 1-2.225.547 4.105 4.105 0 0 1-1.953-.457.206.206 0 0 0-.104-.03.381.381 0 0 0-.17.097.202.202 0 0 0 .071.278 4.61 4.61 0 0 0 2.16.51 5.343 5.343 0 0 0 2.402-.587.202.202 0 0 0 .088-.27.186.186 0 0 0-.191-.093zm4.748 18.538c.051.005.103.007.154.007a1.47 1.47 0 0 0 1.46-1.32 1.474 1.474 0 0 0-1.313-1.613 1.422 1.422 0 0 0-.144-.007 1.47 1.47 0 0 0-.156 2.933zm.15-2.533a1.036 1.036 0 0 1 .11.006 1.072 1.072 0 0 1 .955 1.175 1.068 1.068 0 0 1-1.068.958l-.107-.005a1.07 1.07 0 0 1-.954-1.174 1.067 1.067 0 0 1 1.064-.96zm.055 6.344a1.47 1.47 0 0 0 1.312 1.613c.051.005.102.007.154.007a1.47 1.47 0 0 0 1.46-1.32 1.474 1.474 0 0 0-1.313-1.613 1.56 1.56 0 0 0-.15-.008 1.468 1.468 0 0 0-1.463 1.321zm.398.04a1.067 1.067 0 0 1 1.064-.96 1.028 1.028 0 0 1 .11.005 1.073 1.073 0 0 1 .955 1.176 1.068 1.068 0 0 1-1.06.959 1.137 1.137 0 0 1-.114-.006 1.059 1.059 0 0 1-.721-.387 1.071 1.071 0 0 1-.234-.788z"/><path class="cls-5" d="M64.407 86.878 60.73 88.62l3.871 2.129 3.677-1.936-3.871-1.935zm6.679 12.909 1.358 3.246 1.993-3.259-1.525-3.253-1.826 3.266zm-19.26.252-2.709 2.516.967 3.097 2.517-2.323-.775-3.29zm-7.378 12.277-3.135.987-.404 2.855 2.906-.905.633-2.937z"/><path d="M12.231 7.512h1.384v7.17c0 2.846-1.4 3.72-3.243 3.72a4.502 4.502 0 0 1-1.479-.254l.207-1.129a3.298 3.298 0 0 0 1.16.206c1.24 0 1.971-.556 1.971-2.655zm3.919 19.471c0 3.689-2.242 5.644-4.976 5.644-2.83 0-4.817-2.195-4.817-5.437 0-3.402 2.114-5.628 4.976-5.628 2.925 0 4.817 2.242 4.817 5.42zm-8.314.175c0 2.29 1.24 4.34 3.418 4.34 2.193 0 3.433-2.02 3.433-4.452 0-2.13-1.112-4.356-3.418-4.356-2.289 0-3.433 2.115-3.433 4.467zm-.366 8.803h1.384v5.168H8.9c.287-.413.573-.795.843-1.145l3.275-4.023h1.717l-3.88 4.548 4.18 6.167H13.4l-3.529-5.261-1.017 1.176v4.085H7.47zm6.32 19.915H9.623v3.863h4.642V60.9H8.241V50.185h5.787v1.16H9.624v3.387h4.165zm-6.026 8.677a14.353 14.353 0 0 1 2.655-.223 4.385 4.385 0 0 1 3.1.874 2.67 2.67 0 0 1 .843 2.035 2.813 2.813 0 0 1-2.019 2.735v.048a2.669 2.669 0 0 1 1.573 2.162 17.08 17.08 0 0 0 .828 2.94h-1.431a13.855 13.855 0 0 1-.716-2.559c-.318-1.478-.89-2.034-2.146-2.082H9.147v4.642H7.764zm1.383 4.88h1.415c1.479 0 2.416-.81 2.416-2.035 0-1.383-1-1.987-2.464-2.002a5.704 5.704 0 0 0-1.367.126zm81.622 83.055h-1.384v-7.17c0-2.846 1.4-3.72 3.243-3.72a4.502 4.502 0 0 1 1.479.254l-.207 1.129a3.298 3.298 0 0 0-1.16-.206c-1.24 0-1.97.556-1.97 2.655zm-3.919-19.471c0-3.689 2.242-5.643 4.976-5.643 2.83 0 4.817 2.194 4.817 5.436 0 3.402-2.114 5.628-4.976 5.628-2.925 0-4.817-2.242-4.817-5.42zm8.314-.174c0-2.29-1.24-4.34-3.418-4.34-2.193 0-3.433 2.019-3.433 4.451 0 2.13 1.112 4.356 3.418 4.356 2.289 0 3.433-2.115 3.433-4.468zm.366-8.804h-1.384v-5.168H94.1a28.04 28.04 0 0 1-.843 1.145l-3.274 4.023h-1.718l3.88-4.548-4.18-6.167H89.6l3.53 5.261 1.017-1.176v-4.086h1.383zm-6.32-19.915h4.166v-3.863h-4.642V99.1h6.025v10.715h-5.787v-1.16h4.404v-3.387H89.21zm6.026-8.677a14.353 14.353 0 0 1-2.655.223 4.385 4.385 0 0 1-3.1-.874 2.67 2.67 0 0 1-.843-2.035 2.813 2.813 0 0 1 2.019-2.735v-.048a2.669 2.669 0 0 1-1.573-2.162 17.08 17.08 0 0 0-.828-2.94h1.431a13.855 13.855 0 0 1 .715 2.559c.319 1.478.891 2.034 2.147 2.082h1.303v-4.642h1.383zm-1.383-4.88h-1.415c-1.478 0-2.416.81-2.416 2.035 0 1.383 1 1.987 2.464 2.002a5.704 5.704 0 0 0 1.367-.126z"/></svg>