<svg id="JOKERS" xmlns="http://www.w3.org/2000/svg" viewBox="0 0 103 160"><defs><style>.cls-1{fill:#fff}.cls-2{fill:#d90000}.cls-3{fill:#f49908}.cls-4{fill:#663f2e}.cls-5{fill:#f9c19b}.cls-6{fill:#383838}</style></defs><path class="cls-1" d="M0 0h103v160H0z"/><path d="M92.583 45.221a2.265 2.265 0 0 0-4.171.345 2.165 2.165 0 0 0-.084.46 5.482 5.482 0 0 1-.872.07 6.904 6.904 0 0 1-5.21-2.574 16.99 16.99 0 0 1-.724-.966 13.942 13.942 0 0 0-.916-1.197 5.54 5.54 0 0 0-2.857-1.757 15.805 15.805 0 0 0-.947-11.88 8.836 8.836 0 0 0-.739-1.136 2.247 2.247 0 0 0-.207-1.18 2.279 2.279 0 0 0-2.043-1.284 2.225 2.225 0 0 0-.978.225 2.264 2.264 0 0 0-1.057 3.022 2.277 2.277 0 0 0 2.043 1.282 2.235 2.235 0 0 0 .435-.059 6.28 6.28 0 0 1-.711 3.054 4.423 4.423 0 0 1-3.27 1.882c-.52.08-1.056.117-1.605.157a13.17 13.17 0 0 0-2.483.341 4.925 4.925 0 0 0-2.005 1.097 5.808 5.808 0 0 0-3.473-1.145 5.428 5.428 0 0 0-1.717.272 10.925 10.925 0 0 0-1.49.663 12.782 12.782 0 0 1-1.233.567 6.562 6.562 0 0 1-1.787.177 13.721 13.721 0 0 1-2.575-.237 2.2 2.2 0 0 0-2.189-1.717 2.265 2.265 0 0 0-2.036 3.247 2.276 2.276 0 0 0 2.042 1.281 2.238 2.238 0 0 0 .98-.224 2.212 2.212 0 0 0 .846-.735 5.575 5.575 0 0 1 3.306 2.998 7.26 7.26 0 0 1 .655 5.51.318.318 0 0 0-.006.09l-.002.002a12.572 12.572 0 0 0-.675 1.645 6.565 6.565 0 0 0 1.13 5.83.2.2 0 0 0-.007.052 2.823 2.823 0 0 1-.424 1.78 2.1 2.1 0 0 1-1.836.897l-.118-.002a6.683 6.683 0 0 1-2.284-.673 13.295 13.295 0 0 0-5.043-1.387c-.174 0-.348.01-.522.025a2.112 2.112 0 0 0-.138-.432 2.146 2.146 0 0 0-1.925-1.21 2.09 2.09 0 0 0-.87.21 9.725 9.725 0 0 0-.266-1.551 19.725 19.725 0 0 0-1.03-2.751c-.205-.477-.417-.967-.6-1.458l-.094-.25a6.468 6.468 0 0 1-.6-3.55 1.979 1.979 0 0 0 .553-.164 2.324 2.324 0 0 0 1.117-2.07 1.73 1.73 0 0 0-.416-1.377 1.844 1.844 0 0 0-1.3-.41l.06-.185a1.722 1.722 0 0 0 1.065-.637 5.163 5.163 0 0 0 .776-1.806l.04-.164a2.395 2.395 0 0 1 .88-1.582 2.44 2.44 0 0 0 .706-.923.704.704 0 0 0-.092-.728.654.654 0 0 0-.508-.194 1.33 1.33 0 0 0-.208.017 3.49 3.49 0 0 0-2.166 1.1 4.596 4.596 0 0 1 .284-2.997l.23-.497c.727-1.559 1.091-2.342.885-3.043a.57.57 0 0 0-.392-.388.645.645 0 0 0-.171-.023.59.59 0 0 0-.395.15 4.752 4.752 0 0 0-.698.973 1.666 1.666 0 0 0-.204-1.297.563.563 0 0 0-.5-.242h-.01a.545.545 0 0 0-.451.341c-.04.098-.093.221-.164.386-.096.22-.199.484-.298.773a1.594 1.594 0 0 0-.113-.175.455.455 0 0 0-.397-.173h-.021a.446.446 0 0 0-.362.28 24.486 24.486 0 0 0-.78 2.597c-1.889 1.698-1.627 3.28-1.623 3.28a12.838 12.838 0 0 0 .088 2.682 2.925 2.925 0 0 0 .89 1.776l-.008.018-.02.139a3.784 3.784 0 0 0-.927-.144 1.603 1.603 0 0 0-.871.228 1.63 1.63 0 0 0-.67.935 2.873 2.873 0 0 0-.073 1.099 2.593 2.593 0 0 0 .588 1.517 2.486 2.486 0 0 0 1.118.666l.081.022a37.102 37.102 0 0 0 .82 9.141l.152.877a9.717 9.717 0 0 0 1.898 4.82 9.388 9.388 0 0 0 3.554 2.292 41.388 41.388 0 0 0 7.316 2.173c-.22.386-.471.846-.74 1.395a1.707 1.707 0 0 0-.06-.164 2.277 2.277 0 0 0-2.044-1.283 2.262 2.262 0 0 0-2.035 3.246 2.277 2.277 0 0 0 2.043 1.283 2.187 2.187 0 0 0 .67-.122 23.273 23.273 0 0 0-2.14 7.433A12.259 12.259 0 0 1 45 73.79a.147.147 0 0 0-.094-.026.738.738 0 0 0-.119.013 2.644 2.644 0 0 0-1.535 3.315.368.368 0 0 0 .09.097l.094.047a10.978 10.978 0 0 1-4.702 1.007.263.263 0 0 0-.067.022 46.234 46.234 0 0 0-4.525-1.097c-1.035-.213-2.013-.413-2.946-.65-.224-.058-.45-.12-.678-.184a9.362 9.362 0 0 0-2.451-.455 3.395 3.395 0 0 0-1.31.244 4.254 4.254 0 0 0-1.928 1.805c-1.889 3.061-1.51 6.812-1.145 10.441q.06.573.113 1.139a74.98 74.98 0 0 1 .472 12.318 6.066 6.066 0 0 0-3.612-.968c-.27 0-.553.01-.851.03a.2.2 0 0 0-.051.389c.031.01 3.172 1.085 3.827 3.137a3.177 3.177 0 0 1-.686 2.873 4.025 4.025 0 0 1-1.525 1.758 5.115 5.115 0 0 1-2.777.815 5.779 5.779 0 0 1-2.736-.721 2.017 2.017 0 0 0 .172-.523 2.121 2.121 0 1 0-2.09 1.763 2.01 2.01 0 0 0 .476-.073c.688 2.043 1.811 3.327 3.343 3.808a4.894 4.894 0 0 0 1.459.213 10.364 10.364 0 0 0 5.358-1.98 2.679 2.679 0 0 1 .972-.508 2.71 2.71 0 0 1 .641-.078 4.742 4.742 0 0 1 .72.071l.234.032a2.986 2.986 0 0 0 .312.017 3.711 3.711 0 0 0 3.182-1.757c.572-1.306.135-2.888-1.3-4.7a.665.665 0 0 1-.14-.606c.22-.931 2.065-2.025 3.12-2.525a.2.2 0 0 0-.037-.377 7.57 7.57 0 0 0-1.713-.214 4.798 4.798 0 0 0-1.741.319 15.43 15.43 0 0 1 1.453-5.102 20.927 20.927 0 0 0 .883-2.266 18.597 18.597 0 0 0 .876-5.138 16.217 16.217 0 0 0-.505-3.916 98.782 98.782 0 0 0 8.907 5.251c-.582.95-1.05 1.861-1.594 2.947a24.506 24.506 0 0 0-1.147 2.862l-.33.923a41.067 41.067 0 0 1-1.694 3.803c-2.164 4.424-2.219 4.82-2.099 5.782.235 1.861 1.712 2.876 4.953 5.102l.177.122c.64.44 1.358.935 2.147 1.492 3.006 2.12 5.833 4.38 7.148 5.435a3.291 3.291 0 0 0-1.07.515 4.303 4.303 0 0 0-1.5 3.18.2.2 0 0 0 .134.208.377.377 0 0 0 .066.01.393.393 0 0 0 .167-.09 3.14 3.14 0 0 1 2.656-1.004c.128 0 .265.007.405.016a.22.22 0 0 0 .014.033 4.912 4.912 0 0 1 .957 3.828c-.364 1.539-1.708 2.838-3.992 3.865-.006-.016-.01-.031-.017-.046a2.175 2.175 0 0 0-1.25-1.117 2.205 2.205 0 0 0-.722-.122 2.184 2.184 0 0 0-1.967 3.135 2.175 2.175 0 0 0 1.248 1.116 2.206 2.206 0 0 0 .723.122 2.193 2.193 0 0 0 2.063-1.465 1.006 1.006 0 0 0 .03-.106 5.954 5.954 0 0 0 2.536.57 5.787 5.787 0 0 0 1.84-.293 5.982 5.982 0 0 0 3.443-3.036 11.838 11.838 0 0 0 .509-1.31 5.64 5.64 0 0 1 1.135-2.215 5.755 5.755 0 0 1 .673-.562 5.063 5.063 0 0 0 .841-.743 2.923 2.923 0 0 0 .389-2.935 3.642 3.642 0 0 0-2.219-1.983 4.662 4.662 0 0 1-2.143-1.193 6.207 6.207 0 0 1 1.29-3.145.197.197 0 0 0 .036-.209c-.03-.071-.097-.118-.26-.125a3.155 3.155 0 0 0-2.144.892 3.48 3.48 0 0 0-.782 1.253 27.433 27.433 0 0 1-3.77-5.832c-1.047-1.982-2.443-4.103-4.89-4.972a28.299 28.299 0 0 0 1.885-1.774c1.878-1.914 5.07-5.923 6.193-9.148l.027.052h.013a8.2 8.2 0 0 0 4.95-1.798 19.81 19.81 0 0 0 3.475 2.405 2.215 2.215 0 0 0-.481 1.368 2.264 2.264 0 0 0 2.264 2.264 2.266 2.266 0 0 0 2.263-2.262 2.264 2.264 0 0 0-2.263-2.265 1.85 1.85 0 0 0-.257.026 17.21 17.21 0 0 1-1.38-6.02c.72.516 2.925 1.736 7.657 1.79a2.236 2.236 0 0 0 .25.843A2.264 2.264 0 1 0 71 88.87a2.258 2.258 0 0 0-3.072-.901 2.268 2.268 0 0 0-.637.53c-7.516-2.07-8.262-7.445-8.323-8.053a1.937 1.937 0 0 0 .572-.4 2.876 2.876 0 0 0 .651-2.074.204.204 0 0 0-.208-.182l-.03.001a23.369 23.369 0 0 0 3.377-5.877c.167-.368.327-.722.481-1.05l.067-.145a4.678 4.678 0 0 1 .704-1.199 1.511 1.511 0 0 1 .963-.52c.095.008.18.012.252.013l.03.007a1.07 1.07 0 0 1 .314.132c.508.558.787.813.815.837 2.136 2.767 5.592 5.962 8.924 6.695a16.26 16.26 0 0 0 .278 3.859c.078.426.18.852.285 1.3.122.507.247 1.031.328 1.55a12.855 12.855 0 0 1 .145 2.056 4.94 4.94 0 0 0-.595-.046 3.422 3.422 0 0 0-.36.018 1.302 1.302 0 0 0-1.128.64 1.696 1.696 0 0 0-.002 1.28 2.42 2.42 0 0 0 .7 1.076 1.934 1.934 0 0 1-.246.185 4.366 4.366 0 0 1-.52.241 3.634 3.634 0 0 0-.695.35 3.75 3.75 0 0 0-.899 1.002 3.147 3.147 0 0 1-.848.935l.052.085-.176-.012a1.04 1.04 0 0 0-.543.537.763.763 0 0 0 .52.897 1.119 1.119 0 0 0 .36.058 2.094 2.094 0 0 0 .586-.103 5.673 5.673 0 0 0 1.456-.668c-.052.135-.106.266-.157.408a5.6 5.6 0 0 1-.509 1.158 6.096 6.096 0 0 1-1.422 1.42 3.236 3.236 0 0 0-1.071 1.296.511.511 0 0 0 .078.514.519.519 0 0 0 .407.198l.083-.007c.17-.026.337-.068.504-.11a.715.715 0 0 0 .1.346.76.76 0 0 0 .494.363.994.994 0 0 0 .161.012 1.77 1.77 0 0 0 .696-.186.354.354 0 0 0 .192.066c.1.007.2.01.303.01a6.787 6.787 0 0 0 4.443-1.9c-.018.158-.038.313-.052.476-.03.35-.063.711-.12 1.003a1.822 1.822 0 0 0 .184 1.542.497.497 0 0 0 .237.173c.009.003.105.016.114.016.22 0 .412-.184.516-.495a24.492 24.492 0 0 0 1.126-5.199 8.015 8.015 0 0 0-.061-2.253l.013.001c.687 0 1.15-.741 1.318-1.06a1.608 1.608 0 0 0-.157-1.772 4.393 4.393 0 0 0-1.09-.966 37.382 37.382 0 0 0 1.293-6.348c.207-1.828.31-4.169-.752-6.06a11.438 11.438 0 0 0-2.23-2.586 27.173 27.173 0 0 1-.973-.955 29.022 29.022 0 0 1-2.69-3.48 25.529 25.529 0 0 0-3-3.737 10.166 10.166 0 0 1 3.039 1.424 2.243 2.243 0 1 0 1.115-1.515 1.946 1.946 0 0 0-.24.165 7.406 7.406 0 0 0-5.294-3.765 8.753 8.753 0 0 1-2.272-.775 1.656 1.656 0 0 1-.925-2.234 3.964 3.964 0 0 1 1.584-1.495 8.585 8.585 0 0 0 .99-.713 8.986 8.986 0 0 0 1.93-2.375c.064-.113.118-.224.172-.337l.014-.029a.382.382 0 0 0 .094-.03 14.818 14.818 0 0 1 7.688-2.228 12.932 12.932 0 0 1 1.92.144 12.117 12.117 0 0 0 1.816.146c3.26 0 4.589-1.57 4.981-2.173a2.227 2.227 0 0 0 .71.39 2.264 2.264 0 0 0 2.705-3.19z"/><path class="cls-2" d="M50.662 79.969a2.496 2.496 0 0 1-.35-.03c-.13-.019-.258-.048-.387-.072-.012.152-.68 9.854 9.326 15.248a2.16 2.16 0 0 1 .984-.544 16.755 16.755 0 0 1-1.262-8.768.092.092 0 0 1 .112-.084.099.099 0 0 1 .085.112 15.07 15.07 0 0 0-.13 2.141c.008.004.017.003.023.01.02.018 2.043 1.868 7.795 1.918a1.96 1.96 0 0 1 .345-1.114c-7.605-2.099-8.452-7.556-8.533-8.318a2.724 2.724 0 0 1-.867.135c-.053 0-.106 0-.158-.004a42.573 42.573 0 0 1-6.417-.815c-.021.017-.032.042-.055.057a.937.937 0 0 1-.511.128z"/><path class="cls-3" d="M48.394 63.47a1.95 1.95 0 0 0-3.699.51 3.232 3.232 0 0 1 1.59.111.405.405 0 0 1 .159-.143.42.42 0 0 1 .556.192v.001a.416.416 0 0 1-.195.557.411.411 0 0 1-.18.042.416.416 0 0 1-.377-.237.403.403 0 0 1-.032-.224 3.008 3.008 0 0 0-1.507-.1c-.011.004-.024-.003-.036-.006a1.961 1.961 0 1 0 3.72-.704zm-1.439 15.062a.829.829 0 0 0 .337.25 9.93 9.93 0 0 0 3.048.96.81.81 0 0 0 1.085-.587 19.65 19.65 0 0 0 .808-2.176.667.667 0 0 0-.05-.552c-.336-.589-1.542-.879-2.34-1.07-.164-.04-.312-.076-.432-.11a2.131 2.131 0 0 0-.552-.097.926.926 0 0 0-.156.013 1.39 1.39 0 0 0-.766.5 4.169 4.169 0 0 0-1.052 2.37.934.934 0 0 0 .037.4.096.096 0 0 1 .033.099zm1.194-.83a2.124 2.124 0 0 1 .537-1.207.788.788 0 0 1 .448-.284.892.892 0 0 1 .4.044c.054.015.121.03.195.048.405.098 1.016.245 1.208.58a.468.468 0 0 1 .038.378 9.573 9.573 0 0 1-.39 1.048.66.66 0 0 1-.227.31.498.498 0 0 1-.27.07 1.186 1.186 0 0 1-.176-.016 4.839 4.839 0 0 1-1.49-.468.52.52 0 0 1-.218-.171.5.5 0 0 1-.055-.332z"/><path class="cls-4" d="M51.608 79.235a2.029 2.029 0 0 1-.214.379 42.419 42.419 0 0 0 6.257.786 2.113 2.113 0 0 0 1.67-.56 2.56 2.56 0 0 0 .577-1.746 19.815 19.815 0 0 1-7.463-1.148.9.9 0 0 1-.01.092 19.962 19.962 0 0 1-.817 2.197z"/><path class="cls-1" d="M43.395 33.627a2.103 2.103 0 0 1-.63.81 3.521 3.521 0 0 0-.52.57 3.48 3.48 0 0 0-.44 1.16l-.04.16a4.86 4.86 0 0 1-.73 1.7 2.018 2.018 0 0 1-1.54.63.1.1 0 0 0-.09.11.106.106 0 0 0 .1.09h.01c.14-.01.27-.03.4-.05l-.45 1.3a9.593 9.593 0 0 1-2.93-.23 4.064 4.064 0 0 1-.91-.33.098.098 0 0 0-.14.03.107.107 0 0 0 .03.14 6.528 6.528 0 0 0 3.17.63c.27 0 .55-.02.85-.04.23-.01.45-.03.69-.06a.1.1 0 0 0 .09-.11c0-.06-.05-.09-.11-.09-.18.02-.34.03-.52.04l.27-.78c.01.01.01.01.02.01a1.795 1.795 0 0 1 1.27.33 1.486 1.486 0 0 1 .33 1.15 2.064 2.064 0 0 1-.95 1.82 2.181 2.181 0 0 1-.54.15.138.138 0 0 1-.04-.03.123.123 0 0 0-.1.05c-.01 0-.03.01-.04.01a11.62 11.62 0 0 1-2.21-.01 7.626 7.626 0 0 1-1.96-.29 2.205 2.205 0 0 1-.99-.58 2.31 2.31 0 0 1-.51-1.34 2.602 2.602 0 0 1 .06-.99 1.29 1.29 0 0 1 .55-.76 2.062 2.062 0 0 1 1.69-.02l-.13.91a.1.1 0 0 0 .08.11h.02a.106.106 0 0 0 .1-.09l.13-.95c.01-.01.02-.01.02-.03a.066.066 0 0 0-.01-.06l.04-.26a.177.177 0 0 0 .05.04 1.05 1.05 0 0 0 .55.18.449.449 0 0 0 .2-.04.086.086 0 0 0 .06-.12.084.084 0 0 0-.12-.06.734.734 0 0 1-.59-.13 2.48 2.48 0 0 1-1.02-1.8 12.814 12.814 0 0 1-.09-2.64 3.775 3.775 0 0 1 1.47-2.98.099.099 0 0 0 .11-.08c0-.01.01-.02.01-.04.08-.07.15-.15.24-.22a.257.257 0 0 1 .25-.05.23.23 0 0 1 .17.16 1.162 1.162 0 0 1-.12 1.02c-.13.23-.26.42-.39.62a2.869 2.869 0 0 0-.63 1.48.092.092 0 0 0 .09.1.103.103 0 0 0 .11-.1 2.77 2.77 0 0 1 .6-1.38c.13-.19.26-.39.39-.62a1.329 1.329 0 0 0 .18-.46 12.564 12.564 0 0 0-.01 1.41.099.099 0 0 0 .1.09.1.1 0 0 0 .1-.1 10.994 10.994 0 0 1 .35-3.41 1.818 1.818 0 0 0 .06-.65c.14-.42.33-.88.49-1.25.07-.15.13-.29.17-.39a.24.24 0 0 1 .44-.03l.03.04a1.357 1.357 0 0 1 .1 1.12 24.274 24.274 0 0 0-.83 3.82.09.09 0 0 0 .09.11h.01a.098.098 0 0 0 .1-.08c0-.02.15-1.12.43-2.35a.082.082 0 0 0 .05-.05 10.219 10.219 0 0 1 1.36-2.25.37.37 0 0 1 .29-.06.265.265 0 0 1 .18.19c.18.59-.17 1.34-.86 2.83l-.24.49a5.172 5.172 0 0 0 .12 4.39.105.105 0 0 0 .09.05.433.433 0 0 1 .05-.01.107.107 0 0 0 .03-.14 4.874 4.874 0 0 1-.3-.74.102.102 0 0 0 .06-.05 3.095 3.095 0 0 1 2.15-1.18.496.496 0 0 1 .45.09.418.418 0 0 1 .03.42z"/><path class="cls-5" d="M43.395 33.627a2.103 2.103 0 0 1-.63.81 3.521 3.521 0 0 0-.52.57 3.48 3.48 0 0 0-.44 1.16l-.04.16a4.86 4.86 0 0 1-.73 1.7 2.018 2.018 0 0 1-1.54.63.1.1 0 0 0-.09.11.106.106 0 0 0 .1.09h.01c.14-.01.27-.03.4-.05l-.23 1.28s-2.35.51-3.15-.21l-.05-.05.3-1.39a.177.177 0 0 0 .05.04 1.05 1.05 0 0 0 .55.18.449.449 0 0 0 .2-.04.086.086 0 0 0 .06-.12.084.084 0 0 0-.12-.06.734.734 0 0 1-.59-.13 2.48 2.48 0 0 1-1.02-1.8 12.814 12.814 0 0 1-.09-2.64 3.775 3.775 0 0 1 1.47-2.98.099.099 0 0 0 .11-.08c0-.01.01-.02.01-.04.08-.07.15-.15.24-.22a.257.257 0 0 1 .25-.05.23.23 0 0 1 .17.16 1.162 1.162 0 0 1-.12 1.02c-.13.23-.26.42-.39.62a2.869 2.869 0 0 0-.63 1.48.092.092 0 0 0 .09.1.103.103 0 0 0 .11-.1 2.77 2.77 0 0 1 .6-1.38c.13-.19.26-.39.39-.62a1.329 1.329 0 0 0 .18-.46 12.564 12.564 0 0 0-.01 1.41.099.099 0 0 0 .1.09.1.1 0 0 0 .1-.1 10.994 10.994 0 0 1 .35-3.41 1.818 1.818 0 0 0 .06-.65c.14-.42.33-.88.49-1.25.07-.15.13-.29.17-.39a.24.24 0 0 1 .44-.03l.03.04a1.357 1.357 0 0 1 .1 1.12 24.274 24.274 0 0 0-.83 3.82.09.09 0 0 0 .09.11h.01a.098.098 0 0 0 .1-.08c0-.02.15-1.12.43-2.35a.082.082 0 0 0 .05-.05 10.219 10.219 0 0 1 1.36-2.25.37.37 0 0 1 .29-.06.265.265 0 0 1 .18.19c.18.59-.17 1.34-.86 2.83l-.24.49a5.172 5.172 0 0 0 .12 4.39.105.105 0 0 0 .09.05.433.433 0 0 1 .05-.01.107.107 0 0 0 .03-.14 4.874 4.874 0 0 1-.3-.74.102.102 0 0 0 .06-.05 3.095 3.095 0 0 1 2.15-1.18.496.496 0 0 1 .45.09.418.418 0 0 1 .03.42z"/><path class="cls-2" d="M88.996 47.736c-.29.51-1.83 2.74-6.58 2.02a14.973 14.973 0 0 0-9.67 2.03 6.542 6.542 0 0 0 .56-2.02.1.1 0 1 0-.2-.02 6.685 6.685 0 0 1-.88 2.64 8.833 8.833 0 0 1-1.87 2.29 7.298 7.298 0 0 1-.96.69 4.283 4.283 0 0 0-1.69 1.61 1.906 1.906 0 0 0 1.05 2.63 9.006 9.006 0 0 0 2.35.81c1.69.4 3.29.78 5.19 3.75a2.11 2.11 0 0 0-.53.82c-.89-.62-3.54-2.23-6.38-1.61-3.34.72-4.43.49-5.73-.54a8.69 8.69 0 0 0 .77-.81.106.106 0 0 0-.02-.14.09.09 0 0 0-.14.02c-.05.07-5.2 6.68-15.76 3.49a2.045 2.045 0 0 0 .26-.86 1.528 1.528 0 0 0 .01-.37c.34-.01 3.36-.23 4.95-5.83a.102.102 0 0 0-.07-.13.103.103 0 0 0-.12.07q-.15.51-.3.96a8.61 8.61 0 0 1-4.16-1.62c-.22-.16-.43-.33-.64-.5a10.772 10.772 0 0 0-1.08-.8 4.825 4.825 0 0 0-1.91-.82 2.082 2.082 0 0 0 .24-1.15 11.396 11.396 0 0 1 5.48 1.33 6.97 6.97 0 0 0 2.4.7h.12a2.42 2.42 0 0 0 2.1-1.04 3.19 3.19 0 0 0 .47-1.77 5.091 5.091 0 0 0 .78.76 4.974 4.974 0 0 0 1.41.82 3.937 3.937 0 0 0 1.05.22 2.09 2.09 0 0 0 .25.01 5.698 5.698 0 0 0 1.69-.3 11.193 11.193 0 0 0 7.44-8.15 7.044 7.044 0 0 0-.53-4.94c-.89-1.55-2.84-2.34-4.77-2.57a9.631 9.631 0 0 0-3.41.18 4.938 4.938 0 0 0-3.34 2.73 7.872 7.872 0 0 0-.37 1.23c-.06.25-.12.51-.2.76-.06.2-.15.4-.22.6a8.289 8.289 0 0 0-.91-4.78 5.824 5.824 0 0 0-3.5-3.15 2.123 2.123 0 0 0 .23-1.29 12.606 12.606 0 0 0 2.65.26 6.806 6.806 0 0 0 1.87-.19c.43-.17.85-.38 1.26-.59a11.037 11.037 0 0 1 1.45-.64 5.517 5.517 0 0 1 4.96.85 2.795 2.795 0 0 0-.74 1.46.099.099 0 0 0 .08.11h.02a.097.097 0 0 0 .1-.08 3.582 3.582 0 0 1 2.76-2.56 13.383 13.383 0 0 1 2.44-.33c.53-.04 1.08-.08 1.61-.16a4.695 4.695 0 0 0 3.49-2.04 6.294 6.294 0 0 0 .73-3.37c.08-.03.15-.05.22-.08a2.083 2.083 0 0 0 .32-.19 2.163 2.163 0 0 0 .78-1.05 1.548 1.548 0 0 0 .06-.23 10.47 10.47 0 0 1 .62 1 15.466 15.466 0 0 1 .9 11.73c0 .02.01.03.01.04a4.35 4.35 0 0 0-3.36.57.097.097 0 0 0-.01.14.106.106 0 0 0 .14.01 4.312 4.312 0 0 1 3.43-.48 5.24 5.24 0 0 1 2.74 1.68c.32.37.61.78.89 1.17.24.33.48.67.74.99a7.262 7.262 0 0 0 5.44 2.68 5.616 5.616 0 0 0 .92-.07.136.136 0 0 0 .04-.03 2.181 2.181 0 0 0 .58 1.44z"/><path class="cls-6" d="M57.035 54.327a4.974 4.974 0 0 0 1.41.82c-.49 2.01-2.89 10.29-9.68 9.39a1.528 1.528 0 0 0 .01-.37c.34-.01 3.36-.23 4.95-5.83a.102.102 0 0 0-.07-.13.103.103 0 0 0-.12.07q-.15.51-.3.96a8.61 8.61 0 0 1-4.16-1.62c-.22-.16-.43-.33-.64-.5a10.772 10.772 0 0 0-1.08-.8 4.825 4.825 0 0 0-1.91-.82 2.082 2.082 0 0 0 .24-1.15 11.396 11.396 0 0 1 5.48 1.33 6.97 6.97 0 0 0 2.4.7h.12a2.42 2.42 0 0 0 2.1-1.04 3.19 3.19 0 0 0 .47-1.77 5.091 5.091 0 0 0 .78.76zm13.88-19.361c-4.37.88-6.32 2.69-7.34 4.45a9.631 9.631 0 0 0-3.41.18 4.938 4.938 0 0 0-3.34 2.73 7.872 7.872 0 0 0-.37 1.23c-.06.25-.12.51-.2.76-.06.2-.15.4-.22.6a8.289 8.289 0 0 0-.91-4.78 5.824 5.824 0 0 0-3.5-3.15 2.123 2.123 0 0 0 .23-1.29 12.606 12.606 0 0 0 2.65.26 6.806 6.806 0 0 0 1.87-.19c.43-.17.85-.38 1.26-.59a11.037 11.037 0 0 1 1.45-.64 5.517 5.517 0 0 1 4.96.85 2.795 2.795 0 0 0-.74 1.46.099.099 0 0 0 .08.11h.02a.097.097 0 0 0 .1-.08 3.582 3.582 0 0 1 2.76-2.56 13.383 13.383 0 0 1 2.44-.33c.53-.04 1.08-.08 1.61-.16a4.695 4.695 0 0 0 3.49-2.04 6.294 6.294 0 0 0 .73-3.37c.08-.03.15-.05.22-.08a2.083 2.083 0 0 0 .32-.19c.74 2.25 1 5.79-4.16 6.82z"/><path class="cls-5" d="M37.966 30.302a.446.446 0 0 1 .3.286 1.473 1.473 0 0 1 .064.348 8.101 8.101 0 0 1 .32-1.695 1.285 1.285 0 0 0-.153-1.143l-.025-.034a.157.157 0 0 0-.14-.055.152.152 0 0 0-.122.094 22.652 22.652 0 0 0-.706 2.311l.031-.027a.484.484 0 0 1 .43-.085z"/><path class="cls-1" d="M81.906 80.597a36.876 36.876 0 0 1-1.29 6.3 14.851 14.851 0 0 0-1.43-.73l-.24-.12a2.607 2.607 0 0 0-.42-.15 11.525 11.525 0 0 0-1.32-.32.01.01 0 0 0 .01-.01 13.286 13.286 0 0 0-.15-2.22c-.08-.53-.21-1.06-.33-1.57-.1-.42-.2-.86-.28-1.29a12.908 12.908 0 0 1 .02-5.8.101.101 0 0 0-.08-.12.109.109 0 0 0-.12.07 9.916 9.916 0 0 0-.28 1.77c-3.27-.7-6.69-3.87-8.82-6.62a3.351 3.351 0 0 0-.83-.85 34.81 34.81 0 0 1-1.92-2.35.1.1 0 0 0-.14-.03.099.099 0 0 0-.02.14c.63.85 1.18 1.51 1.61 2.01a4.067 4.067 0 0 1-2.03-.55.124.124 0 0 0-.14.04.101.101 0 0 0 .04.14 4.62 4.62 0 0 0 1.3.49 2.205 2.205 0 0 0-.69.49 5.12 5.12 0 0 0-.75 1.28l-.07.14q-.225.495-.48 1.05c-.93 2.06-2.09 4.61-3.53 6.03a.134.134 0 0 0-.02.09 19.866 19.866 0 0 1-7.05-1.16.868.868 0 0 0-.1-.42c-.38-.66-1.63-.96-2.46-1.16a.142.142 0 0 1-.06-.02c-.14-.03-.26-.06-.37-.09a1.832 1.832 0 0 0-.8-.09 1.42 1.42 0 0 0-.77.45 17.853 17.853 0 0 1-2.47-1.23c0-.01.01-.02.01-.03a17.36 17.36 0 0 1 .86-4.3 38.168 38.168 0 0 1 1.46-3.7 2.227 2.227 0 0 0 .63-.59 19.375 19.375 0 0 0 5.67.9c.15 0 .29 0 .44-.01a13.794 13.794 0 0 0 9.01-3.48c1.37 1.08 2.48 1.34 5.92.59a6.275 6.275 0 0 1 2.48-.01 23.143 23.143 0 0 1 3.41 4.16 28.14 28.14 0 0 0 2.71 3.52c.32.34.67.66 1 .98a10.955 10.955 0 0 1 2.16 2.5 9.727 9.727 0 0 1 .72 5.88z"/><path class="cls-2" d="M54.495 66.456a57.297 57.297 0 0 0-4.66 8.69c-.14-.03-.26-.06-.37-.09a1.832 1.832 0 0 0-.8-.09 1.42 1.42 0 0 0-.77.45 17.853 17.853 0 0 1-2.47-1.23c0-.01.01-.02.01-.03a17.36 17.36 0 0 1 .86-4.3 38.168 38.168 0 0 1 1.46-3.7 2.227 2.227 0 0 0 .63-.59 19.375 19.375 0 0 0 5.67.9c.15 0 .29 0 .44-.01z"/><path class="cls-4" d="M48.513 78.027a4.67 4.67 0 0 0 1.43.45.466.466 0 0 0 .308-.026.49.49 0 0 0 .15-.222 9.26 9.26 0 0 0 .382-1.026.265.265 0 0 0-.02-.22c-.15-.261-.732-.4-1.08-.484-.077-.019-.147-.035-.203-.05a.95.95 0 0 0-.25-.046.352.352 0 0 0-.064.005.61.61 0 0 0-.332.222 1.921 1.921 0 0 0-.486 1.093.322.322 0 0 0 .023.202.37.37 0 0 0 .142.102z"/><path class="cls-3" d="M76.071 66.651a1.951 1.951 0 0 0 3.397.07c-.011-.005-.024-.004-.033-.015a2.999 2.999 0 0 0-1.283-.795.406.406 0 0 1-.157.164.413.413 0 0 1-.2.051.436.436 0 0 1-.116-.016.415.415 0 0 1-.25-.201.418.418 0 0 1 .733-.4.405.405 0 0 1 .044.208 3.208 3.208 0 0 1 1.357.836 1.958 1.958 0 0 0-1.214-2.729 1.978 1.978 0 0 0-.557-.08 1.962 1.962 0 0 0-1.875 1.4.099.099 0 0 1-.014.058 1.957 1.957 0 0 0 .168 1.45z"/><path class="cls-2" d="M50.123 126.084c-.39 1.644-1.805 3.02-4.206 4.092a.1.1 0 0 1-.041.007c-.018 0-.027-.018-.043-.027a2.056 2.056 0 0 1 .086.902 5.574 5.574 0 0 0 7.576-2.548 11.943 11.943 0 0 0 .493-1.277 5.971 5.971 0 0 1 1.206-2.33 6.116 6.116 0 0 1 .696-.583 4.617 4.617 0 0 0 .801-.705 2.615 2.615 0 0 0 .343-2.628A3.341 3.341 0 0 0 55 119.175a5.25 5.25 0 0 1-2.167-1.176 4.205 4.205 0 0 0 .19 1.302.1.1 0 1 1-.192.06 5.647 5.647 0 0 1 1.05-4.835 2.933 2.933 0 0 0-1.802.8 4.61 4.61 0 0 0-1.085 3.557.618.618 0 0 1-.214.49.606.606 0 0 1-.498.137 4.15 4.15 0 0 0-3.169.562 3.834 3.834 0 0 0-1.345 2.65c.464-.445 1.715-1.257 4.336-.696a.1.1 0 0 1-.04.195 8.042 8.042 0 0 0-.886-.13 5.163 5.163 0 0 1 .946 3.993z"/><path class="cls-1" d="M14.673 110.139c.653 1.991 1.72 3.233 3.176 3.689 2.989.934 6.511-1.693 6.546-1.72a2.968 2.968 0 0 1 1.083-.559 3.455 3.455 0 0 1 1.435-.018c.092.013.179.027.262.036a3.46 3.46 0 0 0 3.186-1.562c.525-1.197.102-2.674-1.259-4.392a.973.973 0 0 1-.198-.864c.267-1.118 2.295-2.23 3.029-2.6-4.317-.884-5.158 2.348-5.19 2.489-.036.076-.286.547-.605.547h-.002c-.156-.001-.289-.11-.396-.323a2.905 2.905 0 0 1-.152-.452c-.308-1.079-.93-3.252-4.92-3.252-.12 0-.246.002-.373.006.93.388 3.02 1.432 3.574 3.16a3.389 3.389 0 0 1-.696 3.081 4.28 4.28 0 0 1-1.64 1.895 5.649 5.649 0 0 1-5.906.06 2.029 2.029 0 0 1-.954.779z"/><path class="cls-2" d="M76.202 87.698a3.362 3.362 0 0 0-.42-.017.1.1 0 1 1-.009-.2h.05a6.122 6.122 0 0 1 4.924 2.706.1.1 0 0 1-.027.139.096.096 0 0 1-.056.017.1.1 0 0 1-.069-.037c.016.05.032.098.046.148.006 0 .011-.003.017-.002.638.176 1.1-.627 1.23-.875a1.317 1.317 0 0 0-.127-1.45 6.988 6.988 0 0 0-2.658-1.784l-.244-.115a2.392 2.392 0 0 0-.385-.143 6.79 6.79 0 0 0-2.48-.365 1.034 1.034 0 0 0-.894.475 1.44 1.44 0 0 0 .016 1.051 2.02 2.02 0 0 0 .716 1.033 2.088 2.088 0 0 0 .37-.581z"/><path class="cls-5" d="M76.412 87.722a2.289 2.289 0 0 1-.463.72c-.002.008.002.016-.002.023a.094.094 0 0 1-.07.05 2.275 2.275 0 0 1-.44.345 4.668 4.668 0 0 1-.553.26 3.416 3.416 0 0 0-.645.319 3.489 3.489 0 0 0-.822.928 3.438 3.438 0 0 1-.937 1.017 4.335 4.335 0 0 1-.133.078c-.181.105-.352.203-.405.369a.47.47 0 0 0 .33.522 1.276 1.276 0 0 0 .763-.048 5.047 5.047 0 0 0 1.87-.944.097.097 0 0 1 .048-.015 2.152 2.152 0 0 1 .3-.414.1.1 0 1 1 .144.139 3.734 3.734 0 0 0-.693 1.361 5.845 5.845 0 0 1-.54 1.219 6.405 6.405 0 0 1-1.487 1.495 2.975 2.975 0 0 0-.98 1.17.218.218 0 0 0 .034.218.222.222 0 0 0 .21.082 5.588 5.588 0 0 0 4.135-3.056.1.1 0 1 1 .18.086 5.78 5.78 0 0 1-3.48 2.973.092.092 0 0 1 .005.051.408.408 0 0 0 .065.319.467.467 0 0 0 .288.224 1.303 1.303 0 0 0 .729-.168 39.04 39.04 0 0 0 2.008-.957 3.44 3.44 0 0 0 .806-.644c.052-.052.105-.105.159-.156a2.523 2.523 0 0 0 .653-1.09.105.105 0 0 1 .124-.068.1.1 0 0 1 .067.124 2.72 2.72 0 0 1-.706 1.179l-.158.153a3.646 3.646 0 0 1-.853.68c-.563.289-1.156.566-1.754.836a6.389 6.389 0 0 0 4.954-2.324.1.1 0 0 1 .158.123c-.023.03-.052.057-.076.086 0 .005.004.01.003.016-.057.295-.09.66-.12 1.012-.032.358-.065.727-.123 1.032a1.583 1.583 0 0 0 .12 1.297.21.21 0 0 0 .093.075c.119.038.22-.171.257-.287a24.222 24.222 0 0 0 1.112-5.136 6.35 6.35 0 0 0-.272-2.923.093.093 0 0 1 .024-.102 5.905 5.905 0 0 0-3.927-2.25z"/><path class="cls-3" d="M45.55 129.963a1.887 1.887 0 0 0-3.48.196 1.9 1.9 0 0 0-.07.288 3.09 3.09 0 0 1 1.525.106.402.402 0 1 1 .327.634.406.406 0 0 1-.365-.228.4.4 0 0 1-.03-.217 2.841 2.841 0 0 0-1.447-.095c-.011.003-.022-.004-.033-.005a1.883 1.883 0 1 0 3.575-.678z"/><path class="cls-6" d="M55.346 92.636a7.814 7.814 0 0 1-4.8 1.75h-.01a7.44 7.44 0 0 1-1.9-.3 27.58 27.58 0 0 1-4.6-1.77c-.85-.39-1.61-.78-2.2-1.07-.9-.45-1.8-.92-2.69-1.41q-2.295-1.23-4.51-2.6-2.655-1.62-5.18-3.4a.1.1 0 1 0-.12.16c.61.43 1.24.84 1.85 1.26v.02a17.94 17.94 0 0 1 .55 4.23 15.832 15.832 0 0 1-.18 2.13 20.973 20.973 0 0 1-.6 2.67c-.03.09-.05.17-.08.26a19.794 19.794 0 0 1-.88 2.25 19.899 19.899 0 0 0-.89 2.3 20.56 20.56 0 0 0-.6 3.09.076.076 0 0 0 .02.04 3.909 3.909 0 0 0-1.97 2.32c-.08.16-.27.42-.42.42-.09 0-.17-.12-.22-.21a3.367 3.367 0 0 1-.14-.42 4.285 4.285 0 0 0-1.24-2.21.052.052 0 0 1 .02-.04 73.121 73.121 0 0 0-.46-12.63c-.04-.37-.07-.75-.11-1.14-.36-3.57-.74-7.28 1.1-10.25a3.922 3.922 0 0 1 1.78-1.68 5.519 5.519 0 0 1 3.57.22c.17.04.34.09.51.13.06.02.12.03.18.05.93.24 1.92.44 2.96.66.88.18 1.77.36 2.64.58a21.102 21.102 0 0 1 2.25.63c.34.11.68.23 1.02.34.28.09.55.18.82.27a23.815 23.815 0 0 1 5.5 2.27 12.287 12.287 0 0 1 2.31 1.82.12.12 0 0 0 .14 0 .109.109 0 0 0 0-.15 13.756 13.756 0 0 0-4.95-3.11c-.03-.01-.05-.03-.07-.03-.17-.08-.35-.14-.53-.21.02 0 .04-.01.06-.01a6.534 6.534 0 0 0 3.12-1.39c.01-.01.01-.03.02-.04.12.04.22.09.35.13a.628.628 0 0 0 .02.07.93.93 0 0 0 .42.32 9.868 9.868 0 0 0 2.53.88.01.01 0 0 0-.01.01 16.743 16.743 0 0 0 5.62 12.79z"/><path class="cls-2" d="m46.316 81.556-5.14 2.06-1.18-4.6c.28.09.55.18.82.27a23.815 23.815 0 0 1 5.5 2.27zm-9.591-3.51-4.84 2.47-.94-3.76c.06.02.12.03.18.05.93.24 1.92.44 2.96.66.88.18 1.77.36 2.64.58z"/><path d="M51.035 116.746a6.711 6.711 0 0 0-.24 2.14.448.448 0 0 1-.15.34.393.393 0 0 1-.33.09 5.303 5.303 0 0 0-1.88-.01c-.01-.02-.01-.04-.03-.05-1.39-1.11-4.28-3.43-7.38-5.62-.86-.61-1.64-1.14-2.33-1.61-3.16-2.18-4.6-3.17-4.82-4.9-.08-.66-.07-1.06.88-3.13.3-.64.69-1.45 1.19-2.48.15-.32.31-.63.45-.95a31.355 31.355 0 0 0 1.25-2.88c.12-.31.23-.62.34-.93.14-.39.27-.78.42-1.17a17.057 17.057 0 0 1 .71-1.65c.37-.75.71-1.42 1.08-2.07.18-.32.36-.64.56-.96.33.17.66.35.99.52 2.12 1.06 5.97 2.98 8.47 3.13a15.476 15.476 0 0 1-.89 1.99 26.355 26.355 0 0 1-1.76 2.82 37.099 37.099 0 0 1-2.8 3.51c-.23.26-.46.49-.66.7-.44.45-.92.92-1.42 1.38a12.675 12.675 0 0 1-2.67 1.9.115.115 0 0 0-.05.14.105.105 0 0 0 .09.05.09.09 0 0 0 .05-.01 11.834 11.834 0 0 0 2-1.34c2.44.76 3.87 2.94 4.95 4.98.09.17.18.34.28.52.42.8.88 1.63 1.37 2.42a16.764 16.764 0 0 0 2.33 3.13z" fill="#303030"/><path class="cls-1" d="m42.465 95.867-4.06-.28a17.057 17.057 0 0 1 .71-1.65c.37-.75.71-1.42 1.08-2.07zm-3.869 8.129h-3.84c.3-.64.69-1.45 1.19-2.48.15-.32.31-.63.45-.95z"/><path class="cls-3" d="M67.289 90.897a1.966 1.966 0 0 0 2.666.781 1.942 1.942 0 0 0 .732-.71c-.011-.005-.025-.004-.034-.015a2.995 2.995 0 0 0-1.283-.795.413.413 0 0 1-.157.164.42.42 0 0 1-.317.034.418.418 0 1 1 .484-.6.403.403 0 0 1 .044.208 3.204 3.204 0 0 1 1.357.835 1.976 1.976 0 0 0 .117-.29 1.965 1.965 0 0 0-1.332-2.439 2.002 2.002 0 0 0-.555-.08 1.965 1.965 0 0 0-1.721 2.907zm-51.555 17.67a1.821 1.821 0 0 0-1.487-2.103 1.796 1.796 0 0 0-1.57.493 2.997 2.997 0 0 1 1.133.934.391.391 0 0 1 .519.436.397.397 0 0 1-.39.328.381.381 0 0 1-.067-.006.387.387 0 0 1-.228-.644 2.774 2.774 0 0 0-1.082-.882c-.011-.005-.015-.016-.024-.024a1.82 1.82 0 1 0 3.196 1.468z"/><path class="cls-1" d="M46.22 78.36a23.205 23.205 0 0 1-2.36-1.03c-.128.097-1.379.977-4.72 1.189.595.203 1.18.392 1.74.573.677.218 1.33.43 1.967.655a.096.096 0 0 1 .05-.024 6.299 6.299 0 0 0 3.324-1.362z"/><path class="cls-3" d="M41.934 53.928a1.859 1.859 0 0 0-.068.276 3.025 3.025 0 0 1 1.478.103.388.388 0 0 1 .147-.132.403.403 0 0 1 .303-.018.398.398 0 0 1-.13.773.404.404 0 0 1-.131-.022.394.394 0 0 1-.227-.203.383.383 0 0 1-.03-.21 2.736 2.736 0 0 0-1.404-.09c-.01.003-.02-.004-.03-.005a1.828 1.828 0 0 0 2.619 1.784 1.836 1.836 0 1 0-1.758-3.203.097.097 0 0 1-.042.025 1.815 1.815 0 0 0-.727.922zm47.306-6.233a1.953 1.953 0 0 0 3.241-1.856.105.105 0 0 1-.035.011 2.976 2.976 0 0 0-1.48.308.406.406 0 0 1 0 .227.412.412 0 0 1-.205.244.42.42 0 0 1-.19.046.412.412 0 0 1-.129-.02.42.42 0 0 1-.271-.525.415.415 0 0 1 .525-.27.402.402 0 0 1 .176.12 3.32 3.32 0 0 1 1.378-.339c.06 0 .121.003.182.008a1.978 1.978 0 0 0-.116-.29 1.96 1.96 0 1 0-3.197 2.21.093.093 0 0 1 .068 0 .099.099 0 0 1 .053.126z"/><path class="cls-2" d="M53.159 59.423a8.83 8.83 0 0 1-4.207-1.644c-.219-.161-.432-.336-.64-.504a10.432 10.432 0 0 0-1.062-.792 4.56 4.56 0 0 0-1.913-.81 2.006 2.006 0 0 1-.79.691 2.028 2.028 0 0 1-.882.203 2.049 2.049 0 0 1-.672-.114 2.029 2.029 0 0 1-.474-3.591 9.47 9.47 0 0 0-.283-1.73 19.175 19.175 0 0 0-.995-2.659c-.213-.495-.435-1.006-.627-1.52l-.094-.248a6.714 6.714 0 0 1-.618-3.708 8.287 8.287 0 0 1-.913.047c-.452 0-.892-.027-1.3-.053a9.793 9.793 0 0 1-1.663-.209 36.663 36.663 0 0 0 .816 9.116l.151.878a9.474 9.474 0 0 0 1.827 4.673 9.16 9.16 0 0 0 3.446 2.213 40.998 40.998 0 0 0 7.368 2.176.097.097 0 0 1 .068.06 27.78 27.78 0 0 1 .737-1.198.1.1 0 0 1 .139-.027.1.1 0 0 1 .027.138 35.252 35.252 0 0 0-1.805 3.152c.383-.027 2.814-.375 4.359-4.54z"/><path class="cls-3" d="M58.79 96.664a1.967 1.967 0 0 0 1.964 1.966h.002a1.94 1.94 0 0 0 .99-.278c-.01-.01-.028-.01-.03-.024a2.994 2.994 0 0 0-.744-1.314.406.406 0 0 1-.215.068h-.003a.417.417 0 1 1 .418-.417.41.41 0 0 1-.06.204 3.203 3.203 0 0 1 .79 1.385 1.962 1.962 0 1 0-3.111-1.59zm-7.3-61.55a1.96 1.96 0 0 0-3.697.51 3.208 3.208 0 0 1 1.59.11.402.402 0 0 1 .157-.143.417.417 0 0 1 .361.752.407.407 0 0 1-.18.042.417.417 0 0 1-.377-.237.403.403 0 0 1-.032-.224 3.01 3.01 0 0 0-1.507-.1c-.011.002-.023-.004-.034-.006a1.96 1.96 0 1 0 3.719-.704z"/><path class="cls-4" d="M47.754 75.575a16.011 16.011 0 0 1-2.877-1.503 2.317 2.317 0 0 0-1.361 2.872 23.04 23.04 0 0 0 3.165 1.38 1.532 1.532 0 0 1 .005-.31 4.363 4.363 0 0 1 1.068-2.439z"/><path class="cls-5" d="M57.16 54.174a4.357 4.357 0 0 0 2.35.995 5.155 5.155 0 0 0 1.87-.287 10.974 10.974 0 0 0 7.296-7.993 6.791 6.791 0 0 0-.508-4.801c-1.04-1.822-3.603-2.545-5.82-2.545a8.462 8.462 0 0 0-2.13.252 4.74 4.74 0 0 0-3.21 2.611 7.768 7.768 0 0 0-.358 1.197c-.062.254-.125.517-.204.772a12.777 12.777 0 0 1-.665 1.612 12.374 12.374 0 0 0-.665 1.618 6.247 6.247 0 0 0 2.044 6.569zm.143-9.211a.866.866 0 1 1 .907.979.952.952 0 0 1-.907-.98zm6.114 5.336a4.79 4.79 0 0 1-3.084 1.152 4.94 4.94 0 0 1-2.405-.627.099.099 0 0 1-.03-.138.101.101 0 0 1 .138-.03 4.618 4.618 0 0 0 5.254-.512.1.1 0 0 1 .127.155zm.454-4.4a1.047 1.047 0 1 1 .79-1.074.952.952 0 0 1-.79 1.074zm-1.606-3.174 3.774.775a.1.1 0 0 1-.02.197.071.071 0 0 1-.02-.002l-3.773-.774a.1.1 0 0 1 .04-.195zm-1.936 1.832a.101.101 0 0 1 .034.138c-.017.027-1.618 2.707-.907 3.682.266.367.848.446 1.735.238a.098.098 0 0 1 .12.075.1.1 0 0 1-.075.12 3.9 3.9 0 0 1-.883.117 1.225 1.225 0 0 1-1.06-.432c-.788-1.082.828-3.788.898-3.904a.102.102 0 0 1 .138-.034zm-3.12-1.64 2.806-.097h.003a.1.1 0 0 1 .004.2l-2.805.096h-.004a.1.1 0 0 1-.004-.2z"/><path class="cls-3" d="M75.672 27.035a1.962 1.962 0 1 0-3.783-.991 3.234 3.234 0 0 1 1.59.111.406.406 0 0 1 .158-.144.418.418 0 0 1 .556.194.417.417 0 0 1-.195.559.402.402 0 0 1-.18.042.424.424 0 0 1-.139-.024.412.412 0 0 1-.238-.214.403.403 0 0 1-.032-.225 2.98 2.98 0 0 0-1.507-.099.103.103 0 0 1-.035-.006 1.96 1.96 0 0 0 3.805.797z"/><path d="M63.755 43.846a1.047 1.047 0 1 0 .907.979.952.952 0 0 0-.907-.979zM59 44.867a.866.866 0 1 0-.79 1.075.952.952 0 0 0 .79-1.075zm4.353 5.154a.406.406 0 0 0-.127.046 4.509 4.509 0 0 1-2.897 1.084 4.627 4.627 0 0 1-2.242-.582.204.204 0 0 0-.105-.028.386.386 0 0 0-.168.09.2.2 0 0 0-.027.153.407.407 0 0 0 .087.124 5.045 5.045 0 0 0 2.459.643 4.89 4.89 0 0 0 3.146-1.174.199.199 0 0 0 .074-.134.397.397 0 0 0-.044-.147.198.198 0 0 0-.156-.075zm-4.14-1.468a1.323 1.323 0 0 0 1.14.474 4.03 4.03 0 0 0 .906-.119.201.201 0 0 0 .126-.09.391.391 0 0 0 .024-.15.206.206 0 0 0-.222-.15h-.018a3.678 3.678 0 0 1-.82.11.945.945 0 0 1-.812-.31c-.667-.915.895-3.543.913-3.572a.201.201 0 0 0-.07-.275.204.204 0 0 0-.102-.026.385.385 0 0 0-.172.095c-.177.294-1.704 2.901-.893 4.014zM49.73 76.201l-.17-.043a1.227 1.227 0 0 0-.328-.056l-.115.01a.884.884 0 0 0-.505.316 2.224 2.224 0 0 0-.562 1.263.599.599 0 0 0 .07.398.62.62 0 0 0 .258.205 4.913 4.913 0 0 0 1.52.479 1.262 1.262 0 0 0 .19.016.589.589 0 0 0 .323-.085.743.743 0 0 0 .265-.354 9.713 9.713 0 0 0 .394-1.059.57.57 0 0 0-.046-.458c-.212-.371-.846-.525-1.295-.632zm-.276.344.206.051c.31.074.889.212 1.017.436a.165.165 0 0 1 .01.142 9.141 9.141 0 0 1-.378 1.015.44.44 0 0 1-.11.177.206.206 0 0 1-.11.022.908.908 0 0 1-.132-.01 4.598 4.598 0 0 1-1.399-.44.357.357 0 0 1-.102-.068.254.254 0 0 1-.007-.138 1.824 1.824 0 0 1 .46-1.036.523.523 0 0 1 .276-.19l.047-.103v.1a.847.847 0 0 1 .222.042z"/><path d="M92.583 45.221a2.265 2.265 0 0 0-4.171.345 2.165 2.165 0 0 0-.084.46 5.482 5.482 0 0 1-.872.07 6.904 6.904 0 0 1-5.21-2.574 16.99 16.99 0 0 1-.724-.966 13.942 13.942 0 0 0-.916-1.197 5.54 5.54 0 0 0-2.857-1.757 15.805 15.805 0 0 0-.947-11.88 8.836 8.836 0 0 0-.739-1.136 2.247 2.247 0 0 0-.207-1.18 2.279 2.279 0 0 0-2.043-1.284 2.225 2.225 0 0 0-.978.225 2.264 2.264 0 0 0-1.057 3.022 2.277 2.277 0 0 0 2.043 1.282 2.235 2.235 0 0 0 .435-.059 6.28 6.28 0 0 1-.711 3.054 4.423 4.423 0 0 1-3.27 1.882c-.52.08-1.056.117-1.605.157a13.17 13.17 0 0 0-2.483.341 4.925 4.925 0 0 0-2.005 1.097 5.808 5.808 0 0 0-3.473-1.145 5.428 5.428 0 0 0-1.717.272 10.925 10.925 0 0 0-1.49.663 12.782 12.782 0 0 1-1.233.567 6.562 6.562 0 0 1-1.787.177 13.721 13.721 0 0 1-2.575-.237 2.2 2.2 0 0 0-2.189-1.717 2.265 2.265 0 0 0-2.036 3.247 2.276 2.276 0 0 0 2.042 1.281 2.238 2.238 0 0 0 .98-.224 2.212 2.212 0 0 0 .846-.735 5.575 5.575 0 0 1 3.306 2.998 7.26 7.26 0 0 1 .655 5.51.318.318 0 0 0-.006.09l-.002.002a12.572 12.572 0 0 0-.675 1.645 6.565 6.565 0 0 0 1.13 5.83.2.2 0 0 0-.007.052 2.823 2.823 0 0 1-.424 1.78 2.1 2.1 0 0 1-1.836.897l-.118-.002a6.683 6.683 0 0 1-2.284-.673 13.295 13.295 0 0 0-5.043-1.387c-.174 0-.348.01-.522.025a2.112 2.112 0 0 0-.138-.432 2.146 2.146 0 0 0-1.925-1.21 2.09 2.09 0 0 0-.87.21 9.725 9.725 0 0 0-.266-1.551 19.725 19.725 0 0 0-1.03-2.751c-.205-.477-.417-.967-.6-1.458l-.094-.25a6.468 6.468 0 0 1-.6-3.55 1.979 1.979 0 0 0 .553-.164 2.324 2.324 0 0 0 1.117-2.07 1.73 1.73 0 0 0-.416-1.377 1.844 1.844 0 0 0-1.3-.41l.06-.185a1.722 1.722 0 0 0 1.065-.637 5.163 5.163 0 0 0 .776-1.806l.04-.164a2.395 2.395 0 0 1 .88-1.582 2.44 2.44 0 0 0 .706-.923.704.704 0 0 0-.092-.728.654.654 0 0 0-.508-.194 1.33 1.33 0 0 0-.208.017 3.49 3.49 0 0 0-2.166 1.1 4.596 4.596 0 0 1 .284-2.997l.23-.497c.727-1.559 1.091-2.342.885-3.043a.57.57 0 0 0-.392-.388.645.645 0 0 0-.171-.023.59.59 0 0 0-.395.15 4.752 4.752 0 0 0-.698.973 1.666 1.666 0 0 0-.204-1.297.563.563 0 0 0-.5-.242h-.01a.545.545 0 0 0-.451.341c-.04.098-.093.221-.164.386-.096.22-.199.484-.298.773a1.594 1.594 0 0 0-.113-.175.455.455 0 0 0-.397-.173h-.021a.446.446 0 0 0-.362.28 24.486 24.486 0 0 0-.78 2.597c-1.889 1.698-1.627 3.28-1.623 3.28a12.838 12.838 0 0 0 .088 2.682 2.925 2.925 0 0 0 .89 1.776l-.008.018-.02.139a3.784 3.784 0 0 0-.927-.144 1.603 1.603 0 0 0-.871.228 1.63 1.63 0 0 0-.67.935 2.873 2.873 0 0 0-.073 1.099 2.593 2.593 0 0 0 .588 1.517 2.486 2.486 0 0 0 1.118.666l.081.022a37.102 37.102 0 0 0 .82 9.141l.152.877a9.717 9.717 0 0 0 1.898 4.82 9.388 9.388 0 0 0 3.554 2.292 41.388 41.388 0 0 0 7.316 2.173c-.22.386-.471.846-.74 1.395a1.707 1.707 0 0 0-.06-.164 2.277 2.277 0 0 0-2.044-1.283 2.262 2.262 0 0 0-2.035 3.246 2.277 2.277 0 0 0 2.043 1.283 2.187 2.187 0 0 0 .67-.122 23.273 23.273 0 0 0-2.14 7.433A12.259 12.259 0 0 1 45 73.79a.147.147 0 0 0-.094-.026.738.738 0 0 0-.119.013 2.644 2.644 0 0 0-1.535 3.315.368.368 0 0 0 .09.097l.094.047a10.978 10.978 0 0 1-4.702 1.007.263.263 0 0 0-.067.022 46.234 46.234 0 0 0-4.525-1.097c-1.035-.213-2.013-.413-2.946-.65-.224-.058-.45-.12-.678-.184a9.362 9.362 0 0 0-2.451-.455 3.395 3.395 0 0 0-1.31.244 4.254 4.254 0 0 0-1.928 1.805c-1.889 3.061-1.51 6.812-1.145 10.441q.06.573.113 1.139a74.98 74.98 0 0 1 .472 12.318 6.066 6.066 0 0 0-3.612-.968c-.27 0-.553.01-.851.03a.2.2 0 0 0-.051.389c.031.01 3.172 1.085 3.827 3.137a3.177 3.177 0 0 1-.686 2.873 4.025 4.025 0 0 1-1.525 1.758 5.115 5.115 0 0 1-2.777.815 5.779 5.779 0 0 1-2.736-.721 2.017 2.017 0 0 0 .172-.523 2.121 2.121 0 1 0-2.09 1.763 2.01 2.01 0 0 0 .476-.073c.688 2.043 1.811 3.327 3.343 3.808a4.894 4.894 0 0 0 1.459.213 10.364 10.364 0 0 0 5.358-1.98 2.679 2.679 0 0 1 .972-.508 2.71 2.71 0 0 1 .641-.078 4.742 4.742 0 0 1 .72.071l.234.032a2.986 2.986 0 0 0 .312.017 3.711 3.711 0 0 0 3.182-1.757c.572-1.306.135-2.888-1.3-4.7a.665.665 0 0 1-.14-.606c.22-.931 2.065-2.025 3.12-2.525a.2.2 0 0 0-.037-.377 7.57 7.57 0 0 0-1.713-.214 4.798 4.798 0 0 0-1.741.319 15.43 15.43 0 0 1 1.453-5.102 20.927 20.927 0 0 0 .883-2.266 18.597 18.597 0 0 0 .876-5.138 16.217 16.217 0 0 0-.505-3.916 98.782 98.782 0 0 0 8.907 5.251c-.582.95-1.05 1.861-1.594 2.947a24.506 24.506 0 0 0-1.147 2.862l-.33.923a41.067 41.067 0 0 1-1.694 3.803c-2.164 4.424-2.219 4.82-2.099 5.782.235 1.861 1.712 2.876 4.953 5.102l.177.122c.64.44 1.358.935 2.147 1.492 3.006 2.12 5.833 4.38 7.148 5.435a3.291 3.291 0 0 0-1.07.515 4.303 4.303 0 0 0-1.5 3.18.2.2 0 0 0 .134.208.377.377 0 0 0 .066.01.393.393 0 0 0 .167-.09 3.14 3.14 0 0 1 2.656-1.004c.128 0 .265.007.405.016a.22.22 0 0 0 .014.033 4.912 4.912 0 0 1 .957 3.828c-.364 1.539-1.708 2.838-3.992 3.865-.006-.016-.01-.031-.017-.046a2.175 2.175 0 0 0-1.25-1.117 2.205 2.205 0 0 0-.722-.122 2.184 2.184 0 0 0-1.967 3.135 2.175 2.175 0 0 0 1.248 1.116 2.206 2.206 0 0 0 .723.122 2.193 2.193 0 0 0 2.063-1.465 1.006 1.006 0 0 0 .03-.106 5.954 5.954 0 0 0 2.536.57 5.787 5.787 0 0 0 1.84-.293 5.982 5.982 0 0 0 3.443-3.036 11.838 11.838 0 0 0 .509-1.31 5.64 5.64 0 0 1 1.135-2.215 5.755 5.755 0 0 1 .673-.562 5.063 5.063 0 0 0 .841-.743 2.923 2.923 0 0 0 .389-2.935 3.642 3.642 0 0 0-2.219-1.983 4.662 4.662 0 0 1-2.143-1.193 6.207 6.207 0 0 1 1.29-3.145.197.197 0 0 0 .036-.209c-.03-.071-.097-.118-.26-.125a3.155 3.155 0 0 0-2.144.892 3.48 3.48 0 0 0-.782 1.253 27.433 27.433 0 0 1-3.77-5.832c-1.047-1.982-2.443-4.103-4.89-4.972a28.299 28.299 0 0 0 1.885-1.774c1.878-1.914 5.07-5.923 6.193-9.148l.027.052h.013a8.2 8.2 0 0 0 4.95-1.798 19.81 19.81 0 0 0 3.475 2.405 2.215 2.215 0 0 0-.481 1.368 2.264 2.264 0 0 0 2.264 2.264 2.266 2.266 0 0 0 2.263-2.262 2.264 2.264 0 0 0-2.263-2.265 1.85 1.85 0 0 0-.257.026 17.21 17.21 0 0 1-1.38-6.02c.72.516 2.925 1.736 7.657 1.79a2.236 2.236 0 0 0 .25.843A2.264 2.264 0 1 0 71 88.87a2.258 2.258 0 0 0-3.072-.901 2.268 2.268 0 0 0-.637.53c-7.516-2.07-8.262-7.445-8.323-8.053a1.937 1.937 0 0 0 .572-.4 2.876 2.876 0 0 0 .651-2.074.204.204 0 0 0-.208-.182l-.03.001a23.369 23.369 0 0 0 3.377-5.877c.167-.368.327-.722.481-1.05l.067-.145a4.678 4.678 0 0 1 .704-1.199 1.511 1.511 0 0 1 .963-.52c.095.008.18.012.252.013l.03.007a1.07 1.07 0 0 1 .314.132c.508.558.787.813.815.837 2.136 2.767 5.592 5.962 8.924 6.695a16.26 16.26 0 0 0 .278 3.859c.078.426.18.852.285 1.3.122.507.247 1.031.328 1.55a12.855 12.855 0 0 1 .145 2.056 4.94 4.94 0 0 0-.595-.046 3.422 3.422 0 0 0-.36.018 1.302 1.302 0 0 0-1.128.64 1.696 1.696 0 0 0-.002 1.28 2.42 2.42 0 0 0 .7 1.076 1.934 1.934 0 0 1-.246.185 4.366 4.366 0 0 1-.52.241 3.634 3.634 0 0 0-.695.35 3.75 3.75 0 0 0-.899 1.002 3.147 3.147 0 0 1-.848.935l.052.085-.176-.012a1.04 1.04 0 0 0-.543.537.763.763 0 0 0 .52.897 1.119 1.119 0 0 0 .36.058 2.094 2.094 0 0 0 .586-.103 5.673 5.673 0 0 0 1.456-.668c-.052.135-.106.266-.157.408a5.6 5.6 0 0 1-.509 1.158 6.096 6.096 0 0 1-1.422 1.42 3.236 3.236 0 0 0-1.071 1.296.511.511 0 0 0 .078.514.519.519 0 0 0 .407.198l.083-.007c.17-.026.337-.068.504-.11a.715.715 0 0 0 .1.346.76.76 0 0 0 .494.363.994.994 0 0 0 .161.012 1.77 1.77 0 0 0 .696-.186.354.354 0 0 0 .192.066c.1.007.2.01.303.01a6.787 6.787 0 0 0 4.443-1.9c-.018.158-.038.313-.052.476-.03.35-.063.711-.12 1.003a1.822 1.822 0 0 0 .184 1.542.497.497 0 0 0 .237.173c.009.003.105.016.114.016.22 0 .412-.184.516-.495a24.492 24.492 0 0 0 1.126-5.199 8.015 8.015 0 0 0-.061-2.253l.013.001c.687 0 1.15-.741 1.318-1.06a1.608 1.608 0 0 0-.157-1.772 4.393 4.393 0 0 0-1.09-.966 37.382 37.382 0 0 0 1.293-6.348c.207-1.828.31-4.169-.752-6.06a11.438 11.438 0 0 0-2.23-2.586 27.173 27.173 0 0 1-.973-.955 29.022 29.022 0 0 1-2.69-3.48 25.529 25.529 0 0 0-3-3.737 10.166 10.166 0 0 1 3.039 1.424 2.243 2.243 0 1 0 1.115-1.515 1.946 1.946 0 0 0-.24.165 7.406 7.406 0 0 0-5.294-3.765 8.753 8.753 0 0 1-2.272-.775 1.656 1.656 0 0 1-.925-2.234 3.964 3.964 0 0 1 1.584-1.495 8.585 8.585 0 0 0 .99-.713 8.986 8.986 0 0 0 1.93-2.375c.064-.113.118-.224.172-.337l.014-.029a.382.382 0 0 0 .094-.03 14.818 14.818 0 0 1 7.688-2.228 12.932 12.932 0 0 1 1.92.144 12.117 12.117 0 0 0 1.816.146c3.26 0 4.589-1.57 4.981-2.173a2.227 2.227 0 0 0 .71.39 2.264 2.264 0 0 0 2.705-3.19zm-.237 1.606a1.857 1.857 0 0 1-.924 1.088A1.825 1.825 0 0 1 90 48.03a1.815 1.815 0 0 1-.668-.392.182.182 0 0 0-.102-.16.34.34 0 0 0-.055-.005 1.857 1.857 0 0 1 1.391-3.083 1.88 1.88 0 0 1 1.662 1.014 1.21 1.21 0 0 1 .054.138l-.032-.001a3.393 3.393 0 0 0-1.37.326.499.499 0 0 0-.152-.103.49.49 0 0 0-.158-.025.53.53 0 0 0-.238.057.516.516 0 0 0 .08.952.492.492 0 0 0 .159.025.527.527 0 0 0 .236-.056.506.506 0 0 0 .255-.302.484.484 0 0 0 .001-.19 2.965 2.965 0 0 1 1.19-.285c.012 0 .072 0 .138-.003a1.83 1.83 0 0 1-.045.889zM73.4 49.773a.2.2 0 0 0-.398-.035 6.594 6.594 0 0 1-.867 2.596 8.588 8.588 0 0 1-1.849 2.27 8.169 8.169 0 0 1-.942.679 4.333 4.333 0 0 0-1.726 1.654 1.996 1.996 0 0 0 1.093 2.76 9.148 9.148 0 0 0 2.37.815c1.66.394 3.227.77 5.09 3.645a2.22 2.22 0 0 0-.448.687 9.408 9.408 0 0 0-5.03-1.71 6.261 6.261 0 0 0-1.33.14 14.823 14.823 0 0 1-3.011.418 3.762 3.762 0 0 1-2.538-.87 8.286 8.286 0 0 0 .69-.737.2.2 0 0 0-.04-.28.195.195 0 0 0-.12-.04.383.383 0 0 0-.16.08 13.006 13.006 0 0 1-10.132 4.32 19.077 19.077 0 0 1-5.418-.841 2.24 2.24 0 0 0 .235-1.065c.616-.047 3.441-.56 4.955-5.898.03-.104-.033-.214-.19-.252a.203.203 0 0 0-.196.144c-.087.307-.18.592-.275.867a8.529 8.529 0 0 1-4.033-1.58c-.21-.157-.418-.325-.63-.498a10.895 10.895 0 0 0-1.092-.813 5.327 5.327 0 0 0-1.828-.808 2.11 2.11 0 0 0 .195-.983 5.66 5.66 0 0 1 .474-.023 12.924 12.924 0 0 1 4.88 1.354 6.98 6.98 0 0 0 2.427.705l.134.003a2.501 2.501 0 0 0 2.18-1.091 3.2 3.2 0 0 0 .46-1.591 5.838 5.838 0 0 0 .642.613 4.583 4.583 0 0 0 2.517 1.06c.085.006.172.01.26.01a5.682 5.682 0 0 0 1.72-.308 11.28 11.28 0 0 0 7.5-8.216 7.09 7.09 0 0 0-.54-5.015c-1.135-1.984-3.896-2.692-6.1-2.692a8.725 8.725 0 0 0-2.188.258 5.035 5.035 0 0 0-3.409 2.785 8.012 8.012 0 0 0-.375 1.244c-.058.24-.12.49-.193.73a8.62 8.62 0 0 0-.952-4.177 6.003 6.003 0 0 0-3.463-3.168 2.236 2.236 0 0 0 .204-1.1 12.968 12.968 0 0 0 2.556.24 6.492 6.492 0 0 0 1.9-.204 13.053 13.053 0 0 0 1.278-.59 10.848 10.848 0 0 1 1.428-.637 5.051 5.051 0 0 1 1.59-.25 5.423 5.423 0 0 1 3.188 1.032 2.838 2.838 0 0 0-.686 1.418.224.224 0 0 0 .162.228.21.21 0 0 0 .035.003.199.199 0 0 0 .198-.168 3.493 3.493 0 0 1 2.689-2.479 12.945 12.945 0 0 1 2.437-.33c.527-.039 1.073-.078 1.604-.16a4.794 4.794 0 0 0 3.563-2.085 6.577 6.577 0 0 0 .75-3.355h.003a1.008 1.008 0 0 0 .15-.056 2.244 2.244 0 0 0 1.156-1.292l.007-.025c.202.304.388.616.485.8a15.546 15.546 0 0 1 .927 11.622 6.532 6.532 0 0 0-1.014-.086 3.594 3.594 0 0 0-2.341.68.202.202 0 0 0-.069.138.397.397 0 0 0 .048.144.196.196 0 0 0 .151.07.387.387 0 0 0 .131-.05 3.209 3.209 0 0 1 2.081-.587 6.148 6.148 0 0 1 1.264.132 5.106 5.106 0 0 1 2.682 1.652 13.564 13.564 0 0 1 .898 1.176c.232.326.472.663.732.977a7.31 7.31 0 0 0 5.52 2.718 5.782 5.782 0 0 0 .873-.069 2.25 2.25 0 0 0 .549 1.311c-.324.543-1.509 2.06-4.683 2.06a11.844 11.844 0 0 1-1.766-.143 13.199 13.199 0 0 0-1.99-.149 15.332 15.332 0 0 0-7.514 2.074 6.29 6.29 0 0 0 .475-1.806zm4.39 14.07a1.9 1.9 0 0 1 .53.076 1.84 1.84 0 0 1 1.197 2.456 3.378 3.378 0 0 0-1.23-.734.499.499 0 0 0-.038-.18.517.517 0 0 0-.455-.27.526.526 0 0 0-.248.063.518.518 0 0 0 .104.952.565.565 0 0 0 .144.02.51.51 0 0 0 .248-.063.493.493 0 0 0 .131-.136 3.241 3.241 0 0 1 1.162.701 1.819 1.819 0 0 1-.647.617 1.86 1.86 0 0 1-2.692-2.11l.001-.001.015-.062a1.863 1.863 0 0 1 1.779-1.328zm1.312 33.222c.056-.298.09-.656.124-1.041.029-.341.062-.693.114-1.013a.244.244 0 0 0 .058-.049.2.2 0 0 0-.159-.322.381.381 0 0 0-.157.076 6.39 6.39 0 0 1-4.41 2.274c.453-.208.906-.416 1.335-.635a3.708 3.708 0 0 0 .88-.7l.155-.15a2.82 2.82 0 0 0 .732-1.222c.032-.105-.029-.217-.187-.256a.202.202 0 0 0-.196.143 2.422 2.422 0 0 1-.626 1.047l-.16.156a3.349 3.349 0 0 1-.782.627c-.641.33-1.315.65-2.003.954a1.45 1.45 0 0 1-.63.162h-.04a.373.373 0 0 1-.22-.18.318.318 0 0 1-.056-.234v-.013a5.84 5.84 0 0 0 3.47-2.999.385.385 0 0 0 .01-.153c-.018-.05-.056-.09-.19-.133a.197.197 0 0 0-.18.114 5.493 5.493 0 0 1-4.08 3 .123.123 0 0 1-.097-.048.117.117 0 0 1-.018-.118 2.89 2.89 0 0 1 .95-1.128 6.49 6.49 0 0 0 1.507-1.52 5.958 5.958 0 0 0 .551-1.241 3.662 3.662 0 0 1 .672-1.323.2.2 0 0 0-.145-.339.39.39 0 0 0-.144.062 2.303 2.303 0 0 0-.314.432l-.002.005-.025-.016a4.944 4.944 0 0 1-1.833.925 1.718 1.718 0 0 1-.47.085.694.694 0 0 1-.232-.036c-.161-.055-.316-.244-.267-.398.04-.128.187-.213.359-.311l.136-.08a3.531 3.531 0 0 0 .97-1.051 2.466 2.466 0 0 1 1.436-1.213 4.617 4.617 0 0 0 .55-.26 2.326 2.326 0 0 0 .454-.356.19.19 0 0 0 .071-.074l.008-.004a2.395 2.395 0 0 0 .446-.68 5.775 5.775 0 0 1 3.752 2.156.176.176 0 0 0 .002.126 6.25 6.25 0 0 1 .264 2.872 24.105 24.105 0 0 1-1.106 5.116c-.036.108-.089.188-.145.188a.066.066 0 0 1-.033-.008 1.508 1.508 0 0 1-.1-1.216zm1.727-6.933a6.276 6.276 0 0 0-5.053-2.75h-.007a.196.196 0 0 0-.14.064.39.39 0 0 0-.052.143c.004.106.09.19.255.19h.003c.041 0 .111.002.193.007a1.967 1.967 0 0 1-.22.345 2.02 2.02 0 0 1-.599-.917 1.353 1.353 0 0 1-.021-.974.946.946 0 0 1 .815-.421 3.307 3.307 0 0 1 .355-.018 7.837 7.837 0 0 1 2.088.38 2.254 2.254 0 0 1 .37.138l.244.114a6.904 6.904 0 0 1 2.62 1.755 1.217 1.217 0 0 1 .118 1.342c-.133.255-.493.846-.96.846l-.04-.002a.193.193 0 0 0 .062-.092.396.396 0 0 0-.031-.15zm.973-9.55a37.025 37.025 0 0 1-1.246 6.17 16.587 16.587 0 0 0-1.327-.68l-.243-.116a2.778 2.778 0 0 0-.431-.159 13.09 13.09 0 0 0-1.241-.299 13.159 13.159 0 0 0-.149-2.167c-.08-.52-.204-1.042-.332-1.582-.1-.418-.204-.85-.281-1.276a12.883 12.883 0 0 1 .014-5.758c.029-.107-.034-.216-.192-.253a.202.202 0 0 0-.194.147 9.71 9.71 0 0 0-.273 1.671c-3.212-.735-6.567-3.855-8.65-6.555a3.83 3.83 0 0 0-.835-.858 32.366 32.366 0 0 1-1.918-2.345.205.205 0 0 0-.16-.08.394.394 0 0 0-.12.04.197.197 0 0 0-.078.132.384.384 0 0 0 .038.147c.498.664.992 1.271 1.518 1.844l-.054-.003-.022-.002h-.04a4.705 4.705 0 0 1-1.793-.55.2.2 0 0 0-.098.374 4.822 4.822 0 0 0 1.099.43 2.116 2.116 0 0 0-.51.396 5.031 5.031 0 0 0-.771 1.303l-.548 1.195c-.928 2.045-2.082 4.591-3.507 5.997a.226.226 0 0 0-.026.061c-.094.001-.26.004-.358.004a19.403 19.403 0 0 1-6.526-1.142.906.906 0 0 0-.105-.39c-.4-.7-1.682-1.01-2.544-1.217a10.89 10.89 0 0 1-.41-.104 2.346 2.346 0 0 0-.632-.106 1.342 1.342 0 0 0-.205.015 1.514 1.514 0 0 0-.768.438 17.423 17.423 0 0 1-2.349-1.168 23.628 23.628 0 0 1 2.303-7.92 2.245 2.245 0 0 0 .578-.538 19.571 19.571 0 0 0 5.635.887 13.973 13.973 0 0 0 9.463-3.465 4.15 4.15 0 0 0 2.823.994 15.287 15.287 0 0 0 3.111-.43 5.572 5.572 0 0 1 1.188-.124 6.955 6.955 0 0 1 1.219.114 22.53 22.53 0 0 1 3.373 4.122 29.33 29.33 0 0 0 2.728 3.53c.316.332.657.655.999.979a11.1 11.1 0 0 1 2.145 2.48 9.643 9.643 0 0 1 .702 5.818zM66.84 89.319a2.215 2.215 0 0 0-.069.48c-5.176-.063-7.283-1.598-7.631-1.872a14.994 14.994 0 0 1 .128-2.081.2.2 0 0 0-.039-.15.73.73 0 0 0-.167-.079.19.19 0 0 0-.189.174 17.044 17.044 0 0 0 1.226 8.727 2.262 2.262 0 0 0-.857.48 16.827 16.827 0 0 1-9.224-15.01l.007.002c.09.018.18.036.272.049a2.53 2.53 0 0 0 .364.03.976.976 0 0 0 .578-.18 42.801 42.801 0 0 0 6.399.81l.164.005a2.867 2.867 0 0 0 .782-.112c.13.974 1.17 6.182 8.471 8.253a2.157 2.157 0 0 0-.215.474zm-4.895 8.759a3.369 3.369 0 0 0-.726-1.235.502.502 0 0 0 .051-.177.517.517 0 1 0-.517.516h.003a.5.5 0 0 0 .179-.055 2.852 2.852 0 0 1 .667 1.18 1.82 1.82 0 0 1-.85.224 1.91 1.91 0 1 1 1.193-.453zm-21.981 8.691a.201.201 0 0 0-.086.27.199.199 0 0 0 .178.107l.091-.021a11.418 11.418 0 0 0 1.972-1.317c2.385.766 3.788 2.91 4.845 4.912a26.917 26.917 0 0 0 3.964 6.06 6.979 6.979 0 0 0-.235 2.113.323.323 0 0 1-.111.254.294.294 0 0 1-.212.07c-.012 0-.024 0-.037-.002a6.05 6.05 0 0 0-1.022-.09 4.942 4.942 0 0 0-.831.074.227.227 0 0 0-.02-.024c-1.39-1.115-4.284-3.435-7.378-5.619a211.02 211.02 0 0 0-2.33-1.615c-3.136-2.155-4.568-3.14-4.779-4.823-.106-.849-.048-1.25 2.06-5.555a41.567 41.567 0 0 0 1.71-3.843c.112-.307.222-.615.332-.927a24.085 24.085 0 0 1 1.13-2.815c.54-1.083 1.006-1.991 1.587-2.938.206.109.758.4.912.479 2.044 1.025 5.813 2.912 8.369 3.123-1.143 3.143-4.226 7.008-6.045 8.862a16.456 16.456 0 0 1-4.064 3.265zm13.703 7.884a5.654 5.654 0 0 0-.934 4.74.202.202 0 0 0 .193.138l.06-.008a.226.226 0 0 0 .13-.252 4.102 4.102 0 0 1-.17-1.04 6.012 6.012 0 0 0 2.02 1.04 3.238 3.238 0 0 1 1.974 1.756 2.512 2.512 0 0 1-.327 2.525 4.55 4.55 0 0 1-.798.7 6.16 6.16 0 0 0-.693.581 6.05 6.05 0 0 0-1.23 2.37 12.025 12.025 0 0 1-.488 1.265 5.588 5.588 0 0 1-3.21 2.83 5.373 5.373 0 0 1-1.707.272 5.556 5.556 0 0 1-2.47-.576 1.83 1.83 0 0 0-.087-.72l.027-.005c2.432-1.085 3.865-2.484 4.263-4.16a5.002 5.002 0 0 0-.87-3.893c.221.024.45.054.735.112a.203.203 0 0 0 .192-.16.195.195 0 0 0-.027-.15.384.384 0 0 0-.127-.086 8.124 8.124 0 0 0-1.687-.193 4.042 4.042 0 0 0-2.527.734 3.587 3.587 0 0 1 1.263-2.317 3.424 3.424 0 0 1 2.12-.632 5.564 5.564 0 0 1 .971.088.715.715 0 0 0 .12.01.703.703 0 0 0 .46-.17.718.718 0 0 0 .248-.569 6.53 6.53 0 0 1 .23-2.06l.024-.075a3.251 3.251 0 0 1 .8-1.347 2.785 2.785 0 0 1 1.522-.748zM42.515 130.69a3.074 3.074 0 0 1 .854.134.487.487 0 0 0 .027.178.501.501 0 0 0 .455.285.485.485 0 0 0 .218-.05.498.498 0 0 0 .26-.288.504.504 0 0 0-.023-.386.497.497 0 0 0-.288-.259.522.522 0 0 0-.169-.028.405.405 0 0 0-.348.168 3.454 3.454 0 0 0-.979-.152 2.579 2.579 0 0 0-.391.04 1.182 1.182 0 0 1 .034-.14 2.011 2.011 0 1 1-.084.547 2.053 2.053 0 0 1 .434-.049zM29.51 83.753a.208.208 0 0 0-.114-.035.374.374 0 0 0-.164.086.201.201 0 0 0 .049.278c.481.338.971.665 1.462.992l.349.233a18.603 18.603 0 0 1 .548 4.2 18.225 18.225 0 0 1-.86 5.03 21.132 21.132 0 0 1-.873 2.238 20.814 20.814 0 0 0-.897 2.312 20.088 20.088 0 0 0-.604 3.11l.001.006a4.011 4.011 0 0 0-1.94 2.32c-.096.186-.256.362-.33.362-.02 0-.072-.043-.128-.157a2.739 2.739 0 0 1-.133-.4 4.545 4.545 0 0 0-1.227-2.208l.003-.004a73.327 73.327 0 0 0-.456-12.647l-.113-1.138c-.359-3.563-.731-7.246 1.085-10.192a3.866 3.866 0 0 1 1.74-1.644 2.997 2.997 0 0 1 1.158-.213 9.273 9.273 0 0 1 2.379.447c.218.06.436.121.653.176.919.235 1.88.432 2.963.655a40.828 40.828 0 0 1 4.878 1.208 97.52 97.52 0 0 0 1.857.611c2.92.943 5.442 1.756 7.762 4.066a.202.202 0 0 0 .14.055.375.375 0 0 0 .142-.06.2.2 0 0 0-.002-.282 13.976 13.976 0 0 0-5.279-3.244 6.392 6.392 0 0 0 2.87-1.366l.263.103a.214.214 0 0 0 .009.041 1.083 1.083 0 0 0 .457.357 10.213 10.213 0 0 0 2.465.855 16.991 16.991 0 0 0 5.572 12.72 7.8 7.8 0 0 1-4.658 1.666l-.109-.002-.007-.005-.044.003c-.008-.003-.009-.01-.017-.012-.013 0-.022.01-.034.011h-.006c-2.448-.119-6.491-2.15-8.435-3.127a97.773 97.773 0 0 1-12.375-7.405zm2.118 18.441c-.927.491-2.573 1.494-2.821 2.531a1.074 1.074 0 0 0 .218.95c1.335 1.686 1.754 3.13 1.245 4.29a3.321 3.321 0 0 1-2.812 1.517 2.485 2.485 0 0 1-.272-.015l-.267-.037a4.846 4.846 0 0 0-.73-.066 3.002 3.002 0 0 0-.734.089 3.062 3.062 0 0 0-1.12.576 10.085 10.085 0 0 1-5.11 1.9 4.481 4.481 0 0 1-1.345-.197c-1.403-.44-2.44-1.636-3.083-3.551a2.101 2.101 0 0 0 .854-.698 6.172 6.172 0 0 0 2.943.78 5.53 5.53 0 0 0 2.993-.877 4.307 4.307 0 0 0 1.668-1.921 3.484 3.484 0 0 0 .71-3.171c-.493-1.541-2.183-2.55-3.21-3.034 3.837.03 4.423 2.076 4.737 3.178a3.042 3.042 0 0 0 .16.47.565.565 0 0 0 .487.377c.403 0 .683-.579.702-.623a3.56 3.56 0 0 1 3.685-2.565 6.725 6.725 0 0 1 1.102.097zm-19.385 5.774a1.704 1.704 0 0 1 .326-.729 2.652 2.652 0 0 1 .96.783.492.492 0 0 0-.077.154.498.498 0 0 0 .083.369.49.49 0 0 0 .321.203l.084.007a.495.495 0 0 0 .489-.41.49.49 0 0 0-.083-.371.523.523 0 0 0-.395-.21.506.506 0 0 0-.1.02 3.154 3.154 0 0 0-.995-.843 1.699 1.699 0 0 1 1.084-.404 1.74 1.74 0 0 1 .29.026 1.722 1.722 0 0 1-.288 3.419 1.764 1.764 0 0 1-.293-.026 1.724 1.724 0 0 1-1.406-1.988zm39.924-31.233a.326.326 0 0 0-.004.108.725.725 0 0 1-.025.107 19.434 19.434 0 0 1-.805 2.165 1.382 1.382 0 0 1-.236.403l-.002.002a.19.19 0 0 0-.02.019l-.028.027a.146.146 0 0 0-.034.02.647.647 0 0 1-.353.082 2.39 2.39 0 0 1-.306-.025 9.845 9.845 0 0 1-3.018-.951.78.78 0 0 1-.285-.204.188.188 0 0 0-.034-.088v-.001a.833.833 0 0 1-.033-.357 4.066 4.066 0 0 1 1.028-2.311 1.302 1.302 0 0 1 .708-.47.834.834 0 0 1 .14-.012 2.065 2.065 0 0 1 .525.095c.107.03.235.06.439.11.779.188 1.958.472 2.272 1.022a.545.545 0 0 1 .074.255zm-8.298.71a22.91 22.91 0 0 0 2.155.944 6.151 6.151 0 0 1-3.133 1.235.216.216 0 0 0-.048.016c-.626-.22-1.269-.43-1.994-.663-.396-.128-.81-.262-1.237-.402a9.156 9.156 0 0 0 4.257-1.13zm3.728-1.828a4.467 4.467 0 0 0-1.011 2.387c-.006.057-.002.117-.003.177a27.003 27.003 0 0 1-2.974-1.272 2.197 2.197 0 0 1 1.263-2.719 16.645 16.645 0 0 0 2.725 1.427zm10.16 4.684h-.103a42.365 42.365 0 0 1-6.105-.759 2.25 2.25 0 0 0 .15-.267 20.25 20.25 0 0 0 .817-2.194 20.007 20.007 0 0 0 6.575 1.132q.35 0 .706-.014a2.405 2.405 0 0 1-.548 1.572 1.945 1.945 0 0 1-1.491.53zM45.232 64.222a3.27 3.27 0 0 1 .898.14.5.5 0 0 0 .028.185.517.517 0 0 0 .466.293.504.504 0 0 0 .224-.052.517.517 0 0 0 .242-.691.521.521 0 0 0-.468-.29.5.5 0 0 0-.223.05.508.508 0 0 0-.139.125 3.619 3.619 0 0 0-1.02-.159 2.661 2.661 0 0 0-.414.043 1.3 1.3 0 0 1 .038-.158 1.865 1.865 0 1 1 2.57 2.295 1.861 1.861 0 0 1-1.426.079 1.808 1.808 0 0 1-1.232-1.81 2.218 2.218 0 0 1 .456-.05zm5.402-3.632a.197.197 0 0 0-.112-.034.393.393 0 0 0-.164.087c-.004.006-.28.424-.685 1.11a.196.196 0 0 0-.022-.014 40.873 40.873 0 0 1-7.345-2.169 9.086 9.086 0 0 1-3.41-2.186 9.395 9.395 0 0 1-1.804-4.625l-.152-.879a37.019 37.019 0 0 1-.82-8.98 10.48 10.48 0 0 0 1.561.19c.41.026.854.054 1.307.054.265 0 .535-.017.803-.042a6.926 6.926 0 0 0 .634 3.638l.094.248c.19.505.406 1.007.634 1.534a19.013 19.013 0 0 1 .985 2.636 9.348 9.348 0 0 1 .275 1.662 2.14 2.14 0 0 0-.67 2.64 2.115 2.115 0 0 0 1.217 1.088 2.16 2.16 0 0 0 .705.119 2.107 2.107 0 0 0 .925-.213 2.068 2.068 0 0 0 .783-.671 4.582 4.582 0 0 1 1.824.785 11.073 11.073 0 0 1 1.118.839c.189.152.381.308.578.452A8.915 8.915 0 0 0 53.02 59.5c-1.363 3.57-3.392 4.222-4.042 4.338a35.413 35.413 0 0 1 1.71-2.97.198.198 0 0 0 .03-.151.396.396 0 0 0-.084-.127zM38.606 28.64l.005.045a1.294 1.294 0 0 1-.057.525 7.586 7.586 0 0 0-.257 1.244.532.532 0 0 0-.304-.248.572.572 0 0 0-.158-.023.578.578 0 0 0-.174.03 21.522 21.522 0 0 1 .642-2.073l.113.017a1.086 1.086 0 0 1 .19.483zm1.342-1.563a1.25 1.25 0 0 1 .093 1.039 24.641 24.641 0 0 0-.836 3.84.205.205 0 0 0 .186.224h.013a.202.202 0 0 0 .2-.177c0-.008.14-1.072.422-2.303a.269.269 0 0 0 .051-.056 9.98 9.98 0 0 1 1.338-2.219.192.192 0 0 1 .143-.043.72.72 0 0 1 .046.001.171.171 0 0 1 .12.117c.163.557-.18 1.294-.864 2.761l-.231.497a5.243 5.243 0 0 0 .119 4.477.202.202 0 0 0 .174.1.392.392 0 0 0 .1-.025.2.2 0 0 0 .074-.274 4.275 4.275 0 0 1-.27-.66.25.25 0 0 0 .028-.024 2.95 2.95 0 0 1 2.078-1.133 1.11 1.11 0 0 1 .145-.01.295.295 0 0 1 .22.064.352.352 0 0 1 .01.323 2.126 2.126 0 0 1-.606.766 3.753 3.753 0 0 0-.541.59 3.586 3.586 0 0 0-.45 1.19l-.04.159a4.843 4.843 0 0 1-.71 1.665 1.95 1.95 0 0 1-1.476.594.2.2 0 0 0 .022.399h.021c.083-.01.163-.022.244-.034l-.373 1.082c-.236.013-.463.021-.675.021a8.665 8.665 0 0 1-2.049-.225c.008-.017.025-.03.027-.05l.136-.953-.002-.002c.006-.006.016-.006.02-.012a.298.298 0 0 0-.004-.084l.014-.1a1.155 1.155 0 0 0 .52.151.689.689 0 0 0 .24-.04.197.197 0 0 0 .113-.103.399.399 0 0 0 .006-.153.2.2 0 0 0-.214-.12h-.041a.314.314 0 0 1-.105.017.8.8 0 0 1-.391-.131 2.38 2.38 0 0 1-.982-1.727 13.057 13.057 0 0 1-.086-2.646 3.669 3.669 0 0 1 1.424-2.883.203.203 0 0 0 .14-.13l.093-.088c.044-.042.088-.084.142-.128a.162.162 0 0 1 .115-.034l.043.002a.146.146 0 0 1 .101.095 1.101 1.101 0 0 1-.111.943c-.132.224-.26.42-.385.61a2.991 2.991 0 0 0-.654 1.531.363.363 0 0 0 .051.143.387.387 0 0 0 .14.065h.005a.194.194 0 0 0 .202-.19 2.75 2.75 0 0 1 .6-1.344c.114-.173.232-.358.352-.56-.009.507.012.848.013.852a.198.198 0 0 0 .199.186h.012a.196.196 0 0 0 .137-.066.394.394 0 0 0 .05-.147 10.992 10.992 0 0 1 .344-3.376 1.673 1.673 0 0 0 .068-.655c.135-.418.328-.868.495-1.255.063-.144.118-.271.158-.373a.153.153 0 0 1 .138-.092c.031 0 .078.01.151.122zM36.306 39.7l.001.006a3.717 3.717 0 0 1-.63-.247.196.196 0 0 0-.104-.03.386.386 0 0 0-.17.096.199.199 0 0 0-.025.153.38.38 0 0 0 .09.122 6.51 6.51 0 0 0 3.22.643c.266 0 .555-.013.855-.034l.003-.002.004-.001.009.002h.002c.218-.016.443-.034.68-.062a.203.203 0 0 0 .135-.077.39.39 0 0 0 .041-.147.214.214 0 0 0-.222-.175 5.667 5.667 0 0 1-.343.03h-.02l.192-.557a1.668 1.668 0 0 1 1.153.303 1.37 1.37 0 0 1 .296 1.072 1.942 1.942 0 0 1-.894 1.73 1.694 1.694 0 0 1-.48.137.203.203 0 0 0-.066-.022.35.35 0 0 0-.12.058l-.005-.002h-.014a7.732 7.732 0 0 1-.902.049c-.433 0-.858-.027-1.289-.053a8.085 8.085 0 0 1-1.935-.285 2.102 2.102 0 0 1-.944-.557 2.201 2.201 0 0 1-.486-1.287 2.485 2.485 0 0 1 .058-.946 1.234 1.234 0 0 1 .5-.71 1.196 1.196 0 0 1 .66-.17 3.446 3.446 0 0 1 .868.144zm8.112 16.395a1.731 1.731 0 0 1-1.325.075 1.678 1.678 0 0 1-1.146-1.672 2.003 2.003 0 0 1 .422-.048 2.965 2.965 0 0 1 .821.128.476.476 0 0 0 .027.17.494.494 0 0 0 .284.256.498.498 0 0 0 .634-.308.489.489 0 0 0-.023-.377.498.498 0 0 0-.664-.233.463.463 0 0 0-.129.114 3.374 3.374 0 0 0-.948-.146 2.528 2.528 0 0 0-.374.038 1.065 1.065 0 0 1 .031-.13 1.707 1.707 0 0 1 .688-.87c.005-.004.007-.01.011-.015l.053-.031.001-.003h.001v-.002a.16.16 0 0 0 .029-.01 1.013 1.013 0 0 1 .099-.06 1.722 1.722 0 0 1 .75-.17 1.733 1.733 0 0 1 .757 3.294zM55.87 46.028a12.832 12.832 0 0 0 .67-1.624c.08-.254.143-.517.206-.777a7.644 7.644 0 0 1 .353-1.182 4.639 4.639 0 0 1 3.144-2.554 8.338 8.338 0 0 1 2.104-.249c2.082 0 4.683.656 5.734 2.495a6.692 6.692 0 0 1 .497 4.73 10.87 10.87 0 0 1-7.23 7.919 5.402 5.402 0 0 1-1.623.289c-.072 0-.141-.002-.21-.006a4.253 4.253 0 0 1-2.293-.974 6.145 6.145 0 0 1-2.012-6.46 12.35 12.35 0 0 1 .66-1.607zm-7.543-10.161a3.237 3.237 0 0 1 .899.14.492.492 0 0 0 .028.185.52.52 0 0 0 .467.294.5.5 0 0 0 .222-.052.516.516 0 0 0 .243-.69.52.52 0 0 0-.467-.294.505.505 0 0 0-.222.051.485.485 0 0 0-.14.125 3.606 3.606 0 0 0-1.017-.159 2.65 2.65 0 0 0-.41.043 1.83 1.83 0 1 1 .11 1.268 1.811 1.811 0 0 1-.166-.861 2.202 2.202 0 0 1 .453-.05zm24.102-9.581a3.201 3.201 0 0 1 .894.14.494.494 0 0 0 .027.185.514.514 0 0 0 .297.266.542.542 0 0 0 .17.028.494.494 0 0 0 .223-.052.517.517 0 0 0 .243-.692.52.52 0 0 0-.467-.291.418.418 0 0 0-.363.176 3.62 3.62 0 0 0-1.021-.158 2.66 2.66 0 0 0-.405.042 1.83 1.83 0 1 1 .11 1.266 1.81 1.81 0 0 1-.167-.86 2.208 2.208 0 0 1 .459-.05zM69.01 88.09a1.921 1.921 0 0 1 .527.076 1.866 1.866 0 0 1 1.265 2.314 1.557 1.557 0 0 1-.06.148 3.336 3.336 0 0 0-1.236-.74.49.49 0 0 0-.039-.18.52.52 0 0 0-.308-.25.488.488 0 0 0-.146-.021.521.521 0 0 0-.249.064.518.518 0 0 0 .496.909.506.506 0 0 0 .132-.136 3.26 3.26 0 0 1 1.163.701 1.826 1.826 0 0 1-.648.615 1.864 1.864 0 1 1-.897-3.5z"/><path d="m62.204 43.018 3.767.773a.251.251 0 0 0 .048.006.2.2 0 0 0 .195-.159.197.197 0 0 0-.028-.15.392.392 0 0 0-.127-.086l-3.814-.78a.2.2 0 0 0-.195.16.197.197 0 0 0 .028.151.392.392 0 0 0 .126.085zm-4.991.198h.004l2.81-.097a.2.2 0 0 0-.016-.399l-2.806.097a.2.2 0 0 0 .008.399z"/><path class="cls-2" d="M12.231 7.512h1.384v7.17c0 2.846-1.4 3.72-3.243 3.72a4.502 4.502 0 0 1-1.479-.254l.207-1.129a3.298 3.298 0 0 0 1.16.206c1.24 0 1.971-.556 1.971-2.655zm3.919 19.471c0 3.689-2.242 5.644-4.976 5.644-2.83 0-4.817-2.195-4.817-5.437 0-3.402 2.114-5.628 4.976-5.628 2.925 0 4.817 2.242 4.817 5.42zm-8.314.175c0 2.29 1.24 4.34 3.418 4.34 2.193 0 3.433-2.02 3.433-4.452 0-2.13-1.112-4.356-3.418-4.356-2.289 0-3.433 2.115-3.433 4.467zm-.366 8.803h1.384v5.168H8.9c.287-.413.573-.795.843-1.145l3.275-4.023h1.717l-3.88 4.548 4.18 6.167H13.4l-3.529-5.261-1.017 1.176v4.085H7.47zm6.32 19.915H9.623v3.863h4.642V60.9H8.241V50.185h5.787v1.16H9.624v3.387h4.165zm-6.026 8.677a14.353 14.353 0 0 1 2.655-.223 4.385 4.385 0 0 1 3.1.874 2.67 2.67 0 0 1 .843 2.035 2.813 2.813 0 0 1-2.019 2.735v.048a2.669 2.669 0 0 1 1.573 2.162 17.08 17.08 0 0 0 .828 2.94h-1.431a13.855 13.855 0 0 1-.716-2.559c-.318-1.478-.89-2.034-2.146-2.082H9.147v4.642H7.764zm1.383 4.88h1.415c1.479 0 2.416-.81 2.416-2.035 0-1.383-1-1.987-2.464-2.002a5.704 5.704 0 0 0-1.367.126zm81.622 83.055h-1.384v-7.17c0-2.846 1.4-3.72 3.243-3.72a4.502 4.502 0 0 1 1.479.254l-.207 1.129a3.298 3.298 0 0 0-1.16-.206c-1.24 0-1.97.556-1.97 2.655zm-3.919-19.471c0-3.689 2.242-5.643 4.976-5.643 2.83 0 4.817 2.194 4.817 5.436 0 3.402-2.114 5.628-4.976 5.628-2.925 0-4.817-2.242-4.817-5.42zm8.314-.174c0-2.29-1.24-4.34-3.418-4.34-2.193 0-3.433 2.019-3.433 4.451 0 2.13 1.112 4.356 3.418 4.356 2.289 0 3.433-2.115 3.433-4.468zm.366-8.804h-1.384v-5.168H94.1a28.04 28.04 0 0 1-.843 1.145l-3.274 4.023h-1.718l3.88-4.548-4.18-6.167H89.6l3.53 5.261 1.017-1.176v-4.086h1.383zm-6.32-19.915h4.166v-3.863h-4.642V99.1h6.025v10.715h-5.787v-1.16h4.404v-3.387H89.21zm6.026-8.677a14.353 14.353 0 0 1-2.655.223 4.385 4.385 0 0 1-3.1-.874 2.67 2.67 0 0 1-.843-2.035 2.813 2.813 0 0 1 2.019-2.735v-.048a2.669 2.669 0 0 1-1.573-2.162 17.08 17.08 0 0 0-.828-2.94h1.431a13.855 13.855 0 0 1 .715 2.559c.319 1.478.891 2.034 2.147 2.082h1.303v-4.642h1.383zm-1.383-4.88h-1.415c-1.478 0-2.416.81-2.416 2.035 0 1.383 1 1.987 2.464 2.002a5.704 5.704 0 0 0 1.367-.126z"/></svg>