<svg id="JOKERS" xmlns="http://www.w3.org/2000/svg" viewBox="0 0 103 160"><defs><style>.cls-1{fill:#fff}.cls-3{fill:#f49908}.cls-4{fill:#1e4262}.cls-5{fill:#f9c19b}.cls-6{fill:#383838}.cls-7{fill:#663f2e}</style></defs><path class="cls-1" d="M0 0h103v160H0z"/><path d="M12.231 7.512h1.384v7.17c0 2.846-1.4 3.72-3.243 3.72a4.502 4.502 0 0 1-1.479-.254l.207-1.129a3.298 3.298 0 0 0 1.16.206c1.24 0 1.971-.556 1.971-2.655zm3.919 19.471c0 3.689-2.242 5.644-4.976 5.644-2.83 0-4.817-2.195-4.817-5.437 0-3.402 2.114-5.628 4.976-5.628 2.925 0 4.817 2.242 4.817 5.42zm-8.314.175c0 2.29 1.24 4.34 3.418 4.34 2.193 0 3.433-2.02 3.433-4.452 0-2.13-1.112-4.356-3.418-4.356-2.289 0-3.433 2.115-3.433 4.467zm-.366 8.803h1.384v5.168H8.9c.287-.413.573-.795.843-1.145l3.275-4.023h1.717l-3.88 4.548 4.18 6.167H13.4l-3.529-5.261-1.017 1.176v4.085H7.47zm6.32 19.915H9.623v3.863h4.642V60.9H8.241V50.185h5.787v1.16H9.624v3.387h4.165zm-6.026 8.677a14.353 14.353 0 0 1 2.655-.223 4.385 4.385 0 0 1 3.1.874 2.67 2.67 0 0 1 .843 2.035 2.813 2.813 0 0 1-2.019 2.735v.048a2.669 2.669 0 0 1 1.573 2.162 17.08 17.08 0 0 0 .828 2.94h-1.431a13.855 13.855 0 0 1-.716-2.559c-.318-1.478-.89-2.034-2.146-2.082H9.147v4.642H7.764zm1.383 4.88h1.415c1.479 0 2.416-.81 2.416-2.035 0-1.383-1-1.987-2.464-2.002a5.704 5.704 0 0 0-1.367.126zm81.622 83.055h-1.384v-7.17c0-2.846 1.4-3.72 3.243-3.72a4.502 4.502 0 0 1 1.479.254l-.207 1.129a3.298 3.298 0 0 0-1.16-.206c-1.24 0-1.97.556-1.97 2.655zm-3.919-19.471c0-3.689 2.242-5.643 4.976-5.643 2.83 0 4.817 2.194 4.817 5.436 0 3.402-2.114 5.628-4.976 5.628-2.925 0-4.817-2.242-4.817-5.42zm8.314-.174c0-2.29-1.24-4.34-3.418-4.34-2.193 0-3.433 2.019-3.433 4.451 0 2.13 1.112 4.356 3.418 4.356 2.289 0 3.433-2.115 3.433-4.468zm.366-8.804h-1.384v-5.168H94.1a28.04 28.04 0 0 1-.843 1.145l-3.274 4.023h-1.718l3.88-4.548-4.18-6.167H89.6l3.53 5.261 1.017-1.176v-4.086h1.383zm-6.32-19.915h4.166v-3.863h-4.642V99.1h6.025v10.715h-5.787v-1.16h4.404v-3.387H89.21zm6.026-8.677a14.353 14.353 0 0 1-2.655.223 4.385 4.385 0 0 1-3.1-.874 2.67 2.67 0 0 1-.843-2.035 2.813 2.813 0 0 1 2.019-2.735v-.048a2.669 2.669 0 0 1-1.573-2.162 17.08 17.08 0 0 0-.828-2.94h1.431a13.855 13.855 0 0 1 .715 2.559c.319 1.478.891 2.034 2.147 2.082h1.303v-4.642h1.383zm-1.383-4.88h-1.415c-1.478 0-2.416.81-2.416 2.035 0 1.383 1 1.987 2.464 2.002a5.704 5.704 0 0 0 1.367-.126z" fill="#0d5291"/><path d="M81.174 53.688a2.37 2.37 0 0 0-2.805-1.841 2.356 2.356 0 0 0-.75.307l-.03-.044c-1.092-1.16-1.092-1.16-.904-5.217l.069-1.527c.253-5.835-3.938-7.284-3.98-7.297l-.031.002c-.688-2.234-3.313-4.316-3.436-4.411-3.911-2.374-3.718-5.558-3.61-6.313a2.37 2.37 0 1 0 .416-4.383 2.287 2.287 0 0 0-1.6 2.735h-.033c-6.086 2.145-5.679 7.342-5.17 9.617a13.446 13.446 0 0 0-1.09-.047c-2.38 0-6.55.675-7.75 5.186-1.323 4.361-2.183 4.837-3.374 5.496l-.143.08a2.199 2.199 0 0 0-.362-.114 2.365 2.365 0 0 0-2.804 1.84 2.374 2.374 0 0 0 2.323 2.854 2.3 2.3 0 0 0 2.36-2.274 7.842 7.842 0 0 0 1.015.06 8.895 8.895 0 0 0 4.531-1.219 7.615 7.615 0 0 0 2.381 5.908 10.981 10.981 0 0 1-4.894 1.189 9.244 9.244 0 0 1-6.302-2.466.155.155 0 0 0-.121-.041.697.697 0 0 0-.107.01.201.201 0 0 0-.106.201 6.333 6.333 0 0 0 4.646 5.03 5.419 5.419 0 0 0-1.52 1.345 7.337 7.337 0 0 1-.702.818 6.481 6.481 0 0 1-1.46.16 9.331 9.331 0 0 1-1.012-.058.2.2 0 0 0-.131.353 8.472 8.472 0 0 0 1.256.747 14.983 14.983 0 0 1-2.806 1.842 14.833 14.833 0 0 0-3.516 2.583 4.254 4.254 0 0 0-1.116-1.46c-2.102-1.7-2.175-3.129-2.145-3.55l1.281.053a.196.196 0 0 0 .137-.066.384.384 0 0 0 .052-.162c-.34-2.72-3.778-5.21-3.923-5.314a.872.872 0 0 0-.183-.028.389.389 0 0 0-.126.13c-.039.128-.085.24-.129.355l-.026-.044a3.58 3.58 0 0 1-.577-1.329 2.537 2.537 0 0 0 .413-.74 3.477 3.477 0 0 0 .128-1.18A4.464 4.464 0 0 0 33.173 50a5.505 5.505 0 0 0-.337-.69l-.129-.237a6.85 6.85 0 0 1-.718-2.269 1.836 1.836 0 0 0-.128-.53.754.754 0 0 0-.618-.457.88.88 0 0 0-.424.114 1.852 1.852 0 0 0-.81.953 1.937 1.937 0 0 0-.127.552 11.237 11.237 0 0 0-1.625-1.337 1.266 1.266 0 0 0 .205-1.322.629.629 0 0 0-.282-.274.525.525 0 0 0-.223-.048 1.022 1.022 0 0 0-.555.22c-.186.135-.365.283-.556.439l-.091.076a4.197 4.197 0 0 0-1.741-.438 2.75 2.75 0 0 0-.46.038c-.354.057-.744.259-.774.65a.694.694 0 0 0 .086.373 1.774 1.774 0 0 0 .721.662c.14.084.243.14.432.243l.192.098a1.624 1.624 0 0 0-.018.404l.122 1.427a1.481 1.481 0 0 0-.473.222 1 1 0 0 0-.419.954 1.09 1.09 0 0 0 .482.65 1.656 1.656 0 0 0-.538 1.816 2.977 2.977 0 0 0 .994 1.185 5.056 5.056 0 0 1 .605.565 4.92 4.92 0 0 1 .328.449 2.969 2.969 0 0 0 .69.793 3.064 3.064 0 0 0 1.052.42 4.687 4.687 0 0 1 .56.172 2.4 2.4 0 0 1 1.31 1.678 4.531 4.531 0 0 1-.126.003 3.672 3.672 0 0 1-.504-.035.196.196 0 0 0-.185.14 9.617 9.617 0 0 0 .426 6.242.346.346 0 0 0 .17.115h.01a.39.39 0 0 0 .16-.078l1.549-2.087c.281 1.635 1.64 7.793 6.355 9.891a1.796 1.796 0 0 0 1.081.274c1.432 0 4.045-.97 8.401-5.53a22.326 22.326 0 0 0-.622 3.409c-.333 3.266-.467 4.388-.518 4.77a1.203 1.203 0 0 0-.103-.012 2.287 2.287 0 0 0-1.314 2.56 7.234 7.234 0 0 0-1.835-.227 9.075 9.075 0 0 0-3.372.676 11.898 11.898 0 0 1-4.285.95 3.202 3.202 0 0 1-2.664-.967.184.184 0 0 0-.166-.07.57.57 0 0 0-.076.006.2.2 0 0 0-.114.222 9.774 9.774 0 0 0 2.41 4.547c-.21.012-.418.025-.632.025a9.096 9.096 0 0 1-2.667-.385.383.383 0 0 0-.155.074.198.198 0 0 0-.02.222 8.074 8.074 0 0 0 1.801 2.012c-1.722.862-5.495 3.056-6.437 6.126a4.95 4.95 0 0 0 .545 4.06 5385.08 5385.08 0 0 0 7.396 12.739l.017.028a9.483 9.483 0 0 0-2.04-.234 7.832 7.832 0 0 0-2.517.378.2.2 0 0 0 .053.385 9.881 9.881 0 0 1 4.672 2.064c.278 1.865-.015 3.271-.87 4.182a4.952 4.952 0 0 1-3.708 1.261c-.262 0-.537-.013-.818-.035a2.345 2.345 0 0 0-.431-1.16 2.382 2.382 0 0 0-1.919-.973 2.37 2.37 0 0 0-1.91 3.769 2.38 2.38 0 0 0 1.917.972 2.345 2.345 0 0 0 1.397-.456 1.406 1.406 0 0 0 .132-.115 7.114 7.114 0 0 0 4.026 1.364 6.198 6.198 0 0 0 1.299-.139 8.014 8.014 0 0 0 4.59-3.06 2.798 2.798 0 0 1 1.644-.999c1.403-.45 2.23-1.05 2.528-1.836.436-1.145-.345-2.466-1.102-3.747-.22-.372-.448-.757-.641-1.13-1.148-2.22 2.073-4.48 2.107-4.504a.2.2 0 0 0 .071-.242.202.202 0 0 0-.209-.12h-.013a6.33 6.33 0 0 0-4.38 2.58 14.756 14.756 0 0 1-1.499-5.614l-.056-.427c-.335-2.508-.842-5.024-2.22-6.527a17.31 17.31 0 0 0 7.695-3.455 9.086 9.086 0 0 0 3.607-1.614 9.046 9.046 0 0 0 2.203 4.38 30.973 30.973 0 0 0 2.144 15.927c-1.721 1.936-2.878 6.64-2.476 10.088a16.366 16.366 0 0 1-.029 4.824 4.277 4.277 0 0 0-3.337-2.624.2.2 0 0 0-.123.356c.032.026 3.14 2.522 1.833 5.553a67.99 67.99 0 0 1-.402.913c-1.18 2.66-1.959 4.415.73 5.867a5.777 5.777 0 0 1 2.461 1.965 5.19 5.19 0 0 0 4.197 2.059 4.394 4.394 0 0 0 1.824-.386 4.032 4.032 0 0 0 2.159-2.576 6.452 6.452 0 0 0 .327-2.481 2.335 2.335 0 0 0 1.197-.435 2.371 2.371 0 0 0-1.056-4.253 2.43 2.43 0 0 0-.354-.027 2.388 2.388 0 0 0-2.345 2.019 2.362 2.362 0 0 0 .683 2.025 3.42 3.42 0 0 1-1.477.969 6.396 6.396 0 0 1-1.778-5.17 7.145 7.145 0 0 1 3.14-4.3.2.2 0 0 0 .086-.244.206.206 0 0 0-.213-.127h-.012a7.33 7.33 0 0 0-3.112 1.452 31.404 31.404 0 0 1 1.436-5.454 31.33 31.33 0 0 0 3.083-10.89 4.824 4.824 0 0 1 .486-1.371c1.552-3.802 1.224-10.812 1.188-11.489a15.314 15.314 0 0 0 1.68.117l-.074.212a5.516 5.516 0 0 1-.923 1.956.8.8 0 0 0-.198.764.754.754 0 0 0 .762.689c.588 0 1.386-.588 2.368-1.738a3.028 3.028 0 0 1 .224 2.164l-.174.5c-.563 1.605-1.095 3.12-.54 3.732a.62.62 0 0 0 .369.113.785.785 0 0 0 .265-.048c.488-.173.959-.828 1.401-1.923a1.207 1.207 0 0 0 .802.43.68.68 0 0 0 .22-.035 1.078 1.078 0 0 0 .528-.503 1.64 1.64 0 0 0 .682.18.903.903 0 0 0 .533-.163 1.202 1.202 0 0 0 .392-.546c.036.515.03.843.03.847l-.01.2c-.06 1.274.39 1.459.476 1.481a.305.305 0 0 0 .06.009.883.883 0 0 0 .74-.38c.583-.79.327-2.496.174-2.996a13.258 13.258 0 0 1-.325-3.115c0-.226.005-.448.011-.672a5.93 5.93 0 0 0-.19-2.123 7.269 7.269 0 0 1-.292-1.39c.025.033.055.06.08.096a.381.381 0 0 0 .163.084l.054-.007a5.692 5.692 0 0 0 3.735-4.503.197.197 0 0 0-.05-.169.482.482 0 0 0-.169-.064l-1.61.173.038-.067c.605-1.095 2.935-5.305 3.44-6.241l.141-.251c.78-1.347 2.848-4.923-.304-12.645a.176.176 0 0 0-.095-.089 9.883 9.883 0 0 0-1.116-4.728 6.042 6.042 0 0 0 3.11-1.804.2.2 0 0 0 .024-.207.196.196 0 0 0-.173-.115 11.083 11.083 0 0 1-8.403-4.692 6.146 6.146 0 0 0 3.913-3.758 8.496 8.496 0 0 1 1.324-3.014 7.497 7.497 0 0 0 5.146 3.574 2.333 2.333 0 0 0-.01.928 2.371 2.371 0 0 0 2.318 1.89 2.394 2.394 0 0 0 .486-.05 2.372 2.372 0 0 0 1.842-2.803zm-21.96 25.329a.188.188 0 0 0-.133-.173 29.686 29.686 0 0 0 3.186-6.114.242.242 0 0 0-.003-.078 16.932 16.932 0 0 0 3.026-4.344c.224.59.393.942.396.947a44.344 44.344 0 0 1 1.828 4.155 8.667 8.667 0 0 0 1.039 1.934.231.231 0 0 0-.032.016 10.056 10.056 0 0 0-2.617 6.21c-.245 2.994-1.637 4.05-1.673 4.077L62.826 84.3a.579.579 0 0 0-.168-.051.394.394 0 0 0-.144.1 5.936 5.936 0 0 0-.5 2.33 6.158 6.158 0 0 1-.57-.827 15.867 15.867 0 0 0-3.156-3.902 4.01 4.01 0 0 0 .926-2.933zm1.127 11.153a8.441 8.441 0 0 0 1.988-.259c.076.237.16.475.26.711a.223.223 0 0 0 .208.12 5.07 5.07 0 0 1 .396-.027.318.318 0 0 1 .02.252c-.044.152-.228.457-.967.784a3.634 3.634 0 0 0-2.037 2.142 7.043 7.043 0 0 1-1.759-4.017 6.435 6.435 0 0 0 1.89.294z"/><path class="cls-3" d="M65.772 27.056a2.072 2.072 0 0 0 2.99-2.39 2.027 2.027 0 0 0-.578-.905c-.006.006-.007.015-.015.02a3.16 3.16 0 0 0-1.115 1.141.425.425 0 0 1 .135.198.436.436 0 0 1-.296.538.427.427 0 0 1-.12.018.436.436 0 0 1-.418-.314.433.433 0 0 1 .297-.537.424.424 0 0 1 .224.003 3.358 3.358 0 0 1 1.172-1.207 2.067 2.067 0 1 0-2.276 3.435z"/><path class="cls-1" d="M72.853 81.046c-.06.1-.11.19-.15.26-.57 1.07-3.56 6.46-3.59 6.52a.11.11 0 0 0 0 .08l-.2.02a4.231 4.231 0 0 0-1.05-3.46.123.123 0 0 0-.08-.04 3.836 3.836 0 0 0-3.03 1.86l-.4-.38a.09.09 0 0 0 .05-.01c.06-.05 1.54-1.12 1.8-4.3a9.777 9.777 0 0 1 2.52-6.02.097.097 0 0 0 .01-.14 4.317 4.317 0 0 0 1.35 1.25.06.06 0 0 0 .04.01.096.096 0 0 0 .09-.06.1.1 0 0 0-.05-.13 5.851 5.851 0 0 1-2.37-3.21 42.64 42.64 0 0 0-1.84-4.18 15.354 15.354 0 0 1-.83-2.24.109.109 0 0 0-.12-.07.101.101 0 0 0-.07.13c.1.36.21.68.31.96a.117.117 0 0 0-.11.05 16.175 16.175 0 0 1-4.84 6.06.097.097 0 0 0 .06.18c.02 0 .04 0 .05-.02a10.126 10.126 0 0 0 1.5-1.29 31.346 31.346 0 0 1-3.22 6.02 34.405 34.405 0 0 1-4.66-.68.22.22 0 0 0-.01-.08 1.574 1.574 0 0 0-.9-.87 14.19 14.19 0 0 0-1.48-.67q-.33-.135-.66-.24a1.176 1.176 0 0 1-.2-.07 1.633 1.633 0 0 0-1.7.08c-.06.04-.1.1-.15.14a.102.102 0 0 0-.06-.05 16.005 16.005 0 0 1-2.5-1.53c.04-.17.15-.97.56-5a17.087 17.087 0 0 1 2.23-7.39.097.097 0 1 0-.16-.11 13.266 13.266 0 0 0-1.48 3.41.108.108 0 0 0-.07.03c-6.93 7.42-9.47 5.66-9.52 5.63-4.8-2.15-6.05-8.58-6.25-9.87a5.007 5.007 0 0 0 3.04 1.37.142.142 0 0 0 .06-.02c1.13-.91.96-2.81.89-3.32l.4.02c-.05.37-.1 1.99 2.26 3.9a4.028 4.028 0 0 1 1.37 3.75.094.094 0 0 0 .08.11h.02a.097.097 0 0 0 .1-.08 4.352 4.352 0 0 0-.23-2.2.064.064 0 0 0 .05-.02 14.574 14.574 0 0 1 3.56-2.65 15.418 15.418 0 0 0 3.01-2c.02-.01.02-.03.03-.04a9.408 9.408 0 0 0 3.82.83 8.94 8.94 0 0 0 2.28-.3 3.575 3.575 0 0 1-2.61 3.08.099.099 0 0 0-.08.1.105.105 0 0 0 .09.09c.05.01 5.12.83 8.03-2.18a.804.804 0 0 0 .13-.13 7.807 7.807 0 0 0 3.83 6.98.09.09 0 0 0 .05.01.073.073 0 0 0 .06-.02.087.087 0 0 0 .04-.09 10.44 10.44 0 0 1 .56-5.2c0 .02-.01.04 0 .06.93 2.7 5.64 3.54 5.84 3.58h.02a.096.096 0 0 0 .09-.06.1.1 0 0 0-.04-.12 4.812 4.812 0 0 1-1.72-4.22.223.223 0 0 0 .03.05 7.85 7.85 0 0 0 3.51.9 5.753 5.753 0 0 0 1.04-.09.064.064 0 0 0 0 .06c.03.04 2.13 4.07.59 6.33a.107.107 0 0 0 .03.14.142.142 0 0 0 .06.02.102.102 0 0 0 .08-.05 3.423 3.423 0 0 0 .54-1.41c3.01 7.49 1.02 10.94.27 12.24z"/><path class="cls-4" d="M57.843 62.066a81.596 81.596 0 0 0-6.21 14.53q-.33-.135-.66-.24a1.176 1.176 0 0 1-.2-.07 1.633 1.633 0 0 0-1.7.08c-.06.04-.1.1-.15.14a.102.102 0 0 0-.06-.05 16.005 16.005 0 0 1-2.5-1.53c.04-.17.15-.97.56-5a17.087 17.087 0 0 1 2.23-7.39.097.097 0 1 0-.16-.11 13.266 13.266 0 0 0-1.48 3.41.108.108 0 0 0-.07.03c-6.93 7.42-9.47 5.66-9.52 5.63-4.8-2.15-6.05-8.58-6.25-9.87a5.007 5.007 0 0 0 3.04 1.37.142.142 0 0 0 .06-.02c1.13-.91.96-2.81.89-3.32l.4.02c-.05.37-.1 1.99 2.26 3.9a4.028 4.028 0 0 1 1.37 3.75.094.094 0 0 0 .08.11h.02a.097.097 0 0 0 .1-.08 4.352 4.352 0 0 0-.23-2.2.064.064 0 0 0 .05-.02 14.574 14.574 0 0 1 3.56-2.65 15.418 15.418 0 0 0 3.01-2c.02-.01.02-.03.03-.04a9.408 9.408 0 0 0 3.82.83 8.94 8.94 0 0 0 2.28-.3 3.575 3.575 0 0 1-2.61 3.08.099.099 0 0 0-.08.1.105.105 0 0 0 .09.09c.05.01 5.12.83 8.03-2.18zm-7.509-4.971c-.114-.02-.221-.044-.33-.067a.093.093 0 0 1-.038.047 5.346 5.346 0 0 0-1.73 1.454 7.275 7.275 0 0 1-.532.637 4.392 4.392 0 0 0 2.63-2.071z"/><path class="cls-5" d="M72.383 43.087c-5.136-3.984-9.435-1.594-9.477-1.568-6.612 3.429-4.157 10.832-4.132 10.906v.006l.005.015c.005.039.513 3.946 3.797 4.947a1.052 1.052 0 0 0 .424.035c.94-.11 5.684-.836 6.777-4.333a7.924 7.924 0 0 1 1.862-3.715 4.962 4.962 0 0 0 .745-6.294zm-9.42 1.94a3.303 3.303 0 0 1 3.622-.087.1.1 0 1 1-.107.168 3.051 3.051 0 0 0-3.394.079.098.098 0 0 1-.06.02.1.1 0 0 1-.06-.18zm2.413 2.104c-.099.45-.447.757-.777.685a.75.75 0 0 1-.42-.947c.1-.45.447-.757.778-.685a.75.75 0 0 1 .418.947zm.174 7.373a3.234 3.234 0 0 1-.674.066 2.801 2.801 0 0 1-1.851-.631c-.779-.675-1.104-1.835-.968-3.45l.102-1.213.321 1.175a6.125 6.125 0 0 0 3.11 3.646l.59.262zm1.75-2.063a1.28 1.28 0 0 1-.64.163 3.225 3.225 0 0 1-1.773-.735.1.1 0 1 1 .116-.162c.932.67 1.673.856 2.197.56 1.227-.695.988-3.78.986-3.812a.1.1 0 0 1 .091-.107.091.091 0 0 1 .108.092c.01.132.25 3.244-1.086 4zm3.115-3.138c-.099.45-.447.757-.777.684a.75.75 0 0 1-.42-.947c.1-.45.447-.757.778-.684a.75.75 0 0 1 .419.947zm.802-1.591h-.008a.1.1 0 0 1-.1-.09 1.385 1.385 0 0 0-1.01-1.166.1.1 0 0 1-.073-.12.104.104 0 0 1 .121-.073 1.59 1.59 0 0 1 1.161 1.34.1.1 0 0 1-.092.11z"/><path class="cls-4" d="M33.95 114.23a5.223 5.223 0 0 1-3.932 1.357c-.289 0-.59-.014-.899-.04a2.082 2.082 0 0 1-.589 1.48 6.439 6.439 0 0 0 5.122 1.193 7.761 7.761 0 0 0 4.396-2.923 3.025 3.025 0 0 1 1.82-1.13c1.3-.418 2.065-.96 2.329-1.655.384-1.012-.328-2.214-1.08-3.487a23.563 23.563 0 0 1-.65-1.147c-1.028-1.986.997-3.922 1.85-4.618-3.743.87-4.446 3.338-4.526 4.766a.565.565 0 0 1-.291.465.576.576 0 0 1-.556.005 9.119 9.119 0 0 0-6.532-.95 11.874 11.874 0 0 1 5.453 2.972.099.099 0 0 1 0 .14.1.1 0 0 1-.142 0 10.961 10.961 0 0 0-.808-.698 5.032 5.032 0 0 1-.966 4.27z"/><path class="cls-6" d="M51.842 94.352a.1.1 0 0 1-.094.133.1.1 0 0 1-.034-.006 8.982 8.982 0 0 1-3.39-2.121 30.549 30.549 0 0 0 2.76 17.014.1.1 0 0 1-.04.135.103.103 0 0 1-.047.012.099.099 0 0 1-.088-.053c-.01-.017-.22-.424-.521-1.119-1.662 1.898-2.773 6.468-2.383 9.83a13.543 13.543 0 0 1-.131 5.288.094.094 0 0 1-.075.054 11.457 11.457 0 0 1 .82 3.668.25.25 0 0 0 .199.23.225.225 0 0 0 .253-.116 11.972 11.972 0 0 1 2.706-3.357.096.096 0 0 1-.016-.06 30.008 30.008 0 0 1 1.508-5.867 30.987 30.987 0 0 0 3.057-10.77 5.14 5.14 0 0 1 .511-1.492c1.585-3.88 1.164-11.345 1.16-11.42a.094.094 0 0 1 .042-.081c-2.15-.306-5.154-1.23-6.158-3.955a7.068 7.068 0 0 0-.04 4.053z"/><path class="cls-3" d="M62.81 41.343c.039-.022 4.197-2.324 9.242 1.263a6.949 6.949 0 0 0-5.987-3.009 12.009 12.009 0 0 0-3.061.426 7.508 7.508 0 0 0-3.174 1.675c-3.464 3.164-2.284 7.686-1.513 9.687-.422-2.235-.721-7.338 4.493-10.042z"/><path class="cls-5" d="M27.698 48.299a5.385 5.385 0 0 0-.35-.278l.037.17c.011.053.02.106.032.158.006.002.014-.003.02 0 .016-.007.09-.008.26-.05zm1 2.451a.708.708 0 0 0 .248-.646 1.218 1.218 0 0 0-.698-.795 3.958 3.958 0 0 0-2.455-.468c-.066.009-.151.03-.23.047-.01.003-.015.011-.025.012h-.009l-.01-.004a1.302 1.302 0 0 0-.497.211.715.715 0 0 0-.304.66.937.937 0 0 0 .532.582 2.363 2.363 0 0 1 1.589-.042 2.56 2.56 0 0 1 1.112.548.097.097 0 0 1 .063 0 .705.705 0 0 0 .684-.105z"/><path class="cls-6" d="M38.153 105.787c.01.02.03.02.05.03a5.133 5.133 0 0 0-.61 2.2.368.368 0 0 1-.19.3.383.383 0 0 1-.36 0 10.579 10.579 0 0 0-2.21-.88.075.075 0 0 0 0-.09c-.04-.06-3.83-6.58-6.82-11.74-.25-.43-.49-.86-.73-1.27a2.128 2.128 0 0 1-.11-.21 4.534 4.534 0 0 1-.41-3.61c.94-3.07 4.84-5.25 6.51-6.06a11.308 11.308 0 0 0 5.96 2.23 5.983 5.983 0 0 1-3.54 1.28 5.396 5.396 0 0 1-.56-.03.09.09 0 0 0-.1.07.1.1 0 0 0 .04.12 11.089 11.089 0 0 0 6.68 1.29 16.382 16.382 0 0 1-9.04 3.37h-.01a.099.099 0 0 0-.1.09.103.103 0 0 0 .1.11h.01a10.402 10.402 0 0 0 1.44-.14 2.157 2.157 0 0 1-1.21 1.02.11.11 0 0 0-.09.12.097.097 0 0 0 .1.08h.02a2.285 2.285 0 0 0 1.3-1.03c1.36 1.43 1.85 3.93 2.18 6.42l.06.42a14.395 14.395 0 0 0 1.64 5.91z"/><path class="cls-5" d="M24.602 45.084c-.231.038-.507.16-.524.377a.403.403 0 0 0 .054.213 1.533 1.533 0 0 0 .61.542c.153.092.26.15.377.214.077.041.16.087.261.144a1.484 1.484 0 0 1 .383-.439l.835-.688a3.49 3.49 0 0 0-1.996-.363z"/><path class="cls-3" d="M46.53 46.21a2.06 2.06 0 0 0-2.377 2.686.09.09 0 0 1 .04-.017 3.169 3.169 0 0 0 1.518-.49.424.424 0 0 1-.026-.239.434.434 0 0 1 .512-.337.434.434 0 0 1-.086.86.404.404 0 0 1-.09-.01.424.424 0 0 1-.197-.107 3.354 3.354 0 0 1-1.604.52 2.093 2.093 0 0 0 .158.3 2.072 2.072 0 1 0 2.152-3.166z"/><path class="cls-6" d="M34.673 62.797c1.16-.965.777-3.201.772-3.223a.1.1 0 0 1 .024-.083.08.08 0 0 1 .079-.035l1.968.08c-.368-2.29-3.086-4.464-3.673-4.91a4.202 4.202 0 0 1-4.494 3.203 9.177 9.177 0 0 0 .374 5.789l1.733-2.284v-.001a.1.1 0 0 1 .068-.038.117.117 0 0 1 .075.022 5.328 5.328 0 0 0 3.074 1.48z"/><path class="cls-1" d="M58.193 87.456a.099.099 0 0 0-.09-.1h-.01a.106.106 0 0 0-.1.09c0 .03-.01.18-.01.42 0 1.2.18 4.64 2.09 6.34-1.3 0-6.77-.23-8.06-4.11a.218.218 0 0 0-.04-.05 6.524 6.524 0 0 1 .61-1.29.098.098 0 0 0-.03-.14.11.11 0 0 0-.14.04 7.33 7.33 0 0 0-.82 5.57 8.569 8.569 0 0 1-5.51-6.78.095.095 0 0 0-.16-.07c-4.28 3.38-8.97 1.48-10.34.79h.11c3.46 0 5.76-3.46 5.78-3.5a.099.099 0 0 0-.03-.14.102.102 0 0 0-.14.03 9.044 9.044 0 0 1-1.94 2.03.106.106 0 0 0-.09-.1 10.235 10.235 0 0 1-7.76-4.13 9.614 9.614 0 0 0 3.55.26.037.037 0 0 0 .03.01.035.035 0 0 1 .02-.01 14.906 14.906 0 0 0 4.57-1.25.101.101 0 0 0 .04-.14.088.088 0 0 0-.13-.04 14.704 14.704 0 0 1-4.48 1.23 8.45 8.45 0 0 1-2.55-4.3c1.22 1.11 3.96 1.05 7.03-.18a7.569 7.569 0 0 1 5.6-.25c.01.01.02 0 .03 0a23.728 23.728 0 0 0 2.66 1.52.09.09 0 0 0 .05.01.102.102 0 0 0 .08-.05 1.094 1.094 0 0 0 .03.44.988.988 0 0 0 .37.43 5.354 5.354 0 0 0 1.3.62c.03.01.05.02.08.03l1.88.69a1.114 1.114 0 0 0 .37.09c.03 0 .05-.01.08-.01a.795.795 0 0 0 .43-.24 2.177 2.177 0 0 0 .15-.16c.01.01.02.02.03.02a23.829 23.829 0 0 0 5.12.86.086.086 0 0 0 .03.06 15.128 15.128 0 0 1 3.3 4c1.3 2.31 2.83 2.53 4.33 2.26-1.15.7-4.28 2.32-7.21 1.27a13.305 13.305 0 0 1-.11-2.07z"/><path class="cls-4" d="M58.193 87.456a.099.099 0 0 0-.09-.1h-.01a.106.106 0 0 0-.1.09c0 .03-.01.18-.01.42 0 1.2.18 4.64 2.09 6.34-1.3 0-6.77-.23-8.06-4.11a.218.218 0 0 0-.04-.05 6.524 6.524 0 0 1 .61-1.29.098.098 0 0 0-.03-.14.11.11 0 0 0-.14.04 7.33 7.33 0 0 0-.82 5.57 8.569 8.569 0 0 1-5.51-6.78.095.095 0 0 0-.16-.07 17.16 17.16 0 0 1 3.79-6.72c.03.01.05.02.08.03l1.88.69a1.114 1.114 0 0 0 .37.09c.03 0 .05-.01.08-.01a.795.795 0 0 0 .43-.24 2.177 2.177 0 0 0 .15-.16c.01.01.02.02.03.02a23.829 23.829 0 0 0 5.12.86.086.086 0 0 0 .03.06 15.128 15.128 0 0 1 3.3 4c1.3 2.31 2.83 2.53 4.33 2.26-1.15.7-4.28 2.32-7.21 1.27a13.305 13.305 0 0 1-.11-2.07z"/><path class="cls-3" d="M48.528 79.871a5.57 5.57 0 0 0 1.333.628l1.88.689a.804.804 0 0 0 .353.071.67.67 0 0 0 .326-.186 5.663 5.663 0 0 0 1.189-1.853 1.52 1.52 0 0 0 .215-1.026 1.428 1.428 0 0 0-.802-.754 14.372 14.372 0 0 0-2.116-.892c-.068-.022-.135-.046-.2-.068a1.431 1.431 0 0 0-1.514.049 2.235 2.235 0 0 0-.77 1.176 6.865 6.865 0 0 0-.213 1.457.933.933 0 0 0 .023.38.782.782 0 0 0 .296.33zm.96-.917a3.485 3.485 0 0 1 .111-.75 1.254 1.254 0 0 1 .435-.659.845.845 0 0 1 .885-.044l.096.033a7.331 7.331 0 0 1 1.066.449.842.842 0 0 1 .47.462.894.894 0 0 1-.116.612 2.89 2.89 0 0 1-.621.96.459.459 0 0 1-.24.13.315.315 0 0 1-.043.003.595.595 0 0 1-.203-.046l-.927-.339a2.852 2.852 0 0 1-.693-.33.514.514 0 0 1-.2-.232.581.581 0 0 1-.02-.249z"/><path class="cls-5" d="M32.599 53.553a6.168 6.168 0 0 1-.516.506.1.1 0 0 1-.066.024.097.097 0 0 1-.075-.034.1.1 0 0 1 .01-.14 3.308 3.308 0 0 0 1.042-1.359 3.182 3.182 0 0 0 .114-1.076 4.177 4.177 0 0 0-.216-1.37 5.202 5.202 0 0 0-.318-.65 8.056 8.056 0 0 1-.131-.241 7.062 7.062 0 0 1-.743-2.31l-.008-.057a1.594 1.594 0 0 0-.104-.45.455.455 0 0 0-.326-.28.486.486 0 0 0-.301.078 1.553 1.553 0 0 0-.673.8 3.088 3.088 0 0 0-.194 1.078 6.106 6.106 0 0 0 .271 2.009.1.1 0 0 1-.066.125.103.103 0 0 1-.125-.067 6.32 6.32 0 0 1-.28-2.073c.002-.074.014-.13.02-.2-.01-.005-.02-.004-.028-.012a10.695 10.695 0 0 0-1.897-1.582c-.049.055-.095.113-.144.165a2.67 2.67 0 0 0-.477.634 1.168 1.168 0 0 0-.066.68c.012.004.024.001.034.008a6.679 6.679 0 0 1 .83.695.1.1 0 0 1 .005.141.097.097 0 0 1-.073.032.101.101 0 0 1-.068-.027c-.06-.056-.107-.096-.16-.145-.005.002-.006.007-.011.008a1.753 1.753 0 0 1-.4.084l.008.042a.1.1 0 0 1-.083.115.098.098 0 0 1-.114-.083c-.02-.127-.05-.256-.08-.385a1.883 1.883 0 0 1-.002-1.251 2.844 2.844 0 0 1 .51-.683c.095-.104.194-.212.28-.323a1.02 1.02 0 0 0 .222-1.057.346.346 0 0 0-.145-.148c-.117-.053-.273-.007-.478.143-.185.134-.365.283-.54.427l-1.147.945a1.124 1.124 0 0 0-.374.433 1.11 1.11 0 0 0-.024.47l.126 1.481c.048-.008.106-.025.148-.03a4.21 4.21 0 0 1 2.58.492 1.395 1.395 0 0 1 .797.938.82.82 0 0 1-1.002 1.007 1.106 1.106 0 0 1 .112 1.175.478.478 0 0 1-.19.193.544.544 0 0 1-.286.047 4.16 4.16 0 0 1-1.318-.254.1.1 0 0 1-.059-.128.102.102 0 0 1 .128-.06 3.953 3.953 0 0 0 1.254.242.437.437 0 0 0 .189-.025.296.296 0 0 0 .11-.117.955.955 0 0 0-.192-1.087 2.162 2.162 0 0 0-1.1-.564 2.176 2.176 0 0 0-1.47.035 1.375 1.375 0 0 0-.671 1.645 2.714 2.714 0 0 0 .905 1.06 3.942 3.942 0 0 1 .986 1.072 2.03 2.03 0 0 0 1.557 1.091 5.318 5.318 0 0 1 .61.188 2.696 2.696 0 0 1 1.529 2.014c0 .007-.005.013-.005.02a3.856 3.856 0 0 0 3.162-2.41 11.675 11.675 0 0 0-.205-.349 4.111 4.111 0 0 1-.588-1.315z"/><path class="cls-3" d="M28.905 115.807a2.065 2.065 0 0 0-3.937-1.143.092.092 0 0 1 .039.013 3.158 3.158 0 0 0 1.454.656.413.413 0 0 1 .463-.273.434.434 0 0 1-.065.863.396.396 0 0 1-.068-.006.432.432 0 0 1-.284-.172.427.427 0 0 1-.074-.212 3.36 3.36 0 0 1-1.537-.69 2.069 2.069 0 1 0 4.009.964z"/><path class="cls-5" d="M63.504 91.041c-.1.364-.482.695-1.136.986a3.409 3.409 0 0 0-1.966 2.188l.01.008a.1.1 0 0 1 .033.11.099.099 0 0 1-.09.069h-.02l-.056.157-.09.254a5.184 5.184 0 0 1-1.033 2.103.562.562 0 0 0-.077.466.517.517 0 0 0 .342.429c.287.079.989-.064 2.432-1.81a6.375 6.375 0 0 0-.496-.832.1.1 0 0 1 .019-.14.097.097 0 0 1 .14.019c.06.079 1.474 1.955.906 3.6l-.175.502c-.485 1.384-1.035 2.953-.625 3.409a.412.412 0 0 0 .344.003c.433-.16 1.287-1.021 2.157-4.97a.096.096 0 0 1 .119-.076.1.1 0 0 1 .076.12 22.789 22.789 0 0 1-.814 2.913c.004.004.01.003.013.007.335.399.628.555.87.48.697-.232.969-2.352 1.015-3.15a.102.102 0 0 1 .105-.093.099.099 0 0 1 .094.105 8.844 8.844 0 0 1-.538 2.63.097.097 0 0 1 .037.003.903.903 0 0 0 .951.057c.708-.5.467-2.497.464-2.516a.1.1 0 0 1 .087-.112.105.105 0 0 1 .112.087 7.017 7.017 0 0 1 .027 1.215.094.094 0 0 1 .079.076 12.135 12.135 0 0 1 .126 1.808l-.008.202c-.045.939.201 1.144.255 1.177a.589.589 0 0 0 .48-.258 4.07 4.07 0 0 0 .127-2.73 13.553 13.553 0 0 1-.339-3.203c0-.227.006-.453.011-.674a5.745 5.745 0 0 0-.172-2.021 8.119 8.119 0 0 1-.342-1.932.093.093 0 0 1 .014-.039 5.469 5.469 0 0 0-3.499-1.058.62.62 0 0 1 .03.431z"/><path class="cls-3" d="M80.879 53.75a2.071 2.071 0 1 0-4.057.84 2.071 2.071 0 0 0 3.76.716 2.076 2.076 0 0 0 .158-.3 3.353 3.353 0 0 1-1.604-.52.42.42 0 0 1-.197.108.45.45 0 0 1-.087.01.435.435 0 0 1-.426-.346.433.433 0 0 1 .337-.513.438.438 0 0 1 .513.336.425.425 0 0 1-.027.24 3.17 3.17 0 0 0 1.52.49.09.09 0 0 1 .038.016 2.052 2.052 0 0 0 .072-1.078zm-24.052 77.638a2.067 2.067 0 0 0 1.748-3.53 3.353 3.353 0 0 1-1.044 1.323.428.428 0 0 1-.394.593.383.383 0 0 1-.067-.006.434.434 0 0 1-.365-.493.434.434 0 0 1 .494-.365.422.422 0 0 1 .215.107 3.161 3.161 0 0 0 .986-1.255c.005-.014.018-.02.028-.03a2.05 2.05 0 0 0-.985-.442 2.072 2.072 0 0 0-.616 4.098z"/><path class="cls-6" d="M66.005 87.94a.1.1 0 0 1 .084.178 12.198 12.198 0 0 1-3.5 1.628c.07.229.152.46.247.69.516-.05 3.382-.244 4.736 1.577a5.344 5.344 0 0 0 3.431-4.113l-2.206.237a.13.13 0 0 1-.087-.036.098.098 0 0 1-.02-.092 3.962 3.962 0 0 0-.953-3.378 3.63 3.63 0 0 0-2.873 1.869.098.098 0 0 1-.072.05.094.094 0 0 1-.084-.027l-1.988-1.908a6.434 6.434 0 0 0-.452 2.463.087.087 0 0 1-.018.04 3.501 3.501 0 0 0 3.755.823z"/><path class="cls-7" d="M49.823 79.273a2.73 2.73 0 0 0 .646.305l.928.338a.324.324 0 0 0 .151.033.275.275 0 0 0 .132-.079 2.744 2.744 0 0 0 .575-.897.712.712 0 0 0 .104-.471c-.045-.154-.213-.259-.37-.341a7.06 7.06 0 0 0-1.037-.436l-.099-.034c-.267-.093-.459-.159-.701.017a1.057 1.057 0 0 0-.361.554 3.372 3.372 0 0 0-.103.708.426.426 0 0 0 .008.166.318.318 0 0 0 .127.137zm9.09-.161a34.301 34.301 0 0 1-4.86-.69 2.217 2.217 0 0 1-.263.883 7.154 7.154 0 0 1-.942 1.596 23.59 23.59 0 0 0 5.21.855 3.719 3.719 0 0 0 .855-2.644z"/><path class="cls-1" d="M77.453 52.386a2.283 2.283 0 0 0-.75 1.08c-.01-.01-.03-.03-.04-.03a7.13 7.13 0 0 1-5.12-3.61c0-.01-.01-.01-.01-.02.08-.09.16-.19.24-.28a5.234 5.234 0 0 0 .77-6.56 7.079 7.079 0 0 0-3.06-2.86 9.768 9.768 0 0 0-6.53-.28 7.84 7.84 0 0 0-3.26 1.72c-4.54 4.15-1.31 10.57-1.11 10.94a6.944 6.944 0 0 0 2.55 4.42 4.45 4.45 0 0 0 1.38.68 1.492 1.492 0 0 0 .36.05.757.757 0 0 0 .15-.01 12.808 12.808 0 0 0 2.83-.69.075.075 0 0 0 .01.08 11.394 11.394 0 0 0 8.47 4.88c-.6.64-3.23 2.97-7.51.83a.095.095 0 0 0-.12.03 7.247 7.247 0 0 1 .09-.76.109.109 0 0 0-.07-.12.104.104 0 0 0-.12.08c-.01.03-.67 3.19 1.38 5.02-1.18-.27-4.55-1.22-5.28-3.36a.104.104 0 0 0-.13-.06c-.01 0-.02.01-.03.01a4.58 4.58 0 0 1 .31-.53.11.11 0 0 0-.02-.14.098.098 0 0 0-.14.03c-1.32 1.83-1.07 4.87-.97 5.71a7.607 7.607 0 0 1-3.53-6.98.1.1 0 0 0-.17-.08c-2.28 2.74-6.28 2.66-7.68 2.53 2.47-.91 2.42-4.43 2.42-4.47a.1.1 0 0 0-.1-.1.11.11 0 0 0-.1.11 6.198 6.198 0 0 1-.11 1.14.06.06 0 0 0-.04-.01 9.078 9.078 0 0 1-7.23-1.17 7.09 7.09 0 0 0 2.18-.15c.01.01.01.01.02.01a.076.076 0 0 0 .05-.02 4.639 4.639 0 0 0 3.13-2.36c.02-.02.05-.02.05-.04 0-.01-.01-.02-.01-.04a3.135 3.135 0 0 0 .32-.86.096.096 0 0 0-.19-.03 3.436 3.436 0 0 1-.3.8 6.065 6.065 0 0 1-5.22-4.7c5.37 4.56 11.37 1.11 11.43 1.08a.1.1 0 0 0 .04-.05 11.988 11.988 0 0 0 1.1.96.142.142 0 0 0 .06.02.09.09 0 0 0 .08-.04.098.098 0 0 0-.02-.14c-4.89-3.75-3.4-7.94-3.39-7.99a.093.093 0 0 0-.06-.12.1.1 0 0 0-.13.05 5.831 5.831 0 0 0-.17.78c-.01.01-.03 0-.04.01a8.578 8.578 0 0 1-5.75 1.24 2.29 2.29 0 0 0-1.18-1.77l.06-.03c1.25-.7 2.16-1.2 3.52-5.68 1.7-6.43 9.65-4.79 9.73-4.77a.098.098 0 0 0 .05-.19 6.47 6.47 0 0 0-.9-.13c-.52-2.17-1.06-7.35 4.94-9.46.02-.01.02-.02.03-.02a.031.031 0 0 0 .01-.02 2.222 2.222 0 0 0 .82 1.13c-.01.04-.98 4 3.7 6.83.03.03 3.47 2.76 3.47 5.19a.1.1 0 0 0 .1.1.107.107 0 0 0 .1-.1 2.99 2.99 0 0 0-.1-.73c.35.13 3.97 1.61 3.74 6.99-.02.56-.05 1.07-.07 1.52-.19 4.19-.19 4.19.99 5.44l.05.06a.037.037 0 0 0 .03.01z"/><path class="cls-4" d="M74.333 61.896c-.6.64-3.23 2.97-7.51.83a.095.095 0 0 0-.12.03 7.247 7.247 0 0 1 .09-.76.109.109 0 0 0-.07-.12.104.104 0 0 0-.12.08c-.01.03-.67 3.19 1.38 5.02-1.18-.27-4.55-1.22-5.28-3.36a.104.104 0 0 0-.13-.06c-.01 0-.02.01-.03.01a4.58 4.58 0 0 1 .31-.53.11.11 0 0 0-.02-.14.098.098 0 0 0-.14.03c-1.32 1.83-1.07 4.87-.97 5.71a7.607 7.607 0 0 1-3.53-6.98l2.94-4.75a4.45 4.45 0 0 0 1.38.68 1.492 1.492 0 0 0 .36.05.757.757 0 0 0 .15-.01 12.808 12.808 0 0 0 2.83-.69.075.075 0 0 0 .01.08 11.394 11.394 0 0 0 8.47 4.88zm3.12-9.51a2.283 2.283 0 0 0-.75 1.08c-.01-.01-.03-.03-.04-.03a7.13 7.13 0 0 1-5.12-3.61c0-.01-.01-.01-.01-.02.08-.09.16-.19.24-.28a5.234 5.234 0 0 0 .77-6.56 7.079 7.079 0 0 0-3.06-2.86 15.272 15.272 0 0 0-2.8-3.74c-5.04-5.23-2.27-10.08-2.07-10.4a.031.031 0 0 0 .01-.02 2.222 2.222 0 0 0 .82 1.13c-.01.04-.98 4 3.7 6.83.03.03 3.47 2.76 3.47 5.19a.1.1 0 0 0 .1.1.107.107 0 0 0 .1-.1 2.99 2.99 0 0 0-.1-.73c.35.13 3.97 1.61 3.74 6.99-.02.56-.05 1.07-.07 1.52-.19 4.19-.19 4.19.99 5.44l.05.06a.037.037 0 0 0 .03.01z"/><path class="cls-1" d="M55.771 131.142a4.195 4.195 0 0 1-3.297 1.383 5.461 5.461 0 0 1-1.196-.124.1.1 0 0 1-.072-.121.1.1 0 0 1 .12-.073 5.5 5.5 0 0 0 2.43-.044 6.678 6.678 0 0 1-1.834-5.405 7.11 7.11 0 0 1 2.843-4.205c-2.912.79-4.695 3.34-5.52 4.844a.427.427 0 0 1-.47.216.451.451 0 0 1-.357-.41c-.4-5.213-2.862-6.242-3.755-6.443.756.706 2.831 2.972 1.664 5.682-.138.318-.273.623-.403.915-1.19 2.683-1.847 4.161.58 5.472a5.921 5.921 0 0 1 2.604 2.103 4.872 4.872 0 0 0 5.63 1.535 3.74 3.74 0 0 0 1.994-2.388 6.105 6.105 0 0 0 .315-2.415.096.096 0 0 1 .02-.058 2.275 2.275 0 0 1-.27-.02 2.245 2.245 0 0 1-1.026-.444z"/><path class="cls-7" d="M48.785 76.631h-.005a15.56 15.56 0 0 1-2.728-1.675 1.95 1.95 0 0 0-1.064 2.333 22.982 22.982 0 0 0 2.988 1.741.097.097 0 0 1 .04.047 6.653 6.653 0 0 1 .215-1.428 2.655 2.655 0 0 1 .554-1.018z"/><path d="m62.48 50.452-.32-1.176-.103 1.214c-.137 1.614.189 2.774.967 3.449a2.801 2.801 0 0 0 1.851.631 3.234 3.234 0 0 0 .674-.066l.63-.145-.59-.262a6.125 6.125 0 0 1-3.109-3.645zm1.699-3.583a.75.75 0 0 0 .42.947c.33.072.678-.234.776-.685a.75.75 0 0 0-.419-.947c-.33-.072-.678.234-.777.685zm6.236 2.434a.75.75 0 0 0-.42-.947c-.33-.073-.678.234-.777.684a.75.75 0 0 0 .42.947c.33.073.678-.233.777-.684z"/><path d="M81.174 53.688a2.37 2.37 0 0 0-2.805-1.841 2.356 2.356 0 0 0-.75.307l-.03-.044c-1.092-1.16-1.092-1.16-.904-5.217l.069-1.527c.253-5.835-3.938-7.284-3.98-7.297l-.031.002c-.688-2.234-3.313-4.316-3.436-4.411-3.911-2.374-3.718-5.558-3.61-6.313a2.37 2.37 0 1 0 .416-4.383 2.287 2.287 0 0 0-1.6 2.735h-.033c-6.086 2.145-5.679 7.342-5.17 9.617a13.446 13.446 0 0 0-1.09-.047c-2.38 0-6.55.675-7.75 5.186-1.323 4.361-2.183 4.837-3.374 5.496l-.143.08a2.199 2.199 0 0 0-.362-.114 2.365 2.365 0 0 0-2.804 1.84 2.374 2.374 0 0 0 2.323 2.854 2.3 2.3 0 0 0 2.36-2.274 7.842 7.842 0 0 0 1.015.06 8.895 8.895 0 0 0 4.531-1.219 7.615 7.615 0 0 0 2.381 5.908 10.981 10.981 0 0 1-4.894 1.189 9.244 9.244 0 0 1-6.302-2.466.155.155 0 0 0-.121-.041.697.697 0 0 0-.107.01.201.201 0 0 0-.106.201 6.333 6.333 0 0 0 4.646 5.03 5.419 5.419 0 0 0-1.52 1.345 7.337 7.337 0 0 1-.702.818 6.481 6.481 0 0 1-1.46.16 9.331 9.331 0 0 1-1.012-.058.2.2 0 0 0-.131.353 8.472 8.472 0 0 0 1.256.747 14.983 14.983 0 0 1-2.806 1.842 14.833 14.833 0 0 0-3.516 2.583 4.254 4.254 0 0 0-1.116-1.46c-2.102-1.7-2.175-3.129-2.145-3.55l1.281.053a.196.196 0 0 0 .137-.066.384.384 0 0 0 .052-.162c-.34-2.72-3.778-5.21-3.923-5.314a.872.872 0 0 0-.183-.028.389.389 0 0 0-.126.13c-.039.128-.085.24-.129.355l-.026-.044a3.58 3.58 0 0 1-.577-1.329 2.537 2.537 0 0 0 .413-.74 3.477 3.477 0 0 0 .128-1.18A4.464 4.464 0 0 0 33.173 50a5.505 5.505 0 0 0-.337-.69l-.129-.237a6.85 6.85 0 0 1-.718-2.269 1.836 1.836 0 0 0-.128-.53.754.754 0 0 0-.618-.457.88.88 0 0 0-.424.114 1.852 1.852 0 0 0-.81.953 1.937 1.937 0 0 0-.127.552 11.237 11.237 0 0 0-1.625-1.337 1.266 1.266 0 0 0 .205-1.322.629.629 0 0 0-.282-.274.525.525 0 0 0-.223-.048 1.022 1.022 0 0 0-.555.22c-.186.135-.365.283-.556.439l-.091.076a4.197 4.197 0 0 0-1.741-.438 2.75 2.75 0 0 0-.46.038c-.354.057-.744.259-.774.65a.694.694 0 0 0 .086.373 1.774 1.774 0 0 0 .721.662c.14.084.243.14.432.243l.192.098a1.624 1.624 0 0 0-.018.404l.122 1.427a1.481 1.481 0 0 0-.473.222 1 1 0 0 0-.419.954 1.09 1.09 0 0 0 .482.65 1.656 1.656 0 0 0-.538 1.816 2.977 2.977 0 0 0 .994 1.185 5.056 5.056 0 0 1 .605.565 4.92 4.92 0 0 1 .328.449 2.969 2.969 0 0 0 .69.793 3.064 3.064 0 0 0 1.052.42 4.687 4.687 0 0 1 .56.172 2.4 2.4 0 0 1 1.31 1.678 4.531 4.531 0 0 1-.126.003 3.672 3.672 0 0 1-.504-.035.196.196 0 0 0-.185.14 9.617 9.617 0 0 0 .426 6.242.346.346 0 0 0 .17.115h.01a.39.39 0 0 0 .16-.078l1.549-2.087c.281 1.635 1.64 7.793 6.355 9.891a1.796 1.796 0 0 0 1.081.274c1.432 0 4.045-.97 8.401-5.53a22.326 22.326 0 0 0-.622 3.409c-.333 3.266-.467 4.388-.518 4.77a1.203 1.203 0 0 0-.103-.012 2.287 2.287 0 0 0-1.314 2.56 7.234 7.234 0 0 0-1.835-.227 9.075 9.075 0 0 0-3.372.676 11.898 11.898 0 0 1-4.285.95 3.202 3.202 0 0 1-2.664-.967.184.184 0 0 0-.166-.07.57.57 0 0 0-.076.006.2.2 0 0 0-.114.222 9.774 9.774 0 0 0 2.41 4.547c-.21.012-.418.025-.632.025a9.096 9.096 0 0 1-2.667-.385.383.383 0 0 0-.155.074.198.198 0 0 0-.02.222 8.074 8.074 0 0 0 1.801 2.012c-1.722.862-5.495 3.056-6.437 6.126a4.95 4.95 0 0 0 .545 4.06 5385.08 5385.08 0 0 0 7.396 12.739l.017.028a9.483 9.483 0 0 0-2.04-.234 7.832 7.832 0 0 0-2.517.378.2.2 0 0 0 .053.385 9.881 9.881 0 0 1 4.672 2.064c.278 1.865-.015 3.271-.87 4.182a4.952 4.952 0 0 1-3.708 1.261c-.262 0-.537-.013-.818-.035a2.345 2.345 0 0 0-.431-1.16 2.382 2.382 0 0 0-1.919-.973 2.37 2.37 0 0 0-1.91 3.769 2.38 2.38 0 0 0 1.917.972 2.345 2.345 0 0 0 1.397-.456 1.406 1.406 0 0 0 .132-.115 7.114 7.114 0 0 0 4.026 1.364 6.198 6.198 0 0 0 1.299-.139 8.014 8.014 0 0 0 4.59-3.06 2.798 2.798 0 0 1 1.644-.999c1.403-.45 2.23-1.05 2.528-1.836.436-1.145-.345-2.466-1.102-3.747-.22-.372-.448-.757-.641-1.13-1.148-2.22 2.073-4.48 2.107-4.504a.2.2 0 0 0 .071-.242.202.202 0 0 0-.209-.12h-.013a6.33 6.33 0 0 0-4.38 2.58 14.756 14.756 0 0 1-1.499-5.614l-.056-.427c-.335-2.508-.842-5.024-2.22-6.527a17.31 17.31 0 0 0 7.695-3.455 9.086 9.086 0 0 0 3.607-1.614 9.046 9.046 0 0 0 2.203 4.38 30.973 30.973 0 0 0 2.144 15.927c-1.721 1.936-2.878 6.64-2.476 10.088a16.366 16.366 0 0 1-.029 4.824 4.277 4.277 0 0 0-3.337-2.624.2.2 0 0 0-.123.356c.032.026 3.14 2.522 1.833 5.553a67.99 67.99 0 0 1-.402.913c-1.18 2.66-1.959 4.415.73 5.867a5.777 5.777 0 0 1 2.461 1.965 5.19 5.19 0 0 0 4.197 2.059 4.394 4.394 0 0 0 1.824-.386 4.032 4.032 0 0 0 2.159-2.576 6.452 6.452 0 0 0 .327-2.481 2.335 2.335 0 0 0 1.197-.435 2.371 2.371 0 0 0-1.056-4.253 2.43 2.43 0 0 0-.354-.027 2.388 2.388 0 0 0-2.345 2.019 2.362 2.362 0 0 0 .683 2.025 3.42 3.42 0 0 1-1.477.969 6.396 6.396 0 0 1-1.778-5.17 7.145 7.145 0 0 1 3.14-4.3.2.2 0 0 0 .086-.244.206.206 0 0 0-.213-.127h-.012a7.33 7.33 0 0 0-3.112 1.452 31.404 31.404 0 0 1 1.436-5.454 31.33 31.33 0 0 0 3.083-10.89 4.824 4.824 0 0 1 .486-1.371c1.552-3.802 1.224-10.812 1.188-11.489a15.314 15.314 0 0 0 1.68.117l-.074.212a5.516 5.516 0 0 1-.923 1.956.8.8 0 0 0-.198.764.754.754 0 0 0 .762.689c.588 0 1.386-.588 2.368-1.738a3.028 3.028 0 0 1 .224 2.164l-.174.5c-.563 1.605-1.095 3.12-.54 3.732a.62.62 0 0 0 .369.113.785.785 0 0 0 .265-.048c.488-.173.959-.828 1.401-1.923a1.207 1.207 0 0 0 .802.43.68.68 0 0 0 .22-.035 1.078 1.078 0 0 0 .528-.503 1.64 1.64 0 0 0 .682.18.903.903 0 0 0 .533-.163 1.202 1.202 0 0 0 .392-.546c.036.515.03.843.03.847l-.01.2c-.06 1.274.39 1.459.476 1.481a.305.305 0 0 0 .06.009.883.883 0 0 0 .74-.38c.583-.79.327-2.496.174-2.996a13.258 13.258 0 0 1-.325-3.115c0-.226.005-.448.011-.672a5.93 5.93 0 0 0-.19-2.123 7.269 7.269 0 0 1-.292-1.39c.025.033.055.06.08.096a.381.381 0 0 0 .163.084l.054-.007a5.692 5.692 0 0 0 3.735-4.503.197.197 0 0 0-.05-.169.482.482 0 0 0-.169-.064l-1.61.173.038-.067c.605-1.095 2.935-5.305 3.44-6.241l.141-.251c.78-1.347 2.848-4.923-.304-12.645a.176.176 0 0 0-.095-.089 9.883 9.883 0 0 0-1.116-4.728 6.042 6.042 0 0 0 3.11-1.804.2.2 0 0 0 .024-.207.196.196 0 0 0-.173-.115 11.083 11.083 0 0 1-8.403-4.692 6.146 6.146 0 0 0 3.913-3.758 8.496 8.496 0 0 1 1.324-3.014 7.497 7.497 0 0 0 5.146 3.574 2.333 2.333 0 0 0-.01.928 2.371 2.371 0 0 0 2.318 1.89 2.394 2.394 0 0 0 .486-.05 2.372 2.372 0 0 0 1.842-2.803zM58.072 50.34c-.64-2.18-1.109-5.888 1.826-8.568a7.413 7.413 0 0 1 3.132-1.653 11.788 11.788 0 0 1 3.035-.422 6.818 6.818 0 0 1 5.536 2.49 9.875 9.875 0 0 0-5.384-1.692 7.662 7.662 0 0 0-3.453.759 8.697 8.697 0 0 0-4.692 9.086zm4.915 6.988a.902.902 0 0 1-.114.008.947.947 0 0 1-.268-.039c-3.205-.977-3.722-4.825-3.735-4.895-.001-.004-.007-.003-.009-.007l.008-.003c-.025-.073-2.474-7.385 4.088-10.787a7.258 7.258 0 0 1 3.275-.72 9.863 9.863 0 0 1 6.075 2.27 4.882 4.882 0 0 1-.739 6.155 7.971 7.971 0 0 0-1.886 3.755c-1.077 3.442-5.765 4.156-6.695 4.263zm8.7-7.55c.052-.062.103-.126.157-.18a5.327 5.327 0 0 0 .792-6.675l-.008-.014a7.163 7.163 0 0 0-6.556-3.613 12.232 12.232 0 0 0-3.146.436 7.825 7.825 0 0 0-3.298 1.742c-4.618 4.222-1.278 10.783-1.144 11.028.06.424.681 4.165 4.004 5.178a1.336 1.336 0 0 0 .385.056 1.509 1.509 0 0 0 .162-.01 12.817 12.817 0 0 0 2.741-.655v.002a11.533 11.533 0 0 0 8.333 4.912 5.664 5.664 0 0 1-3.865 1.526 7.922 7.922 0 0 1-3.428-.884 6.28 6.28 0 0 1 .077-.605.229.229 0 0 0-.198-.243.195.195 0 0 0-.193.157c-.007.03-.627 2.959 1.148 4.852-1.31-.34-4.199-1.292-4.855-3.203a.169.169 0 0 0-.09-.096 3.485 3.485 0 0 1 .23-.391.2.2 0 0 0-.164-.317.374.374 0 0 0-.16.083c-1.246 1.73-1.117 4.484-1.007 5.57a7.546 7.546 0 0 1-3.31-6.763c.011-.089-.038-.175-.199-.228a.384.384 0 0 0-.154.075c-1.833 2.209-4.857 2.538-6.497 2.538-.257 0-.49-.007-.696-.019 2.135-1.114 2.12-4.26 2.118-4.402a.2.2 0 0 0-.204-.195.224.224 0 0 0-.196.204 6.816 6.816 0 0 1-.098 1.04 8.663 8.663 0 0 1-2.234.295 9.21 9.21 0 0 1-4.57-1.253l.234.003a7.172 7.172 0 0 0 1.562-.167.131.131 0 0 0 .021.006.3.3 0 0 0 .076-.024h.002a4.706 4.706 0 0 0 3.195-2.412l-.002-.01v-.001l.015-.014a.598.598 0 0 0 .018-.047l.008-.005a3.894 3.894 0 0 0 .331-.886.2.2 0 0 0-.392-.074 3.624 3.624 0 0 1-.259.704 5.951 5.951 0 0 1-4.986-4.309 9.54 9.54 0 0 0 6.112 2.186 11.33 11.33 0 0 0 5.188-1.292 11.772 11.772 0 0 0 1.035.9.37.37 0 0 0 .123.043.386.386 0 0 0 .159-.078.2.2 0 0 0-.037-.28c-4.817-3.692-3.374-7.832-3.359-7.874.038-.102-.015-.217-.185-.268a.202.202 0 0 0-.19.13 4.474 4.474 0 0 0-.168.736h-.004A8.41 8.41 0 0 1 49.493 48a6.867 6.867 0 0 1-1.051-.07 2.237 2.237 0 0 0-1.118-1.649c1.255-.694 2.17-1.234 3.531-5.717 1.076-4.047 4.61-4.897 7.385-4.897a12.517 12.517 0 0 1 2.281.203.2.2 0 0 0 .04-.396 10.403 10.403 0 0 0-.835-.123c-.504-2.145-.98-7.183 4.856-9.261a2.323 2.323 0 0 0 .751 1.011c-.096.476-.683 4.2 3.748 6.89.034.026 3.43 2.74 3.43 5.102a.2.2 0 0 0 .4 0 3.045 3.045 0 0 0-.064-.563c.797.353 3.716 1.978 3.506 6.82l-.069 1.524c-.196 4.227-.196 4.227 1.013 5.51l.016.011a2.354 2.354 0 0 0-.658.942 7.106 7.106 0 0 1-5.003-3.516zm.108 20.272a.226.226 0 0 0 .052.278.382.382 0 0 0 .113.034.374.374 0 0 0 .166-.086 3.486 3.486 0 0 0 .471-1.143c2.828 7.242.904 10.597.17 11.867a8.608 8.608 0 0 0-.148.26c-.565 1.05-3.428 6.22-3.577 6.491a4.435 4.435 0 0 0-1.103-3.348.382.382 0 0 0-.155-.072 3.914 3.914 0 0 0-3.049 1.802l-.215-.206c.278-.226 1.544-1.404 1.783-4.326a9.669 9.669 0 0 1 2.482-5.939 4.236 4.236 0 0 0 1.256 1.116.392.392 0 0 0 .082.016.2.2 0 0 0 .18-.113.203.203 0 0 0-.095-.267 5.723 5.723 0 0 1-2.321-3.149 45.743 45.743 0 0 0-1.845-4.193 15.036 15.036 0 0 1-.823-2.222.204.204 0 0 0-.22-.136l-.028.001a.224.224 0 0 0-.135.248 6.238 6.238 0 0 0 .313.855.183.183 0 0 0-.108.09 16.111 16.111 0 0 1-4.804 6.017.2.2 0 0 0-.052.278.383.383 0 0 0 .165.086.4.4 0 0 0 .116-.037 13.465 13.465 0 0 0 1.192-1.008 33.346 33.346 0 0 1-3.023 5.548 34.38 34.38 0 0 1-4.522-.665v-.018a1.705 1.705 0 0 0-.953-.936 14.74 14.74 0 0 0-2.16-.909l-.207-.071a2.836 2.836 0 0 0-.915-.208 1.435 1.435 0 0 0-.862.3 1.009 1.009 0 0 0-.096.084l-.008-.007a15.464 15.464 0 0 1-2.439-1.484q.105-.613.546-4.945a16.682 16.682 0 0 1 2.22-7.339.2.2 0 0 0-.164-.314.383.383 0 0 0-.163.085 13.336 13.336 0 0 0-1.475 3.392.253.253 0 0 0-.07.038c-4.713 5.047-7.372 5.8-8.539 5.8a1.54 1.54 0 0 1-.864-.195c-4.51-2.012-5.856-7.875-6.153-9.549a5.19 5.19 0 0 0 2.899 1.245h.011a.394.394 0 0 0 .114-.043c1.091-.873 1.017-2.611.94-3.288l.185.007c-.043.556.077 2.082 2.3 3.883a3.95 3.95 0 0 1 1.332 3.657.383.383 0 0 0 .037.148.41.41 0 0 0 .128.078.367.367 0 0 0 .033.002.2.2 0 0 0 .198-.17 4.336 4.336 0 0 0-.209-2.165l.003.001a14.784 14.784 0 0 1 3.536-2.63 15.533 15.533 0 0 0 3.03-2.01 9.382 9.382 0 0 0 3.787.815 9.04 9.04 0 0 0 2.147-.273 3.387 3.387 0 0 1-2.493 2.846.2.2 0 0 0 .005.393 11.128 11.128 0 0 0 1.643.11 8.976 8.976 0 0 0 6.435-2.269 7.847 7.847 0 0 0 3.878 6.81.386.386 0 0 0 .104.029.408.408 0 0 0 .112-.033.2.2 0 0 0 .085-.198 10.78 10.78 0 0 1 .45-4.892c1.101 2.606 5.637 3.416 5.834 3.45a.38.38 0 0 0 .034.002.2.2 0 0 0 .117-.362 4.628 4.628 0 0 1-1.69-3.954 7.908 7.908 0 0 0 3.446.87 5.994 5.994 0 0 0 .956-.085v.002c.022.04 2.082 4.035.597 6.223zm-4.188 21.845a5.178 5.178 0 0 0-4.077-1.59c-.274 0-.493.013-.63.024a7.893 7.893 0 0 1-.183-.518 12.288 12.288 0 0 0 3.431-1.611.202.202 0 0 0 .063-.247.206.206 0 0 0-.208-.11l-.022.002a5.802 5.802 0 0 1-1.385.195 2.977 2.977 0 0 1-2.232-.954l.005-.007a6.593 6.593 0 0 1 .388-2.29l1.883 1.808a.558.558 0 0 0 .164.052.385.385 0 0 0 .146-.1 3.75 3.75 0 0 1 2.709-1.855 3.894 3.894 0 0 1 .935 3.286.197.197 0 0 0 .038.184.39.39 0 0 0 .172.073l2.074-.223a5.228 5.228 0 0 1-3.27 3.88zm.097 7.672a4.003 4.003 0 0 1-.113 2.641.557.557 0 0 1-.345.233c-.01-.007-.253-.167-.208-1.088l.008-.207a12.288 12.288 0 0 0-.127-1.82.18.18 0 0 0-.076-.117 7.363 7.363 0 0 0-.03-1.174.206.206 0 0 0-.221-.174h-.002a.201.201 0 0 0-.133.076.392.392 0 0 0-.04.148c.066.542.122 2.036-.424 2.423a.506.506 0 0 1-.303.09 1.514 1.514 0 0 1-.498-.125 9.266 9.266 0 0 0 .508-2.568.194.194 0 0 0-.05-.145.334.334 0 0 0-.15-.066h-.003a.2.2 0 0 0-.196.187c-.067 1.162-.405 2.88-1.036 3.073-.175 0-.394-.147-.648-.429a23.282 23.282 0 0 0 .798-2.867c.024-.109-.045-.215-.2-.245a.197.197 0 0 0-.19.159c-.893 4.048-1.762 4.773-2.095 4.897a.413.413 0 0 1-.143.027c-.03 0-.076-.004-.092-.004-.37-.412.192-2.017.645-3.308l.176-.503c.58-1.686-.86-3.612-.922-3.693a.198.198 0 0 0-.159-.08.401.401 0 0 0-.12.042.224.224 0 0 0-.04.279 6.592 6.592 0 0 1 .457.758c-1.257 1.508-1.906 1.74-2.181 1.74a.406.406 0 0 1-.106-.013.422.422 0 0 1-.269-.35.564.564 0 0 1 .037-.366 5.173 5.173 0 0 0 1.07-2.152l.13-.364a.19.19 0 0 0 .127-.12.194.194 0 0 0-.027-.158 3.275 3.275 0 0 1 1.895-2.085c.683-.305 1.084-.659 1.192-1.051a.735.735 0 0 0 0-.356 5.33 5.33 0 0 1 3.26.997l-.002.003a8.266 8.266 0 0 0 .347 1.96 5.793 5.793 0 0 1 .166 2.026c-.005.209-.01.422-.01.636a13.646 13.646 0 0 0 .343 3.233zm-10.957 6.143a5.07 5.07 0 0 0-.522 1.537 30.907 30.907 0 0 1-3.051 10.736 30.18 30.18 0 0 0-1.514 5.891.224.224 0 0 0 .006.035 12.216 12.216 0 0 0-2.683 3.344.126.126 0 0 1-.124.067h-.021a.152.152 0 0 1-.12-.141 11.752 11.752 0 0 0-.802-3.628.21.21 0 0 0 .051-.054 13.518 13.518 0 0 0 .137-5.332c-.378-3.25.673-7.683 2.259-9.627.264.6.449.961.456.975a.198.198 0 0 0 .177.105l.094-.023a.2.2 0 0 0 .098-.12.393.393 0 0 0-.016-.15 31.115 31.115 0 0 1-2.804-16.793 9.145 9.145 0 0 0 3.312 2.04.404.404 0 0 0 .068.012.376.376 0 0 0 .141-.057.201.201 0 0 0 .047-.208 7.098 7.098 0 0 1-.024-3.73c1.075 2.478 3.794 3.412 5.987 3.743l-.003.01c.005.074.42 7.527-1.149 11.368zm-4.924 21.031a6.692 6.692 0 0 0 1.756 5.354 5.02 5.02 0 0 1-1.113.128 5.775 5.775 0 0 1-1.162-.119.2.2 0 0 0-.05.393 5.567 5.567 0 0 0 1.22.127 4.314 4.314 0 0 0 3.314-1.357 2.322 2.322 0 0 0 .994.417c.055.008.11.01.166.012a6.048 6.048 0 0 1-.31 2.354 3.642 3.642 0 0 1-1.94 2.326 4.057 4.057 0 0 1-1.678.354 4.804 4.804 0 0 1-3.822-1.843 5.975 5.975 0 0 0-2.645-2.146c-2.346-1.267-1.742-2.63-.515-5.394l.38-.865c1.07-2.481-.54-4.612-1.403-5.515 1.096.398 2.959 1.738 3.304 6.243a.55.55 0 0 0 .433.5c.008.002.11.013.118.013a.525.525 0 0 0 .464-.279 9.875 9.875 0 0 1 4.945-4.633 6.849 6.849 0 0 0-2.456 3.93zm5.581 2.153a.6.6 0 0 0-.272-.09.537.537 0 0 0-.526.456.535.535 0 0 0 .447.606l.084.007a.533.533 0 0 0 .525-.455.52.52 0 0 0-.027-.195 3.49 3.49 0 0 0 .959-1.184 1.96 1.96 0 0 1-1.456 3.272 2.025 2.025 0 0 1-.296-.022 1.972 1.972 0 0 1 .291-3.923 2.002 2.002 0 0 1 .295.023 1.926 1.926 0 0 1 .86.374 3.017 3.017 0 0 1-.884 1.131zM42.142 89.05l-.002-.001a.22.22 0 0 0-.024.006l-.043.009a8.95 8.95 0 0 1-1.698.16 11.004 11.004 0 0 1-4.367-.965c3.317-.202 5.528-3.504 5.55-3.538a.199.199 0 0 0-.167-.309.375.375 0 0 0-.168.091 9.511 9.511 0 0 1-1.835 1.937.19.19 0 0 0-.104-.052 10.286 10.286 0 0 1-7.535-3.863 9.408 9.408 0 0 0 2.201.25c.377 0 .747-.021 1.108-.055a.154.154 0 0 0 .03.007l.04-.012a14.847 14.847 0 0 0 4.6-1.266.202.202 0 0 0 .088-.268.184.184 0 0 0-.19-.095.606.606 0 0 0-.08.006 14.597 14.597 0 0 1-4.403 1.217 8.17 8.17 0 0 1-2.402-3.923 4.352 4.352 0 0 0 2.464.62 12.262 12.262 0 0 0 4.423-.973 8.68 8.68 0 0 1 3.229-.649 6.506 6.506 0 0 1 2.313.39 25.097 25.097 0 0 0 2.673 1.524.326.326 0 0 0 .062.016.89.89 0 0 0 .046.329 1.031 1.031 0 0 0 .403.47 5.736 5.736 0 0 0 1.404.667l1.886.69a1.168 1.168 0 0 0 .403.09l.089-.006a.936.936 0 0 0 .484-.26 1.493 1.493 0 0 0 .108-.114 24.052 24.052 0 0 0 5.063.852.237.237 0 0 0 .028.04 15.326 15.326 0 0 1 3.276 3.974c.927 1.636 2.034 2.398 3.484 2.398.142 0 .288-.007.44-.021a10.219 10.219 0 0 1-4.676 1.346 6.01 6.01 0 0 1-1.953-.319 13.571 13.571 0 0 1-.095-1.99.203.203 0 0 0-.2-.209.2.2 0 0 0-.2.19c-.009.188-.197 4.53 1.928 6.661-1.516-.034-6.512-.425-7.719-4.041a.213.213 0 0 0-.02-.03 6.535 6.535 0 0 1 .586-1.221.201.201 0 0 0-.066-.277.21.21 0 0 0-.105-.03.378.378 0 0 0-.17.096 7.378 7.378 0 0 0-.877 5.458 8.468 8.468 0 0 1-5.268-6.622c-.006-.075-.052-.138-.199-.183a.374.374 0 0 0-.124.043 8.786 8.786 0 0 1-3.718 1.755zm-1.764 18.873a24 24 0 0 0 .654 1.154c.74 1.251 1.438 2.432 1.072 3.399-.253.663-.994 1.184-2.254 1.59a3.123 3.123 0 0 0-1.889 1.178 7.635 7.635 0 0 1-4.33 2.877 5.797 5.797 0 0 1-1.21.13 6.71 6.71 0 0 1-3.75-1.257 2.35 2.35 0 0 0 .53-1.141 1.659 1.659 0 0 0 .016-.202c.274.02.544.035.801.035a5.34 5.34 0 0 0 4.005-1.389 5.004 5.004 0 0 0 1.006-4.116c.382.314.615.538.624.547a.198.198 0 0 0 .142.059.38.38 0 0 0 .142-.06.2.2 0 0 0 0-.28 12.305 12.305 0 0 0-5.045-2.905 8.385 8.385 0 0 1 1.504-.133 9.404 9.404 0 0 1 4.502 1.173.685.685 0 0 0 .32.082.676.676 0 0 0 .331-.087.663.663 0 0 0 .342-.546c.075-1.325.706-3.631 4.035-4.569-.985.887-2.49 2.64-1.548 4.461zm-15.415 7.09a3.504 3.504 0 0 0 1.398.605.521.521 0 0 0 .066.186.532.532 0 0 0 .347.21c.006.002.08.008.085.008a.535.535 0 0 0 .43-.85.577.577 0 0 0-.432-.219.531.531 0 0 0-.314.103.512.512 0 0 0-.12.164 3.37 3.37 0 0 1-1.324-.583 1.92 1.92 0 0 1 .596-.741 1.955 1.955 0 0 1 1.16-.38 1.97 1.97 0 0 1 1.951 2.274 1.975 1.975 0 0 1-1.945 1.67 1.947 1.947 0 0 1-1.898-2.448zm12.53-7.006a.264.264 0 0 1-.14.22.272.272 0 0 1-.135.037.285.285 0 0 1-.132-.033 10.233 10.233 0 0 0-2.154-.865.22.22 0 0 0-.01-.069c-.045-.076-4.502-7.73-7.557-13.012a4.57 4.57 0 0 1-.508-3.745c.922-3.003 4.748-5.16 6.405-5.972a11.445 11.445 0 0 0 5.697 2.174 5.734 5.734 0 0 1-3.267 1.126 5.034 5.034 0 0 1-.562-.032.197.197 0 0 0-.193.136.202.202 0 0 0 .084.234 11.303 11.303 0 0 0 5.353 1.407 8.565 8.565 0 0 0 1.015-.068 16.22 16.22 0 0 1-8.677 3.136h-.02a.199.199 0 0 0-.188.198.397.397 0 0 0 .058.143.373.373 0 0 0 .14.058h.01a10.67 10.67 0 0 0 1.22-.101 2.047 2.047 0 0 1-1.006.79.195.195 0 0 0-.131.078.39.39 0 0 0-.038.149.198.198 0 0 0 .198.17l.032-.002a2.288 2.288 0 0 0 1.284-.97c1.283 1.432 1.765 3.855 2.087 6.273l.056.424a14.522 14.522 0 0 0 1.65 5.944l.016.013a5.393 5.393 0 0 0-.588 2.16zM58.81 79.205a4.012 4.012 0 0 1-.748 2.45 23.459 23.459 0 0 1-5.052-.817 7.673 7.673 0 0 0 .87-1.491 2.594 2.594 0 0 0 .251-.808 35.32 35.32 0 0 0 4.68.666zm3.453-6.553a16.932 16.932 0 0 0 3.026-4.344c.224.59.393.942.396.947a44.344 44.344 0 0 1 1.828 4.155 8.667 8.667 0 0 0 1.039 1.934.231.231 0 0 0-.032.016 10.056 10.056 0 0 0-2.617 6.21c-.245 2.994-1.637 4.05-1.673 4.077L62.826 84.3a.579.579 0 0 0-.168-.051.394.394 0 0 0-.144.1 5.936 5.936 0 0 0-.5 2.33 6.158 6.158 0 0 1-.57-.827 15.867 15.867 0 0 0-3.156-3.902 4.01 4.01 0 0 0 .926-2.933.188.188 0 0 0-.133-.174 29.686 29.686 0 0 0 3.186-6.113.242.242 0 0 0-.003-.078zm-8.747 6.528a5.595 5.595 0 0 1-1.164 1.818.563.563 0 0 1-.304.163.841.841 0 0 1-.274-.067l-1.879-.688a5.516 5.516 0 0 1-1.31-.616.704.704 0 0 1-.26-.283.9.9 0 0 1-.016-.347 6.742 6.742 0 0 1 .208-1.426 2.136 2.136 0 0 1 .732-1.124 1.048 1.048 0 0 1 .633-.224 2.658 2.658 0 0 1 .837.205l.155.052a14.216 14.216 0 0 1 2.1.886 1.347 1.347 0 0 1 .753.693 1.45 1.45 0 0 1-.211.958zm9.676 11.535a.318.318 0 0 1 .02.252c-.044.152-.228.457-.967.784a3.634 3.634 0 0 0-2.037 2.143 7.043 7.043 0 0 1-1.759-4.018 6.435 6.435 0 0 0 1.891.294 8.441 8.441 0 0 0 1.989-.259c.076.237.159.475.259.711a.223.223 0 0 0 .208.12c.009-.001.16-.018.396-.027zm-14.56-14.05a2.833 2.833 0 0 0-.498.955 3.958 3.958 0 0 0-.148 1.303 31.775 31.775 0 0 1-2.9-1.655 1.84 1.84 0 0 1 .953-2.196 15.644 15.644 0 0 0 2.593 1.592zm-23.63-31.512a3.701 3.701 0 0 1 1.396.33l-.7.575a1.804 1.804 0 0 0-.347.386l-.185-.102a8.168 8.168 0 0 1-.373-.211 1.455 1.455 0 0 1-.573-.502.31.31 0 0 1-.043-.16c.012-.148.236-.253.44-.286a2.388 2.388 0 0 1 .386-.03zm2.62 1.082a2.946 2.946 0 0 0-.526.707 1.959 1.959 0 0 0-.005 1.316c.026.115.05.23.07.344a4.346 4.346 0 0 0-.86-.094 4.507 4.507 0 0 0-.549.034l-.045.01-.117-1.369a1.045 1.045 0 0 1 .02-.427 1.059 1.059 0 0 1 .342-.39l1.183-.974c.162-.133.329-.27.5-.394a.554.554 0 0 1 .337-.136l.04.002a.248.248 0 0 1 .1.107.927.927 0 0 1-.215.946c-.08.105-.172.205-.274.318zm-2.097 2.764.003.001h.009l.06-.019h.003l.002-.004.01-.008.015.004c.01 0 .134-.027.178-.033a3.853 3.853 0 0 1 2.393.456 1.13 1.13 0 0 1 .648.724.586.586 0 0 1-.588.682.567.567 0 0 1-.209-.038.419.419 0 0 0-.067-.005 2.596 2.596 0 0 0-1.12-.547 3.455 3.455 0 0 0-.845-.117 1.911 1.911 0 0 0-.75.145c-.264-.153-.42-.317-.453-.49a.622.622 0 0 1 .266-.562 1.184 1.184 0 0 1 .445-.189zm-.201 1.647a.665.665 0 0 1 .038-.019 1.487 1.487 0 0 1 .653-.133 3.14 3.14 0 0 1 .75.104 2.071 2.071 0 0 1 1.05.536.852.852 0 0 1 .179.967.195.195 0 0 1-.07.08.401.401 0 0 1-.14.014 4.326 4.326 0 0 1-1.29-.248.2.2 0 0 0-.183.285.38.38 0 0 0 .112.102 4.236 4.236 0 0 0 1.346.26l.064.002a.595.595 0 0 0 .274-.06.566.566 0 0 0 .23-.231 1.137 1.137 0 0 0-.023-1.113.97.97 0 0 0 .926-1.135 1.484 1.484 0 0 0-.847-1.01 4.167 4.167 0 0 0-.87-.357.29.29 0 0 0 .01-.054 1.91 1.91 0 0 0 .31-.072l.01.012.107.097a.385.385 0 0 0 .136.053.39.39 0 0 0 .145-.062.199.199 0 0 0 .055-.144.398.398 0 0 0-.063-.14 5.612 5.612 0 0 0-.835-.677 1.026 1.026 0 0 1 .059-.59 2.602 2.602 0 0 1 .46-.61l.085-.098a11.999 11.999 0 0 1 1.812 1.495.307.307 0 0 0-.01.036 1.133 1.133 0 0 0-.012.126 6.428 6.428 0 0 0 .285 2.107c.025.079.093.131.223.131h.029a.202.202 0 0 0 .131-.25 5.986 5.986 0 0 1-.267-1.976 2.995 2.995 0 0 1 .187-1.044 1.454 1.454 0 0 1 .628-.749.446.446 0 0 1 .228-.067l.014.001a.364.364 0 0 1 .246.223 1.744 1.744 0 0 1 .104.479 7.16 7.16 0 0 0 .753 2.341l.132.244a5.083 5.083 0 0 1 .313.637 4.07 4.07 0 0 1 .209 1.337 3.085 3.085 0 0 1-.109 1.042 3.221 3.221 0 0 1-1.013 1.315.38.38 0 0 0-.068.137.406.406 0 0 0 .048.143.378.378 0 0 0 .151.07.397.397 0 0 0 .132-.05 3.579 3.579 0 0 0 .393-.407 4.754 4.754 0 0 0 .56 1.195c.063.103.121.202.176.298a3.73 3.73 0 0 1-2.968 2.293 2.785 2.785 0 0 0-1.566-2.012 5.453 5.453 0 0 0-.628-.193 2.638 2.638 0 0 1-.899-.352 2.642 2.642 0 0 1-.594-.697 4.013 4.013 0 0 0-1.009-1.095 2.632 2.632 0 0 1-.872-1.016 1.286 1.286 0 0 1 .583-1.501zm8.568 4.144c.716.56 3.09 2.55 3.503 4.64l-1.863-.075a.181.181 0 0 0-.139.07.374.374 0 0 0-.047.167c.004.022.367 2.208-.673 3.106a5.227 5.227 0 0 1-3.01-1.458.445.445 0 0 0-.137-.045h-.017l-.004.003a.361.361 0 0 0-.116.067l-.01.006-.003.002-1.624 2.141a8.977 8.977 0 0 1-.331-5.478 4.1 4.1 0 0 0 .31.012 4.288 4.288 0 0 0 4.161-3.158zm16.123 2.371a.198.198 0 0 0 .025-.025l.134.028a4.254 4.254 0 0 1-2.135 1.774c.103-.122.2-.24.28-.352a5.26 5.26 0 0 1 1.696-1.425zm-4.188-8.493a.52.52 0 0 0 .171.093c.007.002.105.011.112.011a.534.534 0 0 0 .106-1.056 2.029 2.029 0 0 0-.108-.01.533.533 0 0 0-.523.424.512.512 0 0 0 .022.201 3.38 3.38 0 0 1-1.375.457 1.94 1.94 0 0 1-.053-.95 1.97 1.97 0 0 1 2.33-1.53 1.975 1.975 0 0 1 1.53 2.33 1.98 1.98 0 0 1-1.932 1.572 2.03 2.03 0 0 1-.398-.04 1.96 1.96 0 0 1-1.249-.85 1.566 1.566 0 0 1-.086-.164 3.478 3.478 0 0 0 1.453-.488zm20.999-23.946a.625.625 0 0 0-.075-.01.481.481 0 0 0-.126.017.534.534 0 0 0-.367.662.538.538 0 0 0 .514.385.512.512 0 0 0 .148-.022.536.536 0 0 0 .365-.662.518.518 0 0 0-.113-.166 3.219 3.219 0 0 1 .994-1.032 1.893 1.893 0 0 1 .5.8 1.973 1.973 0 0 1-1.347 2.442 1.999 1.999 0 0 1-.551.077 1.972 1.972 0 0 1-.545-3.866 2.007 2.007 0 0 1 .547-.077 1.966 1.966 0 0 1 1.098.354 3.498 3.498 0 0 0-1.042 1.098zM80.73 54.706a3.024 3.024 0 0 1-1.378-.444.516.516 0 0 0 .021-.202.538.538 0 0 0-.527-.423 1.61 1.61 0 0 0-.103.01.525.525 0 0 0-.339.229.53.53 0 0 0-.076.402.537.537 0 0 0 .524.425l.108-.011a.52.52 0 0 0 .172-.093 3.479 3.479 0 0 0 1.452.49 1.576 1.576 0 0 1-.085.162 1.96 1.96 0 0 1-1.249.849 2.016 2.016 0 0 1-.405.042 1.974 1.974 0 0 1-1.925-1.573 1.971 1.971 0 1 1 3.86-.8 1.948 1.948 0 0 1-.05.937z"/><path d="M68.273 48.248h-.005a.2.2 0 0 0-.182.215c.002.03.224 3.06-.936 3.717a.989.989 0 0 1-.493.123 2.956 2.956 0 0 1-1.596-.677.2.2 0 0 0-.117-.038.388.388 0 0 0-.162.083.225.225 0 0 0 .046.28 3.32 3.32 0 0 0 1.83.752 1.381 1.381 0 0 0 .69-.175c1.365-.774 1.163-3.758 1.136-4.097a.196.196 0 0 0-.211-.183zm-5.25-2.942a.395.395 0 0 0 .12-.04 3.122 3.122 0 0 1 1.726-.545 2.859 2.859 0 0 1 1.554.47.2.2 0 0 0 .108.032.388.388 0 0 0 .17-.092.199.199 0 0 0 .026-.151.382.382 0 0 0-.088-.124 3.22 3.22 0 0 0-1.755-.528 3.657 3.657 0 0 0-1.98.619.225.225 0 0 0-.04.279.384.384 0 0 0 .16.08zm7.05 1.247a1.275 1.275 0 0 1 .936 1.077.198.198 0 0 0 .2.182h.016a.202.202 0 0 0 .182-.217 1.687 1.687 0 0 0-1.28-1.434.203.203 0 0 0-.199.15.2.2 0 0 0 .024.153.408.408 0 0 0 .12.089zM52.127 77.894a7.434 7.434 0 0 0-1.08-.454l-.1-.034a1.506 1.506 0 0 0-.488-.11.81.81 0 0 0-.484.168 1.357 1.357 0 0 0-.472.712 3.598 3.598 0 0 0-.115.773.662.662 0 0 0 .026.289.614.614 0 0 0 .236.279 2.93 2.93 0 0 0 .716.342l.933.34a.665.665 0 0 0 .232.05l.056-.003a.556.556 0 0 0 .294-.154 2.953 2.953 0 0 0 .645-.992.988.988 0 0 0 .12-.683.928.928 0 0 0-.52-.523zm.135.636a.647.647 0 0 1-.098.401 2.676 2.676 0 0 1-.551.864l-.085.055-.097-.027-.927-.34a2.654 2.654 0 0 1-.623-.292.244.244 0 0 1-.09-.09.393.393 0 0 1-.003-.125 3.297 3.297 0 0 1 .099-.686.957.957 0 0 1 .323-.502.41.41 0 0 1 .254-.09 1.142 1.142 0 0 1 .357.087l.099.033a6.962 6.962 0 0 1 1.022.431c.14.073.287.162.32.281z"/><ellipse class="cls-1" cx="54.199" cy="99.147" rx="1.721" ry="2.567"/><ellipse class="cls-1" cx="54.057" cy="108.657" rx="2.128" ry="1.426" transform="rotate(-81.043 54.057 108.657)"/><ellipse class="cls-1" cx="51.5" cy="118.166" rx="1.234" ry=".827" transform="rotate(-73.722 51.5 118.167)"/><ellipse class="cls-1" cx="33.635" cy="102.206" rx=".827" ry="1.234" transform="rotate(-14.148 33.635 102.206)"/><ellipse class="cls-1" cx="28.83" cy="93.768" rx="1.127" ry="1.682" transform="rotate(-14.148 28.83 93.768)"/><ellipse class="cls-1" cx="32.991" cy="86.688" rx="1.784" ry="1.196" transform="rotate(-32.976 32.99 86.688)"/></svg>