<svg xmlns="http://www.w3.org/2000/svg" viewBox="0 0 103 160"><path fill="#fff" d="M0 0h103v160H0z"/><path d="M5.012 4.758H9.51v22.886H7.237V6.998H3.643zm10.576 5.599h-2.222a7.342 7.342 0 0 1 2.326-4.148 6.09 6.09 0 0 1 4.06-1.452 6.708 6.708 0 0 1 3.177.778 5.755 5.755 0 0 1 2.281 2.096 5.2 5.2 0 0 1 .807 2.755 4.996 4.996 0 0 1-2.8 4.46 6.35 6.35 0 0 1 2.578 1.866 5.965 5.965 0 0 1 1.422 3.881 6.925 6.925 0 0 1-.978 3.533 6.782 6.782 0 0 1-2.666 2.6 7.776 7.776 0 0 1-3.778.919 6.937 6.937 0 0 1-4.695-1.623 7.94 7.94 0 0 1-2.459-4.762h2.133a6.184 6.184 0 0 0 1.615 3.066 4.976 4.976 0 0 0 3.437 1.2 5.176 5.176 0 0 0 3.807-1.422 4.542 4.542 0 0 0 1.437-3.333 4.313 4.313 0 0 0-.719-2.385 4.525 4.525 0 0 0-1.926-1.674 10.688 10.688 0 0 0-3.74-.696v-2a6.862 6.862 0 0 0 2.725-.526 3.973 3.973 0 0 0 1.785-1.34 3.091 3.091 0 0 0 .556-1.778 3.227 3.227 0 0 0-1.134-2.46 4.083 4.083 0 0 0-2.866-1.036 3.848 3.848 0 0 0-2.43.792 5.98 5.98 0 0 0-1.733 2.689zm7.981 34.453a5.335 5.335 0 0 1-7.81.31l-.51-.51-.51.51a5.324 5.324 0 0 1-7.8-.31 5.404 5.404 0 0 1 .37-7.29l.43-.43a27.144 27.144 0 0 0 2.5-1.9 28.006 28.006 0 0 0 5.01-5.61 28.406 28.406 0 0 0 5.02 5.61 25.858 25.858 0 0 0 2.5 1.9c.14.15.28.29.43.43a5.404 5.404 0 0 1 .37 7.29z"/><path d="m15.253 46.915-3.741 3.844h7.481l-3.74-3.844zm82.735 108.328H93.49v-22.887h2.272v20.646h3.594zm-10.576-5.6h2.222a7.342 7.342 0 0 1-2.326 4.148 6.09 6.09 0 0 1-4.06 1.452 6.708 6.708 0 0 1-3.177-.778 5.755 5.755 0 0 1-2.28-2.096 5.2 5.2 0 0 1-.808-2.756 4.996 4.996 0 0 1 2.8-4.458 6.35 6.35 0 0 1-2.578-1.867 5.965 5.965 0 0 1-1.422-3.881 6.925 6.925 0 0 1 .978-3.533 6.782 6.782 0 0 1 2.666-2.6 7.776 7.776 0 0 1 3.778-.919 6.937 6.937 0 0 1 4.695 1.623 7.94 7.94 0 0 1 2.459 4.762h-2.133a6.184 6.184 0 0 0-1.614-3.066 4.976 4.976 0 0 0-3.437-1.2 5.176 5.176 0 0 0-3.807 1.422 4.542 4.542 0 0 0-1.437 3.333 4.313 4.313 0 0 0 .718 2.385 4.525 4.525 0 0 0 1.926 1.674 10.688 10.688 0 0 0 3.74.696v2a6.862 6.862 0 0 0-2.726.526 3.973 3.973 0 0 0-1.785 1.34 3.091 3.091 0 0 0-.555 1.778 3.227 3.227 0 0 0 1.133 2.46 4.083 4.083 0 0 0 2.866 1.036 3.848 3.848 0 0 0 2.43-.792 5.98 5.98 0 0 0 1.734-2.689zm-7.981-34.453a5.335 5.335 0 0 1 7.81-.31l.51.51.51-.51a5.324 5.324 0 0 1 7.8.31 5.404 5.404 0 0 1-.37 7.29l-.43.43a27.144 27.144 0 0 0-2.5 1.9 28.006 28.006 0 0 0-5.01 5.61 28.406 28.406 0 0 0-5.02-5.61 25.858 25.858 0 0 0-2.5-1.9c-.14-.15-.28-.29-.43-.43a5.404 5.404 0 0 1-.37-7.29z"/><path d="m87.747 113.085 3.741-3.844h-7.481l3.74 3.844zm-42.16 3.446a3.794 3.794 0 0 1 5.554-.22l.363.362.362-.362a3.786 3.786 0 0 1 5.547.22 3.843 3.843 0 0 1-.263 5.184l-.306.306a19.298 19.298 0 0 0-1.778 1.351 19.917 19.917 0 0 0-3.562 3.99 20.205 20.205 0 0 0-3.57-3.99 18.372 18.372 0 0 0-1.778-1.35c-.1-.107-.2-.207-.306-.307a3.843 3.843 0 0 1-.263-5.184z"/><path d="m51.501 115.034 2.66-2.734h-5.32l2.66 2.734zm5.912-71.565a3.794 3.794 0 0 1-5.554.22l-.363-.362-.362.362a3.786 3.786 0 0 1-5.547-.22 3.843 3.843 0 0 1 .263-5.185l.306-.305a19.298 19.298 0 0 0 1.778-1.351 19.917 19.917 0 0 0 3.562-3.99 20.205 20.205 0 0 0 3.57 3.99 18.372 18.372 0 0 0 1.778 1.35c.1.107.2.207.306.306a3.843 3.843 0 0 1 .263 5.185z"/><path d="m51.499 44.966-2.66 2.734h5.32l-2.66-2.734zm5.914 18.419a3.794 3.794 0 0 1-5.554.22l-.363-.363-.362.363a3.786 3.786 0 0 1-5.547-.22 3.843 3.843 0 0 1 .263-5.185l.306-.306a19.3 19.3 0 0 0 1.778-1.351 19.914 19.914 0 0 0 3.563-3.99 20.202 20.202 0 0 0 3.57 3.99 18.374 18.374 0 0 0 1.778 1.351c.1.107.199.206.305.306a3.843 3.843 0 0 1 .263 5.184z"/><path d="m51.499 64.882-2.66 2.733h5.32l-2.66-2.733zM57.413 83.3a3.794 3.794 0 0 1-5.554.22l-.363-.362-.362.362a3.786 3.786 0 0 1-5.547-.22 3.843 3.843 0 0 1 .263-5.184l.306-.306a19.282 19.282 0 0 0 1.778-1.351 19.914 19.914 0 0 0 3.562-3.99 20.202 20.202 0 0 0 3.57 3.99 18.358 18.358 0 0 0 1.778 1.351c.1.107.2.206.306.306a3.843 3.843 0 0 1 .263 5.184z"/><path d="m51.499 84.797-2.66 2.734h5.32l-2.66-2.734zm-5.912 11.818a3.794 3.794 0 0 1 5.554-.22l.363.363.362-.362a3.786 3.786 0 0 1 5.547.22 3.843 3.843 0 0 1-.263 5.184l-.306.306a19.3 19.3 0 0 0-1.778 1.351 19.914 19.914 0 0 0-3.563 3.99 20.202 20.202 0 0 0-3.57-3.99 18.374 18.374 0 0 0-1.778-1.351 6.39 6.39 0 0 0-.305-.306 3.843 3.843 0 0 1-.263-5.184z"/><path d="m51.501 95.118 2.66-2.733h-5.32l2.66 2.733zm-21.898-8.46a3.794 3.794 0 0 1 5.554-.22l.363.362.363-.363a3.786 3.786 0 0 1 5.547.22 3.843 3.843 0 0 1-.263 5.185l-.306.306a19.331 19.331 0 0 0-1.778 1.351 19.914 19.914 0 0 0-3.563 3.99 20.205 20.205 0 0 0-3.57-3.99 18.415 18.415 0 0 0-1.778-1.351 6.308 6.308 0 0 0-.306-.306 3.843 3.843 0 0 1-.263-5.184z"/><path d="m35.518 85.16 2.66-2.733h-5.321l2.661 2.733zm5.912-31.733a3.794 3.794 0 0 1-5.554.22l-.363-.363-.362.363a3.786 3.786 0 0 1-5.548-.22 3.843 3.843 0 0 1 .264-5.185l.305-.305a19.295 19.295 0 0 0 1.778-1.352 19.914 19.914 0 0 0 3.563-3.99 20.201 20.201 0 0 0 3.57 3.99 18.383 18.383 0 0 0 1.778 1.351c.1.107.199.207.306.306a3.843 3.843 0 0 1 .263 5.185z"/><path d="m35.516 54.924-2.66 2.734h5.32l-2.66-2.734zm5.914 18.418a3.794 3.794 0 0 1-5.554.22l-.363-.362-.363.363a3.786 3.786 0 0 1-5.547-.22 3.843 3.843 0 0 1 .264-5.185l.305-.306a19.331 19.331 0 0 0 1.778-1.351 19.914 19.914 0 0 0 3.563-3.99 20.202 20.202 0 0 0 3.57 3.99 18.415 18.415 0 0 0 1.778 1.351c.1.107.199.206.306.306a3.843 3.843 0 0 1 .263 5.184z"/><path d="m35.516 74.84-2.66 2.733h5.32l-2.66-2.733zm-5.913 31.733a3.794 3.794 0 0 1 5.554-.22l.363.363.363-.363a3.786 3.786 0 0 1 5.547.22 3.843 3.843 0 0 1-.263 5.185l-.306.306a19.295 19.295 0 0 0-1.778 1.35 19.914 19.914 0 0 0-3.563 3.99 20.205 20.205 0 0 0-3.57-3.99 18.383 18.383 0 0 0-1.778-1.35 5.887 5.887 0 0 0-.306-.306 3.843 3.843 0 0 1-.263-5.185z"/><path d="m35.518 105.076 2.66-2.734h-5.321l2.661 2.734zM61.57 86.658a3.794 3.794 0 0 1 5.554-.22l.363.362.363-.363a3.786 3.786 0 0 1 5.547.22 3.843 3.843 0 0 1-.264 5.185l-.305.306a19.331 19.331 0 0 0-1.778 1.351 19.914 19.914 0 0 0-3.563 3.99 20.202 20.202 0 0 0-3.57-3.99 18.415 18.415 0 0 0-1.778-1.351 6.308 6.308 0 0 0-.306-.306 3.843 3.843 0 0 1-.263-5.184z"/><path d="m67.484 85.16 2.66-2.733h-5.32l2.66 2.733zm5.913-31.733a3.794 3.794 0 0 1-5.555.22l-.362-.363-.363.363a3.786 3.786 0 0 1-5.547-.22 3.843 3.843 0 0 1 .263-5.185l.306-.305a19.295 19.295 0 0 0 1.778-1.352 19.914 19.914 0 0 0 3.563-3.99 20.205 20.205 0 0 0 3.57 3.99 18.383 18.383 0 0 0 1.778 1.352c.1.106.199.206.305.305a3.843 3.843 0 0 1 .264 5.185z"/><path d="m67.482 54.924-2.66 2.734h5.321l-2.661-2.734zm5.915 18.418a3.794 3.794 0 0 1-5.555.22l-.362-.362-.363.363a3.786 3.786 0 0 1-5.547-.22 3.843 3.843 0 0 1 .263-5.185l.306-.306a19.331 19.331 0 0 0 1.778-1.351 19.914 19.914 0 0 0 3.563-3.99 20.205 20.205 0 0 0 3.57 3.99 18.415 18.415 0 0 0 1.778 1.351c.1.107.199.206.306.306a3.843 3.843 0 0 1 .263 5.184z"/><path d="m67.482 74.84-2.66 2.733h5.321l-2.661-2.733zm-5.912 31.733a3.794 3.794 0 0 1 5.554-.22l.363.363.363-.363a3.786 3.786 0 0 1 5.547.22 3.843 3.843 0 0 1-.264 5.185l-.305.306a19.295 19.295 0 0 0-1.778 1.35 19.914 19.914 0 0 0-3.563 3.99 20.201 20.201 0 0 0-3.57-3.99 18.383 18.383 0 0 0-1.778-1.35c-.1-.107-.2-.207-.306-.306a3.843 3.843 0 0 1-.263-5.185z"/><path d="m67.484 105.076 2.66-2.734h-5.32l2.66 2.734z"/></svg>