<svg xmlns="http://www.w3.org/2000/svg" viewBox="0 0 103 160"><path fill="#fff" d="M0 0h103v160H0z"/><path d="M5.985 4.757h4.497v22.887H8.21V6.998H4.616zm12.055 0h4.497v22.887h-2.272V6.998h-3.594zm5.529 40.053a5.335 5.335 0 0 1-7.81.31l-.51-.51-.51.51a5.324 5.324 0 0 1-7.8-.31 5.404 5.404 0 0 1 .37-7.29l.43-.43a27.144 27.144 0 0 0 2.5-1.9 28.006 28.006 0 0 0 5.01-5.61 28.406 28.406 0 0 0 5.02 5.61 25.858 25.858 0 0 0 2.5 1.9c.14.15.28.29.43.43a5.404 5.404 0 0 1 .37 7.29z"/><path d="m15.253 46.915-3.741 3.844h7.481l-3.74-3.844zm81.762 108.328h-4.497v-22.887h2.272v20.646h3.594zm-12.055 0h-4.497v-22.887h2.272v20.646h3.594zm-5.529-40.053a5.335 5.335 0 0 1 7.81-.31l.51.51.51-.51a5.324 5.324 0 0 1 7.8.31 5.404 5.404 0 0 1-.37 7.29l-.43.43a27.144 27.144 0 0 0-2.5 1.9 28.006 28.006 0 0 0-5.01 5.61 28.406 28.406 0 0 0-5.02-5.61 25.858 25.858 0 0 0-2.5-1.9c-.14-.15-.28-.29-.43-.43a5.404 5.404 0 0 1-.37-7.29z"/><path d="m87.747 113.085 3.741-3.844h-7.481l3.74 3.844zm-58.144 3.446a3.794 3.794 0 0 1 5.554-.22l.363.362.363-.362a3.786 3.786 0 0 1 5.547.22 3.843 3.843 0 0 1-.263 5.184l-.306.306a19.311 19.311 0 0 0-1.778 1.351 19.917 19.917 0 0 0-3.563 3.99 20.208 20.208 0 0 0-3.57-3.99 18.397 18.397 0 0 0-1.778-1.35 6.328 6.328 0 0 0-.306-.307 3.843 3.843 0 0 1-.263-5.184z"/><path d="m35.518 115.034 2.66-2.734h-5.321l2.661 2.734zM29.603 90.18a3.794 3.794 0 0 1 5.554-.22l.363.362.363-.362a3.786 3.786 0 0 1 5.547.22 3.843 3.843 0 0 1-.263 5.184l-.306.306a19.311 19.311 0 0 0-1.778 1.351 19.917 19.917 0 0 0-3.563 3.99 20.208 20.208 0 0 0-3.57-3.99 18.397 18.397 0 0 0-1.778-1.351 6.308 6.308 0 0 0-.306-.306 3.843 3.843 0 0 1-.263-5.184z"/><path d="m35.518 88.682 2.66-2.733h-5.321l2.661 2.733zm5.912-18.697a3.794 3.794 0 0 1-5.554.22l-.363-.363-.362.363a3.786 3.786 0 0 1-5.548-.22 3.843 3.843 0 0 1 .264-5.184l.305-.306a19.313 19.313 0 0 0 1.778-1.351 19.914 19.914 0 0 0 3.563-3.99 20.202 20.202 0 0 0 3.57 3.99 18.399 18.399 0 0 0 1.778 1.35c.1.108.199.207.306.307a3.843 3.843 0 0 1 .263 5.184z"/><path d="m35.516 71.482-2.66 2.734h5.32l-2.66-2.734zm5.914-28.013a3.794 3.794 0 0 1-5.554.22l-.363-.362-.362.362a3.786 3.786 0 0 1-5.548-.22 3.843 3.843 0 0 1 .264-5.185l.305-.305a19.311 19.311 0 0 0 1.778-1.351 19.917 19.917 0 0 0 3.563-3.99 20.204 20.204 0 0 0 3.57 3.99 18.397 18.397 0 0 0 1.778 1.35c.1.107.199.207.306.307a3.843 3.843 0 0 1 .263 5.184z"/><path d="m35.516 44.966-2.66 2.734h5.32l-2.66-2.734zm26.054 71.565a3.794 3.794 0 0 1 5.554-.22l.363.362.363-.362a3.786 3.786 0 0 1 5.547.22 3.843 3.843 0 0 1-.264 5.184l-.305.306a19.311 19.311 0 0 0-1.778 1.351 19.917 19.917 0 0 0-3.563 3.99 20.204 20.204 0 0 0-3.57-3.99 18.397 18.397 0 0 0-1.778-1.35c-.1-.107-.2-.207-.306-.307a3.843 3.843 0 0 1-.263-5.184z"/><path d="m67.484 115.034 2.66-2.734h-5.32l2.66 2.734zM61.57 90.18a3.794 3.794 0 0 1 5.554-.22l.363.362.363-.362a3.786 3.786 0 0 1 5.547.22 3.843 3.843 0 0 1-.264 5.184l-.305.306a19.311 19.311 0 0 0-1.778 1.351 19.917 19.917 0 0 0-3.563 3.99 20.204 20.204 0 0 0-3.57-3.99 18.397 18.397 0 0 0-1.778-1.351c-.1-.107-.2-.206-.306-.306a3.843 3.843 0 0 1-.263-5.184z"/><path d="m67.484 88.682 2.66-2.733h-5.32l2.66 2.733zm5.913-18.697a3.794 3.794 0 0 1-5.555.22l-.362-.363-.363.363a3.786 3.786 0 0 1-5.547-.22 3.843 3.843 0 0 1 .263-5.184l.306-.306a19.313 19.313 0 0 0 1.778-1.351 19.914 19.914 0 0 0 3.563-3.99 20.205 20.205 0 0 0 3.57 3.99 18.399 18.399 0 0 0 1.778 1.35c.1.108.199.207.305.307a3.843 3.843 0 0 1 .264 5.184z"/><path d="m67.482 71.482-2.66 2.734h5.321l-2.661-2.734zm5.915-28.013a3.794 3.794 0 0 1-5.555.22l-.362-.362-.363.362a3.786 3.786 0 0 1-5.547-.22 3.843 3.843 0 0 1 .263-5.185l.306-.305a19.311 19.311 0 0 0 1.778-1.351 19.917 19.917 0 0 0 3.563-3.99 20.208 20.208 0 0 0 3.57 3.99 18.397 18.397 0 0 0 1.778 1.35c.1.107.199.207.305.306a3.843 3.843 0 0 1 .264 5.185z"/><path d="m67.482 44.966-2.66 2.734h5.321l-2.661-2.734zM57.413 83.341a3.794 3.794 0 0 1-5.554.22l-.363-.362-.362.363a3.786 3.786 0 0 1-5.547-.22 3.843 3.843 0 0 1 .263-5.185l.306-.306a19.282 19.282 0 0 0 1.778-1.351 19.914 19.914 0 0 0 3.562-3.99 20.202 20.202 0 0 0 3.57 3.99 18.358 18.358 0 0 0 1.778 1.351c.1.107.2.207.306.306a3.843 3.843 0 0 1 .263 5.184z"/><path d="m51.499 84.838-2.66 2.734h5.32l-2.66-2.734zm5.914-28.111a3.794 3.794 0 0 1-5.554.22l-.363-.362-.362.363a3.786 3.786 0 0 1-5.547-.221 3.843 3.843 0 0 1 .263-5.184l.306-.306a19.282 19.282 0 0 0 1.778-1.351 19.914 19.914 0 0 0 3.562-3.99 20.202 20.202 0 0 0 3.57 3.99 18.358 18.358 0 0 0 1.778 1.35c.1.107.2.207.306.307a3.843 3.843 0 0 1 .263 5.184z"/><path d="m51.499 58.224-2.66 2.734h5.32l-2.66-2.734zm-5.912 45.131a3.794 3.794 0 0 1 5.554-.22l.363.363.362-.363a3.786 3.786 0 0 1 5.547.22 3.843 3.843 0 0 1-.263 5.185l-.306.306a19.298 19.298 0 0 0-1.778 1.35 19.917 19.917 0 0 0-3.563 3.99 20.205 20.205 0 0 0-3.57-3.99 18.372 18.372 0 0 0-1.778-1.35 6.771 6.771 0 0 0-.305-.306 3.843 3.843 0 0 1-.263-5.185z"/><path d="m51.501 101.858 2.66-2.734h-5.32l2.66 2.734z"/></svg>