<svg xmlns="http://www.w3.org/2000/svg" viewBox="0 0 103 160"><path fill="#fff" d="M0 0h103v160H0z"/><path d="M12.054 4.757h4.496v22.887h-2.272V6.998h-3.594zM23.569 44.81a5.335 5.335 0 0 1-7.81.31l-.51-.51-.51.51a5.324 5.324 0 0 1-7.8-.31 5.404 5.404 0 0 1 .37-7.29l.43-.43a27.144 27.144 0 0 0 2.5-1.9 28.006 28.006 0 0 0 5.01-5.61 28.406 28.406 0 0 0 5.02 5.61 25.858 25.858 0 0 0 2.5 1.9c.14.15.28.29.43.43a5.404 5.404 0 0 1 .37 7.29z"/><path d="m15.253 46.915-3.741 3.844h7.481l-3.74-3.844zm75.693 108.328H86.45v-22.887h2.272v20.646h3.594zM79.431 115.19a5.335 5.335 0 0 1 7.81-.31l.51.51.51-.51a5.324 5.324 0 0 1 7.8.31 5.404 5.404 0 0 1-.37 7.29l-.43.43a27.144 27.144 0 0 0-2.5 1.9 28.006 28.006 0 0 0-5.01 5.61 28.406 28.406 0 0 0-5.02-5.61 25.858 25.858 0 0 0-2.5-1.9c-.14-.15-.28-.29-.43-.43a5.404 5.404 0 0 1-.37-7.29z"/><path d="m87.747 113.085 3.741-3.844h-7.481l3.74 3.844zM66.983 88.64a9.934 9.934 0 0 1-14.543.577l-.95-.95-.95.95a9.912 9.912 0 0 1-14.523-.577 10.063 10.063 0 0 1 .69-13.574l.8-.8a50.524 50.524 0 0 0 4.655-3.538 52.145 52.145 0 0 0 9.329-10.446 52.896 52.896 0 0 0 9.347 10.446 48.144 48.144 0 0 0 4.655 3.538c.26.279.521.54.8.8a10.062 10.062 0 0 1 .69 13.574z"/><path d="m51.498 92.56-6.965 7.158h13.93l-6.965-7.158z"/></svg>