<svg xmlns="http://www.w3.org/2000/svg" viewBox="0 0 103 160"><path fill="#fff" d="M0 0h103v160H0z"/><path d="M5.012 4.758H9.51v22.886H7.237V6.998H3.643zm20.64-.001v2.125H17.72l-1.118 6.089a9.38 9.38 0 0 1 2.623-.428 6.703 6.703 0 0 1 5.026 2.042 7.206 7.206 0 0 1 1.978 5.228 8.194 8.194 0 0 1-1.017 4.037 7.095 7.095 0 0 1-2.755 2.815 8.04 8.04 0 0 1-4.014.98 6.645 6.645 0 0 1-4.583-1.663 6.803 6.803 0 0 1-2.231-4.302h2.291a5.03 5.03 0 0 0 .873 2.094 4.445 4.445 0 0 0 1.639 1.298 4.89 4.89 0 0 0 2.147.493 5.022 5.022 0 0 0 3.78-1.667 5.825 5.825 0 0 0 1.578-4.168 4.93 4.93 0 0 0-1.426-3.668 5.188 5.188 0 0 0-3.81-1.409 12.618 12.618 0 0 0-4.78 1.2l2.064-11.096zM23.569 44.81a5.335 5.335 0 0 1-7.81.31l-.51-.51-.51.51a5.324 5.324 0 0 1-7.8-.31 5.404 5.404 0 0 1 .37-7.29l.43-.43a27.144 27.144 0 0 0 2.5-1.9 28.006 28.006 0 0 0 5.01-5.61 28.406 28.406 0 0 0 5.02 5.61 25.858 25.858 0 0 0 2.5 1.9c.14.15.28.29.43.43a5.404 5.404 0 0 1 .37 7.29z"/><path d="m15.253 46.915-3.741 3.844h7.481l-3.74-3.844zm82.735 108.328H93.49v-22.887h2.272v20.646h3.594zm-20.64 0v-2.125h7.932l1.118-6.089a9.38 9.38 0 0 1-2.623.428 6.703 6.703 0 0 1-5.026-2.041 7.206 7.206 0 0 1-1.978-5.229 8.194 8.194 0 0 1 1.017-4.037 7.095 7.095 0 0 1 2.754-2.815 8.04 8.04 0 0 1 4.015-.98 6.645 6.645 0 0 1 4.583 1.663 6.803 6.803 0 0 1 2.231 4.302H89.08a5.03 5.03 0 0 0-.873-2.094 4.445 4.445 0 0 0-1.639-1.298 4.89 4.89 0 0 0-2.147-.493 5.022 5.022 0 0 0-3.78 1.667 5.825 5.825 0 0 0-1.578 4.168 4.93 4.93 0 0 0 1.427 3.668 5.188 5.188 0 0 0 3.81 1.41 12.618 12.618 0 0 0 4.78-1.2l-2.064 11.095zm2.083-40.053a5.335 5.335 0 0 1 7.81-.31l.51.51.51-.51a5.324 5.324 0 0 1 7.8.31 5.404 5.404 0 0 1-.37 7.29l-.43.43a27.144 27.144 0 0 0-2.5 1.9 28.006 28.006 0 0 0-5.01 5.61 28.406 28.406 0 0 0-5.02-5.61 25.858 25.858 0 0 0-2.5-1.9c-.14-.15-.28-.29-.43-.43a5.404 5.404 0 0 1-.37-7.29z"/><path d="m87.747 113.085 3.741-3.844h-7.481l3.74 3.844zm-57.936 3.446a3.794 3.794 0 0 1 5.554-.22l.363.362.363-.362a3.786 3.786 0 0 1 5.547.22 3.843 3.843 0 0 1-.263 5.184l-.306.306a19.311 19.311 0 0 0-1.778 1.351 19.917 19.917 0 0 0-3.563 3.99 20.208 20.208 0 0 0-3.57-3.99 18.397 18.397 0 0 0-1.778-1.35 6.328 6.328 0 0 0-.306-.307 3.843 3.843 0 0 1-.263-5.184z"/><path d="m35.725 115.034 2.661-2.734h-5.321l2.66 2.734zm5.913-71.565a3.794 3.794 0 0 1-5.554.22l-.363-.362-.363.362a3.786 3.786 0 0 1-5.547-.22 3.844 3.844 0 0 1 .263-5.185l.306-.305a19.284 19.284 0 0 0 1.778-1.351 19.918 19.918 0 0 0 3.563-3.99 20.204 20.204 0 0 0 3.57 3.99 18.397 18.397 0 0 0 1.778 1.35c.1.107.199.207.306.306a3.843 3.843 0 0 1 .263 5.185z"/><path d="m35.724 44.966-2.66 2.734h5.32l-2.66-2.734zm5.914 18.419a3.794 3.794 0 0 1-5.554.22l-.363-.363-.363.363a3.786 3.786 0 0 1-5.547-.22 3.844 3.844 0 0 1 .263-5.185l.306-.306a19.286 19.286 0 0 0 1.778-1.351 19.915 19.915 0 0 0 3.563-3.99 20.201 20.201 0 0 0 3.57 3.99 18.399 18.399 0 0 0 1.778 1.351c.1.107.199.206.306.306a3.843 3.843 0 0 1 .263 5.184z"/><path d="m35.724 64.882-2.66 2.733h5.32l-2.66-2.733zM41.638 83.3a3.794 3.794 0 0 1-5.554.22l-.363-.362-.363.362a3.786 3.786 0 0 1-5.547-.22 3.844 3.844 0 0 1 .263-5.184l.306-.306a19.268 19.268 0 0 0 1.778-1.351 19.915 19.915 0 0 0 3.563-3.99 20.201 20.201 0 0 0 3.57 3.99 18.383 18.383 0 0 0 1.778 1.351c.1.107.199.206.306.306a3.843 3.843 0 0 1 .263 5.184z"/><path d="m35.724 84.797-2.66 2.734h5.32l-2.66-2.734zm-5.913 11.818a3.794 3.794 0 0 1 5.554-.22l.363.363.363-.362a3.786 3.786 0 0 1 5.547.22 3.843 3.843 0 0 1-.263 5.184l-.306.306a19.313 19.313 0 0 0-1.778 1.35 19.914 19.914 0 0 0-3.563 3.99 20.205 20.205 0 0 0-3.57-3.99 18.399 18.399 0 0 0-1.778-1.35 6.39 6.39 0 0 0-.306-.306 3.843 3.843 0 0 1-.263-5.184z"/><path d="m35.725 95.118 2.661-2.733h-5.321l2.66 2.733zm25.686 21.413a3.794 3.794 0 0 1 5.554-.22l.363.362.363-.362a3.786 3.786 0 0 1 5.547.22 3.843 3.843 0 0 1-.263 5.184l-.306.306a19.311 19.311 0 0 0-1.778 1.351 19.917 19.917 0 0 0-3.563 3.99 20.205 20.205 0 0 0-3.57-3.99 18.372 18.372 0 0 0-1.778-1.35c-.1-.107-.2-.207-.306-.307a3.843 3.843 0 0 1-.263-5.184z"/><path d="m67.325 115.034 2.66-2.734h-5.32l2.66 2.734zm5.913-71.565a3.794 3.794 0 0 1-5.554.22l-.363-.362-.363.362a3.786 3.786 0 0 1-5.547-.22 3.844 3.844 0 0 1 .263-5.185l.306-.305a19.284 19.284 0 0 0 1.778-1.351 19.92 19.92 0 0 0 3.563-3.99 20.201 20.201 0 0 0 3.57 3.99 18.397 18.397 0 0 0 1.778 1.35c.1.107.199.207.305.306a3.843 3.843 0 0 1 .264 5.185z"/><path d="m67.323 44.966-2.66 2.734h5.321l-2.661-2.734zm5.915 18.419a3.794 3.794 0 0 1-5.554.22l-.363-.363-.363.363a3.786 3.786 0 0 1-5.547-.22 3.844 3.844 0 0 1 .263-5.185l.306-.306a19.286 19.286 0 0 0 1.778-1.351 19.918 19.918 0 0 0 3.563-3.99 20.198 20.198 0 0 0 3.57 3.99 18.399 18.399 0 0 0 1.778 1.351c.1.107.199.206.306.306a3.843 3.843 0 0 1 .263 5.184z"/><path d="m67.323 64.882-2.66 2.733h5.321l-2.661-2.733zM73.238 83.3a3.794 3.794 0 0 1-5.554.22l-.363-.362-.363.362a3.786 3.786 0 0 1-5.547-.22 3.844 3.844 0 0 1 .263-5.184l.306-.306a19.268 19.268 0 0 0 1.778-1.351 19.918 19.918 0 0 0 3.563-3.99 20.198 20.198 0 0 0 3.57 3.99 18.383 18.383 0 0 0 1.778 1.351c.1.107.199.206.306.306a3.843 3.843 0 0 1 .263 5.184z"/><path d="m67.323 84.797-2.66 2.734h5.321l-2.661-2.734zm-5.912 11.818a3.794 3.794 0 0 1 5.554-.22l.363.363.363-.362a3.786 3.786 0 0 1 5.547.22 3.843 3.843 0 0 1-.263 5.184l-.306.306a19.313 19.313 0 0 0-1.778 1.35 19.914 19.914 0 0 0-3.563 3.99 20.202 20.202 0 0 0-3.57-3.99 18.374 18.374 0 0 0-1.778-1.35c-.1-.107-.2-.206-.306-.306a3.843 3.843 0 0 1-.263-5.184z"/><path d="m67.325 95.118 2.66-2.733h-5.32l2.66 2.733zm-21.738 21.413a3.794 3.794 0 0 1 5.554-.22l.363.362.362-.362a3.786 3.786 0 0 1 5.547.22 3.843 3.843 0 0 1-.263 5.184l-.306.306a19.298 19.298 0 0 0-1.778 1.351 19.917 19.917 0 0 0-3.562 3.99 20.205 20.205 0 0 0-3.57-3.99 18.372 18.372 0 0 0-1.778-1.35c-.1-.107-.2-.207-.306-.307a3.843 3.843 0 0 1-.263-5.184z"/><path d="m51.501 115.034 2.66-2.734h-5.32l2.66 2.734zm5.912-71.565a3.794 3.794 0 0 1-5.554.22l-.363-.362-.362.362a3.786 3.786 0 0 1-5.547-.22 3.843 3.843 0 0 1 .263-5.185l.306-.305a19.298 19.298 0 0 0 1.778-1.351 19.917 19.917 0 0 0 3.562-3.99 20.205 20.205 0 0 0 3.57 3.99 18.372 18.372 0 0 0 1.778 1.35c.1.107.2.207.306.306a3.843 3.843 0 0 1 .263 5.185z"/><path d="m51.499 44.966-2.66 2.734h5.32l-2.66-2.734zm5.914 18.419a3.794 3.794 0 0 1-5.554.22l-.363-.363-.362.363a3.786 3.786 0 0 1-5.547-.22 3.843 3.843 0 0 1 .263-5.185l.306-.306a19.3 19.3 0 0 0 1.778-1.351 19.914 19.914 0 0 0 3.563-3.99 20.202 20.202 0 0 0 3.57 3.99 18.374 18.374 0 0 0 1.778 1.351c.1.107.199.206.305.306a3.843 3.843 0 0 1 .263 5.184z"/><path d="m51.499 64.882-2.66 2.733h5.32l-2.66-2.733zM57.413 83.3a3.794 3.794 0 0 1-5.554.22l-.363-.362-.362.362a3.786 3.786 0 0 1-5.547-.22 3.843 3.843 0 0 1 .263-5.184l.306-.306a19.282 19.282 0 0 0 1.778-1.351 19.914 19.914 0 0 0 3.562-3.99 20.202 20.202 0 0 0 3.57 3.99 18.358 18.358 0 0 0 1.778 1.351c.1.107.2.206.306.306a3.843 3.843 0 0 1 .263 5.184z"/><path d="m51.499 84.797-2.66 2.734h5.32l-2.66-2.734zm-5.912 11.818a3.794 3.794 0 0 1 5.554-.22l.363.363.362-.362a3.786 3.786 0 0 1 5.547.22 3.843 3.843 0 0 1-.263 5.184l-.306.306a19.3 19.3 0 0 0-1.778 1.351 19.914 19.914 0 0 0-3.563 3.99 20.202 20.202 0 0 0-3.57-3.99 18.374 18.374 0 0 0-1.778-1.351 6.39 6.39 0 0 0-.305-.306 3.843 3.843 0 0 1-.263-5.184z"/><path d="m51.501 95.118 2.66-2.733h-5.32l2.66 2.733z"/></svg>