<svg xmlns="http://www.w3.org/2000/svg" viewBox="0 0 103 160"><path fill="#fff" d="M0 0h103v160H0z"/><path d="M5.029 4.758h4.496v22.886H7.253V6.998H3.66zM15.036 12.3h-2.141a7.67 7.67 0 0 1 2.208-5.423 7.1 7.1 0 0 1 5.229-2.12 6.654 6.654 0 0 1 6.89 6.681 7.31 7.31 0 0 1-.909 3.561 25.593 25.593 0 0 1-3.526 4.501l-5.561 5.989h10.3v2.155H12.364l8.529-9.218a27.418 27.418 0 0 0 3.377-4.124 5.546 5.546 0 0 0 .782-2.833 4.36 4.36 0 0 0-1.404-3.242 4.755 4.755 0 0 0-3.438-1.36 4.815 4.815 0 0 0-3.559 1.427 6.13 6.13 0 0 0-1.615 4.006zm8.549 32.51a5.335 5.335 0 0 1-7.81.31l-.51-.51-.51.51a5.324 5.324 0 0 1-7.8-.31 5.404 5.404 0 0 1 .37-7.29l.43-.43a27.13 27.13 0 0 0 2.5-1.9 28 28 0 0 0 5.01-5.61 28.41 28.41 0 0 0 5.02 5.61 25.845 25.845 0 0 0 2.5 1.9c.14.15.28.29.43.43a5.404 5.404 0 0 1 .37 7.29z"/><path d="m15.269 46.915-3.741 3.844h7.481l-3.74-3.844zm82.703 108.328h-4.497v-22.887h2.272v20.646h3.594zM87.965 147.7h2.14a7.67 7.67 0 0 1-2.208 5.423 7.1 7.1 0 0 1-5.229 2.12 6.654 6.654 0 0 1-6.89-6.681 7.31 7.31 0 0 1 .909-3.561 25.593 25.593 0 0 1 3.526-4.501l5.561-5.989h-10.3v-2.155h15.162l-8.529 9.218a27.418 27.418 0 0 0-3.377 4.124 5.546 5.546 0 0 0-.782 2.833 4.36 4.36 0 0 0 1.404 3.242 4.755 4.755 0 0 0 3.438 1.36 4.815 4.815 0 0 0 3.559-1.426 6.13 6.13 0 0 0 1.615-4.007zm-8.55-32.51a5.335 5.335 0 0 1 7.81-.31l.51.51.51-.51a5.324 5.324 0 0 1 7.8.31 5.404 5.404 0 0 1-.37 7.29l-.43.43a27.13 27.13 0 0 0-2.5 1.9 28 28 0 0 0-5.01 5.61 28.41 28.41 0 0 0-5.02-5.61 25.845 25.845 0 0 0-2.5-1.9c-.14-.15-.28-.29-.43-.43a5.404 5.404 0 0 1-.37-7.29z"/><path d="m87.731 113.085 3.741-3.844h-7.481l3.74 3.844zM61.57 90.18a3.794 3.794 0 0 1 5.554-.22l.363.362.363-.362a3.786 3.786 0 0 1 5.547.22 3.843 3.843 0 0 1-.264 5.184l-.305.306a19.311 19.311 0 0 0-1.778 1.351 19.917 19.917 0 0 0-3.563 3.99 20.204 20.204 0 0 0-3.57-3.99 18.397 18.397 0 0 0-1.778-1.351c-.1-.107-.2-.206-.306-.306a3.843 3.843 0 0 1-.263-5.184z"/><path d="m67.484 88.682 2.66-2.733h-5.32l2.66 2.733zm-5.914 27.849a3.794 3.794 0 0 1 5.554-.22l.363.362.363-.362a3.786 3.786 0 0 1 5.547.22 3.843 3.843 0 0 1-.264 5.184l-.305.306a19.311 19.311 0 0 0-1.778 1.351 19.917 19.917 0 0 0-3.563 3.99 20.204 20.204 0 0 0-3.57-3.99 18.397 18.397 0 0 0-1.778-1.35c-.1-.107-.2-.207-.306-.307a3.843 3.843 0 0 1-.263-5.184z"/><path d="m67.484 115.034 2.66-2.734h-5.32l2.66 2.734zM41.43 69.985a3.794 3.794 0 0 1-5.554.22l-.363-.363-.362.363a3.786 3.786 0 0 1-5.548-.22 3.843 3.843 0 0 1 .264-5.184l.305-.306a19.313 19.313 0 0 0 1.778-1.351 19.914 19.914 0 0 0 3.563-3.99 20.202 20.202 0 0 0 3.57 3.99 18.399 18.399 0 0 0 1.778 1.35c.1.108.199.207.306.307a3.843 3.843 0 0 1 .263 5.184z"/><path d="m35.516 71.482-2.66 2.734h5.32l-2.66-2.734zm5.914-28.013a3.794 3.794 0 0 1-5.554.22l-.363-.362-.362.362a3.786 3.786 0 0 1-5.548-.22 3.843 3.843 0 0 1 .264-5.185l.305-.305a19.311 19.311 0 0 0 1.778-1.351 19.917 19.917 0 0 0 3.563-3.99 20.204 20.204 0 0 0 3.57 3.99 18.397 18.397 0 0 0 1.778 1.35c.1.107.199.207.306.307a3.843 3.843 0 0 1 .263 5.184z"/><path d="m35.516 44.966-2.66 2.734h5.32l-2.66-2.734zM29.603 90.18a3.794 3.794 0 0 1 5.554-.22l.363.362.363-.362a3.786 3.786 0 0 1 5.547.22 3.843 3.843 0 0 1-.263 5.184l-.306.306a19.311 19.311 0 0 0-1.778 1.351 19.917 19.917 0 0 0-3.563 3.99 20.208 20.208 0 0 0-3.57-3.99 18.397 18.397 0 0 0-1.778-1.351 6.308 6.308 0 0 0-.306-.306 3.843 3.843 0 0 1-.263-5.184z"/><path d="m35.518 88.682 2.66-2.733h-5.321l2.661 2.733zm-5.915 27.849a3.794 3.794 0 0 1 5.554-.22l.363.362.363-.362a3.786 3.786 0 0 1 5.547.22 3.843 3.843 0 0 1-.263 5.184l-.306.306a19.311 19.311 0 0 0-1.778 1.351 19.917 19.917 0 0 0-3.563 3.99 20.208 20.208 0 0 0-3.57-3.99 18.397 18.397 0 0 0-1.778-1.35 6.328 6.328 0 0 0-.306-.307 3.843 3.843 0 0 1-.263-5.184z"/><path d="m35.518 115.034 2.66-2.734h-5.321l2.661 2.734zm21.895-45.049a3.794 3.794 0 0 1-5.554.22l-.363-.363-.362.363a3.786 3.786 0 0 1-5.547-.22 3.843 3.843 0 0 1 .263-5.184l.306-.306a19.3 19.3 0 0 0 1.778-1.351 19.914 19.914 0 0 0 3.562-3.99 20.203 20.203 0 0 0 3.57 3.99 18.374 18.374 0 0 0 1.778 1.35c.1.108.2.207.306.307a3.843 3.843 0 0 1 .263 5.184z"/><path d="m51.499 71.482-2.66 2.734h5.32l-2.66-2.734zm21.898-1.497a3.794 3.794 0 0 1-5.555.22l-.362-.363-.363.363a3.786 3.786 0 0 1-5.547-.22 3.843 3.843 0 0 1 .263-5.184l.306-.306a19.313 19.313 0 0 0 1.778-1.351 19.914 19.914 0 0 0 3.563-3.99 20.205 20.205 0 0 0 3.57 3.99 18.399 18.399 0 0 0 1.778 1.35c.1.108.199.207.305.307a3.843 3.843 0 0 1 .264 5.184z"/><path d="m67.482 71.482-2.66 2.734h5.321l-2.661-2.734zm5.915-28.013a3.794 3.794 0 0 1-5.555.22l-.362-.362-.363.362a3.786 3.786 0 0 1-5.547-.22 3.843 3.843 0 0 1 .263-5.185l.306-.305a19.311 19.311 0 0 0 1.778-1.351 19.917 19.917 0 0 0 3.563-3.99 20.208 20.208 0 0 0 3.57 3.99 18.397 18.397 0 0 0 1.778 1.35c.1.107.199.207.305.306a3.843 3.843 0 0 1 .264 5.185z"/><path d="m67.482 44.966-2.66 2.734h5.321l-2.661-2.734zm-10.069-1.497a3.794 3.794 0 0 1-5.554.22l-.363-.362-.362.362a3.786 3.786 0 0 1-5.547-.22 3.843 3.843 0 0 1 .263-5.185l.306-.305a19.298 19.298 0 0 0 1.778-1.351 19.917 19.917 0 0 0 3.562-3.99 20.205 20.205 0 0 0 3.57 3.99 18.372 18.372 0 0 0 1.778 1.35c.1.107.2.207.306.306a3.843 3.843 0 0 1 .263 5.185z"/><path d="m51.499 44.966-2.66 2.734h5.32l-2.66-2.734zm-5.912 71.565a3.794 3.794 0 0 1 5.554-.22l.363.362.362-.362a3.786 3.786 0 0 1 5.547.22 3.843 3.843 0 0 1-.263 5.184l-.306.306a19.298 19.298 0 0 0-1.778 1.351 19.917 19.917 0 0 0-3.562 3.99 20.205 20.205 0 0 0-3.57-3.99 18.372 18.372 0 0 0-1.778-1.35c-.1-.107-.2-.207-.306-.307a3.843 3.843 0 0 1-.263-5.184z"/><path d="m51.501 115.034 2.66-2.734h-5.32l2.66 2.734zM45.587 90.18a3.794 3.794 0 0 1 5.554-.22l.363.362.362-.362a3.786 3.786 0 0 1 5.547.22 3.843 3.843 0 0 1-.263 5.184l-.306.306a19.298 19.298 0 0 0-1.778 1.351 19.917 19.917 0 0 0-3.562 3.99 20.205 20.205 0 0 0-3.57-3.99 18.372 18.372 0 0 0-1.778-1.351c-.1-.107-.2-.206-.306-.306a3.843 3.843 0 0 1-.263-5.184z"/><path d="m51.501 88.682 2.66-2.733h-5.32l2.66 2.733z"/></svg>