<svg xmlns="http://www.w3.org/2000/svg" viewBox="0 0 1000 1000"><path fill="#7c96d6" d="M0 875h125v125H0zm0-750h125v125H0zm0 250h125v125H0zm0 250h125v125H0zM125 0h125v125H125zm0 250h125v125H125zm0 250h125v125H125zm0 250h125v125H125zm125 125h125v125H250zm0-750h125v125H250zm0 250h125v125H250zm0 250h125v125H250zM375 0h125v125H375zm0 250h125v125H375zm0 250h125v125H375zm0 250h125v125H375zm125 125h125v125H500zm0-750h125v125H500zm0 250h125v125H500zm0 250h125v125H500zM625 0h125v125H625zm0 250h125v125H625zm0 250h125v125H625zm0 250h125v125H625zm125 125h125v125H750zm0-750h125v125H750zm0 250h125v125H750zm0 250h125v125H750zM875 0h125v125H875zm0 250h125v125H875zm0 250h125v125H875zm0 250h125v125H875z"/><path fill="#e0eeff" d="M0 0h125v125H0zm0 250h125v125H0zm0 250h125v125H0zm0 250h125v125H0zm125 125h125v125H125zm0-750h125v125H125zm0 250h125v125H125zm0 250h125v125H125zM250 0h125v125H250zm0 250h125v125H250zm0 250h125v125H250zm0 250h125v125H250zm125 125h125v125H375zm0-750h125v125H375zm0 250h125v125H375zm0 250h125v125H375zM500 0h125v125H500zm0 250h125v125H500zm0 250h125v125H500zm0 250h125v125H500zm125 125h125v125H625zm0-750h125v125H625zm0 250h125v125H625zm0 250h125v125H625zM750 0h125v125H750zm0 250h125v125H750zm0 250h125v125H750zm0 250h125v125H750zm125 125h125v125H875zm0-750h125v125H875zm0 250h125v125H875zm0 250h125v125H875z"/></svg>