<svg xmlns="http://www.w3.org/2000/svg" viewBox="0 0 300 50"><path fill="#fff" stroke="#000" stroke-miterlimit="10" d="M53.992 3.412H296v43.175H53.992z"/><circle cx="26" cy="25.412" r="20" fill="#fff"/><path d="M64.482 21.591 62.15 12.4h1.255l1.095 4.649c.273 1.146.519 2.291.682 3.178h.027c.15-.914.437-2 .751-3.192l1.223-4.635h1.242l1.118 4.666c.26 1.091.5 2.182.641 3.15h.028c.191-1.009.45-2.032.737-3.178l1.213-4.638h1.215l-2.606 9.194H69.53L68.37 16.8a27.869 27.869 0 0 1-.6-3h-.027a29.067 29.067 0 0 1-.709 3l-1.31 4.788zM75.226 18.7l-.955 2.892h-1.228l3.124-9.192H77.6l3.137 9.194h-1.268l-.982-2.894zm3.015-.927-.9-2.647c-.2-.6-.342-1.146-.478-1.678h-.027a27.87 27.87 0 0 1-.464 1.665l-.9 2.66zm3.842-5.253a12.354 12.354 0 0 1 2.279-.191 3.763 3.763 0 0 1 2.66.75 2.288 2.288 0 0 1 .722 1.746 2.412 2.412 0 0 1-1.732 2.346v.041a2.294 2.294 0 0 1 1.351 1.856 14.606 14.606 0 0 0 .709 2.523h-1.228a11.968 11.968 0 0 1-.614-2.2c-.273-1.269-.763-1.746-1.841-1.787H83.27v3.983h-1.187zm1.187 4.188h1.214c1.269 0 2.074-.7 2.074-1.747 0-1.186-.859-1.7-2.115-1.718a4.86 4.86 0 0 0-1.173.109zm6.148 4.883V12.4h1.3l2.947 4.652a25.908 25.908 0 0 1 1.65 2.987l.028-.014c-.109-1.227-.136-2.346-.136-3.778V12.4h1.118v9.194h-1.2L92.2 16.926a28.961 28.961 0 0 1-1.72-3.07l-.04.014c.068 1.16.1 2.265.1 3.793v3.928zM99.577 12.4v9.194H98.39V12.4zm2.071 9.191V12.4h1.3l2.947 4.652a25.908 25.908 0 0 1 1.65 2.987l.028-.014c-.109-1.227-.137-2.346-.137-3.778V12.4h1.119v9.194h-1.2l-2.919-4.665a29.126 29.126 0 0 1-1.719-3.07l-.04.014c.068 1.16.095 2.265.095 3.793v3.928zm15.97-.409a8.567 8.567 0 0 1-2.824.505 4.73 4.73 0 0 1-3.438-1.214 4.731 4.731 0 0 1-1.282-3.424 4.611 4.611 0 0 1 4.979-4.747 5.687 5.687 0 0 1 2.292.423l-.287.968a4.768 4.768 0 0 0-2.032-.4 3.439 3.439 0 0 0-3.7 3.7 3.37 3.37 0 0 0 3.547 3.711 3.858 3.858 0 0 0 1.582-.246v-2.741h-1.869v-.955h3.029zm1.482-5.102a.813.813 0 1 1 1.623 0 .812.812 0 1 1-1.623 0zm0 4.816a.813.813 0 1 1 1.623 0 .812.812 0 1 1-1.623 0zm12.465.395a5.9 5.9 0 0 1-2.428.437 4.3 4.3 0 0 1-4.543-4.652 4.576 4.576 0 0 1 4.8-4.829 4.937 4.937 0 0 1 2.182.409l-.286.969a4.325 4.325 0 0 0-1.855-.382c-2.156 0-3.588 1.378-3.588 3.792 0 2.251 1.3 3.7 3.533 3.7a4.747 4.747 0 0 0 1.937-.382zm2.669-8.891v3.847h4.447V12.4h1.2v9.194h-1.2v-4.31h-4.447v4.31h-1.187V12.4zm15.56 4.5c0 3.164-1.924 4.842-4.27 4.842-2.428 0-4.133-1.882-4.133-4.665 0-2.919 1.814-4.829 4.27-4.829 2.51-.001 4.133 1.922 4.133 4.652zm-7.134.15c0 1.964 1.064 3.724 2.932 3.724s2.947-1.732 2.947-3.82c0-1.828-.955-3.738-2.933-3.738s-2.946 1.814-2.946 3.833zm8.67-4.65h1.187v4.434h.041c.246-.355.491-.683.723-.983l2.81-3.451h1.474l-3.329 3.9 3.588 5.293h-1.405l-3.029-4.515-.873 1.009v3.506h-1.187zm8.577 0v9.194h-1.187V12.4zm2.072 9.191V12.4h1.3l2.947 4.652a26.061 26.061 0 0 1 1.65 2.987l.027-.014c-.109-1.227-.136-2.346-.136-3.778V12.4h1.119v9.194h-1.2l-2.919-4.665a28.948 28.948 0 0 1-1.719-3.07l-.048.011c.068 1.16.1 2.265.1 3.793v3.928zm15.969-.409a8.562 8.562 0 0 1-2.824.505 4.727 4.727 0 0 1-3.437-1.214 4.731 4.731 0 0 1-1.282-3.424 4.611 4.611 0 0 1 4.979-4.747 5.677 5.677 0 0 1 2.291.423l-.286.968a4.77 4.77 0 0 0-2.033-.4 3.438 3.438 0 0 0-3.7 3.7 3.37 3.37 0 0 0 3.546 3.711 3.851 3.851 0 0 0 1.582-.246v-2.741h-1.864v-.955h3.028zm5.887-8.782v3.847h4.447V12.4h1.2v9.194h-1.2v-4.31h-4.447v4.31h-1.187V12.4zm9.189 6.3-.954 2.892h-1.228l3.124-9.194h1.434l3.138 9.194h-1.269l-.982-2.892zm3.015-.927-.9-2.647c-.205-.6-.341-1.146-.478-1.678h-.027a27.138 27.138 0 0 1-.464 1.665l-.9 2.66zm3.215 3.127 5.1-7.462v-.041h-4.665v-1h6.211v.723l-5.075 7.435v.045h5.143v1h-6.712zm9.654-2.2-.955 2.892h-1.228l3.124-9.194h1.433l3.137 9.194h-1.268l-.983-2.892zm3.015-.927-.9-2.647c-.2-.6-.341-1.146-.478-1.678h-.027a27.87 27.87 0 0 1-.464 1.665l-.9 2.66zm3.842-5.253a12.354 12.354 0 0 1 2.279-.191 3.763 3.763 0 0 1 2.66.75 2.293 2.293 0 0 1 .723 1.746 2.413 2.413 0 0 1-1.733 2.346v.041a2.292 2.292 0 0 1 1.351 1.856 14.606 14.606 0 0 0 .709 2.523h-1.228a11.968 11.968 0 0 1-.614-2.2c-.272-1.269-.763-1.746-1.841-1.787h-1.118v3.983h-1.188zm1.188 4.188h1.213c1.269 0 2.074-.7 2.074-1.747 0-1.186-.859-1.7-2.115-1.718a4.849 4.849 0 0 0-1.172.109zm6.147-4.188a17.035 17.035 0 0 1 2.524-.191 5.271 5.271 0 0 1 3.725 1.146 4.235 4.235 0 0 1 1.3 3.3 4.861 4.861 0 0 1-1.323 3.574 5.665 5.665 0 0 1-4.065 1.323 19.228 19.228 0 0 1-2.156-.109zm1.187 8.13a7.452 7.452 0 0 0 1.2.068c2.537 0 3.915-1.419 3.915-3.9.013-2.169-1.214-3.547-3.724-3.547a6.762 6.762 0 0 0-1.392.123zm13.526-3.192v.887h-3.369v-.887zM62.818 37.188a4.2 4.2 0 0 0 2.128.6c1.214 0 1.923-.642 1.923-1.569 0-.86-.491-1.351-1.732-1.828-1.5-.532-2.429-1.31-2.429-2.606 0-1.432 1.187-2.5 2.974-2.5a4.176 4.176 0 0 1 2.033.45l-.327.968a3.676 3.676 0 0 0-1.747-.436c-1.254 0-1.732.75-1.732 1.378 0 .859.559 1.282 1.828 1.773 1.555.6 2.346 1.351 2.346 2.7 0 1.418-1.05 2.646-3.219 2.646a4.749 4.749 0 0 1-2.347-.587zm6.844-3.369c0-.682-.013-1.241-.054-1.787h1.05l.055 1.064h.04a2.277 2.277 0 0 1 2.074-1.214 1.951 1.951 0 0 1 1.873 1.323h.027a2.718 2.718 0 0 1 .737-.859 2.246 2.246 0 0 1 1.459-.464c.873 0 2.169.573 2.169 2.865v3.887h-1.177V34.9c0-1.268-.463-2.032-1.432-2.032a1.555 1.555 0 0 0-1.419 1.091 2 2 0 0 0-.095.6v4.078H73.8v-3.959c0-1.05-.463-1.814-1.377-1.814a1.64 1.64 0 0 0-1.487 1.2 1.663 1.663 0 0 0-.1.587v3.983h-1.174zm15.027 4.815-.095-.832h-.041a2.462 2.462 0 0 1-2.019.982 1.881 1.881 0 0 1-2.019-1.9c0-1.6 1.418-2.469 3.97-2.455V34.3a1.361 1.361 0 0 0-1.5-1.527 3.282 3.282 0 0 0-1.719.491l-.272-.792a4.1 4.1 0 0 1 2.168-.586c2.019 0 2.51 1.378 2.51 2.7v2.469a9.268 9.268 0 0 0 .11 1.582zm-.177-3.369c-1.309-.027-2.8.2-2.8 1.487a1.062 1.062 0 0 0 1.136 1.148 1.642 1.642 0 0 0 1.6-1.1 1.239 1.239 0 0 0 .068-.381zm3.088-6.316h1.2v9.685h-1.2zm3.222 0h1.2v9.685h-1.2zm6.108 5.238c0-.846-.027-1.528-.054-2.155h1.077l.055 1.132h.027a2.6 2.6 0 0 1 2.347-1.282c1.595 0 2.8 1.35 2.8 3.356 0 2.373-1.446 3.546-3 3.546a2.318 2.318 0 0 1-2.033-1.036h-.027v3.587H96.93zm1.187 1.76a2.632 2.632 0 0 0 .055.491 1.852 1.852 0 0 0 1.8 1.405c1.269 0 2.005-1.037 2.005-2.551 0-1.323-.7-2.455-1.964-2.455a1.915 1.915 0 0 0-1.813 1.487 1.94 1.94 0 0 0-.082.491zm10.227 2.687-.1-.832h-.041a2.458 2.458 0 0 1-2.018.982 1.881 1.881 0 0 1-2.019-1.9c0-1.6 1.418-2.469 3.97-2.455V34.3a1.361 1.361 0 0 0-1.5-1.527 3.282 3.282 0 0 0-1.719.491l-.273-.792a4.1 4.1 0 0 1 2.169-.586c2.019 0 2.51 1.378 2.51 2.7v2.469a9.275 9.275 0 0 0 .109 1.582zm-.178-3.369c-1.309-.027-2.8.2-2.8 1.487A1.062 1.062 0 0 0 106.5 37.9a1.643 1.643 0 0 0 1.6-1.1 1.237 1.237 0 0 0 .067-.381zm3.093-1.173c0-.778-.014-1.446-.054-2.06h1.05l.041 1.3h.054a1.982 1.982 0 0 1 1.829-1.446 1.312 1.312 0 0 1 .341.041v1.132a1.826 1.826 0 0 0-.41-.041 1.683 1.683 0 0 0-1.609 1.542 3.391 3.391 0 0 0-.055.559v3.519h-1.187zm6.232-3.956v1.9h1.719v.914h-1.719v3.56c0 .819.232 1.283.9 1.283a2.666 2.666 0 0 0 .7-.082l.054.9a2.92 2.92 0 0 1-1.063.164 1.663 1.663 0 0 1-1.3-.505 2.446 2.446 0 0 1-.464-1.719v-3.6H115.3v-.914h1.023V30.45zm2.903 7.271a3.145 3.145 0 0 0 1.582.477c.873 0 1.283-.437 1.283-.982 0-.573-.341-.887-1.228-1.214-1.187-.423-1.746-1.078-1.746-1.869a2.036 2.036 0 0 1 2.278-1.937 3.3 3.3 0 0 1 1.623.409l-.3.873a2.564 2.564 0 0 0-1.35-.382c-.709 0-1.105.409-1.105.9 0 .545.4.791 1.255 1.118 1.145.437 1.732 1.01 1.732 1.991 0 1.16-.9 1.979-2.469 1.979a3.76 3.76 0 0 1-1.855-.451zm5.127.518a.807.807 0 0 1 .818-.86.861.861 0 1 1-.818.86zm6.039.709V29.44h1.3l2.947 4.652a25.908 25.908 0 0 1 1.65 2.987l.028-.014c-.109-1.227-.136-2.346-.136-3.778V29.44h1.118v9.194h-1.2l-2.92-4.665a29.126 29.126 0 0 1-1.719-3.07l-.04.014c.068 1.16.095 2.265.095 3.793v3.928zm14.906-3.356a3.227 3.227 0 0 1-3.288 3.506 3.138 3.138 0 0 1-3.164-3.4 3.223 3.223 0 0 1 3.273-3.506 3.127 3.127 0 0 1 3.179 3.4zm-5.239.069c0 1.445.832 2.537 2.006 2.537 1.146 0 2-1.078 2-2.565 0-1.118-.559-2.537-1.978-2.537s-2.028 1.31-2.028 2.565zm8.195-5.211v1.9h1.718v.914h-1.718v3.56c0 .819.232 1.283.9 1.283a2.666 2.666 0 0 0 .7-.082l.054.9a2.926 2.926 0 0 1-1.064.164 1.666 1.666 0 0 1-1.3-.505 2.446 2.446 0 0 1-.464-1.719v-3.6h-1.023v-.914h1.023V30.45zm6.078 8.498v-5.688h-.928v-.914h.928v-.314a3.113 3.113 0 0 1 .763-2.3 2.3 2.3 0 0 1 1.61-.614 2.793 2.793 0 0 1 1.023.191l-.163.927a1.8 1.8 0 0 0-.764-.149c-1.023 0-1.283.9-1.283 1.909v.355h1.6v.914h-1.6v5.688zm9.658-3.356a3.227 3.227 0 0 1-3.288 3.506 3.138 3.138 0 0 1-3.164-3.4 3.224 3.224 0 0 1 3.274-3.506 3.126 3.126 0 0 1 3.178 3.4zm-5.238.069c0 1.445.832 2.537 2.005 2.537 1.146 0 2.006-1.078 2.006-2.565 0-1.118-.56-2.537-1.978-2.537s-2.033 1.31-2.033 2.565zm6.748-1.255c0-.778-.013-1.446-.054-2.06h1.05l.041 1.3h.054a1.981 1.981 0 0 1 1.828-1.446 1.306 1.306 0 0 1 .341.041v1.132a1.81 1.81 0 0 0-.409-.041 1.683 1.683 0 0 0-1.609 1.542 3.286 3.286 0 0 0-.055.559v3.519h-1.187zm12.055 4.297a4.435 4.435 0 0 1-1.9.382 3.137 3.137 0 0 1-3.288-3.37 3.355 3.355 0 0 1 3.547-3.505 4.025 4.025 0 0 1 1.664.34l-.273.928a2.776 2.776 0 0 0-1.391-.314 2.285 2.285 0 0 0-2.333 2.5 2.264 2.264 0 0 0 2.292 2.469 3.394 3.394 0 0 0 1.473-.328zm1.402-9.44h1.2v4.12h.027a2.225 2.225 0 0 1 .859-.846 2.469 2.469 0 0 1 1.228-.341c.887 0 2.305.545 2.305 2.824v3.928h-1.2v-3.792c0-1.064-.4-1.965-1.528-1.965a1.724 1.724 0 0 0-1.609 1.2 1.44 1.44 0 0 0-.082.573v3.983h-1.2zm8.904 1.228a.744.744 0 0 1-1.487 0 .732.732 0 0 1 .75-.751.713.713 0 0 1 .737.751zm-1.337 8.457v-6.6h1.2v6.6zm3.19-9.685h1.2v9.685h-1.2zm8.918 0v7.98c0 .587.013 1.255.054 1.7h-1.077l-.055-1.146h-.022a2.442 2.442 0 0 1-2.251 1.3c-1.6 0-2.824-1.35-2.824-3.355-.013-2.2 1.351-3.547 2.96-3.547a2.207 2.207 0 0 1 1.992 1.009h.027v-3.941zm-1.2 5.77a2.122 2.122 0 0 0-.054-.505 1.767 1.767 0 0 0-1.733-1.391c-1.241 0-1.978 1.092-1.978 2.551 0 1.337.655 2.442 1.951 2.442a1.805 1.805 0 0 0 1.76-1.433 2.076 2.076 0 0 0 .054-.518zm3.189-.627c0-.778-.013-1.446-.054-2.06h1.05l.041 1.3h.054a1.982 1.982 0 0 1 1.828-1.446 1.306 1.306 0 0 1 .341.041v1.132a1.81 1.81 0 0 0-.409-.041 1.683 1.683 0 0 0-1.609 1.542 3.286 3.286 0 0 0-.055.559v3.519h-1.187zm4.991 1.459a2.115 2.115 0 0 0 2.264 2.292 4.338 4.338 0 0 0 1.828-.341l.2.859a5.345 5.345 0 0 1-2.2.41 3.066 3.066 0 0 1-3.247-3.329c0-1.991 1.173-3.56 3.1-3.56 2.156 0 2.729 1.9 2.729 3.11a4.429 4.429 0 0 1-.041.559zm3.519-.859a1.709 1.709 0 0 0-1.664-1.951 1.991 1.991 0 0 0-1.842 1.951zm2.643-.873c0-.682-.014-1.241-.054-1.787h1.064l.068 1.091h.027a2.427 2.427 0 0 1 2.182-1.241c.914 0 2.333.545 2.333 2.81v3.942h-1.2v-3.806c0-1.064-.4-1.951-1.528-1.951a1.707 1.707 0 0 0-1.61 1.228 1.744 1.744 0 0 0-.082.56v3.969h-1.2zm15.982 3.014c0 .683.013 1.283.054 1.8h-1.064l-.068-1.077h-.027a2.487 2.487 0 0 1-2.183 1.227c-1.037 0-2.278-.573-2.278-2.891v-3.86h1.2v3.656c0 1.255.382 2.1 1.474 2.1a1.735 1.735 0 0 0 1.582-1.092 1.756 1.756 0 0 0 .11-.614v-4.05h1.2zm1.987-3.014c0-.682-.013-1.241-.054-1.787h1.064l.069 1.091h.026a2.43 2.43 0 0 1 2.183-1.241c.914 0 2.333.545 2.333 2.81v3.942h-1.2v-3.806c0-1.064-.395-1.951-1.527-1.951a1.707 1.707 0 0 0-1.61 1.228 1.744 1.744 0 0 0-.082.56v3.969h-1.2zm13.27-4.87v7.98c0 .587.013 1.255.054 1.7h-1.077l-.055-1.146h-.027a2.442 2.442 0 0 1-2.251 1.3c-1.6 0-2.824-1.35-2.824-3.355-.013-2.2 1.35-3.547 2.96-3.547a2.207 2.207 0 0 1 1.992 1.009h.027v-3.941zm-1.2 5.77a2.122 2.122 0 0 0-.054-.505 1.767 1.767 0 0 0-1.733-1.391c-1.241 0-1.978 1.092-1.978 2.551 0 1.337.655 2.442 1.951 2.442a1.805 1.805 0 0 0 1.76-1.433 2.076 2.076 0 0 0 .054-.518zm3.855.832a2.116 2.116 0 0 0 2.265 2.292 4.342 4.342 0 0 0 1.828-.341l.2.859a5.347 5.347 0 0 1-2.2.41 3.066 3.066 0 0 1-3.246-3.329c0-1.991 1.173-3.56 3.1-3.56 2.156 0 2.728 1.9 2.728 3.11a4.429 4.429 0 0 1-.041.559zm3.52-.859a1.71 1.71 0 0 0-1.664-1.951 1.99 1.99 0 0 0-1.842 1.951zm2.644-.6c0-.778-.013-1.446-.054-2.06h1.05l.042 1.3h.054a1.98 1.98 0 0 1 1.828-1.446 1.312 1.312 0 0 1 .341.041v1.132a1.82 1.82 0 0 0-.41-.041 1.684 1.684 0 0 0-1.609 1.542 3.391 3.391 0 0 0-.055.559v3.519H253zm7.252 3.164a4 4 0 0 0 1.964.56c1.542 0 2.019-.983 2.006-1.719-.014-1.242-1.133-1.773-2.292-1.773h-.669v-.9h.669c.873 0 1.978-.45 1.978-1.5 0-.71-.451-1.337-1.556-1.337a3.255 3.255 0 0 0-1.773.586l-.314-.873a4.218 4.218 0 0 1 2.319-.682c1.746 0 2.538 1.037 2.538 2.115a2.2 2.2 0 0 1-1.637 2.087v.027a2.31 2.31 0 0 1 1.978 2.279c0 1.418-1.105 2.659-3.233 2.659a4.506 4.506 0 0 1-2.306-.6zm10.416-5.224 1.447 3.9c.15.437.313.955.422 1.351h.028c.122-.4.259-.9.423-1.378l1.309-3.874h1.269l-1.8 4.706c-.859 2.264-1.446 3.424-2.264 4.134a3.258 3.258 0 0 1-1.474.777l-.3-1.009a3.2 3.2 0 0 0 1.051-.587 3.632 3.632 0 0 0 1.009-1.337.856.856 0 0 0 .1-.286 1.061 1.061 0 0 0-.082-.314l-2.442-6.084zm5.985 2.06c0-.778-.013-1.446-.054-2.06h1.05l.041 1.3h.054a1.982 1.982 0 0 1 1.829-1.446 1.3 1.3 0 0 1 .34.041v1.132a1.81 1.81 0 0 0-.409-.041 1.683 1.683 0 0 0-1.609 1.542 3.391 3.391 0 0 0-.055.559v3.519h-1.187zm4.295 3.315a3.149 3.149 0 0 0 1.583.477c.873 0 1.282-.437 1.282-.982 0-.573-.341-.887-1.228-1.214-1.187-.423-1.746-1.078-1.746-1.869a2.037 2.037 0 0 1 2.278-1.937 3.3 3.3 0 0 1 1.624.409l-.3.873a2.564 2.564 0 0 0-1.35-.382c-.709 0-1.1.409-1.1.9 0 .545.4.791 1.255 1.118 1.146.437 1.733 1.01 1.733 1.991 0 1.16-.9 1.979-2.47 1.979a3.763 3.763 0 0 1-1.855-.451zm5.127.518a.807.807 0 0 1 .818-.86.861.861 0 1 1-.818.86zm-250.46-24.44a3.145 3.145 0 0 0 .271-1.011c.008-.09.014-.19.014-.3a2.865 2.865 0 0 0-1.137-2.313l-.01-.008a3.21 3.21 0 0 0-3.111-.333A2.7 2.7 0 0 0 30.1 11.9a.433.433 0 0 0 .693.381.919.919 0 0 1 1.124-.121.655.655 0 0 1 .255.514.545.545 0 0 1-.086.3 1.741 1.741 0 0 1-.974.511l-.218.064a8.081 8.081 0 0 0-4.025 2.853A8.008 8.008 0 1 0 41.292 21.2a7.85 7.85 0 0 0-5.677-7.715zm2.718 12.762a7.14 7.14 0 0 1-10.77-9.32 7.2 7.2 0 0 1 3.6-2.547l.016-.005.16-.046a2.484 2.484 0 0 0 1.461-.854 1.489 1.489 0 0 0-.335-1.987 1.554 1.554 0 0 0-1.313-.3 1.667 1.667 0 0 1 .848-.879 2.341 2.341 0 0 1 2.23.238 2.012 2.012 0 0 1 .8 1.62c0 .822-.225 1.293-1.272 1.937a4.2 4.2 0 0 1 1 .065l.028.009.051.01a6.973 6.973 0 0 1 5.587 7.012 7.089 7.089 0 0 1-2.091 5.047zm-7.446-12.69h.016z"/><path d="m32.723 18.953-1.989 3.366a.434.434 0 0 0 .374.655H34.3a.434.434 0 1 0 0-.868h-2.432l1.6-2.711a.436.436 0 0 0 .061-.221.435.435 0 0 0-.808-.221zm.14 5.322a4.658 4.658 0 0 0-3.217 1.23.434.434 0 0 0 .627.6 3.779 3.779 0 0 1 2.62-.964h.033a3.721 3.721 0 0 1 2.644.97.433.433 0 0 0 .613-.613 4.536 4.536 0 0 0-3.32-1.223z"/><circle cx="35.749" cy="19.493" r=".779"/><circle cx="29.906" cy="19.493" r=".779"/><path d="M14.831 29.616c1.4 0 2.582.881 2.582 3.612 0 2.792-1.181 3.673-2.582 3.673-1.381 0-2.561-.881-2.561-3.673 0-2.728 1.18-3.612 2.561-3.612zm0 6.114c1.161 0 1.161-1.711 1.161-2.5 0-.73 0-2.441-1.161-2.441-1.14 0-1.14 1.711-1.14 2.441 0 .789 0 2.5 1.14 2.5zm3.323-3.23h3.012v1.22h-3.012zm5.824.088c.61.05 1.491-.07 1.491-.871a.93.93 0 0 0-.991-.93c-.71 0-1.09.53-1.08 1.251h-1.351a2.333 2.333 0 0 1 2.421-2.422 2.16 2.16 0 0 1 2.351 1.941 1.392 1.392 0 0 1-.98 1.431v.02A1.566 1.566 0 0 1 27.08 34.6a2.378 2.378 0 0 1-2.6 2.3 2.375 2.375 0 0 1-2.6-2.552h1.351c.03.761.411 1.381 1.231 1.381a1.083 1.083 0 0 0 1.141-1.1c0-1.061-.931-1.041-1.621-1.041v-1z"/><path d="M40.851 9.736a21.587 21.587 0 1 0-30.528 30.529A21.587 21.587 0 1 0 40.851 9.736zM7.47 25a18.04 18.04 0 0 1 4.268-11.667l25.133 25.83A18.107 18.107 0 0 1 7.47 25zm31.9 11.751L14.217 10.907a18.107 18.107 0 0 1 25.148 25.845z" fill="#ed1c24"/></svg>