<svg viewBox="0 0 1850 1850" xmlns="http://www.w3.org/2000/svg" xml:space="preserve" style="fill-rule:evenodd;clip-rule:evenodd;stroke-linejoin:round;stroke-miterlimit:2"><path d="m925.898 1849.58-1.999-.001-6.165-174.028.003-.05 6.263-96.09-5.466-83.867.005-.068 5.46-80.113-6.8-99.77.004-.066L924 1211.242l-4.932-75.658.002-.051 4.928-131.463-1.128-30.06-3.706 29.85-6.398 131.513-11.407 74.891-2.204 104.602-15.344 98.764-1.458 80.436-12.644 83.008-2.028 96.363-21.303 172.795-1.991-.173 8.825-173.963 14.5-95.195 1.773-84.094 12.328-79.35 1.811-100.049 15.738-103.316 1.597-75.85 16.211-130.556 1.46-30.045-6.26 29.427-17.678 130.473-17.804 73.635L865.7 1311.2l-23.777 97.079-8.368 80.014-19.732 81.613-10.304 95.832-36.079 170.323-1.97-.344 23.748-172.56 22.63-93.596 8.997-83.63 19.103-77.995 10.405-99.524 24.56-101.578 8.112-75.435 27.375-128.673 4.038-29.813-8.765 28.775-28.83 128.474-24.067 71.83-20.09 102.68-32.034 94.674-15.215 78.999-26.675 79.614-18.505 94.593-50.586 166.592-1.933-.512 38.494-169.88 30.592-91.305 16.152-82.547 25.738-76.065 18.922-98.26 33.202-99.095 14.566-74.455 38.334-125.848 6.585-29.35-11.206 27.914-39.767 125.518-30.155 69.5-28.84 100.569-40.054 91.57-21.95 77.4-33.422 77.028-26.567 92.65-64.721 161.626-1.88-.676 52.954-165.942 38.327-88.335 23.19-80.855 32.181-73.57 27.299-96.27 41.596-95.87 20.914-72.932 49.011-122.086 9.084-28.675-13.566 26.85-50.41 121.634-36.015 66.646-37.38 97.72-47.78 87.79-28.52 75.224-39.919 73.867-34.433 90.025-78.376 155.464-1.816-.835 67.023-160.775 45.78-84.715 30.054-78.56 38.385-70.53 35.475-93.57 49.686-91.943 27.104-70.858 59.324-117.42 11.516-27.791-15.822 25.582-60.68 116.855-41.615 63.306-45.64 94.14-55.148 83.357-34.883 72.495-46.12 70.163-42.045 86.73-91.45 148.152-1.738-.988 80.597-154.419 52.893-80.464 36.696-75.688 44.306-66.97 43.387-90.17 57.403-87.328 33.098-68.272 69.2-111.887 13.861-26.696-17.961 24.126-70.503 111.206-46.9 59.494-53.566 89.87-62.111 78.31-40.985 69.224-51.982 65.94-49.344 82.794-103.849 139.743-1.646-1.133 93.574-146.92 59.613-75.62 43.066-72.251 49.9-62.913 50.978-86.109 64.7-82.071 38.842-65.172 78.563-105.526 16.104-25.404-19.975 22.5-79.796 104.726-51.84 55.242-61.094 84.934-68.613 72.68-46.784 65.445-57.455 61.223-56.282 78.25-115.476 130.297-1.543-1.27 105.857-138.332 65.897-70.22 49.115-68.277 55.123-58.39 58.192-81.409 71.515-76.206 44.3-61.59 87.339-98.376 18.233-23.931-21.828 20.692-88.51 97.485-56.396 50.579-68.17 79.37-74.604 66.51-52.24 61.184-62.51 56.061-62.797 73.119-126.249 119.889-1.428-1.4 117.357-128.719 71.685-64.29 54.807-63.809 59.94-53.437 64.973-76.102 77.802-69.777 49.43-57.553 95.478-90.51 20.218-22.27-23.528 18.74-96.561 89.515-60.54 45.547-74.736 73.212-80.048 59.851-57.304 56.466-67.094 50.478-68.853 67.452-136.088 108.591-1.302-1.515L350.847 1408.6l76.949-57.892 60.087-58.858 64.311-48.086 71.275-70.235 83.508-62.827 54.2-53.096 102.905-81.966 22.056-20.449-25.056 16.652-103.894 80.88-64.228 40.171-80.756 66.519-84.897 52.749-61.945 51.329-71.186 44.524-74.396 61.283-144.92 96.49-1.166-1.623 137.67-106.714 81.64-51.063 64.925-53.475 68.206-42.378 77.05-63.85 88.604-55.418 58.559-48.237 109.563-72.811 23.74-18.483-26.39 14.434-110.466 71.651-67.445 34.502-86.175 59.33-89.118 45.256-66.127 45.815-74.75 38.24-79.39 54.66-152.677 83.674-1.023-1.716 146.334-94.485 85.728-43.854 69.282-47.697 71.595-36.358 82.254-56.99 93.04-47.595 62.49-43.024 115.423-63.128 25.235-16.37-27.53 12.11-116.222 61.892-70.158 28.576-90.958 51.703-92.682 37.429-69.818 39.958-77.761 31.673-83.793 47.633-159.306 70.24-.87-1.799 153.915-81.554 89.18-36.324 73.125-41.563 74.455-30.068 86.85-49.709 96.789-39.422 65.955-37.492 120.425-52.973 26.547-14.139-28.474 9.7-121.106 51.67-72.36 22.44-95.062 43.69-95.553 29.324-72.998 33.81-80.196 24.87-87.578 40.254-164.754 56.285-.714-1.868 160.356-68.02 91.974-28.523 76.427-35.124 76.766-23.556 90.8-42.058 99.815-30.955 68.938-31.685 124.53-42.424 27.666-11.805-29.203 7.217-125.099 41.068-74.019 16.137-98.468 35.356-97.714 20.998-75.64 27.411-82.04 17.885-90.711 32.575-168.983 41.915-.55-1.92 165.61-53.987 94.081-20.509 79.167-28.424 78.51-16.873 94.076-34.093 102.109-22.26 71.404-25.642 127.714-31.56 28.581-9.383-29.713 4.679-128.168 30.162-75.134 9.713-101.141 26.762-99.162 12.52-77.712 20.808-83.272 10.765-93.177 24.657-171.96 27.232-.384-1.96 169.638-39.55 95.499-12.346 81.314-21.513 79.668-10.06 96.661-25.882 103.643-13.4 73.346-19.408 129.955-20.464 29.28-6.892-30.006 2.108-130.286 19.031-75.688 3.219-103.07 17.968-99.866 3.95-79.218 14.05-83.892 3.567-94.949 16.555-173.664 12.35-.214-1.988 172.41-24.818 96.202-4.09 82.868-14.445 80.241-3.174 98.525-17.477 104.412-4.44 74.741-13.03 131.231-9.217 29.768-4.35-30.074-.48-131.391 7.764-.052-.002-75.687-3.3-104.164 9.044-.066-.003-99.841-4.65-80.061 7.19-83.95-3.66-95.976 8.333-.05-.001L.246 945.389l-.042-1.998 173.854-9.908.05.002 96.203 4.194 83.73-7.27.067.003 80.214 3.736 99.6-8.946.066.003 104.405 4.552 75.536-6.559.052.001 131.542 2.1 30.025-1.775-29.924-3.064-131.62-3.566-75.12-9.793-104.559.055-99.137-13.224-80.383.281-.066-.009-83.258-10.854-96.336.052-.051-.005L1.882 865.816l.13-1.995 174.112 5.081 95.486 12.448 84.046-.045 79.662 10.627 99.999-.35.066.008 103.63 13.511 75.817-.04.051.004 130.873 13.398 30.07.814-29.551-5.625-130.825-14.868-74.002-16.215-104.24-8.946-97.564-21.683-80.179-6.644-82.023-17.973-96.028-8.24-171.06-32.406.301-1.975 173.031 20.03 94.059 20.61 83.807 7.194 78.393 17.422 99.72 8.262 102.084 22.368 75.592 6.486 129.235 24.6 29.889 3.396-28.96-8.145-129.06-26.059-72.335-22.518-103.085-17.874-95.344-29.99-79.306-13.512-80.169-24.956-94.97-16.465-167.64-46.99.47-1.944 170.669 34.83 91.94 28.621 82.877 14.373 76.598 24.094 98.647 16.804 99.784 31.061 74.753 12.961 126.641 35.618 29.487 5.952-28.146-10.601-126.348-37.059-70.13-28.651-101.168-26.671-92.411-38.075-77.853-20.28-77.727-31.755-93.201-24.568-162.982-61.228.635-1.895 167.043 49.372 89.14 36.418 81.334 21.444 74.245 30.59 96.836 25.222 96.743 39.524 73.364 19.34 123.116 46.373 28.862 8.465-27.138-12.986-122.69-47.78-67.405-34.574-98.501-35.269-88.796-45.879-75.822-26.896-74.71-38.32-90.745-32.489-157.114-75.012.795-1.834 162.182 63.549 85.68 43.947 79.189 28.355 71.342 36.86 94.308 33.453 92.988 47.695 71.428 25.574 118.667 56.784 28.034 10.916-25.917-15.268-118.131-58.152-64.186-40.241-95.104-43.606-84.525-53.343-73.226-33.314-71.139-44.6-87.616-40.17-150.085-88.242.95-1.757 156.117 77.255 81.586 51.15 76.457 35.058 67.908 42.856 91.085 41.436 88.544 55.513 68.966 31.62 113.35 66.776 26.987 13.283-24.514-17.443-112.689-68.088-60.489-45.61-91.002-51.619-79.625-60.41-70.094-39.487-67.042-50.552-83.838-47.551L151.29 417.666l1.098-1.67 148.898 90.39 76.886 57.974 73.161 41.501 63.975 48.536 87.182 49.112 83.444 62.917 65.992 37.433 107.185 76.269 25.752 15.558-22.92-19.482-106.423-77.528-56.344-50.64-86.229-59.252-74.138-67.032-66.438-45.366-62.447-56.126-79.442-54.584L197.73 353.031l1.237-1.57 140.577 102.857 71.62 64.369 69.32 47.636 59.563 53.854 82.64 56.427 77.728 69.859 62.53 42.965 100.235 85.203 24.314 17.712-21.157-21.378-99.366-86.391-51.781-55.295-80.817-66.446-68.102-73.158-62.292-50.909-57.393-61.288-74.453-61.21-122.576-123.64 1.367-1.458 131.215 114.56 65.818 70.285 64.972 53.421 54.714 58.777 77.482 63.32 71.436 76.283 58.603 48.182 92.541 93.506 22.7 19.735-19.248-23.127-91.565-94.605-46.837-59.543-74.805-73.147-61.56-78.741-57.685-56.075-51.912-65.995-68.916-67.384-111.493-133.72 1.488-1.335 120.88 125.416 59.533 75.684 60.138 58.808 49.46 63.263 71.752 69.747 64.612 82.14 54.245 53.042 84.155 101.109 20.926 21.62-17.186-24.692-83.097-102.131-41.545-63.35-68.24-79.305-54.562-83.74-52.653-60.828-46.045-70.213-62.869-73.06-99.586-142.81 1.598-1.2 109.651 135.342 52.807 80.522 54.86 63.76 43.838 67.28 65.49 75.657 57.311 87.39 49.487 57.509 75.153 107.972 18.989 23.336-14.997-26.07-74.014-108.903-35.947-66.69-61.167-84.875-47.163-88.122-47.228-65.128-39.838-73.91-56.356-78.194-86.94-150.842 1.694-1.06 97.611 144.268 45.69 84.763 49.176 68.24 37.891 70.8 58.744 81.006 49.585 91.991 44.36 61.552 65.597 114.04 16.908 24.875-12.7-27.266-64.377-114.858-30.08-69.531-53.646-89.822-39.412-91.849-41.454-68.948-33.338-77.061-49.425-82.75-73.652-157.757 1.78-.91 84.847 152.125 38.234 88.378 43.128 72.214 31.665 73.795 51.563 85.756 41.494 95.915 38.904 65.136 55.55 119.256 14.708 26.238-10.311-28.26-54.263-119.966-23.99-71.856-45.728-94.104-31.371-94.9-35.373-72.253-26.59-79.643-42.129-86.69L574.797 68.46l1.851-.754 71.456 158.855 30.494 91.337 36.76 75.655 25.204 76.242 44.002 89.874 33.096 99.129 33.16 68.237 45.091 123.586 12.399 27.408-7.843-29.042-43.75-124.185-17.725-73.654-37.468-97.686-23.097-97.243-29.031-75.028-19.646-81.635-34.52-89.991-45.54-168.041 1.91-.592 57.534 164.41 22.53 93.619 30.122 78.536 18.556 78.127 36.112 93.323 24.452 101.606 27.17 70.836 34.303 127.007 9.996 28.371-5.317-29.608-32.913-127.487-11.327-74.904-28.932-100.545-14.652-98.87-22.474-77.246-12.555-83.022-26.655-92.624-30.928-171.335 1.953-.426 43.19 168.748 14.397 95.21 23.258 80.833 11.771 79.433 27.956 96.082 15.627 103.333 20.981 72.909 23.256 129.483 7.52 29.126-2.751-29.952-21.831-129.847-4.847-75.6-20.181-102.66-6.098-99.765-15.75-78.891-5.371-83.79-18.596-94.577L805.023 7.416l1.982-.256 28.523 171.836 6.16 96.098 16.223 82.531 4.9 80.15 19.593 98.13 6.686 104.293 14.635 74.444 12.04 131.006 4.988 29.662-.167-30.082-10.59-131.184.002-.051 1.67-75.742-11.283-103.949.002-.066 2.5-99.918-8.912-79.888.001-.066 1.852-83.944-10.396-95.823L884.312.496l1.997-.085 13.647 173.602-.002.05-2.123 96.269 9.069 83.557-.002.066-2.008 80.276 11.087 99.383-2.307 104.55 8.182 75.424.732 131.553 2.42 29.986 2.42-29.986.733-131.664 8.175-75.315-2.306-104.532.008-.066 11.08-99.333-2.01-80.358.006-.066 9.061-83.476-2.124-96.31.004-.05L963.901.42l1.999.086-1.333 174.182-10.39 95.73 1.852 84.027-.007.066-8.903 79.806 2.502 99.969-.007.066-11.277 103.897 1.672 75.799-.005.051-10.58 131.13-.165 30.08 4.987-29.666 12.05-131.113 14.619-74.33 6.702-104.412 19.578-98.01 4.917-80.301 16.204-82.388 6.17-96.186 28.72-171.718 1.982.259-16.302 173.421-18.583 94.481-5.39 83.942-15.73 78.747-6.113 99.877-20.168 102.545-4.858 75.71-21.813 129.735-2.752 29.956 7.519-29.125 23.276-129.595 20.956-72.802 15.652-103.445 27.932-95.966 11.802-79.58 23.225-80.688 14.417-95.3 43.374-168.615 1.953.428-31.15 171.379-26.635 92.535-12.586 83.167-22.442 77.102-14.677 98.982-28.908 100.43-11.349 75.014-32.885 127.38-5.316 29.608 9.995-28.373 34.33-127.113 27.136-70.73 24.487-101.718 36.078-93.208 18.6-78.272 30.077-78.393 22.556-93.708 57.708-164.262 1.908.595-45.766 168.066-34.492 89.903-19.689 81.777-28.987 74.889-23.132 97.353-37.434 97.572-17.755 73.762-43.713 124.082-7.843 29.042 12.397-27.407 45.131-123.694 33.117-68.137 33.14-99.234 43.956-89.761 25.26-76.384 36.705-75.52 30.529-91.42 71.614-158.691 1.85.756-60.045 163.51-42.092 86.603-26.647 79.783-35.318 72.12-31.415 95.004-45.68 93.99-24.034 71.965-54.216 119.863-10.31 28.261 14.705-26.238 55.598-119.356 38.851-65.038 41.514-95.962.035-.057 51.51-85.651 31.733-73.929 43.06-72.082 38.274-88.46 84.991-151.948 1.779.912-73.879 157.743-49.382 82.667-33.405 77.195-41.386 68.815-39.467 91.953-53.593 89.718-30.129 69.63-64.324 114.763-12.698 27.265 16.908-24.88 65.652-114.132 44.298-61.456 49.65-92.092 58.68-80.905 37.971-70.928 49.098-68.115 45.737-84.842 97.74-144.08 1.693 1.062-87.166 150.81-56.306 78.115-39.918 74.037-47.148 65.004-47.225 88.219-61.108 84.779-36.003 66.783-73.95 108.806-14.996 26.074 18.987-23.336 75.218-108.064 49.416-57.42 57.382-87.483 65.422-75.564 43.926-67.399 54.77-63.641 52.862-80.596 109.763-135.144 1.595 1.203-99.806 142.757-62.813 72.986-46.135 70.331-52.56 60.709-54.635 83.835-68.17 79.212-41.61 63.44-83.027 102.044-17.186 24.692 20.921-21.616 84.23-101.2 54.172-52.961 64.688-82.226 71.676-69.66 49.557-63.373 60.038-58.697 59.595-75.754 120.975-125.208 1.486 1.336-111.71 133.648-68.854 67.317-52.01 66.106-57.585 55.965-61.64 78.828-74.724 73.057-46.911 59.63-91.493 94.53-19.244 23.12 22.697-19.73 92.624-93.59 58.523-48.11 71.519-76.36 77.397-63.239 54.823-58.88 64.86-53.317 65.887-70.351 131.29-114.345 1.366 1.459-122.786 123.55-74.385 61.149-57.5 61.39-62.184 50.808-68.188 73.237-80.73 66.362-51.862 55.377-99.286 86.32-21.154 21.376 24.32-17.717 100.315-85.27 62.441-42.9 77.82-69.93 82.546-56.351 59.681-53.95 69.205-47.545 71.69-64.426 140.633-102.635 1.237 1.57-132.952 112.539-79.369 54.527-62.563 56.219-66.322 45.276-74.23 67.103-86.135 59.178-56.432 50.712-106.327 77.457-22.925 19.487 25.745-15.555 107.281-76.339 65.9-37.373 83.541-62.98 87.087-49.047 64.097-48.618 73.037-41.421 76.963-58.024 148.936-90.166 1.096 1.672-142.135 100.692-83.76 47.502-67.166 50.633-69.969 39.406-79.723 60.474-90.902 51.552-60.585 45.675-112.601 68.036-24.508 17.44 26.981-13.282 113.455-66.837 68.87-31.57 88.643-55.564 90.979-41.38 68.04-42.928 76.33-34.99 81.664-51.193 156.135-77.028.949 1.76-150.264 88.1-87.532 40.126-71.272 44.672-73.098 33.246-84.625 53.396-94.997 43.547-64.287 40.299-118.037 58.105-25.913 15.267 28.03-10.916 118.772-56.832 71.327-25.532 93.095-47.74 94.2-33.405 71.478-36.92 79.054-28.3 85.763-43.982 162.18-63.322.793 1.835-157.281 74.857-90.658 32.452-74.848 38.38-75.685 26.839-88.903 45.924-98.392 35.22-67.51 34.622-122.588 47.74-27.133 12.985 28.87-8.468 123.21-46.409 73.257-19.307 96.855-39.56 96.724-25.184 74.386-30.638 81.193-21.397 89.228-36.45 167.023-49.145.633 1.896-163.134 61.06-93.113 24.539-77.87 31.804-77.71 20.233-92.524 38.111-101.056 26.633-70.236 28.69-126.232 37.023-28.155 10.606 29.488-5.954 126.748-35.648 74.644-12.937 99.898-31.087 98.53-16.775 76.746-24.132 82.73-14.338 92.033-28.644 170.628-34.605.468 1.944-167.779 46.81-94.88 16.443-80.313 24.992-79.163 13.478-95.456 30.016-102.973 17.847-72.44 22.545-128.95 26.036-28.96 8.147 29.888-3.398 129.344-24.619 75.484-6.473 102.197-22.384 99.607-8.244 78.538-17.444 83.657-7.174 94.152-20.625 172.974-19.808.298 1.975-171.183 32.214-95.94 8.227-82.165 17.995-80.03 6.623-97.683 21.7-104.12 8.928-74.115 16.235-130.718 14.855-29.548 5.626 30.07-.816 130.982-13.409 75.755.041 103.75-13.517 99.95.35 79.742-10.629 83.966.045 95.575-12.455 174.035-4.866.128 1.995-173.318 17.378-96.29-.052-83.411 10.865-80.298-.28-99.19 13.222-104.51-.056-75.23 9.803-131.507 3.563-29.926 3.065 30.025 1.772 131.603-2.104.052.005 75.48 6.553 104.45-4.554.068.006 99.548 8.94 80.296-3.74 83.716 7.269 96.245-4.195.05.003 173.808 10.112-.044 1.998-174.119 2.42-.05-.005-95.933-8.33-83.967 3.66-.066-.005-79.98-7.184-99.89 4.653-104.176-9.045-75.752 3.302-.05-.002-131.333-7.756-30.073.481 29.767 4.349 131.343 9.224 74.629 13.017 104.53 4.454 98.411 17.467 80.386 3.188 82.719 14.427 96.295 4.1 172.297 25.017-.216 1.987-173.733-12.567-94.858-16.545-84.04-3.583-79.064-14.032-99.987-3.963-102.955-17.957-75.798-3.229-130.174-19.015-30.008-2.107 29.274 6.89 130.072 20.484 73.236 19.385 103.758 13.423 96.544 25.86 79.816 10.086 81.173 21.485 95.585 12.363 169.509 39.735-.386 1.961-172.01-27.455-93.084-24.637-83.422-10.794-77.568-20.778-99.273-12.543-101.028-26.74-75.243-9.733-128.065-30.138-29.708-4.677 28.58 9.383 127.823 31.586 71.3 25.61 102.22 22.292 93.969 34.065 78.647 16.91 79.022 28.382 94.173 20.536 165.463 54.16-.552 1.92-169.012-42.14-90.626-32.55-82.18-17.924-75.49-27.366-97.833-21.034-98.354-35.326-74.129-16.165-124.994-41.034-29.201-7.215 27.67 11.806 124.632 42.457 68.835 31.644 99.923 30.998 90.685 42.013 76.911 23.612 76.29 35.07 92.058 28.554 160.196 68.184-.716 1.866-164.766-56.514-87.49-40.22-80.336-24.923-72.864-33.757-95.657-29.363-94.952-43.65-72.465-22.478-121-51.625-28.478-9.7 26.548 14.138 120.525 53.018 65.858 37.441 96.892 39.474 86.745 49.659 74.588 30.132 72.994 41.498 89.261 36.363 153.744 81.702-.874 1.798-159.297-70.469-83.71-47.59-77.897-31.738-69.685-39.894-92.786-37.48-90.851-51.65-70.26-28.624-116.12-61.84-27.534-12.11 25.238 16.37 115.519 63.182 62.394 42.963 93.14 47.658 82.15 56.928 71.728 36.436 69.154 47.619 85.808 43.901 146.149 94.617-1.025 1.715-152.65-83.9-79.308-54.61-74.88-38.316-66.002-45.74-89.217-45.316-86.074-59.27-67.54-34.558-110.371-71.59-26.394-14.433 23.735 18.476 109.662 72.88 58.47 48.168 88.699 55.488 76.954 63.782 68.328 42.465 64.806 53.388 81.714 51.115 137.474 106.83-1.168 1.622-144.872-96.714-74.32-61.227-71.308-44.611-61.824-51.241-84.993-52.82-80.66-66.45-64.32-40.235-103.811-80.815-25.052-16.647 22.063 20.454 102.987 82.031 54.113 53.018 83.598 62.906 71.186 70.16 64.426 48.182 59.974 58.76 77.02 57.952 127.781 118.253-1.304 1.514-136.021-108.808-68.782-67.39-67.21-50.576-57.19-56.368-80.137-59.928-74.648-73.138-60.624-45.616-96.475-89.436-23.533-18.743 20.22 22.27 95.557 90.585 49.356 57.476 77.882 69.858 64.89 76.02 60.046 53.542 54.703 63.7 71.75 64.357 117.145 128.8-1.43 1.397-126.165-120.1-62.733-73.052-62.614-56.167-52.135-61.076-74.687-66.595-68.084-79.283-56.479-50.66-88.434-97.403-21.829-20.691 18.229 23.923 87.417 98.466 44.233 61.505 71.587 76.296 58.114 81.314 55.221 58.507 49.025 68.17 65.953 70.284 105.637 138.393-1.544 1.269-115.372-130.5-56.22-78.172-57.555-61.344-46.692-65.332-68.684-72.769-61.018-84.842-51.914-55.328-79.734-104.646-19.97-22.492 16.107 25.408 78.627 105.612 38.783 65.08 64.762 82.166 50.911 86.013 49.986 63.035 42.983 72.13 59.665 75.695 93.35 146.962-1.647 1.132-103.727-139.936-49.292-82.718-52.067-66.061-40.902-69.103-62.177-78.406-53.496-89.772-46.968-59.587-70.438-111.106-17.966-24.131 13.863 26.696 69.257 111.98 33.043 68.172 57.461 87.432 43.326 90.065 44.383 67.103 36.625 75.561 52.937 80.541 80.37 154.443-1.738.986-91.313-148.333-41.999-86.648-46.197-70.296-34.813-72.368-55.202-83.454-45.583-94.042-41.67-63.401-60.627-116.751-15.825-25.585 11.516 27.788 59.375 117.521 27.062 70.763 49.731 92.045 35.426 93.462 38.448 70.665 29.99 78.42 45.822 84.803 66.796 160.78-1.817.833-78.225-155.634-34.397-89.945-39.979-74-28.46-75.085-47.829-87.899-37.328-97.608-36.066-66.752-50.368-121.535-13.565-26.847 9.085 28.676 49.052 122.19 20.878 72.823 41.635 95.983 27.26 96.16 32.232 73.71 23.139 80.712 38.36 88.424 52.727 165.927-1.882.674-64.555-161.783-26.538-92.566-33.47-77.166-21.9-77.254-40.094-91.684-28.801-100.46-30.193-69.601-39.735-125.414-11.207-27.914 6.586 29.348 38.367 125.956 14.54 74.35 33.218 99.14.012.066 18.893 98.147 25.776 76.208 16.114 82.404 30.617 91.394 38.269 169.845-1.933.509-50.409-166.734-18.481-94.503-26.714-79.756-15.178-78.854-32.063-94.79-20.059-102.564-24.099-71.94-28.805-128.363-8.766-28.775 4.04 29.813 27.395 128.78 8.094 75.32 24.58 101.7 10.385 99.41 19.13 78.14 8.97 83.479 22.648 93.691 23.527 172.506-1.97.34-35.89-170.45-10.29-95.743-19.757-81.757-8.344-79.863-23.797-97.199-11.167-103.91-17.824-73.743-17.663-130.36-6.261-29.426 1.461 30.04 16.225 130.668 1.589 75.74 15.747 103.434 1.8 99.934 12.342 79.495 1.761 83.947 14.51 95.286 8.61 173.89-1.992.17-21.104-172.903-2.02-96.272-12.658-83.156-1.446-80.285-15.354-98.883-2.192-104.486-11.42-75.002-6.391-131.404-3.708-29.849-1.127 30.062 4.935 131.523-.003.051-4.927 75.599 6.8 104.335-.004.066-6.797 99.72 5.466 80.195-.004.067-5.462 83.783 6.266 96.133-.001.05-6.37 173.986Zm-3.485-888.115 1.991.086.595 15.837.593-15.836 1.993-.086 1.952 15.721-.77-15.823 1.977-.257 3.298 15.502-2.127-15.704 1.947-.426 4.618 15.156-3.47-15.46 1.904-.591 5.905 14.706-4.787-15.107 1.847-.753 7.145 14.143-6.066-14.638 1.775-.909 8.337 13.48-7.304-14.065 1.69-1.058 9.467 12.715-8.489-13.389 1.593-1.2 10.517 11.847-9.6-12.6 1.483-1.332 11.5 10.9-10.65-11.732 1.362-1.454 12.4 9.876-11.624-10.776 1.233-1.567 13.195 8.769-12.502-9.733 1.094-1.666 13.906 7.604-13.296-8.624.946-1.754 14.505 6.38-13.986-7.448.792-1.83 15.005 5.11-14.58-6.22.634-1.89 15.383 3.801-15.055-4.942.466-1.938 15.646 2.463-15.417-3.628.3-1.97 15.809 1.109-15.681-2.291.129-1.99 15.84-.252-15.815-.935-.043-1.993 15.763-1.614-15.839.43-.215-1.983 15.569-2.964-15.745 1.79-.384-1.957 15.259-4.292-15.538 3.138-.55-1.916 14.836-5.589-15.213 4.462-.713-1.862 14.295-6.84-14.768 5.75-.87-1.793 13.646-8.04-14.21 6.995-1.021-1.712 12.911-9.188-13.561 8.195-1.165-1.618 12.079-10.269-12.815 9.335-1.3-1.512 11.14-11.258-11.951 10.393-1.425-1.395 10.138-12.18-11.022 11.386-1.539-1.267 9.055-13.01-10.004 12.295-1.642-1.13 7.899-13.734-8.905 13.104-1.734-.985 6.689-14.362-7.746 13.821-1.812-.832 5.432-14.89-6.531 14.44-1.877-.673 4.132-15.3-5.267 14.948-1.927-.509 2.801-15.599-3.961 15.345-1.964-.342 1.45-15.78-2.627 15.627-1.987-.172.088-15.846-1.274 15.796h-1.994l-1.275-15.797.088 15.847-1.986.172-2.628-15.625 1.45 15.777-1.963.341-3.962-15.342 2.801 15.596-1.927.51-5.267-14.946 4.132 15.298-1.877.673-6.532-14.438 5.432 14.887-1.811.832-7.748-13.823 6.69 14.364-1.734.984-8.906-13.104 7.9 13.733-1.643 1.13-10.004-12.296 9.055 13.01-1.539 1.267-11.028-11.393 10.144 12.187-1.425 1.394-11.957-10.394 11.145 11.26-1.3 1.512-12.808-9.33 12.073 10.263-1.165 1.617-13.569-8.197 12.917 9.191-1.022 1.712-14.216-6.998 13.652 8.043-.87 1.793-14.771-5.75 14.298 6.84-.713 1.862-15.204-4.459 14.827 5.585-.55 1.916-15.535-3.136 15.256 4.29-.383 1.957-15.747-1.788 15.568 2.963-.215 1.982-15.839-.429 15.763 1.614-.043 1.993-15.816.934 15.842.253.128 1.99-15.68 2.29 15.807-1.109.3 1.97-15.425 3.63 15.652-2.464.468 1.939-15.056 4.943 15.384-3.802.632 1.89-14.576 6.22 15-5.11.793 1.83-13.982 7.446 14.5-6.378.947 1.754-13.292 8.623 13.9-7.603 1.094 1.666-12.508 9.74 13.202-8.775 1.233 1.566-11.618 10.772 12.393-9.872 1.363 1.455-10.647 11.728 11.496-10.898 1.483 1.332-9.608 12.61 10.526-11.854 1.592 1.2-8.483 13.382 9.461-12.709 1.69 1.058-7.303 14.064 8.335-13.478 1.774.91-6.066 14.64 7.146-14.146 1.846.753-4.785 15.106 5.903-14.703 1.904.59-3.469 15.46 4.617-15.155 1.947.424-2.127 15.71 3.298-15.506 1.977.257-.77 15.826 1.953-15.724Z" style="fill:#4ec9f5;fill-rule:nonzero"/></svg>