<svg xmlns="http://www.w3.org/2000/svg" viewBox="0 0 630 286"><path fill="#83d8ff" d="M0 0h630v286H0z"/><path d="M577.29 175.73a28.72 28.72 0 0 0-7.13.89 16.19 16.19 0 0 0-.47-2.22l.14-.1a9.43 9.43 0 0 0 .9-.66l.17-.14c.3-.26.58-.52.85-.8a12.17 12.17 0 0 0 .8-1l.07-.09 10.55-14.11v-.08c.14-.19.27-.38.4-.58l.09-.14c.15-.24.29-.48.42-.73.05-.09.09-.18.13-.27l.24-.5c0-.11.08-.22.13-.33s.12-.31.17-.47.08-.23.11-.34.1-.32.14-.49.06-.22.08-.33.08-.35.11-.53 0-.2.05-.3.06-.42.08-.64a1.49 1.49 0 0 1 0-.21v-38.22a11.29 11.29 0 0 0-7.65-10.7l-1.29-.44 4.08-5.46a11.14 11.14 0 0 0 .7-1l.12-.23a9.23 9.23 0 0 0 .42-.83c.06-.11.1-.22.15-.33s.2-.51.29-.76l.12-.39c.07-.25.14-.51.19-.76l.09-.39c.05-.3.09-.6.13-.9a2.13 2.13 0 0 1 0-.25 11.43 11.43 0 0 0 0-1.17v-.29a8.47 8.47 0 0 0-.07-.88l-.06-.38a7.91 7.91 0 0 0-.16-.82 1.29 1.29 0 0 0 0-.19v-.18c-.08-.27-.17-.55-.26-.82l-.12-.32c-.12-.3-.25-.59-.39-.88 0-.07-.06-.14-.1-.2a8.32 8.32 0 0 0-.61-1 .83.83 0 0 1-.08-.12c-.18-.26-.36-.52-.57-.77l-.09-.1c-10.64-13-23.62-21.87-38.58-26.23-15.93-4.63-30.87-2.55-42.07 5.85-.42.32-.82.65-1.22 1v-7.52a11.33 11.33 0 0 0-8.88-11.05c-9-2-18.09-3.82-27.13-5.49-.13 0-.26 0-.39-.05l-.59-.08H460a6.33 6.33 0 0 0-.76.05h-.52l-.76.14-.49.1-.76.23c-.15.05-.3.09-.45.15s-.52.22-.78.34-.26.1-.38.17c-.31.16-.62.34-.92.53L454 41a12 12 0 0 0-1 .75c-.09.07-.16.16-.24.23-.24.21-.48.42-.7.65l-.27.32c-.19.21-.38.43-.56.66l-.05.06-3.7 5Q444 43.82 440.57 39a11.25 11.25 0 0 0-7.51-4.55C424.51 33.22 406 31 405.83 31s-36.89-3.39-37-3.38-22.24-1.31-32.45-1.58h-.79a10.89 10.89 0 0 0-1.28.14h-.2a9.63 9.63 0 0 0-1.18.28l-.24.07c-.38.12-.75.26-1.11.41l-.24.11c-.36.17-.71.35-1 .55l-.21.13c-.34.22-.68.45-1 .7l-.14.12a11.25 11.25 0 0 0-1 .87l-.05.05q-.45.48-.87 1v.05l-5.73 7.68-3.43-6.47a11.33 11.33 0 0 0-10-6h-.1c-10.32.09-60.69 2.84-69.78 3.79l-.3.05a9.6 9.6 0 0 0-1 .17l-.47.11a10.37 10.37 0 0 0-1 .31l-.35.12a11.78 11.78 0 0 0-1.24.6l-.27.16a10.55 10.55 0 0 0-.89.59l-.37.28c-.25.2-.49.41-.72.62l-.34.33q-.36.38-.69.78a3.11 3.11 0 0 0-.23.28l-.07.08-10.54 14.2a9.54 9.54 0 0 0-.67 1l-.14.25a9.27 9.27 0 0 0-.63 1.31c-5.63 13.91-11.26 27.89-16.84 41.83-7.73 1.17-15.49 2.44-23.22 3.83V52.36a11.3 11.3 0 0 0-13.51-11.09 798.92 798.92 0 0 0-27.3 5.89l-.82.23c-.38.12-.75.26-1.1.41l-.19.09a9.33 9.33 0 0 0-.83.43l-.26.15c-.27.16-.52.33-.77.5l-.19.14a9.77 9.77 0 0 0-.87.72c-.06 0-.11.11-.17.17-.22.21-.43.42-.63.65l-.12.13-5.77 6.7c-6.93-2.43-16.73-3.24-30.26.69C83.16 61.7 71 65.54 59.14 69.61a2.68 2.68 0 0 0-.3.12l-.3.11c-.32.13-.64.27-.95.43h-.06c-.34.18-.66.38-1 .58l-.22.16q-.39.27-.75.57l-.17.13a9.7 9.7 0 0 0-.8.77l-.17.18q-.31.34-.6.72a1.27 1.27 0 0 0-.11.13L43.19 87.66a.16.16 0 0 0 0 .07 9.24 9.24 0 0 0-.65 1l-.12.21a10 10 0 0 0-.46.93 1.3 1.3 0 0 0-.08.17 11.14 11.14 0 0 0-.4 1.1 2.17 2.17 0 0 1-.07.24c-.09.33-.17.67-.23 1v.18c-.06.38-.1.76-.13 1.15A2.72 2.72 0 0 0 41 94v81.29a11.32 11.32 0 0 0 15 10.7c8.58-2.94 17.33-5.77 26-8.41l.35-.12.3-.11a10.07 10.07 0 0 0 1.07-.45c.35-.17.68-.37 1-.57l.26-.17c.29-.19.56-.4.83-.61l.12-.1a10.59 10.59 0 0 0 .85-.79l.21-.22a8.41 8.41 0 0 0 .72-.86v-.05l10.55-14.12a8.23 8.23 0 0 0 .53-.78 2.54 2.54 0 0 0 .16-.28c.11-.18.21-.35.3-.53s.12-.25.18-.38.15-.31.21-.47.11-.27.16-.41.11-.31.16-.47a3.31 3.31 0 0 0 .12-.42c0-.16.09-.32.13-.48l.09-.43c0-.17 0-.33.08-.5s0-.29.05-.43 0-.33 0-.5v-3.82a69.58 69.58 0 0 0 12.86-7.17q2.42-1.61 4.6-3.28v12.73c-9.67 8.77-21.12 22.33-27 40.71a63 63 0 0 0-2.25 8.74c-.36 1.81-.68 3.64-.93 5.53a11.24 11.24 0 0 0 0 2.9c0 .71-.06 1.41-.06 2.12v.21c0 14.52 5.42 26.89 15.26 34.82 7.51 6 17.29 9.22 27.91 9.22a57.08 57.08 0 0 0 12.1-1.32 71.12 71.12 0 0 0 18.08-6.4 59.7 59.7 0 0 0 8.51-4.83 11.31 11.31 0 0 0 7.31 2.69 11.08 11.08 0 0 0 1.9-.16c9.47-1.62 19.1-3.08 28.61-4.35l.32-.07c.34 0 .68-.12 1-.2l.51-.15c.29-.09.58-.19.87-.31l.48-.2c.29-.14.57-.28.85-.44l.42-.23c.3-.19.6-.41.89-.63l.28-.2a12.29 12.29 0 0 0 1.07-1l.05-.07a12.57 12.57 0 0 0 .82-1l6-8.11c3.46-.4 6.91-.78 10.37-1.14l1.12 2.72a11.31 11.31 0 0 0 11.43 7c9.71-.83 19.55-1.5 29.27-2h.34c.12 0 .49 0 .74-.08l.58-.1a10.45 10.45 0 0 0 1.68.06c8.95-.4 18-.65 27-.74.36 0 .72 0 1.07-.07h.25c.37 0 .73-.11 1.09-.19h.06a11.83 11.83 0 0 0 1.16-.34l.15-.05a11.84 11.84 0 0 0 2.14-1.06l.2-.13a10.41 10.41 0 0 0 .92-.68l.15-.12c.26-.23.52-.47.77-.72l.14-.15c.27-.29.53-.59.77-.9l.06-.08 1.66-2.22c.39.58.78 1.16 1.16 1.75a11.31 11.31 0 0 0 9.25 5.06c10.22.16 54.52 2.69 64.4 3.66 3.68.37 7.22.56 10.6.56h1.85a60.45 60.45 0 0 0 16.37-2.2 48 48 0 0 0 14.43-6.33c11.46 11.27 27.3 19.34 46 23.36a70.26 70.26 0 0 0 14.85 1.72c8.09 0 14.14-1.77 18.58-4.07 12.5-5.72 19.69-16.58 23.22-26.18a17.16 17.16 0 0 0 8.07-.17 11.17 11.17 0 0 0 5 1.17h11.39a11.25 11.25 0 0 0 6.25-1.88 28 28 0 0 0 11.77 2.54c15 0 26.77-11.28 26.77-25.67v-.1c.03-14.29-11.73-25.56-26.68-25.56z" fill="#fff"/><path d="M52.25 94.43q17.69-6.06 35.58-11.27c21.12-6.13 35.71.11 35.7 19.25v.23c0 19.55-14.81 33.34-36.27 39.59-2.88.84-5.75 1.69-8.62 2.57v21.94q-13.24 4-26.39 8.53zm33.53 28.94c6.81-2 11.37-6.36 11.37-12.14V111c0-5.89-4.22-7.74-11.25-5.68l-7.26 2.17v18c2.36-.7 4.76-1.42 7.14-2.12z" fill="#0072bc"/><path d="M133.47 93.4s-3.33 35.07-46.21 48.83c0 0-2.17-24.4-1.48-24.17s47.69-24.66 47.69-24.66zm-50.48 52.35 6.2 6.87-10.55 14.12-9.61-4.71 4.89-14.42 9.07-1.86zM52.25 94.42 62.8 80.31l9.03 10.3-2.33 17.68-12.33 2.1-4.92-15.97z" fill="#0072bc"/><path d="M129.27 70.43c9-2.12 17.83-4 26.92-5.82v59.61q19-3.77 38.09-6.59v23.09q-32.68 4.86-65 12.41zM228.62 55q13.51-1.41 27.08-2.36 17.24 39.49 34.51 79.74-14.86.39-29.72 1.35l-4.32-10.56q-14.33 1-28.6 2.5l-4.2 11.33q-14.56 1.62-29.09 3.77Q211.41 97.48 228.62 55zm20.77 49.5q-3.73-9.52-7.47-19l-7.47 20.32q7.47-.77 14.94-1.35z" fill="#0072bc"/><path fill="#0072bc" d="m235.37 62.7-6.75-7.73 10.54-14.11 6.44 6.48-10.23 15.36zm65.38 55.53-10.54 14.12-14.14-7.31 1.87-13.03 22.81 6.22zm-66.83 4.61-10.55 14.11-9.17-7.02 2.55-13.26 13.5-.47 3.67 6.64z"/><path d="M297.56 103.44q-15.46-26-30.9-51.34 15.31-.72 30.66-.85 7 13.22 14.05 26.56 7.08-13.23 14.17-26.32 15.15.4 30.3 1.38Q340.41 77.8 325 103.33v29q-13.69-.36-27.39-.24z" fill="#0072bc"/><path fill="#0072bc" d="m284 41.29-7.78-3.3-10.55 14.11 16.47 13.39 11.63-14.43-9.77-9.77zm44.72 20.48-3.18-10.28 10.54-14.11 6.37 12.52-13.73 11.87zm0 49.31 6.78 7.12-10.55 14.12-8.79-9.14 4.19-11.86 8.37-.24zm29.79-58.01q13.68.93 27.32 2.33v80.84q-13.65-1.4-27.32-2.33z"/><path fill="#0072bc" d="m363.35 60.84-4.84-7.77 10.55-14.11 11.73 14.43-17.44 7.45zm29.08 54.9 3.95 6.39-10.55 14.11-8.99-11.66 5.35-11.87 10.24 3.03z"/><path d="M395.39 56.44q12.75 1.47 25.47 3.34 14.46 20 28.86 40.48V64.57q13.41 2.49 26.75 5.42v80.84q-12-2.62-24-4.9-15-21.48-30.12-42.39v37.31q-13.47-2-27-3.57z" fill="#0072bc"/><path fill="#0072bc" d="m414.29 51.76-8.35-9.43-20.11 13.07 15.2 21.95 17.91-14.19-4.65-11.4zm40.95 19.08-5.52-6.27 10.54-14.11 12.89 16.89-17.91 3.49zm-27.69 43.97c.47.93 5.37 11.92 5.37 11.92l-10.55 14.12-9.94-11.39 5.12-16.28zm52.58 10.46 6.89 11.45-10.55 14.11-12.39-10.43 6.98-15.82 9.07.69zm3.69-12.97v-.23c0-24.1 19-38 44.09-30.67 13.62 4 24.56 12.14 33.1 22.65q-7.37 6.65-14.76 13.41c-5.19-6.15-11-10.46-17.55-12.39-10.33-3-17.87 3.1-17.86 14.06v.23c0 11.45 7.87 21.35 19 24.62 4.53 1.33 7 1.4 9.06.87v-8.08q-6.79-2.09-13.61-4V115.4q19.26 5.53 38.3 12v37.42c-8.53 4.24-20.47 5.28-34.89 1.06-24.7-7.19-44.88-28.49-44.88-53.58z"/><path d="M512.7 67.81s-22.8 9.31-27.7 37.46l9.77 2.79 17.93-21.64zm18.37 54.67c-.69-.7-5.78-7.08-5.78-7.08l10.55-14.11 10.59 14s-2.79 10.93-3.49 10.7-11.87-3.51-11.87-3.51zm36.29 19.31 6.78 8.97-10.55 14.11-10.88-5.87 4.42-13.49 10.23-3.72zm-3.02-55.13 7.22 3.28-10.55 14.11-10.16-.41 1.16-13.26 12.33-3.72zM99.1 212v-.23c0-24.11 18.54-47.43 42.59-52.64 17.72-3.83 29.77 2.77 36.6 13.95q-11.17 8.41-22.31 17.15c-3-5.17-7.27-8.37-14.64-6.77-9.09 2-15 11.4-15 21.1v.23c0 10.51 6.18 16.4 15 14.47 7.6-1.65 11.87-6.65 15.21-13.32q11.14 4.1 22.32 8.51c-6.83 13.19-18.2 24.87-38.22 29.21-22.32 4.83-41.56-6.61-41.55-31.66z" fill="#0072bc"/><path d="M139.68 149.55S104 169.4 99 208.17l10.55 2.48 25.12-35.36zm41.56 6.2 7.6 3.2-10.55 14.11-12.87-5.53 15.82-11.78zm-3.41 49.32 11.59-4.76s-12.52 32.36-39.51 40.12l3.72-18.92zM211 148.36q13.5-1.71 27-3 17.22 39.1 34.47 79-14.85.74-29.68 2l-4.32-10.47q-14.3 1.32-28.56 3.14-2.09 5.7-4.18 11.41-14.55 1.93-29 4.41 17.15-43.6 34.27-86.49zm20.74 49-7.46-18.84q-3.73 10.22-7.46 20.48 7.5-.85 14.96-1.61zM276 143.38q20-.9 40-.8c14.52.09 23.77 4 29.5 9.93 4.91 5.06 7.49 11.21 7.49 19.52v.24c0 11.78-6.2 19.62-16.15 24q9.54 14 19.07 28.31-15.61-.85-31.25-1.11-7.72-11.67-15.45-23.19h-5.84v23.1q-13.69.14-27.38.76zM315.16 181c6.56 0 10.54-2.77 10.54-7.74v-.23c0-5.19-4.1-7.82-10.42-7.85h-11.95V181h11.83zm44.47-37q15.67.93 31.3 2.48c32.43 3.33 48.51 22.24 48.51 46v.23c0 24-16.43 37.83-49.44 34.48q-15.17-1.48-30.37-2.4zm31.89 59.82C404 205.07 412 201.06 412 189.39v-.23c0-11.65-8-17.81-20.51-19.06l-4.55-.44v33.72z" fill="#0072bc"/><path d="M447.68 193s-10.55 36.29-48.7 34.74l3.1-23zm-66.69-53.07-10.81-10.05L359.63 144l6.78 16.71 14.58-20.78z" fill="#0072bc"/><path d="M439 221.43q7.25-7.44 14.48-14.75a60 60 0 0 0 28.27 15.07c4.83 1.05 6.9.26 6.9-1.93v-.23c0-2.3-2.53-4.19-11.16-7.76-18.08-7.53-34.09-15.31-34.09-32.41v-.23c0-15.31 12.08-25.43 34.32-20.78 15.54 3.3 27 9.85 36.24 19.64q-6.51 7.42-13 15c-7.56-7.39-16.64-11.87-24.12-13.44-4-.84-5.88.18-5.88 2.14v.25c0 2.2 2.19 4 10.71 7.44 20.6 8.29 34.27 18.07 34.27 34.32v.23c0 17-13.78 23.58-35.42 18.91-16.4-3.58-31.22-10.81-41.52-21.47z" fill="#0072bc"/><path d="M526.15 213.13s-3.1 29.16-31.32 31l1.86-16.75zm-10.85-51.18 9.19 1.98-10.55 14.12-14.15 5.92 15.51-22.02zm-68.86 61.73-7.46-2.25 10.55-14.12 13.35-.38-5.27 14.89-11.17 1.86zm-3.06-44.49s-.66-27.47 27.25-35.23l-5 20.78-18 22zm-225.54-19.41-6.8-11.42 10.55-14.12 7.42 9.72-11.17 15.82zm53.04 44.05 12.22 6.43-10.55 14.11-14.39-4.72 2.48-17.68 10.24 1.86zm-57.38 3.72 2.85 8.79-10.54 14.12-10.3-5.85 7.44-17.06h10.55zm67.62-56.14-5.17-8.03 10.54-14.12 9.2 6.64-7.13 21.09-7.44-5.58zm70.4 51.8 14.92 7.29-10.55 14.12-21.11-7.77 3.1-16.44 13.64 2.8zM309 200.32l4.92 9-10.55 14.12s-9.5-3.82-9.5-4.75 5-20.16 5-20.16zm54.34-40.22s1.85 11.94-16.15 28.59l-7.4-9.59zM146 65.49c-.69-.23-6.22-7.31-6.22-7.31l-10.51 12.25 13.28 13zm53.77 53.97 5.06 7.15-10.55 14.11-11.26-7.54 1.4-10 15.35-3.72zM81.13 102.01l26.99-5.12-3.96 15.59-27.68 9.07 4.65-19.54z" fill="#0072bc"/><path d="M62.8 80.31q17.69-6.06 35.57-11.26c21.13-6.14 35.72.11 35.71 19.24v.24c0 19.55-14.82 33.33-36.28 39.58q-4.3 1.26-8.61 2.57v21.94q-13.25 4-26.39 8.53zm33.53 29c6.81-2 11.37-6.37 11.36-12.15v-.23c0-5.88-4.21-7.74-11.25-5.67q-3.63 1.07-7.25 2.17v18q3.57-1.12 7.14-2.17zm43.48-51.13q13.42-3.15 26.93-5.82v57.74q19-3.75 38.09-6.59v23.1q-32.69 4.85-65 12.41zm99.35-17.32q13.53-1.43 27.09-2.37 17.24 39.49 34.5 79.74-14.87.4-29.71 1.36-2.16-5.3-4.33-10.57-14.31 1-28.6 2.51-2.1 5.64-4.19 11.31-14.56 1.62-29.09 3.77Q222 83.37 239.16 40.86zm20.78 49.49q-3.74-9.52-7.48-19-3.73 10.13-7.46 20.31 7.46-.72 14.94-1.31zm48.16-1.02q-15.45-26-30.9-51.34 15.33-.72 30.67-.86 7 13.21 14.05 26.56 7.08-13.21 14.16-26.31 15.17.4 30.3 1.37Q351 63.7 335.5 89.22v29q-13.69-.35-27.4-.23zM369.06 39q13.67.93 27.32 2.33v80.84q-13.65-1.41-27.32-2.33zm36.88 3.33q12.75 1.45 25.47 3.34 14.46 20 28.85 40.47V50.46q13.41 2.48 26.76 5.42v80.84q-12-2.64-24-4.9-15-21.5-30.12-42.39v37.3q-13.47-2-27-3.56zm88.43 55.86V98c0-24.11 19-38 44.08-30.68 13.63 4 24.56 12.15 33.11 22.66q-7.37 6.63-14.76 13.41c-5.2-6.15-11-10.47-17.55-12.39-10.33-3-17.87 3.09-17.87 14.06v.23c0 11.44 7.88 21.35 19 24.61 4.54 1.34 7 1.41 9.07.88v-8.09q-6.8-2.09-13.61-4v-17.4q19.26 5.53 38.3 12v37.42c-8.53 4.24-20.48 5.27-34.89 1.06-24.75-7.2-44.89-28.5-44.88-53.58zm-384.73 99.67v-.23c0-24.11 18.54-47.42 42.6-52.63 17.76-3.84 29.76 2.76 36.6 14q-11.19 8.42-22.32 17.15c-3-5.18-7.27-8.38-14.63-6.78-9.09 2-15 11.41-15 21.1v.23c0 10.52 6.19 16.4 15 14.47 7.59-1.64 11.86-6.65 15.21-13.32q11.13 4.09 22.32 8.51c-6.83 13.19-18.2 24.88-38.22 29.22-22.33 4.79-41.56-6.65-41.56-31.72zm111.95-63.62q13.5-1.71 27-3 17.21 39.12 34.47 79-14.85.74-29.69 2c-1.44-3.49-2.88-7-4.32-10.47q-14.29 1.3-28.55 3.14l-4.19 11.4q-14.53 1.95-29 4.42 17.1-43.6 34.28-86.49zm20.74 49-7.46-18.85q-3.74 10.23-7.46 20.49 7.46-.88 14.92-1.6zm44.16-53.98q20-.9 40-.79c14.52.08 23.76 4 29.5 9.93 4.91 5.06 7.48 11.21 7.48 19.52v.23c0 11.79-6.2 19.63-16.14 24q9.54 14 19.07 28.3-15.62-.85-31.25-1.1-7.72-11.67-15.45-23.2h-5.86v23.1q-13.69.15-27.39.76zm39.22 37.66c6.55 0 10.53-2.77 10.53-7.74V159c0-5.2-4.09-7.82-10.42-7.85h-11.94V167c3.94-.09 7.89-.1 11.83-.08zm44.47-37.04q15.66.93 31.3 2.48c32.43 3.33 48.5 22.25 48.51 46v.23c0 24-16.43 37.83-49.44 34.48q-15.17-1.49-30.37-2.39zm31.88 59.82c12.49 1.26 20.51-2.75 20.51-14.43V175c0-11.65-8-17.81-20.51-19.06l-4.55-.44v33.72zm47.47 17.61q7.25-7.44 14.47-14.74a60 60 0 0 0 28.27 15.07c4.84 1.05 6.9.26 6.9-1.94v-.23c0-2.3-2.52-4.18-11.16-7.75-18.07-7.54-34.08-15.32-34.08-32.42v-.23c0-15.31 12.08-25.43 34.31-20.77 15.55 3.3 27 9.84 36.25 19.63q-6.51 7.44-13 15c-7.56-7.39-16.64-11.87-24.13-13.43-4-.85-5.87.17-5.87 2.13v.24c0 2.2 2.19 4 10.71 7.44 20.59 8.29 34.27 18.07 34.27 34.32v.23c0 17-13.79 23.58-35.42 18.9-16.38-3.56-31.2-10.76-41.52-21.45z" fill="#d0c82a" stroke="#fff" stroke-miterlimit="10" stroke-width="1.861"/><path d="M547.78 187.69h11.39v27.4h-11.39zm14.05 13.8v-.1c0-7.73 6.43-14.35 15.46-14.35s15.36 6.52 15.36 14.25v.1c0 7.73-6.43 14.35-15.46 14.35s-15.36-6.52-15.36-14.25zm19.88 0v-.1a4.68 4.68 0 0 0-4.52-4.87 4.54 4.54 0 0 0-4.42 4.77v.1a4.68 4.68 0 0 0 4.52 4.87 4.54 4.54 0 0 0 4.42-4.77z" fill="#0072bc"/><circle cx="538.43" cy="208.13" r="6.36" fill="#0072bc"/><circle cx="552.71" cy="179.23" r="6.36" fill="#0072bc"/></svg>