<svg xmlns="http://www.w3.org/2000/svg" viewBox="0 0 90 90"><path fill="#494949" d="m45 67.81 3.77 3.87 1.95-1.82-2.99-2.84V22.1l5.7 1.07L45 13.15l-8.43 10.02 5.7-1.07v44.92l-2.99 2.84 1.95 1.82L45 67.81z"/><path d="M43.06 31.46A9.67 9.67 0 0 1 45 45a9.67 9.67 0 0 0 2.3-19.21 19.33 19.33 0 0 0-17.76 7.58 9.67 9.67 0 0 1 13.52-1.91z" fill="#52bbae"/><path d="M32.3 39.91A9.67 9.67 0 0 1 45 45a9.67 9.67 0 0 0-15.49-11.6 19.33 19.33 0 0 0-2.31 19.17 9.67 9.67 0 0 1 5.1-12.66z" fill="#a1d6cc"/><path d="M34.25 53.46A9.67 9.67 0 0 1 45 45a9.67 9.67 0 0 0-17.78 7.62A19.33 19.33 0 0 0 42.66 64.2a9.67 9.67 0 0 1-8.41-10.74z" fill="#52bbae"/><path d="M47 58.54A9.67 9.67 0 0 1 45 45a9.67 9.67 0 0 0-2.29 19.21 19.33 19.33 0 0 0 17.75-7.59A9.67 9.67 0 0 1 47 58.54z" fill="#a1d6cc"/><path d="M57.7 50.08A9.67 9.67 0 0 1 45 45a9.67 9.67 0 0 0 15.49 11.59 19.33 19.33 0 0 0 2.3-19.17 9.67 9.67 0 0 1-5.09 12.66z" fill="#52bbae"/><path d="M55.75 36.54A9.67 9.67 0 0 1 45 45a9.67 9.67 0 0 0 17.78-7.63A19.33 19.33 0 0 0 47.33 25.8a9.67 9.67 0 0 1 8.42 10.74z" fill="#a1d6cc"/></svg>